<?xml version="1.0" encoding="utf-8"?>
<COLLADA xmlns="http://www.collada.org/2005/11/COLLADASchema" version="1.4.1" xmlns:xsi="http://www.w3.org/2001/XMLSchema-instance">
  <asset>
    <contributor>
      <author>Blender User</author>
      <authoring_tool>Blender 2.82.7</authoring_tool>
    </contributor>
    <created>2023-09-19T17:17:52</created>
    <modified>2023-09-19T17:17:52</modified>
    <unit name="meter" meter="1"/>
    <up_axis>Z_UP</up_axis>
  </asset>
  <library_cameras>
    <camera id="Camera-camera" name="Camera.003">
      <optics>
        <technique_common>
          <perspective>
            <xfov sid="xfov">49.13434</xfov>
            <aspect_ratio>1.777778</aspect_ratio>
            <znear sid="znear">0.1</znear>
            <zfar sid="zfar">100</zfar>
          </perspective>
        </technique_common>
      </optics>
      <extra>
        <technique profile="blender">
          <shiftx sid="shiftx" type="float">0</shiftx>
          <shifty sid="shifty" type="float">0</shifty>
          <dof_distance sid="dof_distance" type="float">10</dof_distance>
        </technique>
      </extra>
    </camera>
  </library_cameras>
  <library_lights>
    <light id="Lamp-light" name="Lamp.003">
      <technique_common>
        <point>
          <color sid="color">1 1 1</color>
          <constant_attenuation>1</constant_attenuation>
          <linear_attenuation>0</linear_attenuation>
          <quadratic_attenuation>0.00111109</quadratic_attenuation>
        </point>
      </technique_common>
      <extra>
        <technique profile="blender">
          <type sid="type" type="int">0</type>
          <flag sid="flag" type="int">0</flag>
          <mode sid="mode" type="int">8192</mode>
          <gamma sid="blender_gamma" type="float">1</gamma>
          <red sid="red" type="float">1</red>
          <green sid="green" type="float">1</green>
          <blue sid="blue" type="float">1</blue>
          <shadow_r sid="blender_shadow_r" type="float">0</shadow_r>
          <shadow_g sid="blender_shadow_g" type="float">0</shadow_g>
          <shadow_b sid="blender_shadow_b" type="float">0</shadow_b>
          <energy sid="blender_energy" type="float">1</energy>
          <dist sid="blender_dist" type="float">29.99998</dist>
          <spotsize sid="spotsize" type="float">75</spotsize>
          <spotblend sid="spotblend" type="float">0.15</spotblend>
          <att1 sid="att1" type="float">0</att1>
          <att2 sid="att2" type="float">1</att2>
          <falloff_type sid="falloff_type" type="int">2</falloff_type>
          <clipsta sid="clipsta" type="float">1.000799</clipsta>
          <clipend sid="clipend" type="float">30.002</clipend>
          <bias sid="bias" type="float">1</bias>
          <soft sid="soft" type="float">3</soft>
          <bufsize sid="bufsize" type="int">2880</bufsize>
          <samp sid="samp" type="int">3</samp>
          <buffers sid="buffers" type="int">1</buffers>
          <area_shape sid="area_shape" type="int">1</area_shape>
          <area_size sid="area_size" type="float">0.1</area_size>
          <area_sizey sid="area_sizey" type="float">0.1</area_sizey>
          <area_sizez sid="area_sizez" type="float">1</area_sizez>
        </technique>
      </extra>
    </light>
  </library_lights>
  <library_effects>
    <effect id="link_06_part_000_mtl_001-effect">
      <profile_COMMON>
        <technique sid="common">
          <lambert>
            <emission>
              <color sid="emission">0 0 0 1</color>
            </emission>
            <diffuse>
              <color sid="diffuse">0.5163949 0.5559411 0.5999999 1</color>
            </diffuse>
            <index_of_refraction>
              <float sid="ior">1</float>
            </index_of_refraction>
          </lambert>
        </technique>
      </profile_COMMON>
    </effect>
  </library_effects>
  <library_images/>
  <library_materials>
    <material id="link_06_part_000_mtl_001-material" name="link_06_part_000_mtl.001">
      <instance_effect url="#link_06_part_000_mtl_001-effect"/>
    </material>
  </library_materials>
  <library_geometries>
    <geometry id="Link_6-mesh" name="Link 6">
      <mesh>
        <source id="Link_6-mesh-positions">
          <float_array id="Link_6-mesh-positions-array" count="1812">-0.00753355 8.85124e-4 -0.03607463 -0.00997442 6.23292e-4 -0.04118865 -0.01016509 0.004715681 -0.04113423 -0.007234394 -0.01867133 0.03007441 -0.009980201 -0.01759648 0.03725987 -0.009972751 -0.0229302 0.03417056 -0.007279813 -0.01347333 0.03286784 -0.007342994 -0.02411842 0.02633798 -0.009979963 -0.02761673 0.03058159 -0.005417048 -0.02422291 0.01907998 -0.005404949 -0.01927447 0.02398705 -0.007466793 -0.01913046 -0.03047263 -0.00540471 -0.01579284 -0.02640616 -0.005424857 -0.02201712 -0.0217058 -0.007219851 -0.01218563 -0.03327947 -0.01018053 -0.0195555 -0.03649294 -0.01006269 -0.01598393 -0.03804087 -0.00788182 -0.006795465 -0.03627097 -0.005407214 -6.81336e-4 -0.03089624 -0.005466043 -0.008832752 -0.02965927 -0.01005679 -0.003878593 -0.04108542 -0.00753647 -8.8482e-4 -0.03608119 -0.005429267 6.35364e-4 -0.0309453 -0.00737071 0.007913768 -0.03489464 -0.007487118 0.01919788 -0.03048682 -0.009974181 0.01801276 -0.0370543 -0.009987533 0.02484381 -0.03288269 -0.007632255 0.01416182 -0.03348016 -0.005412042 0.01034098 -0.02907609 -0.005420982 0.01990151 -0.02359342 -0.007834911 0.02473992 -0.0271914 -0.009987473 0.03076398 -0.02742367 -0.007476329 0.02828919 -0.02225977 -0.009995639 0.03547459 -0.02098733 -0.007190823 0.02986264 -0.0188331 -0.005416989 0.02351194 -0.01984822 -0.007453143 0.03304558 -0.01414662 -0.009964585 0.03892093 -0.01348102 -0.005414962 0.02732503 -0.01407462 -0.007459521 0.03509628 -0.007847428 -0.009932279 0.04072022 -0.005946874 -0.005409479 0.0299564 -0.006989896 -0.007789731 0.03663164 -0.001576006 -0.00993967 0.04109913 0.002167284 -0.007478654 0.03574925 0.004288196 -0.005419194 0.03091722 5.25506e-4 -0.009922623 0.03985059 0.01024526 -0.007199585 0.03438603 0.008084595 -0.007472813 0.03330445 0.01364785 -0.009990572 0.03714305 0.01785802 -0.005415022 0.02917379 0.009676992 -0.007774949 0.03119826 0.01920068 -0.009986817 0.03300356 0.02468198 -0.007457077 0.02713072 0.02359312 -0.005425393 0.0261777 0.01632362 -0.009986817 0.0275737 0.03062885 -0.007190644 0.02278423 0.02696311 -0.005413293 0.02195715 0.02149993 -0.0074988 0.02006375 0.02994877 -0.009986817 0.02109104 0.03540629 -0.005419015 0.01526975 0.02679693 -0.007470905 0.01379245 0.03323858 -0.009986817 0.01380312 0.03883177 -0.007460772 0.008276641 0.03498035 -0.009986817 0.00598818 0.0407747 -0.007337033 0.002694666 0.03556603 -0.005403757 0.007258117 0.02989095 -0.009877622 8.16372e-5 0.04106122 -0.005446016 -7.2452e-5 0.03084743 -0.009882271 -0.007587432 0.04035907 -0.007605314 -0.009868264 0.03493779 -0.007158875 -0.0033589 0.03505557 -0.005403578 -0.006661236 0.03002935 -0.005445957 -0.01359957 0.02768748 -0.00747615 -0.03068464 0.01884311 -0.005494177 -0.02829831 0.01281183 -0.009864091 -0.03807306 0.01537352 -0.007509291 -0.0354188 0.006820559 -0.007552981 -0.03387689 0.01251518 -0.009943246 -0.0399425 0.009982943 -0.005415737 -0.02977579 0.007962644 -0.009943604 -0.04114723 0.001291513 -0.007334947 -0.03569263 2.42603e-4 -0.009916186 -0.04064482 -0.00625348 -0.007473647 -0.03514713 -0.007769644 -0.005417764 -0.0308296 -8.92993e-4 -0.005419909 -0.0302146 -0.006174266 -0.00995922 -0.03890991 -0.01348429 -0.007469654 -0.03311645 -0.01407903 -0.009986519 -0.03544157 -0.02102661 -0.007193505 -0.02989041 -0.01880127 -0.00541532 -0.02732491 -0.01407521 -0.007483899 -0.02827876 -0.02230125 -0.009985208 -0.03071802 -0.02747261 -0.007834374 -0.02469944 -0.02722662 -0.009983837 -0.02482408 -0.0328918 -0.009981811 -6.22664e-4 -0.04120379 -0.00973761 -0.01295739 -0.03867787 -0.009961903 0.01059854 -0.039788 -0.01018387 -0.004054665 0.04120957 -0.009870171 -0.03197485 0.0257641 -0.009961366 -0.03532022 0.02119004 -0.00998032 -0.01205193 0.03935444 -0.01018357 -0.008099734 -0.04060894 -0.005400955 -0.01682829 -0.01285177 -0.005399942 -0.01078307 -0.01807481 -0.005383908 -0.01951372 -0.007153034 -0.005399525 -0.004372894 -0.02064001 -0.005399942 0 -0.03002935 -0.005348026 -0.02032321 -0.003510773 -0.005344152 -0.02065342 4.82167e-4 -0.005400121 0.004027366 -0.02077949 -0.005400717 -0.01936662 0.008476793 -0.005398035 0.01224994 -0.01719272 -0.005398571 -0.01353687 0.01631027 -0.005394458 0.0190829 -0.009231925 -0.005400002 -0.007032454 0.01978743 -0.005383551 -0.002865433 0.02063739 -0.005334615 0.02052301 -0.001495182 -0.005362033 0.00280863 0.02051973 -0.005361914 0.01967686 0.006451487 -0.005363881 0.01006704 0.01822555 -0.005366027 0.01737087 0.01120597 -0.00535047 0.01464492 0.01462846 -0.01047629 0.02651017 -0.03190499 -0.01047599 0.02950537 -0.0291571 -0.01047015 -0.02935707 0.02929747 -0.01046675 -0.03208571 0.02627992 -0.01047652 0.02326047 -0.03434658 -0.01047021 -0.0263493 0.0320298 -0.01047676 0.01978737 -0.03645843 -0.01047027 -0.02308863 0.03445464 -0.01047706 0.01612424 -0.03822016 -0.01047039 -0.01960623 0.03654885 -0.0104773 0.01230615 -0.03961503 -0.01047044 -0.01593554 0.03829222 -0.01047921 0.008443772 -0.04061108 -0.01047056 -0.0121119 0.03966802 -0.01047068 -0.008171916 0.04066312 -0.0105071 0 -0.04149997 -0.01047098 -9.50091e-5 0.04147636 -0.0107488 -0.004067659 -0.04130011 -0.0104711 0.003964364 0.04128676 -0.01047122 0.00798577 0.04070079 -0.01032549 -0.01186215 -0.03970855 -0.0104714 0.01193058 0.03972411 -0.0107488 -0.01588135 -0.03834098 -0.01047158 0.01576083 0.03836607 -0.01047176 0.01943987 0.03663969 -0.01047766 -0.02298396 -0.03452247 -0.01047194 0.02293241 0.03456151 -0.01047188 -0.02624189 -0.03211557 -0.01047211 0.02620476 0.03215152 -0.01047146 -0.02926278 -0.02938926 -0.01047229 0.02922558 0.02943283 -0.01047146 -0.03200256 -0.02637952 -0.01047247 0.03196585 0.02643156 -0.01047146 -0.03443408 -0.02311569 -0.01047146 -0.03653401 -0.01962924 -0.01047271 0.03439933 0.02317643 -0.01047289 0.03650254 0.01969873 -0.01046526 -0.03828239 -0.01595085 -0.01046931 -0.03966003 -0.01212841 -0.01047313 0.03825533 0.01603192 -0.01046526 -0.04065829 -0.00817734 -0.01046764 0.0396443 0.01219719 -0.01045465 -0.04126954 -0.004101574 -0.01051294 -0.04148536 0 -0.01046425 0.04064625 0.008264601 -0.01046407 0.04125988 0.004248797 -0.01045489 0.04147171 2.58764e-4 -0.01045989 0.04130297 -0.003773689 -0.01046049 0.04073494 -0.007801234 -0.0103814 -0.04125684 0.004100561 -0.01046377 0.03978008 -0.01173788 -0.01047337 -0.04067319 0.008112072 -0.01046377 0.03843253 -0.01559466 -0.0104615 -0.03968787 0.0120368 -0.01046383 0.03673148 -0.01926261 -0.0104618 -0.03832095 0.01585984 -0.01046872 0.0346648 -0.02277439 -0.01046675 -0.03658944 0.01952725 -0.01047873 0.03222656 -0.02611953 -0.01046508 -0.03449535 0.02302533 -0.01799994 0.01669293 -0.01867365 -0.018 0.03077149 -0.02788966 -0.018 0.02503758 -0.03315329 -0.01799994 0.02077454 -0.01399165 -0.018 0.03544777 -0.02166742 -0.01799994 0.0115844 -0.02220755 -0.018 0.01956295 -0.03659969 -0.018 0.01433557 -0.03899377 -0.01799994 0.0235784 -0.008449554 -0.018 0.03899377 -0.01433557 -0.01799994 0.005762934 -0.02437561 -0.018 0.006098687 -0.04111427 -0.018 0.04104125 -0.006452798 -0.01799994 0.0249322 -0.002388358 -0.01799994 -4.13362e-4 -0.02504438 -0.018 -0.002399027 -0.04147613 -0.018 0.04151403 0.002039432 -0.01799994 0.02475315 0.003819048 -0.018 -0.006564497 -0.02417242 -0.018 -0.008096218 -0.04070258 -0.018 -0.01399093 -0.03910207 -0.018 0.04021114 0.01044446 -0.01799994 0.02305251 0.009791195 -0.018 0.0374009 0.01808863 -0.018 -0.01231205 -0.02181327 -0.018 -0.01956295 -0.03659969 -0.018 -0.02503758 -0.03315329 -0.01799994 0.01993519 0.01516103 -0.018 0.03450596 0.02305614 -0.018 0.03053957 0.02816665 -0.018 -0.01730227 -0.01811188 -0.018 -0.02934491 -0.02934491 -0.01799994 0.01559317 0.0195986 -0.018 -0.0335834 -0.02445775 -0.018 0.02445775 0.0335834 -0.018 -0.02122801 -0.013296 -0.01799994 0.01029342 0.02283149 -0.018 -0.03659969 -0.01956295 -0.018 0.01956295 0.03659969 -0.018 -0.03923702 -0.01365584 -0.018 -0.02384763 -0.007661938 -0.018 0.01365584 0.03923696 -0.01799994 0.004361867 0.02466142 -0.018 -0.04070258 -0.008096218 -0.018 -0.02499872 -0.001568257 -0.018 0.008096218 0.04070258 -0.018 -0.0414797 -0.002037763 -0.018 0.00167787 0.04151153 -0.01799994 -0.001489698 0.02498388 -0.018 -0.04114717 0.005738615 -0.018 -0.02462941 0.004552364 -0.018 -0.006452858 0.04104125 -0.018 -0.005982875 0.02427351 -0.018 -0.03923702 0.01365578 -0.018 -0.0228033 0.01035994 -0.018 -0.01433563 0.03899377 -0.01799994 -0.01007246 0.02292937 -0.018 -0.03581893 0.02104818 -0.018 -0.01956295 0.03659969 -0.018 -0.02503758 0.03315329 -0.01799994 -0.0153014 0.0198273 -0.01799994 -0.01963084 0.01555383 -0.018 -0.03102439 0.0276317 -4.94248e-4 0.01615834 -0.01186376 -0.004789054 0.01337379 -0.01493155 -0.004620432 0.0153197 -0.01285749 -4.94077e-4 0.01225531 -0.01586323 -4.94766e-4 -0.01921892 0.005694627 -0.004525423 -0.01711243 0.01043725 -0.004528224 -0.01879256 0.00684452 -4.95007e-4 -0.01690101 0.01077717 -0.004620254 0.01781433 -0.009187757 -0.004738152 -0.01954317 0.004486322 -5e-4 0.01980531 0.002783417 -0.004630565 0.02000021 -1.60181e-6 -0.004619419 0.01980602 0.002780556 -5.14363e-4 0.01998233 -0.00158137 -4.94494e-4 0.01880586 -0.006941795 -4.94497e-4 -0.0200442 1.6907e-4 -0.004767417 -0.02001363 0.0014925 -4.98216e-4 0.01891642 0.006628334 -0.004796147 0.01931047 0.005377173 -0.004636228 0.01964622 -0.003977596 -0.004777193 -0.01999127 -0.001635313 -0.004826664 0.01839941 0.007997512 -4.94284e-4 -0.01931256 -0.005369126 -0.004832327 -0.0196225 -0.004218459 -4.97804e-4 0.01635289 0.01159113 -0.004712343 0.0169667 0.01059055 -0.004517853 -0.01879328 -0.006842076 -0.004815578 0.01553565 0.01269161 -4.94122e-4 -0.01708072 -0.01049065 -0.004519462 -0.01685357 -0.01085084 -4.97318e-4 0.01251798 0.01565492 -0.004814028 0.01367467 0.01468378 -0.004788279 0.0114569 0.01645588 -4.93992e-4 -0.0135222 -0.01479727 -4.96865e-4 0.007710754 0.01850193 -0.004794478 0.009103596 0.01786971 -0.004520893 -0.01438558 -0.01389449 -0.00479418 0.006555676 0.01895374 -0.00453031 -0.01098835 -0.01676434 -4.93905e-4 -0.008913159 -0.01795464 -4.96448e-4 0.002304971 0.01991152 -0.004772901 0.003846704 0.01968193 -0.004909694 0.001205146 0.02005624 -0.004536807 -0.005943596 -0.01914304 -4.93868e-4 -0.003611505 -0.01971739 -4.96054e-4 -0.003279685 0.01977443 -0.004873275 -0.001701354 0.02002227 -0.004904091 -0.004512846 0.01958519 -0.004538834 -0.002089142 -0.01989066 -4.93852e-4 0.001970708 -0.01994842 -0.004622817 0.002387285 -0.01990091 -4.95639e-4 -0.008609712 0.01810133 -0.004897236 -0.007080197 0.01880311 -0.004536747 -0.009995996 0.01732307 -4.93931e-4 0.007400274 -0.01862967 -0.004620194 0.007740437 -0.01848924 -4.95321e-4 -0.01327043 0.01502281 -0.004529118 -0.01357579 0.01474678 -0.004620432 0.01118224 -0.01658213 0 0.0134263 -0.01224976 0 0.01235437 -0.01333898 1.61369e-7 0.01156258 -0.0157594 1.54339e-7 0.01705217 0.009552299 0 0.01235437 0.008934795 0 0.01509487 0.002429425 0 -0.01346969 -0.01208031 1.35981e-7 -0.0138759 -0.01376914 0 -0.01276415 -0.01305609 0 0.0134263 0.01002401 0 -0.01168584 -0.01359254 1.2212e-7 0.01904928 0.004373729 1.64178e-7 0.009210169 0.01724046 0 0.002371549 0.01490902 0 0.009035527 0.01252096 1.82382e-7 0.003999292 0.01913332 0 0.002490699 0.01610755 0 0.009919404 0.01333898 1.45365e-7 -0.009457051 -0.01710796 -2.30081e-7 -0.00760293 0.007310628 0 -0.008847534 0.01002401 0 -0.009919404 0.008934795 0 0.01358854 0.0118218 0 -0.01362597 -0.0106039 1.42537e-7 -0.01718038 -0.009325861 0 -0.01048177 -0.01356637 0 0.01136571 0.01367217 0 0.01075232 -0.00862056 -1.51832e-7 0.00700736 -0.007880985 0 0.009180366 -0.00950843 1.56439e-7 0.01368147 0.01395922 0 0.01276409 0.01305615 1.65569e-7 0.01552379 -0.01187622 1.40542e-7 -0.01178544 0.01559579 1.46428e-7 -0.01568633 0.01166504 0 -0.01323825 0.01252096 0 -0.01235437 0.01333898 0 -0.009427726 -0.01298362 0 -0.01090812 0.01367217 0 -0.01284599 -0.009290158 0 0.0135886 -0.01045197 -1.36755e-7 0.009444117 -0.004690885 0 -0.001120686 -0.01800286 0 -0.002216696 -0.01700168 1.71906e-7 -0.004277884 -0.01907366 -2.10824e-7 -0.0043208 0.009621679 0 -0.008685231 0.0118218 0 0.01251763 -0.008998394 0 -0.01808279 -9.43379e-4 0 -0.01949918 0.001387596 1.37367e-7 -0.01910614 -0.004134833 0 -0.01737725 -0.001919209 1.62014e-7 0.001246273 -0.01950734 0 -0.009509742 0.01305615 0 -0.01629889 -0.002455592 1.39953e-7 0.01823538 -0.00703454 1.66762e-7 -0.006937623 0.01827514 0 3.84591e-4 -0.01826632 0 -0.002489089 -0.01521694 0 0.01371067 -0.001473963 -1.2687e-7 0.01048088 -0.00100106 0 0.0146293 -0.002252876 0 -0.0182538 2.49247e-4 0 -0.001627206 0.01383072 -2.11618e-7 -4.12779e-4 0.01053881 0 -0.01509487 -0.002429425 0 -0.002451539 0.01506471 0 -0.008765339 -0.01197785 0 -5.48919e-4 0.01329433 0 -0.01152151 -0.00862056 0 0.01325929 -3.57482e-4 0 0.01613456 -0.002516329 0 -0.01770645 0.001628458 0 0.001709103 -0.01759666 0 -0.01404082 -0.001846671 0 6.55113e-4 0.0133205 0 0.01337844 8.40958e-4 0 0.01031023 0.001987099 0 -0.00237149 0.01659095 -1.66445e-7 0.00355488 0.009929239 -2.30112e-7 -0.00760293 -0.007310628 0 -0.009756207 -0.008998394 0 -0.008685231 -0.01045203 0 0.002371549 -0.01659089 0 0.001709163 0.01390331 -2.10851e-7 -0.0043208 -0.009621679 0 0.01404088 0.00184673 -1.36754e-7 0.009444117 0.004690885 0 -0.01640504 0.002429425 -2.42866e-7 -0.009783923 -0.003940701 1.33496e-7 0.01951336 -0.001386582 0 0.01745909 -0.001846671 1.58719e-7 -0.001531422 0.0194872 0 -0.001509904 0.01779937 0 0.01812154 -8.40942e-4 0 -0.001709043 -0.01390326 1.83295e-7 0.006671965 -0.01837265 0 0.002451658 -0.01506507 1.39475e-7 -0.01832801 0.006798803 0 -0.01337844 -8.4094e-4 0 -0.01520103 0.002455592 0 0.0100162 0.008884012 0 0.009097635 0.009662866 -1.51815e-7 0.00700736 0.007880985 -2.11641e-7 -4.12787e-4 -0.01053881 0 -3.84583e-4 -0.01323366 -2.78165e-7 -0.01054769 0 0 -0.01329833 6.84911e-4 0 0.001380681 -0.01361143 -1.66457e-7 0.00355494 -0.009929239 0 0.008592545 0.01105844 -2.42865e-7 -0.009783923 0.003940701 0 -0.01412278 0.001919269 0 0.01119154 0.008621275 0 0.01820164 6.84907e-4 0 2.28734e-4 0.01828527 0 0.009509623 -0.01305615 0 -0.01225757 0.008884012 0 -0.0131762 0.009662866 0 0.008804142 -0.01208007 0 0.01090806 -0.01367217 0 -0.01368123 0.01105844 0 -0.01108223 0.008621275 0 0.008633017 -0.01088792 0 0.01629894 0.002455592 0 0.01737713 0.001919269 0 0.001852512 0.01749587 -5.04575e-4 -0.006288647 -0.007831871 -5.04594e-4 -0.002820491 -0.009640276 -0.005969405 -0.003294944 -0.009452641 -0.006011307 0.009968578 -0.001277506 -5.17299e-4 0.009985327 0.001085519 -0.005924761 0.009671628 0.002655625 -0.005933105 5.31393e-4 -0.01002103 -5.04617e-4 0.001075565 -0.009986817 -5.01277e-4 0.008777201 0.004880785 -0.00598365 0.008024692 0.006030559 -0.006002783 0.003825724 -0.009238719 -5.04609e-4 0.004808843 -0.008818805 -0.005999982 0.006232678 -0.007875144 -5.01906e-4 0.006244719 0.007865428 -0.00596112 0.005612075 0.00818628 -0.005799949 0.003826797 0.009238779 -5.0456e-4 0.007813394 -0.006312787 -0.005965709 0.008693814 -0.004990696 -5.02476e-4 0.002764344 0.009655117 -0.005978822 0.00150752 0.009904444 -5.04562e-4 0.009632647 -0.002848625 -5.02966e-4 -0.00113517 0.00997883 -0.005935251 -0.002479135 0.009724378 -5.03387e-4 -0.004861891 0.008788049 -0.005996823 -0.005568921 0.008303761 -0.005969107 -0.007546067 0.00659883 -5.03691e-4 -0.007850766 0.006263971 -0.006042718 -0.009628891 0.002946436 -5.04003e-4 -0.009648382 0.002790033 -0.005753219 -0.0100106 -8.09027e-4 -5.04236e-4 -0.009982645 -0.001106977 -0.006015658 -0.008990228 -0.004485964 -5.04387e-4 -0.008803009 -0.00483632 -0.005999982 -0.006505191 -0.007651686 -0.006761074 0.01519316 0.002453804 -0.008230507 0.01576918 -6.15557e-6 -0.006768584 0.01675987 0.002333819 -0.006753623 0.01786988 0.001354455 -0.006760239 0.01411563 0.001913368 -0.00675863 0.0182566 2.08041e-4 -0.006752252 0.01807284 -9.6296e-4 -0.006761074 0.01341384 9.35094e-4 -0.006761074 0.01324689 -2.57409e-4 -0.006761074 0.01365298 -0.001390755 -0.00675708 0.01454067 -0.002206802 -0.006755769 0.01598829 -0.002534091 -0.00676161 0.01738548 -0.001912295 -0.006761074 0.01058012 0.01359075 -0.008230507 0.01115614 0.01113075 -0.006768584 0.01214677 0.01347076 -0.006753623 0.01325678 0.0124914 -0.006760239 0.009502589 0.01305031 -0.00675863 0.0136435 0.01134496 -0.006752252 0.01345974 0.01017397 -0.006761074 0.008800804 0.01207202 -0.006761074 0.008633792 0.01087951 -0.006761074 0.009039938 0.009746134 -0.00675708 0.00992763 0.008930087 -0.006755769 0.01137518 0.008602797 -0.00676161 0.01277244 0.009224534 -0.006761074 -0.01169371 0.01359075 -0.008230507 -0.01111769 0.01113075 -0.006768584 -0.010127 0.01347076 -0.006753623 -0.00901699 0.0124914 -0.006760239 -0.01277124 0.01305031 -0.00675863 -0.008630275 0.01134496 -0.006752252 -0.008814036 0.01017397 -0.006761074 -0.01347303 0.01207202 -0.006761074 -0.01363998 0.01087951 -0.006761074 -0.0132339 0.009746134 -0.00675708 -0.0123462 0.008930087 -0.006755769 -0.01089859 0.008602797 -0.00676161 -0.009501338 0.009224534 -0.006761074 -0.01630675 0.002453804 -0.008232951 -0.01572847 -1.01142e-5 -0.006768524 -0.01473999 0.00233376 -0.006753623 -0.01363021 0.001354634 -0.006761014 -0.01761162 0.001735985 -0.00675863 -0.01324337 2.08252e-4 -0.006751418 -0.01354151 -0.001263976 -0.006754755 -0.01829481 4.74863e-5 -0.006759643 -0.01672124 -0.002352714 -0.006759047 -0.01784443 -0.001394927 -0.006768524 -0.01492321 -0.002407014 -0.006761074 -0.01169371 -0.008683085 -0.008232951 -0.01111543 -0.01114702 -0.006768524 -0.01012688 -0.008803129 -0.006753623 -0.009017109 -0.009782254 -0.006761014 -0.01299852 -0.009400904 -0.00675863 -0.008630275 -0.01092863 -0.006751418 -0.008928477 -0.01240092 -0.006754755 -0.0136817 -0.01108944 -0.006759643 -0.0121082 -0.0134896 -0.006759047 -0.01323139 -0.01253187 -0.006768524 -0.01031011 -0.0135439 -0.006761074 -5.56804e-4 -0.01329612 -0.008232951 2.14831e-5 -0.01576006 -0.006768524 0.00101 -0.01341623 -0.006753623 0.002119719 -0.01439529 -0.006761014 -0.001861572 -0.01401394 -0.00675863 0.002506554 -0.01554173 -0.006751418 0.002208411 -0.01701396 -0.006754755 -0.00254476 -0.01570248 -0.006759643 -9.71286e-4 -0.0181027 -0.006759047 -0.002094447 -0.01714491 -0.006768524 8.26782e-4 -0.018157 -0.006761074 0.01058012 -0.008683085 -0.008229911 0.01115339 -0.01114851 -0.006769001 0.01214528 -0.008802354 -0.006753623 0.01325672 -0.009782254 -0.006760239 0.009502589 -0.00922352 -0.00675863 0.0136435 -0.0109288 -0.006751418 0.01334536 -0.01240092 -0.006762504 0.00868225 -0.01046365 -0.006761074 0.008768081 -0.01198565 -0.006758809 0.009647607 -0.01320105 -0.006761074 0.01226532 -0.01338601 -0.006759226 0.01109558 -0.01365298 -0.00499916 5.4501e-5 0.01826554 -0.00500822 -0.001380264 0.01788848 -0.006468892 2.72359e-5 0.01573252 -0.004998981 0.002506554 0.01595824 -0.004991829 0.002208352 0.01448595 -0.004998624 -0.00245136 0.01643472 -0.005018174 -0.001726508 0.0139209 -0.005016505 -0.002394139 0.01497489 -0.00499922 -6.53933e-4 0.01332026 -0.005008876 8.26853e-4 0.01334297 -0.004993021 0.002118468 0.01710611 -0.005001425 0.001209557 0.01795649 -0.005280792 0.01643246 -0.01225554 -0.005284667 0.01265865 -0.01617723 -0.00519371 -0.01844334 -0.008728027 -0.005280315 0.01922518 -0.007155656 -0.005277276 -0.01554495 -0.01340305 -0.005277097 -0.009903192 0.01793205 -0.005275726 -0.01328408 0.01565366 -0.005274415 -0.01126331 -0.0171557 -0.005275785 -0.01704883 0.01143634 -0.005274951 -0.006148815 -0.0195809 -0.005278646 0.02025955 0.002906143 -0.005270183 -0.01970338 0.005830228 -0.005274951 -8.53782e-4 -0.02049499 -0.005275905 0.003660678 -0.02013164 -0.005274534 0.00753355 -0.01907086 -0.005263924 0.008348584 0.01875901 -0.023 0.0108906 0.02255338 -0.023 -0.007817506 -0.02379721 -0.023 -0.01347661 -0.02111417 -0.023 -0.02196604 -0.01203858 -0.023 0.0161482 0.01914453 -0.023 0.01054888 -0.02271819 -0.023 0.02017056 -0.01484996 -0.023 0.01585543 -0.01939046 -0.023 0.02482533 -0.003324151 -0.023 0.02322423 -0.009380578 -0.023 -0.007942795 0.02375239 -0.023 0.004951 0.02455049 -0.02299994 -0.001549422 0.02501398 -0.023 -0.001669585 -0.02499252 -0.023 0.004582822 -0.02462524 -0.023 -0.01835054 0.01704716 -0.023 -0.02426582 -0.006213486 -0.023 -0.02504831 -3.87369e-6 -0.023 -0.02427226 0.006184399 -0.023 -0.0219931 0.01198649 -0.023 -0.01356875 0.0210523 -0.023 0.02336525 0.009021103 -0.023 0.02487337 0.002940237 -0.023 0.02039498 0.01453763 -0.023 -0.01829314 -0.01711118</float_array>
          <technique_common>
            <accessor source="#Link_6-mesh-positions-array" count="604" stride="3">
              <param name="X" type="float"/>
              <param name="Y" type="float"/>
              <param name="Z" type="float"/>
            </accessor>
          </technique_common>
        </source>
        <source id="Link_6-mesh-normals">
          <float_array id="Link_6-mesh-normals-array" count="3612">0.9004954 0.04769915 -0.4322417 0.9006289 -0.2168701 0.3766099 0.906392 -0.1937983 0.3753609 0.9049905 -0.2527751 0.3421946 0.9016128 -0.2638612 0.3427415 0.9345074 -0.2517833 0.2515973 0.9309598 -0.2219516 -0.2899163 0.902822 -0.1957361 -0.3828837 0.9312768 -0.06121569 -0.3591327 0.9015924 -0.03884071 -0.4308394 0.9250743 0.04193627 -0.3774638 0.8943679 0.2344132 -0.3809941 0.9245442 0.1205406 -0.3615081 0.9309673 0.1663511 -0.3250032 0.9385975 0.1722943 -0.2989138 0.892286 0.3060437 -0.3319083 0.9053061 0.2576217 -0.3377161 0.9046095 0.3120498 -0.2903562 0.9272524 0.2686835 -0.2607915 0.9236953 0.2369727 -0.3010496 0.9020782 0.3587629 -0.2398838 0.8950999 0.3603371 -0.2625898 0.9275127 0.2686119 -0.2599387 0.8949822 0.4040004 -0.1891847 0.9047947 0.3741073 -0.203446 0.9364791 0.2925106 -0.1935057 0.9317463 0.2942637 -0.2127388 0.928753 0.3287477 -0.1712979 0.896436 0.4301666 -0.1065795 0.9063046 0.4021352 -0.1299971 0.9352297 0.3316516 -0.1239064 0.9292116 0.3516722 -0.113546 0.8942293 0.4471592 -0.02006572 0.9060145 0.4229596 0.01558291 0.9071648 0.4172462 -0.05438721 0.9282045 0.3697322 -0.04164755 0.8963395 0.4384471 0.06587594 0.904697 0.4177879 0.08352726 0.9224427 0.3860254 0.009154379 0.8957172 0.4163342 0.1560665 0.9067937 0.4032539 0.1229293 0.9379097 0.3408293 0.06450599 0.933887 0.3528242 0.05805504 0.9286826 0.3528538 0.1142052 0.8927555 0.385425 0.2333137 0.9048513 0.3430126 0.2521637 0.9041948 0.3807209 0.1936066 0.9345553 0.3238359 0.1474339 0.9259266 0.3081744 0.2183769 0.9264671 0.3324254 0.1764998 0.8948398 0.3296478 0.3009886 0.9053012 0.2935422 0.3070226 0.9339359 0.2780952 0.2245591 0.8953842 0.2641746 0.3584678 0.9022266 0.2683293 0.3376191 0.9377989 0.2150714 0.2725391 0.9289785 0.2606791 0.262765 0.9051058 0.2006702 0.3748533 0.8956493 0.1891948 0.4025144 0.9326781 0.2134612 0.2907682 0.9245063 0.1802878 0.3358339 0.8950966 0.1075758 0.4327002 0.9043344 0.1300334 0.4065348 0.9052663 0.06413227 0.4199763 0.936068 0.128295 0.3275931 0.9288446 0.1131052 0.3527818 0.9000943 0.037696 0.4340614 0.9295643 0.05879145 0.363942 0.9354368 0.04042613 0.3511747 0.908912 -0.06977021 0.4111095 0.9273614 -0.004257857 0.374143 0.9354701 -0.03760492 0.3513996 0.9264943 -0.07022655 0.3696981 0.9351326 -0.1184151 0.3339236 0.9320932 -0.1133708 0.3440194 0.9275445 -0.1705847 0.332509 0.9351732 -0.1886969 0.2997409 0.9268077 -0.2248192 0.3008055 0.9202254 -0.3023501 0.248535 0.934082 -0.3044914 0.1864827 0.9017935 -0.4153508 0.1193833 0.9076267 -0.400554 0.12558 0.9224151 -0.3491974 0.1649601 0.9290868 -0.3493471 0.1214678 0.8961332 -0.439587 0.06089961 0.9044531 -0.4245356 0.04164284 0.9251161 -0.364637 0.1058307 0.9084153 -0.4157446 -0.0440244 0.8999092 -0.4353182 -0.0257225 0.9341892 -0.3545826 0.03951907 0.9328127 -0.3578619 0.04237401 0.92616 -0.3748355 -0.04154622 0.9272315 -0.3719313 -0.04369109 0.9062116 -0.4026565 -0.1290293 0.8971002 -0.4283941 -0.1081202 0.8950146 -0.4040039 -0.1890236 0.9049801 -0.3740946 -0.2026433 0.9355868 -0.3317881 -0.1208055 0.9297042 -0.3507648 -0.1123129 0.8951646 -0.3596234 -0.2633467 0.9024438 -0.3579604 -0.2397072 0.9379929 -0.2840277 -0.1987398 0.9286743 -0.329303 -0.1706563 0.8925108 -0.3053856 -0.3319099 0.9047135 -0.3114296 -0.2906976 0.9054898 -0.2567279 -0.3379042 0.9011237 -0.0364651 -0.432026 0.9345502 -0.2873573 -0.2098613 0.9278156 -0.2316687 -0.2923833 0.9225708 -0.2779251 -0.2676204 0.8999332 -0.1905099 -0.392207 0.8930705 -0.2306839 -0.3862773 0.9011049 -0.1798127 -0.3945598 0.901382 0.05130118 -0.4299755 0.9279159 -0.1675764 -0.3330019 0.8968028 0.06903189 -0.4370121 0.9373712 0.06426811 -0.3423521 0.9360669 -0.1421663 -0.3218191 0.9263159 -0.08936828 -0.3659949 0.9248013 -0.04188859 -0.3781374 0.9014608 -0.04001277 0.4310072 0.8654937 -0.04619634 0.4987852 0.9091631 -0.008352637 0.4163566 0.9007002 -0.359025 0.2446228 0.9082625 -0.3778902 0.1796063 0.9021179 -0.383987 0.1968183 0.9041094 0.1987754 -0.378252 0.8975371 -0.1154595 0.4255542 0.9141187 -0.3128769 0.2578663 0.9065014 -0.1142539 -0.4064498 0.890893 -0.09480327 -0.4442094 0.8947748 0.155776 -0.418464 0.9039734 0.1300531 -0.4073306 0.8999859 -0.1540443 0.4077938 0.8995554 -0.1535744 0.4089193 0.9006623 -0.3118174 0.3026176 0.8901497 -0.07741814 -0.4490433 0.9304687 0.3635631 -0.04527837 0.9999932 -0.0036605 -5.56363e-4 0.9999998 -4.3296e-4 -3.098e-4 0.9999973 -0.001134276 -0.002036869 0.9999936 -9.69617e-4 -0.003449022 0.999994 -0.003428578 -6.74234e-4 0.9999999 -2.37419e-4 -4.27347e-4 0.9999998 -6.19509e-5 -7.75003e-4 0.9995632 0.003866732 -0.02929878 0.9999322 -0.00435537 -0.01080793 0.9999753 -0.006937503 -0.00121963 0.9999731 -0.006646454 -0.003145337 0.9999742 -0.007021129 -0.001555263 0.9999992 0.001213133 -5.08895e-4 1 7.63263e-5 -1.38997e-5 0.9999731 -0.007318794 6.47406e-4 0.9999713 -0.001806974 0.007368862 0.9999986 -0.001485705 8.59681e-4 0.9999993 2.75216e-4 -0.00122261 0.9999974 0.00177282 -0.001463174 0.9999986 -0.001511037 8.48011e-4 0.9999982 -0.001879513 -5.73404e-4 0.9999969 0.001164436 -0.00219053 0.9999979 0.001309573 -0.001574993 0.9999976 0.001648962 -0.001433432 0.9999998 -3.71938e-4 5.53289e-4 1 2.70648e-5 3.53292e-4 0.9999976 0.001670658 -0.001396536 0.9999917 -0.004039466 5.00683e-4 0.9999608 0.003095149 -0.008305311 0.9999927 -0.003783166 6.04264e-4 0.9999645 0.007316172 0.004208922 0.9999673 0.008083939 2.59314e-4 0.9999902 5.57942e-5 0.004427194 0.9999853 0.005400359 5.75277e-4 0.999992 0.001446545 0.003766775 0.999983 0.004869222 0.003226637 0.9999841 0.004393577 0.003539919 0.9999835 0.001435577 0.005560994 0.9999846 0.003555119 0.004274487 0.9999827 0.00549966 0.002141594 0.9999722 0.00735563 0.00131464 0.9999791 0.003463089 0.005456864 0.9988532 4.87809e-4 0.04787653 0.9988958 -0.0203846 0.0423296 0.9957787 -0.08206665 0.04110854 0.9986025 -0.01489824 -0.05070722 0.6576885 0.5092236 -0.5551012 0.6435133 0.518879 -0.5627213 0.632086 -0.5674242 0.5277282 0.5832121 -0.6021911 0.5451877 0.4093274 0.5480292 -0.7294622 0.4089793 -0.6135906 0.6754573 0.6589245 0.3907678 -0.6427435 0.6402356 0.4012725 -0.655041 0.5430975 -0.5110473 0.66624 0.6376281 -0.4596895 0.6181553 0.4192648 0.3934668 -0.8181694 0.6226322 -0.3915413 0.6775135 0.5469725 -0.4314189 0.7174252 0.6645392 0.2563748 -0.7018972 0.6411488 0.2664194 -0.7196867 0.4094179 -0.3914058 0.8241229 0.4483577 0.2230085 -0.8655881 0.5399885 -0.2974427 0.7873629 0.640729 -0.2599242 0.7224305 0.5897251 0.1607469 -0.7914448 0.5450395 -0.2052792 0.8128915 0.5925435 -0.1891971 0.783005 0.5654779 -0.1471051 0.8115386 0.4745141 0.03379923 -0.8795989 0.5758885 -0.01332545 0.8174196 0.4260312 -0.06962257 -0.9020256 0.3064883 -0.04163938 -0.9509633 0.5651324 0.03851062 0.8241009 0.6207517 0.04943126 0.7824474 0.3230975 -0.1157238 -0.9392636 0.4055804 0.1318076 0.9045061 0.761478 -0.1778789 -0.6233062 0.6445772 0.1837669 0.7421253 0.7326375 -0.214616 -0.6458966 0.6497328 0.1834046 0.737706 0.3350598 -0.3349465 -0.8806508 0.4059253 0.3054171 0.8613624 0.3207089 -0.3855536 -0.8651556 0.6458803 0.3243382 0.6911175 0.6492108 0.323551 0.6883605 0.5923385 -0.4394544 -0.6752889 0.4062668 0.4672713 0.785242 0.4064877 -0.5424366 -0.7352076 0.6471806 0.4520944 0.6138143 0.6486791 0.4515044 0.6126657 0.6077772 -0.5319901 -0.5895706 0.6586468 -0.5093719 -0.5538274 0.4066152 0.6111747 0.6790652 0.4029622 -0.6768046 -0.6160821 0.6484524 0.5621978 0.5132673 0.648136 0.5623702 0.5134779 0.6127781 -0.6337221 -0.4721224 0.6563028 -0.6086522 -0.4458802 0.4050403 -0.7832034 -0.4717361 0.4069539 0.7316212 0.5469177 0.6497182 0.6504873 0.3933607 0.6442506 0.6540649 0.3964094 0.6789608 -0.6660911 -0.3087637 0.6214929 -0.7071537 -0.3371648 0.4353362 -0.8470882 -0.3048347 0.4086023 0.8234788 0.3936078 0.6112304 -0.7671914 -0.1944603 0.651245 -0.7370371 -0.1807104 0.6578084 0.7078624 0.2573305 0.6559366 0.7093078 0.2581273 0.4811138 -0.8667775 -0.1312484 0.5680492 -0.8222422 -0.03518545 0.4606142 0.860026 0.2195221 0.6711941 -0.7398012 -0.04682677 0.6688284 0.7348832 0.1123184 0.6697424 0.7340916 0.1120475 0.4622197 0.8854615 0.04807329 0.6749134 0.7371222 -0.03380811 0.6612066 0.7495134 -0.03218126 0.4600597 0.8791775 -0.1240647 0.4498524 -0.8924055 0.03529059 0.6473845 0.7406848 -0.1796652 0.6507273 0.7377893 -0.179502 0.7484745 -0.6568867 0.09102606 0.6197507 -0.7744727 0.1268901 0.4275772 0.8533919 -0.2981612 0.4348716 -0.8736976 0.2180349 0.663848 0.6786128 -0.3143095 0.6665017 0.6763054 -0.3136664 0.6572008 -0.709698 0.2538028 0.5465549 -0.793649 0.2672064 0.4048913 0.7877853 -0.464174 0.6306728 -0.6973242 0.3405743 0.585843 -0.7325444 0.3466508 0.6476762 0.6147919 -0.4500517 0.6423099 0.6188832 -0.4521303 0.422061 -0.7779257 0.4655061 0.4083607 0.6800729 -0.6088863 0.6490474 -0.6112532 0.4528875 0.5473937 -0.6806536 0.4868993 -1 -5.73144e-7 5.88915e-7 -1 -8.00849e-7 6.16318e-7 -1 -8.43323e-7 1.02059e-6 -1 -8.21449e-7 3.39878e-7 -1 0 7.94046e-7 -1 0 6.73612e-7 -1 -8.6945e-7 4.43962e-7 -1 -8.48988e-7 4.57038e-7 -1 0 4.42826e-7 -1 0 7.26321e-7 -1 -1.08948e-6 2.56974e-7 -1 -9.1706e-7 1.16613e-6 -1 -5.61809e-7 4.50184e-7 -1 1.70226e-7 3.41828e-7 -1 -1.46857e-6 0 -1 -1.12236e-6 -3.36358e-7 -1 1.13238e-6 2.62389e-7 -1 0 0 -1 -2.47973e-7 0 -1 -1.47034e-6 -1.92665e-7 -1 -1.09414e-6 -5.11654e-7 -1 -1.26435e-6 2.19544e-7 -1 5.63325e-7 0 -1 -2.17117e-7 0 -1 0 -2.23741e-7 -1 -1.41399e-6 -1.25285e-6 -1 -1.06959e-6 -2.81215e-7 -1 -1.10055e-6 -9.55011e-7 -1 2.80678e-7 -2.28594e-7 -1 0 0 -1 -8.43354e-7 -6.68539e-7 -1 0 -3.58997e-7 -1 -8.74841e-7 -1.02156e-6 -1 1.40844e-7 -3.64289e-7 -1 1.41592e-7 -1.63459e-6 -1 -6.18282e-7 1.25095e-7 -1 -9.1567e-7 -5.83857e-7 -1 -1.42099e-7 0 -1 -1.35581e-7 -4.04072e-7 -1 0 -9.95384e-7 -1 -1.40648e-7 -9.6107e-7 -1 -1.40995e-7 -1.58326e-6 -1 -1.54245e-7 2.45967e-7 -1 -1.22988e-6 -8.01737e-7 -1 -7.2604e-7 -4.07439e-7 -1 -3.60132e-6 -1.56636e-6 -1 5.49237e-7 -9.68085e-7 -1 -1.00321e-6 -2.48809e-7 -1 -7.38921e-7 0 -1 0 -2.27924e-6 -1 8.22068e-6 0 -1 0 1.60908e-6 -1 -1.0938e-6 2.13952e-7 -1 -4.94044e-6 -2.93828e-6 -1 0 0 -1 -5.48096e-7 1.43879e-7 -1 0 -1.53168e-6 -1 1.4569e-6 -2.48854e-7 -1 1.62367e-6 -1.06825e-6 -1 1.29019e-6 1.60762e-6 -1 3.28442e-7 -2.01566e-7 -1 1.58516e-6 1.23154e-6 -1 8.71768e-7 -8.35054e-7 0.01812213 0.9984274 0.05305153 -0.01274132 0.9881175 0.1531714 -0.01094442 0.9884663 0.1510455 0.0154733 0.9689233 0.246877 -0.01226145 0.9385107 0.3450324 -0.008481085 0.9401956 0.3405294 0.01542156 0.9021132 0.4312238 0.004195868 0.8639843 0.5035014 -0.00857532 0.8556517 0.5174812 -0.008358299 0.7899553 0.6131076 0.001780569 0.8009298 0.5987556 0.01548862 0.7384011 0.674184 -0.01231145 0.6650453 0.7467015 -0.008257687 0.6689345 0.7432756 0.01553231 0.5929341 0.8051012 0.00405246 0.5246168 0.8513288 -0.008047163 0.5113423 0.8593395 -0.0083552 0.4076619 0.9130948 0.002134501 0.4248024 0.9052837 0.01559394 0.334131 0.9423977 0.00396341 0.2549002 0.9669592 -0.007730603 0.2403262 0.9706615 -0.008356988 0.1250495 0.9921153 0.002344608 0.1441854 0.9895479 0.0156514 0.04665118 0.9987887 -0.003778219 -0.05774456 0.9983243 -0.0113607 -0.06804645 0.9976176 0.01943266 -0.1328775 0.990942 -0.007209479 -0.2448572 0.9695324 -0.01242613 -0.2513817 0.9678084 0.01572531 -0.3385239 0.9408264 -0.007000088 -0.4290099 0.9032728 0.00374788 -0.4163939 0.9091767 0.00282675 -0.5153529 0.8569734 -0.008363842 -0.5327266 0.8462461 0.01577603 -0.5966688 0.8023326 -0.006688773 -0.672387 0.7401696 -0.0124942 -0.6779189 0.7350306 0.01585704 -0.7416195 0.6706334 -0.006455719 -0.8036857 0.595019 -0.01246988 -0.8082903 0.5886523 0.01594489 -0.8578968 0.5135748 -0.00629127 -0.9042645 0.4269265 -0.01240587 -0.9076008 0.4196509 0.0159859 -0.9414984 0.3366382 -0.005710363 -0.9698807 0.2435139 -0.01274269 -0.9720271 0.2345231 0.01679074 -0.9893867 0.1443338 -0.002394914 -0.9984441 0.05570983 -0.01237839 -0.9990106 0.04271686 0.01349705 -0.9985378 -0.05234622 -0.007170975 -0.9918471 -0.1272317 0.002937078 -0.9669629 -0.2549005 0.004213273 -0.9889304 -0.1483205 -0.0047791 -0.9695232 -0.2449529 -0.008486211 -0.9130936 -0.4076618 0.01591849 -0.940652 -0.3389995 0.00280708 -0.8513334 -0.5246177 0.004099309 -0.9031597 -0.4292853 -0.004823148 -0.8566074 -0.5159464 -0.008616209 -0.7554377 -0.6551639 0.0158798 -0.8018206 -0.5973539 0.002807796 -0.6623863 -0.7491572 0.004096984 -0.7394947 -0.67315 -0.004841566 -0.6699703 -0.7423722 0.01581829 -0.5941192 -0.8042215 -0.008592128 -0.5327256 -0.8462444 0.01230627 -0.499062 -0.8664789 0.01263391 -0.4477465 -0.8940712 -0.01105374 -0.4096553 -0.9121735 0.01496756 -0.3235064 -0.9461076 -0.003584146 -0.2620235 -0.9650549 0.01154351 -0.233128 -0.9723775 0.01180899 -0.1345362 -0.9908384 -0.01545047 -0.1710478 -0.9851416 0.01277452 -0.04981487 -0.9986768 -0.01679581 0.04254025 -0.9989537 0.01096308 0.07652175 -0.9970077 0.02232378 0.1407784 -0.9897895 -0.01308327 0.2497032 -0.9682341 -0.01271694 0.2492867 -0.9683463 0.01500111 0.3431036 -0.9391778 -0.01038038 0.4334021 -0.9011409 0.004652678 0.4163918 -0.9091734 5.47958e-4 0.5195451 -0.8544429 -0.008384525 0.5327263 -0.8462462 0.01507872 0.6006069 -0.7994024 -0.01006168 0.6760057 -0.7368278 -0.01029109 0.6762177 -0.73663 0.01294058 0.7447695 -0.6671963 -0.0132566 0.7993364 -0.6007376 -0.00255537 0.8081195 -0.589013 0.01504999 0.8617256 -0.5071514 -0.01440703 0.9001471 -0.4353479 -0.002730011 0.9071857 -0.4207217 0.01519697 0.9439295 -0.3297975 -0.01432412 0.9677841 -0.2513741 -0.002675771 0.9718157 -0.2357267 0.01525288 0.990086 -0.1396327 -0.01489973 0.9983432 -0.05557942 -0.004261314 0.9991165 -0.04181021 0.01686763 0.7284902 -0.6848487 0.03484892 0.7152477 -0.6980018 0.02500075 -0.9055641 0.4234722 0.01272475 -0.9097743 0.4149082 -0.03268015 0.8265688 -0.5618861 -0.01389878 -0.9524425 0.3044013 1.18354e-4 0.9975725 0.06963717 0.0198636 0.9989842 0.04045045 0.04617369 0.8797403 -0.4732071 0.04084694 -0.9871162 0.1547033 0.03475505 0.9812396 0.1896343 0.03349363 -0.9884749 0.1476332 4.94601e-6 0.9743012 0.2252494 -0.04602599 0.9423407 -0.3314748 -0.009361326 -0.999931 -0.007102489 -0.00897479 0.9445319 0.3282972 0.04483938 0.9758045 -0.2139979 0.03303903 -0.9893227 -0.1419472 0.04289394 -0.9904735 -0.1308523 0.01278775 0.8754474 0.4831444 -0.02967822 0.9956253 -0.08859747 0.03901439 0.887795 0.4585826 -0.01218599 -0.9530188 -0.302666 -0.01313155 0.8267349 0.5624385 -0.01182687 -0.9000973 -0.4355288 0.04220885 0.730119 0.6820152 0.03724175 0.7267831 0.6858568 0.02792787 -0.9163815 -0.3993306 -0.008505225 0.6241647 0.7812466 0.01348978 -0.7708144 -0.6369171 0.04073214 0.5144793 0.856535 0.02532976 -0.7764849 -0.6296267 0.03458523 0.5092802 0.8599056 -0.008487939 0.3914835 0.920146 -0.03285944 -0.6450193 -0.7634596 0.04721176 -0.5645194 -0.8240686 0.04181575 0.2596679 0.9647923 0.03389132 0.252173 0.9670885 -0.002525329 0.1404364 0.9900865 -0.04737901 -0.4260611 -0.903453 0.0471338 -0.3151584 -0.947868 0.05255389 -0.01103097 0.9985572 0.03887397 -0.02451735 0.9989433 5.52804e-4 -0.1536056 0.9881321 -0.02960073 -0.1903549 -0.981269 0.02723503 -0.04133415 -0.9987742 -0.01175218 -0.002504706 -0.9999278 0.05123847 -0.2909033 0.9553796 0.04278802 -0.299216 0.9532256 -0.01577067 -0.4541131 0.8908045 0.01263386 0.2359999 -0.971671 -0.01188856 0.2549821 -0.9668728 -0.01131951 -0.5841146 0.8115924 0.02836591 -0.5509252 0.8340725 0.02633231 0.4845018 -0.8743939 0.01123774 0.495041 -0.8687971 -0.01295709 -0.7729611 0.634321 0.01305687 -0.7599462 0.6498548 -0.01696121 0.6006826 -0.7993078 1 -1.01851e-4 9.99889e-5 1 -3.11299e-5 -1.3114e-5 1 8.44467e-5 5.90442e-5 1 -3.76975e-5 3.68505e-5 1 5.34413e-5 1.07387e-4 1 -2.3388e-5 -1.52413e-5 1 -1.23129e-5 -3.43316e-5 1 -1.55915e-5 -5.25392e-5 1 -2.48732e-5 2.5111e-6 1 3.33359e-5 -3.60208e-5 1 5.59077e-5 7.68026e-5 1 5.86669e-5 -5.79868e-5 1 -4.19661e-5 4.03776e-6 1 5.3821e-5 3.85514e-5 1 2.26253e-4 2.49383e-5 1 -9.18788e-7 4.0775e-5 1 9.30461e-6 -4.03895e-5 1 -3.00399e-5 5.31847e-5 1 -9.00602e-5 -6.93609e-5 1 -1.01908e-4 -6.88461e-5 1 -5.75419e-5 -8.07696e-5 1 -5.2841e-5 -1.1869e-4 1 -9.60708e-5 9.69196e-5 1 9.07957e-5 -8.86086e-5 1 7.5172e-5 -8.12265e-5 1 -1.94967e-5 3.53995e-5 1 1.52312e-5 -6.61154e-5 1 3.30434e-5 -1.92346e-5 1 -8.01389e-5 7.46874e-6 1 -3.60399e-5 2.28024e-5 1 4.01321e-5 4.22112e-5 1 4.62824e-5 -3.94918e-6 1 4.07488e-5 -6.62054e-5 1 7.92251e-6 3.74378e-5 1 9.66528e-5 1.15572e-5 1 4.23108e-5 2.89826e-5 1 1.16885e-5 1.26078e-4 1 -4.08573e-5 -9.16967e-5 1 2.22333e-5 4.46496e-5 1 -5.78836e-5 3.77087e-5 1 -1.94528e-5 -1.45467e-5 1 1.67436e-5 -4.00804e-5 1 2.59066e-5 1.48448e-4 1 9.99671e-6 3.98417e-5 1 -3.81056e-5 8.02831e-6 1 7.0918e-5 1.15846e-5 1 -1.69658e-5 -2.00098e-5 1 1.03814e-4 1.59087e-5 1 1.40734e-5 -5.91007e-5 1 2.92122e-5 1.1833e-5 1 3.27965e-5 1.07491e-5 1 -1.8733e-6 8.49497e-5 1 2.44627e-5 -4.72329e-5 1 1.12615e-5 3.51809e-5 1 -3.79823e-5 -2.57883e-5 1 0 0 1 -3.09392e-5 9.709e-6 1 -3.90678e-5 -7.87061e-5 1 0 0 1 1.0553e-5 -3.70295e-5 1 1.65954e-7 -5.28205e-7 1 -4.17528e-5 -1.68808e-5 1 -3.0256e-5 1.69071e-5 1 0 0 1 6.56813e-5 -2.5809e-5 1 -4.87004e-5 9.66429e-5 1 0 0 1 1.59292e-6 -7.66973e-5 1 -1.62061e-5 -4.33819e-5 1 -4.674e-5 4.64741e-6 1 3.59567e-5 -1.53132e-6 1 -2.17898e-5 -6.77206e-5 1 6.79395e-5 4.97887e-5 1 2.28508e-5 1.07313e-4 1 -2.03892e-4 1.34236e-4 1 1.85689e-5 -3.32105e-5 1 3.67534e-5 6.05331e-5 1 4.87381e-5 -2.46154e-6 1 1.92674e-6 5.11967e-5 1 0 0 1 7.95886e-5 -1.29315e-4 1 4.72392e-5 3.43564e-5 1 6.9814e-5 2.59746e-5 1 -1.16809e-4 2.31188e-4 1 -4.31571e-5 1.09085e-5 1 1.29796e-4 -9.24485e-5 1 2.33662e-5 4.53985e-5 1 1.47323e-5 -5.90741e-5 1 -7.62698e-5 5.01804e-5 1 -4.0679e-5 2.44322e-5 1 3.71414e-5 -2.45845e-5 1 -1.40389e-5 2.53927e-5 1 -1.69071e-5 6.20907e-5 1 -4.17066e-5 2.23551e-6 1 4.0755e-5 -1.39848e-5 1 4.30716e-5 -2.83897e-5 1 6.86883e-7 -3.16185e-5 1 -3.62168e-5 -4.27145e-5 1 1.37245e-5 5.76179e-5 1 -3.94954e-5 7.81234e-5 1 9.97865e-5 -5.16478e-6 1 9.03865e-5 2.64768e-5 1 1.67451e-5 7.8712e-5 1 -4.14702e-5 -2.69553e-5 1 -2.01703e-5 5.71641e-5 1 -5.55052e-5 -2.00881e-5 1 4.30355e-5 2.80929e-5 1 9.42911e-5 -2.72338e-5 1 -7.07527e-6 -3.16483e-5 1 3.42486e-5 2.50318e-5 1 -9.39735e-5 5.02452e-6 1 2.62116e-5 -9.37708e-5 1 -2.51419e-5 -3.52359e-5 1 -1.15877e-5 4.06653e-5 1 1.63516e-5 1.92853e-5 1 2.72642e-5 -1.24836e-5 1 -1.95035e-5 4.48903e-5 1 3.99127e-5 -2.30961e-5 1 0 0 1 -2.42589e-5 -3.91753e-5 1 -4.90773e-7 2.24712e-7 1 6.40747e-5 -1.70662e-5 1 3.95444e-5 8.97327e-5 1 -2.91083e-5 -1.22623e-5 1 1.06601e-5 -3.95334e-5 1 8.20076e-5 2.96795e-5 1 -1.6948e-5 3.60297e-5 1 0 0 1 -1.2367e-5 -5.53186e-5 1 -3.36924e-5 -4.83572e-6 1 -2.5889e-5 3.64972e-5 1 -1.90136e-5 -3.64027e-5 1 -3.58879e-5 -2.49069e-5 1 -1.1319e-4 -7.14372e-6 1 -3.31054e-5 -6.80157e-5 1 -1.40508e-5 -1.52732e-4 1 5.20182e-5 -3.74584e-5 1 2.75884e-5 -1.02312e-4 1 -1.66427e-5 7.21145e-5 1 6.68988e-5 -2.02625e-5 1 1.42756e-6 -6.57126e-5 1 -5.38645e-5 2.13728e-5 1 -6.29016e-5 -2.89508e-5 -0.009696602 0.4623283 0.8866559 0.03573203 -0.9964666 -0.07601076 0.02121877 0.1467079 0.9889523 -0.01515817 0.08858937 0.9959529 0.03148609 -0.8984704 -0.4379037 -0.0327422 -0.952415 -0.3030408 0.01699382 -0.2306631 0.9728853 0.02168589 -0.4928337 0.8698533 -0.0194965 -0.2985336 0.9542 0.03334832 -0.6657451 -0.7454338 -0.03100919 -0.7621374 -0.6466724 0.008152663 -0.5073032 -0.8617292 0.03438711 -0.7604701 0.6484619 -0.03406196 -0.6401525 0.7674924 0.01989936 -0.2772362 -0.9605957 -0.02181124 -0.457193 -0.8891 0.03503668 -0.9451017 0.3248928 -0.03015679 -0.8849364 0.4647346 -0.02637153 -0.08269083 -0.9962263 0.03551197 0.0454775 -0.998334 -0.03529787 -0.9953954 0.08911955 -0.03066796 0.3042188 -0.9521084 0.02639728 0.4171547 -0.908452 -0.01725947 0.6528246 -0.7573125 -0.01083135 0.6451638 -0.7639676 0.01805591 0.8683788 -0.4955726 -0.009854555 0.8881009 -0.4595431 6.44911e-4 0.9948792 -0.1010693 -0.01015478 0.9962898 -0.0854606 0.01001012 0.9637225 0.2667185 -0.0132187 0.9533551 0.3015617 0.01253247 0.7865023 0.6174602 -0.009101569 0.7659105 0.6428828 0.009319305 0.4891791 0.8721336 0.9998907 -0.01477265 7.30263e-4 0.9999701 0.007428884 -0.002130866 0.9996472 0.02636873 0.003227531 0.9950348 -0.09518301 -0.02908599 0.9968606 0.002296805 0.07914477 0.9999923 -0.001892089 0.003474473 0.9996006 -0.02794808 -0.004207015 0.9999565 -0.009321987 3.49971e-4 0.9998878 0.01494979 -0.001074194 0.9971376 0.01425969 -0.07425302 0.9999887 0.004709184 -6.81875e-4 0.9999954 -0.002811014 0.001183867 0.9999971 1.85698e-4 -0.002410709 0.9999853 -0.005095601 -0.001869201 0.5952152 -0.7966473 -0.1052238 0.7866167 -0.6158841 -0.0438292 0.5873895 -0.8004223 0.1195736 0.7897665 -0.5995272 0.1297548 0.7348704 0.6614854 -0.1496747 0.6965944 0.7013219 -0.1513401 0.5800193 -0.7411546 0.3380349 0.7927339 -0.5357197 0.2908219 0.679814 0.6458903 -0.3473884 0.7422278 0.5846958 -0.3274583 0.5728877 -0.6229099 0.5327128 0.7954987 -0.4301048 0.4268392 0.6693924 0.5317007 -0.518853 0.749236 0.4636376 -0.4729542 0.5661539 -0.4542847 0.6878193 0.7980925 -0.2914677 0.5273472 0.6591508 0.3723143 -0.6533776 0.7555656 0.3087263 -0.5777618 0.5596928 -0.2481505 0.790674 0.80048 -0.1311219 0.584841 0.6491198 0.1795449 -0.7391936 0.5536975 -0.02039474 0.8324682 0.7612947 0.1327244 -0.6346768 0.8026916 0.0380783 0.5951777 0.6393355 -0.03179657 -0.7682703 0.5480697 0.2110845 0.8093597 0.7664962 -0.05026376 -0.6402791 0.8047166 0.2026926 0.5579848 0.629839 -0.2450677 -0.7370514 0.542805 0.4280152 0.7226104 0.7712268 -0.2258794 -0.5951368 0.8065401 0.3497626 0.4766123 0.6206743 -0.4431239 -0.6468422 0.5379951 0.6130956 0.5785111 0.8081427 0.4678297 0.3578279 0.775556 -0.3805678 -0.5036678 0.5337877 0.7513246 0.3880493 0.6118378 -0.6097658 -0.5038257 0.8095728 0.5477033 0.2112185 0.7795352 -0.5026007 -0.3737881 0.6039573 0.7765957 0.1792618 0.6033427 -0.7310901 -0.3185671 0.7812257 0.6222327 0.0501284 0.6676066 0.7439884 0.02797722 0.7832049 -0.5829424 -0.2162598 0.8019858 0.276185 0.5296608 0.5412794 0.192118 0.8186008 0.5877577 -0.8077194 -0.04615616 0.8038862 0.0527023 0.5924438 0.7544828 -0.6244707 -0.2019706 0.748798 -0.6312133 -0.2021667 0.5352004 -0.1282841 0.8349274 0.8053624 -0.1770008 0.5657405 0.7626676 -0.493262 -0.4183669 0.6375309 -0.6122509 -0.4676573 0.5298931 -0.4327157 0.729363 0.8064662 -0.3787373 0.4540598 0.7695779 -0.2921129 -0.5678204 0.5252876 -0.676223 0.5165224 0.6257135 -0.3980141 -0.6708707 0.8071304 -0.5226802 0.2744922 0.5319057 -0.815232 0.2290707 0.6142236 -0.1198424 -0.7799791 0.7756979 -0.05230343 -0.6289334 0.7996138 -0.5978804 0.05618685 0.6031108 0.1822503 -0.776558 0.7811009 0.1899631 -0.5948072 0.5924701 0.4637882 -0.6586955 0.7858917 0.3989225 -0.4724777 0.5823187 0.6825017 -0.4416972 0.7900816 0.5444045 -0.281771 0.5727887 0.8047252 -0.1559822 0.7937619 0.6059994 -0.05202913 0.5638706 0.810773 0.1571536 0.7969632 0.5759128 0.182138 0.5555967 0.6980256 0.4517442 0.7996706 0.4599263 0.3859983 0.5481125 0.4815278 0.6838887 0.8542596 -0.03561633 -0.5186252 0.853686 -0.3509784 -0.3847525 0.8581757 0.2306657 -0.4586152 0.8542564 -0.512835 0.08512604 0.858663 0.4161208 -0.2992344 0.8587852 0.5073847 -0.07105529 0.8584309 0.4828645 0.1730266 0.8574005 0.346203 0.380799 0.8537897 0.114068 0.5079682 0.85237 -0.2096265 0.4790848 0.8545011 -0.4910662 -0.1693577 0.8547509 -0.4244015 0.2988048 -0.003290653 0.0217188 -0.9997588 0.01273912 -0.07629805 -0.9970037 -0.01181536 -0.9985547 0.05243009 -0.01422142 -0.4453322 -0.8952526 0.004324674 -0.9878979 0.1550458 -0.003915071 -0.8351267 0.5500437 0.01442259 -0.6616458 -0.7496778 -0.01421529 -0.8314731 -0.5553832 0.0031237 -0.8100247 0.5863876 0.01485252 -0.9474211 -0.3196446 -0.003754138 -0.4511782 0.892426 0.006399154 -0.4065263 0.9136167 -0.006322562 0.1724018 0.9850065 0.003758132 0.2205216 0.9753749 -0.003279626 0.6467053 0.7627329 0.003287017 0.6767463 0.7362089 -0.003298342 0.9270893 0.3748259 0.003268063 0.9413878 0.3373106 -0.003287374 0.9950875 -0.09894573 0.003258764 0.9903333 -0.1386708 -0.003282248 0.8351231 -0.5500534 0.003237366 0.8125503 -0.5828822 -0.003280341 0.4838421 -0.8751492 0.003293156 0.4483241 -0.8938651 0.8542599 -0.03561729 -0.5186246 0.853686 -0.3509774 -0.3847533 0.8581758 0.2306652 -0.4586153 0.8542562 -0.5128354 0.08512532 0.8586632 0.4161207 -0.2992345 0.8587852 0.5073847 -0.07105523 0.8584306 0.4828653 0.1730263 0.857401 0.3462026 0.3807982 0.8537896 0.1140688 0.5079681 0.8523707 -0.2096255 0.4790841 0.8545019 -0.4910649 -0.1693577 0.8547507 -0.4244031 0.298803 0.02086323 -0.07625079 -0.9968704 -0.01443672 -0.9958469 0.08989238 -0.01928591 -0.4030429 -0.9149779 -0.001453161 -0.9879105 0.1550188 0.01442259 -0.6616469 -0.7496768 -0.01421517 -0.8314723 -0.5553845 -0.01401025 -0.7126681 0.7013615 0.009005248 -0.8100243 0.5863272 0.01485252 -0.9474216 -0.3196433 -0.009716928 -0.2603365 0.9654691 0.014014 -0.4064683 0.9135574 0.003263294 0.2181729 0.9759047 0.003758192 0.2205233 0.9753745 -0.003279685 0.6467058 0.7627325 0.003287076 0.6767486 0.7362068 -0.003835916 0.940306 0.3403087 -0.00318247 0.9413878 0.3373113 0.009712934 0.9902914 -0.1386681 -0.01397711 0.9569697 -0.2898511 0.01049524 0.8125075 -0.5828564 -0.01054179 0.679187 -0.7338896 0.01052361 0.448303 -0.8938198 -0.01434862 0.2244688 -0.9743756 0.8542598 -0.03561729 -0.5186248 0.8536866 -0.350977 -0.3847525 0.8581755 0.2306654 -0.4586157 0.8542561 -0.5128355 0.0851258 0.858663 0.4161202 -0.2992356 0.8587856 0.5073841 -0.07105445 0.858431 0.4828646 0.1730262 0.8574007 0.3462036 0.3807981 0.8537892 0.1140696 0.5079686 0.8523703 -0.2096277 0.4790838 0.8545011 -0.4910662 -0.1693574 0.8547509 -0.424403 0.2988026 0.02086323 -0.07625073 -0.9968704 -0.01443684 -0.9958468 0.08989417 -0.01928585 -0.4030434 -0.9149777 -0.00145334 -0.9879105 0.1550196 0.01442307 -0.6616458 -0.7496779 -0.01421535 -0.831474 -0.5553819 -0.01401048 -0.7126682 0.7013614 0.009005546 -0.8100267 0.586324 0.0148524 -0.9474214 -0.3196441 -0.009716928 -0.2603379 0.9654687 0.01401412 -0.4064677 0.9135577 0.003263056 0.2181729 0.9759048 0.003758192 0.2205237 0.9753744 -0.003279447 0.6467071 0.7627315 0.003287017 0.6767495 0.7362061 -0.003835916 0.9403059 0.340309 -0.003182649 0.9413878 0.3373115 0.009712934 0.9902912 -0.1386688 -0.01397728 0.9569703 -0.2898494 0.01049554 0.812507 -0.5828571 -0.01054173 0.6791856 -0.7338909 0.01052391 0.4483039 -0.8938193 -0.01434862 0.2244698 -0.9743755 0.8542334 -0.03568935 -0.5186633 0.8534385 -0.351194 -0.3851045 0.8560417 0.2491643 -0.4528904 0.8507782 -0.5142477 0.1082866 0.8520073 0.4864033 -0.1936372 0.8547475 0.3370364 0.3947318 0.8549477 0.4958612 0.15227 0.8501493 0.02008414 0.5261587 0.8483008 -0.3437057 0.4028056 0.8540439 -0.4917635 -0.1696403 -0.003290653 0.02171921 -0.9997587 0.01274698 -0.07634645 -0.9969999 -0.0118125 -0.9985549 0.05242854 -0.01421791 -0.4453316 -0.8952528 0.01123571 -0.9800335 0.1985151 -0.01429182 -0.8350498 0.5499888 0.01441729 -0.6616206 -0.7497003 -0.01421612 -0.8314732 -0.5553831 0.01485008 -0.9473924 -0.3197296 -0.009371042 -0.4838389 0.8751069 0.01933258 -0.6374402 0.7702574 0.00276339 -0.02172279 0.9997602 0.01332408 0.03024709 0.9994537 -0.01419633 0.4453339 0.895252 -0.01056933 0.8103363 0.5858698 0.01416784 0.6487899 0.7608358 0.01374876 0.9544782 0.2979636 -0.01024556 0.9898203 0.141954 0.005377709 0.9294735 -0.3688498 0.007044911 0.9269809 -0.3750424 -0.006187915 0.524136 -0.8516122 0.003846824 0.482012 -0.8761562 0.8542339 -0.03568935 -0.5186625 0.8534389 -0.3511927 -0.3851049 0.8560426 0.2491657 -0.4528881 0.8507781 -0.5142473 0.1082884 0.852007 0.4864037 -0.1936375 0.8547479 0.337036 0.3947315 0.8549479 0.4958606 0.1522715 0.8501493 0.02008426 0.5261586 0.8483013 -0.3437044 0.4028054 0.8540436 -0.4917635 -0.169642 0.01116085 -0.07635384 -0.9970183 -0.01674342 -0.209258 -0.9777171 -0.01181244 -0.9985549 0.05242878 0.01123583 -0.980033 0.1985175 -0.01429188 -0.8350515 0.5499862 0.01461106 -0.6616189 -0.749698 -0.0192548 -0.8049418 -0.5930415 0.01485008 -0.9473922 -0.3197306 -0.009370923 -0.4838407 0.8751059 0.0193324 -0.6374382 0.770259 0.00276339 -0.02172291 0.9997602 0.01332396 0.03024733 0.9994537 -0.01419627 0.4453335 0.8952524 -0.01056939 0.8103372 0.5858687 0.01416802 0.6487882 0.7608373 0.0137487 0.9544788 0.2979619 -0.01576888 0.9943195 0.1052619 0.0193054 0.9268474 -0.3749416 -0.01103752 0.8598032 -0.5105065 0.00443685 0.4511692 -0.8924275 -0.004179298 0.4820119 -0.8761547 0.8542336 -0.0356884 -0.5186632 0.8534386 -0.3511939 -0.3851045 0.856042 0.2491647 -0.4528896 0.8507779 -0.5142481 0.1082864 0.8520064 0.4864044 -0.1936385 0.8547479 0.3370372 0.3947305 0.8549482 0.4958599 0.1522714 0.8501495 0.02008479 0.5261584 0.8483003 -0.3437071 0.4028052 0.8540435 -0.4917636 -0.1696419 0.01116079 -0.07635533 -0.9970182 -0.01674306 -0.209258 -0.9777172 -0.01181232 -0.9985549 0.05242878 0.01123577 -0.9800333 0.1985157 -0.0142917 -0.8350505 0.5499876 0.01461052 -0.6616198 -0.7496972 -0.01925444 -0.8049421 -0.593041 0.01484996 -0.9473915 -0.3197325 -0.01506084 -0.4511286 0.892332 0.01933342 -0.6374413 0.7702565 -0.01073884 0.1723917 0.9849699 0.0181179 0.03026854 0.9993777 0.004000663 0.6744316 0.7383266 -0.004391849 0.6488432 0.7609096 0.0109477 0.9545093 0.2979804 -0.01899635 0.9883748 0.1508464 0.01930552 0.9268471 -0.3749424 -0.01103717 0.8598034 -0.510506 0.004437208 0.451168 -0.892428 -0.004179596 0.4820116 -0.8761549 0.8549537 -0.03509402 -0.5175157 0.8543571 -0.3502846 -0.3838941 0.8586062 0.230344 -0.4579707 0.851712 -0.5127582 0.108008 0.8566722 0.4295371 -0.2856758 0.8557829 0.5164698 0.02991354 0.8549914 0.4193935 0.3051213 0.855559 -0.1139062 0.505019 0.8533896 0.1555489 0.4975247 0.8524532 -0.3564528 0.3824459 0.8550141 -0.490258 -0.16911 0.01115018 -0.07592338 -0.9970514 -0.01680666 -0.2092576 -0.9777162 -0.01443552 -0.9958468 0.08989346 0.007305085 -0.9800676 0.1985302 0.01466268 -0.66138 -0.7499077 -0.01925504 -0.8049404 -0.5930433 -0.007156372 -0.7127181 0.7014142 0.01485186 -0.9474053 -0.3196915 0.003738045 -0.6738974 0.7388156 -0.003820061 -0.2244883 0.9744694 -0.003406882 -0.2225251 0.974921 -0.01139354 0.4031043 0.9150831 0.01097023 0.297926 0.954526 0.003983557 0.8104444 0.5858021 0.003867208 0.8101161 0.5862569 -0.003292441 0.9898511 0.1420707 0.01079821 0.998354 0.05632942 -0.01637458 0.9293777 -0.3687669 0.01649206 0.8339098 -0.5516544 -0.01325827 0.4917538 -0.8706334 -0.003157377 0.4483215 -0.8938668 0.8574889 0.1257004 -0.498911 0.850769 -0.5142623 0.1082898 0.8546093 0.4207341 -0.304345 0.8604285 0.4310784 0.2717245 0.8588378 0.5121591 0.009529054 0.8577057 0.2396153 0.4548907 0.8536802 -0.002451956 0.5207919 0.8480693 -0.3439437 0.4030897 0.8543299 -0.4909988 -0.1704135 0.8554785 -0.3579573 -0.3741968 0.8580772 -0.1311587 -0.4964888 0.005503475 -0.01531332 0.9998676 -0.01430958 0.998526 -0.05235582 -0.004714906 0.4453571 0.8953406 0.006019055 0.4885246 0.8725295 0.00513947 0.8142204 -0.5805331 -0.006464958 0.8315181 0.5554602 0.01028865 0.8050755 -0.5930832 8.64081e-5 0.8447754 0.5351212 0.0107333 0.9991809 0.03901666 -0.01016438 0.2691195 -0.9630532 -0.005042433 0.2541874 -0.9671419 -0.02660977 -0.4370406 -0.8990481 0.0128172 -0.2584176 -0.9659483 0.02059751 -0.683147 -0.7299903 -0.01579022 -0.9084964 -0.4175944 0.006552577 -0.9472821 -0.3203336 -0.006118297 -0.9950776 0.09890949 0.01520586 -0.9799699 0.1985645 -0.01931571 -0.8349871 0.5499305 0.02613639 -0.6374138 0.7700784 -0.01266241 -0.4838328 0.8750689 0.003741502 -0.02172702 0.999757 0.9642246 0.1905317 -0.1843057 0.3421353 0.7129395 -0.6120955 0.6610835 0.6205011 -0.4218378 0.2539367 -0.9305847 -0.2636826 0.7115398 -0.6843942 -0.1591095 0.7677014 0.00211668 0.6408044 0.7348287 0.01127558 0.6781591 0.8862489 -0.4258019 -0.1823613 0.3681426 0.8154886 -0.4465979 0.6000418 -0.7200045 -0.348631 0.9915757 0.1135718 -0.06228297 0.844491 -0.09128928 0.5277323 0.7091367 0.66583 -0.231939 0.6811859 0.7291404 -0.06588149 0.4064538 0.8914045 -0.2004829 0.8354642 -0.4961459 -0.2363025 0.3095898 -0.8056647 -0.5050334 0.8218153 -0.1169733 0.5576173 0.879545 -0.1365057 0.4558144 0.9252617 0.3715734 -0.07631665 0.5803886 -0.3103913 0.7528654 0.9847113 -0.1396163 -0.1041678 0.6154459 -0.6120707 -0.4965842 0.8563334 -0.2539691 0.4496587 0.9179748 -0.1868408 0.3498757 0.522129 -0.4764801 0.7073529 0.6045982 -0.4644313 0.6471203 0.4627619 -0.5844837 -0.6665059 0.5393005 -0.5425505 -0.6440449 0.9843429 -0.0982241 0.1463595 0.9616829 -0.181077 -0.2058575 0.9498071 -0.2046149 -0.2366417 0.6148816 -0.60936 0.5006007 0.4595545 -0.6625643 0.5914543 0.5352377 -0.3618665 -0.763265 0.5480022 -0.3561736 -0.756858 0.5341244 0.8442739 0.04373657 0.5730348 0.8176982 0.05477905 0.9812713 -0.1437134 0.1282695 0.5975129 -0.6433499 0.4786222 -0.9444314 0.3271862 0.03160035 0.5808224 0.7914086 0.1905719 0.9804247 -0.08427733 -0.1779459 0.9330714 -0.1336901 -0.3339232 0.7025597 0.6993781 0.1314548 0.4427279 -0.8102222 0.3840989 0.4707713 -0.799324 0.3734375 0.7825822 0.5851349 0.212561 0.6984896 0.6389618 0.3222426 0.5341647 -0.1438116 -0.8330584 0.6625068 0.6737446 0.3273424 0.4376556 -0.171 -0.8827326 0.9882239 -0.1379095 0.06629079 0.6596859 -0.7311235 0.1739914 0.6186517 0.6348806 0.462814 0.7302522 0.5360024 0.4235956 0.9861822 -0.02817827 -0.1632508 0.6447817 0.01035356 -0.7642968 0.781445 0.4562724 0.4256284 0.5587119 -0.820129 0.1234082 0.8523363 -0.008616507 -0.5229233 0.4534612 0.07159739 -0.8883956 0.6540104 0.4768618 0.5872591 0.7184814 0.4284293 0.5479351 0.6183909 -0.7751857 0.1291513 0.9835082 0.01472032 -0.1802638 0.6499804 0.2005479 -0.7330117 0.6279804 -0.767683 0.1276856 0.6145682 0.200877 -0.7628595 0.8821668 0.1856849 0.4327852 0.6246932 0.4009197 0.6700909 0.9854916 0.04451042 -0.1637839 0.7439635 0.2616893 0.6148472 0.7965261 0.2415658 -0.5542492 0.748296 -0.6633273 -0.00707525 0.5255989 0.4190465 -0.7403688 0.4780005 0.4257397 -0.7682847 0.5819054 0.2369452 0.7779738 0.6696852 0.1976794 0.7158524 0.9861752 0.08294576 -0.1434523 0.6489549 -0.7581863 -0.06333327 0.6989975 0.4637578 -0.5443632 0.09216862 0.3001145 0.94944 0.7895412 0.04583334 0.6119836 0.7442464 -0.658797 -0.1099271 0.4792391 0.6202997 -0.6209334 0.575886 0.588795 -0.5671649 0.7912203 0.499991 -0.3521074 0.8229138 0.4433365 -0.3553388 0.7915875 0.4991729 -0.3524428 0.7911005 -0.5002754 -0.3519722 0.8067539 -0.4731077 -0.3540018 0.7916468 -0.4990596 -0.3524698 0.9305983 0.3643942 0.03469586 0.8569388 -0.2021625 -0.4741163 -1 -4.65664e-7 1.68655e-7 -1 0 3.63644e-7 -1 0 3.85923e-7 -1 -1.64434e-5 1.84102e-5 -1 -2.3911e-5 9.51652e-6 -1 -2.38625e-7 3.87632e-6 -1 -1.95523e-6 3.65898e-5 -1 -3.37005e-7 2.78717e-7 -1 -2.24275e-6 1.16372e-5 -1 1.65455e-6 -2.22685e-7 -1 1.58942e-6 -6.54784e-7 -1 1.51572e-5 -5.21538e-6 -1 3.09441e-6 -1.37767e-6 -1 1.25414e-6 -3.78128e-7 -1 1.51243e-5 -1.8569e-5 -1 -7.83488e-7 0 -1 -5.97603e-6 -5.49235e-7 -1 -2.63004e-6 0 -1 3.23211e-7 0 -1 -4.05648e-7 1.99834e-7 -1 0 0 -1 -3.35521e-7 2.24342e-7 -1 8.97367e-6 6.01661e-6 0.005351364 0.05502629 0.9984706 -0.01373994 0.07110846 0.997374 0.01354491 0.2947697 0.9554724 -0.01465255 0.3186738 0.9477512 0.01471489 0.5207104 0.8536067 -0.01579511 0.5439513 0.8389682 0.01584059 0.7146658 0.6992867 -0.0168935 0.7351604 0.6776828 0.01692378 0.8647094 0.5019873 -0.01794952 0.8803404 0.474003 0.01796436 0.9616113 0.2738268 -0.01896494 0.9704189 0.2406816 0.01896578 0.9994044 0.02882897 -0.01994043 0.9997717 -0.007674038 0.01992756 0.9757567 -0.2179492 -0.02087986 0.9665769 -0.2555251 0.02085393 0.8921128 -0.4513315 -0.02178287 0.8729236 -0.4873706 0.02174514 0.7536081 -0.6569644 -0.02265256 0.7246813 -0.6887118 0.02260243 0.5687547 -0.8221966 -0.02348923 0.5311316 -0.8469637 0.02342802 0.348917 -0.9368609 -0.02429538 0.3043842 -0.9522395 0.02422434 0.1076151 -0.9938974 -0.0250734 0.05862116 -0.9979654 0.02499186 -0.140307 -0.9897927 -0.02582257 -0.1907883 -0.9812915 0.02573055 -0.3795959 -0.9247945 -0.02654683 -0.4282521 -0.9032694 0.02644562 -0.5955274 -0.8028997 -0.02724683 -0.6389299 -0.7687824 0.02713572 -0.7748152 -0.6316052 -0.02792471 -0.8096528 -0.5862447 0.027803 -0.9064245 -0.4214518 -0.02857917 -0.9297547 -0.3670688 0.02839583 -0.9822263 -0.1855406 -0.0292719 -0.9917286 -0.1249698 0.02872496 -0.9977726 0.06020575 -0.03024673 -0.9917751 0.1243683 0.02975696 -0.9535288 0.2998291 -0.0318557 -0.9302925 0.3654328 0.03127843 -0.8529834 0.5210001 -0.03333228 -0.811165 0.5838666 0.03265321 -0.7021188 0.7113107 -0.03467237 -0.6417219 0.7661533 0.03387999 -0.5099238 0.8595521 -0.0358684 -0.4324072 0.9009649 0.02337813 -0.3121585 0.9497424 0.00781089 -0.1561537 0.9877019 -0.0263549 -0.1935235 0.9807417</float_array>
          <technique_common>
            <accessor source="#Link_6-mesh-normals-array" count="1204" stride="3">
              <param name="X" type="float"/>
              <param name="Y" type="float"/>
              <param name="Z" type="float"/>
            </accessor>
          </technique_common>
        </source>
        <vertices id="Link_6-mesh-vertices">
          <input semantic="POSITION" source="#Link_6-mesh-positions"/>
        </vertices>
        <triangles material="link_06_part_000_mtl_001-material" count="1204">
          <input semantic="VERTEX" source="#Link_6-mesh-vertices" offset="0"/>
          <input semantic="NORMAL" source="#Link_6-mesh-normals" offset="1"/>
          <p>0 0 1 0 2 0 3 1 4 1 5 1 3 2 6 2 4 2 7 3 3 3 5 3 7 4 5 4 8 4 7 5 9 5 10 5 11 6 12 6 13 6 14 7 15 7 16 7 17 8 18 8 19 8 17 9 20 9 21 9 22 10 0 10 23 10 24 11 25 11 26 11 27 12 28 12 23 12 24 13 28 13 27 13 24 14 29 14 28 14 30 15 26 15 31 15 30 16 24 16 26 16 30 17 31 17 32 17 29 18 30 18 32 18 29 19 24 19 30 19 32 20 33 20 34 20 32 21 31 21 33 21 32 22 35 22 29 22 36 23 33 23 37 23 36 24 34 24 33 24 34 25 38 25 35 25 34 26 35 26 32 26 34 27 36 27 38 27 39 28 37 28 40 28 39 29 36 29 37 29 36 30 41 30 38 30 39 31 41 31 36 31 42 32 40 32 43 32 42 33 43 33 44 33 42 34 39 34 40 34 45 35 39 35 42 35 44 36 43 36 46 36 44 37 46 37 47 37 44 38 45 38 42 38 48 39 46 39 49 39 48 40 47 40 46 40 47 41 50 41 45 41 47 42 45 42 44 42 47 43 48 43 50 43 51 44 49 44 52 44 51 45 52 45 53 45 51 46 48 46 49 46 48 47 54 47 50 47 54 48 51 48 53 48 54 49 48 49 51 49 53 50 52 50 55 50 53 51 55 51 56 51 53 52 57 52 54 52 58 53 55 53 59 53 58 54 56 54 55 54 56 55 60 55 57 55 56 56 57 56 53 56 61 57 58 57 59 57 61 58 59 58 62 58 58 59 60 59 56 59 58 60 61 60 60 60 63 61 62 61 64 61 63 62 61 62 62 62 63 63 64 63 65 63 61 64 66 64 60 64 63 65 66 65 61 65 67 66 65 66 64 66 65 67 66 67 63 67 65 68 68 68 66 68 69 69 70 69 71 69 71 70 68 70 65 70 71 71 72 71 68 71 70 72 72 72 71 72 6 73 73 73 72 73 6 74 72 74 70 74 3 75 73 75 6 75 3 76 10 76 73 76 7 77 10 77 3 77 9 78 7 78 74 78 74 79 75 79 9 79 76 80 77 80 78 80 76 81 79 81 77 81 75 82 74 82 78 82 75 83 78 83 80 83 77 84 79 84 81 84 77 85 81 85 82 85 77 86 80 86 78 86 82 87 83 87 84 87 82 88 81 88 83 88 82 89 80 89 77 89 82 90 85 90 80 90 85 91 82 91 84 91 85 92 84 92 86 92 84 93 87 93 88 93 84 94 83 94 87 94 88 95 87 95 89 95 88 96 89 96 90 96 88 97 91 97 86 97 88 98 86 98 84 98 92 99 89 99 93 99 92 100 90 100 89 100 90 101 13 101 91 101 90 102 91 102 88 102 94 103 93 103 95 103 94 104 92 104 93 104 94 105 95 105 11 105 21 106 20 106 96 106 92 107 13 107 90 107 13 108 94 108 11 108 13 109 92 109 94 109 11 110 15 110 14 110 11 111 95 111 15 111 97 112 14 112 16 112 23 113 0 113 2 113 14 114 12 114 11 114 23 115 2 115 98 115 23 116 28 116 22 116 14 117 19 117 12 117 14 118 17 118 19 118 18 119 17 119 21 119 67 120 69 120 71 120 67 121 99 121 69 121 67 122 71 122 65 122 100 123 101 123 74 123 76 124 78 124 74 124 76 125 74 125 101 125 27 126 25 126 24 126 70 127 69 127 102 127 100 128 74 128 7 128 17 129 14 129 97 129 17 130 97 130 103 130 27 131 98 131 25 131 27 132 23 132 98 132 70 133 102 133 4 133 70 134 4 134 6 134 100 135 7 135 8 135 17 136 103 136 20 136 39 137 45 137 41 137 104 138 13 138 12 138 105 139 104 139 12 139 104 140 91 140 13 140 106 141 91 141 104 141 106 142 86 142 91 142 107 143 105 143 12 143 107 144 12 144 18 144 28 145 108 145 22 145 109 146 86 146 106 146 109 147 85 147 86 147 107 148 18 148 108 148 110 149 85 149 109 149 111 150 108 150 28 150 111 151 107 151 108 151 110 152 80 152 85 152 112 153 80 153 110 153 112 154 9 154 80 154 113 155 111 155 28 155 29 156 113 156 28 156 114 157 9 157 112 157 10 158 9 158 114 158 35 159 113 159 29 159 115 160 113 160 35 160 38 161 115 161 35 161 72 162 10 162 114 162 72 163 114 163 116 163 41 164 115 164 38 164 72 165 116 165 117 165 41 166 118 166 115 166 72 167 117 167 119 167 45 168 120 168 118 168 45 169 118 169 41 169 66 170 72 170 119 170 50 171 120 171 45 171 66 172 119 172 121 172 54 173 122 173 120 173 54 174 120 174 50 174 60 175 121 175 123 175 60 176 66 176 121 176 57 177 122 177 54 177 57 178 123 178 122 178 57 179 60 179 123 179 72 180 66 180 68 180 10 181 72 181 73 181 80 182 9 182 75 182 18 183 12 183 19 183 124 184 125 184 31 184 124 185 31 185 26 185 126 186 100 186 8 186 126 187 127 187 100 187 128 188 124 188 26 188 129 189 126 189 8 189 130 190 128 190 26 190 130 191 26 191 25 191 131 192 8 192 5 192 131 193 129 193 8 193 132 194 130 194 25 194 133 195 5 195 4 195 133 196 131 196 5 196 134 197 132 197 25 197 134 198 25 198 98 198 135 199 133 199 4 199 136 200 134 200 98 200 137 201 4 201 102 201 137 202 135 202 4 202 2 203 136 203 98 203 138 204 137 204 102 204 138 205 102 205 69 205 99 206 138 206 69 206 139 207 2 207 1 207 140 208 99 208 67 208 141 209 139 209 96 209 141 210 96 210 20 210 142 211 140 211 67 211 142 212 67 212 64 212 103 213 141 213 20 213 143 214 142 214 64 214 144 215 103 215 97 215 145 216 143 216 64 216 16 217 144 217 97 217 145 218 64 218 62 218 146 219 144 219 16 219 147 220 145 220 62 220 15 221 146 221 16 221 148 222 147 222 62 222 148 223 62 223 59 223 149 224 15 224 95 224 150 225 148 225 59 225 151 226 149 226 95 226 152 227 150 227 59 227 152 228 59 228 55 228 153 229 151 229 95 229 153 230 95 230 93 230 154 231 152 231 55 231 155 232 153 232 93 232 156 233 154 233 55 233 156 234 55 234 52 234 157 235 155 235 93 235 157 236 93 236 89 236 158 237 157 237 89 237 159 238 156 238 52 238 160 239 159 239 52 239 160 240 52 240 49 240 161 241 89 241 87 241 161 242 158 242 89 242 162 243 161 243 87 243 163 244 160 244 49 244 164 245 162 245 87 245 164 246 87 246 83 246 165 247 163 247 49 247 165 248 49 248 46 248 166 249 164 249 83 249 166 250 81 250 167 250 168 251 165 251 46 251 166 252 83 252 81 252 169 253 168 253 46 253 169 254 46 254 43 254 170 255 169 255 43 255 171 256 43 256 40 256 171 257 170 257 43 257 172 258 171 258 40 258 173 259 167 259 81 259 174 260 40 260 37 260 174 261 172 261 40 261 79 262 173 262 81 262 175 263 173 263 79 263 176 264 174 264 37 264 177 265 175 265 79 265 178 266 37 266 33 266 178 267 176 267 37 267 179 268 177 268 79 268 179 269 79 269 76 269 180 270 178 270 33 270 181 271 76 271 101 271 181 272 179 272 76 272 182 273 180 273 33 273 182 274 33 274 31 274 183 275 181 275 101 275 125 276 182 276 31 276 127 277 183 277 101 277 127 278 101 278 100 278 184 279 185 279 186 279 187 280 188 280 185 280 187 281 185 281 184 281 189 282 186 282 190 282 189 283 184 283 186 283 189 284 190 284 191 284 192 285 193 285 188 285 192 286 188 286 187 286 194 287 191 287 195 287 194 288 189 288 191 288 192 289 196 289 193 289 197 290 196 290 192 290 198 291 194 291 195 291 198 292 195 292 199 292 197 293 200 293 196 293 201 294 200 294 197 294 202 295 198 295 199 295 202 296 203 296 204 296 202 297 199 297 203 297 201 298 205 298 200 298 206 299 207 299 205 299 206 300 205 300 201 300 208 301 202 301 204 301 208 302 204 302 209 302 208 303 209 303 210 303 211 304 207 304 206 304 211 305 212 305 207 305 213 306 212 306 211 306 214 307 208 307 210 307 215 308 214 308 210 308 216 309 213 309 211 309 217 310 214 310 215 310 218 311 213 311 216 311 219 312 214 312 217 312 218 313 216 313 220 313 221 314 219 314 217 314 222 315 218 315 220 315 223 316 224 316 219 316 223 317 219 317 221 317 225 318 222 318 220 318 225 319 220 319 226 319 227 320 228 320 224 320 227 321 224 321 223 321 229 322 225 322 226 322 230 323 228 323 227 323 231 324 226 324 232 324 231 325 229 325 226 325 233 326 234 326 228 326 233 327 228 327 230 327 235 328 231 328 232 328 235 329 232 329 236 329 237 330 238 330 234 330 237 331 234 331 233 331 239 332 236 332 240 332 239 333 235 333 236 333 241 334 238 334 237 334 242 335 239 335 240 335 243 336 240 336 244 336 243 337 242 337 240 337 241 338 245 338 238 338 246 339 245 339 241 339 246 340 244 340 245 340 246 341 243 341 244 341 169 342 170 342 200 342 168 343 200 343 205 343 168 344 169 344 200 344 165 345 168 345 205 345 163 346 205 346 207 346 163 347 165 347 205 347 160 348 163 348 207 348 159 349 207 349 212 349 159 350 160 350 207 350 156 351 212 351 213 351 156 352 159 352 212 352 154 353 156 353 213 353 152 354 213 354 218 354 152 355 154 355 213 355 150 356 152 356 218 356 148 357 218 357 222 357 148 358 150 358 218 358 147 359 222 359 225 359 147 360 148 360 222 360 145 361 147 361 225 361 143 362 225 362 229 362 143 363 145 363 225 363 142 364 229 364 231 364 142 365 143 365 229 365 140 366 142 366 231 366 99 367 231 367 235 367 99 368 140 368 231 368 138 369 99 369 235 369 137 370 138 370 235 370 137 371 235 371 239 371 135 372 137 372 239 372 133 373 135 373 239 373 133 374 239 374 242 374 131 375 133 375 242 375 131 376 242 376 243 376 129 377 131 377 243 377 126 378 129 378 243 378 126 379 243 379 246 379 127 380 126 380 246 380 183 381 127 381 246 381 183 382 246 382 241 382 181 383 183 383 241 383 179 384 181 384 241 384 179 385 241 385 237 385 177 386 179 386 237 386 175 387 177 387 237 387 175 388 237 388 233 388 173 389 175 389 233 389 167 390 173 390 233 390 167 391 233 391 230 391 166 392 167 392 230 392 166 393 230 393 227 393 164 394 227 394 223 394 164 395 166 395 227 395 162 396 164 396 223 396 161 397 223 397 221 397 161 398 162 398 223 398 158 399 221 399 217 399 158 400 161 400 221 400 157 401 158 401 217 401 155 402 217 402 215 402 155 403 157 403 217 403 153 404 215 404 210 404 153 405 155 405 215 405 151 406 153 406 210 406 149 407 151 407 210 407 149 408 210 408 209 408 15 409 149 409 209 409 146 410 15 410 209 410 146 411 209 411 204 411 144 412 146 412 204 412 144 413 204 413 203 413 103 414 144 414 203 414 103 415 203 415 199 415 141 416 103 416 199 416 139 417 141 417 199 417 139 418 199 418 195 418 2 419 139 419 195 419 136 420 2 420 195 420 134 421 136 421 195 421 134 422 195 422 191 422 132 423 134 423 191 423 130 424 132 424 191 424 130 425 191 425 190 425 128 426 130 426 190 426 128 427 190 427 186 427 124 428 128 428 186 428 125 429 124 429 186 429 125 430 186 430 185 430 182 431 125 431 185 431 182 432 185 432 188 432 180 433 182 433 188 433 178 434 180 434 188 434 178 435 188 435 193 435 176 436 178 436 193 436 174 437 176 437 193 437 174 438 193 438 196 438 172 439 174 439 196 439 171 440 172 440 196 440 171 441 196 441 200 441 170 442 171 442 200 442 247 443 248 443 249 443 247 444 250 444 248 444 251 445 252 445 253 445 251 446 254 446 252 446 247 447 249 447 255 447 251 448 253 448 256 448 257 449 258 449 259 449 257 450 260 450 258 450 261 451 247 451 255 451 262 452 256 452 263 452 264 453 259 453 265 453 262 454 251 454 256 454 264 455 257 455 259 455 261 456 255 456 266 456 262 457 263 457 267 457 264 458 265 458 268 458 260 459 261 459 266 459 269 460 267 460 270 460 269 461 262 461 267 461 271 462 268 462 272 462 260 463 266 463 258 463 271 464 264 464 268 464 269 465 270 465 273 465 271 466 272 466 274 466 275 467 273 467 276 467 277 468 274 468 278 468 277 469 271 469 274 469 275 470 269 470 273 470 277 471 278 471 279 471 280 472 275 472 276 472 281 473 279 473 282 473 280 474 276 474 283 474 281 475 277 475 279 475 281 476 282 476 284 476 280 477 283 477 285 477 286 478 280 478 285 478 287 479 284 479 288 479 287 480 281 480 284 480 287 481 288 481 289 481 286 482 285 482 290 482 291 483 286 483 290 483 292 484 289 484 293 484 292 485 287 485 289 485 292 486 293 486 294 486 291 487 290 487 295 487 296 488 291 488 295 488 296 489 295 489 297 489 298 490 294 490 299 490 298 491 292 491 294 491 298 492 299 492 300 492 301 493 296 493 297 493 301 494 297 494 302 494 303 495 300 495 304 495 303 496 298 496 300 496 250 497 302 497 305 497 250 498 301 498 302 498 254 499 304 499 252 499 254 500 303 500 304 500 250 501 305 501 248 501 306 502 307 502 308 502 309 503 310 503 311 503 312 504 313 504 314 504 309 505 315 505 310 505 316 506 314 506 313 506 309 507 311 507 317 507 318 508 319 508 320 508 318 509 321 509 322 509 318 510 322 510 319 510 318 511 320 511 323 511 316 512 313 512 324 512 325 513 326 513 327 513 309 514 328 514 315 514 329 515 330 515 313 515 329 516 313 516 312 516 331 517 316 517 324 517 318 518 323 518 332 518 333 519 334 519 335 519 336 520 328 520 309 520 336 521 337 521 328 521 336 522 318 522 332 522 336 523 332 523 337 523 338 524 306 524 308 524 339 525 340 525 341 525 339 526 341 526 342 526 343 527 331 527 324 527 344 528 339 528 342 528 345 529 330 529 329 529 346 530 306 530 338 530 347 531 334 531 333 531 348 532 349 532 350 532 351 533 352 533 326 533 351 534 326 534 325 534 347 535 333 535 353 535 354 536 355 536 356 536 354 537 356 537 357 537 348 538 350 538 358 538 339 539 344 539 359 539 360 540 357 540 356 540 361 541 346 541 338 541 361 542 353 542 346 542 362 543 339 543 359 543 363 544 348 544 358 544 364 545 324 545 350 545 365 546 366 546 347 546 364 547 350 547 349 547 367 548 365 548 347 548 368 549 355 549 354 549 369 550 351 550 370 550 371 551 356 551 330 551 371 552 330 552 345 552 371 553 360 553 356 553 372 554 352 554 351 554 364 555 343 555 324 555 372 556 351 556 369 556 364 557 373 557 343 557 367 558 347 558 353 558 374 559 369 559 370 559 371 560 345 560 375 560 372 561 362 561 359 561 372 562 359 562 352 562 376 563 366 563 365 563 377 564 353 564 361 564 377 565 367 565 353 565 378 566 355 566 368 566 379 567 363 567 358 567 380 568 371 568 375 568 381 569 374 569 370 569 382 570 383 570 366 570 382 571 366 571 376 571 384 572 362 572 372 572 381 573 370 573 385 573 386 574 387 574 388 574 386 575 375 575 387 575 389 576 379 576 358 576 390 577 381 577 385 577 391 578 386 578 388 578 391 579 388 579 373 579 392 580 393 580 383 580 392 581 383 581 382 581 394 582 355 582 378 582 395 583 375 583 386 583 395 584 380 584 375 584 396 585 397 585 377 585 396 586 377 586 361 586 398 587 384 587 399 587 391 588 373 588 364 588 398 589 362 589 384 589 400 590 397 590 396 590 391 591 364 591 401 591 319 592 390 592 385 592 311 593 393 593 392 593 402 594 389 594 358 594 402 595 403 595 389 595 404 596 355 596 394 596 395 597 405 597 380 597 406 598 404 598 394 598 407 599 408 599 409 599 410 600 391 600 401 600 410 601 401 601 411 601 412 602 413 602 405 602 412 603 405 603 395 603 410 604 411 604 414 604 407 605 409 605 393 605 415 606 410 606 414 606 416 607 409 607 408 607 417 608 418 608 413 608 417 609 413 609 412 609 419 610 407 610 393 610 415 611 414 611 403 611 396 612 420 612 400 612 398 613 399 613 421 613 416 614 385 614 409 614 422 615 403 615 402 615 423 616 424 616 404 616 423 617 404 617 406 617 422 618 402 618 308 618 424 619 340 619 404 619 425 620 403 620 422 620 416 621 319 621 385 621 423 622 406 622 418 622 423 623 418 623 417 623 426 624 422 624 308 624 310 625 393 625 311 625 310 626 419 626 393 626 427 627 340 627 424 627 425 628 415 628 403 628 320 629 319 629 416 629 428 630 423 630 417 630 429 631 415 631 425 631 334 632 415 632 429 632 317 633 430 633 431 633 317 634 431 634 420 634 317 635 420 635 396 635 321 636 421 636 432 636 321 637 398 637 421 637 325 638 428 638 417 638 327 639 428 639 325 639 307 640 426 640 308 640 341 641 340 641 427 641 317 642 311 642 430 642 335 643 334 643 429 643 321 644 432 644 322 644 433 645 434 645 435 645 436 646 437 646 438 646 435 647 434 647 439 647 434 648 440 648 439 648 438 649 441 649 442 649 437 650 441 650 438 650 439 651 440 651 443 651 443 652 444 652 445 652 440 653 444 653 443 653 442 654 446 654 447 654 441 655 446 655 442 655 447 656 446 656 448 656 445 657 449 657 450 657 444 658 449 658 445 658 448 659 451 659 452 659 446 660 451 660 448 660 450 661 453 661 436 661 449 662 453 662 450 662 451 663 454 663 452 663 452 664 454 664 455 664 453 665 437 665 436 665 454 666 456 666 455 666 455 667 456 667 457 667 457 668 456 668 458 668 456 669 459 669 458 669 458 670 459 670 460 670 459 671 461 671 460 671 460 672 461 672 462 672 461 673 463 673 462 673 462 674 463 674 464 674 463 675 465 675 464 675 464 676 465 676 466 676 465 677 433 677 466 677 466 678 433 678 435 678 442 679 445 679 450 679 442 680 447 680 445 680 442 681 450 681 436 681 442 682 436 682 438 682 443 683 435 683 439 683 460 684 464 684 466 684 458 685 460 685 466 685 457 686 466 686 435 686 457 687 458 687 466 687 452 688 455 688 457 688 452 689 435 689 443 689 452 690 457 690 435 690 447 691 443 691 445 691 447 692 452 692 443 692 262 693 269 693 356 693 355 694 262 694 356 694 251 695 262 695 355 695 404 696 251 696 355 696 261 697 396 697 361 697 261 698 260 698 396 698 254 699 251 699 404 699 340 700 254 700 404 700 247 701 261 701 361 701 247 702 361 702 338 702 303 703 254 703 340 703 339 704 303 704 340 704 250 705 247 705 338 705 250 706 338 706 308 706 298 707 303 707 339 707 362 708 298 708 339 708 301 709 250 709 308 709 301 710 308 710 402 710 292 711 298 711 362 711 398 712 292 712 362 712 296 713 301 713 402 713 287 714 292 714 398 714 296 715 402 715 358 715 321 716 287 716 398 716 291 717 296 717 358 717 281 718 287 718 321 718 350 719 291 719 358 719 318 720 281 720 321 720 286 721 291 721 350 721 277 722 281 722 318 722 324 723 286 723 350 723 336 724 277 724 318 724 280 725 286 725 324 725 271 726 277 726 336 726 309 727 271 727 336 727 313 728 280 728 324 728 264 729 271 729 309 729 275 730 280 730 313 730 317 731 264 731 309 731 330 732 275 732 313 732 257 733 264 733 317 733 269 734 275 734 330 734 396 735 257 735 317 735 260 736 257 736 396 736 356 737 269 737 330 737 391 738 434 738 433 738 391 739 410 739 434 739 366 740 383 740 437 740 410 741 440 741 434 741 437 742 393 742 441 742 383 743 393 743 437 743 410 744 415 744 440 744 415 745 444 745 440 745 441 746 409 746 446 746 393 747 409 747 441 747 415 748 334 748 444 748 334 749 449 749 444 749 446 750 385 750 451 750 334 751 347 751 449 751 409 752 385 752 446 752 347 753 453 753 449 753 347 754 366 754 453 754 385 755 370 755 451 755 451 756 370 756 454 756 366 757 437 757 453 757 370 758 351 758 454 758 454 759 351 759 456 759 351 760 325 760 456 760 325 761 459 761 456 761 325 762 417 762 459 762 417 763 461 763 459 763 417 764 412 764 461 764 412 765 463 765 461 765 412 766 395 766 463 766 395 767 465 767 463 767 395 768 386 768 465 768 386 769 433 769 465 769 386 770 391 770 433 770 467 771 468 771 469 771 470 772 469 772 468 772 471 773 468 773 467 773 472 774 468 774 473 774 474 775 468 775 471 775 475 776 468 776 474 776 476 777 468 777 475 777 477 778 468 778 476 778 478 779 468 779 477 779 479 780 468 780 478 780 470 781 468 781 472 781 479 782 473 782 468 782 311 783 467 783 430 783 467 784 469 784 430 784 420 785 472 785 400 785 430 786 469 786 431 786 472 787 473 787 400 787 400 788 473 788 397 788 469 789 470 789 431 789 431 790 470 790 420 790 473 791 479 791 397 791 470 792 472 792 420 792 397 793 479 793 377 793 479 794 478 794 377 794 377 795 478 795 367 795 478 796 477 796 367 796 367 797 477 797 365 797 477 798 476 798 365 798 365 799 476 799 376 799 476 800 475 800 376 800 376 801 475 801 382 801 475 802 474 802 382 802 382 803 474 803 392 803 474 804 471 804 392 804 392 805 471 805 311 805 471 806 467 806 311 806 480 807 481 807 482 807 483 808 482 808 481 808 484 809 481 809 480 809 485 810 481 810 486 810 487 811 481 811 484 811 488 812 481 812 487 812 489 813 481 813 488 813 490 814 481 814 489 814 491 815 481 815 490 815 492 816 481 816 491 816 483 817 481 817 485 817 492 818 486 818 481 818 480 819 482 819 332 819 328 820 485 820 315 820 332 821 482 821 337 821 485 822 486 822 315 822 482 823 483 823 337 823 337 824 483 824 328 824 315 825 492 825 310 825 486 826 492 826 315 826 483 827 485 827 328 827 310 828 491 828 419 828 492 829 491 829 310 829 419 830 491 830 407 830 491 831 490 831 407 831 407 832 490 832 408 832 490 833 489 833 408 833 408 834 489 834 416 834 489 835 488 835 416 835 488 836 487 836 416 836 416 837 487 837 320 837 487 838 484 838 320 838 320 839 484 839 323 839 484 840 480 840 323 840 323 841 480 841 332 841 493 842 494 842 495 842 496 843 495 843 494 843 497 844 494 844 493 844 498 845 494 845 499 845 500 846 494 846 497 846 501 847 494 847 500 847 502 848 494 848 501 848 503 849 494 849 502 849 504 850 494 850 503 850 505 851 494 851 504 851 496 852 494 852 498 852 505 853 499 853 494 853 493 854 495 854 344 854 352 855 498 855 326 855 344 856 495 856 359 856 498 857 499 857 326 857 495 858 496 858 359 858 359 859 496 859 352 859 326 860 505 860 327 860 499 861 505 861 326 861 496 862 498 862 352 862 327 863 504 863 428 863 505 864 504 864 327 864 428 865 504 865 423 865 504 866 503 866 423 866 423 867 503 867 424 867 503 868 502 868 424 868 424 869 502 869 427 869 502 870 501 870 427 870 501 871 500 871 427 871 427 872 500 872 341 872 500 873 497 873 341 873 341 874 497 874 342 874 497 875 493 875 342 875 342 876 493 876 344 876 506 877 507 877 508 877 509 878 508 878 507 878 510 879 507 879 506 879 511 880 507 880 512 880 513 881 507 881 510 881 514 882 507 882 515 882 515 883 507 883 513 883 514 884 516 884 507 884 512 885 507 885 516 885 509 886 507 886 511 886 394 887 506 887 406 887 506 888 508 888 406 888 413 889 511 889 405 889 406 890 508 890 418 890 511 891 512 891 405 891 405 892 512 892 380 892 508 893 509 893 418 893 418 894 509 894 413 894 509 895 511 895 413 895 380 896 516 896 371 896 512 897 516 897 380 897 371 898 516 898 360 898 516 899 514 899 360 899 360 900 514 900 357 900 357 901 515 901 354 901 514 902 515 902 357 902 515 903 513 903 354 903 354 904 513 904 368 904 368 905 513 905 378 905 513 906 510 906 378 906 378 907 510 907 394 907 510 908 506 908 394 908 517 909 518 909 519 909 520 910 519 910 518 910 521 911 518 911 517 911 522 912 518 912 523 912 524 913 518 913 521 913 525 914 518 914 526 914 526 915 518 915 524 915 525 916 527 916 518 916 523 917 518 917 527 917 520 918 518 918 522 918 517 919 519 919 375 919 375 920 519 920 387 920 388 921 522 921 373 921 522 922 523 922 373 922 373 923 523 923 343 923 519 924 520 924 387 924 387 925 520 925 388 925 520 926 522 926 388 926 343 927 527 927 331 927 523 928 527 928 343 928 331 929 527 929 316 929 527 930 525 930 316 930 316 931 525 931 314 931 314 932 526 932 312 932 525 933 526 933 314 933 526 934 524 934 312 934 312 935 524 935 329 935 524 936 521 936 329 936 329 937 521 937 345 937 345 938 521 938 375 938 521 939 517 939 375 939 528 940 529 940 530 940 531 941 530 941 529 941 532 942 529 942 528 942 533 943 529 943 534 943 535 944 529 944 532 944 536 945 529 945 537 945 537 946 529 946 535 946 536 947 538 947 529 947 534 948 529 948 538 948 531 949 529 949 533 949 528 950 530 950 411 950 411 951 530 951 414 951 403 952 533 952 389 952 533 953 534 953 389 953 389 954 534 954 379 954 530 955 531 955 414 955 414 956 531 956 403 956 531 957 533 957 403 957 379 958 538 958 363 958 534 959 538 959 379 959 363 960 536 960 348 960 538 961 536 961 363 961 348 962 536 962 349 962 536 963 537 963 349 963 537 964 535 964 349 964 349 965 535 965 364 965 535 966 532 966 364 966 364 967 532 967 401 967 401 968 532 968 411 968 532 969 528 969 411 969 539 970 540 970 541 970 542 971 541 971 540 971 543 972 540 972 539 972 544 973 540 973 545 973 546 974 540 974 543 974 547 975 540 975 546 975 548 976 540 976 547 976 549 977 540 977 550 977 550 978 540 978 548 978 545 979 540 979 549 979 542 980 540 980 544 980 539 981 541 981 333 981 333 982 541 982 353 982 346 983 544 983 306 983 544 984 545 984 306 984 541 985 542 985 353 985 353 986 542 986 346 986 306 987 545 987 307 987 542 988 544 988 346 988 545 989 549 989 307 989 307 990 549 990 426 990 549 991 550 991 426 991 426 992 548 992 422 992 550 993 548 993 426 993 422 994 548 994 425 994 548 995 547 995 425 995 425 996 547 996 429 996 547 997 546 997 429 997 429 998 546 998 335 998 546 999 543 999 335 999 335 1000 543 1000 333 1000 543 1001 539 1001 333 1001 551 1002 552 1002 553 1002 554 1003 553 1003 555 1003 556 1004 553 1004 552 1004 557 1005 553 1005 558 1005 556 1006 558 1006 553 1006 559 1007 553 1007 557 1007 559 1008 560 1008 553 1008 555 1009 553 1009 560 1009 561 1010 553 1010 554 1010 562 1011 553 1011 561 1011 551 1012 553 1012 562 1012 560 1013 559 1013 374 1013 372 1014 556 1014 384 1014 374 1015 559 1015 369 1015 559 1016 557 1016 369 1016 384 1017 556 1017 399 1017 369 1018 557 1018 372 1018 556 1019 552 1019 399 1019 557 1020 558 1020 372 1020 558 1021 556 1021 372 1021 399 1022 552 1022 421 1022 552 1023 551 1023 421 1023 421 1024 562 1024 432 1024 551 1025 562 1025 421 1025 562 1026 561 1026 432 1026 432 1027 561 1027 322 1027 561 1028 554 1028 322 1028 322 1029 554 1029 319 1029 554 1030 555 1030 319 1030 319 1031 555 1031 390 1031 555 1032 560 1032 390 1032 390 1033 560 1033 381 1033 381 1034 560 1034 374 1034 113 1035 563 1035 564 1035 115 1036 563 1036 113 1036 249 1037 563 1037 255 1037 270 1038 565 1038 273 1038 109 1039 106 1039 270 1039 289 1040 117 1040 293 1040 119 1041 117 1041 289 1041 270 1042 106 1042 565 1042 563 1043 566 1043 255 1043 273 1044 565 1044 276 1044 115 1045 566 1045 563 1045 293 1046 117 1046 294 1046 255 1047 566 1047 266 1047 266 1048 118 1048 258 1048 566 1049 118 1049 266 1049 106 1050 104 1050 565 1050 565 1051 567 1051 276 1051 117 1052 116 1052 294 1052 294 1053 116 1053 299 1053 115 1054 118 1054 566 1054 299 1055 568 1055 300 1055 104 1056 567 1056 565 1056 276 1057 567 1057 283 1057 116 1058 568 1058 299 1058 114 1059 568 1059 116 1059 568 1060 569 1060 300 1060 300 1061 569 1061 304 1061 567 1062 570 1062 283 1062 283 1063 570 1063 285 1063 114 1064 569 1064 568 1064 104 1065 570 1065 567 1065 105 1066 570 1066 104 1066 304 1067 571 1067 252 1067 569 1068 571 1068 304 1068 570 1069 572 1069 285 1069 285 1070 572 1070 290 1070 118 1071 573 1071 258 1071 258 1072 573 1072 259 1072 114 1073 571 1073 569 1073 112 1074 571 1074 114 1074 120 1075 573 1075 118 1075 573 1076 265 1076 259 1076 105 1077 572 1077 570 1077 107 1078 572 1078 105 1078 573 1079 120 1079 265 1079 571 1080 574 1080 252 1080 252 1081 574 1081 253 1081 265 1082 120 1082 268 1082 268 1083 122 1083 272 1083 572 1084 575 1084 290 1084 120 1085 122 1085 268 1085 290 1086 575 1086 295 1086 112 1087 574 1087 571 1087 574 1088 256 1088 253 1088 272 1089 123 1089 274 1089 122 1090 123 1090 272 1090 107 1091 575 1091 572 1091 295 1092 575 1092 297 1092 274 1093 123 1093 278 1093 574 1094 263 1094 256 1094 107 1095 111 1095 575 1095 575 1096 576 1096 297 1096 278 1097 121 1097 279 1097 123 1098 121 1098 278 1098 110 1099 574 1099 112 1099 111 1100 576 1100 575 1100 576 1101 577 1101 297 1101 574 1102 110 1102 263 1102 297 1103 577 1103 302 1103 121 1104 578 1104 279 1104 279 1105 578 1105 282 1105 111 1106 577 1106 576 1106 282 1107 578 1107 284 1107 113 1108 577 1108 111 1108 263 1109 110 1109 267 1109 577 1110 564 1110 302 1110 302 1111 564 1111 305 1111 578 1112 119 1112 284 1112 284 1113 119 1113 288 1113 113 1114 564 1114 577 1114 110 1115 109 1115 267 1115 564 1116 248 1116 305 1116 121 1117 119 1117 578 1117 119 1118 289 1118 288 1118 267 1119 109 1119 270 1119 248 1120 563 1120 249 1120 564 1121 563 1121 248 1121 21 1122 96 1122 139 1122 108 1123 18 1123 21 1123 139 1124 108 1124 21 1124 1 1125 0 1125 139 1125 22 1126 108 1126 0 1126 108 1127 139 1127 0 1127 460 1128 462 1128 464 1128 447 1129 448 1129 452 1129 579 1130 580 1130 581 1130 579 1131 581 1131 582 1131 579 1132 583 1132 580 1132 584 1133 585 1133 586 1133 587 1134 588 1134 585 1134 589 1135 590 1135 579 1135 589 1136 591 1136 590 1136 589 1137 579 1137 582 1137 592 1138 584 1138 593 1138 594 1139 582 1139 595 1139 594 1140 595 1140 596 1140 594 1141 597 1141 598 1141 594 1142 596 1142 597 1142 594 1143 589 1143 582 1143 594 1144 599 1144 589 1144 600 1145 587 1145 585 1145 600 1146 601 1146 587 1146 602 1147 600 1147 585 1147 583 1148 592 1148 580 1148 583 1149 585 1149 584 1149 583 1150 602 1150 585 1150 583 1151 584 1151 592 1151 582 1152 581 1152 603 1152 591 1153 232 1153 226 1153 590 1154 591 1154 226 1154 590 1155 226 1155 220 1155 579 1156 590 1156 220 1156 579 1157 220 1157 216 1157 583 1158 579 1158 216 1158 583 1159 216 1159 211 1159 602 1160 583 1160 211 1160 602 1161 211 1161 206 1161 600 1162 602 1162 206 1162 600 1163 206 1163 201 1163 601 1164 600 1164 201 1164 601 1165 201 1165 197 1165 587 1166 601 1166 197 1166 587 1167 197 1167 192 1167 588 1168 587 1168 192 1168 588 1169 192 1169 187 1169 585 1170 588 1170 187 1170 585 1171 187 1171 184 1171 586 1172 585 1172 184 1172 586 1173 184 1173 189 1173 584 1174 586 1174 189 1174 584 1175 189 1175 194 1175 593 1176 584 1176 194 1176 593 1177 194 1177 198 1177 592 1178 593 1178 198 1178 592 1179 198 1179 202 1179 580 1180 592 1180 202 1180 580 1181 202 1181 208 1181 581 1182 580 1182 208 1182 581 1183 208 1183 214 1183 603 1184 581 1184 214 1184 603 1185 214 1185 219 1185 582 1186 603 1186 219 1186 582 1187 219 1187 224 1187 595 1188 582 1188 224 1188 595 1189 224 1189 228 1189 596 1190 595 1190 228 1190 596 1191 228 1191 234 1191 597 1192 596 1192 234 1192 597 1193 234 1193 238 1193 598 1194 597 1194 238 1194 598 1195 238 1195 245 1195 594 1196 598 1196 245 1196 594 1197 245 1197 244 1197 599 1198 594 1198 244 1198 599 1199 244 1199 240 1199 589 1200 599 1200 240 1200 589 1201 240 1201 236 1201 591 1202 236 1202 232 1202 591 1203 589 1203 236 1203</p>
        </triangles>
      </mesh>
    </geometry>
  </library_geometries>
  <library_visual_scenes>
    <visual_scene id="Scene" name="Scene">
      <node id="Link_6" name="Link 6" type="NODE">
        <matrix sid="transform">1 0 0 0 0 1 0 0 0 0 1 0 0 0 0 1</matrix>
        <instance_geometry url="#Link_6-mesh" name="Link 6">
          <bind_material>
            <technique_common>
              <instance_material symbol="link_06_part_000_mtl_001-material" target="#link_06_part_000_mtl_001-material"/>
            </technique_common>
          </bind_material>
        </instance_geometry>
      </node>
      <node id="Camera" name="Camera" type="NODE">
        <matrix sid="transform">0.6859207 -0.3240135 0.6515582 7.481132 0.7276763 0.3054209 -0.6141704 -6.50764 -4.01133e-9 0.8953956 0.4452714 5.343665 0 0 0 1</matrix>
        <instance_camera url="#Camera-camera"/>
      </node>
      <node id="Lamp" name="Lamp" type="NODE">
        <matrix sid="transform">-0.2908646 -0.7711008 0.5663933 4.076245 0.9551712 -0.1998833 0.2183912 1.005454 -0.05518904 0.6045247 0.7946723 5.903862 0 0 0 1</matrix>
        <instance_light url="#Lamp-light"/>
      </node>
    </visual_scene>
  </library_visual_scenes>
  <scene>
    <instance_visual_scene url="#Scene"/>
  </scene>
</COLLADA>