<?xml version="1.0" encoding="utf-8"?>
<COLLADA xmlns="http://www.collada.org/2005/11/COLLADASchema" version="1.4.1" xmlns:xsi="http://www.w3.org/2001/XMLSchema-instance">
  <asset>
    <contributor>
      <author>Blender User</author>
      <authoring_tool>Blender 2.82.7</authoring_tool>
    </contributor>
    <created>2024-01-25T16:08:22</created>
    <modified>2024-01-25T16:08:22</modified>
    <unit name="meter" meter="1"/>
    <up_axis>Z_UP</up_axis>
  </asset>
  <library_effects>
    <effect id="LinkGrey_008-effect">
      <profile_COMMON>
        <technique sid="common">
          <lambert>
            <emission>
              <color sid="emission">0 0 0 1</color>
            </emission>
            <diffuse>
              <color sid="diffuse">0.8203922 0.8203922 0.8203922 1</color>
            </diffuse>
            <index_of_refraction>
              <float sid="ior">1</float>
            </index_of_refraction>
          </lambert>
        </technique>
      </profile_COMMON>
    </effect>
  </library_effects>
  <library_images/>
  <library_materials>
    <material id="LinkGrey_008-material" name="LinkGrey.008">
      <instance_effect url="#LinkGrey_008-effect"/>
    </material>
  </library_materials>
  <library_geometries>
    <geometry id="eSeries_UR10e_042-mesh" name="eSeries UR10e.042">
      <mesh>
        <source id="eSeries_UR10e_042-mesh-positions">
          <float_array id="eSeries_UR10e_042-mesh-positions-array" count="1596">-0.01797586 0.1084964 0.01973354 -0.01927912 0.1084964 0.01512795 -0.0202974 0.1084964 0.01776605 -0.01739251 0.1084964 0.01461285 -0.01550114 0.1084964 0.01570594 -0.01542222 0.1084964 0.01852989 0.01737898 0.1084964 0.01973354 0.01505744 0.1084964 0.01776605 0.01607567 0.1084964 0.01512795 0.01796227 0.1084964 0.01461285 0.01985371 0.1084964 0.01570588 0.01993262 0.1084964 0.01852989 -0.01729786 0.1084964 -0.0156663 -0.01521569 0.1084964 -0.01723742 -0.01992619 0.1084964 -0.01673024 -0.01952719 0.1084964 -0.02016925 -0.01607125 0.1084964 -0.02037358 0.01805698 0.1084964 -0.0156663 0.02013915 0.1084964 -0.01723742 0.01542866 0.1084964 -0.01673024 0.01582765 0.1084964 -0.02016925 0.01928353 0.1084964 -0.02037358 -0.01765149 0.1159551 0.0197854 -0.01507776 0.1159451 0.01781123 -0.01589286 0.1159681 0.01532745 -0.01816183 0.1159551 0.01454478 -0.01999378 0.1159681 0.01608681 -0.02002817 0.1159616 0.0182662 0.01770335 0.1159551 0.0197854 0.02027708 0.1159451 0.01781123 0.01946198 0.1159681 0.01532745 0.01719301 0.1159551 0.01454478 0.01536107 0.1159681 0.01608681 0.01532667 0.1159616 0.0182662 -0.01810109 0.1159657 -0.01567435 -0.01563644 0.1159551 -0.01653325 -0.01532679 0.1159616 -0.01933538 -0.01770347 0.1159551 -0.02085465 -0.01977521 0.1159681 -0.01965421 -0.02015179 0.1159551 -0.01728379 0.01814705 0.1159657 -0.01568245 0.02016943 0.1159551 -0.01733261 0.01935601 0.1159551 -0.02025306 0.01699751 0.1159681 -0.02066522 0.01530569 0.1159616 -0.0192905 0.0156697 0.1159551 -0.01649349 -0.01562768 0.1164808 0.01455366 -0.01904869 0.1164956 0.01438516 -0.02084076 0.1164905 0.01667547 -0.01961451 0.1164947 0.01957935 -0.01705569 0.1164947 0.02019268 -0.01478528 0.1164931 0.01839643 0.01972711 0.1164808 0.01455366 0.0163061 0.1164956 0.01438516 0.01451408 0.1164905 0.01667547 0.01574033 0.1164947 0.01957935 0.0182991 0.1164947 0.02019268 0.02056956 0.1164931 0.01839643 -0.01461714 0.1164956 -0.01855707 -0.01615649 0.1164905 -0.0210247 -0.01955544 0.1164931 -0.02074372 -0.02080899 0.1164931 -0.01785153 -0.01916188 0.1164947 -0.0154761 -0.01574009 0.1164866 -0.01560503 0.01919829 0.1164905 -0.0210247 0.0157994 0.1164931 -0.02074372 0.01454585 0.1164931 -0.01785153 0.01719665 0.1164808 -0.01494497 0.02083718 0.1164866 -0.01746028 -1.88907e-4 0.07904547 0.05107396 8.06418e-6 0.08305209 0.05101305 -0.0130248 0.1164963 0.01826578 -0.01355242 0.1164963 0.01461315 -0.01655459 0.1164963 0.01249003 -0.02020704 0.1164963 0.01301771 -0.02246344 0.1164963 0.01642888 -0.02104812 0.1164963 0.02070325 -0.01714092 0.1164963 0.02189886 -0.0145477 0.1164963 0.02070945 0.02232998 0.1164963 0.01826578 0.02180242 0.1164963 0.01461315 0.01880019 0.1164963 0.01249009 0.0151478 0.1164963 0.01301771 0.01289141 0.1164963 0.01642888 0.01430666 0.1164963 0.02070325 0.01821392 0.1164963 0.02189886 0.02080708 0.1164963 0.02070951 -0.01614332 0.1164963 -0.02280139 -0.01939857 0.1164963 -0.0226342 -0.02166551 0.1164963 -0.02085846 -0.02237677 0.1164963 -0.01681399 -0.01921159 0.1164963 -0.01362276 -0.01554733 0.1164963 -0.01392585 -0.01290881 0.1164963 -0.01707297 -0.01362133 0.1164963 -0.02067458 0.02173352 0.1164963 -0.02067458 0.01921153 0.1164963 -0.02280139 0.0151478 0.1164963 -0.02233719 0.01302468 0.1164963 -0.01933497 0.01373946 0.1164963 -0.01529127 0.01695632 0.1164963 -0.01352196 0.01980745 0.1164963 -0.01392585 0.02244603 0.1164963 -0.01707297 0.004767656 0.08227014 0.04878139 0.003648281 0.08425283 0.04887592 0.001921534 0.08535254 0.04941147 8.02748e-4 0.08595031 0.04800081 -3.94547e-4 0.08572643 0.04926347 0 0.08594667 0.04799652 -5.7966e-4 0.08592665 0.04799717 -0.002474844 0.0852406 0.04886102 -0.003970563 0.08359962 0.04936641 -0.004828393 0.08174753 0.04879254 -0.00461024 0.07974201 0.04910153 -0.003700375 0.07788121 0.04886102 -0.001728475 0.07639473 0.04799276 -3.65824e-4 0.07604539 0.04800671 0.001439988 0.07645577 0.04916256 5.79173e-4 0.0761668 0.04799717 0.00372076 0.07788556 0.04879373 0.004854023 0.07982921 0.04699701 0.004019141 0.0793401 0.04990977 -0.00181216 0.0770539 0.04984694 0.001335978 0.07758313 0.05053877 -0.002610921 0.07856112 0.05061662 -0.003324329 0.08118909 0.05079489 -0.001987993 0.08446168 0.05025523 0.002625703 0.08306479 0.05079889 0.003691136 0.08146691 0.05049431 -2.46362e-5 0.08424633 0.05079776 -0.002200961 0.08285176 0.05091047 0.002039909 0.07922536 0.05094873 -4.59713e-5 0.07903468 0.05105048 4.58406e-5 0.08305877 0.05105048 -0.02229273 0.1075963 0.01578187 -0.02066284 0.1075963 0.01342189 -0.01840227 0.1075963 0.01242768 -0.01513445 0.1075963 0.01299571 -0.01300007 0.1075963 0.01601392 -0.01353043 0.1075963 0.0196858 -0.01574122 0.1075963 0.02147054 -0.01821666 0.1075963 0.02192419 -0.02082383 0.1075963 0.02072852 -0.0221951 0.1075963 0.01867514 0.01306211 0.1075963 0.01578187 0.01437741 0.1075963 0.01373845 0.01654839 0.1075963 0.01246535 0.02022039 0.1075963 0.01299571 0.02235478 0.1075963 0.01601392 0.02182441 0.1075963 0.0196858 0.01961356 0.1075963 0.02147054 0.01713818 0.1075963 0.02192419 0.01453101 0.1075963 0.02072852 0.01315975 0.1075963 0.01867514 -0.02229273 0.1075963 -0.01957297 -0.02033823 0.1075963 -0.0222212 -0.01801729 0.1075963 -0.02294105 -0.01513433 0.1075963 -0.02235901 -0.01300007 0.1075963 -0.01934093 -0.01353049 0.1075963 -0.01566892 -0.01654857 0.1075963 -0.0135346 -0.01981925 0.1075963 -0.01390326 -0.02208781 0.1075963 -0.01628804 0.01880621 0.1075963 -0.0135346 0.02182435 0.1075963 -0.01566892 0.02235478 0.1075963 -0.01934093 0.02022051 0.1075963 -0.02235901 0.0173375 0.1075963 -0.02294105 0.01501661 0.1075963 -0.0222212 0.01306211 0.1075963 -0.01957297 0.01326704 0.1075963 -0.01628804 0.01553559 0.1075963 -0.01390326 -0.004376113 0.08357083 0.04696482 -0.001467227 0.08581346 0.04696482 0.00176686 0.08578455 0.04696482 0.004746377 0.08277654 0.04696482 0.003535568 0.07751566 0.04696482 0.001163184 0.07624989 0.04696482 -0.001767098 0.07630902 0.04696482 -0.004746496 0.07931691 0.04696482 0 0.1086938 0.02446496 0.003136932 0.1104812 0.023705 8.77335e-4 0.1104964 0.02154189 0 0.1104964 0.021465 -0.001715064 0.1105118 0.02165502 -0.003048181 0.1104941 0.02466678 -0.001530468 0.1105 0.02731174 0.001488626 0.1105061 0.02731037 0 0.1104964 0.02746492 0.009524703 0.1104964 -0.01343917 -9.98596e-4 0.1104964 -0.01654261 0.01505875 0.1104964 -0.005642175 0.0157203 0.1104964 0.001087367 0.01290464 0.1104964 0.00898993 0.003763496 0.1104964 0.01505661 -0.005767107 0.1104964 0.01428425 -0.01336419 0.1104964 0.008333802 -0.01576322 0.1104964 5.97799e-4 -0.01481902 0.1104964 -0.006301045 -0.00995028 0.1104964 -0.01293814 4.91515e-7 0.07614666 0.04696482 -6.1972e-7 0.08594679 0.04696482 0.00265944 0.1164395 0.022897 0.001475214 0.1165984 0.02160865 -6.08036e-4 0.1166887 0.02127164 -0.002520918 0.1165813 0.02263301 -0.003148019 0.1166049 0.02456152 -0.002206981 0.1166018 0.02673798 -6.96535e-4 0.116447 0.02740216 0.001534879 0.1164529 0.02729511 0.00315684 0.116609 0.02494436 -0.01290732 0.1164752 0.01575684 -0.01527196 0.1161856 0.01288729 -0.01981097 0.1161901 0.01267629 -0.02258116 0.1165314 0.01602917 -0.02188879 0.116185 0.01962482 -0.01806658 0.1161741 0.02207762 -0.01359397 0.1161752 0.01994067 0.0223385 0.1161901 0.01585131 0.02008771 0.1161953 0.01289004 0.01646912 0.1165502 0.01228123 0.01456683 0.1161926 0.01349198 0.01299488 0.1161901 0.01593089 0.01364684 0.1161741 0.02001667 0.01725316 0.1165074 0.02212238 0.02010911 0.1161972 0.02127653 0.02207612 0.1161938 0.01915431 -0.01269233 0.1165184 -0.0177856 -0.01420718 0.1161741 -0.02174216 -0.01736843 0.1165304 -0.02320271 -0.02088099 0.1161668 -0.02190297 -0.02249926 0.1161901 -0.01859259 -0.02136826 0.116167 -0.01500838 -0.018058 0.1161901 -0.0133903 -0.01450127 0.1161856 -0.0144962 0.02265697 0.1165074 -0.01778781 0.02136826 0.1161668 -0.02141559 0.01805746 0.1161901 -0.02303385 0.01510119 0.1165236 -0.02252084 0.01317608 0.116536 -0.02038484 0.01309919 0.1161856 -0.0164985 0.01491403 0.1165304 -0.0140447 0.01825851 0.1165242 -0.0132215 0.02122688 0.1165373 -0.0146721 0.001295149 0.1156902 -0.01628786 0.006615877 0.1157083 -0.01489007 0.01111853 0.1156902 -0.01176923 0.01490283 0.1156846 -0.006084859 0.01575314 0.1156901 7.60484e-4 0.01436018 0.1156901 0.006070196 0.01123517 0.1156901 0.01058328 0.006744265 0.1157083 0.01376098 0.001920163 0.1156943 0.01506084 -0.00466001 0.1157092 0.01477271 -0.01111829 0.1156902 0.01070028 -0.01429033 0.1156901 0.006220281 -0.01573884 0.1156901 9.25439e-4 -0.01498419 0.1156846 -0.005861759 -0.01031285 0.1156845 -0.01264035 -0.004230022 0.1156735 -0.0157631 -0.004746496 0.08277654 0.04396474 -0.001772344 0.08578932 0.04396474 0.001408696 0.08583146 0.04396474 0.004375994 0.08357083 0.04396474 0.004746377 0.07931691 0.04396474 0.001772224 0.07630413 0.04396474 -0.00105834 0.07622826 0.04396474 -0.003535687 0.07751566 0.04396474 -0.004758119 0.07978171 0.04396474 -6.59422e-6 0.1166949 0.02771502 0 0.1164463 0.02746492 0 0.1166962 0.02771496 0.001214981 0.1167026 0.02760517 6.3906e-6 0.1166949 0.02121496 0 0.1166962 0.02121502 -0.01997667 0.1167843 0.02232736 -0.01529818 0.1166946 0.02192872 -0.01257735 0.1166948 0.01886558 -0.02226567 0.116734 0.02006953 -0.01510137 0.116693 0.01239496 -0.02011924 0.1166903 0.01227724 0.02129483 0.1167055 0.02119946 0.01339852 0.1166942 0.02052503 0.02025896 0.1166933 0.01242077 0.01248937 0.1166867 0.01525437 0.02312982 0.1166905 0.01656454 -0.02279371 0.1166931 -0.01989191 -0.02246356 0.1166946 -0.01583302 -0.01891714 0.1166915 -0.01289683 -0.02143973 0.1167185 -0.02222752 -0.01361465 0.1166931 -0.02177989 -0.01409703 0.1166927 -0.01416772 0.01238435 0.116693 -0.01713359 0.01935732 0.116693 -0.023328 0.02202671 0.1167291 -0.02145481 -0.003763854 0.1166999 0.01588386 0 0.1156963 0.01521509 0 0.1166962 0.01621508 2.30998e-4 0.1166561 0.01621562 -0.004977583 0.1167105 -0.01684087 -0.0131905 0.1166952 -0.01111567 -0.01702201 0.116694 -0.001596271 -0.01511991 0.1166958 0.006804108 -0.01036792 0.1166952 0.01286852 2.3009e-4 0.1166567 -0.01728469 0 0.1166962 -0.01728433 0.01067733 0.1166948 0.01268321 0.01601326 0.1166946 0.004896879 0.01635867 0.1166942 -0.005358695 0.01036655 0.1166952 -0.0139386 -6.19077e-7 0.07613694 0.04396474 4.91213e-7 0.08595651 0.04396474 0.002531349 0.1166973 -0.03135311 -0.007210612 0.1166971 0.02935838 0.007787585 0.116697 0.02916467 0.01831281 0.1166964 0.02400511 -0.02812021 0.1166979 0.01191312 -0.03049415 0.1166965 8.708e-4 0.02604186 0.1166965 0.01552939 0.03045278 0.1166979 0.003928959 -0.01338672 0.1166974 -0.02821123 -0.02909606 0.1166983 -0.010643 0.02870768 0.1166982 -0.01169842 0.01583212 0.1166968 -0.02682882 -0.005040347 0.0803945 0.04016482 -0.004140615 0.08388394 0.04016482 -0.001393198 0.08582258 0.04016482 0.001062989 0.08590596 0.04016482 0.003115534 0.08498233 0.04016482 0.004900038 0.08222943 0.04016482 0.004344403 0.07838261 0.04016482 0.001463055 0.07627117 0.04016482 -0.001177012 0.0762006 0.04016482 -0.003513157 0.07746177 0.04016482 -0.02061825 0.1157017 -0.02442836 -0.012057 0.1156909 -0.02981603 -0.03150171 0.1156907 0.002692997 -0.03040641 0.1157065 -0.009380221 -0.0259543 0.1157023 -0.01849263 -0.02454257 0.1157017 0.01930677 -0.02881127 0.1157023 0.01235055 -0.01870721 0.1157206 0.02488309 -0.01159745 0.115731 0.02881622 0.004245102 0.1157202 0.03073835 -0.003772675 0.1156768 0.03079819 0.01203918 0.1157202 0.0286386 0.01904422 0.1157206 0.0246315 0.02607899 0.1156907 0.01742792 0.03029072 0.1157023 0.008330047 0.03154838 0.1156827 3.73991e-4 0.03074294 0.1157023 -0.007674694 0.02792644 0.1157023 -0.01523929 0.0231738 0.1157135 -0.02195727 0.01509052 0.115699 -0.02837061 -0.002142727 0.1157023 -0.03202301 0.005913376 0.1157022 -0.03153693 0 0.07609683 0.04016482 2.9317e-4 0.07607054 0.04016482 0 0.08599668 0.04016482 -0.00174731 0.0858882 0.04016482 0.00238049 0.1101964 -0.03200292 0.01028484 0.1101964 -0.03036993 0.01934599 0.1101964 -0.02560174 0.02733874 0.1101964 -0.01651018 0.03133577 0.1101964 -0.005083501 0.03032863 0.1101964 0.009072363 0.02444803 0.1101964 0.01942068 0.01684355 0.1101964 0.02627807 0.007656395 0.1101964 0.03008079 -0.002538442 0.1101964 0.03102779 -0.01217555 0.1101964 0.02858036 -0.01916217 0.1101964 0.02453994 -0.02489566 0.1101964 0.0188595 -0.02900087 0.1101964 0.01191037 -0.03120911 0.1101964 0.004147291 -0.03117299 0.1101964 -0.006091237 -0.02680969 0.1101964 -0.01738315 -0.01852804 0.1101964 -0.02621227 -0.007537245 0.1101964 -0.0312888 0.004874348 0.08288055 0.04087865 0.002205193 0.08567863 0.04085707 -2.15956e-4 0.08623975 0.04096782 -0.002183079 0.0860396 0.04098069 -0.005111932 0.08198332 0.04088366 -0.004740774 0.07914835 0.04089236 -0.002241849 0.07631474 0.04080027 0.001081049 0.07613766 0.04076439 0.002105593 0.07604676 0.04098451 0.004751563 0.07911103 0.04088234 -0.01738405 0.110197 0.03842025 -3.66211e-4 0.1102346 0.04196524 0.01738297 0.110197 -0.0394898 0.004034817 0.110197 -0.04300117 -0.009735941 0.110197 -0.04206645 0.006309986 0.110192 0.04162037 0.01843678 0.110197 0.03793305 -0.02248787 0.110197 -0.03678357 -0.03117525 0.1101965 -0.02950209 -0.04034554 0.1101979 0.01375478 -0.0306167 0.110198 0.02937442 0.03741347 0.110197 -0.02102625 0.02891188 0.110197 -0.03189992 0.0278601 0.1101965 0.03163391 0.03562968 0.110197 0.0229218 0.0412541 0.110197 0.01031756 -0.03795701 0.110197 -0.02000117 -0.04261642 0.110198 -0.004506587 0.04247397 0.1101979 -0.005816757 7.13071e-5 0.08624678 0.0409525 -1.04306e-5 0.07584667 0.04096251 0 0.07604682 0.0407648 0 0.07584685 0.04096478 -0.002584278 0.1077021 -0.04552304 0.007147192 0.1077021 -0.04502671 0.01878017 0.1077058 -0.04161608 0.02906233 0.1077021 -0.03497296 0.03578627 0.1077021 -0.02792018 0.04188591 0.1077059 -0.01744467 0.04478245 0.1077021 -0.005550444 0.04481369 0.1077022 0.004193425 0.04274958 0.1077022 0.01371663 0.03868645 0.1077022 0.02257335 0.03121334 0.1077059 0.03211665 0.02093225 0.1076685 0.03940254 0.0079903 0.1076826 0.04399448 0 0.1101964 0.04196488 0 0.1076964 0.0444647 -0.00602132 0.1076989 0.044155 -0.01892405 0.1077217 0.04045969 -0.03091436 0.1077059 0.03239995 -0.03853744 0.1077021 0.02282124 -0.04265725 0.1077021 0.01399093 -0.04478257 0.1077021 0.004481136 -0.04481387 0.1077021 -0.005262792 -0.04203844 0.1077058 -0.01706206 -0.03596156 0.1077021 -0.02768975 -0.02749925 0.1077058 -0.03637003 -0.01461791 0.1077059 -0.04327446 -0.007297992 0.07173627 0.04423242 0.009809672 0.07250213 0.04350966 -0.01739954 0.07504683 0.04096478 0.01739943 0.07504683 0.04096478 3.74604e-5 0.07154953 0.04446786 0.01739943 0.08704668 0.04096478 -0.01739954 0.08704668 0.04096478 -0.009813964 0.08959084 0.043509 0.007305324 0.09035742 0.04423224 -3.77664e-5 0.09054398 0.04446786 0.0121178 0.06794697 0.04287362 0.02089393 0.06794679 0.03938245 0 0.0905466 0.0444647 -0.01142823 0.06794703 0.04304534 -0.02099907 0.06794667 0.03936874 3.96637e-4 0.06794798 0.0446037 0 0.07154685 0.0444647 -0.03150522 0.06794691 0.03183114 -0.03883063 0.06794691 0.02232432 -0.04283678 0.06794691 0.01344251 -0.04483997 0.06794691 0.003906965 -0.04474651 0.06794691 -0.005835831 -0.04172885 0.06794691 -0.01782131 -0.03560847 0.06794691 -0.02814602 -0.02884006 0.06794691 -0.03515535 -0.0184071 0.06794691 -0.04178142 -0.006862759 0.06794691 -0.04506832 0.002871036 0.06794691 -0.04550248 0.01500248 0.06794691 -0.0431379 0.02782005 0.06794691 -0.03611773 0.03613156 0.06794691 -0.02745777 0.04218327 0.06794691 -0.01668047 0.04483985 0.06794691 -0.004976272 0.04474639 0.06794691 0.004766464 0.04256063 0.06794691 0.01426184 0.03838473 0.06794691 0.02306514 0.03061336 0.06794691 0.03267586 -0.04372382 0.06794691 -5.34664e-4 -0.04345846 0.06794691 -0.005344629 -0.04266554 0.06794691 -0.01009613 -0.04135477 0.06794691 -0.0147317 -0.03954195 0.06794691 -0.0191949 -0.0372492 0.06794691 -0.02343153 -0.03450429 0.06794691 -0.02739024 -0.03134047 0.06794691 -0.03102302 -0.02779632 0.06794691 -0.03428578 -0.02391469 0.06794691 -0.03713876 -0.01974278 0.06794691 -0.03954732 -0.01533126 0.06794691 -0.04148244 -0.0107336 0.06794691 -0.04292047 -0.006005644 0.06794691 -0.04384386 -0.001204788 0.06794691 -0.04424184 0.00361061 0.06794691 -0.04410904 0.008382201 0.06794691 -0.04344725 0.0130521 0.06794691 -0.04226481 0.01756358 0.06794691 -0.04057574 0.02186179 0.06794691 -0.03840059 0.0258947 0.06794691 -0.03576576 0.02961325 0.06794691 -0.03270328 0.03297233 0.06794691 -0.02925032 0.03593116 0.06794691 -0.02544873 0.03845387 0.06794691 -0.02134478 0.04050976 0.06794691 -0.01698827 0.0420739 0.06794691 -0.01243191 0.04312735 0.06794691 -0.007731318 0.0436573 0.06794691 -0.002943277 0.0436573 0.06794691 0.00187397 0.04312735 0.06794691 0.00666213 0.0420739 0.06794691 0.01136273 0.04050976 0.06794691 0.01591908 0.03845387 0.06794691 0.02027559 0.03593116 0.06794691 0.02437955 0.03297233 0.06794691 0.02818113 0.02961325 0.06794691 0.03163409 0.0258947 0.06794691 0.03469651 0.02186179 0.06794691 0.03733128 0.01756358 0.06794691 0.03950643 0.0130521 0.06794691 0.04119563 0.008382201 0.06794691 0.04237806 0.00361061 0.06794691 0.04303979 -0.001204788 0.06794691 0.04317247 -0.006005644 0.06794691 0.04277467 -0.0107336 0.06794691 0.04185122 -0.01533126 0.06794691 0.04041326 -0.01974278 0.06794691 0.03847813 -0.02391469 0.06794691 0.03606945 -0.02779632 0.06794691 0.03321659 -0.03134047 0.06794691 0.02995377 -0.03450429 0.06794691 0.02632105 -0.0372492 0.06794691 0.02236235 -0.03954195 0.06794691 0.01812571 -0.04135477 0.06794691 0.01366239 -0.04266554 0.06794691 0.009026944 -0.04345846 0.06794691 0.004275321</float_array>
          <technique_common>
            <accessor source="#eSeries_UR10e_042-mesh-positions-array" count="532" stride="3">
              <param name="X" type="float"/>
              <param name="Y" type="float"/>
              <param name="Z" type="float"/>
            </accessor>
          </technique_common>
        </source>
        <source id="eSeries_UR10e_042-mesh-normals">
          <float_array id="eSeries_UR10e_042-mesh-normals-array" count="2814">0 1 0 0 1 -9.58463e-6 0 1 -1.54101e-6 0 1 -1.79037e-6 0 1 -3.10928e-6 0 1 -2.81933e-6 0 1 1.99164e-6 0 1 1.36449e-6 -0.4262297 0.02481925 -0.9042745 -0.608024 -0.0483402 -0.7924457 -0.9984158 0.04885852 0.02790486 -0.9496917 -0.03402036 0.3113332 -0.500287 0.01761937 0.8656803 -0.3258548 -0.02498632 0.9450896 0.2632346 0.03594541 0.964062 0.6433831 -0.03659123 0.7646695 0.9320552 0.04298061 0.359758 0.9991896 -0.03708297 0.01566135 0.6462908 0.0277816 -0.7625853 0.5384673 -0.01756191 -0.8424635 -0.4262308 0.02481877 -0.9042741 -0.608024 -0.0483399 -0.7924457 -0.9984159 0.04885894 0.02790468 -0.9496912 -0.03402149 0.3113344 -0.5002838 0.01761811 0.8656823 -0.3258548 -0.0249862 0.9450896 0.2632343 0.03594535 0.9640621 0.6433855 -0.03659099 0.7646675 0.9320552 0.04297941 0.3597584 0.9991894 -0.03708386 0.01566076 0.6462896 0.02778106 -0.7625864 0.5384685 -0.01756143 -0.8424627 -0.3290118 -0.03639978 -0.9436241 -0.6018109 0.04134315 -0.7975679 -0.9929011 -0.04564547 -0.1098356 -0.963031 0.05950456 0.2627367 -0.5373982 -0.06335407 0.8409457 0.05883973 0.07707405 0.9952877 0.5006902 -0.04297679 0.8645591 0.987356 0.02195131 0.156992 0.9925982 0.03857445 0.1151559 0.6170263 -0.03965777 -0.7859426 0.3749389 0.0393238 -0.9262151 -0.6023207 0.005534589 -0.7982351 -0.6322035 -0.007322251 -0.7747679 -0.9647151 0.007277369 0.2631955 -0.9633184 0.005024731 0.2683142 -0.1722075 -0.01423549 0.9849579 0.05891931 0.05693554 0.9966378 0.6300428 -0.04719293 0.7751251 0.9917899 0.05579715 0.1150624 0.9912433 -0.02793538 -0.1290603 0.3751712 0.01729363 -0.9267942 0.311148 -0.005811154 -0.9503437 -0.6791036 0.6973057 0.22931 -0.1775215 0.8472991 0.50057 -0.04717397 0.2109299 0.9763622 0.397805 0.7903524 0.465934 0.6805652 0.5020822 0.5336146 0.5304055 0.8476739 0.01091206 0.8948013 0.2372598 -0.3782044 0.2808026 0.8552082 -0.4356248 0.2104074 0.4302803 -0.8778312 -0.3747175 0.7855117 -0.4925021 -0.4030416 0.7598478 -0.510087 -0.9373937 0.2818441 0.2045899 -0.6791006 0.6973115 0.2293012 -0.1775216 0.8472989 0.5005704 -0.04717397 0.2109301 0.9763622 0.3978052 0.7903439 0.4659481 0.6805624 0.5020884 0.5336124 0.5304049 0.8476745 0.01089853 0.8947986 0.2372718 -0.3782033 0.280802 0.8552039 -0.4356338 0.2104077 0.4302775 -0.8778325 -0.4030402 0.759835 -0.5101072 -0.9373914 0.2818471 0.2045962 -0.799281 0.3364697 0.4979339 -0.2596151 0.8778938 0.4023712 0.08219814 0.07804512 0.9935555 0.2728431 0.8440178 0.4617257 0.8394388 0.403693 0.3638333 0.5792645 0.8094097 0.0964809 0.7623134 0.3731024 -0.5288411 0.3359512 0.8361517 -0.433575 -0.03539353 0.2877374 -0.9570552 -0.1719657 0.8464741 -0.5038943 -0.8569895 0.4001026 -0.3247879 -0.5575611 0.8279867 -0.05969882 -0.5945813 0.7867978 0.1655976 -0.8613904 0.3175809 0.3964203 -0.09702634 0.8083208 0.5806921 0.07830739 0.319814 0.9442389 0.3403312 0.8398902 0.4227991 0.8931797 0.2288633 0.3871069 0.4907698 0.8690918 -0.06184291 0.7293368 -0.1571618 -0.6658589 0.1400307 0.8873481 -0.4393232 -0.6313288 -0.05762434 -0.7733715 -0.5053674 0.4595014 -0.7303851 -0.09297651 -0.00638163 0.9956479 -0.04796576 0.01754277 0.9986949 0.08147919 0.01114749 0.9966127 0.05358296 0.03078311 0.9980889 -0.00202012 0.9999942 -0.002759993 -0.007494747 0.9999713 0.001081407 -0.007778644 0.9999094 0.01100051 0.00404495 0.9999757 0.00569117 6.5219e-5 1 4.46487e-4 -0.001054525 0.9999985 0.001402854 0.003241717 0.9999924 0.002149879 0.003756642 0.9999923 -0.001241564 -1.5195e-5 0.999999 -0.001439094 2.60424e-4 0.9999995 -0.001085042 2.81659e-4 0.9999997 -9.28818e-4 -4.38665e-4 0.9999995 -9.55981e-4 -3.58592e-4 0.9999991 -0.001350522 -0.001903593 0.9999976 -0.001184523 -0.00202012 0.9999942 -0.002759993 -0.007494747 0.9999713 0.00107944 -0.007778644 0.9999092 0.01100057 0.00404495 0.9999757 0.00569123 6.52164e-5 1 4.46487e-4 -0.001054525 0.9999985 0.001397132 0.003241717 0.9999926 0.002140343 0.003756642 0.9999922 -0.001241564 -1.51949e-5 0.999999 -0.001439094 2.60425e-4 0.9999995 -0.001069545 2.81659e-4 0.9999996 -9.28821e-4 -4.38664e-4 0.9999995 -9.55985e-4 -3.58591e-4 0.9999991 -0.00134027 -0.001903593 0.9999976 -0.00117743 0.001032829 0.9999942 0.003269553 8.72056e-5 0.9999986 0.001700282 0.001416385 0.9999974 0.001801252 0.001479864 0.9999988 6.45297e-4 0.002307176 0.9999973 4.07755e-4 0.001091539 0.9999984 -0.001424849 8.44538e-4 0.9999994 -8.40524e-4 0.00233674 0.999997 -8.08525e-4 -4.73074e-4 0.9999836 -0.005716323 -0.006055831 0.9999688 -0.005072712 -0.002295553 0.9999951 0.002177417 -4.89781e-4 1 9.71026e-5 -0.002186596 0.9999974 -7.02525e-4 -0.002730607 0.9999911 0.003240227 -0.002599775 0.9999941 0.002290368 -0.002730607 0.9999911 0.003240227 0.001032829 0.9999942 0.003259897 2.18889e-4 0.9999982 0.001906454 0.001797199 0.9999977 0.00127542 0.001476943 0.9999987 6.41689e-4 0.002538859 0.9999968 -4.45928e-4 0.004464566 0.9999901 1.59376e-4 0.005477666 0.9999355 -0.009958624 -0.001579701 0.9999366 -0.01115512 -0.004365742 0.9999825 -0.004014134 -0.005012989 0.9999786 -0.004199206 -0.006326138 0.9999793 0.001249849 -0.00538814 0.9854909 0.1696426 -0.0338779 0.9863846 0.1609281 -0.2576419 0.9478608 0.1875649 0.1274802 -0.9805825 0.1490199 0.9569642 -0.1484313 0.2493748 0.9160495 -0.3449212 0.2046526 -0.2386597 -0.9183521 0.3157071 -0.5011062 -0.8222809 0.2697163 -0.07377678 -0.8978503 0.434076 0.1339052 0.9461416 0.2947636 0.8495228 -0.0139296 0.5273681 0.5267055 -0.5828227 0.6187884 0.5003404 -0.6508564 0.571004 -0.5613061 -0.5925244 0.5777978 -0.6923944 -0.4148452 0.5903334 -0.7987698 0.005791485 0.6016089 -0.7666123 0.1625942 0.6211833 -0.5277935 0.6496085 0.5472137 -0.289126 0.7891837 0.5418443 0.5464434 0.5507951 0.6308918 0.706036 0.3698115 0.6039476 0.707373 0.3551819 0.6111214 -0.009059607 -0.773883 0.6332639 -0.6704024 -0.229853 0.7054986 -0.1177127 0.7003661 0.7040108 0.07363855 0.7265642 0.6831412 -0.1059427 -0.4961969 0.861722 -0.5452087 0.3143607 0.7771261 -0.5111038 0.3811313 0.7703973 0.2479877 0.5570091 0.7926179 0.4658358 -0.1669849 0.8689725 0.445321 -0.3918662 0.8050654 -0.2048139 0.3920837 0.8968398 0.07154631 -0.2703593 0.9600974 -0.08083093 -0.398969 0.9133948 0.0414763 -0.7878407 0.6144809 -0.162961 -0.11074 0.9803981 0.09436559 0.2125671 0.9725793 0.2698857 -0.003590464 0.9628857 0.01766771 -0.9873574 0.1575221 -0.07953256 0.2029671 0.9759503 -0.8338047 0.02410262 -0.5515332 -0.8227215 0.01632606 -0.5682102 -0.4024997 -0.02095144 -0.9151804 -0.1428835 0.03659313 -0.9890629 0.1711893 -0.02863925 -0.9848219 0.576792 0.04569804 -0.815612 0.8158121 -0.04016822 -0.5769205 0.9889793 0.03889781 -0.1428527 0.9891761 -0.03339916 0.1428817 0.848132 0.03614848 0.5285503 0.6280501 -0.01769578 0.7779718 0.4167937 0.02181786 0.9087393 0.1802103 -0.01898461 0.9834449 -0.2923963 0.03806072 0.9555396 -0.4168479 -0.007926046 0.9089418 -0.8314499 -0.01937913 0.5552617 -0.9480974 0.0506488 0.3139203 -0.9991978 -0.02161556 0.03371274 -0.8338059 0.02410298 -0.5515313 -0.8405071 0.02893543 -0.5410273 -0.5056874 -0.02606701 -0.8623229 -0.1428658 0.03889292 -0.9889776 0.1428772 -0.03340351 -0.9891767 0.576789 0.04569828 -0.8156141 0.8158111 -0.0401687 -0.5769219 0.9889796 0.03889775 -0.1428507 0.9891762 -0.03339791 0.142881 0.8481331 0.03614914 0.5285486 0.6280514 -0.01769602 0.7779707 0.4167917 0.0218178 0.9087402 0.1802104 -0.01898455 0.9834449 -0.2923972 0.0380609 0.9555393 -0.416848 -0.00792557 0.9089417 -0.8314499 -0.01937836 0.5552617 -0.9480966 0.05064946 0.3139229 -0.9991978 -0.0216152 0.03371244 -0.9839166 0.04434615 -0.1730363 -0.8042595 -0.02905714 -0.5935677 -0.6163975 0.02856379 -0.786917 -0.2961981 -0.01304429 -0.9550375 -0.05127245 0.0264613 -0.9983341 0.1978107 -0.02627706 -0.979888 0.6442717 0.03506803 -0.7639924 0.8161236 -0.0295152 -0.5771232 0.980227 0.03936356 -0.1939216 0.9886551 -0.04653298 0.1428144 0.7654299 0.04777246 0.6417437 0.5771383 -0.02905052 0.8161296 0.08240044 0.0345149 0.9960016 -0.1119731 -0.02367037 0.9934293 -0.7097577 0.02626883 0.703956 -0.7244358 0.01720213 0.6891278 -0.9976483 -0.02871805 0.06223481 0.1402119 0.02773553 0.989733 0.5771391 -0.02905052 0.816129 0.7654284 0.04777181 0.6417455 0.988655 -0.04653304 0.1428147 0.9802277 0.03936249 -0.1939181 0.8161238 -0.02951616 -0.5771229 0.64427 0.03506779 -0.7639938 0.1978104 -0.026277 -0.979888 -0.1133955 0.03945499 -0.9927662 -0.2962149 -0.008081972 -0.9550872 -0.8045911 0.004120171 -0.593815 -0.8164119 0.01200574 -0.5773453 -0.9980427 -0.005861222 0.06226229 -0.9842055 0.0327599 0.1739724 -0.7240011 -0.03870213 0.6887124 -0.4815589 0.03936153 0.8755295 -0.1119694 -0.02468818 0.9934049 -0.9837214 0.08564752 -0.1579772 -0.9140428 0.3769282 0.1498367 -0.7168052 0.6880887 0.1128024 -0.6083633 0.789107 -0.08487862 -0.2811157 0.949765 0.1375522 0.008886218 0.9931482 -0.1165243 -0.01640164 0.9848093 -0.1728631 0.3173783 0.9370875 0.1453893 0.5579458 0.8225601 0.1099613 0.7040327 0.6973751 -0.1341872 0.8665518 0.4832905 0.124572 0.9993329 0.03649097 -0.001534104 0.8686837 -0.4952172 0.01219469 0.5408379 -0.8333956 0.113782 0.4705941 -0.8820404 0.02336573 0.2437818 -0.967974 0.05997359 -0.02008599 -0.9955974 -0.09155499 -0.09808623 -0.9914262 0.08633285 -0.5741438 -0.8138568 0.08942008 -0.7035199 -0.6968504 -0.1394963 -0.8812187 -0.449706 0.1456648 -0.9920526 -0.09524977 0.08221423 -0.3782604 0.8343377 0.4009983 0.06466931 0.8553742 0.5139582 -0.04517167 0.8562898 0.5145166 0.5062423 0.8314408 0.228965 0.4754499 0.8357596 -0.2746878 -0.05895429 0.855674 -0.5141465 0.05356085 0.8559346 -0.5143027 -0.5241193 0.8155733 -0.2452328 0 1 -1.29549e-6 0 1 9.07124e-7 0 1 8.43485e-7 0 1 7.71958e-7 0 1 -2.03075e-6 0 1 1.26377e-6 0 1 3.67188e-6 0 1 -7.08647e-6 -0.9698733 -0.04526418 0.2393679 -0.6907377 0.04253762 0.7218532 -0.7307668 0.06417256 0.6796041 0.0435025 -0.01519048 0.9989379 -0.1552798 0.0888893 0.9838632 0.580984 -0.05372929 0.8121398 0.9128665 0.0560382 0.4043942 0.9508539 0.0208559 0.3089367 0.8673264 0.005596756 -0.4977083 0.9160066 0.06432592 -0.3959723 0.3985694 -0.04195743 -0.916178 -0.04798418 0.02191728 -0.9986076 -4.34424e-4 -0.002571165 -0.9999966 -0.9094287 0.006001353 -0.4158166 -0.8211379 0.115697 -0.55888 -0.8162109 0.02523797 0.5772026 -0.7715185 -0.004316627 0.6361922 -0.1712527 0.009699821 0.9851795 -0.046431 -0.03649079 0.9982548 0.4022737 0.03948038 0.9146679 0.8224041 -0.03224247 0.5679894 0.7712571 0.007279336 0.6364823 0.9988812 0.03317683 -0.03370225 0.9816167 -0.01395821 -0.1903517 0.8311871 0.03173589 -0.5550865 0.5395413 -0.04116278 -0.8409524 0.4168438 0.008969068 -0.908934 -0.1802035 0.02074599 -0.9834105 -0.4304949 -0.05293631 -0.9010395 -0.6280419 0.01845878 -0.7779606 -0.9897236 -0.003083646 -0.1429609 -0.9868476 0.005626916 -0.1615557 -0.8164339 0.009375989 0.5773627 -0.7961331 -0.004844605 0.6051024 -0.1429507 0.009957671 0.9896798 -0.1640954 0.01882982 0.9862648 0.5338697 0.02211111 0.8452776 0.5058116 0.01358264 0.8625371 0.8408552 -0.003012359 0.5412518 0.8405296 -0.002820909 0.5417584 0.9993961 0.008400559 -0.03371912 0.9870024 -0.03139895 -0.1576089 0.8309534 0.03960055 -0.5549308 0.4166433 -0.03244704 -0.9084908 0.5033164 0.01272392 -0.8640087 -0.18019 0.02419739 -0.9833341 -0.2844867 -0.005234599 -0.9586658 -0.6280398 0.01863598 -0.777958 -0.7332957 -0.02054601 -0.6795994 -0.9895277 0.02013379 -0.1429319 -0.9968541 -0.003388166 -0.07918614 -0.9325612 -0.03053957 0.359718 -0.8155893 0.04667752 0.5767455 -0.4211635 -0.01968687 0.906771 -0.1976954 0.04304665 0.9793179 0.2962164 0.006465554 0.955099 0.3481679 -0.01275318 0.9373455 0.8042621 0.02889466 0.593572 0.8979569 -0.02851927 0.4391586 0.997578 0.03107392 -0.0622304 0.9529986 -0.03507506 -0.3009375 0.7239023 0.04204398 -0.6886202 0.4390617 -0.03639805 -0.8977195 0.1119295 0.03633499 -0.9930517 -0.2967477 -0.03609722 -0.9542734 -0.5767667 0.04617148 -0.815603 -0.8743675 -0.03271895 -0.48416 -0.9880054 0.05895918 -0.1427204 -0.9411755 -0.02679079 0.3368548 -0.8156248 0.04573887 0.5767706 -0.4390004 -0.04001504 0.8975954 -0.1978077 0.02715307 0.9798647 0.2961942 -0.01449978 0.9550178 0.1743194 0.0313825 0.984189 0.8045367 0.01230365 0.5937755 0.7419909 0.05124866 0.6684483 0.9997627 -0.01104056 0.01878082 0.9978986 0.01797324 -0.06225323 0.7245421 -0.00272727 -0.6892251 0.8000209 0.04618895 -0.5981916 0.2390092 0.001257598 -0.9710165 0.1119065 0.04169088 -0.9928439 -0.4390835 0.004576683 -0.8984346 -0.5765921 0.05237519 -0.8153518 -0.9087972 -0.01423585 -0.4169955 -0.9880388 0.05838495 -0.1427257 -0.2537615 0.0647363 0.9650982 -0.2811911 0.1084907 0.9534996 -0.5676374 -0.08896988 0.8184573 -0.8298999 0.07699942 0.5525733 -0.8152238 0.02487438 0.5786118 -0.9921868 -0.01929634 0.1232601 -0.9951258 0.01245296 0.09782385 -0.9672215 -0.009851276 -0.2537434 -0.9393348 0.07510197 -0.3346788 -0.8188641 -0.08926296 -0.5670042 -0.576225 0.06472706 -0.814724 -0.5497071 0.108482 -0.8282838 -0.2588428 -0.09101653 -0.9616218 0.04377299 0.01633042 -0.9989081 0.08053946 0.07601833 -0.9938485 0.5331465 -0.03402024 -0.8453387 0.6140282 0.09167623 -0.7839418 0.8128829 -0.0892601 -0.5755469 0.9625496 0.06448268 -0.2633256 0.9550295 0.0141949 -0.296171 0.9938071 -0.01164186 0.1105074 0.9905649 0.02004981 0.1355702 0.8232173 -0.02183604 0.5673065 0.8061116 0.0223928 0.5913397 0.4565947 -0.01915007 0.8894687 0.3718912 0.09306102 0.9235998 0.09443986 -0.09033107 0.991424 -0.7082524 0.6991704 -0.09766978 -0.6096216 0.7907371 0.05564713 -0.09054458 0.9958917 0.001192271 -0.01323044 0.9989165 -0.04461997 0.09142911 0.9958007 0.004656612 0.6049268 0.7940331 -0.05979472 0.7070277 0.700344 0.09813278 0.9912849 0.08630609 -0.09952682 0.9984872 0.03602337 -0.04154086 0.8672927 -0.494987 0.05283349 0.705298 -0.6962494 -0.133385 0.4692396 -0.8794978 0.07935863 0.08846265 -0.9960795 -4.98627e-5 0.02679347 -0.99897 -0.03662037 -0.09147864 -0.9957934 0.005219042 -0.459467 -0.8841435 -0.08473736 -0.7040042 -0.6973319 0.1345604 -0.8779512 -0.4736099 -0.0699675 -0.9999824 0.003887772 0.004483461 -0.9912849 0.08630609 0.09952676 0.4047064 0.02716422 -0.9140432 0.06403493 0.7085635 -0.7027357 -0.1593411 0.6980617 -0.6980834 -0.08106315 0.7047568 -0.7048026 -0.06390577 0.7442369 -0.6648516 -0.7746793 -0.3036249 -0.5546928 -0.2882474 -0.9459949 0.1483483 0.1816062 0.8640376 -0.4695298 0.007730305 0.9768025 0.2140024 -0.08109623 0.1494457 -0.9854388 -0.1901812 0.897656 -0.3975486 -0.7447204 0.08846819 -0.6614869 0.4737809 0.7273233 -0.4965204 0.2389168 0.8984799 -0.3683105 0.5882472 0.6938549 0.415368 0.7846629 0.6130579 -0.09200209 -0.4658767 0.884754 -0.01302069 -0.6216431 0.6429916 0.4473497 -0.03238821 0.7016106 0.7118242 -0.01878589 0.616373 0.7872303 -0.3872948 0.8486319 -0.3603146 0.289224 0.7361851 -0.6118669 -0.2233583 0.385141 -0.8954204 -0.0526396 0.694405 0.7176565 0.5470933 -0.3728841 0.7494308 0.4461279 0.8472221 0.2884174 0.7732273 0.6224922 -0.120926 0.8308555 0.5375152 -0.1440714 -0.9284512 0.05228841 -0.3677559 -0.5071114 0.860894 -0.04122847 -0.7400421 0.3677988 0.5630823 -0.6355456 0.6338968 0.4407455 0.4703366 0.8536071 0.2239163 0.9336433 0.3500322 -0.07607662 0.5235195 0.8368941 -0.1597992 0.6332392 0.1192861 -0.7647084 0.5581704 0.7604935 0.3318067 -0.334567 0.4424049 0.8320714 0.2063815 0.6429101 0.7376133 0.2252964 0.8516963 -0.4731332 -0.2720685 0.3966668 -0.8767179 -0.1963546 0.6384755 -0.7441734 -0.6501938 0.7037506 -0.2863274 -0.6415447 0.7454875 0.1807454 0.5242282 0.8471453 0.08677464 0.7444282 0.3058233 -0.5935477 -0.223798 0.8537005 0.4702234 0.1813524 0.1033354 0.9779741 -0.467747 0.5933151 0.6551259 -0.6362382 0.7557498 0.1550588 0.3487087 0.5420694 -0.7645672 0.06785827 0.7168759 -0.6938908 0.06278473 0.705709 -0.7057144 -0.05598771 0.7059974 -0.705998 0.1496862 0.8562941 -0.4943222 -0.214852 0.5725761 -0.7911987 0.2858364 0.7818842 0.5540351 0.5325408 0.3623567 0.764917 0.459194 0.830069 0.3164278 0.8897904 0.2828042 0.3581827 0.5400999 0.8395042 0.05936986 0.8379606 0.4952445 -0.2292491 0.7131598 0.6821146 -0.1616258 0.5745897 0.7101585 -0.4068436 0.6319103 0.5962806 -0.4951151 0.3035292 0.8200442 -0.4851778 -0.3027876 0.2694166 0.9141851 -0.208608 0.5812638 0.7865208 0.1347554 0.779433 0.6118212 0.0612666 0.741079 0.6686167 0.06174916 0.7402923 0.6694433 -0.311858 0.2386204 -0.9196766 -0.3346242 0.8123804 -0.4775613 -0.6629687 0.5913802 -0.4590664 -0.6766811 0.5718782 -0.4637435 -0.5910941 0.7915562 -0.1550695 -0.9287607 0.3693562 -0.03129923 -0.5926655 0.8021363 0.0729736 -0.6494573 0.6250779 0.432993 -0.695941 0.5285673 0.4860893 -0.3358877 0.8048474 0.4892853 -6.28878e-4 0.9999998 -1.45938e-4 -0.004495799 0.9999877 0.002143859 0.01399409 0.9998748 -0.007385373 0.01412039 0.9998714 -0.00760132 -0.01193386 0.998011 0.06190091 -0.006748676 0.9993264 0.03607618 3.963e-5 1 -2.43594e-4 0.01041752 0.9794881 0.2012327 -0.007960498 0.999968 8.01127e-4 -0.01173651 0.9998996 -0.00794506 0.007829666 0.9995368 -0.02941089 0.01615387 0.9998541 -0.005564451 5.71912e-5 0.9999944 0.003360807 -0.01059341 0.9987929 -0.04796475 -0.01411879 0.9978959 -0.06328231 -0.001053333 0.9999995 2.66562e-5 -5.31447e-4 0.9999998 4.98e-4 -5.36548e-4 0.9999998 5.01649e-4 -0.1471132 0.9876381 -0.05411827 -0.007433712 0.9975577 0.06945145 0.07115256 0.9959207 -0.05549174 -9.59966e-4 0.9991307 0.04167711 9.52767e-4 0.9999996 -3.30013e-4 2.43945e-4 1 3.1561e-4 -1.86446e-4 1 -1.31972e-4 -0.002332448 0.9999971 -7.69075e-4 6.92487e-5 0.9999999 6.25587e-4 -0.03803807 0.9992411 0.008395016 0.02400004 0.9996172 -0.01376771 0.02619785 0.9994958 0.01794314 -0.06350582 0.9959124 -0.06423085 -0.03837674 0.9961833 -0.07839709 0.03824985 0.9989675 0.02451509 -0.003743588 0.9999818 -0.00472784 -5.93314e-4 0.9999999 -1.14823e-4 -4.12115e-4 0.9999997 -6.89824e-4 0.0225625 0.9990046 0.03848129 -0.02143496 0.9993759 -0.02807658 0.06888777 0.9973975 -0.0212785 0.06653702 0.9940668 0.08604645 -0.04299813 0.9990748 -8.69943e-4 1.43101e-4 1 -2.38887e-4 7.24146e-4 0.9999997 2.55191e-4 7.11684e-4 0.9999998 1.96689e-4 2.52104e-4 0.9999999 -3.94109e-4 0.1110549 0.9909718 0.07511132 -3.45865e-4 1 1.25994e-4 0.008060693 0.9998878 -0.01263093 -0.01697552 0.9995254 -0.0257101 -0.1106934 0.9907134 0.07895475 -0.01496016 0.9997525 -0.01646512 -0.02251017 0.9997434 0.002533614 -0.04875999 0.9975464 0.0502367 -0.01289767 0.9991945 0.03800243 0.01097619 0.9999316 0.004045486 -0.03320336 0.9988516 0.03454339 0.201386 0.9794889 0.006734848 0.05175495 0.9980264 -0.03556454 0.03673124 0.9990717 0.02251005 7.47662e-4 0.9999997 -2.12817e-4 0.00677073 0.9997775 -0.01997888 0.0356279 0.9990583 -0.02476429 1.367e-4 0.9999999 6.59608e-4 0.01751273 0.9996584 -0.01940035 -0.02329248 0.9996447 -0.01296365 0.01070767 0.9999319 0.004629313 -0.003283202 0.9999939 0.001217126 0.00858885 0.9999589 -0.002908885 7.28594e-4 0.9999387 -0.01104497 0.008664786 0.9995895 0.02730762 -0.9651179 0.2488529 -0.08136183 -0.7087088 0.6996216 0.09089273 -0.5758157 0.8160302 -0.0503093 -0.09389978 0.9955815 -6.53759e-4 -0.03390526 0.9991653 -0.02278292 0.08846688 0.9960131 0.01147621 0.4102714 0.9117561 -0.01944702 0.6033263 0.7919304 0.09404146 0.8366928 0.5423636 -0.07607161 0.9906006 0.08624655 0.1061704 0.987344 -0.142614 -0.0693764 0.7083003 -0.6992158 0.09699481 0.5905818 -0.8059322 -0.04106777 0.09389948 -0.9955812 0.001002132 -0.08578693 -0.9939789 -0.06816548 0.02672344 -0.9996222 0.00643903 -0.4610243 -0.8871426 0.02084761 -0.4750256 -0.8799191 0.009656369 -0.8801065 -0.4747741 0.001506686 -0.8869148 -0.461853 -0.008609771 -0.9971994 0.003877043 0.07468962 -0.4466701 0.5432878 -0.7108616 -0.3693274 0.7834433 -0.4998137 -0.6367753 0.7689575 -0.05676054 -0.7609216 0.5316071 -0.3720111 -0.4249036 0.861065 -0.2793279 -0.5676147 0.6460336 -0.5103471 -0.784178 0.6132022 -0.09512126 -0.6585812 0.6347412 0.4041962 -0.7574248 0.6181405 0.2102616 -0.5792064 0.8056299 0.1244214 -0.4806177 0.8077484 0.3413933 -0.5128498 0.6718592 0.5344066 -0.4906045 0.7264776 0.4811836 -0.2448036 0.85613 0.4550964 -0.2669555 0.8354641 0.4803483 0.006967365 0.8425118 0.5386328 -9.79982e-5 0.8157794 0.5783632 -0.2116218 0.4846099 0.8487459 0.2218572 0.5221303 0.8235043 0.3636795 0.6807613 0.6358469 0.2519825 0.8199853 0.5139347 0.5111719 0.7017202 0.4962783 0.4824575 0.777882 0.4026591 0.6080173 0.4590526 0.6477543 0.6986263 0.6378064 0.3242288 0.5382482 0.8175343 0.2047603 0.8751426 0.4640069 0.1371974 0.5755493 0.8158742 -0.05560839 0.5308346 0.845401 -0.0592609 0.8363886 0.4510813 -0.3114161 0.4736964 0.8150033 -0.3337385 0.5261964 0.7713893 -0.3578771 0.4360582 0.7434189 -0.5071308 0.4965392 0.6000689 -0.627189 -0.1175805 0.7945175 -0.595749 -0.1117745 0.8601454 -0.4976508 0.05613481 0.3625927 -0.9302557 0.2006103 0.789056 -0.5806429 0.2038272 0.774262 -0.5991436 -2.53993e-6 0 1 0 0 1 -1.67892e-5 0 1 0.202098 -0.04688161 -0.9782426 0.3256122 0.05850875 -0.9436914 0.4640041 -0.08485794 -0.8817594 0.6191393 0.08604121 -0.7805533 0.7483396 -0.08461773 -0.6578964 0.8155356 0.04610902 -0.5768674 0.9369715 -0.01948082 -0.3488622 0.9425573 -0.0536763 -0.3297039 0.9932377 0.06023699 -0.09924966 0.9915789 -0.1086037 0.07054597 0.9873626 0.02784007 0.1560131 0.9056563 0.06277602 0.4193398 0.8667313 -0.07864284 0.4925365 0.7149265 0.04094064 0.6980001 0.6689963 -0.04537993 0.7418792 0.4956103 0.06081056 0.8664137 0.3817087 -0.06209135 0.9221948 0.2598587 0.04565244 0.964567 0.09231644 -0.06129878 0.9938411 0.007221996 0.04347461 0.9990285 -0.2456108 -0.01471108 0.9692569 -0.2461147 -0.01559251 0.9691154 -0.4840399 0.01327145 0.8749454 -0.5005788 -0.01253587 0.8656004 -0.690849 0.01199811 0.7228995 -0.7037611 -0.01257139 0.7103255 -0.8522545 0.01217252 0.5229859 -0.8609359 -0.0110141 0.5085944 -0.9632548 0.011716 0.2683337 -0.9616275 0.02119243 0.2735388 -0.9985289 -0.05410879 -0.003520369 -0.9923671 0.08439338 -0.08991873 -0.9294027 -0.08505952 -0.3591318 -0.8973152 0.05105537 -0.4384279 -0.7435372 -0.01918047 -0.6684195 -0.7282478 -0.05514818 -0.6830914 -0.5311747 0.07187891 -0.8442079 -0.4171736 -0.1010674 -0.9031898 -0.2166386 0.0825386 -0.9727565 -0.07167571 -0.06251865 -0.9954668 0.06016671 0.04578846 -0.9971377 -0.7606029 -0.493042 0.4223657 -0.7001992 -0.6698341 -0.2470695 -0.3838897 -0.853127 0.3532749 -0.2233811 -0.9735039 0.04890012 0.005800187 -0.9200664 0.3917197 0.09995979 -0.9673588 0.2328628 0.5776413 -0.6897682 0.4365209 0.7498004 -0.5319753 -0.3934484 0.8125191 -0.2095055 0.5439854 0.9747196 0.1270543 -0.1837909 0.816029 0.4249391 0.391821 0.7162743 0.6406553 -0.2766078 0.4004737 0.7418234 0.5378836 0.08805561 0.9956238 -0.03129762 0.05047559 0.9830276 -0.1763772 -0.167961 0.9795163 0.1110722 0.03492534 0.970544 0.2383788 -0.4878159 0.6656915 0.564704 -0.7416779 0.6330242 -0.2217978 -0.9136573 0.131972 0.3844656 -0.997326 0.03242498 -0.06549477 1.22884e-4 1 -5.97402e-5 2.68203e-5 1 -4.66739e-5 1.35605e-5 1 -5.19444e-5 -0.001550316 0.9999938 -0.003194272 -2.2613e-5 1 5.71531e-5 -1.08588e-5 1 5.19509e-5 3.94487e-6 1 5.61053e-5 1.12417e-5 1 6.0346e-5 0.00615257 0.99997 -0.004724562 3.58326e-5 1 3.87151e-4 -3.15407e-4 0.9999999 3.45001e-4 -2.32899e-5 1 -5.71095e-5 1.75554e-5 1 6.09214e-5 2.22018e-5 1 4.8688e-5 1.37311e-6 1 5.49902e-5 1.27862e-5 1 1.34092e-5 1.34331e-4 1 -4.04297e-5 1.28228e-4 1 -7.27535e-5 1.32521e-4 1 -8.98966e-5 1.03543e-4 1 -1.02883e-4 -5.38847e-5 1 3.22627e-5 -3.94655e-5 1 3.56089e-5 -2.69522e-5 1 5.29101e-5 -2.83642e-5 1 5.3969e-5 9.95143e-6 1 -6.0216e-5 -1.27429e-5 1 -1.40171e-5 -5.30753e-5 1 -2.80252e-6 -4.58193e-5 1 -2.64774e-5 -6.18339e-5 1 -1.93073e-5 6.29145e-5 1 -5.64829e-6 5.63743e-5 1 2.11975e-5 1.44227e-4 1 -2.05526e-5 1.47216e-4 1 0 1.58884e-4 1 -1.48094e-5 -6.9817e-5 1 4.97629e-5 -1.43823e-4 1 -8.90178e-6 -1.39927e-4 1 4.82818e-5 -8.29718e-5 1 -3.04121e-5 0.05251759 0.02964317 0.99818 0.09453803 0.6970788 0.7107347 -0.162187 0.697698 0.6977915 -0.0590201 0.7057871 0.7059612 -0.07680863 0.7433416 0.6644876 0.03834062 0.6582533 -0.7518197 0.1709066 0.7407299 -0.6497001 0.2010719 0.6987242 -0.6865528 0.3847117 0.7145069 -0.5843603 0.3712409 0.7296968 -0.5742151 0.5396897 0.6663326 -0.5145251 0.5072712 0.7650978 -0.3966122 0.6656885 0.6375264 -0.3878389 0.5928828 0.7807421 -0.1973121 0.7317884 0.6578755 -0.1780044 0.7342402 0.6788858 -0.002356708 0.6267365 0.7777867 0.04742681 0.735714 0.6582523 0.159464 0.613497 0.7407239 0.2737696 0.6251407 0.725914 0.286789 0.5915289 0.6601265 0.4629543 0.4936638 0.7499593 0.4402921 0.4111781 0.6727805 0.6150602 0.3983406 0.7219389 0.5657995 0.2518714 0.6599339 0.7078475 0.1954234 0.7398813 0.6437278 0.03938859 0.7005109 0.7125539 0.04279756 0.7064437 0.7064741 0.0744999 0.7051211 0.7051625 -0.03647148 0.698495 0.714685 -0.1256735 0.7939524 0.5948494 -0.197212 0.6935681 0.6928713 -0.3928155 0.7179133 0.5747143 -0.380912 0.7317152 0.5652426 -0.5965368 0.6473003 0.4744958 -0.5161249 0.7938971 0.3214694 -0.6805139 0.6603765 0.3174962 -0.7165701 0.678883 0.1601417 -0.6033985 0.7939015 0.07503801 -0.7509192 0.6603897 0.002411007 -0.7141545 0.6795867 -0.1677661 -0.6043613 0.7756932 -0.1817898 -0.6658676 0.6414726 -0.3809636 -0.5368179 0.7516424 -0.3832236 -0.5410772 0.6551972 -0.5272116 -0.4183883 0.7588286 -0.4991296 -0.3681654 0.6266273 -0.6868716 -0.2452602 0.7677161 -0.5919961 -0.140716 0.6414641 -0.7541372 -0.04360109 0.7650974 -0.6424368 -0.001219093 0.7005948 0.7135583 0 0.7071421 0.7070715 -0.003531515 0.7269263 0.6867064 -0.002509117 -0.02210843 0.9997525 0 0.002840995 0.999996 -0.00348252 -0.07298195 0.9973273 0.00328499 0.03049337 0.9995297 0.005943953 -0.1439186 0.9895718 0.004606306 0.08537101 0.9963387 0 -0.01532608 0.9998826 -0.007167637 8.77727e-4 0.999974 -0.01247155 0.2738816 0.9616826 -0.006875574 0 0.9999764 -0.006136596 0.001181244 0.9999805 0.01263636 -0.02134525 0.9996924 0.004534006 0.003662049 0.9999831 0.006602287 0 0.9999783 0 -0.7024348 0.7117481 0.002059936 -0.7101811 0.704016 0.003559052 -0.7271202 0.686501 0.3343872 -2.86663e-4 0.9424358 0.3133308 0.01825064 0.9494687 0.369515 -0.0251429 0.9288846 0.03212767 0.01244544 0.9994063 0.01147997 0.02208113 0.9996904 0.07942461 0.04593014 0.9957823 -0.09611254 -0.0153737 0.9952518 -0.2752174 0.02335673 0.9610983 -0.3568779 0.09795206 0.9290015 -0.3219939 -0.04929006 0.9454579 -0.4053444 0 0.9141641 -0.1288322 -0.1658722 0.9776956 -0.08477991 0.02910691 0.9959746 -0.03088003 0.03516501 0.9989044 0.1457119 -0.06401902 0.9872536 0.09295636 0.04678273 0.9945705 0.3103985 0.02458971 0.9502885 -0.3179137 -2.79312e-4 0.9481196 -0.3808354 -0.005492985 0.9246267 -0.5578607 0.006340086 0.8299105 -0.5829322 -0.002961337 0.8125154 -0.7824532 0.002719581 0.6227034 -0.7921214 -0.001787602 0.610361 -0.9062207 0.001397967 0.4228029 -0.9115605 -0.001555383 0.4111632 -0.9759249 0.001398086 0.2181024 -0.9786376 -0.001555383 0.2055875 -0.9999939 0.001398324 0.003210306 -0.9999529 -0.001555442 -0.009594142 -0.9734331 0.001651406 -0.2289657 -0.9697321 -0.002889335 -0.2441545 -0.8681012 0.002718389 -0.4963799 -0.8602156 -0.001788318 -0.5099274 -0.7160378 0.001651585 -0.6980597 -0.7193583 0.003037989 -0.6946326 -0.5361062 -0.007708847 -0.8441154 -0.4723874 0.0119248 -0.8813104 -0.2738249 -0.01001888 -0.9617274 -0.183666 0.008524417 -0.9829518 -0.04455417 -0.006630241 -0.998985 0.05093002 0.006472647 -0.9986813 0.1913067 -0.008832156 -0.9814907 0.2813313 0.009997844 -0.9595587 0.480332 -0.01206982 -0.8770037 0.5426573 0.007228851 -0.8399231 0.7237774 -0.002747297 -0.6900282 0.7214742 -0.001788437 -0.692439 0.8641759 0.001652061 -0.5031872 0.8719344 -0.002888858 -0.4896144 0.9716016 0.002719461 -0.2366073 0.9751936 -0.001787841 -0.2213464 0.9999939 0.001398324 -0.003209888 0.9999529 -0.001554846 0.009593725 0.9773057 0.001398563 0.2118293 0.9745127 -0.001555562 0.2243272 0.908917 0.001398444 0.4169749 0.9035035 -0.001555085 0.4285781 0.7873244 0.001651942 0.6165369 0.7775862 -0.002889454 0.6287697 0.5781906 0.00275129 0.8158972 0.5679339 -9.63808e-4 0.8230736 0.408603 -8.55492e-4 0.9127119 0.4124866 0 0.9109637 0 -1 -2.6087e-7 0 -1 0 0 -1 6.28978e-7 0 -1 9.09153e-6 0 -1 2.24306e-6 1.01977e-6 -1 0 2.8963e-6 -1 9.74759e-6 0 -1 -2.38421e-6 0 -1 -4.00263e-6 0 -1 2.00801e-5 0 -1 -9.64251e-6 0 -1 4.42262e-6 0 -1 9.35885e-6 0 -1 -1.54061e-5 0 -1 -9.4498e-6 0 -1 -4.55924e-6 0 -1 1.06958e-5 0 -1 -2.0196e-6 0 -1 8.1373e-7 0 -1 2.18566e-6 0 -1 2.54627e-7 2.65889e-6 -1 2.55444e-6 -1.98061e-6 -1 8.35857e-7 0 -1 -2.15662e-6 0 -1 -2.65592e-6 0 -1 -1.05305e-5 0 -1 2.09294e-6 -3.51482e-6 -1 0 -5.56193e-5 -1 -1.21221e-4 -5.31256e-5 -1 -1.08416e-4 -5.46517e-5 -1 -1.60849e-4 -1.8099e-5 -1 1.01542e-5 6.54401e-6 -1 3.45886e-5 5.09688e-6 -1 4.81397e-5 1.8524e-5 -0.9999998 7.29298e-4 2.00382e-5 -0.9999998 7.333e-4 -6.84681e-5 -0.9999998 8.21695e-4 -3.62223e-4 -0.9999983 0.00183016 6.53846e-5 -1 1.22522e-4 -2.31151e-5 -1 7.17625e-5 -4.97346e-5 -1 1.43418e-4 8.73323e-5 -1 -1.41725e-4 8.25227e-5 -1 -1.38149e-4 1.46801e-4 -1 -1.94521e-4 2.38787e-5 -1 -6.08105e-5 0 -1 -4.80598e-6 0 -1 1.10029e-6 0 -1 1.10548e-6 5.49236e-6 -1 0 5.0544e-6 -1 0</float_array>
          <technique_common>
            <accessor source="#eSeries_UR10e_042-mesh-normals-array" count="938" stride="3">
              <param name="X" type="float"/>
              <param name="Y" type="float"/>
              <param name="Z" type="float"/>
            </accessor>
          </technique_common>
        </source>
        <vertices id="eSeries_UR10e_042-mesh-vertices">
          <input semantic="POSITION" source="#eSeries_UR10e_042-mesh-positions"/>
        </vertices>
        <lines count="2">
          <input semantic="VERTEX" source="#eSeries_UR10e_042-mesh-vertices" offset="0"/>
          <p>327 358 332 356</p>
        </lines>
        <triangles material="LinkGrey_008-material" count="978">
          <input semantic="VERTEX" source="#eSeries_UR10e_042-mesh-vertices" offset="0"/>
          <input semantic="NORMAL" source="#eSeries_UR10e_042-mesh-normals" offset="1"/>
          <p>1 0 2 0 0 0 1 1 4 1 3 1 1 2 5 2 4 2 1 0 0 0 5 0 6 3 8 3 7 3 9 4 8 4 6 4 6 5 10 5 9 5 6 6 11 6 10 6 14 0 12 0 13 0 13 7 15 7 14 7 13 0 16 0 15 0 19 0 17 0 18 0 18 7 20 7 19 7 18 0 21 0 20 0 0 8 22 8 5 8 5 9 22 9 23 9 5 10 23 10 4 10 4 11 23 11 24 11 4 12 24 12 3 12 3 13 24 13 25 13 3 14 25 14 1 14 1 15 25 15 26 15 1 16 26 16 2 16 2 17 26 17 27 17 2 18 27 18 0 18 0 19 27 19 22 19 6 20 28 20 11 20 11 21 28 21 29 21 11 22 29 22 10 22 10 23 29 23 30 23 10 24 30 24 9 24 9 25 30 25 31 25 9 26 31 26 8 26 8 27 31 27 32 27 8 28 32 28 7 28 7 29 32 29 33 29 7 30 33 30 6 30 6 31 33 31 28 31 12 32 34 32 35 32 12 33 35 33 13 33 13 34 35 34 36 34 13 35 36 35 16 35 16 36 36 36 37 36 16 37 37 37 15 37 15 38 37 38 38 38 15 39 38 39 39 39 15 40 39 40 14 40 14 41 39 41 34 41 14 42 34 42 12 42 17 43 40 43 18 43 18 44 40 44 41 44 18 45 41 45 21 45 21 46 41 46 42 46 21 47 42 47 43 47 21 48 43 48 20 48 20 49 43 49 44 49 20 50 44 50 19 50 19 51 44 51 45 51 19 52 45 52 17 52 17 53 45 53 40 53 23 54 46 54 24 54 24 55 46 55 25 55 25 56 46 56 47 56 25 57 47 57 26 57 26 58 47 58 48 58 26 59 48 59 27 59 27 60 48 60 49 60 27 61 49 61 22 61 22 62 49 62 50 62 22 63 50 63 23 63 23 64 50 64 51 64 23 65 51 65 46 65 29 66 52 66 30 66 30 67 52 67 31 67 31 68 52 68 53 68 31 69 53 69 32 69 32 70 53 70 54 70 32 71 54 71 33 71 33 72 54 72 55 72 33 73 55 73 28 73 28 74 55 74 56 74 28 63 56 63 29 63 29 75 56 75 57 75 29 76 57 76 52 76 36 77 58 77 59 77 36 78 59 78 37 78 37 79 59 79 60 79 37 80 60 80 38 80 38 81 60 81 61 81 38 82 61 82 39 82 39 83 61 83 62 83 39 84 62 84 34 84 34 85 62 85 63 85 34 86 63 86 35 86 35 87 63 87 58 87 35 88 58 88 36 88 41 89 68 89 42 89 42 90 68 90 64 90 42 91 64 91 43 91 43 92 64 92 65 92 43 93 65 93 44 93 44 94 65 94 66 94 44 95 66 95 45 95 45 96 66 96 67 96 45 97 67 97 40 97 40 98 67 98 41 98 41 99 67 99 68 99 130 100 125 100 69 100 70 101 130 101 69 101 127 102 70 102 69 102 131 103 127 103 69 103 51 104 71 104 46 104 46 105 71 105 72 105 46 106 72 106 73 106 46 107 73 107 47 107 47 108 73 108 74 108 47 109 74 109 48 109 48 110 74 110 75 110 48 111 75 111 76 111 48 112 76 112 49 112 49 113 76 113 50 113 50 114 76 114 77 114 50 115 77 115 78 115 50 116 78 116 51 116 51 117 78 117 71 117 57 118 79 118 52 118 52 119 79 119 80 119 52 120 80 120 81 120 52 121 81 121 53 121 53 122 81 122 82 122 53 123 82 123 54 123 54 124 82 124 83 124 54 125 83 125 84 125 54 126 84 126 55 126 55 127 84 127 56 127 56 128 84 128 85 128 56 129 85 129 86 129 56 130 86 130 57 130 57 131 86 131 79 131 59 132 87 132 60 132 60 133 87 133 88 133 60 134 88 134 89 134 60 135 89 135 61 135 61 136 89 136 90 136 61 137 90 137 62 137 62 138 90 138 91 138 62 139 91 139 63 139 63 140 91 140 92 140 63 141 92 141 93 141 63 142 93 142 58 142 58 143 93 143 94 143 58 144 94 144 59 144 59 145 94 145 87 145 68 146 95 146 64 146 64 147 95 147 96 147 64 148 96 148 65 148 65 149 96 149 97 149 65 150 97 150 98 150 65 151 98 151 66 151 66 152 98 152 99 152 66 153 99 153 67 153 67 154 99 154 100 154 67 155 100 155 101 155 67 156 101 156 68 156 68 157 101 157 102 157 68 158 102 158 95 158 107 159 106 159 108 159 107 160 108 160 109 160 107 161 109 161 110 161 117 162 116 162 118 162 120 163 103 163 121 163 120 164 121 164 119 164 115 165 116 165 122 165 115 166 122 166 114 166 116 167 117 167 122 167 106 168 107 168 105 168 103 169 128 169 121 169 119 170 121 170 123 170 119 171 123 171 117 171 114 172 122 172 124 172 114 173 124 173 113 173 112 174 113 174 125 174 112 175 125 175 111 175 110 176 111 176 126 176 110 177 126 177 107 177 104 178 105 178 127 178 104 179 127 179 103 179 103 180 127 180 128 180 117 181 123 181 122 181 113 182 124 182 125 182 107 183 126 183 129 183 107 184 129 184 105 184 122 185 123 185 124 185 111 186 125 186 130 186 111 187 130 187 126 187 105 188 129 188 127 188 121 189 128 189 131 189 121 190 131 190 123 190 126 191 130 191 129 191 123 192 131 192 132 192 123 193 132 193 124 193 124 194 132 194 69 194 124 195 69 195 125 195 129 196 133 196 127 196 128 197 127 197 131 197 70 198 127 198 133 198 130 199 133 199 129 199 134 200 75 200 74 200 134 201 74 201 135 201 135 202 74 202 136 202 136 203 74 203 73 203 136 204 73 204 137 204 137 205 73 205 72 205 137 206 72 206 138 206 138 207 72 207 71 207 138 208 71 208 139 208 139 209 71 209 78 209 139 210 78 210 140 210 140 211 78 211 77 211 140 212 77 212 141 212 141 213 77 213 76 213 141 214 76 214 142 214 142 215 76 215 143 215 143 216 76 216 75 216 143 217 75 217 134 217 144 218 83 218 82 218 144 219 82 219 145 219 145 220 82 220 146 220 146 221 82 221 81 221 146 222 81 222 147 222 147 223 81 223 80 223 147 224 80 224 148 224 148 225 80 225 79 225 148 226 79 226 149 226 149 227 79 227 86 227 149 228 86 228 150 228 150 229 86 229 85 229 150 230 85 230 151 230 151 231 85 231 84 231 151 232 84 232 152 232 152 233 84 233 153 233 153 234 84 234 83 234 153 235 83 235 144 235 154 236 90 236 89 236 154 237 89 237 155 237 155 238 89 238 88 238 155 239 88 239 156 239 156 240 88 240 87 240 156 241 87 241 157 241 157 242 87 242 94 242 157 243 94 243 158 243 158 244 94 244 93 244 158 245 93 245 159 245 159 246 93 246 92 246 159 247 92 247 160 247 160 248 92 248 91 248 160 249 91 249 161 249 161 250 91 250 90 250 161 251 90 251 162 251 162 252 90 252 154 252 100 253 163 253 101 253 101 254 163 254 164 254 101 255 164 255 102 255 102 256 164 256 165 256 102 257 165 257 95 257 95 258 165 258 166 258 95 259 166 259 96 259 96 260 166 260 167 260 96 261 167 261 97 261 97 262 167 262 168 262 97 263 168 263 169 263 97 264 169 264 98 264 98 265 169 265 170 265 98 266 170 266 99 266 99 267 170 267 171 267 99 268 171 268 100 268 100 269 171 269 163 269 179 270 112 270 172 270 172 271 112 271 111 271 172 272 111 272 110 272 172 273 110 273 173 273 173 274 110 274 109 274 173 275 109 275 174 275 174 276 109 276 106 276 174 277 106 277 105 277 174 278 105 278 104 278 174 279 104 279 175 279 175 280 104 280 103 280 175 281 103 281 120 281 120 282 119 282 176 282 176 283 119 283 117 283 176 284 117 284 177 284 177 285 117 285 118 285 177 286 118 286 178 286 178 287 118 287 115 287 178 288 115 288 114 288 178 289 114 289 179 289 179 290 114 290 113 290 179 291 113 291 112 291 181 292 182 292 180 292 183 293 184 293 180 293 182 294 183 294 180 294 180 295 184 295 185 295 185 296 186 296 180 296 188 297 187 297 180 297 186 298 188 298 180 298 187 299 181 299 180 299 193 300 192 300 189 300 189 301 192 301 191 301 189 0 194 0 193 0 189 302 195 302 194 302 189 303 196 303 195 303 197 304 196 304 189 304 189 305 198 305 197 305 189 306 199 306 198 306 189 307 190 307 199 307 181 308 210 308 202 308 181 309 202 309 182 309 182 310 202 310 203 310 182 311 203 311 184 311 184 312 203 312 204 312 184 313 204 313 205 313 184 314 205 314 185 314 185 315 205 315 206 315 185 316 206 316 186 316 186 317 206 317 207 317 186 318 207 318 208 318 186 319 208 319 209 319 186 320 209 320 187 320 187 321 209 321 181 321 181 322 209 322 210 322 138 323 211 323 137 323 137 324 211 324 212 324 137 325 212 325 136 325 136 326 212 326 213 326 136 327 213 327 135 327 135 328 213 328 134 328 134 329 213 329 214 329 134 330 214 330 143 330 143 331 214 331 215 331 143 332 215 332 142 332 142 333 215 333 216 333 142 334 216 334 141 334 141 335 216 335 140 335 140 336 216 336 217 336 140 337 217 337 139 337 139 338 217 338 138 338 138 339 217 339 211 339 148 340 218 340 147 340 147 341 218 341 219 341 147 342 219 342 146 342 146 343 219 343 220 343 146 344 220 344 221 344 146 345 221 345 145 345 145 346 221 346 144 346 144 347 221 347 222 347 144 348 222 348 153 348 153 349 222 349 223 349 153 350 223 350 152 350 152 351 223 351 151 351 151 352 223 352 224 352 151 353 224 353 150 353 150 354 224 354 225 354 150 355 225 355 149 355 149 356 225 356 226 356 149 357 226 357 148 357 148 358 226 358 218 358 158 359 227 359 228 359 158 360 228 360 157 360 157 361 228 361 229 361 157 362 229 362 156 362 156 363 229 363 155 363 155 364 229 364 230 364 155 365 230 365 154 365 154 366 230 366 231 366 154 367 231 367 162 367 162 368 231 368 232 368 162 369 232 369 161 369 161 370 232 370 233 370 161 371 233 371 160 371 160 372 233 372 234 372 160 373 234 373 159 373 159 374 234 374 227 374 159 375 227 375 158 375 165 376 235 376 236 376 165 377 236 377 166 377 166 378 236 378 237 378 166 379 237 379 167 379 167 380 237 380 168 380 168 381 237 381 238 381 168 382 238 382 169 382 169 383 238 383 239 383 169 384 239 384 240 384 169 385 240 385 170 385 170 386 240 386 171 386 171 387 240 387 241 387 171 388 241 388 242 388 171 389 242 389 163 389 163 390 242 390 243 390 163 391 243 391 164 391 164 392 243 392 235 392 164 393 235 393 165 393 244 394 190 394 245 394 245 395 190 395 189 395 245 396 189 396 246 396 246 397 189 397 247 397 247 398 189 398 191 398 247 399 191 399 248 399 248 400 191 400 192 400 248 401 192 401 249 401 249 402 192 402 193 402 249 403 193 403 250 403 250 404 193 404 251 404 251 405 193 405 194 405 251 406 194 406 252 406 252 407 194 407 253 407 253 408 194 408 195 408 253 409 195 409 254 409 254 410 195 410 196 410 254 411 196 411 255 411 255 412 196 412 256 412 256 413 196 413 197 413 256 414 197 414 257 414 257 415 197 415 198 415 257 416 198 416 258 416 258 417 198 417 199 417 258 418 199 418 259 418 259 419 199 419 190 419 259 420 190 420 244 420 260 421 172 421 261 421 261 422 172 422 173 422 261 423 173 423 201 423 261 424 201 424 262 424 262 425 201 425 174 425 262 426 174 426 263 426 263 427 174 427 175 427 263 428 175 428 264 428 264 429 175 429 120 429 264 430 120 430 176 430 264 431 176 431 265 431 265 432 176 432 177 432 265 433 177 433 200 433 265 434 200 434 266 434 266 435 200 435 178 435 266 436 178 436 267 436 267 437 178 437 179 437 267 438 179 438 268 438 268 439 179 439 260 439 260 440 179 440 172 440 208 441 207 441 269 441 208 442 269 442 270 442 270 443 269 443 271 443 270 444 271 444 209 444 209 445 271 445 272 445 209 446 272 446 210 446 202 447 210 447 203 447 203 448 273 448 274 448 203 449 274 449 204 449 216 450 275 450 276 450 216 451 276 451 217 451 217 452 276 452 277 452 215 453 278 453 275 453 215 454 275 454 216 454 213 455 280 455 214 455 215 456 214 456 278 456 217 457 277 457 211 457 212 458 211 458 279 458 212 459 279 459 213 459 213 460 279 460 280 460 225 461 281 461 226 461 223 462 282 462 224 462 225 463 224 463 281 463 219 464 283 464 220 464 221 465 220 465 284 465 221 466 284 466 222 466 222 467 284 467 223 467 223 468 284 468 282 468 281 469 285 469 226 469 226 470 285 470 218 470 218 471 285 471 219 471 219 472 285 472 283 472 230 473 286 473 231 473 231 474 286 474 287 474 231 475 287 475 232 475 232 476 287 476 288 476 230 477 289 477 286 477 228 478 290 478 229 478 230 479 229 479 289 479 232 480 288 480 233 480 233 481 288 481 234 481 234 482 288 482 291 482 234 483 291 483 227 483 228 484 227 484 290 484 239 485 292 485 240 485 240 486 292 486 241 486 236 487 293 487 237 487 237 488 293 488 238 488 236 489 294 489 293 489 236 490 235 490 294 490 253 491 303 491 295 491 253 492 295 492 296 492 296 493 295 493 297 493 296 494 297 494 252 494 252 495 297 495 298 495 252 496 298 496 251 496 259 497 299 497 258 497 258 498 299 498 300 498 258 499 300 499 257 499 257 500 300 500 301 500 257 501 301 501 256 501 256 502 301 502 255 502 255 503 301 503 302 503 255 504 302 504 254 504 254 505 302 505 303 505 254 506 303 506 253 506 245 507 309 507 304 507 245 508 304 508 244 508 244 509 304 509 305 509 244 510 305 510 259 510 259 511 305 511 299 511 251 512 298 512 306 512 251 513 306 513 250 513 250 514 306 514 249 514 249 515 306 515 307 515 249 516 307 516 248 516 248 517 307 517 308 517 248 518 308 518 247 518 247 519 308 519 246 519 246 520 308 520 309 520 246 521 309 521 245 521 295 522 303 522 277 522 304 523 309 523 312 523 313 524 206 524 277 524 277 525 206 525 205 525 277 526 205 526 204 526 277 527 204 527 273 527 277 528 273 528 282 528 282 529 273 529 203 529 282 530 203 530 210 530 282 531 210 531 314 531 314 532 210 532 272 532 313 533 207 533 206 533 314 534 272 534 313 534 313 535 272 535 269 535 269 536 207 536 313 536 301 537 280 537 302 537 302 538 280 538 279 538 302 539 279 539 303 539 211 540 277 540 303 540 303 541 279 541 211 541 278 542 214 542 316 542 316 543 214 543 280 543 316 544 280 544 317 544 317 545 280 545 301 545 276 546 313 546 277 546 318 547 319 547 285 547 285 548 319 548 283 548 220 549 283 549 308 549 306 550 284 550 220 550 306 551 220 551 307 551 315 552 281 552 224 552 315 553 224 553 314 553 314 554 224 554 282 554 318 555 285 555 281 555 300 556 288 556 301 556 300 557 291 557 288 557 312 558 290 558 227 558 299 559 227 559 300 559 300 560 227 560 291 560 320 561 289 561 229 561 320 562 229 562 290 562 301 563 288 563 317 563 317 564 288 564 321 564 321 565 288 565 287 565 321 566 287 566 286 566 321 567 286 567 289 567 283 568 319 568 308 568 308 569 319 569 243 569 308 570 243 570 242 570 294 571 235 571 322 571 322 572 235 572 243 572 322 573 243 573 319 573 323 574 293 574 294 574 238 575 323 575 312 575 238 576 312 576 239 576 238 577 293 577 323 577 307 578 220 578 308 578 292 579 239 579 312 579 309 580 241 580 292 580 309 581 292 581 312 581 308 582 242 582 241 582 308 583 241 583 309 583 320 584 290 584 312 584 276 585 275 585 313 585 299 586 312 586 227 586 312 587 299 587 304 587 298 588 282 588 306 588 306 589 282 589 284 589 282 590 298 590 277 590 277 591 298 591 295 591 324 592 260 592 325 592 325 593 260 593 261 593 325 594 261 594 326 594 326 595 261 595 311 595 326 596 311 596 327 596 327 597 311 597 262 597 327 598 262 598 328 598 328 599 262 599 263 599 328 600 263 600 329 600 329 601 263 601 264 601 329 602 264 602 330 602 330 603 264 603 265 603 330 604 265 604 331 604 331 605 265 605 310 605 331 606 310 606 266 606 331 607 266 607 332 607 332 608 266 608 267 608 332 609 267 609 333 609 333 610 267 610 268 610 333 611 268 611 324 611 324 612 268 612 260 612 334 613 320 613 335 613 334 614 289 614 320 614 336 615 321 615 337 615 337 616 321 616 338 616 338 617 321 617 289 617 338 618 289 618 334 618 336 619 317 619 321 619 339 620 316 620 340 620 340 621 316 621 336 621 336 622 316 622 317 622 339 623 278 623 316 623 341 624 275 624 339 624 339 625 275 625 278 625 342 626 313 626 275 626 342 627 275 627 341 627 343 628 314 628 313 628 343 629 313 629 344 629 344 630 313 630 342 630 345 631 314 631 343 631 346 632 315 632 345 632 345 633 315 633 314 633 347 634 315 634 346 634 347 635 318 635 281 635 347 636 281 636 315 636 318 637 347 637 348 637 318 638 348 638 319 638 319 639 348 639 349 639 319 640 349 640 350 640 319 641 350 641 322 641 322 642 350 642 351 642 322 643 351 643 352 643 322 644 352 644 294 644 352 645 323 645 294 645 353 646 323 646 352 646 335 647 320 647 312 647 335 648 312 648 354 648 354 649 312 649 355 649 355 650 312 650 353 650 353 651 312 651 323 651 331 652 356 652 357 652 326 653 358 653 359 653 326 654 359 654 325 654 360 655 355 655 361 655 361 656 355 656 353 656 361 657 353 657 362 657 362 658 353 658 352 658 362 659 352 659 363 659 363 660 352 660 351 660 363 661 351 661 350 661 363 662 350 662 364 662 364 663 350 663 349 663 364 664 349 664 365 664 365 665 349 665 348 665 365 666 348 666 347 666 365 667 347 667 366 667 366 668 347 668 346 668 366 669 346 669 367 669 367 670 346 670 345 670 367 671 345 671 368 671 368 672 345 672 343 672 368 673 343 673 369 673 369 674 343 674 344 674 369 675 344 675 342 675 369 676 342 676 370 676 370 677 342 677 341 677 370 678 341 678 371 678 371 679 341 679 339 679 371 680 339 680 372 680 372 681 339 681 340 681 372 682 340 682 373 682 373 683 340 683 336 683 373 684 336 684 374 684 374 685 336 685 375 685 375 686 336 686 337 686 375 687 337 687 376 687 376 688 337 688 338 688 376 689 338 689 334 689 376 690 334 690 377 690 377 691 334 691 335 691 377 692 335 692 378 692 378 693 335 693 354 693 378 694 354 694 360 694 360 695 354 695 355 695 329 696 379 696 328 696 328 697 379 697 380 697 328 698 380 698 327 698 327 699 380 699 381 699 327 700 381 700 359 700 359 701 381 701 382 701 359 702 382 702 325 702 325 703 382 703 383 703 325 704 383 704 324 704 324 705 383 705 384 705 324 706 384 706 333 706 333 707 384 707 385 707 333 708 385 708 332 708 332 709 385 709 357 709 357 710 385 710 386 710 357 711 386 711 331 711 331 712 386 712 387 712 331 713 387 713 330 713 330 714 387 714 388 714 330 715 388 715 329 715 329 716 388 716 379 716 371 717 399 717 389 717 371 718 389 718 370 718 370 719 389 719 369 719 369 720 389 720 390 720 361 721 391 721 392 721 361 722 392 722 360 722 360 723 392 723 378 723 378 724 392 724 393 724 369 725 390 725 394 725 369 726 394 726 368 726 368 727 394 727 395 727 368 728 395 728 367 728 378 729 393 729 396 729 378 730 396 730 377 730 377 731 396 731 397 731 377 732 397 732 376 732 374 733 398 733 373 733 373 734 398 734 372 734 372 735 398 735 399 735 372 736 399 736 371 736 363 737 400 737 401 737 363 738 401 738 362 738 362 739 401 739 391 739 362 740 391 740 361 740 367 741 395 741 402 741 367 742 402 742 366 742 366 743 402 743 403 743 366 744 403 744 365 744 365 745 403 745 404 745 397 746 405 746 376 746 376 747 405 747 375 747 375 748 405 748 406 748 375 749 406 749 374 749 374 750 406 750 398 750 365 751 404 751 407 751 365 752 407 752 364 752 364 753 407 753 363 753 363 754 407 754 400 754 380 755 408 755 381 755 385 756 409 756 410 756 410 757 409 757 411 757 410 758 411 758 386 758 386 759 411 759 387 759 412 760 392 760 413 760 413 761 392 761 391 761 413 762 391 762 414 762 414 763 391 763 401 763 414 764 401 764 415 764 415 765 401 765 416 765 416 766 401 766 400 766 416 767 400 767 417 767 417 768 400 768 407 768 417 769 407 769 418 769 418 770 407 770 419 770 419 771 407 771 404 771 419 772 404 772 420 772 420 773 404 773 403 773 420 774 403 774 421 774 421 775 403 775 422 775 422 776 403 776 402 776 422 777 402 777 395 777 422 778 395 778 423 778 423 779 395 779 424 779 424 780 395 780 394 780 424 781 394 781 425 781 424 782 425 782 426 782 426 783 425 783 390 783 426 784 390 784 427 784 427 785 390 785 389 785 427 786 389 786 428 786 428 787 389 787 399 787 428 788 399 788 429 788 429 789 399 789 430 789 430 790 399 790 398 790 430 791 398 791 431 791 431 792 398 792 432 792 432 793 398 793 406 793 432 794 406 794 433 794 433 795 406 795 434 795 434 796 406 796 405 796 434 797 405 797 435 797 435 798 405 798 397 798 435 799 397 799 436 799 436 800 397 800 396 800 436 801 396 801 437 801 437 802 396 802 393 802 437 803 393 803 412 803 412 804 393 804 392 804 438 805 439 805 440 805 440 806 439 806 441 806 439 807 438 807 442 807 444 808 383 808 382 808 409 809 440 809 441 809 409 810 441 810 387 810 441 811 388 811 387 811 380 812 443 812 408 812 444 813 382 813 408 813 444 814 408 814 443 814 380 815 379 815 443 815 409 816 385 816 440 816 443 817 379 817 441 817 441 818 379 818 388 818 440 819 385 819 384 819 440 820 384 820 383 820 440 821 383 821 444 821 443 822 446 822 444 822 444 823 446 823 445 823 445 824 446 824 447 824 424 825 446 825 423 825 423 826 446 826 443 826 448 827 449 827 441 827 446 828 424 828 450 828 450 829 424 829 427 829 450 830 427 830 447 830 447 831 427 831 445 831 445 832 427 832 428 832 451 833 438 833 452 833 452 834 438 834 440 834 452 835 440 835 444 835 451 836 453 836 438 836 453 837 442 837 454 837 453 838 454 838 438 838 448 839 439 839 453 839 453 840 439 840 442 840 441 841 439 841 448 841 445 842 428 842 444 842 444 843 428 843 452 843 452 844 428 844 429 844 452 845 429 845 455 845 455 846 429 846 430 846 455 847 430 847 456 847 456 848 430 848 431 848 456 849 431 849 457 849 457 850 431 850 432 850 457 851 432 851 458 851 458 852 432 852 433 852 458 853 433 853 459 853 459 854 433 854 434 854 459 855 434 855 460 855 460 856 434 856 435 856 460 857 435 857 461 857 461 858 435 858 436 858 461 859 436 859 462 859 462 860 436 860 463 860 463 861 436 861 437 861 463 862 437 862 464 862 464 863 437 863 412 863 464 864 412 864 465 864 465 865 412 865 413 865 465 866 413 866 466 866 466 867 413 867 414 867 466 868 414 868 467 868 467 869 414 869 415 869 467 870 415 870 416 870 467 871 416 871 468 871 468 872 416 872 417 872 468 873 417 873 469 873 469 874 417 874 418 874 469 875 418 875 470 875 470 876 418 876 419 876 470 877 419 877 471 877 471 878 419 878 420 878 471 879 420 879 472 879 472 880 420 880 421 880 472 881 421 881 473 881 473 882 421 882 422 882 473 883 422 883 474 883 474 884 422 884 423 884 474 885 423 885 449 885 449 886 423 886 443 886 449 887 443 887 441 887 475 888 458 888 459 888 475 889 459 889 476 889 476 889 459 889 477 889 477 889 459 889 460 889 477 890 460 890 478 890 478 889 460 889 479 889 479 889 460 889 480 889 480 889 460 889 461 889 480 889 461 889 481 889 481 891 461 891 482 891 482 889 461 889 462 889 482 892 462 892 483 892 483 893 462 893 484 893 484 894 462 894 463 894 484 895 463 895 485 895 485 896 463 896 486 896 486 897 463 897 487 897 487 898 463 898 464 898 487 899 464 899 488 899 488 900 464 900 489 900 489 889 464 889 465 889 489 901 465 901 490 901 490 902 465 902 491 902 491 889 465 889 466 889 491 903 466 903 492 903 492 889 466 889 493 889 493 904 466 904 494 904 494 889 466 889 467 889 494 889 467 889 495 889 495 905 467 905 496 905 496 889 467 889 497 889 497 889 467 889 468 889 497 906 468 906 498 906 498 889 468 889 499 889 499 889 468 889 469 889 499 907 469 907 500 907 500 908 469 908 501 908 501 889 469 889 502 889 502 889 469 889 470 889 502 889 470 889 503 889 503 909 470 909 504 909 504 910 470 910 471 910 504 911 471 911 505 911 505 889 471 889 506 889 506 912 471 912 472 912 506 889 472 889 507 889 507 913 472 913 508 913 508 889 472 889 473 889 508 889 473 889 509 889 509 889 473 889 510 889 510 889 473 889 474 889 510 914 474 914 511 914 511 889 474 889 512 889 512 915 474 915 513 915 513 916 474 916 449 916 513 917 449 917 514 917 514 918 449 918 515 918 515 919 449 919 448 919 515 920 448 920 516 920 516 921 448 921 517 921 517 922 448 922 453 922 517 923 453 923 518 923 518 924 453 924 519 924 519 925 453 925 520 925 520 926 453 926 451 926 520 927 451 927 521 927 521 928 451 928 522 928 522 929 451 929 452 929 522 930 452 930 523 930 523 931 452 931 524 931 524 932 452 932 455 932 524 933 455 933 525 933 525 889 455 889 526 889 526 889 455 889 527 889 527 889 455 889 456 889 527 934 456 934 528 934 528 889 456 889 529 889 529 889 456 889 457 889 529 935 457 935 530 935 530 889 457 889 531 889 531 936 457 936 458 936 531 937 458 937 475 937</p>
        </triangles>
      </mesh>
    </geometry>
  </library_geometries>
  <library_visual_scenes>
    <visual_scene id="Scene" name="Scene">
      <node id="eSeries_UR10e_042" name="eSeries_UR10e_042" type="NODE">
        <matrix sid="transform">1 0 0 0 0 1 0 0 0 0 1 0 0 0 0 1</matrix>
        <instance_geometry url="#eSeries_UR10e_042-mesh" name="eSeries_UR10e_042">
          <bind_material>
            <technique_common>
              <instance_material symbol="LinkGrey_008-material" target="#LinkGrey_008-material"/>
            </technique_common>
          </bind_material>
        </instance_geometry>
      </node>
    </visual_scene>
  </library_visual_scenes>
  <scene>
    <instance_visual_scene url="#Scene"/>
  </scene>
</COLLADA>