<?xml version="1.0" encoding="utf-8"?>
<COLLADA xmlns="http://www.collada.org/2005/11/COLLADASchema" version="1.4.1" xmlns:xsi="http://www.w3.org/2001/XMLSchema-instance">
  <asset>
    <contributor>
      <author>Blender User</author>
      <authoring_tool>Blender 2.82.7</authoring_tool>
    </contributor>
    <created>2023-09-20T11:53:05</created>
    <modified>2023-09-20T11:53:05</modified>
    <unit name="meter" meter="1"/>
    <up_axis>Z_UP</up_axis>
  </asset>
  <library_cameras>
    <camera id="Camera-camera" name="Camera.004">
      <optics>
        <technique_common>
          <perspective>
            <xfov sid="xfov">49.13434</xfov>
            <aspect_ratio>1.777778</aspect_ratio>
            <znear sid="znear">0.1</znear>
            <zfar sid="zfar">100</zfar>
          </perspective>
        </technique_common>
      </optics>
      <extra>
        <technique profile="blender">
          <shiftx sid="shiftx" type="float">0</shiftx>
          <shifty sid="shifty" type="float">0</shifty>
          <dof_distance sid="dof_distance" type="float">10</dof_distance>
        </technique>
      </extra>
    </camera>
  </library_cameras>
  <library_lights>
    <light id="Lamp-light" name="Lamp.002">
      <technique_common>
        <point>
          <color sid="color">1 1 1</color>
          <constant_attenuation>1</constant_attenuation>
          <linear_attenuation>0</linear_attenuation>
          <quadratic_attenuation>0.00111109</quadratic_attenuation>
        </point>
      </technique_common>
      <extra>
        <technique profile="blender">
          <type sid="type" type="int">0</type>
          <flag sid="flag" type="int">0</flag>
          <mode sid="mode" type="int">8192</mode>
          <gamma sid="blender_gamma" type="float">1</gamma>
          <red sid="red" type="float">1</red>
          <green sid="green" type="float">1</green>
          <blue sid="blue" type="float">1</blue>
          <shadow_r sid="blender_shadow_r" type="float">0</shadow_r>
          <shadow_g sid="blender_shadow_g" type="float">0</shadow_g>
          <shadow_b sid="blender_shadow_b" type="float">0</shadow_b>
          <energy sid="blender_energy" type="float">1</energy>
          <dist sid="blender_dist" type="float">29.99998</dist>
          <spotsize sid="spotsize" type="float">75</spotsize>
          <spotblend sid="spotblend" type="float">0.15</spotblend>
          <att1 sid="att1" type="float">0</att1>
          <att2 sid="att2" type="float">1</att2>
          <falloff_type sid="falloff_type" type="int">2</falloff_type>
          <clipsta sid="clipsta" type="float">1.000799</clipsta>
          <clipend sid="clipend" type="float">30.002</clipend>
          <bias sid="bias" type="float">1</bias>
          <soft sid="soft" type="float">3</soft>
          <bufsize sid="bufsize" type="int">2880</bufsize>
          <samp sid="samp" type="int">3</samp>
          <buffers sid="buffers" type="int">1</buffers>
          <area_shape sid="area_shape" type="int">1</area_shape>
          <area_size sid="area_size" type="float">0.1</area_size>
          <area_sizey sid="area_sizey" type="float">0.1</area_sizey>
          <area_sizez sid="area_sizez" type="float">1</area_sizez>
        </technique>
      </extra>
    </light>
  </library_lights>
  <library_effects>
    <effect id="link_06_part_000_mtl-effect">
      <profile_COMMON>
        <technique sid="common">
          <lambert>
            <emission>
              <color sid="emission">0 0 0 1</color>
            </emission>
            <diffuse>
              <color sid="diffuse">0.6 0.6 0.6 1</color>
            </diffuse>
            <index_of_refraction>
              <float sid="ior">1</float>
            </index_of_refraction>
          </lambert>
        </technique>
      </profile_COMMON>
    </effect>
  </library_effects>
  <library_images/>
  <library_materials>
    <material id="link_06_part_000_mtl-material" name="link_06_part_000_mtl">
      <instance_effect url="#link_06_part_000_mtl-effect"/>
    </material>
  </library_materials>
  <library_geometries>
    <geometry id="Link_6_002-mesh" name="Link 6.002">
      <mesh>
        <source id="Link_6_002-mesh-positions">
          <float_array id="Link_6_002-mesh-positions-array" count="1617">-0.009970545 0.003959476 0.06586271 -0.009970545 -0.005245923 0.06312972 -0.009970545 0.004858136 0.06021004 -0.009970545 -0.001510322 0.06760019 2.94183e-5 -0.005108058 0.06388592 -0.009970545 1.40463e-4 0.05733782 -0.009970545 -0.003700554 0.05901008 2.94187e-5 -0.002484858 0.05805844 2.93914e-5 -7.09967e-4 0.06770002 -0.01509368 0.003847479 0.07091593 -0.01509302 0.0143004 0.06963473 -0.03510248 0.006685554 0.07079672 -0.01508647 -0.004682838 0.07090258 -0.03510242 -0.005768775 0.07082545 -0.01508426 -0.07109022 -0.001291334 -0.03510242 -0.0709576 0.004820227 -0.03510272 -0.07064402 -0.00753808 -0.01511687 -0.06947714 -0.01518857 -0.01509374 -0.01377052 0.0696724 -0.03510242 -0.01427054 0.06957948 -0.0351026 -0.06787127 -0.0213623 -0.01512026 -0.02373313 0.06704425 -0.03510248 -0.02270144 0.06733304 -0.01511543 -0.06563633 -0.02725929 -0.03510254 -0.03109824 0.06384944 -0.03510266 -0.06225281 -0.03423959 -0.01506251 -0.03527176 0.06166905 -0.01506203 -0.06084752 -0.03667026 -0.03510248 -0.03897857 0.05942988 -0.03510254 -0.05747967 -0.04171258 -0.01508742 -0.04366755 0.05605345 -0.01506984 -0.05461764 -0.0454365 -0.03510254 -0.04780352 0.05257183 -0.0351026 -0.05146902 -0.04899531 -0.01509976 -0.05175203 0.04870671 -0.01508527 -0.04765111 -0.0527113 -0.03510254 -0.05620777 0.04353433 -0.0351026 -0.04347175 -0.05620658 -0.0150941 -0.05952531 0.03890192 -0.01509863 -0.03902548 -0.05938994 -0.0351026 -0.03461122 -0.06205672 -0.03510242 -0.06161153 0.03534078 -0.01508575 -0.02999609 -0.06441545 -0.01509177 -0.06607067 0.02628636 -0.03510242 -0.06637758 0.02552098 -0.0351026 -0.02497601 -0.066522 -0.01510381 -0.01970124 -0.06828325 -0.03510266 -0.01519829 -0.06939679 -0.01509922 -0.06996256 0.012712 -0.03510242 -0.06929129 0.01560962 -0.01509362 -0.01089113 -0.07018011 -0.03510254 -0.006758451 -0.07069784 -0.0150606 -0.002214968 -0.07100921 -0.03510272 0.002247512 -0.07100981 -0.01509362 0.006762981 -0.07069742 -0.03510254 0.01089555 -0.0701794 -0.01506829 0.01550364 -0.06933361 -0.0351026 0.02011811 -0.0681532 -0.015087 0.02516502 -0.06645184 -0.0351026 0.03018146 -0.06432771 -0.0150972 0.03503459 -0.06182777 -0.0351026 0.03943318 -0.0591101 -0.01508748 0.04363077 -0.05608457 -0.0351026 0.04780352 -0.05257183 -0.01510232 0.05176651 -0.04869216 -0.03510266 0.05482089 -0.04518377 -0.01509362 0.05748236 -0.04170888 -0.03510242 0.06107002 -0.03635239 -0.0150696 0.06323826 -0.0324772 -0.03510254 0.06655138 -0.02501451 -0.01509213 0.06836372 -0.01956284 -0.03510254 0.07016539 -0.01150768 -0.01512056 0.07086229 -0.00587064 -0.03510254 0.07100516 -0.001458108 -0.01509368 0.07084393 0.004999876 -0.03510254 0.07062667 0.007813155 -0.01508706 0.0697813 0.0134142 -0.03510242 0.06920212 0.01600044 -0.01508384 0.06643807 0.02532541 -0.03510248 0.0660507 0.02634716 -0.01509481 0.06087416 0.03666234 -0.03510242 0.05947941 0.03899109 -0.01505833 0.05473577 0.04528385 -0.03510248 0.05175828 0.04870647 -0.01509344 0.04741412 0.05293077 -0.03510254 0.04360044 0.05610316 -0.01508861 0.0391252 0.05931788 -0.03510242 0.03686487 0.0607118 -0.01505523 0.02783972 0.06543725 -0.03510254 0.02901726 0.06486016 -0.03510242 0.01862627 0.06858217 -0.006470561 -0.01940953 -0.03504395 3.08383e-5 -0.01683652 -0.03643673 -0.006470561 -0.01119971 -0.03850108 -0.006470561 -0.03916919 -0.008109807 2.94188e-5 -0.03918737 -0.008134424 -0.006470561 -0.03696566 -0.01573878 2.94189e-5 -0.0376712 -0.01334816 2.94189e-5 -0.005775332 -0.03964161 -0.006470561 -0.001407742 -0.04007214 3.16274e-5 -0.032857 -0.02309954 3.25487e-5 0.003996968 -0.03991127 -0.006470561 -0.03210264 -0.02380579 -0.006470561 0.007781624 -0.03930801 -0.006470561 -0.02672088 -0.02989578 2.94189e-5 0.01246571 -0.03803145 2.80493e-5 -0.02588629 -0.03058618 -0.006470561 0.01256114 -0.03797656 -0.006470561 0.04014599 -9.95643e-4 2.89901e-5 0.03911888 0.008697211 -0.006470561 0.03857374 0.01111018 2.94189e-5 0.04011404 -9.94816e-4 -0.006470561 0.02660799 -0.02986645 2.94189e-5 0.02664929 -0.02987891 -0.006470561 0.03131788 -0.02478456 2.92367e-5 0.03277605 -0.023171 2.94189e-5 0.03590786 0.01794427 -0.006470561 0.03650099 -0.01670473 -0.006470561 0.03362208 0.02193003 3.15252e-5 0.03837162 -0.01156723 2.94189e-5 0.03135639 0.02481502 -0.006470561 0.03899616 -0.008849561 -0.006470561 0.02660799 0.02986645 2.94189e-5 0.02671867 0.029814 -0.0133664 -0.03022295 -0.06316256 -0.01340281 -0.03948962 -0.05792737 -0.01341271 -0.06992048 -0.00546813 -0.01335197 -0.06970012 0.007080852 -0.01336532 -0.04747438 -0.05146914 -0.01337599 -0.06735765 0.01944059 -0.01339173 -0.05474501 -0.04378575 -0.01337629 -0.06218481 0.03237396 -0.01335954 -0.06227046 -0.03219151 -0.0133714 -0.05671983 0.04105782 -0.01336491 -0.06733828 -0.0194965 -0.01340299 -0.05009645 0.04904401 -0.01337158 -0.04212987 0.05592864 -0.01340222 -0.03345692 0.06160819 -0.01336836 -0.02065646 0.06699419 -0.01333242 -0.006855189 0.06976807 -0.01339048 0.004979968 0.06989407 -0.01334547 0.01548939 0.06831645 -0.01338917 0.02543038 0.06529724 -0.01333367 0.03696823 0.05956614 -0.01340472 0.04785686 0.0512312 -0.01336961 0.05472278 0.04368561 -0.01339215 0.06062656 0.03519594 -0.0133633 0.06636458 0.02259534 -0.01336812 0.06893837 0.01226711 -0.01330018 0.06975799 0.006039857 -0.01338088 0.07001477 0.001268208 -0.01334679 0.06969261 -0.007082343 -0.01337438 0.06744432 -0.01914322 -0.01337379 0.06232827 -0.03209966 -0.01337015 0.05685651 -0.04087007 -0.0134049 0.05003237 -0.04910916 -0.0133695 0.042315 -0.05578947 -0.01340472 0.03337681 -0.061652 -0.01337116 0.02041745 -0.06706452 -0.01337355 0.006895422 -0.06976729 -0.01336646 -0.007244527 -0.06972926 -0.01340353 -0.02070379 -0.0669803 -9.68466e-4 -0.01506823 0.06838065 -8.35347e-4 -0.004444122 0.06993252 -0.001015305 -0.02489358 0.06555354 -9.65175e-4 -0.0683608 -0.01515167 -8.59284e-4 -0.06982678 -0.005460858 -0.001050233 -0.06579101 -0.02418655 -8.7033e-4 -0.03723484 0.05937671 -1.06114e-4 -0.06098943 -0.03438329 -0.00109589 -0.04779618 0.05128425 -0.001085281 -0.05628639 -0.04174274 8.37131e-6 -0.05505633 0.04314649 -9.8335e-4 -0.04815387 -0.05095434 -9.66448e-4 -0.05919617 0.03739857 -3.60154e-5 -0.06258404 0.03138607 -9.66315e-4 -0.04014688 -0.05736833 -0.001076698 -0.06673902 0.02145105 -8.08877e-4 -0.03117239 -0.06275987 -9.36264e-4 -0.06965404 0.008032262 -9.67145e-4 -0.02160537 -0.06660431 -0.001009464 -0.01136463 -0.06918621 -8.88494e-4 0.002525031 -0.07005017 -9.62815e-4 0.01620602 -0.06820803 -9.69095e-4 0.02591508 -0.06504917 -6.70042e-6 0.03055429 -0.06284433 -9.93059e-4 0.04121941 -0.05671781 -9.16284e-4 0.05152106 -0.04752731 -9.47442e-4 0.05869728 -0.03822845 -0.001048147 0.06451064 -0.02748513 -0.001093089 0.06851512 -0.0148552 -2.60816e-5 0.06989848 -0.004186213 -9.70567e-4 0.06998616 0.001383841 -8.69907e-4 0.06858289 0.01441615 -9.70581e-4 0.0697481 0.005933344 -0.001048386 0.06475174 0.02684265 -2.23097e-4 0.05959171 0.03675824 -0.001084804 0.05458295 0.04394239 -0.001032233 0.04652696 0.05243468 -3.93087e-5 0.03861445 0.05841779 -0.001062929 0.02826577 0.06414061 -9.70114e-4 0.01916986 0.06734621 -0.001051902 0.009028255 0.06954944 2.94189e-5 0.05779433 -0.03470844 2.94189e-5 0.06133288 -0.03239691 2.94181e-5 0.05921489 -0.03189241 2.94125e-5 0.03283208 -0.05893069 2.94189e-5 0.03510081 -0.05741178 2.98592e-5 0.05460768 -0.04302775 2.94189e-5 0.06284505 0.005149543 3.54413e-5 0.06897497 0.005455315 2.94189e-5 0.06773674 0.01493376 2.94187e-5 0.004215419 0.06564301 2.35471e-5 0.004862248 0.06069463 2.94189e-5 0.01514762 0.06763958 2.93611e-5 0.05526953 -0.03621625 2.94189e-5 -0.0565288 -0.03574943 2.94189e-5 -0.05301213 -0.04465734 2.93948e-5 -0.05319583 -0.03623634 2.94116e-5 0.03629231 -0.05474174 2.94189e-5 0.05136948 -0.0355978 2.94189e-5 -0.04905027 0.0313766 -3.44787e-6 -0.03088301 0.02609354 2.94189e-5 -0.04974669 0.03367006 2.94189e-5 -0.03384095 0.04988759 2.94189e-5 -0.03112578 0.04901331 2.94189e-5 0.04330325 -0.0542342 2.94189e-5 0.03529238 -0.05084782 2.94182e-5 0.03539621 0.05116438 2.94109e-5 0.03629601 0.05398809 2.94189e-5 -0.02196133 0.03404748 2.94189e-5 -0.04909235 -0.03049117 2.94189e-5 -0.05094993 -0.02719861 2.94189e-5 0.02099823 0.03760504 2.94188e-5 0.02423369 0.03504282 2.94189e-5 0.02884733 0.04962742 2.9434e-5 0.03247034 0.04915541 3.05894e-5 0.05881869 -0.003592729 2.94431e-5 -0.03511786 0.06000864 2.94189e-5 -0.03634399 0.05459409 2.94189e-5 -0.03474974 0.05783689 2.98052e-5 -0.05005764 -0.03436172 2.94184e-5 -0.03104573 0.0592848 2.94189e-5 -0.0591672 0.03171306 2.94189e-5 -0.05732941 0.03540694 2.94189e-5 -0.005184888 -0.06254279 2.94236e-5 -0.00709933 -0.06911522 2.94189e-5 -0.002597391 -0.06708604 2.94189e-5 0.002798795 -0.05808675 2.94189e-5 0.01584887 -0.03862428 2.94189e-5 -0.05246609 0.0361551 2.94189e-5 -0.04979246 0.02864724 2.94189e-5 -0.04603439 0.05182081 2.94189e-5 -0.0692178 -0.004492282 2.94189e-5 -0.06799232 -0.01391232 2.94188e-5 -0.0628643 -0.005192399 2.94189e-5 0.05313587 0.04444509 2.94189e-5 -0.02778404 0.05039107 2.94006e-5 0.06637394 0.003291785 2.94189e-5 -0.0585739 0.02878123 -4.29655e-5 -0.03624343 0.01758795 2.94189e-5 -0.03554773 0.05145233 2.94189e-5 -0.04515081 -0.05265629 2.94189e-5 -0.03563672 -0.05149525 2.94189e-5 0.05104953 0.03515201 2.94189e-5 -0.01904082 0.066738 2.94308e-5 -0.03274559 -0.04918706 2.94154e-5 -0.02778136 0.05782133 5.92862e-5 0.0686708 0.002333223 2.94189e-5 0.04948592 0.03304779 2.94189e-5 -0.06629234 0.02024573 2.94189e-5 -0.01486968 0.03768843 2.94189e-5 -0.05235648 0.02640515 2.94189e-5 -0.05618017 0.0265963 2.94185e-5 0.05370342 0.03628897 2.94189e-5 -0.02655303 0.05237686 2.94189e-5 -0.02637547 0.05497801 2.94189e-5 0.06765788 -3.86533e-4 2.94189e-5 0.04912108 0.03019511 2.94189e-5 -0.03627896 -0.05479866 2.8358e-5 -0.06107497 0.004997432 2.94189e-5 -0.004328727 0.06000071 4.2206e-6 -0.003955543 0.04011994 2.94189e-5 -0.05818146 0.002687692 2.94635e-5 -0.03191596 -0.06193143 2.94186e-5 -0.02889198 -0.04961156 2.94189e-5 0.05709707 0.0354548 2.9419e-5 -0.04167586 0.005315124 -0.001235187 -0.03921848 0.008269906 2.94189e-5 -0.03510081 -0.05741178 2.94189e-5 0.05167514 0.02665835 2.97958e-5 -0.02640527 -0.0524587 2.94188e-5 -0.04319858 -0.001217961 2.94288e-5 0.003249883 -0.06940269 2.94138e-5 0.001581907 -0.06730413 2.94189e-5 -0.03258764 -0.05903416 2.94189e-5 0.0592845 0.03163653 2.94189e-5 -0.05744063 -2.52547e-4 2.94154e-5 0.004103362 -0.06553632 2.94189e-5 -0.06898838 0.006720602 2.94189e-5 -0.06748443 0.00135827 2.94189e-5 -0.06487101 0.004532814 2.94176e-5 0.06592267 -0.00374031 2.94713e-5 -0.002300381 0.06963318 2.94188e-5 0.001264035 0.05749267 2.94189e-5 0.06262779 -0.005152285 2.94189e-5 -0.05834114 -0.00288552 2.94189e-5 0.04917901 -0.0296331 2.94189e-5 0.05167502 -0.02683383 -1.37179e-5 0.006256103 0.03984802 2.94189e-5 -0.04091835 -0.006222128 2.94189e-5 0.02686327 -0.05149525 2.94189e-5 0.0298236 -0.049214 2.94189e-5 0.02075952 -0.03788703 2.94189e-5 0.06373918 0.02723747 2.94189e-5 -0.06381291 -0.02706426 2.94189e-5 -0.0591259 -0.03002065 2.94189e-5 -0.05672025 -0.0268408 2.94175e-5 -0.02966785 -0.05893069 2.94188e-5 0.05799502 0.02795666 2.94189e-5 0.01212155 -0.06833434 2.94189e-5 0.005052864 -0.06262606 2.94182e-5 -0.02690106 -0.05685615 2.94189e-5 0.02734839 0.05751281 2.94189e-5 0.02823889 0.06330186 2.94178e-5 0.03145402 0.05928069 2.94189e-5 0.05549311 0.02638483 2.89377e-5 0.05514603 -0.02621734 2.94189e-5 -0.01870203 -0.06683373 2.94189e-5 0.02632027 0.05423659 2.94189e-5 0.0262593 -0.05425107 2.94189e-5 0.02480822 -0.03429174 2.94189e-5 -0.05378472 -0.02625763 2.94189e-5 -0.002617716 -0.05790448 2.94189e-5 -0.06678754 -0.00281918 2.94189e-5 -0.05866926 -0.03348302 3.08626e-5 0.05903804 0.003725528 2.94185e-5 0.03238791 -0.04926598 2.94189e-5 0.04950439 -0.03308981 -0.001115918 0.01243597 0.03810411 2.94162e-5 0.01629889 0.03875583 2.94189e-5 0.05738002 3.41345e-4 2.94189e-5 0.03532803 0.05726879 2.94189e-5 0.02687776 -0.05683344 2.94187e-5 0.02685922 0.05164229 2.94189e-5 0.06602376 -0.02126359 2.94189e-5 0.05824327 -0.02823871 2.93849e-5 0.02992588 -0.05907207 -0.001000225 -0.01966089 0.0349366 -0.001075148 -0.0264734 0.03002917 -0.006174802 -0.02117294 0.03406536 -0.006221592 -2.63382e-4 0.04001021 -0.006107151 -0.03318196 0.02242267 -9.84773e-4 -0.01147979 0.03837609 -0.006198167 -0.01305258 0.03786063 -0.006470561 0.01096469 -0.01437467 -0.006470561 0.02462536 -0.03502368 -0.006470561 0.0166881 0.007282674 -0.006470561 0.01565897 0.03867948 -0.006470561 0.02331417 0.03646796 -0.006470561 0.01704603 -0.0388506 -0.006470561 -0.01472324 0.0108664 -0.006470561 -0.004764795 0.0175684 -0.006470561 -0.01027852 -0.01507586 -0.006470561 -0.003558158 -0.01788455 -0.006470561 0.005734622 0.01715081 -0.006470561 -0.01780337 -0.003715515 -0.00647062 -0.04085779 0.006417512 -0.006470561 -0.01756435 0.004941821 -0.006470561 -0.0420227 -0.004887998 -0.006470561 -0.04298901 0.00198841 -0.006470561 0.01833176 -4.57153e-4 -0.006470561 -0.01504194 -0.01039397 -0.006470561 0.01299512 0.01283323 -0.006470561 0.00317645 -0.01801973 -0.006470561 -0.01115614 0.01453953 -0.006470561 0.01673549 -0.007551372 -0.007970571 0.003227055 -0.01741999 -0.007971048 0.01157075 -0.01341831 -0.007972121 0.01647365 0.006153225 -0.007971107 0.0171889 -0.003355979 -0.00797075 0.009297549 0.0146107 -0.007970631 -0.001033484 0.01764822 -0.007972717 -0.006929993 0.01609683 -0.007970571 -0.01439231 0.009493112 -0.007970571 -0.01722955 -0.001287877 -0.007970631 -0.01186525 -0.0125283 -0.01297056 0.06819379 0.003573775 -0.03510272 -0.01887315 0.04649287 -0.03510254 -0.03212934 -0.03829026 -0.03510206 -0.02349644 -0.04425972 -0.03510224 0.04220235 0.02691316 -0.03510218 0.03476345 0.03612363 -0.03510236 -0.04560345 0.02056807 -0.0351026 -0.04137146 0.02816694 -0.0351023 -0.03785294 -0.03275984 -0.03510224 -0.03001105 0.0400601 -0.03510254 -0.03619462 0.03443366 -0.03510254 -0.04328781 -0.02499216 -0.03510254 0.02538782 0.04311686 -0.03510224 0.03917688 -0.03120404 -0.03510212 0.0297054 -0.040313 -0.03510266 -0.04656451 -0.01836395 -0.03510278 0.01617527 0.04745697 -0.0351029 -0.04959672 -0.007053136 -0.03510254 0.04447972 -0.0228033 -0.03510254 0.02029669 -0.04573857 -0.03510254 0.004585444 0.0498709 -0.03510242 0.04742729 -0.01593464 -0.03510284 0.0123803 -0.04855126 -0.03510242 0.04956048 -0.006886541 -0.03510254 0.003390669 -0.04991567 -0.03510242 0.04999691 0.001602292 -0.03510254 -0.04984468 0.003735184 -0.03510236 -0.005367815 -0.04979062 -0.03510254 -0.006276011 0.0497058 -0.03510254 -0.04872655 0.01145982 -0.03510266 0.04915529 0.009414732 -0.03510254 -0.01396977 -0.04804629 -0.03510236 0.04658311 0.01823908 -0.04510211 -0.003689885 0.04993647 -0.04510259 0.04981338 -0.005046486 -0.04510271 0.006624639 0.04962557 -0.04510247 0.04809463 -0.01379299 -0.04510229 0.04454529 -0.02288353 -0.04510253 0.02372467 0.04402911 -0.04510277 0.03120434 0.03916817 -0.04510313 0.03669887 -0.03414261 -0.04510265 0.03813189 0.03242796 -0.04510277 0.02637124 -0.04257082 -0.04510277 0.04401677 0.02386361 -0.04510217 0.01565086 -0.04759788 -0.04510253 0.04738163 0.01591938 -0.04510241 0.003314435 -0.04998165 -0.04510229 0.0496183 0.006812453 -0.04510253 -0.007868826 -0.04943811 -0.04510283 -0.01704674 -0.04707193 -0.04510289 -0.02709913 -0.04211843 -0.04510241 -0.03615707 -0.03463262 -0.04510253 -0.04285764 -0.02589827 -0.04510277 -0.04735624 -0.01627206 -0.04510241 -0.04992371 -0.004269838 -0.04510265 -0.04930877 0.008875012 -0.04510253 -0.04652917 0.01826131 -0.04510271 -0.04281842 0.02592438 -0.04510307 -0.03592884 0.03493529 -0.04510277 -0.02708202 0.04211026 -0.04510307 -0.0157805 0.04760742 -0.04510277 0.01665586 0.04718428 -0.01597058 0.004866361 -0.06072884 -0.01597058 0.004557669 -0.06478965 -0.01597058 0.001794517 -0.05769264 -0.01597058 0.002000331 -0.06713807 -0.01597058 -0.0015527 -0.06739073 -0.01597058 -0.00472635 -0.06458586 -0.01597058 -0.004697203 -0.06047427 -0.01597058 -0.002389788 -0.05802428 -0.01597058 0.03143429 -0.04893511 -0.01597058 0.03461617 -0.05037397 -0.01597058 0.03631073 -0.05313497 -0.01597058 0.0357148 -0.0565114 -0.01597058 0.03362369 -0.058622 -0.01597058 0.02717018 -0.05717605 -0.01597058 0.02617698 -0.05421161 -0.01597058 0.02733367 -0.05078488 -0.01597058 0.02996438 -0.05901122 -0.01597058 -0.03132808 0.05935537 -0.01597058 -0.02618187 0.05400019 -0.01597058 -0.02732735 0.05083519 -0.01597058 -0.02708429 0.05706965 -0.01597058 -0.03040027 0.04909449 -0.01597058 -0.03348886 0.04957354 -0.01597058 -0.03613692 0.05239355 -0.01597058 -0.03556656 0.05696493 -0.01597058 0.05566996 0.03611141 -0.01597058 0.05826991 0.03417837 -0.01597058 0.05923813 0.03086686 -0.01597058 0.05723464 0.02710503 -0.01597058 0.05193817 0.02650433 -0.01597058 0.0491591 0.03002846 -0.01597058 0.04936909 0.03289073 -0.01597058 0.05134963 0.03562879 -0.01597058 -0.04913395 0.03036957 -0.01597058 -0.05357432 0.03647756 -0.01597058 -0.04966175 0.03377908 -0.01597058 -0.05105221 0.02706831 -0.01597058 -0.0552988 0.02630019 -0.01597058 -0.05795824 0.02792418 -0.01597058 -0.05930292 0.03155118 -0.01597058 -0.05754721 0.03499716 -0.01597058 0.06461822 0.004597306 -0.01597058 0.06727206 -0.002011477 -0.01597058 0.06712692 0.00218141 -0.01597058 0.06374716 -0.004987776 -0.01597058 0.06002408 -0.004459321 -0.01597058 0.0575155 -0.00135827 -0.01597058 0.0580039 0.002351164 -0.01597058 0.06063377 0.004792213 -0.01597058 -0.04907107 -0.03162896 -0.01597058 -0.05258321 -0.02638852 -0.01597058 -0.04981946 -0.02851784 -0.01597058 -0.05078232 -0.03526264 -0.01597058 -0.05553728 -0.03611129 -0.01597058 -0.05795824 -0.03457581 -0.01597058 -0.05921578 -0.03158956 -0.01597058 -0.05848026 -0.02868914 -0.01597058 -0.05630171 -0.02663648 -0.01597058 -0.0581929 0.002732098 -0.01597058 -0.06095659 0.004861414 -0.01597058 -0.05753248 -0.00166887 -0.01597058 -0.06037545 -0.004593491 -0.01597058 -0.06391072 -0.004861295 -0.01597058 -0.06633168 -0.00332576 -0.01597058 -0.06767636 3.01184e-4 -0.01597058 -0.06527692 0.004378795 -0.01597058 -0.02631169 -0.05512493 -0.01597058 -0.02667582 -0.05168473 -0.01597058 -0.02827286 -0.0583384 -0.01597058 -0.03293013 -0.05899298 -0.01597058 -0.03631317 -0.05550599 -0.01597058 -0.03542923 -0.05122709 -0.01597058 -0.03317493 -0.04945677 -0.01597058 -0.03031516 -0.04911953 -0.01597058 0.03104871 0.0592944 -0.01597058 0.03553605 0.05715441 -0.01597058 0.03594452 0.05205488 -0.01597058 0.03325116 0.04948878 -0.01597058 0.02971488 0.04929065 -0.01597058 0.02667737 0.05167126 -0.01597058 0.02635502 0.05541563 -0.01597058 0.02774524 0.05777877 -0.01597058 0.05566996 -0.02638852 -0.01597058 0.05886477 -0.02911186 -0.01597058 0.05859142 -0.03377908 -0.01597058 0.05612653 -0.03588837 -0.01597058 0.0519703 -0.03592497 -0.01597058 0.04968005 -0.03362536 -0.01597058 0.04905295 -0.03018045 -0.01597058 0.05170965 -0.02672344</float_array>
          <technique_common>
            <accessor source="#Link_6_002-mesh-positions-array" count="539" stride="3">
              <param name="X" type="float"/>
              <param name="Y" type="float"/>
              <param name="Z" type="float"/>
            </accessor>
          </technique_common>
        </source>
        <source id="Link_6_002-mesh-normals">
          <float_array id="Link_6_002-mesh-normals-array" count="3003">1 0 0 0.03788 0.7668052 -0.6407612 0.03869706 0.3988865 0.9161835 1 1.92264e-7 0 0.03372794 -0.3025701 -0.9525303 0.01134365 0.1216493 0.9925083 -0.006178319 -0.001567721 0.9999797 -0.003979623 0.002302527 0.9999895 -0.01436495 -0.9995751 -0.02536427 0.01384669 -0.993232 -0.115319 0.003458082 -0.1341493 0.9909552 -9.69643e-4 -0.1450005 0.9894312 -0.01802957 -0.9803135 -0.1966223 0.001885831 -0.2550762 0.9669192 6.7173e-4 -0.2574716 0.9662857 0.01709455 -0.952784 -0.3031677 -0.006436049 -0.383198 0.9236438 -0.0154947 -0.9164484 -0.3998529 0.01069283 -0.4222064 0.9064368 0.007496297 -0.891242 -0.4534661 -0.006974279 -0.4891398 0.8721776 -0.006191074 -0.8427442 -0.5382787 0.009966671 -0.5559493 0.8311566 0.008769392 -0.815091 -0.5792667 -0.01055294 -0.6135845 0.7895585 -0.008138 -0.7712256 -0.6365099 0.01024162 -0.6725108 0.7400165 0.009356677 -0.7222045 -0.6916163 -0.01296478 -0.7322334 0.6809306 -0.0101391 -0.6696327 -0.7426233 0.0139082 -0.7835315 0.6211966 0.01024448 -0.6121762 -0.790655 -0.01033568 -0.550956 -0.8344704 -0.01094651 -0.8347477 0.5505238 0.009165287 -0.4863076 -0.8737397 -0.002903103 -0.8996332 0.436637 0.01058357 -0.8875907 0.4605116 -0.0099684 -0.4204537 -0.9072594 0.01031482 -0.3516651 -0.9360691 -0.01009202 -0.2820631 -0.9593428 0.008662104 -0.9593657 0.2820327 0.004201412 -0.9612637 0.2755988 -0.01105242 -0.988223 0.1526214 0.007039546 -0.2104818 -0.9775725 -0.00589329 -0.1523507 -0.988309 0.01790678 -0.996612 0.08027386 0.006104469 -0.09515368 -0.9954439 -0.007679879 -0.03461939 -0.9993711 0.007762849 0.03473836 -0.9993664 -0.006029129 0.09558391 -0.9954032 0.006255686 0.1541423 -0.988029 -0.008124053 0.214576 -0.9766736 0.009376406 0.2858386 -0.958232 -0.01014256 0.3553116 -0.9346929 0.01023441 0.4242473 -0.9054886 -0.01031899 0.4912016 -0.8709849 0.009186387 0.5554999 -0.8314659 -0.009973227 0.6155522 -0.7880331 0.01031082 0.6724616 -0.7400602 -0.01007783 0.7250257 -0.6886481 0.007068395 0.7738125 -0.6333754 -0.008265972 0.8162778 -0.5776006 0.0105049 0.848512 -0.529072 -0.01324659 0.900226 -0.4352216 0.01630961 0.9293597 -0.3688153 -0.01706933 0.9658778 -0.2584353 0.0163204 0.9836301 -0.1794589 -0.01126343 0.9964635 -0.08326989 0.007518291 0.9999704 0.001670062 -0.005114257 0.9991548 0.04078865 0.006842374 0.9920971 0.1252863 -0.006359577 0.9851783 0.171416 0.007056713 0.9627699 0.2702302 -0.003637909 0.9566064 0.2913605 0.005118191 0.8977012 0.4405751 -0.008179485 0.8872884 0.4611427 0.01071399 0.8145954 0.5799307 -0.01005446 0.7828384 0.6221439 0.01080167 0.7222346 0.6915639 -0.01056927 0.6716614 0.7407829 0.009250283 0.6103463 0.7920808 -0.006293535 0.5646818 0.8252848 0.002002418 0.4673373 0.8840769 0.007390022 0.4766729 0.8790497 -0.007291257 0.3372077 0.9414021 0.01376664 0.2960542 0.9550719 -0.01229488 0.1823385 0.983159 0.04380661 0.3877206 0.9207354 0.003736197 0.9607211 0.2774906 0.001521944 0.9602217 0.2792348 -0.06356972 0.2777242 0.9585553 0.04101532 0.158284 0.9865415 -0.0653451 0.894766 0.4417283 -0.04760807 0.02756774 0.9984857 0.04323852 0.8556195 0.5157963 0.04417854 -0.08278363 0.9955878 0.01500385 0.7492474 0.6621202 -0.03554034 -0.2165771 0.9756184 -0.02159231 0.7316976 0.6812874 0.004195153 -0.2683609 0.9633093 0.0129224 0.5756818 0.8175718 -0.03493845 0.5425929 0.8392689 0.03533095 -0.9910524 -0.1287124 -0.00487858 -0.9947579 -0.1021425 0.00596255 -0.7334282 0.6797408 -0.001772105 -0.7383668 0.6743971 -0.04251629 -0.9438138 -0.3277319 0.05470693 -0.8404417 0.5391335 0.0644564 -0.9074093 -0.4152757 -0.08377605 -0.8975697 0.4328399 -0.04542219 -0.8328145 -0.5516855 0.03496766 -0.9524909 0.302553 0.03272944 -0.748905 -0.6618687 0.006997883 -0.7330809 -0.6801054 -0.03447121 -0.988864 0.1447752 -0.00487256 -0.9866779 0.1626134 0.5238019 -0.4205627 -0.7407826 0.4966521 -0.4226405 -0.7580975 0.5920788 -0.8058012 0.01128202 0.3791804 -0.9223046 0.07467597 0.4577509 -0.543869 -0.7033283 0.5312063 -0.5312929 -0.6599605 0.6011195 -0.7849671 0.1499397 0.526804 -0.6182901 -0.5832625 0.4978841 -0.6258352 -0.600368 0.353411 -0.8992903 0.2576386 0.6176268 -0.7302247 0.2920772 0.4530939 -0.7264631 -0.5166792 0.5926265 -0.6748834 -0.4396889 0.3520569 -0.8307862 0.4311035 0.4043184 -0.8160779 -0.4129692 0.5802193 -0.6894665 0.4335683 0.594754 -0.7467026 -0.2978302 0.3855924 -0.8792456 -0.2797247 0.4459257 -0.7012612 0.5562221 0.5285615 -0.6523869 0.5431521 0.6062275 -0.7825167 -0.1419715 0.3750686 -0.9207137 -0.1077492 0.4540229 -0.5996042 0.6590433 0.5403831 -0.5513892 0.6355754 0.53172 -0.4626627 0.709378 0.4883971 -0.4861403 0.7246626 0.4419079 -0.3769875 0.8140013 0.5790504 -0.3174957 0.7509309 0.4310263 -0.231234 0.8722083 0.5883298 -0.1608075 0.7924703 0.4285668 -0.1215398 0.8952981 0.5423647 -8.54131e-4 0.8401428 0.5176694 -0.006569325 0.8555556 0.457594 0.1081443 0.8825603 0.5433036 0.1223524 0.8305728 0.4615309 0.2615172 0.8477016 0.4497526 0.2613674 0.8540548 0.581479 0.3596779 0.7297356 0.4200621 0.4335362 0.7972416 0.5381141 0.5146579 0.6675032 0.5373237 0.5148399 0.6679994 0.4530479 0.6428831 0.6176156 0.5415553 0.6205285 0.5671529 0.4844313 0.7136207 0.5060353 0.5209274 0.7014534 0.4864133 0.4545446 0.7994422 0.3927868 0.5726496 0.7455888 0.3408371 0.4251517 0.8714758 0.2444916 0.5372748 0.8184381 0.2037029 0.462026 0.8786181 0.1206746 0.4951046 0.8620352 0.1084758 0.5013449 0.8644112 0.03803527 0.436516 0.8996964 4.38529e-4 0.5357068 0.8438582 -0.03035908 0.466161 0.8704982 -0.1578822 0.4959306 0.8534514 -0.1602299 0.5065906 0.8016829 -0.317286 0.5023005 0.8042708 -0.3175579 0.4923485 0.7385569 -0.4605724 0.4971972 0.7356701 -0.4599832 0.5320601 0.6509759 -0.5414263 0.5077352 0.6663599 -0.546049 0.4513916 0.6005308 -0.6600064 0.5343378 0.5546138 -0.6378768 0.5284732 0.4641483 -0.7108323 0.4938979 0.4826591 -0.7232601 0.4543496 0.3783249 -0.8064966 0.5956744 0.3108705 -0.7406293 0.4111163 0.2612928 -0.8733325 0.5968988 0.1571554 -0.7867745 0.4631848 0.1353184 -0.8758704 0.4734692 0.03231441 -0.8802174 0.5993146 -0.001855254 -0.8005115 0.4211625 -0.08787393 -0.9027184 0.5339758 -0.170605 -0.8281086 0.574105 -0.1729708 -0.8003029 0.4547985 -0.3125205 -0.8339602 0.5318907 -0.3134266 -0.7866741 -0.02083671 -0.1969498 0.9801922 0.01489669 -0.1447064 0.9893625 0.01720112 -0.2765505 0.9608455 -0.01764512 -0.983314 -0.1810588 0.007464051 -0.988711 -0.1496492 -0.02550089 -0.387649 0.9214543 0.01659619 -0.9616757 -0.2736867 0.02438861 -0.4472092 0.8940969 -0.0245046 -0.9284512 -0.3706454 -0.01620543 -0.5478109 0.8364453 0.01726603 -0.9051941 -0.4246476 0.01937133 -0.6083623 0.7934231 -0.01552557 -0.6537454 0.7565553 -0.007445752 -0.8430616 -0.5377657 -0.014683 -0.8387281 -0.5443523 0.01781648 -0.7448791 0.6669615 -0.00394988 -0.7697267 0.6383613 0.0159474 -0.7496418 -0.6616517 -0.0112791 -0.7262834 -0.6873029 0.009926378 -0.8121989 0.5832962 -0.01183438 -0.8462869 0.5325961 -0.002183079 -0.6288726 -0.7775054 0.01038902 -0.8704788 0.4920963 0.002043128 -0.6251969 -0.7804645 9.53414e-4 -0.9226053 0.3857442 -0.01399987 -0.9283987 0.3713217 0.01130521 -0.515087 -0.8570635 -0.009262979 -0.4918312 -0.8706414 0.01442503 -0.9770752 0.2124055 -0.01061844 -0.9824582 0.1861804 0.001622974 -0.3722292 -0.9281395 0.001023471 -0.3728503 -0.927891 0.002368986 -0.9998434 0.01754325 0.007453322 -0.9998897 0.01284646 0.0115959 -0.2444116 -0.9696023 -0.02363699 -0.199994 -0.979512 0.02308797 -0.06226462 -0.9977926 -0.02359455 -0.002702474 -0.9997181 0.02429741 0.1335371 -0.990746 -0.02383339 0.1959514 -0.980324 0.01737523 0.3093537 -0.9507884 -0.02085846 0.3852635 -0.9225708 0.009638488 0.4275985 -0.9039175 0.02827155 0.4998717 -0.8656379 -0.01416504 0.5484322 -0.8360751 0.001223325 0.6544834 -0.7560754 0.01517128 0.6655793 -0.746173 -0.01101434 0.7701127 -0.6378129 0.01259845 0.7916238 -0.610879 -0.0131576 0.8483459 -0.5292789 0.02236801 0.879363 -0.4756264 -0.02717393 0.9297704 -0.3671358 0.02238231 0.9530178 -0.3020866 -0.02173894 0.982842 -0.1831637 0.01290935 0.99145 -0.1298471 -0.007055103 0.999231 -0.03857135 0.002446055 0.9998797 -0.0153259 0.00197041 0.9906993 0.1360559 0.005752623 0.9914257 0.1305457 -0.01397806 0.9702289 0.2417864 0.02341753 0.9552575 0.2948471 -0.02371788 0.9098452 0.4142695 0.01509976 0.8874847 0.4605898 -0.002591729 0.8209922 0.5709336 -0.00333774 0.8204979 0.5716398 -0.005650818 0.7396363 0.6729832 0.01104664 0.7254865 0.6881477 -0.01190984 0.6077398 0.7940469 -0.005705356 0.602676 0.7979657 0.01586657 0.4826687 0.8756593 -0.01831191 0.4448601 0.8954129 0.01200985 0.3324671 0.9430384 -0.01139217 0.2905435 0.956794 0.01351177 0.2121692 0.9771396 -0.02110874 0.1485024 0.9886868 0.01849323 0.02871769 0.9994165 -0.01109558 -0.01069903 0.9998812 1 -2.82107e-7 4.28725e-7 0.9998347 0.01011538 -0.01511335 1 -4.61097e-5 7.05849e-5 0.9999995 -0.001007556 5.03749e-4 0.9999993 2.11637e-4 -0.001158893 1 -7.0683e-5 7.99976e-5 1 7.7025e-6 3.04028e-6 0.9993104 -0.03453928 -0.01363551 -0.9998263 0.01702225 -0.007598519 1 2.60265e-5 7.06011e-5 0.9999979 0.001984298 6.02547e-4 0.9999989 -4.63312e-4 -0.001438856 0.9999985 0.001249909 -0.001225888 0.999989 3.38952e-4 -0.004696846 1 -8.99943e-7 -2.12802e-6 0.9968542 0.07551741 -0.02406078 0.9999961 -0.002382934 -0.001459181 1 -3.97684e-5 4.19253e-5 1 -1.1643e-5 -2.75428e-5 1 -1.0823e-4 -6.10613e-5 1 0 0 1 -4.00252e-6 1.25854e-6 1 -3.41222e-5 2.04848e-4 1 1.682e-5 -8.26914e-6 1 -1.30794e-4 0 1 4.21318e-6 -1.04062e-5 0.999889 -0.01334202 0.006637811 0.999759 -0.02001041 0.00903511 1 8.21004e-7 4.67849e-7 1 0 0 0.9999999 4.13856e-4 -1.9948e-4 0.9999959 -4.38144e-4 0.002848148 0.9999985 0.001676499 -4.5591e-4 1 1.36581e-6 -4.76943e-6 1 0 0 1 -2.04705e-4 1.50843e-4 1 1.89862e-6 5.12631e-6 0.9999625 0.003072381 0.008111536 1 1.28594e-4 -3.58205e-4 1 0 0 0.9999982 -8.96989e-4 -0.001713633 0.9998164 -0.01878315 -0.003800749 0.9999855 0.00102353 -0.005291044 1 6.9494e-7 -1.55993e-7 1 4.70372e-6 -7.64666e-6 1 -8.42771e-6 -3.50962e-5 1 5.19608e-7 -9.08383e-7 1 -1.35095e-6 -3.43164e-6 0.9999189 -0.009439408 0.008556246 1 5.20983e-7 -3.8696e-7 0.9999041 -0.01027834 0.00929439 0.9999914 -0.003854393 0.001582443 0.9999912 0.002763092 -0.00315988 1 0 0 1 0 0 1 6.47729e-5 5.03825e-5 1 0 -1.02738e-6 1 1.70857e-7 0 1 0 0 1 0 0 1 0 0 1 0 0 1 -1.11898e-6 6.98337e-7 0.99987 -0.01522547 -0.0053097 1 0 0 0.9999922 0.00365138 -0.001536607 0.9999983 -0.001361906 -0.001293003 0.9999969 0.001961231 0.001559972 0.9999992 4.32011e-4 -0.001259326 0.9999956 0.001614093 0.0024814 1 1.77011e-6 7.32867e-6 1 1.08959e-5 7.025e-5 1 -1.35811e-7 0 1 -2.37402e-4 1.09477e-4 0.6452048 0.7000296 -0.3060546 -1 3.88414e-5 1.75107e-5 0.9999794 -0.00101 0.006344854 1 0 0 1 -1.34321e-4 1.51551e-5 1 0 0 1 -4.11132e-7 3.20352e-6 1 1.68363e-6 8.49672e-6 1 1.16738e-5 1.80833e-5 0.9959819 0.08195185 0.03610926 0.9959936 0.07759433 0.04445135 0.9999163 0.003767549 -0.01238369 1 0 0 1 -3.63202e-6 4.2708e-6 0.9998897 0.01319211 -0.006825864 1 2.45182e-5 -2.1196e-5 0.9999991 -2.09412e-4 -0.001387476 1 2.15066e-5 -3.89136e-5 0.9996058 0.01105946 -0.02580744 1 0 0 1 7.82543e-5 -6.9775e-5 1 -7.46288e-5 -1.61234e-4 0.9999967 0.001704394 -0.001962482 1 0 0 1 0 0 0.9999942 0.003041505 -0.001584172 0.9978672 0.04586666 0.04644691 1 0 0 1 0 0 1 0 1.53633e-5 1 0 0 1 -7.8733e-7 -9.75058e-7 1 -2.67748e-5 3.53806e-5 1 7.08632e-7 3.31269e-6 0.9999999 2.27167e-4 4.27521e-4 1 2.99669e-7 0 1 0 1.32858e-7 1 1.41293e-4 -1.48429e-5 1 4.88864e-6 4.08904e-6 1 -1.67658e-6 -8.40029e-6 1 0 0 1 0 0 1 7.92598e-5 -8.58717e-5 1 -9.19481e-5 -7.54878e-5 1 0 0 1 0 0 0.9999999 -3.65287e-4 -3.04502e-4 1 0 0 1 0 0 1 1.28494e-4 -2.56138e-5 1 1.35081e-4 2.33532e-5 1 8.33168e-7 -6.55637e-5 1 0 0 0.999998 -8.28304e-4 -0.001842916 1 0 0 1 0 0 1 -8.51165e-5 3.56242e-5 1 1.79482e-7 0 1 0 0 1 0 0 1 -1.15364e-5 -1.08598e-6 0.9983737 -0.04448741 -0.03564971 1 0 0 1 3.38236e-6 2.40762e-5 1 0 0 1 4.61966e-6 6.44347e-5 0.6862772 -0.08154928 -0.722754 1 0 0 1 -3.4786e-5 -6.99842e-5 1 0 0 1 1.40632e-5 -7.77392e-6 1 -1.78636e-4 -3.39069e-4 1 0 1.7116e-7 1 -3.39768e-6 4.3903e-5 1 3.59686e-5 -5.72725e-5 1 -2.42828e-6 -4.85711e-5 0.9996326 0.01249361 0.02405732 1 0 0 0.9999076 0.01062047 0.008491396 1 0 0 1 7.11135e-6 -2.24026e-5 0.9982758 -0.04267555 -0.04030454 0.9999887 -0.004012465 0.002597272 1 0 0 1 3.35741e-4 1.16238e-4 1 0 -1.25785e-7 0.9999713 0.007425248 0.001565098 1 3.36316e-4 7.0894e-5 1 -1.18759e-5 -7.10775e-5 0.9999867 0.003171443 -0.004069089 1 -3.21801e-4 -5.56424e-5 1 0 0 1 0 0 1 -5.14407e-7 2.32786e-7 1 -8.99274e-5 1.00311e-4 0.9998047 0.01895409 0.005589842 1 -1.55933e-4 1.49497e-4 1 -5.78998e-6 -1.71815e-4 0.9999088 -0.007991492 -0.01089644 1 0 0 1 -2.47467e-7 7.79174e-7 1 -4.66616e-7 -3.45029e-7 1 1.83924e-6 -1.01774e-5 0.9999549 4.52337e-4 -0.009490311 1 -2.23896e-5 2.89319e-4 -0.0342586 0.5844016 -0.8107413 0.001827299 -0.02661448 -0.9996442 0.002017676 0.8459999 -0.5331794 -0.02578169 0.3874692 -0.9215221 1 0 0 1 -1.2909e-7 0 0.03857952 -0.2773354 -0.9599984 1 3.96759e-7 0 1 -5.49457e-7 2.75489e-6 1 -1.76485e-6 0 1 -1.58668e-5 -5.92613e-6 1 1.05998e-5 4.07204e-6 0.00459975 0.7486008 0.6630051 1 0 0 1 0 0 1 0 0 1 0 0 1 0 0 -1 -5.74178e-7 0 1 0 0 1 0 0 1 -1.73972e-6 8.18752e-7 1 0 0 1 0 0 1 -1.53473e-7 0 0.0110979 0.1912865 0.9814715 1 0 0 0.5873914 0.6291323 0.5090814 0.7401285 0.6625475 0.1150683 0.5749518 0.7444105 0.3395344 0.5826924 0.7729202 0.2511253 0.6165144 0.7498598 0.2400423 0.6765888 0.7185807 -0.1608399 0.3701291 0.8859139 -0.2795732 0.6511771 0.7524786 0.09871381 0.687887 0.6688705 -0.2818225 0.6352025 0.766142 0.09769523 0.4059348 0.8053605 -0.4319854 0.6735207 0.6246805 -0.3951508 0.3030161 0.754937 -0.5815939 0.7340115 0.4781134 -0.4823222 0.4208154 0.6021557 -0.6784711 0.6600332 0.4191637 -0.6234244 0.565096 0.2555854 -0.7844378 0.7277048 0.1970964 -0.6569617 0.5182159 0.1022528 -0.8491152 0.3971305 0.1245911 -0.909266 0.5880574 -0.02245879 -0.8085074 0.3176753 -0.0616213 -0.9461953 0.6516976 -0.1463407 -0.7442277 0.4352402 -0.2184105 -0.8734202 0.6235033 -0.2719358 -0.7330039 0.5126274 -0.3128311 -0.7995936 0.3576208 -0.4855195 -0.7977332 0.7039697 -0.4076093 -0.5816197 0.478734 -0.5495165 -0.6847229 0.6837029 -0.5204786 -0.5115197 0.4380468 -0.6762992 -0.5922284 0.59825 -0.6367248 -0.4864962 0.5796099 -0.7566211 -0.3026169 0.6844503 -0.6948205 -0.220799 0.5757776 -0.7849709 -0.2286942 0.4884616 -0.8619642 -0.1357324 0.6341533 -0.7667469 -0.09974485 0.5524981 -0.8333398 0.01704794 0.580058 -0.8144594 0.01373738 0.6854974 -0.7140275 0.1423311 0.5343858 -0.8247984 0.1847692 0.5901187 -0.7649492 0.2580946 0.3773187 -0.7806267 0.4982493 0.5964809 -0.557012 0.5778827 0.5075014 -0.5308743 0.6786862 0.6475884 -0.4572105 0.6095801 0.3828667 -0.4098662 0.8279027 0.7450981 -0.257517 0.6152348 0.4267162 -0.251957 0.8685799 0.6862927 -0.1239498 0.716686 0.5855144 -0.1243513 0.8010679 0.25609 0.0315907 0.9661367 0.7436562 0.07589912 0.6642401 0.482017 0.1822882 0.8569893 0.7024965 0.223845 0.6755681 0.5899868 0.2737206 0.7596004 0.5755984 0.3513888 0.738385 0.753029 0.4543701 0.4759153 0.5361785 0.6140499 0.5791851 0.01163369 -0.8947423 -0.4464313 -0.004943013 0.1677837 -0.9858114 0.08485299 -0.2370013 -0.9677967 -0.08376628 -0.6186458 -0.7811918 0.03363519 -0.9026782 -0.429 0.1242019 -0.4472341 0.8857514 0.006616592 -0.9333791 0.358831 -0.06166303 -0.148184 0.9870356 -0.01739042 -0.9227601 0.3849822 -0.002510726 0.1726024 0.9849884 -0.06537598 -0.6625768 0.7461354 0.01178061 0.7413308 0.6710365 -0.06932902 0.9077892 0.4136573 0.1000735 0.985299 0.1384603 -0.08031052 0.9707499 -0.226263 0.03983902 0.900393 -0.4332498 -0.01255494 0.7661413 -0.6425496 -0.01041191 -0.3853621 -0.9227068 -0.03592205 -0.6643757 0.7465351 0.04515624 -0.5194952 0.8532794 0.02182102 -0.9873622 -0.1569705 0.006695508 -0.9915406 -0.1296244 -0.0320633 0.1491506 0.9882946 -0.02263772 0.7250503 0.6883237 0.02401781 0.936019 0.351129 -0.02837836 0.980075 0.1965904 -0.04484939 0.6545081 -0.7547237 0.3285218 -0.4003673 0.8554411 0.3713927 -0.4014909 0.8371813 0.2838023 -0.9379662 -0.1991877 0.1026113 -0.759506 0.6423564 0.4721326 -0.7339255 -0.4883075 0.3038652 -0.9294764 0.2091397 0.234651 -0.496846 -0.8355137 -0.1503031 -0.03929209 -0.987859 0.5023419 0.2198489 -0.8362531 0.2588607 0.413648 -0.8728612 0.6228438 0.5612424 -0.5450438 0.5112239 0.7749493 -0.3716233 0.3199839 0.9470621 -0.0261467 0.8163225 0.533767 0.2207047 0.425153 0.6344712 0.6455162 0.7571448 0.2519021 0.602725 0.3717303 0.01862788 0.9281539 -0.002978861 0.665466 -0.7464222 0.06542104 0.2171291 -0.9739482 0.5546132 0.3215982 -0.7674496 0.2445662 0.4428709 -0.8625849 0.51001 0.4990652 -0.7005882 0.9998608 0.01416945 -0.008808314 0.9998949 0.009791672 -0.01069617 0.9984377 0.01103508 -0.0547766 0.2160052 -0.2292959 -0.9490865 -0.1972692 0.9409368 -0.2751779 0.02877652 0.423307 -0.9055293 0.9999135 0.007819592 -0.01057434 0.107736 0.8954645 -0.4318985 0.02938002 0.2220176 -0.9745999 -0.1567141 -0.08469045 -0.9840063 0.9996857 0.004206001 -0.02471721 0.1733753 0.6789082 -0.7134597 0.1541844 0.6881951 -0.7089534 0.1150301 0.1648602 -0.9795863 0.9768696 0.2137772 -0.005022764 -0.00623852 0.5820197 0.8131509 -0.006965816 0.519295 -0.8545668 -0.04565221 0.994218 -0.09719282 0.02985942 0.7869884 0.6162448 0.02630114 0.8457543 -0.5329239 0.7364936 0.4484069 -0.5064667 0.7863503 0.5974382 -0.1572284 0.6904563 -0.2040416 -0.6940008 0.9999998 -1.79066e-4 -6.38993e-4 0.721595 0.624813 0.298177 0.7437005 -0.5096872 -0.4325837 1 -1.46749e-4 -2.87104e-4 1 7.62413e-5 2.38014e-4 0.86053 0.1570574 0.4845837 1 4.35769e-5 1.33446e-5 1 4.92372e-5 -1.21765e-5 0.6706761 -0.7396661 -0.05556762 1 -1.54345e-5 1.02944e-4 1 6.76881e-6 3.239e-5 1 7.68131e-5 -3.69761e-5 0.7396802 -0.5875751 0.3280681 -1 1.23631e-6 1.16904e-5 -1 3.76921e-5 -2.01979e-5 -1 -5.35019e-6 -7.14941e-6 -1 -1.62894e-5 -2.10849e-6 -1 4.3476e-6 -1.76619e-6 -1 -1.42231e-5 -2.23024e-5 -1 -8.54179e-6 4.82867e-6 -1 2.06892e-6 2.75805e-6 -1 -1.07262e-5 2.51542e-5 -1 -2.6504e-5 -2.3189e-5 -1 -8.2502e-6 -4.56543e-6 -1 3.20508e-6 6.69047e-6 -1 -6.62741e-6 -1.57592e-5 -1 1.45246e-5 -4.1814e-6 -1 -9.04708e-7 -4.00938e-6 -1 2.7878e-5 1.48667e-5 -1 4.14187e-6 1.20915e-5 -1 1.70764e-5 -1.41957e-5 -1 3.01453e-5 -1.37959e-5 -1 -1.99228e-5 -9.43102e-6 -1 1.44059e-5 -1.22313e-5 -1 -2.152e-5 6.28217e-6 -1 -2.29959e-5 6.1217e-6 -1 1.44195e-5 -3.19002e-6 -1 1.67901e-5 -1.70147e-5 -1 2.49196e-5 -5.17461e-6 -1 -1.46217e-5 1.82061e-5 -1 -3.19802e-6 2.66586e-6 -1 -1.54863e-6 2.903e-5 -1 -8.14685e-6 2.00024e-5 -1 -1.11409e-5 1.97899e-5 -1 2.32748e-7 -2.13525e-5 -1 -1.40546e-5 -2.19668e-5 -1 3.26021e-5 2.06464e-5 -1 -6.65569e-7 -6.42556e-6 -1 1.03911e-5 1.78643e-5 -1 -2.40968e-5 3.85966e-6 -1 3.68122e-7 1.1059e-5 -1 -8.76179e-6 -9.61635e-6 -1 -1.03534e-6 2.83693e-6 -1 4.2766e-5 2.48753e-6 -1 -4.19882e-6 5.7421e-7 -1 -3.92579e-6 -1.56104e-5 -1 -4.5963e-6 2.3067e-6 -1 -3.32783e-5 -1.35984e-5 -1 2.11094e-5 6.28281e-6 -1 -4.41487e-6 1.87073e-6 -1 -4.21154e-6 -6.72086e-7 -1 -9.89653e-6 2.26626e-5 -1 -1.27926e-6 3.79554e-5 -1 -1.90357e-5 9.01669e-6 -1 -2.20368e-5 8.58623e-6 -1 -3.12609e-6 1.72398e-6 -1 -4.20891e-6 -2.98971e-6 -1 4.07334e-6 5.36295e-6 -1 2.11833e-5 6.21821e-6 -1 -3.89697e-6 -5.76678e-6 -1 7.38031e-6 1.40394e-5 -1 4.02287e-6 -3.10293e-5 -1 2.25564e-5 5.4701e-6 -1 1.30103e-5 -9.10514e-7 -1 -1.3013e-6 5.50852e-6 -1 -8.49986e-6 7.31681e-6 -1 -5.3426e-6 1.92697e-6 -1 -1.9942e-5 3.13377e-5 -1 -3.95739e-5 2.57391e-5 -1 0 6.55016e-6 -1 7.99537e-6 1.28484e-5 -1 1.06618e-5 2.23775e-5 -1 9.95328e-6 2.07729e-5 -1 -6.06566e-6 9.99624e-7 -1 -6.60949e-6 -2.7898e-7 -1 -1.32047e-5 3.20035e-6 -1 1.34598e-5 2.07869e-5 0.01913124 -0.01519674 0.9997015 0.01580762 0.9985564 -0.05133581 0.01756131 0.2038716 0.9788401 0.01580756 0.9731937 -0.2294433 -0.01066368 0.9811782 -0.1928101 -0.01572614 0.9313988 -0.3636606 0.009184896 0.9189218 -0.3943327 0.0116406 0.4261514 0.904577 0.009822726 0.8455781 -0.5337614 0.0312314 0.5976019 0.8011845 0.03999865 0.6926244 -0.7201886 0.02982896 0.7776086 0.6280407 0.02902114 0.4993342 -0.8659234 0.02447378 0.8923524 0.4506755 -0.02888923 0.4243879 -0.9050196 0.01965832 0.3347361 -0.9421069 0.01174533 0.9599813 0.279818 0.005377352 0.1500532 -0.9886634 0.01816326 0.9940832 0.1070925 0.006704211 -0.01427853 -0.9998756 0.01515638 -0.1987113 -0.979941 -0.01753228 -0.2496097 -0.9681879 0.02309966 -0.3692678 -0.9290359 0.02876448 -0.5685111 -0.8221726 0.01683205 -0.6947701 -0.719035 0.01669567 -0.8192425 -0.5732043 0.001592636 -0.8964386 -0.4431651 0.02229887 -0.9656546 -0.2588708 0.02629202 -0.9993904 -0.02297121 0.02058339 -0.9894769 0.1432193 0.01274728 -0.9458594 0.3243263 0.01729482 -0.8735196 0.4864818 0.01145756 -0.7709106 0.6368404 0.01921284 -0.6728743 0.7395074 0.03102993 -0.4998947 0.8655301 0.03154927 -0.247016 0.9684976 -0.03585541 0.6318552 -0.7742568 -0.03526371 0.8199185 -0.5713932 -0.03154623 0.1896253 -0.9813497 -1 2.27709e-5 -3.13814e-5 -1 -2.96496e-6 -3.96272e-5 -1 -8.32862e-5 1.32187e-4 -1 7.10402e-5 -2.67985e-4 -0.02927154 0.9994364 0.01643949 -0.02305924 -0.04853051 -0.9985556 -0.01709783 0.9709969 0.2384803 -0.01694208 0.9206758 0.3899604 -1 1.15142e-5 -1.67195e-5 -1 5.84034e-5 1.02902e-4 -0.03280764 -0.4417799 -0.8965234 -0.02315467 0.8239601 0.5661745 -0.02535372 -0.6368395 -0.7705796 -1 4.68796e-5 1.16824e-4 -1 2.20092e-7 -2.17844e-6 -0.02996557 0.6970368 0.7164089 -0.0205602 -0.7932527 -0.6085455 -0.01414 0.5448638 0.8384054 -1 1.46264e-6 -8.53029e-6 -0.01683878 -0.9058242 -0.4233191 -0.005310833 0.4075914 0.913149 -1 1.97438e-4 3.45503e-4 -1 3.63023e-6 -2.27188e-5 -0.01512694 0.2364379 0.971529 -0.0262342 -0.9775393 -0.2091144 -1 -1.19921e-6 -1.03898e-5 -1 2.29903e-6 2.65592e-5 -1 -1.18125e-6 2.13435e-5 -1 3.75003e-6 -2.11881e-5 -0.01837301 0.03012031 0.9993775 -0.02949959 -0.9984728 0.04671335 -1 1.06797e-5 8.28109e-5 -0.9999999 -3.73859e-5 6.12044e-4 -0.02625733 -0.1890857 0.9816095 -1 3.03296e-6 -1.7995e-5 -1 4.26358e-6 -3.43303e-5 -1 -4.32552e-6 1.87445e-5 -0.01757115 -0.9586941 0.2838962 -0.017214 -0.8998945 0.4357681 -1 8.66329e-6 -7.62739e-5 -1 -6.25078e-7 -1.79325e-5 -1 -2.74288e-7 -3.32576e-6 -0.03502601 -0.4371407 0.8987109 -1 -1.8161e-6 -2.14716e-5 -1 6.67081e-6 2.32189e-5 -1 6.83478e-6 3.40223e-5 -1 -2.37458e-6 -4.08245e-5 -0.02126073 -0.7942278 0.6072481 -0.0252549 -0.6296997 0.7764282 0.02060669 -0.9969109 0.07579058 -0.01251757 -0.9506046 0.3101519 0.02659404 -0.7027155 -0.7109738 -0.04226088 -0.8948522 -0.4443575 -0.006514132 -0.5740683 0.8187816 -0.01561427 0.05210965 0.9985194 0.02895605 0.6619518 0.7489869 -0.03826296 0.868315 0.4945352 0.02955108 0.9995383 -0.007081389 -0.0359137 0.8743621 -0.4839434 0.01550137 0.7278829 -0.6855263 -0.02250158 -0.03362673 -0.9991812 0.00849694 -0.07092922 0.9974452 0.008590698 0.07901316 -0.9968366 1 -3.25924e-7 0 0.01516401 -0.6763061 0.7364646 0.01034748 -0.4782609 -0.8781569 -0.009568095 -0.4120123 -0.9111281 0.01631647 -0.9846461 0.1737987 -0.01210951 -0.9131383 0.40747 0.02052551 -0.8520996 -0.522977 0.01234632 -0.7103312 0.7037594 -0.02608495 -0.9682486 -0.2486245 -0.01149284 -0.5562881 0.83091 -0.006439983 0.5919236 0.8059684 0.01052653 0.9481453 0.317663 -0.004429519 0.9724908 0.2328996 -0.005553603 0.9768015 -0.2140749 0.0136553 0.9473906 -0.3197886 -0.01721912 0.6102978 -0.7919849 0.02549731 0.4110562 -0.9112534 -0.01946175 -0.02025049 -0.9996055 1 1.14636e-6 0 1 2.33877e-7 0 1 -2.1732e-7 0 1 -5.18486e-7 0 1 -1.3863e-7 0 0.01686114 -0.04859793 0.9986761 0.003529012 -0.1057648 0.994385 0.004500865 0.5489521 0.8358417 0.003196179 -0.4090935 -0.9124869 -0.01623129 -0.9975468 0.06809562 0.0127139 -0.9402344 0.3402906 -0.009635388 -0.8498967 0.5268613 -0.01822781 -0.8962592 -0.4431561 0.005629181 -0.9593809 -0.2820576 0.01008301 -0.4928497 0.8700561 -0.0125913 -0.381129 0.9244362 0.01196271 0.153248 0.9881154 -0.01194047 0.3064838 0.951801 4.00249e-4 0.6757667 0.7371156 0.01342111 0.7289174 0.6844702 -0.02123868 0.9691321 0.2456256 0.02985817 0.9918642 -0.1237497 -0.02176374 0.8971973 -0.4410936 0.0223841 0.4911287 -0.8707995 -0.01053267 0.3640624 -0.931315 1 2.00134e-7 0 1 -1.22626e-7 0 0.02069795 -0.4740945 -0.8802307 1 -3.66868e-7 0 0.02028286 -0.5965304 -0.8023343 -0.01317352 -0.943654 0.3306717 0.01692253 -0.882498 0.4700118 -0.02393937 -0.8674549 -0.4969395 0.01627713 -0.9596848 -0.2806069 -0.01978439 -0.5318693 0.8465954 -0.008428275 0.07145965 0.9974079 -0.004171311 0.8107006 0.5854462 0.006946802 0.7852047 0.6191973 0.003134191 0.9973153 -0.07316023 -0.005996763 0.9919024 -0.1268619 -0.002720415 0.8026554 -0.596437 -1.63367e-4 0.8102581 -0.5860734 -0.02000278 0.3937141 -0.9190153 -0.01855784 -0.2386444 -0.9709297 0.03244215 -0.1126374 0.9931064 0.02466422 0.1109829 -0.9935163 1 -1.89355e-7 0 1 3.3344e-7 0 -0.01146882 -0.9648957 0.2623828 0.02272909 -0.5676073 -0.8229857 -0.008612334 -0.6745592 -0.7381706 0.01849424 -0.8644769 0.5023323 -0.02245157 -0.6580939 0.7526012 -0.007060527 -0.9568356 -0.2905439 0.01479357 -0.9881209 -0.1529652 -0.01573169 0.04992115 0.9986293 0.01291131 0.521113 0.85339 -0.01362162 0.6740903 0.7385234 0.01745671 0.9374906 0.3475725 -0.01032137 0.9800819 0.1983252 -0.00308901 0.8953132 -0.4454267 -5.01755e-4 0.891019 -0.4539658 0.01924347 0.3491047 -0.9368861 -0.03043586 0.1519806 -0.9879148 0.02626734 -0.1779318 0.9836922 1 -4.06978e-7 0 -0.02107912 -0.4657379 -0.8846717 -0.02524381 -0.8878816 0.459379 -0.0215581 -0.9439147 -0.3294852 0.02760249 -0.9990208 -0.03457826 -0.01810401 -0.3938203 0.9190092 0.02000647 0.1405033 0.9898781 -0.02157121 0.3787981 0.9252279 0.0245012 0.7772343 0.628734 -0.02851629 0.9387922 0.3433018 0.02225786 0.9911985 -0.130499 -0.02024567 0.8978293 -0.439878 0.01897847 0.6801853 -0.7327945 -0.02749115 0.350212 -0.936267 0.02904772 -0.04883742 -0.9983844 0.02813839 -0.6448891 0.7637581 1 -1.40529e-7 0 0.01733964 -0.6935527 -0.7201973 1 -2.48845e-7 0 -0.0184921 -0.9701134 0.2419468 0.0221877 -0.6101711 -0.791959 0.0169844 -0.9045658 0.4259957 -0.02101618 -0.870756 -0.4912663 0.01533907 -0.9721494 -0.2338598 -0.02510339 -0.5126648 0.8582218 -0.0134204 0.1445476 0.9894069 0.01409029 0.5355622 0.8443782 -0.01458418 0.7269371 0.6865492 0.01444876 0.9215216 0.3880583 -0.01838523 0.9912468 0.1307358 0.01865643 0.9691522 -0.2457557 -0.01802402 0.7973629 -0.603231 0.008644223 0.6857382 -0.727797 -0.007428228 0.1948522 -0.9808045 -0.0158919 -0.314998 -0.9489593 0.03338813 -0.1756092 0.9838937 0.01315855 0.06652981 -0.9976977 1 0 0 1 0 0 1 -1.34377e-7 0 -0.001723408 -0.6238518 -0.7815409 0.00221771 -0.6103195 -0.7921523 -0.02320706 -0.9459339 0.3235284 0.01675963 -0.7169435 0.6969299 1.60192e-5 -0.9696934 -0.2443251 0.0188117 -0.9887526 -0.1483737 -0.03730219 -0.4540202 0.8902102 -0.01755416 0.5355352 0.8443304 -0.0123437 0.5175413 0.8555692 0.01570713 0.9375188 0.3475801 -0.02269619 0.9861152 0.1645045 0.02316343 0.8616293 -0.5070093 -0.01346838 0.7719637 -0.635524 0.006470084 0.1214927 -0.9925712 0.02556431 -0.07552343 0.9968163 0.009269237 0.1110114 -0.993776 1 -3.46085e-7 0 1 1.72693e-7 0 -0.02447295 -0.9934076 0.1119933 -0.01908272 -0.7530375 -0.6577008 -0.0226801 -0.5997352 0.7998771 0.01172137 -0.9943768 -0.1052494 0.003330647 -0.03541898 0.999367 -0.009447216 0.5423262 0.8401148 0.02854764 0.7174333 0.6960421 -0.02011287 0.9114437 0.410933 0.006340503 0.9815979 -0.1908546 0.009307682 0.9792793 -0.2023006 -0.005007266 0.6239094 -0.7814807 -0.003317356 0.6176257 -0.7864653 0.01359635 0.1170964 -0.9930276 -0.020823 -0.1094735 -0.9937717 0.02451378 -0.1391347 0.98997 0.02491813 -0.8533266 0.5207812 1 0 0 0.02610105 -0.5759248 -0.8170859 1 -5.31051e-7 0 1 2.20109e-7 0 0.01012891 -0.4304361 -0.9025644 3.5221e-4 -0.4608923 -0.8874561 -0.01575213 -0.9526802 0.3035662 -0.01044631 -0.9590726 -0.2829678 -0.01044702 -0.5660049 0.8243357 -0.01386767 0.1291816 0.991524 0.01687681 0.6167668 0.786965 -0.006817936 0.7117891 0.7023602 -0.01075881 0.9790408 0.2033803 0.008483231 0.9962792 0.08576738 -0.01998877 0.953933 -0.2993534 0.01294803 0.8618407 -0.5070137 -0.004764854 0.4170023 -0.9088931 -0.01080542 0.3954644 -0.9184178 1 1.53084e-7 0 0.03152728 -0.9963119 -0.07980489 0.01806914 -0.05593395 0.998271 1 3.19859e-7 0 0.01665443 -0.6897024 0.7239014 1 -3.77408e-7 0 -0.008935332 -0.5465164 -0.8374008 0.01632976 -0.6486245 -0.7609333 -0.01831233 -0.8926813 0.4503164 -0.02350896 -0.9661445 -0.2569287 0.01174277 -0.6501323 0.7597303 -0.009867787 -0.5127016 0.8585103 -0.01431322 0.1566022 0.9875581 0.0121752 0.7084977 0.7056081 -0.01116478 0.802389 0.5966969 0.004805684 0.983819 0.179101 -0.01105219 0.9955384 0.0937094 0.01459342 0.7928224 -0.6092782 -0.002975761 0.7463881 -0.6655043 -0.006415128 0.1748634 -0.9845718 0.0319907 -0.997778 0.05844402 0.02001672 -0.008803248 0.9997609 1 0 0 1 2.37757e-7 0 0.01341903 0.08425343 -0.9963541 1 3.6126e-7 0 1 -4.3239e-7 0 1 -1.53436e-7 0 1 -2.34097e-7 0</float_array>
          <technique_common>
            <accessor source="#Link_6_002-mesh-normals-array" count="1001" stride="3">
              <param name="X" type="float"/>
              <param name="Y" type="float"/>
              <param name="Z" type="float"/>
            </accessor>
          </technique_common>
        </source>
        <vertices id="Link_6_002-mesh-vertices">
          <input semantic="POSITION" source="#Link_6_002-mesh-positions"/>
        </vertices>
        <triangles material="link_06_part_000_mtl-material" count="1074">
          <input semantic="VERTEX" source="#Link_6_002-mesh-vertices" offset="0"/>
          <input semantic="NORMAL" source="#Link_6_002-mesh-normals" offset="1"/>
          <p>0 0 1 0 2 0 1 1 3 1 4 1 0 0 3 0 1 0 5 2 6 2 7 2 2 3 6 3 5 3 2 0 1 0 6 0 8 4 3 4 0 4 9 5 10 5 11 5 12 6 9 6 11 6 12 7 11 7 13 7 14 8 15 8 16 8 17 9 14 9 16 9 18 10 12 10 13 10 18 11 13 11 19 11 17 12 16 12 20 12 21 13 18 13 19 13 21 14 19 14 22 14 23 15 17 15 20 15 21 16 22 16 24 16 23 17 20 17 25 17 26 18 21 18 24 18 27 19 23 19 25 19 26 20 24 20 28 20 27 21 25 21 29 21 30 22 26 22 28 22 31 23 27 23 29 23 30 24 28 24 32 24 31 25 29 25 33 25 34 26 30 26 32 26 35 27 31 27 33 27 34 28 32 28 36 28 35 29 33 29 37 29 38 30 34 30 36 30 39 31 35 31 37 31 39 32 37 32 40 32 38 33 36 33 41 33 42 34 39 34 40 34 43 35 41 35 44 35 43 36 38 36 41 36 42 37 40 37 45 37 46 38 42 38 45 38 46 39 45 39 47 39 48 40 44 40 49 40 48 41 43 41 44 41 48 42 49 42 15 42 50 43 46 43 47 43 50 44 47 44 51 44 14 45 48 45 15 45 52 46 50 46 51 46 52 47 51 47 53 47 54 48 52 48 53 48 54 49 53 49 55 49 56 50 54 50 55 50 56 51 55 51 57 51 58 52 56 52 57 52 58 53 57 53 59 53 60 54 58 54 59 54 60 55 59 55 61 55 62 56 60 56 61 56 62 57 61 57 63 57 64 58 62 58 63 58 64 59 63 59 65 59 66 60 64 60 65 60 66 61 65 61 67 61 68 62 66 62 67 62 68 63 67 63 69 63 70 64 68 64 69 64 70 65 69 65 71 65 72 66 70 66 71 66 72 67 71 67 73 67 74 68 72 68 73 68 74 69 73 69 75 69 76 70 74 70 75 70 76 71 75 71 77 71 78 72 76 72 77 72 78 73 77 73 79 73 80 74 78 74 79 74 80 75 79 75 81 75 82 76 80 76 81 76 82 77 81 77 83 77 84 78 82 78 83 78 84 79 83 79 85 79 86 80 84 80 85 80 86 81 85 81 87 81 88 82 87 82 89 82 88 83 86 83 87 83 88 84 89 84 90 84 10 85 88 85 90 85 10 86 90 86 11 86 91 87 92 87 93 87 94 88 95 88 96 88 95 89 97 89 96 89 92 90 98 90 93 90 93 91 98 91 99 91 97 92 100 92 96 92 98 93 101 93 99 93 96 94 100 94 102 94 99 95 101 95 103 95 102 96 100 96 104 96 101 97 105 97 103 97 100 98 106 98 104 98 103 99 105 99 107 99 104 100 106 100 91 100 106 101 92 101 91 101 108 102 109 102 110 102 111 103 109 103 108 103 112 104 113 104 114 104 113 105 115 105 114 105 109 106 116 106 110 106 114 107 115 107 117 107 110 108 116 108 118 108 115 109 119 109 117 109 116 110 120 110 118 110 117 111 119 111 121 111 118 112 120 112 122 112 120 113 123 113 122 113 121 114 119 114 108 114 119 115 111 115 108 115 39 116 124 116 125 116 39 117 42 117 124 117 14 118 126 118 127 118 48 119 14 119 127 119 35 120 39 120 125 120 35 121 125 121 128 121 48 122 127 122 129 122 31 123 128 123 130 123 31 124 35 124 128 124 43 125 48 125 129 125 43 126 129 126 131 126 27 127 31 127 130 127 27 128 130 128 132 128 38 129 43 129 131 129 23 130 27 130 132 130 38 131 131 131 133 131 23 132 132 132 134 132 17 133 23 133 134 133 34 134 38 134 133 134 34 135 133 135 135 135 17 136 134 136 126 136 14 137 17 137 126 137 30 138 34 138 135 138 30 139 135 139 136 139 26 140 136 140 137 140 26 141 30 141 136 141 21 142 26 142 137 142 21 143 137 143 138 143 18 144 21 144 138 144 18 145 138 145 139 145 12 146 18 146 139 146 9 147 12 147 139 147 9 148 139 148 140 148 10 149 9 149 140 149 10 150 140 150 141 150 88 151 10 151 141 151 88 152 141 152 142 152 88 153 142 153 143 153 86 154 88 154 143 154 84 155 86 155 143 155 84 156 143 156 144 156 82 157 84 157 144 157 82 158 144 158 145 158 80 159 82 159 145 159 80 160 145 160 146 160 78 161 80 161 146 161 78 162 146 162 147 162 76 163 78 163 147 163 76 164 147 164 148 164 74 165 148 165 149 165 74 166 76 166 148 166 74 167 149 167 150 167 72 168 74 168 150 168 72 169 150 169 151 169 70 170 72 170 151 170 70 171 151 171 152 171 68 172 70 172 152 172 68 173 152 173 153 173 66 174 153 174 154 174 66 175 68 175 153 175 64 176 154 176 155 176 64 177 66 177 154 177 62 178 64 178 155 178 62 179 155 179 156 179 60 180 156 180 157 180 60 181 62 181 156 181 58 182 60 182 157 182 58 183 157 183 158 183 56 184 58 184 158 184 56 185 158 185 159 185 54 186 56 186 159 186 52 187 54 187 159 187 52 188 159 188 160 188 50 189 52 189 160 189 46 190 160 190 161 190 46 191 50 191 160 191 42 192 46 192 161 192 42 193 161 193 124 193 162 194 139 194 138 194 162 195 163 195 139 195 164 196 162 196 138 196 165 197 126 197 134 197 165 198 166 198 126 198 164 199 138 199 137 199 167 200 165 200 134 200 168 201 164 201 137 201 167 202 134 202 132 202 168 203 137 203 136 203 169 204 167 204 132 204 170 205 168 205 136 205 170 206 136 206 135 206 171 207 169 207 132 207 171 208 132 208 130 208 172 209 170 209 135 209 172 210 135 210 133 210 173 211 171 211 130 211 173 212 130 212 128 212 174 213 172 213 133 213 174 214 133 214 131 214 173 215 128 215 125 215 175 216 174 216 131 216 176 217 173 217 125 217 177 218 175 218 131 218 177 219 131 219 129 219 178 220 176 220 125 220 178 221 125 221 124 221 179 222 177 222 129 222 179 223 129 223 127 223 178 224 124 224 161 224 180 225 178 225 161 225 179 226 127 226 126 226 166 227 179 227 126 227 181 228 180 228 161 228 181 229 161 229 160 229 182 230 181 230 160 230 182 231 160 231 159 231 183 232 182 232 159 232 183 233 159 233 158 233 184 234 183 234 158 234 184 235 158 235 157 235 185 236 184 236 157 236 186 237 185 237 157 237 186 238 157 238 156 238 186 239 156 239 155 239 187 240 186 240 155 240 187 241 155 241 154 241 188 242 187 242 154 242 188 243 154 243 153 243 189 244 188 244 153 244 189 245 153 245 152 245 190 246 189 246 152 246 190 247 152 247 151 247 191 248 190 248 151 248 191 249 151 249 150 249 192 250 191 250 150 250 193 251 194 251 149 251 193 252 149 252 148 252 193 253 148 253 147 253 195 254 193 254 147 254 195 255 147 255 146 255 196 256 195 256 146 256 197 257 146 257 145 257 197 258 196 258 146 258 197 259 145 259 144 259 198 260 197 260 144 260 198 261 144 261 143 261 199 262 198 262 143 262 200 263 199 263 143 263 200 264 143 264 142 264 201 265 200 265 142 265 201 266 142 266 141 266 202 267 201 267 141 267 202 268 141 268 140 268 163 269 202 269 140 269 163 270 140 270 139 270 203 271 204 271 205 271 206 272 185 272 207 272 203 273 208 273 204 273 209 274 210 274 211 274 212 275 213 275 214 275 215 276 208 276 203 276 216 277 217 277 218 277 169 278 217 278 216 278 207 279 185 279 219 279 220 280 208 280 215 280 221 281 222 281 223 281 224 282 222 282 225 282 223 283 222 283 224 283 185 284 226 284 219 284 219 285 226 285 227 285 228 286 199 286 229 286 222 287 230 287 225 287 227 288 208 288 220 288 226 289 208 289 227 289 231 290 100 290 232 290 233 291 234 291 235 291 235 292 234 292 236 292 119 293 237 293 111 293 238 294 239 294 240 294 218 295 217 295 241 295 240 296 242 296 238 296 172 297 243 297 244 297 175 298 243 298 172 298 245 299 246 299 247 299 105 300 248 300 249 300 101 301 248 301 105 301 244 302 250 302 172 302 251 303 222 303 221 303 252 304 239 304 238 304 253 305 254 305 255 305 241 306 100 306 231 306 236 307 256 307 228 307 228 308 256 308 199 308 241 309 106 309 100 309 225 310 230 310 257 310 258 311 210 311 209 311 175 312 259 312 243 312 251 313 260 313 222 313 252 0 261 0 239 0 262 0 263 0 217 0 236 314 264 314 256 314 238 315 242 315 265 315 217 316 266 316 241 316 242 317 267 317 265 317 263 318 266 318 217 318 258 319 268 319 210 319 236 320 269 320 264 320 270 321 259 321 175 321 230 0 271 0 257 0 172 322 250 322 252 322 272 323 260 323 251 323 250 324 223 324 252 324 270 325 273 325 259 325 252 0 224 0 261 0 241 326 266 326 106 326 234 327 269 327 236 327 264 328 274 328 256 328 123 329 269 329 234 329 223 330 224 330 252 330 120 331 269 331 123 331 257 332 271 332 275 332 267 333 276 333 265 333 277 334 268 334 258 334 120 335 278 335 269 335 262 0 279 0 263 0 280 336 260 336 272 336 281 337 282 337 7 337 271 338 282 338 275 338 275 339 282 339 281 339 283 340 260 340 280 340 262 341 284 341 279 341 266 342 285 342 106 342 116 0 278 0 120 0 274 343 286 343 256 343 106 344 285 344 92 344 260 345 287 345 288 345 284 346 289 346 279 346 283 347 287 347 260 347 116 348 290 348 278 348 285 349 291 349 92 349 283 350 292 350 287 350 246 351 293 351 247 351 247 352 293 352 294 352 284 353 295 353 289 353 286 354 196 354 256 354 296 355 196 355 286 355 277 356 191 356 268 356 297 357 292 357 283 357 294 358 293 358 298 358 299 0 300 0 301 0 302 359 191 359 277 359 4 360 8 360 303 360 7 361 282 361 304 361 116 362 109 362 290 362 305 363 191 363 302 363 306 364 292 364 297 364 307 365 308 365 119 365 115 366 307 366 119 366 282 367 309 367 304 367 306 368 310 368 292 368 311 369 312 369 313 369 304 370 309 370 213 370 296 371 314 371 196 371 315 372 316 372 317 372 249 373 311 373 313 373 295 374 284 374 318 374 319 375 314 375 296 375 298 376 320 376 321 376 318 377 284 377 322 377 293 378 320 378 298 378 214 0 323 0 324 0 301 379 280 379 299 379 323 380 325 380 324 380 326 381 314 381 319 381 308 382 327 382 119 382 284 383 328 383 322 383 265 384 4 384 303 384 315 0 317 0 254 0 326 385 211 385 314 385 214 386 329 386 323 386 119 387 327 387 237 387 322 388 328 388 291 388 249 0 330 0 311 0 248 0 330 0 249 0 253 389 300 389 299 389 313 390 312 390 331 390 213 391 329 391 214 391 317 0 332 0 254 0 254 392 332 392 255 392 255 393 332 393 306 393 299 394 280 394 270 394 92 395 333 395 98 395 291 396 333 396 92 396 321 397 330 397 248 397 309 398 329 398 213 398 306 0 332 0 310 0 253 399 334 399 300 399 315 400 335 400 316 400 109 401 336 401 290 401 312 402 337 402 331 402 310 403 332 403 95 403 332 404 97 404 95 404 232 0 97 0 332 0 115 405 338 405 307 405 315 406 169 406 335 406 331 407 337 407 113 407 113 408 338 408 115 408 113 409 337 409 338 409 290 410 336 410 326 410 339 411 340 411 309 411 337 412 227 412 338 412 8 413 212 413 303 413 276 414 281 414 265 414 291 415 245 415 333 415 109 416 341 416 336 416 265 417 281 417 4 417 227 0 220 0 338 0 111 418 341 418 109 418 270 419 280 419 273 419 273 420 280 420 272 420 342 421 199 421 325 421 321 422 320 422 330 422 325 423 199 423 324 423 330 424 320 424 343 424 328 425 245 425 291 425 169 426 216 426 335 426 309 427 340 427 329 427 326 428 209 428 211 428 336 429 209 429 326 429 329 430 340 430 344 430 305 431 345 431 191 431 237 432 345 432 305 432 327 433 345 433 237 433 320 434 185 434 343 434 98 435 333 435 101 435 275 436 281 436 276 436 344 437 233 437 235 437 340 438 233 438 344 438 346 439 345 439 327 439 229 440 199 440 342 440 232 441 100 441 97 441 333 442 248 442 101 442 343 443 185 443 347 443 253 444 255 444 334 444 328 445 246 445 245 445 205 446 204 446 346 446 346 0 204 0 345 0 212 447 214 447 303 447 347 448 185 448 206 448 111 449 237 449 341 449 348 450 349 450 350 450 309 451 282 451 351 451 222 452 260 452 352 452 353 453 348 453 354 453 107 454 112 454 355 454 355 0 112 0 114 0 107 455 356 455 112 455 357 0 110 0 118 0 358 456 359 456 340 456 360 0 356 0 107 0 361 457 362 457 358 457 91 0 93 0 363 0 363 0 93 0 364 0 362 0 365 0 358 0 94 458 366 458 367 458 367 459 366 459 368 459 96 0 366 0 94 0 369 460 94 460 370 460 370 461 94 461 367 461 371 0 110 0 357 0 95 462 94 462 369 462 93 0 99 0 364 0 96 0 372 0 366 0 371 0 108 0 110 0 102 463 372 463 96 463 358 464 122 464 359 464 373 465 122 465 365 465 365 466 122 466 358 466 364 0 99 0 374 0 104 0 372 0 102 0 99 0 103 0 374 0 104 467 363 467 372 467 375 468 362 468 361 468 371 469 121 469 108 469 373 470 118 470 122 470 367 471 368 471 361 471 357 0 118 0 373 0 371 472 117 472 121 472 376 473 117 473 371 473 103 0 107 0 374 0 374 474 107 474 355 474 105 475 360 475 107 475 104 0 91 0 363 0 376 476 114 476 117 476 355 0 114 0 376 0 196 477 197 477 256 477 191 478 192 478 268 478 195 479 196 479 314 479 193 480 314 480 211 480 193 481 195 481 314 481 345 482 190 482 191 482 189 483 190 483 345 483 193 484 211 484 210 484 204 485 189 485 345 485 194 486 193 486 210 486 188 487 189 487 204 487 188 488 204 488 208 488 187 489 188 489 208 489 187 490 208 490 226 490 186 491 187 491 226 491 186 492 226 492 185 492 183 493 184 493 185 493 183 494 185 494 320 494 182 495 320 495 293 495 182 496 183 496 320 496 182 497 293 497 246 497 181 498 182 498 246 498 181 499 246 499 328 499 180 500 181 500 328 500 180 501 328 501 284 501 178 502 180 502 284 502 176 503 178 503 284 503 176 504 284 504 262 504 173 505 176 505 262 505 173 506 262 506 217 506 171 507 173 507 217 507 169 508 171 508 217 508 167 509 169 509 315 509 254 510 167 510 315 510 165 511 167 511 254 511 166 512 165 512 254 512 253 513 166 513 254 513 299 514 166 514 253 514 179 515 166 515 299 515 270 516 179 516 299 516 177 517 179 517 270 517 175 518 177 518 270 518 174 519 175 519 172 519 252 520 170 520 172 520 168 521 170 521 252 521 238 522 168 522 252 522 164 523 168 523 238 523 265 524 164 524 238 524 162 525 164 525 265 525 303 526 162 526 265 526 163 527 162 527 303 527 202 528 163 528 303 528 214 529 202 529 303 529 201 530 202 530 214 530 324 531 201 531 214 531 200 532 201 532 324 532 199 533 200 533 324 533 256 534 198 534 199 534 197 535 198 535 256 535 359 536 122 536 123 536 339 537 358 537 340 537 340 538 359 538 233 538 233 539 359 539 234 539 234 540 359 540 123 540 356 541 360 541 313 541 112 542 356 542 113 542 313 543 360 543 249 543 113 544 356 544 331 544 249 545 360 545 105 545 331 546 356 546 313 546 95 547 369 547 310 547 310 548 369 548 292 548 369 549 370 549 292 549 292 550 370 550 287 550 370 551 367 551 287 551 287 552 367 552 288 552 8 553 0 553 212 553 213 554 2 554 304 554 2 555 5 555 304 555 0 556 2 556 212 556 212 557 2 557 213 557 304 558 5 558 7 558 7 559 6 559 281 559 6 560 1 560 281 560 281 561 1 561 4 561 4 562 3 562 8 562 374 563 355 563 377 563 377 564 355 564 378 564 371 565 357 565 379 565 355 566 376 566 378 566 357 567 373 567 379 567 376 568 371 568 380 568 373 569 365 569 381 569 365 570 362 570 382 570 382 571 362 571 383 571 362 572 375 572 383 572 375 573 361 573 384 573 361 574 368 574 384 574 368 575 366 575 385 575 366 576 372 576 386 576 372 577 363 577 386 577 363 578 364 578 386 578 364 579 374 579 377 579 230 580 222 580 349 580 282 581 271 581 353 581 353 582 271 582 348 582 271 583 230 583 348 583 348 584 230 584 349 584 352 585 361 585 350 585 358 586 354 586 361 586 358 587 351 587 354 587 351 588 339 588 309 588 288 589 367 589 260 589 350 590 354 590 348 590 361 591 354 591 350 591 367 592 352 592 260 592 354 593 282 593 353 593 351 594 358 594 339 594 367 595 361 595 352 595 352 596 349 596 222 596 352 597 350 597 349 597 354 598 351 598 282 598 387 599 150 599 149 599 192 600 150 600 268 600 210 601 149 601 194 601 268 602 387 602 210 602 150 603 387 603 268 603 387 604 149 604 210 604 383 605 375 605 384 605 385 606 384 606 368 606 381 607 365 607 382 607 381 608 382 608 383 608 386 609 385 609 366 609 379 610 373 610 381 610 379 611 381 611 383 611 379 612 383 612 384 612 377 613 386 613 364 613 379 614 385 614 386 614 379 615 384 615 385 615 380 616 371 616 379 616 380 617 379 617 386 617 380 618 386 618 377 618 380 619 377 619 378 619 378 620 376 620 380 620 24 621 22 621 388 621 389 622 390 622 37 622 83 623 81 623 391 623 392 624 83 624 391 624 41 625 393 625 44 625 41 626 394 626 393 626 28 627 24 627 388 627 33 628 389 628 37 628 395 629 389 629 33 629 28 630 388 630 396 630 36 631 394 631 41 631 36 632 397 632 394 632 85 633 83 633 392 633 32 634 28 634 396 634 32 635 397 635 36 635 32 636 396 636 397 636 29 637 395 637 33 637 29 638 398 638 395 638 87 639 392 639 399 639 87 640 85 640 392 640 25 641 398 641 29 641 400 642 65 642 63 642 400 643 63 643 401 643 89 644 87 644 399 644 25 645 402 645 398 645 89 646 399 646 403 646 401 647 63 647 61 647 20 648 402 648 25 648 400 649 67 649 65 649 90 650 89 650 403 650 401 651 61 651 59 651 20 652 404 652 402 652 405 653 67 653 400 653 406 654 401 654 59 654 405 655 69 655 67 655 11 656 90 656 403 656 11 657 403 657 407 657 408 658 69 658 405 658 16 659 404 659 20 659 406 660 59 660 57 660 409 661 406 661 57 661 408 662 71 662 69 662 409 663 57 663 55 663 410 664 71 664 408 664 411 665 409 665 55 665 411 666 55 666 53 666 410 667 73 667 71 667 412 668 73 668 410 668 15 669 404 669 16 669 15 670 413 670 404 670 414 671 53 671 51 671 414 672 411 672 53 672 13 673 11 673 407 673 412 674 75 674 73 674 13 675 407 675 415 675 414 676 51 676 47 676 15 677 416 677 413 677 417 678 77 678 75 678 417 679 75 679 412 679 418 680 414 680 47 680 417 681 79 681 77 681 19 682 13 682 415 682 418 683 47 683 45 683 49 684 416 684 15 684 419 685 79 685 417 685 390 686 418 686 45 686 22 687 19 687 415 687 22 688 415 688 388 688 390 689 45 689 40 689 44 690 393 690 416 690 44 691 416 691 49 691 419 692 81 692 79 692 391 693 81 693 419 693 390 694 40 694 37 694 407 695 420 695 415 695 421 696 412 696 410 696 403 697 422 697 407 697 423 698 410 698 408 698 423 699 421 699 410 699 424 700 423 700 408 700 405 701 424 701 408 701 425 702 403 702 399 702 424 703 405 703 400 703 426 704 399 704 392 704 427 705 400 705 401 705 428 706 392 706 391 706 429 707 401 707 406 707 430 708 391 708 419 708 431 709 429 709 406 709 409 710 431 710 406 710 417 711 432 711 419 711 433 712 409 712 411 712 434 713 417 713 412 713 433 714 411 714 414 714 435 715 414 715 418 715 436 716 435 716 418 716 436 717 418 717 390 717 437 718 390 718 389 718 438 719 389 719 395 719 439 720 395 720 398 720 402 721 439 721 398 721 440 722 402 722 404 722 441 723 404 723 413 723 442 724 413 724 416 724 443 725 416 725 393 725 394 726 444 726 393 726 445 727 394 727 397 727 445 728 397 728 396 728 446 729 396 729 388 729 447 730 388 730 415 730 429 731 427 731 401 731 424 732 400 732 427 732 433 733 431 733 409 733 433 734 423 734 424 734 433 735 427 735 429 735 433 736 424 736 427 736 433 737 429 737 431 737 434 738 412 738 421 738 435 739 433 739 414 739 432 740 417 740 434 740 430 741 419 741 432 741 437 742 433 742 435 742 437 743 435 743 436 743 437 744 436 744 390 744 428 745 391 745 430 745 438 746 437 746 389 746 438 747 433 747 437 747 438 748 423 748 433 748 426 749 392 749 428 749 439 750 438 750 395 750 425 751 399 751 426 751 439 752 423 752 438 752 440 753 439 753 402 753 448 754 403 754 425 754 448 755 425 755 426 755 440 756 423 756 439 756 422 757 403 757 448 757 441 758 440 758 404 758 441 759 421 759 423 759 441 760 423 760 440 760 441 761 434 761 421 761 441 762 432 762 434 762 420 763 407 763 422 763 442 764 441 764 413 764 447 765 422 765 448 765 447 766 420 766 422 766 447 767 415 767 420 767 442 768 432 768 441 768 442 769 430 769 432 769 443 770 430 770 442 770 443 771 442 771 416 771 444 772 443 772 393 772 446 773 447 773 448 773 446 774 426 774 428 774 446 775 448 775 426 775 446 776 388 776 447 776 444 777 430 777 443 777 445 778 428 778 430 778 445 779 446 779 428 779 445 780 430 780 444 780 445 781 444 781 394 781 445 782 396 782 446 782 449 783 450 783 321 783 321 784 450 784 298 784 451 785 449 785 248 785 248 786 449 786 321 786 298 787 452 787 294 787 294 788 453 788 247 788 453 789 454 789 247 789 247 790 454 790 245 790 454 791 455 791 245 791 245 792 455 792 333 792 455 793 456 793 333 793 333 794 451 794 248 794 449 0 455 0 454 0 452 795 453 795 294 795 450 0 449 0 454 0 451 796 333 796 456 796 452 0 454 0 453 0 450 797 454 797 452 797 450 798 452 798 298 798 451 0 456 0 455 0 449 0 451 0 455 0 337 799 457 799 227 799 457 800 458 800 227 800 459 801 460 801 219 801 219 802 460 802 207 802 458 803 459 803 227 803 460 804 461 804 207 804 227 805 459 805 219 805 207 806 461 806 206 806 347 807 462 807 343 807 462 808 463 808 343 808 343 809 463 809 330 809 330 810 463 810 311 810 463 811 464 811 311 811 311 812 464 812 312 812 464 813 457 813 312 813 312 814 457 814 337 814 459 815 458 815 457 815 459 816 463 816 462 816 459 817 464 817 463 817 459 818 462 818 465 818 459 819 457 819 464 819 461 820 347 820 206 820 461 821 465 821 347 821 461 0 459 0 465 0 461 0 460 0 459 0 465 822 462 822 347 822 242 823 466 823 267 823 276 824 467 824 275 824 467 825 468 825 275 825 275 826 468 826 257 826 267 827 469 827 276 827 469 828 467 828 276 828 468 829 470 829 257 829 257 830 470 830 225 830 470 831 471 831 225 831 225 832 471 832 224 832 224 833 471 833 261 833 471 834 472 834 261 834 261 835 472 835 239 835 472 836 473 836 239 836 239 837 473 837 240 837 473 838 466 838 240 838 240 839 466 839 242 839 467 840 469 840 473 840 467 0 473 0 472 0 468 841 467 841 472 841 468 0 471 0 470 0 468 0 472 0 471 0 469 842 267 842 466 842 469 843 466 843 473 843 474 844 475 844 286 844 296 845 476 845 319 845 476 846 477 846 319 846 286 847 475 847 296 847 475 848 476 848 296 848 319 849 477 849 326 849 326 850 478 850 290 850 290 851 479 851 278 851 478 852 479 852 290 852 479 853 480 853 278 853 278 854 480 854 269 854 269 855 481 855 264 855 480 856 481 856 269 856 264 857 481 857 274 857 274 858 474 858 286 858 476 0 480 0 479 0 477 859 478 859 326 859 474 860 274 860 481 860 477 0 476 0 479 0 477 0 479 0 478 0 475 861 474 861 481 861 475 862 481 862 480 862 476 0 475 0 480 0 221 863 482 863 251 863 483 864 484 864 250 864 250 865 484 865 223 865 482 866 485 866 251 866 251 867 485 867 272 867 223 868 484 868 221 868 484 869 482 869 221 869 272 870 486 870 273 870 486 871 487 871 273 871 273 872 487 872 259 872 487 873 488 873 259 873 259 874 488 874 243 874 243 875 488 875 244 875 488 876 489 876 244 876 489 877 483 877 244 877 244 878 483 878 250 878 482 0 484 0 488 0 485 879 486 879 272 879 482 0 488 0 487 0 485 0 482 0 487 0 485 880 487 880 486 880 484 0 483 0 489 0 484 0 489 0 488 0 209 881 490 881 258 881 277 882 491 882 302 882 258 883 492 883 277 883 492 884 491 884 277 884 302 885 493 885 305 885 493 886 494 886 305 886 305 887 494 887 237 887 494 888 495 888 237 888 237 889 495 889 341 889 495 890 496 890 341 890 341 891 496 891 336 891 496 892 497 892 336 892 336 893 497 893 209 893 492 0 496 0 495 0 491 0 492 0 495 0 490 894 209 894 497 894 491 895 493 895 302 895 491 896 494 896 493 896 491 0 495 0 494 0 492 897 258 897 490 897 492 0 497 0 496 0 492 898 490 898 497 898 231 899 498 899 241 899 499 900 500 900 232 900 498 901 501 901 241 901 232 902 500 902 231 902 500 903 498 903 231 903 241 904 501 904 218 904 218 905 502 905 216 905 502 906 503 906 216 906 216 907 503 907 335 907 503 908 504 908 335 908 335 909 504 909 316 909 504 910 505 910 316 910 316 911 505 911 317 911 505 912 506 912 317 912 317 913 506 913 332 913 332 914 499 914 232 914 501 915 502 915 218 915 499 916 332 916 506 916 501 917 498 917 504 917 501 0 504 0 503 0 501 0 503 0 502 0 500 918 499 918 506 918 500 0 506 0 505 0 498 0 505 0 504 0 498 919 500 919 505 919 280 920 507 920 283 920 508 921 507 921 280 921 297 922 509 922 306 922 509 923 510 923 306 923 283 924 507 924 297 924 507 925 509 925 297 925 306 926 510 926 255 926 511 927 512 927 255 927 255 928 512 928 334 928 512 929 513 929 334 929 334 930 513 930 300 930 513 931 514 931 300 931 300 932 514 932 301 932 301 933 514 933 280 933 510 934 511 934 255 934 508 935 280 935 514 935 509 0 513 0 512 0 510 0 512 0 511 0 509 936 512 936 510 936 507 937 508 937 514 937 507 0 514 0 513 0 509 0 507 0 513 0 291 938 515 938 322 938 285 939 516 939 291 939 322 940 517 940 318 940 516 941 515 941 291 941 318 942 518 942 295 942 295 943 518 943 289 943 518 944 519 944 289 944 289 945 519 945 279 945 279 946 519 946 263 946 519 947 520 947 263 947 263 948 520 948 266 948 520 949 521 949 266 949 521 950 522 950 266 950 266 951 522 951 285 951 516 0 520 0 519 0 515 0 516 0 519 0 517 952 518 952 318 952 517 953 322 953 515 953 517 954 515 954 519 954 517 0 519 0 518 0 516 955 285 955 522 955 516 956 522 956 521 956 516 957 521 957 520 957 523 958 524 958 325 958 325 959 524 959 342 959 229 960 525 960 228 960 342 961 524 961 229 961 228 962 526 962 236 962 236 963 527 963 235 963 527 964 528 964 235 964 235 965 528 965 344 965 344 966 528 966 329 966 528 967 529 967 329 967 329 968 529 968 323 968 529 969 530 969 323 969 530 970 523 970 323 970 323 971 523 971 325 971 525 972 524 972 529 972 525 973 229 973 524 973 525 0 529 0 528 0 526 974 527 974 236 974 526 0 528 0 527 0 525 975 528 975 526 975 525 976 526 976 228 976 524 0 523 0 530 0 524 977 530 977 529 977 327 978 531 978 346 978 531 979 532 979 346 979 205 980 533 980 203 980 346 981 532 981 205 981 533 982 534 982 203 982 203 983 534 983 215 983 215 984 535 984 220 984 535 985 536 985 220 985 220 986 536 986 338 986 536 987 537 987 338 987 338 988 537 988 307 988 537 989 538 989 307 989 307 990 538 990 308 990 308 991 538 991 327 991 533 992 205 992 532 992 534 993 535 993 215 993 533 994 532 994 537 994 533 995 537 995 536 995 531 996 327 996 538 996 533 997 536 997 535 997 533 998 535 998 534 998 532 999 531 999 538 999 532 1000 538 1000 537 1000</p>
        </triangles>
      </mesh>
    </geometry>
  </library_geometries>
  <library_visual_scenes>
    <visual_scene id="Scene" name="Scene">
      <node id="Link_6" name="Link 6" type="NODE">
        <matrix sid="transform">1 0 0 0 0 1 0 0 0 0 1 0 0 0 0 1</matrix>
        <instance_geometry url="#Link_6_002-mesh" name="Link 6">
          <bind_material>
            <technique_common>
              <instance_material symbol="link_06_part_000_mtl-material" target="#link_06_part_000_mtl-material"/>
            </technique_common>
          </bind_material>
        </instance_geometry>
      </node>
      <node id="Camera" name="Camera" type="NODE">
        <matrix sid="transform">0.6859207 -0.3240135 0.6515582 7.481132 0.7276763 0.3054209 -0.6141704 -6.50764 -4.01133e-9 0.8953956 0.4452714 5.343665 0 0 0 1</matrix>
        <instance_camera url="#Camera-camera"/>
      </node>
      <node id="Lamp" name="Lamp" type="NODE">
        <matrix sid="transform">-0.2908646 -0.7711008 0.5663933 4.076245 0.9551712 -0.1998833 0.2183912 1.005454 -0.05518904 0.6045247 0.7946723 5.903862 0 0 0 1</matrix>
        <instance_light url="#Lamp-light"/>
      </node>
    </visual_scene>
  </library_visual_scenes>
  <scene>
    <instance_visual_scene url="#Scene"/>
  </scene>
</COLLADA>