<?xml version="1.0" encoding="utf-8"?>
<COLLADA xmlns="http://www.collada.org/2005/11/COLLADASchema" version="1.4.1" xmlns:xsi="http://www.w3.org/2001/XMLSchema-instance">
  <asset>
    <contributor>
      <author>Blender User</author>
      <authoring_tool>Blender 2.82.7</authoring_tool>
    </contributor>
    <created>2024-01-25T15:48:50</created>
    <modified>2024-01-25T15:48:50</modified>
    <unit name="meter" meter="1"/>
    <up_axis>Z_UP</up_axis>
  </asset>
  <library_effects>
    <effect id="LinkGrey_002-effect">
      <profile_COMMON>
        <technique sid="common">
          <lambert>
            <emission>
              <color sid="emission">0 0 0 1</color>
            </emission>
            <diffuse>
              <color sid="diffuse">0.8203922 0.8203922 0.8203922 1</color>
            </diffuse>
            <index_of_refraction>
              <float sid="ior">1</float>
            </index_of_refraction>
          </lambert>
        </technique>
      </profile_COMMON>
    </effect>
  </library_effects>
  <library_images/>
  <library_materials>
    <material id="LinkGrey_002-material" name="LinkGrey.002">
      <instance_effect url="#LinkGrey_002-effect"/>
    </material>
  </library_materials>
  <library_geometries>
    <geometry id="eSeries_UR3e_010-mesh" name="eSeries UR3e.010">
      <mesh>
        <source id="eSeries_UR3e_010-mesh-positions">
          <float_array id="eSeries_UR3e_010-mesh-positions-array" count="1821">-0.02236205 0.08364725 0.01840531 -0.02233791 0.08304727 0.01855254 -0.01838642 0.08364725 0.02240639 -0.01846349 0.08304727 0.02230429 0.01815044 0.08364725 0.02243655 0.01860547 0.08304727 0.02226758 0.02246499 0.08364725 0.01832729 -0.01846456 0.08364725 -0.0224207 -0.01861178 0.08304727 -0.02239662 -0.02246558 0.08364725 -0.01844525 -0.02236354 0.08304727 -0.01852214 0.02234309 0.0830934 -0.0186131 0.01859813 0.08364725 -0.02239155 -3.00052e-7 0.0625475 0.03778749 -5.02052e-4 0.06534731 0.03763169 -0.002299487 0.06332927 0.03769713 -3.00052e-7 0.08414465 0.0249406 0.002924561 0.08594363 0.02395015 0.001091957 0.08594805 0.02203977 -0.00106281 0.08595001 0.02204054 -3.00052e-7 0.08594721 0.0219407 -0.002877593 0.08594363 0.0238195 -0.002795636 0.08594501 0.02617269 -0.001117765 0.08595103 0.02783411 7.90442e-4 0.08594679 0.02787458 -3.00052e-7 0.08594721 0.02794063 0.002638578 0.08594363 0.02654451 -0.0145148 0.08364725 0.01401364 -0.01537191 0.08364725 0.0218234 -0.02231538 0.08364725 0.01624506 -0.01754826 0.08364725 0.01272976 -0.01357835 0.08364725 0.0201072 -0.01284086 0.08364725 0.01689702 -0.02067857 0.08364725 0.01387768 -0.02091932 0.08304727 0.02128016 0.02237331 0.08304727 0.01846784 0.02072036 0.08304727 0.02144658 0.01467621 0.08364725 0.01387768 0.01288521 0.08364725 0.01664209 0.01518809 0.08364725 0.02171766 0.01780658 0.08364725 0.01272976 0.02150529 0.08364725 0.01457524 0.01347202 0.08364725 0.0199241 -0.02133947 0.08304727 -0.02097791 -0.01434367 0.08364725 -0.0142318 -0.01630413 0.08364725 -0.02237403 -0.02150595 0.08364725 -0.01469326 -0.01278907 0.08364725 -0.01760691 -0.01393681 0.08364725 -0.02073711 -0.01780724 0.08364725 -0.01284766 0.02170753 0.08304727 -0.02041107 0.01884567 0.08304727 -0.02237361 0.01417225 0.08364725 -0.01440262 0.01674026 0.08364725 -0.01303309 0.02000916 0.08364725 -0.01343786 0.02231472 0.08364725 -0.01636296 0.01612353 0.08364725 -0.02237308 0.01357793 0.08364725 -0.0202254 0.01284933 0.08364725 -0.01743525 -3.00052e-7 0.08594721 0.0156908 0.001411795 0.08594727 0.01559042 0.01577246 0.08594721 -8.46183e-4 -0.002404451 0.08594721 0.0155062 -0.01025724 0.08594715 0.01194459 -0.006182074 0.08594721 0.01446789 -0.01338654 0.08594715 0.00831604 -0.01577305 0.08594715 -8.46183e-4 -0.01528292 0.08594715 0.003917217 -0.01481324 0.08594715 -0.005536437 -0.009025037 0.08594721 -0.01302105 -0.01249277 0.08594715 -0.00972259 -0.004729747 0.08594721 -0.01512891 0.004729151 0.08594721 -0.01512891 -3.0002e-7 0.08594721 -0.0158537 0.009024441 0.08594721 -0.01302105 0.01481264 0.08594715 -0.005536437 0.01249217 0.08594715 -0.00972259 0.01338595 0.08594715 0.00831604 0.01528233 0.08594715 0.003917217 0.01025664 0.08594715 0.01194459 0.006181478 0.08594721 0.01446789 0.004739999 0.06360262 0.03559476 0.004827916 0.06193929 0.03557574 0.004418134 0.06051796 0.03549343 0.003499567 0.05918806 0.03555518 0.00230062 0.05831021 0.03563153 0.001355946 0.05783987 0.03509044 3.82604e-4 0.05773288 0.03561586 -0.001623272 0.05789428 0.03510451 -0.00352627 0.05922508 0.03564059 -0.004485368 0.06068527 0.0355947 -0.004851818 0.06233155 0.03559476 -0.004703998 0.06377899 0.03549343 -0.004030346 0.06524819 0.03555518 -0.003002107 0.06632083 0.03563153 -0.002153396 0.06694811 0.03509056 -0.001213431 0.06722253 0.03561586 5.65207e-4 0.06735914 0.03564059 0.001986622 0.0670256 0.03509062 0.003731846 0.06576585 0.03510463 0.004150152 0.06435215 0.03628665 0.003405511 0.06414675 0.03713208 0.002207458 0.06391447 0.03768569 0.003892838 0.06227785 0.03700453 0.002643108 0.06183981 0.03763031 0.003477156 0.0606715 0.0369783 0.001932442 0.06056523 0.03765732 0.001904487 0.05934715 0.03719723 7.92687e-4 0.05853462 0.03682756 -2.76529e-4 0.05976402 0.03763937 -0.001498639 0.05811667 0.03598743 -0.001297354 0.05907481 0.0372191 -0.002564728 0.05936068 0.03682756 -0.002332091 0.06103533 0.0376451 -0.003570199 0.06086432 0.03695929 -0.004094719 0.06282341 0.03685075 -0.003226518 0.06264269 0.0374453 -0.002558112 0.06469011 0.03741192 -0.003187119 0.06511193 0.03682762 -0.001478016 0.06636178 0.03682756 6.54725e-4 0.06644904 0.03697395 0.002924978 0.06610333 0.03615909 0.001939892 0.06555211 0.03728622 -3.66452e-4 0.09189677 0.02197015 -0.001586139 0.09202051 0.02229362 -0.002779781 0.09189325 0.02367335 -0.003027319 0.09207695 0.02585071 -0.002612233 0.09189492 0.02647471 -0.001099348 0.09190267 0.02782917 8.71861e-4 0.09189754 0.02786332 0.002687036 0.09189087 0.02646052 0.002891123 0.09189039 0.02385842 0.001098513 0.09190267 0.0220521 -0.0222783 0.09165155 0.01886987 -0.02235913 0.09164083 0.01640385 -0.02078801 0.09164357 0.01396751 -0.01857346 0.09163403 0.01290732 -0.01646798 0.0916453 0.01300752 -0.01462227 0.09164363 0.01392149 -0.01318317 0.09164363 0.01594454 -0.01294791 0.09164804 0.01841259 -0.01375848 0.0916453 0.02033209 -0.01524853 0.09164357 0.0217539 -0.01808345 0.09162223 0.0224328 -0.02106857 0.091641 0.02106755 0.01816856 0.09162139 0.02242362 0.01530998 0.09164363 0.02178972 0.01331222 0.09164315 0.01970207 0.01299464 0.091641 0.01640647 0.01456683 0.09164357 0.01396751 0.01680922 0.09164363 0.01290148 0.01928067 0.09164804 0.01309841 0.0210303 0.0916453 0.01423013 0.02233827 0.091641 0.0163269 0.0222882 0.0916509 0.01882874 0.02112621 0.091641 0.02100932 -0.01894909 0.09164142 -0.02233141 -0.01687711 0.09164345 -0.02246493 -0.01496422 0.09164524 -0.02165573 -0.01354408 0.09164798 -0.02016848 -0.01285594 0.091641 -0.01735591 -0.01422852 0.091641 -0.01434564 -0.01680946 0.09164357 -0.0130195 -0.01928102 0.09164804 -0.01321625 -0.02132868 0.09164363 -0.0146262 -0.02239465 0.09164363 -0.01686835 -0.02078801 0.09164357 -0.02138721 -0.02220356 0.09164983 -0.01933026 0.0222721 0.09164136 -0.01900774 0.02235853 0.09164083 -0.01652175 0.02078741 0.09164363 -0.01408559 0.0185731 0.09163403 -0.01302528 0.01646745 0.0916453 -0.01312536 0.01428616 0.091641 -0.01428741 0.01296019 0.09164363 -0.01686835 0.01315706 0.09164804 -0.01933974 0.01428848 0.09164524 -0.02108919 0.01638537 0.091641 -0.02239745 0.02132821 0.09164363 -0.02084642 0.01927101 0.09164983 -0.02226227 -0.001900553 0.09114515 0.01556038 -0.005973935 0.09115314 0.01455909 -0.008872449 0.09114718 0.01295411 -0.01173698 0.09115314 0.01050537 -0.01433444 0.09115308 0.006564974 -0.0155934 0.09114646 0.00230664 -0.015706 0.09114712 -0.001235961 -0.01500254 0.09115284 -0.00498265 -0.0128771 0.09115266 -0.009195804 -0.009601533 0.09115248 -0.01259261 -0.005548834 0.09113866 -0.01484084 -0.00136429 0.09114497 -0.01571816 0.002346932 0.09114712 -0.01563286 0.005570292 0.09114414 -0.01483285 0.008871912 0.09114718 -0.01307195 0.01144069 0.09114474 -0.0109412 0.01410877 0.09115898 -0.007147014 0.01563751 0.09113663 -0.00237441 0.01557636 0.09116148 0.002408683 0.01433384 0.09115308 0.006564974 0.01173639 0.09115314 0.01050537 0.008871793 0.09114718 0.01295411 0.005973339 0.09115314 0.01455909 0.002347052 0.09114712 0.01551491 0.004977822 0.06296193 0.03368759 0.003803491 0.06572037 0.03368759 0.001434743 0.06732058 0.0336883 -8.88288e-4 0.06736981 0.03368759 -0.002464413 0.06684452 0.03368759 -0.004520297 0.0646767 0.03368759 -0.004880905 0.06170165 0.03368759 -0.003804087 0.05937463 0.03368759 -0.001435339 0.05777448 0.0336883 0.001151859 0.05774986 0.03368759 0.002820193 0.05851298 0.03368759 0.004282176 0.06005829 0.03368759 -0.001829862 0.09214615 0.02769744 -6.80336e-6 0.09214568 0.02819067 -3.00052e-7 0.09189713 0.02794063 -3.00052e-7 0.09214711 0.02819061 9.91451e-4 0.09215003 0.02810233 0.002934515 0.09214532 0.0265401 0.003110229 0.09214466 0.02371436 0.001577079 0.09214663 0.02206403 -3.70857e-4 0.09214603 0.02165293 -3.00052e-7 0.09189713 0.0219407 -0.003171324 0.09214466 0.02388066 -0.01707905 0.09214556 0.02292954 -0.01380538 0.09214538 0.0213021 -0.02215808 0.09220993 0.02075701 -0.02024072 0.09214657 0.0222454 -0.02242618 0.09214442 0.01504212 -0.0228697 0.09214663 0.01862907 -0.01244133 0.09214699 0.01839458 -0.0130726 0.09214401 0.01479464 -0.01597499 0.09214657 0.01259952 -0.01916348 0.09214603 0.01249182 0.02291315 0.09214663 0.01839452 0.02246332 0.09214568 0.01523935 0.02024024 0.09214669 0.01299142 0.02154958 0.09214556 0.02130222 0.01236981 0.09214657 0.01819133 0.01369345 0.09214645 0.02111393 0.01642316 0.09214538 0.02281385 0.02070027 0.09217363 0.02224814 0.01659834 0.09214442 0.01232486 0.01322364 0.09214568 0.0146631 -0.0187003 0.09214651 -0.01250982 -0.01485377 0.09214401 -0.01313132 -0.01248204 0.09214568 -0.01648241 -0.0126214 0.09214699 -0.01923084 -0.02276414 0.09214699 -0.01915717 -0.02280414 0.09214556 -0.01622456 -0.02107733 0.09214675 -0.01368492 -0.02125233 0.09217512 -0.02188789 -0.01399385 0.09214568 -0.02160894 -0.01734489 0.09214556 -0.02307075 0.02184253 0.09216696 -0.02123653 0.02044826 0.09214669 -0.01322638 0.02257609 0.09214568 -0.01559919 0.02291709 0.09214693 -0.0182771 0.0125907 0.09214693 -0.01915717 0.01255065 0.09214556 -0.01622456 0.01472169 0.09214568 -0.01328295 0.01779395 0.09214669 -0.01243758 0.01783663 0.09214258 -0.02318572 0.0139088 0.09214597 -0.02150464 0.003381669 0.09214669 -0.01650089 0.009107232 0.09214633 -0.0142256 0.01366257 0.09214687 -0.009811282 0.01602351 0.09214669 -0.005122125 0.01677691 0.09214699 -5.88869e-5 0.01604938 0.09214681 0.004891574 0.01387727 0.09214681 0.009402275 0.01065772 0.09214687 0.01290023 0.006350278 0.09214687 0.01550966 5.57571e-5 0.0921365 0.01669144 -3.00052e-7 0.09214711 0.01669073 -3.00052e-7 0.09114712 0.0156908 -0.002496719 0.09214711 0.01650375 -0.006350874 0.09214687 0.01550966 -0.01065832 0.09214687 0.01290023 -0.01387786 0.09214681 0.009402275 -0.01654177 0.09214651 0.003414034 -0.01644939 0.09214574 -0.003813385 -0.01387768 0.09214681 -0.009520471 -0.01047229 0.09214681 -0.01319044 -0.006310343 0.09214687 -0.01564007 -0.00150603 0.09214681 -0.01677018 -3.00052e-7 0.09114712 -0.01580876 -8.54477e-7 0.0674476 0.03368759 2.54213e-7 0.0576474 0.03368759 0.01497131 0.09214717 0.02657395 -0.0114879 0.09214717 0.02822417 0.008656382 0.09214723 0.02920711 0.001979172 0.09214717 0.03041839 -0.00523281 0.09214723 0.03006225 -0.02729547 0.09214746 0.01375395 -0.02991676 0.09214723 0.006088554 -0.03051495 0.09214746 -0.002246975 -0.01844304 0.09214735 0.02433592 0.02480667 0.09214717 0.01771891 0.02808731 0.09214723 0.01193559 0.03030091 0.09214752 0.004142761 -0.01598674 0.09214723 -0.0260654 -0.00335884 0.09214729 -0.03040057 -0.009734869 0.09214723 -0.02904009 -0.02870595 0.09214723 -0.01048827 -0.02558302 0.09214723 -0.01677328 0.004514992 0.09214723 -0.03032588 0.01845401 0.09214723 -0.02436703 0.01276355 0.09214723 -0.0278055 0.02649241 0.0921474 -0.01535487 0.03017383 0.09214758 -0.005587816 0.004877567 0.0616821 0.03068763 0.003791391 0.05935907 0.03068763 0.001439988 0.05776888 0.03068763 -0.001058638 0.057729 0.03068763 -0.003188729 0.05875587 0.03068763 -0.004827797 0.0612573 0.03068763 -0.00475341 0.06383103 0.03068763 -0.003791987 0.06573593 0.03068763 -0.001440525 0.06732618 0.03068763 0.001408517 0.0673322 0.03068763 0.003798067 0.06572794 0.03068763 0.004757761 0.06381255 0.03068763 0.02327662 0.09114557 0.02123469 0.005250751 0.09117054 0.03104817 0.01187092 0.09112817 0.02916949 0.01803386 0.09115719 0.02582532 0.03148728 0.09114712 8.08948e-4 0.03094285 0.09114557 0.006085693 0.02816027 0.09114581 0.01433658 0.02442324 0.09113192 -0.02002722 0.0281924 0.09114557 -0.01421546 0.03103965 0.09111607 -0.006122171 0.0206871 0.09114712 -0.023813 0.01024287 0.09116113 -0.02989691 0.01660394 0.09114563 -0.02688312 -0.006789743 0.09113192 -0.03086709 0.001870632 0.09114581 -0.03163033 -0.01928859 0.09113198 -0.02502292 -0.01337486 0.09114557 -0.02863097 -0.02317529 0.09114712 -0.021393 -0.0315324 0.09113192 -0.001040458 -0.03055799 0.09114557 -0.007898867 -0.02738964 0.09111613 -0.01587241 -0.0254864 0.09113192 0.01853394 -0.02893006 0.09114557 0.01252299 -0.03098124 0.09114557 0.005892217 -0.02071887 0.09114742 0.02373105 -0.008693099 0.09113192 0.03026717 -0.01510202 0.09114563 0.02763891 -0.001837372 0.09114557 0.03143483 -8.54502e-7 0.05763775 0.03068763 2.54422e-7 0.06745731 0.03068763 0.001634657 0.08364123 0.03139883 0.006790459 0.08364862 0.03072279 0.01285469 0.08363252 0.02874219 0.0178622 0.08364117 0.02588713 0.02190142 0.0836485 0.02261149 0.02522534 0.08363991 0.01880151 0.02791726 0.0836538 0.0146178 0.03045082 0.08365374 0.008152902 0.03136569 0.08364009 0.002808868 0.03146934 0.0836538 -0.002169966 0.03024232 0.08365368 -0.009008049 0.02822762 0.08364027 -0.01403158 0.02570682 0.08365392 -0.01833277 0.0210784 0.08365368 -0.02351927 0.01562708 0.0836333 -0.02745574 0.01034629 0.08364075 -0.02981191 0.003909707 0.08364641 -0.03135615 -0.004396021 0.08365148 -0.03130608 -0.01141196 0.08365356 -0.02946084 -0.0162397 0.08363705 -0.02704656 -0.02032196 0.08365404 -0.02417957 -0.0251168 0.08365345 -0.01913404 -0.02796244 0.08363723 -0.01455616 -0.02994221 0.0836541 -0.009970903 -0.03139162 0.0836535 -0.00312519 -0.03130251 0.08365386 0.003799259 -0.02975487 0.08363223 0.01040065 -0.02732527 0.08364146 0.01561278 -0.02439379 0.08364897 0.01990568 -0.01987856 0.08363229 0.02442771 -0.01507675 0.08364135 0.02759897 -0.01033067 0.0836488 0.02972215 -0.004121601 0.08363246 0.0312103 0.004950404 0.06190085 0.02769231 0.004343986 0.06003022 0.02769297 0.002741694 0.05836999 0.02773821 0.001394331 0.05777114 0.02768796 -0.001330912 0.0577619 0.02768754 -0.003242075 0.05872279 0.02769094 -0.004513204 0.06043469 0.027691 -0.004963696 0.06210559 0.027691 -0.004703104 0.06428569 0.02769094 -0.003529131 0.06606572 0.027691 -0.001576602 0.06731134 0.02768796 0.001651585 0.0672971 0.02768814 0.003621518 0.06600075 0.02775299 0.004719495 0.06423896 0.02769094 0.01927286 0.08315241 -0.02447873 0.02284067 0.08314239 -0.02117854 0.02767145 0.08315771 -0.01422351 0.0291872 0.08314239 0.01070392 0.02518552 0.08315783 0.01816284 0.01195496 0.08315789 0.02863651 0.008429646 0.08315294 0.02988606 0.004752576 0.083157 0.03066223 -0.003579974 0.08337634 0.03099095 2.58358e-4 0.08332997 0.03117871 -0.008458435 0.08315306 0.02987807 -0.01199847 0.083157 0.02861899 -0.02285343 0.08315318 0.02104783 -0.02521383 0.08315706 0.01812505 -0.02918201 0.08314323 0.01072102 -0.02918213 0.08315348 -0.01083761 0.0036785 0.08319503 -0.03097468 3.32497e-4 0.08333706 -0.03128921 -3.00052e-7 0.08364725 -0.03155851 -3.00052e-7 0.08335936 -0.03127068 -0.002431988 0.08336567 -0.03116708 -0.004786849 0.08313471 -0.03077518 8.58266e-4 0.0674737 0.02773916 -3.00052e-7 0.06744748 0.0276876 -7.74666e-4 0.06749004 0.02774006 -8.58842e-4 0.0576213 0.02773916 -3.00052e-7 0.05764758 0.0276876 4.6295e-4 0.05757868 0.02773839 -0.02714949 0.08315336 0.0151304 -1.82829e-6 0.08336132 0.03115046 -0.008448719 0.08314228 -0.02999848 -0.001212 0.08308494 -0.03117799 0.001209914 0.08309018 0.03105086 -0.003652036 0.08307683 0.03085923 0.01519387 0.08315432 0.02708667 0.01926225 0.08314245 0.02436852 0.0228331 0.08315277 0.02106934 0.02713847 0.08315426 0.01514756 0.03050786 0.08315265 0.006026089 0.03108537 0.08314239 0.001150429 0.03094333 0.08314055 -0.003153264 0.03051644 0.08316755 -0.006145715 0.02919185 0.08315253 -0.01081055 0.0258705 0.08315402 -0.01733487 0.01626163 0.08314627 -0.02654767 0.01305127 0.08315658 -0.02829837 0.008439421 0.08314239 -0.03000092 0.004149913 0.08289659 -0.03106886 -1.83109e-6 0.08293318 -0.03126835 -0.01302438 0.08315449 -0.02831143 -0.0162186 0.08314567 -0.02657443 -0.01925069 0.0831536 -0.02449625 -0.02284747 0.08314222 -0.02117198 -0.02585613 0.08315193 -0.01735824 -0.02765047 0.08315706 -0.01426625 -0.03051221 0.08314216 -0.006123423 -0.03108674 0.08315557 -0.00127083 -0.03098893 0.08314561 0.002350747 -0.03051394 0.0831533 0.005997478 -0.01924926 0.08314305 0.02437984 -0.01521146 0.08315312 0.02707803 -1.11527e-4 0.08295649 -0.03128987 -0.003835618 0.0661959 0.02793866 -0.005283653 0.06287705 0.0279389 -0.004487276 0.05982327 0.02793991 -0.001834034 0.05751264 0.02794897 -3.00052e-7 0.05754756 0.02774065 -3.00052e-7 0.05734759 0.02794063 1.99434e-5 0.05734729 0.02793616 0.004410266 0.05962055 0.02793866 0.00525999 0.06314039 0.0279389 0.001241683 0.06769341 0.0279389 -3.00052e-7 0.06754744 0.02774065 -0.01493829 0.0826599 0.02771705 -0.02722251 0.08265554 0.01587492 0.008295416 0.08266341 0.03037106 0.003464877 0.08264726 0.03124946 0.01506245 0.08265173 0.02765965 0.02091294 0.08264851 0.02355509 0.0256108 0.08264935 0.01835358 0.02899283 0.08263665 0.01236379 0.03053539 0.08264726 0.00767368 0.03146004 0.08264935 0.002221882 0.03120571 0.08263665 -0.004654645 0.03006303 0.08264726 -0.009462058 0.02799898 0.08264935 -0.01458477 0.02418112 0.08263677 -0.02031236 0.0206871 0.08264726 -0.023813 0.01625138 0.08264929 -0.02709305 0.009997427 0.08263683 -0.02997541 -3.05338e-4 0.08264929 -0.03160059 -0.007145702 0.08263695 -0.03078192 -0.01185387 0.08264726 -0.02924311 -0.01677209 0.08264917 -0.02677363 -0.02217292 0.08263695 -0.02249413 -0.02538156 0.08264726 -0.01871412 -0.02827572 0.08264911 -0.01404005 -0.0306375 0.08263707 -0.007564127 -0.03139227 0.08264726 -0.002660155 -0.03141081 0.08264899 0.002830982 -0.02999544 0.08264911 0.009700238 -0.02431535 0.08264726 0.019966 -0.02044874 0.08264923 0.0239579 -0.008582174 0.08265495 0.03029853 -0.001801252 0.08265113 0.03142958 0.01443034 0.05654758 0.02794063 -0.0143947 0.05654662 0.02794122 -0.0103234 0.05475461 0.02973365 0.01083499 0.05490928 0.02957898 -0.003841757 0.05315136 0.03132623 0.003531277 0.05314308 0.0313366 -3.00052e-7 0.05304765 0.03144055 0.01440161 0.06854802 0.02794104 -0.01443094 0.06854742 0.02794063 0.01033383 0.07033646 0.02972972 -0.01084828 0.07018077 0.02957403 -0.003535032 0.07195186 0.03133648 0.003845095 0.07194381 0.03132587 -3.00052e-7 0.07204741 0.03144055 0.01182651 0.05044764 0.02918517 0.01772081 0.05044758 0.02603864 -3.00052e-7 0.07204741 0.03144055 -0.01148569 0.05044788 0.02931904 -0.01772403 0.05044716 0.02607339 -0.004373133 0.0504477 0.03119742 0.004154026 0.05044758 0.03121793 -3.00052e-7 0.05304765 0.03144055 -0.02341485 0.05044764 0.02107685 -0.02840971 0.05044764 0.01382726 -0.03101581 0.05044764 0.005685567 -0.03152137 0.05044764 -0.001235902 -0.03050106 0.05044764 -0.008100509 -0.0271638 0.05044764 -0.01624739 -0.02177298 0.05044764 -0.02288252 -0.01625514 0.05044764 -0.0270912 -0.009950339 0.05044764 -0.02999156 -0.001304805 0.05044764 -0.03165364 0.009024381 0.05044764 -0.03036534 0.01837599 0.05044764 -0.02579289 0.02454322 0.05044764 -0.01987254 0.02828192 0.05044764 -0.01402604 0.03065168 0.05044764 -0.00750339 0.03153777 0.05044764 -6.20202e-4 0.03089714 0.05044764 0.006290078 0.02801394 0.05044764 0.01460808 0.02299702 0.05044764 0.02152997 0.01699578 0.05044764 -0.02607351 0.01975446 0.05044764 -0.02404588 0.0222733 0.05044764 -0.02172708 0.02452176 0.05044764 -0.0191453 0.02647262 0.05044764 -0.01633179 0.02810209 0.05044764 -0.0133208 0.02939045 0.05044764 -0.01014882 0.03032201 0.05044764 -0.006854295 0.03088551 0.05044764 -0.003477394 0.03107416 0.05044764 -5.89598e-5 0.03088551 0.05044764 0.003359496 0.03032201 0.05044764 0.006736397 0.02939045 0.05044764 0.01003086 0.02810209 0.05044764 0.01320284 0.02647262 0.05044764 0.01621389 0.02452176 0.05044764 0.01902735 0.0222733 0.05044764 0.02160912 0.01975446 0.05044764 0.02392792 0.01699578 0.05044764 0.02595549 0.01403081 0.05044764 0.02766734 0.01089555 0.05044764 0.02904254 0.007628023 0.05044764 0.03006464 0.004267871 0.05044764 0.03072094 8.55937e-4 0.05044764 0.03100365 -3.00052e-7 0.05044764 0.03144055 -0.002566397 0.05044764 0.03090929 -0.005957603 0.05044764 0.03043907 -0.009276449 0.05044764 0.02959865 -0.01248276 0.05044764 0.02839815 -0.0155375 0.05044764 0.0268523 -0.01840364 0.05044764 0.02497977 -0.02104645 0.05044764 0.02280324 -0.02343374 0.05044764 0.02034926 -0.02553659 0.05044764 0.01764744 -0.02732944 0.05044764 0.01473081 -0.02879059 0.05044764 0.01163464 -0.02990221 0.05044764 0.008396446 -0.03065091 0.05044764 0.005055665 -0.03102755 0.05044764 0.001652836 -0.03102755 0.05044764 -0.001770734 -0.03065091 0.05044764 -0.005173623 -0.02990221 0.05044764 -0.008514404 -0.02879059 0.05044764 -0.01175254 -0.02732944 0.05044764 -0.01484876 -0.02553659 0.05044764 -0.01776546 -0.02343374 0.05044764 -0.02046716 -0.02104645 0.05044764 -0.0229212 -0.01840364 0.05044764 -0.0250976 -0.0155375 0.05044764 -0.0269702 -0.01248276 0.05044764 -0.02851611 -0.009276449 0.05044764 -0.02971655 -0.005957603 0.05044764 -0.03055709 -0.002566397 0.05044764 -0.03102725 8.55937e-4 0.05044764 -0.03112161 0.004267871 0.05044764 -0.03083884 0.007628023 0.05044764 -0.03018254 0.01089555 0.05044764 -0.02916055 0.01403081 0.05044764 -0.0277853</float_array>
          <technique_common>
            <accessor source="#eSeries_UR3e_010-mesh-positions-array" count="607" stride="3">
              <param name="X" type="float"/>
              <param name="Y" type="float"/>
              <param name="Z" type="float"/>
            </accessor>
          </technique_common>
        </source>
        <source id="eSeries_UR3e_010-mesh-normals">
          <float_array id="eSeries_UR3e_010-mesh-normals-array" count="3243">-0.7020736 0.1429812 0.6976025 -0.6952663 -0.03289043 0.7179993 0.657024 0.3040249 0.6898465 0.7089565 0.05638217 0.7029948 -0.6976004 0.1430034 -0.7020711 -0.7179993 -0.03301107 -0.6952607 0.7033004 0.2705033 -0.6574166 0.01157248 -0.05427879 0.9984588 0.05402088 -0.01289451 0.9984566 0.01046603 0.05743509 0.9982944 -0.02167165 0.05168247 0.9984284 -0.04673367 -0.02199715 0.9986652 -0.02835071 -0.05030983 0.9983312 -0.3898088 0.8406985 0.3758658 0.05061352 0.8560619 0.5143893 -0.04729717 0.8562052 0.5144666 0.3759455 0.8421711 0.3865398 0.5353924 0.8443869 -0.01912939 0.3753904 0.8444055 -0.3821799 -0.04252588 0.8563987 -0.514561 0.05197072 0.8560132 -0.5143349 -0.3115879 0.8448302 -0.4349424 -0.5374624 0.8412041 -0.05924642 0 1 0 0 1 1.17769e-5 0 1 -2.54519e-6 0 1 1.16727e-6 0 1 -2.17518e-6 0 1 2.77411e-6 0 1 -1.3266e-5 0 1 1.65177e-6 0 1 1.66492e-6 0 1 -5.05637e-6 0.02321714 0.9991572 -0.03385114 0 1 -2.06507e-6 0.3555114 0.9086117 -0.219172 0 1 1.50814e-6 3.02335e-6 1 4.43486e-6 -2.69476e-6 1 -1.80778e-6 -4.53144e-5 1 -5.34785e-5 0 1 5.4565e-6 -2.90564e-6 1 -1.97642e-6 -1.4148e-6 1 -2.88705e-6 -1.31177e-6 1 -2.16421e-6 -9.44738e-7 1 -3.09892e-6 -9.00127e-7 1 1.39884e-6 -9.44738e-7 1 -6.88462e-7 -1.12779e-6 1 0 -1.1496e-6 1 4.60901e-6 -3.00381e-7 1 -2.22667e-6 3.75565e-6 1 -3.91016e-6 -2.71363e-6 1 4.23791e-6 8.25006e-7 1 0 2.32606e-5 1 -8.47792e-6 7.00679e-6 1 -5.8322e-6 1.90623e-5 1 6.34794e-6 8.81499e-6 1 2.90866e-6 1.64889e-5 1 1.3085e-5 8.95921e-6 1 4.57055e-6 0.8580961 0.4541897 0.2395476 0.8082682 0.1005369 0.5801679 0.7252017 0.1431445 0.6734926 0.411812 0.04527443 0.9101436 0.4281987 0.0658428 0.9012827 0.7931786 -0.2145773 0.5699336 0.4818688 -0.1388419 0.8651736 0.7206354 -0.474258 0.5057313 0.5121662 -0.6507389 0.5605574 0.2710162 -0.9089221 0.3168768 0.250267 -0.8442543 0.4739211 -0.1432915 -0.9547219 0.2607179 -0.05662828 -0.8237028 0.5641871 -0.08528149 -0.779623 0.6204153 0.01809138 -0.5399345 0.8415126 -0.3489527 -0.7112002 0.6102674 -0.3495058 -0.3713583 0.860197 -0.7126497 -0.4512236 0.5371478 -0.8096364 -0.1802113 0.5585811 -0.870464 0.1222464 0.4768106 -0.5284866 0.1860343 0.8283074 -0.4779965 0.6536449 0.5867433 -0.3745474 0.5121892 0.7729015 0.3560693 0.8390049 0.4114431 0.3084492 0.7951918 0.5220432 0.3335918 0.6984508 0.6331533 0.5319955 0.4781622 0.6988145 0.8402562 0.03823024 0.5408402 0.06229257 -0.01357007 0.9979657 0.4056025 -0.2072747 0.8902381 0.802571 -0.26241 0.5357432 0.3986456 -0.3320532 0.8548815 0.5621094 -0.5681141 0.6010652 0.1205686 -0.3531988 0.9277466 0.3479325 -0.7387177 0.5772687 0.07911086 -0.5004773 0.8621276 -0.1829251 -0.2999682 0.9362465 -0.4832049 -0.7351824 0.4754156 -0.4969464 -0.8222905 0.2772774 -0.4159492 -0.3516155 0.8386614 -0.6509418 -0.4863501 0.5828709 -0.2493803 -0.01842689 0.9682303 -0.4632455 -0.149209 0.8735791 -0.5770424 -0.1096544 0.8093196 -0.8049444 -0.1842612 0.5640144 -0.3475577 0.1286029 0.9287976 -0.5723012 0.2349224 0.7856735 -0.7758353 0.3132276 0.5476936 -0.7571989 0.3233361 0.5675417 -0.1592978 0.1734092 0.9718815 -0.6461496 0.5844616 0.490811 -0.2367434 0.4533491 0.8593179 -0.393068 0.7879695 0.4739216 -0.4247201 0.8480323 0.316945 -0.07943272 0.5711416 0.8169993 -0.07241714 0.8215122 0.5655736 -0.070881 0.8204364 0.5673272 0.1146733 0.2530713 0.9606274 0.08957874 0.4395252 0.8937523 0.5742897 0.7976773 0.1841255 0.7403184 0.5464429 0.3915724 0.6031791 0.4689664 0.645171 0.3585412 0.2761139 0.8917452 3.72409e-4 0.01180058 0.9999304 0.254574 -0.01835983 0.966879 0.6996415 0.03055286 0.7138406 0.7560949 0.003641843 0.6544519 0.9933789 -0.01353287 0.1140843 0.9987488 0.03590703 -0.03480607 0.8329383 0.002414047 -0.5533605 0.7035188 0.01438152 -0.7105311 0.6670216 -0.002686262 -0.7450336 0.02118277 -9.03704e-4 -0.9997752 0.01734244 -0.002122521 -0.9998474 -0.584099 0.006461322 -0.8116568 -0.611495 -0.006193161 -0.7912241 -0.9939584 0.006552398 -0.109563 -0.9969158 -0.006811499 -0.07818287 -0.721619 0.006620526 0.6922588 -0.7097992 -6.75825e-4 0.7044037 -0.05585104 -0.002000868 0.9984371 0.9994276 -0.008554518 -0.03273308 0.9997543 0.005046606 0.0215888 0.8403853 -0.00616002 0.5419545 0.8225409 0.004862248 0.5686852 0.431802 -0.004227936 0.9019585 0.3441964 0.0233159 0.9386082 -0.04736691 -0.02827489 0.9984773 -0.4435742 0.02880686 0.8957746 -0.3897616 0.005371272 0.9209001 -0.8148501 -0.004275321 0.5796561 -0.8645989 0.02277433 0.5019463 -0.9949943 -0.0312922 0.09490698 -0.9741892 0.0293613 -0.2238154 -0.9211777 -0.009806394 -0.3890189 -0.6903305 0.004798054 -0.7234783 -0.6913511 0.004385113 -0.7225058 -0.2328595 -0.004861116 -0.9724982 -0.1898683 0.01046288 -0.9817538 0.9863722 -7.67094e-4 -0.1645275 0.887127 0.01086938 -0.4613974 0.8760471 0.003287553 -0.4822145 0.4157827 -0.01527112 -0.9093358 0.3848997 -0.003226339 -0.9229529 0.8786911 -0.03180539 -0.47633 0.2164738 -0.002077281 -0.9762862 0.2358331 0.00516498 -0.97178 0.7224864 -0.004779934 -0.6913686 0.7225331 -0.004755556 -0.69132 0.9842801 0.01478505 -0.1759949 0.9952557 -0.01645588 -0.09589296 0.8404955 0.004458665 0.5418001 0.8392398 0.005370378 0.543735 0.4293608 -0.004275202 0.903123 0.3441986 0.02277427 0.9386206 -0.07934147 -0.0312922 0.9963563 -0.4460856 0.04099339 0.8940511 -0.5431094 0.003976345 0.8396526 -0.8481617 -0.02754354 0.5290211 -0.9677559 0.04659938 0.2475424 -0.9995847 -0.02083289 -0.01991033 -0.3489263 -7.28863e-4 -0.93715 -0.3618984 -0.001479327 -0.9322164 -0.4311167 -0.02553099 -0.901935 -0.87427 0.01660591 -0.4851561 -0.882485 0.01099318 -0.470212 -0.8616222 0.01275908 -0.5073899 0.06431305 -0.007245361 0.9979035 -0.02160561 0.009821593 0.9997184 -0.3895428 -0.01743912 0.9208433 -0.5686041 0.02140623 0.8223328 -0.7231519 -0.01358079 0.6905556 -0.9386522 0.02161556 0.3441873 -0.9712404 -0.01558881 0.2375907 -0.9098658 0.00541228 -0.4148677 -0.9082563 0.007124483 -0.4183537 -0.4570289 -0.006084859 -0.8894311 -0.3709604 0.02634453 -0.9282751 0.07927459 -0.03129804 -0.9963614 0.4461131 0.04099106 -0.8940374 0.5671268 -0.005662441 -0.8236111 0.9030113 -0.01641356 -0.4293034 0.9680266 0.04023665 -0.2475996 0.9967181 -0.02408599 0.07728588 0.1652314 -9.98255e-4 0.9862544 0.461414 0.01137745 0.887112 0.45673 0.013058 0.8895096 0.8234733 -0.02583581 0.5667666 0.9227966 0.01898926 0.3848195 0.7613033 0.04659444 0.6467197 -0.9993742 -0.006690382 0.03473567 -0.9998904 0.005202353 -0.01386475 -0.8403816 -0.006162166 -0.5419601 -0.7850957 0.02628672 -0.6188164 -0.4315559 -0.03102344 -0.9015526 -0.122837 0.02915817 -0.9919985 0.04743403 -0.009909987 -0.9988253 0.4701583 0.005850553 -0.8825628 0.4705643 0.006009161 -0.8823453 0.8894605 -0.006088137 -0.4569715 0.9164711 0.01563769 -0.3997954 0.9966573 -0.01944571 0.07934802 0.9672996 0.02292346 0.2525985 0.8395737 -0.01594316 0.5430119 0.6446248 0.02525097 0.764082 0.5292571 -0.01474392 0.8483335 -0.04681336 0.004583477 0.9988932 -0.942867 0.00755167 0.3330838 -0.8895146 -0.01612609 0.4566223 -0.5654716 0.01680767 0.8245965 -0.5668252 0.01736623 0.8236551 -0.09226149 -0.008325576 0.9957 0.007466077 -0.01677864 0.9998314 0.02206951 0.008286535 -0.9997222 0.2650192 0.006289601 -0.9642227 0.2386713 -0.01301139 -0.9710133 0.526279 0.02485102 -0.8499488 0.4844191 -0.004049599 -0.8748267 0.6495299 -0.02545225 -0.75991 0.7568279 0.03468596 -0.6526932 0.8344713 -0.03307926 -0.5500578 0.9177671 0.03402072 -0.3956593 0.9585324 -0.03053057 -0.2833439 0.9943662 0.02768212 -0.1023213 0.9993784 -0.01526719 -0.03177791 0.9795966 0.01428943 0.2004656 0.9828234 0.001160323 0.1845447 0.8745071 0.01551705 0.4847644 0.8927202 -0.01545292 0.4503464 0.6891076 0.01669067 0.7244669 0.7197314 -0.01709043 0.6940423 0.4404555 0.01969063 0.8975586 0.4849709 -0.01825451 0.8743399 0.151474 0.01396942 0.9883626 0.2051761 -0.02192163 0.9784796 -0.1514352 0.02639108 0.9881149 -0.02294015 -0.03208345 0.999222 -0.2408626 -0.01629191 0.9704226 -0.4404524 0.02016538 0.8975495 -0.470587 -0.005167067 0.8823384 -0.6888851 0.03044313 0.7242311 -0.6383966 -0.01119291 0.7696262 -0.8741728 0.03168684 0.4845803 -0.8175641 -0.03057056 0.5750256 -0.9791453 0.03354042 0.2003734 -0.9518221 -0.03438085 0.3047175 -0.994399 0.02646946 -0.1023244 -0.9994786 -0.02971494 -0.01262539 -0.9177665 0.03402048 -0.3956606 -0.9576882 -0.0288434 -0.286359 -0.7568284 0.03468638 -0.6526928 -0.8344713 -0.0330792 -0.5500577 -0.526279 0.02485108 -0.8499488 -0.6495299 -0.02545225 -0.75991 -0.4844177 -0.004049658 -0.8748275 -0.2290817 0.007887005 -0.9733753 -0.01069962 -0.01259654 -0.9998635 -0.2548044 0.03179419 -0.9664699 0.9929783 0.05125319 0.1066175 0.9199599 0.3916509 -0.01683706 0.9031443 0.4281468 0.03194808 0.5597662 0.8286488 0.001729726 0.5845332 0.80916 -0.0598433 0.2632305 0.9597129 0.0982908 0.02121329 0.999722 -0.01030033 -0.3161253 0.9485243 0.01914608 -0.0772714 0.9950197 0.06296801 -0.2751438 0.9613516 -0.009952127 -0.7255165 0.6880339 -0.01533704 -0.5660423 0.8218246 0.06481069 -0.7209012 0.6926611 -0.02285236 -0.9050667 0.4102926 0.1118673 -0.9918911 0.1202439 -0.041152 -0.9947936 0.1003184 -0.01794785 -0.9069656 -0.4197011 -0.03555822 -0.9724682 -0.2164509 0.0863409 -0.8344507 -0.545687 0.07692736 -0.5596992 -0.8285378 0.01618105 -0.5743996 -0.8185452 -0.006988108 -0.009522497 -0.9998751 -0.01261204 -0.09796655 -0.9926568 0.07095909 0.1327728 -0.9901586 0.04424363 0.4159741 -0.9093739 -0.002127408 0.4352347 -0.9000371 0.02245742 0.7263187 -0.6871761 -0.01581895 0.5922071 -0.8023258 0.07459187 0.8218342 -0.5638428 0.08166933 0.9723867 -0.2329618 -0.01389265 0.9595063 -0.2724919 -0.07138597 0.8375379 0.04263651 -0.5447133 0.3538782 0.8453845 -0.4001194 0.2527197 0.253075 -0.9338555 0.07480216 0.708193 -0.7020452 -0.1621177 0.6977097 -0.6977959 -0.06286758 0.7056549 -0.7057613 -0.06518763 0.7020153 -0.7091721 -0.4223771 0.7204832 -0.5500015 -0.4759339 0.6486572 -0.5939115 -0.7069809 0.7050453 -0.05558067 -0.769982 0.636256 -0.04802179 -0.4970716 0.7104604 0.4981625 -0.4248986 0.8141783 0.3956956 -0.1945278 0.3365528 0.9213529 -0.07509762 0.7043685 0.7058508 0.04867959 0.785622 0.6167889 0.2363952 0.7655601 0.5983604 0.6331835 0.4967403 0.593572 0.5364148 0.8438929 -0.01020312 0.1876752 0.4624207 -0.866571 -0.1419832 0.8111274 -0.5673739 -0.402234 0.4283204 -0.8091659 -0.4139422 0.8007925 -0.432878 -0.7668268 0.5546492 -0.3230184 0.6802321 0.6319229 -0.3714269 0.4966184 0.8466327 -0.1912676 0.4959642 0.61531 -0.6127097 0.2439702 0.8171567 -0.522239 0.2747502 0.7766274 0.5668884 0.5858628 0.3077284 0.749712 0.4488697 0.8450829 0.2904325 0.9005784 0.4202589 0.1110907 0.6475676 0.7616126 -0.02454721 -0.6717146 0.670611 -0.3147706 -0.6990447 0.7120844 0.0653631 -0.8396616 0.5228914 0.1468095 -0.4494973 0.834091 0.3197568 -0.5445809 0.4292752 0.7205238 -0.2884374 0.7588898 0.5838581 -0.03945308 0.6538269 0.7556149 -0.02681207 0.6110696 0.7911227 -0.6280186 0.7780413 -0.01564061 -0.8677766 0.4813425 0.1235849 -0.5031391 0.804558 0.3154956 -0.6048997 0.525322 0.5984424 -0.342965 0.7741113 0.5320967 -0.2200487 0.8664354 -0.4481834 -0.5131372 0.7103078 -0.4818226 -0.6213011 0.7116883 -0.3278486 -0.7175061 0.6100239 -0.336238 0.8252677 0.4233654 -0.3737579 0.4212929 0.8123103 -0.4033167 0.4615197 0.4880905 -0.7407883 0.1271651 0.8291102 -0.5444312 -0.1275983 0.2829644 -0.9506051 -0.1574979 0.4873443 0.8588889 -0.05440366 0.7439392 0.6660292 0.2721061 0.7735364 0.5723633 0.5315464 0.3594701 0.766968 0.4670182 0.8311069 0.3019195 0.9112004 0.3480349 0.2204216 0.5341342 0.8437978 -0.05202144 0.04941016 0.7964642 -0.6026636 -0.1477752 0.3727509 -0.9160892 -0.2435082 0.8453133 -0.4755515 -0.7631996 0.3548914 -0.5399803 -0.5308067 0.8122001 -0.2420238 -0.8366787 0.5460284 0.04268223 -0.5798491 0.8019213 0.1438663 0.6718351 0.7387301 0.05399566 0.7816107 0.6236702 0.01096779 0.5539665 0.7897869 -0.263359 0.6966295 0.5386026 -0.4739353 0.35128 0.7834697 -0.5126184 0.3539122 0.6020257 -0.7157592 0.287822 0.7777768 0.5587681 0.5150213 0.7815485 0.3520441 0.6765323 0.6301797 0.3810219 -0.7219583 0.5526505 0.4163579 -0.4331979 0.8015305 0.4121753 -0.3240463 0.5569356 0.7647331 -0.3224398 0.5913423 0.7391527 0.03914892 0.7839719 0.6195607 0.2651751 0.4252156 0.8653751 -0.5649529 0.7721202 0.2909615 -0.366776 0.7602065 0.5362477 -0.2734932 0.7790639 -0.5641464 -0.6273423 0.5382385 -0.5627976 -0.4987986 0.8044407 -0.3226069 -0.828823 0.5495173 -0.1052775 -0.6322113 0.774479 0.02216494 -0.7695552 0.5723139 0.2832698 0.6699069 0.7404293 0.05467587 0.7816121 0.6236684 0.01096969 0.5397902 0.7950879 -0.276517 0.7231902 0.4382727 -0.5337725 0.2779811 0.8045774 -0.5247685 0.2251832 0.5277121 -0.8190314 0.03413563 0.7750968 -0.6309198 -0.2370985 0.5542522 -0.7978653 -0.4075343 0.3745357 0.8328499 -0.02615475 0.8645105 0.5019339 0.3765278 0.2922234 0.8791089 0.356147 0.7416549 0.5684253 0.5690738 0.7359035 0.3668802 0.6773829 0.6298257 0.3800949 -0.162074 0.7373105 0.6558241 -0.2968209 0.5948812 0.7470033 -0.3125222 0.7486636 0.5846647 -0.4422266 0.7206491 0.5339481 -0.5612075 0.5913844 0.5790603 -0.5320293 0.7609859 0.3712754 -0.6942275 0.6291686 0.3495641 -0.6064975 0.7700698 0.1978718 -0.7805811 0.6141748 0.1161147 -0.6493608 0.7603818 -0.01225286 -0.7570888 0.6437718 -0.1112405 -0.6209133 0.7619583 -0.1840825 -0.6950475 0.6363011 -0.3347089 -0.5377288 0.7649859 -0.3544637 -0.565232 0.6402027 -0.5202436 -0.4331672 0.7466116 -0.5049133 -0.3890678 0.6604297 -0.6422296 -0.3378446 0.7143712 -0.612809 -0.1793706 0.7147247 -0.6760139 -0.1493771 0.5940152 -0.7904635 0.1741429 0.894172 -0.4124692 -0.05291277 0.7060948 -0.7061377 0.05289644 0.7060969 -0.7061368 0.04818642 0.6997371 -0.7127736 0.171315 0.7274679 -0.6644107 0.1684557 0.7139989 -0.6795795 0.3378444 0.7143714 -0.6128088 0.3890668 0.6604278 -0.6422322 0.4331687 0.7466132 -0.5049096 0.5652313 0.6402035 -0.5202433 0.537729 0.7649846 -0.3544661 0.7341536 0.5952576 -0.3266294 0.6061581 0.7746121 -0.1804121 0.7128458 0.7009589 -0.0225299 0.7895436 0.6136125 0.01002639 0.625195 0.7714101 0.1185655 0.696511 0.6452049 0.3139794 0.6170923 0.7227076 0.311273 0.5288422 0.6924846 0.4907047 0.4970105 0.7234023 0.4792388 0.3654707 0.6934257 0.6209605 0.3346874 0.7275689 0.5988554 0.166457 0.6867187 0.7076084 0.1399734 0.7264109 0.6728556 0.04439634 0.7264685 0.6857642 -0.04133951 0.6595721 0.7505037 -0.05434966 0.6862004 0.7253794 -0.03461813 0.9911047 0.1285029 0.02920776 0.9983749 -0.04893422 3.26102e-4 0.9999995 8.89687e-4 -1.50353e-4 1 -2.32704e-4 1.65355e-5 1 2.26409e-4 -1.97854e-4 0.9999998 -5.80597e-4 0.01756864 0.9992985 0.03307533 2.73294e-4 1 -4.74393e-5 -2.08042e-4 1 0 -9.55067e-5 0.9999999 -5.00573e-4 0.002542197 0.9999968 1.44471e-4 2.58961e-4 1 -7.77443e-5 3.6715e-5 0.9999998 -6.97319e-4 -0.004087865 0.9999873 0.002977848 -0.01771932 0.9995061 -0.02595525 -1.30177e-4 1 2.76187e-6 -1.59063e-4 1 4.97897e-6 5.33472e-4 0.9999998 4.40233e-4 -6.80255e-4 0.9999996 6.18333e-4 -5.08235e-4 0.9999995 8.45348e-4 0.05206418 0.9975326 -0.04709863 7.61488e-4 0.9999996 -5.16737e-4 6.9402e-4 0.9999998 -2.60619e-4 4.4554e-5 1 6.57307e-5 -2.62896e-4 1 2.99205e-4 3.78298e-4 1 -8.92256e-7 0.09944176 0.9913301 -0.08588492 -0.001150071 0.9999964 -0.002441525 4.99928e-4 0.9999996 -8.33128e-4 -0.001003384 0.9999996 7.73456e-5 1.4244e-4 1 -2.25135e-4 2.13616e-4 1 3.52366e-4 2.81965e-4 0.9999999 2.49798e-4 0.001245737 0.9999992 2.29222e-4 5.91727e-4 0.9999998 2.75059e-4 5.76016e-4 0.9999998 2.89234e-4 5.64387e-4 0.9999998 -2.57156e-4 -0.007032632 0.9999703 -0.00318849 7.71662e-4 0.9999997 -3.08347e-4 -1.87185e-4 1 2.92024e-4 -0.7138851 0.2635002 -0.6487957 -3.80503e-4 1 -2.54957e-4 -7.87389e-5 1 7.10906e-6 -3.11039e-5 1 3.12069e-5 -6.64514e-4 0.9999998 1.99359e-4 -4.10143e-4 1 -2.22768e-4 -3.0922e-4 1 -5.10118e-5 1.68837e-4 1 2.86315e-4 0.008962929 0.9999492 0.004624068 7.60653e-6 1 1.0405e-4 1.86452e-5 1 2.16213e-4 -2.65701e-4 1 -3.87323e-4 3.35099e-4 0.9999998 7.13614e-4 -1.06219e-4 1 1.45856e-4 -1.06741e-4 1 -4.08022e-4 5.59338e-4 0.9999999 2.79218e-4 0.01653927 0.9996743 0.01943892 5.15271e-4 0.9999998 5.06098e-4 2.76711e-4 1 4.51559e-4 5.80556e-5 1 -1.42749e-5 8.89746e-5 1 6.08247e-6 7.34701e-5 1 -7.75039e-6 -1.58208e-4 1 -2.37534e-4 -6.26826e-4 0.9999998 4.80314e-5 -6.35571e-4 0.9999997 -6.03018e-4 -0.001338422 0.9999991 -4.09427e-4 6.39314e-4 0.9999998 -7.18206e-5 7.4546e-4 0.9999998 -1.0058e-4 -0.001791715 0.999994 0.00297451 -6.38864e-5 1 2.10777e-4 8.82716e-4 0.9999997 3.92792e-5 -6.20822e-4 0.9999998 4.8304e-4 -1.39583e-6 1 -2.36064e-5 3.38467e-4 1 -2.21224e-4 -2.22125e-4 1 -4.07814e-4 4.8583e-5 1 1.70708e-5 -1.78695e-4 1 -3.71936e-5 1.60539e-4 1 -2.89764e-4 1.36459e-4 1 -1.40801e-4 -0.008045256 0.9999208 0.009679615 -4.72831e-4 0.9999999 4.18494e-4 -4.56821e-4 1 1.55839e-4 1.42857e-4 1 -3.01175e-4 -6.04677e-5 1 -4.02705e-5 -0.006364107 0.9999796 5.78573e-4 2.15888e-4 1 -3.30206e-4 0.004240214 0.9998865 -0.01445579 -1.49949e-4 1 -3.90376e-4 -1.76515e-4 1 -1.02698e-4 2.20012e-4 1 -9.00765e-6 4.74561e-5 1 4.50439e-5 2.42478e-5 1 4.19177e-5 2.05451e-5 1 4.28765e-5 -3.38785e-4 0.9999997 -7.5681e-4 -0.001141667 0.9999958 0.002658843 -3.77693e-5 0.9999795 -0.006407201 0.002990305 0.9998707 0.01580464 -3.98406e-5 1 -1.22019e-4 0.9703117 -0.2324658 0.0667454 0.9047551 -0.4230541 -0.04943025 0.7257906 -0.6866753 0.0412932 0.5594447 -0.8272223 -0.05220127 0.4157325 -0.9088453 0.03415763 0.08858233 -0.9960665 0.002194106 0.01593476 -0.9993348 -0.03280413 -0.08815217 -0.9960989 0.004021227 -0.4338704 -0.9000495 -0.04083454 -0.5589023 -0.8273403 0.0560038 -0.835006 -0.5471299 -0.05842894 -0.9065759 -0.4195202 0.04607653 -0.9921104 0.12027 -0.03538656 -0.9971746 0.02881515 0.0693733 -0.8912564 0.4498347 -0.05754089 -0.7239878 0.6865841 0.06666475 -0.559256 0.8269562 -0.05810707 -0.3158738 0.9477642 0.04434996 -0.08729106 0.9961816 0.00157088 -0.002121746 0.99922 -0.03943347 0.08815109 0.9961023 0.003105759 0.5597642 0.8286504 -0.001659095 0.5574043 0.8302407 0.001077353 0.9200904 0.3917056 -6.81167e-4 0.8923742 0.4471131 0.06130516 0.996786 0.05605918 -0.05722898 0.2127006 0.6438301 0.7350111 0.2488272 0.7628934 0.5967234 0.3700387 0.6249747 0.6873704 0.374642 0.7801982 0.5009335 0.4873256 0.6742891 0.5548406 0.7628477 0.6417464 0.07889938 0.6323782 0.7535393 0.1796563 0.7272981 0.6410031 0.2452602 0.5443279 0.7799732 0.3087866 0.6430621 0.6157785 0.455289 0.4748738 0.7700532 0.4260435 0.6309865 0.7757502 -0.008238434 0.6538701 0.6255934 -0.425543 0.602976 0.7646968 -0.2272863 0.6802572 0.6936727 -0.2367874 0.751618 0.6575859 -0.05148953 0.5145759 0.6929296 -0.5050349 0.4938767 0.7782325 -0.3878659 0.3329412 0.6323837 -0.6994577 0.3319509 0.7668262 -0.5493507 0.4468576 0.6683623 -0.5946513 0.4544072 0.7395846 -0.4965166 -0.0709114 0.6042539 -0.7936302 0.005853712 0.7874428 -0.6163602 0.1616213 0.5969066 -0.7858634 0.1797867 0.7883253 -0.5884048 -0.4032742 0.6353201 -0.6585882 -0.2760731 0.7662495 -0.5802116 -0.2528578 0.6131927 -0.74837 -0.1366331 0.7558769 -0.640298 -0.5007717 0.677258 -0.5390263 -0.3951746 0.7684992 -0.5032358 -0.50931 0.7470757 -0.4271785 -0.7631486 0.6372762 -0.1071609 -0.6096886 0.7812578 -0.1338509 -0.7406778 0.6028766 -0.2965405 -0.5789138 0.7629618 -0.2876601 -0.6016551 0.65607 -0.4556131 -0.6762988 0.6256195 0.3888704 -0.6220315 0.7535499 0.2126957 -0.6900794 0.6915336 0.2134754 -0.6892699 0.7228126 0.04948747 -0.6738393 0.7370372 0.05212461 -0.5519435 0.6640766 0.5043418 -0.4944174 0.7931457 0.3556281 -0.456578 0.7445852 0.4869593 -0.2918431 0.6353405 0.7149616 -0.3047093 0.7810363 0.5451006 -0.4452192 0.6260265 0.6402116 0.1124633 0.7765278 0.6199651 0.03996145 0.6326091 0.7734395 -0.03155171 0.7686141 0.6389343 -0.1338176 0.613209 0.7785036 -0.184584 0.7558873 0.6281428 0.0543878 0.02036833 0.9983122 0.130004 -0.0162701 0.99138 0.2730576 0.01428771 0.9618916 0.310412 -0.01344901 0.9505071 0.4768526 0.01247841 0.8788947 0.4953003 -0.004166483 0.868712 0.6298666 -0.00799793 0.7766622 0.6586905 0.01731282 0.7522149 0.7533985 -0.017484 0.6573317 0.8159163 0.02457791 0.5776474 0.8409514 -0.006972372 0.5410659 0.9309304 -0.0165072 0.3648235 0.9472472 0.02592879 0.3194536 0.9854887 -0.01816153 0.1687665 0.9946565 0.01122969 0.1026277 0.9997274 -0.01065921 0.02077478 0.9976443 0.0232619 -0.06453686 0.9836113 -0.03684371 -0.1764981 0.9430018 0.02749723 -0.3316499 0.9281339 -0.004767537 -0.3722162 0.8627111 -0.00834316 -0.5056284 0.8387966 0.02070742 -0.5440511 0.7459156 -0.02278745 -0.6656506 0.7117511 0.009637713 -0.7023656 0.6009652 5.39781e-5 -0.7992752 0.5853987 -0.01433402 -0.8106189 0.4281539 0.01320177 -0.9036095 0.4074556 -0.004718363 -0.9132128 0.2332832 -0.007782399 -0.9723777 0.2026747 0.01931041 -0.9790557 -0.006045758 -0.03817987 -0.9992526 -0.08779799 0.0303356 -0.9956763 -0.2542889 -0.02463358 -0.9668146 -0.3214369 0.02065122 -0.9467058 -0.4471499 -0.01809263 -0.8942762 -0.5207666 0.01860046 -0.8534966 -0.5747209 -0.01286476 -0.8182485 -0.6824844 0.01188808 -0.7308035 -0.7247406 -0.01984769 -0.6887359 -0.7947139 0.02305752 -0.6065462 -0.8489148 -0.02786946 -0.5277945 -0.9180788 5.52851e-4 -0.3963977 -0.928979 0.02576416 -0.3692345 -0.9780511 -0.02311801 -0.2070789 -0.9898538 0.02055639 -0.1405954 -0.9996662 -0.02240777 0.01286536 -0.9966461 0.02061426 0.07919549 -0.9733827 -0.02199053 0.2281289 -0.9551154 0.02139389 0.2954604 -0.9061717 -0.0198493 0.4224439 -0.8675161 0.01913368 0.4970412 -0.8256874 -0.01719528 0.5638658 -0.736832 0.01631259 0.6758792 -0.7076004 -0.01362442 0.7064816 -0.5710704 0.01223957 0.8208099 -0.5510674 -0.00630176 0.8344369 -0.4083456 -0.006238281 0.9128061 -0.3793499 0.01563799 0.9251211 -0.2330698 -0.01980561 0.9722583 -0.1679092 0.02158844 0.9855661 -0.03269684 -0.01992917 0.9992667 0.9058262 -0.423556 -0.008913218 0.9459329 -0.3066062 0.1058477 0.7190496 -0.694579 -0.02297222 0.5584936 -0.8258162 0.07818269 0.4063581 -0.9136882 -0.006872296 0.09063869 -0.9958816 -0.002132475 0.003397166 -0.9990757 -0.04285269 -0.0859881 -0.9962913 -0.003104329 -0.4340437 -0.9004077 0.02953314 -0.4491167 -0.8932949 0.017843 -0.8362519 -0.5479461 0.02093029 -0.8003516 -0.5942874 0.07911878 -0.9650963 -0.2601842 -0.02989071 -0.9981552 0.02884358 0.05342513 -0.9929319 0.1186786 0.001332998 -0.8914665 0.4499411 0.05329704 -0.8347321 0.5505116 -0.01262712 -0.559709 0.8276247 0.04199129 -0.5376929 0.8428983 0.02021968 -0.0906406 0.9958834 -8.18142e-4 0.08807641 0.9916158 -0.09455537 0.004406213 0.9999259 -0.01135206 0.5570545 0.8297201 0.03542333 0.548143 0.8351908 0.04467374 0.8486417 0.5289647 -0.001889109 0.8928339 0.4473444 0.05225652 0.998411 0.05615079 -0.004761636 0.994668 0.09824705 0.03135383 0.3514008 -0.5037484 -0.7891483 0.3335834 -0.7137175 -0.6158974 0.4438988 -0.622825 -0.6442382 0.5111669 -0.4911054 -0.7053539 0.4713631 -0.7182666 -0.5117715 0.6735703 -0.4301539 -0.601058 0.5634509 -0.6979526 -0.442024 0.7042209 -0.5817987 -0.4069193 0.6757076 -0.6205043 -0.3979869 0.6819996 -0.6647907 -0.3048443 0.7918129 -0.5225699 -0.3161537 0.6650301 -0.7231537 -0.186504 0.8856664 -0.4362831 -0.1589095 0.8471986 -0.5310305 0.01616269 0.7203581 -0.6932048 -0.02348226 0.7986023 -0.589926 -0.1192556 0.7170005 -0.6916992 0.08638662 0.8410603 -0.5210562 0.1453205 0.6692106 -0.7190651 0.187357 0.839207 -0.4330852 0.3288906 0.6627399 -0.6169915 0.4243786 0.6773601 -0.5899989 0.439414 0.6517953 -0.6955171 0.3023558 0.5793311 -0.6675385 0.4677263 0.6361802 -0.5346816 0.5562288 0.4804666 -0.707834 0.5178059 0.5422439 -0.5103042 0.6675038 0.3019306 -0.7131577 0.6326485 0.429217 -0.5012948 0.7513164 0.3949797 -0.7006317 0.5942274 0.2559831 -0.6454315 0.7196463 0.2669647 -0.5039131 0.8214632 0.1473271 -0.6971846 0.7015899 0.08409959 -0.4577057 0.8851175 0.08099877 -0.7888746 0.609193 -0.02302861 -0.6779182 0.7347766 -0.0493797 -0.421737 0.9053726 -0.1085257 -0.7689936 0.6299772 -0.2028596 -0.5017023 0.8409179 -0.2408582 -0.6973878 0.6750093 -0.3770669 -0.4876242 0.7874282 -0.3084359 -0.6529647 0.6917402 -0.4317778 -0.6195294 0.6555543 -0.4466386 -0.5922733 0.6706164 -0.4939979 -0.6875056 0.5322613 -0.6139691 -0.4994996 0.611181 -0.5579168 -0.6975314 0.449643 -0.7302085 -0.4933976 0.4726039 -0.6270237 -0.6500323 0.429301 -0.7129986 -0.6168008 0.3334516 -0.7288541 -0.5958018 0.3373309 -0.6976183 -0.6893544 0.1952419 -0.8572226 -0.4747698 0.1994071 -0.7060446 -0.7019759 0.09343969 -0.8234375 -0.5670298 0.02068454 -0.870866 -0.4913923 0.01123046 -0.8861588 -0.4236845 -0.1876538 -0.6900601 -0.7193491 -0.07971125 -0.7055689 -0.6409291 -0.3022957 -0.7552867 -0.5615196 -0.3379907 -0.6847624 -0.7022231 -0.1948928 -0.6556397 -0.4264381 -0.623127 -0.5482788 -0.7168472 -0.430721 -0.7195449 -0.5296431 -0.4491473 -0.6546995 -0.6540992 -0.3788442 -0.4484393 -0.6292231 -0.6348075 -0.4660508 -0.5686857 -0.6777855 -0.4826985 -0.7012411 -0.5246553 -0.2313717 -0.4164487 -0.8792257 -0.2422498 -0.718595 -0.6518713 -0.3783125 -0.5283242 -0.7601008 -0.359824 -0.6544384 -0.6650092 0.2492583 -0.6998712 -0.6693659 0.2064138 -0.4628825 -0.8620517 0.1396992 -0.6799516 -0.7198265 0.04278576 -0.6576212 -0.7521327 0.03998988 -0.6303055 -0.7753167 -0.08640915 -0.7044085 -0.7045156 -0.04125857 -0.7064918 -0.7065176 -0.03496766 -0.6210904 -0.7829585 -0.05073916 -0.6967148 -0.7155516 -0.1596619 -0.6460269 -0.7464298 -0.0403968 -0.4404916 0.8968474 -0.007998466 -0.8309465 0.5562951 0.0374096 -0.4309588 0.9015959 0.03933566 0.4580839 0.8880382 0.02260512 0.6872897 0.7260316 -0.03730487 0.4182809 0.9075514 -0.1069892 -0.4300627 -0.8964371 -0.04520994 -0.1581172 -0.9863849 0.04644328 -0.6273568 -0.777346 0.01875865 0.6179482 -0.7859951 -0.1923242 -0.356024 0.9144716 -0.03509843 -0.3953408 0.9178637 0.1102909 -0.09012985 0.9898044 -0.1557368 -0.8687617 0.4701054 -0.04066199 -0.4995082 0.8653544 0.04786372 0.3685668 -0.9283683 0.1747971 0.5366061 -0.82553 0.1407794 0.9427058 0.3024682 -0.1127938 -0.1058619 -0.987963 0.1732665 -0.5365768 -0.8258717 0.3608819 -0.5638898 0.7428274 0.5035756 -0.3321358 0.7975572 0.9093759 -0.3967893 -0.1248759 0.5144733 -0.06146997 0.8553005 0.8849881 0.238586 0.399841 0.8586792 0.224088 0.460928 0.4709764 0.3496931 0.8098741 0.6560868 0.753172 -0.04776996 0.2269877 0.4484163 0.8645226 0.09883975 0.6182327 0.7797557 0.06226116 0.7381194 0.6717911 0.06670117 0.7055943 0.7054699 -0.04401475 0.7064712 0.7063719 0.2047873 0.3794135 0.9022792 -0.1260327 0.7729048 0.6218794 -0.3363885 0.79871 -0.4989039 -0.4112803 0.4189661 0.809516 -0.7532607 0.2443929 0.6106313 -0.9712617 0.2344825 0.04085004 -0.4962043 -0.04847913 0.8668513 -0.7858206 -0.4758282 -0.3950613 -0.5193539 -0.7707527 0.3690693 -0.07983928 -0.5906184 0.8029918 -0.05197316 -0.6206207 0.7823866 0.07117855 -0.9622793 0.2625876 0.1532895 0.6739954 0.7226566 0.1455872 0.5665614 0.8110566 0.2546319 0.6445077 0.7209525 0.3337226 0.4451026 0.8309711 0.3190798 0.6749686 0.6652862 0.4986767 0.4966266 0.7104108 0.4348508 0.6251476 0.6481476 0.4667951 0.7242534 0.5075032 0.669384 0.4316614 0.6046434 0.5812583 0.6631295 0.4715909 0.6223277 0.6714656 0.402296 0.7851061 0.4334949 0.4423695 0.6373338 0.7131465 0.2919377 0.6992674 0.6866259 0.1989223 0.7906609 0.5536977 0.2612939 0.8455277 0.514258 0.1436036 0.7003079 0.7091771 0.08146655 0.8439888 0.5353932 -0.03220397 0.8237319 0.5663155 -0.02743279 0.7070002 0.6774702 -0.2029407 0.8279857 0.5255146 -0.1956384 0.7320064 0.6741616 -0.09835088 0.7945106 0.5161495 -0.3199104 0.6870688 0.6594475 -0.3050664 0.6385298 0.6745992 -0.3703993 0.7494399 0.4333927 -0.5005105 0.5503311 0.7120923 -0.4359591 0.495966 0.6846482 -0.534111 0.5886986 0.5569023 -0.5859128 0.5087218 0.5180256 -0.6876421 0.4212844 0.6664165 -0.6151493 0.3770977 0.4304603 -0.8200618 0.348421 0.6895863 -0.6348807 0.2415416 0.7111631 -0.6602309 0.1798147 0.5118541 -0.8400429 0.0469582 0.6954984 -0.7169916 -0.1036269 0.5026848 -0.8582363 -0.04799228 0.7251042 -0.6869649 -0.146264 0.702556 -0.6964352 -0.2515094 0.6816676 -0.6870752 -0.2561757 0.5604293 -0.7875868 -0.3834824 0.5186433 -0.7641665 -0.3588483 0.6634873 -0.6565154 -0.4066299 0.6924524 -0.5959545 -0.560232 0.4336117 -0.7057769 -0.4789839 0.7103003 -0.5157983 -0.5738407 0.6813061 -0.4544545 -0.6297619 0.5621421 -0.5360937 -0.7239943 0.5241082 -0.4484896 -0.6618285 0.6431623 -0.3851303 -0.664514 0.6860906 -0.2961433 -0.8466945 0.4338766 -0.3079925 -0.6785541 0.7096235 -0.1897338 -0.7287849 0.6790428 -0.08816748 -0.8159613 0.5640403 -0.1267507 -0.8533754 0.521288 -0.00304979 -0.7512583 0.6596382 0.02210199 -0.7135148 0.6946445 0.09146499 -0.8847708 0.4288907 0.1823007 -0.6738639 0.713598 0.1915345 -0.7315672 0.597734 0.3279078 -0.7676209 0.5351934 0.3525992 -0.6141517 0.6825653 0.3961344 -0.6799584 0.5505363 0.4843205 -0.5774558 0.6695134 0.4672223 -0.6191523 0.5072198 0.5994819 -0.4749946 0.7128635 0.5159514 -0.450181 0.6034266 0.6581895 -0.4683788 0.5404767 0.6989322 -0.3177051 0.6800775 0.6607254 -0.3305112 0.4764181 0.8147319 -0.2510849 0.6600121 0.708054 -0.1404371 0.6587607 0.7391291 -0.1403169 0.5193185 0.8429825 0.06787139 0.674943 0.7347417 0.02938348 0.5296375 0.847715 -0.02786636 0.755599 0.6544417 -9.3692e-6 0.7071247 0.7070889 -9.34208e-7 0.7071879 0.7070257 3.36965e-5 0.7048101 0.7093961 -2.01281e-4 0.7058004 0.7084107 -1.17098e-4 0.7385555 0.6741927 -0.03478306 -0.1127848 0.9930105 0.006354928 -0.1003526 0.9949317 -1.37524e-5 -0.002292096 0.9999974 -0.02911818 -0.5360852 0.8436616 0.008962094 0.1670087 0.9859147 2.0188e-5 0.005954146 0.9999824 0.002856373 -0.04511415 0.9989778 -8.41247e-4 0.002955138 0.9999953 -0.02884715 0.04837042 0.9984129 -2.15116e-4 -3.37309e-5 1 -1.99758e-4 -1.16767e-5 1 2.70098e-5 3.30889e-4 1 2.22058e-4 4.97181e-5 1 1.81855e-4 -1.5817e-5 1 0.02233976 0.09982472 0.9947542 4.04871e-6 -0.7071157 0.7070979 -2.67136e-7 -0.7071548 0.7070587 -3.63715e-5 -0.7046974 0.709508 2.4771e-4 -0.7058908 0.7083207 1.61111e-4 -0.7393986 0.673268 0.4708186 -0.02103406 0.8819793 0.3719264 0.01321059 0.9281682 0.4023039 -5.82297e-4 0.9155061 0.1788442 0.01337581 0.9837866 0.2361609 -0.01150149 0.9716459 0.03002941 0.008202195 0.9995154 0.03419035 0.006840646 0.999392 -0.02932286 -0.003945887 0.9995622 -0.1644922 0.01807451 0.9862128 -0.2309324 -0.0145508 0.9728611 -0.3762353 0.01454383 0.92641 -0.3960405 0.01850092 0.9180467 -0.4614588 -0.01972782 0.8869424 -0.4872899 -0.001430273 0.8732392 -0.2553362 0.004122197 0.9668436 -0.2448625 -0.02722084 0.9691756 0.03040367 -0.03693825 0.998855 -0.002396583 -0.08910429 0.9960194 -0.03083622 -0.04151558 0.9986619 0.2560048 -0.02840173 0.9662582 0.2315073 0.01067405 0.9727747 0.4105743 0.01075905 0.9117637 -0.4146444 -4.89267e-4 0.9099835 -0.4793457 -0.003327965 0.8776199 -0.5635415 0.006584048 0.8260616 -0.6597701 -0.006460189 0.7514399 -0.718286 0.003913342 0.695737 -0.8151445 -0.002813816 0.5792508 -0.8234562 -0.00571841 0.567351 -0.9122129 0.007579445 0.4096465 -0.9523681 -0.00782895 0.3048505 -0.9794085 0.005875349 0.2018036 -0.9973267 -0.005776703 0.07284438 -0.9999868 0.003859281 -0.003381013 -0.98836 -0.002765536 -0.1521083 -0.9891328 -0.001743316 -0.1470153 -0.9394701 0.001726448 -0.3426267 -0.9253539 -0.00596863 -0.3790577 -0.8501886 0.006729185 -0.5264353 -0.7623602 -0.007377147 -0.647111 -0.7761232 -0.002034783 -0.6305782 -0.6210486 0.001740217 -0.7837701 -0.6064655 -0.001894474 -0.7951076 -0.4487217 0.001609921 -0.8936701 -0.4179209 -0.003589749 -0.9084763 -0.3106491 0.003728926 -0.9505174 -0.188782 -0.007661998 -0.9819892 -0.1188464 0.005323827 -0.9928984 0.11862 -0.002046525 -0.9929377 0.1237618 -0.002922415 -0.9923077 0.1840754 0.006342053 -0.9828917 0.4185702 -0.001651525 -0.9081829 0.4392442 -0.007291793 -0.8983382 0.5945535 0.006762981 -0.8040277 0.7077473 -0.007362604 -0.7064273 0.6925161 -0.002066552 -0.7213995 0.8320831 0.00178194 -0.5546482 0.8424708 -0.001945197 -0.5387387 0.927537 0.001664936 -0.3737279 0.9398846 -0.003589689 -0.3414735 0.9728909 0.003719508 -0.2312349 0.9917996 -0.005771219 -0.1276732 0.9993003 0.005673885 -0.03697234 0.9957143 -0.005744218 0.092305 0.9859122 0.003891229 0.1672188 0.9499389 -0.002752304 0.3124235 0.944833 -0.005898952 0.3274995 0.8707633 0.007797777 0.4916409 0.8096679 -0.007834017 0.5868361 0.7421074 0.00587821 0.6702553 0.6496315 -0.005765199 0.7602275 0.5743161 0.006203949 0.8186102 0.4773024 -0.004829943 0.8787259 0.5020722 0.001172721 0.864825 0 -1 -7.1884e-6 0 -1 0 0 -1 2.90892e-5 0 -1 -3.49694e-6 0 -1 -9.83865e-6 0 -1 1.48675e-5 0 -1 -4.91956e-6 0 -1 7.43384e-6 0 -1 -2.15175e-6 0 -1 -3.71681e-6 0 -1 2.15181e-6 0 -1 -4.91961e-6 0 -1 -1.66556e-5 0 -1 5.34701e-6 0 -1 -7.18835e-6 0 -1 2.90858e-5 -8.62592e-5 -1 -1.18329e-4 -8.44483e-5 -1 -1.156e-4 -8.14466e-5 -1 -1.36944e-4 -6.24863e-5 -1 -8.68514e-5 -8.89757e-6 -1 -2.52731e-5 -8.05845e-6 -1 -2.05323e-5 -4.75512e-5 -1 -1.95453e-4 -3.37184e-5 -1 -1.88143e-4 -1.39281e-5 -1 -1.74954e-4 -2.20426e-5 -1 -5.37506e-5 -9.31737e-6 -1 5.13834e-5 -7.6715e-6 -1 5.57639e-5 -2.11321e-5 -1 9.82193e-5 -1.49915e-4 -1 4.84791e-4 -1.35e-4 -1 3.52249e-4 -2.3998e-4 -0.9999999 4.80544e-4 4.61035e-4 -0.9999997 -6.76321e-4 4.83314e-4 -0.9999997 -7.38588e-4 7.41281e-4 -0.9999994 -8.86945e-4 4.12983e-4 -0.9999998 -5.50509e-4 0 -1 -2.69001e-6 0 -1 -3.33111e-5 0 -1 3.8436e-7 0 -1 4.75326e-6 0 -1 7.18822e-6 0 -1 -2.41695e-5 0 -1 4.30367e-6 0 -1 8.60717e-6 0 -1 -1.96773e-5 0 -1 -9.50589e-6 0 -1 1.9014e-5 0 -1 4.83404e-5 0 -1 -4.71143e-5 0 -1 9.5071e-6</float_array>
          <technique_common>
            <accessor source="#eSeries_UR3e_010-mesh-normals-array" count="1081" stride="3">
              <param name="X" type="float"/>
              <param name="Y" type="float"/>
              <param name="Z" type="float"/>
            </accessor>
          </technique_common>
        </source>
        <vertices id="eSeries_UR3e_010-mesh-vertices">
          <input semantic="POSITION" source="#eSeries_UR3e_010-mesh-positions"/>
        </vertices>
        <triangles material="LinkGrey_002-material" count="1127">
          <input semantic="VERTEX" source="#eSeries_UR3e_010-mesh-vertices" offset="0"/>
          <input semantic="NORMAL" source="#eSeries_UR3e_010-mesh-normals" offset="1"/>
          <p>0 0 1 0 2 0 2 1 1 1 3 1 4 2 5 2 6 2 6 3 5 3 35 3 7 4 8 4 9 4 9 5 8 5 10 5 12 6 11 6 51 6 109 7 106 7 13 7 102 8 13 8 106 8 14 9 13 9 102 9 14 10 15 10 13 10 13 11 15 11 113 11 113 12 109 12 13 12 16 13 17 13 18 13 20 14 19 14 16 14 18 15 20 15 16 15 16 16 19 16 21 16 21 17 22 17 16 17 16 18 22 18 23 18 25 19 24 19 16 19 23 20 25 20 16 20 24 21 26 21 16 21 26 22 17 22 16 22 29 23 0 23 2 23 29 23 2 23 27 23 27 23 30 23 29 23 28 23 31 23 27 23 31 23 32 23 27 23 27 23 2 23 28 23 29 23 30 23 33 23 1 23 34 23 3 23 36 24 35 24 5 24 6 25 40 25 37 25 4 23 6 23 37 23 4 26 37 26 38 26 4 27 38 27 39 27 6 23 41 23 40 23 38 23 42 23 39 23 8 28 43 28 10 28 7 29 9 29 45 29 45 23 9 23 44 23 44 30 9 30 46 30 44 31 47 31 48 31 44 23 48 23 45 23 44 32 46 32 49 32 11 33 50 33 51 33 12 34 52 34 55 34 12 35 55 35 11 35 53 23 54 23 52 23 52 36 54 36 55 36 12 37 56 37 52 37 52 38 56 38 57 38 52 23 57 23 58 23 59 39 60 39 61 39 59 40 61 40 62 40 63 41 64 41 61 41 61 42 64 42 62 42 61 43 65 43 63 43 66 44 67 44 61 44 61 45 67 45 65 45 61 46 68 46 66 46 69 47 70 47 61 47 61 48 70 48 68 48 61 49 71 49 69 49 72 50 73 50 61 50 61 51 73 51 71 51 61 52 74 52 72 52 75 53 76 53 61 53 61 54 76 54 74 54 77 55 78 55 61 55 61 56 79 56 77 56 60 57 80 57 61 57 61 58 80 58 79 58 81 59 99 59 100 59 81 60 100 60 103 60 103 61 100 61 101 61 103 62 101 62 102 62 103 63 102 63 104 63 82 64 103 64 105 64 105 65 103 65 104 65 84 66 83 66 105 66 85 67 84 67 107 67 86 68 85 68 87 68 87 69 85 69 108 69 88 70 87 70 110 70 110 71 87 71 108 71 110 72 108 72 111 72 111 73 108 73 109 73 110 74 111 74 112 74 112 75 111 75 113 75 90 76 89 76 114 76 91 77 90 77 115 77 92 78 91 78 115 78 115 79 116 79 117 79 94 80 118 80 119 80 119 81 118 81 117 81 98 82 97 82 121 82 121 83 97 83 120 83 121 84 120 84 122 84 121 85 122 85 101 85 103 86 82 86 81 86 104 87 102 87 106 87 104 88 106 88 105 88 105 89 83 89 82 89 106 90 107 90 105 90 105 91 107 91 84 91 106 92 109 92 107 92 107 93 108 93 85 93 107 94 109 94 108 94 109 95 113 95 111 95 112 96 89 96 110 96 110 97 89 97 88 97 113 98 114 98 112 98 112 99 114 99 89 99 113 100 15 100 116 100 113 101 116 101 114 101 114 102 116 102 115 102 114 103 115 103 90 103 15 104 117 104 116 104 117 105 118 105 115 105 115 106 118 106 93 106 115 107 93 107 92 107 15 108 14 108 117 108 118 109 94 109 93 109 117 110 14 110 119 110 119 111 96 111 94 111 94 112 96 112 95 112 14 113 120 113 119 113 119 114 120 114 97 114 119 115 97 115 96 115 14 116 102 116 122 116 14 117 122 117 120 117 121 118 99 118 98 118 99 119 121 119 100 119 100 120 121 120 101 120 101 121 122 121 102 121 18 122 123 122 19 122 19 123 123 123 124 123 19 124 124 124 21 124 21 125 124 125 125 125 21 126 125 126 126 126 21 127 126 127 22 127 22 128 126 128 127 128 22 129 127 129 23 129 23 130 127 130 128 130 23 131 128 131 24 131 24 132 128 132 129 132 24 133 129 133 26 133 26 134 129 134 130 134 26 135 130 135 17 135 17 136 130 136 131 136 17 137 131 137 18 137 18 138 131 138 132 138 18 139 132 139 123 139 133 140 0 140 134 140 134 141 0 141 29 141 134 142 29 142 135 142 135 143 29 143 33 143 135 144 33 144 136 144 136 145 33 145 30 145 136 146 30 146 137 146 137 147 30 147 138 147 138 148 30 148 27 148 138 149 27 149 139 149 139 150 27 150 32 150 139 151 32 151 140 151 140 152 32 152 31 152 140 153 31 153 141 153 141 154 31 154 142 154 142 155 31 155 28 155 142 156 28 156 143 156 143 157 28 157 2 157 1 158 0 158 133 158 1 159 133 159 34 159 34 160 133 160 144 160 34 161 144 161 143 161 34 162 143 162 3 162 3 163 143 163 2 163 145 164 4 164 146 164 146 165 4 165 39 165 146 166 39 166 147 166 147 167 39 167 42 167 147 168 42 168 38 168 147 169 38 169 148 169 148 170 38 170 149 170 149 171 38 171 37 171 149 172 37 172 150 172 150 173 37 173 40 173 150 174 40 174 151 174 151 175 40 175 41 175 151 176 41 176 152 176 152 177 41 177 153 177 153 178 41 178 6 178 153 179 6 179 154 179 5 180 4 180 145 180 5 181 145 181 36 181 36 182 145 182 155 182 36 183 155 183 35 183 35 184 155 184 154 184 35 185 154 185 6 185 156 186 7 186 157 186 157 187 7 187 45 187 157 188 45 188 158 188 158 189 45 189 48 189 158 190 48 190 159 190 159 191 48 191 47 191 159 192 47 192 160 192 160 193 47 193 161 193 161 194 47 194 44 194 161 195 44 195 162 195 162 196 44 196 49 196 162 197 49 197 163 197 163 198 49 198 46 198 163 199 46 199 164 199 164 200 46 200 165 200 165 201 46 201 9 201 165 202 9 202 167 202 8 203 7 203 156 203 8 204 156 204 43 204 43 205 156 205 166 205 43 206 166 206 167 206 43 207 167 207 10 207 10 208 167 208 9 208 168 209 11 209 169 209 169 210 11 210 55 210 169 211 55 211 170 211 170 212 55 212 54 212 170 213 54 213 171 213 171 214 54 214 53 214 171 215 53 215 172 215 172 216 53 216 173 216 173 217 53 217 52 217 173 218 52 218 174 218 174 219 52 219 58 219 174 220 58 220 175 220 175 221 58 221 57 221 175 222 57 222 176 222 176 223 57 223 56 223 176 224 56 224 177 224 177 225 56 225 179 225 11 226 168 226 50 226 50 227 168 227 178 227 50 228 178 228 51 228 51 229 178 229 179 229 51 230 179 230 12 230 12 231 179 231 56 231 60 232 62 232 180 232 64 233 181 233 62 233 62 234 181 234 180 234 63 235 182 235 64 235 64 236 182 236 181 236 63 237 183 237 182 237 65 238 183 238 63 238 65 239 184 239 183 239 67 240 184 240 65 240 67 241 185 241 184 241 66 242 185 242 67 242 66 243 186 243 185 243 68 244 187 244 66 244 66 245 187 245 186 245 70 246 188 246 68 246 68 247 188 247 187 247 69 248 189 248 70 248 70 249 189 249 188 249 71 250 190 250 69 250 69 251 190 251 189 251 73 252 191 252 71 252 71 253 191 253 190 253 72 254 192 254 73 254 73 255 192 255 191 255 72 256 193 256 192 256 74 257 193 257 72 257 74 258 194 258 193 258 76 259 195 259 74 259 74 260 195 260 194 260 75 261 196 261 76 261 76 262 196 262 195 262 61 263 197 263 75 263 75 264 197 264 196 264 78 265 198 265 61 265 61 266 198 266 197 266 77 267 199 267 78 267 78 268 199 268 198 268 79 269 200 269 77 269 77 270 200 270 199 270 80 271 201 271 79 271 79 272 201 272 200 272 80 273 202 273 201 273 60 274 202 274 80 274 60 275 180 275 203 275 60 276 203 276 202 276 204 277 81 277 82 277 205 278 81 278 204 278 205 279 99 279 81 279 206 280 99 280 205 280 206 281 98 281 99 281 206 282 97 282 98 282 207 283 97 283 206 283 208 284 96 284 207 284 207 285 96 285 97 285 208 286 95 286 96 286 209 287 94 287 208 287 208 288 94 288 95 288 209 289 93 289 94 289 209 290 92 290 93 290 210 291 92 291 209 291 210 292 91 292 92 292 211 293 90 293 210 293 210 294 90 294 91 294 211 295 89 295 90 295 212 296 89 296 211 296 212 297 88 297 89 297 213 298 87 298 212 298 212 299 87 299 88 299 213 300 86 300 87 300 214 301 86 301 213 301 214 302 85 302 86 302 215 303 84 303 214 303 214 304 84 304 85 304 215 305 83 305 84 305 204 306 83 306 215 306 204 307 82 307 83 307 127 308 126 308 216 308 127 309 216 309 128 309 128 310 216 310 217 310 128 311 217 311 218 311 218 312 217 312 219 312 218 313 219 313 129 313 129 314 219 314 220 314 129 315 220 315 130 315 130 316 220 316 221 316 130 317 221 317 131 317 131 318 221 318 222 318 131 319 222 319 132 319 132 320 222 320 223 320 132 321 223 321 224 321 132 322 224 322 225 322 225 323 224 323 123 323 123 324 224 324 124 324 125 325 124 325 226 325 125 326 226 326 126 326 143 327 230 327 227 327 143 328 227 328 142 328 142 329 227 329 228 329 142 330 228 330 141 330 141 331 228 331 140 331 133 332 232 332 144 332 144 333 232 333 229 333 144 334 229 334 230 334 144 335 230 335 143 335 136 336 236 336 135 336 135 337 236 337 231 337 135 338 231 338 134 338 134 339 231 339 232 339 134 340 232 340 133 340 228 341 233 341 140 341 140 342 233 342 139 342 139 343 233 343 234 343 139 344 234 344 138 344 138 345 234 345 235 345 138 346 235 346 137 346 137 347 235 347 136 347 136 348 235 348 236 348 154 349 237 349 153 349 153 350 237 350 238 350 153 351 238 351 152 351 152 352 238 352 239 352 152 353 239 353 151 353 145 354 244 354 155 354 155 355 244 355 240 355 155 356 240 356 154 356 154 357 240 357 237 357 147 358 241 358 242 358 147 359 242 359 146 359 146 360 242 360 243 360 146 361 243 361 145 361 145 362 243 362 244 362 151 363 239 363 245 363 151 364 245 364 150 364 150 365 245 365 149 365 149 366 245 366 246 366 149 367 246 367 148 367 148 368 246 368 241 368 148 369 241 369 147 369 163 370 247 370 162 370 162 371 247 371 248 371 162 372 248 372 161 372 161 373 248 373 249 373 161 374 249 374 160 374 160 375 249 375 250 375 160 376 250 376 159 376 167 377 251 377 165 377 165 378 251 378 252 378 165 379 252 379 164 379 164 380 252 380 253 380 164 381 253 381 163 381 163 382 253 382 247 382 156 383 254 383 166 383 166 384 254 384 167 384 167 385 254 385 251 385 159 386 250 386 255 386 159 387 255 387 158 387 158 388 255 388 157 388 157 389 255 389 256 389 157 390 256 390 156 390 156 391 256 391 254 391 168 392 257 392 178 392 178 393 257 393 179 393 171 394 258 394 170 394 170 395 258 395 259 395 170 396 259 396 169 396 169 397 259 397 260 397 169 398 260 398 168 398 168 399 260 399 257 399 175 400 261 400 174 400 174 401 261 401 262 401 174 402 262 402 173 402 173 403 262 403 263 403 173 404 263 404 172 404 172 405 263 405 264 405 172 406 264 406 171 406 171 407 264 407 258 407 179 408 257 408 265 408 179 409 265 409 177 409 177 410 265 410 266 410 177 411 266 411 176 411 176 412 266 412 175 412 175 413 266 413 261 413 192 414 193 414 267 414 267 415 193 415 268 415 268 416 193 416 194 416 194 417 195 417 268 417 268 418 195 418 269 418 195 419 196 419 269 419 269 420 196 420 270 420 270 421 196 421 197 421 270 422 197 422 271 422 197 423 198 423 271 423 271 424 198 424 272 424 272 425 198 425 199 425 272 426 199 426 273 426 273 427 199 427 200 427 273 428 200 428 274 428 274 429 200 429 201 429 274 430 201 430 275 430 275 431 201 431 202 431 275 432 202 432 203 432 275 433 203 433 276 433 276 434 203 434 277 434 277 435 203 435 278 435 277 436 278 436 279 436 278 437 180 437 279 437 279 438 180 438 280 438 180 439 181 439 280 439 280 440 181 440 182 440 280 441 182 441 281 441 182 442 183 442 281 442 281 443 183 443 282 443 183 444 184 444 282 444 282 445 184 445 283 445 184 446 185 446 283 446 283 447 185 447 186 447 283 448 186 448 284 448 186 449 187 449 284 449 284 450 187 450 285 450 187 451 188 451 285 451 285 452 188 452 286 452 188 453 189 453 286 453 286 454 189 454 287 454 287 455 189 455 190 455 287 456 190 456 288 456 190 457 191 457 288 457 288 458 191 458 289 458 288 459 289 459 267 459 267 460 289 460 192 460 233 461 124 461 224 461 233 462 226 462 124 462 241 463 223 463 222 463 221 464 292 464 222 464 233 465 224 465 241 465 241 466 224 466 223 466 126 467 226 467 293 467 293 468 226 468 233 468 241 469 222 469 292 469 294 470 221 470 295 470 220 471 295 471 221 471 216 472 296 472 217 472 217 473 296 473 295 473 217 474 295 474 220 474 126 475 296 475 216 475 235 476 282 476 283 476 235 477 283 477 236 477 282 478 235 478 234 478 282 479 234 479 281 479 281 480 234 480 280 480 297 481 229 481 232 481 297 482 232 482 231 482 297 483 231 483 298 483 236 484 283 484 299 484 236 485 299 485 231 485 231 486 299 486 298 486 300 487 230 487 229 487 228 488 227 488 300 488 300 489 227 489 230 489 293 490 233 490 228 490 275 491 241 491 246 491 275 492 246 492 274 492 274 493 246 493 273 493 245 494 271 494 272 494 245 495 272 495 273 495 245 496 273 496 246 496 243 497 242 497 292 497 292 498 244 498 243 498 292 499 242 499 241 499 237 500 240 500 301 500 301 501 240 501 244 501 237 502 301 502 238 502 239 503 303 503 313 503 239 504 313 504 271 504 239 505 271 505 245 505 238 506 301 506 302 506 238 507 302 507 303 507 238 508 303 508 239 508 304 509 254 509 256 509 305 510 306 510 309 510 309 511 306 511 255 511 309 512 255 512 250 512 304 513 256 513 306 513 306 514 256 514 255 514 307 515 253 515 252 515 307 516 252 516 308 516 308 517 251 517 254 517 308 518 252 518 251 518 309 519 250 519 249 519 307 520 299 520 253 520 253 521 299 521 247 521 247 522 299 522 283 522 287 523 249 523 286 523 286 524 249 524 248 524 286 525 248 525 285 525 285 526 248 526 284 526 284 527 248 527 247 527 284 528 247 528 283 528 310 529 311 529 265 529 309 530 266 530 311 530 311 531 266 531 265 531 309 532 262 532 261 532 271 533 258 533 264 533 309 534 261 534 266 534 263 535 269 535 264 535 264 536 269 536 270 536 264 537 270 537 271 537 269 538 263 538 268 538 268 539 263 539 262 539 312 540 257 540 260 540 260 541 259 541 312 541 312 542 259 542 313 542 313 543 259 543 258 543 258 544 271 544 313 544 265 545 257 545 310 545 228 546 300 546 293 546 296 547 126 547 293 547 221 548 294 548 292 548 249 549 287 549 309 549 268 550 262 550 309 550 268 551 309 551 267 551 287 552 288 552 309 552 309 553 288 553 267 553 280 554 234 554 233 554 275 555 276 555 241 555 241 556 276 556 233 556 233 557 276 557 279 557 233 558 279 558 280 558 314 559 204 559 215 559 314 560 215 560 315 560 315 561 215 561 214 561 315 562 214 562 316 562 316 563 214 563 213 563 316 564 213 564 291 564 316 565 291 565 317 565 317 566 291 566 212 566 317 567 212 567 318 567 318 568 212 568 211 568 318 569 211 569 319 569 319 570 211 570 210 570 319 571 210 571 209 571 319 572 209 572 320 572 320 573 209 573 321 573 321 574 209 574 208 574 321 575 208 575 322 575 322 576 208 576 207 576 322 577 207 577 290 577 322 578 290 578 323 578 323 579 290 579 206 579 323 580 206 580 205 580 323 581 205 581 324 581 324 582 205 582 204 582 324 583 204 583 325 583 325 584 204 584 314 584 327 585 328 585 294 585 294 586 328 586 292 586 292 587 328 587 329 587 292 588 329 588 244 588 326 589 244 589 329 589 330 590 303 590 331 590 331 591 303 591 302 591 331 592 302 592 332 592 332 593 302 593 301 593 332 594 301 594 326 594 326 595 301 595 244 595 330 596 313 596 303 596 333 597 312 597 334 597 334 598 312 598 313 598 334 599 313 599 335 599 335 600 313 600 330 600 336 601 257 601 333 601 333 602 257 602 312 602 337 603 311 603 338 603 338 604 311 604 310 604 338 605 310 605 336 605 336 606 310 606 257 606 339 607 305 607 340 607 340 608 305 608 309 608 340 609 309 609 337 609 337 610 309 610 311 610 341 611 304 611 342 611 342 612 304 612 306 612 342 613 306 613 339 613 339 614 306 614 305 614 343 615 254 615 341 615 341 616 254 616 304 616 308 617 254 617 343 617 344 618 299 618 345 618 345 619 299 619 307 619 345 620 307 620 346 620 346 621 307 621 308 621 346 622 308 622 343 622 347 623 297 623 348 623 348 624 297 624 298 624 348 625 298 625 349 625 349 626 298 626 299 626 349 627 299 627 344 627 350 628 229 628 347 628 347 629 229 629 297 629 350 630 300 630 229 630 351 631 293 631 352 631 352 632 293 632 300 632 352 633 300 633 350 633 327 634 294 634 295 634 327 635 295 635 353 635 353 636 295 636 296 636 353 637 296 637 351 637 351 638 296 638 293 638 327 639 353 639 356 639 327 640 356 640 357 640 327 641 357 641 328 641 357 642 358 642 328 642 328 643 358 643 329 643 358 644 359 644 329 644 329 645 359 645 360 645 329 646 360 646 326 646 360 647 361 647 326 647 326 648 361 648 332 648 361 649 362 649 332 649 362 650 363 650 332 650 332 651 363 651 331 651 363 652 364 652 331 652 331 653 364 653 330 653 364 654 365 654 330 654 330 655 365 655 335 655 365 656 366 656 335 656 335 657 366 657 334 657 366 658 367 658 334 658 367 659 368 659 334 659 334 660 368 660 333 660 368 661 369 661 333 661 333 662 369 662 336 662 336 663 369 663 338 663 369 664 370 664 338 664 338 665 370 665 337 665 370 666 371 666 337 666 337 667 371 667 372 667 337 668 372 668 340 668 372 669 373 669 340 669 340 670 373 670 339 670 373 671 374 671 339 671 339 672 374 672 342 672 374 673 375 673 342 673 342 674 375 674 341 674 375 675 376 675 341 675 341 676 376 676 343 676 376 677 377 677 343 677 343 678 377 678 346 678 377 679 378 679 346 679 378 680 379 680 346 680 346 681 379 681 345 681 379 682 380 682 345 682 345 683 380 683 344 683 380 684 381 684 344 684 344 685 381 685 349 685 381 686 382 686 349 686 349 687 382 687 348 687 382 688 383 688 348 688 348 689 383 689 347 689 347 690 383 690 384 690 347 691 384 691 350 691 384 692 385 692 350 692 350 693 385 693 352 693 385 694 386 694 352 694 352 695 386 695 387 695 352 696 387 696 351 696 387 697 388 697 351 697 351 698 388 698 353 698 353 699 388 699 356 699 389 700 314 700 315 700 389 701 315 701 390 701 390 702 315 702 391 702 391 703 315 703 316 703 391 704 316 704 392 704 392 705 316 705 354 705 392 706 354 706 393 706 393 707 354 707 317 707 393 708 317 708 318 708 393 709 318 709 394 709 394 710 318 710 319 710 394 711 319 711 395 711 395 712 319 712 396 712 396 713 319 713 320 713 396 714 320 714 397 714 397 715 320 715 321 715 397 716 321 716 398 716 398 717 321 717 322 717 398 718 322 718 399 718 399 719 322 719 355 719 399 720 355 720 323 720 399 721 323 721 400 721 400 722 323 722 324 722 400 723 324 723 401 723 401 724 324 724 402 724 402 725 324 725 325 725 402 726 325 726 314 726 402 727 314 727 389 727 448 728 371 728 370 728 448 729 370 729 447 729 447 730 370 730 403 730 403 731 370 731 369 731 403 732 369 732 404 732 404 733 369 733 368 733 404 734 368 734 446 734 446 735 368 735 405 735 405 736 368 736 367 736 405 737 367 737 445 737 445 738 367 738 366 738 445 739 366 739 444 739 444 740 366 740 365 740 364 741 442 741 365 741 365 742 442 742 443 742 365 743 443 743 444 743 442 744 364 744 441 744 441 745 364 745 363 745 441 746 363 746 406 746 406 747 363 747 362 747 361 748 407 748 362 748 362 749 407 749 440 749 362 750 440 750 406 750 407 751 361 751 439 751 439 752 361 752 360 752 439 753 360 753 438 753 438 754 360 754 359 754 358 755 408 755 437 755 358 756 437 756 359 756 359 757 437 757 438 757 408 758 358 758 409 758 409 759 358 759 357 759 409 760 357 760 410 760 410 761 357 761 412 761 412 762 357 762 356 762 388 763 411 763 356 763 356 764 411 764 412 764 411 765 388 765 413 765 413 766 388 766 387 766 413 767 387 767 414 767 414 768 387 768 463 768 463 769 387 769 386 769 385 770 462 770 386 770 386 771 462 771 463 771 462 772 385 772 415 772 415 773 385 773 384 773 415 774 384 774 416 774 416 775 384 775 431 775 431 776 384 776 383 776 382 777 417 777 383 777 383 778 417 778 431 778 417 779 382 779 461 779 461 780 382 780 381 780 461 781 381 781 460 781 460 782 381 782 459 782 459 783 381 783 380 783 379 784 458 784 380 784 380 785 458 785 459 785 378 786 457 786 379 786 379 787 457 787 418 787 379 788 418 788 458 788 376 789 455 789 377 789 377 790 455 790 456 790 377 791 456 791 378 791 378 792 456 792 457 792 375 793 453 793 376 793 376 794 453 794 454 794 376 795 454 795 455 795 373 796 433 796 374 796 374 797 433 797 452 797 374 798 452 798 375 798 375 799 452 799 453 799 448 800 449 800 371 800 371 801 449 801 372 801 372 802 449 802 419 802 372 803 419 803 420 803 372 804 420 804 421 804 421 805 420 805 422 805 421 806 422 806 373 806 373 807 422 807 423 807 373 808 423 808 424 808 373 809 424 809 433 809 400 810 425 810 426 810 426 811 425 811 427 811 426 812 427 812 399 812 393 813 428 813 429 813 429 814 428 814 430 814 429 815 430 815 392 815 434 816 424 816 423 816 434 817 423 817 420 817 434 818 420 818 419 818 434 819 419 819 451 819 436 820 411 820 413 820 411 821 436 821 435 821 435 822 410 822 412 822 435 823 412 823 432 823 435 824 432 824 411 824 450 825 451 825 419 825 450 826 419 826 449 826 451 827 464 827 434 827 434 828 464 828 424 828 399 829 427 829 465 829 399 830 465 830 398 830 398 831 465 831 397 831 397 832 465 832 466 832 397 833 466 833 396 833 396 834 466 834 395 834 395 835 466 835 467 835 395 836 467 836 394 836 394 837 467 837 468 837 394 838 468 838 393 838 393 839 468 839 428 839 428 840 468 840 469 840 469 841 468 841 470 841 469 842 470 842 430 842 430 843 470 843 471 843 430 844 471 844 392 844 392 845 471 845 391 845 391 846 472 846 390 846 390 847 472 847 389 847 389 848 472 848 473 848 389 849 473 849 402 849 402 850 473 850 401 850 400 851 401 851 474 851 400 852 474 852 425 852 425 853 474 853 475 853 475 854 474 854 427 854 478 855 409 855 410 855 478 856 410 856 479 856 409 857 478 857 408 857 408 858 478 858 480 858 408 859 480 859 437 859 481 860 438 860 480 860 480 861 438 861 437 861 481 862 439 862 438 862 439 863 481 863 482 863 439 864 482 864 407 864 407 865 482 865 440 865 483 866 440 866 482 866 483 867 406 867 440 867 484 868 441 868 406 868 484 869 406 869 483 869 441 870 484 870 485 870 441 871 485 871 442 871 486 872 443 872 485 872 485 873 443 873 442 873 487 874 445 874 444 874 487 875 444 875 486 875 486 876 444 876 443 876 445 877 487 877 488 877 445 878 488 878 405 878 405 879 488 879 446 879 489 880 446 880 488 880 489 881 404 881 446 881 490 882 403 882 404 882 490 883 404 883 489 883 403 884 490 884 491 884 403 885 491 885 447 885 492 886 448 886 491 886 491 887 448 887 447 887 492 888 449 888 448 888 450 889 449 889 492 889 450 890 493 890 464 890 494 891 424 891 493 891 493 892 424 892 464 892 494 893 433 893 424 893 495 894 452 894 433 894 495 895 433 895 494 895 452 896 495 896 496 896 452 897 496 897 453 897 453 898 496 898 454 898 497 899 454 899 496 899 497 900 455 900 454 900 498 901 456 901 455 901 498 902 455 902 497 902 456 903 498 903 499 903 456 904 499 904 457 904 457 905 499 905 418 905 500 906 418 906 499 906 500 907 458 907 418 907 501 908 459 908 458 908 501 909 458 909 500 909 459 910 501 910 502 910 459 911 502 911 460 911 460 912 502 912 461 912 503 913 461 913 502 913 461 914 503 914 417 914 477 915 431 915 503 915 503 916 431 916 417 916 431 917 477 917 416 917 416 918 477 918 504 918 416 919 504 919 415 919 505 920 415 920 504 920 415 921 505 921 462 921 476 922 463 922 505 922 505 923 463 923 462 923 463 924 476 924 414 924 414 925 476 925 506 925 414 926 506 926 413 926 413 927 506 927 436 927 436 928 506 928 507 928 410 929 435 929 479 929 479 930 435 930 507 930 507 931 435 931 436 931 511 932 508 932 509 932 510 933 511 933 509 933 511 934 510 934 512 934 511 935 512 935 513 935 513 936 512 936 514 936 508 937 472 937 391 937 474 938 401 938 515 938 474 939 515 939 516 939 474 940 516 940 427 940 391 941 471 941 508 941 508 942 471 942 509 942 509 943 471 943 468 943 509 944 468 944 467 944 401 945 473 945 515 945 515 946 473 946 508 946 473 947 472 947 508 947 509 948 467 948 466 948 509 949 466 949 516 949 466 950 465 950 516 950 516 951 465 951 427 951 518 952 516 952 515 952 517 953 518 953 515 953 518 954 517 954 520 954 518 955 520 955 519 955 519 956 520 956 521 956 522 957 523 957 508 957 480 958 478 958 517 958 515 959 480 959 517 959 479 960 520 960 478 960 478 961 520 961 517 961 520 962 479 962 524 962 524 963 479 963 507 963 524 964 507 964 519 964 519 965 507 965 506 965 519 966 506 966 518 966 518 967 506 967 476 967 525 968 510 968 509 968 525 969 509 969 526 969 526 970 509 970 516 970 527 971 512 971 525 971 525 972 512 972 510 972 528 973 513 973 529 973 528 974 529 974 527 974 527 975 529 975 512 975 522 976 511 976 528 976 528 977 511 977 513 977 508 978 511 978 522 978 518 979 476 979 516 979 516 980 476 980 526 980 526 981 476 981 505 981 526 982 505 982 530 982 530 983 505 983 504 983 530 984 504 984 477 984 530 985 477 985 531 985 531 986 477 986 503 986 531 987 503 987 532 987 532 988 503 988 502 988 532 989 502 989 533 989 533 990 502 990 501 990 533 991 501 991 500 991 533 992 500 992 534 992 534 993 500 993 499 993 534 994 499 994 535 994 535 995 499 995 498 995 535 996 498 996 497 996 535 997 497 997 536 997 536 998 497 998 496 998 536 999 496 999 537 999 537 1000 496 1000 495 1000 537 1001 495 1001 538 1001 538 1002 495 1002 494 1002 538 1003 494 1003 539 1003 539 1004 494 1004 493 1004 539 1005 493 1005 450 1005 539 1006 450 1006 540 1006 540 1007 450 1007 492 1007 540 1008 492 1008 491 1008 540 1009 491 1009 541 1009 541 1010 491 1010 490 1010 541 1011 490 1011 489 1011 541 1012 489 1012 542 1012 542 1013 489 1013 488 1013 542 1014 488 1014 543 1014 543 1015 488 1015 487 1015 543 1016 487 1016 544 1016 544 1017 487 1017 486 1017 544 1018 486 1018 545 1018 545 1019 486 1019 485 1019 545 1020 485 1020 546 1020 546 1021 485 1021 484 1021 546 1022 484 1022 483 1022 546 1023 483 1023 547 1023 547 1024 483 1024 482 1024 547 1025 482 1025 548 1025 548 1026 482 1026 481 1026 548 1027 481 1027 523 1027 523 1028 481 1028 480 1028 523 1029 480 1029 515 1029 523 1030 515 1030 508 1030 549 1031 541 1031 550 1031 550 1032 541 1032 551 1032 551 1033 541 1033 542 1033 551 1034 542 1034 552 1034 552 1035 542 1035 553 1035 553 1036 542 1036 543 1036 553 1032 543 1032 554 1032 554 1037 543 1037 555 1037 555 1038 543 1038 544 1038 555 1039 544 1039 556 1039 556 1032 544 1032 557 1032 557 1040 544 1040 545 1040 557 1041 545 1041 558 1041 558 1042 545 1042 559 1042 559 1032 545 1032 546 1032 559 1032 546 1032 560 1032 560 1032 546 1032 561 1032 561 1043 546 1043 547 1043 561 1044 547 1044 562 1044 562 1045 547 1045 563 1045 563 1032 547 1032 564 1032 564 1046 547 1046 548 1046 564 1032 548 1032 565 1032 565 1032 548 1032 566 1032 566 1047 548 1047 523 1047 566 1048 523 1048 567 1048 567 1049 523 1049 568 1049 568 1050 523 1050 522 1050 568 1051 522 1051 569 1051 569 1052 522 1052 570 1052 570 1053 522 1053 528 1053 570 1054 528 1054 571 1054 571 1055 528 1055 572 1055 572 1056 528 1056 573 1056 574 1057 573 1057 527 1057 574 1058 527 1058 575 1058 575 1059 527 1059 576 1059 576 1060 527 1060 525 1060 576 1061 525 1061 577 1061 577 1062 525 1062 578 1062 578 1063 525 1063 526 1063 578 1064 526 1064 579 1064 579 1065 526 1065 580 1065 580 1066 526 1066 530 1066 580 1067 530 1067 581 1067 581 1032 530 1032 582 1032 582 1068 530 1068 531 1068 582 1032 531 1032 583 1032 583 1032 531 1032 584 1032 584 1032 531 1032 585 1032 585 1032 531 1032 532 1032 585 1032 532 1032 586 1032 586 1069 532 1069 587 1069 587 1032 532 1032 533 1032 587 1032 533 1032 588 1032 588 1032 533 1032 589 1032 589 1032 533 1032 534 1032 589 1032 534 1032 590 1032 590 1032 534 1032 591 1032 591 1032 534 1032 535 1032 591 1070 535 1070 592 1070 592 1071 535 1071 593 1071 593 1072 535 1072 594 1072 594 1032 535 1032 536 1032 594 1032 536 1032 595 1032 595 1032 536 1032 596 1032 596 1032 536 1032 537 1032 596 1073 537 1073 597 1073 597 1032 537 1032 598 1032 598 1032 537 1032 538 1032 598 1074 538 1074 599 1074 599 1075 538 1075 600 1075 600 1032 538 1032 539 1032 600 1076 539 1076 601 1076 601 1032 539 1032 602 1032 602 1032 539 1032 603 1032 603 1032 539 1032 540 1032 603 1077 540 1077 604 1077 604 1032 540 1032 605 1032 605 1078 540 1078 606 1078 606 1079 540 1079 541 1079 606 1080 541 1080 549 1080</p>
        </triangles>
      </mesh>
    </geometry>
  </library_geometries>
  <library_visual_scenes>
    <visual_scene id="Scene" name="Scene">
      <node id="eSeries_UR3e_002" name="eSeries_UR3e_002" type="NODE">
        <matrix sid="transform">1 0 0 0 0 1 0 0 0 0 1 0 0 0 0 1</matrix>
        <instance_geometry url="#eSeries_UR3e_010-mesh" name="eSeries_UR3e_002">
          <bind_material>
            <technique_common>
              <instance_material symbol="LinkGrey_002-material" target="#LinkGrey_002-material"/>
            </technique_common>
          </bind_material>
        </instance_geometry>
      </node>
    </visual_scene>
  </library_visual_scenes>
  <scene>
    <instance_visual_scene url="#Scene"/>
  </scene>
</COLLADA>