<?xml version="1.0" encoding="utf-8"?>
<COLLADA xmlns="http://www.collada.org/2005/11/COLLADASchema" version="1.4.1" xmlns:xsi="http://www.w3.org/2001/XMLSchema-instance">
  <asset>
    <contributor>
      <author>Blender User</author>
      <authoring_tool>Blender 2.82.7</authoring_tool>
    </contributor>
    <created>2024-02-04T10:42:32</created>
    <modified>2024-02-04T10:42:32</modified>
    <unit name="meter" meter="1"/>
    <up_axis>Z_UP</up_axis>
  </asset>
  <library_effects>
    <effect id="colour_abb_white_002-effect">
      <profile_COMMON>
        <technique sid="common">
          <lambert>
            <emission>
              <color sid="emission">0 0 0 1</color>
            </emission>
            <diffuse>
              <color sid="diffuse">0.7404 0.7404 0.7248001 1</color>
            </diffuse>
            <index_of_refraction>
              <float sid="ior">1</float>
            </index_of_refraction>
          </lambert>
        </technique>
      </profile_COMMON>
    </effect>
  </library_effects>
  <library_images/>
  <library_materials>
    <material id="colour_abb_white_002-material" name="colour_abb_white.002">
      <instance_effect url="#colour_abb_white_002-effect"/>
    </material>
  </library_materials>
  <library_geometries>
    <geometry id="BaseLink-mesh" name="BaseLink">
      <mesh>
        <source id="BaseLink-mesh-positions">
          <float_array id="BaseLink-mesh-positions-array" count="2208">0.205 -0.008660197 0.171 0.2086603 -0.004999995 0.171 0.21 0 0.171 0.2086603 0.004999995 0.171 0.205 0.008660197 0.171 0.1913397 0.004999995 0.171 0.1899999 0 0.171 0.1949999 0.008660197 0.171 0.1999999 0.00999999 0.171 0.1999999 -0.00999999 0.171 0.1949999 -0.008660197 0.171 0.1913397 -0.004999995 0.171 0.02255821 0.06942707 0.1245 0.007630527 0.07260006 0.1245 0.05905818 -0.04290831 0.1245 0.04884648 -0.05424952 0.1245 -0.007630527 -0.07260006 0.1245 0.03649997 -0.06321984 0.1245 0.007630527 -0.07260006 0.1245 0.02255821 -0.06942707 0.1245 -0.007630527 0.07260006 0.1245 -0.02255821 0.06942707 0.1245 -0.06668877 -0.02969175 0.1245 -0.05905818 -0.04290831 0.1245 0.06668877 -0.02969175 0.1245 0.07140475 -0.01517754 0.1245 0.04884648 0.05424952 0.1245 0.03649997 0.06321984 0.1245 -0.07140475 -0.01517754 0.1245 -0.07299995 0 0.1245 -0.06668877 0.02969175 0.1245 -0.07140475 0.01517754 0.1245 -0.02255821 -0.06942707 0.1245 -0.03649997 -0.06321984 0.1245 -0.04884648 -0.05424952 0.1245 0.06668877 0.02969175 0.1245 0.05905818 0.04290831 0.1245 0.07140475 0.01517754 0.1245 0.07299995 0 0.1245 -0.05905818 0.04290831 0.1245 -0.04884648 0.05424952 0.1245 -0.03649997 0.06321984 0.1245 -0.364039 -0.1901472 0.07757979 -0.3467149 -0.1901472 0.06025564 -0.364039 -0.2171472 0.07757979 -0.3467149 -0.2171472 0.06025564 -0.2979245 -0.2171472 0.1436943 -0.2806004 -0.2171472 0.1263701 -0.2979245 -0.1901472 0.1436943 -0.2806004 -0.1901472 0.1263701 -0.364039 0.2171472 0.07757979 -0.3467149 0.2171472 0.06025564 -0.364039 0.1901472 0.07757979 -0.3467149 0.1901472 0.06025564 -0.2979245 0.1901472 0.1436943 -0.2806004 0.1901472 0.1263701 -0.2979245 0.2171472 0.1436943 -0.2806004 0.2171472 0.1263701 0.1899999 0 0.103 0.1913397 -0.004999995 0.103 0.1949999 -0.008660197 0.103 0.1999999 -0.00999999 0.103 0.205 -0.008660197 0.103 0.2086603 -0.004999995 0.103 0.21 0 0.103 0.2086603 0.004999995 0.103 0.205 0.008660197 0.103 0.1999999 0.00999999 0.103 0.1949999 0.008660197 0.103 0.1913397 0.004999995 0.103 0.07299995 0 0.1315 0.07140475 0.01517754 0.1315 0.06668877 0.02969175 0.1315 0.05905818 0.04290831 0.1315 0.04884648 0.05424952 0.1315 0.03649997 0.06321984 0.1315 0.02255821 0.06942707 0.1315 0.007630527 0.07260006 0.1315 -0.007630527 0.07260006 0.1315 -0.02255821 0.06942707 0.1315 -0.03649997 0.06321984 0.1315 -0.04884648 0.05424952 0.1315 -0.05905818 0.04290831 0.1315 -0.06668877 0.02969175 0.1315 -0.07140475 0.01517754 0.1315 -0.07299995 0 0.1315 -0.07140475 -0.01517754 0.1315 -0.06668877 -0.02969175 0.1315 -0.05905818 -0.04290831 0.1315 -0.04884648 -0.05424952 0.1315 -0.03649997 -0.06321984 0.1315 -0.02255821 -0.06942707 0.1315 -0.007630527 -0.07260006 0.1315 0.007630527 -0.07260006 0.1315 0.02255821 -0.06942707 0.1315 0.03649997 -0.06321984 0.1315 0.04884648 -0.05424952 0.1315 0.05905818 -0.04290831 0.1315 0.06668877 -0.02969175 0.1315 0.07140475 -0.01517754 0.1315 -0.3035814 -0.2251472 0.1380374 -0.2862572 -0.2251472 0.1207133 -0.3583821 -0.2251472 0.08323663 -0.341058 -0.2251472 0.06591254 -0.341058 -0.1821472 0.06591254 -0.3500736 -0.1821472 0.05689692 -0.3536092 -0.1871472 0.05336135 -0.3536092 -0.2201472 0.05336135 -0.3500736 -0.2251472 0.05689686 -0.3583821 -0.1821472 0.08323663 -0.3035814 -0.1821472 0.1380374 -0.2862572 -0.1821472 0.1207133 -0.2772416 -0.2251472 0.1297289 -0.2737061 -0.2201472 0.1332645 -0.2737061 -0.1871472 0.1332645 -0.2772416 -0.1821472 0.1297289 -0.3583821 0.2251472 0.08323663 -0.341058 0.2251472 0.06591254 -0.3035814 0.2251472 0.1380374 -0.2862572 0.2251472 0.1207133 -0.3035814 0.1821472 0.1380374 -0.2862572 0.1821472 0.1207133 -0.3583821 0.1821472 0.08323663 -0.341058 0.1821472 0.06591254 -0.3500736 0.2251472 0.05689692 -0.3536092 0.2201472 0.05336135 -0.3536092 0.1871472 0.05336135 -0.3500736 0.1821472 0.05689686 -0.2772416 0.1821472 0.1297289 -0.2737061 0.1871472 0.1332645 -0.2737061 0.2201472 0.1332645 -0.2772416 0.2251472 0.1297289 -0.182 0.1622325 0.1475 -0.1717325 0.1725 0.1475 -0.1717325 0.2125 0.1475 -0.2322675 0.1725 0.1475 -0.222 0.1622325 0.1475 -0.2322675 0.2125 0.1475 -0.222 0.2227675 0.1475 -0.182 0.2227675 0.1475 -0.1517719 0.1655903 0.1495 -0.1556278 0.1682519 0.1495 -0.160279 0.1688167 0.1495 -0.1495945 0.1614417 0.1495 -0.1495945 0.1567564 0.1495 -0.1517719 0.1526077 0.1495 -0.1556278 0.1499461 0.1495 -0.1646597 0.1510428 0.1495 -0.160279 0.1493813 0.1495 -0.168888 0.159099 0.1495 -0.1677668 0.1545498 0.1495 -0.1677668 0.1636482 0.1495 -0.1646597 0.1671552 0.1495 0.2136363 -0.01363641 0.103 0.2178169 -0.007379949 0.103 0.2192848 0 0.103 0.1863636 -0.01363641 0.103 0.19262 -0.01781684 0.103 0.1999999 -0.01928484 0.103 0.2073799 -0.01781684 0.103 0.1863636 0.01363641 0.103 0.1821831 0.007379949 0.103 0.1807152 0 0.103 0.1821831 -0.007379949 0.103 0.2178169 0.007379949 0.103 0.2136363 0.01363641 0.103 0.2073799 0.01781684 0.103 0.1999999 0.01928484 0.103 0.19262 0.01781684 0.103 -0.08042997 0.02545356 0.1315 -0.08337283 0.0128777 0.1315 -0.08436149 0 0.1315 0.03450965 0.07698017 0.1315 0.02235424 0.08134591 0.1315 0.009674847 0.0838049 0.1315 0.07251459 0.04311031 0.1315 0.06508398 0.05367434 0.1315 0.05612784 0.06298035 0.1315 0.04585617 0.07081013 0.1315 0.03450965 -0.07698017 0.1315 0.04585617 -0.07081013 0.1315 0.05612784 -0.06298035 0.1315 -0.08337283 -0.0128777 0.1315 -0.08042997 -0.02545356 0.1315 -0.07560187 -0.03743284 0.1315 -0.06900173 -0.04853475 0.1315 -0.003231227 0.08429962 0.1315 -0.01606166 0.08281838 0.1315 -0.02851557 0.079396 0.1315 0.06508398 -0.05367434 0.1315 0.07251459 -0.04311031 0.1315 0.07824552 -0.03153574 0.1315 0.08214241 -0.01922202 0.1315 -0.01606166 -0.08281838 0.1315 -0.003231227 -0.08429962 0.1315 0.009674847 -0.0838049 0.1315 0.02235424 -0.08134591 0.1315 -0.04030114 0.07411265 0.1315 -0.05114209 0.06709212 0.1315 -0.06078428 0.05849897 0.1315 -0.06900173 0.04853475 0.1315 -0.07560187 0.03743284 0.1315 0.08411401 -0.006457805 0.1315 0.08411401 0.006457805 0.1315 0.08214241 0.01922202 0.1315 0.07824552 0.03153574 0.1315 -0.06078428 -0.05849897 0.1315 -0.05114209 -0.06709212 0.1315 -0.04030114 -0.07411265 0.1315 -0.02851557 -0.079396 0.1315 -0.2652208 -0.2201472 0.1247792 -0.2687563 -0.2251472 0.1212435 -0.3500736 -0.2251472 0.05689692 -0.3415883 -0.2251472 0.0484116 -0.3451239 -0.2201472 0.04487609 -0.3451239 -0.1871472 0.04487609 -0.3415883 -0.1821472 0.0484116 -0.3500736 -0.1821472 0.05689686 -0.2687563 -0.1821472 0.1212435 -0.2652208 -0.1871472 0.1247792 -0.3415883 0.1821472 0.0484116 -0.3500736 0.1821472 0.05689692 -0.3451239 0.1871472 0.04487609 -0.3451239 0.2201472 0.04487609 -0.3415883 0.2251472 0.0484116 -0.3500736 0.2251472 0.05689686 -0.2687563 0.2251472 0.1212435 -0.2652208 0.2201472 0.1247792 -0.2652208 0.1871472 0.1247792 -0.2687563 0.1821472 0.1212435 -0.2322675 0.1725 0.1299999 -0.2322675 0.2125 0.1299999 -0.222 0.2227675 0.1299999 -0.182 0.2227675 0.1299999 -0.1717325 0.2125 0.1299999 -0.1717325 0.1725 0.1299999 -0.182 0.1622325 0.1299999 -0.222 0.1622325 0.1299999 -0.1642542 0.1488391 0.1171914 -0.1642542 0.1474376 0.09299999 -0.1606358 0.1464419 0.09299999 -0.1642542 0.1698088 0.1094889 -0.1642542 0.1686017 0.1299999 -0.1642542 0.1495963 0.1299999 -0.1652404 0.1679963 0.1299999 -0.1686717 0.1641231 0.1299999 -0.16991 0.159099 0.1299999 -0.1686717 0.1540749 0.1299999 -0.1652404 0.1502017 0.1299999 -0.1642542 0.1707605 0.09299999 -0.1606358 0.1717561 0.09299999 -0.1545778 0.1710205 0.09299999 -0.1495555 0.1675539 0.09299999 -0.1467195 0.1621503 0.09299999 -0.1467195 0.1560477 0.09299999 -0.1495555 0.1506442 0.09299999 -0.1545778 0.1471775 0.09299999 0.2178169 0.007379949 0.09299999 0.2192848 0 0.09299999 0.2178169 -0.007379949 0.09299999 0.2136363 -0.01363641 0.09299999 0.2073799 -0.01781684 0.09299999 0.1999999 -0.01928484 0.09299999 0.19262 -0.01781684 0.09299999 0.1863636 -0.01363641 0.09299999 0.1821831 -0.007379949 0.09299999 0.1807152 0 0.09299999 0.1821831 0.007379949 0.09299999 0.1863636 0.01363641 0.09299999 0.19262 0.01781684 0.09299999 0.1999999 0.01928484 0.09299999 0.2073799 0.01781684 0.09299999 0.2136363 0.01363641 0.09299999 -0.1345339 0.02078002 0.09299999 -0.1297851 0.04107296 0.09299999 -0.1219943 0.06040322 0.09299999 -0.111344 0.07831764 0.09299999 -0.09808403 0.09439641 0.09299999 -0.08252495 0.1082626 0.09299999 -0.06503158 0.1195912 0.09299999 -0.04601395 0.1281167 0.09299999 -0.02591776 0.1336392 0.09299999 -0.005214095 0.1360293 0.09299999 0.01561176 0.1352311 0.09299999 0.03607171 0.1312631 0.09299999 0.05568617 0.1242184 0.09299999 0.07399541 0.1142622 0.09299999 0.09057027 0.1016277 0.09299999 0.1050222 0.08661115 0.09299999 0.1170125 0.06956458 0.09299999 0.1262602 0.0508874 0.09299999 0.1325483 0.03101748 0.09299999 0.1357297 0.01042056 0.09299999 0.1357297 -0.01042056 0.09299999 0.1325483 -0.03101748 0.09299999 0.1262602 -0.0508874 0.09299999 0.1170125 -0.06956458 0.09299999 0.1050222 -0.08661115 0.09299999 0.09057027 -0.1016277 0.09299999 0.07399541 -0.1142622 0.09299999 0.05568617 -0.1242184 0.09299999 0.03607171 -0.1312631 0.09299999 0.01561176 -0.1352311 0.09299999 -0.005214095 -0.1360293 0.09299999 -0.02591776 -0.1336392 0.09299999 -0.04601395 -0.1281167 0.09299999 -0.06503158 -0.1195912 0.09299999 -0.08252495 -0.1082626 0.09299999 -0.09808403 -0.09439641 0.09299999 -0.111344 -0.07831764 0.09299999 -0.1219943 -0.06040322 0.09299999 -0.1297851 -0.04107296 0.09299999 -0.1345339 -0.02078002 0.09299999 -0.1361292 0 0.09299999 0.2293454 0.06351429 0.09299999 0.2344767 0.04252034 0.09299999 0.2409971 0.06066173 0.08403104 0.23991 0.04221063 0.08857029 0.2454698 0.04189318 0.08403104 0.2395937 0.06655102 0.08403104 0.2329815 0.08487081 0.08403104 0.2205 0.08802133 0.09299999 0.2303254 0.09222984 0.08403104 0.2224175 0.1080714 0.08403104 0.2088633 0.1113329 0.09299999 0.2181324 0.116656 0.08403104 0.2094053 0.129988 0.08403104 0.1945935 0.1331322 0.09299999 0.2031803 0.1394975 0.08403104 0.1940972 0.1503645 0.08403104 0.1778843 0.1531231 0.09299999 0.1856722 0.1604444 0.08403104 0.1766729 0.168963 0.08403104 0.1589627 0.1710343 0.09299999 0.1658459 0.1792119 0.08403104 0.1573359 0.185566 0.08403104 0.1380856 0.1866224 0.09299999 0.1439707 0.1955453 0.08403104 0.136312 0.1999788 0.08403104 0.1155368 0.1996756 0.09299999 0.1203437 0.2092226 0.08403104 0.1138466 0.212032 0.08403104 0.09162235 0.2100167 0.09299999 0.09528583 0.2200581 0.08403104 0.09020173 0.2215837 0.08403104 0.06666719 0.2175052 0.09299999 0.06913751 0.2279046 0.08403104 0.06565338 0.2285203 0.08403104 0.0410102 0.2220393 0.09299999 0.01499998 0.2342464 0.08403104 0.01499998 0.2235576 0.09299999 0.04048812 0.2327586 0.08403104 0.04225385 0.2326555 0.08403104 0.2488524 0.04028391 0.06101691 0.2522157 0.03867441 0.03799998 0.2253256 0.03867441 0.03799998 0.2214795 0.04252034 0.09299999 0.2214795 -0.04252034 0.09299999 0.2253256 -0.03867441 0.03799998 0.2344767 -0.04252034 0.09299999 0.2293454 -0.06351429 0.09299999 0.23991 -0.04221063 0.08857029 0.2409971 -0.06066173 0.08403104 0.2454698 -0.04189318 0.08403104 0.01499998 -0.2342464 0.08403104 0.04048812 -0.2327586 0.08403104 0.01499998 -0.2235576 0.09299999 0.0410102 -0.2220393 0.09299999 0.04225385 -0.2326555 0.08403104 0.06565338 -0.2285203 0.08403104 0.06666719 -0.2175052 0.09299999 0.06913751 -0.2279046 0.08403104 0.09020173 -0.2215837 0.08403104 0.09162235 -0.2100167 0.09299999 0.09528583 -0.2200581 0.08403104 0.1138466 -0.212032 0.08403104 0.1155368 -0.1996756 0.09299999 0.1203437 -0.2092226 0.08403104 0.136312 -0.1999788 0.08403104 0.1380856 -0.1866224 0.09299999 0.1439707 -0.1955453 0.08403104 0.1573359 -0.185566 0.08403104 0.1589627 -0.1710343 0.09299999 0.1658459 -0.1792119 0.08403104 0.1766729 -0.168963 0.08403104 0.1778843 -0.1531231 0.09299999 0.1856722 -0.1604444 0.08403104 0.1940972 -0.1503645 0.08403104 0.1945935 -0.1331322 0.09299999 0.2031803 -0.1394975 0.08403104 0.2094053 -0.129988 0.08403104 0.2088633 -0.1113329 0.09299999 0.2181324 -0.116656 0.08403104 0.2224175 -0.1080714 0.08403104 0.2205 -0.08802133 0.09299999 0.2303254 -0.09222984 0.08403104 0.2329815 -0.08487081 0.08403104 0.2395937 -0.06655102 0.08403104 0.2488524 -0.04028391 0.06101691 0.2522157 -0.03867441 0.03799998 -0.08483523 -0.2235576 0.09299999 -0.0835874 -0.2342464 0.08403104 -0.09146016 -0.1859859 0.09299999 -0.09468728 -0.1898319 0.03799998 -0.08578002 -0.2403476 0.03799998 -0.1618376 -0.1859859 0.09299999 -0.1579915 -0.1898319 0.03799998 -0.1169893 -0.2211313 0 -0.11575 -0.2165063 0.03799998 -0.11575 -0.2165063 0 -0.1169893 -0.2118813 0.03799998 -0.1169893 -0.2118813 0 -0.120375 -0.2084956 0.03799998 -0.120375 -0.2084956 0 -0.125 -0.2072563 0.03799998 -0.125 -0.2072563 0 -0.129625 -0.2084956 0.03799998 -0.129625 -0.2084956 0 -0.1330107 -0.2118813 0.03799998 -0.1330107 -0.2118813 0 -0.13425 -0.2165063 0.03799998 -0.13425 -0.2165063 0 -0.1330107 -0.2211313 0.03799998 -0.1330107 -0.2211313 0 -0.129625 -0.2245171 0.03799998 -0.129625 -0.2245171 0 -0.125 -0.2257563 0.03799998 -0.125 -0.2257563 0 -0.120375 -0.2245171 0.03799998 -0.120375 -0.2245171 0 -0.1169893 -0.2211313 0.03799998 -0.1618376 -0.2330576 0.09299999 -0.1579915 -0.2403476 0.03799998 -0.3497742 -0.2400526 0.0402258 -0.26 -0.2281534 0.1299999 -0.26 -0.146 0.1299999 -0.3497742 -0.146 0.0402258 -0.1642542 -0.2281534 0.1299999 -0.1642542 -0.146 0.1299999 -0.3822622 0.146 0.1401978 -0.3822622 0.146 0.1349999 -0.3822402 0.1356045 0.1401978 -0.3821674 0.09309762 0.1349999 -0.3821687 0.09402227 0.1401978 -0.382123 0.05244004 0.1401978 -0.3822622 -0.146 0.1349999 -0.3822622 -0.146 0.1401978 -0.3822402 -0.1356045 0.1349999 -0.3821674 -0.09309762 0.1401978 -0.3821687 -0.09402227 0.1349999 -0.3821416 -0.07230657 0.1401978 -0.382123 -0.05244004 0.1349999 -0.3821095 -0.03072434 0.1401978 -0.3821034 -0.01085782 0.1349999 -0.3821049 0 0.1401978 -0.3821049 0 0.1349999 -0.3821034 0.01085782 0.1401978 -0.3821095 0.03072434 0.1349999 -0.3821416 0.07230657 0.1349999 -0.3590787 0.146 0.1401978 -0.3590787 -0.146 0.1401978 -0.3590787 -0.146 0.15 -0.3590787 0.146 0.15 -0.1642542 0.146 0.15 -0.1642542 -0.146 0.15 -0.1642542 0.146 0.1299999 -0.1642542 -0.2330576 0.09299999 -0.08483523 0.2235576 0.09299999 -0.0835874 0.2342464 0.08403104 -0.3497742 0.146 0.0402258 -0.26 0.146 0.1299999 -0.26 0.2281534 0.1299999 -0.3497742 0.2400526 0.0402258 -0.1642542 0.2281534 0.1299999 -0.1642542 0.2330576 0.09299999 -0.1618376 0.2330576 0.09299999 -0.1618376 0.1859859 0.09299999 -0.09146016 0.1859859 0.09299999 -0.1579915 0.2403476 0.03799998 -0.1579915 0.1898319 0.03799998 -0.09468728 0.1898319 0.03799998 -0.08578002 0.2403476 0.03799998 -0.1169893 0.2118813 0 -0.11575 0.2165063 0.03799998 -0.11575 0.2165063 0 -0.1169893 0.2211313 0.03799998 -0.1169893 0.2211313 0 -0.120375 0.2245171 0.03799998 -0.120375 0.2245171 0 -0.125 0.2257563 0.03799998 -0.125 0.2257563 0 -0.129625 0.2245171 0.03799998 -0.129625 0.2245171 0 -0.1330107 0.2211313 0.03799998 -0.1330107 0.2211313 0 -0.13425 0.2165063 0.03799998 -0.13425 0.2165063 0 -0.1330107 0.2118813 0.03799998 -0.1330107 0.2118813 0 -0.129625 0.2084956 0.03799998 -0.129625 0.2084956 0 -0.125 0.2072563 0.03799998 -0.125 0.2072563 0 -0.120375 0.2084956 0.03799998 -0.120375 0.2084956 0 -0.1169893 0.2118813 0.03799998 0.2580107 -0.004624962 0 0.25925 0 0.03799998 0.25925 0 0 0.2580107 0.004624962 0.03799998 0.2580107 0.004624962 0 0.254625 0.008010685 0.03799998 0.254625 0.008010685 0 0.25 0.009249985 0.03799998 0.25 0.009249985 0 0.245375 0.008010685 0.03799998 0.245375 0.008010685 0 0.2419893 0.004624962 0.03799998 0.2419893 0.004624962 0 0.24075 0 0.03799998 0.24075 0 0 0.2419893 -0.004624962 0.03799998 0.2419893 -0.004624962 0 0.245375 -0.008010685 0.03799998 0.245375 -0.008010685 0 0.25 -0.009249985 0.03799998 0.25 -0.009249985 0 0.254625 -0.008010685 0.03799998 0.254625 -0.008010685 0 0.2580107 -0.004624962 0.03799998 -0.1536313 0.2072034 0 -0.1551048 0.2165063 0 -0.1551048 0.2417652 0 -0.09489518 0.2417652 0 -0.09489518 0.2165063 0 -0.09636861 0.2072034 0 -0.1006447 0.1988112 0 -0.1343029 0.187875 0 -0.1426952 0.192151 0 -0.1493553 0.1988112 0 -0.1073048 0.192151 0 -0.1156971 0.187875 0 -0.125 0.1864015 0 -0.1551048 0.2417652 0.004999995 -0.09489518 0.2417652 0.004999995 0.2521703 0.03895139 0.03799998 0.2521247 0.03922837 0.03799998 0.2471325 0.06230115 0.03799998 0.2469705 0.06279581 0.03799998 0.2389733 0.0871948 0.03799998 0.2387762 0.08762937 0.03799998 0.2281532 0.1110526 0.03799998 0.2279321 0.1114258 0.03799998 0.2148009 0.1335909 0.03799998 0.2145665 0.1339033 0.03799998 0.1990749 0.1545425 0.03799998 0.1988377 0.1547957 0.03799998 0.1811622 0.173658 0.03799998 0.1809317 0.1738556 0.03799998 0.1612755 0.1907104 0.03799998 0.1610606 0.1908572 0.03799998 0.139651 0.2054972 0.03799998 0.1165457 0.2178426 0.03799998 0.1394597 0.2055994 0.03799998 0.09223401 0.2276003 0.03799998 0.1163847 0.2179073 0.03799998 0.06700479 0.2346539 0.03799998 0.09210866 0.2276353 0.03799998 0.04115778 0.23892 0.03799998 0.0669192 0.2346681 0.03799998 0.04111444 0.2389222 0.03799998 0.01499998 0.2403476 0.03799998 0.2521703 -0.03895139 0.03799998 0.2521247 -0.03922837 0.03799998 0.2606616 -0.03200161 0.03799998 0.2606616 0.03200161 0.03799998 0.2695227 0.03200161 0.03799998 0.2768476 0.02467668 0.03799998 0.2768476 -0.02467668 0.03799998 0.2695227 -0.03200161 0.03799998 0.01499998 -0.2403476 0.03799998 0.04111444 -0.2389222 0.03799998 0.04115778 -0.23892 0.03799998 0.0669192 -0.2346681 0.03799998 0.06700479 -0.2346539 0.03799998 0.09210866 -0.2276353 0.03799998 0.09223401 -0.2276003 0.03799998 0.1163847 -0.2179073 0.03799998 0.1165457 -0.2178426 0.03799998 0.1394597 -0.2055994 0.03799998 0.139651 -0.2054972 0.03799998 0.1610606 -0.1908572 0.03799998 0.1612755 -0.1907104 0.03799998 0.1809317 -0.1738556 0.03799998 0.1811622 -0.173658 0.03799998 0.1988377 -0.1547957 0.03799998 0.1990749 -0.1545425 0.03799998 0.2145665 -0.1339033 0.03799998 0.2148009 -0.1335909 0.03799998 0.2279321 -0.1114258 0.03799998 0.2281532 -0.1110526 0.03799998 0.2387762 -0.08762937 0.03799998 0.2389733 -0.0871948 0.03799998 0.2469705 -0.06279581 0.03799998 0.2471325 -0.06230115 0.03799998 -0.1553668 -0.2415031 0 -0.1553668 -0.2165063 0 -0.1538805 -0.2071225 0 -0.1495673 -0.1986572 0 -0.1156161 -0.1876257 0 -0.1071508 -0.1919391 0 -0.0946331 -0.2415031 0 -0.0946331 -0.2165063 0 -0.0961194 -0.2071225 0 -0.1004327 -0.1986572 0 -0.1428492 -0.1919391 0 -0.1343839 -0.1876257 0 -0.125 -0.1861395 0 -0.0946331 -0.2415031 0.004999995 -0.1553668 -0.2415031 0.004999995 -0.3498908 -0.2403476 0.03799998 -0.3506769 -0.146 0.023 -0.3506769 -0.2408714 0.023 -0.1553668 -0.2415 0.004999995 -0.0946331 -0.2415 0.004999995 -0.3647405 -0.2408714 0.023 -0.3693714 -0.2362404 0.023 -0.3693714 -0.146 0.023 -0.3654603 -0.146 0.1349999 -0.3654603 0.146 0.1349999 -0.3506769 0.146 0.023 -0.3693714 0.146 0.023 -0.09489518 0.2415 0.004999995 -0.1551048 0.2415 0.004999995 -0.3693714 0.2362404 0.023 -0.3506769 0.2408714 0.023 -0.3647405 0.2408714 0.023 -0.3498908 0.2403476 0.03799998 0.2264091 -0.008586347 0 0.2456406 -0.02472341 0 0.2374476 -0.02174139 0 0.2307686 -0.01613706 0 0.2692314 -0.01613706 0 0.2625524 -0.02174139 0 0.2543594 -0.02472341 0 0.2735908 0.008586347 0 0.2751048 0 0 0.2735908 -0.008586347 0 0.2543594 0.02472341 0 0.2625524 0.02174139 0 0.2692314 0.01613706 0 0.2248952 0 0 0.2264091 0.008586347 0 0.2307686 0.01613706 0 0.2374476 0.02174139 0 0.2456406 0.02472341 0 -0.1551048 0.2165063 0.004999995 -0.09489518 0.2165063 0.004999995 -0.09636861 0.2072034 0.004999995 -0.1006447 0.1988112 0.004999995 -0.1073048 0.192151 0.004999995 -0.1156971 0.187875 0.004999995 -0.125 0.1864015 0.004999995 -0.1343029 0.187875 0.004999995 -0.1426952 0.192151 0.004999995 -0.1493553 0.1988112 0.004999995 -0.1536313 0.2072034 0.004999995 0.2481093 0.06310564 0.004999995 0.253192 0.03983467 0.004999995 0.2526585 0.0395314 0.02149999 0.2398725 0.08806014 0.004999995 0.2289732 0.111972 0.004999995 0.2155402 0.134558 0.004999995 0.1997328 0.1555508 0.004999995 0.181738 0.1747017 0.004999995 0.1617689 0.1917841 0.004999995 0.140062 0.2065955 0.004999995 0.1168743 0.2189609 0.004999995 0.0924803 0.2287335 0.004999995 0.06716889 0.2357979 0.004999995 0.01499998 0.2415 0.004999995 0.04123979 0.2400702 0.004999995 0.2610839 0.03315401 0.004999995 0.27 0.03315401 0.004999995 0.278 0.02515399 0.004999995 0.278 -0.02515399 0.004999995 0.27 -0.03315401 0.004999995 0.2610839 -0.03315401 0.004999995 0.253192 -0.03983467 0.004999995 0.2526585 -0.0395314 0.02149999 0.2481093 -0.06310564 0.004999995 0.04123979 -0.2400702 0.004999995 0.01499998 -0.2415 0.004999995 0.06716889 -0.2357979 0.004999995 0.0924803 -0.2287335 0.004999995 0.1168743 -0.2189609 0.004999995 0.140062 -0.2065955 0.004999995 0.1617689 -0.1917841 0.004999995 0.181738 -0.1747017 0.004999995 0.1997328 -0.1555508 0.004999995 0.2155402 -0.134558 0.004999995 0.2289732 -0.111972 0.004999995 0.2398725 -0.08806014 0.004999995 -0.0946331 -0.2165063 0.004999995 -0.1553668 -0.2165063 0.004999995 -0.1538805 -0.2071225 0.004999995 -0.1495673 -0.1986572 0.004999995 -0.1428492 -0.1919391 0.004999995 -0.1343839 -0.1876257 0.004999995 -0.125 -0.1861395 0.004999995 -0.1156161 -0.1876257 0.004999995 -0.1071508 -0.1919391 0.004999995 -0.1004327 -0.1986572 0.004999995 -0.0961194 -0.2071225 0.004999995 -0.3650009 -0.2415 0.004999995 -0.37 -0.2365007 0.004999995 -0.37 0.2365007 0.004999995 -0.3650009 0.2415 0.004999995 0.2751048 0 0.004999995 0.2735908 -0.008586347 0.004999995 0.2692314 -0.01613706 0.004999995 0.2625524 -0.02174139 0.004999995 0.2543594 -0.02472341 0.004999995 0.2456406 -0.02472341 0.004999995 0.2374476 -0.02174139 0.004999995 0.2307686 -0.01613706 0.004999995 0.2264091 -0.008586347 0.004999995 0.2248952 0 0.004999995 0.2264091 0.008586347 0.004999995 0.2307686 0.01613706 0.004999995 0.2374476 0.02174139 0.004999995 0.2456406 0.02472341 0.004999995 0.2543594 0.02472341 0.004999995 0.2625524 0.02174139 0.004999995 0.2692314 0.01613706 0.004999995 0.2735908 0.008586347 0.004999995</float_array>
          <technique_common>
            <accessor source="#BaseLink-mesh-positions-array" count="736" stride="3">
              <param name="X" type="float"/>
              <param name="Y" type="float"/>
              <param name="Z" type="float"/>
            </accessor>
          </technique_common>
        </source>
        <source id="BaseLink-mesh-normals">
          <float_array id="BaseLink-mesh-normals-array" count="3210">0 0 1 0 0 1 0 0 1 -8.31389e-7 0 1 -1.20207e-6 0 1 6.53043e-7 0 1 -3.96242e-7 0 1 -1.25622e-6 0 1 0 0 1 4.80824e-6 0 1 -3.25288e-6 0 1 4.11061e-6 0 1 9.61649e-6 0 1 -0.7071066 0 -0.707107 -0.7071072 0 -0.7071065 0.7071075 0 0.7071061 0.7071068 0 0.7071068 -0.707107 0 -0.7071066 -0.7071068 0 -0.7071068 0.7071072 0 0.7071065 -0.9659237 0.2588269 0 -0.9659237 -0.2588269 0 -0.7071113 -0.7071024 0 -0.7071114 -0.7071022 0 -0.2588191 -0.9659258 0 -0.2588192 -0.9659258 0 0.2588191 -0.9659258 0 0.2588179 -0.9659262 0 0.7071033 -0.7071103 0 0.7071035 -0.7071101 0 0.9659277 -0.2588121 0 0.9659277 0.2588121 0 0.7071033 0.7071103 0 0.7071035 0.7071101 0 0.2588178 0.9659262 0 0.2588192 0.9659258 0 -0.2588191 0.9659258 0 -0.2588192 0.9659258 0 -0.7071113 0.7071024 0 -0.7071114 0.7071022 0 -0.994522 0.1045282 0 -0.9945219 -0.1045284 0 -0.994522 -0.1045282 0 -0.9510566 -0.3090171 0 -0.8660248 -0.5000012 0 -0.8660264 -0.4999985 0 -0.7431444 -0.6691312 0 -0.5877844 -0.8090178 0 -0.5877855 -0.8090169 0 -0.4067361 -0.9135457 0 -0.4067369 -0.9135454 0 -0.2079116 -0.9781476 0 -0.2079122 -0.9781475 0 0 -1 0 0.2079116 -0.9781477 0 0.2079121 -0.9781476 0 0.4067359 -0.9135458 0 0.4067371 -0.9135454 0 0.5877841 -0.8090179 0 0.5877857 -0.8090167 0 0.7431444 -0.6691312 0 0.8660252 -0.5000004 0 0.8660258 -0.4999992 0 0.9510566 -0.3090171 0 0.9945219 -0.1045284 0 0.994522 -0.1045282 0 0.9945219 0.1045284 0 0.994522 0.1045282 0 0.9510566 0.3090171 0 0.8660248 0.5000012 0 0.8660264 0.4999985 0 0.7431444 0.6691312 0 0.5877844 0.8090178 0 0.5877855 0.8090169 0 0.4067361 0.9135457 0 0.4067369 0.9135454 0 0.2079116 0.9781476 0 0.2079122 0.9781475 0 0 1 0 -0.2079116 0.9781477 0 -0.2079121 0.9781476 0 -0.4067359 0.9135458 0 -0.4067371 0.9135454 0 -0.5877841 0.8090179 0 -0.5877857 0.8090167 0 -0.7431444 0.6691312 0 -0.8660252 0.5000004 0 -0.8660258 0.4999992 0 -0.9510566 0.3090171 0 -0.9945219 0.1045284 0 0.4999965 -0.7071107 0.4999982 0.5000019 -0.7071042 0.5000019 -0.4999976 -0.707111 -0.4999967 -0.5000019 -0.7071029 -0.5000036 -0.7071065 4.56529e-6 0.7071071 -0.7071036 3.65222e-6 0.70711 -0.7071059 0 0.7071077 -0.707105 0 0.7071086 -0.7071036 0 0.7071099 -0.7071073 -1.4609e-5 0.7071063 -0.5000008 0.7071061 -0.5000004 -0.4999977 0.7071098 -0.4999981 -0.7071067 -6.00852e-6 0.707107 -0.7071068 0 0.7071068 -0.7071031 0 0.7071106 -0.7071034 0 0.7071102 -0.7071073 0 0.7071063 -0.7071068 3.86439e-6 0.7071068 0.4999993 0.7071084 0.4999985 0.4999991 0.7071081 0.4999991 -0.7071091 0 0.7071046 -0.7071077 -1.27828e-5 0.7071059 -0.7071055 0 0.7071081 -0.7071072 0 0.7071065 -0.7071091 4.56529e-6 0.7071045 -0.7071068 5.47838e-6 0.7071068 -0.4999975 0.7071095 -0.4999988 0.4999984 0.7071072 0.500001 0.4999989 0.7071079 0.4999997 0.5000021 -0.7071045 0.5000013 -0.7071072 0 0.7071064 -0.7071036 0 0.7071101 -0.7071031 0 0.7071105 -0.707107 0 0.7071066 -0.5000022 -0.7071033 -0.500003 -0.7071046 3.65223e-6 0.7071091 -0.707105 0 0.7071086 -0.7071057 0 0.7071079 -0.7071056 0 0.707108 -0.7071055 -1.46089e-5 0.7071082 -0.7071085 0 0.7071051 -0.7071059 -1.27828e-5 0.7071077 -0.7071096 4.56529e-6 0.7071039 1.42637e-6 0 1 -2.28226e-5 0 1 8.54415e-7 0 1 -4.11816e-6 0 1 -1.73141e-6 0 1 -8.49473e-7 0 1 -8.19023e-7 0 1 1.73139e-6 0 1 -8.19024e-7 0 1 8.49472e-7 0 1 8.19024e-7 0 1 1.61979e-6 0 1 -2.43359e-7 0 1 -8.82641e-7 0 1 8.09272e-7 0 1 -1.29718e-6 0 1 -1.58721e-6 0 1 7.66656e-7 0 1 6.58199e-7 0 1 -1.57822e-6 0 1 6.83879e-7 0 1 2.02682e-7 0 1 1.57338e-6 0 1 -2.74851e-6 0 1 1.5683e-6 0 1 8.04116e-7 0 1 1.29962e-6 0 1 1.50608e-6 0 1 1.55748e-6 0 1 6.4981e-7 0 1 0.5 -0.7071068 0.5 0.4999974 -0.7071115 0.499996 0 -1 6.08704e-6 0 -1 -4.90493e-7 0 -1 -9.30098e-7 -0.499998 -0.7071096 -0.499998 -0.4999953 -0.7071121 -0.4999974 -0.7071048 0 -0.7071089 -0.7071053 0 -0.7071083 -0.4999962 0.7071132 -0.4999948 -0.4999992 0.7071046 -0.500004 0 1 -1.52176e-6 0 1 -2.45246e-7 0.4999986 0.7071058 0.5000028 0.499999 0.7071111 0.4999949 0.7071089 0 0.7071048 0.7071062 0 0.7071074 -0.4999981 -0.7071076 -0.5000008 -0.4999969 -0.7071114 -0.4999969 -0.7071051 0 -0.7071086 -0.707105 0 -0.7071086 -0.4999933 0.707112 -0.4999995 -0.5000004 0.7071073 -0.4999989 0 1 4.56528e-6 0 1 9.80987e-7 0 1 -7.35738e-7 0 1 -1.50699e-6 0.499999 0.7071081 0.499999 0.7071086 0 0.7071051 0.7071065 0 0.7071071 0.500001 -0.7071063 0.4999997 0.4999967 -0.7071105 0.499998 0 -1 -1.52176e-6 0 -1 2.00284e-6 0 -1 -1.40103e-6 -1 0 0 -0.7071055 0.7071082 0 -0.7071082 0.7071055 0 0.7071073 0.7071063 0 0.7071073 0.7071064 0 1 0 0 0.7071064 -0.7071073 0 0.7071082 -0.7071055 0 -0.7071073 -0.7071063 0 -0.7071064 -0.7071073 0 -0.2649104 -0.962659 0.05577021 -0.323752 0.9445078 0.05558478 -0.3539428 0.9332188 0.06186521 -0.2577929 -0.9645164 0.05702 -0.5224413 0.8510722 0.05226337 -0.7475521 0.6622559 0.05082327 -0.7475376 0.6622725 0.05081933 -0.9696863 0.2390103 0.05081939 -0.9696924 0.2389847 0.05082303 -0.9696882 -0.2390015 0.05082297 -0.9696902 -0.2389948 0.05081921 -0.7475437 -0.6622658 0.05081826 -0.7475377 -0.6622725 0.05081981 -0.3541424 -0.9338099 0.05081838 -0.2648898 0.9626767 0.05556327 -0.2805178 0.958459 0.05163574 0.1203899 0.9914251 0.05081862 0.1203871 0.9914255 0.05081856 0.5673221 0.8219266 0.05081838 0.5673415 0.821913 0.050821 0.8843114 0.4641239 0.05081969 0.8843094 0.4641275 0.05081915 0.998708 0 0.05081927 0.9987079 0 0.05081909 0.8843098 -0.4641267 0.05081981 0.8843107 -0.4641253 0.05081903 0.5673378 -0.8219158 0.05081892 0.5673339 -0.8219183 0.05081868 0.1203859 -0.9914256 0.05081921 0.1203705 -0.9914275 0.05081963 -0.3036507 -0.9513952 0.05141532 -0.5207813 -0.848182 0.09682118 0.9807846 0.1950937 0 0.9807846 -0.1950937 0 0.9807859 -0.1950877 0 0.8314638 -0.5555789 0 0.8314668 -0.5555747 0 0.5555711 -0.8314691 0 0.5555744 -0.8314668 0 0.19509 -0.9807854 0 0.1950888 -0.9807857 0 -0.19509 -0.9807854 0 -0.5555739 -0.8314672 0 -0.5555731 -0.8314678 0 -0.8314668 -0.5555747 0 -0.8314653 -0.5555768 0 -0.980787 -0.1950818 0 -0.9807865 -0.1950848 0 -0.9807865 0.1950848 0 -0.980787 0.1950818 0 -0.8314653 0.5555768 0 -0.8314668 0.5555747 0 -0.5555725 0.8314682 0 -0.5555744 0.8314668 0 -0.19509 0.9807854 0 0.1950888 0.9807857 0 0.19509 0.9807854 0 0.5555739 0.8314672 0 0.5555716 0.8314687 0 0.8314668 0.5555747 0 0.8314638 0.5555789 0 0.9807859 0.1950877 0 -0.5821644 0.1362342 0.8015765 -0.5821652 0.1362314 0.8015764 -0.5545473 0.2235028 0.801576 -0.5545466 0.2235015 0.8015768 -0.5139304 0.305534 0.8015763 -0.5139307 0.3055342 0.801576 -0.4612672 0.380405 0.8015764 -0.4612674 0.3804039 0.8015767 -0.3977931 0.4463587 0.8015762 -0.3977929 0.4463583 0.8015766 -0.3249946 0.5018502 0.8015765 -0.3249955 0.5018494 0.8015767 -0.2445795 0.545579 0.8015762 -0.2445787 0.5455789 0.8015766 -0.1584298 0.57652 0.8015765 -0.1584309 0.5765198 0.8015763 -0.06856757 0.5939477 0.8015763 -0.06856811 0.5939479 0.8015763 0.02289956 0.597454 0.8015761 0.02290076 0.5974533 0.8015767 0.1138337 0.5869556 0.8015767 0.1138333 0.586956 0.8015764 0.2020989 0.5627001 0.8015764 0.202097 0.5627006 0.8015765 0.2856242 0.5252565 0.8015763 0.2856255 0.5252559 0.8015761 0.3624582 0.4754986 0.8015766 0.3624583 0.4754991 0.8015764 0.430794 0.4145981 0.8015766 0.4307951 0.4145978 0.8015762 0.4890342 0.3439788 0.801576 0.4890338 0.3439795 0.801576 0.5358101 0.2652978 0.8015763 0.5358105 0.2652968 0.8015764 0.5700287 0.1803959 0.8015764 0.5700289 0.1803959 0.8015763 0.5908852 0.091268 0.8015764 0.5908855 0.09126842 0.8015762 0.5978925 0 0.8015763 0.5978927 0 0.8015763 0.5908854 -0.09126806 0.8015763 0.5908854 -0.09126836 0.8015763 0.570029 -0.180396 0.8015762 0.5700282 -0.1803959 0.8015768 0.5358099 -0.2652981 0.8015764 0.5358107 -0.2652965 0.8015765 0.4890342 -0.3439786 0.8015761 0.4890336 -0.3439798 0.8015759 0.4307946 -0.4145976 0.8015766 0.4307947 -0.4145985 0.801576 0.3624591 -0.4754986 0.8015763 0.362457 -0.4754995 0.8015767 0.285624 -0.5252563 0.8015764 0.2856255 -0.5252559 0.8015761 0.2020989 -0.5627001 0.8015764 0.2020969 -0.5627003 0.8015767 0.1138337 -0.5869558 0.8015766 0.1138332 -0.5869557 0.8015766 0.02289956 -0.5974536 0.8015764 0.02290081 -0.5974541 0.8015761 -0.06856757 -0.5939478 0.8015763 -0.06856811 -0.5939479 0.8015763 -0.1584298 -0.5765204 0.8015761 -0.1584308 -0.5765193 0.8015767 -0.2445794 -0.5455787 0.8015765 -0.244579 -0.5455797 0.8015759 -0.3249953 -0.5018497 0.8015766 -0.3249955 -0.50185 0.8015764 -0.3977932 -0.4463579 0.8015768 -0.3977931 -0.4463595 0.8015758 -0.4612672 -0.3804045 0.8015766 -0.4612675 -0.3804047 0.8015764 -0.5139309 -0.3055333 0.8015762 -0.5139299 -0.3055353 0.8015761 -0.5545471 -0.2235018 0.8015763 -0.5545471 -0.223503 0.801576 -0.5821647 -0.1362344 0.8015763 -0.5821649 -0.1362313 0.8015767 -0.596138 -0.04576581 0.8015767 -0.5961383 -0.04576802 0.8015763 -0.5961382 0.04576587 0.8015764 -0.596138 0.04576796 0.8015765 0.6260393 0.1530164 0.764631 0.6298449 0.1503579 0.7620288 0.6303864 0.1502267 0.7616069 0.6258179 0.1491282 0.7655801 0.6052144 0.2184439 0.765505 0.6052155 0.2184413 0.765505 0.6052154 0.2184426 0.7655045 0.5756897 0.2873727 0.7655053 0.575689 0.2873741 0.7655053 0.575689 0.2873688 0.7655073 0.5383434 0.3523979 0.7655078 0.5383429 0.3523984 0.765508 0.5383427 0.3524034 0.7655059 0.4936872 0.4126446 0.7655048 0.4936888 0.4126435 0.7655043 0.4936908 0.4126382 0.7655058 0.4423186 0.4672802 0.7655088 0.4423251 0.4672794 0.7655055 0.442327 0.467276 0.7655065 0.3849537 0.5155652 0.7655086 0.3849535 0.5155659 0.7655081 0.384953 0.5155652 0.7655088 0.3223534 0.5568532 0.7655082 0.3223546 0.5568543 0.7655069 0.3223543 0.5568535 0.7655076 0.255371 0.5905798 0.7655071 0.2553778 0.5905784 0.7655059 0.2553796 0.5905765 0.7655069 0.1849236 0.6162809 0.7655071 0.1849326 0.6162796 0.765506 0.1849328 0.6162812 0.7655047 0.1119678 0.6336132 0.7655048 0.1119723 0.6336119 0.7655052 0.03749406 0.6423352 0.7655063 0.03749507 0.6423352 0.7655062 0.03751009 0.6423348 0.7655059 0.1119729 0.6336132 0.7655041 -1.32145e-6 -0.9975641 0.06975585 0 -0.9975641 0.06975632 0 -0.9975641 0.06975644 2.47613e-7 -0.9975641 0.0697565 0 -0.9975641 0.06975507 0.997564 0 0.06975698 0.997564 0 0.06975698 0.6296228 -0.153892 0.7615067 0.6259445 -0.1513323 0.7650439 0.6303859 -0.1502268 0.7616073 0.03749406 -0.6423352 0.7655063 0.03749507 -0.6423355 0.7655058 0.03751009 -0.6423348 0.7655059 0.1119731 -0.6336132 0.7655041 0.1119722 -0.6336113 0.7655057 0.1119669 -0.6336133 0.765505 0.1849326 -0.6162806 0.7655051 0.1849328 -0.6162791 0.7655063 0.1849226 -0.6162803 0.7655079 0.2553795 -0.5905763 0.7655071 0.255378 -0.5905786 0.7655057 0.2553708 -0.5905799 0.7655072 0.3223543 -0.5568535 0.7655076 0.3223547 -0.5568538 0.7655072 0.3223538 -0.5568531 0.7655082 0.3849533 -0.5155656 0.7655084 0.3849537 -0.5155661 0.7655078 0.3849537 -0.5155652 0.7655086 0.442327 -0.467276 0.7655065 0.442325 -0.4672793 0.7655056 0.4423186 -0.4672802 0.7655088 0.4936908 -0.4126382 0.7655058 0.4936887 -0.4126437 0.7655043 0.4936872 -0.4126446 0.7655048 0.5383432 -0.3524032 0.7655055 0.5383429 -0.3523983 0.765508 0.5383434 -0.3523979 0.7655078 0.5756892 -0.2873689 0.7655072 0.5756892 -0.287374 0.7655051 0.5756901 -0.2873727 0.7655051 0.6052154 -0.2184426 0.7655045 0.6052157 -0.2184412 0.7655047 0.6052144 -0.2184439 0.765505 0.6258175 -0.1491283 0.7655805 0 0.9975641 0.06975632 -1.28922e-6 0.9975641 0.06975609 0 0.9975641 0.06975644 6.84399e-7 0.9975641 0.06975638 0 0.997564 0.0697565 0 -0.6427857 0.7660462 0 -0.6427891 0.7660433 -0.9824089 -0.1732247 0.0697562 -0.9824088 -0.173225 0.06975656 -0.9824095 -0.1732223 0.06975603 0 -0.997564 0.06975656 0 -0.9975641 0.06975674 -0.9659229 0.2588303 0 -0.9659229 -0.2588303 0 -0.9659241 -0.2588256 0 -0.707106 -0.7071077 0 -0.2588317 -0.9659224 0 0.2588305 -0.9659228 0 0.2588317 -0.9659224 0 0.707106 -0.7071077 0 0.7071085 -0.7071051 0 0.9659241 -0.2588256 0 0.9659241 0.2588256 0 0.707121 0.7070927 0 0.7071185 0.7070952 0 0.2588056 0.9659295 0 0.2588044 0.9659298 0 -0.2588056 0.9659295 0 -0.7071185 0.7070952 0 -0.9659241 0.2588256 0 0.997564 0 0.06975698 0.9975641 0 0.06975698 -0.7071074 2.55269e-5 0.7071063 -0.7071068 -2.73964e-6 0.7071068 -0.7071062 -6.25357e-7 0.7071074 -0.7071152 2.39879e-6 0.7070984 -0.7071062 0 0.7071075 -0.7071063 0 0.7071073 -0.7071129 -7.56457e-6 0.7071008 -0.7071067 9.09936e-7 0.707107 -0.7071004 -1.7584e-6 0.7071132 -0.7071039 0 0.7071097 -0.7071036 0 0.70711 -0.7070998 9.75736e-7 0.7071138 -0.9999978 -0.002120018 0 -0.9999982 -0.001791656 6.52059e-4 -0.9999985 -0.001719236 5.94354e-5 -0.9999995 -0.001100897 -5.11017e-5 -0.9999978 0.002119958 0 -0.9999982 0.001791656 -6.52064e-4 -0.9999986 0.001719236 -5.94351e-5 -0.9999992 0.00124526 2.57276e-5 -0.9999993 0.001098752 6.21596e-4 -0.9999996 7.71305e-4 -6.27535e-4 -0.9999998 4.7183e-4 6.2708e-4 -0.9999998 1.4871e-4 -6.0446e-4 -1 -1.40267e-4 0 -1 1.40266e-4 0 -0.9999999 -1.48708e-4 6.04453e-4 -0.9999998 -4.71832e-4 -6.27082e-4 -0.9999996 -7.713e-4 6.27532e-4 -0.9999986 -0.001240968 -0.001166701 1.9352e-6 0 1 5.2607e-6 0 1 -1.94012e-6 0 1 -9.67297e-7 0 1 1 -1.87758e-7 0 0 0.642787 0.766045 0 0.6427878 0.7660444 -0.7071067 2.94257e-6 0.7071069 -0.707107 -7.16551e-6 0.7071067 -0.7071064 3.75214e-7 0.7071072 -0.7070998 -9.75736e-7 0.7071138 -0.707103 0 0.7071105 -0.7071004 1.7584e-6 0.7071132 -0.7071063 -7.51946e-6 0.7071073 -0.7071129 7.56457e-6 0.7071008 -0.7071083 0 0.7071054 -0.7071152 -2.39879e-6 0.7070984 -4.08777e-7 0 1 9.85299e-6 0 1 -1.02368e-6 0 1 1.98261e-6 0 1 -3.2824e-5 0 1 1 4.1221e-7 0 7.36976e-7 0 1 -7.09674e-7 0 1 1.23039e-6 0 1 0 0 1 -8.958e-7 0 1 6.61154e-7 0 1 -8.11559e-7 0 1 -6.01775e-7 0 1 1.98772e-6 0 1 -1.97425e-6 0 1 -2.18111e-6 0 1 -1.26373e-7 0 1 2.74209e-6 0 1 2.96161e-6 0 1 2.05656e-6 0 1 2.72888e-6 0 1 -4.41936e-6 0 1 5.89087e-7 0 1 -1.26084e-6 0 1 9.97576e-7 0 1 -6.28927e-7 0 1 6.97695e-7 0 1 -1.91887e-7 0 1 -1.03564e-6 0 1 -1.95153e-6 0 1 2.02124e-6 0 1 6.61176e-7 0 1 8.69676e-7 0 1 -5.32994e-7 0 1 5.79662e-7 0 1 1.02607e-6 0 1 -1.67606e-7 0 1 -2.4583e-7 0 1 -2.9924e-7 0 1 -8.31702e-7 0 1 2.27013e-7 0 1 2.6631e-7 0 1 -1.63743e-5 0 1 -3.09403e-6 0 1 -2.09805e-7 0 1 3.18757e-7 0 1 -9.30393e-7 0 1 6.41295e-7 0 1 2.06214e-7 0 1 2.01667e-7 0 1 -5.04773e-7 0 1 7.00383e-7 0 1 -7.86388e-7 0 1 7.0972e-7 0 1 -7.75511e-7 0 1 7.04256e-7 0 1 -1.13237e-6 0 1 1.69995e-7 0 1 -2.33774e-7 0 1 1.82039e-6 0 1 -6.97777e-6 0 1 2.59646e-7 0 1 -5.66185e-7 0 1 -6.831e-7 0 1 -2.47004e-7 0 1 1.56474e-7 0 1 2.29379e-6 0 1 -4.62809e-7 0 1 2.497e-7 0 1 6.967e-7 0 1 0 0.997564 0.0697571 0 0.9975641 0.06975656 -0.9824093 0.1732233 0.06975603 -0.9824088 0.173225 0.06975656 -0.9824089 0.1732247 0.06975632 -0.7071185 -0.7070952 0 -0.2588056 -0.9659295 0 0.2588044 -0.9659298 0 0.2588056 -0.9659295 0 0.7071185 -0.7070952 0 0.707121 -0.7070927 0 0.7071085 0.7071051 0 0.707106 0.7071077 0 0.2588317 0.9659224 0 0.2588305 0.9659228 0 -0.2588317 0.9659224 0 -0.707106 0.7071077 0 -0.9659243 0.2588251 0 -0.9659243 -0.2588251 0 -0.7071053 -0.7071084 0 -0.7071104 -0.7071033 0 -0.2588167 -0.9659265 0 -0.2588219 -0.9659251 0 0.2588167 -0.9659265 0 0.2588219 -0.9659251 0 0.7071104 -0.7071033 0 0.9659243 -0.2588251 0 0.9659243 0.2588251 0 0.7071104 0.7071033 0 0.2588219 0.9659251 0 0.2588167 0.9659265 0 -0.2588219 0.9659251 0 -0.2588167 0.9659265 0 -0.7071104 0.7071033 0 -0.7071053 0.7071084 0 0 0 -1 0 0 -1 0 0 -1 0 0 -1 0 0 -1 0 0 -1 0 0 -1 0 0 -1 0 0 -1 0 0 -1 0 0 -1 0 0 -1 0 0 -1 0 0 -1 0 0 -1 0 0 -1 0 0 -1 0 0 -1 0 0 -1 0 0 -1 0 0 -1 0 0 -1 0 0 -1 0 0 -1 0.9782137 0.1604596 0.1317219 0.9781008 0.1611884 0.1316707 0.9693216 0.2097239 0.1281859 0.965036 0.2299762 0.1257632 0.9662891 0.2182528 0.1365699 0.9636404 0.2296339 0.136622 0.9427184 0.3089301 0.1258742 0.9335669 0.3369559 0.1221211 0.941155 0.3084809 0.1380828 0.931577 0.3362362 0.1382374 0.9036039 0.4097436 0.124941 0.8883864 0.4434656 0.1187767 0.9018925 0.4090299 0.1388692 0.8860315 0.4422832 0.1390464 0.8536764 0.5057581 0.12428 0.8311182 0.544049 0.1151227 0.8519589 0.5047199 0.13937 0.8284883 0.542337 0.1395631 0.7936064 0.5956864 0.1238824 0.7625189 0.6373451 0.1111587 0.7919436 0.5944234 0.1395932 0.7225961 0.6770264 0.1396071 0.7597912 0.6350514 0.1393808 0.7240732 0.6785159 0.1238313 0.6806988 0.7191132 0.1397336 0.6445047 0.7517593 0.1395412 0.6807401 0.7191349 0.1394196 0.645912 0.7532685 0.1240335 0.5924482 0.7934597 0.139381 0.55898 0.8174142 0.1391961 0.5924669 0.7934855 0.1391536 0.5600588 0.8190417 0.1245183 0.4961485 0.8570811 0.1387405 0.3931056 0.9091073 0.1378109 0.4961501 0.8570801 0.1387405 0.4675312 0.8750687 0.1251772 0.4675484 0.8750435 0.12529 0.2847102 0.9488327 0.1365897 0.3931179 0.9091022 0.1378101 0.3695074 0.9205939 0.1263775 0.36949 0.9206054 0.1263443 0.1724213 0.975718 0.135076 0.2847234 0.9488287 0.1365898 0.2667689 0.955263 0.127699 0.267053 0.9551861 0.1276806 0.05777919 0.9893937 0.1332727 0.1724302 0.9757162 0.1350769 0.1621074 0.9782394 0.1294943 0.1614793 0.9783685 0.1293047 0.05775284 0.9893952 0.1332738 0.0524531 0.9901133 0.1300939 0.05402654 0.9898821 0.1312044 1.50242e-6 0 1 -1.06817e-6 0 1 8.17365e-7 0 1 -8.84171e-7 0 1 2.21043e-7 0 1 8.93177e-7 0 1 0.9782137 -0.1604596 0.1317219 0.9655214 -0.2278017 0.1259962 0.9780683 -0.1610498 0.132081 0.9649827 -0.2299619 0.1261986 0.05402654 -0.9898821 0.1312044 0.0577529 -0.9893959 0.1332681 0.05243092 -0.9896951 0.133246 0.05777895 -0.9893938 0.1332727 0.1614793 -0.9783685 0.1293047 0.1724308 -0.975719 0.1350567 0.1619652 -0.9775185 0.135 0.1724213 -0.975718 0.135076 0.267053 -0.9551861 0.1276806 0.284725 -0.9488357 0.1365377 0.266537 -0.954111 0.136493 0.2847102 -0.9488327 0.1365897 0.36949 -0.9206054 0.1263443 0.3931231 -0.9091146 0.1377136 0.3689498 -0.9191957 0.1376785 0.3931056 -0.9091075 0.1378109 0.4675484 -0.8750435 0.12529 0.4961615 -0.8570988 0.1385841 0.4666563 -0.8735182 0.1385563 0.4961487 -0.857081 0.1387405 0.5600588 -0.8190417 0.1245183 0.5924669 -0.7934856 0.1391538 0.55898 -0.8174142 0.1391961 0.5924482 -0.7934597 0.139381 0.645912 -0.7532685 0.1240335 0.6807401 -0.719135 0.1394197 0.6445047 -0.7517593 0.1395412 0.6806987 -0.7191133 0.1397336 0.7240732 -0.6785159 0.1238313 0.7597913 -0.6350514 0.1393806 0.7225961 -0.6770264 0.1396071 0.7597396 -0.6350221 0.1397956 0.7936103 -0.5956744 0.1239142 0.8285506 -0.5423778 0.1390333 0.7919629 -0.5944528 0.1393581 0.8284938 -0.5423285 0.139563 0.8536849 -0.5057439 0.1242798 0.8861155 -0.442321 0.1383895 0.8519723 -0.50484 0.1388524 0.8860296 -0.4422869 0.1390466 0.9035809 -0.4097972 0.1249316 0.9316816 -0.336274 0.137439 0.9020185 -0.4090242 0.1380653 0.9315765 -0.3362375 0.1382374 0.9427006 -0.3089876 0.1258665 0.9637619 -0.2296628 0.1357131 0.9413868 -0.3084935 0.1364654 0.9682341 -0.2094896 0.1365172 0 0 -1 0 0 -1 0 0 -1 0 0 -1 0 0 -1 0 0 -1 0 0 -1 0 0 -1 0 0 -1 0 0 -1 0 0 -1 0 0 -1 0 0 -1 0 0 -1 0 0 -1 0 0 -1 0 0 -1 0 0 -1 0 0 -1 0 0 -1 0 0 -1 0 0 -1 0 0 -1 0 0 -1 0 0 -1 0 -0.99133 0.1313966 0 -0.99133 0.1313959 -1.70468e-7 0 1 8.20555e-7 0 1 -2.01423e-7 0 1 2.13482e-6 0 1 -1.75987e-7 0 1 8.14879e-7 0 1 1.82779e-7 0 1 -2.02954e-6 0 1 7.38956e-7 0 1 0 -0.99133 0.1313961 0 -0.9913297 0.1313989 3.40445e-6 -0.9913315 0.1313846 -1.51314e-7 -0.9913299 0.1313968 0 -0.9913299 0.1313971 -0.9986304 0 0.05232059 -0.9986298 -5.7226e-7 0.05233275 -0.9986296 0 0.05233454 2.62556e-7 0 1 0 -1 -4.78032e-7 0 -1 0 0 -1 -3.39232e-7 0 -1 1.3089e-6 0 -1 0 -1.33591e-6 0 -1 7.27504e-6 0 -1 2.6812e-6 0 -1 -2.67066e-6 0 -1 0 1 0 0 1 -9.56063e-7 0 0.99133 0.1313958 0 0.9913299 0.1313964 -0.9986298 5.7226e-7 0.05233275 0 0.9913302 0.1313947 0 0.9913299 0.1313967 -1.51314e-7 0.9913299 0.1313968 3.40445e-6 0.9913315 0.1313846 0 0.9913299 0.1313963 -1.7845e-6 0 1 -9.58332e-7 0 1 1.84504e-7 0 1 -1.45052e-6 0 1 1.88031e-7 0 1 0 0 -1 0 0 -1 0 0 -1 0 0 -1 0 0 -1 0 0 -1 0 0 -1 0 0 -1 0 0 -1 0 0 -1 0 0 -1 0 0 -1 0 0 -1 0 0 -1 0 0 -1 0 0 -1 0 0 -1 0 0 -1 0 0 -1 0 0 -1 0 0 -1 0 0 -1 0 0 -1 0 0 -1 0 0 -1 0 0 -1 0.9876883 -0.1564356 0 0.9876886 -0.1564332 0 0.8910055 -0.4539925 0 0.8910041 -0.4539955 0 0.7071131 -0.7071005 0 0.7071107 -0.7071029 0 0.4539841 -0.8910099 0 0.1564412 -0.9876873 0 -0.1564412 -0.9876873 0 -0.1564415 -0.9876873 0 -0.453983 -0.8910104 0 -0.4539841 -0.8910099 0 -0.7071107 -0.7071029 0 -0.7071119 -0.7071017 0 -0.891005 -0.4539935 0 -0.8910041 -0.4539955 0 -0.9876886 -0.1564332 0 -0.987689 -0.1564307 0 0.9496691 0.311215 0.03569388 0.9763526 0.2132516 0.03548902 0.9766078 0.2123108 0.03408026 0.9767695 0.2113353 0.03548091 0.9496526 0.3112649 0.03569418 0.9490562 0.313259 0.03407466 0.9101331 0.412782 0.03562301 0.9101388 0.4127693 0.03562325 0.9094014 0.4145156 0.03414624 0.8598132 0.5093693 0.03555697 0.8598112 0.5093727 0.03555685 0.8589757 0.5108719 0.03421568 0.7992661 0.5999286 0.0354889 0.7992709 0.5999222 0.03548812 0.7983798 0.6011774 0.03428363 0.7292635 0.6833159 0.03541493 0.7292317 0.6833499 0.03541487 0.7283318 0.684363 0.03435295 0.6504661 0.7587125 0.03534543 0.6505321 0.7586558 0.03534531 0.6496611 0.7594442 0.03442412 0.5640583 0.8249813 0.03527396 0.5641005 0.8249524 0.03527539 0.5632948 0.8255358 0.03449285 0.4710208 0.8814192 0.03520977 0.4709692 0.8814469 0.0352047 0.4702646 0.8818485 0.03456467 0.3722736 0.9274579 0.0351327 0.2686578 0.9626 0.03498947 0.1633024 0.9852566 -0.05100911 0.269091 0.9624764 0.03506392 0.3716565 0.9277081 0.03505986 0.2686333 0.9618722 -0.05136287 0.3722445 0.9274694 0.03513413 0.05437523 0.9979124 0.03484869 0.05446445 0.997905 0.03491866 0.1624777 0.9860942 0.03491836 0.05282139 0.9971714 -0.0534721 0.1627467 0.9860473 0.0349906 0.6457161 0.7627797 0.03489953 0.6457167 0.7627793 0.03489738 0.6457136 0.7627817 0.03489941 0 0.9993909 0.03489947 0 0.9993909 0.03489971 0.7066768 0.7066754 0.03489822 0.7066733 0.7066788 0.0349003 0.9993908 0 0.03490072 0.7066768 -0.7066752 0.0349003 0.7066733 -0.7066789 0.0348984 0 -0.9993909 0.03489971 0 -0.9993909 0.03489935 0.6457161 -0.7627798 0.03489744 0.6457151 -0.7627805 0.03489941 0.6457137 -0.7627817 0.03489953 0.9767695 -0.2113353 0.03548091 0.9763526 -0.2132516 0.03548902 0.05437511 -0.9979099 0.03491944 0.05446457 -0.9979075 0.03484755 0.2686571 -0.9625977 0.03506147 0.2690947 -0.9624883 0.03470474 0.1633461 -0.9859484 0.03498464 0.1624774 -0.9860917 0.03499025 0.1627479 -0.9860548 0.03477162 0.05285876 -0.9979916 0.03491228 0.4702537 -0.881829 0.03520339 0.4709804 -0.8814666 0.03455877 0.3722734 -0.9274579 0.03513401 0.3716555 -0.9277059 0.03513169 0.3722511 -0.9274858 0.03463077 0.2688471 -0.9625445 0.03506422 0.6496397 -0.7594202 0.03534448 0.650554 -0.7586801 0.03441154 0.5640585 -0.8249812 0.03527396 0.5632794 -0.8255133 0.03527325 0.5641161 -0.8249751 0.03448468 0.4710209 -0.8814192 0.03520876 0.798347 -0.6011515 0.03548473 0.7993046 -0.5999485 0.03426504 0.7292635 -0.6833159 0.03541427 0.7283048 -0.6843377 0.03541314 0.7292591 -0.6833756 0.03433704 0.6504661 -0.7587125 0.03534543 0.9093554 -0.4144926 0.03561985 0.9101858 -0.4127928 0.03411763 0.8598132 -0.5093693 0.03555721 0.8589355 -0.510848 0.03555351 0.8598521 -0.509397 0.0341922 0.7992661 -0.5999286 0.03548836 0.9766078 -0.2123108 0.03408026 0.9496691 -0.311215 0.03569388 0.9490033 -0.3132395 0.03569012 0.9497068 -0.3112848 0.03404074 0.9101331 -0.412782 0.03562301 -0.9876872 0.1564418 0 -0.9876877 0.1564394 0 -0.8910066 0.4539905 0 -0.8910056 0.4539925 0 -0.707107 0.7071067 0 -0.7071058 0.7071079 0 -0.4539995 0.8910021 0 -0.4540004 0.8910015 0 -0.1564278 0.9876894 0 -0.1564274 0.9876895 0 0.1564274 0.9876895 0 0.1564278 0.9876894 0 0.4540004 0.8910015 0 0.4539985 0.8910025 0 0.707107 0.7071067 0 0.8910056 0.4539925 0 0.8910061 0.4539915 0 0.9876884 0.1564346 0 0 -0.9993909 0.03489989 0 -0.9993908 0.03490155 0 -0.9993908 0.03490096 0 -0.9993909 0.03489917 0 -0.9993908 0.03490102 0 -0.999391 0.03489863 0 -0.9993909 0.03490012 0 -0.9993909 0.03489941 -0.7066848 -0.7066673 0.03490036 -0.7066798 -0.7066724 0.03489977 -0.9993909 0 0.03490042 -0.9993909 0 0.03490042 -0.9993909 0 0.03489929 -0.9993909 0 0.03489929 -0.7066798 0.7066724 0.03489977 -0.7066848 0.7066673 0.03489953 0 0.9993909 0.03489941 0 0.9993904 0.03491461 0 0.9993909 0.03490012 0 0.9993909 0.03489935 0 0.9993909 0.03489947 0 0.9993909 0.03489983 0 0.9993909 0.03489929 -1.20874e-7 0.9993909 0.03489953 0.984807 0.1736532 0 0.984807 -0.1736532 0 0.9848079 -0.1736481 0 0.8660265 -0.4999981 0 0.8660289 -0.4999942 0 0.6427863 -0.7660456 0 0.342021 -0.9396924 0 0.3420227 -0.9396918 0 -0.342021 -0.9396924 0 -0.6427863 -0.7660456 0 -0.642789 -0.7660434 0 -0.8660265 -0.4999981 0 -0.8660243 -0.5000022 0 -0.9848079 -0.1736481 0 -0.9848079 0.1736481 0 -0.8660243 0.5000022 0 -0.8660265 0.4999981 0 -0.642789 0.7660434 0 -0.6427863 0.7660456 0 -0.342021 0.9396924 0 0.3420227 0.9396918 0 0.342021 0.9396924 0 0.6427863 0.7660456 0 0.8660289 0.4999942 0 0.8660265 0.4999981 0 0.9848079 0.1736481 0 0 0 -1 0 0 -1 0 0 -1 -1.43669e-7 0 -1 0 0 -1 -1.2541e-7 0 -1 0 0 -1 0 0 -1 0 0 -1 0 0 -1 0 0 -1 0 0 -1 0 0 -1 0 0 -1 0 0 -1 0 0 -1 0 0 -1 0 0 -1 0 0 -1 0 0 -1 0 0 -1 0 0 -1 0 0 -1 -1.43669e-7 0 -1 0 0 -1 0 0 -1 0 0 -1 1.93935e-7 0 -1 0 0 -1 0 0 -1 0 0 -1 0 0 -1 0 0 -1 0 0 -1 0 0 -1 0 0 -1 0 0 -1 0 0 -1 0 0 -1 0 0 -1 0 0 -1 0 0 -1 0 0 -1 0 0 -1</float_array>
          <technique_common>
            <accessor source="#BaseLink-mesh-normals-array" count="1070" stride="3">
              <param name="X" type="float"/>
              <param name="Y" type="float"/>
              <param name="Z" type="float"/>
            </accessor>
          </technique_common>
        </source>
        <vertices id="BaseLink-mesh-vertices">
          <input semantic="POSITION" source="#BaseLink-mesh-positions"/>
        </vertices>
        <triangles material="colour_abb_white_002-material" count="1472">
          <input semantic="VERTEX" source="#BaseLink-mesh-vertices" offset="0"/>
          <input semantic="NORMAL" source="#BaseLink-mesh-normals" offset="1"/>
          <p>0 0 1 0 2 0 2 0 3 0 4 0 5 0 6 0 7 0 7 1 6 1 2 1 7 0 2 0 8 0 8 0 2 0 4 0 9 0 0 0 10 0 10 0 0 0 2 0 10 0 2 0 11 0 11 2 2 2 6 2 12 0 13 0 14 0 14 0 13 0 15 0 15 0 13 0 16 0 15 3 16 3 17 3 17 0 16 0 18 0 17 4 18 4 19 4 20 0 21 0 13 0 13 5 21 5 22 5 13 6 22 6 23 6 24 0 25 0 14 0 14 7 25 7 26 7 14 8 26 8 12 8 12 0 26 0 27 0 28 0 22 0 29 0 29 0 22 0 30 0 29 9 30 9 31 9 32 0 16 0 33 0 33 0 16 0 13 0 33 0 13 0 34 0 34 0 13 0 23 0 35 0 36 0 37 0 37 10 36 10 26 10 37 0 26 0 38 0 38 11 26 11 25 11 39 12 30 12 40 12 40 0 30 0 22 0 40 0 22 0 41 0 41 0 22 0 21 0 42 13 43 13 44 13 44 14 43 14 45 14 46 15 47 15 48 15 48 16 47 16 49 16 50 17 51 17 52 17 52 18 51 18 53 18 54 19 55 19 56 19 56 19 55 19 57 19 5 20 58 20 6 20 6 21 58 21 59 21 6 21 59 21 11 21 11 22 59 22 60 22 11 23 60 23 10 23 10 24 60 24 61 24 10 25 61 25 9 25 9 26 61 26 62 26 9 27 62 27 0 27 0 28 62 28 63 28 0 29 63 29 1 29 1 30 63 30 64 30 1 30 64 30 2 30 2 31 64 31 65 31 2 31 65 31 3 31 3 32 65 32 66 32 3 33 66 33 4 33 4 34 66 34 67 34 4 35 67 35 8 35 8 36 67 36 68 36 8 37 68 37 7 37 7 38 68 38 69 38 7 39 69 39 5 39 5 20 69 20 58 20 25 40 70 40 38 40 38 41 70 41 71 41 38 42 71 42 37 42 37 43 71 43 72 43 37 43 72 43 35 43 35 44 72 44 73 44 35 45 73 45 36 45 36 46 73 46 74 46 36 46 74 46 26 46 26 47 74 47 75 47 26 48 75 48 27 48 27 49 75 49 76 49 27 50 76 50 12 50 12 51 76 51 77 51 12 52 77 52 13 52 13 53 77 53 78 53 13 53 78 53 20 53 20 54 78 54 79 54 20 55 79 55 21 55 21 56 79 56 80 56 21 57 80 57 41 57 41 58 80 58 81 58 41 59 81 59 40 59 40 60 81 60 82 60 40 60 82 60 39 60 39 61 82 61 83 61 39 62 83 62 30 62 30 63 83 63 84 63 30 63 84 63 31 63 31 64 84 64 85 64 31 65 85 65 29 65 29 66 85 66 86 66 29 67 86 67 28 67 28 68 86 68 87 68 28 68 87 68 22 68 22 69 87 69 88 69 22 70 88 70 23 70 23 71 88 71 89 71 23 71 89 71 34 71 34 72 89 72 90 72 34 73 90 73 33 73 33 74 90 74 91 74 33 75 91 75 32 75 32 76 91 76 92 76 32 77 92 77 16 77 16 78 92 78 93 78 16 78 93 78 18 78 18 79 93 79 94 79 18 80 94 80 19 80 19 81 94 81 95 81 19 82 95 82 17 82 17 83 95 83 96 83 17 84 96 84 15 84 15 85 96 85 97 85 15 85 97 85 14 85 14 86 97 86 98 86 14 87 98 87 24 87 24 88 98 88 99 88 24 88 99 88 25 88 25 89 99 89 70 89 100 90 101 90 46 90 46 91 101 91 47 91 44 92 45 92 102 92 102 93 45 93 103 93 104 94 105 94 43 94 43 95 105 95 106 95 43 96 106 96 45 96 45 97 106 97 107 97 45 98 107 98 103 98 103 99 107 99 108 99 109 100 104 100 42 100 42 101 104 101 43 101 100 102 46 102 102 102 102 103 46 103 48 103 42 104 44 104 109 104 109 105 44 105 102 105 109 106 102 106 110 106 110 107 102 107 48 107 48 108 49 108 110 108 110 109 49 109 111 109 101 110 112 110 47 110 47 111 112 111 113 111 47 112 113 112 49 112 49 113 113 113 114 113 49 114 114 114 111 114 111 115 114 115 115 115 116 100 117 100 50 100 50 116 117 116 51 116 56 117 57 117 118 117 118 118 57 118 119 118 120 90 121 90 54 90 54 119 121 119 55 119 120 102 54 102 122 102 122 120 54 120 56 120 50 121 52 121 116 121 116 122 52 122 122 122 116 123 122 123 118 123 118 107 122 107 56 107 52 92 53 92 122 92 122 124 53 124 123 124 117 94 124 94 51 94 51 125 124 125 125 125 51 126 125 126 53 126 53 127 125 127 126 127 53 128 126 128 123 128 123 129 126 129 127 129 121 130 128 130 55 130 55 131 128 131 129 131 55 96 129 96 57 96 57 103 129 103 130 103 57 132 130 132 119 132 119 115 130 115 131 115 132 0 133 0 134 0 135 0 136 0 137 0 137 0 136 0 132 0 137 0 132 0 138 0 138 0 132 0 134 0 138 0 134 0 139 0 140 133 141 133 142 133 143 134 140 134 144 134 144 135 140 135 142 135 144 0 142 0 145 0 145 0 142 0 146 0 146 0 142 0 147 0 146 0 147 0 148 0 149 0 150 0 151 0 151 136 150 136 147 136 151 0 147 0 152 0 152 0 147 0 142 0 62 0 153 0 63 0 63 137 153 137 154 137 63 0 154 0 64 0 64 0 154 0 155 0 64 0 155 0 65 0 59 0 156 0 60 0 60 0 156 0 157 0 60 0 157 0 61 0 61 138 157 138 158 138 61 0 158 0 62 0 62 139 158 139 159 139 62 0 159 0 153 0 68 0 160 0 69 0 69 140 160 140 161 140 69 0 161 0 58 0 58 0 161 0 162 0 58 0 162 0 59 0 59 0 162 0 163 0 59 140 163 140 156 140 155 141 164 141 65 141 65 137 164 137 165 137 65 0 165 0 66 0 66 0 165 0 166 0 66 0 166 0 67 0 67 142 166 142 167 142 67 0 167 0 68 0 68 143 167 143 168 143 68 0 168 0 160 0 83 0 169 0 84 0 84 144 169 144 170 144 84 0 170 0 85 0 85 0 170 0 171 0 85 0 171 0 86 0 75 0 172 0 76 0 76 0 172 0 173 0 76 0 173 0 77 0 77 0 173 0 174 0 77 0 174 0 78 0 72 145 175 145 73 145 73 0 175 0 176 0 73 0 176 0 74 0 74 0 176 0 177 0 74 146 177 146 75 146 75 0 177 0 178 0 75 147 178 147 172 147 94 148 179 148 95 148 95 147 179 147 180 147 95 0 180 0 96 0 96 149 180 149 181 149 96 0 181 0 97 0 171 150 182 150 86 150 86 144 182 144 183 144 86 0 183 0 87 0 87 0 183 0 184 0 87 151 184 151 88 151 88 152 184 152 185 152 88 153 185 153 89 153 174 0 186 0 78 0 78 154 186 154 187 154 78 0 187 0 79 0 79 0 187 0 188 0 79 0 188 0 80 0 181 0 189 0 97 0 97 0 189 0 190 0 97 0 190 0 98 0 98 0 190 0 191 0 98 0 191 0 99 0 99 155 191 155 192 155 99 156 192 156 70 156 91 0 193 0 92 0 92 154 193 154 194 154 92 0 194 0 93 0 93 0 194 0 195 0 93 0 195 0 94 0 94 0 195 0 196 0 94 0 196 0 179 0 188 157 197 157 80 157 80 158 197 158 198 158 80 159 198 159 81 159 81 0 198 0 199 0 81 0 199 0 82 0 82 0 199 0 200 0 82 0 200 0 83 0 83 0 200 0 201 0 83 0 201 0 169 0 192 160 202 160 70 160 70 0 202 0 203 0 70 0 203 0 71 0 71 0 203 0 204 0 71 0 204 0 72 0 72 161 204 161 205 161 72 0 205 0 175 0 185 0 206 0 89 0 89 0 206 0 207 0 89 162 207 162 90 162 90 158 207 158 208 158 90 0 208 0 91 0 91 0 208 0 209 0 91 0 209 0 193 0 210 163 113 163 211 163 211 164 113 164 112 164 103 53 212 53 213 53 211 165 112 165 101 165 100 53 102 53 101 53 101 166 102 166 103 166 101 53 103 53 211 53 211 167 103 167 213 167 213 168 212 168 214 168 214 169 212 169 107 169 214 170 107 170 215 170 215 171 107 171 106 171 215 172 106 172 216 172 216 173 106 173 217 173 111 78 115 78 218 78 216 174 105 174 104 174 109 78 110 78 104 78 104 175 110 175 111 175 104 78 111 78 216 78 216 78 111 78 218 78 218 176 115 176 219 176 219 177 115 177 114 177 219 178 114 178 210 178 210 179 114 179 113 179 220 180 221 180 222 180 222 181 221 181 126 181 222 182 126 182 223 182 223 183 126 183 125 183 223 184 125 184 224 184 224 185 125 185 225 185 119 186 131 186 226 186 224 78 124 78 117 78 116 187 118 187 117 187 117 188 118 188 119 188 117 78 119 78 224 78 224 189 119 189 226 189 226 190 131 190 227 190 227 177 131 177 130 177 227 191 130 191 228 191 228 192 130 192 129 192 228 193 129 193 229 193 229 194 129 194 128 194 123 195 221 195 220 195 229 53 128 53 121 53 120 53 122 53 121 53 121 53 122 53 123 53 121 196 123 196 229 196 229 197 123 197 220 197 230 198 135 198 231 198 231 198 135 198 137 198 231 199 137 199 232 199 232 200 137 200 138 200 232 78 138 78 233 78 233 78 138 78 139 78 233 201 139 201 234 201 234 202 139 202 134 202 234 203 134 203 235 203 235 203 134 203 133 203 235 204 133 204 236 204 236 205 133 205 132 205 236 53 132 53 237 53 237 53 132 53 136 53 237 206 136 206 230 206 230 207 136 207 135 207 238 208 239 208 240 208 241 209 242 209 142 209 142 210 242 210 152 210 238 211 240 211 243 211 242 212 244 212 152 212 152 213 244 213 245 213 152 214 245 214 151 214 151 215 245 215 246 215 151 216 246 216 149 216 149 217 246 217 247 217 149 218 247 218 150 218 150 219 247 219 248 219 150 220 248 220 147 220 147 221 248 221 148 221 249 222 241 222 250 222 250 223 241 223 142 223 250 224 142 224 251 224 251 225 142 225 141 225 251 226 141 226 252 226 252 227 141 227 140 227 252 228 140 228 253 228 253 229 140 229 143 229 253 230 143 230 254 230 254 231 143 231 144 231 254 232 144 232 255 232 255 233 144 233 145 233 255 234 145 234 256 234 256 235 145 235 146 235 256 236 146 236 240 236 240 237 146 237 148 237 240 238 148 238 243 238 243 239 148 239 248 239 257 240 155 240 258 240 258 241 155 241 154 241 258 242 154 242 259 242 259 243 154 243 153 243 259 244 153 244 260 244 260 245 153 245 159 245 260 246 159 246 261 246 261 247 159 247 158 247 261 248 158 248 262 248 262 249 158 249 157 249 262 249 157 249 263 249 263 250 157 250 156 250 263 251 156 251 264 251 264 252 156 252 163 252 264 253 163 253 265 253 265 254 163 254 162 254 265 255 162 255 266 255 266 256 162 256 161 256 266 257 161 257 267 257 267 258 161 258 160 258 267 259 160 259 268 259 268 260 160 260 168 260 268 261 168 261 269 261 269 262 168 262 167 262 269 262 167 262 270 262 270 263 167 263 166 263 270 264 166 264 271 264 271 265 166 265 165 265 271 266 165 266 272 266 272 267 165 267 164 267 272 268 164 268 257 268 257 269 164 269 155 269 273 270 170 270 274 270 274 271 170 271 169 271 274 272 169 272 275 272 275 273 169 273 201 273 275 274 201 274 276 274 276 275 201 275 200 275 276 276 200 276 277 276 277 277 200 277 199 277 277 278 199 278 278 278 278 279 199 279 198 279 278 280 198 280 279 280 279 281 198 281 197 281 279 282 197 282 280 282 280 283 197 283 188 283 280 284 188 284 281 284 281 285 188 285 187 285 281 286 187 286 282 286 282 287 187 287 186 287 282 288 186 288 283 288 283 289 186 289 174 289 283 290 174 290 284 290 284 291 174 291 173 291 284 292 173 292 285 292 285 293 173 293 172 293 285 294 172 294 286 294 286 295 172 295 178 295 286 296 178 296 287 296 287 297 178 297 177 297 287 298 177 298 288 298 288 299 177 299 176 299 288 300 176 300 289 300 289 301 176 301 175 301 289 302 175 302 290 302 290 303 175 303 205 303 290 304 205 304 291 304 291 305 205 305 204 305 291 306 204 306 292 306 292 307 204 307 203 307 292 308 203 308 293 308 293 309 203 309 202 309 293 310 202 310 294 310 294 311 202 311 192 311 294 312 192 312 295 312 295 313 192 313 191 313 295 314 191 314 296 314 296 315 191 315 190 315 296 316 190 316 297 316 297 317 190 317 189 317 297 318 189 318 298 318 298 319 189 319 181 319 298 320 181 320 299 320 299 321 181 321 180 321 299 322 180 322 300 322 300 323 180 323 179 323 300 324 179 324 301 324 301 325 179 325 196 325 301 326 196 326 302 326 302 327 196 327 195 327 302 328 195 328 303 328 303 329 195 329 194 329 303 330 194 330 304 330 304 331 194 331 193 331 304 332 193 332 305 332 305 333 193 333 209 333 305 334 209 334 306 334 306 335 209 335 208 335 306 336 208 336 307 336 307 337 208 337 207 337 307 338 207 338 308 338 308 339 207 339 206 339 308 340 206 340 309 340 309 341 206 341 185 341 309 342 185 342 310 342 310 343 185 343 184 343 310 344 184 344 311 344 311 345 184 345 183 345 311 346 183 346 312 346 312 347 183 347 182 347 312 348 182 348 313 348 313 349 182 349 171 349 313 350 171 350 273 350 273 351 171 351 170 351 314 352 315 352 316 352 316 353 315 353 317 353 316 354 317 354 318 354 316 355 319 355 314 355 314 356 319 356 320 356 314 357 320 357 321 357 320 358 322 358 321 358 321 359 322 359 323 359 321 360 323 360 324 360 323 361 325 361 324 361 324 362 325 362 326 362 324 363 326 363 327 363 326 364 328 364 327 364 327 365 328 365 329 365 327 366 329 366 330 366 329 367 331 367 330 367 330 368 331 368 332 368 330 369 332 369 333 369 332 370 334 370 333 370 333 371 334 371 335 371 333 372 335 372 336 372 335 373 337 373 336 373 336 374 337 374 338 374 336 375 338 375 339 375 338 376 340 376 339 376 339 377 340 377 341 377 339 378 341 378 342 378 341 379 343 379 342 379 342 380 343 380 344 380 342 381 344 381 345 381 344 382 346 382 345 382 345 383 346 383 347 383 345 384 347 384 348 384 349 385 350 385 351 385 351 386 350 386 348 386 351 387 348 387 352 387 352 388 348 388 347 388 353 389 318 389 317 389 354 390 353 390 355 390 355 391 353 391 317 391 355 392 317 392 356 392 356 393 317 393 315 393 356 394 357 394 355 394 355 395 357 395 358 395 359 396 360 396 361 396 361 397 360 397 362 397 361 398 362 398 363 398 364 399 365 399 366 399 366 400 365 400 367 400 365 401 368 401 367 401 367 402 368 402 369 402 367 403 369 403 370 403 369 404 371 404 370 404 370 405 371 405 372 405 370 406 372 406 373 406 372 407 374 407 373 407 373 408 374 408 375 408 373 409 375 409 376 409 375 410 377 410 376 410 376 411 377 411 378 411 376 412 378 412 379 412 378 413 380 413 379 413 379 414 380 414 381 414 379 415 381 415 382 415 381 416 383 416 382 416 382 417 383 417 384 417 382 418 384 418 385 418 384 419 386 419 385 419 385 420 386 420 387 420 385 421 387 421 388 421 387 422 389 422 388 422 388 423 389 423 390 423 388 424 390 424 391 424 390 425 392 425 391 425 391 426 392 426 393 426 391 427 393 427 394 427 393 428 395 428 394 428 394 429 395 429 396 429 394 430 396 430 360 430 360 431 396 431 397 431 360 432 397 432 362 432 398 433 399 433 358 433 363 434 398 434 361 434 361 435 398 435 358 435 361 436 358 436 359 436 359 437 358 437 357 437 400 438 401 438 366 438 366 439 401 439 364 439 402 440 403 440 400 440 400 441 403 441 404 441 400 442 404 442 401 442 402 443 405 443 403 443 403 444 405 444 406 444 407 445 408 445 409 445 409 446 408 446 410 446 409 447 410 447 411 447 411 448 410 448 412 448 411 448 412 448 413 448 413 449 412 449 414 449 413 449 414 449 415 449 415 450 414 450 416 450 415 451 416 451 417 451 417 452 416 452 418 452 417 453 418 453 419 453 419 454 418 454 420 454 419 454 420 454 421 454 421 455 420 455 422 455 421 455 422 455 423 455 423 456 422 456 424 456 423 457 424 457 425 457 425 458 424 458 426 458 425 459 426 459 427 459 427 460 426 460 428 460 427 460 428 460 429 460 429 461 428 461 430 461 429 461 430 461 407 461 407 462 430 462 408 462 405 463 431 463 406 463 406 464 431 464 432 464 433 465 434 465 211 465 435 466 436 466 216 466 216 467 218 467 435 467 435 468 218 468 219 468 435 469 219 469 434 469 434 470 219 470 210 470 434 471 210 471 211 471 211 472 213 472 433 472 433 473 213 473 214 473 433 474 214 474 436 474 436 475 214 475 215 475 436 476 215 476 216 476 434 0 437 0 435 0 435 0 437 0 438 0 439 477 440 477 441 477 441 478 440 478 442 478 441 479 442 479 443 479 443 480 442 480 444 480 445 481 446 481 447 481 447 482 446 482 448 482 447 483 448 483 449 483 449 484 448 484 450 484 449 485 450 485 451 485 451 486 450 486 452 486 451 487 452 487 453 487 453 488 452 488 454 488 453 489 454 489 455 489 455 490 454 490 456 490 455 491 456 491 457 491 457 492 456 492 444 492 457 493 444 493 458 493 458 494 444 494 442 494 439 0 441 0 459 0 459 0 441 0 443 0 459 495 443 495 444 495 452 496 460 496 454 496 454 0 460 0 459 0 454 0 459 0 456 0 456 497 459 497 444 497 452 0 450 0 460 0 460 498 450 498 448 498 460 0 448 0 446 0 460 198 461 198 459 198 459 198 461 198 462 198 462 0 461 0 463 0 463 0 461 0 464 0 243 203 465 203 238 203 238 499 465 499 466 499 238 203 466 203 239 203 437 203 466 203 438 203 438 203 466 203 465 203 438 203 465 203 464 203 464 203 465 203 463 203 350 500 349 500 467 500 467 501 349 501 468 501 469 502 470 502 229 502 471 503 472 503 224 503 229 504 220 504 469 504 469 505 220 505 222 505 469 474 222 474 472 474 472 506 222 506 223 506 472 507 223 507 224 507 224 508 226 508 471 508 471 509 226 509 227 509 471 469 227 469 470 469 470 510 227 510 228 510 470 511 228 511 229 511 473 0 471 0 232 0 470 512 230 512 471 512 471 0 230 0 231 0 471 0 231 0 232 0 248 513 247 513 236 513 247 514 246 514 236 514 236 0 246 0 245 0 236 515 245 515 235 515 243 516 248 516 465 516 465 0 248 0 236 0 465 0 236 0 470 0 470 0 236 0 237 0 470 0 237 0 230 0 232 0 233 0 473 0 473 0 233 0 234 0 473 0 234 0 242 0 242 0 234 0 235 0 242 0 235 0 244 0 244 0 235 0 245 0 249 203 474 203 241 203 241 517 474 517 473 517 241 203 473 203 242 203 342 518 345 518 348 518 475 0 474 0 476 0 476 0 474 0 249 0 360 0 359 0 357 0 324 519 348 519 321 519 321 0 348 0 356 0 321 520 356 520 314 520 314 0 356 0 315 0 394 521 367 521 370 521 394 522 370 522 391 522 391 523 370 523 373 523 391 524 373 524 388 524 388 525 373 525 376 525 388 526 376 526 385 526 385 527 376 527 379 527 385 0 379 0 382 0 271 528 272 528 356 528 336 0 339 0 333 0 333 0 339 0 342 0 333 0 342 0 330 0 330 529 342 529 348 529 330 0 348 0 327 0 327 0 348 0 324 0 272 530 257 530 356 530 356 531 257 531 258 531 356 0 258 0 357 0 357 531 258 531 259 531 357 532 259 532 260 532 252 0 477 0 251 0 251 0 477 0 476 0 251 533 476 533 250 533 250 534 476 534 249 534 274 0 275 0 477 0 477 535 275 535 276 535 477 536 276 536 277 536 289 537 290 537 269 537 269 538 290 538 291 538 269 539 291 539 268 539 268 0 291 0 292 0 268 540 292 540 267 540 252 0 253 0 477 0 477 541 253 541 254 541 477 0 254 0 274 0 274 542 254 542 255 542 274 543 255 543 273 543 273 544 255 544 256 544 405 545 311 545 312 545 260 528 261 528 357 528 357 546 261 546 367 546 357 0 367 0 360 0 360 547 367 547 394 547 300 548 301 548 367 548 267 0 292 0 266 0 266 0 292 0 293 0 266 549 293 549 265 549 265 550 293 550 294 550 265 0 294 0 264 0 264 0 294 0 295 0 264 551 295 551 296 551 308 552 309 552 405 552 405 553 309 553 310 553 405 554 310 554 311 554 466 0 431 0 239 0 239 555 431 555 405 555 239 556 405 556 240 556 240 557 405 557 312 557 240 0 312 0 256 0 256 0 312 0 313 0 256 0 313 0 273 0 277 0 278 0 477 0 477 558 278 558 279 558 477 0 279 0 467 0 350 0 283 0 348 0 348 559 283 559 284 559 348 560 284 560 285 560 402 0 306 0 405 0 405 561 306 561 307 561 405 562 307 562 308 562 261 0 262 0 367 0 367 563 262 563 263 563 367 564 263 564 264 564 367 565 301 565 366 565 279 0 280 0 467 0 467 566 280 566 281 566 467 0 281 0 350 0 350 567 281 567 282 567 350 568 282 568 283 568 285 569 286 569 348 569 348 570 286 570 287 570 348 571 287 571 288 571 296 572 297 572 264 572 264 573 297 573 298 573 264 574 298 574 367 574 367 570 298 570 299 570 367 575 299 575 300 575 301 0 302 0 366 0 366 568 302 568 303 568 366 0 303 0 400 0 400 576 303 576 304 576 400 0 304 0 402 0 402 577 304 577 305 577 402 578 305 578 306 578 271 579 356 579 270 579 270 580 356 580 348 580 270 0 348 0 269 0 269 581 348 581 288 581 269 582 288 582 289 582 475 463 476 463 478 463 478 464 476 464 479 464 476 583 477 583 479 583 479 584 477 584 480 584 468 585 481 585 467 585 467 586 481 586 480 586 467 587 480 587 477 587 482 445 483 445 484 445 484 446 483 446 485 446 484 447 485 447 486 447 486 588 485 588 487 588 486 588 487 588 488 588 488 589 487 589 489 589 488 589 489 589 490 589 490 590 489 590 491 590 490 591 491 591 492 591 492 592 491 592 493 592 492 593 493 593 494 593 494 454 493 454 495 454 494 454 495 454 496 454 496 455 495 455 497 455 496 455 497 455 498 455 498 594 497 594 499 594 498 595 499 595 500 595 500 596 499 596 501 596 500 597 501 597 502 597 502 598 501 598 503 598 502 598 503 598 504 598 504 599 503 599 505 599 504 599 505 599 482 599 482 462 505 462 483 462 506 600 507 600 508 600 508 601 507 601 509 601 508 601 509 601 510 601 510 602 509 602 511 602 510 603 511 603 512 603 512 604 511 604 513 604 512 605 513 605 514 605 514 606 513 606 515 606 514 607 515 607 516 607 516 608 515 608 517 608 516 608 517 608 518 608 518 609 517 609 519 609 518 609 519 609 520 609 520 610 519 610 521 610 520 610 521 610 522 610 522 611 521 611 523 611 522 611 523 611 524 611 524 612 523 612 525 612 524 613 525 613 526 613 526 614 525 614 527 614 526 615 527 615 528 615 528 616 527 616 529 616 528 617 529 617 506 617 506 600 529 600 507 600 498 618 530 618 496 618 496 619 530 619 531 619 496 620 531 620 494 620 494 621 531 621 532 621 494 622 532 622 492 622 533 623 534 623 484 623 484 624 534 624 535 624 484 625 535 625 482 625 482 626 535 626 536 626 482 627 536 627 504 627 484 628 486 628 533 628 533 629 486 629 488 629 533 630 488 630 532 630 532 631 488 631 490 631 532 632 490 632 492 632 502 633 537 633 500 633 500 634 537 634 538 634 500 635 538 635 498 635 498 636 538 636 539 636 498 637 539 637 530 637 536 638 540 638 504 638 504 639 540 639 541 639 504 640 541 640 502 640 502 641 541 641 542 641 502 641 542 641 537 641 543 78 544 78 532 78 532 78 544 78 533 78 354 642 545 642 353 642 353 643 545 643 546 643 353 644 546 644 547 644 318 645 353 645 316 645 316 646 353 646 547 646 316 647 547 647 319 647 319 648 547 648 548 648 319 649 548 649 320 649 320 650 548 650 549 650 320 651 549 651 322 651 322 652 549 652 550 652 322 653 550 653 323 653 323 654 550 654 551 654 323 655 551 655 325 655 325 656 551 656 552 656 325 657 552 657 326 657 326 658 552 658 553 658 326 659 553 659 328 659 328 660 553 660 554 660 328 661 554 661 329 661 554 662 555 662 329 662 329 663 555 663 556 663 329 664 556 664 331 664 331 665 556 665 557 665 331 666 557 666 332 666 332 667 557 667 558 667 332 668 558 668 334 668 334 669 558 669 559 669 334 670 559 670 335 670 335 671 559 671 560 671 335 672 560 672 337 672 337 673 560 673 561 673 337 674 561 674 338 674 562 675 341 675 340 675 338 676 561 676 340 676 340 677 561 677 563 677 340 678 563 678 562 678 564 679 344 679 343 679 341 680 562 680 343 680 343 681 562 681 565 681 343 682 565 682 564 682 566 683 347 683 346 683 344 684 564 684 346 684 346 685 564 685 567 685 346 686 567 686 566 686 568 687 351 687 352 687 347 688 566 688 352 688 352 689 566 689 569 689 352 690 569 690 568 690 351 691 568 691 349 691 349 692 568 692 570 692 349 693 570 693 571 693 572 0 573 0 574 0 517 0 515 0 575 0 575 694 515 694 513 694 575 0 513 0 576 0 576 695 513 695 511 695 576 696 511 696 577 696 523 0 358 0 525 0 525 0 358 0 399 0 525 0 399 0 527 0 511 697 509 697 577 697 577 0 509 0 507 0 577 0 507 0 578 0 578 0 507 0 529 0 578 0 529 0 579 0 579 698 529 698 527 698 579 0 527 0 574 0 574 0 527 0 399 0 574 699 399 699 572 699 546 0 545 0 575 0 575 699 545 699 354 699 575 0 354 0 517 0 517 0 354 0 355 0 517 0 355 0 519 0 519 0 355 0 358 0 519 0 358 0 521 0 521 0 358 0 523 0 399 700 398 700 572 700 572 701 398 701 363 701 572 702 363 702 573 702 573 703 363 703 362 703 364 704 580 704 581 704 364 705 581 705 365 705 365 706 581 706 582 706 365 707 582 707 368 707 368 708 582 708 583 708 368 709 583 709 369 709 369 710 583 710 584 710 369 711 584 711 371 711 371 712 584 712 585 712 371 713 585 713 372 713 372 714 585 714 586 714 372 715 586 715 374 715 374 716 586 716 587 716 374 717 587 717 375 717 375 718 587 718 588 718 375 719 588 719 377 719 377 720 588 720 589 720 377 721 589 721 378 721 378 722 589 722 590 722 378 723 590 723 380 723 380 724 590 724 591 724 380 725 591 725 381 725 381 726 591 726 592 726 381 727 592 727 383 727 383 728 592 728 593 728 383 729 593 729 384 729 384 730 593 730 594 730 384 731 594 731 386 731 386 732 594 732 595 732 386 733 595 733 387 733 387 734 595 734 596 734 387 735 596 735 389 735 389 736 596 736 597 736 389 737 597 737 390 737 390 738 597 738 598 738 390 739 598 739 392 739 392 740 598 740 599 740 392 741 599 741 393 741 393 742 599 742 600 742 393 743 600 743 395 743 395 744 600 744 601 744 395 745 601 745 396 745 396 746 601 746 602 746 396 747 602 747 397 747 397 748 602 748 603 748 397 749 603 749 362 749 362 750 603 750 604 750 362 751 604 751 573 751 605 752 606 752 421 752 421 753 606 753 607 753 421 754 607 754 419 754 419 755 607 755 608 755 419 756 608 756 417 756 415 757 609 757 413 757 413 758 609 758 610 758 413 759 610 759 411 759 421 760 423 760 605 760 605 761 423 761 425 761 605 762 425 762 611 762 611 763 425 763 427 763 427 764 429 764 611 764 611 765 429 765 407 765 611 766 407 766 612 766 612 767 407 767 409 767 612 768 409 768 613 768 613 769 409 769 411 769 613 770 411 770 614 770 614 771 411 771 610 771 608 772 615 772 417 772 417 773 615 773 616 773 417 774 616 774 415 774 415 775 616 775 617 775 415 776 617 776 609 776 618 53 619 53 611 53 611 53 619 53 605 53 404 777 580 777 401 777 401 778 580 778 364 778 424 0 422 0 432 0 432 0 422 0 420 0 432 0 420 0 406 0 408 0 430 0 404 0 404 779 430 779 428 779 404 0 428 0 432 0 432 780 428 780 426 780 432 781 426 781 424 781 408 782 404 782 410 782 410 783 404 783 403 783 410 0 403 0 412 0 420 784 418 784 406 784 406 785 418 785 416 785 406 0 416 0 403 0 403 786 416 786 414 786 403 787 414 787 412 787 432 788 431 788 620 788 620 789 431 789 466 789 620 790 466 790 433 790 433 791 466 791 437 791 433 792 437 792 434 792 433 793 436 793 620 793 620 794 436 794 621 794 620 795 621 795 622 795 623 0 619 0 624 0 624 0 619 0 618 0 625 0 622 0 626 0 626 796 622 796 621 796 626 0 621 0 627 0 446 53 445 53 460 53 460 53 445 53 628 53 435 53 438 53 464 53 464 797 461 797 435 797 435 53 461 53 460 53 435 798 460 798 436 798 436 799 460 799 628 799 436 800 628 800 621 800 621 801 628 801 627 801 445 641 447 641 628 641 628 641 447 641 449 641 628 802 449 802 451 802 457 803 629 803 455 803 455 641 629 641 628 641 455 641 628 641 453 641 453 804 628 804 451 804 457 641 458 641 629 641 629 805 458 805 442 805 629 641 442 641 440 641 463 78 465 78 470 78 630 78 631 78 469 78 469 806 631 806 629 806 469 78 629 78 470 78 440 78 439 78 629 78 629 78 439 78 459 78 629 78 459 78 470 78 470 78 459 78 462 78 470 807 462 807 463 807 571 808 481 808 349 808 349 809 481 809 468 809 544 0 543 0 632 0 632 0 543 0 633 0 631 0 630 0 634 0 634 796 630 796 635 796 634 0 635 0 636 0 635 795 630 795 637 795 637 810 630 810 469 810 637 793 469 793 472 793 474 811 475 811 478 811 471 812 473 812 472 812 472 813 473 813 474 813 472 814 474 814 637 814 637 815 474 815 478 815 505 816 480 816 483 816 483 0 480 0 481 0 483 0 481 0 485 0 505 0 503 0 480 0 480 787 503 787 501 787 480 0 501 0 479 0 501 817 499 817 479 817 479 785 499 785 497 785 479 818 497 818 478 818 478 819 497 819 495 819 478 0 495 0 493 0 493 0 491 0 478 0 478 781 491 781 489 781 478 0 489 0 481 0 481 820 489 820 487 820 481 779 487 779 485 779 520 821 522 821 638 821 526 822 639 822 524 822 524 823 639 823 640 823 524 824 640 824 522 824 522 825 640 825 641 825 522 826 641 826 638 826 506 827 642 827 528 827 528 828 642 828 643 828 528 829 643 829 526 829 526 641 643 641 644 641 526 641 644 641 639 641 510 830 645 830 508 830 508 831 645 831 646 831 508 832 646 832 506 832 506 833 646 833 647 833 506 834 647 834 642 834 514 835 648 835 512 835 512 836 648 836 649 836 512 837 649 837 510 837 510 838 649 838 650 838 510 839 650 839 645 839 638 840 651 840 520 840 520 841 651 841 652 841 520 842 652 842 518 842 518 843 652 843 653 843 518 844 653 844 516 844 516 845 653 845 654 845 516 846 654 846 514 846 514 641 654 641 655 641 514 641 655 641 648 641 543 198 532 198 633 198 633 198 532 198 531 198 633 198 531 198 656 198 534 847 657 847 658 847 534 848 658 848 535 848 535 849 658 849 659 849 535 850 659 850 536 850 536 851 659 851 660 851 536 852 660 852 540 852 540 853 660 853 661 853 540 853 661 853 541 853 541 854 661 854 662 854 541 854 662 854 542 854 542 855 662 855 663 855 542 856 663 856 537 856 537 857 663 857 664 857 537 858 664 858 538 858 538 859 664 859 665 859 538 860 665 860 539 860 539 861 665 861 666 861 539 862 666 862 530 862 530 863 666 863 656 863 530 864 656 864 531 864 657 203 534 203 632 203 632 203 534 203 533 203 632 203 533 203 544 203 667 865 548 865 547 865 668 866 667 866 669 866 669 867 667 867 547 867 669 868 547 868 546 868 548 869 667 869 549 869 549 870 667 870 670 870 549 871 670 871 550 871 550 872 670 872 551 872 551 873 670 873 671 873 551 874 671 874 552 874 552 875 671 875 553 875 553 876 671 876 672 876 553 877 672 877 554 877 554 878 672 878 555 878 555 879 672 879 673 879 555 880 673 880 556 880 556 881 673 881 557 881 557 882 673 882 674 882 557 883 674 883 558 883 558 884 674 884 559 884 559 885 674 885 675 885 559 886 675 886 560 886 560 887 675 887 561 887 561 888 675 888 676 888 561 889 676 889 563 889 563 890 676 890 562 890 562 891 676 891 677 891 562 892 677 892 565 892 678 893 679 893 569 893 569 894 566 894 678 894 678 895 566 895 567 895 678 896 567 896 677 896 677 897 567 897 564 897 677 898 564 898 565 898 680 899 571 899 681 899 681 900 571 900 570 900 681 901 570 901 679 901 679 902 570 902 568 902 679 903 568 903 569 903 682 904 668 904 575 904 575 905 668 905 669 905 575 906 669 906 546 906 575 907 576 907 682 907 682 908 576 908 683 908 576 909 577 909 683 909 683 910 577 910 684 910 577 911 578 911 684 911 684 911 578 911 685 911 578 912 579 912 685 912 685 913 579 913 686 913 579 914 574 914 686 914 686 915 574 915 687 915 688 916 687 916 689 916 689 917 687 917 574 917 689 918 574 918 573 918 689 919 573 919 604 919 690 920 688 920 689 920 691 921 581 921 692 921 692 922 581 922 580 922 693 923 694 923 585 923 585 924 584 924 693 924 693 925 584 925 583 925 693 926 583 926 691 926 691 927 583 927 582 927 691 928 582 928 581 928 695 929 696 929 589 929 589 930 588 930 695 930 695 931 588 931 587 931 695 932 587 932 694 932 694 933 587 933 586 933 694 934 586 934 585 934 697 935 698 935 593 935 593 936 592 936 697 936 697 937 592 937 591 937 697 938 591 938 696 938 696 939 591 939 590 939 696 940 590 940 589 940 699 941 700 941 597 941 597 942 596 942 699 942 699 943 596 943 595 943 699 944 595 944 698 944 698 945 595 945 594 945 698 946 594 946 593 946 701 947 702 947 601 947 601 948 600 948 701 948 701 949 600 949 599 949 701 950 599 950 700 950 700 951 599 951 598 951 700 952 598 952 597 952 689 953 604 953 690 953 690 954 604 954 603 954 690 955 603 955 702 955 702 956 603 956 602 956 702 957 602 957 601 957 618 203 611 203 624 203 624 203 611 203 612 203 624 203 612 203 703 203 606 958 704 958 705 958 606 959 705 959 607 959 607 960 705 960 706 960 607 961 706 961 608 961 608 962 706 962 707 962 608 963 707 963 615 963 615 964 707 964 708 964 615 965 708 965 616 965 616 966 708 966 709 966 616 967 709 967 617 967 617 968 709 968 710 968 617 969 710 969 609 969 609 970 710 970 711 970 609 971 711 971 610 971 610 972 711 972 712 972 610 972 712 972 614 972 614 973 712 973 713 973 614 974 713 974 613 974 613 975 713 975 703 975 613 975 703 975 612 975 605 198 619 198 606 198 606 198 619 198 623 198 606 198 623 198 704 198 625 976 714 976 622 976 622 977 714 977 623 977 620 978 622 978 432 978 432 979 622 979 623 979 432 980 623 980 404 980 404 981 623 981 624 981 404 982 624 982 580 982 580 983 624 983 692 983 714 984 625 984 715 984 715 985 625 985 626 985 715 986 626 986 716 986 716 986 626 986 627 986 634 987 716 987 631 987 631 987 716 987 627 987 631 988 627 988 629 988 629 989 627 989 628 989 634 990 636 990 716 990 716 991 636 991 717 991 717 992 636 992 633 992 633 993 636 993 635 993 571 994 680 994 481 994 481 995 680 995 632 995 481 996 632 996 478 996 478 997 632 997 633 997 478 998 633 998 637 998 637 999 633 999 635 999 645 1000 718 1000 646 1000 646 1001 718 1001 719 1001 646 1002 719 1002 647 1002 647 1003 719 1003 720 1003 647 1004 720 1004 642 1004 642 1005 720 1005 721 1005 642 1005 721 1005 643 1005 643 1006 721 1006 722 1006 643 1007 722 1007 644 1007 644 53 722 53 723 53 644 53 723 53 639 53 639 1008 723 1008 724 1008 639 1008 724 1008 640 1008 640 1009 724 1009 725 1009 640 1010 725 1010 641 1010 641 1011 725 1011 726 1011 641 1012 726 1012 638 1012 638 1013 726 1013 727 1013 638 1013 727 1013 651 1013 651 1014 727 1014 728 1014 651 1014 728 1014 652 1014 652 1015 728 1015 729 1015 652 1016 729 1016 653 1016 653 1017 729 1017 730 1017 653 1018 730 1018 654 1018 654 1019 730 1019 731 1019 654 1019 731 1019 655 1019 655 78 731 78 732 78 655 78 732 78 648 78 648 1020 732 1020 733 1020 648 1021 733 1021 649 1021 649 1022 733 1022 734 1022 649 1022 734 1022 650 1022 650 1023 734 1023 735 1023 650 1024 735 1024 645 1024 645 1025 735 1025 718 1025 677 641 676 641 675 641 688 1026 725 1026 724 1026 715 1027 727 1027 726 1027 721 641 720 641 685 641 685 641 686 641 721 641 721 641 686 641 687 641 721 641 687 641 722 641 722 1028 687 1028 688 1028 722 641 688 641 723 641 723 1029 688 1029 724 1029 711 641 710 641 726 641 716 641 717 641 633 641 720 641 719 641 685 641 685 1030 719 1030 718 1030 685 641 718 641 684 641 731 641 668 641 732 641 732 1028 668 1028 682 1028 732 641 682 641 733 641 733 641 682 641 683 641 733 641 683 641 734 641 734 641 683 641 684 641 734 641 684 641 735 641 735 641 684 641 718 641 665 1031 715 1031 666 1031 666 641 715 641 716 641 666 1032 716 1032 656 1032 656 1033 716 1033 633 1033 665 1034 664 1034 715 1034 715 1035 664 1035 663 1035 715 1036 663 1036 662 1036 730 641 729 641 715 641 715 1037 729 1037 728 1037 715 1038 728 1038 727 1038 710 641 709 641 726 641 726 1039 709 1039 708 1039 726 641 708 641 715 641 715 1040 708 1040 707 1040 715 1041 707 1041 706 1041 623 641 714 641 704 641 704 1042 714 1042 715 1042 704 641 715 641 705 641 705 1043 715 1043 706 1043 657 1044 675 1044 674 1044 657 641 674 641 658 641 658 1045 674 1045 673 1045 658 1046 673 1046 672 1046 692 641 624 641 703 641 662 641 661 641 715 641 715 1047 661 1047 668 1047 715 1048 668 1048 730 1048 730 1049 668 1049 731 1049 661 641 660 641 668 641 668 1050 660 1050 659 1050 668 641 659 641 667 641 667 1051 659 1051 658 1051 667 1052 658 1052 670 1052 670 641 658 641 672 641 670 1053 672 1053 671 1053 680 641 681 641 679 641 688 1054 690 1054 725 1054 725 1055 690 1055 713 1055 725 641 713 641 726 641 726 1056 713 1056 712 1056 726 1057 712 1057 711 1057 657 641 632 641 675 641 675 641 632 641 680 641 675 1058 680 1058 677 1058 677 1059 680 1059 679 1059 677 1060 679 1060 678 1060 691 1061 697 1061 696 1061 691 641 696 641 693 641 693 1062 696 1062 695 1062 693 1060 695 1060 694 1060 690 1063 702 1063 713 1063 713 1064 702 1064 701 1064 713 1065 701 1065 700 1065 691 1066 692 1066 697 1066 697 1067 692 1067 703 1067 697 641 703 641 698 641 698 1068 703 1068 713 1068 698 641 713 641 699 641 699 1069 713 1069 700 1069</p>
        </triangles>
      </mesh>
    </geometry>
  </library_geometries>
  <library_visual_scenes>
    <visual_scene id="Scene" name="Scene">
      <node id="BaseLink" name="BaseLink" type="NODE">
        <matrix sid="transform">1 0 0 0 0 1 0 0 0 0 1 0 0 0 0 1</matrix>
        <instance_geometry url="#BaseLink-mesh" name="BaseLink">
          <bind_material>
            <technique_common>
              <instance_material symbol="colour_abb_white_002-material" target="#colour_abb_white_002-material"/>
            </technique_common>
          </bind_material>
        </instance_geometry>
      </node>
    </visual_scene>
  </library_visual_scenes>
  <scene>
    <instance_visual_scene url="#Scene"/>
  </scene>
</COLLADA>