<?xml version="1.0" encoding="utf-8"?>
<COLLADA xmlns="http://www.collada.org/2005/11/COLLADASchema" version="1.4.1" xmlns:xsi="http://www.w3.org/2001/XMLSchema-instance">
  <asset>
    <contributor>
      <author>Blender User</author>
      <authoring_tool>Blender 2.82.7</authoring_tool>
    </contributor>
    <created>2024-02-04T10:43:33</created>
    <modified>2024-02-04T10:43:33</modified>
    <unit name="meter" meter="1"/>
    <up_axis>Z_UP</up_axis>
  </asset>
  <library_effects>
    <effect id="colour_abb_white_011-effect">
      <profile_COMMON>
        <technique sid="common">
          <lambert>
            <emission>
              <color sid="emission">0 0 0 1</color>
            </emission>
            <diffuse>
              <color sid="diffuse">0.7404 0.7404 0.7248001 1</color>
            </diffuse>
            <index_of_refraction>
              <float sid="ior">1</float>
            </index_of_refraction>
          </lambert>
        </technique>
      </profile_COMMON>
    </effect>
  </library_effects>
  <library_images/>
  <library_materials>
    <material id="colour_abb_white_011-material" name="colour_abb_white.011">
      <instance_effect url="#colour_abb_white_011-effect"/>
    </material>
  </library_materials>
  <library_geometries>
    <geometry id="Link2-mesh" name="Link2">
      <mesh>
        <source id="Link2-mesh-positions">
          <float_array id="Link2-mesh-positions-array" count="2607">0.03370207 -0.138 -0.009442865 0.02990466 -0.138 -0.01818543 0.02388936 -0.138 -0.02557915 -0.03210234 -0.138 0.01394408 -0.02714985 -0.138 0.02208811 -0.0201838 -0.138 0.02859389 0.01610225 -0.138 -0.03107595 0.02388936 -0.138 -0.02557927 -0.01172077 -0.138 0.03297919 -0.01172077 -0.138 0.03297913 -0.002388477 -0.138 0.03491836 0.007120966 -0.138 0.0342679 0.01610225 -0.138 0.03107601 0.02388936 -0.138 0.02557921 0.007120966 -0.138 -0.03426784 -0.002388477 -0.138 -0.03491836 -0.01172077 -0.138 -0.03297907 -0.03210234 -0.138 -0.01394397 -0.03467398 -0.138 -0.004765748 -0.03467398 -0.138 0.004765808 -0.02714985 -0.138 -0.02208805 -0.0201838 -0.138 -0.02859383 0.03499996 -0.138 0 0.03370207 -0.138 0.009442925 0.02990466 -0.138 0.01818549 -0.02267247 -0.11 0.4946458 -0.01621919 -0.11 0.5002377 -0.008451998 -0.11 0.5037849 -0.008451998 -0.11 0.4462152 -0.01621919 -0.11 0.4497624 0 -0.11 0.445 -0.02267247 -0.11 0.4553542 -0.02728897 -0.11 0.4625377 -0.02728897 -0.11 0.4625375 -0.02728897 -0.11 0.4874624 -0.02969455 -0.11 0.4707306 -0.02969455 -0.11 0.4792695 0 -0.11 0.505 0.008451998 -0.11 0.5037849 0.02267247 -0.11 0.4553542 0.01621919 -0.11 0.5002377 0.008451998 -0.11 0.4462152 0.01621919 -0.11 0.4497624 0.02267247 -0.11 0.4946458 0.02728897 -0.11 0.4874624 0.02728897 -0.11 0.4625377 0.02728897 -0.11 0.4625375 0.02969455 -0.11 0.4792695 0.02969455 -0.11 0.4707306 0.03499996 -0.143 0 0.03370207 -0.143 -0.009442865 0.02990466 -0.143 -0.01818537 0.02990466 -0.143 -0.01818543 0.02990466 -0.138 -0.01818537 0.02388936 -0.143 -0.02557915 0.02388936 -0.143 -0.02557927 0.01610225 -0.143 -0.03107595 0.007120966 -0.143 -0.03426784 -0.002388477 -0.143 -0.03491836 -0.01172077 -0.143 -0.03297907 -0.0201838 -0.143 -0.02859383 -0.02714985 -0.143 -0.02208805 -0.03210234 -0.143 -0.01394397 -0.03467398 -0.143 -0.004765748 -0.03467398 -0.143 0.004765808 -0.03210234 -0.143 0.01394408 -0.02714985 -0.143 0.02208811 -0.0201838 -0.143 0.02859389 -0.01172077 -0.143 0.03297919 -0.01172077 -0.143 0.03297913 -0.002388477 -0.143 0.03491836 0.007120966 -0.143 0.0342679 0.01610225 -0.143 0.03107601 0.02388936 -0.143 0.02557921 0.02990466 -0.143 0.01818549 0.03370207 -0.143 0.009442925 -0.04198688 -0.1705 -0.08372336 -0.04273688 -0.1705 -0.08502238 -0.04198688 -0.2045416 -0.08372336 -0.04273688 -0.2045416 -0.08502238 -0.05226314 -0.1705 -0.07952237 -0.05151313 -0.1705 -0.07822334 -0.05226314 -0.2045416 -0.07952237 -0.05151313 -0.2045416 -0.07822334 0 -0.115 0.445 -0.008451998 -0.115 0.4462152 -0.01621919 -0.115 0.4497624 -0.02267247 -0.115 0.4553542 -0.02728897 -0.115 0.4625377 -0.02728897 -0.115 0.4625375 -0.02969455 -0.115 0.4707306 -0.02969455 -0.115 0.4792695 -0.02728897 -0.115 0.4874624 -0.02267247 -0.115 0.4946458 -0.01621919 -0.115 0.5002377 -0.008451998 -0.115 0.5037849 0 -0.115 0.505 0.008451998 -0.115 0.5037849 0.01621919 -0.115 0.5002377 0.02267247 -0.115 0.4946458 0.02728897 -0.115 0.4874624 0.02969455 -0.115 0.4792695 0.02969455 -0.115 0.4707306 0.02728897 -0.115 0.4625377 0.02728897 -0.115 0.4625375 0.02267247 -0.115 0.4553542 0.01621919 -0.115 0.4497624 0.008451998 -0.115 0.4462152 0.01782339 -0.143 0.05880153 0.0141893 -0.143 0.06357419 0.009088695 -0.143 0.0671972 0.009088695 -0.143 0.06719708 0.00312817 -0.143 0.06909871 -0.00312817 -0.143 0.06909871 -0.009088695 -0.143 0.06719708 -0.0141893 -0.143 0.06357419 -0.01782339 -0.143 0.05880153 -0.02721494 -0.143 0.0550875 -0.006094992 -0.143 -0.06114023 -0.05345028 -0.143 0.03030431 -0.04641586 -0.143 0.04025983 -0.03755444 -0.143 0.04863065 0.006094992 -0.143 -0.06114023 0.01804506 -0.143 -0.05873376 -0.05906552 -0.143 -0.01692765 -0.0612449 -0.143 -0.004934072 -0.06101369 -0.143 0.007253706 -0.05838096 -0.143 0.01915591 -0.01804506 -0.143 -0.05873376 -0.02928489 -0.143 -0.05401557 -0.03937208 -0.143 -0.04717117 -0.04790955 -0.143 -0.03847014 -0.05456131 -0.143 -0.02825504 -0.05456131 -0.143 -0.02825498 0.02928489 -0.143 -0.05401557 0.03937208 -0.143 -0.04717117 0.04790961 -0.143 -0.03847014 0.05456137 -0.143 -0.02825504 0.027215 -0.143 0.0550875 0.0375545 -0.143 0.04863065 0.04641586 -0.143 0.04025983 0.05456137 -0.143 -0.02825498 0.05906558 -0.143 -0.01692765 0.0612449 -0.143 -0.004934072 0.06101369 -0.143 0.007253706 0.05838096 -0.143 0.01915591 0.05345028 -0.143 0.03030431 -0.03710764 -0.1705 -0.08827233 -0.03710764 -0.2045416 -0.08827233 -0.04984825 -0.1705 -0.07642906 -0.04984825 -0.2045416 -0.07642906 -0.04756969 -0.1705 -0.07553476 -0.04756969 -0.2045416 -0.07553476 -0.04512876 -0.1705 -0.07571768 -0.04512876 -0.2045416 -0.07571768 -0.04300898 -0.1705 -0.07694154 -0.04300898 -0.2045416 -0.07694154 -0.04163014 -0.1705 -0.07896393 -0.04163014 -0.2045416 -0.07896393 -0.04126536 -0.1705 -0.08138436 -0.04126536 -0.2045416 -0.08138436 -0.05789226 -0.1705 -0.07627236 -0.05789226 -0.2045416 -0.07627236 -0.02713459 -0.1100058 0.4018006 -0.02713459 -0.1135 0.4055392 -0.01671987 -0.1135 0.4023259 0.02713459 -0.1100058 0.4018006 0.02713459 -0.1065 0.3980727 0.01828938 -0.1065 0.3955041 -0.02713459 -0.1065 0.3980727 -0.01828938 -0.1065 0.3955041 -0.01378118 -0.1135 0.4018796 -0.006142854 -0.1065 0.393659 -0.00561577 -0.1135 0.4006391 -0.006142854 -0.1065 0.3936589 0 -0.1135 0.4006391 0.006142854 -0.1065 0.393659 0.02713459 -0.1135 0.4055392 0.01671987 -0.1135 0.4023259 0.01378118 -0.1135 0.4018796 0.006142854 -0.1065 0.3936589 0.00561577 -0.1135 0.4006391 0.005499958 -0.115 0.540526 0.005499958 -0.115 0.5400001 0.005129456 -0.1192353 0.540928 0.004756271 -0.1235 0.5400001 0.004756271 -0.1235 0.54133 -0.004756271 -0.1235 0.54133 -0.004756271 -0.1235 0.5400001 -0.005129456 -0.1192353 0.540928 -0.005499958 -0.115 0.5400001 -0.005499958 -0.115 0.540526 0.04011708 -0.115 0.5109248 0.04688119 -0.115 0.5014978 0.0514689 -0.115 0.4908404 0.01965296 -0.115 0.4248629 -0.008323252 -0.115 0.540228 -0.01113098 -0.115 0.539808 -0.01113098 -0.115 0.527688 -0.004763066 -0.115 0.5372501 -0.002749979 -0.115 0.5352371 0.008323311 -0.115 0.540228 0.01113098 -0.115 0.539808 0.004763066 -0.115 0.5372501 0.01113098 -0.115 0.527688 0.002749979 -0.115 0.5352371 0 -0.115 0.5345 -0.02140235 -0.115 0.5244161 -0.01698237 -0.115 0.4191152 -0.01965296 -0.115 0.4248629 -0.02924537 -0.115 0.4297819 -0.0514689 -0.115 0.4908404 -0.04688119 -0.115 0.5014978 -0.04011708 -0.115 0.5109248 -0.03149056 -0.115 0.518684 -0.03825247 -0.115 0.437096 -0.04548376 -0.115 0.4461697 -0.05060368 -0.115 0.4565818 -0.0533744 -0.115 0.4678488 -0.0536673 -0.115 0.4794479 0.02924537 -0.115 0.4297819 0.03825247 -0.115 0.437096 0.04548376 -0.115 0.4461697 0.02140229 -0.115 0.5244161 0.03149056 -0.115 0.518684 -0.006562054 -0.115 0.4111363 -0.01242989 -0.115 0.4142668 0 -0.115 0.4100545 0.05366736 -0.115 0.4794479 0.0533744 -0.115 0.4678488 0.05060368 -0.115 0.4565818 0.006562054 -0.115 0.4111363 0.01242989 -0.115 0.4142668 0.01698237 -0.115 0.4191152 0.01980561 -0.147241 0.06129246 -0.01980561 -0.147241 0.06129246 -0.02173537 -0.1515 0.06379413 -0.01834118 -0.1515 0.0678386 0.02173537 -0.1515 0.06379413 0.01834118 -0.1515 0.0678386 0.01174807 -0.1515 0.0725218 0.004043459 -0.1515 0.0749796 -0.004043459 -0.1515 0.0749796 -0.01174807 -0.1515 0.0725218 -0.009088695 -0.143 0.0671972 0.02985119 -0.1515 0.06042361 -0.02173537 -0.1515 0.06379401 0.04119229 -0.1515 0.05334138 0.05091196 -0.1515 0.04415959 0.0586279 -0.1515 0.03323966 0.06403607 -0.1515 0.02101153 0.06692379 -0.1515 0.007956326 0.06717747 -0.1515 -0.005412042 0.06478697 -0.1515 -0.01856738 0.05984646 -0.1515 -0.03099197 0.05255037 -0.1515 -0.04219663 0.04318588 -0.1515 -0.05174046 0.03212159 -0.1515 -0.05924779 0.01979309 -0.1515 -0.06442308 0.006685376 -0.1515 -0.06706267 -0.006685376 -0.1515 -0.06706267 -0.01979297 -0.1515 -0.06442308 -0.03212159 -0.1515 -0.05924779 -0.04318588 -0.1515 -0.05174046 -0.05255037 -0.1515 -0.04219663 -0.05984646 -0.1515 -0.03099197 -0.06478697 -0.1515 -0.01856738 -0.06717747 -0.1515 -0.005412042 -0.06692385 -0.1515 0.007956326 -0.06403607 -0.1515 0.02101153 -0.05862784 -0.1515 0.03323966 -0.05091202 -0.1515 0.04415959 -0.04119229 -0.1515 0.05334138 -0.02985119 -0.1515 0.06042361 0.02713459 -0.1065 0.3860312 0.03297328 -0.1065 0.3668139 0.02519094 -0.1065 0.3644496 -0.02713459 -0.1065 0.3860312 -0.02519094 -0.1065 0.3644496 -0.03297328 -0.1065 0.3668139 -0.01281255 -0.1065 0.3679623 0 -0.1065 0.3691465 0.01281261 -0.1065 0.3679623 0.0715 -0.156058 0.3504738 0.0715 -0.1710054 0.3504738 0.0715 -0.156058 0.3355264 0.0715 -0.156058 0.3355262 0.0715 -0.1710054 0.3355264 -0.05416935 -0.2145 0.4388052 -0.04606729 -0.2145 0.4289327 -0.0361948 -0.2145 0.4208307 -0.01270985 -0.2145 0.4111028 0 -0.2145 0.409851 -0.04606729 -0.2145 0.521067 0.04606729 -0.2145 0.521067 0.04606729 -0.2145 0.4289327 0.05416935 -0.2145 0.5111948 0.06389719 -0.2145 0.4877101 0.06018978 -0.2145 0.4999314 0.0361948 -0.2145 0.5291691 0.02493137 -0.2145 0.53519 0.01270985 -0.2145 0.538897 0 -0.2145 0.5401491 0.06389719 -0.2145 0.4622901 0.065149 -0.2145 0.475 0.06018978 -0.2145 0.4500687 0.06018978 -0.2145 0.4500685 0.05416935 -0.2145 0.4388052 -0.05416935 -0.2145 0.5111948 -0.06018978 -0.2145 0.4999314 -0.06389713 -0.2145 0.4877101 -0.06514894 -0.2145 0.475 -0.06389713 -0.2145 0.4622901 0.0361948 -0.2145 0.4208307 0.02493137 -0.2145 0.4148102 0.01270985 -0.2145 0.4111028 -0.0361948 -0.2145 0.5291691 -0.02493137 -0.2145 0.53519 -0.01270985 -0.2145 0.538897 -0.02493137 -0.2145 0.4148102 -0.06018978 -0.2145 0.4500687 -0.07499998 -0.1515 0.05741775 -0.07499998 -0.1636114 0.05636739 -0.07499998 -0.1721419 0.05561876 0.0605725 -0.143 0.0730555 0.07056999 -0.143 0.06345093 0.07055318 -0.14725 0.06313598 -0.07499998 -0.1755 0.05532407 -0.07889509 -0.1755 0.04961168 -0.06576842 -0.1515 0.06779605 -0.07622802 -0.143 0.05652809 -0.08303463 -0.143 0.04594981 -0.08269721 -0.1593243 0.0447846 -0.08269721 -0.1593243 0.04478448 -0.08235597 -0.1755 0.04362624 -0.0660786 -0.143 0.06811571 -0.05418813 -0.143 0.07790881 -0.05393373 -0.1515 0.07754307 -0.04086995 -0.143 0.08564919 -0.0406782 -0.1515 0.08524709 -0.02647507 -0.143 0.09113287 -0.02635079 -0.1515 0.09070509 -0.01138257 -0.143 0.09421557 -0.01132905 -0.1515 0.0937733 0.004009783 -0.143 0.0948159 0.003990948 -0.1515 0.0943709 0.003990948 -0.1515 0.09437078 0.01929646 -0.143 0.09291809 0.01929646 -0.143 0.09291821 0.01920598 -0.1515 0.09248197 0.0340749 -0.143 0.0885722 0.03391486 -0.1515 0.08815652 0.04795539 -0.143 0.08189272 0.04773026 -0.1515 0.08150827 0.06028819 -0.1515 0.0727126 0.07053595 -0.1515 0.06282079 -0.05407887 -0.1705 -0.06878745 -0.05407887 -0.2045416 -0.06878745 -0.04877829 -0.2045416 -0.07264244 -0.035869 -0.2045416 -0.07981014 -0.03253227 -0.2045416 -0.08122748 -0.03253227 -0.2045416 -0.08122736 -0.03253227 -0.1705 -0.08122736 -0.04877829 -0.1705 -0.07264244 -0.035869 -0.1705 -0.07981014 -0.03253227 -0.1705 -0.08122748 -0.01988905 -0.2525 -0.06773614 -0.006710588 -0.2525 -0.0702762 0.006710588 -0.2525 -0.07027608 0.03234887 -0.2525 -0.06274795 0.01336026 -0.2525 0.06932014 0 -0.2525 0.0705958 -0.0575056 -0.2525 0.04094958 -0.06421619 -0.2525 0.02932661 -0.06860578 -0.2525 0.01664358 0.01988905 -0.2525 -0.06773614 0.006710588 -0.2525 -0.0702762 -0.06113773 -0.2525 -0.03529787 0.04363936 -0.2525 -0.05549198 0.05335277 -0.2525 -0.04623037 0.0698772 -0.2525 -0.01004678 0.06671309 -0.2525 -0.02308952 0.06113779 -0.2525 -0.03529787 0.02623778 -0.2525 0.06553882 0.04871666 -0.2525 0.05109256 0.03816699 -0.2525 0.05938899 -0.04871666 -0.2525 0.05109256 -0.03816699 -0.2525 0.05938899 -0.02623778 -0.2525 0.06553882 -0.01336038 -0.2525 0.06932002 0.0575056 -0.2525 0.04094958 0.06421619 -0.2525 0.02932661 0.06860578 -0.2525 0.01664358 0.07051575 -0.2525 0.003359138 -0.06671309 -0.2525 -0.02308952 -0.0698772 -0.2525 -0.01004678 -0.07051581 -0.2525 0.003359138 -0.03234887 -0.2525 -0.06274795 -0.04363936 -0.2525 -0.05549198 -0.05335271 -0.2525 -0.04623037 0.02713459 -0.1235 0.4055392 0.01380598 -0.1235 0.4017164 0 -0.1235 0.4004274 -0.01380598 -0.1235 0.4017164 -0.02713459 -0.1235 0.4055392 -0.02713459 -0.1235 0.3860312 0.02713459 -0.1235 0.3860312 0.008327603 -0.1235 0.5409771 0.0115028 -0.1192499 0.54012 0.0115028 -0.1192499 0.540121 0.01187467 -0.1235 0.540432 0.004119098 -0.1235 0.537622 0.002378165 -0.1235 0.5358811 0 -0.1235 0.535244 -0.002378165 -0.1235 0.5358811 -0.004119098 -0.1235 0.537622 -0.0115028 -0.1192499 0.54012 -0.01187467 -0.1235 0.540432 -0.008327603 -0.1235 0.5409771 -0.0115028 -0.1192499 0.540121 -0.01187467 -0.1235 0.528288 -0.01150149 -0.1192349 0.527988 -0.01995629 -0.119213 0.4245862 -0.02026319 -0.1235 0.4243047 -0.02964925 -0.1235 0.4291575 -0.02169787 -0.1235 0.5250981 -0.03192549 -0.1235 0.519287 -0.04067105 -0.1235 0.511421 -0.04752856 -0.1235 0.5018636 -0.05217963 -0.1235 0.4910591 -0.05440843 -0.1235 0.4795093 -0.05411148 -0.1235 0.46775 -0.05411148 -0.1235 0.4677501 -0.05130249 -0.1235 0.4563274 -0.046112 -0.1235 0.4457715 -0.03878074 -0.1235 0.4365726 0.019957 -0.1192227 0.4245856 0.02026319 -0.1235 0.4243047 0.01760005 -0.1235 0.4187011 -0.01760005 -0.1235 0.4187011 -0.01760005 -0.1235 0.418701 -0.01288199 -0.1235 0.4136764 -0.00680077 -0.1235 0.4104319 0 -0.1235 0.4093109 0.00680077 -0.1235 0.4104319 0.01288199 -0.1235 0.4136764 0.01760005 -0.1235 0.418701 0.019957 -0.1192227 0.4245855 0.01150178 -0.119238 0.527988 0.01187467 -0.1235 0.528288 0.02169787 -0.1235 0.5250981 0.03192549 -0.1235 0.519287 0.04067105 -0.1235 0.511421 0.04752856 -0.1235 0.5018636 0.05217969 -0.1235 0.4910591 0.05440849 -0.1235 0.4795093 0.05411148 -0.1235 0.46775 0.05411148 -0.1235 0.4677501 0.05130249 -0.1235 0.4563274 0.046112 -0.1235 0.4457715 0.0387808 -0.1235 0.4365726 0.02964931 -0.1235 0.4291575 0.08151048 -0.1515 0.03181654 0.08569979 -0.1515 0.01765751 0.08744865 -0.1515 0.002995789 0.07499998 -0.1515 0.06684023 0.07010167 -0.1515 -0.05236417 0.07499998 -0.1515 0.04506939 0.07499998 -0.1515 0.04506927 0.08670729 -0.1515 -0.01175129 0.08349674 -0.1515 -0.02616363 -0.07499998 -0.1515 0.04506927 0.07790845 -0.1515 -0.03983104 -0.07499998 -0.1515 0.04506939 -0.04877829 -0.1515 -0.07264244 -0.0602985 -0.1515 -0.06340605 -0.07010161 -0.1515 -0.05236417 -0.07790851 -0.1515 -0.03983104 -0.08349674 -0.1515 -0.02616363 -0.08670729 -0.1515 -0.01175129 -0.08151048 -0.1515 0.03181654 -0.08569979 -0.1515 0.01765751 -0.08744865 -0.1515 0.002995789 0.0602985 -0.1515 -0.06340605 0.04877829 -0.1515 -0.07264244 0.035869 -0.1515 -0.07981014 0.02193826 -0.1515 -0.08470505 0.00738275 -0.1515 -0.08718794 -0.00738275 -0.1515 -0.08718794 -0.02193826 -0.1515 -0.08470505 -0.035869 -0.1515 -0.07981014 0.02173537 -0.1515 0.06379401 0.1004435 -0.143 0.09034901 0.1028404 -0.1755 0.09021526 0.07499998 -0.1755 0.06514757 0.1016395 -0.1591909 0.0902841 0.08937489 -0.143 0.1013112 0.07443219 -0.143 0.1127461 0.05804556 -0.143 0.121994 -0.1181932 -0.143 0.06543844 -0.1098743 -0.143 0.07860964 -0.0978868 -0.143 0.09311294 -0.08400058 -0.143 0.1058099 -0.0684849 -0.143 0.1164544 -0.0684849 -0.143 0.1164546 -0.0516408 -0.143 0.1248401 -0.03379499 -0.143 0.1308041 -0.01529365 -0.143 0.1342309 0.003504276 -0.143 0.1350539 0.02223438 -0.143 0.1332571 0.04053306 -0.143 0.1288755 -0.1204986 -0.1755 0.06476897 -0.119344 -0.1591909 0.06510621 -0.119344 -0.1591909 0.06510633 -0.03102427 -0.1235 0.3732287 -0.03297328 -0.1242004 0.3668139 -0.02519094 -0.1244585 0.3644496 -0.01279425 -0.1240822 0.3678963 9.79006e-6 -0.1239597 0.3690181 -0.01208198 -0.1240606 0.3680945 0.02519094 -0.1244585 0.3644496 0.01499527 -0.1241234 0.3675191 0.01279109 -0.1240947 0.367782 0.001484751 -0.1239474 0.3691307 9.79006e-6 -0.1239597 0.369018 0.03297328 -0.1242004 0.3668139 0.03102427 -0.1235 0.3732287 0.06599998 -0.1355317 0.371 0.06599998 -0.1355317 0.315 0.0715 -0.1710054 0.3355262 0.06599998 -0.1915317 0.315 0.06599998 -0.1915317 0.371 0.0715 -0.1710054 0.3504737 0.055 -0.2035 0.4318221 0.055 -0.1235 0.4318221 0.06230705 -0.1235 0.4432643 0.06230705 -0.2035 0.4432643 0.06726539 -0.1235 0.4559028 0.06726539 -0.2035 0.4559028 0.0696879 -0.1235 0.4692613 0.0696879 -0.2035 0.4692613 0.06948328 -0.1235 0.4828362 0.06948328 -0.2035 0.4828362 0.06665927 -0.1235 0.4961156 0.06665927 -0.2035 0.4961156 0.06132239 -0.1235 0.5085989 0.06132239 -0.2035 0.5085989 0.0536738 -0.1235 0.5198161 0.0536738 -0.2035 0.5198161 0.04400175 -0.1235 0.529343 0.04400175 -0.2035 0.529343 0.03267097 -0.1235 0.5368221 0.03267097 -0.2035 0.5368221 0.02010858 -0.1235 0.54197 0.02010858 -0.2035 0.54197 0.006788194 -0.1235 0.5445931 0.006788194 -0.1235 0.5445941 0.006788194 -0.2035 0.5445931 0.006788194 -0.2035 0.5445941 -0.006788194 -0.1235 0.5445931 -0.006788194 -0.1235 0.5445941 -0.006788194 -0.2035 0.5445931 -0.006788194 -0.2035 0.5445941 -0.02010858 -0.1235 0.54197 -0.02010858 -0.2035 0.54197 -0.03267097 -0.1235 0.5368221 -0.03267097 -0.2035 0.5368221 -0.04400175 -0.1235 0.529343 -0.04400175 -0.2035 0.529343 -0.0536738 -0.1235 0.5198161 -0.0536738 -0.2035 0.5198161 -0.06132239 -0.1235 0.5085989 -0.06132239 -0.2035 0.5085989 -0.06665927 -0.1235 0.4961156 -0.06665927 -0.2035 0.4961156 -0.06948328 -0.1235 0.4828362 -0.06948328 -0.2035 0.4828362 -0.06968784 -0.1235 0.4692613 -0.06968784 -0.2035 0.4692613 -0.06726533 -0.1235 0.4559028 -0.06726533 -0.2035 0.4559028 -0.06230705 -0.1235 0.4432643 -0.06230705 -0.2035 0.4432643 -0.05499994 -0.1235 0.4318221 -0.05499994 -0.2035 0.4318221 -0.06446254 -0.2035 0.4878224 -0.06072241 -0.2035 0.5001521 -0.05464869 -0.2035 0.5115152 -0.04647487 -0.2035 0.521475 -0.03651505 -0.2035 0.529649 -0.02515208 -0.2035 0.535722 -0.01282238 -0.2035 0.5394631 0 -0.2035 0.540725 0.01282238 -0.2035 0.5394631 0.02515208 -0.2035 0.535722 0.03651505 -0.2035 0.529649 0.04647487 -0.2035 0.521475 0.05464869 -0.2035 0.5115152 0.06072235 -0.2035 0.5001521 0.0644626 -0.2035 0.4878224 0.0657255 -0.2035 0.475 0.0644626 -0.2035 0.4621776 0.06072235 -0.2035 0.4498481 0.05464869 -0.2035 0.438485 0.04647487 -0.2035 0.4285251 0.03651505 -0.2035 0.4203512 0.03651505 -0.2035 0.4203513 0.02515208 -0.2035 0.4142776 0.01282238 -0.2035 0.4105374 0 -0.2035 0.4092745 -0.01282238 -0.2035 0.4105374 -0.02515208 -0.2035 0.4142776 -0.03651505 -0.2035 0.4203512 -0.03651505 -0.2035 0.4203513 -0.04647487 -0.2035 0.4285251 -0.05464869 -0.2035 0.438485 -0.06072241 -0.2035 0.4498481 -0.06018978 -0.2145 0.4500685 -0.06446254 -0.2035 0.4621776 -0.06572544 -0.2035 0.475 -0.07479459 -0.1515 0.1130405 -0.07475101 -0.1515 0.1149019 -0.0718339 -0.1515 0.1149447 -0.0718339 -0.1515 0.1149446 -0.07470321 -0.1515 0.1167713 -0.06882482 -0.1515 0.1167713 -0.1112595 -0.1755 0.07960057 -0.1112595 -0.1755 0.07960069 -0.09912091 -0.1755 0.09428679 -0.09912091 -0.1755 0.09428668 -0.07499998 -0.1755 0.09500002 -0.08505958 -0.1755 0.1071439 -0.07493853 -0.1755 0.1047852 -0.07475906 -0.1755 0.1145689 -0.05499994 -0.1235 0.3950001 -0.05499994 -0.2035 0.3950001 -0.07499998 -0.2415 0.04506939 -0.07499998 -0.2415 0.04506927 -0.07499998 -0.2415 0.09500002 -0.02193826 -0.2415 -0.08470505 -0.035869 -0.2415 -0.07981014 -0.04877829 -0.2415 -0.07264244 -0.0602985 -0.2415 -0.06340605 -0.08151048 -0.2415 0.03181654 -0.08569979 -0.2415 0.01765751 -0.08744865 -0.2415 0.002995789 -0.08670729 -0.2415 -0.01175129 -0.08349674 -0.2415 -0.02616363 -0.07790851 -0.2415 -0.03983104 -0.07010161 -0.2415 -0.05236417 -0.00738275 -0.2415 -0.08718794 0.00738275 -0.2415 -0.08718794 0.02193826 -0.2415 -0.08470505 0.035869 -0.2415 -0.07981014 0.04877829 -0.2415 -0.07264244 0.0602985 -0.2415 -0.06340605 0.07010167 -0.2415 -0.05236417 0.07790845 -0.2415 -0.03983104 0.08349674 -0.2415 -0.02616363 0.08670729 -0.2415 -0.01175129 0.08744865 -0.2415 0.002995789 0.08569979 -0.2415 0.01765751 0.08151048 -0.2415 0.03181654 0.07499998 -0.2415 0.04506939 0.01365286 -0.2415 0.07083809 0.02681237 -0.2415 0.0669741 0.03900277 -0.2415 0.0606895 0.04978346 -0.2415 0.0522114 0.05876487 -0.2415 0.04184633 0.06562238 -0.2415 0.02996879 0.07010817 -0.2415 0.01700806 0.07205998 -0.2415 0.00343275 0.07205998 -0.2415 0.003432571 0.07140737 -0.2415 -0.01026678 0.068174 -0.2415 -0.02359515 0.06247657 -0.2415 -0.03607082 0.05452108 -0.2415 -0.04724276 0.04459506 -0.2415 -0.0567072 0.03305727 -0.2415 -0.06412208 0.0203247 -0.2415 -0.06921947 0.006857454 -0.2415 -0.07181507 -0.006857454 -0.2415 -0.07181507 -0.006710588 -0.2525 -0.07027608 -0.0203247 -0.2415 -0.06921947 -0.03305727 -0.2415 -0.06412208 -0.04459506 -0.2415 -0.0567072 -0.05452108 -0.2415 -0.04724276 -0.06247657 -0.2415 -0.03607082 -0.068174 -0.2415 -0.02359515 -0.07140743 -0.2415 -0.01026678 -0.07206004 -0.2415 0.00343275 -0.07206004 -0.2415 0.003432571 -0.07010817 -0.2415 0.01700806 -0.06562244 -0.2415 0.02996879 -0.05876493 -0.2415 0.04184633 -0.04978346 -0.2415 0.0522114 -0.03900277 -0.2415 0.0606895 -0.02681237 -0.2415 0.0669741 -0.01365286 -0.2415 0.07083809 -0.01336038 -0.2525 0.06932014 0 -0.2415 0.0721417 0.01336026 -0.2525 0.06932002 -0.05529677 -0.1235 0.3732287 -0.05513119 -0.1235 0.3813882 -0.05507588 -0.1235 0.3841133 -0.05513119 -0.1235 0.3813883 0.05529588 -0.1235 0.3732287 0.05507576 -0.1235 0.3840469 0.055 -0.1235 0.394867 0.055 -0.2035 0.3950001 0.055 -0.2035 0.394867 0.07499998 -0.1755 0.09500002 0.07499998 -0.2415 0.09500002 0.07499998 -0.1755 0.06514769 0.07499998 -0.2415 0.04506927 0.07537049 -0.1755 0.1141675 0.07475906 -0.1755 0.1145688 0.07486975 -0.1755 0.1085314 0.09050166 -0.1755 0.1025884 0.07493847 -0.1755 0.1047852 0.07479459 -0.1515 0.1130405 0.07478898 -0.1553739 0.1132874 0.07477718 -0.1635 0.1138053 0.07475906 -0.1755 0.1145689 0.07467758 -0.1515 0.1131178 0.07467758 -0.1515 0.1131179 0.06882476 -0.1515 0.1167713 0.05808597 -0.1509193 0.1220902 0.04054719 -0.1501718 0.1289366 0.05179458 -0.1505791 0.1252064 0.003500103 -0.1495014 0.1350768 0.01506054 -0.1495531 0.1346028 0.02223539 -0.1496962 0.1332927 0.03375607 -0.1499259 0.1311891 0.04054719 -0.1501718 0.1289367 -0.03381025 -0.1499635 0.1308447 -0.02284026 -0.1496725 0.1335093 -0.01530128 -0.1495911 0.1342557 -0.003928065 -0.1494682 0.1353814 -0.003928065 -0.1494682 0.1353813 -0.068708 -0.1514932 0.1168334 -0.05897146 -0.150928 0.1220108 -0.05167388 -0.1506116 0.124908 -0.04130798 -0.1501623 0.1290234 -0.07477718 -0.1635 0.1138053 -0.07475906 -0.1755 0.1145688 0.07470315 -0.1515 0.1167713 0.07475095 -0.1515 0.1149019 0.05548089 -0.1241707 0.3670854 0.05593317 -0.1252664 0.3570497 0.05650037 -0.1266405 0.3444644 -0.06027758 -0.1321519 0.2939847 -0.06008154 -0.1319279 0.2960356 -0.07406789 -0.1497368 0.1329212 -0.07451683 -0.150824 0.1229632 -0.06649541 -0.1391454 0.229929 -0.06499999 -0.1375 0.245 -0.06410461 -0.136524 0.2539394 -0.056171 -0.1259628 0.3506714 -0.05655658 -0.1266516 0.3443625 -0.05770671 -0.1287063 0.3255431 -0.05770671 -0.1287063 0.3255432 -0.07349735 -0.148355 0.1455766 -0.0719676 -0.1458047 0.168936 0.07382887 -0.1490372 0.1393287 0.06991839 -0.1430721 0.1939644 0.07229328 -0.1462937 0.1644569 0.07229328 -0.1462937 0.1644568 0.05808597 -0.1509193 0.1220903 0.07344847 -0.1483575 0.1455539 0.06589537 -0.138476 0.2360607 0.06973826 -0.1428663 0.1958487 0.05803018 -0.129192 0.3210942 0.05823206 -0.1294621 0.3186208 0.06000977 -0.1318393 0.2968477 -0.01279425 -0.1240822 0.3678964 -0.02284026 -0.1496725 0.1335094 0.06236469 -0.1346003 0.2715586 0.06351691 -0.1358681 0.2599467 0.06499999 -0.1375 0.245 0.06589537 -0.138476 0.2360606 -0.07177418 -0.1455461 0.1713044 -0.06998842 -0.1431586 0.1931721 -0.06763428 -0.1403986 0.2184513 -0.06763428 -0.1403986 0.2184514 -0.06649541 -0.1391454 0.2299289 -0.06410461 -0.136524 0.2539393 0.05821937 -0.1355317 0.3186197 0.05800056 -0.1355317 0.3214924 0.05635005 -0.1355317 0.3472142 0.05535805 -0.1355317 0.371 0.05593985 -0.1355317 0.3570497 0.05849486 -0.1355317 0.315 0.05849486 -0.1915317 0.315 0.05824166 -0.1915317 0.3186212 0.05683398 -0.1915317 0.3387483 0.05535805 -0.1915317 0.371 0.0559113 -0.1915317 0.3570489 0.05567729 -0.1915317 0.3616926 -0.07411295 -0.2392235 0.1329233 -0.07499057 -0.2414774 0.09880155 -0.07487821 -0.2412007 0.107567 -0.07482808 -0.2410774 0.1114759 -0.07482808 -0.2410774 0.1114758 -0.07447582 -0.240181 0.1241638 -0.07421678 -0.2394976 0.1304159 -0.07421678 -0.2394976 0.130416 -0.07394957 -0.2387925 0.1368667 -0.07325369 -0.2370395 0.1497951 -0.07325369 -0.2370395 0.1497952 -0.07298046 -0.2364448 0.1539962 -0.07237976 -0.2351373 0.1632328 -0.07177376 -0.2339536 0.1713044 -0.07132685 -0.2330807 0.1772571 -0.07112658 -0.2327195 0.1796481 -0.07010072 -0.2308694 0.1918942 -0.06941366 -0.2296857 0.1995854 -0.0686388 -0.2284208 0.2076091 -0.06648349 -0.2249024 0.2299278 -0.06577372 -0.2237437 0.2372778 -0.06171852 -0.2171831 0.2786775 -0.06171852 -0.2171831 0.2786777 -0.05653631 -0.2074169 0.3443611 -0.05682533 -0.2081487 0.3388903 -0.05870586 -0.2119926 0.3123317 -0.06029158 -0.2147937 0.2939857 -0.06083577 -0.2157551 0.287689 -0.05639755 -0.2070655 0.3469882 -0.05589431 -0.2057914 0.3565144 -0.05540448 -0.2045102 0.3694803 -0.05537015 -0.2044237 0.3709402 -0.0551244 -0.2038049 0.3813881 -0.05510288 -0.2037507 0.3823021 -0.05510288 -0.2037507 0.3823019 0.07346785 -0.2375983 0.1455554 0.07410401 -0.2392053 0.1335234 0.07422137 -0.2395118 0.1304181 0.07459539 -0.2404888 0.1205219 0.07489818 -0.2412514 0.1075686 0.07489818 -0.2412514 0.1075688 0.07489728 -0.2412491 0.107687 0.07487738 -0.2411991 0.1085315 0.06419479 -0.2212292 0.2530369 0.06864547 -0.2284241 0.2076097 0.07317155 -0.2368497 0.15116 0.07297068 -0.2364399 0.1539955 0.07128846 -0.2330089 0.1777386 0.07112336 -0.2327178 0.1796479 0.06972259 -0.2302482 0.1958474 0.06915616 -0.2292497 0.2023973 0.063528 -0.220139 0.2599477 0.063528 -0.220139 0.2599478 0.06172078 -0.2171844 0.2786777 0.06055384 -0.2152767 0.2907709 0.05823189 -0.2110677 0.3186206 0.05867505 -0.211935 0.3127176 0.05990099 -0.2141493 0.2980859 0.05605256 -0.2062157 0.3530868 0.05638128 -0.2070446 0.3469853 0.05674856 -0.2079709 0.3401665 0.05762237 -0.2098754 0.3267358 0.05500906 -0.2035232 0.3911404 0.05517196 -0.2039249 0.3784641 0.05538165 -0.2044577 0.3709428 0.0555256 -0.2048234 0.3657801 0.05588817 -0.2057813 0.3570476 -0.07298046 -0.2364448 0.1539961 0.07346785 -0.2375983 0.1455553 -0.0551244 -0.2038049 0.3813882</float_array>
          <technique_common>
            <accessor source="#Link2-mesh-positions-array" count="869" stride="3">
              <param name="X" type="float"/>
              <param name="Y" type="float"/>
              <param name="Z" type="float"/>
            </accessor>
          </technique_common>
        </source>
        <source id="Link2-mesh-normals">
          <float_array id="Link2-mesh-normals-array" count="3513">0 1 4.74924e-6 0 1 -4.74929e-6 0 1 1.40235e-6 0 1 -7.14487e-7 0 1 -3.78254e-7 0 1 0 0 1 -7.14494e-7 0 1 -3.7825e-7 0 1 4.17106e-7 0 1 3.78297e-7 0 1 -2.71413e-7 0 1 9.49911e-6 0 1 -5.32106e-7 0 1 -1.13344e-5 0 1 1.66966e-7 0 1 -2.39253e-7 0 1 5.20693e-7 0.990686 0 0.1361662 0.990686 0 -0.1361662 0.9172117 0 -0.3984006 0.9172107 7.49033e-6 -0.3984025 0.7757066 0 -0.6310938 0.7757079 1.54491e-5 -0.6310921 0.5766756 0 -0.8169733 0.5766775 0 -0.816972 0.334876 0 -0.9422623 0.06824511 0 -0.9976686 -0.2034585 0 -0.9790836 -0.4600685 0 -0.8878834 -0.4600661 0 -0.8878847 -0.6825497 0 -0.7308393 -0.682547 0 -0.7308418 -0.8544215 0 -0.5195806 -0.8544216 0 -0.5195805 -0.9629174 0 -0.2697964 -1 0 0 -0.9629182 0 0.269794 -0.854419 0 0.5195848 -0.854419 0 0.5195847 -0.6825497 0 0.7308393 -0.6825469 0 0.7308419 -0.4600757 0 0.8878797 -0.4600738 -1.06817e-5 0.8878808 -0.2034532 0 0.9790847 -0.2034527 0 0.9790849 0.06824207 0 0.9976688 0.3348732 0 0.9422632 0.5766838 0 0.8169675 0.576686 0 0.8169659 0.775708 0 0.6310921 0.7757092 0 0.6310907 0.917213 0 0.3983972 0.9172123 0 0.3983991 -0.8660227 0 0.5000048 -0.8660202 0 0.5000092 0.8660117 0 -0.5000239 0.8660115 0 -0.5000243 0.1423122 0 -0.9898219 -0.1423122 0 -0.9898219 -0.4154216 0 -0.9096291 -0.6548568 0 -0.755753 -0.654863 0 -0.7557477 -0.8412527 0 -0.5406421 -0.8412559 1.93098e-5 -0.5406371 -0.959497 0 -0.2817192 -0.9594965 0 -0.2817205 -0.9594952 0 0.2817251 -0.959494 0 0.2817294 -0.8412527 0 0.5406421 -0.8412559 0 0.5406371 -0.6548568 0 0.755753 -0.6548692 0 0.7557423 -0.4154126 0 0.9096332 -0.4154216 0 0.9096291 -0.1423016 0 0.9898234 0.1423016 0 0.9898234 0.4154216 0 0.9096291 0.4154126 0 0.9096332 0.6548692 0 0.7557423 0.6548568 0 0.755753 0.8412559 0 0.5406371 0.8412527 0 0.5406421 0.9594943 0 0.281728 0.9594949 0 0.2817264 1 0 0 0.9594952 0 -0.2817251 0.9594949 1.00022e-5 -0.2817264 0.8412495 0 -0.5406471 0.8412463 0 -0.540652 0.654863 0 -0.7557477 0.6548568 0 -0.755753 0.4154216 0 -0.9096291 0 1 2.39469e-6 0 1 -7.51109e-7 0 1 -5.34155e-7 0 1 -3.32447e-7 0 1 4.08292e-7 0 1 1.95742e-5 0 1 -2.28469e-7 0 1 9.20951e-7 0 1 -4.62152e-7 0 1 7.28436e-7 0 1 7.20925e-7 0 1 -7.29122e-7 0 1 9.13506e-7 0 1 -1.82508e-6 0 1 2.48868e-7 0 1 -1.09598e-6 0 1 -3.6043e-7 0 1 -9.15768e-7 0 1 7.17253e-7 0 1 -9.38434e-7 0 1 -1.44785e-6 0 1 1.4595e-6 0 1 9.12541e-7 0 1 2.87742e-7 0 1 6.1351e-7 0 1 -2.86871e-6 0 1 1.39606e-6 0 1 4.5791e-7 0 1 -4.56425e-7 -0.4999955 0 -0.8660281 -0.4999939 0 -0.866029 0.73306 0 -0.680164 0.7330597 0 -0.6801645 0.3653484 0 -0.930871 0.3653532 0 -0.930869 -0.0747348 0 -0.9972035 -0.07473474 0 -0.9972035 -0.5000084 0 -0.8660206 -0.5000078 0 -0.8660209 -0.8262453 0 -0.5633105 -0.8262455 0 -0.5633102 -0.9888321 0 -0.149034 -0.9888321 0 -0.1490342 -0.9555723 0 0.2947568 -0.9555723 0 0.2947571 -0.5000021 0 -0.8660243 -0.5000002 0 -0.8660253 0.2061477 0.7148882 0.6681602 -0.1951171 0.7144745 0.6719044 0.205385 0.7129458 0.6704666 0.1973499 0.7065443 0.6795942 0.1063537 0.7061011 0.7000787 0.1063435 0.7061035 0.7000779 0.1063534 0.7061005 0.7000794 0 0.7061072 0.708105 -7.66829e-6 0.7061035 0.7081088 -0.2061477 0.7148882 0.6681602 -0.2027869 0.7063738 0.6781693 -0.1063537 0.7061012 0.7000786 -0.1063435 0.7061035 0.7000779 -0.1063525 0.7061065 0.7000735 -0.9961961 0.08714061 0 -0.9961943 0.0871613 6.61659e-5 -0.9961932 0.08717358 0 0.9961932 0.08717375 0 0.9961943 0.0871613 6.61659e-5 0.9961961 0.08714044 0 0 1 4.03685e-6 0 1 1.75977e-6 0 1 -5.9255e-7 0 1 9.07571e-7 0 1 -6.41788e-7 0 1 1.12924e-6 0 1 -6.24553e-7 0 1 -5.96105e-7 0 1 6.22123e-6 0 1 -8.52268e-7 0 1 4.24001e-7 0 1 1.36682e-6 0 1 4.23657e-7 0 1 -1.46561e-6 0 1 1.70258e-6 0 1 5.78033e-7 0 1 5.68029e-7 0 1 2.83331e-6 0 1 5.28185e-7 0 1 -2.31741e-6 0 1 1.45941e-6 0 1 -1.27813e-6 0.6433149 0.5883886 0.4898418 -0.6202578 0.5867974 0.5205278 0.620257 0.5867971 0.5205292 0.6399832 0.5707216 0.5144885 0.4762224 0.5689698 0.6704369 0.4762187 0.5689732 0.6704367 0.2499256 0.5689792 0.7834538 0.2499525 0.5689659 0.783455 0 0.5689655 0.8223615 0 0.5689687 0.8223592 -0.2499283 0.5689667 0.7834621 -0.2499365 0.5689745 0.7834538 -0.4762172 0.568978 0.6704337 -0.4762113 0.5689699 0.6704447 -0.6399832 0.5707216 0.5144885 -0.6433149 0.5883886 0.4898418 -0.2987162 0.5832737 0.7553545 0.311811 0.5822955 0.7508035 -0.301068 0.5806966 0.7564058 0.2987162 0.5832739 0.7553545 0.3084428 0.5725453 0.7596414 0.434596 0.5716746 0.695927 0.4345885 0.5716802 0.6959272 0.5634204 0.5716801 0.5964389 0.5634301 0.5716719 0.5964378 0.670087 0.5716717 0.4734711 0.6700823 0.5716743 0.4734746 0.7503654 0.5716762 0.3318707 0.7503676 0.5716741 0.3318695 0.8011179 0.5716726 0.1772025 0.80112 0.5716701 0.1772012 0.8203364 0.5716696 0.01556074 0.8203308 0.5716776 0.01556837 0.8072597 0.5716778 -0.1466847 0.8072627 0.571672 -0.1466911 0.7624188 0.5716715 -0.3031654 0.7624174 0.5716724 -0.3031672 0.6875608 0.5716734 -0.4477161 0.6875602 0.571674 -0.4477162 0.585643 0.5716741 -0.5746399 0.5856431 0.5716751 -0.5746389 0.460679 0.5716769 -0.6789406 0.4606752 0.5716704 -0.6789487 0.3175743 0.5716731 -0.7565293 0.317576 0.5716743 -0.7565277 0.1619766 0.5716764 -0.8043318 0.1619742 0.5716736 -0.8043344 0 0.5716739 -0.8204809 0 0.5716736 -0.8204813 -0.1619772 0.5716745 -0.804333 -0.1619751 0.5716739 -0.8043339 -0.3175724 0.5716751 -0.7565285 -0.3175754 0.5716698 -0.7565312 -0.4606804 0.5716713 -0.6789444 -0.4606742 0.571675 -0.6789456 -0.5856438 0.5716752 -0.574638 -0.5856431 0.5716751 -0.5746389 -0.6875597 0.5716747 -0.4477161 -0.6875605 0.5716746 -0.447715 -0.7624152 0.5716751 -0.3031678 -0.7624169 0.5716729 -0.3031678 -0.8072619 0.5716738 -0.1466888 -0.8072615 0.5716737 -0.1466905 -0.8203333 0.5716739 0.01556348 -0.8203344 0.5716725 0.01556318 -0.8011167 0.5716736 0.1772046 -0.801116 0.5716747 0.1772044 -0.7503679 0.5716745 0.3318681 -0.7503682 0.5716721 0.3318715 -0.6700872 0.57167 0.4734731 -0.6700868 0.5716722 0.4734709 -0.5634229 0.571671 0.5964453 -0.5634254 0.5716797 0.5964345 -0.4345945 0.5716819 0.695922 -0.4345898 0.5716737 0.6959317 -0.3143895 0.5727564 0.7570399 0 1 -1.77214e-6 0 1 4.96882e-6 0 1 -1.77213e-6 0 1 3.0577e-7 0 1 -6.37374e-7 0 -1 0 0 -1 3.65859e-6 0 -1 -3.43441e-7 0 -1 6.17649e-7 0 -1 3.65853e-6 0 -1 3.14872e-7 0 -1 -1.939e-7 0 -1 -1.14677e-6 0 -1 -2.92727e-5 0 -1 1.26605e-6 0 -1 2.92673e-5 0 -1 -1.43346e-7 0 -1 -3.6585e-6 1 6.80828e-5 0 -0.6917062 0.05608987 -0.7199975 0.8251985 0.04937809 -0.5626806 0.7466292 0.03835821 -0.6641337 0.7976792 0.05236095 -0.6008048 0.8398022 0.05225104 -0.5403723 0.827346 0.04227066 -0.5600998 0.8638904 0.05360561 -0.5008192 0.864435 0.05402284 -0.4998337 0.7512223 0.05215728 -0.6579853 0.6348806 0.05215686 -0.7708479 0.6348749 0.05216717 -0.7708518 0.5018047 0.05216723 -0.8634064 0.5018031 0.0521664 -0.8634075 0.3555054 0.05216777 -0.9332173 0.3555068 0.05216491 -0.9332169 0.19985 0.05216485 -0.978437 0.1998466 0.05216699 -0.9784376 0.03892022 0.0521661 -0.9978798 0.03892445 0.05215674 -0.9978801 -0.1230339 0.05217045 -0.9910302 -0.1230274 0.05217254 -0.991031 -0.2817481 0.05217069 -0.958069 -0.2817403 0.05215656 -0.9580721 -0.4330291 0.0521577 -0.8998696 -0.4330317 0.05216807 -0.8998678 -0.5729112 0.05216747 -0.8179557 -0.5729066 0.05216062 -0.8179593 -0.6927003 0.05218881 -0.7193349 -0.6934054 0.05608314 -0.7183618 -0.8910215 0 0.4539614 -0.8910213 0 0.4539617 0 -1 -4.81135e-6 0 -1 5.73109e-6 0 -1 -2.10946e-6 0 -1 2.38806e-5 0 -1 1.7023e-5 0 -1 -4.35862e-5 0 -1 6.86578e-7 0 -1 1.91453e-6 0 -1 -1.19401e-5 0.8386534 0 -0.5446656 0.8386493 1.78061e-6 -0.5446719 0 1 2.98502e-6 0 1 2.74622e-6 0 1 7.92246e-6 0 1 5.67267e-5 0 1 8.51151e-6 0 1 4.2982e-6 0 1 -9.02422e-6 0 1 2.13439e-6 0 1 2.77586e-6 0 -1 2.67583e-7 0 -1 -2.14067e-6 0 -1 8.57619e-7 0 -1 -2.73191e-5 0 -1 -2.64662e-6 0 -1 5.77167e-6 0 -1 1.36597e-5 0 -1 -1.42937e-7 0 -1 1.36593e-5 0 -1 9.85184e-7 0 -1 8.53773e-7 0 -1 1.7566e-6 0 -1 -2.78676e-6 -0.2948172 0 0.9555538 -0.2756313 0.02174037 0.9610177 -0.1501555 -0.01649886 0.9885248 -0.1501689 -0.01649886 0.9885227 -0.09292572 0.03110688 0.995187 0 -0.02117276 0.9997759 0.0929256 0.03110688 0.9951871 0.2948172 0 0.9555538 0.2756312 0.02174037 0.9610177 0.1501555 -0.01649886 0.9885248 0.1501689 -0.01649886 0.9885227 -1 -1.10293e-6 0 1 -4.42231e-7 0 0.09798175 0.0848872 0.9915612 0.1473978 0.08522921 0.9853984 0.1046112 0.08489477 0.9908832 0.1012967 0.08738976 0.9910106 0.1492961 0.08688151 0.9849682 0.1513314 0.08552867 0.984776 -0.9624936 0.08421474 0.2579032 -0.9624929 0.08420991 0.2579073 -0.7046227 0.08421337 0.7045673 -0.7045701 0.08420008 0.7046216 -0.2578191 0.08419871 0.9625176 -0.2579644 0.08424305 0.9624747 0.2578181 0.08424663 0.9625136 0.2579653 0.08420163 0.9624781 0.7046237 0.08419686 0.7045683 0.7045704 0.0842145 0.7046195 0.962494 0.08421134 0.2579029 0.9624925 0.08421289 0.2579078 -0.1513314 0.08552867 0.984776 -0.1046116 0.08489465 0.9908832 -0.09798181 0.08488726 0.9915612 -0.1013137 0.08738982 0.9910089 -0.1473732 0.08690619 0.9852555 -0.1508335 0.08570921 0.9848366 -0.9961937 0.08716827 0 -0.9961937 0.08716809 1.40574e-7 -0.996195 0.08715224 1.41091e-7 -0.9961952 0.08715075 0 -0.3021869 0.09362316 0.9486401 -0.4573716 0.09083169 -0.8846248 -0.3075103 0.09352397 0.9469376 -0.3050585 0.08669805 0.948379 -0.4921455 0.0866087 0.8661938 -0.4921652 0.08662468 0.8661811 -0.6662123 0.08663004 0.7407135 -0.6662287 0.08665651 0.7406957 -0.8094383 0.08665448 0.580776 -0.8094334 0.08664768 0.5807839 -0.915054 0.0866484 0.3939141 -0.9150577 0.08664977 0.3939053 -0.9781922 0.08665186 0.188763 -0.9781922 0.08665144 0.188764 -0.9959213 0.08665066 -0.02515178 -0.9959213 0.08665108 -0.02515149 -0.9674176 0.08664864 -0.2378978 -0.9674168 0.08665192 -0.2378994 -0.8940058 0.08665198 -0.4395967 -0.8940007 0.08666336 -0.4396047 -0.7790825 0.0866633 -0.6209025 -0.7790888 0.08665364 -0.6208961 -0.6280029 0.08665299 -0.7733717 -0.6280061 0.08665364 -0.7733691 -0.4560693 0.0867362 -0.8857076 -0.4544153 0.09092462 -0.8861374 -0.9029945 0.09257161 -0.4195612 0.8993219 0.09244805 -0.4274033 -0.8993229 0.09244501 -0.427402 -0.9016638 0.08617365 -0.4237646 -0.7262889 0.08601206 -0.6819871 -0.7263035 0.08600312 -0.6819728 -0.4689725 0.08600372 -0.8790156 -0.4689679 0.08600902 -0.8790174 -0.1620338 0.08600848 -0.9830299 -0.1620516 0.08599388 -0.9830281 0.162034 0.08599406 -0.9830311 0.1620514 0.08600884 -0.9830269 0.4689723 0.08600896 -0.8790152 0.468969 0.08600383 -0.8790174 0.7263005 0.08600318 -0.6819758 0.726298 0.08601218 -0.6819774 0.9016583 0.08617383 -0.4237763 0.9029951 0.09256428 -0.4195614 0.4544132 0.09091395 -0.8861396 0.3075004 0.09356874 0.9469363 0.454495 0.09073185 -0.8861163 0.3021928 0.09357738 0.9486427 0.3050426 0.08670186 0.9483839 0.4921545 0.08661442 0.8661882 0.4921509 0.08662539 0.8661891 0.6662313 0.0866304 0.7406964 0.6662108 0.08665651 0.7407118 0.8094328 0.08665531 0.5807835 0.8094398 0.08664768 0.5807749 0.915056 0.08664935 0.3939092 0.9150533 0.08665442 0.3939144 0.9781906 0.08665722 0.1887696 0.9781926 0.08664727 0.1887631 0.9959214 0.08664792 -0.02515751 0.9959208 0.08665609 -0.02515339 0.9674172 0.08665269 -0.2378978 0.9674167 0.08665126 -0.2379004 0.8940016 0.08665168 -0.4396052 0.8940052 0.08666467 -0.4395953 0.7790868 0.08666396 -0.6208971 0.7790849 0.08665436 -0.6209008 0.6280032 0.08665364 -0.7733714 0.6280056 0.08665448 -0.7733693 0.4575341 0.08675074 -0.8849503 0.9961943 0.08716076 0 0.9961951 0.08715069 3.65501e-6 0.9961944 0.08715891 3.50477e-6 0.9961938 0.08716726 0 0 1 -4.50338e-7 0 1 5.61923e-7 0 1 -1.21666e-6 0 1 3.17555e-6 0 1 1.68948e-5 0 1 8.52081e-7 0 1 -7.96139e-7 0 1 8.54228e-7 0 1 -3.9044e-7 0 1 -7.71413e-7 0 1 4.99624e-7 0 1 -3.86228e-7 0 1 -7.01758e-7 0 1 2.83125e-7 0 1 2.02449e-6 0 1 8.6215e-7 0 1 -6.39317e-7 0 1 -7.96142e-7 0 1 -1.7305e-6 0 1 8.91556e-7 0 1 -6.49856e-7 0 1 1.55978e-6 0 1 -1.46535e-6 0 1 -1.7477e-7 0 1 -1.76451e-6 0 1 6.36589e-7 0.6682137 0.052356 -0.7421249 0.668215 0.05233478 -0.7421252 0.6682132 0.0523402 -0.7421264 0.6682118 0.05233478 -0.7421281 0.6682202 0.05231648 -0.7421218 0.6682125 0.0523315 -0.7421277 0 1 4.16423e-7 0 1 -6.19585e-7 0 1 3.73568e-7 0 1 -3.1026e-7 0 1 -1.52995e-6 0 1 1.21588e-6 0 1 -6.2068e-7 0 1 -6.20506e-7 0 1 7.47194e-7 0 1 -6.19543e-7 0 1 6.17802e-7 0 1 7.53156e-7 0 1 6.12044e-7 0 1 3.82371e-7 -0.484144 0.0523343 -0.8734219 -0.4841461 0.05233573 -0.8734206 -0.4841479 0.05234181 -0.8734193 -0.4841446 0.05232834 -0.8734219 -0.9568133 0 0.2907034 -0.9568128 -3.40955e-7 0.2907048 -0.9568127 0 0.2907054 -0.2906903 0 -0.9568173 -0.2906944 0 -0.956816 0.2729984 0 -0.9620146 0.2677621 0.00389111 -0.9634773 0.09203618 0.007373571 -0.9957284 0.07620632 -0.004335999 -0.9970827 0.2678802 0.00389105 -0.9634444 -0.2729989 0 -0.9620144 -0.2886162 -0.01167464 -0.9573738 -0.11827 0.01031631 -0.9929279 -0.09203511 0.01031267 -0.9957024 -0.1185563 -0.009187161 -0.9929049 0.0761013 0.007381319 -0.9970728 0.2906912 0 -0.9568169 0.2906923 0 -0.9568167 0.9568129 0 0.2907044 0.9568128 -5.11796e-7 0.2907047 0.9568124 0 0.2907062 0.965926 0.2588186 0 0.9659258 0.2588191 0 0.9659251 2.19904e-6 -0.2588219 0.9659259 0 -0.2588193 0.9659259 -0.2588192 0 0.9659258 -0.2588194 0 0.9659249 -2.19906e-6 0.2588229 0.9659256 0 0.2588202 0.8428018 0 -0.5382243 0.8428037 0 -0.538221 0.9309226 0 -0.3652167 0.9309226 0 -0.3652165 0.9839516 0 -0.1784356 0.9839519 0 -0.1784344 0.9998865 0 0.01506972 0.9998865 0 0.0150696 0.9781268 0 0.20801 0.978127 0 0.2080085 0.9194943 0 0.3931031 0.9194924 0 0.393108 0.8262082 0 0.5633651 0.8262082 0 0.5633649 0.701745 0 0.7124282 0.5508808 0 0.834584 0.3791888 0 0.9253194 0.3791829 0 0.9253218 0.1932107 0 0.9811573 0.1932107 -1.16935e-5 0.9811573 -6.85987e-5 0 1 -6.85987e-5 -1.19209e-5 1 -0.1932767 0 0.9811443 -0.1932834 0 0.981143 -0.3791831 0 0.9253218 -0.379189 0 0.9253193 -0.5508805 0 0.8345842 -0.5508807 0 0.8345841 -0.7017444 0 0.7124288 -0.7017445 0 0.7124288 -0.8262076 0 0.5633658 -0.8262078 0 0.5633656 -0.9194929 0 0.3931067 -0.9194951 0 0.3931016 -0.9781277 0 0.208006 -0.9781273 0 0.2080072 -0.9998865 0 0.01506906 -0.9998865 0 0.01506918 -0.9839519 0 -0.178434 -0.9839517 0 -0.178435 -0.9309235 0 -0.3652143 -0.9309236 0 -0.3652142 -0.8428032 0 -0.538222 -0.8428014 0 -0.5382249 -0.9556418 -0.05208259 0.2898898 -0.9556403 -0.05208671 0.2898945 -0.8807242 -0.05208772 0.4707567 -0.8807232 -0.05208629 0.4707589 -0.7719603 -0.05208683 0.6335334 -0.7719519 -0.05209922 0.6335425 -0.6335465 -0.05210322 0.7719482 -0.6335226 -0.05212861 0.7719662 -0.4707213 -0.05213356 0.8807404 -0.4707881 -0.05204254 0.8807101 -0.2899469 -0.05203783 0.955627 -0.2898711 -0.05213731 0.9556446 -0.0978105 -0.05213838 0.9938384 -0.09790116 -0.05203163 0.993835 0.09781104 -0.05203223 0.9938439 0.09790062 -0.05213874 0.9938295 0.2899513 -0.05213695 0.9556203 0.2898666 -0.05203729 0.9556514 0.4707236 -0.05204278 0.8807446 0.4707858 -0.05213409 0.880706 0.6335418 -0.05212795 0.7719505 0.6335273 -0.05210322 0.771964 0.7719621 -0.05209797 0.63353 0.7719532 -0.05208438 0.633542 0.8807222 -0.0520839 0.4707608 0.8807246 -0.05208599 0.4707561 0.9556407 -0.0520842 0.2898936 0.9556396 -0.05208092 0.2898976 0.9938341 -0.05208182 0.09788441 0.9938341 -0.05208575 0.09788227 0.9938339 -0.0520851 -0.09788459 0.9938341 -0.05208396 -0.09788352 0.9556401 -0.05208289 -0.2898954 0.9556406 -0.05208271 -0.2898939 0.8807241 -0.05207461 -0.4707583 0.8807235 -0.05207884 -0.470759 0.7719649 -0.05207681 -0.6335285 0.7719622 -0.05208116 -0.6335314 0.6335339 -0.05208164 -0.7719601 0.6335256 -0.05208706 -0.7719666 0.4707633 -0.05208647 -0.8807207 0.4707612 -0.05208539 -0.8807219 0.2898921 -0.0520839 -0.9556412 0.2898962 -0.05208051 -0.95564 0.09788233 -0.05207967 -0.9938344 0.09788125 -0.05208545 -0.9938343 -0.09788227 -0.05208557 -0.9938341 -0.09788131 -0.05207949 -0.9938346 -0.2898921 -0.05208057 -0.9556412 -0.2898962 -0.0520839 -0.9556399 -0.4707531 -0.05208557 -0.8807262 -0.4707612 -0.05208623 -0.8807219 -0.6335275 -0.05208629 -0.771965 -0.6335281 -0.05208301 -0.7719649 -0.7719631 -0.05208206 -0.6335303 -0.7719606 -0.05208027 -0.6335334 -0.8807245 -0.052082 -0.4707568 -0.8807262 -0.05208402 -0.4707534 -0.9556416 -0.05208051 -0.2898909 -0.9556424 -0.05208456 -0.289888 -0.9938339 -0.05208462 -0.09788507 -0.993834 -0.05208522 -0.09788411 -0.9938338 -0.05208539 0.09788525 -0.9938342 -0.05208289 0.09788286 0 1 3.83747e-6 0 1 -1.08413e-5 0 -1 1.22372e-6 0 -1 -1.15764e-6 0 -1 5.85327e-7 -1 4.56721e-7 0 -1 0 0 -1 -1.77827e-7 0 -0.3118963 0 -0.9501162 -0.3908032 -0.02544015 -0.9201226 -0.3315063 0 -0.943453 -0.4854294 0 -0.8742759 -0.3314812 0.01215243 -0.9433836 -0.5877821 0.0364958 -0.8081957 -0.6255071 -0.008333325 -0.780174 -0.5881739 0 -0.8087345 -0.4854287 0 -0.8742763 -0.3909292 0 -0.9204207 -0.485429 0 -0.8742762 -0.4854284 0 -0.8742765 -0.6255286 0 -0.7802013 -0.8975443 0 0.4409244 -0.9589074 0 0.2837195 -0.9589074 0 0.2837196 -0.9929611 0 0.1184415 -0.9987387 0 -0.05020976 -0.9987388 0 -0.05020982 -0.9760753 0 -0.217433 -0.9760754 0 -0.217433 -0.9256169 0 -0.3784622 -0.9256168 0 -0.3784624 -0.8487991 0 -0.5287155 -0.7478098 0 -0.6639131 -0.7478096 0 -0.6639134 -0.6543079 0 -0.7562283 -0.6543083 0 -0.756228 -0.311897 0 -0.9501159 -0.1681523 0 -0.9857611 -0.1681517 0 -0.9857611 0 0 -1 0.1681516 0 -0.9857612 0.1681524 0 -0.9857611 0.3315061 0 -0.9434532 0.3315067 0 -0.9434528 0.4854286 0 -0.8742765 0.4854287 0 -0.8742763 0.6255304 0 -0.7801998 0.6255309 0 -0.7801995 0.7478067 0 -0.6639165 0.7478071 0 -0.6639161 0.8488007 0 -0.528713 0.9256162 0 -0.3784636 0.9256163 0 -0.3784635 0.9760757 0 -0.2174316 0.9760757 0 -0.2174316 0.9987387 0 -0.05021029 0.9929608 0 0.1184439 0.9929608 0 0.118444 0.9589082 0 0.2837167 0.9589082 0 0.2837167 0.8975458 0 0.4409214 0.8975458 5.60653e-7 0.4409214 0.2790157 -0.1385502 0.9502391 0.2790258 -0.1385621 0.9502344 0.4538045 -0.1385608 0.8802627 0.4538016 -0.1385529 0.8802655 0.6121997 -0.1385527 0.7784695 0.6121997 -0.1385519 0.7784696 0.7484608 -0.138551 0.6485446 0.7484632 -0.138556 0.6485407 0.8576723 -0.1385551 0.4951776 0.8576704 -0.1385492 0.4951825 0.9358856 -0.1385499 0.3239167 0.9358867 -0.1385576 0.3239107 0.9802744 -0.1385571 0.14094 0.9802749 -0.1385547 0.1409393 0.9892329 -0.1385551 -0.04712527 0.9892333 -0.1385535 -0.04712194 0.9624394 -0.1385521 -0.2334824 0.9624394 -0.1385523 -0.2334818 0.9008597 -0.138553 -0.4114062 0.9008607 -0.13855 -0.4114049 0.8067196 -0.1385498 -0.574463 0.8067188 -0.1385533 -0.5744631 0.6834226 -0.1385526 -0.7167544 0.6834185 -0.1385596 -0.7167568 0.5354257 -0.1385586 -0.8331391 0.5354273 -0.1385571 -0.8331384 0.3680802 -0.1385573 -0.9194123 0.3680828 -0.1385568 -0.9194114 0.1874238 -0.1385553 -0.9724581 0.1874233 -0.1385581 -0.9724578 0 -0.1385483 -0.9903557 -8.59034e-6 -0.1385594 -0.9903541 -0.1874247 -0.1385474 -0.972459 -0.1874309 -0.138556 -0.9724567 -0.3680803 -0.1385563 -0.9194124 -0.3680838 -0.138558 -0.9194108 -0.5354244 -0.1385571 -0.8331402 -0.5354257 -0.1385595 -0.833139 -0.6834219 -0.13856 -0.7167536 -0.683422 -0.1385556 -0.7167543 -0.8067187 -0.1385551 -0.5744627 -0.8067179 -0.1385554 -0.5744639 -0.9008586 -0.1385559 -0.4114074 -0.9008596 -0.1385545 -0.4114058 -0.9624381 -0.1385542 -0.2334859 -0.9624386 -0.1385553 -0.2334831 -0.989233 -0.1385552 -0.04712396 -0.9892328 -0.1385565 -0.04712349 -0.9802744 -0.1385542 0.1409426 -0.9802744 -0.1385546 0.1409423 -0.9358862 -0.1385546 0.3239132 -0.9358871 -0.1385545 0.3239107 -0.8576718 -0.1385535 0.4951788 -0.857671 -0.1385555 0.4951797 -0.7484577 -0.1385559 0.6485471 -0.7484623 -0.1385533 0.6485424 -0.6121997 -0.1385527 0.7784695 -0.6122011 -0.1385537 0.7784683 -0.4538069 -0.138553 0.8802628 -0.4538004 -0.1385619 0.8802647 -0.2790159 -0.1385619 0.9502373 -0.2790182 -0.138558 0.9502371 -0.09413397 -0.138549 0.9858717 -0.0941317 -0.1385515 0.9858716 0.09413391 -0.1385513 0.9858714 0.0941407 -0.1385605 0.9858695 0 1 3.32618e-7 0 1 -5.07251e-6 0 1 2.02925e-6 0 1 -4.85454e-6 0 1 2.34137e-5 0 1 -5.27623e-6 0 1 -4.70405e-6 0 1 5.62396e-6 0 1 -2.35202e-6 0 1 -1.36392e-6 0 1 -9.04282e-7 0 1 1.83636e-6 0 1 9.67068e-7 0 1 1.31574e-6 0 1 1.26863e-6 0 1 -5.69502e-7 0 1 0 0 1 -5.63589e-7 0 1 -1.11864e-6 0 1 5.5419e-7 0 1 -1.09664e-6 0 1 2.69129e-6 0 1 -1.42892e-6 0 1 6.76083e-7 0 1 -5.86872e-6 0 1 -2.16677e-6 0 1 -1.36392e-6 0 1 6.70296e-7 0 1 3.30202e-7 0 1 -6.52162e-7 0 1 1.12079e-6 0 1 2.83838e-7 0 1 1.27273e-6 0 1 -6.41172e-7 0 1 1.42827e-7 1 1.58078e-7 0 1 -1.41306e-7 0 1 0 0 0 -1 -5.11269e-6 0 -1 6.03711e-6 0 -1 7.95431e-7 -0.8477636 0.0490942 0.5280972 0.7028353 0.0490719 0.709658 0.707236 0.04909807 0.7052706 0.6083217 0.04960304 0.792139 0.7049338 0.05223715 0.707347 0.6068872 0.05220621 0.7930716 0.6068933 0.05221593 0.7930662 0.5496557 0.05234128 0.83375 0.5480241 0.05229455 0.8348263 0.5399475 0.2014401 0.8172385 0.6068961 0.05221223 0.7930644 0.5287875 0.05232226 0.84714 0.4895907 0.08783239 0.8675174 0.4443734 0.01314884 0.8957452 0.3657101 0.008646786 0.9306887 0.3162857 0.1370129 0.9387177 0.4443805 0.01314938 0.8957417 0.09549093 0.003442645 0.9954245 0.04115712 0.1575567 0.986652 0.1797206 0.005262553 0.9837037 0.2328634 0.005210816 0.9724956 0.1805045 0.1481818 0.9723478 0.3150735 0.008719503 0.9490272 -0.1821216 0.006140112 0.9832569 -0.2369364 0.1644206 0.9575108 -0.09856206 0.003848254 0.9951235 -0.04373651 0.003799736 0.999036 -0.09892553 0.1633761 0.9815917 0.04097682 0.003490984 0.999154 -0.4450685 0.05157023 0.8940104 -0.4714729 0.1243826 0.8730649 -0.3693478 0.009901165 0.9292386 -0.3169478 0.009844243 0.948392 -0.3701999 0.1608615 0.9149184 -0.2362032 0.006191134 0.971684 -0.3479751 0.7408986 0.5744412 -0.5165544 0.05170536 0.8546918 -0.5398181 0.06358265 0.839377 -0.5635074 0.08839905 0.8213679 -0.5875686 0.05061614 0.8075898 -0.583992 0.05066537 0.8101768 -0.585235 0.05228561 0.8091763 -0.6738799 0.05221068 0.736994 -0.6738761 0.05220574 0.7369977 -0.7697383 0.05220639 0.6362214 -0.7697417 0.05220645 0.6362171 -0.8459842 0.05223757 0.5306429 -0.8444624 0.04908186 0.5333614 0 1 4.65831e-7 0 0.9940921 -0.1085398 -2.37924e-6 0.9940935 -0.1085276 -2.30429e-6 0.9940927 -0.1085346 1.7767e-6 0.9940935 -0.1085276 -1.81437e-6 0.9940922 -0.1085386 8.75693e-5 0.9940871 -0.108586 4.39337e-6 0.9940934 -0.1085287 -7.63927e-6 0.9940931 -0.1085311 -7.62086e-5 0.9940847 -0.1086084 0 0.9940932 -0.1085308 0.003426015 0.9940164 -0.1091773 0 0.9940927 -0.1085354 5.91715e-6 0.9940924 -0.1085371 1.65175e-6 0.9940925 -0.1085365 -2.69885e-6 0.9940928 -0.1085337 -4.08082e-7 0.9940928 -0.1085333 -2.66941e-6 0.994093 -0.1085327 -4.69302e-6 0.9940918 -0.1085425 1.002e-5 0.994093 -0.1085323 -9.7431e-6 0.9940925 -0.1085369 0 0.994093 -0.1085332 -1.56037e-6 0.9940927 -0.1085351 3.57798e-6 0.9940924 -0.1085371 -1.82357e-6 0.9940928 -0.1085346 -4.46799e-6 0.9940929 -0.1085335 -3.64495e-6 0.9940927 -0.1085346 4.7039e-6 0.9940928 -0.1085348 -3.54006e-6 0.9940928 -0.1085346 -2.42621e-6 0.9940927 -0.1085349 6.04054e-5 0.994092 -0.1085416 2.97103e-6 0.9940931 -0.1085311 -3.41329e-5 0.9940899 -0.1085602 -9.07049e-7 0.9940925 -0.1085366 7.85696e-7 0.9940927 -0.1085349 9.12184e-6 0.9940927 -0.1085351 -3.11916e-6 0.9940927 -0.1085345 -4.57199e-6 0.9940927 -0.1085344 -3.59284e-6 0.9940928 -0.1085348 4.43334e-6 0.9940934 -0.1085282 3.41086e-6 0.9940927 -0.1085349 -4.57681e-6 0.9940927 -0.1085349 -8.20341e-6 0.9940927 -0.1085354 4.97818e-5 0.9940927 -0.1085354 7.46616e-7 0.9940927 -0.108535 2.56484e-6 0.9940927 -0.1085351 8.93117e-6 0.9940928 -0.1085345 -1.4556e-6 0.9940928 -0.1085347 -8.28824e-6 0.9940928 -0.1085338 3.88665e-6 0.9940926 -0.1085357 2.99427e-6 0.9940927 -0.1085357 2.82137e-6 0.9940925 -0.1085362 -3.1876e-6 0.994093 -0.1085329 -1.4318e-5 0.9940915 -0.1085464 -9.96886e-7 0.9940928 -0.1085346 -2.95604e-7 0.9940927 -0.1085352 -2.24577e-6 0.9940928 -0.1085348 8.69825e-6 0.994093 -0.1085323 -5.92884e-7 0.9940924 -0.1085373 -6.30856e-6 0.9940925 -0.1085364 -4.34421e-6 0.9940926 -0.1085357 2.08091e-6 0.9940928 -0.1085343 0 1 -1.56833e-6 0 1 2.8499e-6 0 1 -9.63026e-7 0 1 6.54519e-6 0 0 1 0 -1 -4.01711e-6 0 -1 -1.16317e-6 0 -1 -1.84426e-6 0 -1 -1.33304e-6 0 -1 8.86753e-6 0 -1 4.00273e-6 0 -1 4.00312e-6 0 -1 8.86531e-6 0 -1 -6.00605e-6 0 -1 2.00232e-6 0 -1 -1.00149e-6 0 -1 1.00181e-6 0 -1 2.21359e-6 0 -1 -1.38287e-7 0 -1 4.42039e-6 0 -1 1.15381e-6 0 -1 -2.32634e-6 0 -1 1.31801e-6 0 -1 0 0 -1 -1.08432e-5 0 -1 3.43681e-6 0 -1 3.42084e-6 0 -1 -1.10029e-5 0 -1 -6.81132e-6 0 -1 8.8687e-6 -0.9989877 5.04023e-4 0.04498279 -0.999543 -0.001162946 0.03021073 -0.9997258 4.20091e-5 0.02341741 -0.9272012 0.3745638 6.71573e-5 -0.9268691 0.3753849 3.9961e-5 -0.9999457 0 0.010432 -0.999614 0.004276931 0.0274524 -0.9999665 -0.005271017 0.006281435 -0.999153 0.005086719 0.04083555 -0.9998242 -0.003931283 0.01833671 -0.9991495 0.001734972 0.04119908 -0.9992606 9.40918e-4 0.03844016 -0.9995528 -0.001223564 0.02987986 -0.9996733 -1.55635e-4 0.02555894 -0.9991452 5.03984e-4 0.04133611 -0.9985616 0.001048564 0.05360746 -0.9989822 -5.99129e-4 0.04510366 -0.9978948 3.43489e-4 0.06485337 -0.997895 3.43164e-4 0.06484931 -0.9978656 4.35078e-4 0.06529992 -0.9971916 -1.80557e-4 0.07489317 -0.9966819 -4.70834e-6 0.08139544 -0.9971936 -4.74272e-6 0.07486695 -0.996517 5.78009e-4 0.08338826 -0.9965168 5.78453e-4 0.08338952 -0.9960573 0.001867234 0.08869218 -0.9966769 -5.83164e-4 0.08145457 -0.9953769 5.06812e-4 0.09604489 -0.9956912 -5.90339e-5 0.0927307 -0.9953621 -4.90354e-4 0.09619873 -0.9951118 -1.39634e-4 0.09875583 -0.9951118 -1.39829e-4 0.09875607 -0.9953744 3.27264e-4 0.09607189 -0.9950213 3.03461e-6 0.09966367 -0.9952436 4.36372e-4 0.09741699 -0.9954619 -2.61651e-4 0.09516155 -0.9986057 -2.51531e-4 0.05278921 -0.9981321 -8.10227e-4 0.06108844 -0.9975103 7.80839e-4 0.07051855 -0.9967699 -7.80893e-4 0.0803076 -0.9962908 3.96442e-4 0.08605086 -0.9954656 1.69906e-4 0.09512209 -0.996288 1.6995e-4 0.08608394 -0.9952259 -7.04123e-4 0.0975967 -0.9986059 -2.51492e-4 0.05278521 -0.9986059 -2.51578e-4 0.05278605 -0.9981439 9.97067e-4 0.06089168 -0.999247 -6.24092e-4 0.03879636 -0.9992856 -4.19515e-4 0.03779059 -0.9997238 2.42257e-4 0.02350139 -0.9997941 3.33149e-4 0.02028781 -0.9997233 -8.48431e-5 0.02352404 -0.9997233 -8.47391e-5 0.02352601 -0.9997943 -1.21744e-4 0.02028781 -0.9999673 1.53488e-4 0.008100211 -0.9999758 0 0.006972849 0 -1 2.89012e-6 0 -1 -8.39023e-7 0 -1 -1.02787e-6 0 -1 -1.13617e-6 0 -1 2.89012e-6 0 -1 -6.89788e-7 0 -1 2.36107e-6 0 -1 -1.15616e-6 0 -1 2.27161e-6 0 -1 -1.67863e-6 0 -1 -1.08826e-6 0 -1 1.04519e-6 0 -1 -1.0839e-6 0 -1 -1.04763e-6 0 -1 -2.16469e-6 0 -1 -5.70834e-7 0 -1 -2.22096e-6 0 -1 -4.80338e-7 0 -1 2.4602e-6 0 -1 -3.2498e-6 0 -1 7.21202e-7 0 -1 -6.89787e-7 0 -1 -2.17515e-6 0 -1 2.08234e-6 0 -1 -2.02985e-6 0 -1 -1.97567e-6 0 -1 -3.17549e-6 0 -1 8.6062e-7 0 -1 2.56728e-7 0 -1 5.08178e-7 0 -1 -1.97939e-6 0.9986283 0.005231678 0.05209684 0.9992893 9.36905e-4 0.03768426 0.9992897 9.3413e-4 0.03767371 0.9998316 -8.39229e-4 0.01833266 0.9997258 4.64024e-5 0.02341729 0.999673 -8.4368e-4 0.025563 0.9981397 2.17737e-4 0.06096822 0.9992398 -0.001333594 0.0389654 0.9992437 -0.001239418 0.03886479 0.9996951 6.17613e-5 0.02469694 0.9996999 1.10845e-4 0.02449667 0.9999672 0 0.008099675 0.9999802 -3.47037e-4 0.006284534 0.9999714 -2.91733e-4 0.007566809 0.9998319 1.82647e-4 0.0183382 0.9997224 1.15706e-4 0.02356076 0.9997238 1.1568e-4 0.02350455 0.995245 6.77064e-4 0.09740114 0.518364 0.8507996 -0.08624958 0.9982711 2.17826e-4 0.05877709 0.9975124 0.001343548 0.07047992 0.998121 -0.002186834 0.06123578 0.9963025 0.001612782 0.08590084 0.9967818 5.9701e-4 0.08016061 0.9962771 -3.7573e-4 0.0862078 0.9954617 -1.80179e-4 0.09516298 0.9962798 -1.80456e-4 0.08617746 0.9952444 6.78124e-4 0.09740823 0.9954548 -9.20902e-4 0.09523171 0.9950208 -1.99104e-6 0.09966778 0.9953722 -3.48577e-4 0.09609431 0.9951148 1.32257e-4 0.09872537 0.9953794 1.32294e-4 0.09602075 0.9951208 7.46199e-4 0.09866172 0.9953844 5.11918e-4 0.09596723 0.9975643 -5.03142e-4 0.06975096 0.9971983 4.38533e-4 0.07480305 0.9956898 -2.61947e-4 0.09274584 0.996438 3.55914e-4 0.08432823 0.9959567 -0.005153298 0.0896877 0.9965015 -5.49048e-4 0.08357405 0.9985017 -0.005092799 0.05448353 0.9987285 -0.002407848 0.05035465 0.9985484 -5.40694e-4 0.05386066 0.9975627 8.3675e-4 0.06977081 0.9978362 -0.004676699 0.06558251 0.9971858 -5.02685e-4 0.07496905 0.999997 0 0.002439081 0.9998891 -0.007139742 0.01307541 0.9996135 0.001703202 0.02775025 0.999411 0.001672983 0.03427618 0.9996024 -0.002779841 0.0280584 0.9987246 0.004077315 0.05032575 0.9991303 -0.00162363 0.04166603 0.9991312 -0.001623392 0.04164606 0.9999755 -2.12697e-4 0.007005512 0.999842 7.41395e-4 0.01776701 0.9997661 0 0.0216313 0.9958162 0.08910602 0.02025932 0.9997093 -0.002544164 0.02397638 0.9989978 0.004544615 0.04452884 0.9991313 6.50594e-4 0.04166889 0.998989 6.50841e-4 0.04495173 0.9991235 -0.004003465 0.04166924 0.9978822 0.003222107 0.06496864 0.9979474 -6.36922e-4 0.06403541 0.9966891 4.53809e-4 0.08130615 0.9971095 -0.002098739 0.07594972 0.9966627 -0.002098381 0.08160418 0.9964711 -0.03595894 0.07584488 0.9965358 0 0.08316582 0.4503139 -0.8876551 0.0963627 0 -0.9999824 0.005931794 3.50696e-4 -0.9998043 0.01977968 -3.38656e-4 -0.9995018 0.03156036 -3.38637e-4 -0.9998129 0.01934641 -3.69932e-4 -0.9982527 0.05909007 -1.92333e-4 -0.9995025 0.03153926 3.51712e-4 -0.9982497 0.05914151 -6.45789e-6 -0.9887776 0.1493949 1.54784e-5 -0.98972 0.1430191 3.51375e-4 -0.9894214 0.1450695 3.37998e-5 -0.9898008 0.1424587 3.38969e-5 -0.989716 0.1430468 -2.30382e-5 -0.9901291 0.1401592 5.08917e-5 -0.9911969 0.1323965 1.08447e-4 -0.9909332 0.134356 2.26073e-4 -0.9911971 0.1323952 -3.1788e-4 -0.9940795 0.1086553 -2.75427e-4 -0.9951661 0.09820556 -9.65827e-5 -0.9940764 0.1086838 -9.64338e-5 -0.9951624 0.09824341 6.0138e-4 -0.9940811 0.1086392 -3.37698e-4 -0.9975132 0.07047933 1.1985e-5 -0.9885836 0.1506731 1.19861e-5 -0.9885779 0.1507112 1.69944e-4 -0.9887819 0.149367 1.30841e-4 -0.9885784 0.1507077 2.31591e-5 -0.9883633 0.1521121 -6.66486e-5 -0.9876891 0.1564295 -2.44506e-5 -0.9877999 0.1557291 6.17385e-5 -0.9911712 0.1325888 1.38411e-4 -0.9908983 0.134613 1.87146e-4 -0.9911727 0.1325771 1.87093e-4 -0.9911751 0.1325591 1.2479e-4 -0.9896892 0.1432316 5.14664e-4 -0.9893732 0.1453977 -2.77114e-5 -0.9900957 0.1403937 -2.44327e-5 -0.987801 0.1557216 9.74048e-5 -0.9876872 0.156442 2.31554e-4 -0.9878042 0.1557014 2.13865e-4 -0.9877804 0.1558519 9.47405e-5 -0.9876768 0.1565075 -1.04449e-5 -0.9877858 0.1558185 -1.044e-5 -0.9876757 0.1565148 -6.3061e-5 -0.9877859 0.1558172 6.40159e-5 -0.9885452 0.1509258 1.02286e-4 -0.9883291 0.1523344 1.51642e-4 -0.9885459 0.1509209 -6.7671e-6 -0.9887419 0.1496316 7.64447e-6 -0.989378 0.1453658 9.0087e-4 -0.9994975 0.03168648 7.53007e-6 -0.9999806 0.006223678 3.66574e-4 -0.9908958 0.1346312 -4.30133e-4 -0.9940412 0.1090052 -3.79229e-4 -0.9951517 0.09835147 8.31704e-4 -0.9940329 0.1090779 -8.45199e-4 -0.99825 0.05912911 -3.07986e-4 -0.9975016 0.07064473 -3.07919e-4 -0.9982501 0.05913323 7.88677e-4 -0.9974988 0.07068037 4.82894e-4 -0.9982454 0.05921113 -8.92087e-4 -0.9998046 0.01974648</float_array>
          <technique_common>
            <accessor source="#Link2-mesh-normals-array" count="1171" stride="3">
              <param name="X" type="float"/>
              <param name="Y" type="float"/>
              <param name="Z" type="float"/>
            </accessor>
          </technique_common>
        </source>
        <vertices id="Link2-mesh-vertices">
          <input semantic="POSITION" source="#Link2-mesh-positions"/>
        </vertices>
        <triangles material="colour_abb_white_011-material" count="1567">
          <input semantic="VERTEX" source="#Link2-mesh-vertices" offset="0"/>
          <input semantic="NORMAL" source="#Link2-mesh-normals" offset="1"/>
          <p>0 0 1 0 2 0 3 1 4 1 5 1 6 2 5 2 2 2 7 3 5 3 8 3 7 4 9 4 10 4 10 5 11 5 2 5 7 5 11 5 12 5 7 5 12 5 13 5 6 6 14 6 5 6 5 7 14 7 15 7 5 8 15 8 16 8 17 5 18 5 19 5 19 5 3 5 17 5 17 5 3 5 5 5 17 9 5 9 20 9 20 10 5 10 16 10 20 11 16 11 21 11 22 5 0 5 23 5 23 5 0 5 2 5 23 12 7 12 24 12 24 5 7 5 13 5 25 5 26 5 27 5 28 13 29 13 30 13 30 14 29 14 25 14 29 5 31 5 25 5 25 5 31 5 32 5 25 5 33 5 34 5 34 5 33 5 35 5 34 5 35 5 36 5 37 5 38 5 39 5 39 5 38 5 40 5 41 13 30 13 42 13 42 5 30 5 25 5 42 5 25 5 39 5 39 15 25 15 27 15 39 16 27 16 37 16 40 5 43 5 39 5 39 5 43 5 44 5 39 5 44 5 45 5 46 5 44 5 47 5 46 5 47 5 48 5 23 17 49 17 22 17 22 18 49 18 50 18 22 18 50 18 0 18 0 19 50 19 51 19 0 20 52 20 53 20 1 21 52 21 54 21 1 22 55 22 2 22 7 23 55 23 56 23 7 24 56 24 6 24 6 25 56 25 57 25 6 25 57 25 14 25 14 26 57 26 58 26 14 26 58 26 15 26 15 27 58 27 59 27 15 27 59 27 16 27 16 28 59 28 60 28 16 29 60 29 21 29 21 30 60 30 61 30 21 31 61 31 20 31 20 32 61 32 62 32 20 33 62 33 17 33 17 34 62 34 63 34 17 34 63 34 18 34 18 35 63 35 64 35 18 35 64 35 19 35 19 36 64 36 65 36 19 36 65 36 3 36 3 37 65 37 66 37 3 38 66 38 4 38 4 39 66 39 67 39 4 40 67 40 5 40 5 41 67 41 68 41 5 42 69 42 8 42 9 43 69 43 70 43 9 44 70 44 10 44 10 45 70 45 71 45 10 45 71 45 11 45 11 46 71 46 72 46 11 46 72 46 12 46 12 47 72 47 73 47 12 48 73 48 13 48 13 49 73 49 74 49 13 50 74 50 24 50 24 51 74 51 75 51 24 52 75 52 23 52 23 17 75 17 49 17 76 53 77 53 78 53 78 54 77 54 79 54 80 55 81 55 82 55 82 56 81 56 83 56 41 57 84 57 30 57 30 58 84 58 85 58 30 58 85 58 28 58 28 59 85 59 86 59 28 59 86 59 29 59 29 60 86 60 87 60 29 61 87 61 31 61 31 62 87 62 88 62 31 63 89 63 32 63 33 64 89 64 90 64 33 65 90 65 35 65 35 35 90 35 91 35 35 35 91 35 36 35 36 66 91 66 92 66 36 67 92 67 34 67 34 68 92 68 93 68 34 69 93 69 25 69 25 70 93 70 94 70 25 71 94 71 26 71 26 72 94 72 95 72 26 73 95 73 27 73 27 74 95 74 96 74 27 74 96 74 37 74 37 75 96 75 97 75 37 75 97 75 38 75 38 76 97 76 98 76 38 77 98 77 40 77 40 78 98 78 99 78 40 79 99 79 43 79 43 80 99 80 100 80 43 81 100 81 44 81 44 82 100 82 101 82 44 83 101 83 47 83 47 84 101 84 102 84 47 84 102 84 48 84 48 85 102 85 103 85 48 86 104 86 45 86 46 87 104 87 105 87 46 88 105 88 39 88 39 89 105 89 106 89 39 90 106 90 42 90 42 91 106 91 107 91 42 91 107 91 41 91 41 57 107 57 84 57 108 92 75 92 74 92 74 93 73 93 108 93 108 5 73 5 72 5 108 94 72 94 109 94 109 5 72 5 71 5 109 95 71 95 110 95 111 5 71 5 70 5 111 5 70 5 112 5 112 96 70 96 113 96 114 97 113 97 115 97 115 98 113 98 70 98 115 5 70 5 116 5 116 99 70 99 68 99 116 5 69 5 117 5 117 5 69 5 67 5 59 100 58 100 118 100 65 5 119 5 66 5 66 101 119 101 120 101 66 5 120 5 67 5 67 102 120 102 121 102 67 103 121 103 117 103 118 5 58 5 122 5 122 104 58 104 57 104 122 5 57 5 123 5 62 105 124 105 63 105 63 5 124 5 125 5 63 5 125 5 64 5 64 106 125 106 126 106 64 5 126 5 65 5 65 5 126 5 127 5 65 107 127 107 119 107 118 108 128 108 59 108 59 5 128 5 129 5 59 5 129 5 60 5 60 5 129 5 130 5 60 109 130 109 61 109 61 5 130 5 131 5 61 5 131 5 62 5 62 110 131 110 132 110 62 5 133 5 124 5 123 5 57 5 134 5 134 111 57 111 56 111 134 112 56 112 135 112 135 5 56 5 54 5 135 113 55 113 136 113 136 114 55 114 51 114 136 5 52 5 137 5 108 115 138 115 75 115 75 5 138 5 139 5 75 116 139 116 140 116 141 117 52 117 142 117 142 118 52 118 50 118 142 5 50 5 143 5 143 119 50 119 49 119 143 5 49 5 144 5 144 120 49 120 75 120 144 5 75 5 145 5 145 5 75 5 140 5 145 5 140 5 146 5 77 121 147 121 79 121 79 122 147 122 148 122 83 123 81 123 149 123 83 124 149 124 150 124 150 125 149 125 151 125 150 126 151 126 152 126 152 127 151 127 153 127 152 128 153 128 154 128 154 129 153 129 155 129 154 130 155 130 156 130 156 131 155 131 157 131 156 132 157 132 158 132 158 133 157 133 159 133 158 134 159 134 160 134 160 135 159 135 76 135 160 136 76 136 78 136 161 137 80 137 162 137 162 138 80 138 82 138 163 139 164 139 165 139 166 140 167 140 168 140 163 141 165 141 169 141 169 142 165 142 170 142 170 143 165 143 171 143 170 144 171 144 172 144 171 145 173 145 172 145 174 146 173 146 175 146 174 147 175 147 176 147 177 148 166 148 178 148 178 149 166 149 168 149 178 150 168 150 179 150 179 151 168 151 176 151 179 152 180 152 181 152 181 146 180 146 175 146 182 153 183 153 184 153 184 154 183 154 185 154 184 155 185 155 186 155 187 156 188 156 189 156 189 157 188 157 190 157 189 158 190 158 191 158 192 159 193 159 194 159 195 160 86 160 85 160 196 5 191 5 197 5 197 5 191 5 190 5 197 5 190 5 198 5 198 161 190 161 199 161 198 162 199 162 200 162 182 5 201 5 183 5 183 5 201 5 202 5 183 5 202 5 203 5 203 5 202 5 204 5 203 5 204 5 205 5 205 5 100 5 99 5 96 5 206 5 97 5 97 163 206 163 205 163 97 5 205 5 98 5 98 5 205 5 99 5 94 164 207 164 95 164 95 5 207 5 198 5 95 5 198 5 96 5 96 5 198 5 200 5 96 5 200 5 206 5 195 165 208 165 86 165 86 5 208 5 209 5 86 5 209 5 87 5 210 166 90 166 209 166 209 167 90 167 88 167 209 5 89 5 87 5 91 5 211 5 92 5 92 168 211 168 212 168 92 5 212 5 93 5 93 169 212 169 213 169 93 5 213 5 94 5 94 5 213 5 214 5 94 5 214 5 207 5 215 5 216 5 210 5 210 170 216 170 217 170 210 5 217 5 90 5 90 171 217 171 218 171 90 5 218 5 91 5 91 172 218 172 219 172 91 173 219 173 211 173 85 5 84 5 195 5 195 5 84 5 107 5 195 5 107 5 220 5 220 174 107 174 106 174 220 5 106 5 221 5 221 175 106 175 105 175 221 5 105 5 222 5 222 5 105 5 103 5 205 5 204 5 100 5 100 5 204 5 223 5 100 5 223 5 224 5 225 5 226 5 227 5 227 176 226 176 208 176 224 5 192 5 100 5 100 5 192 5 194 5 100 5 194 5 101 5 101 5 194 5 228 5 101 5 228 5 102 5 102 177 228 177 229 177 102 178 229 178 103 178 104 179 229 179 230 179 104 180 230 180 222 180 231 5 227 5 232 5 232 5 227 5 208 5 232 5 208 5 233 5 233 5 208 5 195 5 234 181 108 181 109 181 235 182 236 182 237 182 238 183 234 183 239 183 239 184 234 184 109 184 239 185 109 185 240 185 240 186 109 186 110 186 240 187 111 187 241 187 241 188 111 188 112 188 241 189 112 189 242 189 242 190 112 190 113 190 242 191 113 191 243 191 243 192 113 192 244 192 243 193 114 193 237 193 237 194 114 194 115 194 237 195 115 195 235 195 235 196 115 196 116 196 235 197 116 197 117 197 234 198 238 198 245 198 235 199 117 199 246 199 108 200 234 200 138 200 138 201 234 201 245 201 138 202 245 202 139 202 139 203 245 203 247 203 139 204 247 204 140 204 140 205 247 205 248 205 140 206 248 206 146 206 146 207 248 207 249 207 146 208 249 208 145 208 145 209 249 209 250 209 145 210 250 210 144 210 144 211 250 211 251 211 144 212 251 212 143 212 143 213 251 213 252 213 143 214 252 214 142 214 142 215 252 215 253 215 142 216 253 216 137 216 141 217 253 217 254 217 141 218 254 218 136 218 136 219 254 219 255 219 136 220 255 220 135 220 135 221 255 221 256 221 135 222 256 222 134 222 134 223 256 223 257 223 134 224 257 224 123 224 123 225 257 225 258 225 123 226 258 226 122 226 122 227 258 227 259 227 122 228 259 228 118 228 118 229 259 229 260 229 118 230 260 230 128 230 128 231 260 231 261 231 128 232 261 232 129 232 129 233 261 233 262 233 129 234 262 234 130 234 130 235 262 235 263 235 130 236 263 236 131 236 131 237 263 237 264 237 131 238 264 238 132 238 133 239 264 239 265 239 133 240 265 240 124 240 124 241 265 241 266 241 124 242 266 242 125 242 125 243 266 243 267 243 125 244 267 244 126 244 126 245 267 245 268 245 126 246 268 246 127 246 127 247 268 247 269 247 127 248 269 248 119 248 119 249 269 249 270 249 119 250 270 250 120 250 120 251 270 251 271 251 120 252 271 252 121 252 121 253 271 253 272 253 121 254 272 254 117 254 117 255 272 255 273 255 117 256 273 256 246 256 168 5 167 5 274 5 274 5 275 5 276 5 169 5 170 5 277 5 277 257 170 257 172 257 277 5 174 5 274 5 274 258 174 258 176 258 274 259 180 259 168 259 278 5 279 5 280 5 280 260 279 260 277 260 280 5 277 5 281 5 281 5 277 5 274 5 281 5 274 5 282 5 282 261 274 261 276 261 283 84 284 84 285 84 286 84 284 84 287 84 288 262 289 262 290 262 291 262 292 262 293 262 294 262 295 262 296 262 296 262 295 262 297 262 296 263 297 263 298 263 294 262 299 262 300 262 294 262 300 262 295 262 295 262 300 262 301 262 295 264 301 264 302 264 303 262 304 262 305 262 306 265 304 265 297 265 306 262 297 262 307 262 307 262 297 262 295 262 308 266 309 266 310 266 308 262 310 262 293 262 293 267 310 267 311 267 293 268 311 268 312 268 313 262 295 262 314 262 314 269 295 269 293 269 314 262 293 262 315 262 315 262 293 262 292 262 316 270 293 270 317 270 317 262 293 262 295 262 317 262 295 262 318 262 318 271 295 271 302 271 319 272 291 272 290 272 290 262 291 262 293 262 290 273 293 273 288 273 288 262 293 262 312 262 288 274 312 274 320 274 321 275 322 275 323 275 324 276 325 276 326 276 323 277 327 277 328 277 329 278 321 278 330 278 330 279 321 279 323 279 330 280 323 280 331 280 331 281 323 281 328 281 331 282 328 282 332 282 333 283 328 283 334 283 330 284 335 284 329 284 329 285 335 285 336 285 329 286 336 286 337 286 337 287 336 287 338 287 337 288 338 288 339 288 339 289 338 289 340 289 339 290 340 290 341 290 341 291 340 291 342 291 341 292 342 292 343 292 343 293 342 293 344 293 343 294 344 294 345 294 346 295 344 295 347 295 346 296 348 296 349 296 349 297 348 297 350 297 349 298 350 298 351 298 351 299 350 299 352 299 351 300 352 300 353 300 353 301 352 301 324 301 353 302 324 302 354 302 354 303 324 303 326 303 354 304 326 304 355 304 356 305 161 305 357 305 357 306 161 306 162 306 358 307 357 307 150 307 150 308 357 308 83 308 83 309 357 309 162 309 83 310 162 310 82 310 150 262 152 262 358 262 358 311 152 311 154 311 358 262 154 262 359 262 154 262 156 262 359 262 359 262 156 262 158 262 359 312 158 312 360 312 361 313 158 313 160 313 361 314 160 314 148 314 148 262 160 262 78 262 148 315 78 315 79 315 147 316 362 316 148 316 148 317 362 317 360 317 147 318 77 318 76 318 363 5 151 5 356 5 356 319 151 319 149 319 356 5 149 5 161 5 161 320 149 320 81 320 161 5 81 5 80 5 364 5 155 5 363 5 363 321 155 321 153 321 363 322 153 322 151 322 147 5 76 5 365 5 362 323 76 323 159 323 362 324 159 324 364 324 364 325 159 325 157 325 364 326 157 326 155 326 366 262 367 262 368 262 369 327 370 327 371 327 372 328 373 328 369 328 369 329 373 329 374 329 375 330 369 330 368 330 376 331 369 331 377 331 369 262 378 262 379 262 380 332 369 332 381 332 381 262 369 262 379 262 381 333 379 333 382 333 370 334 369 334 383 334 383 262 369 262 384 262 383 335 384 335 385 335 386 262 372 262 387 262 387 262 372 262 369 262 387 336 369 336 388 336 388 262 369 262 371 262 388 262 371 262 389 262 390 262 384 262 391 262 391 262 384 262 369 262 391 262 369 262 392 262 392 262 369 262 380 262 392 337 380 337 393 337 394 262 377 262 395 262 395 338 377 338 369 338 395 339 369 339 396 339 396 262 369 262 374 262 397 262 366 262 398 262 398 262 366 262 368 262 398 262 376 262 399 262 399 262 376 262 377 262 177 340 178 340 400 340 400 341 178 341 401 341 178 342 179 342 401 342 401 343 179 343 181 343 401 344 181 344 402 344 181 345 175 345 402 345 402 345 175 345 173 345 402 346 173 346 403 346 164 347 404 347 165 347 165 348 404 348 403 348 165 349 403 349 171 349 171 350 403 350 173 350 169 35 277 35 163 35 163 35 277 35 405 35 163 351 405 351 164 351 164 35 405 35 404 35 177 84 400 84 166 84 166 352 400 352 406 352 166 84 406 84 167 84 167 84 406 84 274 84 184 353 186 353 407 353 408 354 202 354 201 354 182 355 184 355 201 355 201 356 184 356 407 356 201 357 407 357 409 357 408 358 407 358 410 358 185 359 183 359 411 359 411 360 183 360 203 360 411 361 203 361 412 361 412 362 203 362 205 362 412 363 205 363 413 363 413 364 205 364 206 364 413 365 206 365 414 365 414 366 206 366 200 366 414 367 200 367 415 367 415 368 200 368 199 368 415 369 199 369 188 369 188 370 199 370 190 370 416 371 417 371 418 371 189 372 191 372 196 372 418 373 187 373 189 373 189 374 196 374 418 374 418 375 196 375 197 375 418 376 197 376 419 376 420 377 417 377 421 377 421 378 417 378 419 378 421 379 416 379 198 379 198 380 416 380 197 380 421 381 198 381 207 381 422 382 423 382 424 382 420 383 421 383 425 383 425 384 421 384 207 384 425 385 207 385 426 385 426 386 207 386 214 386 426 387 214 387 427 387 427 388 214 388 213 388 427 389 213 389 428 389 428 390 213 390 212 390 428 391 212 391 429 391 429 392 212 392 211 392 429 393 211 393 430 393 430 394 211 394 219 394 430 395 219 395 431 395 432 396 219 396 218 396 432 397 218 397 433 397 433 398 218 398 217 398 433 399 217 399 434 399 434 400 217 400 216 400 434 401 216 401 435 401 435 402 216 402 215 402 435 403 215 403 424 403 424 404 215 404 210 404 424 405 210 405 422 405 422 406 210 406 209 406 422 407 209 407 208 407 436 408 437 408 438 408 423 409 422 409 439 409 440 410 422 410 208 410 440 411 208 411 441 411 441 412 208 412 226 412 441 413 226 413 442 413 442 414 226 414 225 414 442 415 225 415 443 415 443 416 225 416 227 416 443 417 227 417 444 417 444 418 227 418 231 418 444 419 231 419 445 419 445 420 231 420 232 420 445 421 232 421 438 421 446 422 232 422 233 422 446 423 233 423 447 423 436 424 233 424 195 424 436 425 195 425 220 425 448 426 449 426 450 426 436 427 220 427 437 427 204 428 448 428 223 428 223 429 448 429 450 429 223 430 450 430 224 430 224 431 450 431 451 431 224 432 451 432 192 432 192 433 451 433 452 433 192 434 452 434 193 434 193 435 452 435 453 435 193 436 453 436 194 436 194 437 453 437 454 437 194 438 454 438 228 438 228 439 454 439 455 439 228 440 455 440 229 440 229 441 455 441 456 441 229 442 457 442 230 442 230 443 457 443 458 443 230 444 458 444 222 444 222 445 458 445 459 445 222 446 459 446 221 446 221 447 459 447 460 447 221 448 460 448 220 448 220 449 460 449 461 449 220 450 461 450 437 450 204 451 202 451 448 451 448 452 202 452 409 452 448 453 408 453 449 453 449 454 408 454 410 454 337 5 339 5 341 5 462 5 463 5 464 5 355 5 465 5 466 5 466 5 465 5 467 5 466 5 468 5 462 5 464 5 469 5 470 5 237 5 471 5 243 5 243 5 471 5 321 5 243 455 321 455 329 455 462 456 464 456 466 456 466 457 464 457 470 457 466 458 470 458 472 458 255 5 254 5 466 5 237 5 236 5 473 5 471 459 236 459 273 459 471 5 273 5 272 5 255 5 466 5 256 5 262 460 474 460 263 460 263 461 474 461 475 461 263 462 475 462 264 462 264 5 475 5 476 5 264 5 476 5 265 5 265 5 476 5 477 5 265 5 477 5 266 5 266 463 477 463 478 463 266 5 478 5 267 5 267 464 478 464 479 464 267 5 479 5 268 5 254 465 253 465 466 465 466 466 253 466 252 466 466 5 252 5 355 5 355 467 252 467 251 467 355 468 251 468 250 468 272 469 271 469 473 469 471 470 271 470 270 470 471 5 270 5 480 5 480 5 270 5 269 5 480 5 269 5 481 5 481 471 269 471 268 471 481 5 268 5 482 5 482 5 268 5 479 5 466 5 483 5 256 5 256 472 483 472 484 472 256 5 484 5 257 5 257 5 484 5 485 5 257 5 485 5 258 5 258 5 485 5 486 5 258 5 486 5 259 5 259 5 486 5 487 5 259 473 487 473 260 473 260 5 487 5 488 5 260 5 488 5 261 5 261 5 488 5 489 5 261 474 489 474 262 474 262 5 489 5 490 5 262 5 490 5 474 5 250 5 249 5 355 5 355 475 249 475 248 475 355 5 248 5 354 5 354 5 248 5 247 5 354 5 247 5 353 5 329 5 337 5 243 5 243 5 337 5 341 5 243 5 341 5 242 5 242 5 341 5 343 5 242 5 343 5 241 5 241 5 343 5 345 5 241 476 346 476 240 476 240 477 346 477 349 477 240 478 349 478 239 478 239 5 349 5 351 5 239 479 351 479 491 479 238 5 351 5 353 5 238 5 353 5 245 5 245 480 353 480 247 480 326 481 325 481 492 481 493 482 494 482 495 482 495 483 494 483 465 483 495 484 465 484 492 484 492 485 465 485 355 485 492 486 355 486 326 486 492 5 325 5 496 5 496 487 325 487 324 487 496 488 324 488 497 488 497 489 324 489 352 489 497 490 352 490 498 490 498 5 352 5 350 5 331 5 499 5 330 5 330 5 499 5 500 5 330 5 500 5 335 5 335 5 500 5 501 5 335 491 501 491 336 491 501 492 502 492 336 492 336 493 502 493 503 493 336 5 504 5 338 5 338 494 504 494 505 494 338 495 505 495 340 495 340 496 505 496 506 496 340 5 506 5 342 5 342 497 506 497 507 497 342 498 507 498 344 498 344 5 507 5 508 5 344 5 508 5 347 5 348 499 508 499 509 499 348 500 509 500 350 500 350 5 509 5 510 5 350 5 510 5 498 5 334 501 511 501 332 501 333 502 511 502 512 502 333 503 513 503 331 503 331 504 513 504 499 504 405 505 277 505 514 505 514 506 277 506 279 506 514 507 279 507 515 507 278 508 516 508 279 508 279 509 516 509 515 509 278 510 280 510 516 510 516 511 280 511 517 511 281 512 518 512 280 512 280 513 518 513 519 513 280 514 519 514 517 514 282 515 276 515 520 515 520 516 521 516 282 516 282 517 521 517 522 517 282 518 522 518 281 518 281 519 522 519 523 519 281 520 523 520 524 520 275 521 525 521 276 521 276 522 525 522 520 522 274 523 406 523 275 523 275 524 406 524 526 524 275 525 526 525 525 525 527 526 283 526 528 526 528 527 283 527 285 527 529 528 530 528 285 528 286 529 530 529 528 529 284 530 531 530 287 530 529 531 531 531 530 531 283 532 527 532 532 532 284 533 527 533 531 533 533 534 534 534 535 534 533 535 535 535 536 535 536 536 535 536 537 536 536 537 537 537 538 537 538 538 537 538 539 538 538 539 539 539 540 539 540 540 539 540 541 540 540 541 541 541 542 541 542 542 541 542 543 542 542 543 543 543 544 543 544 544 543 544 545 544 544 545 545 545 546 545 546 546 545 546 547 546 546 547 547 547 548 547 548 548 547 548 549 548 548 548 549 548 550 548 550 549 549 549 551 549 550 549 551 549 552 549 552 550 551 550 553 550 552 551 553 551 554 551 554 552 553 552 555 552 554 553 556 553 557 553 558 554 556 554 559 554 558 555 560 555 561 555 562 556 560 556 563 556 562 557 563 557 564 557 564 558 563 558 565 558 564 559 565 559 566 559 566 560 565 560 567 560 566 561 567 561 568 561 568 562 567 562 569 562 568 563 569 563 570 563 570 564 569 564 571 564 570 565 571 565 572 565 572 566 571 566 573 566 572 567 573 567 574 567 574 568 573 568 575 568 574 569 575 569 576 569 576 570 575 570 577 570 576 571 577 571 578 571 578 572 577 572 579 572 578 573 579 573 580 573 580 574 579 574 581 574 580 575 581 575 582 575 582 576 581 576 583 576 582 577 583 577 584 577 585 578 310 578 586 578 586 579 310 579 309 579 586 580 309 580 587 580 587 581 309 581 308 581 587 582 308 582 588 582 588 583 308 583 293 583 588 584 293 584 589 584 589 585 293 585 316 585 589 586 316 586 590 586 590 587 316 587 317 587 590 588 317 588 591 588 591 589 317 589 318 589 591 590 318 590 592 590 592 591 318 591 302 591 592 592 302 592 593 592 593 593 302 593 301 593 593 594 301 594 594 594 594 595 301 595 300 595 594 596 300 596 595 596 595 597 300 597 299 597 595 598 299 598 596 598 596 599 299 599 294 599 596 600 294 600 597 600 597 601 294 601 296 601 597 602 296 602 598 602 598 603 296 603 298 603 598 604 298 604 599 604 599 605 298 605 297 605 599 606 297 606 600 606 600 607 297 607 304 607 600 608 304 608 601 608 601 609 304 609 303 609 601 610 303 610 602 610 602 611 303 611 305 611 602 612 306 612 603 612 603 613 306 613 307 613 603 614 307 614 604 614 604 615 307 615 295 615 604 616 295 616 605 616 606 617 295 617 313 617 606 618 313 618 607 618 607 619 313 619 314 619 607 620 314 620 608 620 608 621 314 621 315 621 608 622 315 622 609 622 609 623 315 623 292 623 609 624 292 624 610 624 610 625 292 625 291 625 610 626 291 626 611 626 611 627 291 627 319 627 611 628 319 628 612 628 613 629 319 629 290 629 613 630 290 630 614 630 614 631 290 631 289 631 614 632 289 632 615 632 615 633 289 633 288 633 615 634 288 634 616 634 616 635 288 635 320 635 616 636 617 636 618 636 618 637 617 637 312 637 618 638 312 638 619 638 619 639 312 639 311 639 619 640 311 640 585 640 585 641 311 641 310 641 620 5 621 5 622 5 623 642 621 642 624 642 623 643 624 643 625 643 626 644 511 644 334 644 334 262 328 262 627 262 626 645 328 645 327 645 626 262 327 262 628 262 629 262 327 262 630 262 629 262 630 262 631 262 631 262 630 262 632 262 631 646 632 646 633 646 583 35 634 35 584 35 584 35 634 35 635 35 323 647 321 647 473 647 323 35 471 35 327 35 327 648 471 648 636 648 327 649 637 649 630 649 630 35 637 35 638 35 361 650 362 650 489 650 361 651 639 651 359 651 359 652 639 652 640 652 359 653 640 653 641 653 489 654 362 654 490 654 363 655 356 655 475 655 642 656 357 656 641 656 641 657 357 657 358 657 641 658 358 658 359 658 362 659 364 659 490 659 490 660 364 660 363 660 490 661 363 661 474 661 474 662 363 662 475 662 637 663 471 663 480 663 637 663 480 663 643 663 643 664 480 664 481 664 643 665 481 665 644 665 644 666 481 666 482 666 644 666 482 666 645 666 645 667 482 667 479 667 645 668 479 668 646 668 646 669 479 669 478 669 646 670 478 670 647 670 647 671 478 671 477 671 647 672 477 672 648 672 648 673 477 673 476 673 648 673 476 673 649 673 649 674 476 674 475 674 649 675 475 675 642 675 642 676 475 676 356 676 642 677 356 677 357 677 361 678 489 678 639 678 639 679 489 679 488 679 639 680 488 680 650 680 650 681 488 681 487 681 650 681 487 681 651 681 651 682 487 682 486 682 651 683 486 683 652 683 652 684 486 684 485 684 652 685 485 685 653 685 653 686 485 686 484 686 653 687 484 687 654 687 654 688 484 688 483 688 654 689 483 689 655 689 655 690 483 690 466 690 655 691 466 691 656 691 656 692 466 692 472 692 656 692 472 692 657 692 657 693 472 693 470 693 657 694 470 694 658 694 658 695 470 695 469 695 658 696 469 696 659 696 659 697 469 697 464 697 659 697 464 697 660 697 660 698 464 698 463 698 660 699 463 699 661 699 661 700 463 700 462 700 661 701 462 701 662 701 662 702 462 702 467 702 662 703 468 703 663 703 664 704 370 704 665 704 665 705 370 705 383 705 665 706 383 706 666 706 666 707 383 707 385 707 666 708 385 708 667 708 667 709 385 709 384 709 667 710 384 710 668 710 668 711 384 711 390 711 668 712 390 712 669 712 669 713 390 713 391 713 669 714 391 714 670 714 670 715 391 715 392 715 670 716 392 716 671 716 672 717 392 717 393 717 672 718 393 718 673 718 673 719 393 719 380 719 673 720 380 720 674 720 674 721 380 721 381 721 674 722 381 722 675 722 675 723 381 723 382 723 675 724 382 724 676 724 676 725 382 725 379 725 676 726 379 726 677 726 677 727 379 727 378 727 677 728 378 728 678 728 678 729 378 729 369 729 678 730 369 730 679 730 679 731 369 731 375 731 679 732 375 732 680 732 680 733 375 733 368 733 680 734 376 734 681 734 681 735 376 735 682 735 681 736 367 736 683 736 683 737 367 737 366 737 683 738 366 738 684 738 684 739 366 739 397 739 684 740 397 740 685 740 685 741 397 741 398 741 685 742 398 742 686 742 686 743 398 743 399 743 686 744 399 744 687 744 687 745 399 745 377 745 687 746 377 746 688 746 688 747 377 747 394 747 688 748 394 748 689 748 689 749 394 749 395 749 689 750 395 750 690 750 691 751 395 751 396 751 691 752 396 752 692 752 692 753 396 753 374 753 692 754 374 754 693 754 693 755 374 755 373 755 693 756 373 756 694 756 694 757 373 757 372 757 694 758 372 758 695 758 695 759 372 759 386 759 695 760 386 760 696 760 696 761 386 761 387 761 696 762 387 762 697 762 697 763 387 763 388 763 697 764 388 764 698 764 698 765 388 765 389 765 698 766 699 766 700 766 700 767 699 767 371 767 700 768 371 768 664 768 664 769 371 769 701 769 186 5 185 5 411 5 702 5 703 5 514 5 514 5 703 5 405 5 406 5 400 5 534 5 581 5 579 5 583 5 583 5 579 5 404 5 583 5 404 5 634 5 634 5 404 5 405 5 634 5 405 5 704 5 704 5 405 5 705 5 706 5 526 5 707 5 707 770 526 770 406 770 707 5 406 5 708 5 708 5 406 5 534 5 187 5 186 5 188 5 188 771 186 771 411 771 188 5 411 5 415 5 415 772 411 772 412 772 415 5 412 5 414 5 414 5 412 5 413 5 553 5 410 5 555 5 556 773 410 773 407 773 417 774 563 774 418 774 418 775 563 775 559 775 418 776 560 776 187 776 187 5 560 5 555 5 187 777 556 777 186 777 186 778 556 778 407 778 400 5 445 5 438 5 579 779 433 779 434 779 460 5 537 5 400 5 400 780 537 780 535 780 400 781 535 781 534 781 579 5 434 5 404 5 404 782 434 782 435 782 404 5 435 5 424 5 446 783 437 783 400 783 400 5 437 5 461 5 400 5 461 5 460 5 433 784 579 784 431 784 432 785 579 785 577 785 432 5 577 5 430 5 430 786 577 786 575 786 430 5 575 5 429 5 429 787 575 787 573 787 429 5 573 5 428 5 428 788 573 788 571 788 428 5 571 5 427 5 427 789 571 789 569 789 427 5 569 5 426 5 426 790 569 790 567 790 426 791 567 791 425 791 445 5 400 5 444 5 444 5 400 5 401 5 444 5 401 5 443 5 443 5 401 5 402 5 443 5 402 5 442 5 442 5 402 5 403 5 442 5 403 5 441 5 441 792 403 792 404 792 441 5 404 5 439 5 440 793 404 793 424 793 440 794 424 794 423 794 417 5 420 5 563 5 563 5 420 5 425 5 563 5 425 5 565 5 565 795 425 795 567 795 460 5 459 5 537 5 537 796 459 796 458 796 537 5 458 5 539 5 539 797 458 797 456 797 539 5 457 5 541 5 541 798 457 798 455 798 541 5 455 5 543 5 543 799 455 799 454 799 543 800 454 800 545 800 545 5 454 5 453 5 545 5 453 5 547 5 547 5 453 5 452 5 547 801 452 801 549 801 549 802 452 802 451 802 549 803 451 803 551 803 551 5 451 5 450 5 551 804 450 804 553 804 553 5 450 5 449 5 553 5 449 5 410 5 534 84 533 84 708 84 708 805 533 805 709 805 708 84 709 84 710 84 711 84 712 84 713 84 494 806 712 806 663 806 494 84 714 84 465 84 465 807 714 807 467 807 715 262 716 262 717 262 715 808 717 808 718 808 718 809 717 809 719 809 718 262 719 262 493 262 493 810 719 810 711 810 493 262 711 262 713 262 513 811 511 811 627 811 495 812 492 812 496 812 718 813 493 813 495 813 496 814 720 814 721 814 495 815 496 815 718 815 718 816 496 816 721 816 718 817 721 817 715 817 715 818 721 818 722 818 715 819 722 819 723 819 720 820 496 820 724 820 725 821 496 821 497 821 725 822 497 822 726 822 726 823 497 823 498 823 726 824 498 824 727 824 510 825 728 825 498 825 498 826 728 826 729 826 498 827 729 827 727 827 509 828 508 828 730 828 730 829 731 829 509 829 509 830 731 830 732 830 509 831 732 831 510 831 510 832 732 832 733 832 510 833 733 833 734 833 507 834 506 834 735 834 735 835 736 835 507 835 507 836 736 836 737 836 507 837 737 837 508 837 508 838 737 838 738 838 508 839 739 839 730 839 505 840 504 840 740 840 740 841 741 841 505 841 505 842 741 842 742 842 505 843 742 843 506 843 506 844 742 844 743 844 506 845 743 845 735 845 625 846 740 846 622 846 623 847 740 847 503 847 623 848 504 848 620 848 620 849 504 849 502 849 620 850 502 850 744 850 745 851 744 851 631 851 631 852 744 852 502 852 631 853 502 853 628 853 629 854 502 854 501 854 629 855 501 855 627 855 626 856 501 856 500 856 626 857 500 857 512 857 513 858 500 858 499 858 726 859 746 859 724 859 725 5 746 5 747 5 725 5 747 5 720 5 525 860 526 860 706 860 706 861 748 861 525 861 525 862 748 862 749 862 525 863 749 863 520 863 520 864 749 864 750 864 751 865 752 865 516 865 753 866 741 866 740 866 753 867 740 867 754 867 754 868 740 868 625 868 754 869 625 869 624 869 755 870 756 870 757 870 702 871 514 871 758 871 758 872 514 872 515 872 758 873 515 873 759 873 759 874 515 874 516 874 759 875 516 875 760 875 761 876 516 876 752 876 753 877 762 877 741 877 741 878 762 878 763 878 741 879 763 879 742 879 746 880 726 880 764 880 764 881 726 881 727 881 728 882 765 882 729 882 729 883 765 883 766 883 729 884 767 884 727 884 768 885 767 885 769 885 768 886 769 886 764 886 733 887 770 887 734 887 728 888 770 888 771 888 728 889 771 889 765 889 750 890 772 890 520 890 520 891 772 891 773 891 520 892 773 892 774 892 774 893 732 893 520 893 520 894 732 894 731 894 520 895 731 895 521 895 521 896 731 896 730 896 521 897 730 897 522 897 523 898 522 898 524 898 518 899 522 899 730 899 518 900 730 900 519 900 519 901 730 901 738 901 519 902 739 902 517 902 775 903 739 903 737 903 775 904 737 904 516 904 516 905 737 905 776 905 516 906 736 906 751 906 774 907 777 907 732 907 732 908 777 908 778 908 732 909 778 909 733 909 733 910 778 910 779 910 733 911 779 911 780 911 763 912 781 912 742 912 742 913 781 913 782 913 742 914 782 914 743 914 743 915 782 915 783 915 743 916 784 916 735 916 735 917 784 917 785 917 735 918 755 918 776 918 736 919 755 919 757 919 736 920 786 920 751 920 787 5 788 5 789 5 790 921 527 921 791 921 791 5 527 5 528 5 791 922 528 922 789 922 789 923 528 923 792 923 789 924 792 924 787 924 792 681 528 681 793 681 793 681 528 681 530 681 793 262 530 262 794 262 794 262 530 262 531 262 794 262 531 262 795 262 795 262 531 262 796 262 795 262 796 262 797 262 797 262 796 262 798 262 796 925 531 925 790 925 790 925 531 925 527 925 603 926 604 926 533 926 533 262 604 262 709 262 709 262 604 262 605 262 709 927 606 927 607 927 607 262 608 262 709 262 709 928 608 928 609 928 709 262 609 262 635 262 635 928 609 928 610 928 635 929 610 929 611 929 593 262 558 262 592 262 592 262 558 262 561 262 592 262 562 262 591 262 591 930 562 930 564 930 591 931 564 931 590 931 590 262 564 262 566 262 590 932 566 932 589 932 589 933 566 933 568 933 589 934 568 934 588 934 588 262 568 262 570 262 588 935 570 935 587 935 587 262 570 262 572 262 587 936 572 936 586 936 586 262 572 262 574 262 586 937 574 937 585 937 585 938 574 938 576 938 585 262 576 262 619 262 619 939 576 939 578 939 619 262 578 262 618 262 618 262 578 262 580 262 618 262 580 262 616 262 616 940 580 940 582 940 616 262 582 262 615 262 615 262 582 262 584 262 615 262 584 262 614 262 614 262 584 262 635 262 614 941 635 941 612 941 613 942 635 942 611 942 603 262 533 262 602 262 602 262 533 262 536 262 602 943 536 943 601 943 601 262 536 262 538 262 601 262 538 262 600 262 600 262 538 262 540 262 600 262 540 262 599 262 599 944 540 944 542 944 599 262 542 262 598 262 598 262 542 262 544 262 598 945 544 945 597 945 597 946 544 946 546 946 597 262 546 262 596 262 596 947 546 947 548 947 596 948 548 948 595 948 595 949 548 949 550 949 595 262 550 262 594 262 594 262 550 262 552 262 594 262 552 262 593 262 593 262 552 262 554 262 593 950 554 950 557 950 753 951 754 951 799 951 799 952 754 952 624 952 621 953 620 953 744 953 800 954 801 954 638 954 638 955 801 955 802 955 638 956 803 956 630 956 630 957 803 957 804 957 630 958 804 958 632 958 632 959 804 959 805 959 632 960 806 960 633 960 745 961 806 961 799 961 745 962 799 962 744 962 744 963 799 963 624 963 744 964 624 964 621 964 799 965 807 965 753 965 753 966 807 966 808 966 753 967 809 967 762 967 809 968 810 968 762 968 762 969 810 969 811 969 762 970 811 970 763 970 763 971 811 971 812 971 763 972 812 972 781 972 781 973 812 973 813 973 781 974 813 974 814 974 814 975 815 975 781 975 781 976 815 976 816 976 781 977 816 977 782 977 782 978 816 978 817 978 782 979 817 979 783 979 784 980 817 980 818 980 784 981 818 981 785 981 755 982 818 982 756 982 756 983 818 983 819 983 756 984 819 984 757 984 786 985 819 985 820 985 786 986 821 986 751 986 822 987 759 987 823 987 823 988 759 988 760 988 823 989 761 989 824 989 824 990 761 990 752 990 824 991 752 991 825 991 825 992 752 992 751 992 825 993 751 993 826 993 826 994 751 994 820 994 822 995 827 995 759 995 759 996 827 996 828 996 759 997 828 997 758 997 758 998 828 998 702 998 828 999 829 999 702 999 702 1000 829 1000 830 1000 702 1001 830 1001 705 1001 830 1002 831 1002 705 1002 703 1003 831 1003 832 1003 703 1004 833 1004 704 1004 704 1005 833 1005 635 1005 704 1006 635 1006 634 1006 696 1007 697 1007 638 1007 638 1008 697 1008 698 1008 638 1009 698 1009 712 1009 698 262 700 262 712 262 712 1010 700 1010 664 1010 712 262 664 262 665 262 665 1011 666 1011 712 1011 712 1012 666 1012 667 1012 712 262 667 262 663 262 714 1013 667 1013 668 1013 714 262 668 262 662 262 662 1014 668 1014 669 1014 662 262 669 262 661 262 661 1015 669 1015 670 1015 661 262 670 262 660 262 660 1016 670 1016 671 1016 660 262 672 262 659 262 659 262 672 262 673 262 659 262 673 262 658 262 658 262 673 262 674 262 658 262 674 262 657 262 657 1017 674 1017 675 1017 657 1018 675 1018 656 1018 656 1019 675 1019 676 1019 656 1020 676 1020 655 1020 655 1021 676 1021 677 1021 643 1022 689 1022 636 1022 637 1023 689 1023 690 1023 637 1024 691 1024 692 1024 692 1025 693 1025 636 1025 637 1026 693 1026 694 1026 637 262 694 262 638 262 638 1027 694 1027 695 1027 638 1028 695 1028 696 1028 686 262 642 262 685 262 685 262 642 262 641 262 685 262 641 262 684 262 684 262 641 262 640 262 684 1029 640 1029 683 1029 683 1030 640 1030 639 1030 683 262 639 262 681 262 681 262 639 262 650 262 681 262 650 262 680 262 680 262 650 262 651 262 680 262 651 262 679 262 679 1031 651 1031 652 1031 679 262 652 262 678 262 678 262 652 262 653 262 678 262 653 262 677 262 677 1032 653 1032 654 1032 677 262 654 262 655 262 643 1033 644 1033 645 1033 643 1034 645 1034 689 1034 689 1035 645 1035 646 1035 689 262 646 262 688 262 688 1036 646 1036 647 1036 688 262 647 262 687 262 687 262 647 262 648 262 687 262 648 262 686 262 686 1037 648 1037 649 1037 686 262 649 262 642 262 716 1038 834 1038 835 1038 835 1039 836 1039 723 1039 716 1040 836 1040 837 1040 716 1041 837 1041 717 1041 720 1042 747 1042 721 1042 721 1043 747 1043 746 1043 769 1044 834 1044 764 1044 764 1045 834 1045 723 1045 764 1046 716 1046 746 1046 746 1047 716 1047 722 1047 746 1048 722 1048 721 1048 712 1049 711 1049 838 1049 839 1050 711 1050 719 1050 839 1051 719 1051 840 1051 840 1052 719 1052 717 1052 840 1053 717 1053 841 1053 841 1054 717 1054 837 1054 842 1055 843 1055 771 1055 844 1056 834 1056 845 1056 845 1057 834 1057 769 1057 845 1058 769 1058 846 1058 846 1059 769 1059 766 1059 846 1060 767 1060 847 1060 847 1061 767 1061 765 1061 847 1062 765 1062 848 1062 848 1063 765 1063 771 1063 848 1064 771 1064 849 1064 849 1065 771 1065 843 1065 771 1066 770 1066 842 1066 842 1067 770 1067 779 1067 842 1068 779 1068 850 1068 851 1069 779 1069 778 1069 851 1070 778 1070 852 1070 852 1071 778 1071 777 1071 852 1072 777 1072 853 1072 794 1073 854 1073 793 1073 793 1074 854 1074 855 1074 777 1075 774 1075 853 1075 853 1076 774 1076 793 1076 853 1077 793 1077 856 1077 856 1078 793 1078 855 1078 797 1079 857 1079 858 1079 797 1080 858 1080 795 1080 795 1081 858 1081 859 1081 795 1082 859 1082 794 1082 794 1083 859 1083 860 1083 794 1084 860 1084 854 1084 708 1085 710 1085 861 1085 861 1086 862 1086 796 1086 796 1087 862 1087 863 1087 796 1088 863 1088 798 1088 798 1089 863 1089 864 1089 798 1090 864 1090 797 1090 797 1091 864 1091 865 1091 797 1092 865 1092 857 1092 708 1093 861 1093 707 1093 707 1094 861 1094 796 1094 707 1095 796 1095 790 1095 706 1096 707 1096 748 1096 748 1097 707 1097 790 1097 748 1098 790 1098 749 1098 749 1099 790 1099 791 1099 749 1100 791 1100 750 1100 750 1101 791 1101 789 1101 750 1102 789 1102 772 1102 772 1103 789 1103 788 1103 772 1104 788 1104 773 1104 773 1105 788 1105 787 1105 773 1106 787 1106 774 1106 774 1107 787 1107 792 1107 774 1108 792 1108 793 1108 812 1109 811 1109 866 1109 638 1110 712 1110 800 1110 800 1111 712 1111 838 1111 800 1112 839 1112 801 1112 839 1113 840 1113 801 1113 801 1114 840 1114 841 1114 801 1115 841 1115 802 1115 803 1116 841 1116 837 1116 814 1117 813 1117 846 1117 846 1118 813 1118 845 1118 813 1119 812 1119 845 1119 845 1120 812 1120 866 1120 845 1121 810 1121 844 1121 844 1122 810 1122 808 1122 844 1123 809 1123 867 1123 834 1124 809 1124 807 1124 834 1125 807 1125 835 1125 835 1126 807 1126 799 1126 835 1127 799 1127 836 1127 836 1128 799 1128 805 1128 836 1129 806 1129 837 1129 837 1130 806 1130 804 1130 837 1131 804 1131 802 1131 846 1132 847 1132 814 1132 814 1133 847 1133 848 1133 814 1134 848 1134 815 1134 815 1135 848 1135 849 1135 815 1136 849 1136 816 1136 816 1137 849 1137 843 1137 816 1138 843 1138 817 1138 823 1139 859 1139 822 1139 822 1140 859 1140 858 1140 822 1141 858 1141 827 1141 827 1142 858 1142 828 1142 824 1143 854 1143 823 1143 823 1144 854 1144 860 1144 823 1145 860 1145 859 1145 817 1146 843 1146 818 1146 818 1147 843 1147 842 1147 818 1148 842 1148 819 1148 819 1149 842 1149 850 1149 819 1150 851 1150 820 1150 821 1151 851 1151 852 1151 821 1152 852 1152 826 1152 826 1153 852 1153 853 1153 826 1154 853 1154 825 1154 825 1155 853 1155 856 1155 825 1156 856 1156 824 1156 824 1157 856 1157 855 1157 824 1158 855 1158 854 1158 862 1159 861 1159 635 1159 635 1160 861 1160 710 1160 635 262 710 262 709 262 858 1161 857 1161 828 1161 828 1162 857 1162 865 1162 828 1163 865 1163 829 1163 829 1164 865 1164 864 1164 829 1165 864 1165 830 1165 830 1166 864 1166 863 1166 830 1167 863 1167 868 1167 831 1168 863 1168 862 1168 831 1169 862 1169 832 1169 833 1170 862 1170 635 1170</p>
        </triangles>
      </mesh>
    </geometry>
  </library_geometries>
  <library_visual_scenes>
    <visual_scene id="Scene" name="Scene">
      <node id="Link2" name="Link2" type="NODE">
        <matrix sid="transform">1 0 0 0 0 1 0 0 0 0 1 0 0 0 0 1</matrix>
        <instance_geometry url="#Link2-mesh" name="Link2">
          <bind_material>
            <technique_common>
              <instance_material symbol="colour_abb_white_011-material" target="#colour_abb_white_011-material"/>
            </technique_common>
          </bind_material>
        </instance_geometry>
      </node>
    </visual_scene>
  </library_visual_scenes>
  <scene>
    <instance_visual_scene url="#Scene"/>
  </scene>
</COLLADA>