<?xml version="1.0" encoding="utf-8"?>
<COLLADA xmlns="http://www.collada.org/2005/11/COLLADASchema" version="1.4.1" xmlns:xsi="http://www.w3.org/2001/XMLSchema-instance">
  <asset>
    <contributor>
      <author>Blender User</author>
      <authoring_tool>Blender 2.82.7</authoring_tool>
    </contributor>
    <created>2024-02-04T10:45:30</created>
    <modified>2024-02-04T10:45:30</modified>
    <unit name="meter" meter="1"/>
    <up_axis>Z_UP</up_axis>
  </asset>
  <library_effects>
    <effect id="colour_abb_white_014-effect">
      <profile_COMMON>
        <technique sid="common">
          <lambert>
            <emission>
              <color sid="emission">0 0 0 1</color>
            </emission>
            <diffuse>
              <color sid="diffuse">0.7404 0.7404 0.7248001 1</color>
            </diffuse>
            <index_of_refraction>
              <float sid="ior">1</float>
            </index_of_refraction>
          </lambert>
        </technique>
      </profile_COMMON>
    </effect>
  </library_effects>
  <library_images/>
  <library_materials>
    <material id="colour_abb_white_014-material" name="colour_abb_white.014">
      <instance_effect url="#colour_abb_white_014-effect"/>
    </material>
  </library_materials>
  <library_geometries>
    <geometry id="Link5-mesh" name="Link5">
      <mesh>
        <source id="Link5-mesh-positions">
          <float_array id="Link5-mesh-positions-array" count="1872">-0.01874619 -0.02349799 -0.02715831 -0.01533585 -0.02349799 -0.02921992 -0.011702 -0.02349799 -0.03085547 -0.02921992 -0.02349799 -0.01533579 0.03085559 -0.02349799 0.01170206 -0.03085547 -0.02349799 -0.01170194 0.02921998 -0.02349799 0.01533585 -0.007897496 -0.02349799 -0.03204101 -0.003977715 -0.02349799 -0.03275936 0.01874625 -0.02349799 0.02715855 0.01533591 -0.02349799 0.02922004 0.02188313 -0.02349799 0.02470099 0.02470093 -0.02349799 0.02188318 0.02921998 -0.02349799 0.01533591 0.02715843 -0.02349799 0.01874613 0.01170206 -0.02349799 0.03085559 0.007897555 -0.02349799 0.03204113 0.003977775 -0.02349799 0.03275942 -0.02188307 -0.02349799 -0.02470076 -0.02470088 -0.02349799 -0.02188295 -0.02715837 -0.02349799 -0.01874601 -0.02715837 -0.02349799 -0.01874613 0.007897555 -0.02349799 -0.03204101 0.01170206 -0.02349799 -0.03085547 0.003977775 -0.02349799 -0.03275936 0 -0.02349799 -0.03299993 0.01533591 -0.02349799 -0.02921992 0.01874625 -0.02349799 -0.02715831 0.03085559 -0.02349799 -0.01170194 0.03204113 -0.02349799 -0.007897317 0.0327593 -0.02349799 -0.003977656 -0.007897496 -0.02349799 0.03204113 -0.011702 -0.02349799 0.03085559 -0.003977715 -0.02349799 0.03275942 0 -0.02349799 0.03300005 -0.01533585 -0.02349799 0.02922004 -0.01874619 -0.02349799 0.02715855 -0.03085547 -0.02349799 0.01170206 -0.03204101 -0.02349799 0.007897436 -0.03275924 -0.02349799 0.003977775 0.02921998 -0.02349799 -0.01533579 0.02715843 -0.02349799 -0.01874601 0.02715843 -0.02349799 -0.01874613 0.01874625 -0.02349799 -0.02715843 0.02470093 -0.02349799 -0.02188295 0.02188313 -0.02349799 -0.02470076 0.03204113 -0.02349799 0.007897436 0.0327593 -0.02349799 0.003977775 0.03300005 -0.02349799 0 -0.02921992 -0.02349799 0.01533591 -0.02715837 -0.02349799 0.01874613 -0.02715837 -0.02349799 0.01874625 -0.02470088 -0.02349799 0.02188318 -0.02188307 -0.02349799 0.02470099 -0.03204101 -0.02349799 -0.007897317 -0.03275924 -0.02349799 -0.003977656 -0.03299999 -0.02349799 0 0.0327593 -0.01449799 0.003977775 0.03300005 -0.01449799 0 0.0327593 -0.01449799 -0.003977656 0.03204113 -0.01449799 -0.007897317 0.03085559 -0.01449799 -0.01170194 0.02921998 -0.01449799 -0.01533579 0.02715843 -0.01449799 -0.01874601 0.02715843 -0.01449799 -0.01874613 0.02470093 -0.01449799 -0.02188295 0.02188313 -0.01449799 -0.02470076 0.01874625 -0.01449799 -0.02715843 0.01874625 -0.01449799 -0.02715831 0.01533591 -0.02349799 -0.02922004 0.01533591 -0.01449799 -0.02922004 0.01533591 -0.01449799 -0.02921992 0.01170206 -0.01449799 -0.03085547 0.007897555 -0.01449799 -0.03204101 0.003977775 -0.01449799 -0.03275936 0 -0.01449799 -0.03299993 -0.003977715 -0.01449799 -0.03275936 -0.007897496 -0.01449799 -0.03204101 -0.011702 -0.01449799 -0.03085547 -0.01533585 -0.02349799 -0.02922004 -0.01533585 -0.01449799 -0.02922004 -0.01533585 -0.01449799 -0.02921992 -0.01874619 -0.02349799 -0.02715843 -0.01874619 -0.01449799 -0.02715843 -0.01874619 -0.01449799 -0.02715831 -0.02188307 -0.01449799 -0.02470076 -0.02470088 -0.01449799 -0.02188295 -0.02715837 -0.01449799 -0.01874601 -0.02715837 -0.01449799 -0.01874613 -0.02921992 -0.01449799 -0.01533579 -0.03085547 -0.01449799 -0.01170194 -0.03204101 -0.01449799 -0.007897317 -0.03275924 -0.01449799 -0.003977656 -0.03299999 -0.01449799 0 -0.03275924 -0.01449799 0.003977775 -0.03204101 -0.01449799 0.007897436 -0.03085547 -0.01449799 0.01170206 -0.02921992 -0.02349799 0.01533585 -0.02921992 -0.01449799 0.01533585 -0.02921992 -0.01449799 0.01533591 -0.02715837 -0.01449799 0.01874613 -0.02715837 -0.01449799 0.01874625 -0.02470088 -0.01449799 0.02188318 -0.02188307 -0.01449799 0.02470099 -0.01874619 -0.01449799 0.02715855 -0.01533585 -0.01449799 0.02922004 -0.011702 -0.01449799 0.03085559 -0.007897496 -0.01449799 0.03204113 -0.003977715 -0.01449799 0.03275942 0 -0.01449799 0.03300005 0.003977775 -0.01449799 0.03275942 0.007897555 -0.01449799 0.03204113 0.01170206 -0.01449799 0.03085559 0.01533591 -0.01449799 0.02922004 0.01874625 -0.01449799 0.02715855 0.02188313 -0.01449799 0.02470099 0.02470093 -0.01449799 0.02188318 0.02715843 -0.02349799 0.01874625 0.02715843 -0.01449799 0.01874613 0.02715843 -0.01449799 0.01874625 0.02921998 -0.01449799 0.01533585 0.02921998 -0.01449799 0.01533591 0.03085559 -0.01449799 0.01170206 0.03204113 -0.01449799 0.007897436 -0.002273917 -0.01449799 -0.04193836 0.002273976 -0.01449799 -0.04193836 0.006794929 -0.01449799 -0.04144668 0.01123625 -0.01449799 -0.04046905 0.01554578 -0.01449799 -0.03901696 0.01967322 -0.01449799 -0.0371074 0.02356994 -0.01449799 -0.03476279 0.0271902 -0.01449799 -0.03201073 0.03049182 -0.01449799 -0.02888321 0.03049182 -0.01449799 -0.02888333 -0.03598791 -0.01449799 -0.02165323 -0.03343588 -0.01449799 -0.02541726 -0.03343588 -0.01449799 -0.02541738 -0.03049176 -0.01449799 -0.02888321 -0.03049176 -0.01449799 -0.02888333 -0.02719014 -0.01449799 -0.03201073 -0.02356982 -0.01449799 -0.03476279 -0.01967316 -0.01449799 -0.0371074 -0.01554572 -0.01449799 -0.03901696 -0.01123619 -0.01449799 -0.04046905 -0.006794869 -0.01449799 -0.04144668 -0.03598791 -0.01449799 0.02165335 -0.03811818 -0.01449799 0.01763534 -0.03980135 -0.01449799 0.01341074 -0.04101806 -0.01449799 0.009028851 -0.04175376 -0.01449799 0.004541099 -0.04199999 -0.01449799 0 -0.04175376 -0.01449799 -0.004540979 -0.04101806 -0.01449799 -0.009028613 -0.03980135 -0.01449799 -0.0134105 -0.03811818 -0.01449799 -0.01763534 -0.03598791 -0.01449799 -0.02165311 0.002273976 -0.01449799 0.041938 -0.002273917 -0.01449799 0.041938 -0.006794869 -0.01449799 0.0414471 -0.01123619 -0.01449799 0.04046911 -0.01554572 -0.01449799 0.03901714 -0.01967316 -0.01449799 0.03710752 -0.02356982 -0.01449799 0.03476303 -0.02356982 -0.01449799 0.03476291 -0.02719014 -0.01449799 0.03201085 -0.03049176 -0.01449799 0.02888345 -0.03343588 -0.01449799 0.02541732 0.03598803 -0.01449799 0.02165335 0.03343594 -0.01449799 0.02541732 0.03049182 -0.01449799 0.02888345 0.0271902 -0.01449799 0.03201085 0.02356994 -0.01449799 0.03476303 0.02356994 -0.01449799 0.03476291 0.01967322 -0.01449799 0.03710752 0.01554578 -0.01449799 0.03901714 0.01123625 -0.01449799 0.04046911 0.006794929 -0.01449799 0.0414471 0.03343594 -0.01449799 -0.02541738 0.03598803 -0.01449799 -0.02165311 0.03598803 -0.01449799 -0.02165323 0.03811824 -0.01449799 -0.01763534 0.03980141 -0.01449799 -0.0134105 0.04101818 -0.01449799 -0.009028613 0.04175382 -0.01449799 -0.004540979 0.04200005 -0.01449799 0 0.04175382 -0.01449799 0.004541099 0.04101818 -0.01449799 0.009028851 0.03980141 -0.01449799 0.01341074 0.03811824 -0.01449799 0.01763534 0.04014116 -0.001882612 0.01235717 0.04017436 -0.002434253 0.01224803 -0.04011183 -0.001103103 0.01245105 0.04014116 0.001886606 -0.01235705 0.04017436 0.002438247 -0.01224792 -0.04011183 0.001107096 -0.01245105 0.04189509 -0.01214075 -0.00296688 -0.04175043 -0.01163065 -0.004540503 0.04192584 -0.01224589 -0.00243622 -0.04180544 -0.01182806 -0.004037141 -0.04187256 -0.0120629 -0.003269195 -0.04192686 -0.01224958 -0.002436757 0.04195761 -0.01235461 -0.001887798 -0.04194247 -0.01230341 -0.002196967 0.04199242 -0.01247245 -7.98166e-4 0.04181861 -0.01187437 -0.003898859 0.04175096 -0.0116319 -0.004540681 -0.04172438 -0.01153689 -0.004779756 0.04172545 -0.01154094 -0.004781305 0.04171007 -0.01148593 -0.004927158 0.04158073 -0.0110073 -0.005919754 0.04143375 -0.01043796 -0.006874263 -0.04169166 -0.01141929 -0.005079746 0.04142159 -0.01038932 -0.006943106 -0.04113501 -0.009182095 -0.008479416 -0.04130351 -0.009908974 -0.007617115 -0.04140859 -0.01033836 -0.007023274 -0.04142129 -0.01038807 -0.00694257 -0.04155826 -0.01092213 -0.006075561 0.04101681 -0.008631169 -0.009028434 0.0409817 -0.008468449 -0.009192347 -0.04105937 -0.008828103 -0.00883001 0.0413174 -0.009966909 -0.007541239 0.04115164 -0.009255468 -0.008399248 0.04105937 -0.008827984 -0.00883001 0.04081225 -0.007606089 -0.009917974 0.04070675 -0.007018089 -0.01034247 -0.04101645 -0.008627831 -0.009028315 -0.04096508 -0.008387744 -0.009266078 0.04069423 -0.006940662 -0.01039016 -0.04039788 -0.004921078 -0.01148962 -0.0405308 -0.005913317 -0.01101166 -0.040681 -0.006867766 -0.01044291 -0.04069387 -0.006941139 -0.01039111 -0.04079777 -0.007528364 -0.009977042 0.04017323 -0.00243473 -0.01225155 -0.0401743 -0.002434253 -0.01224792 0.04022938 -0.003262817 -0.01206606 -0.04020595 -0.002959668 -0.01214402 0.04029905 -0.004030406 -0.01183164 0.04038345 -0.004777789 -0.01153892 0.04055392 -0.006069719 -0.01092618 0.04041671 -0.005073308 -0.01142317 -0.04038232 -0.004779458 -0.01154303 -0.04028546 -0.003893315 -0.01187741 -0.04028546 -0.003893315 -0.01187759 0.04015672 -0.002191722 -0.01230597 0.04011189 -0.001103103 -0.01245105 0.04011189 -0.001103103 -0.01245093 -0.0401411 -0.001882612 -0.01235705 -0.04010462 -7.9505e-4 -0.01247441 -0.04011183 0.001107096 -0.01245093 -0.04015666 0.002195715 -0.01230597 -0.04009664 2e-6 -0.01249992 0.0400967 2e-6 -0.01249992 0.04010468 7.9905e-4 -0.01247441 -0.04038339 0.004781782 -0.01153892 -0.04029899 0.004034399 -0.01183164 0.04020601 0.002963662 -0.01214402 -0.04022932 0.003266811 -0.01206606 -0.04017317 0.002438724 -0.01225155 0.04028558 0.003897309 -0.01187759 0.04038244 0.004783511 -0.01154303 -0.04041665 0.005077302 -0.01142317 0.04039794 0.004925072 -0.01148962 0.04053086 0.00591731 -0.01101166 -0.04069417 0.006944656 -0.01039016 -0.04055386 0.006073713 -0.01092618 -0.04101675 0.008635163 -0.009028434 -0.04098165 0.008472442 -0.009192347 0.04105943 0.008832097 -0.00883001 0.04068106 0.006871759 -0.01044291 0.04069393 0.006945133 -0.01039111 -0.04070669 0.007022142 -0.01034247 0.04079782 0.007532417 -0.009977042 0.04096513 0.008391737 -0.009266078 -0.04081213 0.007610082 -0.009917974 0.04101651 0.008631825 -0.009028315 0.04113513 0.009186089 -0.008479416 -0.04115158 0.009259462 -0.008399248 -0.04105931 0.008832037 -0.00883001 0.04130357 0.009912967 -0.007617115 -0.04142153 0.01039332 -0.006943106 -0.04131734 0.009970903 -0.007541239 0.04172444 0.01154088 -0.004779756 -0.04172539 0.01154494 -0.004781305 -0.04170995 0.01148992 -0.004927158 -0.04158067 0.0110113 -0.005919754 -0.04143369 0.01044195 -0.006874263 0.04169172 0.01142328 -0.005079746 0.04140865 0.01034235 -0.007023274 0.04142135 0.01039206 -0.00694257 0.04155832 0.01092612 -0.006075561 -0.0417509 0.01163589 -0.004540681 0.04175055 0.01163464 -0.004540503 -0.04181855 0.01187837 -0.003898859 0.0418055 0.01183205 -0.004037141 -0.04192572 0.01224988 -0.00243622 -0.04189503 0.0121448 -0.00296688 0.04187268 0.0120669 -0.003269195 0.04192692 0.01225358 -0.002436757 -0.04195755 0.0123586 -0.001887798 0.04194253 0.0123074 -0.002196967 -0.04199236 0.01247644 -7.98166e-4 0.04198545 0.0124529 -0.001106798 0.04200005 0.01250195 0 -0.04199999 0.01250195 0 0.04199242 0.01247644 7.98285e-4 0.04189509 0.0121448 0.002967 -0.04175043 0.01163464 0.004540622 0.04192584 0.01224988 0.002436339 -0.04180544 0.01183205 0.004037141 -0.04187256 0.0120669 0.003269135 -0.04192686 0.01225358 0.002436876 0.04195761 0.0123586 0.001887857 -0.04194247 0.0123074 0.002197086 -0.04198539 0.0124529 0.001106858 -0.04198539 0.0124529 0.001106917 0.04181861 0.01187837 0.003898978 -0.04175043 0.01163464 0.004540741 0.04175096 0.01163589 0.004540741 0.04175096 0.01163589 0.004540622 -0.04172438 0.01154088 0.004779815 0.04172545 0.01154494 0.004781544 0.04171007 0.01148992 0.004927217 0.04158073 0.0110113 0.005919873 0.04143375 0.01044195 0.006874382 -0.04169166 0.01142328 0.005079746 0.04142159 0.01039332 0.006943225 -0.04113501 0.009186089 0.008479535 -0.04130351 0.009912967 0.007617235 -0.04140859 0.01034235 0.007023394 -0.04142129 0.01039206 0.006942689 -0.04155826 0.01092612 0.00607568 0.04101681 0.008635163 0.009028553 0.0409817 0.008472442 0.009192466 -0.04105937 0.008832097 0.00883013 0.0413174 0.009970903 0.007541358 0.04115164 0.009259462 0.008399486 0.04105937 0.008832037 0.00883013 0.04081225 0.007610082 0.009918093 0.04070675 0.007022142 0.01034259 -0.04101645 0.008631825 0.009028434 -0.04096508 0.008391737 0.009266257 0.04069423 0.006944656 0.01039028 -0.04039788 0.004925072 0.01148974 -0.0405308 0.00591731 0.01101183 -0.040681 0.006871759 0.01044291 -0.04069387 0.006945133 0.01039135 -0.04079777 0.007532417 0.009977161 0.04017323 0.002438724 0.01225155 -0.0401743 0.002438247 0.01224803 0.04022938 0.003266811 0.01206618 -0.04020595 0.002963662 0.01214414 0.04029905 0.004034399 0.01183176 0.04038345 0.004781782 0.01153904 0.04055392 0.006073713 0.0109263 0.04041671 0.005077302 0.01142334 -0.04038232 0.004783511 0.01154315 -0.04038232 0.004783511 0.01154327 -0.04028546 0.003897309 0.01187753 0.04015672 0.002195715 0.01230609 0.04011189 0.001107096 0.01245105 -0.0401411 0.001886606 0.01235717 -0.04010462 7.9905e-4 0.01247465 -0.04015666 -0.002191722 0.01230609 -0.04009664 2e-6 0.01250004 0.0400967 2e-6 0.01250004 0.04010468 -7.9505e-4 0.01247465 -0.04038339 -0.004777789 0.01153904 -0.04029899 -0.004030406 0.01183176 0.04020601 -0.002959668 0.01214414 -0.04022932 -0.003262817 0.01206618 -0.04017317 -0.00243473 0.01225155 0.04028558 -0.003893315 0.01187753 0.04038244 -0.004779458 0.01154315 0.04038244 -0.004779458 0.01154327 -0.04041665 -0.005073308 0.01142334 0.04039794 -0.004921078 0.01148974 0.04053086 -0.005913317 0.01101183 -0.04069417 -0.006940662 0.01039028 -0.04055386 -0.006069719 0.0109263 -0.04101675 -0.008631169 0.009028553 -0.04098165 -0.008468449 0.009192466 0.04105943 -0.008828103 0.00883013 0.04068106 -0.006867766 0.01044291 0.04069393 -0.006941139 0.01039135 -0.04070669 -0.007018089 0.01034259 0.04079782 -0.007528364 0.009977161 0.04096513 -0.008387744 0.009266257 -0.04081213 -0.007606089 0.009918093 0.04101651 -0.008627831 0.009028434 0.04113513 -0.009182095 0.008479535 -0.04115158 -0.009255468 0.008399486 -0.04105931 -0.008827984 0.00883013 0.04130357 -0.009908974 0.007617235 -0.04142153 -0.01038932 0.006943225 -0.04131734 -0.009966909 0.007541358 0.04172444 -0.01153689 0.004779815 -0.04172539 -0.01154094 0.004781544 -0.04170995 -0.01148593 0.004927217 -0.04158067 -0.0110073 0.005919873 -0.04143369 -0.01043796 0.006874382 0.04169172 -0.01141929 0.005079746 0.04140865 -0.01033836 0.007023394 0.04142135 -0.01038807 0.006942689 0.04155832 -0.01092213 0.00607568 -0.0417509 -0.0116319 0.004540741 -0.0417509 -0.0116319 0.004540622 0.04175055 -0.01163065 0.004540741 0.04175055 -0.01163065 0.004540622 -0.04181855 -0.01187437 0.003898859 0.0418055 -0.01182806 0.004037141 -0.04192572 -0.01224589 0.002436339 -0.04189503 -0.01214075 0.002967 -0.04198539 -0.01244884 -0.001106798 -0.04199999 -0.01249796 0 0.04200005 -0.01249796 0 -0.04199236 -0.01247245 7.98285e-4 0.04187268 -0.0120629 0.003269135 0.04192692 -0.01224958 0.002436876 -0.04195755 -0.01235461 0.001887857 0.04194253 -0.01230341 0.002197086 0.04198545 -0.01244884 0.001106858 0.04198545 -0.01244884 0.001106917 -0.04181855 -0.01187437 0.003898978 -0.03980135 0.01450198 0.01341074 -0.040681 0.006871759 0.01044303 -0.04101806 0.01450198 0.009028851 -0.04175376 0.01450198 0.004541099 -0.04199999 0.01450198 0 -0.04175376 0.01450198 -0.004540979 -0.04101806 0.01450198 -0.009028613 -0.03980135 0.01450198 -0.0134105 -0.04096508 -0.008387744 -0.009266138 -0.04187256 -0.0120629 -0.003269076 0.04175382 0.01450198 0.004541099 0.04181861 0.01187837 0.003898859 0.04200005 0.01450198 0 0.04101818 0.01450198 0.009028851 0.03980141 0.01450198 0.01341074 0.04068106 -0.006867766 0.01044303 0.03980141 0.01450198 -0.0134105 0.04028558 0.003897309 -0.01187741 0.04101818 0.01450198 -0.009028613 0.04175382 0.01450198 -0.004540979 0.04096513 0.008391737 -0.009266138 0.04187268 0.0120669 -0.003269076 0.03811824 0.01450198 -0.01763534 0.03598803 0.01450198 -0.02165311 0.03598803 0.01450198 -0.02165323 0.03343594 -0.01449799 -0.02541726 0.03343594 0.01450198 -0.02541726 0.03343594 0.01450198 -0.02541738 0.03049182 0.01450198 -0.02888321 0.03049182 0.01450198 -0.02888333 0.0271902 0.01450198 -0.03201073 0.02356994 0.01450198 -0.03476279 0.01967322 0.01450198 -0.0371074 0.01554578 0.01450198 -0.03901696 0.01123625 0.01450198 -0.04046905 0.006794929 0.01450198 -0.04144668 0.002273976 0.01450198 -0.04193836 -0.002273917 0.01450198 -0.04193836 -0.006794869 0.01450198 -0.04144668 -0.01123619 0.01450198 -0.04046905 -0.01554572 0.01450198 -0.03901696 -0.01967316 0.01450198 -0.0371074 -0.02356982 0.01450198 -0.03476279 -0.02719014 0.01450198 -0.03201073 -0.03049176 0.01450198 -0.02888321 -0.03049176 0.01450198 -0.02888333 -0.03343588 0.01450198 -0.02541726 -0.03343588 0.01450198 -0.02541738 -0.03598791 0.01450198 -0.02165311 -0.03598791 0.01450198 -0.02165323 -0.03811818 0.01450198 -0.01763534 -0.03811818 0.01450198 0.01763534 -0.03598791 0.01450198 0.02165335 -0.03343588 0.01450198 0.02541732 -0.03049176 0.01450198 0.02888345 -0.02719014 0.01450198 0.03201085 -0.02356982 0.01450198 0.03476303 -0.02356982 0.01450198 0.03476291 -0.01967316 0.01450198 0.03710752 -0.01554572 0.01450198 0.03901714 -0.01123619 0.01450198 0.04046911 -0.006794869 0.01450198 0.0414471 -0.002273917 0.01450198 0.041938 0.002273976 0.01450198 0.041938 0.006794929 0.01450198 0.0414471 0.01123625 0.01450198 0.04046911 0.01554578 0.01450198 0.03901714 0.01967322 0.01450198 0.03710752 0.02356994 0.01450198 0.03476303 0.02356994 0.01450198 0.03476291 0.0271902 0.01450198 0.03201085 0.03049182 0.01450198 0.02888345 0.03343594 0.01450198 0.02541732 0.03598803 0.01450198 0.02165335 0.03811824 0.01450198 0.01763534 -0.003977715 0.01450198 0.03275942 0 0.01450198 0.03300005 0.003977775 0.01450198 0.03275942 0.007897555 0.01450198 0.03204113 0.01170206 0.01450198 0.03085559 0.01533591 0.01450198 0.02922004 0.01874625 0.01450198 0.02715855 0.02188313 0.01450198 0.02470099 0.02470093 0.01450198 0.02188318 0.02715843 0.01450198 0.01874613 -0.02921992 0.01450198 0.01533591 -0.02715837 0.01450198 0.01874613 -0.02715837 0.01450198 0.01874625 -0.02470088 0.01450198 0.02188318 -0.02188307 0.01450198 0.02470099 -0.01874619 0.01450198 0.02715855 -0.01533585 0.01450198 0.02922004 -0.011702 0.01450198 0.03085559 -0.007897496 0.01450198 0.03204113 -0.02715837 0.01450198 -0.01874613 -0.02921992 0.01450198 -0.01533579 -0.03085547 0.01450198 -0.01170194 -0.03204101 0.01450198 -0.007897317 -0.03275924 0.01450198 -0.003977656 -0.03299999 0.01450198 0 -0.03275924 0.01450198 0.003977775 -0.03204101 0.01450198 0.007897436 -0.03085547 0.01450198 0.01170206 -0.02921992 0.01450198 0.01533585 0.003977775 0.01450198 -0.03275936 0 0.01450198 -0.03299993 -0.003977715 0.01450198 -0.03275936 -0.007897496 0.01450198 -0.03204101 -0.011702 0.01450198 -0.03085547 -0.01533585 0.01450198 -0.02922004 -0.01533585 0.01450198 -0.02921992 -0.01874619 0.01450198 -0.02715843 -0.01874619 0.01450198 -0.02715831 -0.02188307 0.01450198 -0.02470076 -0.02470088 0.01450198 -0.02188295 -0.02715837 0.01450198 -0.01874601 0.02715843 0.01450198 0.01874625 0.02921998 0.01450198 0.01533585 0.02921998 0.01450198 0.01533591 0.03085559 0.01450198 0.01170206 0.03204113 0.01450198 0.007897436 0.0327593 0.01450198 0.003977775 0.03300005 0.01450198 0 0.0327593 0.01450198 -0.003977656 0.03204113 0.01450198 -0.007897317 0.03085559 0.01450198 -0.01170194 0.02921998 0.01450198 -0.01533579 0.02715843 0.01450198 -0.01874601 0.02715843 0.01450198 -0.01874613 0.02470093 0.01450198 -0.02188295 0.02188313 0.01450198 -0.02470076 0.01874625 0.01450198 -0.02715843 0.01874625 0.01450198 -0.02715831 0.01533591 0.01450198 -0.02922004 0.01533591 0.01450198 -0.02921992 0.01170206 0.01450198 -0.03085547 0.007897555 0.01450198 -0.03204101 0.0327593 0.02350199 0.003977775 0.03300005 0.02350199 0 0.0327593 0.02350199 -0.003977656 0.03204113 0.02350199 -0.007897317 0.03085559 0.02350199 -0.01170194 0.02921998 0.02350199 -0.01533579 0.02715843 0.02350199 -0.01874601 0.02715843 0.02350199 -0.01874613 0.02470093 0.02350199 -0.02188295 0.02188313 0.02350199 -0.02470076 0.01874625 0.02350199 -0.02715843 0.01874625 0.02350199 -0.02715831 0.01533591 0.02350199 -0.02922004 0.01533591 0.02350199 -0.02921992 0.01170206 0.02350199 -0.03085547 0.007897555 0.02350199 -0.03204101 0.003977775 0.02350199 -0.03275936 0 0.02350199 -0.03299993 -0.003977715 0.02350199 -0.03275936 -0.007897496 0.02350199 -0.03204101 -0.011702 0.02350199 -0.03085547 -0.01533585 0.02350199 -0.02922004 -0.01533585 0.02350199 -0.02921992 -0.01874619 0.02350199 -0.02715843 -0.01874619 0.02350199 -0.02715831 -0.02188307 0.02350199 -0.02470076 -0.02470088 0.02350199 -0.02188295 -0.02715837 0.02350199 -0.01874601 -0.02715837 0.02350199 -0.01874613 -0.02921992 0.02350199 -0.01533579 -0.03085547 0.02350199 -0.01170194 -0.03204101 0.02350199 -0.007897317 -0.03275924 0.02350199 -0.003977656 -0.03299999 0.02350199 0 -0.03275924 0.02350199 0.003977775 -0.03204101 0.02350199 0.007897436 -0.03085547 0.02350199 0.01170206 -0.02921992 0.02350199 0.01533585 -0.02921992 0.02350199 0.01533591 -0.02715837 0.02350199 0.01874613 -0.02715837 0.02350199 0.01874625 -0.02470088 0.02350199 0.02188318 -0.02188307 0.02350199 0.02470099 -0.01874619 0.02350199 0.02715855 -0.01533585 0.02350199 0.02922004 -0.011702 0.02350199 0.03085559 -0.007897496 0.02350199 0.03204113 -0.003977715 0.02350199 0.03275942 0 0.02350199 0.03300005 0.003977775 0.02350199 0.03275942 0.007897555 0.02350199 0.03204113 0.01170206 0.02350199 0.03085559 0.01533591 0.02350199 0.02922004 0.01874625 0.02350199 0.02715855 0.02188313 0.02350199 0.02470099 0.02470093 0.02350199 0.02188318 0.02715843 0.02350199 0.01874613 0.02715843 0.02350199 0.01874625 0.02921998 0.02350199 0.01533585 0.02921998 0.02350199 0.01533591 0.03085559 0.02350199 0.01170206 0.03204113 0.02350199 0.007897436</float_array>
          <technique_common>
            <accessor source="#Link5-mesh-positions-array" count="624" stride="3">
              <param name="X" type="float"/>
              <param name="Y" type="float"/>
              <param name="Z" type="float"/>
            </accessor>
          </technique_common>
        </source>
        <source id="Link5-mesh-normals">
          <float_array id="Link5-mesh-normals-array" count="2679">0 -1 -7.60372e-6 0 -1 0 0 -1 0 0 -1 2.0557e-7 0 -1 -4.38087e-7 0 -1 4.88457e-7 0 -1 4.51643e-7 0 -1 -3.80254e-6 0 -1 -1.03825e-6 0 -1 -2.05571e-7 0 -1 4.38092e-7 0 -1 4.72207e-7 0 -1 -9.06619e-7 0 -1 -1.99164e-7 0 -1 6.28466e-7 0 -1 -5.80164e-7 0 -1 0 0 -1 1.99163e-7 0 -1 -6.83229e-7 0 -1 -5.80167e-7 0 -1 8.62999e-7 0 -1 -2.06736e-6 0 -1 -3.80043e-6 0 -1 2.54221e-7 0 -1 2.06733e-6 0.9981735 0 0.0604124 0.9981735 0 -0.0604124 0.9981735 0 -0.0604124 0.9836257 0 -0.1802239 0.9836257 0 -0.1802239 0.9547232 0 -0.2974956 0.9118863 0 -0.4104431 0.9118863 0 -0.4104431 0.8557817 0 -0.5173372 0.8557819 6.50665e-6 -0.5173369 0.7871881 0 -0.616713 0.7871881 0 -0.6167132 0.707107 0 -0.7071066 0.7071069 0 -0.7071067 0.6167333 0 -0.7871722 0.6167339 -1.02902e-5 -0.7871717 0.5173563 0 -0.8557701 0.5173562 -1.14563e-5 -0.8557702 0.4104305 0 -0.9118919 0.4104307 0 -0.9118919 0.2975038 0 -0.9547207 0.2975038 0 -0.9547207 0.1802616 0 -0.9836188 0.1802633 0 -0.9836185 0.06036645 0 -0.9981763 0.06036806 0 -0.9981763 -0.06036716 0 -0.9981763 -0.06036555 0 -0.9981763 -0.1802632 0 -0.9836184 -0.1802617 0 -0.9836187 -0.2975038 0 -0.9547207 -0.2975038 0 -0.9547207 -0.4104062 0 -0.9119029 -0.4104064 -1.20762e-5 -0.9119028 -0.5173135 0 -0.855796 -0.5173134 -1.14167e-5 -0.855796 -0.6167157 0 -0.787186 -0.6167148 0 -0.7871868 -0.707107 0 -0.7071066 -0.7071069 0 -0.7071067 -0.7871996 0 -0.6166985 -0.7871991 8.09992e-6 -0.616699 -0.8557898 0 -0.5173239 -0.8557897 0 -0.517324 -0.9118918 0 -0.4104307 -0.9118919 0 -0.4104307 -0.9547232 0 -0.2974956 -0.983623 0 -0.1802384 -0.983623 0 -0.1802383 -0.9981735 0 -0.0604124 -0.9981735 0 -0.0604124 -0.9981735 0 0.0604124 -0.9981735 0 0.0604124 -0.983623 0 0.1802384 -0.983623 0 0.1802384 -0.9547232 0 0.2974956 -0.9118894 0 0.4104363 -0.9118893 2.69028e-6 0.4104363 -0.8557817 0 0.5173372 -0.8557817 6.9128e-6 0.5173373 -0.7871996 0 0.6166985 -0.7871995 0 0.6166986 -0.7071066 0 0.707107 -0.7071069 0 0.7071067 -0.6167152 0 0.7871865 -0.6167148 0 0.7871868 -0.5173135 0 0.855796 -0.5173122 0 0.8557968 -0.4104305 0 0.9118919 -0.4104307 0 0.9118919 -0.2975053 0 0.9547203 -0.2975038 0 0.9547207 -0.1802474 0 0.9836214 -0.1802476 0 0.9836214 -0.06038171 0 0.9981755 0.0603826 0 0.9981754 0.0603826 0 0.9981754 0.1802474 0 0.9836214 0.1802476 0 0.9836214 0.2975038 0 0.9547207 0.2975052 0 0.9547202 0.4104305 0 0.9118919 0.4104307 0 0.9118919 0.5173123 0 0.8557967 0.5173134 0 0.855796 0.6167147 0 0.7871869 0.6167153 0 0.7871863 0.707107 0 0.7071066 0.7071065 0 0.7071071 0.787211 0 0.6166839 0.7872108 8.10012e-6 0.616684 0.8557938 0 0.5173171 0.8557938 3.39604e-6 0.5173171 0.9118863 0 0.410443 0.9118863 0 0.4104431 0.9547232 0 0.2974956 0.9836257 0 0.180224 0.9836257 0 0.1802239 0.9981735 0 0.0604124 0 -1 0 0 -1 0 0 -1 1.78169e-7 0 -1 -2.53763e-7 0 -1 0 0 -1 -1.76501e-7 0 -1 2.05715e-7 0 -1 -1.78974e-7 0 -1 3.57718e-7 0 -1 -1.78308e-7 0 -1 -1.77879e-7 0 -1 1.7735e-7 0 -1 3.53468e-7 0 -1 3.57966e-7 0 -1 -4.03146e-7 0 -1 1.78713e-7 0 -1 -2.67632e-7 0 -1 3.33805e-7 0 -1 -3.32879e-7 0 -1 2.6543e-7 0 -1 -1.76264e-7 0 -1 3.50951e-7 0 -1 -3.57982e-7 0 -1 0 0 -1 0 0 -1 -1.78168e-7 0 -1 2.53763e-7 0 -1 -1.77718e-7 0 -1 2.03761e-7 0 -1 1.77162e-7 0 -1 1.76504e-7 0 -1 -2.05713e-7 0 -1 -1.75752e-7 0 -1 1.78976e-7 0 -1 -1.78975e-7 0 -1 -3.57703e-7 0 -1 -4.05601e-7 0 -1 3.55753e-7 0 -1 -1.77348e-7 0 -1 -3.53473e-7 0 -1 3.51506e-7 0 -1 1.78964e-7 0 -1 -4.03044e-7 0 -1 -3.57974e-7 0 -1 4.03143e-7 0 -1 0 0 -1 3.56853e-7 0 -1 -3.33805e-7 0 -1 3.32879e-7 0 -1 0 0 -1 -3.50971e-7 0 -1 3.57967e-7 7.37747e-4 0.1941082 -0.9809799 7.36295e-4 -0.194108 0.9809799 0.002328395 0.9809555 0.1942189 -0.002330839 0.93104 0.3649097 -8.17683e-4 0.9563094 0.2923554 -4.43377e-5 0.9757627 0.2188315 -4.44086e-5 0.9809243 0.1943907 -2.1106e-4 0.9757551 0.218865 2.10433e-4 0.994201 0.1075386 6.94417e-4 0.9615082 0.2747755 1.48832e-5 0.9354764 0.3533894 1.4843e-5 0.9310466 0.3649004 5.21887e-5 0.9353996 0.3535923 5.21867e-5 0.935558 0.3531735 2.16741e-4 0.9007779 0.43428 0.001547634 0.8589252 0.5120988 -0.003118038 0.9311099 0.3647257 -8.10076e-4 0.7646792 0.6444108 -6.85714e-5 0.8103476 0.5859497 1.6449e-5 0.8515409 0.5242882 1.62632e-5 0.8166708 0.5771037 8.05885e-5 0.8514219 0.5244814 -9.21953e-4 0.8947475 0.4465715 -3.11733e-7 0.7097817 0.7044218 0.001213014 0.8169218 0.5767472 6.438e-5 0.7698016 0.6382833 -6.49099e-5 0.7037007 0.7104966 -9.03403e-7 0.709834 0.7043691 -8.91543e-7 0.7098975 0.704305 5.56612e-4 0.6438824 0.7651243 0.002030432 0.5856147 0.8105871 -0.002439856 0.7038244 0.71037 -0.002444326 0.7039465 0.7102488 -0.001402139 0.4341294 0.9008495 -9.83681e-5 0.5119193 0.8590336 -1.28805e-5 0.5768365 0.8168597 -1.29755e-5 0.524187 0.8516033 5.67598e-5 0.5762344 0.8172846 -5.36885e-4 0.6375109 0.7704412 4.55142e-5 0.218593 0.9758161 -2.1971e-4 0.1939964 0.9810022 1.7391e-4 0.2921026 0.9563871 0.001238942 0.3647955 0.931087 0.001513183 0.5243331 0.8515119 1.04857e-4 0.4463417 0.8948626 -1.04683e-4 0.3529024 0.9356601 -5.50657e-5 0.3647032 0.9311238 -5.50469e-5 0.3530436 0.9356069 -0.001027464 0.2744884 0.9615899 4.55216e-5 0.2185223 0.975832 3.17521e-4 0.1321133 0.9912347 -7.37747e-4 0.1941081 0.9809799 1.20985e-4 0.1072853 0.9942283 -3.17861e-4 -0.1320066 0.9912488 -1.69724e-4 0.03199177 0.9994881 0 0.04428976 0.9990188 0 -0.04418224 0.9990235 1.69724e-4 -0.03199183 0.9994882 -1.20964e-4 -0.1072854 0.9942283 -0.001238882 -0.3647949 0.9310871 -1.7391e-4 -0.2921028 0.9563869 2.19731e-4 -0.1939965 0.9810022 -4.55142e-5 -0.2185928 0.9758163 -4.54989e-5 -0.2185224 0.9758319 0.001027464 -0.2744885 0.9615899 5.50432e-5 -0.3532088 0.9355446 5.5048e-5 -0.3647036 0.9311237 1.04702e-4 -0.3529035 0.9356598 0.001402139 -0.4341298 0.9008494 -0.001513183 -0.5243328 0.8515122 -1.04857e-4 -0.4463414 0.8948627 3.11729e-7 -0.7097724 0.7044311 9.83543e-5 -0.5119193 0.8590336 1.28804e-5 -0.5768356 0.8168603 1.29757e-5 -0.524194 0.8515989 -5.67597e-5 -0.5762335 0.8172852 5.36906e-4 -0.6375113 0.7704409 -5.56593e-4 -0.6438831 0.7651237 -0.002030432 -0.5856143 0.8105872 0.002440035 -0.7038269 0.7103675 0.002444148 -0.7039422 0.7102531 6.49097e-5 -0.7036996 0.7104977 8.94277e-7 -0.7098332 0.7043699 8.91546e-7 -0.7098999 0.7043026 8.10085e-4 -0.7646783 0.6444117 -0.001213073 -0.8169233 0.576745 -6.438e-5 -0.769802 0.6382827 -5.21867e-5 -0.9355574 0.3531746 -2.16755e-4 -0.9007738 0.4342885 -0.001547396 -0.8589296 0.5120913 0.003117918 -0.9311084 0.3647294 6.85613e-5 -0.8103503 0.5859459 -1.64415e-5 -0.8515268 0.5243111 -1.62469e-5 -0.8166708 0.5771037 -8.05885e-5 -0.8514216 0.524482 9.21974e-4 -0.8947486 0.4465694 -5.21887e-5 -0.9353996 0.3535925 -1.48297e-5 -0.9310472 0.3648989 -1.48752e-5 -0.9354758 0.3533909 0.002330839 -0.9310432 0.3649019 -0.002328455 -0.9809558 0.1942173 -6.94429e-4 -0.9615078 0.2747771 8.17712e-4 -0.9563085 0.2923584 4.43378e-5 -0.9757632 0.2188296 4.44088e-5 -0.9809271 0.1943764 2.11193e-4 -0.975754 0.21887 -2.10277e-4 -0.9941998 0.1075485 2.07658e-4 -0.9912143 0.1322656 -1.1776e-4 -0.9990175 0.04431986 0 -0.9994898 0.03194057 0 -0.9994899 -0.03193885 0.002328455 -0.9809555 -0.1942189 -0.002328693 -0.9310727 -0.3648266 -8.1687e-4 -0.9563148 -0.2923379 -4.43373e-5 -0.9757533 -0.2188736 -4.44083e-5 -0.9809311 -0.194356 -2.11349e-4 -0.975754 -0.21887 2.10179e-4 -0.9941992 -0.1075544 -2.07538e-4 -0.9912152 -0.132259 1.1776e-4 -0.9990175 -0.04431986 6.94032e-4 -0.9615075 -0.2747783 1.46184e-5 -0.9354646 -0.3534205 1.40486e-5 -0.9310158 -0.3649792 5.29442e-5 -0.9355439 -0.3532106 5.29426e-5 -0.9354149 -0.3535524 2.1671e-4 -0.9007842 -0.4342671 0.001547813 -0.8589298 -0.5120913 -0.003115713 -0.9310837 -0.3647924 -8.10094e-4 -0.7646782 -0.6444118 -6.85594e-5 -0.8103502 -0.5859459 1.64415e-5 -0.8515268 -0.5243111 1.62469e-5 -0.8166708 -0.5771037 8.05885e-5 -0.8514216 -0.524482 -9.22511e-4 -0.89477 -0.4465265 -3.11729e-7 -0.7097724 -0.7044311 0.001213073 -0.8169236 -0.5767446 6.53962e-5 -0.7698455 -0.6382303 -6.38785e-5 -0.7037006 -0.7104967 -8.94402e-7 -0.7097357 -0.7044681 -9.01452e-7 -0.7098999 -0.7043026 5.56613e-4 -0.643883 -0.7651238 0.002030491 -0.5856149 -0.8105869 -0.002440035 -0.7038269 -0.7103675 -0.002447485 -0.7040316 -0.7101645 -0.00140351 -0.4340857 -0.9008705 -9.69545e-5 -0.5120379 -0.858963 -1.40531e-5 -0.5750601 -0.8181113 -1.42348e-5 -0.5241939 -0.851599 5.57128e-5 -0.5763444 -0.817207 -5.36583e-4 -0.6374795 -0.7704672 4.40482e-5 -0.218459 -0.9758462 -2.1971e-4 -0.1939966 -0.9810022 1.7391e-4 -0.2921028 -0.9563869 0.001238882 -0.3647949 -0.9310872 0.001513183 -0.5243328 -0.8515121 1.05623e-4 -0.4463844 -0.8948414 -1.04014e-4 -0.352904 -0.9356596 -5.64356e-5 -0.3645407 -0.9311875 -5.64047e-5 -0.3529335 -0.9356485 -0.001023232 -0.2746583 -0.9615414 4.40398e-5 -0.218978 -0.9757298 3.17814e-4 -0.1320066 -0.9912488 -7.37787e-4 -0.1941081 -0.9809799 1.19937e-4 -0.1073932 -0.9942167 -3.1785e-4 0.1320066 -0.9912488 -1.71801e-4 -0.03184247 -0.999493 0 -0.04428976 -0.9990188 0 0.04428982 -0.9990188 1.71801e-4 0.03184247 -0.9994929 -1.19947e-4 0.1073932 -0.9942167 -0.001238882 0.3647955 -0.931087 -1.7391e-4 0.2921026 -0.9563871 2.19689e-4 0.1939964 -0.9810022 -4.40482e-5 0.2184591 -0.9758462 -4.40397e-5 0.2189779 -0.9757299 0.001023292 0.2746584 -0.9615414 5.50468e-5 0.3530434 -0.9356069 5.64178e-5 0.3645406 -0.9311876 1.02517e-4 0.3535908 -0.9354002 0.00140357 0.4340855 -0.9008707 -0.001513183 0.524333 -0.851512 -1.05623e-4 0.4463847 -0.8948412 3.35713e-7 0.7097817 -0.7044218 9.69671e-5 0.5120379 -0.858963 1.40843e-5 0.5750609 -0.8181106 1.42346e-5 0.5241869 -0.8516033 -5.57129e-5 0.5763452 -0.8172063 5.36563e-4 0.6374792 -0.7704675 -5.56613e-4 0.6438831 -0.7651237 -0.002030491 0.5856141 -0.8105875 0.002440035 0.7038244 -0.71037 0.002447426 0.7040358 -0.7101603 6.38895e-5 0.7036995 -0.7104978 9.03529e-7 0.7097365 -0.7044673 9.01449e-7 0.7098975 -0.704305 8.10086e-4 0.764679 -0.644411 -0.001213014 0.8169214 -0.5767478 -6.53962e-5 0.7698461 -0.6382296 -5.29428e-5 0.9354169 -0.3535466 -2.16696e-4 0.9007875 -0.4342601 -0.001548051 0.8589252 -0.5120987 0.003115832 0.9310852 -0.3647887 6.8577e-5 0.8103475 -0.5859497 -1.64563e-5 0.8515409 -0.5242882 -1.6255e-5 0.8166708 -0.5771037 -8.05885e-5 0.8514219 -0.5244814 9.22495e-4 0.8947689 -0.4465287 -5.29434e-5 0.9354864 -0.3533626 -1.35378e-5 0.930953 -0.3651391 -1.41263e-5 0.9354656 -0.3534179 0.002327144 0.9310982 -0.3647614 -0.002328395 0.9809557 -0.1942176 -6.93751e-4 0.9614987 -0.2748086 -2.07658e-4 0.991214 0.1322681 1.1776e-4 0.9990177 0.04431617 0 0.9994897 0.03194403 0 0.9994898 -0.0319432 8.16839e-4 0.9563159 -0.2923346 4.43373e-5 0.9757525 -0.218877 4.44088e-5 0.9809283 -0.1943705 2.11214e-4 0.9757552 -0.218865 -2.10335e-4 0.9942004 -0.1075444 2.07538e-4 0.991215 -0.1322602 -1.1776e-4 0.9990177 -0.04431617 -0.99448 0.001009166 0.1049221 -0.9945291 0.001008987 0.1044563 -0.9965404 -0.004293024 0.08299833 -0.9979339 -0.01877295 0.06144559 -0.9979271 -0.01862633 0.06160151 -0.9981444 -0.02790468 0.05412191 -0.9994153 -0.009213268 0.03292524 -0.9778535 2.21047e-4 0.2092908 -0.9815326 -0.002035677 0.1912841 -0.9842833 -0.007082045 0.176455 -0.9839814 -0.006184637 0.1781639 -0.9868017 -0.01548016 0.1611923 -0.9867172 -0.01496428 0.1617575 -0.9914819 -0.002273321 0.1302254 -0.9944708 0.001005113 0.1050087 -0.9528532 -3.51323e-4 0.3034317 -0.9610212 0.004411339 0.2764399 -0.9660918 0.01102721 0.2579638 -0.9663441 0.01144504 0.2569981 -0.9637351 0.007344305 0.26676 -0.9584708 0.002488613 0.2851801 -0.9586201 0.002602696 0.2846768 -0.9567334 0.001607537 0.2909618 -0.9484409 6.17324e-4 0.3169535 -0.955177 9.99124e-4 0.2960339 -0.9552572 0.001022756 0.2957747 -0.9536014 5.36636e-4 0.3010716 -0.9540132 -6.34527e-4 0.2997641 -0.9556566 -0.001159965 0.2944812 -0.9556267 -0.001148641 0.2945784 -0.9569895 -0.00173223 0.2901175 -0.9589259 -0.002802014 0.2836429 -0.9590731 -0.002908468 0.2831439 -0.9614353 -0.004779875 0.2749897 -0.964156 -0.00790292 0.2652187 -0.9640473 -0.007750689 0.265618 -0.9664956 -0.01180136 0.256412 -0.9689468 -0.01709836 0.2466776 -0.9635444 -0.001440048 0.2675449 -0.9778698 2.29348e-4 0.2092142 -0.9778105 2.29169e-4 0.2094918 -0.9811766 0.001630306 0.1931059 -0.994132 -0.001174688 0.1081674 -0.9941719 -0.001173257 0.1078007 -0.9868224 0.003250539 0.1617748 -0.9903584 0.05194109 0.1284232 -0.9887938 0.0283243 0.1465765 -0.9863486 0.01346182 0.1641194 -0.9864272 0.0137245 0.163625 -0.983897 0.006253421 0.1786271 -0.9775639 -2.60917e-4 0.2106394 -0.9774341 -2.82536e-4 0.2112409 -0.9635453 -2.83455e-4 0.2675452 -0.9715539 0.02532696 0.2354604 -0.968671 0.01640754 0.2478052 -0.9982752 0.0383895 0.04441928 -0.9982888 0.02212524 0.05412977 -0.999913 0 0.01319211 -0.9976023 0.01321905 0.06793481 -0.9975968 0.01313155 0.0680322 -0.996128 0.002693474 0.08787369 -0.9944661 -0.001005589 -0.1050528 -0.9945297 -0.001003026 -0.1044492 -0.9965406 0.004293024 -0.08299827 -0.9979339 0.01877295 -0.06144559 -0.9979268 0.01862335 -0.06160664 -0.9981443 0.02790606 -0.05412185 -0.9994154 0.009212791 -0.03292346 -0.9999544 0 -0.009557485 -0.9778641 -2.15364e-4 -0.2092412 -0.9815281 0.002031624 -0.1913074 -0.9842828 0.007086455 -0.1764576 -0.9839809 0.006184756 -0.1781672 -0.9868013 0.01548326 -0.1611942 -0.9867164 0.01496648 -0.1617617 -0.9914805 0.002276062 -0.130235 -0.9944849 -0.001012504 -0.1048756 -0.9528487 3.47301e-4 -0.3034457 -0.9610264 -0.004417479 -0.2764215 -0.96608 -0.01101475 -0.2580081 -0.9664369 -0.01160418 -0.2566425 -0.9637199 -0.007330179 -0.2668152 -0.9583562 -0.002420783 -0.2855655 -0.9586384 -0.002615988 -0.2846152 -0.9566919 -0.001593172 -0.291098 -0.9551728 -9.99166e-4 -0.296047 -0.9552546 -0.001026332 -0.2957832 -0.953548 -5.24388e-4 -0.3012405 -0.9540091 6.3688e-4 -0.2997772 -0.9555252 0.001123666 -0.2949075 -0.9556586 0.001164019 -0.294475 -0.9569869 0.001736104 -0.290126 -0.9589245 0.002802073 -0.2836478 -0.9590987 0.002932012 -0.283057 -0.9614287 0.004778146 -0.275013 -0.9641548 0.007907211 -0.2652228 -0.9640455 0.007703781 -0.2656257 -0.9664946 0.01180714 -0.2564151 -0.968946 0.01710206 -0.2466803 -0.9635443 0.001445174 -0.2675449 -0.977869 -2.25653e-4 -0.209218 -0.9778095 -2.26118e-4 -0.2094962 -0.981176 -0.001634597 -0.1931093 -0.9941293 0.001174986 -0.1081929 -0.9941748 0.001175582 -0.107774 -0.9868217 -0.003252744 -0.1617789 -0.9903576 -0.05199378 -0.1284077 -0.988792 -0.02831268 -0.1465909 -0.9863481 -0.01347124 -0.1641216 -0.9864269 -0.01372468 -0.1636264 -0.9838964 -0.006255626 -0.1786297 -0.9775632 2.56601e-4 -0.2106429 -0.9774328 2.77962e-4 -0.2112467 -0.9635453 2.78004e-4 -0.2675452 -0.9715462 -0.02530843 -0.2354946 -0.9686703 -0.01640421 -0.2478082 -0.9999544 0 0.009557485 -0.999913 0 -0.01319217 -0.9982888 -0.02212214 -0.05412977 -0.9982748 -0.03839665 -0.04442137 -0.9976022 -0.01321911 -0.0679351 -0.997597 -0.01313394 -0.06802839 -0.9961274 -0.00269705 -0.08788114 0.99448 -0.001009285 0.104922 0.9945291 -0.001008987 0.1044564 0.9965405 0.004298567 0.08299827 0.9979292 0.01870107 0.06154406 0.9979305 0.01873326 0.06151419 0.9981443 0.02790457 0.05412185 0.9994155 0.009209871 0.0329253 0.9778555 -2.30903e-4 0.2092813 0.9815343 0.002022683 0.1912757 0.9842846 0.007073521 0.1764484 0.9839831 0.006184697 0.1781549 0.9868028 0.01547181 0.1611859 0.9867193 0.01495832 0.1617448 0.9914723 0.002301633 0.1302977 0.9945146 -0.001039803 0.1045934 0.9528546 3.4728e-4 0.303427 0.9610216 -0.004409134 0.2764387 0.9660919 -0.01103007 0.2579631 0.9663433 -0.01145452 0.2570009 0.963735 -0.007345795 0.2667602 0.9586609 -0.002649128 0.2845388 0.9586172 -0.002606987 0.2846866 0.9566906 -0.001590251 0.2911029 0.9551769 -9.99123e-4 0.2960343 0.9552564 -0.001022279 0.2957771 0.9536024 -5.3927e-4 0.3010686 0.9540132 6.34527e-4 0.2997638 0.9556564 0.001159071 0.2944818 0.9556266 0.001148641 0.2945787 0.9569895 0.00173223 0.2901175 0.9589257 0.002799987 0.2836434 0.9590734 0.002907931 0.2831429 0.9614354 0.004781961 0.2749891 0.9641558 0.007903456 0.2652192 0.9640465 0.007736146 0.2656213 0.9664746 0.0117672 0.2564926 0.9689567 0.01712447 0.2466366 0.963541 0.001431524 0.2675571 0.9778716 -2.38598e-4 0.2092061 0.9778125 -2.39864e-4 0.2094824 0.9811884 -0.001636028 0.193046 0.9941439 0.001154601 0.1080593 0.9941444 0.00115478 0.1080534 0.9868245 -0.003248393 0.161762 0.9903599 -0.05192434 0.1284182 0.9887949 -0.02831286 0.1465709 0.9863497 -0.01345568 0.1641132 0.9864283 -0.0137133 0.1636195 0.9838985 -0.006241619 0.1786197 0.9775329 2.76459e-4 0.2107831 0.977436 2.917e-4 0.2112316 0.9635419 2.93266e-4 0.2675573 0.9715541 -0.02532637 0.2354599 0.9686709 -0.0164076 0.2478057 0.9982748 -0.03840011 0.04441922 0.9982888 -0.02212214 0.05412977 0.999913 0 0.01319217 0.9976025 -0.01319688 0.0679351 0.9975999 -0.01318925 0.06797361 0.9961217 -0.002683401 0.08794623 0.9944661 0.001003026 -0.1050529 0.9945297 0.001003026 -0.1044492 0.9965405 -0.004298567 -0.08299833 0.9979292 -0.01870107 -0.061544 0.9979301 -0.01872974 -0.06152033 0.9981444 -0.02790617 -0.05412191 0.9994155 -0.009205877 -0.0329234 0.9999544 0 -0.009557485 0.9778661 2.25217e-4 -0.2092319 0.9815297 -0.002021491 -0.191299 0.9842841 -0.007077872 -0.1764506 0.9839815 -0.006184875 -0.1781637 0.9868025 -0.01547193 -0.1611878 0.9867186 -0.01496058 -0.161749 0.991471 -0.002304315 -0.1303073 0.9945284 0.001051485 -0.1044612 0.9528473 -3.47306e-4 -0.3034504 0.9610263 0.004415333 -0.276422 0.96608 0.01101475 -0.2580081 0.9664361 0.01159065 -0.2566455 0.9637199 0.007331669 -0.266815 0.9585486 0.002563655 -0.2849177 0.9586355 0.002620279 -0.2846245 0.9566488 0.001575887 -0.2912397 0.9479491 6.78325e-4 -0.3184214 0.9551743 9.99152e-4 -0.2960423 0.9552554 0.001029431 -0.2957807 0.9535471 5.24394e-4 -0.3012436 0.9540091 -6.3688e-4 -0.2997774 0.9555255 -0.001122772 -0.2949068 0.9556586 -0.001164257 -0.2944746 0.9569869 -0.001736104 -0.290126 0.9589247 -0.002803266 -0.2836472 0.9590984 -0.002931475 -0.2830579 0.9614284 -0.00477612 -0.2750142 0.9641549 -0.007907748 -0.2652223 0.9640462 -0.007736086 -0.2656224 0.9664736 -0.01176738 -0.2564964 0.9689559 -0.01712822 -0.2466396 0.963541 -0.00143671 -0.267557 0.9778707 2.34903e-4 -0.2092102 0.9778115 2.36814e-4 -0.2094868 0.9811877 0.001640379 -0.1930494 0.9941411 -0.001152396 -0.1080844 0.9941474 -0.001154482 -0.1080269 0.9868238 0.003250598 -0.1617662 0.990359 0.05197811 -0.1284037 0.9887931 0.02830129 -0.146585 0.9863495 0.01345896 -0.1641152 0.9864282 0.0137133 -0.16362 0.9838979 0.006248116 -0.1786223 0.977532 -2.72144e-4 -0.2107868 0.9774349 -2.87126e-4 -0.2112368 0.9635419 -2.87815e-4 -0.2675573 0.971546 0.02530831 -0.235495 0.9686703 0.01640421 -0.2478082 0.9999544 0 0.009557485 0.999913 0 -0.01319211 0.9982888 0.02212214 -0.05412977 0.9982746 0.03840196 -0.04442137 0.9976026 0.01319682 -0.06793487 0.9976003 0.01319169 -0.06796932 0.9961211 0.002680301 -0.0879538 0.9513211 0 -0.3082017 0.9289883 0 -0.3701092 0.9289883 0 -0.370109 0.8835008 0 -0.4684297 0.8835008 2.02723e-6 -0.4684297 0.8276876 0 -0.5611894 0.8276876 2.22728e-6 -0.5611894 0.7621392 0 -0.6474133 0.7621396 2.69481e-6 -0.6474128 0.6876916 0 -0.7260029 0.6876921 0 -0.7260026 0.6051757 0 -0.7960919 0.5155587 0 -0.8568543 0.51556 0 -0.8568536 0.4198887 0 -0.9075757 0.4198873 0 -0.9075763 0.3193096 0 -0.9476504 0.3193081 0 -0.947651 0.2149769 0 -0.9766191 0.2149752 0 -0.9766196 0.1081187 0 -0.994138 0.108117 0 -0.9941383 0 0 -1 -0.108117 0 -0.9941383 -0.1081187 0 -0.994138 -0.2149752 0 -0.9766196 -0.2149769 0 -0.9766191 -0.319308 0 -0.947651 -0.3193096 0 -0.9476504 -0.4198873 0 -0.9075763 -0.4198887 0 -0.9075756 -0.5155658 0 -0.85685 -0.5155645 0 -0.8568508 -0.6051695 0 -0.7960968 -0.6051694 0 -0.7960968 -0.6877056 0 -0.7259897 -0.6877055 2.93247e-6 -0.7259898 -0.7621618 0 -0.6473867 -0.7621614 2.62757e-6 -0.647387 -0.8277103 0 -0.5611557 -0.8277103 2.38614e-6 -0.5611557 -0.8835012 0 -0.468429 -0.9289883 0 -0.370109 -0.9289883 0 -0.3701091 -0.951321 0 -0.3082023 -0.9479475 -6.92873e-4 -0.3184263 -0.951321 0 0.3082023 -0.9289812 0 0.370127 -0.9289812 0 0.370127 -0.8835068 0 0.4684184 -0.883507 0 0.468418 -0.8276894 0 0.5611865 -0.8276897 0 0.5611861 -0.762167 0 0.6473805 -0.762167 0 0.6473805 -0.6876921 0 0.7260025 -0.6876916 0 0.726003 -0.6051862 0 0.796084 -0.6051868 -3.29167e-6 0.7960836 -0.5155645 0 0.8568508 -0.5155658 0 0.85685 -0.4198989 0 0.9075709 -0.3192858 0 0.9476585 -0.3192843 0 0.9476591 -0.2150511 0 0.9766029 -0.1079495 0 0.9941564 -0.1079495 0 0.9941564 0 0 1 0.1079495 0 0.9941564 0.1079495 0 0.9941564 0.2150511 0 0.9766029 0.3192842 0 0.947659 0.3192858 0 0.9476585 0.4198989 0 0.9075709 0.5155405 0 0.8568652 0.5155392 -3.54966e-6 0.8568661 0.6051763 0 0.7960916 0.6051757 0 0.7960919 0.6876916 0 0.7260029 0.6876921 0 0.7260026 0.762167 0 0.6473805 0.762167 0 0.6473805 0.8276836 0 0.5611951 0.8276834 0 0.5611955 0.8835124 0 0.4684078 0.8835123 0 0.4684082 0.9289812 0 0.370127 0.9289812 0 0.370127 0.9513208 0 0.3082026 0.9484334 -5.81798e-4 0.3169758 0 1 0 0 1 0 0 1 0 0 1 -1.26514e-7 0 1 0 0 1 -1.77716e-7 0 1 2.04656e-7 0 1 -1.76504e-7 0 1 -1.78976e-7 0 1 8.06507e-7 0 1 -1.78852e-7 0 1 -1.78631e-7 0 1 -4.05602e-7 0 1 1.77879e-7 0 1 3.57973e-7 0 1 -4.03144e-7 0 1 0 0 1 -4.03533e-7 0 1 -1.78714e-7 0 1 4.04225e-7 0 1 -2.67639e-7 0 1 8.10392e-7 0 1 -5.67469e-7 0 1 -1.44247e-7 0 1 -4.4237e-7 0 1 8.19927e-7 0 1 -1.76263e-7 0 1 -8.2442e-7 0 1 6.14198e-7 0 1 -3.57966e-7 0 1 0 0 1 0 0 1 1.26516e-7 0 1 0 0 1 1.77716e-7 0 1 0 0 1 -2.04654e-7 0 1 1.76501e-7 0 1 -1.75753e-7 0 1 1.78966e-7 0 1 3.51501e-7 0 1 -5.36924e-7 0 1 4.03038e-7 0 1 -3.57967e-7 0 1 4.03145e-7 0 1 2.68363e-7 0 1 2.68069e-7 0 1 -4.04225e-7 0 1 1.78422e-7 0 1 -8.10392e-7 0 1 5.67469e-7 0 1 1.44247e-7 0 1 1.76953e-7 0 1 -8.1993e-7 0 1 4.40662e-7 0 1 -7.01902e-7 0 1 3.57983e-7 0 1 -8.06106e-7 0 1 5.36917e-7 0 1 -8.06514e-7 0 1 1.78859e-7 0 1 1.7863e-7 0 1 1.77876e-7 0.9981736 0 0.0604124 0.9981736 0 -0.0604124 0.9836257 0 -0.180224 0.9547232 0 -0.2974957 0.9547232 0 -0.2974956 0.9118863 0 -0.4104428 0.8557817 0 -0.5173373 0.8557819 6.50665e-6 -0.5173369 0.7871878 0 -0.6167135 0.7071068 0 -0.7071068 0.6167337 0 -0.7871719 0.616734 -1.02902e-5 -0.7871718 0.5173573 0 -0.8557695 0.5173573 -1.14563e-5 -0.8557695 0.4104318 0 -0.9118914 0.2975037 0 -0.9547207 0.1802632 0 -0.9836184 0.06036639 0 -0.9981763 0.06036806 0 -0.9981763 -0.1802617 0 -0.9836187 -0.2975037 0 -0.9547207 -0.4104061 0 -0.9119029 -0.5173121 0 -0.8557968 -0.5173121 -1.14167e-5 -0.8557968 -0.6167147 0 -0.7871869 -0.6167154 0 -0.7871863 -0.7071068 0 -0.7071068 -0.7871991 0 -0.616699 -0.7871995 8.09992e-6 -0.6166986 -0.8557899 0 -0.5173236 -0.9118919 0 -0.4104306 -0.9118919 0 -0.4104305 -0.9547232 0 -0.2974957 -0.9547232 0 -0.2974956 -0.983623 0 -0.1802384 -0.9981735 0 -0.0604124 -0.9981736 0 -0.0604124 -0.9981736 0 0.0604124 -0.983623 0 0.1802384 -0.983623 0 0.1802384 -0.9547232 0 0.2974956 -0.9118894 0 0.4104362 -0.9118894 2.69028e-6 0.4104361 -0.8557817 0 0.5173373 -0.8557817 6.9128e-6 0.5173372 -0.7071068 0 0.7071068 -0.6167147 0 0.7871869 -0.6167154 0 0.7871863 -0.5173133 0 0.8557961 -0.5173121 0 0.8557968 -0.4104304 0 0.911892 -0.2975051 0 0.9547202 -0.2975038 0 0.9547207 -0.1802476 0 0.9836213 0.0603826 0 0.9981753 0.1802476 0 0.9836213 0.2975037 0 0.9547207 0.2975053 0 0.9547203 0.4104304 0 0.911892 0.5173121 0 0.8557968 0.5173133 0 0.8557961 0.6167152 0 0.7871865 0.6167149 0 0.7871868 0.7071068 0 0.7071068 0.7071069 0 0.7071067 0.7872108 0 0.616684 0.8557936 0 0.5173175 0.8557938 3.39604e-6 0.5173171 0.9118863 0 0.410443 0.9547232 0 0.2974957 0.9547232 0 0.2974954 0.9836257 0 0.180224 0.9981735 0 0.0604124 0 1 -7.60543e-6 0 1 7.6037e-6 0 1 1.94004e-7 0 1 6.16711e-7 0 1 -3.65077e-7 0 1 -6.16711e-7 0 1 3.65073e-7 0 1 -9.06594e-7 0 1 8.93368e-7 0 1 -1.52079e-6 0 1 6.52685e-7 0 1 -6.3285e-7 0 1 9.06619e-7 0 1 -8.93381e-7 0 1 -1.52079e-6 0 1 5.07646e-7 0 1 -1.726e-7 0 1 -7.60306e-6 0 1 3.82088e-6 0 1 7.60089e-6 0 1 -7.60375e-6</float_array>
          <technique_common>
            <accessor source="#Link5-mesh-normals-array" count="893" stride="3">
              <param name="X" type="float"/>
              <param name="Y" type="float"/>
              <param name="Z" type="float"/>
            </accessor>
          </technique_common>
        </source>
        <vertices id="Link5-mesh-vertices">
          <input semantic="POSITION" source="#Link5-mesh-positions"/>
        </vertices>
        <triangles material="colour_abb_white_014-material" count="1096">
          <input semantic="VERTEX" source="#Link5-mesh-vertices" offset="0"/>
          <input semantic="NORMAL" source="#Link5-mesh-normals" offset="1"/>
          <p>0 0 1 0 2 0 3 1 4 1 5 1 5 2 4 2 6 2 0 1 2 1 4 1 4 3 2 3 7 3 4 4 7 4 8 4 9 1 10 1 11 1 11 5 10 5 5 5 11 1 5 1 12 1 12 6 5 6 6 6 12 7 13 7 14 7 10 8 15 8 5 8 5 9 15 9 16 9 5 10 16 10 17 10 18 1 0 1 19 1 19 11 0 11 4 11 19 12 4 12 20 12 21 1 4 1 3 1 22 1 23 1 24 1 24 13 23 13 4 13 24 1 4 1 25 1 25 14 4 14 8 14 26 1 27 1 28 1 26 1 28 1 23 1 23 15 28 15 29 15 23 16 29 16 30 16 31 1 32 1 33 1 33 17 32 17 5 17 33 18 5 18 34 18 34 1 5 1 17 1 35 1 36 1 37 1 35 1 37 1 32 1 32 19 37 19 38 19 32 20 38 20 39 20 40 1 28 1 41 1 42 21 28 21 43 21 42 1 27 1 44 1 44 1 27 1 45 1 46 22 4 22 47 22 47 23 4 23 23 23 47 1 23 1 48 1 48 1 23 1 30 1 49 1 37 1 50 1 51 24 37 24 36 24 51 1 36 1 52 1 52 1 36 1 53 1 54 1 5 1 55 1 55 1 5 1 32 1 55 1 32 1 56 1 56 1 32 1 39 1 57 25 48 25 58 25 58 26 48 26 30 26 58 27 30 27 59 27 59 28 30 28 29 28 59 29 29 29 60 29 60 30 29 30 28 30 60 30 28 30 61 30 61 31 28 31 40 31 61 32 40 32 62 32 62 33 40 33 41 33 62 34 42 34 63 34 64 35 42 35 44 35 64 36 44 36 65 36 65 37 44 37 45 37 65 38 45 38 66 38 66 39 45 39 43 39 66 40 27 40 67 40 68 41 27 41 69 41 68 42 26 42 70 42 71 43 26 43 23 43 71 44 23 44 72 44 72 45 23 45 22 45 72 46 22 46 73 46 73 47 22 47 24 47 73 48 24 48 74 48 74 49 24 49 25 49 74 50 25 50 75 50 75 51 25 51 8 51 75 52 8 52 76 52 76 53 8 53 7 53 76 54 7 54 77 54 77 55 7 55 2 55 77 56 2 56 78 56 78 57 2 57 79 57 78 58 1 58 80 58 81 59 1 59 82 59 81 60 0 60 83 60 84 61 0 61 18 61 84 62 18 62 85 62 85 63 18 63 19 63 85 64 19 64 86 64 86 65 19 65 20 65 86 66 21 66 87 66 88 67 21 67 3 67 88 68 3 68 89 68 89 69 3 69 5 69 89 70 5 70 90 70 90 71 5 71 54 71 90 71 54 71 91 71 91 72 54 72 55 72 91 73 55 73 92 73 92 74 55 74 56 74 92 75 56 75 93 75 93 76 56 76 39 76 93 77 39 77 94 77 94 78 39 78 38 78 94 79 38 79 95 79 95 80 38 80 37 80 95 80 37 80 96 80 96 81 37 81 97 81 96 82 49 82 98 82 99 83 49 83 50 83 99 84 51 84 100 84 101 85 51 85 52 85 101 86 52 86 102 86 102 87 52 87 53 87 102 88 53 88 103 88 103 89 53 89 36 89 103 90 36 90 104 90 104 91 36 91 35 91 104 92 35 92 105 92 105 93 35 93 32 93 105 94 32 94 106 94 106 95 32 95 31 95 106 96 31 96 107 96 107 97 31 97 33 97 107 98 33 98 108 98 108 99 33 99 34 99 108 99 34 99 109 99 109 100 34 100 17 100 109 101 17 101 110 101 110 102 17 102 16 102 110 103 16 103 111 103 111 104 16 104 15 104 111 105 15 105 112 105 112 106 15 106 10 106 112 107 10 107 113 107 113 108 10 108 9 108 113 109 9 109 114 109 114 110 9 110 11 110 114 111 11 111 115 111 115 112 11 112 12 112 115 113 12 113 116 113 116 114 12 114 14 114 116 115 117 115 118 115 119 116 117 116 6 116 119 117 13 117 120 117 121 118 13 118 4 118 121 119 4 119 122 119 122 120 4 120 46 120 122 120 46 120 123 120 123 121 46 121 47 121 123 122 47 122 57 122 57 123 47 123 48 123 76 1 124 1 75 1 75 1 124 1 125 1 75 1 125 1 74 1 74 1 125 1 126 1 74 124 126 124 73 124 73 1 126 1 127 1 73 1 127 1 72 1 72 1 127 1 128 1 72 125 128 125 70 125 71 126 128 126 129 126 71 127 129 127 67 127 68 1 129 1 130 1 68 128 130 128 66 128 66 1 130 1 131 1 66 1 131 1 65 1 65 129 131 129 132 129 65 130 133 130 63 130 89 1 134 1 87 1 88 131 134 131 135 131 88 1 136 1 86 1 86 132 136 132 137 132 86 1 138 1 85 1 85 1 138 1 139 1 85 1 139 1 83 1 84 133 139 133 140 133 84 1 140 1 80 1 81 134 140 134 141 134 81 1 141 1 78 1 78 135 141 135 142 135 78 1 142 1 77 1 77 136 142 136 143 136 77 1 143 1 76 1 76 1 143 1 144 1 76 1 144 1 124 1 101 1 145 1 98 1 99 137 145 137 146 137 99 138 146 138 96 138 96 1 146 1 147 1 96 1 147 1 95 1 95 139 147 139 148 139 95 1 148 1 94 1 94 140 148 140 149 140 94 1 149 1 93 1 93 141 149 141 150 141 93 1 150 1 92 1 92 142 150 142 151 142 92 1 151 1 91 1 91 143 151 143 152 143 91 1 152 1 90 1 90 144 152 144 153 144 90 1 153 1 89 1 89 145 153 145 154 145 89 146 154 146 155 146 110 1 156 1 109 1 109 1 156 1 157 1 109 1 157 1 108 1 108 1 157 1 158 1 108 147 158 147 107 147 107 1 158 1 159 1 107 1 159 1 106 1 106 1 159 1 160 1 106 148 160 148 105 148 105 149 160 149 161 149 105 150 161 150 104 150 104 151 161 151 162 151 104 152 163 152 103 152 103 153 163 153 164 153 103 1 164 1 102 1 102 154 164 154 165 154 102 155 165 155 100 155 101 156 165 156 166 156 101 157 166 157 145 157 121 1 167 1 118 1 119 158 167 158 168 158 119 1 168 1 116 1 116 159 168 159 169 159 116 1 169 1 115 1 115 1 169 1 170 1 115 1 170 1 114 1 114 1 170 1 171 1 114 160 172 160 113 160 113 161 172 161 173 161 113 1 173 1 112 1 112 162 173 162 174 162 112 1 174 1 111 1 111 163 174 163 175 163 111 1 175 1 110 1 110 1 175 1 176 1 110 1 176 1 156 1 133 164 177 164 63 164 64 165 177 165 178 165 64 166 179 166 62 166 62 167 179 167 180 167 62 168 180 168 61 168 61 1 180 1 181 1 61 1 181 1 60 1 60 169 181 169 182 169 60 1 182 1 59 1 59 170 182 170 183 170 59 1 183 1 58 1 58 171 183 171 184 171 58 1 184 1 57 1 57 172 184 172 185 172 57 1 185 1 123 1 123 1 185 1 186 1 123 1 186 1 122 1 122 173 186 173 187 173 122 1 187 1 120 1 121 174 187 174 188 174 121 175 188 175 167 175 189 176 190 176 191 176 192 177 193 177 194 177 195 178 196 178 197 178 197 179 196 179 198 179 198 180 199 180 197 180 197 181 199 181 200 181 197 182 200 182 201 182 201 183 200 183 202 183 201 184 202 184 203 184 195 185 204 185 196 185 196 186 204 186 205 186 196 187 205 187 206 187 206 188 205 188 207 188 206 189 207 189 208 189 208 190 209 190 206 190 206 191 209 191 210 191 206 192 210 192 211 192 212 193 213 193 214 193 214 194 215 194 212 194 212 195 215 195 216 195 212 196 216 196 210 196 210 197 216 197 217 197 210 198 217 198 211 198 218 199 219 199 220 199 212 200 221 200 213 200 213 201 221 201 222 201 213 202 222 202 220 202 220 203 222 203 223 203 220 204 223 204 218 204 219 205 224 205 220 205 220 206 224 206 225 206 220 207 225 207 226 207 226 208 225 208 227 208 228 209 229 209 230 209 230 210 231 210 228 210 228 211 231 211 232 211 228 212 232 212 225 212 225 213 232 213 233 213 225 214 233 214 227 214 234 215 235 215 236 215 236 216 235 216 237 216 236 217 237 217 238 217 238 218 237 218 239 218 228 219 240 219 229 219 229 220 240 220 241 220 229 221 241 221 242 221 242 222 241 222 239 222 242 223 239 223 243 223 244 224 239 224 237 224 234 225 245 225 235 225 235 226 245 226 246 226 235 227 247 227 248 227 248 228 247 228 249 228 250 229 193 229 251 229 249 230 247 230 252 230 252 231 247 231 253 231 252 232 253 232 194 232 250 233 253 233 254 233 250 234 254 234 192 234 255 235 256 235 257 235 257 236 256 236 258 236 257 237 258 237 193 237 193 238 258 238 259 238 193 239 259 239 251 239 257 240 260 240 255 240 255 241 260 241 261 241 255 242 261 242 262 242 262 243 261 243 263 243 264 244 265 244 263 244 263 245 265 245 266 245 263 246 266 246 262 246 267 247 268 247 269 247 264 248 270 248 265 248 265 249 270 249 271 249 265 250 271 250 272 250 272 251 271 251 273 251 272 252 273 252 274 252 268 253 275 253 269 253 269 254 275 254 272 254 269 255 272 255 276 255 276 256 272 256 274 256 277 257 278 257 269 257 269 258 278 258 279 258 269 259 279 259 267 259 280 260 281 260 277 260 277 261 281 261 282 261 277 262 282 262 278 262 283 263 284 263 285 263 285 264 286 264 283 264 283 265 286 265 287 265 283 266 287 266 288 266 280 267 289 267 281 267 281 268 289 268 290 268 281 269 290 269 287 269 287 270 290 270 291 270 287 271 291 271 288 271 284 272 283 272 292 272 292 273 283 273 293 273 292 274 293 274 294 274 295 275 296 275 293 275 293 276 296 276 297 276 293 277 297 277 294 277 295 278 298 278 296 278 296 279 298 279 299 279 296 280 299 280 300 280 300 281 299 281 301 281 300 282 301 282 302 282 301 283 303 283 302 283 302 284 303 284 304 284 302 285 304 285 305 285 305 286 304 286 306 286 307 287 308 287 309 287 309 288 308 288 310 288 310 289 311 289 309 289 309 290 311 290 312 290 309 291 312 291 313 291 313 292 312 292 314 292 313 293 314 293 306 293 306 294 314 294 315 294 306 295 316 295 305 295 307 296 317 296 318 296 308 297 317 297 319 297 308 298 320 298 321 298 321 299 320 299 322 299 321 300 322 300 323 300 323 301 324 301 321 301 321 302 324 302 325 302 321 303 325 303 326 303 327 304 328 304 329 304 329 305 330 305 327 305 327 306 330 306 331 306 327 307 331 307 325 307 325 308 331 308 332 308 325 309 332 309 326 309 333 310 334 310 335 310 327 311 336 311 328 311 328 312 336 312 337 312 328 313 337 313 335 313 335 314 337 314 338 314 335 315 338 315 333 315 334 316 339 316 335 316 335 317 339 317 340 317 335 318 340 318 341 318 341 319 340 319 342 319 343 320 344 320 345 320 345 321 346 321 343 321 343 322 346 322 347 322 343 323 347 323 340 323 340 324 347 324 348 324 340 325 348 325 342 325 349 326 350 326 351 326 351 327 350 327 352 327 351 328 352 328 353 328 353 329 352 329 354 329 343 330 355 330 344 330 344 331 355 331 356 331 344 332 356 332 357 332 358 333 356 333 354 333 358 334 354 334 359 334 359 335 354 335 352 335 349 336 360 336 350 336 350 337 360 337 361 337 350 338 361 338 362 338 362 339 361 339 363 339 191 340 190 340 364 340 363 341 361 341 365 341 365 342 361 342 366 342 365 343 366 343 191 343 191 344 366 344 367 344 191 345 367 345 189 345 368 346 369 346 370 346 370 347 369 347 371 347 370 348 371 348 190 348 190 349 371 349 372 349 190 350 372 350 364 350 370 351 373 351 368 351 368 352 373 352 374 352 368 353 375 353 376 353 376 354 375 354 377 354 378 355 379 355 377 355 377 356 379 356 380 356 377 357 380 357 376 357 381 358 382 358 383 358 378 359 384 359 379 359 379 360 384 360 385 360 379 361 385 361 386 361 386 362 385 362 387 362 386 363 387 363 388 363 382 364 389 364 383 364 383 365 389 365 386 365 383 366 386 366 390 366 390 367 386 367 388 367 391 368 392 368 383 368 383 369 392 369 393 369 383 370 393 370 381 370 394 371 395 371 391 371 391 372 395 372 396 372 391 373 396 373 392 373 397 374 398 374 399 374 399 375 400 375 397 375 397 376 400 376 401 376 397 377 401 377 402 377 394 378 403 378 395 378 395 379 403 379 404 379 395 380 404 380 401 380 401 381 404 381 405 381 401 382 405 382 402 382 398 383 397 383 406 383 407 384 397 384 408 384 407 385 409 385 410 385 411 386 412 386 408 386 409 387 412 387 413 387 409 388 413 388 410 388 202 389 414 389 203 389 203 390 414 390 415 390 203 391 415 391 416 391 416 392 415 392 417 392 411 393 418 393 412 393 412 394 418 394 419 394 412 395 419 395 420 395 420 396 419 396 421 396 420 397 421 397 417 397 417 398 421 398 422 398 417 399 423 399 416 399 398 400 407 400 149 400 149 401 407 401 410 401 149 402 424 402 413 402 413 403 412 403 149 403 149 404 412 404 420 404 149 405 420 405 150 405 150 406 420 406 417 406 393 407 392 407 148 407 148 408 392 408 396 408 148 409 396 409 395 409 395 410 401 410 148 410 148 411 401 411 400 411 148 412 400 412 149 412 149 413 400 413 399 413 149 414 399 414 398 414 365 415 191 415 147 415 345 416 344 416 425 416 348 417 347 417 425 417 425 418 347 418 426 418 425 419 346 419 345 419 344 420 358 420 425 420 425 421 358 421 359 421 425 422 359 422 352 422 365 423 147 423 363 423 352 424 350 424 425 424 425 425 350 425 362 425 425 426 362 426 363 426 191 427 364 427 147 427 147 428 364 428 372 428 147 429 372 429 371 429 371 430 369 430 147 430 147 431 369 431 368 431 147 432 368 432 376 432 376 433 380 433 147 433 147 434 380 434 379 434 147 435 379 435 386 435 386 436 389 436 147 436 147 437 389 437 382 437 147 438 382 438 148 438 148 439 382 439 381 439 148 440 381 440 393 440 329 441 328 441 427 441 310 442 308 442 428 442 428 443 308 443 321 443 428 444 321 444 427 444 427 445 321 445 326 445 427 446 326 446 332 446 332 447 331 447 427 447 427 448 331 448 330 448 427 449 330 449 329 449 328 450 335 450 427 450 427 451 335 451 341 451 427 452 341 452 425 452 425 453 341 453 342 453 425 454 342 454 348 454 314 455 428 455 315 455 316 456 428 456 429 456 316 457 429 457 305 457 314 458 312 458 428 458 428 459 312 459 311 459 428 460 311 460 310 460 284 461 292 461 430 461 430 462 292 462 294 462 430 463 294 463 297 463 297 464 296 464 430 464 430 465 296 465 300 465 430 466 300 466 429 466 429 467 300 467 302 467 429 468 302 468 305 468 279 469 278 469 431 469 431 470 278 470 282 470 431 471 282 471 281 471 281 472 287 472 431 472 431 473 287 473 286 473 431 474 286 474 430 474 430 475 286 475 285 475 430 476 285 476 284 476 252 477 250 477 432 477 230 478 229 478 153 478 233 479 232 479 153 479 153 480 232 480 231 480 153 481 231 481 230 481 229 482 242 482 153 482 153 483 242 483 243 483 153 484 244 484 237 484 237 485 235 485 153 485 153 486 235 486 248 486 153 487 248 487 249 487 250 488 251 488 432 488 432 489 251 489 259 489 432 490 259 490 258 490 258 491 256 491 432 491 432 492 256 492 255 492 432 493 255 493 262 493 262 494 266 494 432 494 432 495 266 495 265 495 432 496 265 496 272 496 272 497 275 497 432 497 432 498 275 498 268 498 432 499 268 499 431 499 431 500 268 500 267 500 431 501 267 501 279 501 214 502 213 502 152 502 198 503 196 503 151 503 151 504 196 504 206 504 151 505 206 505 152 505 152 506 206 506 211 506 152 507 211 507 217 507 217 508 216 508 152 508 152 509 216 509 215 509 152 510 215 510 214 510 213 511 220 511 152 511 152 512 220 512 226 512 152 513 226 513 153 513 153 514 226 514 227 514 153 515 433 515 233 515 417 516 415 516 150 516 150 517 415 517 414 517 150 518 414 518 151 518 151 519 414 519 202 519 202 520 200 520 151 520 151 521 200 521 434 521 151 522 199 522 198 522 322 523 320 523 435 523 435 524 320 524 436 524 435 525 317 525 307 525 307 526 309 526 435 526 435 527 309 527 313 527 435 528 313 528 437 528 437 529 313 529 306 529 338 530 337 530 438 530 438 531 337 531 336 531 438 532 336 532 327 532 327 533 325 533 438 533 438 534 325 534 324 534 438 535 324 535 435 535 435 536 324 536 323 536 435 537 323 537 322 537 366 538 361 538 439 538 378 539 377 539 187 539 387 540 385 540 187 540 187 541 385 541 440 541 187 542 384 542 378 542 377 543 375 543 187 543 187 544 375 544 373 544 187 545 373 545 370 545 370 546 190 546 187 546 187 547 190 547 189 547 187 548 189 548 367 548 361 549 360 549 439 549 439 550 360 550 349 550 439 551 349 551 351 551 351 552 353 552 439 552 439 553 353 553 354 553 439 554 354 554 356 554 356 555 355 555 439 555 439 556 355 556 343 556 439 557 343 557 340 557 340 558 339 558 439 558 439 559 339 559 334 559 439 560 334 560 438 560 438 561 334 561 333 561 438 562 333 562 338 562 394 563 391 563 186 563 411 564 409 564 185 564 185 565 409 565 397 565 185 566 397 566 186 566 186 567 397 567 402 567 186 568 402 568 405 568 405 569 404 569 186 569 186 570 404 570 403 570 186 571 403 571 394 571 391 572 383 572 186 572 186 573 383 573 390 573 186 574 390 574 187 574 187 575 390 575 388 575 187 576 388 576 387 576 421 577 185 577 422 577 423 578 185 578 184 578 423 579 184 579 416 579 421 580 419 580 185 580 185 581 419 581 418 581 185 582 418 582 411 582 207 583 205 583 183 583 183 584 205 584 204 584 183 585 204 585 195 585 195 586 197 586 183 586 183 587 197 587 201 587 183 588 201 588 184 588 184 589 201 589 203 589 184 590 203 590 416 590 223 591 222 591 182 591 182 592 222 592 221 592 182 593 221 593 212 593 212 594 210 594 182 594 182 595 210 595 209 595 182 596 209 596 183 596 183 597 209 597 208 597 183 598 208 598 207 598 253 599 247 599 181 599 264 600 263 600 441 600 273 601 271 601 441 601 441 602 271 602 270 602 441 603 270 603 264 603 263 604 261 604 441 604 441 605 261 605 442 605 441 606 260 606 257 606 253 607 181 607 254 607 257 608 193 608 441 608 441 609 193 609 192 609 441 610 192 610 254 610 247 611 245 611 181 611 181 612 245 612 234 612 181 613 234 613 236 613 236 614 238 614 181 614 181 615 238 615 239 615 181 616 239 616 241 616 241 617 240 617 181 617 181 618 240 618 228 618 181 619 228 619 225 619 225 620 224 620 181 620 181 621 224 621 219 621 181 622 219 622 182 622 182 623 219 623 218 623 182 624 218 624 223 624 280 625 277 625 443 625 295 626 293 626 444 626 444 627 293 627 283 627 444 628 283 628 443 628 443 629 283 629 288 629 443 630 288 630 291 630 291 631 290 631 443 631 443 632 290 632 289 632 443 633 289 633 280 633 277 634 269 634 443 634 443 635 269 635 276 635 443 636 276 636 441 636 441 637 276 637 274 637 441 638 445 638 273 638 306 639 304 639 437 639 437 640 304 640 303 640 437 641 303 641 444 641 444 642 303 642 301 642 301 643 299 643 444 643 444 644 299 644 446 644 444 645 298 645 295 645 254 646 181 646 441 646 441 647 181 647 180 647 441 648 180 648 447 648 447 649 180 649 178 649 447 650 179 650 448 650 449 651 179 651 450 651 449 652 177 652 451 652 452 653 177 653 132 653 452 654 133 654 453 654 454 655 133 655 131 655 454 656 131 656 455 656 455 657 131 657 130 657 455 657 130 657 456 657 456 658 130 658 129 658 456 659 129 659 457 659 457 660 129 660 128 660 457 661 128 661 458 661 458 662 128 662 127 662 458 663 127 663 459 663 459 664 127 664 126 664 459 665 126 665 460 665 460 666 126 666 125 666 460 667 125 667 461 667 461 668 125 668 124 668 461 668 124 668 462 668 462 669 124 669 144 669 462 670 144 670 463 670 463 671 144 671 143 671 463 672 143 672 464 672 464 673 143 673 142 673 464 674 142 674 465 674 465 675 142 675 141 675 465 676 141 676 466 676 466 677 141 677 140 677 466 678 140 678 467 678 467 679 140 679 139 679 467 680 139 680 468 680 468 681 139 681 137 681 468 682 138 682 469 682 470 683 138 683 135 683 470 684 136 684 471 684 472 685 136 685 155 685 472 686 134 686 473 686 474 687 134 687 154 687 474 687 154 687 475 687 475 688 154 688 153 688 475 689 153 689 432 689 432 690 153 690 249 690 432 691 249 691 252 691 363 692 147 692 425 692 425 693 147 693 146 693 425 694 146 694 476 694 476 695 146 695 145 695 476 696 145 696 477 696 477 697 145 697 166 697 477 698 166 698 478 698 478 699 166 699 165 699 478 700 165 700 479 700 479 701 165 701 164 701 479 702 164 702 480 702 480 703 164 703 162 703 480 704 163 704 481 704 482 705 163 705 161 705 482 706 161 706 483 706 483 707 161 707 160 707 483 707 160 707 484 707 484 708 160 708 159 708 484 709 159 709 485 709 485 710 159 710 158 710 485 710 158 710 486 710 486 711 158 711 157 711 486 712 157 712 487 712 487 713 157 713 156 713 487 713 156 713 488 713 488 714 156 714 176 714 488 715 176 715 489 715 489 716 176 716 175 716 489 716 175 716 490 716 490 717 175 717 174 717 490 718 174 718 491 718 491 719 174 719 173 719 491 719 173 719 492 719 492 720 173 720 171 720 492 721 172 721 493 721 494 722 172 722 170 722 494 723 170 723 495 723 495 724 170 724 169 724 495 725 169 725 496 725 496 726 169 726 168 726 496 727 168 727 497 727 497 728 168 728 167 728 497 729 167 729 498 729 498 730 167 730 188 730 498 731 188 731 499 731 499 732 188 732 187 732 499 733 187 733 439 733 439 734 187 734 367 734 439 735 367 735 366 735 500 736 487 736 501 736 501 736 487 736 488 736 501 737 488 737 502 737 502 736 488 736 489 736 502 736 489 736 503 736 503 736 489 736 490 736 503 738 490 738 504 738 504 736 490 736 491 736 504 739 491 739 505 739 505 736 491 736 492 736 505 740 492 740 506 740 506 741 492 741 493 741 506 736 494 736 507 736 507 736 494 736 495 736 507 742 495 742 508 742 508 743 495 743 496 743 508 736 496 736 509 736 510 736 477 736 511 736 512 744 477 744 478 744 512 745 478 745 513 745 513 746 478 746 479 746 513 736 479 736 514 736 514 747 479 747 480 747 514 736 480 736 515 736 515 736 480 736 481 736 515 748 482 748 516 748 516 749 482 749 483 749 516 736 483 736 517 736 517 736 483 736 484 736 517 736 484 736 518 736 518 736 484 736 485 736 518 736 485 736 500 736 500 736 485 736 486 736 500 736 486 736 487 736 519 736 474 736 520 736 520 750 474 750 475 750 520 751 475 751 521 751 521 752 475 752 432 752 521 753 432 753 522 753 522 754 432 754 431 754 522 755 431 755 523 755 523 756 431 756 430 756 523 757 430 757 524 757 524 758 430 758 429 758 524 736 429 736 525 736 525 759 429 759 428 759 525 736 428 736 526 736 526 760 428 760 427 760 526 761 427 761 527 761 527 762 427 762 425 762 527 763 425 763 528 763 510 764 425 764 476 764 510 765 476 765 477 765 529 736 461 736 530 736 530 736 461 736 462 736 530 766 462 766 531 766 531 736 462 736 463 736 531 736 463 736 532 736 532 736 463 736 464 736 532 767 464 767 533 767 533 736 464 736 465 736 533 768 465 768 534 768 535 736 465 736 466 736 535 769 466 769 536 769 537 770 466 770 467 770 537 771 467 771 538 771 538 736 467 736 468 736 538 772 468 772 539 772 539 773 468 773 469 773 539 736 470 736 540 736 519 774 470 774 471 774 519 775 472 775 473 775 496 776 497 776 509 776 541 777 497 777 498 777 541 778 498 778 542 778 543 779 498 779 499 779 543 780 499 780 544 780 544 781 499 781 439 781 544 736 439 736 545 736 545 782 439 782 438 782 545 783 438 783 546 783 546 784 438 784 435 784 546 785 435 785 547 785 547 786 435 786 437 786 547 736 437 736 548 736 548 787 437 787 444 787 548 736 444 736 549 736 549 788 444 788 443 788 549 789 443 789 550 789 550 790 443 790 441 790 550 736 441 736 551 736 441 791 447 791 551 791 551 792 447 792 448 792 551 793 449 793 552 793 553 794 449 794 451 794 553 795 452 795 554 795 554 796 452 796 453 796 554 736 454 736 555 736 555 797 454 797 455 797 555 736 455 736 556 736 557 736 455 736 456 736 557 736 456 736 558 736 559 798 456 798 457 798 559 736 457 736 560 736 560 736 457 736 458 736 560 736 458 736 561 736 561 736 458 736 459 736 561 736 459 736 529 736 529 736 459 736 460 736 529 736 460 736 461 736 562 799 547 799 563 799 563 800 547 800 548 800 563 26 548 26 564 26 564 801 548 801 549 801 564 28 549 28 565 28 565 802 549 802 550 802 565 803 550 803 566 803 566 31 550 31 551 31 566 804 551 804 567 804 567 805 551 805 552 805 567 806 553 806 568 806 569 36 553 36 554 36 569 807 554 807 570 807 570 808 554 808 555 808 570 38 555 38 571 38 571 809 555 809 556 809 571 810 557 810 572 810 573 811 557 811 558 811 573 812 559 812 574 812 575 813 559 813 560 813 575 44 560 44 576 44 576 814 560 814 561 814 576 45 561 45 577 45 577 47 561 47 529 47 577 815 529 815 578 815 578 816 529 816 530 816 578 817 530 817 579 817 579 51 530 51 531 51 579 52 531 52 580 52 580 53 531 53 532 53 580 818 532 818 581 818 581 819 532 819 533 819 581 55 533 55 582 55 582 820 533 820 534 820 582 58 535 58 583 58 584 821 535 821 536 821 584 822 537 822 585 822 586 823 537 823 538 823 586 824 538 824 587 824 587 825 538 825 539 825 587 64 539 64 588 64 588 826 539 826 540 826 588 827 519 827 589 827 590 828 519 828 520 828 590 67 520 67 591 67 591 829 520 829 521 829 591 830 521 830 592 830 592 831 521 831 522 831 592 832 522 832 593 832 593 72 522 72 523 72 593 833 523 833 594 833 594 834 523 834 524 834 594 835 524 835 595 835 595 836 524 836 525 836 595 76 525 76 596 76 596 837 525 837 526 837 596 838 526 838 597 838 597 80 526 80 527 80 597 839 527 839 598 839 598 840 527 840 528 840 598 841 510 841 599 841 600 842 510 842 511 842 600 843 512 843 601 843 602 86 512 86 513 86 602 86 513 86 603 86 603 844 513 844 514 844 603 88 514 88 604 88 604 845 514 845 515 845 604 846 515 846 605 846 605 847 515 847 516 847 605 848 516 848 606 848 606 849 516 849 517 849 606 94 517 94 607 94 607 850 517 850 518 850 607 851 518 851 608 851 608 97 518 97 500 97 608 852 500 852 609 852 609 99 500 99 501 99 609 99 501 99 610 99 610 853 501 853 502 853 610 100 502 100 611 100 611 102 502 102 503 102 611 854 503 854 612 854 612 855 503 855 504 855 612 856 504 856 613 856 613 857 504 857 505 857 613 107 505 107 614 107 614 858 505 858 506 858 614 859 506 859 615 859 615 860 506 860 507 860 615 861 507 861 616 861 616 862 507 862 508 862 616 863 508 863 617 863 617 864 508 864 509 864 617 115 541 115 618 115 619 865 541 865 542 865 619 866 543 866 620 866 621 867 543 867 544 867 621 118 544 118 622 118 622 868 544 868 545 868 622 869 545 869 623 869 623 870 545 870 546 870 623 122 546 122 562 122 562 871 546 871 547 871 605 872 606 872 607 872 573 873 575 873 576 873 600 736 566 736 598 736 598 874 566 874 567 874 605 736 607 736 566 736 566 875 607 875 608 875 566 876 608 876 609 876 573 736 576 736 598 736 598 877 576 877 577 877 598 878 577 878 578 878 604 736 605 736 603 736 603 736 605 736 566 736 603 879 566 879 601 879 602 880 566 880 599 880 612 736 613 736 611 736 611 736 613 736 566 736 611 736 566 736 610 736 610 736 566 736 609 736 614 881 622 881 613 881 613 882 622 882 623 882 613 883 623 883 562 883 571 736 573 736 570 736 570 736 573 736 598 736 570 884 598 884 568 884 569 885 598 885 567 885 581 736 582 736 580 736 580 736 582 736 598 736 580 736 598 736 579 736 579 736 598 736 578 736 584 736 586 736 592 736 584 886 592 886 582 886 582 887 592 887 593 887 582 888 593 888 594 888 619 889 621 889 617 889 617 890 621 890 622 890 617 736 622 736 616 736 616 736 622 736 614 736 616 891 614 891 615 891 565 736 566 736 564 736 564 736 566 736 613 736 564 736 613 736 563 736 563 736 613 736 562 736 591 892 592 892 589 892 590 736 592 736 585 736 590 736 586 736 588 736 588 736 586 736 587 736 597 736 598 736 596 736 596 736 598 736 582 736 596 736 582 736 595 736 595 736 582 736 594 736</p>
        </triangles>
      </mesh>
    </geometry>
  </library_geometries>
  <library_visual_scenes>
    <visual_scene id="Scene" name="Scene">
      <node id="Link5" name="Link5" type="NODE">
        <matrix sid="transform">1 0 0 0 0 1 0 0 0 0 1 0 0 0 0 1</matrix>
        <instance_geometry url="#Link5-mesh" name="Link5">
          <bind_material>
            <technique_common>
              <instance_material symbol="colour_abb_white_014-material" target="#colour_abb_white_014-material"/>
            </technique_common>
          </bind_material>
        </instance_geometry>
      </node>
    </visual_scene>
  </library_visual_scenes>
  <scene>
    <instance_visual_scene url="#Scene"/>
  </scene>
</COLLADA>