<?xml version="1.0" encoding="utf-8"?>
<COLLADA xmlns="http://www.collada.org/2005/11/COLLADASchema" version="1.4.1" xmlns:xsi="http://www.w3.org/2001/XMLSchema-instance">
  <asset>
    <contributor>
      <author>Blender User</author>
      <authoring_tool>Blender 2.82.7</authoring_tool>
    </contributor>
    <created>2024-02-04T10:46:19</created>
    <modified>2024-02-04T10:46:19</modified>
    <unit name="meter" meter="1"/>
    <up_axis>Z_UP</up_axis>
  </asset>
  <library_effects>
    <effect id="colour_abb_black-effect">
      <profile_COMMON>
        <technique sid="common">
          <lambert>
            <emission>
              <color sid="emission">0 0 0 1</color>
            </emission>
            <diffuse>
              <color sid="diffuse">0.09411765 0.0980392 0.1019608 1</color>
            </diffuse>
            <index_of_refraction>
              <float sid="ior">1</float>
            </index_of_refraction>
          </lambert>
        </technique>
      </profile_COMMON>
    </effect>
  </library_effects>
  <library_images/>
  <library_materials>
    <material id="colour_abb_black-material" name="colour_abb_black">
      <instance_effect url="#colour_abb_black-effect"/>
    </material>
  </library_materials>
  <library_geometries>
    <geometry id="Link6-mesh" name="Link6">
      <mesh>
        <source id="Link6-mesh-positions">
          <float_array id="Link6-mesh-positions-array" count="2178">-0.06499993 0.001769244 -0.008314192 -0.06499993 2e-6 -0.00849992 -0.06499993 -0.001765191 -0.008314192 -0.06499993 0.001769244 0.008314192 -0.06499993 0.001769244 0.008314311 -0.06499993 -0.001765191 0.008314192 -0.06499993 -0.001765191 0.008314311 -0.06499993 2e-6 0.008500039 -0.06499993 0.003459215 0.007765114 -0.06499993 0.004998147 0.006876647 -0.06499993 0.006318688 0.005687654 -0.06499993 -0.003455221 -0.007764995 -0.06499993 -0.004994153 -0.006876647 -0.06499993 -0.004994153 -0.006876528 -0.06499993 -0.006314694 -0.005687654 -0.06499993 -0.008451402 8.88526e-4 -0.06499993 -0.008081972 0.002626597 -0.06499993 -0.008451402 -8.88407e-4 -0.06499993 -0.008081972 -0.002626717 -0.06499993 -0.008081972 -0.002626597 -0.06499993 -0.007359206 -0.004249989 -0.06499993 -0.003455221 0.007765114 -0.06499993 -0.004994153 0.006876647 -0.06499993 -0.006314694 0.005687654 -0.06499993 -0.007359206 0.004249989 -0.06499993 0.008455395 -8.88407e-4 -0.06499993 0.008085966 -0.002626597 -0.06499993 0.008455395 8.88526e-4 -0.06499993 0.008085966 0.002626597 -0.06499993 0.0073632 0.004249989 -0.06499993 0.003459215 -0.007764995 -0.06499993 0.004998147 -0.006876647 -0.06499993 0.004998147 -0.006876528 -0.06499993 0.008085966 -0.002626717 -0.06499993 0.006318688 -0.005687654 -0.06499993 0.0073632 -0.004249989 -0.01311385 -0.001022517 0.00843805 -0.01311385 -0.00203216 0.008253157 -0.01311385 -0.001763045 0.00830239 -0.01311385 -0.003948092 0.007526457 -0.01311385 -0.003448903 0.007751047 -0.06499993 -0.003455221 0.007765233 -0.01311385 -0.00301212 0.007947623 -0.01311385 -0.00203216 0.008253037 -0.01311385 -0.005634486 0.006362497 -0.01311385 -0.004988014 0.006868779 -0.01311385 -0.004826545 0.006995499 -0.01311385 -0.007347404 0.004242956 -0.01311385 -0.006993353 0.004828631 -0.01311385 -0.006360292 0.005636632 -0.01311385 -0.006360292 0.005636513 -0.01311385 -0.006311953 0.005684912 -0.01311385 -0.007524371 0.003950178 -0.01311385 -0.007945597 0.003014147 -0.01311385 -0.008436024 0.001024544 -0.01311385 -0.008250951 0.002034246 -0.01311385 -0.008067727 0.002622187 -0.01311385 -0.008067727 0.002622306 -0.01311385 -0.008444249 8.8805e-4 -0.01311385 -0.008444249 8.88169e-4 -0.01311385 -0.008497953 0 -0.01311385 -0.008444249 -8.8805e-4 -0.01311385 -0.008436024 -0.001024544 -0.01311385 -0.008436024 -0.001024425 -0.01311385 -0.008250951 -0.002034127 -0.01311385 -0.007945597 -0.003014147 -0.01311385 -0.008067727 -0.002622187 -0.01311385 -0.006993353 -0.004828631 -0.01311385 -0.007347404 -0.004242837 -0.01311385 -0.007524371 -0.003950059 -0.01311385 -0.005634486 -0.006362259 -0.01311385 -0.006311953 -0.005684792 -0.01311385 -0.006360292 -0.005636394 -0.01311385 -0.006993353 -0.004828512 -0.01311385 -0.003448903 -0.007750928 -0.01311385 -0.003948092 -0.007526457 -0.01311385 -0.004826545 -0.006995379 -0.01311385 -0.004988014 -0.006868898 -0.01311385 -0.004988014 -0.006868779 -0.01311385 -0.00301212 -0.007947504 -0.01311385 -0.00203216 -0.008252918 -0.01311385 -0.001022517 -0.008437931 -0.01311385 -0.001763045 -0.008302271 -0.01311385 -0.001763045 -0.00830239 -0.01311385 0.001026511 -0.008437931 -0.01311385 2e-6 -0.00849992 -0.01311385 0.002036154 -0.008252918 -0.01311385 0.001767039 -0.008302271 -0.01311385 0.001767039 -0.00830239 -0.01311385 0.003952145 -0.007526457 -0.01311385 0.003452897 -0.007750928 -0.01311385 0.003016114 -0.007947504 -0.01311385 0.005638539 -0.006362259 -0.01311385 0.004992008 -0.006868898 -0.01311385 0.004992008 -0.006868779 -0.01311385 0.004830539 -0.006995379 -0.01311385 0.003952145 -0.007526338 -0.01311385 0.007351398 -0.004242837 -0.01311385 0.006997346 -0.004828631 -0.01311385 0.006364285 -0.005636394 -0.01311385 0.006315946 -0.005684792 -0.01311385 0.007528364 -0.003950059 -0.01311385 0.00794959 -0.003014147 -0.01311385 0.008440017 -0.001024425 -0.01311385 0.008255004 -0.002034127 -0.01311385 0.00807172 -0.002622187 -0.01311385 0.008448243 -8.8805e-4 -0.01311385 0.008501946 0 -0.01311385 0.008448243 8.8805e-4 -0.01311385 0.008448243 8.88169e-4 -0.01311385 0.008440017 0.001024544 -0.01311385 0.008255004 0.002034246 -0.01311385 0.00794959 0.003014266 -0.01311385 0.00807172 0.002622187 -0.01311385 0.00807172 0.002622306 -0.01311385 0.006997346 0.004828631 -0.01311385 0.007351398 0.004242956 -0.01311385 0.007528364 0.003950178 -0.01311385 0.00794959 0.003014147 -0.01311385 0.005638539 0.006362497 -0.01311385 0.006315946 0.005684912 -0.01311385 0.006364285 0.005636632 -0.01311385 0.006364285 0.005636513 -0.01311385 0.003452897 0.007751047 -0.01311385 0.003952145 0.007526457 -0.06499993 0.003459215 0.007765233 -0.01311385 0.004830539 0.006995499 -0.01311385 0.004992008 0.006868779 -0.01311385 0.003016114 0.007947623 -0.01311385 0.002036154 0.008253037 -0.01311385 2e-6 0.008500039 -0.01311385 0.001026511 0.00843805 -0.01311385 0.001767039 0.00830239 -0.009001135 0.01161777 0.02213209 -0.009001135 0.0142008 0.02057069 -0.009001135 -0.008861362 0.0233708 -0.009001135 -0.005979716 0.0242688 -0.009001135 -0.01161378 -0.02213209 -0.009001135 -0.01419681 -0.02057057 -0.01081621 0.01157522 -0.01341146 -0.01080834 0.01155453 -0.0134713 -0.01073646 0.01147907 -0.01391166 -0.0106554 0.01147598 -0.0143333 -0.01064324 0.01148456 -0.01438826 -0.01055788 0.01154565 -0.01477736 -0.01045417 0.01168489 -0.01519459 -0.01041638 0.01175707 -0.01533037 -0.009001135 0.0142008 -0.02057057 -0.01034331 0.01189661 -0.01559275 -0.01022803 0.01218026 -0.01595836 -0.01017212 0.01234835 -0.01611202 -0.01011765 0.0125122 -0.01626163 -0.01000499 0.01291745 -0.01651924 -0.00994277 0.01318109 -0.01662844 -0.009907603 0.01333087 -0.01669043 -0.009812951 0.01380413 -0.01679545 -0.009662747 0.01481682 -0.01672166 -0.009001135 0.01657676 -0.018709 -0.009689807 0.01458799 -0.01677995 -0.009754657 0.01414412 -0.01681715 -0.009754657 0.01414412 -0.01681703 -0.01088166 0.01286935 -0.01179033 -0.01089072 0.01274067 -0.01187509 -0.010908 0.01249063 -0.01203936 -0.01091265 0.01216667 -0.0123406 -0.01090359 0.01201629 -0.01253539 -0.0108968 0.01190102 -0.01268464 -0.01086032 0.01169097 -0.01307564 -0.01084899 0.01166135 -0.01316136 -0.009717583 0.01680439 -0.01438838 -0.009723424 0.01681143 -0.01434499 -0.009001135 0.02057254 -0.01419883 -0.009792923 0.01680934 -0.01391369 -0.009877324 0.01673358 -0.01347118 -0.009890794 0.01671278 -0.01341146 -0.009890794 0.01671278 -0.01341158 -0.009970068 0.01658898 -0.01305657 -0.01007306 0.0163722 -0.01266187 -0.01011216 0.01627188 -0.01253551 -0.01018273 0.01609057 -0.0123071 -0.01029479 0.01575464 -0.01200622 -0.01035559 0.01554685 -0.01187652 -0.01041126 0.01535665 -0.01175779 -0.01051914 0.01494121 -0.01158863 -0.01311385 0.006997346 -0.004828512 -0.01058959 0.01463353 -0.01152235 -0.01062738 0.01446843 -0.01148682 -0.01069366 0.01414412 -0.01146703 -0.01077282 0.01370191 -0.01150387 -0.01077282 0.01370191 -0.01150399 -0.01077997 0.01365345 -0.01151615 -0.01083624 0.01327383 -0.01161259 -0.01084852 0.01316475 -0.01166051 -0.009639263 0.01501744 -0.0166704 -0.009001135 0.01657676 -0.01870912 -0.009631395 0.01510787 -0.0166307 -0.009603619 0.01542472 -0.01649051 -0.009603619 0.01542472 -0.01649063 -0.009583711 0.01580005 -0.01624292 -0.009582161 0.01594001 -0.01611226 -0.009582161 0.01594001 -0.01611238 -0.009001135 0.01871109 -0.0165748 -0.009580254 0.01612603 -0.01593869 -0.009593009 0.01639348 -0.01558977 -0.009612083 0.01653122 -0.01533061 -0.009621858 0.01660293 -0.01519566 -0.009661197 0.01672935 -0.0148192 -0.009664654 0.01674026 -0.01478666 -0.009717583 0.01680439 -0.0143885 -0.01084649 0.01318037 0.01165515 -0.01080811 0.01347541 0.01155215 -0.01074123 0.0138868 0.01147955 -0.01074123 0.0138868 0.01147967 -0.01069366 0.01414412 0.01146715 -0.01069366 0.01414412 0.01146727 -0.01060056 0.01459187 0.01150494 -0.01049256 0.01504743 0.01162439 -0.01047646 0.01510846 0.01165229 -0.01038312 0.01545745 0.01181179 -0.01026785 0.01583975 0.01207321 -0.009001135 0.02057254 0.01419883 -0.009001135 0.02057254 0.01419895 -0.01023304 0.0159406 0.01217108 -0.01015639 0.01616251 0.01238673 -0.01004207 0.01644271 0.01277393 -0.009997248 0.01653033 0.01295393 -0.009941697 0.01663875 0.0131765 -0.009842991 0.01677209 0.01364284 -0.009797692 0.01679861 0.01389628 -0.009662747 0.01672375 0.01481491 -0.009001135 0.01871109 0.0165748 -0.009692668 0.01678562 0.01456409 -0.009763598 0.01681852 0.01408654 -0.01088106 0.01178818 0.01287513 -0.01090729 0.01202893 0.01250463 -0.01091289 0.01233261 0.01217383 -0.01091241 0.01234263 0.01216608 -0.01089715 0.01268208 0.01190203 -0.01086282 0.0130552 0.01169878 -0.01084852 0.01316481 0.01166051 -0.009721517 0.01435923 0.01680845 -0.009754657 0.01414412 0.01681715 -0.009685039 0.01463437 0.01676386 -0.009833097 0.01369684 0.01677948 -0.009841918 0.01365345 0.01676815 -0.009925961 0.01324784 0.01666253 -0.0100255 0.01283794 0.01647669 -0.01005351 0.01274007 0.01641029 -0.01013314 0.01246172 0.01622182 -0.01024436 0.01213622 0.01590973 -0.01029431 0.01201742 0.01574832 -0.01029431 0.01201742 0.0157482 -0.01036036 0.01186019 0.01553469 -0.01047039 0.01165932 0.01513284 -0.0105338 0.01158142 0.01487129 -0.01058208 0.01152205 0.01467186 -0.0106765 0.01147049 0.01422899 -0.0106765 0.01147049 0.01422911 -0.01073765 0.0114901 0.01389592 -0.01076579 0.01149904 0.01374298 -0.01083076 0.01160109 0.01331228 -0.01084768 0.01166415 0.01316493 -0.01087224 0.01175522 0.01295226 -0.009655952 0.01670962 0.01487237 -0.00964117 0.01667904 0.01499634 -0.009603738 0.01649355 0.01542109 -0.009586095 0.01627576 0.01575225 -0.00958383 0.0162487 0.01579326 -0.009001135 0.01657676 0.01870912 -0.009580254 0.01594454 0.01612049 -0.009593009 0.01559078 0.01639229 -0.009596109 0.01555073 0.01641362 -0.009621024 0.01520735 0.01659673 -0.009661316 0.01482099 0.01672703 -0.009665131 0.01478391 0.01673954 -0.009723424 -0.01680743 0.01434499 -0.009792923 -0.01680535 0.01391381 -0.009001135 -0.02056854 0.01419883 -0.009001135 -0.02056854 0.01419895 -0.00979638 -0.01680225 0.01389569 -0.009877324 -0.01672959 0.01347118 -0.009970068 -0.01658499 0.01305657 -0.00999701 -0.01652824 0.01295334 -0.01007306 -0.01636821 0.01266199 -0.01018273 -0.01608651 0.01230722 -0.01023292 -0.01593595 0.01217228 -0.01029479 -0.01575064 0.01200634 -0.01051914 -0.01493716 0.01158863 -0.01047599 -0.01510304 0.01165622 -0.01047599 -0.01510304 0.0116561 -0.01041126 -0.0153526 0.01175767 -0.01062738 -0.01446443 0.01148694 -0.01069366 -0.01414012 0.01146715 -0.01069366 -0.01414012 0.01146727 -0.01077282 -0.01369792 0.01150387 -0.01084852 -0.01316076 0.01166063 -0.01084673 -0.01317638 0.01165372 -0.01083624 -0.01326978 0.01161259 -0.01083624 -0.01326978 0.01161271 -0.009639263 -0.01501345 0.01667064 -0.009603619 -0.01542073 0.01649075 -0.009001135 -0.01657277 0.01870912 -0.009597063 -0.01554369 0.01640945 -0.009583711 -0.01579606 0.01624304 -0.009001135 -0.01870709 0.0165748 -0.009580254 -0.01612204 0.01593869 -0.009587168 -0.01626771 0.01574879 -0.009593009 -0.01638948 0.01558977 -0.009621858 -0.01659888 0.01519566 -0.009655594 -0.01670753 0.01487237 -0.009661197 -0.01672536 0.01481932 -0.009664654 -0.01673626 0.01478666 -0.01045417 -0.0116809 0.01519471 -0.01034331 -0.01189261 0.01559275 -0.009001135 -0.01419681 0.02057069 -0.01073646 -0.01147502 0.01391166 -0.0106554 -0.01147192 0.0143333 -0.01055788 -0.01154166 0.01477748 -0.0105344 -0.01157325 0.01487225 -0.01029431 -0.01201313 0.0157482 -0.01022803 -0.01217627 0.01595836 -0.01011765 -0.01250821 0.01626175 -0.01005399 -0.01273757 0.01640754 -0.01000499 -0.01291346 0.01651936 -0.009907603 -0.01332688 0.01669055 -0.009907603 -0.01332688 0.01669067 -0.009842991 -0.01365065 0.01676231 -0.009812951 -0.01380014 0.01679545 -0.009754657 -0.01414012 0.01681715 -0.009689807 -0.014584 0.01678007 -0.009684205 -0.01463073 0.01676815 -0.009662747 -0.01481282 0.01672166 -0.01088166 -0.01286536 0.01179045 -0.010908 -0.01248663 0.01203948 -0.01091015 -0.01234412 0.01217192 -0.01091265 -0.01216268 0.0123406 -0.0108968 -0.01189702 0.01268476 -0.01087164 -0.01175254 0.01295346 -0.01086032 -0.01168692 0.01307553 -0.01084899 -0.01165735 0.01316136 -0.01080834 -0.01155054 0.01347142 -0.01073908 -0.01147782 0.01389569 -0.01047039 -0.01165533 -0.01513284 -0.01058208 -0.01151806 -0.01467174 -0.01041626 -0.01175397 -0.01533025 -0.009721517 -0.01435524 -0.01680845 -0.009754657 -0.01414012 -0.01681703 -0.009833097 -0.01369285 -0.01677948 -0.009925961 -0.01324385 -0.01666241 -0.009942412 -0.01317596 -0.01663166 -0.0100255 -0.01283395 -0.01647657 -0.01013314 -0.01245766 -0.01622182 -0.010172 -0.01234394 -0.01611262 -0.01024436 -0.01213222 -0.01590961 -0.01036036 -0.01185619 -0.01553469 -0.01064264 -0.01148504 -0.01438802 -0.0106765 -0.0114665 -0.01422899 -0.01076579 -0.01149505 -0.01374286 -0.009603738 -0.01648956 -0.01542109 -0.009001135 -0.01870709 -0.0165748 -0.009611606 -0.01652854 -0.0153318 -0.00964117 -0.01667505 -0.01499623 -0.00958383 -0.01624464 -0.01579326 -0.009580254 -0.01594209 -0.0161187 -0.009001135 -0.01657277 -0.01870912 -0.009580254 -0.01594054 -0.01612049 -0.009001135 -0.01657277 -0.018709 -0.009593009 -0.01558679 -0.01639217 -0.009621024 -0.01520335 -0.01659661 -0.009631395 -0.01510429 -0.01663011 -0.009661316 -0.01481699 -0.01672691 -0.009665131 -0.01477992 -0.01673942 -0.01077914 -0.01365 -0.01152056 -0.01074123 -0.01388275 -0.01147955 -0.01069366 -0.01414012 -0.01146703 -0.01060056 -0.01458787 -0.01150482 -0.01026785 -0.0158357 -0.01207309 -0.01015639 -0.01615852 -0.01238673 -0.009001135 -0.02056854 -0.01419883 -0.01059043 -0.01463073 -0.01151603 -0.01049256 -0.01504343 -0.01162427 -0.01038312 -0.01545345 -0.01181167 -0.01035571 -0.01554423 -0.01187378 -0.0101124 -0.01626658 -0.01253598 -0.01004207 -0.01643866 -0.01277393 -0.009941697 -0.01663476 -0.0131765 -0.009891629 -0.01670241 -0.01341301 -0.009842991 -0.01676809 -0.01364284 -0.009763598 -0.01681452 -0.01408642 -0.009718775 -0.01679372 -0.01438814 -0.009692668 -0.01678162 -0.01456385 -0.009662747 -0.01671975 -0.01481491 -0.01081585 -0.01157355 -0.01341158 -0.01083076 -0.01159709 -0.01331216 -0.01083076 -0.01159709 -0.01331228 -0.01084768 -0.01166015 -0.01316493 -0.01088106 -0.01178419 -0.01287513 -0.0109055 -0.01200747 -0.01253134 -0.01090729 -0.01202493 -0.01250451 -0.01091289 -0.01232862 -0.01217383 -0.01089715 -0.01267808 -0.01190191 -0.01089191 -0.01273393 -0.01187151 -0.01086282 -0.01305121 -0.01169878 -0.01084852 -0.01316082 -0.01166051 -0.01080811 -0.01347142 -0.01155191 -0.01080811 -0.01347142 -0.01155215 -0.01079177 -0.001920402 0.01770895 -0.01083183 -0.001751065 0.01756566 -0.01090109 -0.00135082 0.01732236 -0.01091384 -0.001259267 0.01727801 -0.01093947 -0.001020848 0.01718944 -0.01093947 -0.001020848 0.01718956 -0.01096093 -8.20928e-4 0.01711517 -0.01001381 -0.002907693 0.02073031 -0.01006448 -0.002943098 0.02051943 -0.01006448 -0.002943098 0.02051931 -0.0101273 -0.002986729 0.02025943 -0.01024436 -0.002990186 0.01978415 -0.01026082 -0.002984642 0.01971763 -0.01026082 -0.002984642 0.01971775 -0.0103209 -0.002943038 0.01948076 -0.01037979 -0.00290209 0.01924759 -0.01049625 -0.002746999 0.01879888 -0.01051676 -0.002711653 0.01872104 -0.01051676 -0.002711653 0.01872092 -0.01057446 -0.002587914 0.01850467 -0.01057446 -0.002587914 0.01850455 -0.01062643 -0.002476334 0.01830953 -0.0107268 -0.002180516 0.01794177 -0.010728 -0.002175927 0.01793712 -0.01074683 -0.002109706 0.01786917 -0.01074683 -0.002109706 0.01786905 -0.009502172 3.14464e-4 0.02298361 -0.009498596 2e-6 0.02300006 -0.009001135 2e-6 0.02499514 -0.009506702 -4.69153e-4 0.02296286 -0.009001135 -0.003010809 0.02481299 -0.009534001 -9.73646e-4 0.02283698 -0.009538769 -0.001022517 0.02281564 -0.009575486 -0.001407742 0.02264815 -0.009637236 -0.00183916 0.0223686 -0.009654045 -0.001921772 0.02229326 -0.009708762 -0.002189695 0.02204853 -0.009800434 -0.00250715 0.02164429 -0.009834766 -0.00258845 0.02149575 -0.009841084 -0.00260365 0.0214681 -0.009896874 -0.002735793 0.02122658 -0.01001381 -0.002907693 0.02073043 -0.009835004 0.002591967 0.0214954 -0.009790658 0.00248301 0.02168649 -0.009001135 0.003014802 0.02481299 -0.009707331 0.002187967 0.02205461 -0.009691596 0.002120018 0.02212458 -0.009654521 0.001924335 0.02229112 -0.009623408 0.001760542 0.02243047 -0.009569287 0.001358866 0.02267557 -0.009561181 0.001282393 0.022713 -0.009539842 0.001024842 0.02281063 -0.009524703 8.41172e-4 0.02288025 -0.009503722 3.80902e-4 0.0229761 -0.009502172 3.14464e-4 0.02298372 -0.01039505 0.002890169 0.01918858 -0.01038086 0.002904951 0.01924329 -0.009001135 0.00598371 0.0242688 -0.01051092 0.002725839 0.01874285 -0.0103209 0.002947032 0.01948076 -0.01026201 0.002988278 0.01971358 -0.01026201 0.002988278 0.01971346 -0.01014447 0.002996027 0.02018851 -0.0101248 0.002989828 0.02026969 -0.01006448 0.002947151 0.02051943 -0.01006448 0.002947151 0.02051931 -0.01001191 0.002909719 0.0207383 -0.009906291 0.00275731 0.02118664 -0.009885549 0.002717375 0.02127534 -0.009841084 0.002607643 0.02146786 -0.01098787 -3.64289e-4 0.01702243 -0.01099038 -2.85111e-4 0.01701384 -0.01099455 2.00001e-6 0.01700001 -0.01098382 4.69198e-4 0.01703661 -0.01094806 9.66539e-4 0.01715928 -0.01094055 0.001026272 0.01718503 -0.01094055 0.001026272 0.01718491 -0.01089441 0.001399338 0.01734524 -0.01081776 0.001821935 0.01761513 -0.01079201 0.00192517 0.01770764 -0.01057446 0.002591967 0.01850455 -0.01311385 0.002036154 0.008253157 -0.01062178 0.00249207 0.01832693 -0.01062178 0.00249207 0.01832681 -0.01072788 0.002180099 0.01793795 -0.01072955 0.002175271 0.01793199 -0.009001135 0.02481484 -0.003012835 -0.009001135 0.02499705 0 -0.009001135 0.02427077 -0.005981624 -0.009001135 0.02337276 -0.008863389 -0.009001135 0.02213406 -0.01161581 -0.01311385 0.007351398 -0.004242718 -0.01041126 0.01535665 -0.01175767 -0.009001135 0.01161777 -0.02213209 -0.01311385 0.003452897 -0.007751047 -0.009001135 0.008865356 -0.0233708 -0.009001135 0.003014802 -0.02481275 -0.009001135 0.00598371 -0.0242688 -0.009001135 0.00598371 -0.02426868 -0.009001135 -0.005979716 -0.02426868 -0.009001135 -0.003010809 -0.02481275 -0.009001135 2e-6 -0.02499514 -0.01311385 -0.003448903 -0.007751047 -0.009001135 -0.008861362 -0.0233708 -0.009001135 -0.005979716 -0.0242688 -0.01038312 -0.01545345 -0.01181179 -0.01311385 -0.007347404 -0.004242718 -0.009001135 -0.02213001 -0.01161581 -0.009001135 -0.02336877 -0.008863389 -0.009001135 -0.02426677 -0.005981624 -0.009001135 -0.02481085 -0.003012835 -0.009001135 -0.02499306 0 -0.009001135 -0.02481085 0.003012835 -0.009001135 -0.02426677 0.005981743 -0.009001135 -0.02426677 0.005981862 -0.009001135 -0.02336877 0.008863389 -0.01311385 -0.007945597 0.003014266 -0.009001135 -0.02213001 0.01161581 -0.009001135 -0.01161378 0.02213209 -0.009001135 -0.008861362 0.02337092 -0.009001135 0.008865356 0.02337092 -0.009001135 0.008865356 0.0233708 -0.009001135 0.02213406 0.01161581 -0.009001135 0.02427077 0.005981862 -0.009001135 0.02337276 0.008863389 -0.009001135 0.02481484 0.003012835 -0.009001135 0.02427077 0.005981743 0 -0.01419681 0.02057069 0 -0.01161378 0.02213209 0 -0.008861362 0.02337092 0 -0.008861362 0.0233708 0 -0.007231533 0.02387875 0 -0.01870709 0.0165748 0 -0.01837331 0.0169087 0 -0.01657277 0.01870912 0 -0.02336877 -0.008863389 0 -0.02426677 -0.005981624 0 -0.02481085 -0.003012835 0 -0.02499306 0 0 -0.02481085 0.003012835 0 -0.02426677 0.005981743 0 -0.02426677 0.005981862 0 -0.02336877 0.008863389 0 -0.02213001 0.01161581 0 -0.02090412 0.01364368 0 -0.02056854 0.01419883 0 -0.02056854 0.01419895 0 -0.02090412 -0.01364368 0 -0.02213001 -0.01161581 0 -0.01161378 -0.02213209 0 -0.01419681 -0.02057057 0 -0.01657277 -0.01870912 0 -0.01657277 -0.018709 0 -0.01870709 -0.0165748 0 -0.02056854 -0.01419883 0 -0.02060282 -0.01414209 0 -0.02090412 -0.0136438 0 0.003014802 -0.02481275 0 2e-6 -0.02499514 0 -0.003010809 -0.02481275 0 -0.005979716 -0.0242688 0 -0.005979716 -0.02426868 0 -0.007231533 -0.02387875 0 -0.008861362 -0.0233708 0 0.01871109 -0.0165748 0 0.01657676 -0.01870912 0 0.01657676 -0.018709 0 0.0142008 -0.02057057 0 0.01161777 -0.02213209 0 0.008865356 -0.0233708 0 0.007235527 -0.02387875 0 0.00598371 -0.0242688 0 0.00598371 -0.02426868 0 0.02057254 0.01419895 0 0.02213406 0.01161581 0 0.02337276 0.008863389 0 0.02427077 0.005981743 0 0.02427077 0.005981862 0 0.02481484 0.003012835 0 0.02499705 0 0 0.02481484 -0.003012835 0 0.02427077 -0.005981624 0 0.02337276 -0.008863389 0 0.02213406 -0.01161581 0 0.02060681 -0.01414209 0 0.02057254 -0.01419883 0 0.01161777 0.02213209 0 0.0142008 0.02057069 0 0.01657676 0.01870912 0 0.0183773 0.0169087 0 0.01871109 0.0165748 0 0.02057254 0.01419883 0 -0.005979716 0.0242688 0 -0.003010809 0.02481299 0 2e-6 0.02499514 0 0.003014802 0.02481299 0 0.00598371 0.0242688 0 0.007235527 0.02387875 0 0.008865356 0.02337092 0 0.008865356 0.0233708 0 -0.01554828 0.01641649 0 -0.0127319 0.01641649 0 -0.01414012 0.01146727 0 -0.01317375 0.01164776 0 -0.01317375 0.01164788 0 -0.01233798 0.01216536 0 -0.01174557 0.01294988 0 -0.01147651 0.01389533 0 -0.01156723 0.01487427 0 -0.01200538 0.01575428 0 -0.01364856 0.01677161 0 -0.01463162 0.01677161 0 -0.0162748 0.01575428 0 -0.01671302 0.01487427 0 -0.01680368 0.01389533 0 -0.01653468 0.01294988 0 -0.01594227 0.01216536 0 -0.01510643 0.01164776 0 -0.01510643 0.01164788 0 -0.01414012 0.01146715 0 2.00001e-6 0.01700001 0 0.001028001 0.01718097 0 0.001930356 0.0177018 0 0.002600073 0.01850003 0 0.001930356 0.01770192 0 0.00295639 0.01947909 0 0.00295639 0.02052098 0 0.002600073 0.02150005 0 0.001930356 0.02229815 0 0.001930356 0.02229827 0 0.001028001 0.0228191 0 2.00001e-6 0.02300006 0 -0.001024007 0.0228191 0 -0.001926362 0.02229815 0 -0.001926362 0.02229827 0 -0.00259602 0.02150005 0 -0.002952396 0.02052098 0 -0.002952396 0.01947909 0 -0.00259602 0.01850003 0 -0.001926362 0.01770192 0 -0.001926362 0.0177018 0 -0.001024007 0.01718097 -0.01083183 -0.001751065 0.01756554 0 0.01680767 0.01389533 0 0.01653867 0.01294988 0 0.01511043 0.01164788 0 0.01594626 0.01216536 0 0.01414412 0.01146727 0 0.01511043 0.01164776 0 0.01671701 0.01487427 -0.009662747 0.01672375 0.01481503 0 0.0162788 0.01575428 0 0.01463562 0.01677161 0 0.01555234 0.01641649 0 0.0127359 0.01641649 0 0.01365256 0.01677161 0 0.01200944 0.01575428 0 0.01157122 0.01487427 0 0.01148051 0.01389533 0 0.01174956 0.01294988 0 0.01234197 0.01216536 0 0.01414412 0.01146715 0 0.01317781 0.01164776 0 0.01317781 0.01164788 0 0.01317781 -0.01663643 0 0.01234197 -0.01611894 0 0.01511043 -0.01663643 0 0.01414412 -0.01681715 0 0.01414412 -0.01681703 0 0.01594626 -0.01611894 0 0.01653867 -0.01533442 0 0.01680767 -0.01438885 0 0.01671701 -0.01341003 -0.009723424 0.01681143 -0.01434487 0 0.01678484 -0.01414209 0 0.0162788 -0.01253002 0 0.01555234 -0.01186782 0 0.01555234 -0.01186794 0 0.01463562 -0.01151269 0 0.01365256 -0.01151269 0 0.0127359 -0.01186794 0 0.0127359 -0.01186782 0 0.01200944 -0.01253002 0 0.01157122 -0.01341003 -0.01086032 0.01169097 -0.01307553 0 0.01150339 -0.01414209 0 0.01148051 -0.01438885 0 0.01174956 -0.01533442 -0.01045417 0.01168489 -0.01519471 0 -0.01653468 -0.01533442 0 -0.0162748 -0.01253002 0 -0.01554828 -0.01186782 0 -0.01414012 -0.01681703 0 -0.01317375 -0.01663643 0 -0.01233798 -0.01611894 0 -0.01174557 -0.01533442 -0.010172 -0.01234394 -0.01611274 0 -0.01147651 -0.01438885 0 -0.01156723 -0.01341003 0 -0.0114994 -0.01414209 0 -0.01200538 -0.01253002 0 -0.0127319 -0.01186782 0 -0.0127319 -0.01186794 0 -0.01364856 -0.01151269 0 -0.01463162 -0.01151269 0 -0.01554828 -0.01186794 0 -0.01671302 -0.01341003 0 -0.01680368 -0.01438885 -0.009718775 -0.01679372 -0.01438826 0 -0.01678085 -0.01414209 0 -0.01594227 -0.01611894 0 -0.01510643 -0.01663643 0 -0.01414012 -0.01681715 0 -0.02090412 0 0 -0.007231533 0.0169087 0 0.007235527 0.0169087 0 0.007235527 0 0 0.007235527 -0.01414209 0 -0.007231533 -0.01414209 0 -0.007231533 0</float_array>
          <technique_common>
            <accessor source="#Link6-mesh-positions-array" count="726" stride="3">
              <param name="X" type="float"/>
              <param name="Y" type="float"/>
              <param name="Z" type="float"/>
            </accessor>
          </technique_common>
        </source>
        <source id="Link6-mesh-normals">
          <float_array id="Link6-mesh-normals-array" count="3195">-1 0 0 -1 -4.98995e-6 0 -1 2.43552e-6 0 -1 8.28515e-6 0 -1 -3.04444e-6 0 -1 4.43318e-5 0 -1 -2.89561e-6 0 -1 -2.21653e-5 0 -1 3.01041e-6 0 -1 2.21653e-5 0 -1 -2.21777e-5 0 -1 6.27028e-6 0 -8.75693e-4 -0.1045188 0.9945226 -4.70895e-4 -0.3089964 0.9510631 2.33599e-4 -0.1799556 0.9836748 2.33561e-4 -0.1802015 0.9836297 2.99446e-4 -0.4102742 0.9119622 2.97341e-4 -0.4104052 0.9119033 -8.17101e-4 -0.2975445 0.9547076 -8.94024e-4 -0.6691179 0.7431558 1.92121e-4 -0.6165603 0.7873077 1.90317e-4 -0.5000396 0.8660026 -0.004644691 -0.6172874 0.786724 -9.77648e-4 -0.5172981 0.8558048 2.64681e-4 -0.855778 0.5173433 -0.001327157 -0.7871864 0.6167138 -1.3185e-4 -0.8090274 0.5877709 7.45535e-5 -0.7075467 0.7066667 7.45299e-5 -0.7071713 0.7070423 2.64679e-4 -0.8558273 0.5172619 -5.57756e-4 -0.9135487 0.4067293 -6.69175e-4 -0.9119044 0.4104022 -0.001146614 -0.9836224 0.1802376 2.86811e-4 -0.9547071 0.2975474 2.86129e-4 -0.954702 0.2975634 -0.004946351 -0.9981618 0.06040453 1.36289e-4 -0.9781457 0.2079207 1.38034e-4 -0.9981758 0.06037539 -8.97432e-4 -0.9999996 0 1.38034e-4 -0.9981758 -0.06037539 1.38034e-4 -0.998175 -0.06038886 -2.54452e-4 -0.9781513 -0.2078946 -0.001146197 -0.9836224 -0.1802376 -6.36685e-4 -0.9135378 -0.4067537 2.86813e-4 -0.9547278 -0.297481 2.86811e-4 -0.9547242 -0.2974924 2.65871e-4 -0.8558247 -0.5172662 2.6587e-4 -0.8558273 -0.5172619 -5.30028e-4 -0.9118845 -0.4104467 -8.91539e-4 -0.6690809 -0.7431892 7.61648e-5 -0.7071091 -0.7071046 7.4947e-5 -0.8090274 -0.5877709 -0.005261003 -0.7075368 -0.706657 -0.00132668 -0.7871422 -0.6167702 2.97324e-4 -0.410093 -0.9120437 -9.80629e-4 -0.5173832 -0.8557533 -3.6672e-4 -0.4999392 -0.8660605 1.88501e-4 -0.6165729 -0.7872979 1.90315e-4 -0.6167403 -0.7871667 2.97341e-4 -0.4104052 -0.9119033 -7.05859e-4 -0.3090571 -0.9510433 -4.03308e-4 -0.2975447 -0.9547079 -8.75703e-4 -0.1045188 -0.9945226 2.33584e-4 -0.1802015 -0.9836297 2.31352e-4 -0.1807985 -0.9835202 -8.75693e-4 0.1045188 -0.9945226 0 0.06039232 -0.9981747 0 -0.06039232 -0.9981747 -4.66861e-4 0.3090572 -0.9510434 2.33581e-4 0.1803771 -0.9835975 2.31332e-4 0.1800483 -0.9836578 2.97344e-4 0.410093 -0.9120437 2.97341e-4 0.4104048 -0.9119035 -8.17102e-4 0.2975447 -0.9547075 -8.90641e-4 0.6691179 -0.7431558 1.88506e-4 0.6168302 -0.7870963 1.88311e-4 0.4999891 -0.8660318 -0.004630982 0.6169238 -0.7870092 -9.77632e-4 0.5172984 -0.8558046 2.6589e-4 0.855826 -0.5172637 -0.001329064 0.787097 -0.616828 -1.30485e-4 0.8090274 -0.5877709 7.61871e-5 0.7075467 -0.7066667 7.61833e-5 0.7071108 -0.7071028 2.65889e-4 0.8558244 -0.5172667 -5.56641e-4 0.9135378 -0.4067537 -6.69532e-4 0.911884 -0.4104475 -0.00114572 0.9836219 -0.1802408 2.8683e-4 0.9547253 -0.2974891 2.86829e-4 0.9547286 -0.2974784 -0.00494498 0.9981596 -0.06044077 1.3629e-4 0.9781488 -0.2079058 1.38034e-4 0.9981757 -0.06037664 -8.97432e-4 0.9999996 0 1.38172e-4 0.9981752 0.06038475 1.38034e-4 0.9981732 0.06041693 -2.54558e-4 0.9781455 0.2079213 -0.001146554 0.983622 0.1802408 -6.38325e-4 0.9135483 0.4067298 2.8683e-4 0.9547542 0.297396 2.86147e-4 0.9547253 0.2974891 2.64705e-4 0.8557795 0.5173408 2.64704e-4 0.8558244 0.5172667 -5.31287e-4 0.9119045 0.4104022 -8.94044e-4 0.6691179 0.7431558 7.45667e-5 0.7071731 0.7070406 7.36154e-5 0.8090274 0.5877709 -0.005304157 0.7066655 0.7075279 -0.00132811 0.7871412 0.6167715 2.99427e-4 0.4102742 0.9119622 -9.77632e-4 0.5172984 0.8558046 -3.68466e-4 0.4999891 0.8660317 1.92122e-4 0.6172898 0.7867358 1.92121e-4 0.6165603 0.7873077 2.97341e-4 0.4104048 0.9119035 -7.06485e-4 0.3089965 0.9510629 -4.03342e-4 0.2975447 0.9547078 0 -0.06039232 0.9981747 0 0.06039232 0.9981747 -8.77019e-4 0.1045851 0.9945155 2.33561e-4 0.1802015 0.9836297 2.33581e-4 0.1803771 0.9835975 -0.9701914 0.1253663 0.2073936 -0.9701914 -0.0720995 0.2313662 -0.9701916 -0.1253725 -0.2073889 -0.970265 0.1493015 -0.1905127 -0.970544 0.1577767 -0.1820734 -0.9702841 0.1492739 -0.1904364 -0.9705056 0.1546506 -0.1849386 -0.9704339 0.1517671 -0.187683 -0.9703453 0.1474419 -0.1915487 -0.9703952 0.1499462 -0.189339 -0.9710437 0.1221 -0.2053431 -0.9709686 0.1250858 -0.2038962 -0.9703096 0.141611 -0.1960754 -0.9701356 0.1447154 -0.1946649 -0.9701257 0.1448822 -0.1945903 -0.9700254 0.1463303 -0.1940059 -0.9698086 0.1488919 -0.1931383 -0.9699245 0.1476887 -0.19348 -0.9695615 0.1511623 -0.192615 -0.970317 0.1607527 -0.1806758 -0.9699421 0.150075 -0.1915459 -0.9686393 0.1576188 -0.1920791 -0.9691931 0.1539784 -0.192238 -0.9703053 0.1769198 -0.1649459 -0.9703117 0.1760522 -0.1658344 -0.9703763 0.1709351 -0.1707371 -0.9703691 0.1718662 -0.1698408 -0.9703916 0.1707935 -0.1707918 -0.9703291 0.167447 -0.174422 -0.9703347 0.1679468 -0.1739094 -0.9702962 0.1634656 -0.1783377 -0.9702888 0.158419 -0.1828746 -0.9702903 0.1593356 -0.1820688 -0.9680111 0.1921722 -0.1613207 -0.9690178 0.1921226 -0.1552207 -0.9694657 0.1924642 -0.1519669 -0.9695071 0.1925362 -0.1516109 -0.9697697 0.1930949 -0.1492025 -0.9700019 0.1938876 -0.1466419 -0.9700426 0.1941077 -0.1460808 -0.9700924 0.1943783 -0.1453884 -0.9702188 0.1952971 -0.1432991 -0.9704679 0.1976521 -0.1382953 -0.9703431 0.1923719 -0.1463805 -0.9703809 0.1901164 -0.1490528 -0.9703863 0.1899664 -0.1492091 -0.9704009 0.1891632 -0.1501315 -0.970465 0.186474 -0.1530529 -0.9705689 0.1826912 -0.1569076 -0.9705513 0.1834802 -0.1560938 -0.9702319 0.1906179 -0.1493822 -0.9702908 0.1802266 -0.161413 -0.9702894 0.1799236 -0.1617596 -0.9703217 0.1599237 -0.1813843 -0.9702442 0.1630659 -0.1789857 -0.970214 0.1639302 -0.1783582 -0.9699341 0.1677913 -0.1762779 -0.9692807 0.1735007 -0.1743346 -0.9691944 0.174155 -0.1741622 -0.9689933 0.1738785 -0.1755515 -0.9697157 0.1754263 -0.1699326 -0.9701066 0.1773427 -0.165659 -0.9701657 0.1778879 -0.1647252 -0.9702978 0.1798496 -0.1617915 -0.9701955 0.1907524 -0.1494461 -0.9667435 0.1930971 -0.1676919 -0.9682915 0.1921423 -0.1596652 -0.9701915 0.1907663 0.1494548 -0.9706193 0.1814343 0.1580498 -0.9705042 0.1850454 0.1545312 -0.9704585 0.1868051 0.1526898 -0.9704015 0.1891449 0.15015 -0.9703575 0.1913533 0.1476157 -0.9704188 0.1849676 0.15516 -0.9703803 0.1967775 0.1401457 -0.9701597 0.1948779 0.1442669 -0.9701613 0.1948476 0.1442965 -0.9700565 0.1941516 0.1459301 -0.9699541 0.1936733 0.1472397 -0.9699028 0.1934771 0.1478354 -0.9696832 0.1928366 0.1500958 -0.9693142 0.1923122 0.1531214 -0.9703164 0.1809912 0.1604009 -0.9699263 0.1915993 0.1501096 -0.9687279 0.1920503 0.157108 -0.9692532 0.1922613 0.1535704 -0.9703088 0.1656079 0.1762807 -0.9703716 0.1708657 0.1708337 -0.9704077 0.1694683 0.1720157 -0.9703918 0.1706956 0.1708884 -0.9702985 0.175679 0.166306 -0.9703353 0.1740931 0.1677531 -0.9702972 0.1783214 0.1634775 -0.9702892 0.1821945 0.1591982 -0.9702824 0.1820494 0.1594052 -0.9687333 0.1570103 0.1921036 -0.968321 0.1595051 0.192126 -0.9692206 0.1537936 0.1922473 -0.9700945 0.146699 0.1933804 -0.9696118 0.1507374 0.1926944 -0.9699086 0.1477904 0.1934825 -0.9700549 0.1459719 0.1941284 -0.9700466 0.1460862 0.1940841 -0.9701207 0.1449765 0.194545 -0.9703187 0.1414103 0.1961753 -0.9702792 0.1421793 0.1958149 -0.9703454 0.1468732 0.1919842 -0.9703354 0.145943 0.1927435 -0.9703595 0.1476772 0.1912952 -0.970366 0.1482996 0.1907806 -0.9703943 0.1498309 0.1894353 -0.9704477 0.1524367 0.187068 -0.9704372 0.1520425 0.1874426 -0.9705541 0.1561691 0.1834013 -0.9702464 0.1494554 0.190486 -0.9706008 0.1598816 0.1799222 -0.9701808 0.1494443 0.1908289 -0.9702857 0.160743 0.1808524 -0.9702907 0.1615386 0.1801153 -0.9703214 0.1817513 0.1595082 -0.9703091 0.1811022 0.1603197 -0.9702421 0.1785874 0.1635143 -0.9699448 0.1763501 0.1676533 -0.9697381 0.1756744 0.1695486 -0.969217 0.1740972 0.1740942 -0.9689729 0.1756762 0.1738661 -0.9697304 0.1697995 0.1754746 -0.9698294 0.1687591 0.17593 -0.9701435 0.165111 0.1776517 -0.9702963 0.1618328 0.1798205 -0.970194 0.1494541 0.1907542 -0.9673436 0.1646565 0.1927039 -0.9682073 0.1601297 0.1921798 -0.9690106 -0.1921232 0.1552649 -0.9694588 -0.1924809 0.1519894 -0.9694724 -0.1924679 0.1519192 -0.9697321 -0.1929695 0.149608 -0.9700092 -0.1939067 0.1465687 -0.9699941 -0.1938461 0.146749 -0.9700749 -0.1942793 0.1456377 -0.970259 -0.1956317 0.1425687 -0.9701863 -0.1949844 0.1439436 -0.9703276 -0.1932291 0.1453509 -0.9703505 -0.19178 0.1471065 -0.9703807 -0.1901173 0.1490525 -0.9704005 -0.1891657 0.1501311 -0.9704676 -0.1863989 0.1531279 -0.9702964 -0.1817772 0.1596307 -0.9701926 -0.190753 0.1494647 -0.970693 -0.1794068 0.1599013 -0.9705526 -0.1834561 0.1561144 -0.9702262 -0.1637317 0.1784744 -0.9699048 -0.168147 0.1761003 -0.9699529 -0.1676079 0.1763494 -0.9692077 -0.1741231 0.1741203 -0.9690277 -0.1739539 0.1752871 -0.9697213 -0.1754397 0.1698871 -0.9697111 -0.1754034 0.1699826 -0.9701369 -0.1774936 0.1653197 -0.9703018 -0.1799094 0.1617007 -0.9702929 -0.1791232 0.1626238 -0.9701939 -0.1907576 0.1494501 -0.9668689 -0.1930289 0.1670457 -0.9682697 -0.192151 0.1597865 -0.9709643 -0.125066 0.2039288 -0.9704329 -0.1517727 0.1876838 -0.9703928 -0.1496942 0.1895509 -0.9703665 -0.1478486 0.1911276 -0.9703137 -0.1415156 0.1961244 -0.9703051 -0.1417127 0.1960244 -0.9701369 -0.1446968 0.1946723 -0.9700655 -0.1457402 0.1942489 -0.9699665 -0.1470479 0.1937574 -0.9698473 -0.1484417 0.1932912 -0.9695933 -0.1508505 0.1926994 -0.9694387 -0.1521215 0.1924777 -0.9692018 -0.1539165 0.1922438 -0.9686487 -0.1575652 0.1920756 -0.9673176 -0.164941 0.1925907 -0.9700026 -0.1499266 0.1913561 -0.9703189 -0.1605319 0.1808611 -0.9703202 -0.1597524 0.181543 -0.9702892 -0.1799244 0.1617599 -0.9703066 -0.1763545 0.1655425 -0.9703756 -0.1709371 0.170739 -0.9703665 -0.1721749 0.1695427 -0.9703841 -0.1708298 0.1707982 -0.9704002 -0.171487 0.1700463 -0.9703333 -0.1676936 0.1741614 -0.9702931 -0.1632086 0.1785898 -0.9702954 -0.1638106 0.1780253 -0.9702875 -0.1586373 0.1826923 -0.9701852 -0.1494328 0.1908152 -0.9705517 -0.1581418 0.1817161 -0.9702872 -0.1493539 0.1903582 -0.9705056 -0.1546454 0.1849426 -0.9704869 -0.153505 0.1859877 -0.9703629 -0.1480425 -0.1909954 -0.9703211 -0.1448944 -0.1936046 -0.9687492 -0.1569088 -0.1921054 -0.969213 -0.1538427 -0.1922461 -0.9696586 -0.1502796 -0.1928167 -0.9699599 -0.147277 -0.1936168 -0.9698988 -0.1479066 -0.1934422 -0.9700425 -0.1461358 -0.1940668 -0.9701511 -0.1445241 -0.1947299 -0.9701165 -0.1450387 -0.1945193 -0.9702795 -0.142129 -0.1958497 -0.9703301 -0.1459433 -0.1927694 -0.9703487 -0.1469734 -0.1918911 -0.9703894 -0.1495192 -0.1897063 -0.9704036 -0.150165 -0.1891232 -0.9704459 -0.1523046 -0.1871849 -0.9702425 -0.1785886 -0.1635107 -0.9702444 -0.178614 -0.1634718 -0.9699304 -0.1762484 -0.1678444 -0.969357 -0.1745098 -0.1728973 -0.969163 -0.174247 -0.1742444 -0.966327 -0.1939459 -0.1691072 -0.9697347 -0.1697551 -0.1754931 -0.970126 -0.1654655 -0.177417 -0.9702783 -0.162271 -0.1795218 -0.9702967 -0.1616903 -0.1799464 -0.9701941 -0.1494542 -0.1907541 -0.9673396 -0.1646584 -0.1927222 -0.9682742 -0.1597776 -0.192136 -0.9705012 -0.1852107 -0.1543519 -0.9704577 -0.1868084 -0.1526916 -0.970402 -0.1890991 -0.150205 -0.9701666 -0.194899 -0.1441923 -0.9703823 -0.1904954 -0.148559 -0.9703548 -0.1914422 -0.1475181 -0.9703505 -0.1917042 -0.1472056 -0.9704115 -0.1970316 -0.1395713 -0.9701129 -0.1945294 -0.1450498 -0.9700161 -0.1939673 -0.1464428 -0.969927 -0.1935532 -0.1475769 -0.9696822 -0.1928399 -0.1500978 -0.9696832 -0.192843 -0.1500875 -0.9692846 -0.1922756 -0.1533542 -0.968722 -0.1920479 -0.1571475 -0.9687214 -0.1920482 -0.157151 -0.9699294 -0.1915892 -0.150102 -0.9703158 -0.1811046 -0.1602758 -0.970317 -0.1812215 -0.160137 -0.9705488 -0.1559361 -0.183628 -0.9705821 -0.156893 -0.1826338 -0.9702383 -0.1493096 -0.1906416 -0.9706001 -0.1598826 -0.1799254 -0.970183 -0.1494814 -0.1907886 -0.9702862 -0.1609591 -0.1806571 -0.9703103 -0.1654541 -0.1764169 -0.9703407 -0.1678602 -0.17396 -0.970372 -0.1708492 -0.1708475 -0.9704084 -0.1694326 -0.172047 -0.9703935 -0.1708895 -0.1706852 -0.9703345 -0.1741694 -0.1676779 -0.9702861 -0.1793903 -0.16237 -0.9702965 -0.1781017 -0.1637212 -0.9702904 -0.1821919 -0.1591938 -0.9701876 -0.1907685 -0.1494779 -0.9706157 -0.1815332 -0.1579588 -0.9705122 -0.1848226 -0.1547473 -0.9702981 -0.02598875 0.2405124 -0.9703178 -0.02148389 0.2408774 -0.97035 -0.01846802 0.2409979 -0.9703868 -0.01474869 0.2411057 -0.970392 -0.01443523 0.2411037 -0.9697699 -0.04299479 0.2402036 -0.9695507 -0.04150372 0.2413482 -0.9699445 -0.04450309 0.239222 -0.9705068 -0.04979133 0.2358758 -0.9701991 -0.04678583 0.2377494 -0.9704017 -0.04883933 0.2365065 -0.9702349 -0.04706144 0.2375488 -0.9704114 -0.03965598 0.2381789 -0.9704443 -0.03813004 0.2382944 -0.9704922 -0.03580826 0.2384591 -0.9705054 -0.03521531 0.2384936 -0.9705628 -0.03266018 0.2386237 -0.970196 -0.04360669 0.2383658 -0.9707352 -0.00892955 0.2399866 -0.9701902 -0.04367256 0.2383773 -0.9702943 -0.02958673 0.2401118 -0.9702947 -0.02702993 0.2404112 -0.9702912 0.001636385 0.2419348 -0.9702897 -0.002402484 0.2419344 -0.9695084 -0.01478922 0.2446116 -0.9680408 -0.01014572 0.2505879 -0.9688208 -0.01348167 0.247396 -0.9691002 -0.01468938 0.2462298 -0.9697624 -0.01885914 0.2433211 -0.9701309 -0.02286005 0.2415029 -0.9701095 -0.02257877 0.241615 -0.970274 -0.02617257 0.2405895 -0.9703027 -0.02902114 0.240147 -0.9703032 -0.03273296 0.2396671 -0.9702051 -0.04368233 0.2383148 -0.9688634 -0.03809309 0.2446481 -0.9693299 -0.04029577 0.2424373 -0.9702878 0.02681773 0.2404628 -0.9702785 0.02613306 0.2405762 -0.9701709 0.02378094 0.2412531 -0.9700725 0.02200657 0.2418162 -0.97004 0.02161192 0.2419827 -0.9696708 0.01807683 0.2437452 -0.9694851 0.01695412 0.2445636 -0.9688523 0.01346188 0.2472733 -0.9689165 0.01375335 0.2470056 -0.9691979 0.01486295 0.2458344 -0.9700905 0.006312191 0.242662 -0.9701455 0.005201458 0.2424682 -0.9698755 0.04335558 0.2397122 -0.97121 0.05829441 0.2309826 -0.9704278 0.0491029 0.2363451 -0.9703372 0.04817092 0.236908 -0.9699385 0.04441952 0.2392621 -0.9700729 0.0454927 0.2385142 -0.9695622 0.04160088 0.241285 -0.9697762 0.04304683 0.2401691 -0.9693838 0.04061424 0.2421688 -0.9689905 0.03871613 0.2440463 -0.9700723 0.04377835 0.2388374 -0.9703118 0.02823776 0.2402037 -0.9702239 0.04258644 0.2384369 -0.970493 -0.008315265 0.2409862 -0.9705829 -0.004582405 0.2407238 -0.9702879 -0.01461267 0.241512 -0.9702924 -0.002445876 0.2419232 -0.9701914 0.01463401 0.2418981 -0.9706034 0.003438651 0.2406602 -0.9704531 0.0103265 0.2410692 -0.9703339 0.01805043 0.2410942 -0.9703613 0.01637917 0.2411029 -0.9703097 0.02217924 0.2408469 -0.9702951 0.02653944 0.2404645 -0.9704924 0.03576463 0.2384645 -0.9702737 0.0435512 0.2380597 -0.9705005 0.03223049 0.238935 -0.9701925 0.04366987 0.2383684 -0.9702346 0.04028218 0.2387934 -0.9702944 0.02664631 0.2404559 -0.9701917 0.241896 -0.01464819 -0.9701915 0.2418977 -0.01463145 -0.9701915 0.2383704 -0.04367935 -0.9701915 0.2383698 -0.04368495 -0.9701914 0.2313681 -0.07209444 -0.9701915 0.2313677 -0.07209461 -0.9701911 0.2313701 -0.07208985 -0.9701914 0.2209863 -0.09946811 -0.9701917 0.2209893 -0.09945881 -0.9701915 0.2073772 -0.1253923 -0.9701916 0.2073894 -0.1253718 -0.9701915 0.2073893 -0.1253719 -0.9702784 0.1957615 -0.1422576 -0.9703388 0.1929008 -0.1457118 -0.970342 0.1464544 -0.1923216 -0.9702758 0.1426422 -0.1954945 -0.9701912 0.1253628 -0.2073959 -0.9701913 0.1253736 -0.2073894 -0.9701911 0.09942275 -0.2210077 -0.9701918 0.09945482 -0.2209898 -0.9701912 0.04367411 -0.2383733 -0.9701931 0.043814 -0.2383394 -0.9701915 0.0720911 -0.2313684 -0.970192 0.07210558 -0.2313616 -0.9701924 0.09940713 -0.2210091 -0.970191 -0.04368358 -0.2383726 -0.9701922 -0.04363071 -0.2383766 -0.9701917 -0.0146439 -0.2418963 -0.9701918 -0.01463592 -0.2418959 -0.9701917 0.0146439 -0.2418958 -0.9701915 0.01463603 -0.2418974 -0.9701916 0.04366958 -0.2383719 -0.9701909 -0.1253856 -0.2073839 -0.970191 -0.09942382 -0.2210075 -0.9701918 -0.09945493 -0.2209898 -0.9701919 -0.0994569 -0.2209891 -0.970192 -0.07209891 -0.2313643 -0.9701913 -0.07210642 -0.2313644 -0.9701917 -0.04371559 -0.2383635 -0.9702642 -0.1967362 -0.141005 -0.9702784 -0.1957551 -0.1422669 -0.9701907 -0.2074148 -0.1253365 -0.9701916 -0.2073894 -0.1253718 -0.9701919 -0.2073987 -0.1253538 -0.9701918 -0.2209848 -0.09946662 -0.9701914 -0.2209898 -0.09945923 -0.9701911 -0.2313706 -0.07209002 -0.9701915 -0.2313677 -0.07209432 -0.9701915 -0.2313675 -0.07209444 -0.9701916 -0.2383696 -0.04368448 -0.9701915 -0.2383698 -0.04368436 -0.9701917 -0.241896 -0.01464813 -0.9701915 -0.2418977 -0.01463258 -0.9701915 -0.2418977 -0.01463037 -0.9701915 -0.2418977 0.01463234 -0.9701915 -0.2418977 0.01463317 -0.9701919 -0.2418953 0.01464813 -0.9701915 -0.2383708 0.04367864 -0.9701915 -0.2383703 0.04368299 -0.9701914 -0.231364 0.07210785 -0.9701914 -0.231366 0.07209974 -0.9701915 -0.2313625 0.07210958 -0.9701912 -0.220987 0.09946841 -0.9701914 -0.22099 0.09945899 -0.9701917 -0.2073992 0.1253541 -0.9701913 -0.2073901 0.1253722 -0.9701916 -0.2073888 0.1253722 -0.9702795 -0.1958463 0.1421337 -0.9703361 -0.1928276 0.1458271 -0.9703354 -0.1460235 0.192682 -0.9702759 -0.1426421 0.1954945 -0.9701912 -0.1253628 0.2073959 -0.9701915 -0.1253662 0.2073934 -0.9701912 -0.09942257 0.2210074 -0.9701917 -0.09946334 0.2209869 -0.9701912 -0.09945929 0.2209908 -0.9701916 -0.07210725 0.2313631 -0.9704837 0.03619164 0.2384361 -0.9702275 0.04644644 0.2377005 -0.9701905 0.07213449 0.2313593 -0.9701918 0.07209068 0.2313675 -0.9701912 0.09945929 0.2209908 -0.9701915 0.09945547 0.2209912 -0.9701911 0.09942275 0.2210077 -0.9701915 0.1253623 0.2073951 -0.9703333 0.1929062 0.1457408 -0.9702786 0.1957646 0.1422523 -0.9701915 0.2073893 0.1253719 -0.9701915 0.2073923 0.1253678 -0.9701915 0.2313658 0.07210004 -0.9701917 0.2313618 0.07210958 -0.9701913 0.2209904 0.09945946 -0.9701916 0.2209857 0.09946727 -0.970192 0.2073982 0.1253541 -0.9701915 0.2418977 -0.01463133 -0.9701915 0.2418976 0.01463329 -0.9701915 0.2418977 0.01463204 -0.9701917 0.2418962 0.01464819 -0.9701915 0.23837 0.04368323 -0.9701914 0.2383713 0.04367947 -0.9701914 0.2313638 0.07210785 0 -0.6167411 0.7871662 0 -0.5173156 0.8557948 0 -0.5173151 0.8557952 0 -0.4104294 0.9118924 1.17834e-5 -0.4104297 0.9118922 0 -0.2975457 0.9547077 -5.7578e-6 -0.2975152 0.9547172 0 -0.7871662 0.6167411 0 -0.7072728 0.7069408 -1.17833e-5 -0.7071122 0.7071014 0 -0.7070824 0.7071312 0 -0.6167421 0.7871654 0 -0.9119004 -0.4104117 0 -0.9547244 -0.2974919 0 -0.9547238 -0.2974939 0 -0.983619 -0.1802598 0 -0.9836187 -0.1802619 0 -0.9981756 -0.06037914 0 -0.9981755 -0.06038022 0 -0.9981754 0.0603826 0 -0.9981755 0.06038153 0 -0.9836201 0.1802549 -2.37677e-6 -0.9836204 0.1802528 0 -0.9547168 0.2975163 0 -0.9547174 0.2975144 0 -0.9119004 0.4104117 0 -0.9119004 0.4104117 0 -0.8557723 0.5173527 4.48575e-6 -0.8557804 0.5173393 6.85349e-6 -0.8558123 0.5172867 0 -0.7871661 0.6167411 4.4188e-6 -0.8557804 -0.5173393 0 -0.8557723 -0.5173527 0 -0.9119004 -0.4104117 0 -0.4103965 -0.9119073 0 -0.517344 -0.8557776 0 -0.5173445 -0.8557773 0 -0.6167166 -0.7871854 1.04445e-5 -0.6167176 -0.7871845 0 -0.7070925 -0.7071211 0 -0.7070925 -0.7071212 0 -0.7871811 -0.6167219 0 -0.7871812 -0.6167219 0 -0.8559361 -0.5170817 2.60283e-6 -0.8557433 -0.5174006 0 0.1802555 -0.9836198 0 0.06042724 -0.9981727 0 0.06042724 -0.9981727 0 -0.06042724 -0.9981727 0 -0.06042724 -0.9981727 0 -0.1802173 -0.9836269 1.33904e-5 -0.1802173 -0.9836269 0 -0.297393 -0.9547552 -1.31226e-5 -0.2974792 -0.9547284 0 -0.2975457 -0.9547077 0 -0.4103969 -0.9119071 0 0.7871817 -0.6167213 0 0.7071123 -0.7071014 9.3731e-6 0.7071122 -0.7071014 0 0.6167416 -0.7871657 0 0.517344 -0.8557776 0 0.5173442 -0.8557774 0 0.4103967 -0.9119071 0 0.4103965 -0.9119073 0 0.2975459 -0.9547076 -6.02561e-6 0.2975152 -0.9547172 -1.26377e-5 0.2974756 -0.9547295 -8.16813e-6 0.7871817 0.6167213 0 0.855791 0.5173218 0 0.9119004 0.4104117 0 0.9119004 0.4104117 0 0.9547206 0.2975041 -3.95016e-6 0.9547206 0.2975041 0 0.983621 0.1802499 0 0.9836208 0.1802499 0 0.9981755 0.06037938 0 0.9981755 0.06037938 0 0.9981757 -0.060377 0 0.9981757 -0.060377 0 0.9836183 -0.1802639 0 0.9836184 -0.1802639 0 0.9547241 -0.2974929 0 0.9119004 -0.4104117 0 0.9119004 -0.4104117 0 0.8557779 -0.5173435 2.02947e-6 0.8557804 -0.5173393 0 0.8558929 -0.5171532 0 0.7871817 -0.6167213 0 0.4103968 0.9119072 0 0.5173153 0.855795 0 0.5173151 0.8557952 0 0.6167416 0.7871657 0 0.7070831 0.7071305 -1.16829e-5 0.7071122 0.7071014 0 0.7072693 0.7069443 0 0.7871817 0.6167213 0 -0.2974759 0.9547293 0 -0.1802937 0.9836129 0 -0.1802937 0.9836128 0 -0.06034857 0.9981774 0 -0.06034857 0.9981774 0 0.06034857 0.9981774 0 0.06034857 0.9981774 0 0.1802937 0.9836128 0 0.2974756 0.9547295 -5.35616e-7 0.2974792 0.9547283 -1.27848e-5 0.2974823 0.9547274 0 0.4103965 0.9119071 8.7505e-4 0.5505497 -0.834802 0.001054108 -0.5363975 -0.8439648 0 -0.08248281 0.9965925 -0.004196405 -0.1835952 0.9829931 -9.73906e-4 -0.2462638 0.9692023 5.89876e-4 -0.4019181 0.9156755 5.89892e-4 -0.4049795 0.9143256 3.68755e-4 -0.526414 0.8502284 -0.01197284 -0.4033941 0.9149481 8.23753e-4 -0.6809005 0.7323756 8.23748e-4 -0.6807434 0.7325215 -0.002152562 -0.5495198 0.835478 -0.001332759 -0.9454178 0.3258582 -0.00414592 -0.9618127 0.2736772 -0.001329541 -0.9453745 0.3259836 7.21211e-4 -0.8809553 0.4731992 7.10557e-4 -0.7980215 0.6026287 -0.01300173 -0.8801664 0.4744873 -0.002898871 -0.7914967 0.6111667 -1.25746e-4 -0.9999729 0.007371604 1.24959e-4 -0.9852808 0.1709442 1.24981e-4 -0.9856268 0.1689379 -0.01737368 -0.792823 -0.6092045 9.36358e-4 -0.8951638 -0.4457363 9.56088e-4 -0.7898421 -0.6133098 -0.00475949 -0.8833882 -0.4686177 6.04756e-4 -0.9485204 -0.3167154 5.88626e-4 -0.9957351 -0.0922566 -0.02020323 -0.9498942 -0.3119181 -0.006735384 -0.988117 -0.1535563 0.001038372 -0.6736545 -0.7390457 -0.01542609 -0.5393575 -0.8419356 -0.003437042 -0.6752793 -0.7375541 -0.001437246 -0.06393164 -0.9979533 9.67553e-4 -0.2162324 -0.9763415 9.56076e-4 -0.3612425 -0.9324715 -0.0138359 -0.2190034 -0.975626 -0.002542674 -0.3833039 -0.9236188 8.56228e-4 0.3612457 -0.9324703 -0.02083688 0.5506127 -0.8345008 -0.00639981 0.4035313 -0.9149435 3.86991e-4 0.2465153 -0.9691388 3.68569e-4 0.2474411 -0.9689029 3.5729e-4 0 -1 -0.02441978 0.2441318 -0.9694346 -0.008781909 0.081959 -0.9965971 -0.004415094 0.6824526 -0.7309165 -0.003482639 0.6736517 -0.7390409 9.3721e-4 0.7934277 -0.6086639 9.37301e-4 0.7938358 -0.6081314 -0.003059148 0.8951578 -0.4457391 -0.005189359 0.8832309 -0.4689097 -0.01005917 0.9999289 0.006414413 -9.38643e-4 0.9872975 -0.1588798 5.97205e-4 0.9481869 -0.3177129 5.99961e-4 0.9479481 -0.3184244 5.99933e-4 0.9479117 -0.3185327 -0.02635002 0.9844084 0.1739135 1.45046e-4 0.9957354 -0.09225517 1.53105e-4 0.9856781 0.1686377 -0.004536449 0.9618119 0.2736738 -0.001235902 0.9441199 0.3296 9.12851e-4 0.6675536 0.7445613 -0.002424061 0.7828027 0.6222653 -0.004035651 0.7980169 0.6026217 7.31172e-4 0.8765774 0.4812605 7.31165e-4 0.876441 0.4815088 9.13036e-4 0.6672297 0.7448515 -0.003333091 0.5264986 0.8501694 -0.003564119 0.5291228 0.8485378 1.1125e-5 0.06054145 0.9981657 -0.004576504 0.209277 0.9778458 -0.002571344 0.1835978 0.9829981 8.60474e-4 0.3776184 0.925961 8.50013e-4 0.3770819 0.9261795 -0.02127486 -0.3932507 0.9191852 3.8202e-4 -0.1736832 0.9848016 3.93284e-4 -0.3949112 0.9187193 -0.004363298 -0.7795409 0.6263362 -0.002693057 -0.7660785 0.6427415 -0.004128694 -0.7747144 0.6322979 7.24107e-4 -0.6678186 0.7443238 7.09245e-4 -0.499914 0.8660748 -0.01881456 -0.6647594 0.7468206 -0.005604863 -0.5375049 0.8432422 -0.003215849 -0.9379867 0.3466564 8.78217e-4 -0.8719215 0.489645 8.78002e-4 -0.8717433 0.4899622 -0.002714216 -0.9998507 0.01706695 9.22007e-4 -0.9847052 0.1742267 9.08187e-4 -0.9396933 0.3420171 -0.01612669 -0.9838337 0.1783576 -0.009475409 -0.9646392 0.263404 -0.002556681 -0.9469875 -0.3212604 9.32409e-4 -0.9856461 -0.1688221 9.19676e-4 -0.9999996 0 -0.01611882 -0.9862068 -0.1647314 -0.009088933 -0.9971994 -0.07423496 3.95604e-4 -0.9396938 -0.3420169 -0.01653259 -0.8702309 -0.4923668 -0.009121656 -0.9126277 -0.4086901 -0.002572774 -0.7805653 -0.6250692 9.47987e-4 -0.8686234 -0.495472 9.47909e-4 -0.8692754 -0.4943273 -0.002539217 -0.5211222 -0.8534784 9.65506e-4 -0.6477888 -0.7618194 9.50744e-4 -0.7660809 -0.6427436 -0.01677393 -0.6499053 -0.7598302 -0.009230256 -0.7184783 -0.6954883 -0.002283573 -0.2039612 -0.9789764 9.48315e-4 -0.3543348 -0.9351183 9.35884e-4 -0.4999994 -0.8660253 -0.01644074 -0.3555676 -0.9345061 -0.009078562 -0.4406127 -0.8976515 -0.008628904 -0.114278 -0.9934114 -0.004005968 -0.1736818 -0.9847937 -2.18032e-7 -0.05257612 -0.9986169 4.05186e-7 0.07869619 -0.9968987 -0.004754781 0.1736812 -0.9847905 -5.39681e-4 0.2421317 -0.9702433 6.92949e-4 0.6736869 -0.7390166 -0.001202583 0.5439251 -0.839133 -0.004570484 0.4999086 -0.8660661 3.94521e-4 0.3987213 -0.9170721 3.94795e-4 0.3997651 -0.9166176 7.02234e-4 0.6743378 -0.7384226 -0.004247725 0.7660743 -0.6427381 -0.001952826 0.7866679 -0.6173735 -0.002613365 0.9450927 -0.3267922 -0.01479864 0.8786175 -0.4772969 3.85312e-4 0.9396938 -0.3420169 8.88403e-4 0.8762389 -0.4818763 8.8811e-4 0.8772025 -0.4801198 -0.001190662 0.9965072 0.08349919 -0.003878533 0.9999725 -0.006334483 -0.003390431 0.9999943 0 9.35092e-4 0.9861794 -0.1656786 9.37036e-4 0.9861885 -0.1656247 -0.001323282 0.9105097 0.4134857 -0.004260361 0.9447909 0.3276461 -0.003075063 0.9396893 0.3420156 9.20981e-4 0.9849777 0.1726796 9.21018e-4 0.9849538 0.1728154 -0.001380264 0.7165755 0.6975083 -0.001228988 0.7134441 0.7007111 -0.004408955 0.7785705 0.6275417 -0.002893149 0.7660779 0.6427414 8.84397e-4 0.8682124 0.496192 8.78913e-4 0.8683299 0.4959864 -0.001389086 0.435696 0.9000928 -0.004463672 0.5187337 0.8549243 -0.00280267 0.4999979 0.8660221 8.61043e-4 0.6460436 0.7633001 8.61405e-4 0.6461262 0.7632301 -0.00693053 -0.2389926 0.9709967 0 -0.07809418 0.996946 0 0.04810774 0.9988422 -0.001562476 0.1077214 0.99418 -0.004627048 0.1987752 0.9800342 -0.002693474 0.1736825 0.984798 8.25639e-4 0.3482234 0.9374113 8.36019e-4 0.3479361 0.937518 9.30749e-4 -0.994586 0.1039127 9.28436e-4 -0.8991178 0.4377059 -0.01935172 -0.692856 0.7208163 7.67042e-4 -0.5264145 0.8502277 7.87228e-4 -0.6970057 0.7170652 -0.02172726 -0.4108988 0.911422 4.601e-4 -0.1835989 0.9830011 4.62191e-4 -0.4157633 0.9094728 -0.005781769 -0.5632883 0.8262403 9.10957e-4 -0.7980197 0.6026307 -0.01761746 -0.8972358 0.4412003 -0.004441797 -0.8095208 0.5870745 9.16951e-4 -0.9618206 0.2736795 -0.016047 -0.9941375 0.1069265 -0.003392219 -0.9612614 0.2756177 7.88345e-4 -0.9709263 -0.2393776 7.88444e-4 -0.9708668 -0.2396187 -1.32069e-4 -0.995735 -0.09225964 -0.01420247 -0.9711946 -0.237864 -0.002446174 -0.9976587 -0.06834733 -4.66093e-4 -0.7324911 -0.6807764 3.82784e-4 -0.8345479 -0.5509353 3.79862e-4 -0.8951629 -0.4457389 -0.01181459 -0.8357275 -0.5490172 -0.001462161 -0.9164384 -0.4001731 -0.001764297 -0.3198478 -0.9474673 -0.001754641 -0.3193912 -0.9476214 -0.004517018 -0.3612387 -0.9324625 3.39246e-4 -0.4705247 -0.8823869 3.29738e-4 -0.6736553 -0.7390456 -0.02513533 -0.468428 -0.8831441 -0.009065568 -0.6090568 -0.7930748 -0.002647638 -0.0400145 -0.9991956 8.1057e-4 -0.1600543 -0.987108 8.10616e-4 -0.1605973 -0.9870197 7.43155e-4 0.5613219 -0.8275973 -0.001263618 0.4131572 -0.910659 -0.004481911 0.3612393 -0.9324625 3.62477e-4 0.2519332 -0.9677446 3.5157e-4 0 -1 -0.02533572 0.2572214 -0.9660204 -0.00895828 0.08548581 -0.9962992 7.43242e-4 0.5604779 -0.828169 -0.004031598 0.6736491 -0.7390403 -0.002372682 0.6925459 -0.7213699 0.001008749 0.9583048 -0.2857462 -0.003489673 0.8948808 -0.4462916 -0.003446459 0.8951576 -0.4457365 9.699e-4 0.8052088 -0.5929907 9.76707e-4 0.805416 -0.5927091 0.001008749 0.9583941 -0.2854471 -0.002860009 0.9957313 -0.09225594 -0.004514276 0.993393 -0.1146736 5.62155e-4 0.9193879 0.3933519 -0.005592167 0.9728587 0.2313327 -0.002215564 0.9618191 0.2736774 8.92112e-4 0.9982865 0.05850976 8.92126e-4 0.9982891 0.05846554 -1.05967e-4 0.7366433 0.6762815 -0.007102012 0.838301 0.5451615 -0.001303434 0.7980219 0.6026272 5.64918e-4 0.9193626 0.393411 5.64914e-4 0.9193309 0.393485 -0.00627166 0.4787791 0.8779131 8.72043e-5 0.6139502 0.7893449 8.72497e-5 0.61365 0.7895783 -0.007196009 -0.2520337 0.9676918 -1.11669e-5 -0.08409523 0.9964577 0 0.1835962 0.9830018 -0.01235389 0.04993569 0.9986761 -0.003915131 0.1741327 0.9847145 7.10854e-4 0.3294774 0.9441632 6.94146e-4 0.5264136 0.8502284 -0.01896101 0.3291904 0.9440732 -0.01873397 0.3317065 0.9431967 8.70008e-4 0.3822993 0.9240382 9.24873e-4 0.6741412 0.7386019 6.51986e-4 -0.4043122 0.9146209 6.33577e-4 -0.1838324 0.9829574 -0.02233803 -0.4003707 0.916081 -0.007611691 -0.2467136 0.9690586 -0.005350053 -0.5506357 0.8347287 -0.002970397 -0.5264129 0.850224 9.51955e-4 -0.6824362 0.7309445 8.67695e-4 -0.8829828 0.4694045 -0.003964364 -0.7980173 0.6026214 -0.003448069 -0.7936834 0.6083215 9.52136e-4 -0.682279 0.7310913 8.67932e-4 -0.8832008 0.4689943 -0.002474308 -0.9618268 0.2736477 -0.00646317 -0.9481544 0.3177444 4.52531e-4 -0.944184 -0.3294184 -6.11234e-4 -0.9856446 -0.1688328 -0.009105205 -0.9999388 -0.00629121 -7.9772e-4 -0.9957345 -0.09226095 -0.005997717 -0.9873942 0.1581665 3.31581e-4 -0.9957318 -0.0922935 3.41072e-4 -0.9872763 0.1590138 -0.006489038 -0.9480016 0.3181995 4.52635e-4 -0.944249 -0.329232 -0.004307925 -0.8951549 -0.4457345 -0.0018211 -0.8763189 -0.4817279 9.91451e-4 -0.5297439 -0.8481572 -0.003088831 -0.6666264 -0.7453857 -0.003727197 -0.6735851 -0.7391004 8.7133e-4 -0.7832766 -0.6216728 8.71319e-4 -0.7833504 -0.6215797 9.81807e-4 -0.5300768 -0.8479492 -0.003073334 -0.3613461 -0.9324267 -0.00423783 -0.3761584 -0.9265458 -4.23178e-4 0.08335942 -0.9965195 -0.006995618 -0.05947864 -0.9982051 -0.002433955 0 -0.9999971 9.32826e-4 -0.2105302 -0.9775869 9.33082e-4 -0.2108193 -0.9775246 7.87901e-4 0.549943 -0.8352019 -0.001583039 0.4024442 -0.9154431 -0.001588165 0.4025573 -0.9153935 -0.004034817 0.3613445 -0.9324237 3.31454e-4 0.2461416 -0.9692338 3.31464e-4 0.2456061 -0.9693697 7.87928e-4 0.5490893 -0.8357633 -0.003530383 0.6735842 -0.7391021 -0.002895712 0.6810042 -0.7322739 -0.002046108 0.8808465 -0.4733977 8.00087e-4 0.7914018 -0.6112959 7.9998e-4 0.7915301 -0.6111297 -5.61678e-4 0.9856033 -0.1690738 3.91811e-4 0.9452691 -0.3262914 3.89179e-4 0.8951628 -0.4457393 -0.01128756 0.9449636 -0.3269807 -0.01127588 0.9449099 -0.3271363 -0.008167147 0.9999268 -0.008926093 -9.08631e-4 0.9957345 -0.09226059 -0.005307614 0.9880524 0.1540268 3.74639e-4 0.9957312 -0.0922994 3.85509e-4 0.9878961 0.155117 9.24754e-4 0.6745521 0.7382267 -0.002885043 0.79056 0.612378 -0.003702223 0.7980166 0.6026241 8.23554e-4 0.8828235 0.4697043 8.04569e-4 0.9618293 0.2736491 -0.01861077 0.8847008 0.465788 -0.005747795 0.9489851 0.3152688 8.58849e-4 0.5264142 0.8502278 -0.01473623 0.3855466 0.9225708 -0.002861857 0.5370412 0.8435513 -0.007547497 -0.2459858 0.9692441 -1.21407e-5 -0.08350044 0.9965078 0 0.183714 0.9829798 -0.01199644 0.06538182 0.9977883 -0.001967906 0.21701 0.9761675 6.93618e-4 0.9163923 0.4002807 0.001003086 0.8104319 -0.5858321 6.98566e-4 0.5645635 -0.8253893 0 -0.08366549 0.996494 -0.004602193 -0.1837117 0.9829694 -7.51029e-4 -0.252433 0.9676141 5.26997e-4 -0.4124469 0.9109815 5.26869e-4 -0.4128749 0.9107877 -0.004287362 -0.5264095 0.8502204 -0.001776278 -0.5610136 0.8278047 9.04609e-4 -0.8943812 0.4473045 -0.00284624 -0.8056807 0.5923433 -0.003712832 -0.7980165 0.6026242 8.47431e-4 -0.6921503 0.7217529 8.55746e-4 -0.6924317 0.721483 9.04543e-4 -0.8944278 0.4472117 -0.003017425 -0.9618257 0.2736462 -0.003840267 -0.9586764 0.284473 -0.003820836 -0.9957275 -0.09226262 -0.002592206 -0.9982488 -0.05909931 -0.002314329 -0.9957299 -0.0922867 8.02399e-4 -0.9932817 0.1157188 8.02397e-4 -0.9932638 0.1158728 -0.006182968 -0.9190373 -0.3941224 -0.006171822 -0.9189771 -0.3942627 -0.001552581 -0.8951628 -0.4457367 6.03487e-4 -0.9730326 -0.2306668 6.03453e-4 -0.9730823 -0.2304573 -0.007559061 -0.6143066 -0.7890312 -2.6391e-4 -0.7365174 -0.6764185 2.23854e-4 -0.838082 -0.5455445 2.23989e-4 -0.8386859 -0.5446154 -0.02098774 -0.4792813 -0.8774104 3.78172e-4 -0.6736537 -0.7390471 3.7886e-4 -0.478149 -0.8782787 7.41296e-4 -0.1733564 -0.9848589 7.41166e-4 -0.1728214 -0.9849529 -0.002517223 -0.3612408 -0.9324692 -0.005000293 -0.3300111 -0.9439638 -0.004993438 -0.3301507 -0.9439151 3.26451e-4 0.2537865 -0.9672603 3.26325e-4 0.2529603 -0.9674767 -7.42181e-4 0 -0.9999998 -0.008044004 0.08243346 -0.9965642 -0.002014219 -0.04895585 -0.998799 6.69115e-4 0.3613519 -0.9324293 -0.02050918 0.5603581 -0.8279966 -0.006586074 0.4144307 -0.9100571 9.82441e-4 0.6736533 -0.739047 -0.01836246 0.8072232 -0.5899607 -0.005132436 0.6959442 -0.7180776 0.001092493 0.8951627 -0.4457384 -0.016671 0.9603475 -0.2783072 -0.004011452 0.898653 -0.438642 -0.002106785 0.9710064 0.2390444 0.001025557 0.9976239 0.06888765 0.001012623 0.9957313 -0.09229421 -0.003055274 0.9976601 0.06830251 -0.003964006 0.9957273 -0.09225773 -0.003091096 0.9945022 -0.1046703 0.001112043 0.9615572 -0.274603 6.88097e-4 0.9618298 0.2736479 -0.0129168 0.9167806 0.3991824 -0.00211066 0.970988 0.2391191 2.68458e-5 0.7980226 0.6026275 -0.01043254 0.7323859 0.6808099 -0.001033663 0.8354206 0.5496104 6.93005e-4 0.320374 0.947291 -0.001086652 0.4704043 0.8824504 -0.004711866 0.5264065 0.85022 -2.00076e-5 0.6091164 0.7930809 2.7516e-5 0.7538707 0.657023 1.2343e-5 0.03987085 0.9992049 -0.002670288 0.1600655 0.9871028 -0.004268944 0.1837137 0.9829706 7.15751e-4 0.320064 0.9473957 6.93054e-4 0.3193638 0.947632 1 0 0</float_array>
          <technique_common>
            <accessor source="#Link6-mesh-normals-array" count="1065" stride="3">
              <param name="X" type="float"/>
              <param name="Y" type="float"/>
              <param name="Z" type="float"/>
            </accessor>
          </technique_common>
        </source>
        <vertices id="Link6-mesh-vertices">
          <input semantic="POSITION" source="#Link6-mesh-positions"/>
        </vertices>
        <triangles material="colour_abb_black-material" count="1260">
          <input semantic="VERTEX" source="#Link6-mesh-vertices" offset="0"/>
          <input semantic="NORMAL" source="#Link6-mesh-normals" offset="1"/>
          <p>0 0 1 0 2 0 0 0 2 0 3 0 4 0 2 0 5 0 4 0 6 0 7 0 4 0 8 0 0 0 0 1 8 1 9 1 0 2 9 2 10 2 2 3 11 3 5 3 6 0 11 0 12 0 6 4 13 4 14 4 15 5 16 5 17 5 17 6 16 6 5 6 17 0 6 0 18 0 19 0 6 0 14 0 19 7 14 7 20 7 21 0 6 0 22 0 22 0 6 0 16 0 22 0 16 0 23 0 23 7 16 7 24 7 25 0 26 0 27 0 27 0 26 0 0 0 27 0 0 0 28 0 28 8 0 8 10 8 28 9 10 9 29 9 30 10 0 10 31 10 32 11 0 11 33 11 32 0 26 0 34 0 34 9 26 9 35 9 7 12 6 12 36 12 21 13 37 13 5 13 6 14 37 14 38 14 6 15 38 15 36 15 39 16 40 16 41 16 21 17 40 17 42 17 21 18 42 18 43 18 23 19 44 19 22 19 22 20 44 20 45 20 22 21 45 21 41 21 21 22 45 22 46 22 21 23 46 23 39 23 47 24 48 24 24 24 24 25 48 25 49 25 24 26 50 26 23 26 23 27 50 27 51 27 23 28 51 28 44 28 47 29 24 29 52 29 52 30 24 30 16 30 52 31 16 31 53 31 54 32 55 32 16 32 16 33 55 33 56 33 16 34 57 34 53 34 54 35 16 35 58 35 59 36 16 36 15 36 59 37 15 37 60 37 60 38 15 38 17 38 60 39 17 39 61 39 61 40 17 40 62 40 63 41 17 41 18 41 63 42 19 42 64 42 20 43 65 43 18 43 19 44 65 44 66 44 19 45 66 45 64 45 67 46 68 46 20 46 20 47 68 47 69 47 20 48 69 48 65 48 13 49 70 49 14 49 14 50 70 50 71 50 14 51 71 51 20 51 20 52 71 52 72 52 20 53 72 53 73 53 74 54 75 54 11 54 11 55 75 55 76 55 11 56 76 56 12 56 13 57 76 57 77 57 13 58 78 58 70 58 74 59 11 59 79 59 79 60 11 60 2 60 79 61 2 61 80 61 1 62 81 62 2 62 2 63 81 63 82 63 2 64 83 64 80 64 0 65 84 65 1 65 1 66 84 66 85 66 1 67 85 67 81 67 30 68 86 68 0 68 0 69 86 69 87 69 0 70 88 70 84 70 89 71 90 71 30 71 30 72 90 72 91 72 30 73 91 73 86 73 34 74 92 74 31 74 32 75 92 75 93 75 32 76 94 76 30 76 30 77 94 77 95 77 30 78 95 78 96 78 97 79 98 79 35 79 35 80 98 80 99 80 35 81 99 81 34 81 34 82 99 82 100 82 34 83 100 83 92 83 97 84 35 84 101 84 101 85 35 85 33 85 101 86 26 86 102 86 103 87 104 87 33 87 26 88 104 88 105 88 26 89 105 89 102 89 103 90 26 90 106 90 106 91 26 91 25 91 106 92 25 92 107 92 107 93 25 93 27 93 107 94 27 94 108 94 109 95 27 95 110 95 110 96 27 96 28 96 110 97 28 97 111 97 29 98 112 98 28 98 28 99 112 99 113 99 28 100 114 100 111 100 115 101 116 101 29 101 29 102 116 102 117 102 29 103 117 103 118 103 9 104 119 104 10 104 10 105 119 105 120 105 10 106 120 106 29 106 29 107 120 107 121 107 29 108 122 108 115 108 123 109 124 109 125 109 8 110 124 110 126 110 8 111 126 111 9 111 9 112 126 112 127 112 9 113 127 113 119 113 123 114 8 114 128 114 128 115 8 115 3 115 128 116 4 116 129 116 36 117 130 117 7 117 7 118 130 118 131 118 7 119 131 119 3 119 4 120 131 120 132 120 4 121 132 121 129 121 133 122 134 122 126 122 135 123 136 123 43 123 137 124 138 124 76 124 92 125 139 125 93 125 94 126 139 126 140 126 94 127 140 127 95 127 95 128 140 128 141 128 141 129 142 129 95 129 95 130 142 130 143 130 95 131 143 131 144 131 145 132 146 132 147 132 147 133 146 133 148 133 147 134 148 134 149 134 149 135 150 135 147 135 147 136 150 136 151 136 147 137 151 137 152 137 152 138 153 138 147 138 147 139 153 139 154 139 147 140 154 140 155 140 156 141 157 141 158 141 158 142 157 142 147 142 158 143 147 143 159 143 160 144 147 144 155 144 161 145 162 145 99 145 99 146 162 146 163 146 99 147 163 147 100 147 100 148 163 148 164 148 100 149 164 149 92 149 92 150 164 150 165 150 92 151 165 151 166 151 166 152 167 152 92 152 92 153 167 153 168 153 92 154 168 154 139 154 169 155 170 155 171 155 170 156 172 156 171 156 171 157 172 157 173 157 171 158 173 158 174 158 175 159 176 159 171 159 171 160 176 160 177 160 171 161 177 161 178 161 178 162 179 162 171 162 171 163 179 163 180 163 171 164 180 164 181 164 182 165 183 165 184 165 98 166 183 166 185 166 185 167 186 167 184 167 98 168 186 168 187 168 98 169 187 169 188 169 189 170 190 170 184 170 98 171 190 171 191 171 98 172 191 172 99 172 99 173 191 173 192 173 99 174 192 174 161 174 156 175 193 175 194 175 157 176 193 176 195 176 157 177 195 177 196 177 197 178 198 178 194 178 157 179 198 179 199 179 157 180 200 180 201 180 200 181 202 181 201 181 201 182 202 182 203 182 201 183 203 183 204 183 204 184 205 184 201 184 201 185 205 185 206 185 201 186 206 186 171 186 171 187 206 187 207 187 171 188 207 188 208 188 209 189 115 189 121 189 209 190 210 190 115 190 115 191 210 191 211 191 115 192 212 192 213 192 214 193 215 193 115 193 115 194 215 194 216 194 115 195 216 195 217 195 218 196 219 196 220 196 221 197 219 197 222 197 222 198 223 198 220 198 221 199 223 199 224 199 221 200 224 200 225 200 225 201 226 201 220 201 221 202 226 202 227 202 221 203 227 203 228 203 229 204 230 204 231 204 231 205 230 205 220 205 231 206 221 206 232 206 232 207 221 207 228 207 119 208 233 208 234 208 119 209 234 209 120 209 120 210 234 210 235 210 120 211 235 211 121 211 122 212 235 212 236 212 122 213 236 213 237 213 237 214 238 214 121 214 122 215 238 215 239 215 122 216 239 216 209 216 240 217 241 217 134 217 240 218 134 218 242 218 241 219 243 219 134 219 134 220 243 220 244 220 134 221 244 221 245 221 245 222 246 222 134 222 134 223 246 223 247 223 134 224 247 224 248 224 248 225 249 225 134 225 134 226 249 226 250 226 134 227 251 227 126 227 251 228 252 228 126 228 126 229 252 229 253 229 126 230 253 230 254 230 254 231 255 231 126 231 126 232 255 232 256 232 126 233 257 233 258 233 258 234 259 234 126 234 126 235 259 235 260 235 126 236 260 236 127 236 127 237 260 237 261 237 127 238 261 238 119 238 119 239 261 239 262 239 119 240 262 240 233 240 229 241 263 241 230 241 230 242 263 242 264 242 230 243 264 243 265 243 265 244 266 244 230 244 230 245 266 245 267 245 230 246 267 246 268 246 267 247 269 247 268 247 268 248 269 248 270 248 268 249 270 249 271 249 271 250 272 250 268 250 268 251 272 251 273 251 268 252 273 252 134 252 134 253 273 253 274 253 134 254 274 254 242 254 275 255 276 255 277 255 278 256 276 256 279 256 278 257 279 257 280 257 280 258 281 258 277 258 278 259 281 259 282 259 278 260 282 260 283 260 283 261 284 261 277 261 278 262 284 262 285 262 278 263 285 263 286 263 287 264 48 264 288 264 289 265 48 265 290 265 287 266 291 266 48 266 48 267 291 267 292 267 48 268 293 268 294 268 295 269 50 269 296 269 296 270 50 270 48 270 296 271 48 271 297 271 298 272 48 272 294 272 299 273 300 273 301 273 300 274 302 274 301 274 301 275 302 275 303 275 301 276 303 276 304 276 304 277 303 277 305 277 305 278 306 278 304 278 304 279 306 279 307 279 304 280 307 280 308 280 308 281 309 281 304 281 304 282 309 282 310 282 304 283 310 283 277 283 278 284 310 284 311 284 278 285 311 285 275 285 312 286 313 286 314 286 315 287 316 287 46 287 46 288 316 288 317 288 46 289 317 289 318 289 313 290 319 290 314 290 314 291 319 291 320 291 314 292 320 292 321 292 321 293 322 293 314 293 314 294 322 294 323 294 314 295 323 295 324 295 325 296 326 296 314 296 314 297 326 297 327 297 314 298 327 298 328 298 328 299 329 299 314 299 314 300 329 300 330 300 314 301 330 301 301 301 301 302 330 302 331 302 301 303 331 303 299 303 295 304 332 304 49 304 50 305 332 305 333 305 50 306 333 306 51 306 51 307 333 307 334 307 51 308 334 308 44 308 334 309 335 309 44 309 44 310 335 310 336 310 44 311 336 311 337 311 337 312 338 312 44 312 44 313 338 313 339 313 44 314 339 314 45 314 45 315 339 315 340 315 45 316 340 316 46 316 46 317 340 317 341 317 46 318 341 318 315 318 342 319 343 319 76 319 342 320 76 320 344 320 345 321 346 321 138 321 138 322 346 322 347 322 138 323 347 323 348 323 348 324 349 324 138 324 138 325 349 325 350 325 138 326 350 326 351 326 351 327 352 327 138 327 138 328 352 328 353 328 138 329 353 329 76 329 76 330 353 330 354 330 76 331 354 331 344 331 343 332 355 332 76 332 76 333 355 333 356 333 76 334 356 334 357 334 358 335 359 335 360 335 360 336 359 336 361 336 358 337 362 337 359 337 359 338 362 338 363 338 359 339 363 339 364 339 363 340 365 340 364 340 366 341 365 341 367 341 366 342 367 342 368 342 368 343 369 343 364 343 366 344 369 344 370 344 366 345 370 345 138 345 138 346 370 346 371 346 138 347 371 347 345 347 372 348 373 348 73 348 67 349 373 349 374 349 67 350 374 350 375 350 376 351 377 351 378 351 375 352 379 352 73 352 67 353 379 353 380 353 67 354 380 354 381 354 376 355 378 355 382 355 377 356 383 356 378 356 378 357 383 357 384 357 378 358 384 358 385 358 385 359 386 359 378 359 378 360 386 360 387 360 378 361 387 361 388 361 388 362 389 362 378 362 378 363 389 363 390 363 378 364 390 364 359 364 359 365 390 365 391 365 359 366 391 366 361 366 357 367 392 367 76 367 76 368 392 368 393 368 76 369 394 369 77 369 78 370 394 370 395 370 78 371 395 371 70 371 70 372 395 372 396 372 396 373 397 373 70 373 70 374 397 374 398 374 70 375 398 375 71 375 71 376 398 376 399 376 71 377 399 377 72 377 72 378 399 378 400 378 72 379 400 379 401 379 401 380 402 380 72 380 72 381 402 381 403 381 72 382 403 382 73 382 67 383 403 383 404 383 67 384 405 384 372 384 406 385 407 385 36 385 36 386 407 386 408 386 408 387 409 387 36 387 36 388 409 388 410 388 36 389 411 389 412 389 136 390 413 390 414 390 415 391 416 391 136 391 136 392 416 392 417 392 136 393 417 393 418 393 419 394 420 394 136 394 136 395 420 395 421 395 136 396 421 396 43 396 421 397 422 397 43 397 37 398 422 398 423 398 37 399 424 399 425 399 426 400 427 400 43 400 37 401 427 401 428 401 37 402 428 402 38 402 38 403 428 403 429 403 38 404 429 404 36 404 36 405 429 405 430 405 36 406 431 406 406 406 432 407 433 407 434 407 434 408 433 408 435 408 434 409 435 409 436 409 436 410 435 410 437 410 437 411 438 411 436 411 436 412 438 412 439 412 436 413 439 413 440 413 440 414 441 414 436 414 436 415 441 415 442 415 436 416 442 416 443 416 443 417 444 417 436 417 436 418 444 418 445 418 436 419 445 419 136 419 136 420 445 420 446 420 136 421 446 421 447 421 448 422 449 422 450 422 449 423 451 423 450 423 450 424 451 424 452 424 450 425 452 425 453 425 453 426 454 426 450 426 450 427 454 427 455 427 450 428 455 428 456 428 456 429 457 429 450 429 450 430 457 430 458 430 450 431 458 431 434 431 434 432 458 432 459 432 434 433 459 433 460 433 461 434 462 434 463 434 461 435 463 435 464 435 462 436 465 436 463 436 463 437 465 437 466 437 463 438 467 438 468 438 468 439 469 439 463 439 463 440 469 440 470 440 463 441 471 441 472 441 472 442 473 442 463 442 463 443 473 443 474 443 463 444 474 444 450 444 450 445 474 445 475 445 450 446 475 446 448 446 412 447 476 447 36 447 36 448 476 448 477 448 36 449 477 449 130 449 130 450 477 450 478 450 130 451 478 451 131 451 478 452 479 452 131 452 131 453 479 453 480 453 131 454 480 454 481 454 482 455 483 455 131 455 131 456 483 456 484 456 131 457 484 457 485 457 486 458 487 458 488 458 489 459 487 459 132 459 489 460 132 460 490 460 490 461 132 461 131 461 490 462 131 462 491 462 491 463 131 463 485 463 492 464 103 464 106 464 492 465 106 465 493 465 103 466 492 466 104 466 104 467 492 467 494 467 104 468 494 468 105 468 105 469 494 469 495 469 105 470 495 470 102 470 102 471 495 471 101 471 101 472 495 472 496 472 101 473 496 473 497 473 97 474 496 474 171 474 97 475 171 475 184 475 98 476 171 476 181 476 98 477 181 477 498 477 144 478 145 478 95 478 95 479 145 479 147 479 95 480 147 480 96 480 89 481 147 481 499 481 89 482 499 482 500 482 90 483 499 483 501 483 502 484 88 484 503 484 504 485 88 485 86 485 504 486 86 486 501 486 501 487 86 487 91 487 501 488 91 488 500 488 505 489 83 489 506 489 506 490 83 490 81 490 506 491 81 491 507 491 507 492 81 492 85 492 507 493 85 493 502 493 502 494 85 494 84 494 502 495 84 495 87 495 76 496 75 496 137 496 137 497 75 497 508 497 137 498 74 498 509 498 509 499 74 499 79 499 509 500 79 500 510 500 505 501 79 501 80 501 505 502 80 502 82 502 511 503 382 503 73 503 67 504 382 504 378 504 67 505 378 505 512 505 68 506 378 506 513 506 68 507 513 507 69 507 69 508 513 508 65 508 65 509 513 509 514 509 65 510 514 510 66 510 66 511 514 511 515 511 66 512 515 512 64 512 64 513 515 513 62 513 63 514 515 514 516 514 63 515 516 515 61 515 61 516 516 516 517 516 61 517 517 517 60 517 60 518 517 518 58 518 59 519 517 519 518 519 59 520 518 520 54 520 54 521 518 521 55 521 55 522 518 522 519 522 55 523 520 523 56 523 57 524 520 524 521 524 57 525 521 525 53 525 522 526 521 526 52 526 52 527 521 527 523 527 52 528 523 528 47 528 47 529 523 529 277 529 47 530 278 530 48 530 48 531 278 531 286 531 48 532 286 532 290 532 318 533 312 533 46 533 46 534 312 534 314 534 46 535 314 535 39 535 39 536 314 536 524 536 39 537 524 537 40 537 40 538 524 538 525 538 40 539 135 539 42 539 42 540 135 540 43 540 486 541 464 541 129 541 487 542 464 542 463 542 487 543 463 543 128 543 128 544 463 544 526 544 128 545 527 545 123 545 123 546 527 546 133 546 123 547 133 547 124 547 124 548 133 548 126 548 217 549 218 549 115 549 115 550 218 550 220 550 115 551 221 551 116 551 116 552 221 552 528 552 529 553 114 553 530 553 530 554 114 554 118 554 530 555 112 555 528 555 528 556 112 556 117 556 528 557 117 557 116 557 106 558 107 558 493 558 493 559 107 559 108 559 493 560 109 560 531 560 531 561 109 561 110 561 531 562 110 562 532 562 529 563 110 563 111 563 529 564 111 564 113 564 301 565 533 565 314 565 314 566 533 566 534 566 314 567 534 567 524 567 524 568 534 568 535 568 524 569 536 569 525 569 135 570 536 570 537 570 135 571 537 571 136 571 278 572 538 572 304 572 304 573 538 573 539 573 304 574 539 574 301 574 301 575 539 575 540 575 301 576 540 576 533 576 513 577 541 577 514 577 514 578 541 578 542 578 514 579 542 579 515 579 515 580 542 580 543 580 515 581 543 581 516 581 516 582 543 582 544 582 516 583 544 583 517 583 517 584 544 584 545 584 517 585 545 585 518 585 518 586 545 586 546 586 518 587 547 587 519 587 520 588 547 588 548 588 520 589 548 589 521 589 521 590 548 590 549 590 521 591 549 591 523 591 523 592 549 592 550 592 523 593 550 593 277 593 278 594 550 594 551 594 278 595 552 595 538 595 378 596 553 596 513 596 513 597 553 597 554 597 513 598 554 598 541 598 509 599 555 599 137 599 137 600 555 600 556 600 137 601 556 601 138 601 138 602 556 602 557 602 138 603 558 603 364 603 366 604 558 604 559 604 366 605 559 605 359 605 359 606 559 606 560 606 359 607 560 607 378 607 378 608 560 608 561 608 378 609 561 609 562 609 504 610 563 610 502 610 502 611 563 611 564 611 502 612 564 612 507 612 507 613 564 613 565 613 507 614 565 614 506 614 506 615 565 615 566 615 506 616 567 616 510 616 505 617 567 617 568 617 505 618 568 618 509 618 509 619 568 619 569 619 509 620 569 620 555 620 171 621 570 621 201 621 201 622 570 622 571 622 201 623 572 623 194 623 157 624 572 624 573 624 157 624 573 624 147 624 147 625 573 625 574 625 147 626 574 626 499 626 499 627 574 627 575 627 499 628 575 628 501 628 501 629 575 629 576 629 501 630 576 630 503 630 504 631 576 631 577 631 504 610 578 610 563 610 230 632 579 632 220 632 221 633 579 633 580 633 221 633 580 633 528 633 528 634 580 634 581 634 528 635 581 635 530 635 530 636 581 636 582 636 530 637 583 637 532 637 529 638 583 638 584 638 529 639 584 639 531 639 531 640 584 640 585 640 531 641 585 641 493 641 493 642 585 642 586 642 493 643 586 643 492 643 492 644 586 644 587 644 492 645 587 645 494 645 494 646 587 646 588 646 494 646 588 646 495 646 495 647 588 647 589 647 495 648 589 648 496 648 496 649 589 649 590 649 496 650 590 650 171 650 171 651 590 651 591 651 171 652 591 652 570 652 527 653 592 653 133 653 133 654 592 654 593 654 133 655 593 655 134 655 134 656 593 656 594 656 134 656 594 656 268 656 268 657 594 657 595 657 268 658 595 658 230 658 230 659 595 659 596 659 230 660 596 660 597 660 537 661 598 661 136 661 136 662 598 662 599 662 136 663 599 663 436 663 436 664 599 664 600 664 436 665 600 665 434 665 434 666 600 666 601 666 434 667 601 667 450 667 450 668 601 668 602 668 450 668 602 668 463 668 463 669 602 669 603 669 463 670 603 670 526 670 527 671 603 671 604 671 527 672 605 672 592 672 303 673 302 673 606 673 323 674 322 674 607 674 293 675 608 675 294 675 294 676 608 676 609 676 294 677 610 677 297 677 298 678 610 678 296 678 296 679 610 679 295 679 295 680 610 680 611 680 295 681 611 681 332 681 335 682 334 682 611 682 611 683 334 683 333 683 611 684 333 684 332 684 339 685 612 685 340 685 340 686 612 686 613 686 339 687 338 687 612 687 612 688 338 688 337 688 612 689 337 689 611 689 611 690 337 690 336 690 611 691 336 691 335 691 316 692 315 692 613 692 613 693 315 693 341 693 613 694 341 694 340 694 313 695 614 695 319 695 319 696 614 696 615 696 319 697 615 697 320 697 313 698 312 698 614 698 614 699 312 699 318 699 614 700 318 700 613 700 613 701 318 701 317 701 613 702 317 702 316 702 607 703 322 703 615 703 615 704 322 704 321 704 615 705 321 705 320 705 328 706 327 706 616 706 616 707 327 707 326 707 616 708 326 708 607 708 607 709 326 709 324 709 607 710 325 710 323 710 606 711 302 711 617 711 617 712 302 712 300 712 617 713 300 713 299 713 299 714 331 714 617 714 617 715 331 715 330 715 617 716 330 716 616 716 616 717 330 717 329 717 616 718 329 718 328 718 303 719 606 719 305 719 305 720 606 720 618 720 305 721 618 721 306 721 306 722 618 722 307 722 307 723 618 723 619 723 307 724 619 724 308 724 276 725 275 725 619 725 619 726 275 726 311 726 311 727 310 727 619 727 619 728 310 728 309 728 619 729 309 729 308 729 276 730 619 730 279 730 279 731 619 731 620 731 279 732 620 732 280 732 280 733 620 733 621 733 280 734 621 734 281 734 285 735 284 735 622 735 622 736 284 736 283 736 622 737 283 737 621 737 621 738 283 738 282 738 621 739 282 739 281 739 285 740 622 740 286 740 286 741 622 741 623 741 286 742 624 742 290 742 293 743 291 743 625 743 608 744 291 744 287 744 608 745 287 745 623 745 624 746 287 746 288 746 624 747 289 747 290 747 480 748 626 748 481 748 482 749 626 749 627 749 482 750 627 750 483 750 490 751 628 751 488 751 489 752 628 752 629 752 490 753 491 753 630 753 628 754 491 754 485 754 628 755 485 755 627 755 627 756 485 756 484 756 627 757 484 757 483 757 461 758 464 758 629 758 629 759 464 759 486 759 629 760 486 760 488 760 468 761 467 761 631 761 631 762 467 762 465 762 631 763 465 763 629 763 629 764 465 764 462 764 629 765 462 765 461 765 473 766 472 766 632 766 632 767 472 767 470 767 632 768 471 768 631 768 631 769 471 769 469 769 631 770 469 770 468 770 633 771 475 771 632 771 632 772 475 772 474 772 632 773 474 773 473 773 451 774 449 774 633 774 633 775 449 775 448 775 633 776 448 776 475 776 455 777 454 777 634 777 635 778 454 778 453 778 635 779 453 779 633 779 633 780 453 780 452 780 633 781 452 781 451 781 459 782 458 782 636 782 636 783 458 783 457 783 636 784 457 784 634 784 635 785 457 785 456 785 635 786 456 786 455 786 459 787 636 787 460 787 432 788 636 788 637 788 432 789 637 789 433 789 433 790 637 790 435 790 435 791 637 791 638 791 435 792 638 792 437 792 441 793 440 793 639 793 640 794 440 794 439 794 640 795 439 795 638 795 638 796 439 796 438 796 638 797 438 797 437 797 441 798 640 798 442 798 442 799 640 799 641 799 442 800 641 800 443 800 413 801 446 801 642 801 642 802 446 802 445 802 642 803 445 803 641 803 641 804 445 804 444 804 641 805 444 805 443 805 419 806 417 806 643 806 643 807 417 807 416 807 643 808 416 808 642 808 642 809 416 809 414 809 642 810 415 810 447 810 424 811 422 811 644 811 644 812 422 812 421 812 644 813 421 813 643 813 643 814 421 814 420 814 643 815 420 815 418 815 431 816 429 816 645 816 429 817 428 817 645 817 646 818 428 818 427 818 646 819 427 819 644 819 644 820 427 820 425 820 644 821 426 821 423 821 409 822 408 822 647 822 647 823 408 823 648 823 647 824 407 824 645 824 646 825 407 825 406 825 646 826 406 826 430 826 480 827 479 827 626 827 626 828 479 828 478 828 626 829 478 829 477 829 477 830 476 830 626 830 626 831 476 831 412 831 626 832 412 832 647 832 647 833 412 833 410 833 647 834 411 834 409 834 232 835 228 835 649 835 226 836 225 836 650 836 219 837 651 837 222 837 222 838 651 838 652 838 222 839 652 839 223 839 216 840 653 840 217 840 217 841 653 841 654 841 217 842 651 842 218 842 218 843 651 843 219 843 650 844 225 844 652 844 652 845 225 845 224 845 652 846 224 846 223 846 649 847 228 847 650 847 650 848 228 848 227 848 650 849 227 849 226 849 264 850 263 850 655 850 655 851 263 851 656 851 655 852 229 852 649 852 649 853 229 853 231 853 649 854 231 854 232 854 269 855 267 855 657 855 657 856 267 856 266 856 657 857 266 857 655 857 655 858 266 858 265 858 655 859 265 859 264 859 274 860 273 860 658 860 658 861 273 861 272 861 658 862 272 862 659 862 659 863 272 863 271 863 659 864 271 864 657 864 657 865 271 865 270 865 657 866 270 866 269 866 241 867 240 867 658 867 658 868 240 868 242 868 658 869 242 869 274 869 247 870 246 870 660 870 660 871 246 871 245 871 660 872 245 872 661 872 661 873 245 873 244 873 661 874 244 874 658 874 658 875 244 875 243 875 658 876 243 876 241 876 247 877 660 877 248 877 248 878 660 878 662 878 248 879 662 879 249 879 254 880 253 880 663 880 663 881 253 881 252 881 663 882 252 882 662 882 662 883 252 883 250 883 662 884 251 884 249 884 254 885 663 885 255 885 255 886 663 886 664 886 255 887 664 887 256 887 261 888 260 888 665 888 665 889 260 889 259 889 665 890 259 890 664 890 664 891 259 891 258 891 664 892 258 892 256 892 235 893 234 893 666 893 666 894 234 894 233 894 666 895 233 895 665 895 665 896 233 896 262 896 665 897 262 897 261 897 238 898 237 898 666 898 666 899 237 899 236 899 666 900 236 900 235 900 216 901 215 901 667 901 653 902 215 902 213 902 653 903 214 903 668 903 669 904 214 904 211 904 212 905 210 905 668 905 669 906 210 906 209 906 669 907 209 907 666 907 666 908 209 908 239 908 666 909 239 909 238 909 154 910 153 910 670 910 151 911 150 911 671 911 197 912 195 912 672 912 672 913 195 913 673 913 674 914 195 914 193 914 674 915 193 915 156 915 197 916 672 916 198 916 198 917 672 917 675 917 198 918 675 918 199 918 676 919 204 919 203 919 676 920 203 920 675 920 675 921 203 921 202 921 675 922 202 922 199 922 204 923 676 923 205 923 205 924 676 924 677 924 205 925 677 925 206 925 678 926 175 926 173 926 173 927 172 927 678 927 678 928 172 928 679 928 678 929 170 929 680 929 680 930 170 930 208 930 680 931 169 931 677 931 677 932 169 932 207 932 677 933 207 933 206 933 175 934 678 934 176 934 176 935 678 935 681 935 176 936 681 936 177 936 181 937 180 937 682 937 683 938 180 938 179 938 683 939 179 939 681 939 681 940 179 940 178 940 681 941 178 941 177 941 181 942 683 942 498 942 182 943 683 943 684 943 182 944 684 944 183 944 189 945 187 945 685 945 685 946 187 946 186 946 685 947 186 947 684 947 684 948 186 948 185 948 684 949 185 949 183 949 686 950 162 950 161 950 161 951 192 951 687 951 686 952 192 952 191 952 686 953 191 953 685 953 685 954 191 954 190 954 685 955 190 955 188 955 162 956 686 956 163 956 163 957 686 957 688 957 163 958 688 958 164 958 167 959 166 959 688 959 688 960 166 960 165 960 688 961 165 961 164 961 141 962 140 962 689 962 689 963 140 963 139 963 689 964 139 964 688 964 688 965 139 965 168 965 688 966 168 966 690 966 141 967 689 967 142 967 142 968 689 968 691 968 142 969 691 969 143 969 143 970 691 970 692 970 143 971 692 971 144 971 150 972 149 972 671 972 671 973 149 973 148 973 671 974 148 974 693 974 693 975 148 975 146 975 693 976 146 976 692 976 692 977 146 977 694 977 692 978 145 978 144 978 670 979 153 979 671 979 671 980 153 980 152 980 671 981 152 981 151 981 156 982 158 982 673 982 674 983 158 983 159 983 674 984 160 984 670 984 670 985 160 985 155 985 670 986 155 986 154 986 358 987 360 987 695 987 384 988 383 988 696 988 376 989 382 989 697 989 346 990 698 990 347 990 347 991 698 991 699 991 347 992 699 992 348 992 348 993 699 993 349 993 349 994 699 994 350 994 350 995 699 995 700 995 350 996 700 996 351 996 344 997 354 997 701 997 701 998 354 998 353 998 701 999 353 999 700 999 700 1000 353 1000 702 1000 700 1001 352 1001 351 1001 344 1002 701 1002 342 1002 342 1003 701 1003 703 1003 342 1004 703 1004 343 1004 704 1005 357 1005 705 1005 705 1006 357 1006 356 1006 705 1007 356 1007 703 1007 703 1008 356 1008 355 1008 703 1009 355 1009 343 1009 396 1010 395 1010 706 1010 706 1011 395 1011 393 1011 706 1012 394 1012 704 1012 704 1013 394 1013 392 1013 704 1014 392 1014 357 1014 706 1015 400 1015 399 1015 399 1016 398 1016 706 1016 706 1017 398 1017 397 1017 706 1018 397 1018 396 1018 400 1019 706 1019 401 1019 401 1020 706 1020 707 1020 401 1021 708 1021 402 1021 373 1022 372 1022 709 1022 709 1023 372 1023 404 1023 709 1024 405 1024 707 1024 708 1025 405 1025 403 1025 708 1026 403 1026 402 1026 380 1027 379 1027 710 1027 710 1028 379 1028 375 1028 710 1029 375 1029 709 1029 709 1030 375 1030 374 1030 709 1031 374 1031 373 1031 711 1032 382 1032 710 1032 710 1033 382 1033 381 1033 710 1034 511 1034 380 1034 696 1035 383 1035 697 1035 711 1036 383 1036 377 1036 711 1037 377 1037 376 1037 712 1038 386 1038 696 1038 696 1039 386 1039 385 1039 696 1040 385 1040 384 1040 391 1041 390 1041 713 1041 713 1042 390 1042 714 1042 713 1043 389 1043 715 1043 715 1044 389 1044 388 1044 715 1045 388 1045 712 1045 712 1046 388 1046 387 1046 712 1047 387 1047 386 1047 695 1048 360 1048 713 1048 713 1049 360 1049 361 1049 713 1050 361 1050 391 1050 716 1051 363 1051 695 1051 695 1052 363 1052 362 1052 695 1053 362 1053 358 1053 369 1054 368 1054 717 1054 717 1055 368 1055 367 1055 717 1056 367 1056 716 1056 716 1057 367 1057 365 1057 716 1058 365 1058 363 1058 346 1059 345 1059 718 1059 698 1060 345 1060 371 1060 698 1061 371 1061 717 1061 717 1062 371 1062 370 1062 717 1063 370 1063 369 1063 554 1064 553 1064 719 1064 647 1064 646 1064 720 1064 647 1064 720 1064 626 1064 629 1064 628 1064 721 1064 721 1064 628 1064 627 1064 537 1064 641 1064 598 1064 598 1064 641 1064 639 1064 598 1064 640 1064 599 1064 599 1064 640 1064 638 1064 599 1064 638 1064 600 1064 600 1064 638 1064 637 1064 600 1064 637 1064 601 1064 646 1064 644 1064 720 1064 720 1064 644 1064 643 1064 720 1064 643 1064 537 1064 537 1064 643 1064 642 1064 537 1064 642 1064 641 1064 637 1064 636 1064 601 1064 601 1064 636 1064 634 1064 601 1064 635 1064 602 1064 602 1064 635 1064 633 1064 602 1064 633 1064 603 1064 603 1064 633 1064 632 1064 603 1064 632 1064 721 1064 721 1064 632 1064 631 1064 721 1064 631 1064 629 1064 605 1064 603 1064 592 1064 592 1064 603 1064 721 1064 592 1064 721 1064 593 1064 593 1064 721 1064 595 1064 593 1064 595 1064 594 1064 652 1064 651 1064 585 1064 722 1064 653 1064 668 1064 663 1064 662 1064 721 1064 662 1064 660 1064 721 1064 721 1064 660 1064 661 1064 721 1064 661 1064 595 1064 595 1064 661 1064 658 1064 669 1064 666 1064 722 1064 722 1064 666 1064 665 1064 722 1064 665 1064 721 1064 721 1064 665 1064 664 1064 721 1064 664 1064 663 1064 585 1064 584 1064 652 1064 652 1064 584 1064 582 1064 652 1064 583 1064 650 1064 658 1064 659 1064 595 1064 595 1064 659 1064 657 1064 595 1064 657 1064 596 1064 596 1064 657 1064 655 1064 596 1064 655 1064 597 1064 579 1064 655 1064 649 1064 579 1064 649 1064 580 1064 580 1064 649 1064 650 1064 580 1064 650 1064 581 1064 581 1064 650 1064 582 1064 686 1064 685 1064 722 1064 722 1064 685 1064 585 1064 722 1064 585 1064 667 1064 653 1064 585 1064 654 1064 589 1064 588 1064 678 1064 678 1064 588 1064 681 1064 723 1064 689 1064 722 1064 722 1064 689 1064 688 1064 722 1064 688 1064 687 1064 588 1064 587 1064 681 1064 681 1064 587 1064 586 1064 681 1064 586 1064 682 1064 683 1064 586 1064 585 1064 683 1064 585 1064 684 1064 684 1064 585 1064 685 1064 693 1064 692 1064 723 1064 723 1064 692 1064 691 1064 723 1064 691 1064 689 1064 589 1064 678 1064 590 1064 590 1064 678 1064 680 1064 590 1064 680 1064 591 1064 591 1064 680 1064 677 1064 591 1064 677 1064 570 1064 570 1064 677 1064 676 1064 570 1064 676 1064 571 1064 676 1064 675 1064 571 1064 572 1064 675 1064 672 1064 572 1064 672 1064 573 1064 573 1064 672 1064 673 1064 573 1064 674 1064 574 1064 574 1064 674 1064 670 1064 574 1064 670 1064 575 1064 575 1064 670 1064 671 1064 575 1064 671 1064 576 1064 576 1064 671 1064 693 1064 564 1064 563 1064 723 1064 693 1064 723 1064 576 1064 576 1064 723 1064 563 1064 576 1064 563 1064 577 1064 699 1064 698 1064 556 1064 724 1064 705 1064 703 1064 703 1064 568 1064 724 1064 724 1064 568 1064 566 1064 724 1064 567 1064 565 1064 556 1064 698 1064 557 1064 556 1064 555 1064 699 1064 699 1064 555 1064 569 1064 699 1064 569 1064 700 1064 700 1064 569 1064 568 1064 700 1064 568 1064 701 1064 701 1064 568 1064 703 1064 725 1064 708 1064 706 1064 725 1064 706 1064 724 1064 724 1064 706 1064 704 1064 724 1064 704 1064 705 1064 696 1064 719 1064 712 1064 712 1064 719 1064 562 1064 712 1064 553 1064 715 1064 715 1064 553 1064 561 1064 715 1064 561 1064 713 1064 713 1064 561 1064 560 1064 713 1064 560 1064 695 1064 695 1064 560 1064 559 1064 695 1064 559 1064 716 1064 716 1064 559 1064 557 1064 716 1064 558 1064 717 1064 717 1064 558 1064 718 1064 696 1064 711 1064 719 1064 719 1064 711 1064 710 1064 719 1064 710 1064 725 1064 725 1064 710 1064 709 1064 725 1064 709 1064 707 1064 542 1064 541 1064 543 1064 543 1064 541 1064 544 1064 550 1064 549 1064 719 1064 719 1064 549 1064 548 1064 541 1064 554 1064 544 1064 544 1064 554 1064 719 1064 544 1064 719 1064 545 1064 545 1064 719 1064 548 1064 545 1064 548 1064 546 1064 611 1064 610 1064 725 1064 725 1064 610 1064 625 1064 725 1064 608 1064 719 1064 720 1064 607 1064 615 1064 619 1064 618 1064 539 1064 608 1064 624 1064 719 1064 719 1064 624 1064 622 1064 719 1064 622 1064 550 1064 618 1064 606 1064 539 1064 539 1064 606 1064 617 1064 539 1064 617 1064 720 1064 720 1064 617 1064 616 1064 720 1064 616 1064 607 1064 615 1064 614 1064 720 1064 720 1064 614 1064 613 1064 720 1064 613 1064 725 1064 725 1064 613 1064 612 1064 725 1064 612 1064 611 1064 622 1064 621 1064 550 1064 550 1064 621 1064 620 1064 550 1064 620 1064 551 1064 552 1064 620 1064 619 1064 552 1064 619 1064 538 1064 538 1064 619 1064 539 1064 540 1064 539 1064 533 1064 533 1064 539 1064 720 1064 533 1064 720 1064 534 1064 534 1064 720 1064 537 1064 534 1064 537 1064 535 1064 627 1064 626 1064 721 1064 721 1064 626 1064 720 1064 721 1064 720 1064 722 1064 722 1064 720 1064 725 1064 722 1064 725 1064 723 1064 723 1064 725 1064 724 1064 723 1064 724 1064 564 1064 564 1064 724 1064 565 1064</p>
        </triangles>
      </mesh>
    </geometry>
  </library_geometries>
  <library_visual_scenes>
    <visual_scene id="Scene" name="Scene">
      <node id="Link6" name="Link6" type="NODE">
        <matrix sid="transform">1 0 0 0 0 1 0 0 0 0 1 0 0 0 0 1</matrix>
        <instance_geometry url="#Link6-mesh" name="Link6">
          <bind_material>
            <technique_common>
              <instance_material symbol="colour_abb_black-material" target="#colour_abb_black-material"/>
            </technique_common>
          </bind_material>
        </instance_geometry>
      </node>
    </visual_scene>
  </library_visual_scenes>
  <scene>
    <instance_visual_scene url="#Scene"/>
  </scene>
</COLLADA>