<?xml version="1.0" encoding="utf-8"?>
<COLLADA xmlns="http://www.collada.org/2005/11/COLLADASchema" version="1.4.1" xmlns:xsi="http://www.w3.org/2001/XMLSchema-instance">
  <asset>
    <contributor>
      <author>Blender User</author>
      <authoring_tool>Blender 2.82.7</authoring_tool>
    </contributor>
    <created>2024-07-17T11:18:31</created>
    <modified>2024-07-17T11:18:31</modified>
    <unit name="meter" meter="1"/>
    <up_axis>Z_UP</up_axis>
  </asset>
  <library_effects>
    <effect id="RAL9005_002-effect">
      <profile_COMMON>
        <technique sid="common">
          <lambert>
            <emission>
              <color sid="emission">0 0 0 1</color>
            </emission>
            <diffuse>
              <color sid="diffuse">0.00200704 0.00200704 0.00200704 1</color>
            </diffuse>
            <index_of_refraction>
              <float sid="ior">1</float>
            </index_of_refraction>
          </lambert>
        </technique>
      </profile_COMMON>
    </effect>
  </library_effects>
  <library_images/>
  <library_materials>
    <material id="RAL9005_002-material" name="RAL9005.002">
      <instance_effect url="#RAL9005_002-effect"/>
    </material>
  </library_materials>
  <library_geometries>
    <geometry id="Link6-mesh" name="Link6">
      <mesh>
        <source id="Link6-mesh-positions">
          <float_array id="Link6-mesh-positions-array" count="516">-0.0117492 -0.01391363 0.02893155 -0.01172626 -0.01183444 0.02789503 -0.01269996 -0.01224583 0.02956414 -0.0117492 -0.01047509 0.02977913 -0.01173764 -0.01267778 0.03131675 -0.01269996 -0.02956414 0.01224583 -0.01176005 -0.0291028 0.01047366 -0.01176005 -0.02807068 0.0133056 -0.01180726 -0.0313605 0.01290434 -0.0117492 -0.03133475 -0.01203078 -0.01176828 -0.02910953 -0.01409 -0.01269996 -0.02956414 -0.01224583 -0.0118007 -0.02850067 -0.01063615 -0.01178163 -0.0137878 -0.03062683 -0.01184332 -0.01032316 -0.02986288 -0.01269996 -0.01224583 -0.02956414 -0.01172429 -0.0128178 -0.02788746 -0.01178008 0.01137411 -0.03122496 -0.0118007 0.01412796 -0.02914059 -0.01269996 0.01224583 -0.02956414 -0.01173764 0.01104879 -0.02821296 -0.01172876 0.02920269 -0.01388132 -0.01176005 0.03128463 -0.01287287 -0.01269996 0.02956414 -0.01224583 -0.01176005 0.02774351 -0.01204878 -0.01173788 0.02995377 -0.01054525 -0.01184123 0.02795833 0.01335424 -0.01173764 0.02956414 0.01044064 -0.01269996 0.02956414 0.01224583 -0.011756 0.03134268 0.0127213 -0.01269996 0.01224583 0.02956414 -0.01174437 0.0137844 0.03036415 -0.01174426 0.0112341 0.03112936 -0.011738 0.01326256 0.02814412 -0.011738 0.01095879 0.02838355 -0.02029997 0.006500363 -0.03511363 -1.09276e-4 -0.003974795 -0.0353626 -0.02029997 -0.007592678 -0.03502142 -3.68061e-5 -0.0135284 -0.03279674 -0.02029997 -0.02294677 -0.02751421 -7.28446e-5 -0.02195835 -0.02783191 -7.71676e-5 -0.03075325 -0.01817005 -0.02029997 -0.03217411 -0.0154038 -6.8804e-5 -0.03536021 -0.003665328 -0.02029997 -0.03582406 -4.75396e-4 -8.96112e-5 -0.03430622 0.00939995 -0.02029997 -0.03178632 0.01652932 -5.29662e-5 -0.02858728 0.0211361 -0.02029997 -0.02018421 0.02960044 -8.9611e-5 -0.0190199 0.03005862 -6.65794e-5 -0.006883203 0.03488653 -0.02029997 -0.008296608 0.03457969 -0.02029997 0.005025327 0.03547298 -6.24002e-5 0.004009962 0.03521829 -7.4208e-5 0.01454252 0.03245359 -0.02029997 0.02120935 0.02887469 -3.68311e-5 0.02741461 0.02295738 -0.02029997 0.03343307 0.01342391 -1.23211e-4 0.03487229 0.007756233 -0.02029997 0.03546404 -0.003840804 -8.96119e-5 0.0348199 -0.007270157 -0.02029997 0.03070849 -0.01845473 -7.87183e-5 0.02983987 -0.01935124 -8.49018e-5 0.01910912 -0.03018337 -0.02029997 0.02015686 -0.02943044 -6.24002e-5 0.006855249 -0.03477662 -0.006032288 -0.002177417 -0.03173559 -0.005998075 -8.31038e-4 -0.03389513 -0.007201611 0 -0.032 -0.005999982 0 -0.03399991 -0.005997717 0.001199305 -0.03384256 -0.005999982 0 -0.02999997 -0.005994439 0.001591861 -0.03022867 -0.005999505 -6.42751e-4 -0.03007888 -0.005999982 0 0.02999997 -0.005998075 8.31026e-4 0.03010481 -0.007201611 0 0.032 -0.005999982 0 0.03399991 -0.00600028 7.40694e-4 0.03391212 -0.006014943 0.002154469 0.03203719 -0.005998671 -0.001045644 0.03013324 -0.00597161 -0.001832306 0.0336973 -0.02029997 0.01495456 0.02638137 -0.02029997 0.02515387 0.01665937 -0.02029997 0.03010964 0.00360924 -0.02029997 0.02881467 -0.008565008 -0.02029997 0.02352643 -0.01913434 -0.02029997 0.01049101 -0.02845269 -0.02029997 -0.007468402 -0.02959626 -0.02029997 0 -0.03549993 -0.02029997 -0.02278089 -0.02001613 -0.02029997 -0.02860337 -0.00924617 -0.02029997 -0.03022515 0.00246036 -0.02029997 -0.02475196 0.01752012 -0.02029997 -0.01405799 0.02669507 -0.02029997 -5.77383e-4 0.03031969 3.12522e-7 -0.01383495 0.02846717 0 -0.01266181 0.03125172 3.12521e-7 -0.01032894 0.02933138 0 -0.02898359 0.010522 0 -0.03138166 0.01231426 0 -0.02842503 0.01378363 3.36554e-7 -0.0314809 -0.01247859 0 -0.02875638 -0.01378482 2.91684e-7 -0.02828371 -0.01080054 0 -0.01304429 -0.03109753 0 -0.01357966 -0.02820605 3.15261e-7 -0.01030772 -0.02967745 3.12521e-7 0.01032894 -0.02979677 3.12523e-7 0.01383495 -0.03066092 0 0.01266181 -0.02787649 0 0.02927696 -0.01404196 0 0.02790701 -0.01175487 0 0.02985179 -0.01054155 0 0.03129059 -0.012326 0 0.02912575 0.01046717 0 0.0280565 0.01328647 3.6461e-7 0.0313695 0.01293057 0 0.01144731 0.02803075 0 0.010912 0.03092217 5.40441e-7 0.01418381 0.02945077 0 5.74142e-4 -0.03397423 -1.60711e-7 -0.002037346 -0.03287994 0 -7.11472e-4 -0.02997541 4.60698e-7 0.002184629 -0.03150159 -5.4097e-7 -4.18718e-4 0.02983003 0 -0.002070248 0.03256452 2.77058e-7 8.22557e-4 0.03409349 3.14707e-7 0.001966476 0.03135263 -0.04499989 -0.008334636 -0.02943271 -0.04499989 -0.02352643 -0.01913434 -0.04499989 -0.02881467 -0.008565008 -0.04499989 -0.03010964 0.00360924 -0.04499971 -0.02389568 0.01781243 -0.04499989 -0.01495456 0.02638137 -0.04499989 5.7738e-4 0.03031969 -0.04499989 0.01594817 0.02579283 -0.04499989 0.02569979 0.01580429 -0.04499989 0.03022515 0.00246036 -0.04499965 0.02847707 -0.007441759 -0.04499989 0.02278089 -0.02001613 -0.04499989 0.008019983 -0.02944386 -2.65205e-4 -2.86355e-4 -0.02846938 -2.64603e-4 -0.005180478 -0.02825999 -8.81126e-5 0.02881038 0.00150907 -1.163e-4 0.02625089 0.01160705 -1.20909e-4 0.02037352 0.02050167 -1.07805e-4 0.003792524 0.02841281 -1.17591e-4 0.01081752 0.02655375 -6.34359e-5 -0.003926873 0.02857077 -1.48344e-4 -0.01617693 0.02393317 -1.12473e-4 -0.02445918 0.01505166 -1.18321e-4 -0.02821475 0.00586307 -1.3468e-4 -0.02800279 -0.007065415 -7.52948e-5 -0.02189207 -0.01871967 -1.2287e-4 0.02575117 -0.01334309 -2.84403e-4 0.003492236 -0.02836722 -1.29084e-4 -0.01432847 -0.0248298 -9.52973e-5 0.01443189 -0.0250945 -0.04499989 0 0.02902841 -0.04499989 0.01489979 0.02450168 -0.04499989 0.02463334 0.01497983 -0.04499989 0.02883052 0 -0.04499995 0.01831942 -0.02251768 -0.04499965 0.004432678 -0.02821153 -0.04499989 0 -0.02849996 -0.04499989 0 -0.02999997 -0.04499989 -0.005150914 -0.02814453 -0.04499989 -0.01489979 -0.02450168 -0.04499989 -0.02463334 -0.01497983 -0.04499989 -0.02883052 0 -0.04499995 -0.01831942 0.02251768</float_array>
          <technique_common>
            <accessor source="#Link6-mesh-positions-array" count="172" stride="3">
              <param name="X" type="float"/>
              <param name="Y" type="float"/>
              <param name="Z" type="float"/>
            </accessor>
          </technique_common>
        </source>
        <source id="Link6-mesh-normals">
          <float_array id="Link6-mesh-normals-array" count="933">0.8058411 0.2570459 0.5334299 0.7794003 -0.3558606 -0.5156536 0.8058367 -0.4755086 0.3528722 0.7794058 0.5547299 -0.2912069 0.7420061 -0.6298677 0.229551 0.6874371 0.5254127 0.5013699 0.6887589 0.07802909 -0.7207793 0.7428293 0.4581151 0.4881959 0.6425631 -0.7535393 0.1388934 0.7248141 0.3147508 -0.612843 0.6220692 -0.1580137 0.7668519 0.7215095 -0.4083594 -0.5591661 0.757002 0.6107908 -0.2321264 0.6595295 -0.4504927 0.6017286 0.7131355 -0.1887683 -0.6751329 0.7428278 0.6666473 0.0615496 0.808332 -0.2467602 0.5345174 0.8055725 0.4567207 0.377438 0.7802366 0.3464209 -0.5207912 0.7790681 -0.5410274 -0.3167684 0.6902188 0.6230608 0.3679581 0.6604652 -0.1540809 -0.7348775 0.7586455 -0.5107721 0.4044364 0.7843828 -0.178209 -0.5941256 0.8079909 -0.5730367 0.1370387 0.8054445 0.06126409 0.5894964 0.7714818 0.6332494 -0.0617339 -0.01572352 -0.006541848 -0.999855 0.03010553 -0.2590509 -0.9653944 -0.03002405 -0.4390468 -0.8979624 0.01126885 -0.5074847 -0.8615872 0.02555757 -0.7392681 -0.6729261 -0.02700549 -0.7951303 -0.6058371 0.0255447 -0.9527645 -0.3026341 -0.0151779 -0.9712756 -0.2374729 0.03551536 -0.9961286 0.08041512 -0.0397861 -0.9721776 0.230842 0.04235851 -0.8981934 0.4375551 -0.0328564 -0.7474805 0.6634707 0.02270442 -0.6818084 0.7311784 2.30227e-4 -0.3696293 0.9291793 0.01299482 -0.3863049 0.9222796 -0.01045984 -0.06690466 0.9977046 0.01105052 -0.03044384 0.9994755 0.02490431 0.2538363 0.9669266 -0.0393815 0.3772413 0.9252773 0.05317008 0.5927279 0.8036459 -0.05887448 0.7828857 0.6193739 0.05949407 0.8963214 0.4393957 -0.03799372 0.9924349 0.1167464 0.0312795 0.9995049 -0.003414392 -0.02219164 0.9506835 -0.309368 0.02281266 0.9242972 -0.3809912 -6.8491e-4 0.7104257 -0.7037718 0.01155018 0.7208505 -0.6929944 -0.01447087 0.3841673 -0.9231501 0.009434521 0.3509948 -0.93633 0.01567757 0.0539481 -0.9984207 0.820905 0.4786751 0.3114245 0.8551263 -0.06900644 0.5138067 0.8546491 -0.07674759 -0.5135025 0.7557854 -0.6510647 0.07002341 0.855259 0.06672966 0.5138866 0.8312615 0.3995048 -0.3865235 0.8554311 0.0637831 -0.5139739 0.8552666 -0.06673085 0.5138736 0.8555928 -0.06062883 -0.5140867 0.8247921 -0.448334 -0.3445501 0.8266436 -0.4608922 0.3228604 0.8552742 0.06659615 0.5138785 0.7606201 0.6351305 0.1344114 0.8530569 0.0978592 -0.51256 -1 0 0 -1 1.94455e-7 0 -1 -2.26383e-7 0 -1 2.123e-7 0 -1 -2.20423e-7 0 -1 2.20479e-7 0 -1 3.91656e-7 0 -1 0 0 -1 -2.53359e-7 0 -1 -7.23517e-7 0 -1 1.66731e-7 0 -1 1.70384e-7 0 -1 -1.71475e-7 0 -1 2.85032e-7 0 0.03237372 0.4456549 0.8946194 -0.02411705 0.8876938 -0.4598023 -0.003409564 0.9215473 -0.3882511 -0.003409147 -0.6355576 -0.772046 -0.02411645 -0.5723308 -0.8196682 0.03237426 -0.8103628 0.5850335 -0.08786261 -0.2383931 0.967186 -0.009360671 0.5986155 0.8009819 0.03532117 0.7318897 0.6805071 -0.04391497 0.444604 -0.8946502 0.04393899 0.1203176 -0.9917627 -0.03653544 -0.9849959 0.1686661 0.008116304 -0.939519 0.3424007 -0.03633064 0.4320361 0.9011243 0.0363906 0.6789096 0.7333196 -0.0287019 0.4409319 -0.8970815 -0.02087384 0.4646228 -0.8852627 0.02052187 -0.9845716 0.1737743 0.02557998 -0.9873656 0.1563807 -0.05469709 0.9818155 0.1817873 0.05206555 0.9410252 -0.3343065 -0.05136632 -0.4095937 -0.9108208 0.01308643 -0.6203634 -0.7842054 -0.01329499 -0.4605607 0.8875287 0.05248224 -0.2141383 0.9753925 -0.09602814 0.2382124 0.966454 0.0751118 0.9915196 0.1060522 -0.06506806 0.6341976 -0.7704282 0.06677538 -0.2865508 -0.9557352 -0.07271522 -0.9191072 -0.3872395 0.08745419 -0.600782 0.7946149 0.003575265 0.7822685 0.6229314 -0.02475774 0.8576011 0.5137192 0.01384675 0.5292491 -0.8483536 0.005145549 0.5624091 -0.8268431 -0.006572365 -0.7784438 -0.6276801 0.02352237 -0.8677889 -0.4963761 -0.03504312 -0.6482206 0.7606458 0.01508069 -0.4357303 0.8999509 0.03158587 0.8748757 0.4833166 -0.005722105 0.9349974 0.3546087 -0.004804909 -0.1068069 -0.9942682 0.01791411 -0.1842392 -0.9827182 -0.009142577 -0.7885607 0.6148892 -0.02911794 -0.7389748 0.6731036 -0.03542941 0.9826732 0.1819292 0.02552211 0.9946927 -0.09967488 -0.02732789 -0.4099897 -0.9116806 -0.06457865 -0.2867873 -0.9558152 0.05084353 -0.9721763 0.2286665 -0.06253439 -0.4596781 0.8858813 0.02558428 0.1033363 0.9943174 0.01924496 -0.02588194 0.9994798 -0.07813155 0.3852685 0.919491 0.0805974 0.8452464 0.5282639 -0.09940057 0.9051938 -0.4132117 0.02012771 0.7332646 -0.6796454 0.01644873 -0.06688159 -0.9976254 -0.1403536 -0.4615727 -0.875929 0.1203179 -0.9869419 0.1070947 -0.07515364 -0.8355607 0.5442339 -0.06320458 0.8542626 0.5159851 0.07944971 0.9735366 0.2142764 -0.1474619 0.4621968 -0.8744308 0.02898007 0.08346295 -0.9960894 0.02908861 -0.7979912 -0.6019667 -0.07248234 -0.9204226 -0.3841465 0.03852069 -0.8242899 0.5648561 -0.073309 -0.5366032 0.8406443 0.04890161 0.01514679 0.9986888 0.01298332 -0.5303493 -0.8476799 -0.0126115 -0.5610694 -0.8276727 0.009575366 -0.8796361 -0.4755509 -0.004688978 -0.894298 -0.4474474 0.004689216 -0.9905284 -0.1372289 -0.009572327 -0.9943448 -0.1057678 0.01149034 -0.9397924 0.3415527 -0.02700835 -0.9158208 0.4006778 -0.0154429 -0.6918408 0.721885 0.01399666 -0.6510806 0.7588796 -0.002839148 -0.2596537 0.9656977 -0.01148998 -0.2457674 0.9692607 0.01148998 0.2457674 0.9692607 -0.01148986 0.2824912 0.9592012 0.01050764 0.6899285 0.7238013 -0.008369922 0.7155189 0.6985433 0.008371114 0.9348288 0.355 -0.01050782 0.9469692 0.3211525 0.009572327 0.9943448 -0.1057678 -0.02136093 0.984547 -0.1738134 -0.03255361 0.8938339 -0.4472153 -0.01276397 0.9108217 -0.4126029 0.01148742 0.5815016 -0.8134642 -0.02002674 0.5381658 -0.8426011 0.03367054 0.06351351 -0.9974129 -0.006599962 -6.81737e-4 -0.9999781 0.9871904 0.006940841 0.1593953 0.9990104 -0.04370111 -0.008287787 0.9987059 -0.04755365 -0.01803523 0.9988553 -0.04014563 -0.02601009 0.9972574 -0.01763308 -0.07188099 0.9996303 0.01420295 0.0231865 0.9998285 -0.005805969 -0.0175845 0.9996112 -0.01467144 -0.02371335 0.9934559 0.05245244 -0.1014606 0.9984241 0.004594504 -0.05593019 0.9992522 0.009253323 -0.03754186 0.9994066 0.005919814 -0.03393483 0.9989907 0.01704394 -0.04155749 0.999781 -0.01209765 0.01707804 0.9983088 -0.0534268 0.02291762 0.9999684 -0.003541052 0.007125496 0.9999554 0.008577525 -0.003960072 0.9996353 0.02586466 0.00777179 0.9995371 0.02998864 -0.005135118 0.9989038 0.0431075 -0.01825469 0.9870749 0.160254 0.001377463 0.9997595 -0.01312834 -0.01756644 0.9998431 -0.01746577 0.003001272 0.9999576 0.005557775 -0.007347404 0.9973978 -0.06854295 -0.02234584 0.9999742 -0.00333321 0.006377696 0.9991067 0.02476972 0.03424149 0.9981451 0.05167853 0.03218328 0.9999508 0.009784162 -0.001647353 0.9998545 -0.001266717 -0.01701778 0.9998719 -0.006822705 -0.01448804 0.9989393 -0.03950101 -0.02366185 0.997823 -0.06501567 0.0110566 0.9999667 -0.004328012 0.006937503 0.9969387 -8.493e-5 -0.07818889 0.9747673 -0.001082658 0.223221 0.9868848 0.005042135 0.1613478 0.9964737 0.03899365 0.07429569 0.9960642 0.05948299 0.06571084 0.9999393 0.009148895 -0.006145179 0.9993563 -0.0139153 -0.03306418 0.9991451 -0.003484785 -0.04119485 0.9999583 -0.003250777 -0.00854361 1 3.06992e-5 -6.93441e-5 0.9984728 0.03174561 0.04521524 0.9969624 0.03186416 0.07106965 0.999593 0.01304996 -0.02536988 0.9997406 -0.0145812 -0.01750087 0.9999604 -0.008766174 -0.001623094 0.9977601 0.04618811 0.04839122 0.9999623 -0.008678913 3.32009e-4 1 -1.94585e-4 2.70306e-4 0.9999288 0.01060569 0.00546199 0.9999469 0.006472885 0.008025646 0.999861 -0.01532471 0.006568551 0.9980096 -0.02493578 0.05792313 0.9999999 7.56359e-6 -5.73832e-4 0.9980701 -0.002272844 0.06205618 0.9976686 0.006500065 -0.06793481 0.9998514 -0.01467293 -0.009060204 0.9998161 -0.01755523 -0.007719695 0.9998813 -0.007276833 0.01358628 0.9995242 0.009273827 0.02941662 1 3.65762e-5 2.90016e-5 0.9995654 0.008527576 0.02821826 0.9998956 -0.01421332 -0.002631366 0.999666 0.01046341 0.02363407 0.9999117 -0.01296782 0.002947449 0.9999926 3.01208e-4 0.003828346 0.9943866 0.097117 0.04199481 0.9997937 0.01494497 -0.01376068 0.9998093 0.01652318 -0.01041591 0.9980015 0.05873423 -0.02331137 0.9999914 0.003498136 0.00222373 0.9998405 0.01158636 -0.01359587 0.9998866 0.01250928 0.008392035 0.9998855 0.01178044 0.009498834 0.9999989 -0.001368522 7.84911e-4 0.9999815 -0.003043174 0.005277574 0.9990775 -0.03856223 -0.01890093 0.9991514 -0.03860878 0.0143494 0.9983557 -0.03157132 0.04784631 0.995717 -0.05867987 0.07144576 0.9993855 0.03226447 0.01370555 0.9997698 0.01474112 0.01559138 0.99852 0.02068763 -0.05029851 0.9999388 -0.002648413 -0.01074504 -1 6.06727e-7 0 -1 4.66139e-6 0 -1 7.34573e-5 -3.49681e-5 -1 5.21576e-6 1.73039e-5 -1 1.02003e-4 -1.7131e-4 -1 -4.55489e-5 5.97188e-5 -1 3.35957e-5 2.94297e-4 -1 3.02408e-7 0 -1 -5.80131e-7 0 -1 -1.62999e-6 0 -1 1.72065e-5 5.63406e-6 -1 -2.13991e-4 1.98629e-4 -1 -3.27524e-6 1.82384e-5 0.002584099 0.006984472 0.9999724 0.002647578 0.3500341 0.9367333 0.002376258 0.3511257 0.9363254 0.0168339 0.6991886 0.7147391 -0.002312481 0.6283952 0.7778908 -0.01539003 0.8855652 0.4642602 0.0247156 0.962623 0.269715 -0.01586079 0.9997397 0.01640582 0.02164989 0.9634731 -0.2669289 -0.0388807 0.6444093 -0.7636917 -0.01164782 0.9256066 -0.3783077 -0.01340854 0.7312591 -0.6819681 0.01966452 0.3348141 -0.942079 0.0126059 0.3539506 -0.9351792 -0.01197427 -0.0205177 -0.9997179 0.01730543 -0.2906477 -0.9566736 0.008356392 -0.2558099 -0.9666911 -0.01003849 -0.5350298 -0.8447737 0.02157092 -0.6991249 -0.7146742 -0.01136022 -0.8342518 -0.5512666 0.01442646 -0.9628169 -0.2697696 0.00781846 -0.9693239 -0.2456625 -0.05435341 -0.9973972 0.04737752 -0.007219493 -0.9794099 0.2017527 0.02309763 -0.8291023 0.5586198 -0.02254033 -0.7200686 0.6935368 0.02024799 -0.3792901 0.9250563 -0.00269103 -0.286562 0.9580579 0.003741741 0.0123713 0.9999165</float_array>
          <technique_common>
            <accessor source="#Link6-mesh-normals-array" count="311" stride="3">
              <param name="X" type="float"/>
              <param name="Y" type="float"/>
              <param name="Z" type="float"/>
            </accessor>
          </technique_common>
        </source>
        <vertices id="Link6-mesh-vertices">
          <input semantic="POSITION" source="#Link6-mesh-positions"/>
        </vertices>
        <triangles material="RAL9005_002-material" count="336">
          <input semantic="VERTEX" source="#Link6-mesh-vertices" offset="0"/>
          <input semantic="NORMAL" source="#Link6-mesh-normals" offset="1"/>
          <p>0 0 1 0 2 0 3 1 4 1 2 1 1 2 3 2 2 2 4 3 0 3 2 3 5 4 6 4 7 4 8 5 6 5 5 5 7 6 8 6 5 6 9 7 10 7 11 7 10 8 12 8 11 8 12 9 9 9 11 9 13 10 14 10 15 10 15 11 14 11 16 11 16 12 13 12 15 12 17 13 18 13 19 13 20 14 19 14 18 14 20 15 17 15 19 15 21 16 22 16 23 16 24 17 21 17 23 17 25 18 24 18 23 18 22 19 25 19 23 19 26 20 27 20 28 20 28 21 29 21 26 21 27 22 29 22 28 22 30 23 31 23 32 23 33 24 31 24 30 24 34 25 33 25 30 25 32 26 34 26 30 26 35 27 36 27 37 27 37 28 36 28 38 28 37 29 38 29 39 29 39 30 38 30 40 30 39 31 40 31 41 31 39 32 41 32 42 32 42 33 41 33 43 33 42 34 43 34 44 34 44 35 43 35 45 35 44 36 45 36 46 36 46 37 45 37 47 37 46 38 47 38 48 38 48 39 47 39 49 39 48 40 49 40 50 40 48 41 50 41 51 41 51 42 50 42 52 42 52 43 50 43 53 43 52 44 53 44 54 44 52 45 54 45 55 45 55 46 54 46 56 46 55 47 56 47 57 47 57 48 56 48 58 48 57 49 58 49 59 49 59 50 58 50 60 50 59 51 60 51 61 51 61 52 60 52 62 52 61 53 62 53 63 53 61 54 63 54 64 54 64 55 63 55 35 55 35 56 63 56 65 56 35 57 65 57 36 57 66 58 67 58 68 58 69 59 70 59 68 59 71 60 68 60 72 60 70 61 72 61 68 61 67 62 69 62 68 62 73 63 66 63 68 63 71 64 73 64 68 64 74 65 75 65 76 65 77 66 76 66 78 66 79 67 78 67 76 67 75 68 79 68 76 68 80 69 74 69 76 69 81 70 80 70 76 70 77 71 81 71 76 71 82 72 55 72 83 72 83 72 55 72 57 72 83 72 57 72 84 72 84 72 57 72 59 72 84 73 59 73 85 73 85 72 59 72 61 72 85 74 61 74 86 74 86 72 61 72 64 72 86 75 64 75 87 75 87 72 64 72 35 72 87 72 35 72 88 72 88 76 35 76 89 76 88 77 89 77 37 77 88 72 37 72 39 72 88 72 39 72 90 72 90 72 39 72 42 72 90 78 42 78 91 78 91 72 42 72 44 72 91 79 44 79 92 79 92 72 44 72 46 72 92 80 46 80 93 80 93 81 46 81 48 81 93 82 48 82 94 82 94 72 48 72 51 72 94 83 51 83 95 83 95 84 51 84 52 84 95 85 52 85 82 85 82 72 52 72 55 72 1 86 0 86 96 86 96 87 0 87 4 87 96 88 4 88 97 88 97 89 4 89 98 89 4 90 3 90 98 90 98 91 3 91 1 91 98 92 1 92 96 92 99 93 6 93 100 93 6 94 8 94 100 94 100 95 8 95 101 95 8 96 7 96 101 96 101 97 7 97 99 97 7 98 6 98 99 98 102 99 103 99 10 99 10 100 9 100 102 100 102 101 9 101 12 101 102 102 12 102 104 102 104 103 12 103 10 103 104 104 10 104 103 104 105 105 13 105 106 105 106 106 13 106 16 106 106 107 16 107 107 107 16 108 14 108 107 108 107 109 14 109 105 109 105 110 14 110 13 110 17 111 108 111 109 111 108 112 17 112 20 112 108 113 20 113 110 113 20 114 18 114 110 114 110 115 18 115 109 115 18 116 17 116 109 116 21 117 24 117 111 117 111 118 24 118 112 118 112 119 24 119 113 119 24 120 25 120 113 120 113 121 25 121 114 121 25 122 22 122 114 122 114 123 22 123 111 123 111 124 22 124 21 124 27 125 26 125 115 125 115 126 26 126 116 126 116 127 26 127 117 127 117 128 26 128 29 128 117 129 29 129 27 129 117 130 27 130 115 130 118 131 34 131 119 131 119 132 34 132 32 132 119 133 32 133 120 133 32 134 31 134 120 134 120 135 31 135 33 135 120 136 33 136 118 136 118 137 33 137 34 137 121 138 70 138 67 138 121 139 67 139 122 139 122 140 67 140 66 140 122 141 66 141 123 141 123 142 66 142 73 142 123 143 73 143 72 143 123 144 72 144 124 144 124 145 72 145 70 145 124 146 70 146 121 146 125 147 80 147 126 147 126 148 80 148 81 148 126 149 81 149 127 149 127 150 81 150 78 150 127 151 78 151 79 151 127 152 79 152 128 152 128 153 79 153 75 153 128 154 75 154 125 154 125 155 75 155 80 155 129 156 88 156 90 156 129 157 90 157 130 157 130 158 90 158 91 158 130 159 91 159 131 159 131 160 91 160 92 160 131 161 92 161 132 161 132 162 92 162 93 162 132 163 93 163 133 163 133 164 93 164 134 164 134 165 93 165 94 165 134 166 94 166 95 166 134 167 95 167 135 167 135 168 95 168 82 168 135 169 82 169 136 169 136 170 82 170 83 170 136 171 83 171 137 171 137 172 83 172 84 172 137 173 84 173 138 173 138 174 84 174 85 174 138 175 85 175 139 175 139 176 85 176 86 176 139 177 86 177 140 177 140 178 86 178 87 178 140 179 87 179 141 179 141 180 87 180 88 180 141 181 88 181 129 181 142 182 143 182 107 182 144 183 115 183 145 183 145 184 115 184 116 184 145 185 116 185 146 185 147 186 148 186 118 186 120 187 56 187 54 187 146 188 56 188 120 188 146 189 120 189 148 189 148 190 120 190 118 190 147 191 119 191 149 191 96 192 150 192 98 192 98 193 150 193 149 193 150 194 96 194 47 194 47 195 96 195 49 195 45 196 100 196 47 196 47 197 100 197 101 197 150 198 47 198 151 198 151 199 47 199 101 199 151 200 101 200 99 200 151 201 99 201 152 201 152 202 99 202 153 202 100 203 45 203 99 203 99 204 45 204 43 204 99 205 43 205 153 205 41 206 102 206 43 206 43 207 102 207 104 207 43 208 104 208 153 208 153 209 104 209 154 209 103 210 154 210 104 210 41 211 154 211 103 211 41 212 103 212 102 212 155 213 111 213 112 213 155 214 112 214 144 214 144 215 112 215 113 215 65 216 121 216 36 216 142 217 107 217 156 217 156 218 107 218 123 218 123 219 124 219 156 219 156 220 124 220 65 220 65 221 124 221 121 221 121 222 122 222 36 222 36 223 122 223 38 223 38 224 122 224 107 224 107 225 122 225 123 225 157 226 106 226 143 226 143 227 106 227 107 227 107 228 105 228 38 228 38 229 105 229 40 229 40 230 105 230 106 230 106 231 157 231 154 231 106 232 154 232 40 232 40 233 154 233 41 233 50 234 98 234 149 234 50 235 97 235 98 235 49 236 96 236 97 236 49 237 97 237 50 237 119 238 128 238 125 238 53 239 50 239 127 239 149 240 119 240 125 240 149 241 125 241 126 241 149 242 126 242 50 242 50 243 126 243 127 243 53 244 127 244 119 244 119 245 127 245 128 245 54 246 53 246 119 246 147 247 118 247 119 247 54 248 119 248 120 248 56 249 146 249 116 249 56 250 116 250 117 250 56 251 117 251 58 251 58 252 117 252 115 252 115 253 144 253 58 253 62 254 60 254 114 254 144 255 60 255 58 255 111 256 62 256 114 256 144 257 113 257 60 257 60 258 113 258 114 258 158 259 63 259 62 259 158 260 62 260 155 260 155 261 62 261 111 261 65 262 108 262 156 262 156 263 108 263 158 263 108 264 110 264 158 264 158 265 110 265 109 265 158 266 109 266 63 266 63 267 109 267 65 267 65 268 109 268 108 268 159 72 135 72 136 72 159 269 136 269 160 269 160 72 136 72 161 72 161 72 136 72 137 72 161 72 137 72 138 72 161 270 138 270 162 270 162 271 138 271 139 271 139 272 140 272 163 272 163 273 140 273 141 273 163 274 141 274 164 274 164 275 141 275 165 275 165 276 141 276 166 276 165 72 166 72 167 72 167 277 166 277 129 277 167 72 129 72 168 72 168 72 129 72 130 72 168 72 130 72 169 72 169 72 130 72 131 72 169 278 131 278 170 278 170 72 131 72 132 72 170 279 132 279 133 279 171 280 133 280 134 280 171 281 134 281 159 281 159 72 134 72 135 72 164 282 167 282 143 282 168 283 143 283 167 283 168 284 157 284 143 284 169 285 154 285 168 285 168 286 154 286 157 286 169 287 153 287 154 287 170 288 153 288 169 288 170 289 152 289 153 289 133 290 152 290 170 290 171 291 151 291 133 291 133 292 151 292 152 292 171 293 150 293 151 293 159 294 149 294 171 294 171 295 149 295 150 295 159 296 147 296 149 296 160 297 148 297 159 297 159 298 148 298 147 298 160 299 146 299 148 299 161 300 146 300 160 300 161 301 145 301 146 301 162 302 145 302 161 302 162 303 144 303 145 303 139 304 155 304 162 304 162 305 155 305 144 305 163 306 155 306 139 306 163 307 158 307 155 307 164 308 158 308 163 308 164 309 156 309 158 309 143 310 156 310 164 310</p>
        </triangles>
      </mesh>
    </geometry>
  </library_geometries>
  <library_visual_scenes>
    <visual_scene id="Scene" name="Scene">
      <node id="Link6" name="Link6" type="NODE">
        <matrix sid="transform">1 0 0 0 0 1 0 0 0 0 1 0 0 0 0 1</matrix>
        <instance_geometry url="#Link6-mesh" name="Link6">
          <bind_material>
            <technique_common>
              <instance_material symbol="RAL9005_002-material" target="#RAL9005_002-material"/>
            </technique_common>
          </bind_material>
        </instance_geometry>
      </node>
    </visual_scene>
  </library_visual_scenes>
  <scene>
    <instance_visual_scene url="#Scene"/>
  </scene>
</COLLADA>