<?xml version="1.0" encoding="utf-8"?>
<COLLADA xmlns="http://www.collada.org/2005/11/COLLADASchema" version="1.4.1" xmlns:xsi="http://www.w3.org/2001/XMLSchema-instance">
  <asset>
    <contributor>
      <author>Blender User</author>
      <authoring_tool>Blender 2.82.7</authoring_tool>
    </contributor>
    <created>2023-10-27T14:24:45</created>
    <modified>2023-10-27T14:24:45</modified>
    <unit name="meter" meter="1"/>
    <up_axis>Z_UP</up_axis>
  </asset>
  <library_cameras>
    <camera id="Camera-camera" name="Camera.002">
      <optics>
        <technique_common>
          <perspective>
            <xfov sid="xfov">49.13434</xfov>
            <aspect_ratio>1.777778</aspect_ratio>
            <znear sid="znear">0.1</znear>
            <zfar sid="zfar">100</zfar>
          </perspective>
        </technique_common>
      </optics>
      <extra>
        <technique profile="blender">
          <shiftx sid="shiftx" type="float">0</shiftx>
          <shifty sid="shifty" type="float">0</shifty>
          <dof_distance sid="dof_distance" type="float">10</dof_distance>
        </technique>
      </extra>
    </camera>
  </library_cameras>
  <library_lights>
    <light id="Lamp-light" name="Lamp.002">
      <technique_common>
        <point>
          <color sid="color">1 1 1</color>
          <constant_attenuation>1</constant_attenuation>
          <linear_attenuation>0</linear_attenuation>
          <quadratic_attenuation>0.00111109</quadratic_attenuation>
        </point>
      </technique_common>
      <extra>
        <technique profile="blender">
          <type sid="type" type="int">0</type>
          <flag sid="flag" type="int">0</flag>
          <mode sid="mode" type="int">8192</mode>
          <gamma sid="blender_gamma" type="float">1</gamma>
          <red sid="red" type="float">1</red>
          <green sid="green" type="float">1</green>
          <blue sid="blue" type="float">1</blue>
          <shadow_r sid="blender_shadow_r" type="float">0</shadow_r>
          <shadow_g sid="blender_shadow_g" type="float">0</shadow_g>
          <shadow_b sid="blender_shadow_b" type="float">0</shadow_b>
          <energy sid="blender_energy" type="float">1</energy>
          <dist sid="blender_dist" type="float">29.99998</dist>
          <spotsize sid="spotsize" type="float">75</spotsize>
          <spotblend sid="spotblend" type="float">0.15</spotblend>
          <att1 sid="att1" type="float">0</att1>
          <att2 sid="att2" type="float">1</att2>
          <falloff_type sid="falloff_type" type="int">2</falloff_type>
          <clipsta sid="clipsta" type="float">1.000799</clipsta>
          <clipend sid="clipend" type="float">30.002</clipend>
          <bias sid="bias" type="float">1</bias>
          <soft sid="soft" type="float">3</soft>
          <bufsize sid="bufsize" type="int">2880</bufsize>
          <samp sid="samp" type="int">3</samp>
          <buffers sid="buffers" type="int">1</buffers>
          <area_shape sid="area_shape" type="int">1</area_shape>
          <area_size sid="area_size" type="float">0.1</area_size>
          <area_sizey sid="area_sizey" type="float">0.1</area_sizey>
          <area_sizez sid="area_sizez" type="float">1</area_sizez>
        </technique>
      </extra>
    </light>
  </library_lights>
  <library_effects>
    <effect id="Mesh_003-effect">
      <profile_COMMON>
        <technique sid="common">
          <lambert>
            <emission>
              <color sid="emission">0 0 0 1</color>
            </emission>
            <diffuse>
              <color sid="diffuse">1 0.4980392 0 1</color>
            </diffuse>
            <index_of_refraction>
              <float sid="ior">1</float>
            </index_of_refraction>
          </lambert>
        </technique>
      </profile_COMMON>
    </effect>
  </library_effects>
  <library_images/>
  <library_materials>
    <material id="Mesh_003-material" name="Mesh.003">
      <instance_effect url="#Mesh_003-effect"/>
    </material>
  </library_materials>
  <library_geometries>
    <geometry id="Part__Feature002001_002-mesh" name="Part__Feature002001.002">
      <mesh>
        <source id="Part__Feature002001_002-mesh-positions">
          <float_array id="Part__Feature002001_002-mesh-positions-array" count="2187">0.07349997 -0.0240001 0.02499991 0.07206815 -0.0240001 0.005808949 0.07313674 -0.0240001 0.002991318 0.07035636 -0.0240001 0.008288919 0.06810081 -0.0240001 0.01028722 0.06543254 -0.0240001 0.01168745 0.06250667 -0.0240001 0.01240885 0.05949324 -0.0240001 0.01240885 0.0485 -0.0240001 0.02499991 0.05656743 -0.0240001 0.01168745 0.05389899 -0.0240001 0.01028722 0.05164361 -0.0240001 0.008288919 0.04993176 -0.0240001 0.005808949 0.07349997 -0.0240001 0 0.0485 -0.0240001 0 0.04886323 -0.0240001 0.002991318 0.07349997 -0.01299989 -0.02499997 0.0805 -0.01299989 -0.02499997 0.0805 -0.01299989 -0.009109854 0.0805 -0.01299989 0.009109795 0.07349997 -0.01299989 0.02499991 0.0805 -0.01299989 0.02499991 0.0159201 0.04234313 0.0330193 0.01137614 0.04955005 0.02883714 0.008062243 0.04799997 0.02993321 0.03030735 0.04955005 0.02883714 0.03030735 0.04287201 0.03278446 0.01788353 0.03855609 0.034419 0.03030735 0.03550297 0.03520917 0.02043038 0.03498238 0.03531628 0.02507096 0.02958023 0.03596526 0.03030735 0.02778571 0.03599911 0.02745467 0.02467256 0.0358501 0.03030735 0.02007836 0.03511732 0.04036921 0.04955005 0.03047478 0.04210287 0.04222595 0.03475368 0.04210287 0.05028617 0.0302248 0.04210287 0.03330391 0.03717643 0.04210287 0.0240603 0.0373454 0.04210287 0.01505547 0.0352512 0.035452 0.01219385 0.03309661 0.04210287 0.006834924 0.03102028 0.03811055 0.006274044 0.02999866 0.03988307 0.002953529 0.02759754 0.04210287 -1.02393e-4 0.0249089 0.0416662 -1.02393e-4 0.02482241 0.03030735 0.02778571 -0.03599911 0.02745467 0.02467256 -0.0358501 0.02507096 0.02958023 -0.03596526 0.03030735 0.02007836 -0.03511732 0.03030735 0.03550297 -0.03520917 0.02134966 0.03383338 -0.03552442 0.01805698 0.03828036 -0.03450351 0.01137614 0.04955005 -0.02883714 0.0159201 0.04234313 -0.0330193 0.008062243 0.04799997 -0.02993321 0.03030735 0.04287201 -0.03278446 0.03030735 0.04955005 -0.02883714 0.03881412 0.004912555 -0.029082 0.04210287 -1.0239e-4 -0.0249089 0.0416662 -1.0239e-4 -0.02482241 0.04210287 0.006834924 -0.03102028 0.03707796 0.008402824 -0.03126519 0.04210287 0.01505547 -0.0352512 0.035452 0.01219385 -0.03309661 0.04210287 0.0240603 -0.0373454 0.04210287 0.03330391 -0.03717643 0.04210287 0.04222595 -0.03475368 0.04036921 0.04955005 -0.03047478 0.04210287 0.05028623 -0.0302248 0.0485 -1.0239e-4 -0.02742511 0.06243169 -0.006985604 -0.02499997 0.0485 -0.002280235 -0.02499997 0.0485 -0.001576602 -0.02582836 0.06243169 -8.5282e-4 -0.03188282 0.0485 -8.50789e-4 -0.02663671 0.06243169 0.006606221 -0.03730005 0.06243169 0.01504862 -0.04100292 0.06243169 0.02408629 -0.04282122 0.06243169 0.03330379 -0.04267162 0.04545319 0.05170834 -0.03027147 0.06243169 0.04227739 -0.04056042 0.06243169 0.05059486 -0.03658497 0.05175983 0.05823928 -0.02639782 0.06243169 0.0578739 -0.03092765 0.05520868 0.06181019 -0.02330559 0.06243169 0.06377995 -0.02384912 0.0581972 0.06490504 -0.01976639 0.06243169 0.06804108 -0.01567459 0.0805 0.05416017 0.03412657 0.0805 0.06122946 0.02729094 0.06243169 0.05787384 0.03092771 0.06243169 0.05059486 0.03658497 0.0805 -0.006985604 -0.02499997 0.0805 0.0457226 0.03917783 0.06243169 0.04227733 0.04056042 0.0805 -3.90939e-4 -0.03229475 0.0805 0.03635823 0.04217982 0.06243169 0.03330379 0.04267162 0.0805 0.007688701 -0.03790026 0.0805 0.02655678 0.04297572 0.06243169 0.02408629 0.04282122 0.0805 0.01683062 -0.04152399 0.0805 0.01683062 0.04152399 0.06243169 0.01504862 0.04100292 0.0805 0.02655678 -0.04297572 0.0805 0.007688701 0.03790026 0.06243169 0.006606221 0.03730005 0.0805 0.03635823 -0.04217982 0.0805 -3.90943e-4 0.03229475 0.06243169 -8.52823e-4 0.03188282 0.0805 0.04572266 -0.03917783 0.0805 -0.006985604 0.02499991 0.06243169 -0.006985604 0.02499991 0.0805 0.05416017 -0.03412657 0.0805 0.06122946 -0.02729094 0.0805 0.06656068 -0.01902765 0.06295299 0.0684272 -0.01464974 0.0645861 0.06926107 -0.01210391 0.0805 0.06987547 -0.00976926 0.06590551 0.06993478 -0.009510874 0.06740963 0.07070297 -0.005045294 0.0805 0.07099997 0 0.06798505 0.07099676 -5.23877e-4 0.06762552 0.07081317 0.004003465 0.0805 0.06987547 0.00976932 0.06619185 0.07008099 0.008841574 0.06295299 0.0684272 0.01464974 0.0805 0.06656068 0.01902765 0.06243169 0.06804108 0.01567459 0.06243169 0.06377995 0.02384912 0.0581972 0.06490504 0.01976639 0.0545535 0.06113225 0.02396184 0.04545319 0.05170834 0.03027147 0.05026608 0.05669248 0.02749598 0.0485 -1.02393e-4 0.02742511 0.0485 -8.50793e-4 0.02663671 0.0485 -0.001576602 0.02582836 0.0485 -0.002280235 0.02499991 0.02336663 0.04955005 0.02037131 0.01787966 0.04955005 0.02532422 0.02752488 0.04955005 0.01426059 0.03011876 0.04955005 0.007338762 0.03099972 0.04955005 0 0.02752488 0.04955005 -0.01426059 0.03011876 0.04955005 -0.007338702 0.02336663 0.04955005 -0.02037125 0.01787966 0.04955005 -0.02532416 0.0485 -0.0240001 -0.02499997 0.07349997 -0.0240001 -0.02499997 0.007699072 0.04234313 0.0358392 0.01623475 0.02958023 0.04072427 0.006547749 0.02958023 0.0433495 -9.54622e-4 0.04234313 0.03664422 -0.003482282 0.02958023 0.04370272 -0.009554684 0.04234313 0.03538966 -0.01332998 0.02958023 0.04176557 -0.0176177 0.04234313 0.0321455 -0.02247881 0.02958023 0.03763943 -0.02469033 0.04234313 0.02709442 -0.03045004 0.02958023 0.03154093 -0.03037506 0.04234313 0.02052021 -0.03682518 0.02958023 0.0237897 -0.03435224 0.04234313 0.01279217 -0.04127061 0.02958023 0.0147913 -0.03639835 0.04234313 0.004345536 -0.04355311 0.02958023 0.005018115 -0.04355311 0.02958023 -0.005018115 -0.03639835 0.04234313 -0.004345476 -0.04127061 0.02958023 -0.0147913 -0.03435224 0.04234313 -0.01279217 -0.03682518 0.02958023 -0.0237897 -0.03037506 0.04234313 -0.02052021 -0.03045004 0.02958023 -0.03154093 -0.02469033 0.04234313 -0.02709442 -0.02247881 0.02958023 -0.03763943 -0.0176177 0.04234313 -0.0321455 -0.01332998 0.02958023 -0.04176557 -0.009554684 0.04234313 -0.03538966 -0.003482282 0.02958023 -0.04370272 -9.54622e-4 0.04234313 -0.03664422 0.006547749 0.02958023 -0.0433495 0.007699072 0.04234313 -0.0358392 0.01623475 0.02958023 -0.04072427 5.75898e-4 0.04799997 0.03099465 -0.006944656 0.04799997 0.0302121 -0.01405215 0.04799997 0.02763187 -0.02032363 0.04799997 0.02340829 -0.02538597 0.04799997 0.01779156 -0.02893811 0.04799997 0.01111692 -0.03076857 0.04799997 0.003780603 -0.03076857 0.04799997 -0.003780543 -0.02893811 0.04799997 -0.01111692 -0.02538597 0.04799997 -0.01779156 -0.02032363 0.04799997 -0.02340829 -0.01405215 0.04799997 -0.02763187 -0.006944656 0.04799997 -0.0302121 5.75898e-4 0.04799997 -0.03099465 0.01821929 0.01219385 -0.0449478 0.008099257 0.01219385 -0.04781872 0.02748221 0.01219385 -0.03996217 0.02748221 0.01219385 0.03996217 0.01821929 0.01219385 0.0449478 0.008099257 0.01219385 0.04781872 -0.00240159 0.01219385 0.04844021 -0.01278948 0.01219385 0.04678303 -0.02257609 0.01219385 0.042925 -0.03130018 0.01219385 0.03704768 -0.03855222 0.01219385 0.02942723 -0.04399043 0.01219385 0.02042251 -0.04735893 0.01219385 0.01045709 -0.0485 0.01219385 0 -0.04735893 0.01219385 -0.01045709 -0.04399043 0.01219385 -0.02042251 -0.03855222 0.01219385 -0.02942723 -0.03130018 0.01219385 -0.03704768 -0.02257609 0.01219385 -0.042925 -0.01278948 0.01219385 -0.04678303 -0.00240159 0.01219385 -0.04844021 -0.0288484 0.05299997 0.01134669 -0.03073215 0.05299997 0.004066169 0.008062243 0.05299991 0.02993321 -0.02526736 0.05299997 0.01795989 0.01494294 0.05299991 0.02716076 -0.02019906 0.05299991 0.02351582 0.02096796 0.05299991 0.02283293 -0.01394206 0.05299991 0.0276876 0.0257923 0.05299997 0.01719743 -0.006864488 0.05299991 0.0302304 6.17029e-4 0.05299991 0.0309937 0.02913939 0.05299997 0.01057738 0.03081828 0.05299997 0.00335139 0.03073215 0.05299997 -0.004066109 0.02888602 0.05299997 -0.01125121 0.02538597 0.05299997 -0.01779156 0.02043211 0.05299997 -0.02331364 0.01430821 0.05299997 -0.02750039 0.007364988 0.05299997 -0.03011232 0 0.05299997 -0.03099972 -0.007464826 0.05299997 -0.03008759 -0.01449012 0.05299997 -0.02740478 -0.02066314 0.05299997 -0.02310889 -0.02561986 0.05299997 -0.01745337 -0.02906852 0.05299997 -0.01077044 -0.03080672 0.05299997 -0.003453552 0.007985889 -1.02393e-4 0.04783797 0.01809906 -1.02393e-4 0.04499626 0.03534412 -1.0239e-4 -0.03321176 0.02736335 -1.02393e-4 0.04004347 0.03534412 -1.02393e-4 0.03321176 0.02736335 -1.0239e-4 -0.04004347 0.01809906 -1.0239e-4 -0.04499626 0.007985889 -1.0239e-4 -0.04783797 -0.002502143 -1.0239e-4 -0.04843533 -0.01287293 -1.0239e-4 -0.04676038 -0.02263969 -1.0239e-4 -0.04289162 -0.03134429 -1.0239e-4 -0.03701055 -0.03857839 -1.0239e-4 -0.02939295 -0.04400253 -1.02391e-4 -0.02039659 -0.04736202 -1.02391e-4 -0.01044327 -0.0485 -1.02391e-4 0 -0.04736202 -1.02391e-4 0.01044327 -0.04400253 -1.02391e-4 0.02039659 -0.03857839 -1.02393e-4 0.02939289 -0.03134429 -1.02393e-4 0.03701055 -0.02263969 -1.02393e-4 0.04289162 -0.01287293 -1.02393e-4 0.04676038 -0.002502143 -1.02393e-4 0.04843533 0.0805 -0.004347503 0.02678847 0.0805 -0.009723901 0.01846307 0.0805 0.04713445 -0.03738784 0.0805 0.05743175 0.02996248 0.0805 0.03784114 -0.04083073 0.0805 0.06363302 0.02223223 0.0805 0.04959183 0.03602463 0.0805 0.02799999 -0.04199975 0.0805 0.06785053 0.01326394 0.0805 0.04054939 0.04008126 0.0805 0.01861482 -0.04093796 0.0805 0.06984889 0.003557026 0.0805 0.009704291 -0.03780537 0.0805 0.0308085 0.04190582 0.0805 0.001719176 -0.03276133 0.0805 0.06951731 -0.006347596 0.0805 -0.004936993 -0.02606028 0.0805 -0.009927451 -0.01804125 0.0805 0.02091133 0.04139745 0.0805 0.06687414 -0.01589912 0.0805 0.01140862 0.03858399 0.0805 0.06206649 -0.02456516 0.0805 0.002829909 0.0336222 0.0805 0.05536216 -0.03186357 -0.0222494 -1.02393e-4 0.04196655 -0.03075081 -1.0239e-4 -0.03620249 0.04070067 -1.0239e-4 -0.0244888 0.04501324 -1.02391e-4 -0.01516664 -0.03781414 -1.0239e-4 -0.02874577 -0.01270759 -1.02393e-4 0.04576838 -0.0222494 -1.0239e-4 -0.04196655 -0.04310983 -1.02391e-4 -0.01994448 0.04722154 -1.02391e-4 -0.005135536 -0.01270759 -1.0239e-4 -0.04576838 -0.002571523 -1.02393e-4 0.04743003 -0.04638946 -1.02391e-4 -0.01021105 0.007684588 -1.02393e-4 0.04687422 -0.002571523 -1.0239e-4 -0.04743003 0.01758152 -1.02393e-4 0.04412639 -0.04749995 -1.02391e-4 0 0.007684588 -1.0239e-4 -0.04687422 -0.04638946 -1.02391e-4 0.01021105 0.02665627 -1.02393e-4 0.03931522 0.04070067 -1.02393e-4 0.02448874 0.04501324 -1.02391e-4 0.01516664 0.01758152 -1.0239e-4 -0.04412639 0.03448474 -1.02393e-4 0.03266561 -0.04310983 -1.02391e-4 0.01994448 0.04722154 -1.02391e-4 0.005135476 0.02665627 -1.0239e-4 -0.03931522 -0.03781414 -1.02393e-4 0.02874577 0.03448474 -1.0239e-4 -0.03266561 -0.03075081 -1.02393e-4 0.03620249 0.01758152 -0.01110255 0.04412639 0.02665627 -0.01110249 0.03931522 0.007684588 -0.01110255 0.04687422 -0.04638946 -0.01110249 -0.01021105 -0.04749995 -0.01110249 0 -0.002571523 -0.01110255 0.04743003 -0.04310983 -0.01110249 -0.01994448 -0.01270759 -0.01110255 0.04576838 -0.03781414 -0.01110249 -0.02874577 -0.0222494 -0.01110249 0.04196655 -0.03075081 -0.01110249 -0.03620249 -0.03075081 -0.01110249 0.03620249 -0.0222494 -0.01110249 -0.04196655 -0.03781414 -0.01110249 0.02874577 -0.01270759 -0.01110249 -0.04576838 -0.04310983 -0.01110249 0.01994448 -0.002571523 -0.01110249 -0.04743003 -0.04638946 -0.01110249 0.01021105 0.007684588 -0.01110249 -0.04687422 0.01758152 -0.01110249 -0.04412639 0.02665627 -0.01110249 -0.03931522 0.03448474 -0.01110249 -0.03266561 0.04070067 -0.01110249 -0.0244888 0.04501324 -0.01110249 -0.01516664 0.04722154 -0.01110249 -0.005135536 0.04722154 -0.01110249 0.005135476 0.04501324 -0.01110249 0.01516664 0.04070067 -0.01110249 0.02448874 0.03448474 -0.01110249 0.03266561 0.0213024 -0.01110249 -0.03086185 0.01329743 -0.01110249 -0.03506284 -0.03641027 -0.01110249 0.008974254 -0.03320431 -0.01110249 0.01742684 -0.03749996 -0.01110249 0 0.004520118 -0.01110249 -0.03722631 0.0280689 -0.01110249 0.02486681 0.0213024 -0.01110249 0.03086179 0.03320431 -0.01110249 0.01742684 0.01329743 -0.01110249 0.03506284 -0.004520118 -0.01110249 -0.03722631 0.03641027 -0.01110249 0.008974254 0.004520118 -0.01110249 0.03722631 -0.03641027 -0.01110249 -0.008974313 0.03749996 -0.01110249 0 -0.01329743 -0.01110249 -0.03506284 -0.03320431 -0.01110249 -0.0174269 -0.004520118 -0.01110249 0.03722631 -0.0213024 -0.01110249 -0.03086185 -0.0280689 -0.01110249 -0.02486681 0.03641027 -0.01110249 -0.008974313 -0.01329743 -0.01110249 0.03506284 0.03320431 -0.01110249 -0.0174269 -0.0213024 -0.01110249 0.03086179 0.0280689 -0.01110249 -0.02486681 -0.0280689 -0.01110249 0.02486681 -0.01627039 -0.02499997 0.03378605 -0.008344531 -0.02499997 0.03655976 -0.02338087 -0.02499997 0.02931863 -0.03749996 -0.02499997 0 -0.02931863 -0.02499997 0.02338081 -0.03635251 -0.02499997 -0.009205698 -0.03378605 -0.02499997 0.01627039 -0.03298026 -0.02499997 -0.01784801 -0.03655976 -0.02499997 0.008344471 -0.02758944 -0.02499997 -0.02539801 -0.02051055 -0.02499997 -0.03139352 -0.01217597 -0.02499997 -0.0354681 -0.00309664 -0.02499997 -0.03737187 0.00617218 -0.02499997 -0.03698831 0.01506358 -0.02499997 -0.03434145 0.02303296 -0.02499997 -0.02959275 0.02959275 -0.02499997 -0.02303296 0.03434145 -0.02499997 -0.01506358 0.03698825 -0.02499997 -0.00617218 0.03737187 -0.02499997 0.00309658 0.0354681 -0.02499997 0.01217597 0.03139346 -0.02499997 0.02051055 0.02539801 -0.02499997 0.02758944 0.01784801 -0.02499997 0.0329802 0.009205698 -0.02499997 0.03635245 0 -0.02499997 0.0374999 0.06810081 -0.0240001 -0.01028728 0.07035636 -0.0240001 -0.008288979 0.07206815 -0.0240001 -0.005809009 0.06543254 -0.0240001 -0.01168745 0.07313674 -0.0240001 -0.002991378 0.06250667 -0.0240001 -0.01240885 0.05949324 -0.0240001 -0.01240885 0.05656743 -0.0240001 -0.01168745 0.05389899 -0.0240001 -0.01028728 0.05164361 -0.0240001 -0.008288979 0.04993176 -0.0240001 -0.005809009 0.04886323 -0.0240001 -0.002991378 0.0805 -0.01388823 0.003058135 0.0805 -0.01388823 -0.003058195 0.09549999 -0.01392865 0.002441942 0.09549999 -0.0122354 0.01204574 0.09549999 -0.01336169 -0.007293105 0.09549999 0.03768581 -0.04086786 0.09549999 0.02799999 -0.04199975 0.09549999 -0.01056498 -0.01663506 0.09549999 0.04684954 -0.03753232 0.09549999 -0.005689084 -0.02508062 0.09549999 0.05499696 -0.03217387 0.09549999 0.001003026 -0.03217387 0.09549999 0.06168913 -0.02508062 0.09549999 0.009150445 -0.03753232 0.09549999 0.06656497 -0.01663506 0.09549999 0.01831418 -0.04086786 0.09549999 0.06936174 -0.007293045 0.09549999 0.0699287 0.002442002 0.09549999 0.06823539 0.01204574 0.09549999 0.06437289 0.02099972 0.09549999 0.05854958 0.02882212 0.09549999 0.05107927 0.0350902 0.09549999 0.04236459 0.03946679 0.09549999 0.03287589 0.04171586 0.09549999 0.02312409 0.04171586 0.09549999 0.01363533 0.03946679 0.09549999 0.004920661 0.0350902 0.09549999 -0.002549588 0.02882212 0.09549999 -0.008372843 0.02099972 0.09549999 0.01998293 -0.03252655 0.09549999 0.01243197 -0.02966248 0.09549999 0.05932277 0.01187896 0.09549999 0.06125545 0.004037976 0.09549999 0.02799999 -0.03349971 0.09549999 0.005785405 0.02507483 0.09549999 4.30109e-4 0.01903015 0.09549999 0.06125545 -0.004037916 0.09549999 0.01243197 0.02966248 0.09549999 -0.00332278 0.01187896 0.09549999 0.01998293 0.03252655 0.09549999 -0.00525546 0.004037916 0.09549999 0.02799999 0.03349971 0.09549999 0.05932277 -0.01187896 0.09549999 -0.00525546 -0.004037976 0.09549999 0.03601706 -0.03252655 0.09549999 0.05556988 -0.01903015 0.09549999 0.03601706 0.03252655 0.09549999 0.04356795 -0.02966248 0.09549999 0.05021458 -0.02507483 0.09549999 -0.00332278 -0.01187896 0.09549999 0.04356795 0.02966248 0.09549999 4.30109e-4 -0.01903015 0.09549999 0.05021458 0.02507483 0.09549999 0.005785405 -0.02507483 0.09549999 0.05556988 0.01903015 0.1087999 -0.00525546 0.004037916 0.1087999 -0.00332278 0.01187896 0.1087999 -0.00525546 -0.004037976 0.1087999 -0.00332278 -0.01187896 0.1087999 0.03601706 -0.03252655 0.1087999 0.02799999 -0.03349971 0.1087999 4.30109e-4 -0.01903015 0.1087999 0.04356795 -0.02966248 0.1087999 0.005785405 -0.02507483 0.1087999 0.05021458 -0.02507483 0.1087999 0.01243197 -0.02966248 0.1087999 0.05556988 -0.01903015 0.1087999 0.01998293 -0.03252655 0.1087999 0.05932277 -0.01187896 0.1087999 0.06125545 -0.004037916 0.1087999 0.06125545 0.004037976 0.1087999 0.05932277 0.01187896 0.1087999 0.05556988 0.01903015 0.1087999 0.05021458 0.02507483 0.1087999 0.04356795 0.02966248 0.1087999 0.03601706 0.03252655 0.1087999 0.02799999 0.03349971 0.1087999 0.01998293 0.03252655 0.1087999 0.01243197 0.02966248 0.1087999 0.005785405 0.02507483 0.1087999 4.30109e-4 0.01903015 0.0582183 -0.02999985 0.01218634 0.05320638 -0.02999985 0.009772777 0.05122709 -0.02999985 0.007793545 0.05557644 -0.02999985 0.01126194 0.0488134 -0.02999985 0.00278145 0.04973787 -0.02999985 0.005423426 0.06406855 -0.02999985 0.01211744 0.06099987 -0.02999985 0.01249974 0.04888248 -0.02999985 -0.003068566 0.0485 -0.02999985 0 0.05000633 -0.02999985 -0.005949318 0.07146453 -0.02999985 0.006836652 0.0669493 -0.02999985 0.01099342 0.06946599 -0.02999985 0.00919646 0.05694121 -0.02999985 -0.0118227 0.07282269 -0.02999985 0.004058599 0.05180341 -0.02999985 -0.008466005 0.05416285 -0.02999985 -0.01046437 0.07244718 -0.02999985 -0.005021095 0.0733295 -0.02999985 -0.002057373 0.0734573 -0.02999985 0.001032173 0.06602114 -0.02999985 -0.01144713 0.05996751 -0.02999985 -0.01245731 0.06305742 -0.02999985 -0.01232928 0.06867766 -0.02999985 -0.009864211 0.07086426 -0.02999985 -0.007677555 0.07089996 0.005785405 0.02507483 0.07089996 4.30109e-4 0.01903015 0.07049995 4.30109e-4 0.01903015 0.07049995 -0.00332278 0.01187896 0.07089996 0.03601706 0.03252655 0.07089996 0.02799999 0.03349971 0.07049995 0.02799999 0.03349971 0.07089996 0.01243197 0.02966248 0.07049995 0.005785405 0.02507483 0.07089996 0.04356795 0.02966248 0.07049995 0.03601706 0.03252655 0.07089996 0.01998293 0.03252655 0.07049995 0.01243197 0.02966248 0.07089996 0.05021458 0.02507483 0.07049995 0.04356795 0.02966248 0.07049995 0.01998293 0.03252655 0.07089996 0.05556988 0.01903015 0.07049995 0.05021458 0.02507483 0.07089996 0.05932277 0.01187896 0.07049995 0.05556988 0.01903015 0.07089996 0.06125545 0.004037976 0.07049995 0.05932277 0.01187896 0.07089996 0.06125545 -0.004037916 0.07049995 0.06125545 0.004037976 0.07089996 0.05932277 -0.01187896 0.07049995 0.06125545 -0.004037916 0.07089996 0.05556988 -0.01903015 0.07049995 0.05932277 -0.01187896 0.07089996 0.05021458 -0.02507483 0.07049995 0.05556988 -0.01903015 0.07089996 0.04356795 -0.02966248 0.07049995 0.05021458 -0.02507483 0.07049995 0.04356795 -0.02966248 0.07089996 0.03601706 -0.03252655 0.07049995 0.03601706 -0.03252655 0.07089996 0.02799999 -0.03349971 0.07049995 0.02799999 -0.03349971 0.07089996 0.01998293 -0.03252655 0.07049995 0.01998293 -0.03252655 0.07089996 0.01243197 -0.02966248 0.07089996 0.005785405 -0.02507483 0.07049995 0.01243197 -0.02966248 0.07089996 4.30109e-4 -0.01903015 0.07049995 0.005785405 -0.02507483 0.07089996 -0.00332278 -0.01187896 0.07049995 4.30109e-4 -0.01903015 0.07089996 -0.00525546 -0.004037976 0.07049995 -0.00332278 -0.01187896 0.07089996 -0.00525546 0.004037916 0.07049995 -0.00525546 -0.004037976 0.07089996 -0.00332278 0.01187896 0.07049995 -0.00525546 0.004037916 0.07049995 0.04194146 -0.02656364 0.07049995 0.03517943 -0.02912825 0.07049995 -0.001781165 0.003615915 0.07049995 -5.04814e-5 0.01063787 0.07049995 0.04789358 0.02245527 0.07049995 0.05268949 0.01704192 0.07049995 0.02799999 -0.02999997 0.07049995 0.0419414 0.02656364 0.07049995 0.05605047 0.01063787 0.07049995 0.02082055 -0.02912825 0.07049995 -0.001781165 -0.003615975 0.07049995 0.03517943 0.02912825 0.07049995 0.05778121 0.003615975 0.07049995 0.01405853 -0.02656364 0.07049995 0.02799999 0.02999997 0.07049995 0.05778121 -0.003615915 0.07049995 -5.04814e-5 -0.01063787 0.07049995 0.02082055 0.02912825 0.07049995 0.00810635 -0.02245527 0.07049995 0.05605047 -0.01063787 0.07049995 0.003310501 -0.01704192 0.07049995 0.01405853 0.02656364 0.07049995 0.05268949 -0.01704192 0.07049995 0.00810635 0.02245527 0.07049995 0.04789364 -0.02245527 0.07049995 0.003310501 0.01704192 0.07089996 0.01405853 0.02656364 0.07089996 0.02082055 0.02912825 0.07089996 0.05605047 -0.01063787 0.07089996 0.05778121 -0.003615915 0.07089996 0.00810635 -0.02245527 0.07089996 0.02799999 0.02999997 0.07089996 0.003310501 -0.01704192 0.07089996 0.05778121 0.003615975 0.07089996 0.01405853 -0.02656364 0.07089996 -5.04814e-5 -0.01063787 0.07089996 0.05605047 0.01063787 0.07089996 0.02082055 -0.02912825 0.07089996 0.03517943 0.02912825 0.07089996 -0.001781165 -0.003615975 0.07089996 0.05268949 0.01704192 0.07089996 0.02799999 -0.02999997 0.07089996 0.0419414 0.02656364 0.07089996 0.04789358 0.02245527 0.07089996 -0.001781165 0.003615915 0.07089996 0.03517943 -0.02912825 0.07089996 -5.04814e-5 0.01063787 0.07089996 0.04194146 -0.02656364 0.07089996 0.003310501 0.01704192 0.07089996 0.04789364 -0.02245527 0.07089996 0.00810635 0.02245527 0.07089996 0.05268949 -0.01704192 0.01132959 0.0117976 -0.02987349 0.01742684 0.0117976 -0.03320431 0.008974313 0.0117976 -0.03641027 0.003851056 0.0117976 -0.031717 -0.03506284 0.0117976 0.01329743 -0.03102153 0.0117976 0.007645964 -0.03722631 0.0117976 0.004520058 -0.03194969 0.0117976 0 0 0.0117976 -0.03749996 -0.003851056 0.0117976 -0.031717 0.02486681 0.0117976 0.0280689 0.03086185 0.0117976 0.0213024 0.02391487 0.0117976 0.02118659 0.01742684 0.0117976 0.03320431 0.01814961 0.0117976 0.02629429 0.03506284 0.0117976 0.01329743 0.02829027 0.0117976 0.01484781 -0.03722631 0.0117976 -0.004520118 -0.03102153 0.0117976 -0.007646024 0.008974313 0.0117976 0.03641027 0.01132959 0.0117976 0.02987349 0.03722631 0.0117976 0.004520058 0.03102153 0.0117976 0.007645964 -0.008974313 0.0117976 -0.03641027 0 0.0117976 0.03749996 0.003851056 0.0117976 0.031717 -0.01132959 0.0117976 -0.02987349 -0.03506284 0.0117976 -0.01329743 -0.02829027 0.0117976 -0.01484787 -0.01814961 0.0117976 -0.02629429 -0.01742684 0.0117976 -0.03320431 0.03722631 0.0117976 -0.004520118 0.03194969 0.0117976 0 -0.02391487 0.0117976 -0.02118659 -0.03086185 0.0117976 -0.0213024 -0.003851056 0.0117976 0.031717 -0.02486681 0.0117976 -0.0280689 -0.008974313 0.0117976 0.03641027 0.03102153 0.0117976 -0.007646024 0.03506284 0.0117976 -0.01329743 -0.01132959 0.0117976 0.02987349 -0.01742684 0.0117976 0.03320431 0.02829027 0.0117976 -0.01484787 0.03086185 0.0117976 -0.0213024 -0.01814961 0.0117976 0.02629429 -0.02486681 0.0117976 0.0280689 0.02391487 0.0117976 -0.02118659 -0.02391487 0.0117976 0.02118659 0.02486681 0.0117976 -0.0280689 0.01814961 0.0117976 -0.02629429 -0.03086185 0.0117976 0.0213024 -0.02829027 0.0117976 0.01484781 0 0.01189744 0.03194969 -0.007109463 0.01189744 0.03114891 -0.01386255 0.01189744 0.02878594 -0.03194969 0.01189744 0 -0.0309723 0.01189744 -0.007843255 -0.01992022 0.01189744 0.02497947 -0.02809906 0.01189744 -0.01520627 -0.02497947 0.01189744 0.01992022 -0.02350634 0.01189744 -0.02163887 -0.02878594 0.01189744 0.01386255 -0.01747483 0.01189744 -0.02674746 -0.03114891 0.01189744 0.007109403 -0.01037395 0.01189744 -0.03021878 -0.00263828 0.01189744 -0.03184086 0.005258679 0.01189744 -0.03151398 0.01283413 0.01189744 -0.0292589 0.01962405 0.01189744 -0.025213 0.025213 0.01189744 -0.01962405 0.0292589 0.01189744 -0.01283413 0.03151398 0.01189744 -0.005258679 0.03184086 0.01189744 0.00263822 0.03021878 0.01189744 0.01037395 0.02674746 0.01189744 0.01747483 0.02163887 0.01189744 0.02350634 0.01520627 0.01189744 0.02809906 0.007843255 0.01189744 0.0309723 0.03506284 0.01189744 -0.01329743 0.03086185 0.01189744 -0.0213024 0 0.01189744 -0.03749996 0.02486681 0.01189744 -0.0280689 -0.008974313 0.01189744 -0.03641027 0.01742684 0.01189744 -0.03320431 -0.01742684 0.01189744 -0.03320431 0.008974313 0.01189744 -0.03641027 -0.02486681 0.01189744 -0.0280689 -0.03086185 0.01189744 -0.0213024 -0.03506284 0.01189744 -0.01329743 -0.03722631 0.01189744 -0.004520118 -0.03722631 0.01189744 0.004520058 -0.03506284 0.01189744 0.01329743 -0.03086185 0.01189744 0.0213024 -0.02486681 0.01189744 0.0280689 -0.01742684 0.01189744 0.03320431 -0.008974313 0.01189744 0.03641027 0 0.01189744 0.03749996 0.008974313 0.01189744 0.03641027 0.01742684 0.01189744 0.03320431 0.02486681 0.01189744 0.0280689 0.03086185 0.01189744 0.0213024 0.03506284 0.01189744 0.01329743 0.03722631 0.01189744 0.004520058 0.03722631 0.01189744 -0.004520118</float_array>
          <technique_common>
            <accessor source="#Part__Feature002001_002-mesh-positions-array" count="729" stride="3">
              <param name="X" type="float"/>
              <param name="Y" type="float"/>
              <param name="Z" type="float"/>
            </accessor>
          </technique_common>
        </source>
        <source id="Part__Feature002001_002-mesh-normals">
          <float_array id="Part__Feature002001_002-mesh-normals-array" count="3333">0 -1 0 0 -1 3.25038e-7 0 -1 3.10807e-7 0 -1 -3.3094e-7 0.0390836 0.5198451 0.8533661 0 0.5019083 0.8649209 0.002518117 0.3478284 0.9375548 -0.004653036 0.5088354 0.8608512 -0.002234458 0.2420356 0.9702648 0.01639044 0.3125202 0.9497698 0.004284977 0.1228916 0.9924108 0.02844125 0.1017871 0.9943996 -0.0174005 -0.03188914 0.99934 0.07196271 -0.1133727 0.9909431 -0.1387562 0.5039182 0.8525335 -0.08201235 0.4882037 0.8688679 -0.1400738 0.3094809 0.9405323 -0.1188588 0.4797462 0.8693194 -0.1453634 0.1007467 0.9842356 -0.1113946 0.2604196 0.959048 -0.147659 -0.1124215 0.9826283 -0.1077122 0.01817679 0.994016 -0.1548305 -0.3388725 0.9280049 -0.1068952 -0.2252275 0.9684245 -0.1455163 -0.5092439 0.848231 -0.0907709 -0.4557331 0.8854762 -0.1114048 -0.6206764 0.776112 -0.1371914 -0.7086034 0.6921414 -0.001158595 -0.6610233 0.7503645 -0.01740115 -0.03188914 -0.99934 0.0719608 -0.1133729 -0.9909432 -0.006512582 0.2191652 -0.9756661 0.01355886 0.1148048 -0.9932956 0.02844202 0.1017872 -0.9943996 0.03908503 0.5198463 -0.8533653 0.002664804 0.3443865 -0.9388243 0.0161454 0.3125216 -0.9497735 0 0.5019086 -0.8649207 -0.004652917 0.5088358 -0.8608511 -0.141401 -0.6863511 -0.7133919 -0.1398249 -0.5741629 -0.8067131 -0.05575495 -0.6599955 -0.7491978 -0.08645713 -0.4631724 -0.8820411 -0.1548305 -0.3388724 -0.9280049 -0.09895569 -0.455376 -0.8847828 -0.147659 -0.1124215 -0.9826283 -0.1068952 -0.2252275 -0.9684245 -0.1453641 0.1007468 -0.9842355 -0.107712 0.01817685 -0.9940161 -0.1400738 0.3094809 -0.9405323 -0.1113946 0.2604194 -0.959048 -0.1387558 0.5039187 -0.8525332 -0.1188591 0.4797464 -0.8693192 -0.08200931 0.4882049 -0.8688675 -0.2830678 -0.6339873 -0.7196755 -0.2492901 -0.7380995 -0.6269479 -0.2510554 -0.7020131 -0.6664449 -0.244072 -0.7215717 -0.6478913 -0.242826 -0.7242678 -0.6453463 -0.2694639 -0.4406948 -0.8562577 -0.2790096 -0.5643013 -0.7769927 -0.2397515 -0.6117513 -0.7538433 -0.2657469 -0.2183803 -0.9389829 -0.2509492 -0.3888193 -0.8864785 -0.2550908 -0.1907135 -0.9479225 -0.2609087 0.01765006 -0.9652022 -0.2600786 0.0156756 -0.9654603 -0.2149297 0.4784074 -0.8514292 -0.2663382 0.2525849 -0.9301961 -0.254468 0.2214764 -0.9413789 -0.2505498 0.4174806 -0.8734614 -0.2757468 0.4886939 -0.8277332 -0.2271686 0.6496689 -0.7254825 -0.2997007 0.5854511 -0.7532772 -0.2338353 0.7556336 -0.6118324 -0.2626756 0.8253102 -0.4998645 -0.2494521 0.7435595 -0.6203975 -0.2055779 0.8678165 -0.4523631 0.01559782 0.6950445 0.7187976 -0.01365864 0.6136016 0.7894978 0 -0.7466139 -0.6652576 0.01538211 0.513589 0.8578985 -0.01318722 0.4311977 0.9021612 -0.003425002 -0.5876336 -0.8091199 0.003673613 -0.7417995 -0.6706117 0.01465672 0.3052386 0.9521632 -0.01221829 0.2289985 0.9733502 -0.006359577 -0.4016649 -0.9157647 0.006854653 -0.570019 -0.8216031 0.01344662 0.08092862 0.9966292 -0.01076573 0.01623338 0.9998103 -0.008815646 -0.197231 -0.9803174 0.009535491 -0.3684704 -0.9295907 0.01172989 -0.1476148 0.9889755 -0.008815288 -0.1972312 0.9803174 -0.01076573 0.01623338 -0.9998103 0.01173031 -0.1476148 -0.9889754 0.009535908 -0.3684704 0.9295907 -0.006359875 -0.4016647 0.9157648 -0.01221829 0.2289983 -0.9733502 0.0134468 0.08092868 -0.9966292 0.006854712 -0.570019 0.821603 -0.003425002 -0.5876336 0.8091199 -0.01318722 0.431198 -0.9021611 0.01465672 0.3052387 -0.9521631 0 -0.7466142 0.6652573 0.003673672 -0.7418001 0.6706111 -0.01365935 0.6136012 -0.789498 0.01538193 0.513589 -0.8578985 -0.01364809 0.7677622 -0.6405897 0.01559787 0.6950449 -0.7187971 -0.01312386 0.8866811 -0.4621953 0.01025134 0.9339981 -0.3571308 0.02010911 0.9462416 -0.322835 0.0153436 0.8401952 -0.5420672 0.01310104 0.9413947 -0.3370525 9.96301e-4 0.9854679 -0.1698588 -5.15378e-4 0.9679296 -0.2512214 0.02152782 0.9932104 -0.1143239 -0.001946508 0.9991833 0.04036158 0.002470672 0.9978724 -0.06515264 0.02113932 0.9932185 0.1143252 -0.003807425 0.9623227 0.2718835 0.004412829 0.9885379 0.1509085 0.01604574 0.9413546 0.3370372 0.01025134 0.9339981 0.3571308 -0.01312386 0.8866811 0.4621953 0.01534372 0.8401952 0.5420672 -0.01364845 0.7677614 0.6405905 -0.2055777 0.8678165 0.4523631 -0.2685421 0.8205106 0.5046263 -0.2149308 0.4784073 0.851429 -0.2484797 0.7387043 0.6265572 -0.2415244 0.7451007 0.621684 -0.2323972 0.6347776 0.7369185 -0.2717001 0.5905748 0.7598688 -0.2757467 0.4886934 0.8277335 -0.2663384 0.2525851 0.9301961 -0.2505496 0.4174802 0.8734616 -0.2609089 0.01765006 0.965202 -0.2544676 0.2214763 0.9413791 -0.2600789 0.0156756 0.9654601 -0.2657466 -0.2183803 0.9389829 -0.255091 -0.1907137 0.9479224 -0.2830673 -0.6339872 0.7196758 -0.269464 -0.4406949 0.8562576 -0.2509492 -0.3888191 0.8864786 -0.2397518 -0.6117514 0.753843 -0.2440713 -0.7215735 0.6478896 -0.2510557 -0.7020131 0.6664449 -0.2790098 -0.5643007 0.7769931 -0.2492898 -0.7380998 0.6269477 -0.2428261 -0.724268 0.645346 -0.7193526 0.6946452 0 -0.7193416 0.6946566 -3.58165e-7 -0.7193484 0.6946495 -7.01819e-7 -0.7193149 0.6946842 -5.12973e-6 -0.7193024 0.6946972 -4.77768e-6 -0.719352 0.6946457 0 0 1 0 0 1 3.7497e-7 0 1 8.75253e-7 0 1 6.08812e-7 0 1 -6.08812e-7 0 1 -3.7497e-7 0 1 -1.75051e-6 -0.4548184 0.8905843 4.6227e-6 -0.454743 0.8906227 3.06338e-6 -0.4548423 0.890572 1.47683e-6 -0.4547569 0.8906156 -3.35902e-7 -0.4547626 0.8906127 0 -0.4547495 0.8906195 0 -0.5951007 0.8036512 8.48046e-5 -0.5951551 0.8036109 0 -0.5950973 0.8036537 -8.48049e-5 -0.5951556 0.8036105 0 -0.3907278 0.9205063 1.32281e-7 -0.3907267 0.9205068 0 -0.390833 0.9204617 1.27812e-7 -0.3908335 0.9204615 0 1.44272e-7 0 -1 0 0 -1 2.3904e-7 0 -1 0 0 1 2.3904e-7 0 1 0 0 1 0.2881156 0.4598342 0.8399654 0.4218913 0.4565102 0.7833303 0.3949612 0.4784033 0.7843061 0.302012 0.5102106 0.8052788 0.08020895 0.5001377 0.8622232 0.2297322 0.478115 0.84772 -0.1250919 0.4990208 0.857514 0.03089302 0.4790422 0.8772482 -0.3237476 0.4977362 0.8046404 -0.1693156 0.4800761 0.8607318 -0.5045525 0.4962922 0.7064849 -0.3603804 0.4812402 0.7990832 -0.657378 0.4947069 0.5684359 -0.5322111 0.4825366 0.6956363 -0.7736129 0.4929604 0.3981371 -0.6758603 0.4839644 0.55587 -0.846639 0.4910612 0.2050888 -0.7837939 0.4855218 0.3872157 -0.8504081 0.4871965 0.1986092 -0.8722864 0.4889954 0 -0.8722866 0.488995 0 -0.8466391 0.491061 -0.2050887 -0.8504082 0.4871965 -0.1986093 -0.7736132 0.4929603 -0.398137 -0.7837935 0.4855222 -0.3872157 -0.657378 0.4947069 -0.5684359 -0.6758603 0.4839644 -0.5558699 -0.5322111 0.4825366 -0.6956362 -0.5045525 0.4962922 -0.7064849 -0.3603801 0.4812405 -0.7990831 -0.323748 0.4977361 -0.8046403 -0.1693149 0.4800763 -0.8607318 -0.1250928 0.4990207 -0.8575139 0.03089302 0.4790423 -0.877248 0.08020991 0.5001377 -0.8622232 0.2883051 0.4587119 -0.840514 0.2297316 0.4781152 -0.8477202 0.3041364 0.5111073 -0.8039095 0.4001916 0.4760838 -0.7830651 0.4230832 0.4515818 -0.7855409 0.2332714 0.6950464 0.6800699 0.09804522 0.715678 0.6915144 -0.07240545 0.7145372 0.6958405 0.06650769 0.6960211 0.7149346 -0.2391524 0.71331 0.658783 -0.1034953 0.6971033 0.7094617 -0.3922549 0.7119684 0.5824407 -0.2671937 0.6982841 0.6640835 -0.5227159 0.7104983 0.4711266 -0.4153114 0.69953 0.5815276 -0.6226029 0.70893 0.3313364 -0.5395371 0.700886 0.466539 -0.6859645 0.7072195 0.1711527 -0.6329786 0.7022954 0.3257598 -0.6904147 0.7038158 0.1672447 -0.7087992 0.7054103 0 -0.7088003 0.7054092 0 -0.6859645 0.7072196 -0.1711528 -0.6904146 0.703816 -0.1672451 -0.6226031 0.7089301 -0.3313362 -0.6329784 0.7022955 -0.3257597 -0.5227168 0.7104979 -0.4711263 -0.5395373 0.7008858 -0.4665393 -0.3922551 0.7119679 -0.5824413 -0.4153115 0.6995296 -0.581528 -0.2391527 0.7133095 -0.6587834 -0.267194 0.6982837 -0.6640838 -0.07240539 0.7145363 -0.6958416 -0.1034952 0.6971029 -0.7094619 0.09804517 0.7156776 -0.6915149 0.06650763 0.6960206 -0.714935 0.2332713 0.695046 -0.6800704 0.2638216 0.2560213 -0.9299739 0.4777957 0.2584869 -0.8395807 0.6001426 0.2515359 -0.7593146 0.4550434 0.2795941 -0.8454364 0.6358242 0.2257106 -0.7380937 0.4640949 0.2052069 0.8616879 0.6358239 0.2257107 0.7380939 0.6001431 0.2515358 0.7593142 0.4550435 0.2795943 0.8454364 0.4777956 0.2584869 0.8395808 0.2524306 0.2619656 0.9314788 0.2638217 0.2560213 0.9299739 0.03393918 0.2647128 0.9637299 0.05715888 0.2533341 0.9656888 -0.1860002 0.2670909 0.9455509 -0.1524995 0.2509912 0.9559014 -0.3959502 0.2691143 0.8779527 -0.3551989 0.2489813 0.9010227 -0.5849363 0.2707566 0.7645525 -0.5413655 0.2473209 0.8035893 -0.7432093 0.2720273 0.6112621 -0.702148 0.2459697 0.6681969 -0.8625179 0.2729378 0.4261078 -0.8299246 0.244959 0.5012189 -0.9366744 0.2734719 0.2187564 -0.9186417 0.2442811 0.3105226 -0.961825 0.2736651 0 -0.9640676 0.2439426 0.105193 -0.9640678 0.243942 -0.105193 -0.9366743 0.2734722 -0.2187564 -0.9186418 0.2442809 -0.3105226 -0.8625179 0.2729378 -0.4261078 -0.7432091 0.2720273 -0.6112622 -0.8299247 0.2449591 -0.5012187 -0.7021481 0.2459698 -0.6681969 -0.5849363 0.2707566 -0.7645525 -0.3959502 0.2691143 -0.8779527 -0.5413656 0.2473209 -0.8035893 -0.1860002 0.2670909 -0.9455508 -0.355199 0.2489813 -0.9010227 0.03393918 0.2647129 -0.9637299 -0.1524995 0.2509912 -0.9559013 0.2524306 0.2619656 -0.9314788 0.05715882 0.253334 -0.9656888 0.4640942 0.2052067 -0.8616883 -0.882761 -0.005766749 0.4697871 -0.9681053 0.005844414 0.2504758 0.3140193 -3.12681e-7 0.9494166 -0.7428023 -0.004909694 0.6694929 -0.8793382 0.004834234 0.4761732 0.4742912 -0.06369423 0.8780609 0.3729624 0.06418013 0.9256242 -0.5585947 -0.003921091 0.8294315 -0.7387787 0.003911733 0.6739368 0.6686999 -0.06365126 0.740803 -0.3412306 -0.002964198 0.939975 0.5821992 0.06412297 0.8105137 -0.5547444 0.002940416 0.8320156 0.8250638 -0.06358295 0.5614508 -0.1034954 -0.001981377 0.994628 -0.3381089 0.001976251 0.941105 0.7581028 0.06402742 0.6489844 0.1403789 -9.67062e-4 0.9900974 0.9345243 -0.06346762 0.3501946 -0.1014979 0.00102353 0.9948353 0.8905894 0.06395649 0.450289 0.1410164 -3.87002e-7 0.9900074 0.9908717 -0.06343138 0.1189529 0.9720641 0.06392717 0.225842 0.9908775 -0.06333833 -0.118954 0.9978984 0.0637542 -0.01158732 0.9345391 -0.06321805 -0.3502001 0.9665711 0.06373351 -0.2483516 0.8250886 -0.06310874 -0.561468 0.879905 0.06360232 -0.4708738 0.6687276 -0.06301248 -0.7408325 0.7428608 0.06350612 -0.666427 0.4743148 -0.06287598 -0.8781071 0.5632465 0.06341201 -0.8238522 0.3513965 0.06328421 -0.9340855 0.3101312 0.009183108 -0.9506494 0.1403617 -0.01590067 -0.9899727 0.1196129 0.01276069 -0.9927386 -0.1034876 -0.01293772 -0.9945467 -0.121286 0.0120989 -0.9925439 -0.3412072 -0.01209104 -0.9399104 -0.5585644 -0.0112642 -0.8293848 -0.3567188 0.01117646 -0.9341449 -0.7427715 -0.01035559 -0.669465 -0.5711821 0.01035249 -0.8207582 -0.8827355 -0.009513199 -0.4697742 -0.7520102 0.009409189 -0.6590844 -0.9702197 -0.008540809 -0.2420763 -0.8886168 0.00859034 -0.4585701 -0.9999709 -0.007640242 0 -0.9728946 0.007680833 -0.2311214 -0.9702329 -0.006758034 0.2420796 -0.9999283 0.006716787 0.009922623 0.2705129 -9.87038e-4 0.9627159 0.05908644 0.001017868 0.9982524 0.7973293 -0.05690735 -0.6008559 0.4714642 -0.001132011 0.8818846 0.2729178 0.001124083 0.9620367 0.772893 -0.01236158 -0.6344161 0.6502993 -0.001260101 0.7596772 0.6497455 0.04126316 -0.7590311 0.4739453 0.001242995 0.8805534 0.7960455 -0.0802862 0.5998881 0.6502613 -0.08576738 -0.7548538 0.6712079 -0.001583933 -0.7412676 0.784877 -0.02860426 0.6189911 0.652666 0.001369357 0.7576445 0.4714642 -0.001132011 -0.8818845 0.7583613 -5.49287e-4 0.6518343 0.4739453 0.001243054 -0.8805534 0.2705129 -9.87038e-4 -0.9627159 0.2729178 0.001124083 -0.9620367 0.0568645 -8.66085e-4 -0.9983816 0.05908644 0.001017868 -0.9982524 -0.1594404 -7.37175e-4 -0.9872074 -0.1575421 8.91602e-4 -0.9875119 -0.3682746 -6.18922e-4 -0.929717 -0.3667485 7.73559e-4 -0.9303198 -0.5598304 -4.96579e-4 -0.8286072 -0.5587224 6.38583e-4 -0.8293545 -0.725124 -3.7626e-4 -0.6886184 -0.7244034 5.13979e-4 -0.6893762 -0.8563854 -2.48291e-4 -0.516337 -0.8560042 3.80662e-4 -0.5169689 -0.9473418 2.55428e-4 -0.3202241 -0.9474836 -1.22118e-4 -0.3198045 -0.9940998 1.27824e-4 -0.10847 -0.9941161 0 0.1083208 -0.9941161 0 -0.1083209 -0.9940998 1.27803e-4 0.10847 -0.9474836 -1.22118e-4 0.3198046 -0.8563854 -2.48291e-4 0.5163371 -0.9473419 2.55153e-4 0.3202239 -0.7251239 -3.7671e-4 0.6886184 -0.8560042 3.80703e-4 0.5169689 -0.5598304 -4.96579e-4 0.8286072 -0.7244034 5.13893e-4 0.6893762 -0.3682746 -6.18922e-4 0.929717 -0.5587225 6.38567e-4 0.8293545 -0.1594404 -7.37175e-4 0.9872074 -0.3667485 7.73545e-4 0.9303198 0.0568645 -8.66085e-4 0.9983816 -0.1575421 8.91605e-4 0.9875119 1 0 0 1 8.22829e-6 0 1 4.47271e-6 0 1 4.54266e-6 0 1 8.18924e-6 0 1 -1.26068e-6 0 1 2.2708e-6 0 1 -4.11655e-6 0 1 9.1864e-6 0 1 -3.56172e-6 0 1 -9.25353e-6 0 1 -1.04535e-5 0 1 -9.02881e-7 0 1 4.76903e-6 0 1 7.92285e-6 0 1 -2.03386e-6 0 1 1.46402e-5 0 1 -2.29465e-6 0 1 7.7939e-6 0 1 -4.62244e-6 0 1 3.82205e-6 0 1 -3.73997e-6 0 1 -4.8589e-6 0 0 -1 0 0 -1 -1.74231e-7 0 -1 -1.69765e-7 0 -1 0 0 -1 -1.76635e-7 0 -1 0 0 -1 -1.42307e-7 0 -1 0 0 -1 0 0 -1 -1.55268e-7 3.01142e-7 -1 0 0 -1 0 0 -1 0 0 -1 0 0 -1 0 0 -1 0 0 -1 0 0 -1 0 0 -1 0 0 -1 0 0 -1 0 0 -1 0 0 -1 0 0 -1 0 0 -1 0 0 -1 0 0 -1 -1.74231e-7 0 -1 -1.76635e-7 0 -1 0 0 -1 0 0 -1 0 0 -1 0 0 -1 0 -3.01142e-7 -1 0 0 -1 0 0 -1 -1.71397e-7 0 -1 0 2.72824e-7 -1 0 -1.45694e-6 -1 0 0 -1 -1.66358e-7 0 -1 -1.31361e-7 0 -1 0 0 -1 0 0 -1 0 -1 0 0 -1 1.28113e-5 0 -1 -4.34299e-6 0 -1 -5.75861e-6 0 -1 2.48406e-6 0 0 1 1.41051e-6 0 1 -2.95958e-6 0 1 4.45219e-6 -2.28224e-6 1 4.2739e-6 0 1 -4.45253e-6 0 1 -2.06309e-7 0 1 -1.43388e-6 0 1 2.60272e-7 0 1 -1.16246e-6 0 1 4.2733e-6 0 1 1.11297e-6 0 1 5.2514e-7 0 1 -2.89187e-7 0 1 -4.36189e-6 0 1 1.71e-7 0 1 -1.35438e-6 0 1 1.15187e-6 0 1 0 0 1 1.11363e-6 2.82333e-7 1 1.15093e-6 2.46613e-6 1 0 0.4684115 0 0.8835105 0.4684125 0 0.8835099 0.2675245 0 0.9635511 -0.9941384 5.15178e-7 -0.1081163 -0.9941383 -6.26065e-7 -0.1081163 0.05411994 0 0.9985345 0.05411893 0 0.9985345 -0.9476522 0 -0.3193047 -0.9476522 -2.65596e-7 -0.3193046 -0.1617766 0 0.9868274 -0.1617755 0 0.9868277 -0.8568522 0 -0.5155622 -0.8568522 0 -0.5155623 -0.37014 0 0.9289761 -0.3701385 0 0.9289767 -0.7259956 0 -0.6876994 -0.5611885 0 -0.827688 -0.5611886 0 0.8276879 -0.5611882 0 0.8276882 -0.3701394 0 -0.9289762 -0.5611885 0 -0.8276882 -0.7259957 0 0.6876993 -0.1617766 0 -0.9868275 -0.3701391 0 -0.9289764 -0.8568522 0 0.5155623 -0.8568521 0 0.5155622 -0.1617756 0 -0.9868276 -0.9476522 0 0.3193047 -0.9476522 0 0.3193047 0.05411893 0 -0.9985346 0.05411994 0 -0.9985345 -0.9941384 5.15178e-7 0.1081163 -0.9941384 -2.65594e-7 0.1081163 0.2675246 0 -0.9635511 0.4684113 0 -0.8835107 0.4684123 0 -0.88351 0.6473886 0 -0.7621601 0.6473892 0 -0.7621596 0.7960892 0 -0.6051794 0.7960892 0 -0.6051794 0.9075851 -5.15172e-7 -0.4198682 0.9075852 0 -0.4198683 0.976616 5.15177e-7 -0.2149915 0.976616 -7.42074e-7 -0.2149915 1 -5.15188e-7 0 1 6.41128e-7 0 0.9766159 -5.15177e-7 0.2149915 0.9766159 -3.89239e-7 0.2149915 0.9075851 0 0.4198684 0.9075852 -2.26895e-7 0.4198682 0.7960895 0 0.605179 0.7960894 0 0.6051792 0.6473888 0 0.7621601 0.6473891 0 0.7621598 -3.0732e-7 -1 -2.13016e-7 1.72834e-7 -1 -1.60706e-7 0 -1 1.4381e-7 0 -1 -1.6008e-7 0 -1 -5.01926e-7 0 -1 -4.76961e-7 0 -1 -1.44168e-7 0 -1 1.42977e-7 3.0732e-7 -1 -2.84021e-7 0 -1 -1.59503e-7 0 -1 -2.86815e-7 -1.72835e-7 -1 -4.01765e-7 0 -1 -4.73264e-7 0 -1 -3.61239e-7 0 -1 0 0 -1 -2.88991e-7 0 -1 -3.17974e-7 0 -1 0 0 -1 -6.17298e-7 0 -1 -3.13991e-7 0 -1 0 0 -1 -2.90493e-7 0 -1 -1.4381e-7 0 -1 -3.15509e-7 2.57421e-7 -1 -3.55032e-7 0 -1 0 0 -1 1.27502e-7 0 -1 -4.70986e-7 -2.57421e-7 -1 -3.27722e-7 0 -1 -1.27502e-7 0 -1 -1.58108e-7 0 -1 0 0 -1 1.59503e-7 0 -1 -2.85954e-7 -0.4646263 0.01805645 0.8853229 -0.3302627 -0.01605474 0.9437526 -0.6630586 0.01606112 0.7483952 -0.5319511 -0.01445764 0.8466517 -0.9927088 4.63305e-7 -0.1205381 -0.8229126 0.01326185 0.5680133 -0.7070554 -0.01202303 0.7070559 -0.935005 0.00201863 -0.3546289 -0.9923191 -0.002064585 -0.1236881 -0.9349635 0.009628474 0.3546132 -0.8467071 -0.008825361 0.5319862 -0.8229786 0.003941297 -0.5680588 -0.9315832 -0.004008173 -0.3635061 -0.9926952 0.005215764 0.1205365 -0.943863 -0.004814624 0.330302 -0.9937123 -4.98775e-7 0.1119641 -0.6631328 0.005725622 -0.74848 -0.8138234 -0.005871593 -0.5810827 -0.4646886 0.007397294 -0.8854433 -0.6462801 -0.007631599 -0.7630621 -0.2393108 0.008997023 -0.9709013 -0.4391854 -0.009247362 -0.898349 0 0.01046913 -0.9999452 -0.2052047 -0.01077234 -0.9786598 0.2393029 0.01181662 -0.9708731 0.04134362 -0.01219898 -0.9990706 0.4646612 0.01308661 -0.885392 0.2852879 -0.0134955 -0.9583469 0.6630768 0.01422405 -0.7484163 0.5118287 -0.01470458 -0.8589618 0.822889 0.01527333 -0.5679969 0.7070187 -0.01577651 -0.7070189 0.8589342 -0.0167585 -0.5118116 0.9348844 0.01619327 -0.3545832 0.9582846 -0.01766026 -0.2852694 0.9925656 0.01698321 -0.1205207 0.9989754 -0.01841861 -0.04133927 0.9925532 0.01770561 0.1205192 0.9785385 -0.01906919 0.2051801 0.9348502 0.01830923 0.3545702 0.8228396 0.01880633 0.5679625 0.8982149 -0.01960355 0.4391193 0.6630219 0.01918023 0.7483543 0.7629308 -0.02004009 0.6461696 0.4646137 0.01946181 0.8852997 0.5809719 -0.02037942 0.8136684 0.2392743 0.01963174 0.9707536 0.3634322 -0.02057635 0.9313935 0 0.01968222 0.9998063 0.1236618 -0.02069014 0.9921088 -0.2392751 0.01928168 0.9707604 -0.1119491 -0.01685148 0.9935711 0 -1 0 0 -1 0 0 -1 0 0 -1 0 0 -1 0 0 -1 0 0 -1 3.44372e-7 0 -1 0 0 -1 -6.50075e-7 0 -1 -6.21614e-7 0 -1 6.6188e-7 -1 3.21383e-5 0 0.003300666 -0.9893914 0.1452367 -0.00269407 -0.9999964 0 0.01620751 -0.9846802 0.1736155 -0.00627315 -0.9893774 -0.1452347 0 0.1160765 -0.9932404 0.01862615 -0.9981353 -0.05813032 -0.00123614 0.1179654 -0.993017 -0.009692728 -0.9455682 -0.3252797 -0.002433478 0.3473898 -0.9377177 0.01162868 -0.9579262 -0.286779 0.001215755 0.3420339 -0.939687 -0.008061587 -0.8489891 -0.5283491 -0.003602743 0.5574322 -0.8302147 0.01006436 -0.8659894 -0.4999612 0.00238949 0.5494983 -0.8354914 -0.006272494 -0.7094623 -0.7047155 -0.004718244 0.7364336 -0.6764934 0.008348286 -0.7273461 -0.6862201 0.003512561 0.727367 -0.6862398 -0.004329144 -0.5340535 -0.8454397 -0.005779683 0.8744373 -0.4851043 0.006486237 -0.549488 -0.8354764 0.004607915 0.866024 -0.4999815 -0.00223869 -0.3316553 -0.9433981 -0.006814658 0.963756 -0.2666983 0.004476428 -0.3420307 -0.9396782 0.005672335 0.9579755 -0.286794 0 -0.112424 -0.9936604 0.002315402 -0.1160762 -0.9932377 -0.007804572 0.9994097 -0.03345745 0.006688952 0.9982861 -0.05813872 -0.008755028 0.9794218 0.2016342 0.007667243 0.9847808 0.1736319 -0.009670376 0.9048876 0.4255408 0.008607566 0.9181784 0.3960736 -0.01055955 0.779985 0.6257092 0.009496569 0.8020991 0.5971155 0.01033467 0.6427412 0.7660137 -0.01137882 0.6116656 0.7910346 0.01116347 0.4487642 0.8935806 -0.01216095 0.4092836 0.9123262 0.01194578 0.2306124 0.9729723 -0.01292634 0.1840924 0.982824 0.01266294 0 0.9999198 -0.0136311 -0.05129295 0.9985907 0.0133652 -0.2306082 0.9729549 -0.01429116 -0.283859 0.9587596 0.01402378 -0.4487478 0.8935486 -0.01493334 -0.5006154 0.8655411 0.0146166 -0.6427069 0.7659728 -0.01553755 -0.689469 0.7241485 0.01518416 -0.8020432 0.597073 -0.01607602 -0.8399487 0.5424277 0.01571887 -0.9180989 0.39604 -0.01659286 -0.9436547 0.3305156 1 -1.55456e-7 0 1 -7.09818e-7 0 1 1.69957e-6 0 1 -1.45087e-6 0 1 1.66202e-6 0 1 -1.44449e-6 0 1 -7.26009e-7 0 1 1.65046e-6 0 1 -4.13739e-7 0 1 1.08961e-6 0 1 1.44449e-6 0 1 2.59093e-7 0 1 -1.64861e-6 0 1 -1.44149e-6 0 1 4.15506e-7 0 1 -8.49784e-7 0 1 -1.08961e-6 0 1 7.18987e-7 0 1 1.41964e-6 0 1 -1.43797e-6 0 1 -3.64389e-7 0 1 -8.33295e-7 0 1 3.64389e-7 0 1 3.56215e-7 0 1 4.13739e-7 0 0 -0.9709408 0.23932 0 -0.9709408 -0.23932 0 -0.9709408 -0.2393199 0 0.1205089 -0.9927123 0 0.120509 -0.9927123 0 -0.8854696 -0.4646975 0 -0.8854693 -0.4646978 0 0.3546387 -0.9350034 0 0.3546392 -0.9350032 0 -0.748503 -0.6631315 0 -0.7485025 -0.663132 0 0.5680516 -0.822993 0 -0.5680517 -0.822993 0 0.7485033 -0.6631312 0 0.7485028 -0.6631317 0 -0.3546384 -0.9350036 0 -0.3546389 -0.9350033 0 0.88547 -0.4646966 0 0.8854698 -0.4646971 0 -0.120509 -0.9927123 0 0.9709407 -0.2393201 0 0.9709407 0.2393201 0 0.88547 0.4646966 0 0.8854698 0.4646971 0 0.7485027 0.6631318 0 0.7485023 0.6631323 0 0.5680518 0.8229929 0 0.3546389 0.9350034 0 0.3546384 0.9350036 0 0.120509 0.9927123 0 -0.1205089 0.9927123 0 -0.3546386 0.9350035 0 -0.3546391 0.9350033 0 -0.5680521 0.8229927 0 -0.568052 0.8229928 0 -0.7485032 0.6631312 0 -0.7485027 0.6631318 0 -0.8854696 0.4646974 0 -0.8854694 0.4646979 0 -0.9709408 0.2393199 1 -2.53539e-6 0 1 1.62987e-6 0 1 -8.15015e-7 0 1 3.91681e-6 0 1 -5.07094e-6 0 1 -2.16734e-6 0 1 3.23669e-6 0 1 -5.67247e-7 0 1 6.25737e-7 0 1 -7.45728e-6 0 1 2.53547e-6 0 1 1.3056e-6 0 1 1.63003e-6 0 1 -3.12869e-7 0 1 -1.1266e-6 0 0 -1 8.34892e-6 0 -1 -7.1857e-6 0 -1 9.27198e-7 0 -1 -6.19824e-6 0 -1 -1.79384e-7 0 -1 1.91504e-7 0 -1 2.07075e-7 0 -1 -1.35897e-7 0 -1 -1.35556e-7 0 -1 -3.87462e-7 0 -1 8.37015e-7 0 -1 -2.10933e-6 0 -1 -3.36769e-7 0.1236094 -0.01600253 0.9922019 0 0.01515686 0.9998852 -0.239349 0.01486665 0.9708198 -0.1119524 -0.01305037 0.993628 -0.9927085 0 -0.1205404 -0.3302645 -0.01239514 0.9438071 -0.464607 0.0139361 0.8854074 -0.9350211 0.001561403 -0.3545888 -0.9923198 -0.001592159 -0.1236882 -0.6631107 0.01237517 0.7484191 -0.5319719 -0.01118725 0.8466881 -0.8229722 0.003051996 -0.5680735 -0.9316059 -0.003085613 -0.363457 -0.8229331 0.01022928 0.5680463 -0.7070657 -0.009293556 0.7070869 -0.6631548 0.004421234 -0.7484693 -0.8138175 -0.004529297 -0.581103 -0.9349964 0.007431864 0.3545795 -0.8467087 -0.006822466 0.5320131 -0.4646432 0.005697369 -0.8854796 -0.9927003 0.004029214 0.1205396 -0.6462827 -0.005905628 -0.7630754 -0.9438765 -0.003713786 0.3302781 -0.9937123 0 0.1119645 -0.2393704 0.006964743 -0.9709033 -0.4392119 -0.007119357 -0.8983553 0 0.008076846 -0.9999674 -0.205223 -0.008319437 -0.9786799 0.2393622 0.009104847 -0.9708877 0.04138088 -0.009442985 -0.9990989 0.4646509 0.01010876 -0.8854363 0.2852797 -0.01041054 -0.9583879 0.6630934 0.01097446 -0.7484563 0.5118465 -0.01136088 -0.8590018 0.822929 0.01177769 -0.5680221 0.7070629 -0.01219761 -0.7070456 0.8589801 -0.01295131 -0.5118454 0.9349426 0.01250004 -0.3545788 0.9583402 -0.01362431 -0.2853043 0.9926229 0.0131281 -0.1205302 0.9990447 -0.01421409 -0.04132491 0.9926156 0.01367855 0.1205293 0.9786086 -0.01472216 0.2052041 0.9349221 0.01413667 0.3545712 0.8982814 -0.01514858 0.4391597 0.8228996 0.01450556 0.5680018 0.76301 -0.01548516 0.6462012 0.6630606 0.01480787 0.7484193 0.5810095 -0.01573783 0.8137447 0.4646221 0.01503026 0.8853815 0.3634644 -0.01587331 0.9314729 0.2393438 0.01516324 0.9708165 0 0.7485043 -0.66313 0 0.8854733 -0.4646904 0 -0.1205084 -0.9927123 0 0.5680443 -0.822998 0 0.7485043 -0.6631301 0 -0.3546363 -0.9350044 0 -0.1205083 -0.9927123 0 0.3546364 -0.9350042 0 0.5680565 -0.8229897 0 -0.5680441 -0.8229981 0 -0.3546444 -0.9350014 0 0.1205083 -0.9927124 0 0.3546444 -0.9350014 0 -0.7485039 -0.6631305 0 0.1205083 -0.9927123 0 -0.5680563 -0.8229897 0 -0.8854737 -0.4646894 0 -0.9709406 -0.2393205 0 -0.885466 -0.4647043 0 -0.9709404 -0.2393216 0 -0.9709404 0.2393216 0 -0.885466 0.4647043 0 -0.9709406 0.2393205 0 -0.7485044 0.6631298 0 -0.8854737 0.4646894 0 -0.5680441 0.8229981 0 -0.7485039 0.6631305 0 -0.5680558 0.8229901 0 -0.3546369 0.9350042 0 -0.3546444 0.9350014 0 -0.1205083 0.9927124 0 0.1205084 0.9927123 0 0.1205084 0.9927124 0 0.3546362 0.9350045 0 0.5680443 0.822998 0 0.3546442 0.9350014 0 0.7485041 0.6631302 0 0.5680565 0.8229897 0 0.8854733 0.4646904 0 0.7485041 0.6631303 0 0.9709406 0.2393206 0 0.8854655 0.4647052 0 0.9709406 -0.2393206 0 0.8854655 -0.4647052 1 1.03723e-6 0 1 1.15824e-6 0 1 -2.3164e-6 0 1 1.15824e-6 0 1 5.18608e-7 0 1 -2.31649e-6 0 1 -1.03721e-6 0 1 -5.18635e-7 0 1 1.03723e-6 0 1 -1.03723e-6 0 1 -1.1583e-6 0 1 2.07441e-6 0 1 -1.03726e-6 0 1 2.07452e-6 0 1 -4.14883e-6 0 -1 -1.03727e-6 0 -1 -2.0746e-6 0 -1 -2.07449e-6 0 -1 -1.03727e-6 0 -1 -1.1582e-6 0 -1 1.1583e-6 0 -1 -2.31648e-6 0 -1 1.03726e-6 0 -1 -2.31657e-6 0 -1 1.03727e-6 0 -1 -1.15824e-6 0 -1 -1.03724e-6 0 -1 1.55585e-6 0 -1 -1.03721e-6 0 0 -0.9709409 0.2393197 0 -0.885458 0.4647194 0 -0.9709432 0.2393103 0 0.1205334 0.9927093 0 -0.7485092 0.6631245 0 -0.8854625 0.4647111 0 -0.5680535 0.8229917 0 -0.7485091 0.6631245 0 0.3546156 0.9350122 0 0.3546161 0.9350121 0 -0.3546156 0.9350122 0 -0.5680536 0.8229916 0 0.5680536 0.8229916 0 -0.1205334 0.9927093 0 0.7485085 0.6631253 0 0.8854629 0.4647101 0 0.8854624 0.464711 0 0.9709409 0.2393196 0 0.9709429 0.2393114 0 0.9709405 -0.2393208 0 0.9709432 -0.2393102 0 0.8854581 -0.4647194 0 0.8854629 -0.4647101 0 0.7485091 -0.6631245 0 0.5680536 -0.8229916 0 0.3546152 -0.9350124 0 0.3546156 -0.9350122 0 0.1205334 -0.9927093 0 -0.1205335 -0.9927093 0 -0.3546156 -0.9350122 0 -0.5680534 -0.8229917 0 -0.7485089 -0.6631248 0 -0.5680535 -0.8229917 0 -0.8854625 -0.4647111 0 -0.7485089 -0.6631248 0 -0.9709409 -0.2393197 0 -0.8854624 -0.4647111 0 -0.9709432 -0.2393104 0 1 -1.63346e-7 0 1 -3.26709e-7 0 1 3.05063e-7 0 1 -3.05076e-7 -1.48427e-7 1 6.53415e-7 0 1 3.05065e-7 0 1 1.63352e-7 0 1 3.26709e-7 0 1 -3.26715e-7 0 1 -1.63354e-7 0 1 -1.52531e-7 0 1 -1.52538e-7 0 1 3.26709e-7 0 1 -1.52532e-7 -1.48428e-7 1 6.53415e-7 0 1 6.86391e-7 0 1 0 1.48427e-7 1 6.53415e-7 0 1 6.10126e-7 1.48428e-7 1 6.53415e-7 0 1 3.05063e-7 0 -0.9190147 0.3942235 -0.05003869 0.8945152 0.4442282 -0.09590685 -0.9161994 0.3890767 -0.1536346 0.8852173 0.4390751 -0.9927118 3.62636e-7 -0.1205129 -0.9638277 0.2379255 -0.1201157 -0.1964399 -0.9062594 0.3743066 -0.2680373 0.8638312 0.4265582 -0.8401929 0.4319509 -0.3278632 -0.9093149 -0.2328586 -0.3448527 -0.308412 -0.885267 0.3481157 -0.405498 0.8192305 0.4055032 -0.6674861 0.5721389 -0.4765706 -0.7466874 -0.4204872 -0.5154111 -0.4420539 -0.8434941 0.3051332 -0.5847796 0.7231932 0.3674567 -0.479306 0.6708348 -0.5659032 -0.8197676 0.4956824 0.286845 -0.5489499 -0.5610008 -0.6196225 -0.6158305 -0.7524665 0.2335532 -0.9937154 0 0.1119366 -0.8441203 -0.5262699 0.102475 -0.2958391 0.739099 -0.6051544 -0.3491443 -0.659925 -0.6652799 -0.126423 0.7877295 -0.6029093 -0.163697 -0.7295144 -0.6640875 0.02349656 0.8228684 -0.5677461 0 -0.7785736 -0.6275533 0.1511631 0.8481159 -0.5077885 0.1390692 -0.8138555 -0.56418 0.2545926 0.8675435 -0.4272598 0.2517248 -0.8405777 -0.4796499 0.3330879 0.8820996 -0.3330957 0.3381808 -0.8601894 -0.3817172 0.3980136 -0.8752759 -0.2747317 0.3857128 0.8935326 -0.2298371 0.4320659 -0.8868312 -0.163859 0.4129566 0.9024159 -0.1229321 0.4412431 -0.8957875 -0.05356585 0.4162033 0.9091084 -0.01722466 0.426488 -0.9030101 0.05177491 0.395753 0.9146 0.08298528 0.3912081 -0.9082645 0.1483639 0.3547087 0.9187564 0.1734026 0.3367871 -0.9124317 0.2324716 0.2957622 0.9218307 0.2505056 0.2668952 -0.9154307 0.3012536 0.2220526 0.9241018 0.3110124 0.1848393 -0.9174916 0.3521982 0.1377738 0.9253978 0.3530686 0.09446471 -0.9188124 0.3832234 0.0466237 0.9262056 0.3741247 -0.8854652 0 0.464706 -0.8854683 0 0.4646999 -0.7484914 0 0.6631447 0.120538 0 0.9927088 -0.7484949 0 0.6631405 -0.5680644 0 0.8229842 0.354627 0 0.9350079 0.1205385 0 0.9927087 -0.354627 0 0.9350079 -0.5680641 0 0.8229845 0.5680641 0 0.8229845 0.3546323 0 0.9350059 -0.3546323 0 0.9350059 -0.120538 0 0.9927088 0.7484949 0 0.6631405 -0.1205385 0 0.9927087 0.5680644 0 0.8229842 0.885465 0 0.4647062 0.7484914 0 0.6631447 0.9709405 0 0.2393209 0.8854684 0 0.4646996 0.9709406 0 0.239321 0.9709406 0 -0.239321 0.8854652 0 -0.4647058 0.9709405 0 -0.239321 0.7484915 0 -0.6631444 0.8854684 0 -0.4646998 0.5680636 0 -0.8229847 0.7484992 0 -0.6631357 0.5680633 0 -0.8229849 0.354633 0 -0.9350056 0.3546282 0 -0.9350074 0.1205386 0 -0.9927087 -0.1205386 0 -0.9927087 -0.3546335 0 -0.9350054 -0.3546277 0 -0.9350076 -0.5680633 0 -0.8229849 -0.5680636 0 -0.8229847 -0.7484914 0 -0.6631447 -0.7484995 0 -0.6631355 -0.8854651 0 -0.4647061 -0.8854685 0 -0.4646995 -0.9709405 0 -0.239321 -0.9709406 0 -0.239321 -0.9709406 0 0.239321 -0.9709405 0 0.2393209 0 -1 0 0 -1 0 0 -1 -2.95475e-7 0 -1 0 0 -1 0 0 -1 1.52453e-7 0 -1 0 0 -1 -1.5252e-7 0 -1 -1.58896e-7 0 -1 1.51862e-7 0 -1 -2.07852e-7 0 -1 0 0 -1 -1.63336e-7 0 -1 1.98562e-7 3.21367e-7 -1 -4.91959e-7 0 -1 1.48443e-7 0 -1 -1.51617e-7 3.45505e-7 -1 -2.95802e-7 0 -1 1.60015e-7 0 -1 1.7723e-7 0 -1 -1.51986e-7 0 -1 0 0 -1 -1.77918e-7 0 -1 3.02081e-7 0 -1 -4.49176e-7 -2.83088e-7 -1 -5.36892e-7 0 -1 0 0 -1 1.50366e-7 0 -1 -1.50308e-7 0 -1 1.61642e-7</float_array>
          <technique_common>
            <accessor source="#Part__Feature002001_002-mesh-normals-array" count="1111" stride="3">
              <param name="X" type="float"/>
              <param name="Y" type="float"/>
              <param name="Z" type="float"/>
            </accessor>
          </technique_common>
        </source>
        <vertices id="Part__Feature002001_002-mesh-vertices">
          <input semantic="POSITION" source="#Part__Feature002001_002-mesh-positions"/>
        </vertices>
        <triangles material="Mesh_003-material" count="1454">
          <input semantic="VERTEX" source="#Part__Feature002001_002-mesh-vertices" offset="0"/>
          <input semantic="NORMAL" source="#Part__Feature002001_002-mesh-normals" offset="1"/>
          <p>0 0 1 0 2 0 0 0 3 0 1 0 0 0 4 0 3 0 0 0 5 0 4 0 0 1 6 1 5 1 7 0 6 0 0 0 8 0 9 0 7 0 8 2 10 2 9 2 8 3 11 3 10 3 8 0 12 0 11 0 8 0 7 0 0 0 13 0 0 0 2 0 8 0 14 0 15 0 8 0 15 0 12 0 16 0 17 0 18 0 18 0 19 0 20 0 16 0 18 0 20 0 20 0 19 0 21 0 22 4 23 4 24 4 25 5 23 5 22 5 26 6 22 6 27 6 26 7 25 7 22 7 28 8 27 8 29 8 28 9 26 9 27 9 30 10 28 10 29 10 31 11 28 11 30 11 32 12 31 12 30 12 33 13 31 13 32 13 34 14 25 14 26 14 35 15 36 15 34 15 35 16 26 16 28 16 35 17 34 17 26 17 37 18 28 18 31 18 37 19 35 19 28 19 38 20 31 20 33 20 38 21 37 21 31 21 39 22 33 22 40 22 39 23 38 23 33 23 41 24 40 24 42 24 41 25 39 25 40 25 43 26 41 26 42 26 44 27 43 27 45 27 44 28 41 28 43 28 46 29 47 29 48 29 46 30 49 30 47 30 50 31 51 31 52 31 50 32 48 32 51 32 50 33 46 33 48 33 53 34 54 34 55 34 56 35 52 35 54 35 56 36 50 36 52 36 57 37 54 37 53 37 57 38 56 38 54 38 58 39 59 39 60 39 61 40 58 40 62 40 61 41 59 41 58 41 63 42 62 42 64 42 63 43 64 43 49 43 63 44 61 44 62 44 65 45 49 45 46 45 65 46 63 46 49 46 66 47 46 47 50 47 66 48 65 48 46 48 67 49 50 49 56 49 67 50 66 50 50 50 68 51 56 51 57 51 68 52 67 52 56 52 69 53 67 53 68 53 61 54 70 54 59 54 71 55 72 55 73 55 74 56 75 56 70 56 74 57 73 57 75 57 74 58 71 58 73 58 76 59 61 59 63 59 76 60 74 60 70 60 76 61 70 61 61 61 77 62 63 62 65 62 77 63 76 63 63 63 78 64 77 64 65 64 79 65 65 65 66 65 79 66 78 66 65 66 80 67 67 67 69 67 81 68 66 68 67 68 81 69 79 69 66 69 82 70 81 70 67 70 82 71 67 71 80 71 83 72 82 72 80 72 84 73 82 73 83 73 85 74 84 74 83 74 86 75 85 75 87 75 86 76 84 76 85 76 88 77 86 77 87 77 89 78 90 78 91 78 89 79 91 79 92 79 93 80 71 80 74 80 94 81 89 81 92 81 94 82 92 82 95 82 96 83 74 83 76 83 96 84 93 84 74 84 97 85 94 85 95 85 97 86 95 86 98 86 99 87 76 87 77 87 99 88 96 88 76 88 100 89 97 89 98 89 100 90 98 90 101 90 102 91 77 91 78 91 102 92 99 92 77 92 103 93 100 93 101 93 103 94 101 94 104 94 105 95 78 95 79 95 105 96 102 96 78 96 106 97 103 97 104 97 106 98 104 98 107 98 108 99 79 99 81 99 108 100 105 100 79 100 109 101 106 101 107 101 109 102 107 102 110 102 111 103 81 103 82 103 111 104 108 104 81 104 112 105 110 105 113 105 112 106 109 106 110 106 114 107 82 107 84 107 114 108 111 108 82 108 115 109 84 109 86 109 115 110 114 110 84 110 116 111 86 111 88 111 116 112 88 112 117 112 116 113 117 113 118 113 116 114 115 114 86 114 119 115 116 115 118 115 119 116 120 116 121 116 119 117 118 117 120 117 122 118 119 118 121 118 122 119 123 119 124 119 122 120 121 120 123 120 125 121 122 121 124 121 125 122 126 122 127 122 125 123 124 123 126 123 128 124 125 124 127 124 128 125 127 125 129 125 128 126 129 126 130 126 90 127 128 127 130 127 90 128 130 128 91 128 130 129 129 129 131 129 130 130 131 130 132 130 35 131 133 131 36 131 91 132 132 132 134 132 91 133 130 133 132 133 92 134 134 134 133 134 92 135 91 135 134 135 92 136 133 136 35 136 95 137 35 137 37 137 95 138 92 138 35 138 98 139 37 139 38 139 98 140 95 140 37 140 101 141 98 141 38 141 104 142 38 142 39 142 104 143 101 143 38 143 135 144 41 144 44 144 107 145 39 145 41 145 107 146 104 146 39 146 107 147 41 147 135 147 110 148 136 148 137 148 110 149 135 149 136 149 110 150 107 150 135 150 113 151 137 151 138 151 113 152 110 152 137 152 80 153 133 153 134 153 83 154 134 154 132 154 83 155 80 155 134 155 85 156 132 156 131 156 85 157 83 157 132 157 87 158 85 158 131 158 25 159 139 159 140 159 25 159 34 159 141 159 139 160 25 160 141 160 25 161 140 161 23 161 141 159 34 159 142 159 142 162 34 162 143 162 144 159 145 159 68 159 145 163 143 163 68 163 143 159 34 159 68 159 146 164 144 164 57 164 144 159 68 159 57 159 146 159 57 159 147 159 147 165 57 165 53 165 121 166 126 166 124 166 121 167 124 167 123 167 120 168 126 168 121 168 118 169 127 169 126 169 118 170 126 170 120 170 117 171 127 171 118 171 129 172 127 172 131 172 127 173 117 173 87 173 117 174 88 174 87 174 131 175 127 175 87 175 36 176 133 176 69 176 133 177 80 177 69 177 34 178 36 178 69 178 34 179 69 179 68 179 148 180 72 180 71 180 93 181 16 181 71 181 17 181 16 181 93 181 149 181 148 181 71 181 149 182 71 182 16 182 20 183 21 183 112 183 113 183 20 183 112 183 0 184 20 184 113 184 8 185 113 185 138 185 8 183 0 183 113 183 150 186 27 186 22 186 151 187 30 187 29 187 151 188 29 188 27 188 151 189 27 189 150 189 152 190 150 190 153 190 152 191 151 191 150 191 154 192 153 192 155 192 154 193 152 193 153 193 156 194 155 194 157 194 156 195 154 195 155 195 158 196 157 196 159 196 158 197 156 197 157 197 160 198 159 198 161 198 160 199 158 199 159 199 162 200 161 200 163 200 162 201 160 201 161 201 164 202 163 202 165 202 164 203 162 203 163 203 166 204 164 204 165 204 167 205 165 205 168 205 167 206 166 206 165 206 169 207 168 207 170 207 169 208 167 208 168 208 171 209 170 209 172 209 171 210 169 210 170 210 173 211 172 211 174 211 173 212 171 212 172 212 175 213 173 213 174 213 175 214 174 214 176 214 177 215 175 215 176 215 177 216 176 216 178 216 179 217 177 217 178 217 179 218 178 218 180 218 181 219 179 219 180 219 181 220 180 220 182 220 52 221 182 221 54 221 183 222 181 222 182 222 183 223 182 223 52 223 51 224 183 224 52 224 48 225 183 225 51 225 150 226 22 226 24 226 150 227 24 227 184 227 153 228 184 228 185 228 153 229 150 229 184 229 155 230 185 230 186 230 155 231 153 231 185 231 157 232 186 232 187 232 157 233 155 233 186 233 159 234 187 234 188 234 159 235 157 235 187 235 161 236 188 236 189 236 161 237 159 237 188 237 163 238 189 238 190 238 163 239 161 239 189 239 165 240 163 240 190 240 168 241 190 241 191 241 168 242 165 242 190 242 170 243 191 243 192 243 170 244 168 244 191 244 172 245 192 245 193 245 172 246 170 246 192 246 174 247 193 247 194 247 174 248 172 248 193 248 176 249 194 249 195 249 176 250 174 250 194 250 178 251 195 251 196 251 178 252 176 252 195 252 180 253 196 253 197 253 180 254 178 254 196 254 182 255 197 255 55 255 182 256 180 256 197 256 54 257 182 257 55 257 198 258 199 258 183 258 198 259 183 259 47 259 200 260 47 260 49 260 200 261 198 261 47 261 64 262 200 262 49 262 151 263 32 263 30 263 201 264 40 264 33 264 201 265 33 265 32 265 202 266 201 266 32 266 202 267 32 267 151 267 203 268 151 268 152 268 203 269 202 269 151 269 204 270 152 270 154 270 204 271 203 271 152 271 205 272 154 272 156 272 205 273 204 273 154 273 206 274 156 274 158 274 206 275 205 275 156 275 207 276 158 276 160 276 207 277 206 277 158 277 208 278 160 278 162 278 208 279 207 279 160 279 209 280 162 280 164 280 209 281 208 281 162 281 210 282 164 282 166 282 210 283 209 283 164 283 211 284 166 284 167 284 211 285 210 285 166 285 212 286 211 286 167 286 212 287 167 287 169 287 213 288 212 288 169 288 213 289 169 289 171 289 214 290 171 290 173 290 214 291 213 291 171 291 215 292 214 292 173 292 215 293 173 293 175 293 216 294 175 294 177 294 216 295 215 295 175 295 217 296 177 296 179 296 217 297 216 297 177 297 218 298 179 298 181 298 218 299 217 299 179 299 199 300 181 300 183 300 199 301 218 301 181 301 47 302 183 302 48 302 219 303 189 303 188 303 219 304 220 304 189 304 221 305 24 305 23 305 222 306 188 306 187 306 222 307 219 307 188 307 223 308 23 308 140 308 223 309 221 309 23 309 224 310 187 310 186 310 224 311 222 311 187 311 225 312 140 312 139 312 226 313 186 313 185 313 225 314 223 314 140 314 226 315 224 315 186 315 227 316 139 316 141 316 228 317 185 317 184 317 228 318 226 318 185 318 227 319 225 319 139 319 229 320 184 320 24 320 230 321 141 321 142 321 229 322 228 322 184 322 230 323 227 323 141 323 221 324 229 324 24 324 231 325 142 325 143 325 231 326 230 326 142 326 232 327 143 327 145 327 232 328 231 328 143 328 233 329 145 329 144 329 233 330 232 330 145 330 234 331 144 331 146 331 234 332 233 332 144 332 235 333 146 333 147 333 235 334 234 334 146 334 236 335 147 335 53 335 236 336 235 336 147 336 237 337 236 337 53 337 237 338 53 338 55 338 237 339 55 339 197 339 238 340 237 340 197 340 238 341 197 341 196 341 239 342 238 342 196 342 239 343 196 343 195 343 240 344 195 344 194 344 240 345 239 345 195 345 241 346 194 346 193 346 241 347 240 347 194 347 242 348 193 348 192 348 242 349 241 349 193 349 243 350 192 350 191 350 243 351 242 351 192 351 244 352 191 352 190 352 244 353 243 353 191 353 220 354 190 354 189 354 220 355 244 355 190 355 203 356 245 356 246 356 203 357 204 357 245 357 58 358 60 358 247 358 202 359 246 359 248 359 202 360 203 360 246 360 62 361 58 361 247 361 201 362 248 362 249 362 250 363 62 363 247 363 201 364 202 364 248 364 43 365 249 365 45 365 200 366 64 366 62 366 200 367 62 367 250 367 42 368 249 368 43 368 40 369 201 369 249 369 198 370 250 370 251 370 40 371 249 371 42 371 198 372 200 372 250 372 199 373 251 373 252 373 199 374 198 374 251 374 218 375 252 375 253 375 218 376 199 376 252 376 217 377 253 377 254 377 217 378 218 378 253 378 216 379 254 379 255 379 216 380 217 380 254 380 215 381 255 381 256 381 215 382 216 382 255 382 214 383 256 383 257 383 214 384 215 384 256 384 213 385 257 385 258 385 213 386 214 386 257 386 212 387 213 387 258 387 212 388 258 388 259 388 211 389 212 389 259 389 211 390 260 390 261 390 211 391 259 391 260 391 210 392 211 392 261 392 210 393 261 393 262 393 209 394 262 394 263 394 209 395 210 395 262 395 208 396 263 396 264 396 208 397 209 397 263 397 207 398 264 398 265 398 207 399 208 399 264 399 206 400 265 400 266 400 206 401 207 401 265 401 205 402 266 402 267 402 205 403 206 403 266 403 204 404 267 404 245 404 204 405 205 405 267 405 268 406 112 406 269 406 112 406 21 406 269 406 114 406 270 406 111 406 90 407 89 407 271 407 111 406 270 406 272 406 90 406 271 406 273 406 269 408 21 408 19 408 271 409 89 409 274 409 111 406 272 406 108 406 90 410 273 410 128 410 108 411 272 411 275 411 274 406 89 406 94 406 128 406 273 406 276 406 108 406 275 406 105 406 274 412 94 412 277 412 128 406 276 406 125 406 105 406 275 406 278 406 105 406 278 406 102 406 277 413 94 413 97 413 125 414 276 414 279 414 102 406 278 406 280 406 277 406 97 406 281 406 125 406 279 406 122 406 102 415 280 415 99 415 281 406 97 406 100 406 99 406 280 406 282 406 122 416 279 416 283 416 284 417 285 417 93 417 282 406 284 406 96 406 99 418 282 418 96 418 281 406 100 406 286 406 285 419 18 419 17 419 122 420 283 420 119 420 93 406 285 406 17 406 268 406 109 406 112 406 286 421 100 421 103 421 284 422 93 422 96 422 119 406 283 406 287 406 286 423 103 423 288 423 119 424 287 424 116 424 288 406 103 406 106 406 116 406 287 406 289 406 288 425 106 425 290 425 116 426 289 426 115 426 290 406 106 406 109 406 115 406 289 406 291 406 290 406 109 406 268 406 115 427 291 427 114 427 114 428 291 428 270 428 264 0 292 0 265 0 257 429 256 429 293 429 294 430 60 430 295 430 59 431 70 431 295 431 257 432 293 432 296 432 60 433 59 433 295 433 265 434 292 434 297 434 257 435 296 435 258 435 265 436 297 436 266 436 256 437 255 437 298 437 293 0 256 0 298 0 258 438 296 438 299 438 295 439 70 439 300 439 255 440 254 440 301 440 266 0 297 0 302 0 298 0 255 0 301 0 266 441 302 441 267 441 258 442 299 442 259 442 259 0 299 0 303 0 267 443 302 443 304 443 254 444 253 444 305 444 301 445 254 445 305 445 267 446 304 446 245 446 259 447 303 447 260 447 245 448 304 448 306 448 260 449 303 449 307 449 245 450 306 450 246 450 253 451 252 451 308 451 305 452 253 452 308 452 261 453 260 453 309 453 246 0 306 0 310 0 260 454 307 454 309 454 311 455 312 455 45 455 45 456 312 456 44 456 252 457 251 457 313 457 308 0 252 0 313 0 310 0 314 0 248 0 262 458 261 458 315 458 246 459 310 459 248 459 261 0 309 0 315 0 314 460 311 460 249 460 248 461 314 461 249 461 311 0 45 0 249 0 312 462 316 462 135 462 313 463 251 463 317 463 44 464 312 464 135 464 251 465 250 465 317 465 300 466 70 466 135 466 316 467 300 467 135 467 262 468 315 468 318 468 263 469 262 469 318 469 317 470 250 470 319 470 319 0 250 0 247 0 263 0 318 0 320 0 263 471 320 471 264 471 319 0 247 0 294 0 294 0 247 0 60 0 264 472 320 472 292 472 70 473 75 473 73 473 72 473 148 473 14 473 14 473 8 473 138 473 72 473 14 473 138 473 73 474 72 474 137 474 72 475 138 475 137 475 137 473 136 473 135 473 70 476 73 476 135 476 73 477 137 477 135 477 238 159 239 159 240 159 237 478 241 478 242 478 237 159 240 159 241 159 237 479 238 479 240 479 235 480 236 480 237 480 226 481 222 481 224 481 233 482 234 482 235 482 233 483 243 483 244 483 233 484 242 484 243 484 233 485 237 485 242 485 233 486 235 486 237 486 229 487 226 487 228 487 231 488 232 488 233 488 231 489 233 489 244 489 230 490 244 490 220 490 230 159 231 159 244 159 223 491 229 491 221 491 227 492 219 492 222 492 227 493 220 493 219 493 227 494 222 494 226 494 227 495 226 495 229 495 227 496 230 496 220 496 227 497 229 497 223 497 225 498 227 498 223 498 321 499 310 499 306 499 321 500 322 500 310 500 323 501 306 501 304 501 323 501 321 501 306 501 324 502 307 502 303 502 324 503 325 503 307 503 326 504 304 504 302 504 326 505 323 505 304 505 327 506 303 506 299 506 327 507 324 507 303 507 328 508 302 508 297 508 328 509 326 509 302 509 329 510 299 510 296 510 329 511 327 511 299 511 330 512 297 512 292 512 330 513 328 513 297 513 331 514 296 514 293 514 331 515 293 515 298 515 331 514 329 514 296 514 332 516 292 516 320 516 332 517 330 517 292 517 333 518 298 518 301 518 333 519 331 519 298 519 334 520 320 520 318 520 334 520 332 520 320 520 335 521 301 521 305 521 335 522 333 522 301 522 336 523 318 523 315 523 336 524 334 524 318 524 337 525 335 525 305 525 338 526 315 526 309 526 338 527 336 527 315 527 339 528 305 528 308 528 339 529 337 529 305 529 325 530 309 530 307 530 325 531 338 531 309 531 340 532 308 532 313 532 340 532 339 532 308 532 341 533 340 533 313 533 341 534 313 534 317 534 342 535 341 535 317 535 342 536 317 536 319 536 343 537 319 537 294 537 343 538 342 538 319 538 344 539 294 539 295 539 344 540 343 540 294 540 345 541 295 541 300 541 345 542 344 542 295 542 346 543 300 543 316 543 346 544 345 544 300 544 347 545 316 545 312 545 347 546 346 546 316 546 348 547 312 547 311 547 348 548 347 548 312 548 349 549 311 549 314 549 349 550 348 550 311 550 322 551 314 551 310 551 322 552 349 552 314 552 340 553 341 553 350 553 340 554 350 554 351 554 352 0 353 0 336 0 338 555 352 555 336 555 354 556 352 556 338 556 339 557 340 557 351 557 339 558 351 558 355 558 356 559 348 559 349 559 357 560 349 560 322 560 357 561 322 561 321 561 357 562 356 562 349 562 325 0 354 0 338 0 358 0 347 0 348 0 358 0 348 0 356 0 359 563 321 563 323 563 359 564 357 564 321 564 337 565 355 565 360 565 337 566 339 566 355 566 361 567 346 567 347 567 361 0 347 0 358 0 362 568 323 568 326 568 362 569 359 569 323 569 324 570 363 570 354 570 364 0 345 0 346 0 324 0 354 0 325 0 335 571 337 571 360 571 364 0 346 0 361 0 335 572 360 572 365 572 327 573 366 573 363 573 367 574 326 574 328 574 327 575 363 575 324 575 367 576 362 576 326 576 333 0 365 0 368 0 333 577 335 577 365 577 329 0 369 0 366 0 370 578 344 578 345 578 329 0 366 0 327 0 370 0 345 0 364 0 331 0 368 0 369 0 331 579 333 579 368 579 331 0 369 0 329 0 371 580 367 580 328 580 330 581 371 581 328 581 372 0 343 0 344 0 372 0 344 0 370 0 373 0 371 0 330 0 332 582 373 582 330 582 374 583 343 583 372 583 342 0 343 0 374 0 375 0 373 0 332 0 334 584 375 584 332 584 350 585 342 585 374 585 341 586 342 586 350 586 353 0 375 0 334 0 336 0 353 0 334 0 376 587 371 587 373 587 376 588 377 588 371 588 378 589 373 589 375 589 378 590 376 590 373 590 379 591 354 591 363 591 380 592 375 592 353 592 380 593 378 593 375 593 381 594 363 594 366 594 381 595 379 595 363 595 382 596 353 596 352 596 382 597 380 597 353 597 383 598 366 598 369 598 383 599 381 599 366 599 384 600 352 600 354 600 384 601 382 601 352 601 379 602 384 602 354 602 385 603 369 603 368 603 385 604 383 604 369 604 386 605 368 605 365 605 386 606 385 606 368 606 387 607 365 607 360 607 387 608 386 608 365 608 388 609 360 609 355 609 388 610 387 610 360 610 389 611 355 611 351 611 389 612 388 612 355 612 390 613 351 613 350 613 390 614 389 614 351 614 391 615 350 615 374 615 391 616 390 616 350 616 392 617 374 617 372 617 392 618 391 618 374 618 393 619 392 619 372 619 393 620 372 620 370 620 394 621 393 621 370 621 394 622 370 622 364 622 395 623 394 623 364 623 395 624 364 624 361 624 396 625 395 625 361 625 396 626 361 626 358 626 397 627 358 627 356 627 397 628 396 628 358 628 398 629 356 629 357 629 398 630 397 630 356 630 399 631 357 631 359 631 399 632 398 632 357 632 400 633 359 633 362 633 400 634 399 634 359 634 401 635 362 635 367 635 401 636 400 636 362 636 377 637 367 637 371 637 377 638 401 638 367 638 379 0 382 0 384 0 379 0 380 0 382 0 385 0 381 0 383 0 385 639 379 639 381 639 385 640 378 640 380 640 385 0 380 0 379 0 386 641 376 641 378 641 386 0 378 0 385 0 397 0 398 0 399 0 387 0 376 0 386 0 396 0 397 0 399 0 388 642 400 642 401 642 388 643 377 643 376 643 388 0 401 0 377 0 388 644 376 644 387 644 389 0 400 0 388 0 394 645 395 645 396 645 390 0 400 0 389 0 392 0 393 0 394 0 392 0 396 0 399 0 392 646 394 646 396 646 391 0 399 0 400 0 391 0 400 0 390 0 391 0 392 0 399 0 402 0 149 0 403 0 404 0 403 0 149 0 405 0 149 0 402 0 406 0 404 0 149 0 407 647 149 647 405 647 148 0 149 0 407 0 408 0 148 0 407 0 409 0 148 0 408 0 410 648 148 648 409 648 411 649 148 649 410 649 412 0 148 0 411 0 14 0 148 0 413 0 413 0 148 0 412 0 149 0 13 0 406 0 13 406 149 406 16 406 20 406 0 406 13 406 20 406 13 406 16 406 19 473 18 473 414 473 414 650 18 650 415 650 416 651 19 651 414 651 416 652 414 652 415 652 416 653 417 653 19 653 418 654 415 654 18 654 419 655 420 655 275 655 418 656 416 656 415 656 419 657 275 657 272 657 421 658 18 658 285 658 422 659 272 659 270 659 421 660 418 660 18 660 422 661 419 661 272 661 423 662 285 662 284 662 424 663 270 663 291 663 423 664 421 664 285 664 424 665 422 665 270 665 425 666 284 666 282 666 426 667 291 667 289 667 425 668 423 668 284 668 426 669 424 669 291 669 427 670 282 670 280 670 428 671 289 671 287 671 427 672 425 672 282 672 428 673 426 673 289 673 429 674 280 674 278 674 430 675 287 675 283 675 429 676 427 676 280 676 430 677 428 677 287 677 420 678 278 678 275 678 420 679 429 679 278 679 431 680 283 680 279 680 431 681 430 681 283 681 432 682 279 682 276 682 432 683 431 683 279 683 433 684 276 684 273 684 433 685 432 685 276 685 434 686 273 686 271 686 434 687 433 687 273 687 435 688 434 688 271 688 435 689 271 689 274 689 436 690 435 690 274 690 436 691 274 691 277 691 437 692 436 692 277 692 437 693 277 693 281 693 438 694 437 694 281 694 438 695 281 695 286 695 439 696 438 696 286 696 439 697 286 697 288 697 440 698 439 698 288 698 440 699 288 699 290 699 441 700 440 700 290 700 441 701 290 701 268 701 442 702 441 702 268 702 442 703 268 703 269 703 417 704 442 704 269 704 417 705 269 705 19 705 443 406 444 406 427 406 432 406 433 406 445 406 446 706 432 706 445 706 429 707 443 707 427 707 447 708 443 708 429 708 448 709 440 709 441 709 449 406 441 406 442 406 431 710 446 710 450 710 431 711 432 711 446 711 449 406 448 406 441 406 451 712 439 712 440 712 451 713 440 713 448 713 420 406 447 406 429 406 452 406 442 406 417 406 452 714 449 714 442 714 453 715 438 715 439 715 453 406 439 406 451 406 454 716 417 716 416 716 454 717 452 717 417 717 455 406 437 406 438 406 455 718 438 718 453 718 430 406 450 406 456 406 430 719 431 719 450 719 457 406 416 406 418 406 457 720 454 720 416 720 419 721 458 721 447 721 419 406 447 406 420 406 428 406 456 406 459 406 460 722 436 722 437 722 428 723 430 723 456 723 422 406 461 406 458 406 460 406 437 406 455 406 422 724 458 724 419 724 426 406 459 406 462 406 426 406 428 406 459 406 463 725 418 725 421 725 424 406 462 406 461 406 424 726 426 726 462 726 463 727 457 727 418 727 424 406 461 406 422 406 464 406 436 406 460 406 435 406 436 406 464 406 465 406 421 406 423 406 465 406 463 406 421 406 466 406 435 406 464 406 434 406 435 406 466 406 467 406 465 406 423 406 425 728 467 728 423 728 468 406 434 406 466 406 444 406 467 406 425 406 433 406 434 406 468 406 427 729 444 729 425 729 445 730 433 730 468 730 469 731 470 731 452 731 471 0 454 0 457 0 471 0 469 0 454 0 472 732 457 732 463 732 472 733 471 733 457 733 473 734 447 734 458 734 473 735 474 735 447 735 475 736 463 736 465 736 475 737 472 737 463 737 476 738 458 738 461 738 476 739 473 739 458 739 477 740 465 740 467 740 477 741 475 741 465 741 478 742 461 742 462 742 478 742 476 742 461 742 479 743 467 743 444 743 479 743 477 743 467 743 480 744 462 744 459 744 480 745 478 745 462 745 481 746 444 746 443 746 481 747 479 747 444 747 482 748 459 748 456 748 482 749 480 749 459 749 474 750 443 750 447 750 474 750 481 750 443 750 483 751 456 751 450 751 483 751 482 751 456 751 484 159 450 159 446 159 484 159 483 159 450 159 485 752 446 752 445 752 485 752 484 752 446 752 486 753 445 753 468 753 486 754 485 754 445 754 487 755 468 755 466 755 487 756 486 756 468 756 488 757 487 757 466 757 488 757 466 757 464 757 489 758 488 758 464 758 489 759 464 759 460 759 490 760 489 760 460 760 490 760 460 760 455 760 491 761 490 761 455 761 491 761 455 761 453 761 492 762 453 762 451 762 492 763 491 763 453 763 493 764 451 764 448 764 493 765 492 765 451 765 494 766 448 766 449 766 494 767 493 767 448 767 470 768 449 768 452 768 470 769 494 769 449 769 469 770 452 770 454 770 490 406 491 406 492 406 490 771 492 771 493 771 490 406 493 406 494 406 490 772 494 772 470 772 477 773 470 773 469 773 477 774 469 774 471 774 477 775 471 775 472 775 477 406 472 406 475 406 479 776 488 776 489 776 479 777 489 777 490 777 479 778 490 778 470 778 479 406 470 406 477 406 485 406 486 406 487 406 485 406 487 406 488 406 473 406 479 406 481 406 473 406 481 406 474 406 473 779 488 779 479 779 478 406 473 406 476 406 478 780 480 780 482 780 478 781 482 781 483 781 478 782 483 782 484 782 478 783 484 783 485 783 478 784 485 784 488 784 478 785 488 785 473 785 495 0 496 0 497 0 495 786 498 786 496 786 499 0 497 0 500 0 501 787 502 787 495 787 503 0 499 0 504 0 505 788 499 788 503 788 506 0 507 0 501 0 506 789 508 789 507 789 509 0 510 0 506 0 509 0 511 0 512 0 509 0 505 0 511 0 509 790 495 790 497 790 509 791 497 791 499 791 509 792 501 792 495 792 509 793 499 793 505 793 509 794 506 794 501 794 513 795 514 795 515 795 516 796 515 796 510 796 516 0 517 0 518 0 516 797 509 797 517 797 516 0 510 0 509 0 516 798 513 798 515 798 519 0 513 0 516 0 520 0 513 0 519 0 502 799 501 799 6 799 502 800 6 800 7 800 495 801 7 801 9 801 495 802 502 802 7 802 504 803 14 803 413 803 498 804 495 804 9 804 498 805 9 805 10 805 503 806 413 806 412 806 503 807 504 807 413 807 496 808 10 808 11 808 496 809 498 809 10 809 505 810 412 810 411 810 505 811 503 811 412 811 497 812 11 812 12 812 497 813 496 813 11 813 511 814 411 814 410 814 511 815 505 815 411 815 500 816 12 816 15 816 500 817 497 817 12 817 512 818 410 818 409 818 499 819 15 819 14 819 512 820 511 820 410 820 499 821 500 821 15 821 504 822 499 822 14 822 509 823 409 823 408 823 509 824 512 824 409 824 517 825 408 825 407 825 517 826 509 826 408 826 518 827 407 827 405 827 518 828 517 828 407 828 516 829 405 829 402 829 516 830 518 830 405 830 519 831 402 831 403 831 519 832 516 832 402 832 520 833 403 833 404 833 520 834 519 834 403 834 513 835 520 835 404 835 513 836 404 836 406 836 514 837 513 837 406 837 514 838 406 838 13 838 515 839 514 839 13 839 515 840 13 840 2 840 510 841 515 841 2 841 510 842 2 842 1 842 506 843 510 843 1 843 506 844 1 844 3 844 508 845 506 845 3 845 508 846 3 846 4 846 507 847 508 847 4 847 507 848 4 848 5 848 501 849 507 849 5 849 501 850 5 850 6 850 521 851 522 851 523 851 522 852 524 852 523 852 525 853 526 853 527 853 528 854 521 854 529 854 521 855 523 855 529 855 530 856 525 856 531 856 525 857 527 857 531 857 532 858 528 858 533 858 528 859 529 859 533 859 534 860 530 860 535 860 530 861 531 861 535 861 526 862 532 862 536 862 532 863 533 863 536 863 537 864 534 864 538 864 526 865 536 865 527 865 534 866 535 866 538 866 539 867 537 867 540 867 537 864 538 864 540 864 541 868 539 868 542 868 539 869 540 869 542 869 543 0 541 0 544 0 541 870 542 870 544 870 545 871 543 871 546 871 543 0 544 0 546 0 547 872 545 872 548 872 545 873 546 873 548 873 549 874 547 874 550 874 547 875 548 875 550 875 551 876 549 876 552 876 549 877 550 877 552 877 551 878 552 878 553 878 554 879 551 879 553 879 554 880 553 880 555 880 556 881 554 881 555 881 556 881 555 881 557 881 558 882 556 882 557 882 558 883 557 883 559 883 560 884 558 884 559 884 561 885 560 885 562 885 560 886 559 886 562 886 563 887 561 887 564 887 561 888 562 888 564 888 565 889 563 889 566 889 563 890 564 890 566 890 567 891 565 891 568 891 565 892 566 892 568 892 569 159 567 159 570 159 567 891 568 891 570 891 571 893 569 893 572 893 569 159 570 159 572 159 522 894 571 894 524 894 571 893 572 893 524 893 553 406 573 406 574 406 553 895 574 895 555 895 575 406 576 406 572 406 538 406 535 406 577 406 576 406 524 406 572 406 540 406 538 406 578 406 538 406 577 406 578 406 555 406 574 406 579 406 535 406 531 406 580 406 577 896 535 896 580 896 542 406 540 406 581 406 540 897 578 897 581 897 555 406 579 406 557 406 557 406 579 406 582 406 583 406 575 406 570 406 580 898 531 898 584 898 575 406 572 406 570 406 584 899 531 899 527 899 544 406 542 406 585 406 542 406 581 406 585 406 582 900 586 900 559 900 584 406 527 406 587 406 557 901 582 901 559 901 546 406 544 406 588 406 544 406 585 406 588 406 587 902 527 902 536 902 589 406 583 406 568 406 587 406 536 406 590 406 583 406 570 406 568 406 586 406 591 406 562 406 559 406 586 406 562 406 548 406 546 406 592 406 546 406 588 406 592 406 593 406 589 406 566 406 589 406 568 406 566 406 591 406 593 406 564 406 562 903 591 903 564 903 590 904 536 904 533 904 593 406 566 406 564 406 590 905 533 905 594 905 550 906 548 906 595 906 548 406 592 406 595 406 594 406 533 406 529 406 594 406 529 406 596 406 550 406 595 406 597 406 550 907 597 907 552 907 596 908 529 908 523 908 598 406 596 406 523 406 552 406 597 406 573 406 552 406 573 406 553 406 576 406 598 406 524 406 598 909 523 909 524 909 532 910 599 910 528 910 532 473 600 473 599 473 543 473 601 473 602 473 543 911 545 911 601 911 603 473 560 473 561 473 604 473 600 473 532 473 605 912 561 912 563 912 605 473 603 473 561 473 606 473 543 473 602 473 526 473 604 473 532 473 607 913 558 913 560 913 607 473 560 473 603 473 608 473 563 473 565 473 541 473 543 473 606 473 608 914 605 914 563 914 609 473 541 473 606 473 610 473 558 473 607 473 525 473 611 473 604 473 525 473 604 473 526 473 556 473 558 473 610 473 612 473 565 473 567 473 612 473 608 473 565 473 539 473 609 473 613 473 614 473 556 473 610 473 539 473 541 473 609 473 530 915 615 915 611 915 530 916 616 916 615 916 530 473 611 473 525 473 617 473 567 473 569 473 617 473 612 473 567 473 537 473 613 473 616 473 537 473 539 473 613 473 534 473 616 473 530 473 534 917 537 917 616 917 554 473 556 473 614 473 618 473 554 473 614 473 619 473 569 473 571 473 619 918 617 918 569 918 620 919 551 919 554 919 620 473 554 473 618 473 522 473 619 473 571 473 621 473 619 473 522 473 622 473 549 473 551 473 622 920 551 920 620 920 521 473 623 473 621 473 521 921 621 921 522 921 624 473 549 473 622 473 547 473 549 473 624 473 599 473 623 473 521 473 528 922 599 922 521 922 545 473 624 473 601 473 545 923 547 923 624 923 575 924 617 924 619 924 575 0 583 0 617 0 576 925 619 925 621 925 576 926 575 926 619 926 584 927 604 927 611 927 598 928 621 928 623 928 598 929 576 929 621 929 584 927 587 927 604 927 596 930 623 930 599 930 596 931 598 931 623 931 580 932 611 932 615 932 580 933 584 933 611 933 594 934 599 934 600 934 594 935 596 935 599 935 577 936 615 936 616 936 577 936 580 936 615 936 590 937 600 937 604 937 590 934 594 934 600 934 578 938 616 938 613 938 587 937 590 937 604 937 578 938 577 938 616 938 581 939 613 939 609 939 581 940 578 940 613 940 585 941 609 941 606 941 585 942 581 942 609 942 588 159 606 159 602 159 588 159 585 159 606 159 592 943 602 943 601 943 592 944 588 944 602 944 595 945 601 945 624 945 595 946 592 946 601 946 597 947 624 947 622 947 597 947 595 947 624 947 573 948 597 948 622 948 573 948 622 948 620 948 574 949 573 949 620 949 574 950 620 950 618 950 579 951 574 951 618 951 579 951 618 951 614 951 579 952 614 952 610 952 582 952 579 952 610 952 582 953 610 953 607 953 586 954 607 954 603 954 586 953 582 953 607 953 591 955 603 955 605 955 591 956 586 956 603 956 593 957 605 957 608 957 593 958 591 958 605 958 589 959 608 959 612 959 589 960 593 960 608 960 583 0 612 0 617 0 583 961 589 961 612 961 625 159 626 159 627 159 625 962 627 962 628 962 629 159 630 159 631 159 630 963 632 963 631 963 628 159 627 159 633 159 634 159 628 159 633 159 635 964 636 964 637 964 638 965 635 965 639 965 635 966 637 966 639 966 636 967 640 967 641 967 637 968 636 968 641 968 631 159 632 159 642 159 632 969 643 969 642 969 644 159 638 159 645 159 638 970 639 970 645 970 640 159 646 159 647 159 641 971 640 971 647 971 634 159 633 159 648 159 649 972 644 972 650 972 651 962 634 962 648 962 644 159 645 159 650 159 642 973 643 973 652 973 643 974 653 974 652 974 654 159 651 159 655 159 646 159 656 159 657 159 651 159 648 159 655 159 647 963 646 963 657 963 653 159 658 159 659 159 652 975 653 975 659 975 649 159 650 159 660 159 658 976 654 976 661 976 654 159 655 159 661 159 659 977 658 977 661 977 649 972 660 972 662 972 657 969 656 969 663 969 663 978 656 978 664 978 662 159 660 159 665 159 662 159 665 159 666 159 663 974 664 974 667 974 667 975 664 975 668 975 666 970 665 970 669 970 666 965 669 965 670 965 667 159 668 159 671 159 670 979 669 979 672 979 671 980 668 980 673 980 671 981 673 981 674 981 670 982 672 982 675 982 675 968 672 968 676 968 674 159 673 159 626 159 674 159 626 159 625 159 675 967 676 967 629 967 629 971 676 971 630 971 660 983 650 983 677 983 660 984 677 984 678 984 665 985 660 985 678 985 665 986 678 986 679 986 643 987 632 987 680 987 643 988 680 988 681 988 669 989 665 989 679 989 669 990 679 990 682 990 653 991 681 991 683 991 653 992 643 992 681 992 672 993 669 993 682 993 672 994 682 994 684 994 658 995 683 995 685 995 658 996 653 996 683 996 676 997 672 997 684 997 676 998 684 998 686 998 654 999 685 999 687 999 630 1000 686 1000 688 1000 654 1001 658 1001 685 1001 630 1002 676 1002 686 1002 632 1003 688 1003 680 1003 632 1004 630 1004 688 1004 651 1005 687 1005 689 1005 651 1006 654 1006 687 1006 634 1007 689 1007 690 1007 634 1008 651 1008 689 1008 628 1009 690 1009 691 1009 628 1010 634 1010 690 1010 625 1011 691 1011 692 1011 625 1012 628 1012 691 1012 674 1013 692 1013 693 1013 674 1014 625 1014 692 1014 671 1015 693 1015 694 1015 671 1016 674 1016 693 1016 667 1017 671 1017 694 1017 667 1018 694 1018 695 1018 663 1019 667 1019 695 1019 663 1020 695 1020 696 1020 657 1021 663 1021 696 1021 657 1022 696 1022 697 1022 647 1023 657 1023 697 1023 647 1024 697 1024 698 1024 641 1025 647 1025 698 1025 641 1026 698 1026 699 1026 637 1027 641 1027 699 1027 637 1028 699 1028 700 1028 639 1029 637 1029 700 1029 639 1030 700 1030 701 1030 645 1031 639 1031 701 1031 645 1032 701 1032 702 1032 650 1033 645 1033 702 1033 650 1034 702 1034 677 1034 668 1035 664 1035 703 1035 668 1036 703 1036 704 1036 673 1037 668 1037 704 1037 648 1038 633 1038 705 1038 673 1039 704 1039 706 1039 626 1040 673 1040 706 1040 655 1041 648 1041 707 1041 648 1042 705 1042 707 1042 627 1043 626 1043 708 1043 626 1044 706 1044 708 1044 661 1045 655 1045 709 1045 655 1046 707 1046 709 1046 627 1047 708 1047 710 1047 633 1048 627 1048 705 1048 659 1049 661 1049 711 1049 627 1050 710 1050 705 1050 661 1051 709 1051 711 1051 652 1052 659 1052 712 1052 659 1053 711 1053 712 1053 642 1054 652 1054 713 1054 652 1055 712 1055 713 1055 631 406 642 406 714 406 642 1056 713 1056 714 1056 629 1057 631 1057 715 1057 631 406 714 406 715 406 675 1058 629 1058 716 1058 629 1059 715 1059 716 1059 670 1060 675 1060 717 1060 675 1061 716 1061 717 1061 666 1062 670 1062 718 1062 670 1063 717 1063 718 1063 666 1064 718 1064 719 1064 662 1065 666 1065 719 1065 662 1066 719 1066 720 1066 649 1067 662 1067 720 1067 649 1067 720 1067 721 1067 644 1068 649 1068 721 1068 644 1068 721 1068 722 1068 638 1069 644 1069 722 1069 638 1070 722 1070 723 1070 635 1071 638 1071 723 1071 635 1072 723 1072 724 1072 636 1073 635 1073 724 1073 636 1074 724 1074 725 1074 640 1075 636 1075 725 1075 640 1076 725 1076 726 1076 646 1077 640 1077 726 1077 646 1078 726 1078 727 1078 656 473 646 473 727 473 656 473 727 473 728 473 664 1079 656 1079 728 1079 664 1080 728 1080 703 1080 679 1081 678 1081 720 1081 696 1082 703 1082 728 1082 696 0 728 0 697 0 678 0 677 0 721 0 720 1083 678 1083 721 1083 712 1084 711 1084 685 1084 711 1085 709 1085 687 1085 685 0 711 0 687 0 713 1086 712 1086 683 1086 697 0 728 0 727 0 712 0 685 0 683 0 698 0 697 0 727 0 709 1087 707 1087 689 1087 687 0 709 0 689 0 714 1088 713 1088 681 1088 713 1089 683 1089 681 1089 707 1090 705 1090 690 1090 721 0 677 0 722 0 689 0 707 0 690 0 677 1091 702 1091 722 1091 698 1092 727 1092 726 1092 699 1093 698 1093 726 1093 715 0 714 0 680 0 722 0 702 0 723 0 702 0 701 0 723 0 714 1094 681 1094 680 1094 700 1095 699 1095 725 1095 699 1096 726 1096 725 1096 701 0 700 0 724 0 705 1097 710 1097 691 1097 723 0 701 0 724 0 690 0 705 0 691 0 700 1098 725 1098 724 1098 715 0 680 0 688 0 715 0 688 0 716 0 691 1099 710 1099 692 1099 692 0 710 0 708 0 716 1100 688 1100 686 1100 716 1101 686 1101 717 1101 692 1102 708 1102 693 1102 717 1103 686 1103 684 1103 693 1104 708 1104 706 1104 717 1105 684 1105 718 1105 718 1106 684 1106 682 1106 693 1107 706 1107 694 1107 694 0 706 0 704 0 718 1108 682 1108 719 1108 682 0 679 0 719 0 694 0 704 0 695 0 695 1109 704 1109 703 1109 695 1110 703 1110 696 1110 719 0 679 0 720 0</p>
        </triangles>
      </mesh>
    </geometry>
  </library_geometries>
  <library_visual_scenes>
    <visual_scene id="Scene" name="Scene">
      <node id="Camera" name="Camera" type="NODE">
        <matrix sid="transform">0.6859207 -0.3240135 0.6515582 7.481132 0.7276763 0.3054209 -0.6141704 -6.50764 -4.01133e-9 0.8953956 0.4452714 5.343665 0 0 0 1</matrix>
        <instance_camera url="#Camera-camera"/>
      </node>
      <node id="Lamp" name="Lamp" type="NODE">
        <matrix sid="transform">-0.2908646 -0.7711008 0.5663933 4.076245 0.9551712 -0.1998833 0.2183912 1.005454 -0.05518904 0.6045247 0.7946723 5.903862 0 0 0 1</matrix>
        <instance_light url="#Lamp-light"/>
      </node>
      <node id="node0" name="node0" type="NODE">
        <matrix sid="transform">1 0 0 0 0 1 0 0 0 0 1 0 0 0 0 1</matrix>
        <instance_geometry url="#Part__Feature002001_002-mesh" name="node0">
          <bind_material>
            <technique_common>
              <instance_material symbol="Mesh_003-material" target="#Mesh_003-material"/>
            </technique_common>
          </bind_material>
        </instance_geometry>
      </node>
    </visual_scene>
  </library_visual_scenes>
  <scene>
    <instance_visual_scene url="#Scene"/>
  </scene>
</COLLADA>