<?xml version="1.0" encoding="utf-8"?>
<COLLADA xmlns="http://www.collada.org/2005/11/COLLADASchema" version="1.4.1" xmlns:xsi="http://www.w3.org/2001/XMLSchema-instance">
  <asset>
    <contributor>
      <author>Blender User</author>
      <authoring_tool>Blender 2.82.7</authoring_tool>
    </contributor>
    <created>2023-10-26T21:20:21</created>
    <modified>2023-10-26T21:20:21</modified>
    <unit name="meter" meter="1"/>
    <up_axis>Z_UP</up_axis>
  </asset>
  <library_cameras>
    <camera id="Camera-camera" name="Camera.001">
      <optics>
        <technique_common>
          <perspective>
            <xfov sid="xfov">49.13434</xfov>
            <aspect_ratio>1.777778</aspect_ratio>
            <znear sid="znear">0.1</znear>
            <zfar sid="zfar">100</zfar>
          </perspective>
        </technique_common>
      </optics>
      <extra>
        <technique profile="blender">
          <shiftx sid="shiftx" type="float">0</shiftx>
          <shifty sid="shifty" type="float">0</shifty>
          <dof_distance sid="dof_distance" type="float">10</dof_distance>
        </technique>
      </extra>
    </camera>
  </library_cameras>
  <library_lights>
    <light id="Lamp-light" name="Lamp.002">
      <technique_common>
        <point>
          <color sid="color">1 1 1</color>
          <constant_attenuation>1</constant_attenuation>
          <linear_attenuation>0</linear_attenuation>
          <quadratic_attenuation>0.00111109</quadratic_attenuation>
        </point>
      </technique_common>
      <extra>
        <technique profile="blender">
          <type sid="type" type="int">0</type>
          <flag sid="flag" type="int">0</flag>
          <mode sid="mode" type="int">8192</mode>
          <gamma sid="blender_gamma" type="float">1</gamma>
          <red sid="red" type="float">1</red>
          <green sid="green" type="float">1</green>
          <blue sid="blue" type="float">1</blue>
          <shadow_r sid="blender_shadow_r" type="float">0</shadow_r>
          <shadow_g sid="blender_shadow_g" type="float">0</shadow_g>
          <shadow_b sid="blender_shadow_b" type="float">0</shadow_b>
          <energy sid="blender_energy" type="float">1</energy>
          <dist sid="blender_dist" type="float">29.99998</dist>
          <spotsize sid="spotsize" type="float">75</spotsize>
          <spotblend sid="spotblend" type="float">0.15</spotblend>
          <att1 sid="att1" type="float">0</att1>
          <att2 sid="att2" type="float">1</att2>
          <falloff_type sid="falloff_type" type="int">2</falloff_type>
          <clipsta sid="clipsta" type="float">1.000799</clipsta>
          <clipend sid="clipend" type="float">30.002</clipend>
          <bias sid="bias" type="float">1</bias>
          <soft sid="soft" type="float">3</soft>
          <bufsize sid="bufsize" type="int">2880</bufsize>
          <samp sid="samp" type="int">3</samp>
          <buffers sid="buffers" type="int">1</buffers>
          <area_shape sid="area_shape" type="int">1</area_shape>
          <area_size sid="area_size" type="float">0.1</area_size>
          <area_sizey sid="area_sizey" type="float">0.1</area_sizey>
          <area_sizez sid="area_sizez" type="float">1</area_sizez>
        </technique>
      </extra>
    </light>
  </library_lights>
  <library_effects>
    <effect id="colour_abb_white-effect">
      <profile_COMMON>
        <technique sid="common">
          <lambert>
            <emission>
              <color sid="emission">0 0 0 1</color>
            </emission>
            <diffuse>
              <color sid="diffuse">0.7404 0.7404 0.7248001 1</color>
            </diffuse>
            <index_of_refraction>
              <float sid="ior">1</float>
            </index_of_refraction>
          </lambert>
        </technique>
      </profile_COMMON>
    </effect>
  </library_effects>
  <library_images/>
  <library_materials>
    <material id="colour_abb_white-material" name="colour_abb_white">
      <instance_effect url="#colour_abb_white-effect"/>
    </material>
  </library_materials>
  <library_geometries>
    <geometry id="Link_6-mesh" name="Link 6">
      <mesh>
        <source id="Link_6-mesh-positions">
          <float_array id="Link_6-mesh-positions-array" count="2232">-0.01349991 -0.01766628 0.009375333 -0.01349991 0.01912128 -0.005862534 -0.01349991 -0.01847743 0.007653594 -0.01349991 0.01847743 -0.007653713 -0.01349991 -0.01912128 0.005862534 -0.01349991 0.01766628 -0.009375452 -0.01349991 -0.01959198 0.004018366 -0.01349991 0.01669514 -0.01101225 -0.01349991 -0.0198853 0.002137899 -0.01349991 0.01557272 -0.0125494 -0.01349991 -0.01999849 2.37942e-4 -0.01349991 0.01430928 -0.01397281 -0.01349991 -0.01993054 -0.001664102 -0.01349991 0.01291632 -0.01526969 -0.01349991 -0.0196821 -0.003551065 -0.01349991 0.01140642 -0.01642835 -0.01349991 -0.01925539 -0.005405843 -0.01349991 0.009793102 -0.01743829 -0.01349991 -0.0186544 -0.007211804 -0.01349991 0.008091151 -0.01829016 -0.01349991 -0.01788443 -0.008952379 -0.01349991 0.006315886 -0.01897639 -0.01349991 -0.01695245 -0.01061189 -0.01349991 0.004483461 -0.01949089 -0.01349991 -0.01586699 -0.0121752 -0.01349991 0.002610445 -0.01982891 -0.01349991 -0.01463776 -0.01362836 -0.01349991 7.13845e-4 -0.01998722 -0.01349991 -0.0132761 -0.01495802 -0.01349991 -0.001189291 -0.01996457 -0.01349991 -0.01179409 -0.01615226 -0.01349991 -0.00308156 -0.01976108 -0.01349991 -0.01020526 -0.01720023 -0.01349991 -0.004946053 -0.01937878 -0.01349991 -0.008524119 -0.01809251 -0.01349991 -0.006765723 -0.01882088 -0.01349991 0.01959198 -0.004018366 -0.01349991 -0.01669514 0.01101213 -0.01349991 0.0198853 -0.002137899 -0.01349991 -0.01557272 0.01254928 -0.01349991 0.01999849 -2.38061e-4 -0.01349991 -0.01430928 0.01397269 -0.01349991 0.01993054 0.001664042 -0.01349991 -0.01291632 0.01526957 -0.01349991 0.0196821 0.003551006 -0.01349991 -0.01140642 0.01642835 -0.01349991 0.01925539 0.005405724 -0.01349991 -0.009793102 0.01743817 -0.01349991 0.0186544 0.007211685 -0.01349991 -0.008091151 0.01829016 -0.01349991 0.01788443 0.00895226 -0.01349991 -0.006315886 0.01897639 -0.01349991 0.01695245 0.01061177 -0.01349991 -0.004483461 0.01949077 -0.01349991 0.01586699 0.0121752 -0.01349991 -0.002610445 0.01982879 -0.01349991 0.01463776 0.01362824 -0.01349991 -7.13845e-4 0.0199871 -0.01349991 0.0132761 0.01495802 -0.01349991 0.001189291 0.01996439 -0.01349991 0.01179409 0.01615226 -0.01349991 0.00308156 0.01976108 -0.01349991 0.01020526 0.01720023 -0.01349991 0.004946053 0.01937866 -0.01349991 0.008524119 0.01809239 -0.01349991 0.006765723 0.01882076 -4.99964e-4 -4.93842e-4 0.01999378 -0.003499925 -4.93842e-4 0.01999378 -0.003499925 -1.64629e-4 0.01999926 -0.003499925 1.64629e-4 0.01999926 -0.003499925 4.93842e-4 0.01999378 -4.99964e-4 4.93842e-4 0.01999378 -4.99964e-4 0.00240612 0.01985466 -4.99964e-4 0.004296243 0.01953297 -4.99964e-4 0.006146967 0.01903176 -4.99964e-4 0.007941186 0.01835566 -4.99964e-4 0.009662389 0.01751101 -4.99964e-4 0.01129478 0.01650524 -4.99964e-4 0.0128234 0.01534777 -4.99964e-4 0.01423406 0.01404941 -4.99964e-4 0.01551401 0.01262176 -4.99964e-4 0.01665145 0.01107805 -4.99964e-4 0.0176357 0.009432792 -4.99964e-4 0.01845788 0.007700622 -4.99964e-4 0.01911056 0.00589776 -4.99964e-4 0.01958739 0.004040718 -4.99964e-4 0.01988434 0.002146482 -4.99964e-4 0.01999855 2.32577e-4 -4.99964e-4 0.01992893 -0.001683533 -4.99964e-4 0.01967608 -0.003584086 -4.99964e-4 0.01924252 -0.005451798 -4.99964e-4 0.01863205 -0.007269382 -4.99964e-4 0.01785027 -0.009020209 -4.99964e-4 0.01690453 -0.010688 -4.99964e-4 0.01580333 -0.01225763 -4.99964e-4 0.014557 -0.01371467 -4.99964e-4 0.01317679 -0.01504552 -4.99964e-4 0.01167553 -0.01623821 -4.99964e-4 0.01006692 -0.01728165 -4.99964e-4 0.008365929 -0.01816618 -4.99964e-4 0.006587862 -0.01888382 -4.99964e-4 0.004749298 -0.01942789 -4.99964e-4 0.002867162 -0.01979339 -4.99964e-4 9.58675e-4 -0.01997697 -4.99964e-4 -9.58675e-4 -0.01997697 -4.99964e-4 -0.002867162 -0.01979339 -4.99964e-4 -0.004749298 -0.01942789 -4.99964e-4 -0.006587862 -0.01888382 -4.99964e-4 -0.008365929 -0.01816618 -4.99964e-4 -0.01006692 -0.01728165 -4.99964e-4 -0.01167553 -0.01623821 -4.99964e-4 -0.01317679 -0.01504552 -4.99964e-4 -0.014557 -0.01371467 -4.99964e-4 -0.01580333 -0.01225763 -4.99964e-4 -0.01690453 -0.010688 -4.99964e-4 -0.01785027 -0.009020209 -4.99964e-4 -0.01863205 -0.007269382 -4.99964e-4 -0.01924252 -0.005451798 -4.99964e-4 -0.01967608 -0.003584086 -4.99964e-4 -0.01992893 -0.001683533 -4.99964e-4 -0.01999855 2.32577e-4 -4.99964e-4 -0.01988434 0.002146482 -4.99964e-4 -0.01958739 0.004040718 -4.99964e-4 -0.01911056 0.00589776 -4.99964e-4 -0.01845788 0.007700622 -4.99964e-4 -0.0176357 0.009432792 -4.99964e-4 -0.01665145 0.01107805 -4.99964e-4 -0.01551401 0.01262176 -4.99964e-4 -0.01423406 0.01404941 -4.99964e-4 -0.0128234 0.01534777 -4.99964e-4 -0.01129478 0.01650524 -4.99964e-4 -0.009662389 0.01751101 -4.99964e-4 -0.007941186 0.01835566 -4.99964e-4 -0.006146967 0.01903176 -4.99964e-4 -0.004296243 0.01953297 -4.99964e-4 -0.00240612 0.01985466 0 -0.01855283 0.006003022 0 -0.01801556 0.007462263 0 -0.01741772 0.008767366 0 -0.01672559 0.0100249 0 -0.01594281 0.0112282 0 -0.01507359 0.01237052 0 -0.01412272 0.01344597 0 -0.01309525 0.0144484 0 -0.01199692 0.01537263 0 -0.01083356 0.01621353 0 -0.009611427 0.01696658 0 -0.008337259 0.01762771 0 -0.00701791 0.01819324 0 -0.005660474 0.01866012 0 -0.004272401 0.01902604 0 -0.002861142 0.01928883 0 -0.001434445 0.01944702 0 0 0.01949983 0 0 0.01949983 0 0.001553714 0.01943784 0 0.003097653 0.0192523 0 0.004621863 0.01894426 0 0.006116688 0.0185157 0 0.007572591 0.01796931 0 0.008980453 0.01730883 0 0.01033109 0.01653826 0 0.01161605 0.01566243 0 0.01282709 0.01468706 0 0.0139566 0.01361823 0 0.01499742 0.01246285 0 0.01594281 0.0112282 0 0.01678681 0.009922146 0 0.01752406 0.008552908 0 0.01814985 0.007129371 0 0.01866018 0.005660474 0 0.0190519 0.004155576 0 0.01932251 0.002624273 0 0.01947021 0.001076221 0 0.01949399 -4.78625e-4 0 0.01939392 -0.002030313 0 0.01917046 -0.003569304 0 0.01882511 -0.005085468 0 0.01835995 -0.006569325 0 0.01777815 -0.00801146 0 0.01708322 -0.009402632 0 0.01627969 -0.01073396 0 0.01537269 -0.01199698 0 0.01436781 -0.01318383 0 0.01327157 -0.01428669 0 0.01209104 -0.01529884 0 0.01083356 -0.01621365 0 0.009507179 -0.01702535 0 0.008120298 -0.0177288 0 0.006681859 -0.01831942 0 0.005200803 -0.01879358 0 0.003686726 -0.01914823 0 0.002149224 -0.01938116 0 5.98157e-4 -0.01949077 0 -9.56817e-4 -0.01947653 0 -0.00250566 -0.0193383 0 -0.004038572 -0.01907718 0 -0.005545914 -0.01869469 0 -0.00701791 -0.01819336 0 -0.008445262 -0.01757627 0 -0.009818911 -0.01684749 0 -0.01113015 -0.01601141 0 -0.01237052 -0.01507359 0 -0.0135324 -0.01403999 0 -0.01460802 -0.01291716 0 -0.01559084 -0.01171207 0 -0.01647454 -0.01043248 0 -0.01725339 -0.009086608 0 -0.01792258 -0.007682859 0 -0.01847779 -0.006230354 0 -0.01891553 -0.004738092 0 -0.01923286 -0.00321573 0 -0.01942801 -0.001673102 0 -0.01949954 -1.19686e-4 0 -0.01944702 0.001434445 0 -0.01927089 0.002979457 0 -0.01897215 0.004505634 -0.005999982 -0.009238779 0.003826737 -0.005999982 -0.009666383 0.002561151 -0.005999982 -0.008646249 0.005024075 -0.005999982 -0.00992155 0.001249969 -0.005999982 -0.007899463 0.006131649 -0.005999982 -0.009999632 -8.35657e-5 -0.005999982 -0.009899258 -0.001415669 -0.005999982 -0.009622275 -0.002722442 -0.005999982 -0.009173512 -0.003980696 -0.005999982 -0.008561134 -0.005167961 -0.005999982 -0.00779587 -0.006262898 -0.005999982 -0.006891608 -0.007246077 -0.005999982 -0.005864322 -0.008100032 -0.005999982 -0.00473237 -0.008809447 -0.005999982 -0.003515899 -0.009361505 -0.005999982 -0.002236843 -0.00974667 -0.005999982 -0.007011651 0.007129848 -0.005999982 -9.1779e-4 -0.00995779 -0.005999982 4.17643e-4 -0.009991288 -0.005999982 0.001745522 -0.009846448 -0.005999982 0.00304234 -0.009526014 -0.005999982 0.004284918 -0.009035468 -0.005999982 0.005450963 -0.00838375 -0.005999982 0.006519854 -0.007582247 -0.005999982 0.007472217 -0.006645679 -0.005999982 0.008291363 -0.005590379 -0.005999982 0.008962512 -0.00443542 -0.005999982 0.009473741 -0.003201246 -0.005999982 0.009815871 -0.001909971 -0.005999982 0.009982883 -5.84602e-4 -0.005999982 0.009971737 7.51257e-4 -0.005999982 -0.00599879 0.00800085 -0.005999982 0.009782612 0.002073585 -0.005999982 -0.004878818 0.008728981 -0.005999982 0.009418904 0.003359079 -0.005999982 -0.003671824 0.009301424 -0.005999982 0.008887171 0.004584372 -0.005999982 -0.002399325 0.009707808 -0.005999982 0.00819683 0.005728065 -0.005999982 -0.00108397 0.009940981 -0.005999982 0.00736016 0.006769478 -0.005999982 2.50633e-4 0.009996771 -0.005999982 0.00639224 0.007690191 -0.005999982 0.001580834 0.009874224 -0.005999982 0.005310118 0.008473515 -0.005999982 0.002882838 0.009575366 -0.005999982 0.004133403 0.009105682 -4.99964e-4 -0.009666383 0.002561151 -4.99964e-4 -0.009238779 0.003826737 -4.99964e-4 -0.008646249 0.005024075 -4.99964e-4 -0.007899463 0.006131649 -4.99964e-4 -0.007011651 0.007129848 -4.99964e-4 -0.00599879 0.00800085 -4.99964e-4 -0.004878818 0.008728981 -4.99964e-4 -0.003671824 0.009301424 -4.99964e-4 -0.002399325 0.009707808 -4.99964e-4 -0.00108397 0.009940981 -4.99964e-4 2.50633e-4 0.009996771 -4.99964e-4 0.001580834 0.009874224 -4.99964e-4 0.002882838 0.009575366 -4.99964e-4 0.004133403 0.009105682 -4.99964e-4 0.005310118 0.008473515 -4.99964e-4 0.00639224 0.007690191 -4.99964e-4 0.00736016 0.006769478 -4.99964e-4 0.00819683 0.005728065 -4.99964e-4 0.008887171 0.004584372 -4.99964e-4 0.009418904 0.003359079 -4.99964e-4 0.009782612 0.002073585 -4.99964e-4 0.009971737 7.51257e-4 -4.99964e-4 0.009982883 -5.84602e-4 -4.99964e-4 0.009815871 -0.001909971 -4.99964e-4 0.009473741 -0.003201246 -4.99964e-4 0.008962512 -0.00443542 -4.99964e-4 0.008291363 -0.005590379 -4.99964e-4 0.007472217 -0.006645679 -4.99964e-4 0.006519854 -0.007582247 -4.99964e-4 0.005450963 -0.00838375 -4.99964e-4 0.004284918 -0.009035468 -4.99964e-4 0.00304234 -0.009526014 -4.99964e-4 0.001745522 -0.009846448 -4.99964e-4 4.17643e-4 -0.009991288 -4.99964e-4 -9.1779e-4 -0.00995779 -4.99964e-4 -0.002236843 -0.00974667 -4.99964e-4 -0.003515899 -0.009361505 -4.99964e-4 -0.00473237 -0.008809447 -4.99964e-4 -0.005864322 -0.008100032 -4.99964e-4 -0.006891608 -0.007246077 -4.99964e-4 -0.00779587 -0.006262898 -4.99964e-4 -0.008561134 -0.005167961 -4.99964e-4 -0.009173512 -0.003980696 -4.99964e-4 -0.009622275 -0.002722442 -4.99964e-4 -0.009899258 -0.001415669 -4.99964e-4 -0.009999632 -8.35657e-5 -4.99964e-4 -0.00992155 0.001249969 0 -0.01542359 0.002478539 0 -0.01265883 0.009153485 0 -0.01312029 0.009614944 0 -0.01344656 0.01018023 0 -0.01361548 0.01081061 0 -0.01361548 0.0114631 0 -0.0160762 0.002478539 0 -0.0167067 0.00230962 0 -0.01727187 0.001983225 0 -0.01773333 0.001521766 0 -0.01805967 9.56655e-4 0 -0.01822859 3.26276e-4 0 -0.01822859 -3.26395e-4 0 -0.01805967 -9.56774e-4 0 -0.01773333 -0.001521885 0 -0.01727187 -0.001983404 0 -0.0167067 -0.002309799 0 -0.0160762 -0.002478539 0 -0.01542359 -0.002478539 0 -0.01265883 -0.009153604 0 -0.01312029 -0.009615063 0 -0.01344656 -0.01018023 0 -0.01361548 -0.01081061 0 -0.01361548 -0.01146328 0 -0.01344656 -0.01209366 0 -0.01312029 -0.01265883 0 -0.01265883 -0.01312041 0 -0.0120936 -0.01344662 0 -0.01146322 -0.01361554 0 -0.01081061 -0.01361554 0 -0.01018011 -0.01344662 0 -0.009615004 -0.01312041 0 -0.009153544 -0.01265883 0 -0.002478539 -0.01542377 0 -0.002478539 -0.01607632 0 -0.00230962 -0.0167067 0 -0.001983284 -0.01727199 0 -0.001521885 -0.01773345 0 -9.56709e-4 -0.01805973 0 -3.26315e-4 -0.01822865 0 3.26315e-4 -0.01822865 0 9.56709e-4 -0.01805973 0 0.001521885 -0.01773345 0 0.001983284 -0.01727199 0 0.00230962 -0.0167067 0 0.002478539 -0.01607632 0 0.002478539 -0.01542377 0 0.009153544 -0.01265883 0 0.009615004 -0.01312041 0 0.01018011 -0.01344662 0 0.01081061 -0.01361554 0 0.01146322 -0.01361554 0 0.0120936 -0.01344662 0 0.01265883 -0.01312041 0 0.01312029 -0.01265883 0 0.01344656 -0.01209366 0 0.01361548 -0.01146328 0 0.01361548 -0.01081061 0 0.01344656 -0.01018023 0 0.01312029 -0.009615063 0 0.01265883 -0.009153604 0 0.01542359 -0.002478539 0 0.01479321 -0.002309799 0 0.0160762 -0.002478539 0 0.0167067 -0.002309799 0 0.01727187 -0.001983404 0 0.01773333 -0.001521885 0 0.01805967 -9.56774e-4 0 0.01822859 -3.26395e-4 0 0.01822859 3.26276e-4 0 0.01805967 9.56655e-4 0 0.01773333 0.001521766 0 0.01727187 0.001983225 0 0.0167067 0.00230962 0 0.0160762 0.002478539 0 0.01542359 0.002478539 0 0.01265883 0.009153485 0 0.01312029 0.009614944 0 0.01344656 0.01018023 0 0.01361548 0.01081061 0 0.01361548 0.0114631 0 0.01344656 0.01209354 0 0.01312029 0.01265883 0 0.01265883 0.01312029 0 0.0120936 0.0134465 0 0.01146322 0.01361542 0 0.01081061 0.01361542 0 0.01018011 0.0134465 0 0.009615004 0.01312029 0 0.009153544 0.01265883 0 0.002478539 0.01542359 0 0.002478539 0.01607632 0 0.00230962 0.0167067 0 0.001983284 0.01727187 0 0.001521885 0.01773333 0 9.56709e-4 0.01805961 0 3.26315e-4 0.01822853 0 -3.26315e-4 0.01822853 0 -9.56709e-4 0.01805961 0 -0.001521885 0.01773333 0 -0.001983284 0.01727187 0 -0.00230962 0.0167067 0 -0.002478539 0.01607632 0 -0.002478539 0.01542359 0 -0.009153544 0.01265883 0 -0.008827209 0.01209354 0 -0.009615004 0.01312029 0 -0.01018011 0.0134465 0 -0.01081061 0.01361542 0 -0.01146322 0.01361542 0 -0.0120936 0.0134465 0 -0.01265883 0.01312029 0 -0.01312029 0.01265883 0 -0.01344656 0.01209354 0 0.008827209 0.01209354 0 0.00230962 0.01479321 0 0.004018068 0.009700655 0 0.001983284 0.01422804 0 0.002717494 0.01014214 0 0.001521885 0.01376646 0 0.001370429 0.01041007 0 9.56709e-4 0.01344025 0 3.26315e-4 0.01327133 0 0 0.01049995 0 -3.26315e-4 0.01327133 0 -0.001370429 0.01041007 0 -9.56709e-4 0.01344025 0 -0.001521885 0.01376646 0 -0.002717494 0.01014214 0 -0.001983284 0.01422804 0 -0.004018068 0.009700655 0 -0.00230962 0.01479321 0 0.01327139 3.26276e-4 0 0.01344025 9.56655e-4 0 0.01041013 0.00137037 0 0.01376652 0.001521766 0 0.01014214 0.002717614 0 0.01422798 0.001983225 0 0.009700715 0.004018187 0 0.01479321 0.00230962 0 0.0120936 0.008827209 0 0.01422798 -0.001983404 0 0.009700715 -0.004018187 0 0.0120936 -0.008827328 0 0.01014214 -0.002717614 0 0.01376652 -0.001521885 0 0.01041013 -0.001370549 0 0.01344025 -9.56774e-4 0 0.01327139 -3.26395e-4 0 0.01049995 0 0 0.008658289 -0.01081061 0 0.008827209 -0.01018023 0 0.006391942 -0.008330225 0 0.009153544 -0.009615063 0 0.007424533 -0.007424712 0 0.009615004 -0.009153604 0 0.008330166 -0.006392002 0 0.01018011 -0.008827328 0 0.01081061 -0.008658409 0 0.009093225 -0.005250096 0 0.01146322 -0.008658409 0 0.008827209 -0.01209366 0 0.00230962 -0.01479321 0 0.004018068 -0.009700775 0 0.001983284 -0.01422804 0 0.002717494 -0.01014214 0 0.001521885 -0.01376658 0 0.001370429 -0.01041013 0 9.56709e-4 -0.01344037 0 3.26315e-4 -0.01327145 0 0 -0.01050007 0 -3.26315e-4 -0.01327145 0 -0.001370429 -0.01041013 0 -9.56709e-4 -0.01344037 0 -0.001521885 -0.01376658 0 -0.002717494 -0.01014214 0 -0.001983284 -0.01422804 0 -0.004018068 -0.009700775 0 -0.00230962 -0.01479321 0 -0.008827209 -0.01209366 0 0.008658289 -0.01146328 0 0.005249977 -0.009093284 0 0.01146322 0.008658289 0 0.009093225 0.005249977 0 0.01081061 0.008658289 0 0.008330166 0.006392002 0 0.01018011 0.008827209 0 0.009615004 0.009153485 0 0.007424533 0.007424533 0 0.009153544 0.009614944 0 0.006391942 0.008330225 0 0.008827209 0.01018023 0 0.008658289 0.01081061 0 0.005249977 0.009093165 0 0.008658289 0.0114631 0 -0.01479321 -0.002309799 0 -0.0120936 -0.008827328 0 -0.009700715 -0.004018187 0 -0.01146322 -0.008658409 0 -0.009093225 -0.005250096 0 -0.01081061 -0.008658409 0 -0.008330166 -0.006392002 0 -0.01018011 -0.008827328 0 -0.009615004 -0.009153604 0 -0.007424533 -0.007424712 0 -0.009153544 -0.009615063 0 -0.006391942 -0.008330225 0 -0.008827209 -0.01018023 0 -0.008658289 -0.01081061 0 -0.005249977 -0.009093284 0 -0.008658289 -0.01146328 0 -0.01479321 0.00230962 0 -0.0120936 0.008827209 0 -0.009700715 0.004018187 0 -0.01146322 0.008658289 0 -0.009093225 0.005249977 0 -0.01081061 0.008658289 0 -0.008330166 0.006392002 0 -0.01018011 0.008827209 0 -0.009615004 0.009153485 0 -0.007424533 0.007424533 0 -0.009153544 0.009614944 0 -0.006391942 0.008330225 0 -0.008827209 0.01018023 0 -0.008658289 0.01081061 0 -0.005249977 0.009093165 0 -0.008658289 0.0114631 0 -0.01422798 0.001983225 0 -0.01014214 0.002717614 0 -0.01376652 0.001521766 0 -0.01041013 0.00137037 0 -0.01344025 9.56655e-4 0 -0.01327139 3.26276e-4 0 -0.01049995 0 0 -0.01327139 -3.26395e-4 0 -0.01041013 -0.001370549 0 -0.01344025 -9.56774e-4 0 -0.01376652 -0.001521885 0 -0.01014214 -0.002717614 0 -0.01422798 -0.001983404 -0.004999995 -0.002478539 0.01607632 -0.004999995 0.001983284 0.01422804 -0.004999995 -0.00230962 0.0167067 -0.004999995 0.00230962 0.01479321 -0.004999995 -0.001983284 0.01727187 -0.004999995 0.002478539 0.01542359 -0.004999995 -0.001521885 0.01773333 -0.004999995 0.002478539 0.01607632 -0.004999995 -9.56709e-4 0.01805961 -0.004999995 0.00230962 0.0167067 -0.004999995 -3.26315e-4 0.01822853 -0.004999995 0.001983284 0.01727187 -0.004999995 3.26315e-4 0.01822853 -0.004999995 0.001521885 0.01773333 -0.004999995 9.56709e-4 0.01805961 -0.004999995 0.001521885 0.01376646 -0.004999995 -0.002478539 0.01542359 -0.004999995 9.56709e-4 0.01344025 -0.004999995 -0.00230962 0.01479321 -0.004999995 3.26315e-4 0.01327133 -0.004999995 -0.001983284 0.01422804 -0.004999995 -3.26315e-4 0.01327133 -0.004999995 -0.001521885 0.01376646 -0.004999995 -9.56709e-4 0.01344025 -0.002999961 0 0.01949983 -0.006999969 -0.01361548 0.0114631 -0.006999969 -0.009153544 0.009614944 -0.006999969 -0.01344656 0.01209354 -0.006999969 -0.008827209 0.01018023 -0.006999969 -0.01312029 0.01265883 -0.006999969 -0.008658289 0.01081061 -0.006999969 -0.01265883 0.01312029 -0.006999969 -0.008658289 0.0114631 -0.006999969 -0.0120936 0.0134465 -0.006999969 -0.008827209 0.01209354 -0.006999969 -0.01146322 0.01361542 -0.006999969 -0.009153544 0.01265883 -0.006999969 -0.01081061 0.01361542 -0.006999969 -0.009615004 0.01312029 -0.006999969 -0.01018011 0.0134465 -0.006999969 -0.009615004 0.009153485 -0.006999969 -0.01361548 0.01081061 -0.006999969 -0.01018011 0.008827209 -0.006999969 -0.01344656 0.01018023 -0.006999969 -0.01081061 0.008658289 -0.006999969 -0.01312029 0.009614944 -0.006999969 -0.01146322 0.008658289 -0.006999969 -0.01265883 0.009153485 -0.006999969 -0.0120936 0.008827209 -0.006999969 -0.01822859 3.26276e-4 -0.006999969 -0.01376652 -0.001521885 -0.006999969 -0.01805967 9.56655e-4 -0.006999969 -0.01344025 -9.56774e-4 -0.006999969 -0.01773333 0.001521766 -0.006999969 -0.01327139 -3.26395e-4 -0.006999969 -0.01727187 0.001983225 -0.006999969 -0.01327139 3.26276e-4 -0.006999969 -0.0167067 0.00230962 -0.006999969 -0.01344025 9.56655e-4 -0.006999969 -0.0160762 0.002478539 -0.006999969 -0.01376652 0.001521766 -0.006999969 -0.01542359 0.002478539 -0.006999969 -0.01422798 0.001983225 -0.006999969 -0.01479321 0.00230962 -0.006999969 -0.01422798 -0.001983404 -0.006999969 -0.01822859 -3.26395e-4 -0.006999969 -0.01479321 -0.002309799 -0.006999969 -0.01805967 -9.56774e-4 -0.006999969 -0.01542359 -0.002478539 -0.006999969 -0.01773333 -0.001521885 -0.006999969 -0.0160762 -0.002478539 -0.006999969 -0.01727187 -0.001983404 -0.006999969 -0.0167067 -0.002309799 -0.006999969 -0.01361548 -0.01081061 -0.006999969 -0.009153544 -0.01265883 -0.006999969 -0.01344656 -0.01018023 -0.006999969 -0.008827209 -0.01209366 -0.006999969 -0.01312029 -0.009615063 -0.006999969 -0.008658289 -0.01146328 -0.006999969 -0.01265883 -0.009153604 -0.006999969 -0.008658289 -0.01081061 -0.006999969 -0.0120936 -0.008827328 -0.006999969 -0.008827209 -0.01018023 -0.006999969 -0.01146322 -0.008658409 -0.006999969 -0.009153544 -0.009615063 -0.006999969 -0.01081061 -0.008658409 -0.006999969 -0.009615004 -0.009153604 -0.006999969 -0.01018011 -0.008827328 -0.006999969 -0.009615004 -0.01312041 -0.006999969 -0.01361548 -0.01146328 -0.006999969 -0.01018011 -0.01344662 -0.006999969 -0.01344656 -0.01209366 -0.006999969 -0.01081061 -0.01361554 -0.006999969 -0.01312029 -0.01265883 -0.006999969 -0.01146322 -0.01361554 -0.006999969 -0.01265883 -0.01312041 -0.006999969 -0.0120936 -0.01344662 -0.006999969 -0.002478539 -0.01542377 -0.006999969 0.001983284 -0.01727199 -0.006999969 -0.00230962 -0.01479321 -0.006999969 0.00230962 -0.0167067 -0.006999969 -0.001983284 -0.01422804 -0.006999969 0.002478539 -0.01607632 -0.006999969 -0.001521885 -0.01376658 -0.006999969 0.002478539 -0.01542377 -0.006999969 -9.56709e-4 -0.01344037 -0.006999969 0.00230962 -0.01479321 -0.006999969 -3.26315e-4 -0.01327145 -0.006999969 0.001983284 -0.01422804 -0.006999969 3.26315e-4 -0.01327145 -0.006999969 0.001521885 -0.01376658 -0.006999969 9.56709e-4 -0.01344037 -0.006999969 0.001521885 -0.01773345 -0.006999969 -0.002478539 -0.01607632 -0.006999969 9.56709e-4 -0.01805973 -0.006999969 -0.00230962 -0.0167067 -0.006999969 3.26315e-4 -0.01822865 -0.006999969 -0.001983284 -0.01727199 -0.006999969 -3.26315e-4 -0.01822865 -0.006999969 -0.001521885 -0.01773345 -0.006999969 -9.56709e-4 -0.01805973 -0.006999969 0.008658289 0.0114631 -0.006999969 0.01312029 0.009614944 -0.006999969 0.008827209 0.01209354 -0.006999969 0.01344656 0.01018023 -0.006999969 0.009153544 0.01265883 -0.006999969 0.01361548 0.01081061 -0.006999969 0.009615004 0.01312029 -0.006999969 0.01361548 0.0114631 -0.006999969 0.01018011 0.0134465 -0.006999969 0.01344656 0.01209354 -0.006999969 0.01081061 0.01361542 -0.006999969 0.01312029 0.01265883 -0.006999969 0.01146322 0.01361542 -0.006999969 0.01265883 0.01312029 -0.006999969 0.0120936 0.0134465 -0.006999969 0.01265883 0.009153485 -0.006999969 0.008658289 0.01081061 -0.006999969 0.0120936 0.008827209 -0.006999969 0.008827209 0.01018023 -0.006999969 0.01146322 0.008658289 -0.006999969 0.009153544 0.009614944 -0.006999969 0.01081061 0.008658289 -0.006999969 0.009615004 0.009153485 -0.006999969 0.01018011 0.008827209 -0.006999969 0.008658289 -0.01081061 -0.006999969 0.01312029 -0.01265883 -0.006999969 0.008827209 -0.01018023 -0.006999969 0.01344656 -0.01209366 -0.006999969 0.009153544 -0.009615063 -0.006999969 0.01361548 -0.01146328 -0.006999969 0.009615004 -0.009153604 -0.006999969 0.01361548 -0.01081061 -0.006999969 0.01018011 -0.008827328 -0.006999969 0.01344656 -0.01018023 -0.006999969 0.01081061 -0.008658409 -0.006999969 0.01312029 -0.009615063 -0.006999969 0.01146322 -0.008658409 -0.006999969 0.01265883 -0.009153604 -0.006999969 0.0120936 -0.008827328 -0.006999969 0.01265883 -0.01312041 -0.006999969 0.008658289 -0.01146328 -0.006999969 0.0120936 -0.01344662 -0.006999969 0.008827209 -0.01209366 -0.006999969 0.01146322 -0.01361554 -0.006999969 0.009153544 -0.01265883 -0.006999969 0.01081061 -0.01361554 -0.006999969 0.009615004 -0.01312041 -0.006999969 0.01018011 -0.01344662 -0.006999969 0.01327139 3.26276e-4 -0.006999969 0.01773333 -0.001521885 -0.006999969 0.01344025 9.56655e-4 -0.006999969 0.01805967 -9.56774e-4 -0.006999969 0.01376652 0.001521766 -0.006999969 0.01822859 -3.26395e-4 -0.006999969 0.01422798 0.001983225 -0.006999969 0.01822859 3.26276e-4 -0.006999969 0.01479321 0.00230962 -0.006999969 0.01805967 9.56655e-4 -0.006999969 0.01542359 0.002478539 -0.006999969 0.01773333 0.001521766 -0.006999969 0.0160762 0.002478539 -0.006999969 0.01727187 0.001983225 -0.006999969 0.0167067 0.00230962 -0.006999969 0.01727187 -0.001983404 -0.006999969 0.01327139 -3.26395e-4 -0.006999969 0.0167067 -0.002309799 -0.006999969 0.01344025 -9.56774e-4 -0.006999969 0.0160762 -0.002478539 -0.006999969 0.01376652 -0.001521885 -0.006999969 0.01542359 -0.002478539 -0.006999969 0.01422798 -0.001983404 -0.006999969 0.01479321 -0.002309799</float_array>
          <technique_common>
            <accessor source="#Link_6-mesh-positions-array" count="744" stride="3">
              <param name="X" type="float"/>
              <param name="Y" type="float"/>
              <param name="Z" type="float"/>
            </accessor>
          </technique_common>
        </source>
        <source id="Link_6-mesh-normals">
          <float_array id="Link_6-mesh-normals-array" count="2640">-1 -3.84467e-7 0 -1 1.91356e-7 0 -1 0 0 -1 0 0 -1 0 0 -1 -1.63405e-7 0 -1 4.52686e-7 0 -1 2.95528e-7 0 -1 -2.6237e-7 0 -1 4.10444e-7 0 -1 -6.43508e-7 0 -1 2.62111e-7 0 -1 7.65435e-7 0 -1 -6.87348e-7 0 -1 4.72181e-7 0 -1 -2.3321e-7 0 -1 2.20964e-7 0 -1 -8.34257e-7 0 -1 3.13815e-7 0 -1 -2.08839e-7 0 -1 1.03719e-6 0 -1 7.19519e-7 0 -1 -2.14206e-6 0 -1 4.43379e-7 0 -1 -2.64114e-6 0 -1 3.87973e-7 0 -1 -3.44159e-7 0 -1 0 0 -1 1.63405e-7 0 -1 4.52686e-7 0 -1 -2.95528e-7 0 -1 -5.57892e-7 0 -1 6.98906e-7 0 -1 -7.65435e-7 0 -1 -1.58618e-7 0 -1 1.33276e-7 0 -1 4.86125e-7 0 -1 -8.34354e-7 0 -1 -3.13816e-7 0 -1 -5.03685e-7 0 -1 -2.69765e-7 0 -1 2.14206e-6 0 -1 2.64125e-6 0 0 -0.03034669 0.9995394 -3.01914e-4 -0.0166431 0.9998615 -0.0012151 0 0.9999994 -0.002261221 0.01190137 0.9999267 -0.001776099 0.0166431 0.9998599 0 0.04213821 0.9991118 0.00163114 0.07255953 0.9973627 -0.001605033 0.1068549 0.9942734 0.001620054 0.1677461 0.985829 -0.001589238 0.2009235 0.9796057 0.001606643 0.2614393 0.9652186 -0.001565277 0.2931344 0.95607 0.001593768 0.3525894 0.9357769 -0.001554131 0.3826915 0.9238749 0.001571357 0.4405698 0.8977171 -0.001540184 0.4687538 0.8833276 0.001554489 0.5245592 0.8513725 -0.001515805 0.5506028 0.834766 0.001540362 0.6036463 0.7972509 -0.001497447 0.627469 0.7786402 0.001519799 0.6772132 0.7357853 -0.001482605 0.6986662 0.7154462 0.001494944 0.7445716 0.667541 -0.001458764 0.7634695 0.6458423 0.001479387 0.8050667 0.5931825 -0.001438736 0.8214319 0.5703047 0.001454234 0.8581678 0.5133672 -0.001417577 0.8719099 0.4896645 0.001432895 0.9033809 0.4288368 -0.001396656 0.9145145 0.4045509 0.001407086 0.9402917 0.340367 -0.001375973 0.9488266 0.3157947 0.001381993 0.9685724 0.2487282 -0.001345872 0.9745414 0.2242036 0.001363337 0.9879332 0.1548749 -0.001324236 0.9914472 0.1305018 0.001333415 0.9982251 0.05953872 -0.001297175 0.9993618 0.03569883 0.001309752 0.9993398 -0.0363093 -0.001271843 0.9982291 -0.05947399 0.001280725 0.9912694 -0.1318457 -0.001244664 0.9880573 -0.1540827 0.001253366 0.9740893 -0.2261604 -0.001217067 0.9689363 -0.2473075 0.001224517 0.9479586 -0.3183913 -0.001187562 0.9410467 -0.338275 0.001196742 0.9131182 -0.4076934 -0.001157522 0.9046296 -0.4261973 0.001167714 0.869868 -0.4932833 -0.001124858 0.8600144 -0.5102686 0.001138627 0.8186441 -0.5743002 -0.001093745 0.8076145 -0.58971 0.001107037 0.7598876 -0.6500536 -0.001063585 0.7478959 -0.6638153 0.001073479 0.6941326 -0.7198463 -0.001028895 0.6814142 -0.7318974 0.001041948 0.6220461 -0.78298 -0.001000642 0.6087507 -0.793361 0.001002967 0.5441967 -0.8389572 -9.65413e-4 0.5306094 -0.8476159 9.70918e-4 0.4613462 -0.8872197 -9.32244e-4 0.4475892 -0.8942388 9.32341e-4 0.3742827 -0.9273143 -8.98571e-4 0.3605846 -0.9327262 8.95268e-4 0.2837572 -0.9588959 -8.57675e-4 0.2703264 -0.9627684 8.63752e-4 0.1906269 -0.9816622 -8.17031e-4 0.1775688 -0.9841081 8.29332e-4 0.09574961 -0.9954051 -7.80864e-4 0.08317852 -0.9965344 7.88442e-4 0 -0.9999997 -7.42555e-4 -0.01190042 -0.999929 7.49348e-4 -0.09574961 -0.9954053 -7.075e-4 -0.1069179 -0.9942677 7.04955e-4 -0.1906269 -0.9816623 -6.60433e-4 -0.2008635 -0.979619 6.71962e-4 -0.2837572 -0.958896 -6.19377e-4 -0.2931349 -0.956071 6.29345e-4 -0.3742828 -0.9273145 -5.78904e-4 -0.3826918 -0.9238759 5.85879e-4 -0.4613466 -0.8872199 -5.43405e-4 -0.4688034 -0.8833025 5.3666e-4 -0.5441969 -0.8389575 -4.97882e-4 -0.5506034 -0.8347668 4.95947e-4 -0.6220464 -0.7829803 -4.50438e-4 -0.627469 -0.7786415 4.54224e-4 -0.6941336 -0.7198461 -4.0685e-4 -0.698634 -0.7154791 4.0823e-4 -0.7598881 -0.650054 -3.62529e-4 -0.7634972 -0.6458112 3.60943e-4 -0.8186429 -0.5743029 -3.13887e-4 -0.8214123 -0.5703349 3.16207e-4 -0.8698695 -0.4932818 -2.6787e-4 -0.8719114 -0.4896636 2.67889e-4 -0.913118 -0.4076957 -2.19519e-4 -0.9145153 -0.4045515 2.19549e-4 -0.9479604 -0.3183884 -1.71154e-4 -0.9488275 -0.315795 1.70421e-4 -0.9740906 -0.2261584 -1.18202e-4 -0.9745423 -0.2242038 1.24137e-4 -0.9912703 -0.1318458 -7.2328e-5 -0.9914478 -0.1305042 6.94419e-5 -0.9993405 -0.03631168 -1.94586e-5 -0.9993627 -0.03569883 1.98225e-5 -0.9982303 0.05946797 2.9773e-5 -0.9982262 0.05953645 -3.33539e-5 -0.9880576 0.1540852 8.31973e-5 -0.9879341 0.154875 -8.20071e-5 -0.968937 0.2473077 1.30231e-4 -0.9685733 0.2487285 -1.3487e-4 -0.9410393 0.3382972 1.8127e-4 -0.940293 0.3403663 -1.83279e-4 -0.9046306 0.4261966 2.33159e-4 -0.9033805 0.4288401 -2.29002e-4 -0.8600149 0.5102692 2.8105e-4 -0.8581693 0.5133669 -2.75986e-4 -0.807616 0.5897088 3.2853e-4 -0.8050675 0.5931831 -3.23616e-4 -0.7478963 0.6638156 3.71733e-4 -0.7445724 0.6675416 -3.73181e-4 -0.6814145 0.7318977 4.17585e-4 -0.6772134 0.7357866 -4.17859e-4 -0.6087907 0.7933308 4.68508e-4 -0.6036463 0.7972521 -4.57268e-4 -0.530564 0.8476448 5.03829e-4 -0.5245598 0.8513735 -5.09759e-4 -0.4476405 0.8942136 5.55219e-4 -0.4405701 0.8977181 -5.44473e-4 -0.3605847 0.9327265 6.01328e-4 -0.3525896 0.9357779 -5.83727e-4 -0.2702684 0.9627849 6.3198e-4 -0.2614396 0.9652197 -6.37246e-4 -0.1775688 0.9841083 6.75474e-4 -0.1677463 0.98583 -6.75183e-4 -0.08317852 0.9965345 7.1518e-4 -0.07255959 0.9973639 0.7053682 -0.6651781 0.2449364 0.7081784 -0.6419032 0.2940133 0.6942229 -0.6502174 0.3086617 0.7153087 -0.6122078 0.3369498 0.6903002 -0.6209058 0.3714321 0.7155666 -0.5855355 0.3809366 0.6936605 -0.5798919 0.4272711 0.7089617 -0.5612655 0.4270298 0.7045149 -0.5316469 0.4701173 0.6968517 -0.5340185 0.4787713 0.7139006 -0.4890196 0.5012044 0.6907848 -0.4896669 0.5320175 0.7162467 -0.4493004 0.5339661 0.6919038 -0.4358267 0.5756078 0.7117529 -0.4114899 0.5692837 0.7001718 -0.3745411 0.6078474 0.7001344 -0.3745414 0.6078903 0.7118358 -0.3234758 0.6234206 0.6918436 -0.3181127 0.648195 0.7162047 -0.2749507 0.6414459 0.6907373 -0.2549598 0.6766666 0.7138265 -0.22781 0.6622343 0.6968947 -0.1874975 0.6922301 0.7045183 -0.1808769 0.6862488 0.7090923 -0.1291094 0.6931948 0.6936157 -0.1208353 0.7101381 0.7155815 -0.07698041 0.6942745 0.6903005 -0.05249851 0.7216156 0.7152791 -0.02570956 0.6983658 0 0 1 0.7162722 0.02781873 0.6972662 0.6906796 0.05247229 0.7212547 0.7178466 0.08309334 0.6912249 0.6909071 0.1212711 0.7126995 0.7158754 0.1383144 0.6843914 0.6949216 0.1879975 0.6940756 0.7102238 0.1940107 0.6767142 0.7026911 0.2499734 0.666137 0.701037 0.2514405 0.6673266 0.7115533 0.2984516 0.6360964 0.6940097 0.3171956 0.6463262 0.7165166 0.3456781 0.6058965 0.690598 0.379382 0.6157466 0.7178254 0.3921229 0.5752969 0.6910499 0.4363204 0.5762592 0.7156535 0.438097 0.543977 0.6952815 0.4867395 0.5288369 0.7098687 0.4841072 0.5115922 0.7033828 0.5281331 0.4757396 0.7005102 0.5313583 0.4763863 0.7119031 0.5575882 0.4269536 0.6936605 0.5798919 0.4272711 0.7166346 0.5857818 0.3785427 0.6905009 0.6207401 0.3713358 0.7177972 0.6130362 0.3300818 0.6911891 0.6528502 0.3099101 0.7154237 0.639612 0.2811857 0.6956397 0.6754973 0.2445175 0.7094091 0.665753 0.231326 0.7039694 0.6873271 0.1789099 0.700011 0.691689 0.1776262 0.7122591 0.6912124 0.122117 0.6933915 0.7118669 0.111597 0.7168058 0.694121 0.06622368 0.6904286 0.7221174 0.04306876 0.7177366 0.6962329 0.01067572 0.6913126 0.7220795 -0.02623438 0.7151732 0.6974967 -0.0450083 0.6960015 0.711772 -0.09467124 0.7089329 0.6979566 -0.1013445 0.7045256 0.6919539 -0.1576182 0.6995486 0.6960709 -0.1616081 0.712629 0.6694298 -0.2098184 0.693125 0.6833059 -0.2295017 0.7169511 0.6464926 -0.2608227 0.6903823 0.6605907 -0.2949446 0.7177082 0.6229465 -0.3111794 0.6914967 0.6283749 -0.3563386 0.7149102 0.5986319 -0.3613077 0.6963659 0.5875301 -0.4121688 0.7084791 0.5732231 -0.4116706 0.7051237 0.5411793 -0.4581764 0.699073 0.5433583 -0.4648212 0.7129709 0.4973195 -0.4943134 0.6928697 0.5005139 -0.5190544 0.7170851 0.4536346 -0.5291547 0.6903555 0.4500321 -0.5664631 0.7176488 0.4096877 -0.5631485 0.6916819 0.3930205 -0.6058971 0.7146585 0.3651114 -0.5966212 0.6967694 0.330922 -0.6363986 0.7079679 0.3194737 -0.6298555 0.7056438 0.269156 -0.6554555 0.6986132 0.2677992 -0.6634932 0.7132952 0.2136799 -0.667496 0.6926485 0.204667 -0.6916282 0.7172465 0.1589187 -0.6784558 0.6903595 0.1379122 -0.7102 0.7175799 0.1043247 -0.6886186 0.6918592 0.06913435 -0.7187151 0.7143441 0.04935497 -0.6980521 0.6971229 0 -0.7169516 0.707443 -0.006500005 -0.7067405 0.706158 -0.06291425 -0.7052537 0.6981648 -0.0685507 -0.7126478 0.7136056 -0.1176604 -0.6905963 0.6923777 -0.137544 -0.7083042 0.71732 -0.17135 -0.6753453 0.6902792 -0.2053105 -0.6938028 0.717468 -0.2246001 -0.6593894 0.6920588 -0.2701727 -0.6693738 0.7140617 -0.2777938 -0.6426092 0.6975564 -0.3305686 -0.6357197 0.7069825 -0.3314784 -0.6247382 0.7067385 -0.3803423 -0.5965406 0.6977974 -0.3898058 -0.6009412 0.7139702 -0.4222627 -0.5585166 0.6921907 -0.44894 -0.5650883 0.717442 -0.4630406 -0.520452 0.690317 -0.5022104 -0.5208138 0.7173809 -0.5030772 -0.4819523 0.6922658 -0.5483678 -0.4691067 0.7137618 -0.5427684 -0.4426586 0.6979812 -0.5862434 -0.4112675 0.7064626 -0.582382 -0.4021716 0.7072592 -0.6118724 -0.3541138 0.6973571 -0.623456 -0.3535477 0.7142446 -0.6317762 -0.301187 0.6919468 -0.6592244 -0.2943345 0.7175117 -0.6506361 -0.2486959 0.6902896 -0.6858807 -0.2303651 0.71726 -0.6686388 -0.1961134 0.6925037 -0.7027232 -0.1631526 0.7134611 -0.6859444 -0.143016 0.6984326 -0.7094281 -0.09435951 0.7059124 -0.7027025 -0.08886444 0.707749 -0.7057161 -0.03249835 0.6969417 -0.716655 -0.02603727 0.7145162 -0.6992207 0.02360224 0.6917576 -0.7208488 0.04299306 0.7176061 -0.6919675 0.07888269 0.6903213 -0.7147734 0.1120513 0.7171432 -0.6839452 0.1338831 0.6927573 -0.6985069 0.1793757 0.7131538 -0.6750389 0.1890349 0.6988924 -0.6725227 0.2434394 1 0 0 1 2.56507e-6 0 1 2.58762e-6 0 1 -3.14232e-6 0 1 5.31617e-7 0 1 -1.48098e-7 0 1 0 0 1 1.55287e-6 0 1 -7.36973e-7 0 1 6.35408e-7 0 1 -3.87582e-7 0 1 6.0201e-7 0 1 2.56762e-7 0 1 -3.68226e-7 0 1 2.01529e-7 0 1 5.50063e-7 0 1 -5.55166e-7 0 1 0 0 1 0 0 1 4.5106e-7 0 1 -2.12934e-7 0 1 -2.29164e-7 0 1 4.0214e-7 0 1 -3.42361e-7 0 1 2.76327e-7 0 1 -4.01338e-7 0 1 -1.41214e-7 0 1 2.96231e-7 0 1 -7.73396e-7 0 1 5.31604e-7 0 0 0.9473814 -0.3201072 0 0.9473816 -0.3201063 0 0.8962576 -0.4435341 0 0.8962579 -0.4435333 0 0.829136 -0.5590471 0 0.8291354 -0.5590478 0 0.747256 -0.6645363 0 0.6519886 -0.7582288 0 0.5450673 -0.8383924 0 0.4285197 -0.9035324 0 0.4285199 -0.9035323 0 0.3042213 -0.9526014 0 0.3042213 -0.9526015 0 0.1745489 -0.9846485 0 0.1745489 -0.9846485 0 0.04176431 -0.9991276 0 0.04176431 -0.9991275 0 -0.09173828 -0.9957832 0 -0.09173828 -0.9957832 0 -0.2237188 -0.9746538 0 -0.2237188 -0.9746538 0 -0.3515977 -0.9361512 0 -0.3515979 -0.9361512 0 -0.4732404 -0.8809334 0 -0.4732401 -0.8809336 0 -0.5863924 -0.8100271 0 -0.5863922 -0.8100273 0 -0.6891944 -0.7245765 0 -0.6891939 -0.7245771 0 -0.7795744 -0.6263096 0 -0.7795743 -0.6263098 0 -0.856128 -0.5167641 0 -0.9173514 -0.3980785 0 -0.9173514 -0.3980785 0 -0.9622248 -0.2722564 0 -0.9622246 -0.2722573 0 -0.9899273 -0.1415774 0 -0.9899272 -0.1415774 0 -0.9999652 -0.008343935 0 -0.9999652 -0.008342921 0 -0.9921539 0.1250228 0 -0.992154 0.1250228 0 -0.9666458 0.2561171 0 -0.9666455 0.256118 0 -0.9238749 0.3826949 0 -0.9238752 0.382694 0 -0.8646284 0.502412 0 -0.8646284 0.502412 0 -0.7899525 0.6131682 0 -0.7899529 0.6131676 0 -0.7011698 0.7129944 0 -0.7011697 0.7129945 0 -0.5999143 0.8000644 0 -0.5999143 0.8000644 0 -0.4878809 0.8729103 0 -0.3672015 0.9301415 0 -0.2398785 0.9708029 0 -0.2398785 0.9708029 0 -0.1084278 0.9941044 0 -0.1084278 0.9941043 0 0.02507525 0.9996856 0 0.1580432 0.9874323 0 0.1580431 0.9874323 0 0.2883303 0.957531 0 0.2883303 0.957531 0 0.4132719 0.9106078 0 0.4132714 0.9106079 0 0.5310452 0.8473435 0 0.5310454 0.8473434 0 0.6392226 0.7690218 0 0.6392231 0.7690214 0 0.7360268 0.6769524 0 0.7360273 0.6769519 0 0.8196719 0.5728334 0 0.8196718 0.5728334 0 0.8887345 0.4584224 0 0.8887344 0.4584224 0 0.9418875 0.3359287 0 0.9418871 0.3359296 0 0.9782662 0.2073529 0 0.9782662 0.2073529 0 0.9971736 0.07513326 0 0.9971735 0.07513427 0 0.9982904 -0.05845046 0 0.9982904 -0.05844944 0 0.9815851 -0.1910255 0 0.9815853 -0.1910246 1 -2.81129e-7 0 1 1.45523e-7 0 1 -5.22497e-7 0 1 4.96848e-7 0 1 -1.74166e-7 0 1 2.48427e-7 0 1 -6.47467e-7 0 1 1.4064e-6 0 1 -2.06305e-6 0 0 0.8660034 -0.5000383 0 0.8660036 -0.5000379 0 0.9659217 -0.2588345 0 0.9659218 -0.258834 0 1 0 0 0.7071068 -0.7071068 0 0.7071071 -0.7071065 0 0.4999714 -0.866042 0 0.4999713 -0.8660421 0 0.2588277 -0.9659236 0 0.2588276 -0.9659236 0 0 -1 0 -0.2588276 -0.9659236 0 -0.2588277 -0.9659236 0 -0.4999713 -0.8660421 0 -0.4999714 -0.866042 0 -0.7071071 -0.7071065 0 -0.7071068 -0.7071068 0 -0.8660034 -0.5000383 0 -0.8660036 -0.5000379 0 -0.9659217 -0.2588345 0 -0.9659218 -0.258834 0 -1 0 0 -0.965922 0.2588336 0 -0.9659218 0.2588341 0 -0.8660032 0.5000385 0 -0.866003 0.5000389 0 -0.7071995 0.707014 0 -0.7071998 0.7070138 0 -0.4999607 0.8660481 0 -0.4999606 0.8660483 0 -0.2588277 0.9659236 0 -0.2588276 0.9659236 0 0.2588276 0.9659236 0 0.2588277 0.9659236 0 0.4999606 0.8660483 0 0.4999607 0.8660481 0 0.7071998 0.7070138 0 0.7071995 0.707014 0 0.866003 0.5000389 0 0.8660032 0.5000385 0 0.9659218 0.2588341 0 0.965922 0.2588336 0 -0.7071409 0.7070727 0 -0.7071409 0.7070727 0 0.7071409 0.7070727 0 0.7071409 0.7070727 0.7085688 0.01174354 0.7055441 0.7066877 0 0.7075257 0.7085698 -0.01174378 0.7055431 0.7076978 0.63322 -0.313363 0.7064051 0.6348056 -0.3130713 0.7063962 0.6702529 -0.2275207 0.7051096 0.5895975 -0.3939484 0.7090057 0.5847092 -0.3942411 0.7039145 0.5340154 -0.4683289 0.7101926 0.5260742 -0.4678379 0.7026988 0.469123 -0.5349188 0.7113602 0.4582356 -0.5329043 0.7015869 0.3958554 -0.5925153 0.7124467 0.3824881 -0.5883218 0.7005072 0.3156414 -0.6400471 0.7134732 0.3002563 -0.6330894 0.6994792 0.2297455 -0.6767171 0.7145061 0.2128421 -0.6664678 0.6985698 0.1395562 -0.7018008 0.7153911 0.1219615 -0.6879979 0.6976333 0.04688614 -0.7149193 0.7162877 0.02914333 -0.6971963 0.6968008 -0.04693913 -0.7157272 0.7170224 -0.06394618 -0.6941108 0.6959362 -0.1400557 -0.7043133 0.7178353 -0.1557559 -0.6785666 0.6952535 -0.2310672 -0.6806104 0.7184847 -0.2445514 -0.6511332 0.694523 -0.3182176 -0.6452716 0.7191078 -0.3288541 -0.6121593 0.6939043 -0.4000126 -0.5987377 0.719703 -0.4071216 -0.5623875 0.6933091 -0.4751585 -0.5417998 0.7202202 -0.4781254 -0.5026719 0.6928235 -0.5421528 -0.4754639 0.720683 -0.5404516 -0.4341984 0.6923248 -0.5999807 -0.400886 0.7210832 -0.5931667 -0.3580395 0.6919422 -0.6474924 -0.3193271 0.7214539 -0.6352315 -0.2756541 0.691594 -0.6839547 -0.2321718 0.7217415 -0.6660159 -0.1884461 0.6912739 -0.7087125 -0.1409502 0.7219461 -0.6849794 -0.09796416 0.6910131 -0.7212947 -0.04727423 0.722137 -0.691726 -0.005771398 0.6908475 -0.721453 0.04727953 0.7222894 -0.6861646 0.08646553 0.6907591 -0.7091931 0.1410574 0.7223817 -0.6684301 0.1771045 0.6906929 -0.6847711 0.2324479 0.7224073 -0.6388298 0.264621 0.6907082 -0.6485632 0.3198252 0.7223976 -0.5978713 0.347407 0.6907593 -0.601208 0.4017471 0.7222821 -0.5463299 0.4240664 0.6908791 -0.5435813 0.4766608 0.7221932 -0.4849929 0.4931724 0.6910577 -0.4765464 0.5434545 0.7219526 -0.4151061 0.5535987 0.6912428 -0.4014755 0.6008335 0.7217033 -0.3377125 0.6042307 0.6915561 -0.3194797 0.6478294 0.7214182 -0.254287 0.6441227 0.6918714 -0.2320573 0.6837129 0.7210393 -0.1662104 0.6726637 0.692341 -0.140788 0.7077024 0.720683 -0.07516914 0.6891776 0.6928266 -0.04719525 0.7195581 0.7202548 0.01739495 0.6934915 0.6933441 0.04716271 0.7190617 0.719688 0.109729 0.6855719 0.6938467 0.1405055 0.7062826 0.7190777 0.2003692 0.6654168 0.6945519 0.2312288 0.6812716 0.7184979 0.2874425 0.6333543 0.6951727 0.3179404 0.6447085 0.7177602 0.3697619 0.589997 0.6959387 0.3989635 0.5970742 0.717023 0.4455699 0.5360463 0.6967759 0.4729132 0.5393112 0.7162677 0.5136184 0.4723948 0.697609 0.5387002 0.4723811 0.7153666 0.5727454 0.4002668 0.6985228 0.5949742 0.3975824 0.7144689 0.6218185 0.3207429 0.6995115 0.6409291 0.3160597 0.7135074 0.6599311 0.2353686 0.7005084 0.6757711 0.2293938 0.7124533 0.6864685 0.1455036 0.7015836 0.6988969 0.1390095 0.7113603 0.700841 0.05280673 0.7026943 0.7099689 0.04652786 0.7101858 0.7028107 -0.04114967 0.7038633 0.7088148 -0.04645627 0.7089513 0.6922702 -0.134722 0.7051338 0.6954537 -0.1383132 0.7077299 0.6693093 -0.2261496 1 1.16417e-6 0 1 -5.62167e-7 0 1 5.82084e-7 0 1 -3.48391e-7 0 1 1.29495e-6 0 1 -9.15499e-7 0 1 1.40694e-6 0 1 -4.12555e-6 0 1 3.48393e-7 0 1 -9.93683e-7 0 1 4.12664e-6 0 0 0.8660532 -0.4999518 0 0.8660519 -0.4999542 0 0.9659222 -0.2588325 0 0.9659215 -0.2588355 0 0.707107 -0.7071067 0 0.7071053 -0.7071083 0 0.4999261 -0.8660681 0 0.4999234 -0.8660697 0 0.2588341 -0.9659219 0 0.2588325 -0.9659223 0 -0.2588102 -0.9659283 0 -0.4999675 -0.8660442 0 -0.707107 -0.7071067 0 -0.8660477 -0.4999614 0 -0.8660492 -0.4999591 0 -0.9659215 -0.2588355 0 -0.9659227 -0.258831 0 -0.9659226 0.2588314 0 -0.9659214 0.2588358 0 -0.866048 0.4999609 0 -0.8660466 0.4999632 0 -0.7071062 0.7071074 0 -0.4999739 0.8660405 0 -0.2588102 0.9659283 0 0.2588325 0.9659223 0 0.2588341 0.9659219 0 0.4999297 0.866066 0 0.4999325 0.8660644 0 0.7071046 0.707109 0 0.7071062 0.7071074 0 0.8660522 0.4999537 0 0.8660508 0.4999561 0 0.9659222 0.2588329 0 0.9659214 0.2588358 1 2.81128e-7 0 1 -1.16423e-6 0 1 -6.96664e-7 0 1 4.96821e-7 0 1 9.1578e-7 0 1 -1.40721e-6 0 1 -1.24934e-6 0 1 1.3933e-6 0 1 -9.93704e-7 0 1 -1.40695e-6 0 1 4.12015e-6 0 0 0.8660007 -0.5000431 0 0.8659978 -0.5000479 0 0.9659206 -0.2588391 0 0.9659221 -0.2588331 0 0.7071062 -0.7071075 0 0.7071077 -0.7071059 0 0.5001079 -0.8659631 0 0.5001065 -0.8659639 0 0.2588101 -0.9659283 0 0.2588108 -0.965928 0 -0.2588347 -0.9659217 0 -0.2588331 -0.9659221 0 -0.5000693 -0.8659855 0 -0.5000665 -0.865987 0 -0.7071077 -0.7071059 0 -0.7071045 -0.707109 0 -0.8660061 -0.5000336 0 -0.9659444 -0.2587499 0 -0.9659453 -0.2587469 0 -0.9659452 0.2587469 0 -0.9659444 0.2587499 0 -0.8660061 0.5000336 0 -0.7071053 0.7071084 0 -0.7071084 0.7071052 0 -0.5000668 0.865987 0 -0.5000695 0.8659853 0 -0.2586613 0.9659681 0 -0.2586629 0.9659677 0 0.2586391 0.9659741 0 0.2586383 0.9659743 0 0.5001068 0.8659638 0 0.5001082 0.8659631 0 0.7071084 0.7071052 0 0.7071069 0.7071068 0 0.8660006 0.5000431 0 0.8659978 0.5000479 0 0.9659205 0.258839 0 0.9659221 0.2588331 1 -1.16417e-6 0 1 5.62255e-7 0 1 -5.82084e-7 0 1 6.96656e-7 0 1 9.15755e-7 0 1 -1.40697e-6 0 1 -1.29487e-6 0 1 1.40632e-6 0 1 4.12671e-6 0 0 0.8660065 -0.5000328 0 0.8660051 -0.5000352 0 0.9659222 -0.2588329 0 0.9659214 -0.2588358 0 0.7071062 -0.7071074 0 0.7071046 -0.707109 0 0.4999325 -0.8660644 0 0.4999297 -0.866066 0 0.2588327 -0.9659222 0 0.2588312 -0.9659227 0 -0.2588089 -0.9659286 0 -0.4999739 -0.8660405 0 -0.7071062 -0.7071074 0 -0.866001 -0.5000424 0 -0.8660025 -0.50004 0 -0.9659214 -0.2588358 0 -0.9659226 -0.2588314 0 -0.8660035 0.5000382 0 -0.866002 0.5000405 0 -0.7071989 0.7070146 0 -0.4999675 0.8660442 0 0.4999234 0.8660697 0 0.4999261 0.8660681 0 0.7071974 0.7070162 0 0.7071989 0.7070146 0 0.8660075 0.5000309 0 0.8660062 0.5000333 1 -2.81081e-7 0 1 -1.12452e-6 0 1 2.91046e-7 0 1 3.48395e-7 0 1 4.96741e-7 0 1 1.40704e-6 0 1 -4.12609e-6 0 1 -3.48397e-7 0 1 4.96854e-7 0 1 -1.29493e-6 0 1 9.15504e-7 0 1 4.12603e-6 0 0 0.8660032 -0.5000388 0 0.9659343 -0.2587876 0 0.965934 -0.2587883 0 0.7071078 -0.7071059 0 0.7071076 -0.7071061 0 0.4999608 -0.8660481 0 0.4999606 -0.8660482 0 0.2588276 -0.9659236 0 0.2588276 -0.9659236 0 -0.2588276 -0.9659236 0 -0.2588276 -0.9659236 0 -0.4999606 -0.8660482 0 -0.4999608 -0.8660481 0 -0.7071076 -0.7071061 0 -0.7071078 -0.7071059 0 -0.8660032 -0.5000388 0 -0.9659343 -0.2587876 0 -0.965934 -0.2587883 0 -0.9659217 0.2588347 0 -0.9659218 0.258834 0 -0.8660492 0.4999591 0 -0.7071071 0.7071066 0 -0.7071068 0.7071068 0 -0.4999736 0.8660407 0 -0.4999735 0.8660408 0 -0.2588276 0.9659236 0 -0.2588276 0.9659236 0 0.2588276 0.9659236 0 0.2588276 0.9659236 0 0.4999735 0.8660408 0 0.4999736 0.8660407 0 0.7071068 0.7071068 0 0.7071071 0.7071066 0 0.8660492 0.4999591 0 0.9659218 0.258834 0 0.9659217 0.2588347 1 -5.62169e-7 0 1 5.82084e-7 0 1 -3.48392e-7 0 1 1.29487e-6 0 1 -9.15489e-7 0 1 -4.12667e-6 0 1 3.48392e-7 0 1 -9.937e-7 0 1 4.12545e-6 0 0 0.8660477 -0.4999614 0 0.8660492 -0.4999591 0 0.9659227 -0.258831 0 0.4999675 -0.8660442 0 0.2588102 -0.9659283 0 -0.2588325 -0.9659223 0 -0.2588341 -0.9659219 0 -0.4999234 -0.8660697 0 -0.4999261 -0.8660681 0 -0.7071053 -0.7071083 0 -0.8660532 -0.4999518 0 -0.8660519 -0.4999542 0 -0.9659222 -0.2588325 0 -0.9659222 0.2588329 0 -0.8660508 0.4999561 0 -0.8660522 0.4999537 0 -0.7071046 0.707109 0 -0.4999325 0.8660644 0 -0.4999297 0.866066 0 -0.2588341 0.9659219 0 -0.2588325 0.9659223 0 0.2588102 0.9659283 0 0.4999739 0.8660405 0 0.8660466 0.4999632 0 0.866048 0.4999609 0 0.9659226 0.2588314 1 5.62257e-7 0 1 9.15747e-7 0 1 -1.40696e-6 0 1 -1.29495e-6 0 1 4.12558e-6 0 0 0.866001 -0.5000424 0 0.8660025 -0.50004 0 0.9659226 -0.2588314 0 0.4999739 -0.8660405 0 0.2588089 -0.9659286 0 -0.2588312 -0.9659227 0 -0.2588327 -0.9659222 0 -0.4999297 -0.866066 0 -0.4999325 -0.8660644 0 -0.7071046 -0.707109 0 -0.8660065 -0.5000328 0 -0.8660051 -0.5000352 0 -0.9659222 -0.2588329 0 -0.8660062 0.5000333 0 -0.8660075 0.5000309 0 -0.7071974 0.7070162 0 -0.4999261 0.8660681 0 -0.4999234 0.8660697 0 0.4999675 0.8660442 0 0.866002 0.5000405 0 0.8660035 0.5000382 1 2.81126e-7 0 1 -1.16417e-6 0 1 -6.96652e-7 0 1 4.96852e-7 0 1 9.15787e-7 0 1 -1.4072e-6 0 1 -1.24936e-6 0 1 1.39333e-6 0 1 -9.93641e-7 0 1 -1.40696e-6 0 1 4.12125e-6 0 0 0.8660061 -0.5000336 0 0.9659444 -0.2587499 0 0.9659453 -0.2587469 0 0.7071045 -0.707109 0 0.5000665 -0.865987 0 0.5000693 -0.8659855 0 0.2588331 -0.9659221 0 0.2588347 -0.9659217 0 -0.2588108 -0.965928 0 -0.2588101 -0.9659283 0 -0.5001065 -0.8659639 0 -0.5001079 -0.8659631 0 -0.7071062 -0.7071075 0 -0.8660007 -0.5000431 0 -0.8659978 -0.5000479 0 -0.9659206 -0.2588391 0 -0.9659221 -0.2588331 0 -0.9659221 0.2588331 0 -0.9659205 0.258839 0 -0.8659978 0.5000479 0 -0.8660006 0.5000431 0 -0.7071069 0.7071068 0 -0.5001082 0.8659631 0 -0.5001068 0.8659638 0 -0.2586383 0.9659743 0 -0.2586391 0.9659741 0 0.2586629 0.9659677 0 0.2586613 0.9659681 0 0.5000695 0.8659853 0 0.5000668 0.865987 0 0.7071053 0.7071084 0 0.8660061 0.5000336 0 0.9659444 0.2587499 0 0.9659452 0.2587469</float_array>
          <technique_common>
            <accessor source="#Link_6-mesh-normals-array" count="880" stride="3">
              <param name="X" type="float"/>
              <param name="Y" type="float"/>
              <param name="Z" type="float"/>
            </accessor>
          </technique_common>
        </source>
        <vertices id="Link_6-mesh-vertices">
          <input semantic="POSITION" source="#Link_6-mesh-positions"/>
        </vertices>
        <triangles material="colour_abb_white-material" count="1484">
          <input semantic="VERTEX" source="#Link_6-mesh-vertices" offset="0"/>
          <input semantic="NORMAL" source="#Link_6-mesh-normals" offset="1"/>
          <p>0 0 1 0 2 0 2 1 1 1 3 1 2 2 3 2 4 2 4 3 3 3 5 3 4 2 5 2 6 2 6 2 5 2 7 2 6 2 7 2 8 2 8 4 7 4 9 4 8 2 9 2 10 2 10 5 9 5 11 5 10 6 11 6 12 6 12 7 11 7 13 7 12 2 13 2 14 2 14 8 13 8 15 8 14 2 15 2 16 2 16 9 15 9 17 9 16 10 17 10 18 10 18 11 17 11 19 11 18 12 19 12 20 12 20 13 19 13 21 13 20 14 21 14 22 14 22 15 21 15 23 15 22 2 23 2 24 2 24 16 23 16 25 16 24 17 25 17 26 17 26 18 25 18 27 18 26 2 27 2 28 2 28 19 27 19 29 19 28 20 29 20 30 20 30 21 29 21 31 21 30 22 31 22 32 22 32 23 31 23 33 23 32 2 33 2 34 2 34 24 33 24 35 24 1 25 0 25 36 25 36 26 0 26 37 26 36 2 37 2 38 2 38 27 37 27 39 27 38 2 39 2 40 2 40 28 39 28 41 28 40 29 41 29 42 29 42 30 41 30 43 30 42 2 43 2 44 2 44 2 43 2 45 2 44 31 45 31 46 31 46 2 45 2 47 2 46 2 47 2 48 2 48 32 47 32 49 32 48 33 49 33 50 33 50 34 49 34 51 34 50 2 51 2 52 2 52 35 51 35 53 35 52 2 53 2 54 2 54 36 53 36 55 36 54 37 55 37 56 37 56 38 55 38 57 38 56 2 57 2 58 2 58 39 57 39 59 39 58 2 59 2 60 2 60 40 59 40 61 40 60 41 61 41 62 41 62 2 61 2 63 2 62 2 63 2 64 2 64 42 63 42 65 42 66 43 67 43 57 43 57 44 67 44 68 44 57 45 68 45 69 45 57 46 69 46 59 46 59 47 69 47 70 47 59 48 70 48 71 48 71 49 72 49 59 49 59 50 72 50 61 50 61 51 72 51 73 51 61 52 73 52 63 52 63 53 73 53 74 53 63 54 74 54 65 54 65 55 74 55 75 55 65 56 75 56 64 56 64 57 75 57 76 57 64 58 76 58 62 58 62 59 76 59 77 59 62 60 77 60 60 60 60 61 77 61 78 61 60 62 78 62 58 62 58 63 78 63 79 63 58 64 79 64 56 64 56 65 79 65 80 65 56 66 80 66 54 66 54 67 80 67 81 67 54 68 81 68 52 68 52 69 81 69 82 69 52 70 82 70 50 70 50 71 82 71 83 71 50 72 83 72 48 72 48 73 83 73 84 73 48 74 84 74 46 74 46 75 84 75 85 75 46 76 85 76 44 76 44 77 85 77 86 77 44 78 86 78 42 78 42 79 86 79 87 79 42 80 87 80 40 80 40 81 87 81 88 81 40 82 88 82 38 82 38 83 88 83 89 83 38 84 89 84 36 84 36 85 89 85 90 85 36 86 90 86 1 86 1 87 90 87 91 87 1 88 91 88 3 88 3 89 91 89 92 89 3 90 92 90 5 90 5 91 92 91 93 91 5 92 93 92 7 92 7 93 93 93 94 93 7 94 94 94 9 94 9 95 94 95 95 95 9 96 95 96 11 96 11 97 95 97 96 97 11 98 96 98 13 98 13 99 96 99 97 99 13 100 97 100 15 100 15 101 97 101 98 101 15 102 98 102 17 102 17 103 98 103 99 103 17 104 99 104 19 104 19 105 99 105 100 105 19 106 100 106 21 106 21 107 100 107 101 107 21 108 101 108 23 108 23 109 101 109 102 109 23 110 102 110 25 110 25 111 102 111 103 111 25 112 103 112 27 112 27 113 103 113 104 113 27 114 104 114 29 114 29 115 104 115 105 115 29 116 105 116 31 116 31 117 105 117 106 117 31 118 106 118 33 118 33 119 106 119 107 119 33 120 107 120 35 120 35 121 107 121 108 121 35 122 108 122 34 122 34 123 108 123 109 123 34 124 109 124 32 124 32 125 109 125 110 125 32 126 110 126 30 126 30 127 110 127 111 127 30 128 111 128 28 128 28 129 111 129 112 129 28 130 112 130 26 130 26 131 112 131 113 131 26 132 113 132 24 132 24 133 113 133 114 133 24 134 114 134 22 134 22 135 114 135 115 135 22 136 115 136 20 136 20 137 115 137 116 137 20 138 116 138 18 138 18 139 116 139 117 139 18 140 117 140 16 140 16 141 117 141 118 141 16 142 118 142 14 142 14 143 118 143 119 143 14 144 119 144 12 144 12 145 119 145 120 145 12 146 120 146 10 146 10 147 120 147 8 147 8 148 120 148 121 148 8 149 121 149 6 149 6 150 121 150 122 150 6 151 122 151 4 151 4 152 122 152 123 152 4 153 123 153 2 153 2 154 123 154 124 154 2 155 124 155 0 155 0 156 124 156 125 156 0 157 125 157 37 157 37 158 125 158 126 158 37 159 126 159 39 159 39 160 126 160 127 160 39 161 127 161 41 161 41 162 127 162 128 162 41 163 128 163 43 163 43 164 128 164 129 164 43 165 129 165 45 165 45 166 129 166 130 166 45 167 130 167 47 167 47 168 130 168 131 168 47 169 131 169 49 169 49 170 131 170 132 170 49 171 132 171 51 171 51 172 132 172 133 172 51 173 133 173 53 173 53 174 133 174 134 174 53 175 134 175 55 175 55 176 134 176 135 176 55 177 135 177 57 177 57 178 135 178 66 178 136 179 137 179 124 179 124 180 137 180 138 180 124 181 138 181 125 181 125 182 138 182 139 182 125 183 139 183 126 183 126 184 139 184 140 184 126 185 140 185 127 185 127 186 140 186 141 186 127 187 141 187 142 187 127 188 142 188 128 188 128 189 142 189 143 189 128 190 143 190 129 190 129 191 143 191 144 191 129 192 144 192 130 192 130 193 144 193 145 193 130 194 145 194 146 194 130 195 146 195 131 195 131 196 146 196 147 196 131 197 147 197 132 197 132 198 147 198 148 198 132 199 148 199 133 199 133 200 148 200 149 200 133 201 149 201 134 201 134 202 149 202 150 202 134 203 150 203 151 203 134 204 151 204 135 204 135 205 151 205 152 205 135 206 152 206 66 206 66 207 152 207 153 207 153 208 152 208 154 208 153 208 154 208 71 208 71 209 154 209 155 209 71 210 155 210 72 210 72 211 155 211 156 211 72 212 156 212 73 212 73 213 156 213 157 213 73 214 157 214 74 214 74 215 157 215 158 215 74 216 158 216 159 216 74 217 159 217 75 217 75 218 159 218 160 218 75 219 160 219 76 219 76 220 160 220 161 220 76 221 161 221 77 221 77 222 161 222 162 222 77 223 162 223 78 223 78 224 162 224 163 224 78 225 163 225 79 225 79 226 163 226 164 226 79 227 164 227 165 227 79 228 165 228 80 228 80 229 165 229 166 229 80 230 166 230 81 230 81 231 166 231 167 231 81 232 167 232 82 232 82 233 167 233 168 233 82 234 168 234 83 234 83 235 168 235 169 235 83 236 169 236 84 236 84 237 169 237 170 237 84 238 170 238 171 238 84 239 171 239 85 239 85 240 171 240 172 240 85 241 172 241 86 241 86 242 172 242 173 242 86 243 173 243 87 243 87 244 173 244 174 244 87 245 174 245 88 245 88 246 174 246 175 246 88 247 175 247 89 247 89 248 175 248 176 248 89 249 176 249 177 249 89 250 177 250 90 250 90 251 177 251 178 251 90 252 178 252 91 252 91 253 178 253 179 253 91 254 179 254 92 254 92 255 179 255 180 255 92 256 180 256 93 256 93 257 180 257 181 257 93 258 181 258 94 258 94 259 181 259 182 259 94 260 182 260 183 260 94 261 183 261 95 261 95 262 183 262 184 262 95 263 184 263 96 263 96 264 184 264 185 264 96 265 185 265 97 265 97 266 185 266 186 266 97 267 186 267 98 267 98 268 186 268 187 268 98 269 187 269 99 269 99 270 187 270 188 270 99 271 188 271 189 271 99 272 189 272 100 272 100 273 189 273 190 273 100 274 190 274 101 274 101 275 190 275 191 275 101 276 191 276 102 276 102 277 191 277 192 277 102 278 192 278 103 278 103 279 192 279 193 279 103 280 193 280 104 280 104 281 193 281 194 281 104 282 194 282 195 282 104 283 195 283 105 283 105 284 195 284 196 284 105 285 196 285 106 285 106 286 196 286 197 286 106 287 197 287 107 287 107 288 197 288 198 288 107 289 198 289 108 289 108 290 198 290 199 290 108 291 199 291 109 291 109 292 199 292 200 292 109 293 200 293 201 293 109 294 201 294 110 294 110 295 201 295 202 295 110 296 202 296 111 296 111 297 202 297 203 297 111 298 203 298 112 298 112 299 203 299 204 299 112 300 204 300 113 300 113 301 204 301 205 301 113 302 205 302 114 302 114 303 205 303 206 303 114 304 206 304 207 304 114 305 207 305 115 305 115 306 207 306 208 306 115 307 208 307 116 307 116 308 208 308 209 308 116 309 209 309 117 309 117 310 209 310 210 310 117 311 210 311 118 311 118 312 210 312 211 312 118 313 211 313 119 313 119 314 211 314 212 314 119 315 212 315 213 315 119 316 213 316 120 316 120 317 213 317 214 317 120 318 214 318 121 318 121 319 214 319 215 319 121 320 215 320 122 320 122 321 215 321 216 321 122 322 216 322 123 322 123 323 216 323 136 323 123 324 136 324 124 324 217 325 218 325 219 325 219 326 218 326 220 326 219 327 220 327 221 327 221 328 220 328 222 328 221 329 222 329 223 329 223 325 224 325 221 325 221 330 224 330 225 330 221 331 225 331 226 331 226 332 227 332 221 332 221 333 227 333 228 333 221 334 228 334 229 334 229 325 230 325 221 325 221 335 230 335 231 335 221 336 231 336 232 336 221 325 232 325 233 325 233 337 232 337 234 337 233 338 234 338 235 338 235 325 236 325 233 325 233 339 236 339 237 339 233 340 237 340 238 340 238 341 239 341 233 341 233 342 239 342 240 342 233 343 240 343 241 343 241 325 242 325 233 325 233 344 242 344 243 344 233 345 243 345 244 345 244 325 245 325 233 325 233 346 245 346 246 346 233 347 246 347 247 347 233 348 247 348 248 348 248 349 247 349 249 349 248 350 249 350 250 350 250 325 249 325 251 325 250 325 251 325 252 325 252 351 251 351 253 351 252 325 253 325 254 325 254 325 253 325 255 325 254 325 255 325 256 325 256 352 255 352 257 352 256 353 257 353 258 353 258 354 257 354 259 354 258 325 259 325 260 325 260 325 259 325 261 325 260 325 261 325 262 325 262 325 261 325 263 325 264 355 218 355 265 355 265 356 218 356 217 356 265 357 217 357 266 357 266 358 217 358 219 358 266 359 219 359 267 359 267 360 219 360 221 360 267 361 221 361 268 361 268 361 221 361 233 361 268 362 233 362 269 362 269 362 233 362 248 362 269 363 248 363 270 363 270 363 248 363 250 363 270 364 250 364 271 364 271 365 250 365 252 365 271 366 252 366 272 366 272 367 252 367 254 367 272 368 254 368 273 368 273 369 254 369 256 369 273 370 256 370 274 370 274 371 256 371 258 371 274 372 258 372 275 372 275 373 258 373 260 373 275 374 260 374 276 374 276 375 260 375 262 375 276 376 262 376 277 376 277 377 262 377 263 377 277 378 263 378 278 378 278 379 263 379 261 379 278 380 261 380 279 380 279 381 261 381 259 381 279 382 259 382 280 382 280 383 259 383 257 383 280 384 257 384 281 384 281 385 257 385 255 385 281 386 255 386 282 386 282 386 255 386 253 386 282 387 253 387 283 387 283 388 253 388 251 388 283 389 251 389 284 389 284 390 251 390 249 390 284 391 249 391 285 391 285 392 249 392 247 392 285 393 247 393 286 393 286 394 247 394 246 394 286 395 246 395 287 395 287 396 246 396 245 396 287 397 245 397 288 397 288 398 245 398 244 398 288 399 244 399 289 399 289 400 244 400 243 400 289 401 243 401 290 401 290 402 243 402 242 402 290 403 242 403 291 403 291 404 242 404 241 404 291 405 241 405 292 405 292 406 241 406 240 406 292 407 240 407 293 407 293 408 240 408 239 408 293 409 239 409 294 409 294 409 239 409 238 409 294 410 238 410 295 410 295 410 238 410 237 410 295 411 237 411 296 411 296 412 237 412 236 412 296 413 236 413 297 413 297 414 236 414 235 414 297 415 235 415 298 415 298 415 235 415 234 415 298 416 234 416 299 416 299 417 234 417 232 417 299 418 232 418 300 418 300 419 232 419 231 419 300 420 231 420 301 420 301 421 231 421 230 421 301 422 230 422 302 422 302 423 230 423 229 423 302 424 229 424 303 424 303 425 229 425 228 425 303 426 228 426 304 426 304 427 228 427 227 427 304 428 227 428 305 428 305 429 227 429 226 429 305 430 226 430 306 430 306 431 226 431 225 431 306 432 225 432 307 432 307 433 225 433 224 433 307 434 224 434 308 434 308 435 224 435 223 435 308 436 223 436 309 436 309 437 223 437 222 437 309 438 222 438 310 438 310 439 222 439 220 439 310 440 220 440 264 440 264 441 220 441 218 441 136 325 311 325 137 325 137 325 311 325 312 325 137 325 312 325 138 325 138 325 312 325 313 325 138 325 313 325 139 325 139 325 313 325 314 325 139 325 314 325 140 325 140 325 314 325 315 325 140 325 315 325 316 325 311 325 136 325 317 325 317 325 136 325 216 325 317 325 216 325 318 325 318 325 216 325 319 325 319 325 216 325 215 325 319 325 215 325 320 325 320 325 215 325 214 325 320 325 214 325 321 325 321 325 214 325 322 325 322 325 214 325 213 325 322 325 213 325 323 325 323 325 213 325 212 325 323 325 212 325 324 325 324 325 212 325 325 325 325 325 212 325 211 325 325 325 211 325 326 325 326 325 211 325 327 325 327 325 211 325 210 325 327 325 210 325 328 325 328 325 210 325 209 325 328 325 209 325 329 325 329 325 209 325 208 325 329 325 208 325 330 325 330 325 208 325 207 325 330 325 207 325 331 325 331 325 207 325 206 325 331 325 206 325 332 325 332 325 206 325 333 325 333 325 206 325 205 325 333 325 205 325 334 325 334 325 205 325 204 325 334 325 204 325 335 325 335 325 204 325 336 325 336 325 204 325 203 325 336 325 203 325 337 325 337 325 203 325 338 325 338 325 203 325 202 325 338 325 202 325 339 325 339 325 202 325 201 325 339 325 201 325 340 325 340 325 201 325 341 325 341 325 201 325 200 325 341 325 200 325 342 325 342 325 200 325 199 325 342 325 199 325 343 325 343 325 199 325 198 325 343 325 198 325 344 325 344 325 198 325 345 325 345 325 198 325 197 325 345 325 197 325 346 325 346 325 197 325 196 325 346 325 196 325 347 325 347 325 196 325 195 325 347 325 195 325 348 325 348 325 195 325 349 325 349 325 195 325 194 325 349 325 194 325 350 325 350 325 194 325 193 325 350 325 193 325 351 325 351 325 193 325 352 325 352 325 193 325 192 325 352 325 192 325 353 325 353 325 192 325 354 325 354 325 192 325 191 325 354 325 191 325 355 325 355 325 191 325 190 325 355 325 190 325 356 325 356 325 190 325 189 325 356 325 189 325 357 325 357 325 189 325 188 325 357 325 188 325 358 325 358 325 188 325 359 325 359 325 188 325 187 325 359 325 187 325 360 325 360 325 187 325 186 325 360 325 186 325 361 325 361 325 186 325 185 325 361 325 185 325 362 325 362 325 185 325 363 325 363 325 185 325 184 325 363 325 184 325 364 325 364 325 184 325 365 325 365 325 184 325 183 325 365 325 183 325 366 325 366 325 183 325 182 325 366 325 182 325 367 325 367 325 182 325 368 325 368 325 182 325 181 325 368 325 181 325 369 325 369 325 181 325 180 325 369 325 180 325 370 325 370 325 180 325 179 325 370 325 179 325 371 325 371 325 179 325 372 325 371 325 372 325 373 325 179 325 178 325 372 325 372 325 178 325 374 325 374 325 178 325 177 325 374 325 177 325 375 325 375 325 177 325 176 325 375 325 176 325 376 325 376 325 176 325 175 325 376 325 175 325 377 325 377 325 175 325 378 325 378 325 175 325 174 325 378 325 174 325 379 325 379 325 174 325 380 325 380 325 174 325 173 325 380 325 173 325 381 325 381 325 173 325 382 325 382 325 173 325 172 325 382 325 172 325 383 325 383 325 172 325 171 325 383 325 171 325 384 325 384 325 171 325 170 325 384 325 170 325 385 325 385 325 170 325 386 325 386 325 170 325 169 325 386 325 169 325 387 325 387 325 169 325 168 325 387 325 168 325 388 325 388 325 168 325 167 325 388 325 167 325 389 325 389 325 167 325 166 325 389 325 166 325 390 325 390 325 166 325 391 325 391 325 166 325 165 325 391 325 165 325 392 325 392 325 165 325 164 325 392 325 164 325 393 325 393 325 164 325 394 325 394 325 164 325 163 325 394 325 163 325 395 325 395 325 163 325 396 325 396 325 163 325 162 325 396 325 162 325 397 325 397 325 162 325 161 325 397 325 161 325 398 325 398 325 161 325 399 325 399 325 161 325 160 325 399 325 160 325 400 325 400 325 160 325 159 325 400 325 159 325 401 325 401 325 159 325 158 325 401 325 158 325 402 325 402 325 158 325 157 325 402 325 157 325 403 325 403 325 157 325 156 325 403 325 156 325 404 325 404 325 156 325 405 325 405 325 156 325 155 325 405 325 155 325 406 325 406 325 155 325 407 325 407 325 155 325 154 325 407 325 154 325 408 325 408 325 154 325 152 325 408 325 152 325 409 325 409 325 152 325 410 325 410 325 152 325 151 325 410 325 151 325 411 325 411 325 151 325 150 325 411 325 150 325 412 325 412 325 150 325 149 325 412 325 149 325 413 325 413 325 149 325 148 325 413 325 148 325 414 325 414 325 148 325 415 325 414 325 415 325 416 325 148 325 147 325 415 325 415 325 147 325 417 325 417 325 147 325 146 325 417 325 146 325 418 325 418 325 146 325 145 325 418 325 145 325 419 325 419 325 145 325 144 325 419 325 144 325 420 325 420 325 144 325 421 325 421 325 144 325 143 325 421 325 143 325 422 325 422 325 143 325 142 325 422 325 142 325 423 325 423 325 142 325 424 325 424 325 142 325 141 325 424 325 141 325 316 325 316 325 141 325 140 325 400 325 401 325 425 325 425 325 401 325 426 325 425 325 426 325 427 325 427 325 426 325 428 325 427 325 428 325 429 325 429 325 428 325 430 325 429 325 430 325 431 325 431 325 430 325 432 325 431 325 432 325 433 325 431 325 433 325 434 325 434 325 433 325 435 325 434 325 435 325 436 325 436 325 435 325 437 325 436 325 437 325 438 325 436 325 438 325 439 325 439 325 438 325 440 325 439 325 440 325 441 325 441 325 440 325 442 325 441 325 442 325 416 325 416 325 442 325 414 325 443 325 444 325 445 325 445 325 444 325 446 325 445 325 446 325 447 325 447 325 446 325 448 325 447 325 448 325 449 325 449 325 448 325 450 325 449 325 450 325 451 325 451 325 450 325 387 325 387 325 450 325 386 325 452 325 453 325 373 325 373 325 453 325 454 325 373 325 454 325 371 325 453 325 452 325 455 325 455 325 452 325 456 325 455 325 456 325 457 325 457 325 456 325 458 325 457 325 458 325 459 325 457 325 459 325 460 325 460 325 459 325 443 325 460 325 443 325 445 325 461 325 462 325 463 325 463 325 462 325 464 325 463 325 464 325 465 325 465 325 464 325 466 325 465 325 466 325 467 325 467 325 466 325 468 325 467 325 468 325 469 325 467 325 469 325 470 325 470 325 469 325 471 325 470 325 471 325 453 325 453 325 471 325 454 325 358 325 472 325 357 325 357 325 472 325 473 325 473 325 472 325 474 325 473 325 474 325 475 325 475 325 474 325 476 325 475 325 476 325 477 325 477 325 476 325 478 325 477 325 478 325 479 325 479 325 478 325 480 325 480 325 478 325 481 325 480 325 481 325 482 325 482 325 481 325 483 325 482 325 483 325 484 325 484 325 483 325 485 325 485 325 483 325 486 325 485 325 486 325 487 325 487 325 486 325 488 325 487 325 488 325 489 325 489 325 488 325 490 325 489 325 490 325 344 325 344 325 490 325 343 325 472 325 491 325 474 325 474 325 491 325 492 325 492 325 491 325 461 325 492 325 461 325 463 325 451 325 493 325 449 325 449 325 493 325 494 325 494 325 493 325 495 325 494 325 495 325 496 325 496 325 495 325 497 325 496 325 497 325 498 325 496 325 498 325 499 325 499 325 498 325 500 325 499 325 500 325 501 325 501 325 500 325 502 325 501 325 502 325 503 325 501 325 503 325 504 325 504 325 503 325 505 325 504 325 505 325 427 325 427 325 505 325 425 325 329 325 330 325 506 325 506 325 330 325 507 325 506 325 507 325 508 325 508 325 507 325 509 325 508 325 509 325 510 325 510 325 509 325 511 325 510 325 511 325 512 325 512 325 511 325 513 325 512 325 513 325 514 325 512 325 514 325 515 325 515 325 514 325 516 325 515 325 516 325 517 325 517 325 516 325 518 325 517 325 518 325 519 325 517 325 519 325 520 325 520 325 519 325 521 325 520 325 521 325 488 325 488 325 521 325 490 325 311 325 522 325 312 325 312 325 522 325 523 325 523 325 522 325 524 325 523 325 524 325 525 325 525 325 524 325 526 325 525 325 526 325 527 325 527 325 526 325 528 325 527 325 528 325 529 325 529 325 528 325 530 325 530 325 528 325 531 325 530 325 531 325 532 325 532 325 531 325 533 325 532 325 533 325 534 325 534 325 533 325 535 325 535 325 533 325 536 325 535 325 536 325 537 325 537 325 536 325 441 325 537 325 441 325 416 325 522 325 538 325 524 325 524 325 538 325 539 325 539 325 538 325 540 325 539 325 540 325 541 325 541 325 540 325 542 325 541 325 542 325 543 325 541 325 543 325 544 325 544 325 543 325 545 325 544 325 545 325 546 325 546 325 545 325 547 325 546 325 547 325 548 325 546 325 548 325 549 325 549 325 548 325 550 325 549 325 550 325 508 325 508 325 550 325 506 325 551 325 552 325 553 325 553 442 552 442 554 442 553 325 554 325 555 325 555 443 554 443 556 443 555 325 556 325 557 325 557 444 556 444 558 444 557 325 558 325 559 325 559 445 558 445 560 445 559 325 560 325 561 325 561 325 560 325 562 325 561 325 562 325 563 325 563 325 562 325 564 325 563 325 564 325 565 325 552 325 551 325 566 325 566 446 551 446 567 446 566 325 567 325 568 325 568 447 567 447 569 447 568 448 569 448 570 448 570 325 569 325 571 325 570 325 571 325 572 325 572 449 571 449 573 449 572 450 573 450 574 450 555 451 411 451 553 451 553 452 411 452 412 452 553 453 412 453 551 453 551 454 412 454 413 454 551 455 413 455 414 455 555 456 557 456 411 456 411 457 557 457 410 457 410 458 557 458 559 458 410 459 559 459 409 459 409 460 559 460 561 460 409 461 561 461 408 461 408 462 561 462 563 462 408 462 563 462 407 462 407 463 563 463 565 463 407 464 565 464 406 464 406 465 565 465 564 465 406 466 564 466 405 466 405 467 564 467 562 467 405 468 562 468 404 468 404 469 562 469 560 469 404 470 560 470 403 470 403 471 560 471 558 471 403 472 558 472 402 472 402 473 558 473 556 473 402 473 556 473 401 473 401 474 556 474 554 474 401 475 554 475 426 475 426 476 554 476 552 476 426 477 552 477 428 477 428 478 552 478 566 478 428 479 566 479 430 479 430 480 566 480 568 480 430 481 568 481 432 481 432 482 568 482 570 482 432 483 570 483 433 483 433 208 570 208 572 208 433 208 572 208 435 208 435 484 572 484 574 484 435 485 574 485 437 485 437 486 574 486 573 486 437 487 573 487 438 487 438 488 573 488 571 488 438 489 571 489 440 489 440 490 571 490 569 490 440 491 569 491 442 491 442 492 569 492 567 492 442 493 567 493 414 493 414 455 567 455 551 455 70 494 575 494 71 494 71 495 575 495 153 495 67 496 66 496 575 496 575 497 66 497 153 497 70 498 69 498 575 498 575 499 69 499 68 499 575 500 68 500 67 500 266 501 526 501 265 501 265 502 526 502 524 502 265 503 524 503 539 503 526 504 266 504 528 504 528 505 266 505 267 505 528 506 267 506 531 506 531 507 267 507 268 507 531 508 268 508 533 508 533 509 268 509 269 509 533 510 269 510 536 510 536 511 269 511 270 511 536 512 270 512 441 512 441 513 270 513 271 513 441 514 271 514 439 514 439 515 271 515 272 515 439 516 272 516 436 516 436 517 272 517 273 517 436 518 273 518 434 518 434 519 273 519 274 519 434 520 274 520 431 520 431 521 274 521 275 521 431 522 275 522 429 522 429 523 275 523 276 523 429 524 276 524 427 524 427 525 276 525 277 525 427 526 277 526 504 526 504 527 277 527 278 527 504 528 278 528 501 528 501 529 278 529 279 529 501 530 279 530 499 530 499 531 279 531 280 531 499 532 280 532 496 532 496 533 280 533 281 533 496 534 281 534 494 534 494 535 281 535 282 535 494 536 282 536 449 536 449 537 282 537 283 537 449 538 283 538 447 538 447 539 283 539 284 539 447 540 284 540 445 540 445 541 284 541 285 541 445 542 285 542 460 542 460 543 285 543 286 543 460 544 286 544 457 544 457 545 286 545 287 545 457 546 287 546 455 546 455 547 287 547 288 547 455 548 288 548 453 548 453 549 288 549 289 549 453 550 289 550 470 550 470 551 289 551 290 551 470 552 290 552 467 552 467 553 290 553 291 553 467 554 291 554 465 554 465 555 291 555 292 555 465 556 292 556 463 556 463 557 292 557 293 557 463 558 293 558 492 558 492 559 293 559 294 559 492 560 294 560 474 560 474 561 294 561 295 561 474 562 295 562 476 562 476 563 295 563 296 563 476 564 296 564 478 564 478 565 296 565 297 565 478 566 297 566 481 566 481 567 297 567 298 567 481 568 298 568 483 568 483 569 298 569 299 569 483 570 299 570 486 570 486 571 299 571 300 571 486 572 300 572 488 572 488 573 300 573 301 573 488 574 301 574 520 574 520 575 301 575 302 575 520 576 302 576 517 576 517 577 302 577 303 577 517 578 303 578 515 578 515 579 303 579 304 579 515 580 304 580 512 580 512 581 304 581 305 581 512 582 305 582 510 582 510 583 305 583 306 583 510 584 306 584 508 584 508 585 306 585 307 585 508 586 307 586 549 586 549 587 307 587 308 587 549 588 308 588 546 588 546 589 308 589 309 589 546 590 309 590 544 590 544 591 309 591 310 591 544 592 310 592 541 592 541 593 310 593 264 593 541 594 264 594 539 594 539 595 264 595 265 595 576 596 577 596 578 596 578 597 577 597 579 597 578 325 579 325 580 325 580 598 579 598 581 598 580 325 581 325 582 325 582 599 581 599 583 599 582 325 583 325 584 325 584 325 583 325 585 325 584 600 585 600 586 600 586 601 585 601 587 601 586 325 587 325 588 325 588 602 587 602 589 602 588 603 589 603 590 603 577 325 576 325 591 325 591 604 576 604 592 604 591 325 592 325 593 325 593 605 592 605 594 605 593 325 594 325 595 325 595 325 594 325 596 325 595 325 596 325 597 325 597 325 596 325 598 325 597 606 598 606 599 606 580 607 423 607 578 607 578 608 423 608 424 608 578 609 424 609 576 609 576 610 424 610 316 610 576 455 316 455 315 455 580 611 582 611 423 611 423 612 582 612 422 612 422 613 582 613 584 613 422 614 584 614 421 614 421 615 584 615 586 615 421 616 586 616 420 616 420 462 586 462 588 462 420 462 588 462 419 462 419 617 588 617 590 617 419 617 590 617 418 617 418 618 590 618 589 618 418 618 589 618 417 618 417 619 589 619 587 619 417 619 587 619 415 619 415 620 587 620 585 620 415 621 585 621 416 621 416 622 585 622 583 622 416 623 583 623 537 623 537 473 583 473 581 473 537 473 581 473 535 473 535 624 581 624 579 624 535 625 579 625 534 625 534 626 579 626 577 626 534 627 577 627 532 627 532 628 577 628 591 628 532 628 591 628 530 628 530 629 591 629 593 629 530 629 593 629 529 629 529 630 593 630 595 630 529 630 595 630 527 630 527 208 595 208 597 208 527 208 597 208 525 208 525 631 597 631 599 631 525 632 599 632 523 632 523 633 599 633 598 633 523 634 598 634 312 634 312 635 598 635 596 635 312 636 596 636 313 636 313 637 596 637 594 637 313 638 594 638 314 638 314 639 594 639 592 639 314 640 592 640 315 640 315 455 592 455 576 455 600 325 601 325 602 325 602 641 601 641 603 641 602 325 603 325 604 325 604 642 603 642 605 642 604 325 605 325 606 325 606 643 605 643 607 643 606 325 607 325 608 325 608 644 607 644 609 644 608 325 609 325 610 325 610 645 609 645 611 645 610 325 611 325 612 325 612 646 611 646 613 646 612 325 613 325 614 325 601 647 600 647 615 647 615 648 600 648 616 648 615 325 616 325 617 325 617 649 616 649 618 649 617 325 618 325 619 325 619 325 618 325 620 325 619 325 620 325 621 325 621 650 620 650 622 650 621 651 622 651 623 651 604 652 320 652 602 652 602 653 320 653 321 653 602 654 321 654 600 654 600 655 321 655 322 655 600 455 322 455 323 455 604 656 606 656 320 656 320 657 606 657 319 657 319 658 606 658 608 658 319 659 608 659 318 659 318 660 608 660 610 660 318 661 610 661 317 661 317 462 610 462 612 462 317 462 612 462 311 462 311 662 612 662 614 662 311 663 614 663 522 663 522 664 614 664 613 664 522 665 613 665 538 665 538 666 613 666 611 666 538 667 611 667 540 667 540 668 611 668 609 668 540 668 609 668 542 668 542 669 609 669 607 669 542 670 607 670 543 670 543 473 607 473 605 473 543 473 605 473 545 473 545 671 605 671 603 671 545 672 603 672 547 672 547 673 603 673 601 673 547 673 601 673 548 673 548 674 601 674 615 674 548 675 615 675 550 675 550 676 615 676 617 676 550 677 617 677 506 677 506 678 617 678 619 678 506 679 619 679 329 679 329 208 619 208 621 208 329 208 621 208 328 208 328 680 621 680 623 680 328 681 623 681 327 681 327 682 623 682 622 682 327 683 622 683 326 683 326 684 622 684 620 684 326 685 620 685 325 685 325 686 620 686 618 686 325 687 618 687 324 687 324 688 618 688 616 688 324 689 616 689 323 689 323 455 616 455 600 455 624 690 625 690 626 690 626 691 625 691 627 691 626 325 627 325 628 325 628 692 627 692 629 692 628 325 629 325 630 325 630 693 629 693 631 693 630 325 631 325 632 325 632 325 631 325 633 325 632 325 633 325 634 325 634 694 633 694 635 694 634 325 635 325 636 325 636 695 635 695 637 695 636 325 637 325 638 325 625 325 624 325 639 325 639 325 624 325 640 325 639 325 640 325 641 325 641 325 640 325 642 325 641 696 642 696 643 696 643 325 642 325 644 325 643 325 644 325 645 325 645 697 644 697 646 697 645 698 646 698 647 698 628 699 331 699 626 699 626 700 331 700 332 700 626 701 332 701 624 701 624 702 332 702 333 702 624 455 333 455 334 455 628 703 630 703 331 703 331 704 630 704 330 704 330 705 630 705 632 705 330 706 632 706 507 706 507 707 632 707 634 707 507 708 634 708 509 708 509 462 634 462 636 462 509 462 636 462 511 462 511 709 636 709 638 709 511 709 638 709 513 709 513 710 638 710 637 710 513 710 637 710 514 710 514 711 637 711 635 711 514 711 635 711 516 711 516 712 635 712 633 712 516 713 633 713 518 713 518 714 633 714 631 714 518 715 631 715 519 715 519 473 631 473 629 473 519 473 629 473 521 473 521 624 629 624 627 624 521 625 627 625 490 625 490 716 627 716 625 716 490 717 625 717 343 717 343 718 625 718 639 718 343 718 639 718 342 718 342 719 639 719 641 719 342 719 641 719 341 719 341 630 641 630 643 630 341 630 643 630 340 630 340 208 643 208 645 208 340 208 645 208 339 208 339 631 645 631 647 631 339 632 647 632 338 632 338 720 647 720 646 720 338 721 646 721 337 721 337 722 646 722 644 722 337 723 644 723 336 723 336 724 644 724 642 724 336 725 642 725 335 725 335 639 642 639 640 639 335 640 640 640 334 640 334 455 640 455 624 455 648 325 649 325 650 325 650 726 649 726 651 726 650 727 651 727 652 727 652 728 651 728 653 728 652 325 653 325 654 325 654 729 653 729 655 729 654 325 655 325 656 325 656 730 655 730 657 730 656 325 657 325 658 325 658 325 657 325 659 325 658 325 659 325 660 325 660 731 659 731 661 731 660 732 661 732 662 732 649 325 648 325 663 325 663 733 648 733 664 733 663 325 664 325 665 325 665 734 664 734 666 734 665 735 666 735 667 735 667 736 666 736 668 736 667 325 668 325 669 325 669 325 668 325 670 325 669 737 670 737 671 737 652 738 487 738 650 738 650 738 487 738 489 738 650 739 489 739 648 739 648 740 489 740 344 740 648 455 344 455 345 455 652 741 654 741 487 741 487 742 654 742 485 742 485 743 654 743 656 743 485 744 656 744 484 744 484 745 656 745 658 745 484 746 658 746 482 746 482 462 658 462 660 462 482 462 660 462 480 462 480 747 660 747 662 747 480 748 662 748 479 748 479 749 662 749 661 749 479 750 661 750 477 750 477 751 661 751 659 751 477 752 659 752 475 752 475 753 659 753 657 753 475 753 657 753 473 753 473 754 657 754 655 754 473 755 655 755 357 755 357 473 655 473 653 473 357 473 653 473 356 473 356 756 653 756 651 756 356 757 651 757 355 757 355 758 651 758 649 758 355 758 649 758 354 758 354 759 649 759 663 759 354 760 663 760 353 760 353 761 663 761 665 761 353 762 665 762 352 762 352 763 665 763 667 763 352 764 667 764 351 764 351 208 667 208 669 208 351 208 669 208 350 208 350 765 669 765 671 765 350 766 671 766 349 766 349 767 671 767 670 767 349 768 670 768 348 768 348 769 670 769 668 769 348 770 668 770 347 770 347 771 668 771 666 771 347 771 666 771 346 771 346 772 666 772 664 772 346 773 664 773 345 773 345 455 664 455 648 455 672 596 673 596 674 596 674 774 673 774 675 774 674 325 675 325 676 325 676 775 675 775 677 775 676 325 677 325 678 325 678 776 677 776 679 776 678 325 679 325 680 325 680 325 679 325 681 325 680 777 681 777 682 777 682 778 681 778 683 778 682 325 683 325 684 325 684 602 683 602 685 602 684 779 685 779 686 779 673 325 672 325 687 325 687 780 672 780 688 780 687 325 688 325 689 325 689 781 688 781 690 781 689 325 690 325 691 325 691 325 690 325 692 325 691 325 692 325 693 325 693 325 692 325 694 325 693 782 694 782 695 782 676 783 400 783 674 783 674 784 400 784 425 784 674 610 425 610 672 610 672 785 425 785 505 785 672 455 505 455 503 455 676 611 678 611 400 611 400 611 678 611 399 611 399 786 678 786 680 786 399 786 680 786 398 786 398 787 680 787 682 787 398 787 682 787 397 787 397 462 682 462 684 462 397 462 684 462 396 462 396 788 684 788 686 788 396 789 686 789 395 789 395 790 686 790 685 790 395 791 685 791 394 791 394 792 685 792 683 792 394 619 683 619 393 619 393 793 683 793 681 793 393 794 681 794 392 794 392 795 681 795 679 795 392 622 679 622 391 622 391 473 679 473 677 473 391 473 677 473 390 473 390 625 677 625 675 625 390 796 675 796 389 796 389 797 675 797 673 797 389 798 673 798 388 798 388 628 673 628 687 628 388 799 687 799 387 799 387 800 687 800 689 800 387 801 689 801 451 801 451 802 689 802 691 802 451 803 691 803 493 803 493 208 691 208 693 208 493 208 693 208 495 208 495 804 693 804 695 804 495 804 695 804 497 804 497 805 695 805 694 805 497 805 694 805 498 805 498 636 694 636 692 636 498 636 692 636 500 636 500 806 692 806 690 806 500 807 690 807 502 807 502 640 690 640 688 640 502 808 688 808 503 808 503 455 688 455 672 455 696 690 697 690 698 690 698 809 697 809 699 809 698 325 699 325 700 325 700 692 699 692 701 692 700 325 701 325 702 325 702 693 701 693 703 693 702 325 703 325 704 325 704 325 703 325 705 325 704 325 705 325 706 325 706 810 705 810 707 810 706 325 707 325 708 325 708 811 707 811 709 811 708 325 709 325 710 325 697 325 696 325 711 325 711 325 696 325 712 325 711 325 712 325 713 325 713 325 712 325 714 325 713 812 714 812 715 812 715 325 714 325 716 325 715 325 716 325 717 325 717 697 716 697 718 697 717 813 718 813 719 813 700 814 464 814 698 814 698 815 464 815 462 815 698 702 462 702 696 702 696 816 462 816 461 816 696 455 461 455 491 455 700 703 702 703 464 703 464 703 702 703 466 703 466 817 702 817 704 817 466 817 704 817 468 817 468 818 704 818 706 818 468 818 706 818 469 818 469 462 706 462 708 462 469 462 708 462 471 462 471 819 708 819 710 819 471 820 710 820 454 820 454 821 710 821 709 821 454 822 709 822 371 822 371 823 709 823 707 823 371 711 707 711 370 711 370 824 707 824 705 824 370 825 705 825 369 825 369 826 705 826 703 826 369 714 703 714 368 714 368 473 703 473 701 473 368 473 701 473 367 473 367 625 701 625 699 625 367 796 699 796 366 796 366 827 699 827 697 827 366 828 697 828 365 828 365 718 697 718 711 718 365 829 711 829 364 829 364 830 711 830 713 830 364 831 713 831 363 831 363 802 713 802 715 802 363 803 715 803 362 803 362 208 715 208 717 208 362 208 717 208 361 208 361 804 717 804 719 804 361 804 719 804 360 804 360 832 719 832 718 832 360 832 718 832 359 832 359 723 718 723 716 723 359 723 716 723 358 723 358 833 716 833 714 833 358 834 714 834 472 834 472 640 714 640 712 640 472 808 712 808 491 808 491 455 712 455 696 455 720 325 721 325 722 325 722 835 721 835 723 835 722 325 723 325 724 325 724 836 723 836 725 836 724 325 725 325 726 325 726 837 725 837 727 837 726 325 727 325 728 325 728 838 727 838 729 838 728 325 729 325 730 325 730 839 729 839 731 839 730 325 731 325 732 325 732 840 731 840 733 840 732 325 733 325 734 325 721 841 720 841 735 841 735 842 720 842 736 842 735 325 736 325 737 325 737 843 736 843 738 843 737 325 738 325 739 325 739 325 738 325 740 325 739 325 740 325 741 325 741 844 740 844 742 844 741 845 742 845 743 845 724 846 446 846 722 846 722 846 446 846 444 846 722 847 444 847 720 847 720 848 444 848 443 848 720 455 443 455 459 455 724 849 726 849 446 849 446 657 726 657 448 657 448 850 726 850 728 850 448 851 728 851 450 851 450 852 728 852 730 852 450 853 730 853 386 853 386 462 730 462 732 462 386 462 732 462 385 462 385 854 732 854 734 854 385 855 734 855 384 855 384 856 734 856 733 856 384 857 733 857 383 857 383 666 733 666 731 666 383 858 731 858 382 858 382 859 731 859 729 859 382 860 729 860 381 860 381 861 729 861 727 861 381 862 727 862 380 862 380 473 727 473 725 473 380 473 725 473 379 473 379 863 725 863 723 863 379 864 723 864 378 864 378 865 723 865 721 865 378 866 721 866 377 866 377 867 721 867 735 867 377 675 735 675 376 675 376 868 735 868 737 868 376 869 737 869 375 869 375 870 737 870 739 870 375 871 739 871 374 871 374 208 739 208 741 208 374 208 741 208 372 208 372 872 741 872 743 872 372 873 743 873 373 873 373 874 743 874 742 874 373 875 742 875 452 875 452 684 742 684 740 684 452 876 740 876 456 876 456 877 740 877 738 877 456 877 738 877 458 877 458 878 738 878 736 878 458 879 736 879 459 879 459 455 736 455 720 455</p>
        </triangles>
      </mesh>
    </geometry>
  </library_geometries>
  <library_visual_scenes>
    <visual_scene id="Scene" name="Scene">
      <node id="Link_6" name="Link 6" type="NODE">
        <matrix sid="transform">1 0 0 0 0 1 0 0 0 0 1 0 0 0 0 1</matrix>
        <instance_geometry url="#Link_6-mesh" name="Link 6">
          <bind_material>
            <technique_common>
              <instance_material symbol="colour_abb_white-material" target="#colour_abb_white-material"/>
            </technique_common>
          </bind_material>
        </instance_geometry>
      </node>
      <node id="Camera" name="Camera" type="NODE">
        <matrix sid="transform">0.6858805 -0.3173701 0.6548619 7.481132 0.7276338 0.3124686 -0.6106656 -6.50764 -0.01081675 0.8953432 0.4452454 5.343665 0 0 0 1</matrix>
        <instance_camera url="#Camera-camera"/>
      </node>
      <node id="Lamp" name="Lamp" type="NODE">
        <matrix sid="transform">-0.2908646 -0.7711008 0.5663933 4.076245 0.9551712 -0.1998833 0.2183912 1.005454 -0.05518904 0.6045247 0.7946723 5.903862 0 0 0 1</matrix>
        <instance_light url="#Lamp-light"/>
      </node>
    </visual_scene>
  </library_visual_scenes>
  <scene>
    <instance_visual_scene url="#Scene"/>
  </scene>
</COLLADA>