<?xml version="1.0" encoding="utf-8"?>
<COLLADA xmlns="http://www.collada.org/2005/11/COLLADASchema" version="1.4.1" xmlns:xsi="http://www.w3.org/2001/XMLSchema-instance">
  <asset>
    <contributor>
      <author>Blender User</author>
      <authoring_tool>Blender 2.82.7</authoring_tool>
    </contributor>
    <created>2024-02-04T16:08:57</created>
    <modified>2024-02-04T16:08:57</modified>
    <unit name="meter" meter="1"/>
    <up_axis>Z_UP</up_axis>
  </asset>
  <library_effects>
    <effect id="Material_005-effect">
      <profile_COMMON>
        <technique sid="common">
          <lambert>
            <emission>
              <color sid="emission">0 0 0 1</color>
            </emission>
            <diffuse>
              <color sid="diffuse">0.0118336 0.0118336 0.0118336 1</color>
            </diffuse>
            <index_of_refraction>
              <float sid="ior">1.45</float>
            </index_of_refraction>
          </lambert>
        </technique>
      </profile_COMMON>
    </effect>
  </library_effects>
  <library_images/>
  <library_materials>
    <material id="Material_005-material" name="Material.005">
      <instance_effect url="#Material_005-effect"/>
    </material>
  </library_materials>
  <library_geometries>
    <geometry id="Link6_002-mesh" name="Link6.002">
      <mesh>
        <source id="Link6_002-mesh-positions">
          <float_array id="Link6_002-mesh-positions-array" count="1665">0.08443146 0.01328217 -0.02950155 0.0889315 0.01054769 -0.03105413 0.08443146 0.002788543 -0.03220832 0.08443146 0.02107179 -0.02461332 0.0889315 0.02390885 -0.02217608 0.08443146 0.02699786 -0.01794201 0.08443146 0.03087973 -0.009908139 0.0889315 0.03107666 -0.01092797 0.08443146 0.03242349 -0.001120924 0.0889315 0.03257477 0.002325356 0.08443146 0.03151249 0.007753312 0.08443146 0.0282163 0.01604205 0.0889315 0.02742564 0.01807802 0.08443146 0.0227853 0.02311682 0.0889315 0.02077633 0.0256204 0.08443146 0.01563161 0.02844178 0.0889315 0.009905636 0.03131866 0.08443146 0.007298111 0.03161364 0.08443146 -0.001583278 0.03239262 0.0889315 -0.003915846 0.03252714 0.08443146 -0.009937167 0.03084611 0.0889315 -0.01695144 0.02789241 0.0889315 8.78721e-5 -0.03287291 0.08443146 -0.006110608 -0.03173059 0.0889315 -0.009829938 -0.03121846 0.08443146 -0.01454085 -0.02884471 0.0889315 -0.02070063 -0.0255202 0.08443146 -0.02186316 -0.02377009 0.08892476 -0.0278877 -0.01784104 0.08443146 -0.03096747 -0.01102226 0.0889315 -0.03249913 -0.00222516 0.08443146 -0.03280502 -0.002246558 0.08443146 -0.03220671 0.006699442 0.0889315 -0.02894455 0.01501172 0.08443146 -0.029217 0.01515239 0.08443146 -0.02405762 0.02248525 0.08443146 -0.01711118 0.02815413 0.08029747 0.008843243 -0.0306819 0.08443146 -0.02821552 -0.01480793 0.08443146 -0.0312165 -0.006444692 0.08443146 -0.03179597 0.002421736 0.08443146 -0.02990907 0.01110446 0.08443146 -0.02570194 0.01893073 0.08443146 -0.01950061 0.02529418 0.0889315 -0.04104822 -0.01975792 0.0889315 -0.04563248 -0.003204941 0.0889315 -0.00337398 -0.04574507 0.0889315 -0.01506233 -0.04317438 0.0889315 -0.02893537 -0.03540301 0.0889315 0.03544831 0.02879929 0.0889315 0.04458445 0.009849131 0.0889315 0.04424393 -0.01118564 0.0889315 0.03799176 -0.02580225 0.0889315 0.003426551 0.04553568 0.0889315 0.02005398 0.0412293 0.0889315 -0.04446923 0.01136231 0.0889315 -0.03853553 0.02471727 0.0889315 0.02667945 -0.0369721 0.0889315 0.01053571 -0.0445612 0.0889315 -0.03093105 0.03395837 0.0889315 -0.01767218 0.04213708 0.07616347 -0.02986073 -0.01068252 0.07616347 -0.02519088 -0.01947641 0.07616347 -0.01596695 -0.02739 0.07616347 -0.006736993 -0.03112477 0.07616347 0.002118349 -0.03178459 0.07616347 0.01794034 -0.02625143 0.07616347 0.02690267 -0.01690256 0.07616347 0.03095734 -0.007808566 0.07616347 0.03192573 0.001018345 0.07616347 0.0291149 0.01284223 0.07616347 0.02384299 0.02128893 0.07616347 0.01706653 0.02702784 0.07616347 0.007074594 0.03112834 0.07616347 -0.004789888 0.03145259 0.07616347 -0.01481115 0.02828627 0.07616347 -0.02219176 0.02288031 0.07616347 -0.02976459 0.01104682 0.07616347 -0.0318399 0.00130856 0.07743149 -0.004936933 -0.06016868 0.08043146 -0.0109561 -0.05944257 0.07840019 -0.004693388 -0.05874562 0.07743149 0.04799801 0.03680431 0.07905644 0.04008507 0.04326081 0.07743149 0.03971189 0.04562437 0.07743149 0.01897692 -0.05732899 0.07768148 0.02152675 -0.05503571 0.07743149 0.03003126 -0.05240404 0.07905644 0.03520792 -0.04718369 0.07743149 0.05436027 0.02650988 0.0791189 0.05174082 0.02824097 0.07768148 0.0564869 0.01722115 0.0791189 0.01476049 -0.05696731 0.07743149 0.007162868 -0.05995225 0.07743149 0.03988248 -0.0453751 0.07768148 0.04168319 -0.04188317 0.07940018 0.02748781 0.05214494 0.07743149 0.02844679 0.05322831 0.0811814 0.01860004 0.05684357 0.07743149 0.0585435 0.01515406 0.07743149 0.0602222 0.006221413 0.07743149 0.0603913 -0.002866029 0.07780647 0.05900108 0.003044843 0.08043146 0.04629957 -0.03893834 0.07768148 0.05698543 -0.01488941 0.07743149 0.05859977 -0.0148344 0.07768148 0.05019825 -0.0313068 0.07743149 0.05155622 -0.03152358 0.07743149 0.05577707 -0.02347403 0.07743149 4.68634e-4 0.06033951 0.08193141 0.009533584 0.05978095 0.07980644 0.00594896 0.05787861 0.07743149 -0.02455204 0.05524414 0.07780647 -0.03493648 0.04735016 0.07743149 -0.03505766 0.04923701 0.07743149 -0.05136185 -0.03171658 0.07905638 -0.04179638 -0.04131144 0.07743149 -0.04607737 -0.03911155 0.07743149 -0.03963625 -0.04552417 0.07911896 -0.01931661 0.0556811 0.07905638 -0.05268007 -0.02650719 0.0783689 -0.02674925 -0.05226695 0.07743149 -0.01306009 0.05903732 0.07768142 -0.05777466 -0.01100832 0.07743149 -0.05666124 -0.02083677 0.07905644 -0.004011392 0.05883097 0.07743149 -0.02837115 -0.05312812 0.0811814 -0.0185244 -0.05674338 0.07743149 -0.05922603 -0.01211708 0.07743149 -0.04415547 0.0412569 0.07768148 -0.0456326 0.03746694 0.07743149 -0.06030428 -0.003092229 0.07768148 -0.05823636 0.009188354 0.07743149 -0.05972027 0.008995354 0.07743149 -0.05148059 0.03162378 0.07743149 -0.05673915 0.02072423 0.07780647 -0.05329972 0.02519023 0.08643144 -0.04562467 -0.003450214 0.08643144 -0.04499995 0.009174585 0.08643144 -0.04216861 0.01807057 0.08643144 -0.03704941 0.02709758 0.08643144 -0.0270698 0.03687733 0.08643144 -0.01487296 0.04350173 0.08643144 -0.002826571 0.04575592 0.08643144 0.008812844 0.04513007 0.08643144 0.01983761 0.04134517 0.08643144 0.03045874 0.03449171 0.08643144 0.03674727 0.02759164 0.08643144 0.04200524 0.01864486 0.08643144 0.04556775 0.004869282 0.08643144 0.04544603 -0.006784081 0.08643144 0.04275363 -0.01681184 0.08643144 0.03702098 -0.02696084 0.08643144 0.02590048 -0.03774458 0.08643144 0.01559919 -0.0432341 0.08643144 0.006328046 -0.04535067 0.08643144 -0.00484234 -0.04559212 0.08643144 -0.01497387 -0.04333686 0.08643144 -0.02535909 -0.03804981 0.08643144 -0.03661262 -0.02740734 0.08643144 -0.04339009 -0.01489049 0.07448589 -0.01202285 0.02766674 0.07439696 -0.004539072 0.02470165 0.07443147 0.03081613 9.88647e-4 0.07443147 0.02701103 -0.01444965 0.07443147 0.01802688 -0.02494138 0.07443147 0.006047606 -0.0301755 0.07443147 -0.006497442 -0.03004097 0.07443147 -0.02055662 -0.02261406 0.07443147 -0.02972483 -0.005583882 0.07443147 -0.02920532 0.009694993 0.07443147 -0.02275419 0.02075541 0.07443147 0.007041096 0.02971351 0.07443147 0.01993507 0.02355086 0.07443147 0.02777349 0.01342612 0.08343142 0.05701476 -0.01991456 0.08343142 0.05155622 -0.03152358 0.08343142 0.03988248 -0.0453751 0.08343142 0.03266429 -0.05089849 0.08343142 0.02739828 -0.05390959 0.08343142 0.01897692 -0.05732899 0.08343142 0.008506357 -0.05964624 0.08343142 -3.92981e-4 -0.06023931 0.08343142 0.04799801 0.03680431 0.08343142 0.05436027 0.02650988 0.08343142 0.0585435 0.01515406 0.08343142 0.06037998 0.003192424 0.08343142 0.05979591 -0.008895158 0.08343142 0.02442061 0.05533599 0.08343142 0.03494864 0.04936826 0.08343142 0.04205793 0.04357653 0.08343142 -0.05673915 0.02072423 0.08343142 -0.05148059 0.03162378 0.08343142 -0.04415547 0.0412569 0.08343142 -0.03505766 0.04923701 0.08343142 -0.02455204 0.05524414 0.08343142 -0.01306009 0.05903732 0.08343142 -0.001042723 0.06046438 0.08343142 -0.04792231 -0.03670412 0.08343142 -0.05428457 -0.02640968 0.08343142 -0.05846786 -0.01505386 0.08343142 -0.06030428 -0.003092229 0.08343142 -0.05954658 0.00975573 0.08343142 -0.02434492 -0.0552358 0.08343142 -0.03487294 -0.04926806 0.08343142 -0.04198229 -0.04347634 0.0804314 0.04697334 0.03567624 0.0804314 0.05798017 0.01002174 0.0804314 0.05886948 -0.003266751 0.0804314 0.05559134 -0.01919966 0.0804314 0.047338 -0.03487038 0.0804314 0.02862352 -0.05147683 0.0804314 0.006114482 -0.05856078 0.08493143 0.04278141 0.03935015 0.08093148 0.03869044 0.04007828 0.08343142 0.03713923 0.04022055 0.08493143 0.03865027 0.043814 0.08061891 0.03340631 0.04524707 0.08052515 0.04455852 0.03492885 0.08343142 0.05339533 0.02339404 0.08061891 0.05296784 0.02024918 0.08093148 0.05001264 0.02411556 0.08493143 0.05242103 0.02207237 0.08405637 0.0501309 0.02719175 0.08093148 0.05618351 4.55826e-5 0.08049386 0.05591589 -0.006268858 0.08493143 0.0549941 -0.01698613 0.08093148 0.05399858 -0.01383382 0.08343142 0.05412495 -0.01142889 0.08493137 0.05723923 -0.01144897 0.0807439 0.050044 -0.02462297 0.08418142 0.04580414 -0.03457033 0.08086895 0.04001623 -0.03848022 0.08343142 0.04627501 -0.02941447 0.08343142 0.0515896 -0.02750539 0.08049386 0.0476318 -0.03177958 0.08343142 0.01283365 -0.05582624 0.08061891 0.009958207 -0.05564862 0.08093148 0.01547634 -0.0531789 0.08343142 0.01592487 -0.05211061 0.08418136 0.01828849 -0.05480587 0.08061891 0.02125686 -0.05220532 0.08093148 -0.00257945 -0.05599308 0.08049386 -0.004608273 -0.05698192 0.08505642 -0.008991301 -0.05733543 0.08343142 -0.005697786 -0.05450147 0.08093148 -0.004715621 -0.05501854 0.08405637 -0.001277089 -0.05681043 0.08093148 -0.04707521 -0.0175389 0.08093148 -0.03881132 -0.03188341 0.08093148 -0.02990567 -0.04061478 0.08093148 -0.02276939 -0.04492032 0.08093148 -0.01100558 -0.04901158 0.08093148 0.004157662 -0.05020457 0.08093148 0.01538383 -0.04799753 0.08093148 0.02521115 -0.04363977 0.08093148 0.03415602 -0.03707742 0.08093148 0.04144936 -0.02871781 0.08093148 0.04711771 -0.01762741 0.08093148 0.05038213 -0.002771675 0.08093148 0.04978066 0.008305847 0.08093148 0.04677134 0.01898384 0.08093148 0.04149973 0.02874529 0.08093148 0.03422111 0.03711777 0.08093148 0.02528774 0.0436958 0.08093148 0.01513212 0.04816114 0.08093148 0.004245758 0.05029743 0.08093148 -0.006844162 0.0500015 0.08093148 -0.01432782 0.04845863 0.08093148 -0.02269047 0.04506039 0.08093148 -0.03198331 0.03900074 0.08093148 -0.03972607 0.03105556 0.08093148 -0.04554396 0.02160954 0.08093148 -0.04915535 0.01111984 0.08093148 -0.05023366 -0.001288354 0.08093148 -0.05387961 0.01410317 0.0804314 -0.05615347 0.01491016 0.08080643 -0.04920053 0.02672153 0.08343142 -0.05481803 0.02040112 0.08343142 -0.05275428 0.01551002 0.08343142 -0.05539405 0.01148056 0.08058768 -0.05580741 0.001247406 0.08093148 -0.05540323 -0.0097754 0.08052515 -0.05246841 -0.0222941 0.08418142 -0.05266332 -0.0223 0.08093148 -0.04988282 -0.02441352 0.08343142 -0.0487228 -0.02595692 0.08493137 -0.0511921 -0.02789026 0.08055639 -0.0469188 -0.031295 0.08343142 -0.04208773 -0.03907257 0.08093148 -0.03852844 -0.04015487 0.08343142 -0.03692102 -0.03993463 0.08493137 -0.03857463 -0.04371374 0.08061891 -0.03333067 -0.04514688 0.0804314 -0.02854782 0.05157703 0.0804314 -0.04146695 0.04169261 0.0804314 -0.05198508 0.02744281 0.0804314 -0.05879378 0.003366947 0.0804314 -0.05732733 -0.01283335 0.0804314 -0.04689764 -0.03557604 0.0804314 -0.02915596 -0.05113464 0.08483767 0.008069932 0.05665683 0.08093148 0.004435837 0.05526924 0.08343142 0.003101825 0.05440753 0.08450955 0.001156806 0.05856329 0.08418142 -0.01254814 0.05526328 0.08061891 -0.009805262 0.05571442 0.08093148 -0.01538407 0.05328714 0.08343142 -0.01628196 0.05219668 0.08061891 -0.02112948 0.0523979 0.08493149 -0.01851606 0.05546355 0.08343142 -0.04513674 0.03284204 0.08093148 -0.04547399 0.03190636 0.08343142 -0.04791802 0.029697 0.08049386 -0.0475561 0.03187984 0.08493131 -0.04968059 0.03080314 0.08080643 -0.03948813 0.03974103 0.07443147 -0.01959216 0.01553106 0.07443147 -0.02177226 0.01226973 0.07443147 0.002971827 0.0247997 0.07443147 -0.0226677 -0.01041215 0.07443147 -0.02440708 -0.004807472 0.07443147 -0.02494269 0.001036286 0.07443147 -0.02394807 0.006819665 0.07443147 0.004895448 -0.02439481 0.07443147 -9.48369e-4 -0.02493041 0.07443147 -0.006731748 -0.02393579 0.07443147 -0.01381248 -0.02066987 0.07443147 -0.01953744 -0.01537585 0.07443147 -0.01692873 0.01841127 0.07443147 -0.01213592 0.02179753 0.07443147 0.01221162 -0.02169734 0.07443147 0.02402377 -0.00671947 0.07443147 0.0218479 -0.01216953 0.07443147 0.01833611 -0.01687097 0.07443147 0.01551884 0.01968014 0.07443147 0.01961308 0.01547604 0.07443147 0.02342188 0.008671939 0.07443147 0.02494168 0.001023828 0.07443147 0.01047629 0.02268165 0.08493137 -0.04754054 -0.03430831 0.08668142 -0.04138785 -0.03836691 0.0869314 -0.04913216 -0.02373969 0.08668136 -0.05584716 0.0108326 0.08643138 -0.05814719 0.005523741 0.08468139 -0.05881953 -7.90581e-4 0.08343142 -0.0568335 -0.0150035 0.08643144 -0.05685162 -0.01293104 0.08668142 -0.05387502 0.01674306 0.08643138 -0.05332702 0.02384209 0.0869314 -0.04727286 0.02865326 0.08468145 -0.02827322 0.0515877 0.08343142 -0.0414347 0.04177528 0.08668142 -0.03916424 0.04265898 0.08668142 -0.04491943 0.03501695 0.0869314 -0.01512914 0.05277901 0.0869314 0.001895964 0.05517899 0.08052515 0.01047813 0.05691123 0.0869314 0.01688128 0.05359166 0.08068144 0.01724755 0.05358499 0.08343142 0.02901554 0.05111789 0.08643144 0.0287081 0.05071634 0.0869314 0.0365253 0.0423361 0.08643144 0.05822712 -0.005544126 0.08468145 0.05884855 -0.001543402 0.08343142 0.0579068 0.0103026 0.08593147 0.05731183 0.01358789 0.0869314 0.05438369 -0.01051777 0.08643138 0.05160433 -0.02682608 0.08643144 0.02783328 -0.05121791 0.08343142 0.02877384 -0.05126994 0.08643144 0.03988218 -0.0425328 0.08343142 0.04151034 -0.04167503 0.08668142 0.0123189 -0.05551671 0.08493143 0.005653798 -0.05838394 0.08493143 0.04769283 0.03431808 0.0869314 -0.009109914 -0.05304378 0.08071267 -0.01052069 -0.05537879 0.08643144 -0.0284124 -0.05069655 0.0869314 -0.01613914 -0.05269038 0.08068144 -0.01717191 -0.05348479 0.08343142 -0.0288648 -0.05106419 0.0869314 -0.03544884 -0.03656595 0.08493143 -0.005780875 0.0584467 0.08055639 0.03703761 -0.04321569 0.08093148 -0.03579401 0.04258739 0.08055639 -0.03691506 0.04329836 0.08093148 0.03572046 -0.0430656 0.08093148 0.0127052 0.05237382 0.08093148 -0.01287072 -0.05205118 0.09943145 -0.02402478 -0.006731331 0.09943145 -0.02478939 -0.002883613 0.09943145 -0.02494269 0.001036286 0.09943145 -0.02448087 0.004931926 0.09943145 -0.02341532 0.008707404 0.09968143 -0.02132445 0.01314789 0.09943145 -0.01959216 0.01553106 0.09943145 -0.01692873 0.01841127 0.09943145 -0.01384747 0.02083945 0.09943145 -0.01042437 0.02275562 0.09943145 -0.00481981 0.024495 0.09943145 0.001024007 0.02503061 0.09943145 0.004919707 0.02456879 0.09943145 0.008695125 0.02350318 0.09943145 0.01225745 0.02186012 0.09943145 0.01551884 0.01968014 0.09943145 0.01961308 0.01547604 0.09943145 0.02274334 0.01051235 0.09943145 0.02410048 0.006831526 0.09943145 0.02486509 0.002983808 0.09943145 0.02501833 -9.36106e-4 0.09943145 0.02455651 -0.004831731 0.09943145 0.02349096 -0.008607208 0.09968143 0.02163064 -0.01233357 0.09943145 0.0196678 -0.01543086 0.09943145 0.01700437 -0.01831108 0.09943145 0.01392316 -0.02073925 0.09943145 0.01050007 -0.02265542 0.09943145 0.006819307 -0.0240125 0.09943145 0.002971589 -0.02477711 0.09943145 -9.48369e-4 -0.02493041 0.09943145 -0.004844009 -0.0244686 0.09943145 -0.008619487 -0.02340298 0.09968143 -0.01305991 -0.02131211 0.09943145 -0.0154432 -0.01957982 0.09943145 -0.01832342 -0.01691645 0.09943145 -0.02075147 -0.01383525 0.09943145 -0.0226677 -0.01041215 0.0869314 -0.0578773 -0.003085911 0.0869314 -0.05176466 0.01232177 0.0869314 -0.04389733 0.0299685 0.0869314 -0.02812439 0.05056041 0.0869314 0.009388804 0.05318748 0.0869314 0.03863418 0.03816968 0.0869314 0.0491845 0.02534675 0.0869314 0.05724316 0.007795929 0.0869314 0.05226743 -0.01494318 0.0869314 0.04421913 -0.03146761 0.0869314 0.01668238 -0.05177927 0.0869314 -0.001379191 -0.05527395 0.0869314 0.03613156 -0.04274857 0.0869314 0.03761136 -0.04192483 0.0869314 -0.03591084 0.04271322 0.0869314 -0.0374642 0.04184371 0.08780747 0.02205449 0.01751178 0.09993141 0.02211767 0.01876938 0.09993141 0.02034139 0.01608604 0.09993141 0.02306926 0.01634275 0.08786946 0.02810055 -0.003396034 0.09993141 0.02937495 -0.003946065 0.09993141 0.02768284 -0.001849651 0.09993141 0.0276829 -0.007560968 0.08780747 0.01749092 -0.02188324 0.09993141 0.02037787 -0.0213108 0.09993141 0.01636022 -0.02137541 0.09993141 0.0154556 -0.02531415 0.08780747 -0.003026664 -0.02767443 0.09993141 5.6684e-5 -0.02889406 0.09993141 -0.004173934 -0.02679711 0.09993141 -0.003335058 -0.02930933 0.08780747 -0.02203321 -0.01721024 0.09993141 -0.02152389 -0.01611083 0.09993141 -0.02506989 -0.01591843 0.09993141 -0.02103018 -0.02018123 0.08780747 -0.02777558 0.003229975 0.09993141 -0.02573984 0.00333631 0.09993141 -0.02841514 0.005375802 0.09993141 -0.02769571 0.002044081 0.08780747 -0.01734721 0.02183175 0.09993141 -0.01613587 0.02184581 0.09993141 -0.01753646 0.02413624 0.09993141 -0.01847529 0.02109402 0.09993141 -0.01076573 0.02489584 0.09367889 -0.007588744 0.02691036 0.09838825 -0.007477462 0.02957504 0.09993141 -0.004391908 0.02595186 0.09993141 -0.02366566 -0.00919491 0.09993141 0.009282886 -0.02365338 0.09993141 0.02525359 0.004073739 0.09993141 0.007873713 0.02413696 0.08768355 0.004004061 0.02834957 0.09993141 0.004900276 0.02767008 0.09993141 0.003182113 0.02908402 0.08793145 0.002291142 0.02747356 0.09993141 0.00293833 0.02674144 0.0869314 -0.04907304 0.008141517 0.08693403 -0.00567311 0.04489356 0.0869314 0.01797908 -0.044492 0.0869314 0.04392594 0.01446944 0.09903782 -0.01129919 -0.02845782 0.09993141 -0.02982366 -0.005006313 0.09968143 -0.02431428 0.01869744 0.09968143 -7.12998e-4 0.03073245 0.09993141 0.01475638 0.02632051 0.09993141 0.02839773 0.009722292 0.09393137 0.01387304 -0.04821419 0.09393054 0.0270695 -0.04209786 0.0894398 0.03763276 -0.03273195 0.09393084 0.04259395 -0.02626061 0.09161859 0.04737639 -0.01587384 0.09393048 0.04966104 -0.006473422 0.0901677 0.04970103 0.004836976 0.09393042 0.04673808 0.01850831 0.09018307 0.03954923 0.0305615 0.08873212 0.03161513 0.03872722 0.09393107 0.0206713 0.04555803 0.09018331 0.01188313 0.04851812 0.09017145 0.00225085 0.04990583 0.09393024 -0.007188081 0.04962104 0.08942079 -0.0344181 0.03605777 0.09392964 -0.04127633 0.02823102 0.08727097 -0.04736995 0.01586687 0.09016466 -0.04982471 0.002201974 0.08730381 -0.04962837 -0.004932641 0.09392982 -0.04555165 -0.02064782 0.09393018 -0.03762519 -0.03305697 0.09392988 -0.02932149 -0.04039233 0.08944016 -0.02056562 -0.04544532 0.09393012 -0.01186025 -0.04854494 0.09017306 -4.1416e-4 -0.04981976 0.09017688 0.009788453 -0.04894566 0.09163194 -0.02682149 0.04214036 0.09019082 -0.01729482 0.04687821 0.09163194 -0.04471701 0.02218776 0.09393173 -0.04967898 0.007261216 0.09163194 -0.04870277 -0.01074981 0.09162747 0.02687811 0.04214531 0.09684741 0.009614586 -0.02922618 0.09686595 -0.002419471 -0.0307163 0.09620547 -0.01925301 -0.02405339 0.09685277 -0.02626192 -0.01592963 0.0961728 -0.0304926 -0.004839599 0.09556972 -0.03056532 0.004000127 0.09688144 -0.02871364 0.01144444 0.09686219 -0.02074289 0.0230056 0.09685337 -0.01504921 0.02702504 0.09813946 0.009237706 0.02948325 0.09393197 0.01788336 0.02558457 0.09684646 0.02513861 0.01791083 0.09555518 0.03006011 0.00740236 0.09686589 0.03091096 3.98334e-4 0.09685999 0.02995061 -0.007667064 0.09684771 0.0266388 -0.0157625 0.09686905 0.02051609 -0.0229519 0.09426611 7.81895e-4 0.03084385 0.09427046 -0.02523332 0.01794731 0.09393149 0.04918044 0.005298733 0.09393149 0.03518658 0.03479355 0.09393149 0.005855977 0.04912853 0.09393149 -0.02584946 0.0417847 0.09393149 -0.04651546 0.0166434 0.09393149 -0.01436251 -0.01404601 0.09393149 0.02900248 -8.51516e-4 0.09393149 -0.01246774 0.02721375 0.09393149 0.01034569 -0.03652513</float_array>
          <technique_common>
            <accessor source="#Link6_002-mesh-positions-array" count="555" stride="3">
              <param name="X" type="float"/>
              <param name="Y" type="float"/>
              <param name="Z" type="float"/>
            </accessor>
          </technique_common>
        </source>
        <source id="Link6_002-mesh-normals">
          <float_array id="Link6_002-mesh-normals-array" count="3237">-0.1793496 0.2457204 -0.9526044 0.03074204 0.5312908 -0.8466316 0.1016554 0.550564 -0.8285805 -0.1109685 0.7430112 -0.6600154 0.2043212 0.8814048 -0.4258856 -0.1567264 0.8329032 -0.5307629 -0.08202773 0.9815974 -0.1724476 0.05254799 0.992299 -0.1121666 -0.1109553 0.98863 0.1014875 0.2207919 0.9062876 0.3604081 0.02642625 0.9501777 0.3105866 -0.1348879 0.7859764 0.6033625 -0.03301733 0.7497116 0.6609406 -0.1768782 0.5876911 0.7895146 0.02451956 0.4641294 0.8854281 -0.1433609 0.3520453 0.9249389 0.01467067 0.08736342 0.9960685 0.01536661 0.08709233 0.9960818 -0.122817 -0.1806581 0.9758477 0.0958265 -0.3334611 0.9378812 -0.04264587 0.1711551 -0.9843207 -0.1768084 -0.05276077 -0.9828302 -0.02372795 -0.1644947 -0.9860926 -0.1580025 -0.31981 -0.9342145 0.01881474 -0.4641857 -0.8855382 -0.1699887 -0.5613219 -0.8099517 -0.07693451 -0.7279153 -0.6813372 0.2217468 -0.9351555 -0.2762473 0.06735515 -0.9765513 -0.2044774 0.06735503 -0.9955055 0.06657445 0.3192852 -0.9281295 0.1913965 0.06735581 -0.9406284 0.3326885 0.06735581 -0.815988 0.5741313 0.319289 -0.6935643 0.6457733 0.06735396 -0.6308266 0.772995 0.06677937 -0.3505322 0.9341669 0.008285045 0.2497619 -0.9682719 -0.3140863 -0.7745579 -0.5490081 -0.3201169 -0.7663034 -0.5570497 -1 -4.99447e-6 0 -1 0 0 -1 4.99561e-6 0 -1 -1.86742e-5 0 -1 5.01182e-6 0 -0.9999998 -5.50706e-4 2.68925e-4 -1 1.74547e-6 0 -1 -9.49888e-7 0 -1 1.45715e-6 0 -0.9999999 4.9596e-4 -4.13548e-4 -0.9999999 -4.60344e-4 -3.56476e-4 -1 -9.3139e-7 0 -1 -5.10761e-7 0 -1 2.08007e-7 0 -1 2.79186e-7 0 -1 -1.40629e-6 0 -1 1.00657e-6 0 -1 -8.83277e-7 0 -1 4.57202e-7 0 -1 5.34104e-7 0 -1 -9.9813e-7 0 -1 -5.97728e-7 0 -1 2.33288e-7 0 0.01876574 -0.9410731 -0.3376824 -0.05817782 -0.8816992 -0.4682115 0.02804803 -0.8155231 -0.5780444 -0.1309261 -0.6455367 -0.7524234 -0.04630786 -0.5690006 -0.8210323 -0.1099225 -0.321916 -0.9403654 -0.03947907 -0.3747974 -0.9262658 -0.06894558 -0.05347764 -0.9961861 -0.04504311 -0.07422912 -0.9962235 -0.06638813 0.2010598 -0.9773268 -0.1458207 0.3788252 -0.913908 -0.03347408 0.5312432 -0.846558 -0.1350429 0.7152625 -0.6856843 -0.09171473 0.7444775 -0.6613182 -0.0649271 0.8985002 -0.4341451 -0.09441727 0.9092509 -0.4053989 -0.03467923 0.9843241 -0.1729264 -0.08772611 0.9902035 -0.1086336 -0.03345143 0.9942156 0.1020611 -0.1384303 0.963521 0.2290515 -0.04198503 0.9284009 0.3692005 -0.1120057 0.8429883 0.5261421 -0.03313034 0.7927911 0.6085924 -0.08571785 0.6438922 0.7602996 -0.03353643 0.5967699 0.8017113 -0.09193289 0.3780465 0.9212108 -0.0643419 0.3549817 0.9326565 -0.05931198 0.0272696 0.9978671 -0.1455837 0.08644157 0.9855624 -0.04116457 -0.1818817 0.9824585 -0.1168112 -0.2992159 0.9470084 0.0281974 -0.5018615 0.8644883 -0.0431624 -0.5903514 0.8059916 0.02932876 -0.7158635 0.6976241 -0.0996108 -0.8381016 0.5363426 -0.0186879 -0.8806483 0.473402 -0.01855015 -0.9770232 0.2123246 -0.02285754 -0.9777822 0.2083738 0.0140829 -0.9977723 -0.06520807 -0.07808035 -0.9836387 -0.1623533 -0.7603635 -0.3101242 0.5706754 -0.6380092 -0.5612149 -0.5272401 -0.9731611 -0.09365165 0.2102069 -0.8859304 -0.1606788 0.4350974 -0.6156019 -0.6703619 -0.4143056 -0.8104143 -0.4612043 -0.3612746 -0.7783539 -0.6071101 -0.1599457 -0.8503 -0.3034112 0.4300367 -0.6004426 -0.1733419 0.7806545 -0.6075179 -0.4613473 0.6465916 -0.8710411 -0.4083921 0.2729533 -0.5905073 -0.475817 -0.6518431 -0.7328536 -0.3806579 -0.5639373 -0.5899451 -0.4666096 -0.658969 -0.9794927 -0.18906 -0.06964504 -0.8519999 -0.01635754 0.5232864 -0.8257962 -0.01008516 0.5638785 -0.9885731 -0.1481486 -0.02784025 -0.9596711 -0.2810765 -0.005230665 -0.9807335 -0.1906794 -0.04246467 -0.7463695 0.6117722 -0.2620448 -0.986754 -0.1603034 0.02489328 -0.9878407 -0.1537569 0.02301633 -0.536677 0.6572471 -0.5291541 -0.948932 -0.2119807 -0.2336498 -0.9820989 -0.1668234 0.08747434 -0.9933879 -0.1060975 0.04386168 -0.9866989 -0.1545216 0.0504828 -0.8828609 0.4471142 0.1436856 -0.9764768 0.1070328 -0.1871818 -0.8049025 0.4828037 0.3450109 -0.6687015 0.5245904 0.5269187 -0.8406993 0.3081349 -0.4452839 -0.7797296 0.5044606 0.3708657 -0.823382 0.3089544 0.4760139 -0.5877976 0.253576 -0.7682405 -0.8811138 0.4668715 0.07529705 -0.5592197 0.7453076 0.3630288 -0.7734888 0.1247299 -0.6214158 -0.8656962 0.2800518 0.4148992 -0.8904845 0.4108877 0.1954707 -0.5508173 0.07996553 -0.8307864 -0.9894292 0.1391229 0.04092246 -0.70241 -0.01514941 -0.7116113 -0.9700852 0.1600839 -0.1825048 -0.987716 0.1121158 -0.1088443 -0.9876049 0.1558524 0.01862084 -0.9943815 0.1058281 0.00242114 -0.9859011 0.1671344 -0.008075356 -0.9759129 0.1736559 -0.1320524 -0.9842247 0.1714715 -0.04358196 -0.9856024 0.1387183 -0.09666967 -0.9512979 0.2776494 -0.1339519 -0.9857766 0.1626076 -0.04246598 -0.02315968 0.963466 0.2668277 0.007974982 0.9987462 -0.04942119 -0.1405459 0.9869325 -0.07881093 0.06298238 0.9510095 -0.3026784 -0.2411907 0.8868799 -0.3940446 0.04735422 0.8688861 -0.492742 -0.1444464 0.7640718 -0.6287525 0.239897 0.6794793 -0.6933667 -0.1798763 0.516436 -0.8372206 0.0546236 0.4765614 -0.8774426 -0.3138974 0.1746343 -0.9332585 -0.4361935 0.1431051 -0.888401 0.04628258 -0.05363321 -0.9974876 -0.4793059 -0.2849807 -0.8300915 -0.02315956 -0.2506543 -0.9677996 0.007973432 -0.5421706 -0.8402306 -0.4597669 -0.5578827 -0.6909279 -0.05852603 -0.7378345 -0.6724396 -0.1991133 -0.844874 -0.4965298 -0.5136067 -0.7728917 -0.3726214 0.1171252 -0.9614868 -0.2486463 -0.3915249 -0.9200471 0.01489347 -0.4197198 -0.9076043 0.009477317 -0.007849633 -0.9657647 0.2593007 -0.3193391 -0.8712794 0.3726859 0.1095132 -0.8654615 0.4888592 -0.05684161 -0.7014759 0.7104229 -0.00490278 -0.6961448 0.7178847 -0.1251497 -0.4665911 0.8755743 -0.3562317 -0.3975256 0.8456196 0.06660211 -0.2220743 0.9727525 -0.1694151 -0.0835759 0.9819947 0.07365399 -0.02155333 0.997051 -0.06626367 0.2143291 0.9745112 -0.05566799 0.216942 0.974596 -0.04183119 0.4532905 0.8903809 -0.2190779 0.4768485 0.8512464 0.2089756 0.6719329 0.7105178 -0.4255331 0.7155486 0.5539962 0.1027591 0.8747108 0.4736261 -0.4792993 0.8613741 0.1682466 -0.6489347 -0.2292248 0.7254929 -0.9627091 0.0896883 0.2552395 -0.5360242 0.8391677 -0.09206318 -0.7914078 0.593527 -0.1462855 -0.4610413 0.8104698 -0.3613582 -0.6579121 0.572028 -0.4898324 -0.43811 0.6489084 -0.6220752 -0.5583946 0.3321478 -0.7601798 -0.2385439 0.3354468 -0.9113575 -0.2170794 0.286455 -0.9331774 -0.6900029 -0.007762372 -0.723765 -0.5356316 -0.06274729 -0.8421174 -0.5342155 -0.3170831 -0.7836277 -0.7683333 -0.2989605 -0.5659386 -0.3447957 -0.611209 -0.7124181 -0.8315748 -0.489049 -0.2632764 -0.8232097 -0.5014223 -0.2662732 -0.4864958 -0.8620198 -0.1422803 -0.8047597 -0.593258 0.02017182 -0.4316449 -0.8822326 0.1880123 -0.5578678 -0.7168976 0.4181407 -0.3615653 -0.7853074 0.5025562 -0.6236856 -0.4618927 0.6306119 -0.7693432 -0.3431404 0.538856 -0.9630749 -0.1045172 0.2481189 -0.6327352 0.02115434 0.7740792 -0.6066231 0.3018211 0.7354676 -0.739041 0.2904983 0.6078069 -0.4190883 0.5867792 0.6928601 -0.7016141 0.563439 0.4362042 -0.4316461 0.7652275 0.4776071 -0.5578749 0.8061529 0.197214 -0.5313615 0.8241773 0.1959258 -0.01184564 0.9504871 -0.3105384 0.06560963 0.9030058 -0.4245892 0 0.8856338 -0.4643843 0 0.8157887 -0.5783501 0 0.7081888 -0.7060231 0 0.6076993 -0.7941673 -0.05055963 0.5800766 -0.8129914 0 0.49638 -0.8681055 -0.06724536 0.3753577 -0.9244375 0 0.4069597 -0.9134461 0 0.2160828 -0.9763751 0.001252949 0.2167662 -0.9762228 0.03597772 0.06645083 -0.997141 -0.0253064 0.01787793 -0.9995199 0.057442 -0.09129971 -0.9941654 0 0.850652 0.5257293 0 0.9383555 0.3456719 0 0.9884192 0.1517484 0.06724953 0.9805712 0.1842764 -0.01689082 0.9996843 0.01860368 0.05055975 0.9975574 -0.04819864 -0.05055725 0.9877161 -0.1478546 0.04887741 0.9684365 -0.2444214 -0.1332696 0.2964633 0.9457002 0.02529996 0.4929703 0.8696782 -0.0728392 0.5579867 0.8266471 0.01764941 0.6315064 0.7751698 -0.05121439 0.727868 0.6838021 0 0.7517861 0.659407 0 -0.9006575 0.4345298 0 -0.9006572 0.4345304 0 -0.7960058 0.605289 0 -0.6594175 0.7517771 0 -0.6594168 0.7517776 0 -0.4963834 0.8681035 0 -0.4963842 0.868103 0 -0.3134395 0.9496082 0 -0.3134396 0.9496082 0 -0.1179209 0.993023 -0.044806 -0.09571403 0.9944 -0.004693329 0.06382048 0.9979504 -0.01689195 -0.8134959 -0.5813254 0.05055814 -0.8495645 -0.5250564 -0.05055767 -0.8978729 -0.4373422 0.0505591 -0.9371557 -0.3452292 -0.01689082 -0.9592234 -0.282144 0.05055755 -0.9871551 -0.1515544 0 -0.992938 -0.1186344 0 -0.9982656 0.05887085 0.02278643 -0.9985755 0.04824787 -0.003167986 -0.9691801 0.2463333 0 -0.9687699 0.2479621 -0.1332692 -0.2964639 -0.9457001 0.02529996 -0.4929703 -0.8696782 -0.07283955 -0.5579866 -0.8266471 0.01764833 -0.6315056 -0.7751705 -0.03397464 -0.7051293 -0.7082645 0.03339499 -0.7513675 -0.6590387 0.5084118 -0.6813233 -0.526608 -0.3778862 -0.8672298 -0.3242138 0.07909053 -0.9816706 -0.1734002 -0.2060604 -0.9763554 -0.06533932 0.2103416 -0.9716733 0.1077389 -0.1778147 -0.9638747 0.1983119 0.1292361 -0.9163904 0.3788493 -0.3016771 -0.8435653 0.4442843 0.002486407 -0.778924 0.6271135 -0.4013502 -0.6296901 0.665138 0.2116271 -0.502407 0.8383324 -0.3206609 -0.3223849 0.8906428 0.4394381 -0.09785902 0.8929265 0.03294926 0.1438167 0.9890558 0.4763651 0.7216427 -0.502303 -0.5405084 0.6044409 0.5852367 0.5003531 -0.5857329 -0.6376236 0.3597323 -0.684795 -0.6337576 -0.457013 0.5685815 0.6839987 -0.6439364 0.5818547 0.4967808 0.5512065 -0.2367128 0.8000865 -0.3576434 0.8737148 0.3297176 -0.4206397 0.8162795 0.395917 -0.1707776 -0.760921 -0.6259667 0.5647414 -0.7176429 -0.4074995 0.9207571 -0.3872472 -0.04739183 -0.1566051 0.9813787 0.1112232 0.6642795 -0.3242959 -0.6734722 -0.5219018 0.8191858 -0.237809 0.5816212 -0.7538504 0.3056576 0.4853294 -0.8308125 0.2724079 -0.4468954 0.8424243 -0.3010081 -0.8018905 0.5730765 -0.1689828 0.09206736 0.8070854 -0.5832126 -0.7692199 0.2160179 -0.6013628 0.653516 -0.7238829 0.2211569 0.1031274 -0.7641677 0.6367202 0.2414377 -0.634298 0.7344208 -0.4461675 0.3865312 -0.8071731 0.1341456 0.7617945 -0.6337777 0.3700125 -0.7471053 -0.5521996 -0.5219534 0.1141476 -0.8453017 0.4144386 -0.2653013 0.8705493 0.2773051 -0.2133574 0.9367927 -0.8855379 -0.03480458 0.4632617 0.6088428 0.6682428 -0.4275068 0.3711882 0.9280074 -0.03196525 0.02509307 -0.4149267 -0.9095088 -0.04140698 -0.4579622 -0.8880069 0.4014437 -0.4697915 0.7862182 0.01378881 -0.06610739 0.9977173 -0.6333754 0.6804917 0.3684652 -0.6013575 0.692312 0.3988401 -0.6546365 0.5194132 0.5492368 -0.6737464 0.5173366 0.5276634 -0.6370078 0.3982174 0.6600334 -0.6688059 0.3372876 0.6625223 -0.5935499 0.2643651 0.760138 -0.647807 0.1655242 0.7436047 -0.5776757 0.06402122 0.8137519 -0.657994 -0.01627427 0.7528474 -0.6198208 -0.1513811 0.770004 -0.6412315 -0.1707862 0.7481005 -0.6129978 -0.3202738 0.7222592 -0.6635711 -0.3518292 0.6602194 -0.6199439 -0.4641386 0.6326491 -0.6917286 -0.5027316 0.5184329 -0.6325638 -0.5836152 0.5091723 -0.653056 -0.6743357 0.3446582 -0.6069982 -0.6919469 0.3908487 -0.6269639 -0.7524006 0.2020136 -0.5842996 -0.7926275 0.1741715 -0.6647469 -0.7470279 0.007799863 -0.6240976 -0.7801975 -0.04235869 -0.6717327 -0.7130182 -0.2009486 -0.6495859 -0.7360733 -0.1903533 -0.620751 -0.6898409 -0.3725423 -0.6481991 -0.6564919 -0.3858191 -0.619771 -0.5922639 -0.5148859 -0.6374002 -0.5695007 -0.5190279 -0.6199447 -0.4652472 -0.6318336 -0.6674816 -0.4037278 -0.6256774 -0.619948 -0.3158199 -0.7182773 -0.6666246 -0.2420362 -0.7050037 -0.6061131 -0.15316 -0.7804928 -0.6663198 -0.0400359 -0.7445906 -0.6204508 0.02092039 -0.7839663 -0.6704102 0.1498218 -0.7267074 -0.6553551 0.138927 -0.7424346 -0.6235701 0.294306 -0.7242543 -0.679998 0.349945 -0.6443146 -0.6300643 0.4241572 -0.6504689 -0.6727426 0.5298786 -0.516378 -0.6496807 0.5320824 -0.5429581 -0.6207522 0.6675499 -0.4111494 -0.6482012 0.6623728 -0.3756294 -0.6197722 0.7420366 -0.2554684 -0.637399 0.7342429 -0.2336876 -0.6166539 0.7842786 -0.0681551 -0.6504679 0.7586057 -0.03753769 -0.5987763 0.7862046 0.1528052 -0.5999546 0.785196 0.1533685 -0.9791198 0.1872484 -0.07913529 0.5351561 -0.7783094 -0.3283939 0.06798291 -0.8345459 0.5467281 -0.3955376 -0.9066841 0.1465398 -0.2214555 0.9749187 0.02216213 -0.3101889 0.948699 -0.06126374 0.8603546 -0.3277468 -0.3903488 0.9511188 0.3061061 0.04089063 -0.0348494 -0.6302761 -0.7755886 -0.1228051 -0.6875447 -0.7156825 0.589096 -0.2450435 0.7700127 -0.5289623 -0.7895151 -0.3112312 0.3884362 0.7837668 0.4845896 0.05180716 0.9640413 0.2606539 0.1892331 -0.1616007 -0.9685434 0.4366188 -0.7476202 0.5004281 -0.5347217 -0.6018472 -0.5931718 0.5349259 0.6019398 0.5928936 0.8287143 0.2836127 0.4824899 -0.5777108 -0.5803076 -0.5740153 0.3311522 0.4222372 -0.8438329 -0.1961351 0.5958456 -0.7787805 0.1019502 0.6744693 -0.73123 -0.2927787 0.7693066 -0.5678451 0.02951741 0.8479431 -0.5292648 -0.1115314 0.9498453 -0.2921555 -0.2002496 0.9296716 -0.3092101 -0.2646208 0.9400743 -0.2150259 0.2434867 0.9696511 0.02216362 -0.1016523 0.9907693 0.089684 0.05582726 0.9470312 0.3162519 0.4602693 0.7152819 0.5258556 0.2470226 0.5777105 0.7779657 0.4315945 -0.6870887 0.5844957 0.08054137 -0.4299355 0.89926 0.5211082 0.8169207 0.2471578 -0.1237563 -0.2583437 -0.9580934 -0.1949538 -0.4004734 0.8953291 0.09996384 -0.6434202 0.7589584 0.3451268 -0.1618615 0.9244937 -0.6809741 0.4199941 0.5998995 0.455662 0.2501906 -0.8542698 -0.1662181 -0.05393904 -0.9846128 -0.1453261 -0.7411462 0.6554256 -0.2617623 -0.7807018 0.5674376 -0.1124677 0.9447207 -0.3079836 0.4688557 0.7200582 0.511557 -0.03025192 0.4008713 -0.9156348 0.3573014 -0.06323331 -0.9318462 -0.963633 0.2047085 -0.1717731 -0.9999558 0.008124351 -0.00473833 -0.9999819 0.004641115 -0.003844082 -1 2.33544e-7 0 -1 -3.69672e-6 0 -1 -8.33721e-7 0 -1 -4.76768e-7 0 -1 -1.50364e-6 0 -1 2.48568e-6 0 -0.9999332 -0.006695568 0.009429574 -0.9999338 -0.006643295 0.009401857 -0.9999224 -0.008144795 0.009430706 -1 1.28208e-6 0 -1 -8.79249e-7 0 -1 9.01558e-7 0 -1 1.2143e-6 0 -1 3.38279e-6 0 -1 -1.7492e-6 0 -1 2.55745e-6 0 -1 -4.62924e-6 0 -1 7.54722e-7 0 0.2903102 -0.5830908 -0.7587656 -0.4370552 -0.7038838 0.559938 -0.04811614 -0.915697 0.3989785 -0.4055864 -0.890263 0.2071993 0.09487462 -0.9847331 -0.1459444 0.3049348 -0.8400197 -0.448756 -0.1678072 -0.9082803 -0.3832333 -0.07409769 -0.8898603 0.4501755 0.3641417 -0.9275097 0.08441925 0.1245092 0.6013028 0.7892608 0.2065899 -0.5973535 0.7749127 -0.190854 -0.9068332 0.3758035 0.3669439 -0.74309 0.5596155 -0.3352966 0.6988147 0.6318498 0.231132 0.9028304 0.3625953 0.4891296 0.8709446 0.04698735 -0.8390498 0.237674 0.489394 -0.0542851 -0.9192673 0.3898728 0.1661806 0.5791559 0.7980993 0.1635525 0.4478816 0.8790066 0.4323223 0.7524661 -0.4968827 -0.01707971 0.9868456 -0.1607611 0.1159949 0.9890846 0.09086853 -0.1990603 0.926514 0.3192914 0.7221158 0.5590876 0.4073941 0.2587933 -0.1308282 -0.957032 0.06686037 0.9464501 -0.3158514 0.2068686 0.3307515 -0.9207653 0.1181331 0.3248867 -0.938346 0.1936648 0.5736742 -0.7958593 0.09773105 0.598825 -0.7948945 0.2892298 0.8054421 -0.5173097 0.144651 0.3587203 -0.9221692 0.4752115 -0.1995979 -0.8569334 0.9801659 0.1368227 -0.1433683 0.960576 -0.1710359 -0.2191814 0.8838438 0.3095765 -0.3506889 0.9952464 0.08636569 -0.04500764 1 -1.93436e-6 0 1 0 0 0.7183047 0.396478 -0.5717023 0.6146105 0.6447191 -0.4545233 0.7380737 0.6175926 -0.271711 0.9915326 0.1298539 -0.001077175 0.9125335 0.3327532 -0.237819 0.8927918 0.4174618 -0.169259 0.9231758 0.3630436 0.1262767 0.7211093 0.6920142 -0.03343558 0.828676 0.5554187 -0.06932741 0.7774251 0.6098518 -0.153919 0.9881206 0.1338303 -0.07554584 0.7223058 0.5882893 0.3635795 1 2.18093e-6 0 0.9893198 0.1392381 -0.0431196 0.793369 0.4356359 0.4251907 0.831251 0.4179159 0.3665625 0.841847 0.3961123 0.3665905 0.7071554 0.3539274 0.6121003 1 2.65498e-6 0 1 -6.8533e-6 0 0.7822803 -0.4212548 -0.4588923 0.6948218 0.04782217 -0.7175902 0.371316 0.1211435 -0.9205698 0.7270209 0.6173314 -0.3005708 0.3609147 -0.9296083 0.07462567 -0.9432279 -0.3169747 0.09923905 0.6106348 -0.1511622 -0.7773513 -0.1007733 0.9133338 -0.3945457 0.1747012 -0.4445198 -0.8785681 0.1843927 -0.5749531 -0.7971376 -3.50084e-4 -0.9161883 0.4007481 0.9682298 -0.1859561 0.1671872 0.6937521 -0.08492863 0.715189 0.7279111 -0.3403568 0.5952333 0.9691565 0.1288576 0.2100749 0.8290538 -0.224652 0.5120559 0.7466238 -0.2085143 0.6317237 0.7940331 -0.5826563 0.1732718 0.9455162 -0.2475026 0.2115222 0.60691 -0.1498821 0.78051 1 -3.22935e-6 0 0.732932 -0.679122 0.04004955 0.9923062 -0.04749184 0.114337 0.7934972 -0.5289544 -0.3009479 0.7261653 -0.5848397 -0.3614507 0.9009869 -0.4337947 0.006708025 0.9690068 -0.2318057 -0.08539259 0.9949324 -0.003092408 0.1004985 1 -1.18537e-5 0 0.855966 -0.4963878 -0.1446418 0.8443146 -0.2015427 -0.4965012 0.7072894 -0.3539669 -0.6119226 1 -2.64236e-6 0 1 6.86993e-6 0 0.9149625 -0.4034232 -0.00966084 0.7838049 0.4211878 0.4563449 0.7577988 0.1485313 0.6353577 0.7926977 0.1268126 0.5962792 0.8471108 0.04260671 0.5297057 -0.9859254 0.01330053 -0.166656 -0.8961505 -0.3054021 -0.3219377 -0.643064 0.1078861 0.7581751 -0.7824427 -0.3977187 0.4791694 -0.8437323 -0.3245387 -0.4275399 -0.7285897 -0.4743268 0.4941369 -0.6380631 0.179423 0.7487876 -0.9771926 -0.09560114 0.1896183 -0.9803683 -0.131173 0.1472135 -0.9392973 -0.1601946 -0.303411 -0.9981787 0.003051459 0.06024974 -0.9248266 -0.2000182 0.3235563 -0.9969681 -0.07294094 0.02709728 -0.8711611 -0.1431333 0.4696714 -0.9996269 -0.02675348 0.005503773 -0.8938865 -0.3865039 -0.2271165 -0.9986007 -0.04678994 0.02464455 -0.9891362 -0.07713449 0.12514 -0.9985118 -0.02992779 0.0455932 -0.925408 -0.06055247 0.3741038 -0.9878793 -0.1333451 0.07945823 -0.9980258 -0.06247985 0.006392836 -0.9993544 -0.03592342 7.17616e-4 -0.9998028 -0.01981401 -0.001325845 -0.8292804 -0.5076687 -0.2335947 -0.9996317 0.01860207 0.01976442 -1 1.22039e-6 0 -0.9531923 0.153828 -0.2603103 -1 -1.22812e-6 0 -0.9994758 -0.02882856 0.01473426 -0.9033901 -0.214953 0.3710547 -0.9994776 -0.03225553 0.002058029 -0.9994269 0.03384971 -2.29918e-4 -0.9997749 0.01519531 -0.01480722 -0.9998951 -0.002123355 -0.01433461 -0.9995895 -0.02672833 0.01032441 -1 1.7431e-7 0 -0.986175 0.01648914 -0.1648845 -0.65777 0.03795295 0.7522621 -0.9548736 0.2964099 -0.01891309 -0.9997023 0.02307212 -0.007944047 -0.9996165 0.02653473 -0.007933318 -0.9999315 -0.008823156 0.007697999 -0.9999076 -0.008042573 0.01096165 -1 -1.19911e-6 0 -0.9864612 0.07614201 -0.1452471 -0.905279 0.05364388 -0.4214171 -0.9998965 7.85403e-4 -0.01436656 -1 -1.05055e-6 0 -0.9716989 0.2210283 0.08335351 -0.9812324 -0.02969563 0.1905286 -1 5.33719e-7 0 -1 2.64194e-7 0 -0.9996908 -0.01200604 0.02177667 -1 1.6892e-6 0 -1 1.2955e-6 0 -1 1.63523e-6 0 -1 -1.98349e-6 0 -1 -2.66677e-6 0 -0.9837479 -0.08024382 0.160627 -1 2.4713e-6 0 -0.8537812 -0.5142983 0.08096289 -0.9755216 0.02319467 0.2186775 -0.993501 -0.03761589 -0.1074287 -0.9742863 0.1827353 0.131811 -0.9966293 -0.03508752 -0.07415485 -1 -3.28902e-6 0 -0.9967833 0.0337134 0.07270902 -0.9868395 0.07714492 0.1421142 -1 1.68425e-6 0 -0.9867711 -0.1570413 -0.04026013 -1 3.4846e-6 0 -1 -3.24191e-6 0 -1 -4.04503e-6 0 -0.9955959 0.03205674 0.08809775 -0.9881639 -0.0733422 -0.1347339 -0.9756445 -0.1789218 -0.126905 -0.9724604 -0.2314693 0.02725642 -0.8695702 0.1387923 -0.4739033 -0.9965015 0.05078524 -0.06637603 -0.9977411 0.05404686 -0.03989642 -0.9094999 0.2988019 0.2890113 -0.9369536 0.2722127 0.219131 -0.7749077 0.1243732 -0.6197172 -0.9903544 0.06948888 -0.1198725 -0.9523816 0.2007834 -0.229468 -0.9907116 0.1126241 -0.07619959 -0.2929041 0.189882 0.9370976 -0.9981047 0.03122508 0.05302935 -0.8780521 0.02039855 -0.4781301 0.2855221 0.1448673 -0.9473598 -0.9984957 0.03029686 -0.04570072 -0.850468 0.4490737 0.2739288 -0.8915879 0.07200878 -0.447086 -0.9610844 0.2746836 0.02942359 -0.989552 0.1087713 -0.09463471 -0.991568 0.1229655 -0.04089784 -0.9994016 0.03378069 0.007445275 -0.9984272 0.05583578 0.005054116 -0.9989351 0.04497689 -0.01028674 -0.8152397 0.5183963 0.2581656 0 0.9808219 0.194906 0.01227289 0.9991612 0.03906774 0 0.9958266 0.09126663 0 0.993046 -0.1177271 0.0082044 0.985499 -0.169483 0 0.9624046 -0.2716201 0.01293671 0.904365 -0.4265639 -0.003576874 0.9287177 -0.3707703 0.006081521 0.8091785 -0.5875314 0 0.8313579 -0.5557374 0 0.7341946 -0.6789391 0 0.7341948 -0.6789389 0 0.6189584 -0.7854238 0.008205711 0.5770187 -0.8166898 0 0.4884519 -0.8725908 0.01630669 0.2963647 -0.9549356 -0.003705084 0.3570551 -0.9340761 -0.007194995 0.09126865 -0.9958004 0.01024872 0.01301062 -0.9998629 0 -0.117721 -0.9930468 0.01227432 -0.2716149 -0.9623278 0.01227235 -0.2716073 -0.9623299 0 -0.4188318 -0.9080638 0.01227074 -0.555664 -0.8313165 0 -0.5114818 -0.8592942 0 -0.7164032 -0.6976866 0 -0.8458521 -0.5334175 0.0122736 -0.8725225 -0.4884199 0 -0.9382594 -0.3459326 0.01227235 -0.9807479 -0.1948926 0.01227277 -0.9807484 -0.1948899 0 -0.9992365 -0.03907066 0.01227259 -0.9929716 0.1177147 0.01227271 -0.9929718 0.1177141 0 -0.9624049 0.271619 0.01472705 -0.8942091 0.4474073 -0.005582571 -0.9287082 0.3707696 -0.003787934 -0.8445251 0.5355026 0.008203804 -0.8011378 0.5984238 0 -0.7341967 0.6789368 0.01227188 -0.61891 0.785366 0.01227337 -0.6189054 0.7853698 0 -0.4884552 0.872589 0.01227337 -0.3459055 0.9381891 0.01227223 -0.3459092 0.9381878 0 -0.1949063 0.9808219 0.01227223 -0.03907555 0.999161 0 -0.0912711 0.9958262 0 0.1177219 0.9930467 0.008205473 0.1694849 0.9854987 0 0.2716343 0.9624006 0.01293551 0.4265645 0.9043647 0.01061344 0.4188112 0.9080114 0.003061473 0.5877417 0.8090429 0.01227134 0.6788774 0.7341492 0.01227307 0.6788824 0.7341445 0 0.7854315 0.6189487 0.01227259 0.8725204 0.4884236 0 0.8458514 0.5334188 0 0.9382594 0.3459326 0.008204281 0.9550307 0.2963938 0.3825045 -0.588344 -0.7124196 0.2829514 -0.9523845 -0.1135884 0.3802521 -0.9248571 -0.006908237 0.1366546 -0.3468403 0.9279156 0.5926092 -0.6737771 0.4414056 -0.1426817 -0.8900719 -0.4329133 0.3181933 -0.7101636 0.6280293 0.6663052 -0.2707195 0.694801 0.1888633 -0.9642533 -0.1858661 0.4085273 -0.3459841 0.8446304 0.37791 -0.5444918 0.7488076 0.08491355 -0.6425217 0.7615481 0.8085158 0.03929209 0.5871613 -0.1235682 0.2548987 0.9590399 0.8438767 -0.4005068 0.3570247 -0.01616954 -0.258441 0.9658917 -0.1629815 -0.05314129 0.985197 0.3606703 0.7785291 0.5136239 0.4604969 0.7798476 0.4240052 0.5293787 0.2214812 0.8189654 -0.1156879 0.8862298 0.4485679 0.5060378 -0.001479148 0.8625102 0.4399173 0.864854 0.2418685 0.5160572 0.7455436 0.4217225 0.9814812 0.09137612 0.1683601 0.4053391 0.91225 0.05916261 0.4339466 0.8995453 0.05008715 0.04555547 0.9012166 -0.4309681 0.6574857 0.6968865 0.2864643 -0.1895483 0.5132404 -0.8370519 0.5040512 0.863656 -0.005549252 0.2225688 -0.7628608 -0.6070473 0.1723043 0.6350782 -0.7529854 -0.1052464 0.764473 -0.6360065 0.449253 -0.2513465 -0.8573195 0.4036186 -0.4677614 -0.7863152 0.1288676 -0.274869 -0.9528065 0.06891417 0.3118457 -0.9476302 -0.1325766 -0.04976391 -0.9899228 0.3758973 -0.7451028 -0.5509292 0.2701482 -0.9519395 -0.1443299 0.6345928 0.199691 -0.7466026 0.2421663 -0.1596741 -0.9570056 -0.05910402 0.0964238 0.993584 -0.01386135 0.7296118 -0.6837212 -0.2904317 0.4654091 -0.8360883 -0.08255177 -0.06820648 0.99425 0.2121167 -0.2088966 -0.9546564 -0.03200411 -0.845085 0.5336733 0.007222414 -0.5372619 -0.8433846 -0.02847295 -0.6095033 0.7922722 -0.136857 -0.4838443 0.8643871 -0.09510695 0.02388536 -0.9951805 0.2366259 0.3916285 0.8891769 -0.06466919 0.8063994 -0.5878249 0.0528379 0.8326926 -0.551209 0.1032834 -0.09319061 0.9902768 0.0426833 -0.9301287 -0.364745 0.05349409 -0.7770376 -0.627177 0.03461211 0.9994009 1.01332e-5 0.1142666 -0.8997599 0.4211594 0.04334068 0.01606458 -0.9989313 0.09976947 0.9697635 -0.2227219 0.1128934 -0.6269432 0.770842 0.022807 -0.4439895 -0.8957418 0.06668698 0.9464068 0.3160175 0.1296557 -0.1204969 0.9842104 0.09242701 -0.05394417 -0.9942572 0.1078761 0.7216078 0.6838458 0.05255007 -0.9913521 -0.1202487 0.1081365 -0.6027136 -0.7905965 0.01420307 0.9773703 0.2110584 0.08493506 -0.5492606 0.8313236 0.08552932 -0.8500161 -0.5197668 0.07078504 0.9531367 -0.2941426 0.02945399 -0.3058097 0.951637 0.2610374 0.8281973 -0.4959322 0.3194612 -0.7842775 -0.5318396 0.2285926 -0.1591176 0.9604306 0.9711013 0.1165803 -0.2082584 0.931323 0.2254189 -0.2860487 -0.5705853 0.6167878 -0.5422226 -0.8107492 0.4297925 -0.3974471 -0.9551339 0.2850396 -0.08044838 0.7355847 0.6245748 -0.2623383 0.9048149 0.4228444 -0.05012834 0.8163591 0.5771039 0.02256476 -0.1542125 0.9747749 0.1613461 0.2478441 0.95022 0.188826 0.7176755 0.6533835 0.2408984 0.4836002 0.7637646 0.4275451 -0.7592465 0.5111508 0.4028271 -0.9485951 0.2281956 0.2193038 -0.810739 0.3974449 0.4298138 -0.9551239 0.08045291 0.2850719 0.9625886 0.1221978 0.2418494 0.9758485 0.02571493 0.2169299 0.9610781 -0.01079428 0.2760664 0.5640107 -0.1878575 0.8041155 0.2478764 -0.1888247 0.9502118 0.7176858 -0.2408931 0.6533741 0.4836342 -0.4275188 0.7637575 -0.759267 -0.4027999 0.5111417 -0.9623213 -0.1940806 0.1904484 -0.9354775 -0.2594597 0.2399222 -0.9520896 -0.2943215 0.08306831 -0.9924494 -0.1218025 0.01444143 -0.8938452 -0.4347697 0.1096185 0.6527921 -0.7569589 -0.02959781 0.7648122 -0.6318976 -0.1255701 0.2478936 -0.9089744 -0.3351333 -0.2215252 -0.9025999 -0.3691072 0.8831768 -0.3967378 -0.2501958 0.8843882 -0.3343862 -0.3256434 -0.5246854 -0.473096 -0.7077326 -0.6813228 -0.3970808 -0.6149196 0.4200714 -0.3800857 -0.8240602 0.611882 -0.2148553 -0.7612081 -0.1601663 -0.116203 -0.9802264 0.2307015 -0.1424217 -0.9625451 0.9426286 0.03047025 -0.3324499 0.9299508 0.1089889 -0.3511592 0.9744076 0.03674018 -0.2217654 0.00366044 -0.6354125 -0.7721643 0.08399617 0.4633123 -0.8822056 -0.05984967 0.9928464 -0.1033157 0.07842391 -0.4448937 0.8921431 0.08117896 -0.4264107 0.9008796 0.3483669 -0.4303392 0.8327358 0.6186863 0.7139723 0.3278275 0.8472431 0.006049036 -0.531171 0.906997 -0.05878472 0.4170143 0.9154039 0.3108465 0.2557542 0.8845403 0.3338161 0.3258147 1 -9.0231e-5 3.4532e-5 1 -8.60905e-6 0 0.9939979 -0.07765597 0.07705718 0.7007506 0.6528853 -0.2875578 0.9706568 0.1406142 -0.1950719 1 -1.17608e-6 0 1 5.81187e-5 2.16904e-4 0.976077 0.183804 -0.1161457 1 6.25388e-5 1.39129e-5 0.9976518 -0.06743156 0.01199907 1 4.40325e-7 0 1 7.44615e-5 1.86304e-4 1 6.48939e-5 3.30057e-5 1 2.30024e-7 0 0.9993401 0.0176745 -0.03173416 0.9929459 0.04993414 -0.107541 0.7558301 0.06668096 -0.6513638 0.8275119 0.5575634 -0.06593394 1 -8.91989e-6 0 1 -1.91695e-6 0 0.7853968 0.4285689 0.4466327 0.8870572 -0.4012621 -0.2282946 0.9941619 0.09700489 -0.04724657 1 9.30349e-6 0 0.9892674 0.07264214 0.1267809 0.9971491 -0.06634819 0.03594255 0.9969766 -0.07492154 0.02060705 0.9921718 -0.116885 0.04396849 0.8495295 -0.3694331 0.3765888 1 1.02511e-6 0 1 -3.43604e-7 0 0.8492107 -0.0888651 0.5205231 0.8863542 -0.4027603 -0.2283869 0.9909788 -0.107059 0.08061999 0.9553324 -0.249671 -0.1581279 0.8256709 0.483523 -0.2906424 1 -4.07965e-5 2.89344e-4 1 1.74415e-5 0 0.9866597 0.1608479 -0.02511417 1 -1.03807e-4 2.13973e-4 1 2.73226e-7 0 1 -1.73337e-7 0 0.9969014 -0.05041825 -0.0603789 0.9989205 -0.03176867 -0.03389161 0.9970463 -0.07139068 0.02832198 1 2.79873e-6 0 1 -4.99329e-6 0 0.9741184 -0.2205159 0.04966104 1 -4.1573e-7 0 0.9854046 -0.1567567 -0.06637233 0.6123387 -0.6564845 -0.4405332 1 1.22098e-6 0 0.9925599 -0.115489 -0.0385642 0.9992718 0.03645056 0.01128786 0.9887726 -0.09763807 -0.1131178 0.9961962 0.01918423 -0.08500069 0.9994838 0.03189545 0.003868997 1 3.69295e-6 0 1 2.22464e-6 0 0.9997157 0.01445841 0.01896464 0.9987528 0.02465927 -0.0434134 0.9993034 0.01141601 -0.03553169 0.999208 -0.03503048 -0.01887369 0.9996832 0.02215707 0.01193803 0.9986867 -0.04895627 0.01510846 0.9509387 -0.2191531 0.2183751 0.9408094 -0.03778874 0.3368231 0.9965733 -0.03160959 0.07643711 1 -6.32999e-7 0 1 -2.88653e-6 0 1 2.43773e-6 0 1 -1.71084e-6 0 1 -8.77902e-6 0 1 1.10451e-5 0 0.9993444 -0.03544205 -0.007399976 1 -8.39111e-6 0 0.9993616 -0.01094561 0.03401046 0.9996107 -4.46252e-4 0.02789801 0.9967759 -0.0708574 0.03764426 1 -1.12738e-6 0 -0.229497 0.4092753 -0.883077 -0.3983516 0.5078702 -0.7637957 -0.9825531 0.1702285 -0.07491165 -0.6407134 0.7558498 -0.1348241 -0.9794989 -0.116248 -0.1645246 -0.6651249 0.7465187 -0.01785355 -0.9488519 0.005191445 -0.3156791 -0.5041084 0.804857 0.313177 -0.506421 0.8006715 0.3200984 -0.8401008 0.4559885 0.2937776 -0.992109 0.06551796 0.1068983 -0.651371 0.1542643 0.7429121 -0.8859552 0.2452371 -0.3936272 -0.8835448 0.06785225 0.4634056 -0.5786821 -0.2538312 0.7750464 -0.9786027 -0.1329347 0.1570517 -0.4166674 -0.789073 0.4513892 -0.4754574 0.8632728 -0.169412 0.1542223 -0.9662718 0.2062382 -0.604012 -0.7623621 -0.2323225 -0.7005416 0.6480711 0.2987398 -0.3700644 -0.8493551 -0.3763619 0.007834672 -0.8427197 -0.5382957 0.1674843 -0.6527016 -0.7388706 -0.02463072 -0.5091288 -0.8603379 -0.4912516 0.5058472 0.7090772 -0.7678217 -0.09401321 -0.6337282 -0.9033372 -0.2583797 0.342377 -0.7548052 0.05627548 -0.6535307 -0.2464666 0.3857693 -0.8890649 -0.5067585 -0.4441217 0.7388855 -0.360063 -0.7452493 0.5612113 -0.1541813 -0.9776433 0.1429744 -0.2783358 -0.8946632 -0.3494384 -0.5668736 0.2252883 0.7924012 -0.5622376 -0.01635712 0.8268141 -0.9095891 -0.191963 0.3685078 0.4400222 0.1110165 -0.8910982 0.4413633 0.1090453 -0.8906782 0.3781019 -0.1402611 -0.915077 0.4613453 -0.5498594 -0.6962867 0.3220912 -0.703952 -0.6330156 0.2728011 -0.6983128 -0.6617694 0.3357468 -0.8635643 -0.3762061 0.1496744 -0.926819 -0.3443896 0.1753864 -0.9844921 0.003871679 0.407387 -0.9049657 0.1227727 0.3970342 -0.9046122 0.1550504 0.5748189 -0.7789687 0.2505815 0.3534764 -0.5933485 0.7231819 0.2883672 -0.5519228 0.7824485 0.4624789 -0.3657512 0.8076753 0.7897875 0.1953778 0.5814322 0.7076397 0.1640912 0.6872556 0.1321782 0.4602092 0.877916 0.2763867 0.68816 0.6708549 0.3843915 0.5934907 0.7071154 0.542474 0.6901044 0.4790384 0.1272709 0.9041538 0.407809 0.2720346 0.9478526 0.1660509 0.5150369 0.8549858 0.06112623 0.313064 0.9430432 -0.1125193 0.5641945 0.7477772 -0.35002 0.5713609 0.7592917 -0.3114852 0.6883084 0.6406201 -0.3403493 0.3564491 0.7118447 -0.6051622 0.4059875 0.5766372 -0.7089879 0.1534169 0.4926892 -0.8565749 0.6278546 0.1762438 -0.758114 0.09720659 -0.9398682 0.3274121 0.1138669 -0.9908158 -0.07292824 0.05709296 0.1330634 0.9894618 -0.02497023 -0.1639598 0.9861509 0.03811436 -0.7569114 0.6524052 0.07842195 -0.8655134 0.4947087 0.2146799 0.6974713 -0.6837005 0.4004001 0.8629563 -0.3081986 0.1320371 0.9904202 0.04042172 0.1129804 0.9770361 0.1806543 0.2839327 0.7820829 0.5547329 0.03971451 0.7131043 0.6999322 0.1397506 0.6341542 0.7604724 0.3832928 0.550171 0.7418885 0.2134047 0.2288994 0.9497703 0.06781595 0.1421858 0.9875142 0.1680011 0.03717476 0.9850857 0.3470824 -0.3630824 0.8646994 0.2989739 -0.3882857 0.8716931 0.375213 -0.6434519 0.6672217 0.2874094 -0.6321951 0.7195312 0.2703291 -0.8772522 0.3966746 0.02925777 -0.9471778 0.3193717 0.133028 -0.9885969 -0.07056725 0.5875946 -0.8004444 -0.1184123 0.1911354 -0.4152578 -0.8893977 0.3538997 0.01200336 -0.9352064 0.1007826 0.08488959 -0.9912803 -0.9934299 0.0585643 -0.09832245 -0.9878508 0.04523742 -0.1486762 -0.9387918 0.2608866 -0.2249625 -0.7622272 0.5995167 -0.2441096 -0.5117656 0.8531427 -0.1012111 -0.545162 0.8383308 -1.81966e-4 -0.9768159 0.1209166 0.1766631 -0.7865648 0.5692032 0.2394232 -0.2819942 0.2769785 0.9185653 -0.9970374 0.004140615 0.07680845 -0.2164413 -0.2528883 0.9429744 -0.186107 -0.2794909 0.941939 -0.4286215 -0.5381696 0.7257115 -0.9996221 -0.02746379 0.001261174 -0.989127 -0.142121 -0.03780907 -0.9820913 -0.1755324 -0.06844753 -0.9663738 -0.2148892 -0.1412253 -0.9689636 -0.2200476 -0.1126445 -0.9396536 0.1702883 -0.2967373 -0.8738078 -0.3091813 -0.3753222 -0.9868553 0.01836186 -0.1605601 -0.4253793 -0.8578568 0.2883299 -0.5102624 -0.4965202 0.7022109 1 -2.58342e-5 1.44215e-5 1 -3.24289e-5 -8.12275e-5 1 -3.5736e-5 -4.62698e-5 1 4.67864e-5 -3.18626e-5 1 5.51339e-5 3.86785e-6 1 -2.27403e-5 7.58192e-5 1 2.61395e-5 -8.56408e-5 1 5.82643e-5 1.08882e-5 1 4.7193e-5 -2.4802e-5 1 -1.78987e-7 0 1 4.87979e-5 1.07553e-6 1 6.10988e-6 -2.28156e-5 1 -4.83112e-5 -2.17798e-5 1 -4.24321e-5 -4.70759e-5 1 -9.31693e-5 7.73163e-5 1 -1.62481e-5 1.35542e-5 1 3.42547e-5 3.95497e-5 1 7.27753e-6 4.34722e-5 1 -3.7348e-5 -7.43552e-5 1 2.10203e-5 2.22284e-5 1 1.04768e-4 1.09143e-4 1 -6.25802e-5 2.88145e-6 1 -6.59243e-5 -5.96507e-5 1 4.82004e-5 4.41911e-5</float_array>
          <technique_common>
            <accessor source="#Link6_002-mesh-normals-array" count="1079" stride="3">
              <param name="X" type="float"/>
              <param name="Y" type="float"/>
              <param name="Z" type="float"/>
            </accessor>
          </technique_common>
        </source>
        <vertices id="Link6_002-mesh-vertices">
          <input semantic="POSITION" source="#Link6_002-mesh-positions"/>
        </vertices>
        <triangles material="Material_005-material" count="1166">
          <input semantic="VERTEX" source="#Link6_002-mesh-vertices" offset="0"/>
          <input semantic="NORMAL" source="#Link6_002-mesh-normals" offset="1"/>
          <p>0 0 1 0 2 0 1 1 0 1 3 1 1 2 3 2 4 2 4 3 3 3 5 3 4 4 5 4 6 4 4 5 6 5 7 5 7 6 6 6 8 6 7 7 8 7 9 7 9 8 8 8 10 8 9 9 10 9 11 9 9 10 11 10 12 10 12 11 11 11 13 11 12 12 13 12 14 12 14 13 13 13 15 13 14 14 15 14 16 14 16 15 15 15 17 15 16 16 17 16 18 16 16 17 18 17 19 17 19 18 18 18 20 18 19 19 20 19 21 19 2 20 1 20 22 20 2 21 22 21 23 21 23 22 22 22 24 22 23 23 24 23 25 23 25 24 24 24 26 24 25 25 26 25 27 25 27 26 26 26 28 26 29 27 28 27 30 27 29 28 30 28 31 28 31 29 30 29 32 29 32 30 30 30 33 30 32 31 33 31 34 31 34 32 33 32 35 32 35 33 33 33 21 33 35 34 21 34 36 34 36 35 21 35 20 35 37 36 0 36 2 36 27 37 28 37 38 37 38 38 28 38 29 38 38 39 29 39 39 39 39 40 29 40 31 40 39 41 31 41 40 41 40 42 31 42 32 42 40 40 32 40 41 40 41 40 32 40 34 40 41 43 34 43 42 43 42 40 34 40 35 40 42 40 35 40 43 40 43 40 35 40 36 40 43 40 36 40 20 40 28 44 44 44 30 44 30 40 44 40 45 40 22 45 46 45 24 45 24 46 46 46 47 46 24 47 47 47 26 47 26 40 47 40 48 40 26 48 48 48 28 48 28 49 48 49 44 49 12 50 49 50 50 50 12 51 50 51 9 51 9 40 50 40 51 40 9 52 51 52 7 52 7 40 51 40 4 40 4 40 51 40 52 40 19 40 53 40 16 40 16 53 53 53 54 53 16 54 54 54 14 54 14 55 54 55 49 55 14 56 49 56 12 56 30 40 45 40 55 40 30 57 55 57 33 57 33 40 55 40 56 40 33 40 56 40 21 40 52 40 57 40 4 40 4 40 57 40 1 40 1 58 57 58 58 58 1 40 58 40 22 40 22 59 58 59 46 59 56 40 59 40 21 40 21 60 59 60 60 60 21 40 60 40 19 40 19 61 60 61 53 61 61 62 38 62 39 62 61 63 62 63 38 63 38 64 62 64 27 64 62 65 63 65 27 65 27 66 63 66 25 66 25 67 63 67 23 67 63 68 64 68 23 68 23 69 64 69 2 69 64 70 65 70 2 70 2 71 65 71 37 71 0 72 37 72 66 72 0 73 66 73 3 73 66 74 67 74 3 74 3 75 67 75 5 75 5 76 67 76 6 76 67 77 68 77 6 77 6 78 68 78 8 78 68 79 69 79 8 79 8 80 69 80 10 80 69 81 70 81 10 81 10 82 70 82 11 82 70 83 71 83 11 83 11 84 71 84 13 84 71 85 72 85 13 85 13 86 72 86 15 86 72 87 73 87 15 87 15 88 73 88 17 88 17 89 73 89 74 89 17 90 74 90 18 90 18 91 74 91 20 91 20 92 74 92 75 92 20 93 75 93 43 93 43 94 75 94 76 94 43 95 76 95 42 95 76 96 77 96 42 96 42 97 77 97 41 97 41 98 77 98 40 98 77 99 78 99 40 99 40 100 78 100 39 100 78 101 61 101 39 101 79 102 80 102 81 102 82 103 83 103 84 103 85 104 86 104 87 104 87 105 86 105 88 105 89 106 90 106 82 106 82 107 90 107 83 107 91 108 90 108 89 108 86 109 85 109 92 109 92 110 85 110 93 110 87 111 88 111 94 111 94 112 88 112 95 112 96 113 97 113 83 113 83 114 97 114 84 114 97 115 96 115 98 115 91 116 89 116 99 116 92 117 93 117 81 117 81 118 93 118 79 118 91 119 99 119 100 119 101 120 102 120 100 120 100 121 102 121 91 121 94 122 95 122 103 122 102 123 101 123 104 123 105 124 104 124 101 124 103 125 95 125 106 125 103 126 106 126 107 126 107 127 106 127 108 127 108 128 106 128 104 128 108 129 104 129 105 129 109 130 110 130 111 130 112 131 113 131 114 131 115 132 116 132 117 132 117 133 116 133 118 133 112 134 119 134 113 134 115 135 120 135 116 135 121 136 118 136 116 136 122 137 119 137 112 137 123 138 120 138 124 138 124 139 120 139 115 139 119 140 122 140 125 140 121 141 126 141 118 141 126 142 121 142 127 142 109 143 125 143 122 143 128 144 123 144 124 144 111 145 125 145 109 145 114 146 113 146 129 146 129 147 113 147 130 147 123 148 128 148 131 148 132 149 123 149 131 149 132 150 131 150 133 150 129 151 130 151 134 151 132 152 133 152 135 152 134 153 130 153 136 153 134 154 136 154 135 154 135 155 136 155 132 155 137 156 45 156 44 156 45 157 137 157 138 157 45 158 138 158 55 158 55 159 138 159 139 159 55 160 139 160 56 160 56 161 139 161 140 161 56 162 140 162 59 162 140 163 141 163 59 163 59 164 141 164 60 164 60 165 141 165 142 165 142 166 143 166 60 166 60 167 143 167 53 167 143 168 144 168 53 168 53 169 144 169 145 169 53 170 145 170 54 170 54 171 145 171 146 171 54 172 146 172 49 172 49 173 146 173 147 173 49 174 147 174 148 174 49 175 148 175 50 175 148 176 149 176 50 176 50 177 149 177 51 177 149 178 150 178 51 178 150 179 151 179 51 179 51 180 151 180 52 180 151 181 152 181 52 181 52 182 152 182 57 182 57 183 152 183 153 183 57 184 153 184 154 184 57 185 154 185 58 185 58 186 154 186 155 186 58 187 155 187 46 187 46 188 155 188 156 188 46 189 156 189 47 189 156 190 157 190 47 190 157 191 158 191 47 191 47 192 158 192 48 192 158 193 159 193 48 193 48 194 159 194 44 194 159 195 160 195 44 195 44 196 160 196 137 196 161 197 75 197 74 197 161 198 74 198 162 198 163 199 69 199 68 199 163 200 68 200 164 200 164 201 68 201 67 201 164 202 67 202 165 202 165 203 67 203 66 203 165 204 66 204 166 204 166 205 66 205 37 205 166 206 37 206 65 206 166 207 65 207 167 207 167 208 65 208 64 208 167 209 64 209 63 209 167 210 63 210 168 210 168 211 63 211 62 211 168 212 62 212 169 212 62 213 61 213 169 213 169 214 61 214 78 214 169 215 78 215 170 215 170 216 78 216 77 216 170 217 77 217 171 217 77 218 76 218 171 218 171 219 76 219 75 219 171 220 75 220 161 220 162 221 74 221 172 221 172 222 74 222 73 222 73 223 72 223 172 223 172 224 72 224 173 224 72 225 71 225 173 225 173 226 71 226 174 226 71 227 70 227 174 227 174 228 70 228 163 228 163 229 70 229 69 229 105 230 175 230 108 230 108 231 175 231 176 231 108 232 176 232 107 232 107 233 176 233 103 233 103 234 177 234 94 234 94 235 177 235 178 235 94 236 178 236 87 236 87 237 178 237 179 237 87 238 179 238 180 238 87 239 180 239 85 239 85 240 180 240 181 240 85 241 181 241 93 241 93 242 181 242 182 242 93 243 182 243 79 243 79 244 182 244 80 244 82 245 183 245 184 245 82 245 184 245 89 245 89 246 184 246 185 246 89 246 185 246 99 246 99 247 185 247 186 247 99 248 186 248 100 248 100 249 186 249 101 249 101 250 186 250 187 250 101 251 187 251 105 251 105 252 187 252 175 252 98 253 188 253 97 253 97 254 188 254 189 254 97 255 189 255 84 255 84 256 189 256 190 256 84 257 190 257 82 257 82 258 190 258 183 258 135 259 191 259 192 259 135 260 192 260 134 260 134 261 192 261 193 261 134 261 193 261 129 261 129 262 193 262 194 262 129 263 194 263 114 263 114 264 194 264 195 264 114 265 195 265 112 265 112 266 195 266 196 266 112 267 196 267 122 267 122 268 196 268 197 268 122 269 197 269 109 269 109 270 197 270 110 270 117 271 198 271 115 271 115 272 198 272 199 272 115 273 199 273 124 273 124 274 199 274 200 274 124 275 200 275 128 275 128 276 200 276 201 276 128 277 201 277 131 277 131 278 201 278 202 278 131 279 202 279 133 279 133 280 202 280 135 280 135 281 202 281 191 281 127 282 203 282 126 282 126 283 203 283 204 283 126 284 204 284 118 284 118 285 204 285 205 285 118 286 205 286 117 286 117 287 205 287 198 287 206 288 83 288 90 288 90 289 91 289 207 289 207 290 91 290 102 290 207 291 102 291 208 291 208 292 102 292 104 292 208 293 104 293 209 293 209 294 104 294 106 294 209 295 106 295 210 295 210 296 106 296 95 296 210 297 95 297 88 297 211 298 88 298 86 298 211 299 86 299 92 299 212 300 92 300 81 300 213 301 214 301 215 301 215 302 214 302 216 302 214 303 217 303 216 303 216 304 217 304 218 304 216 305 218 305 213 305 213 306 218 306 214 306 219 307 220 307 221 307 219 308 221 308 222 308 222 309 221 309 223 309 221 310 218 310 223 310 223 311 218 311 219 311 219 312 218 312 220 312 224 313 220 313 225 313 226 314 227 314 228 314 228 315 227 315 229 315 227 316 225 316 229 316 229 317 225 317 226 317 226 318 225 318 230 318 226 319 230 319 227 319 231 320 232 320 233 320 233 321 232 321 230 321 233 322 230 322 234 322 230 323 235 323 234 323 234 324 235 324 231 324 231 325 235 325 232 325 236 326 237 326 238 326 236 327 238 327 239 327 239 328 238 328 240 328 238 329 241 329 240 329 240 330 241 330 237 330 240 331 237 331 236 331 242 332 237 332 243 332 244 333 243 333 245 333 245 334 243 334 246 334 245 335 246 335 242 335 245 336 242 336 247 336 247 337 242 337 243 337 247 338 243 338 244 338 160 339 159 339 248 339 248 340 159 340 249 340 159 341 158 341 249 341 249 342 158 342 250 342 250 343 158 343 251 343 158 344 157 344 251 344 251 345 157 345 252 345 252 346 157 346 156 346 252 347 156 347 253 347 253 348 156 348 155 348 253 349 155 349 254 349 254 350 155 350 154 350 254 351 154 351 255 351 154 352 153 352 255 352 255 353 153 353 256 353 256 354 153 354 152 354 256 355 152 355 257 355 257 356 152 356 258 356 152 357 151 357 258 357 151 358 150 358 258 358 258 359 150 359 259 359 150 360 149 360 259 360 259 361 149 361 260 361 260 362 149 362 261 362 261 363 149 363 148 363 261 364 148 364 262 364 262 365 148 365 147 365 262 366 147 366 263 366 263 367 147 367 146 367 263 368 146 368 264 368 146 369 145 369 264 369 264 370 145 370 265 370 265 371 145 371 144 371 265 372 144 372 266 372 144 373 143 373 266 373 266 374 143 374 267 374 267 375 143 375 268 375 268 376 143 376 142 376 268 377 142 377 269 377 269 378 142 378 141 378 269 379 141 379 270 379 270 380 141 380 271 380 271 381 141 381 140 381 271 382 140 382 272 382 272 383 140 383 139 383 272 384 139 384 273 384 273 385 139 385 138 385 273 386 138 386 274 386 138 387 137 387 274 387 274 388 137 388 248 388 248 389 137 389 160 389 275 390 276 390 277 390 278 391 275 391 279 391 279 392 275 392 280 392 275 393 281 393 280 393 280 394 281 394 276 394 280 395 276 395 278 395 278 396 276 396 275 396 282 397 283 397 281 397 284 398 283 398 285 398 284 399 285 399 286 399 286 400 285 400 287 400 285 401 288 401 287 401 287 402 288 402 283 402 287 403 283 403 284 403 289 404 290 404 291 404 291 405 290 405 292 405 290 406 293 406 292 406 292 407 293 407 288 407 292 408 288 408 289 408 289 409 288 409 290 409 294 410 113 410 119 410 295 411 113 411 294 411 295 412 130 412 113 412 296 413 130 413 295 413 296 414 136 414 130 414 276 415 132 415 136 415 276 416 136 416 296 416 297 417 132 417 276 417 297 418 123 418 132 418 298 419 123 419 297 419 120 420 123 420 298 420 299 421 116 421 120 421 300 422 121 422 116 422 301 423 111 423 302 423 301 424 302 424 303 424 303 425 302 425 304 425 304 426 111 426 301 426 305 427 306 427 307 427 305 428 307 428 308 428 307 429 309 429 308 429 308 430 309 430 310 430 310 431 309 431 306 431 310 432 306 432 305 432 311 433 312 433 313 433 313 434 312 434 277 434 277 435 314 435 313 435 313 436 314 436 315 436 315 437 314 437 311 437 311 438 314 438 312 438 312 439 314 439 316 439 171 440 161 440 170 440 317 40 318 40 170 40 319 441 162 441 172 441 320 442 169 442 321 442 321 443 169 443 322 443 322 40 169 40 323 40 323 40 169 40 170 40 323 444 170 444 318 444 324 40 166 40 325 40 325 445 166 445 167 445 325 40 167 40 326 40 326 40 167 40 327 40 327 446 167 446 168 446 327 447 168 447 328 447 328 40 168 40 320 40 320 40 168 40 169 40 317 40 170 40 329 40 329 448 170 448 161 448 329 449 161 449 330 449 330 450 161 450 162 450 331 451 166 451 324 451 332 452 164 452 333 452 333 453 164 453 334 453 334 40 164 40 165 40 334 454 165 454 331 454 331 40 165 40 166 40 335 455 173 455 336 455 336 456 173 456 174 456 336 40 174 40 337 40 337 40 174 40 338 40 338 40 174 40 163 40 338 457 163 457 332 457 332 40 163 40 164 40 319 40 172 40 339 40 339 458 172 458 335 458 335 459 172 459 173 459 340 460 289 460 341 460 286 461 287 461 342 461 343 462 280 462 344 462 344 463 280 463 345 463 345 464 346 464 347 464 346 465 284 465 347 465 348 466 278 466 279 466 349 467 315 467 278 467 349 468 278 468 348 468 313 469 315 469 350 469 351 470 352 470 353 470 352 471 311 471 354 471 352 472 354 472 353 472 308 473 310 473 355 473 356 474 303 474 304 474 301 475 357 475 110 475 110 476 357 476 111 476 358 477 98 477 359 477 216 478 360 478 361 478 361 479 360 479 98 479 215 480 216 480 362 480 363 481 229 481 364 481 364 482 365 482 366 482 366 483 365 483 219 483 366 484 219 484 222 484 228 485 229 485 367 485 368 486 234 486 226 486 234 487 368 487 233 487 369 488 240 488 370 488 369 489 370 489 371 489 371 490 370 490 372 490 371 491 372 491 231 491 373 492 374 492 236 492 244 493 80 493 182 493 247 494 244 494 182 494 182 495 374 495 247 495 374 496 181 496 236 496 370 497 240 497 179 497 177 498 370 498 178 498 178 499 370 499 179 499 176 500 231 500 103 500 103 501 231 501 372 501 103 502 372 502 177 502 177 499 372 499 370 499 176 503 234 503 231 503 234 499 176 499 175 499 234 504 175 504 226 504 229 505 226 505 175 505 365 506 364 506 186 506 186 507 364 507 187 507 187 508 364 508 229 508 187 509 229 509 175 509 365 499 186 499 185 499 223 510 184 510 375 510 375 511 184 511 183 511 365 499 185 499 184 499 365 512 184 512 219 512 223 513 219 513 184 513 375 514 183 514 213 514 213 515 183 515 190 515 213 516 190 516 216 516 216 517 190 517 360 517 360 518 190 518 189 518 360 519 189 519 188 519 360 520 188 520 98 520 374 521 182 521 181 521 240 522 236 522 179 522 179 499 236 499 181 499 179 499 181 499 180 499 244 523 245 523 376 523 244 524 377 524 80 524 80 525 377 525 81 525 378 526 127 526 379 526 379 527 127 527 380 527 381 528 127 528 378 528 292 529 381 529 378 529 291 530 292 530 382 530 196 531 305 531 383 531 196 532 383 532 197 532 194 533 351 533 195 533 196 534 310 534 305 534 195 535 351 535 310 535 195 536 310 536 196 536 278 537 315 537 192 537 192 499 311 499 193 499 193 499 311 499 352 499 193 499 352 499 194 499 194 538 352 538 351 538 192 539 315 539 311 539 278 499 192 499 191 499 278 499 191 499 202 499 280 540 278 540 202 540 201 541 345 541 202 541 202 542 345 542 280 542 287 543 199 543 340 543 340 544 199 544 198 544 199 545 287 545 284 545 199 546 284 546 200 546 200 547 284 547 346 547 200 548 346 548 201 548 201 549 346 549 345 549 340 550 198 550 289 550 289 499 198 499 205 499 292 551 205 551 381 551 381 552 205 552 204 552 381 553 204 553 203 553 289 554 205 554 292 554 203 555 127 555 381 555 301 556 110 556 197 556 304 557 301 557 197 557 304 558 197 558 383 558 206 559 218 559 83 559 83 560 218 560 217 560 81 561 243 561 212 561 88 562 384 562 210 562 83 563 217 563 96 563 211 564 384 564 88 564 377 565 243 565 81 565 359 566 98 566 96 566 384 567 232 567 210 567 359 568 96 568 217 568 212 569 243 569 237 569 212 570 237 570 92 570 232 571 235 571 210 571 237 572 241 572 92 572 209 573 225 573 208 573 90 574 220 574 218 574 210 575 235 575 209 575 90 576 218 576 206 576 211 577 241 577 384 577 92 578 241 578 211 578 235 579 230 579 209 579 209 580 230 580 225 580 220 581 207 581 225 581 225 582 207 582 208 582 207 583 220 583 90 583 385 584 270 584 316 584 268 585 269 585 385 585 385 40 269 40 270 40 385 586 386 586 309 586 272 587 312 587 271 587 258 588 230 588 257 588 387 589 384 589 241 589 282 590 275 590 277 590 312 591 272 591 277 591 316 592 270 592 271 592 316 593 271 593 312 593 230 594 232 594 257 594 387 595 238 595 246 595 242 40 246 40 238 40 307 596 306 596 302 596 302 597 306 597 304 597 281 598 275 598 282 598 272 599 273 599 277 599 277 600 273 600 282 600 282 40 273 40 274 40 257 601 232 601 256 601 256 602 232 602 255 602 249 603 285 603 248 603 385 604 309 604 307 604 302 605 111 605 357 605 255 606 232 606 387 606 255 40 387 40 254 40 290 40 250 40 251 40 248 40 285 40 282 40 248 607 282 607 274 607 282 608 285 608 283 608 238 609 237 609 242 609 264 40 265 40 302 40 302 610 265 610 266 610 302 611 266 611 267 611 227 612 230 612 258 612 252 40 253 40 246 40 246 613 253 613 254 613 246 614 251 614 252 614 250 615 290 615 249 615 285 40 249 40 290 40 267 40 268 40 302 40 302 40 268 40 385 40 302 40 385 40 307 40 221 616 261 616 262 616 227 40 258 40 259 40 387 617 246 617 254 617 387 618 241 618 238 618 264 619 302 619 388 619 224 620 225 620 227 620 246 621 243 621 377 621 357 622 388 622 302 622 290 623 288 623 285 623 214 624 388 624 359 624 264 625 388 625 214 625 264 40 214 40 263 40 290 626 389 626 380 626 290 627 380 627 293 627 214 40 262 40 263 40 214 40 221 40 262 40 227 628 221 628 224 628 224 629 221 629 220 629 227 630 259 630 260 630 227 631 260 631 221 631 221 40 260 40 261 40 389 40 290 40 251 40 389 632 251 632 246 632 389 633 246 633 377 633 214 634 359 634 217 634 214 635 218 635 221 635 299 636 288 636 116 636 309 637 119 637 306 637 294 638 386 638 295 638 295 639 314 639 296 639 116 640 288 640 293 640 116 641 293 641 300 641 125 642 306 642 119 642 386 643 316 643 295 643 380 644 127 644 121 644 316 645 314 645 295 645 121 646 300 646 380 646 380 647 300 647 293 647 125 648 111 648 306 648 306 649 111 649 304 649 294 650 309 650 386 650 283 651 288 651 120 651 119 652 309 652 294 652 120 653 288 653 299 653 314 654 277 654 296 654 277 655 276 655 296 655 298 656 281 656 283 656 281 657 298 657 297 657 281 658 297 658 276 658 298 659 283 659 120 659 390 660 321 660 391 660 391 661 321 661 392 661 392 662 321 662 322 662 392 663 322 663 393 663 393 664 322 664 323 664 393 665 323 665 394 665 394 666 323 666 395 666 395 667 323 667 318 667 395 668 318 668 396 668 396 669 318 669 317 669 396 670 317 670 397 670 397 671 317 671 329 671 397 672 329 672 398 672 398 673 329 673 330 673 398 674 330 674 399 674 399 675 330 675 400 675 400 676 330 676 162 676 400 677 162 677 401 677 401 678 162 678 319 678 401 679 319 679 402 679 402 680 319 680 403 680 403 681 319 681 339 681 403 682 339 682 404 682 404 683 339 683 405 683 405 684 339 684 335 684 405 685 335 685 406 685 406 685 335 685 336 685 406 686 336 686 407 686 407 687 336 687 337 687 407 688 337 688 408 688 408 689 337 689 409 689 409 690 337 690 338 690 409 691 338 691 410 691 410 692 338 692 411 692 411 693 338 693 332 693 411 694 332 694 412 694 412 695 332 695 413 695 413 696 332 696 333 696 413 697 333 697 414 697 414 698 333 698 334 698 414 699 334 699 415 699 415 700 334 700 416 700 416 701 334 701 331 701 416 702 331 702 417 702 417 703 331 703 418 703 418 704 331 704 324 704 418 705 324 705 419 705 419 706 324 706 420 706 420 707 324 707 325 707 420 708 325 708 421 708 421 709 325 709 326 709 421 710 326 710 422 710 422 711 326 711 423 711 423 712 326 712 327 712 423 713 327 713 424 713 424 714 327 714 425 714 425 715 327 715 328 715 425 716 328 716 426 716 426 717 328 717 427 717 427 718 328 718 320 718 427 719 320 719 390 719 390 720 320 720 321 720 342 721 284 721 286 721 345 722 347 722 428 722 345 723 428 723 344 723 280 724 343 724 429 724 280 725 429 725 279 725 279 726 429 726 348 726 313 727 350 727 311 727 311 728 350 728 430 728 311 729 430 729 354 729 310 730 351 730 431 730 431 731 351 731 353 731 308 732 355 732 305 732 383 733 356 733 304 733 303 734 356 734 432 734 303 735 432 735 301 735 358 736 359 736 388 736 358 737 388 737 432 737 432 738 388 738 301 738 301 739 388 739 357 739 361 740 98 740 358 740 215 741 362 741 433 741 215 742 433 742 213 742 375 743 434 743 223 743 434 744 222 744 223 744 366 745 222 745 435 745 366 746 435 746 364 746 364 747 435 747 363 747 228 748 367 748 436 748 228 749 436 749 226 749 233 750 368 750 437 750 233 751 437 751 231 751 240 752 438 752 239 752 373 753 236 753 438 753 438 754 236 754 239 754 374 755 439 755 247 755 247 756 439 756 245 756 245 757 439 757 376 757 379 758 380 758 389 758 379 759 389 759 376 759 376 760 389 760 377 760 376 761 377 761 244 761 291 762 382 762 341 762 291 763 341 763 289 763 440 764 384 764 387 764 440 765 387 765 232 765 440 766 232 766 441 766 384 767 440 767 371 767 384 768 371 768 441 768 384 769 441 769 232 769 442 770 386 770 385 770 442 771 385 771 316 771 442 772 316 772 443 772 386 773 442 773 353 773 386 774 353 774 443 774 386 775 443 775 316 775 444 776 445 776 446 776 444 777 446 777 447 777 444 778 447 778 445 778 448 779 449 779 450 779 448 780 450 780 451 780 448 781 451 781 449 781 452 782 453 782 454 782 452 783 454 783 455 783 452 784 455 784 453 784 456 785 457 785 458 785 456 786 458 786 459 786 456 787 459 787 457 787 460 788 461 788 462 788 460 789 462 789 463 789 460 790 463 790 461 790 464 791 465 791 466 791 464 792 466 792 467 792 464 793 467 793 465 793 468 794 469 794 470 794 468 795 470 795 471 795 468 796 471 796 469 796 472 797 473 797 474 797 474 798 473 798 475 798 475 799 473 799 472 799 399 800 472 800 398 800 398 801 472 801 397 801 397 802 472 802 395 802 397 803 395 803 396 803 394 804 395 804 393 804 393 805 395 805 465 805 393 806 465 806 392 806 392 807 465 807 391 807 391 808 465 808 476 808 391 809 476 809 390 809 390 810 476 810 427 810 427 811 476 811 426 811 426 812 476 812 425 812 425 813 476 813 423 813 425 814 423 814 424 814 422 815 423 815 421 815 421 816 423 816 458 816 421 817 458 817 420 817 420 818 458 818 419 818 419 819 458 819 477 819 419 820 477 820 418 820 418 821 477 821 417 821 417 822 477 822 416 822 416 823 477 823 415 823 415 824 477 824 413 824 415 825 413 825 414 825 412 826 413 826 411 826 411 827 413 827 410 827 410 828 413 828 478 828 410 829 478 829 409 829 409 830 478 830 408 830 408 831 478 831 407 831 407 832 478 832 446 832 407 833 446 833 406 833 406 834 446 834 405 834 405 835 446 835 404 835 404 836 446 836 479 836 404 837 479 837 403 837 403 838 479 838 402 838 402 839 479 839 401 839 401 840 479 840 475 840 401 841 475 841 400 841 400 842 475 842 399 842 399 843 475 843 472 843 480 844 481 844 482 844 480 845 482 845 483 845 483 846 482 846 484 846 483 847 484 847 480 847 480 848 484 848 481 848 383 849 305 849 355 849 434 850 435 850 222 850 439 851 374 851 373 851 355 852 356 852 383 852 434 853 375 853 433 853 433 854 375 854 213 854 442 855 485 855 486 855 485 856 442 856 443 856 431 857 353 857 442 857 371 858 231 858 437 858 371 859 440 859 369 859 487 860 440 860 441 860 356 861 486 861 432 861 441 862 371 862 437 862 488 863 433 863 486 863 438 864 487 864 373 864 487 499 438 499 440 499 436 499 435 499 441 499 441 865 435 865 488 865 441 499 488 499 487 499 488 499 435 499 434 499 432 866 486 866 362 866 362 867 486 867 433 867 487 868 376 868 439 868 373 869 487 869 439 869 369 870 440 870 438 870 369 871 438 871 240 871 436 872 368 872 226 872 436 873 367 873 435 873 433 874 488 874 434 874 362 875 216 875 361 875 287 876 340 876 342 876 436 877 437 877 368 877 441 878 437 878 436 878 362 879 361 879 358 879 354 880 430 880 443 880 348 881 429 881 350 881 348 882 350 882 349 882 349 883 350 883 315 883 362 884 358 884 432 884 442 885 355 885 431 885 431 886 355 886 310 886 340 887 341 887 342 887 443 888 353 888 354 888 382 889 292 889 378 889 367 890 229 890 363 890 356 891 355 891 486 891 430 499 350 499 429 499 430 892 429 892 428 892 435 893 367 893 363 893 486 894 355 894 442 894 382 895 379 895 376 895 382 896 376 896 487 896 378 897 379 897 382 897 382 898 342 898 341 898 429 899 343 899 428 899 485 900 443 900 428 900 428 901 443 901 430 901 428 902 343 902 344 902 382 499 485 499 342 499 342 903 485 903 428 903 342 904 428 904 347 904 342 905 347 905 284 905 477 906 457 906 455 906 489 907 459 907 458 907 458 499 457 499 477 499 476 908 461 908 423 908 489 909 458 909 423 909 489 910 423 910 463 910 423 911 461 911 463 911 462 499 461 499 476 499 462 912 476 912 490 912 467 499 466 499 490 499 476 913 467 913 490 913 395 914 466 914 465 914 467 499 476 499 465 499 472 915 469 915 395 915 395 916 469 916 471 916 395 917 471 917 491 917 395 918 491 918 466 918 491 919 471 919 470 919 470 499 469 499 472 499 474 920 475 920 492 920 470 921 472 921 474 921 475 499 484 499 482 499 475 922 482 922 492 922 493 499 482 499 481 499 479 499 481 499 484 499 479 923 484 923 475 923 478 924 447 924 446 924 446 925 445 925 479 925 493 499 481 499 479 499 493 926 479 926 445 926 494 927 445 927 447 927 494 499 447 499 478 499 449 928 494 928 450 928 478 499 450 499 494 499 413 929 451 929 478 929 478 930 451 930 450 930 477 931 454 931 413 931 454 932 453 932 413 932 451 933 413 933 453 933 455 934 454 934 477 934 495 935 487 935 496 935 496 936 487 936 497 936 497 937 487 937 488 937 497 938 488 938 498 938 498 939 488 939 499 939 499 940 488 940 500 940 500 941 488 941 501 941 501 942 488 942 502 942 502 943 488 943 503 943 503 944 488 944 504 944 504 945 488 945 486 945 504 946 486 946 505 946 505 947 486 947 506 947 506 948 486 948 507 948 507 949 486 949 508 949 509 950 486 950 485 950 509 951 485 951 510 951 510 952 485 952 511 952 511 953 485 953 512 953 512 954 485 954 382 954 512 955 382 955 513 955 513 956 382 956 514 956 514 957 382 957 515 957 515 958 382 958 516 958 516 959 382 959 517 959 517 960 382 960 518 960 518 961 382 961 487 961 518 962 487 962 519 962 519 963 487 963 520 963 520 964 487 964 495 964 509 965 521 965 522 965 511 966 523 966 510 966 512 967 524 967 511 967 514 968 525 968 513 968 504 969 505 969 526 969 508 970 486 970 522 970 522 971 486 971 509 971 527 972 457 972 528 972 528 973 457 973 459 973 528 974 459 974 489 974 489 975 463 975 529 975 529 976 463 976 530 976 530 977 463 977 462 977 530 978 462 978 490 978 530 979 490 979 531 979 531 980 490 980 532 980 532 981 490 981 466 981 532 982 466 982 533 982 533 983 466 983 491 983 491 984 470 984 534 984 534 985 470 985 535 985 535 986 470 986 474 986 492 987 482 987 536 987 536 988 482 988 493 988 536 989 493 989 537 989 537 990 493 990 445 990 537 991 445 991 538 991 538 992 445 992 494 992 538 993 494 993 539 993 539 994 494 994 540 994 540 995 494 995 449 995 540 996 449 996 541 996 541 997 449 997 451 997 541 998 451 998 542 998 542 999 451 999 453 999 542 1000 453 1000 543 1000 543 1001 453 1001 455 1001 543 1002 455 1002 527 1002 527 1003 455 1003 457 1003 511 1004 524 1004 523 1004 513 1005 525 1005 512 1005 544 1006 492 1006 536 1006 492 1007 544 1007 474 1007 545 1008 491 1008 534 1008 491 1009 545 1009 533 1009 496 1010 497 1010 498 1010 498 1011 499 1011 500 1011 500 1012 501 1012 546 1012 546 1013 501 1013 502 1013 502 1014 503 1014 547 1014 547 1015 503 1015 504 1015 547 1016 504 1016 526 1016 547 1017 526 1017 505 1017 505 1018 506 1018 548 1018 548 1019 506 1019 507 1019 548 1020 507 1020 508 1020 508 1021 522 1021 549 1021 549 1022 522 1022 521 1022 549 1023 521 1023 509 1023 549 1024 509 1024 510 1024 510 1025 523 1025 550 1025 550 1026 523 1026 524 1026 524 1027 512 1027 525 1027 524 1028 525 1028 514 1028 516 1029 517 1029 518 1029 518 1030 519 1030 495 1030 495 1031 519 1031 520 1031 527 1032 551 1032 543 1032 543 1033 551 1033 552 1033 543 1034 552 1034 542 1034 542 1035 552 1035 541 1035 541 1036 552 1036 540 1036 540 1037 552 1037 539 1037 539 1038 552 1038 538 1038 538 1039 552 1039 537 1039 536 1040 537 1040 544 1040 544 1041 537 1041 553 1041 544 1042 553 1042 474 1042 474 1043 553 1043 535 1043 535 1044 553 1044 545 1044 545 1045 553 1045 551 1045 545 1046 551 1046 532 1046 532 1047 551 1047 531 1047 531 1048 551 1048 530 1048 530 1049 551 1049 529 1049 529 1050 551 1050 489 1050 489 1051 551 1051 528 1051 528 1052 551 1052 527 1052 533 1053 545 1053 532 1053 535 1054 545 1054 534 1054 554 1055 514 1055 515 1055 554 1056 515 1056 516 1056 516 1057 518 1057 554 1057 547 1058 537 1058 502 1058 502 1059 537 1059 552 1059 502 1060 552 1060 546 1060 546 1061 552 1061 500 1061 495 1062 496 1062 554 1062 554 1063 496 1063 552 1063 554 1064 552 1064 551 1064 500 1065 552 1065 498 1065 498 1066 552 1066 496 1066 554 1067 518 1067 495 1067 554 1068 551 1068 514 1068 508 1069 553 1069 548 1069 548 1070 553 1070 537 1070 548 1071 537 1071 505 1071 505 1072 537 1072 547 1072 514 1073 551 1073 524 1073 524 1074 551 1074 550 1074 550 1075 551 1075 510 1075 510 1076 551 1076 553 1076 510 1077 553 1077 549 1077 549 1078 553 1078 508 1078</p>
        </triangles>
      </mesh>
    </geometry>
  </library_geometries>
  <library_visual_scenes>
    <visual_scene id="Scene" name="Scene">
      <node id="Link6" name="Link6" type="NODE">
        <matrix sid="transform">1 0 0 0 0 1 0 0 0 0 1 0 0 0 0 1</matrix>
        <instance_geometry url="#Link6_002-mesh" name="Link6">
          <bind_material>
            <technique_common>
              <instance_material symbol="Material_005-material" target="#Material_005-material"/>
            </technique_common>
          </bind_material>
        </instance_geometry>
      </node>
    </visual_scene>
  </library_visual_scenes>
  <scene>
    <instance_visual_scene url="#Scene"/>
  </scene>
</COLLADA>