<?xml version="1.0" encoding="utf-8"?>
<COLLADA xmlns="http://www.collada.org/2005/11/COLLADASchema" version="1.4.1" xmlns:xsi="http://www.w3.org/2001/XMLSchema-instance">
  <asset>
    <contributor>
      <author>Blender User</author>
      <authoring_tool>Blender 2.82.7</authoring_tool>
    </contributor>
    <created>2024-02-04T11:58:16</created>
    <modified>2024-02-04T11:58:16</modified>
    <unit name="meter" meter="1"/>
    <up_axis>Z_UP</up_axis>
  </asset>
  <library_effects>
    <effect id="colour_abb_white_001-effect">
      <profile_COMMON>
        <technique sid="common">
          <lambert>
            <emission>
              <color sid="emission">0 0 0 1</color>
            </emission>
            <diffuse>
              <color sid="diffuse">0.7404 0.7404 0.7248001 1</color>
            </diffuse>
            <index_of_refraction>
              <float sid="ior">1</float>
            </index_of_refraction>
          </lambert>
        </technique>
      </profile_COMMON>
    </effect>
  </library_effects>
  <library_images/>
  <library_materials>
    <material id="colour_abb_white_001-material" name="colour_abb_white.001">
      <instance_effect url="#colour_abb_white_001-effect"/>
    </material>
  </library_materials>
  <library_geometries>
    <geometry id="BaseLink_001-mesh" name="BaseLink.001">
      <mesh>
        <source id="BaseLink_001-mesh-positions">
          <float_array id="BaseLink_001-mesh-positions-array" count="1032">0.3607135 0.00940299 0.07797944 0.3614985 0.008949756 0.06299996 0.3607135 0.03589272 0.07797944 0.3614985 0.05169826 0.06299996 0.355785 0.03096425 0.1720205 0.355 0.04519969 0.187 0.355785 0.01224845 0.1720205 0.355 0.01270169 0.187 -0.002410709 -0.3175801 0.06299996 0 -0.32 0.01699995 0.02347677 -0.3191376 0.01699995 0.02282315 -0.3102523 0.187 -0.01244038 -0.3108418 0.187 -0.01270025 -0.3173352 0.06299996 -0.047544 -0.3074361 0.187 -0.04853719 -0.3138583 0.06299996 -0.08203655 -0.300079 0.187 -0.0837503 -0.3063476 0.06299996 -0.1154747 -0.288865 0.187 -0.117887 -0.2948993 0.06299996 -0.1474287 -0.2739382 0.187 -0.1505085 -0.2796607 0.06299996 -0.1774878 -0.2554907 0.187 -0.1811955 -0.2608277 0.06299996 -0.2025799 -0.2360907 0.187 -0.2049716 -0.2425892 0.06299996 0.2974995 -0.1178731 0.01699995 0.2895307 -0.1137953 0.1869999 0.2764391 -0.1426844 0.187 0.05779331 -0.3056752 0.187 0.05944848 -0.3144294 0.01699995 0.09202069 -0.2971693 0.187 0.0946561 -0.3056799 0.01699995 0.1250654 -0.2848439 0.187 0.1286471 -0.2930015 0.01699995 0.1565026 -0.2688575 0.187 0.1609846 -0.2765573 0.01699995 0.1859283 -0.2494154 0.187 0.1912531 -0.2565584 0.01699995 0.2129643 -0.2267677 0.187 0.2190634 -0.2332621 0.01699995 0.2372631 -0.2012054 0.187 0.2440581 -0.2069677 0.01699995 0.2585124 -0.173057 0.187 0.2659159 -0.1780132 0.01699995 0.2843561 -0.1467707 0.01699995 -0.3827582 -0.235619 0.196 -0.5269604 -0.2419603 0.07499998 -0.2775892 -0.2425892 0.06299996 -0.53 -0.245 0.01699995 -0.28 -0.245 0.01699995 -0.328 -0.235619 0.196 -0.319 -0.2360907 0.187 -0.53 0.245 0.01699995 0.244058 0.2069679 0.01699995 -0.205 0.245 0.01699995 -0.205 0.32 0.01699995 -0.205 -0.245 0.01699995 -0.28 0.245 0.01699995 0 0.32 0.01699995 0.02347666 0.3191376 0.01699995 0.2190632 0.2332623 0.01699995 0.3383786 0.05410903 0.01699995 0.3221091 0.05410903 0.01699995 0.2974994 0.1178733 0.01699995 0.2843559 0.1467709 0.01699995 0.2659158 0.1780134 0.01699995 0.3221091 -0.05410903 0.01699995 0.3383786 -0.05410903 0.01699995 0.09465599 0.30568 0.01699995 0.128647 0.2930016 0.01699995 0.1609845 0.2765574 0.01699995 0.05944836 0.3144295 0.01699995 -0.205 -0.32 0.01699995 0.191253 0.2565585 0.01699995 0.344 -0.006350815 0.22 0.2731465 -0.04774272 0.22 0.2812026 -0.04953575 0.22 0.3055849 -0.04680567 0.22 0.3127049 -0.04347026 0.22 0.3206951 -0.0434702 0.2199997 0.355 -0.01270169 0.22 0.3325616 -0.0434705 0.22 0.366 -0.006350815 0.22 0.3784703 -0.04347026 0.22 0.366 0.006350815 0.22 0.3784703 0.04347026 0.22 0.355 0.01270169 0.22 0.3325616 0.0434705 0.22 0.344 0.006350815 0.22 0.3206951 0.0434702 0.2199997 0.3127049 0.04347026 0.22 0.2654951 0.04464894 0.22 0.2584569 0.04033863 0.22 0.253 0.03570711 0.22 0.3055849 0.04680567 0.22 0.2976458 0.04906076 0.22 0.2894438 0.04997915 0.22 0.2812026 0.04953575 0.22 0.2731465 0.04774272 0.22 0.2654951 -0.04464894 0.22 0.2584569 -0.04033863 0.22 0.253 -0.03570711 0.22 0.2894438 -0.04997915 0.22 0.2976458 -0.04906076 0.22 0.2796562 0.107465 0.1870001 0.3195744 0.04519969 0.187 0.301608 0.07323414 0.2046517 0.3110462 0.07863289 0.2035 0.2895306 0.1137955 0.1869999 0.09856778 0.1356669 0.187 0.1185773 0.1185773 0.187 0.09202057 0.2971693 0.187 0.2848944 0.1108232 0.187 0.276439 0.1426845 0.187 0.2796562 -0.1074648 0.1870001 0.1250652 0.284844 0.187 0.1565024 0.2688575 0.187 0.3195744 -0.04519969 0.187 0.3131579 -0.04519969 0.187 0.3061931 -0.0484246 0.187 0.2979794 -0.0507577 0.187 -0.1185773 -0.1185773 0.187 -0.1356669 -0.09856778 0.187 -0.149416 -0.07613128 0.187 -0.1594861 -0.05182015 0.187 -0.165629 -0.02623301 0.187 0.225 0.05159372 0.187 0.2512705 0.03642636 0.187 0.257435 0.04173386 0.187 0.2647167 0.0461933 0.187 0.2726327 0.04939413 0.187 0.2809674 0.05124914 0.187 0.2894937 0.05170786 0.187 0.2129641 0.2267678 0.187 0.1859281 0.2494155 0.187 0.2585123 0.1730572 0.187 0.237263 0.2012056 0.187 0.2848945 -0.110823 0.187 0.2894937 -0.05170786 0.187 0.2809674 -0.05124914 0.187 0.2726327 -0.04939413 0.187 0.1356669 0.09856778 0.187 0.149416 0.07613128 0.187 0.3131579 0.04519969 0.187 0.3061931 0.0484246 0.187 0.2979794 0.0507577 0.187 0.02623301 0.165629 0.187 0.05182015 0.1594861 0.187 0.07613128 0.149416 0.187 0.225 -0.05159372 0.187 0.165629 -0.02623301 0.187 0.1594861 -0.05182015 0.187 0.2512705 -0.03642636 0.187 0.257435 -0.04173386 0.187 0.2647167 -0.0461933 0.187 -0.1676936 0 0.187 -0.2025799 0.2360907 0.187 -0.319 0.2360907 0.187 -0.07613128 -0.149416 0.187 -0.05182015 -0.1594861 0.187 -0.02623301 -0.165629 0.187 0 -0.1676936 0.187 -0.165629 0.02623301 0.187 -0.1594861 0.05182015 0.187 -0.149416 0.07613128 0.187 0.0577932 0.3056752 0.187 0.02282303 0.3102523 0.187 0 0.1676936 0.187 -0.01244044 0.3108418 0.187 -0.02623301 0.165629 0.187 -0.04754406 0.3074361 0.187 -0.05182015 0.1594861 0.187 0.1594861 0.05182015 0.187 0.165629 0.02623301 0.187 0.1676936 0 0.187 0.09856778 -0.1356669 0.187 0.07613128 -0.149416 0.187 0.05182015 -0.1594861 0.187 0.02623301 -0.165629 0.187 -0.09856778 -0.1356669 0.187 -0.1356669 0.09856778 0.187 -0.1185773 0.1185773 0.187 -0.1774879 0.2554906 0.187 -0.09856778 0.1356669 0.187 -0.1474288 0.2739382 0.187 -0.07613128 0.149416 0.187 -0.1154748 0.288865 0.187 -0.08203661 0.300079 0.187 0.149416 -0.07613128 0.187 0.1356669 -0.09856778 0.187 0.1185773 -0.1185773 0.187 0.3110463 -0.07863277 0.2035 0.301608 -0.07323402 0.2046517 0.323 -0.05499994 0 0.39 -0.05499994 0 0.3800847 -0.04508471 0.1891946 0.355 -0.04519969 0.187 0.3614985 -0.05169826 0.06299996 0.3866983 -0.05169826 0.06299996 -0.1811955 0.2608277 0.06299996 -0.2049716 0.2425892 0.06299996 -0.04853725 0.3138583 0.06299996 -0.08375036 0.3063475 0.06299996 -0.117887 0.2948992 0.06299996 -0.1505085 0.2796607 0.06299996 -0.002410709 0.3175801 0.06299996 -0.01270031 0.3173352 0.06299996 0.323 0.05499994 0 0.344 0.006350815 0 0.39 0.05499994 0 0.355 0.01270169 0 0.344 -0.006350815 0 0.355 -0.01270169 0 0.366 -0.006350815 0 0.366 0.006350815 0 0.3866983 0.05169826 0.06299996 0.08061015 -0.08061015 0.2179999 0.09222793 -0.06700748 0.2179999 0.03522789 0.1084204 0.2179999 -0.03522789 -0.1084204 0.2179999 0.01783353 0.1125965 0.2179999 -0.1125965 -0.01783353 0.2179999 -0.1084204 -0.03522789 0.2179999 -0.1015747 -0.05175489 0.2179999 0.06700748 -0.09222793 0.2179999 0 0.114 0.2179999 -0.01783353 0.1125965 0.2179999 -0.03522789 0.1084204 0.2179999 -0.01783353 -0.1125965 0.2179999 0 -0.114 0.2179999 0.01783353 -0.1125965 0.2179999 -0.1084204 0.03522789 0.2179999 -0.1125965 0.01783353 0.2179999 -0.114 0 0.2179999 -0.09222793 -0.06700748 0.2179999 -0.08061015 -0.08061015 0.2179999 -0.05175489 -0.1015747 0.2179999 -0.06700748 -0.09222793 0.2179999 0.03522789 -0.1084204 0.2179999 0.05175489 -0.1015747 0.2179999 0.114 0 0.2179999 0.1125965 0.01783353 0.2179999 0.05175489 0.1015747 0.2179999 -0.05175489 0.1015747 0.2179999 -0.06700748 0.09222793 0.2179999 -0.08061015 0.08061015 0.2179999 -0.09222793 0.06700748 0.2179999 -0.1015747 0.05175489 0.2179999 0.1015747 -0.05175489 0.2179999 0.1084204 -0.03522789 0.2179999 0.1125965 -0.01783353 0.2179999 0.1084204 0.03522789 0.2179999 0.1015747 0.05175489 0.2179999 0.06700748 0.09222793 0.2179999 0.09222793 0.06700748 0.2179999 0.08061015 0.08061015 0.2179999 -0.1676936 0 0.187 -0.114 0 0.2179999 0.1676936 0 0.187 0.114 0 0.2179999 0.3800847 0.04508471 0.1891946 0.355785 -0.01224845 0.1720205 0.355 -0.01270169 0.187 0.355785 -0.03096425 0.1720205 0.3607135 -0.03589272 0.07797944 0.3607135 -0.00940299 0.07797944 0.3614985 -0.008949756 0.06299996 0.366 -0.006350815 0.06299996 0.366 0.006350815 0.06299996 0.366 0.006350815 0.1879624 0.366 -0.006350815 0.1879624 0.3140076 0.03096425 0.169831 0.3140076 -0.03096425 0.169831 0.3189361 0.03589272 0.07578998 0.3189361 -0.03589272 0.07578998 0.355 0.01270169 0.1719794 0.344 0.006350815 0.1714029 0.344 -0.006350815 0.1714029 0.355 -0.01270169 0.1719794 0.355 0.01270169 0.07767999 0.344 0.006350815 0.07710349 0.344 -0.006350815 0.07710349 0.355 -0.01270169 0.07767999 0.2521353 -0.03606677 0.2035 0.2521353 0.03606677 0.2035 0.239 -0.04365038 0.2035 0.239 0.04365038 0.2035 -0.2775892 0.2425892 0.06299996 -0.328 0.235619 0.196 -0.3827582 0.235619 0.196 -0.5269604 0.2419603 0.07499998 -0.5155492 0.205619 0.1080724 -0.5155492 -0.205619 0.1080724 -0.4173097 0.205619 0.1905052 -0.4173097 -0.205619 0.1905052 -0.5212548 -0.2237896 0.09153622 -0.5212548 0.2237896 0.09153622 -0.4000339 -0.220619 0.1932526 -0.4000339 0.220619 0.1932526 -0.002410709 0.3175892 0.06299996 -0.2584989 0.3175892 0.06299996 -0.245 0.2977017 0.06299996 -0.234 0.2913509 0.06299996 -0.256 0.2913509 0.06299996 -0.2775892 0.2984989 0.06299996 -0.256 0.2786492 0.06299996 -0.245 0.2722983 0.06299996 -0.234 0.2786492 0.06299996 -0.2594975 0.32 0.01699995 -0.28 0.2994975 0.01699995 -0.280891 0.245 0 -0.280891 0.2998665 0 -0.205 0.245 0 -0.205 0.3208909 0 -0.2598665 0.3208909 0 -0.256 0.2913509 0 -0.256 0.2786492 0 -0.245 0.2722983 0 -0.234 0.2786492 0 -0.234 0.2913509 0 -0.245 0.2977017 0 -0.002410709 -0.3175892 0.06299996 -0.256 -0.2786492 0.06299996 -0.245 -0.2722983 0.06299996 -0.234 -0.2913509 0.06299996 -0.245 -0.2977017 0.06299996 -0.256 -0.2913509 0.06299996 -0.2775892 -0.2984989 0.06299996 -0.2584989 -0.3175892 0.06299996 -0.234 -0.2786492 0.06299996 -0.28 -0.2994975 0.01699995 -0.2594975 -0.32 0.01699995 -0.2598665 -0.3208909 0 -0.280891 -0.2998665 0 -0.280891 -0.245 0 -0.205 -0.245 0 -0.205 -0.3208909 0 -0.234 -0.2913509 0 -0.234 -0.2786492 0 -0.245 -0.2722983 0 -0.256 -0.2786492 0 -0.256 -0.2913509 0 -0.245 -0.2977017 0</float_array>
          <technique_common>
            <accessor source="#BaseLink_001-mesh-positions-array" count="344" stride="3">
              <param name="X" type="float"/>
              <param name="Y" type="float"/>
              <param name="Z" type="float"/>
            </accessor>
          </technique_common>
        </source>
        <source id="BaseLink_001-mesh-normals">
          <float_array id="BaseLink_001-mesh-normals-array" count="1644">0.9986296 0 0.05233681 0.9986295 0 0.05233687 0.9986296 -5.26734e-6 0.05233573 0.9986295 0 0.05233603 0.9986295 0 0.05233681 0.9986295 0 0.05233675 0.03665202 -0.9978457 0.0544123 0.0166915 -0.9984945 0.05225247 -0.0964328 -0.993967 0.05225247 -0.09643268 -0.9939671 0.05225139 -0.2083192 -0.9766642 0.05225241 -0.2083185 -0.9766643 0.05225163 -0.3175265 -0.9468087 0.05225288 -0.3175268 -0.9468087 0.05225181 -0.4226537 -0.9047838 0.05225163 -0.4226537 -0.9047838 0.05225253 -0.5223482 -0.85113 0.05225163 -0.5223484 -0.8511299 0.05225217 -0.6108222 -0.7900409 0.05226814 -0.6077815 -0.7923172 0.05324721 0.9095816 -0.4121926 0.05252391 -0.0237472 -0.997681 0.06378668 0.0328691 -0.9980907 0.05229359 0.1296023 -0.9901884 0.05225157 0.1296028 -0.9901883 0.05225265 0.2408466 -0.9691557 0.05225223 0.2408467 -0.9691557 0.05225175 0.3489956 -0.9356666 0.05225193 0.3489955 -0.9356666 0.05225181 0.4526594 -0.8901513 0.05225187 0.4526593 -0.8901514 0.05225211 0.5505051 -0.833195 0.05225193 0.5505053 -0.8331949 0.05225205 0.641275 -0.7655301 0.05225223 0.6412745 -0.7655304 0.05225193 0.7238029 -0.6880255 0.05225205 0.7238029 -0.6880255 0.05225193 0.7970278 -0.601678 0.05225211 0.7970276 -0.6016783 0.05225193 0.860008 -0.5075984 0.05225199 0.8600076 -0.5075989 0.05225187 0.9090257 -0.4134491 0.05227166 0 -0.9986296 0.05233573 0 -0.9986295 0.05233591 0 -0.9986295 0.05233621 0 -0.9986296 0.05233538 0 -0.9986296 0.05233573 0 -0.9986296 0.05233579 0 -0.9986295 0.05233615 0 0 -1 0 0 -1 0 0 -1 -7.81475e-7 0 -1 -3.90742e-7 0 -1 0 0 -1 0 0 -1 0 0 -1 0 0 -1 0 0 -1 0 0 -1 0 0 -1 0 0 -1 0 0 -1 0 0 -1 -1.30803e-7 0 -1 -3.79205e-7 0 1 0 0 1 2.56232e-5 -2.35847e-5 1 -1.67408e-6 -4.41955e-6 1 -2.5099e-5 2.07361e-5 1 -9.50551e-6 4.18245e-6 1 2.01117e-6 5.45216e-7 1 1.91036e-6 0 1 1.10765e-6 -1.23796e-6 1 3.87278e-6 -1.70402e-6 1 -2.50336e-5 -9.74614e-6 1 2.56232e-5 2.35847e-5 1 -1.53196e-6 0 1 -1.20086e-6 0 1 -2.97805e-6 0 1 6.51683e-7 0 1 -1.40098e-6 0 1 4.13311e-7 0 1 -9.55932e-6 0 1 -0.8418514 -0.5397093 3.04245e-4 -0.8418511 -0.5397098 3.04637e-4 0.8406966 0.5389716 0.05233573 0.8406972 0.5389704 0.05233591 0.8406971 0.5389707 0.05233591 1.61643e-5 3.64467e-6 1 -4.70835e-7 -9.95751e-7 1 0 9.9575e-7 1 0 1.20698e-6 1 0 1.91454e-6 1 -4.64774e-6 2.54978e-6 1 8.25588e-7 2.31464e-6 1 -5.49111e-7 0 1 9.746e-7 0 1 -1.60774e-6 0 1 1.68015e-6 0 1 4.74668e-7 0 1 -2.86821e-6 0 1 1.78783e-6 0 1 -2.43711e-6 -1.76069e-6 1 3.58409e-6 -2.10962e-6 1 -9.39975e-7 -2.11791e-6 1 1.31651e-5 1.0101e-5 1 1.62908e-6 1.87921e-6 1 5.93267e-7 1.48969e-6 1 -3.21249e-6 0 1 2.85502e-6 0 1 1.61644e-5 -3.64469e-6 1 0 -1.20698e-6 1 1.38429e-6 -1.48969e-6 1 1.40798e-5 -1.11474e-5 1 -6.18562e-7 0 1 9.51675e-7 0 1 0 2.1811e-6 1 -9.3998e-7 2.11792e-6 1 -2.17022e-6 2.18696e-6 1 7.0329e-7 0 1 0 0 1 4.72881e-7 0 1 0 -2.2644e-6 1 0 -2.31461e-6 1 0 -2.18109e-6 1 -1.24108e-7 0 1 2.63567e-7 0 1 -1.84786e-7 0 1 0 0 1 5.31196e-6 0 1 -3.75096e-6 0 1 1.92471e-6 0 1 -2.77075e-7 0 1 1.76104e-7 0 1 -1.61351e-7 0 1 2.10442e-7 0 1 3.04039e-7 0 1 5.78518e-7 0 1 -1.24108e-7 0 1 0 0 1 -1.99822e-7 0 1 0 0 1 0 0 1 1.84668e-7 0 1 -1.09822e-6 0 1 -1.26226e-7 0 1 8.13685e-7 0 1 -8.70088e-7 0 1 -2.46765e-7 0 1 1.22984e-7 0 1 4.74818e-7 0 1 -2.77102e-6 0 1 1.04486e-6 0 1 0 0.9986295 0.05233597 5.8288e-6 0.9986295 0.05233752 0.8406963 -0.538972 0.05233597 0.8406968 -0.5389712 0.05233591 0.8406966 -0.5389716 0.05233579 -0.8418513 0.5397095 3.0458e-4 -0.8418499 0.5397118 3.05316e-4 0 -0.9986295 0.05233591 0 -0.9986296 0.05233573 0 -0.9986296 0.05233585 4.68557e-6 -0.9986297 0.05233252 1.05032e-5 -0.9986295 0.05233639 2.06222e-6 -0.9986296 0.05233496 0 -0.9986296 0.05233609 0 -0.9986296 0.05233597 -0.607782 0.7923167 0.05324703 -0.09643363 0.9939669 0.0522527 -0.2083186 0.9766643 0.05225235 -0.2083185 0.9766644 0.05225181 -0.317527 0.9468086 0.05225235 -0.3175274 0.9468085 0.05225205 -0.4226531 0.9047839 0.05225235 -0.4226537 0.9047838 0.05225187 -0.5223484 0.8511299 0.05225193 -0.5223482 0.85113 0.05225235 -0.610822 0.7900409 0.0522682 0.01668846 0.9983137 0.05559891 -0.02376288 0.9983472 0.05232912 -0.09643352 0.993967 0.05225151 0.0366522 0.9978458 0.05441164 0.03286927 0.9980908 0.05229377 0.1296021 0.9901885 0.05225151 0.1296016 0.9901884 0.05225259 0.2408459 0.9691557 0.05225241 0.2408466 0.9691557 0.05225163 0.3489958 0.9356665 0.05225181 0.3489951 0.9356667 0.05225229 0.4526584 0.8901517 0.05225175 0.4526587 0.8901516 0.05225223 0.550505 0.833195 0.05225241 0.5505049 0.8331952 0.05225211 0.6412743 0.7655307 0.05225211 0.6412745 0.7655305 0.05225193 0.7238023 0.6880261 0.05225211 0.7238016 0.6880269 0.05225193 0.7970268 0.6016795 0.05225193 0.7970277 0.6016783 0.05225229 0.8600074 0.5075993 0.05225205 0.8600083 0.5075978 0.05225211 0.9090251 0.4134503 0.05227166 0.9095809 0.412194 0.05252379 0 0 -1 0 0 -1 0 0 -1 0 0 -1 0 0 -1 0 0 -1 0 0 -1 0 0 -1 0 0 -1 0 0 -1 0.9986296 0 0.05233579 0.9986296 0 0.05233579 -2.64822e-6 0 1 -4.58098e-7 0 1 2.62863e-6 0 1 1.85523e-6 0 1 -1.44141e-6 0 1 4.93832e-7 0 1 -1.40592e-6 0 1 1.44141e-6 0 1 -1.98892e-6 0 1 -2.97402e-6 0 1 1.58267e-6 0 1 9.30202e-6 0 1 1.36435e-6 0 1 -1.38695e-7 0 1 -2.079e-6 0 1 1.38695e-7 0 1 3.00566e-7 0 1 2.64822e-6 0 1 -3.7118e-7 0 1 8.4935e-7 0 1 -8.4935e-7 0 1 1.98892e-6 0 1 -2.99085e-7 0 1 -2.62864e-6 0 1 3.86185e-6 0 1 6.33066e-6 0 1 -6.25274e-6 0 1 9.30211e-6 0 1 -0.1169935 -0.487311 0.8653557 -0.1169937 -0.4873111 0.8653557 -0.1917839 -0.4630097 0.8653561 -0.1917856 -0.4630095 0.8653557 -0.2618543 -0.4273075 0.8653558 -0.2618551 -0.4273072 0.8653557 -0.3254758 -0.381084 0.8653558 -0.3254753 -0.3810832 0.8653563 -0.3810834 -0.3254764 0.8653557 -0.3810835 -0.3254761 0.8653559 -0.4273076 -0.2618545 0.8653557 -0.4273075 -0.2618542 0.8653559 -0.4630094 -0.191785 0.8653559 -0.4630094 -0.191785 0.8653559 -0.4873111 -0.116993 0.8653559 -0.4873111 -0.1169928 0.8653557 -0.4996132 -0.03932052 0.8653558 -0.4996132 -0.03932052 0.8653559 -0.4996132 0.03932052 0.8653557 -0.4996131 0.03932052 0.8653558 -0.4873116 0.1169929 0.8653556 -0.4873108 0.1169929 0.865356 -0.4630097 0.1917849 0.8653557 -0.4630091 0.191785 0.8653561 -0.4273075 0.2618543 0.8653559 -0.4273078 0.2618544 0.8653557 -0.3810834 0.3254758 0.865356 -0.3810836 0.3254769 0.8653556 -0.3254767 0.3810834 0.8653557 -0.3254749 0.381084 0.8653562 -0.2618538 0.4273074 0.8653561 -0.2618551 0.4273076 0.8653555 -0.1917849 0.4630094 0.8653559 -0.1917839 0.4630098 0.8653559 -0.1169935 0.4873111 0.8653557 -0.1169937 0.487311 0.8653557 -0.03931939 0.4996134 0.8653557 -0.03932046 0.4996132 0.8653558 0.03931939 0.4996134 0.8653557 0.03932046 0.4996131 0.8653559 0.1169935 0.487311 0.8653557 0.1169937 0.4873111 0.8653557 0.1917839 0.4630097 0.8653561 0.1917856 0.4630095 0.8653557 0.2618543 0.4273075 0.8653558 0.2618551 0.4273072 0.8653557 0.3254758 0.381084 0.8653558 0.3254753 0.3810832 0.8653563 0.3810834 0.3254764 0.8653557 0.3810835 0.3254761 0.8653559 0.4273076 0.2618545 0.8653557 0.4273075 0.2618542 0.8653559 0.4630094 0.191785 0.8653559 0.4630094 0.191785 0.8653559 0.4873111 0.116993 0.8653559 0.4873111 0.1169928 0.8653557 0.4996132 0.03932052 0.8653558 0.4996132 0.03932052 0.8653559 0.4996132 -0.03932052 0.8653557 0.4996131 -0.03932052 0.8653558 0.4873116 -0.1169929 0.8653556 0.4873108 -0.1169929 0.865356 0.4630097 -0.1917849 0.8653557 0.4630091 -0.191785 0.8653561 0.4273075 -0.2618543 0.8653559 0.4273078 -0.2618544 0.8653557 0.3810834 -0.3254758 0.865356 0.3810836 -0.3254769 0.8653556 0.3254767 -0.3810834 0.8653557 0.3254749 -0.381084 0.8653562 0.2618538 -0.4273074 0.8653561 0.2618551 -0.4273076 0.8653555 0.1917849 -0.4630094 0.8653559 0.1917839 -0.4630098 0.8653559 0.1169935 -0.4873111 0.8653557 0.1169937 -0.487311 0.8653557 0.03931939 -0.4996134 0.8653557 0.03932046 -0.4996132 0.8653558 -0.03931939 -0.4996134 0.8653557 -0.03932046 -0.4996131 0.8653559 5.73183e-6 -0.9986295 0.05233752 0 -0.9986295 0.05233591 0 0.9986296 0.05233603 0 0.9986296 0.05233502 0 0.9986296 0.05233603 0 0.9986295 0.05233591 0 0.9986296 0.05233567 8.47335e-6 0.9986296 0.05233526 4.63941e-7 0.9986299 0.0523293 4.69057e-6 0.9986296 0.05233633 -0.9986295 0 -0.05233639 0.9986296 0 0.05233526 0.9986296 0 0.05233538 0.9986295 0 0.05233669 0.9986295 0 0.05233675 0.9986296 0 0.05233579 0.9986295 3.99473e-6 0.05233597 0.9986296 0 0.05233675 0.08715409 0 -0.9961948 0.08715504 3.5748e-7 -0.9961948 0.08715617 0 -0.9961947 0.0871548 0 -0.9961948 0.08715331 -6.74882e-7 -0.9961949 0.08715575 0 -0.9961948 0.9986296 0 0.05233609 0.9986295 0 0.05233609 0.002735257 -0.9986333 -0.05219286 0.002735257 -0.9986333 -0.05219274 0.05227923 0 -0.9986326 0.05233561 -3.04748e-7 -0.9986296 0.05233752 0 -0.9986295 0.05233609 0 -0.9986296 0.05233651 0 -0.9986295 0.05233585 1.69587e-7 -0.9986296 0.05233889 1.4836e-7 -0.9986294 0.002735257 0.9986333 -0.05219286 0.002735257 0.9986333 -0.05219274 -0.05233401 0 0.9986296 -0.05233699 -5.31297e-7 0.9986295 -0.05233556 0 0.9986296 -0.05233711 0 0.9986295 -0.05233603 0 0.9986296 -0.05233478 -2.4013e-7 0.9986296 -0.05233621 2.39984e-7 0.9986295 -0.6516305 -0.756844 0.05064749 -0.6516373 -0.756838 0.05064696 0.4195781 -0.9061562 0.05324792 0.4236336 -0.9043299 0.0521748 0.2728661 -0.9606371 0.05215799 0.2728678 -0.9606366 0.05215805 0.1111235 -0.9924371 0.0521577 0.1111244 -0.9924368 0.05215787 -0.05364704 -0.9971969 0.05215799 -0.0536465 -0.9971969 0.05215805 -0.2169538 -0.9747875 0.05215764 -0.2169572 -0.9747867 0.05215853 -0.3743487 -0.92582 0.0521571 -0.3743558 -0.9258171 0.05215853 -0.5215482 -0.8516262 0.0521574 -0.5215505 -0.8516247 0.05215811 -0.6462064 -0.7613752 0.05220222 -0.6462646 0.7614431 0.05046492 -0.6516305 0.756844 0.05064749 -0.6490702 0.7589364 0.05218821 -0.5215512 0.8516244 0.05215829 -0.5215478 0.8516265 0.05215716 -0.3743557 0.9258171 0.05215823 -0.3743487 0.92582 0.05215734 -0.2169567 0.9747868 0.05215847 -0.2169543 0.9747874 0.0521574 -0.05364644 0.9971969 0.05215781 -0.0536471 0.9971969 0.05215823 0.1111242 0.9924369 0.05215799 0.1111236 0.992437 0.05215752 0.2728661 0.9606372 0.05215775 0.272868 0.9606366 0.05215823 0.419604 0.9062055 0.05219233 0.4236081 0.9042817 0.05320525 -0.7625097 0 0.646977 -0.7625086 0 0.6469781 -0.7625097 0 0.646977 -0.7625082 0 0.6469787 0.4999857 -0.8660027 -0.007327675 0.4999858 -0.8660026 -0.007327198 0.4999866 -0.8660022 -0.007328152 0.4999857 0.8660027 -0.007327675 0.4999852 0.866003 -0.007327914 0.499987 0.866002 -0.007327735 0 0.9986295 0.05233621 0 0.9986296 0.05233603 0 0.9986296 0.05233579 4.69215e-7 0.9986295 0.05233681 0 0.9986296 0.05233561 0 0.9986296 0.05233579 0 0.9986296 0.05233579 -0.9986296 0 0.05233502 -0.9986296 0 0.05233502 0.7071055 0 0.7071081 0.7071064 0 0.7071072 -0.2005846 -0.312903 0.9283629 -0.2148833 -0.3352226 0.9173065 -0.1072213 -0.3831518 0.9174413 -0.1152774 -0.3958684 0.9110431 -3.23298e-5 -0.4247893 0.9052923 -0.2148839 0.3352168 0.9173083 -0.2005832 0.3129008 0.9283639 -0.1072211 0.3831509 0.9174416 -0.1000823 0.3718311 0.9228896 -3.28105e-5 0.4582974 0.888799 -0.6427876 0 0.7660444 -0.6427878 0 0.7660444 -0.9453123 0 0.3261669 -0.9453122 0 0.3261672 -0.9453122 0 0.3261669 -0.9453122 0 0.3261672 -0.5609612 -0.4538992 0.6923136 -0.5462342 -0.5069817 0.6667817 -0.5671626 -0.4497885 0.6899399 -0.5511872 -0.5144944 0.6568777 -0.5428903 0.5019379 0.6732967 -0.5671626 0.449789 0.6899395 -0.5462366 0.5069769 0.6667835 -0.5760051 0.4438438 0.6864553 -0.1570568 0 0.9875896 -0.1570585 0 0.9875894 -0.1570594 0 0.9875892 -0.1570609 0 0.987589 0.9986363 0 0.0522077 -4.37539e-7 0 1 -1.9389e-7 0 1 0 0 1 4.24404e-7 0 1 -4.36203e-7 0 1 1.20567e-7 0 1 0 0.9986296 0.05233496 0 0.9986296 0.05233663 0 0.9986296 0.05233579 -0.7061382 0.7061372 0.05233687 -0.7061372 0.7061384 0.05233502 -0.9986295 0 0.05233615 -0.9986295 0 0.05233615 -0.9986296 0 0.05233645 -0.9986295 0 0.05233639 0 -1 0 1 0 0 0 0.9986295 0.05233687 0 0.9986295 0.052338 -0.7061385 0.7061369 0.05233681 -0.7061376 0.706138 0.05233508 0 0 -1 0 0 -1 0 0 -1 0 0 -1 0 0 -1 0 0 -1 0 0 -1 0 0 -1 0 0 -1 0 0 -1 0 0 -1 0 0 1 1.34903e-7 0 1 3.65305e-7 0 1 0 0 1 2.42926e-6 0 1 0 0 1 4.38157e-7 0 1 -0.9986295 0 0.05233621 -0.7061375 -0.706138 0.05233609 -0.7061378 -0.7061376 0.05233585 0 -0.9986295 0.05233663 0 -0.9986296 0.05233496 0 -0.9986296 0.05233651 -0.7061376 -0.706138 0.05233508 -0.7061385 -0.7061369 0.05233758 -0.9986296 0 0.05233639 0 1 0 0 -0.9986295 0.052338 0 -0.9986295 0.05233597 0 0 -1 0 0 -1 0 0 -1 0 0 -1 0 0 -1 0 0 -1 0 0 -1 0 0 -1 0 0 -1 0 0 -1 0 0 -1 -0.5000002 0.8660253 -4.03824e-7 -0.4999938 0.8660292 0 -0.5000016 0.8660245 0 -0.5000015 0.8660246 0 0.5000009 0.866025 0 0.500001 0.8660248 0 0.5000013 -0.8660247 0 0.5000007 -0.8660252 0 -0.5 -0.8660254 -4.40536e-7 -0.5000015 -0.8660246 0 -0.5000036 -0.8660234 0 -0.4999975 -0.8660268 0 -1 0 0 -0.4999972 -0.8660271 0 -0.5000006 -0.8660252 0 -0.499979 -0.8660376 0 0.5000006 -0.8660252 0 0.4999997 -0.8660258 0 0.5000002 -0.8660254 0 0.4999999 0.8660255 0 0.5000002 0.8660254 0 0.5000011 0.8660249 0 -0.5000002 0.8660254 0 -0.4999976 0.8660268 0 -0.499979 0.8660376 0 0.4999991 -0.866026 0 0.5000008 0.866025 0 -0.5000008 0.866025 0 -0.4999991 -0.866026 0 0.5000008 -0.866025 0 0.4999991 0.866026 0 -0.4999991 0.866026 0 -0.5000008 -0.866025 0</float_array>
          <technique_common>
            <accessor source="#BaseLink_001-mesh-normals-array" count="548" stride="3">
              <param name="X" type="float"/>
              <param name="Y" type="float"/>
              <param name="Z" type="float"/>
            </accessor>
          </technique_common>
        </source>
        <vertices id="BaseLink_001-mesh-vertices">
          <input semantic="POSITION" source="#BaseLink_001-mesh-positions"/>
        </vertices>
        <triangles material="colour_abb_white_001-material" count="692">
          <input semantic="VERTEX" source="#BaseLink_001-mesh-vertices" offset="0"/>
          <input semantic="NORMAL" source="#BaseLink_001-mesh-normals" offset="1"/>
          <p>0 0 1 0 2 0 2 1 1 1 3 1 2 2 3 2 4 2 4 3 3 3 5 3 4 4 5 4 6 4 6 5 5 5 7 5 8 6 9 6 10 6 11 7 12 7 13 7 13 8 12 8 14 8 13 9 14 9 15 9 15 10 14 10 16 10 15 11 16 11 17 11 17 12 16 12 18 12 17 13 18 13 19 13 19 14 18 14 20 14 19 15 20 15 21 15 21 16 20 16 22 16 21 17 22 17 23 17 23 18 22 18 24 18 23 19 24 19 25 19 26 20 27 20 28 20 13 21 8 21 11 21 11 22 8 22 10 22 11 23 10 23 29 23 29 24 10 24 30 24 29 25 30 25 31 25 31 26 30 26 32 26 31 27 32 27 33 27 33 28 32 28 34 28 33 29 34 29 35 29 35 30 34 30 36 30 35 31 36 31 37 31 37 32 36 32 38 32 37 33 38 33 39 33 39 34 38 34 40 34 39 35 40 35 41 35 41 36 40 36 42 36 41 37 42 37 43 37 43 38 42 38 44 38 43 39 44 39 28 39 28 40 44 40 45 40 28 41 45 41 26 41 46 42 47 42 48 42 48 43 47 43 49 43 48 44 49 44 50 44 51 45 46 45 52 45 52 46 46 46 48 46 52 47 48 47 24 47 24 48 48 48 25 48 50 49 49 49 53 49 54 50 55 50 56 50 54 49 57 49 55 49 55 49 57 49 50 49 55 49 50 49 58 49 58 49 50 49 53 49 56 49 59 49 54 49 54 51 59 51 60 51 54 49 60 49 61 49 62 49 63 49 64 49 64 49 63 49 54 49 64 49 54 49 65 49 65 52 54 52 66 52 67 49 68 49 26 49 69 53 70 53 71 53 44 54 42 54 30 54 69 49 71 49 72 49 67 49 30 49 63 49 63 55 30 55 10 55 63 49 10 49 54 49 54 56 10 56 9 56 54 57 9 57 57 57 57 49 9 49 73 49 67 49 26 49 30 49 30 58 26 58 45 58 30 59 45 59 44 59 72 49 71 49 60 49 60 60 71 60 74 60 60 61 74 61 61 61 42 62 40 62 30 62 30 63 40 63 38 63 30 49 38 49 32 49 32 64 38 64 36 64 32 49 36 49 34 49 75 65 76 65 77 65 78 66 79 66 75 66 75 67 79 67 80 67 75 68 80 68 81 68 81 69 80 69 82 69 81 70 82 70 83 70 83 71 82 71 84 71 83 66 84 66 85 66 85 66 84 66 86 66 85 72 86 72 87 72 87 73 86 73 88 73 87 74 88 74 89 74 89 75 88 75 90 75 89 76 90 76 91 76 92 77 93 77 89 77 89 78 93 78 94 78 91 66 95 66 89 66 89 79 95 79 96 79 89 66 96 66 97 66 97 66 98 66 89 66 89 65 98 65 99 65 89 80 99 80 92 80 76 66 75 66 100 66 100 81 75 81 89 81 100 66 89 66 101 66 101 82 89 82 94 82 101 83 94 83 102 83 77 66 103 66 75 66 75 66 103 66 104 66 75 79 104 79 78 79 105 84 106 84 107 84 107 85 106 85 90 85 88 86 62 86 108 86 108 87 62 87 64 87 108 88 64 88 109 88 110 66 111 66 112 66 113 89 109 89 114 89 115 90 31 90 33 90 112 91 105 91 116 91 116 92 105 92 117 92 118 93 119 93 115 93 115 94 119 94 120 94 115 95 120 95 121 95 122 66 123 66 24 66 24 96 123 96 124 96 24 66 124 66 52 66 52 97 124 97 125 97 52 98 125 98 126 98 127 99 128 99 112 99 112 100 128 100 129 100 129 101 130 101 112 101 112 102 130 102 131 102 112 103 131 103 105 103 105 104 131 104 132 104 105 105 132 105 133 105 113 106 134 106 105 106 105 107 134 107 135 107 105 108 135 108 117 108 114 66 136 66 113 66 113 109 136 109 137 109 113 110 137 110 134 110 41 66 43 66 138 66 138 66 43 66 28 66 138 111 28 111 27 111 33 112 35 112 115 112 115 113 35 113 37 113 115 114 37 114 138 114 138 115 37 115 39 115 138 116 39 116 41 116 121 117 139 117 115 117 115 118 139 118 140 118 115 119 140 119 31 119 31 120 140 120 141 120 112 121 111 121 127 121 127 122 111 122 142 122 127 66 142 66 143 66 144 66 106 66 145 66 145 123 106 123 105 123 145 124 105 124 146 124 146 125 105 125 133 125 147 66 148 66 112 66 112 126 148 126 149 126 112 127 149 127 110 127 150 66 151 66 152 66 153 66 150 66 154 66 154 66 150 66 31 66 154 66 31 66 155 66 155 66 31 66 141 66 156 66 157 66 126 66 126 66 157 66 158 66 126 66 158 66 52 66 159 66 18 66 160 66 160 128 18 128 16 128 160 66 16 66 161 66 161 129 16 129 14 129 161 66 14 66 162 66 156 130 163 130 157 130 157 131 163 131 164 131 157 132 164 132 165 132 112 66 166 66 147 66 147 133 166 133 167 133 147 66 167 66 168 66 168 134 167 134 169 134 168 66 169 66 170 66 170 135 169 135 171 135 170 66 171 66 172 66 143 136 173 136 127 136 127 66 173 66 174 66 127 137 174 137 150 137 150 66 174 66 175 66 150 138 175 138 151 138 176 66 177 66 31 66 31 139 177 139 178 139 31 66 178 66 29 66 29 140 178 140 179 140 29 66 179 66 11 66 11 141 179 141 162 141 11 66 162 66 12 66 12 66 162 66 14 66 122 66 24 66 180 66 180 142 24 142 22 142 180 66 22 66 159 66 159 143 22 143 20 143 159 144 20 144 18 144 165 145 181 145 157 145 157 146 181 146 182 146 157 147 182 147 183 147 183 148 182 148 184 148 183 66 184 66 185 66 185 149 184 149 186 149 185 66 186 66 187 66 187 150 186 150 172 150 187 66 172 66 188 66 188 66 172 66 171 66 152 66 189 66 150 66 150 66 189 66 190 66 150 151 190 151 31 151 31 152 190 152 191 152 31 153 191 153 176 153 144 154 91 154 106 154 106 155 91 155 90 155 27 156 26 156 192 156 192 157 26 157 68 157 192 158 68 158 82 158 80 159 118 159 193 159 193 160 118 160 115 160 67 161 194 161 68 161 68 162 194 162 195 162 196 163 84 163 197 163 197 164 84 164 82 164 197 165 82 165 198 165 198 166 82 166 68 166 198 167 68 167 199 167 199 168 68 168 195 168 200 169 201 169 157 169 169 170 202 170 171 170 171 171 202 171 203 171 171 172 203 172 188 172 188 173 203 173 204 173 188 174 204 174 187 174 187 175 204 175 205 175 187 176 205 176 185 176 185 177 205 177 200 177 185 178 200 178 183 178 183 179 200 179 157 179 167 180 206 180 169 180 169 181 206 181 207 181 169 182 207 182 202 182 59 183 206 183 60 183 60 184 206 184 167 184 60 185 167 185 72 185 72 186 167 186 166 186 72 187 166 187 69 187 69 188 166 188 112 188 69 189 112 189 70 189 70 190 112 190 116 190 70 191 116 191 71 191 71 192 116 192 117 192 71 193 117 193 74 193 74 194 117 194 135 194 74 195 135 195 61 195 61 196 135 196 134 196 61 197 134 197 54 197 54 198 134 198 137 198 54 199 137 199 66 199 66 200 137 200 136 200 66 201 136 201 65 201 65 202 136 202 114 202 65 203 114 203 64 203 64 204 114 204 109 204 194 205 208 205 209 205 209 206 208 206 210 206 209 207 210 207 211 207 209 208 212 208 194 208 194 209 212 209 213 209 194 210 213 210 195 210 195 211 213 211 214 211 195 212 214 212 210 212 210 213 214 213 215 213 210 214 215 214 211 214 199 215 195 215 216 215 216 216 195 216 210 216 217 217 218 217 219 217 220 218 219 218 221 218 222 66 223 66 220 66 220 219 223 219 224 219 217 66 219 66 225 66 221 220 226 220 220 220 220 221 226 221 227 221 220 222 227 222 228 222 220 66 229 66 219 66 219 223 229 223 230 223 219 224 230 224 231 224 232 225 233 225 220 225 220 66 233 66 234 66 220 226 234 226 222 226 224 66 235 66 220 66 220 227 235 227 236 227 220 66 236 66 237 66 237 228 236 228 238 228 231 66 239 66 219 66 219 229 239 229 240 229 219 230 240 230 225 230 241 66 242 66 243 66 228 231 244 231 220 231 220 232 244 232 245 232 220 233 245 233 246 233 246 234 247 234 220 234 220 235 247 235 248 235 220 236 248 236 232 236 218 66 249 66 219 66 219 237 249 237 250 237 219 238 250 238 243 238 243 239 250 239 251 239 243 66 251 66 241 66 242 240 252 240 243 240 243 241 252 241 253 241 243 242 253 242 254 242 254 243 253 243 255 243 254 244 255 244 256 244 161 245 229 245 160 245 160 246 229 246 220 246 160 247 220 247 159 247 159 248 220 248 237 248 159 249 237 249 180 249 180 250 237 250 238 250 180 251 238 251 122 251 122 252 238 252 236 252 122 253 236 253 123 253 123 254 236 254 235 254 123 255 235 255 124 255 124 256 235 256 224 256 124 257 224 257 125 257 125 258 224 258 223 258 125 259 223 259 126 259 126 260 223 260 222 260 126 261 222 261 257 261 257 262 222 262 258 262 257 263 258 263 163 263 163 264 258 264 233 264 163 265 233 265 164 265 164 266 233 266 232 266 164 267 232 267 165 267 165 268 232 268 248 268 165 269 248 269 181 269 181 270 248 270 247 270 181 271 247 271 182 271 182 272 247 272 246 272 182 273 246 273 184 273 184 274 246 274 245 274 184 275 245 275 186 275 186 276 245 276 244 276 186 277 244 277 172 277 172 278 244 278 228 278 172 279 228 279 170 279 170 280 228 280 227 280 170 281 227 281 168 281 168 282 227 282 226 282 168 283 226 283 147 283 147 284 226 284 221 284 147 285 221 285 148 285 148 286 221 286 219 286 148 287 219 287 149 287 149 288 219 288 243 288 149 289 243 289 110 289 110 290 243 290 254 290 110 291 254 291 111 291 111 292 254 292 256 292 111 293 256 293 142 293 142 294 256 294 255 294 142 295 255 295 143 295 143 296 255 296 253 296 143 297 253 297 173 297 173 298 253 298 252 298 173 299 252 299 174 299 174 300 252 300 242 300 174 301 242 301 259 301 259 302 242 302 260 302 259 303 260 303 151 303 151 304 260 304 251 304 151 305 251 305 152 305 152 306 251 306 250 306 152 307 250 307 189 307 189 308 250 308 249 308 189 309 249 309 190 309 190 310 249 310 218 310 190 311 218 311 191 311 191 312 218 312 217 312 191 313 217 313 176 313 176 314 217 314 225 314 176 315 225 315 177 315 177 316 225 316 240 316 177 317 240 317 178 317 178 318 240 318 239 318 178 319 239 319 179 319 179 320 239 320 231 320 179 321 231 321 162 321 162 322 231 322 230 322 162 323 230 323 161 323 161 324 230 324 229 324 80 325 79 325 118 325 118 326 79 326 119 326 208 327 63 327 210 327 210 328 63 328 62 328 216 329 210 329 3 329 3 330 210 330 62 330 3 331 62 331 5 331 5 332 62 332 88 332 5 333 88 333 261 333 261 334 88 334 86 334 67 335 63 335 194 335 194 335 63 335 208 335 261 336 86 336 196 336 196 337 86 337 84 337 262 338 263 338 264 338 264 339 263 339 197 339 264 340 197 340 265 340 265 341 197 341 198 341 265 342 198 342 266 342 266 1 198 1 267 1 267 66 198 66 268 66 268 66 198 66 199 66 268 66 199 66 269 66 269 66 199 66 216 66 269 66 216 66 1 66 1 66 216 66 3 66 7 343 5 343 270 343 270 344 5 344 261 344 270 345 261 345 271 345 271 346 261 346 196 346 271 347 196 347 263 347 263 348 196 348 197 348 272 349 273 349 274 349 274 350 273 350 275 350 4 351 272 351 2 351 2 352 272 352 274 352 4 353 6 353 276 353 4 354 276 354 272 354 272 355 276 355 277 355 272 356 277 356 273 356 273 357 277 357 278 357 273 358 278 358 264 358 264 359 278 359 279 359 264 353 279 353 262 353 265 360 275 360 264 360 264 361 275 361 273 361 280 362 0 362 2 362 280 363 2 363 281 363 281 364 2 364 274 364 281 365 274 365 282 365 282 366 274 366 275 366 282 367 275 367 283 367 283 368 275 368 265 368 283 362 265 362 266 362 284 369 153 369 154 369 284 370 154 370 102 370 119 371 79 371 120 371 120 372 79 372 78 372 120 373 78 373 121 373 121 374 78 374 104 374 121 375 104 375 139 375 139 376 104 376 103 376 139 377 103 377 140 377 140 378 103 378 77 378 140 379 77 379 141 379 141 380 77 380 76 380 141 381 76 381 155 381 155 382 76 382 100 382 155 383 100 383 154 383 154 384 100 384 101 384 154 385 101 385 102 385 285 386 94 386 93 386 128 387 285 387 129 387 129 388 285 388 93 388 129 389 93 389 130 389 130 390 93 390 92 390 130 391 92 391 131 391 131 392 92 392 99 392 131 393 99 393 132 393 132 394 99 394 98 394 132 395 98 395 133 395 133 396 98 396 97 396 133 397 97 397 146 397 146 398 97 398 96 398 146 399 96 399 145 399 145 400 96 400 95 400 145 401 95 401 144 401 144 402 95 402 91 402 127 403 150 403 286 403 127 404 286 404 287 404 287 405 286 405 102 405 287 406 102 406 94 406 102 407 286 407 284 407 284 408 286 408 150 408 284 409 150 409 153 409 94 410 285 410 287 410 287 411 285 411 128 411 287 412 128 412 127 412 288 413 58 413 53 413 157 414 201 414 158 414 158 415 201 415 288 415 158 416 288 416 289 416 289 417 288 417 290 417 290 418 288 418 53 418 290 419 53 419 291 419 53 420 49 420 291 420 291 421 49 421 47 421 158 422 289 422 52 422 52 423 289 423 51 423 289 66 290 66 51 66 51 66 290 66 46 66 138 424 27 424 192 424 115 425 138 425 193 425 193 426 138 426 192 426 193 427 192 427 80 427 80 428 192 428 82 428 113 429 105 429 107 429 109 430 113 430 108 430 108 431 113 431 107 431 108 432 107 432 88 432 88 433 107 433 90 433 292 434 293 434 294 434 294 435 293 435 295 435 293 436 292 436 296 436 296 437 292 437 297 437 296 438 297 438 47 438 47 439 297 439 291 439 47 440 46 440 296 440 296 441 46 441 298 441 296 442 298 442 293 442 293 443 298 443 295 443 290 444 291 444 299 444 299 445 291 445 297 445 299 446 297 446 294 446 294 447 297 447 292 447 46 448 290 448 299 448 294 449 295 449 299 449 299 450 295 450 298 450 299 451 298 451 46 451 59 452 300 452 206 452 301 453 302 453 303 453 206 66 300 66 207 66 207 66 300 66 301 66 207 66 301 66 202 66 202 66 301 66 303 66 202 454 303 454 203 454 203 455 303 455 204 455 302 66 301 66 304 66 304 456 301 456 305 456 304 66 305 66 306 66 306 66 305 66 288 66 306 457 288 457 307 457 307 66 288 66 201 66 307 66 201 66 308 66 308 66 201 66 200 66 308 66 200 66 303 66 303 458 200 458 205 458 303 66 205 66 204 66 300 459 59 459 301 459 301 460 59 460 56 460 301 461 56 461 309 461 305 462 301 462 310 462 310 463 301 463 309 463 288 464 305 464 58 464 58 465 305 465 310 465 311 466 58 466 312 466 312 467 58 467 310 467 313 468 55 468 311 468 311 468 55 468 58 468 314 469 56 469 313 469 313 469 56 469 55 469 315 470 309 470 314 470 314 471 309 471 56 471 312 472 310 472 315 472 315 473 310 473 309 473 316 474 312 474 315 474 312 475 316 475 311 475 316 476 317 476 311 476 311 477 317 477 318 477 311 478 318 478 313 478 313 479 318 479 319 479 313 480 319 480 314 480 314 481 319 481 320 481 314 482 320 482 315 482 315 483 320 483 321 483 315 484 321 484 316 484 9 452 8 452 322 452 323 457 324 457 48 457 17 66 325 66 15 66 15 485 325 485 326 485 15 66 326 66 13 66 323 66 48 66 327 66 327 66 48 66 328 66 327 486 328 486 326 486 326 487 328 487 329 487 326 488 329 488 13 488 13 66 329 66 322 66 13 489 322 489 8 489 17 66 19 66 325 66 325 66 19 66 21 66 325 490 21 490 330 490 330 66 21 66 23 66 330 491 23 491 324 491 324 66 23 66 25 66 324 66 25 66 48 66 331 492 328 492 50 492 50 464 328 464 48 464 329 493 328 493 332 493 332 494 328 494 331 494 9 495 322 495 73 495 73 496 322 496 329 496 73 497 329 497 332 497 332 498 331 498 333 498 333 499 331 499 334 499 331 500 50 500 334 500 334 466 50 466 335 466 50 501 57 501 335 501 335 501 57 501 336 501 57 469 73 469 336 469 336 469 73 469 337 469 73 502 332 502 337 502 337 503 332 503 333 503 338 504 339 504 336 504 336 505 339 505 340 505 336 506 340 506 335 506 335 507 340 507 341 507 335 508 341 508 334 508 334 509 341 509 342 509 334 510 342 510 333 510 333 511 342 511 343 511 333 512 343 512 337 512 337 513 343 513 338 513 337 514 338 514 336 514 283 515 266 515 267 515 268 516 214 516 267 516 267 517 214 517 213 517 267 518 213 518 283 518 212 519 282 519 213 519 213 520 282 520 283 520 209 469 281 469 212 469 212 469 281 469 282 469 211 521 280 521 209 521 209 522 280 522 281 522 0 523 280 523 1 523 1 524 280 524 211 524 1 525 211 525 269 525 269 526 211 526 215 526 214 527 268 527 215 527 215 527 268 527 269 527 271 527 83 527 270 527 270 527 83 527 85 527 270 528 85 528 7 528 7 529 85 529 87 529 276 530 6 530 7 530 87 531 89 531 7 531 7 532 89 532 277 532 7 533 277 533 276 533 277 469 89 469 278 469 278 469 89 469 75 469 75 534 81 534 278 534 278 535 81 535 263 535 278 536 263 536 279 536 263 537 81 537 271 537 271 538 81 538 83 538 279 539 263 539 262 539 340 540 324 540 341 540 341 540 324 540 323 540 341 469 323 469 342 469 342 469 323 469 327 469 342 541 327 541 343 541 343 541 327 541 326 541 343 542 326 542 338 542 338 542 326 542 325 542 338 527 325 527 339 527 339 527 325 527 330 527 339 543 330 543 340 543 340 543 330 543 324 543 321 544 302 544 316 544 316 544 302 544 304 544 316 469 304 469 317 469 317 469 304 469 306 469 317 545 306 545 318 545 318 545 306 545 307 545 318 546 307 546 319 546 319 546 307 546 308 546 319 527 308 527 320 527 320 527 308 527 303 527 320 547 303 547 321 547 321 547 303 547 302 547</p>
        </triangles>
      </mesh>
    </geometry>
  </library_geometries>
  <library_visual_scenes>
    <visual_scene id="Scene" name="Scene">
      <node id="BaseLink" name="BaseLink" type="NODE">
        <matrix sid="transform">1 0 0 0 0 1 0 0 0 0 1 0 0 0 0 1</matrix>
        <instance_geometry url="#BaseLink_001-mesh" name="BaseLink">
          <bind_material>
            <technique_common>
              <instance_material symbol="colour_abb_white_001-material" target="#colour_abb_white_001-material"/>
            </technique_common>
          </bind_material>
        </instance_geometry>
      </node>
    </visual_scene>
  </library_visual_scenes>
  <scene>
    <instance_visual_scene url="#Scene"/>
  </scene>
</COLLADA>