<?xml version="1.0" encoding="utf-8"?>
<COLLADA xmlns="http://www.collada.org/2005/11/COLLADASchema" version="1.4.1" xmlns:xsi="http://www.w3.org/2001/XMLSchema-instance">
  <asset>
    <contributor>
      <author>Blender User</author>
      <authoring_tool>Blender 2.82.7</authoring_tool>
    </contributor>
    <created>2024-02-04T11:59:38</created>
    <modified>2024-02-04T11:59:38</modified>
    <unit name="meter" meter="1"/>
    <up_axis>Z_UP</up_axis>
  </asset>
  <library_effects>
    <effect id="colour_abb_white_001-effect">
      <profile_COMMON>
        <technique sid="common">
          <lambert>
            <emission>
              <color sid="emission">0 0 0 1</color>
            </emission>
            <diffuse>
              <color sid="diffuse">0.7404 0.7404 0.7248001 1</color>
            </diffuse>
            <index_of_refraction>
              <float sid="ior">1</float>
            </index_of_refraction>
          </lambert>
        </technique>
      </profile_COMMON>
    </effect>
  </library_effects>
  <library_images/>
  <library_materials>
    <material id="colour_abb_white_001-material" name="colour_abb_white.001">
      <instance_effect url="#colour_abb_white_001-effect"/>
    </material>
  </library_materials>
  <library_geometries>
    <geometry id="Link2-mesh" name="Link2">
      <mesh>
        <source id="Link2-mesh-positions">
          <float_array id="Link2-mesh-positions-array" count="1719">-0.04299998 0.1159999 0.5840001 -0.04299998 0.1159999 0.544 -0.04299998 0.092 0.5840001 -0.04299998 0.092 0.544 0.006999969 0.1115 0.5840001 -0.03499996 0.1115 0.5840001 -0.03499996 0.1115 0.6035574 0.1001285 0.1115 0.7434872 0.1139492 0.1115 0.7067567 0.07370388 0.1115 0.6916135 0.196 0.1115 0 0.006999969 0.1115 0.544 0.156 0.1115 0.595 0.1280359 0.1115 0.6693191 0.08779048 0.1115 0.6541759 0 0.1115 0.07749998 -0.01345771 0.1115 0.07632261 0.04102098 0.1115 0.2702747 -0.02650654 0.1115 0.07282614 -0.09592586 0.1115 0.09499067 -0.03874999 0.1115 0.06711697 -0.07282614 0.1115 -0.02650648 -0.06711697 0.1115 -0.03874993 -0.1143409 0.1115 -0.0717715 0.05381661 0.1115 -0.1715219 -0.05470573 0.1115 -0.1234191 -0.01345771 0.1115 -0.07632261 0.07632255 0.1115 0.01345771 0.07282614 0.1115 0.02650654 0.04626822 0.1115 0.2782175 0.02650654 0.1115 0.07282614 0.01345771 0.1115 0.07632261 0.05371695 0.1115 0.3055391 0.03874999 0.1115 0.06711697 0.05269712 0.1115 0.2960744 0.05019319 0.1115 0.2868902 -0.1024848 0.1115 -0.08787405 -0.05936843 0.1115 -0.04981601 -0.08838021 0.1115 -0.1020486 -0.04981601 0.1115 -0.05936837 -0.07233655 0.1115 -0.1139843 -0.03874999 0.1115 -0.06711697 -0.02650654 0.1115 -0.0728262 0.07282614 0.1115 -0.02650648 0.07632255 0.1115 -0.01345765 0.1938824 0.1115 -0.02873319 0.07749998 0.1115 0 0.1875755 0.1115 -0.05684554 0.1772155 0.1115 -0.08372968 0.06711691 0.1115 -0.03874993 0.1630263 0.1115 -0.1088045 0.05936843 0.1115 -0.04981601 -0.04981601 0.1115 0.05936843 -0.05936843 0.1115 0.04981601 -0.1109291 0.1115 0.0769397 -0.06711697 0.1115 0.03874999 -0.1225791 0.1115 0.05656284 -0.07282614 0.1115 0.02650654 -0.1305235 0.1115 0.0344761 -0.07632255 0.1115 0.01345771 -0.1345223 0.1115 0.01134717 -0.07749998 0.1115 0 -0.1344544 0.1115 -0.01212465 -0.07632255 0.1115 -0.01345765 -0.130322 0.1115 -0.0352301 -0.1236883 0.1115 -0.05409419 0.06711691 0.1115 0.03874999 0.05936843 0.1115 0.04981601 0.04981601 0.1115 0.05936843 0.05322706 0.1115 0.315046 0.05123972 0.1115 0.3243557 0.04780501 0.1115 0.333234 0.04300934 0.1115 0.3414572 0.09234124 0.1115 -0.1723563 0.08477902 0.1115 -0.1746525 0.03874999 0.1115 -0.06711697 0.1497767 0.1115 -0.1264236 0.1346324 0.1115 -0.1424434 0.04981601 0.1115 -0.05936837 0.1177848 0.1115 -0.1566612 0.09944725 0.1115 -0.1688971 0 0.1115 -0.07749998 0.01345771 0.1115 -0.07632261 0.06127238 0.1115 -0.1741434 0.02650654 0.1115 -0.0728262 0.06904804 0.1115 -0.1755574 0.07694941 0.1115 -0.1757286 -0.03499996 0.1115 0.404 -0.03499996 0.1115 0.544 0.02984929 0.1115 0.3551325 0.03697341 0.1115 0.3488185 0.07370388 -0.1065 0.6916135 0.1139492 -0.1065 0.7067567 0.1001377 -0.1065 0.7434628 -0.03499996 -0.1065 0.6035234 -0.03499996 -0.1065 0.5840001 0.006999969 -0.1065 0.5840001 -0.03659427 -0.1065 0.1709316 0.006999969 -0.1065 0.544 -0.03499996 -0.1065 0.404 -0.03499996 -0.1065 0.544 0.05381661 -0.1065 -0.1715219 0.01649653 -0.1065 -0.09355676 0 -0.1065 -0.09500002 0.08227235 -0.1065 -0.04749995 0.1772155 -0.1065 -0.08372968 0.08927077 -0.1065 -0.03249186 0.1875755 -0.1065 -0.05684554 0.0935567 -0.1065 -0.01649653 0.1938824 -0.1065 -0.02873319 0.09499996 -0.1065 0 0.196 -0.1065 0 0.0935567 -0.1065 0.01649659 -0.05470573 -0.1065 -0.1234191 0.06106477 -0.1065 -0.07277423 0.1346324 -0.1065 -0.1424434 0.07277417 -0.1065 -0.06106477 0.1497767 -0.1065 -0.1264236 0.1630263 -0.1065 -0.1088045 0.07694941 -0.1065 -0.1757286 0.08477902 -0.1065 -0.1746525 0.04749995 -0.1065 -0.08227241 -0.03249192 -0.1065 0.08927077 -0.05097627 -0.1065 0.1271139 -0.05518656 -0.1065 0.1251134 -0.01649653 -0.1065 0.0935567 0 -0.1065 0.09499996 0.01649653 -0.1065 0.0935567 0.09234124 -0.1065 -0.1723563 0.09944725 -0.1065 -0.1688971 0.1177848 -0.1065 -0.1566612 -0.04749995 -0.1065 0.08227241 0.08779048 -0.1065 0.6541759 0.1280359 -0.1065 0.6693191 0.04749995 -0.1065 0.08227241 0.06106477 -0.1065 0.07277423 0.156 -0.1065 0.595 0.03249186 -0.1065 -0.08927083 0.06127238 -0.1065 -0.1741434 0.06904804 -0.1065 -0.1755574 -0.03594064 -0.1065 0.1543073 -0.03611987 -0.1065 0.1496493 -0.03701859 -0.1065 0.1450753 -0.04373079 -0.1065 0.1329357 -0.04712665 -0.1065 0.1297425 0.03249186 -0.1065 0.08927077 0.07277417 -0.1065 0.06106483 0.08227235 -0.1065 0.04750001 0.08927077 -0.1065 0.03249192 -0.01649653 -0.1065 -0.09355676 -0.03249192 -0.1065 -0.08927083 -0.07233655 -0.1065 -0.1139843 -0.04749995 -0.1065 -0.08227241 -0.08838021 -0.1065 -0.1020486 -0.06106477 -0.1065 -0.07277423 -0.1024848 -0.1065 -0.08787405 -0.07277423 -0.1065 -0.06106477 -0.1143409 -0.1065 -0.0717715 -0.08227241 -0.1065 -0.04749995 -0.1236883 -0.1065 -0.05409419 -0.08927077 -0.1065 -0.03249186 -0.130322 -0.1065 -0.0352301 -0.0935567 -0.1065 -0.01649653 -0.06887823 -0.1065 0.1185665 -0.07887125 -0.1065 0.1118781 -0.06106477 -0.1065 0.07277423 -0.08793586 -0.1065 0.103977 -0.07277423 -0.1065 0.06106483 -0.09592586 -0.1065 0.09499067 -0.08227241 -0.1065 0.04750001 -0.1109291 -0.1065 0.0769397 -0.08927077 -0.1065 0.03249192 -0.1225791 -0.1065 0.05656284 -0.0935567 -0.1065 0.01649659 -0.1305235 -0.1065 0.0344761 -0.09499996 -0.1065 0 -0.1345223 -0.1065 0.01134717 -0.1344544 -0.1065 -0.01212465 -0.03861498 -0.1065 0.1406958 -0.04087048 -0.1065 0.1366164 -0.03499996 -0.08349996 0.404 -0.03499996 -0.08899998 0.837085 -0.03499996 0.09399998 0.837085 -0.03499996 -0.08899998 0.652966 -0.03499996 0.09399998 0.6529999 -0.07233655 0.07549995 -0.1139843 -0.05470573 0.07549995 -0.1234191 0.1693214 0.07549995 -0.01499867 -0.08838021 0.07549995 -0.1020486 0.1251729 0.07549995 0.008703827 0.1217 0.07549995 0.008399963 0.1413961 0.07549995 0.02492702 0.1404938 0.07549995 0.02155959 -0.1024848 0.07549995 -0.08787405 0.118227 0.07549995 0.008703827 0.1148596 0.07549995 0.009606122 0.1116999 0.07549995 0.01107949 0.1088442 0.07549995 0.0130791 0.1251729 0.07549995 0.04809612 0.1285404 0.07549995 0.04719382 0.15612 0.07549995 0.1813732 0.1346324 0.07549995 -0.1424434 0.1497767 0.07549995 -0.1264236 0.1630263 0.07549995 -0.1088045 0.1772155 0.07549995 -0.08372968 0.1875755 0.07549995 -0.05684554 0.1893215 0.07549995 -0.05072849 0.1345557 0.07549995 0.0130791 0.1317 0.07549995 0.01107949 0.1285404 0.07549995 0.009606122 -0.1345223 0.07549995 0.01134717 0.1020038 0.07549995 0.02492702 0.1017 0.07549995 0.0284 0.1020038 0.07549995 0.03187292 0.1029061 0.07549995 0.03524041 -0.09592586 0.07549995 0.09499067 0.1116999 0.07549995 0.04572051 0.1148596 0.07549995 0.04719382 0.02273726 0.07549995 0.2468726 0.118227 0.07549995 0.04809612 0.1217 0.07549995 0.04839998 0.1413961 0.07549995 0.03187292 0.1417 0.07549995 0.0284 0.09234124 0.07549995 -0.1723563 0.09944725 0.07549995 -0.1688971 0.1177848 0.07549995 -0.1566612 0.1390205 0.07549995 0.01840001 0.1370208 0.07549995 0.01554423 -0.1344544 0.07549995 -0.01212465 -0.130322 0.07549995 -0.0352301 0.1029061 0.07549995 0.02155959 0.1043795 0.07549995 0.03839999 0.1063791 0.07549995 0.04125577 0.1088442 0.07549995 0.0437209 0.1317 0.07549995 0.04572051 0.1345557 0.07549995 0.0437209 0.1370208 0.07549995 0.04125577 0.1063791 0.07549995 0.01554423 0.1043795 0.07549995 0.01840001 -0.1143409 0.07549995 -0.0717715 -0.1236883 0.07549995 -0.05409419 -0.1109291 0.07549995 0.0769397 -0.1225791 0.07549995 0.05656284 -0.1305235 0.07549995 0.0344761 0.1390205 0.07549995 0.03839999 0.1404938 0.07549995 0.03524041 0.05381661 0.07549995 -0.1715219 0.06127238 0.07549995 -0.1741434 0.06904804 0.07549995 -0.1755574 0.07694941 0.07549995 -0.1757286 0.08477902 0.07549995 -0.1746525 0.1893215 -0.08349996 -0.05072849 0.1693214 -0.08349996 -0.01499867 0.04955083 0.09399998 0.8779054 0.04955083 -0.08899998 0.8779054 0.08674103 0.09399998 0.7790665 0.0867502 -0.08899998 0.7790421 0.1420273 0.092 0.7173216 0.1561139 0.092 0.6798841 0.1205008 0.092 0.7092218 0.1345874 0.092 0.6717842 0.1345874 -0.092 0.6717842 0.1561139 -0.092 0.6798841 0.1205008 -0.092 0.7092218 0.1420273 -0.092 0.7173216 0.02273726 -0.08349996 0.2468726 0.02984929 -0.08349996 0.3551325 0.07277417 -0.08349996 -0.06106477 0.08227235 -0.08349996 -0.04749995 0.08927077 -0.08349996 0.03249192 0.08227235 -0.08349996 0.04750001 0.07277417 -0.08349996 0.06106483 0.06106477 -0.08349996 0.07277423 0.04749995 -0.08349996 0.08227241 0.08927077 -0.08349996 -0.03249186 0.0935567 -0.08349996 -0.01649653 0.09499996 -0.08349996 0 0.15612 -0.08349996 0.1813732 0.0935567 -0.08349996 0.01649659 0.04749995 -0.08349996 -0.08227241 0.06106477 -0.08349996 -0.07277423 0.05371695 -0.08349996 0.3055391 0.03697341 -0.08349996 0.3488185 0.04300934 -0.08349996 0.3414572 0.05269712 -0.08349996 0.2960744 0.05019319 -0.08349996 0.2868902 0.04626822 -0.08349996 0.2782175 0.04102098 -0.08349996 0.2702747 -0.05518656 -0.08349996 0.1251134 -0.03249192 -0.08349996 0.08927077 -0.04749995 -0.08349996 0.08227241 -0.05470573 -0.08349996 -0.1234191 -0.03249192 -0.08349996 -0.08927083 -0.01649653 -0.08349996 -0.09355676 -0.05097627 -0.08349996 0.1271139 -0.04712665 -0.08349996 0.1297425 -0.01649653 -0.08349996 0.0935567 -0.04373079 -0.08349996 0.1329357 -0.04087048 -0.08349996 0.1366164 0.05381661 -0.08349996 -0.1715219 0 -0.08349996 -0.09500002 0.01649653 -0.08349996 -0.09355676 0.06127238 -0.08349996 -0.1741434 0.03249186 -0.08349996 -0.08927083 0.06904804 -0.08349996 -0.1755574 0.07694941 -0.08349996 -0.1757286 0.08477902 -0.08349996 -0.1746525 0.04780501 -0.08349996 0.333234 0.05123972 -0.08349996 0.3243557 0.05322706 -0.08349996 0.315046 -0.06106477 -0.08349996 0.07277423 -0.07887125 -0.08349996 0.1118781 -0.06887823 -0.08349996 0.1185665 0.1875755 -0.08349996 -0.05684554 0.1772155 -0.08349996 -0.08372968 0.1630263 -0.08349996 -0.1088045 0.1497767 -0.08349996 -0.1264236 0.1346324 -0.08349996 -0.1424434 0.1177848 -0.08349996 -0.1566612 -0.03861498 -0.08349996 0.1406958 -0.03701859 -0.08349996 0.1450753 -0.03611987 -0.08349996 0.1496493 0.09944725 -0.08349996 -0.1688971 0.09234124 -0.08349996 -0.1723563 0.03249186 -0.08349996 0.08927077 0.01649653 -0.08349996 0.0935567 0 -0.08349996 0.09499996 -0.03659427 -0.08349996 0.1709316 -0.03594064 -0.08349996 0.1543073 -0.04749995 -0.08349996 -0.08227241 -0.07233655 -0.08349996 -0.1139843 -0.06106477 -0.08349996 -0.07277423 -0.08838021 -0.08349996 -0.1020486 -0.07277423 -0.08349996 -0.06106477 -0.1024848 -0.08349996 -0.08787405 -0.08227241 -0.08349996 -0.04749995 -0.1143409 -0.08349996 -0.0717715 -0.08927077 -0.08349996 -0.03249186 -0.1236883 -0.08349996 -0.05409419 -0.130322 -0.08349996 -0.0352301 -0.0935567 -0.08349996 -0.01649653 -0.1344544 -0.08349996 -0.01212465 -0.09499996 -0.08349996 0 -0.1345223 -0.08349996 0.01134717 -0.0935567 -0.08349996 0.01649659 -0.1305235 -0.08349996 0.0344761 -0.08927077 -0.08349996 0.03249192 -0.1225791 -0.08349996 0.05656284 -0.08227241 -0.08349996 0.04750001 -0.1109291 -0.08349996 0.0769397 -0.07277423 -0.08349996 0.06106483 -0.09592586 -0.08349996 0.09499067 -0.08793586 -0.08349996 0.103977 0.196 0.07549995 0 0.196 -0.08349996 0 0.1938824 0.07549995 -0.02873319 0.1941157 0.07549995 -0.02556777 0.1941157 -0.08349996 -0.02556777 0.1938824 -0.08349996 -0.02873319 -0.01499998 -0.08899998 0.9324264 -0.01499998 0.09399998 0.9324264 -0.02158552 0.09399998 0.929485 -0.02158552 -0.08899998 0.929485 -0.02761656 0.09399998 0.9255292 -0.02761656 -0.08899998 0.9255292 -0.03293812 0.09399998 0.9206607 -0.03293812 -0.08899998 0.9206607 -0.03741353 0.09399998 0.9150046 -0.03741353 -0.08899998 0.9150046 -0.04092776 0.09399998 0.908706 -0.04092776 -0.08899998 0.908706 -0.04339063 0.09399998 0.9019269 -0.04339063 -0.08899998 0.9019269 -0.04473876 0.09399998 0.8948415 -0.04473876 -0.08899998 0.8948415 -0.04493761 0.09399998 0.8876316 -0.04493761 -0.08899998 0.8876316 -0.04398202 0.09399998 0.8804826 -0.04398202 -0.08899998 0.8804826 -0.04189652 0.09399998 0.8735781 -0.04189652 -0.08899998 0.8735781 -0.01026058 0.09399998 0.8618092 -0.005209386 0.09399998 0.8604558 0.01499998 0.09399998 0.8640192 0.01928359 0.09399998 0.8670186 0 0.09399998 0.86 0.005209445 0.09399998 0.8604558 0.01026058 0.09399998 0.8618092 0.02298128 0.09399998 0.8707164 0.02598071 0.09399998 0.875 -0.01499998 0.09399998 0.8640192 -0.01928359 0.09399998 0.8670186 -0.03577423 0.09399998 0.8495048 -0.02298128 0.09399998 0.8707164 -0.03808504 0.09399998 0.8617323 -0.02598077 0.09399998 0.875 -0.02819073 0.09399998 0.8797394 -0.02954423 0.09399998 0.8847906 -0.02999997 0.09399998 0.8900001 -0.02954423 0.09399998 0.8952095 -0.02819073 0.09399998 0.9002606 -0.02598077 0.09399998 0.905 -0.02298128 0.09399998 0.9092836 -0.01928359 0.09399998 0.9129813 -0.01499998 0.09399998 0.9159808 -0.01026058 0.09399998 0.9181908 -0.005209386 0.09399998 0.9195443 -0.008087337 0.09399998 0.9342674 0 0.09399998 0.92 -9.7042e-4 0.09399998 0.9349895 0.005209445 0.09399998 0.9195443 0.006171047 0.09399998 0.9345749 0.01026058 0.09399998 0.9181908 0.01315659 0.09399998 0.9330338 0.01499998 0.09399998 0.9159808 0.01980966 0.09399998 0.9304051 0.02596217 0.09399998 0.9267555 0.01928359 0.09399998 0.9129813 0.03145855 0.09399998 0.922177 0.02298128 0.09399998 0.9092836 0.03615999 0.09399998 0.9167853 0.02598071 0.09399998 0.905 0.03994756 0.09399998 0.9107168 0.02819073 0.09399998 0.9002606 0.04272574 0.09399998 0.9041248 0.02954423 0.09399998 0.8952095 0.04442417 0.09399998 0.8971759 0.02999997 0.09399998 0.8900001 0.04650592 0.09399998 0.8874125 0.02954423 0.09399998 0.8847906 0.02819073 0.09399998 0.8797394 0.01499998 -0.08899998 0.8640192 0.01026058 -0.08899998 0.8618092 0.005209445 -0.08899998 0.8604558 0 -0.08899998 0.86 0.02598071 -0.08899998 0.875 0.02298128 -0.08899998 0.8707164 0.01928359 -0.08899998 0.8670186 -0.005209386 -0.08899998 0.8604558 -0.01026058 -0.08899998 0.8618092 -0.01499998 -0.08899998 0.8640192 -0.03577423 -0.08899998 0.8495048 -0.01928359 -0.08899998 0.8670186 -0.03808504 -0.08899998 0.8617323 0.02819073 -0.08899998 0.8797394 0.02954423 -0.08899998 0.8847906 0.01928359 -0.08899998 0.9129813 0.02596217 -0.08899998 0.9267555 0.01499998 -0.08899998 0.9159808 0.01980966 -0.08899998 0.9304051 0.01026058 -0.08899998 0.9181908 0.01315659 -0.08899998 0.9330338 0.005209445 -0.08899998 0.9195443 0.006171047 -0.08899998 0.9345749 0 -0.08899998 0.92 -9.7042e-4 -0.08899998 0.9349895 -0.005209386 -0.08899998 0.9195443 -0.008087337 -0.08899998 0.9342674 -0.01026058 -0.08899998 0.9181908 -0.01499998 -0.08899998 0.9159808 -0.01928359 -0.08899998 0.9129813 -0.02298128 -0.08899998 0.9092836 -0.02598077 -0.08899998 0.905 -0.02819073 -0.08899998 0.9002606 0.02999997 -0.08899998 0.8900001 0.04650592 -0.08899998 0.8874125 0.02954423 -0.08899998 0.8952095 0.04442417 -0.08899998 0.8971759 0.02819073 -0.08899998 0.9002606 0.04272574 -0.08899998 0.9041248 0.02598071 -0.08899998 0.905 0.03994756 -0.08899998 0.9107168 0.02298128 -0.08899998 0.9092836 0.03615999 -0.08899998 0.9167853 0.03145855 -0.08899998 0.922177 -0.02298128 -0.08899998 0.8707164 -0.02598077 -0.08899998 0.875 -0.02819073 -0.08899998 0.8797394 -0.02954423 -0.08899998 0.8847906 -0.02999997 -0.08899998 0.8900001 -0.02954423 -0.08899998 0.8952095 0.01345771 0.1285 -0.07632261 0 0.1285 -0.07749998 -0.01345771 0.1285 -0.07632261 -0.02650654 0.1285 -0.0728262 -0.03874999 0.1285 -0.06711697 -0.04981601 0.1285 -0.05936837 -0.05936843 0.1285 -0.04981601 -0.06711697 0.1285 -0.03874993 -0.07282614 0.1285 -0.02650648 -0.07632255 0.1285 -0.01345765 -0.07749998 0.1285 0 -0.07632255 0.1285 0.01345771 -0.07282614 0.1285 0.02650654 -0.06711697 0.1285 0.03874999 -0.05936843 0.1285 0.04981601 -0.04981601 0.1285 0.05936843 -0.03874999 0.1285 0.06711697 -0.02650654 0.1285 0.07282614 -0.01345771 0.1285 0.07632261 0 0.1285 0.07749998 0.01345771 0.1285 0.07632261 0.02650654 0.1285 0.07282614 0.03874999 0.1285 0.06711697 0.04981601 0.1285 0.05936843 0.05936843 0.1285 0.04981601 0.06711691 0.1285 0.03874999 0.07282614 0.1285 0.02650654 0.07632255 0.1285 0.01345771 0.07749998 0.1285 0 0.07632255 0.1285 -0.01345765 0.07282614 0.1285 -0.02650648 0.06711691 0.1285 -0.03874993 0.05936843 0.1285 -0.04981601 0.04981601 0.1285 -0.05936837 0.03874999 0.1285 -0.06711697 0.02650654 0.1285 -0.0728262 0.07370388 -0.1159999 0.6916135 0.1205008 -0.1159999 0.7092218 0.07370388 0.1159999 0.6916135 0.1205008 0.1159999 0.7092218 0.08779048 0.1159999 0.6541759 0.1345874 0.1159999 0.6717842 0.08779048 -0.1159999 0.6541759 0.1345874 -0.1159999 0.6717842 0.1020038 -0.004499971 0.03187292 0.1017 -0.004499971 0.0284 0.1020038 -0.004499971 0.02492702 0.1029061 -0.004499971 0.02155959 0.1043795 -0.004499971 0.01840001 0.1063791 -0.004499971 0.01554423 0.1088442 -0.004499971 0.0130791 0.1116999 -0.004499971 0.01107949 0.1148596 -0.004499971 0.009606122 0.118227 -0.004499971 0.008703827 0.1217 -0.004499971 0.008399963 0.1251729 -0.004499971 0.008703827 0.1285404 -0.004499971 0.009606122 0.1317 -0.004499971 0.01107949 0.1345557 -0.004499971 0.0130791 0.1370208 -0.004499971 0.01554423 0.1390205 -0.004499971 0.01840001 0.1404938 -0.004499971 0.02155959 0.1413961 -0.004499971 0.02492702 0.1417 -0.004499971 0.0284 0.1413961 -0.004499971 0.03187292 0.1404938 -0.004499971 0.03524041 0.1390205 -0.004499971 0.03839999 0.1370208 -0.004499971 0.04125577 0.1345557 -0.004499971 0.0437209 0.1317 -0.004499971 0.04572051 0.1285404 -0.004499971 0.04719382 0.1251729 -0.004499971 0.04809612 0.1217 -0.004499971 0.04839998 0.118227 -0.004499971 0.04809612 0.1148596 -0.004499971 0.04719382 0.1116999 -0.004499971 0.04572051 0.1088442 -0.004499971 0.0437209 0.1063791 -0.004499971 0.04125577 0.1043795 -0.004499971 0.03839999 0.1029061 -0.004499971 0.03524041 0.006999969 0.1159999 0.544 0.006999969 0.1159999 0.5840001 0.006999969 -0.1159999 0.5840001 0.006999969 -0.1159999 0.544 -0.04299998 -0.092 0.544 -0.04299998 -0.1159999 0.544 -0.06499999 0.092 0.544 -0.06499999 -0.092 0.544 -0.04299998 -0.092 0.5840001 -0.04299998 -0.1159999 0.5840001 -0.06499999 -0.092 0.5840001 -0.06499999 0.092 0.5840001</float_array>
          <technique_common>
            <accessor source="#Link2-mesh-positions-array" count="573" stride="3">
              <param name="X" type="float"/>
              <param name="Y" type="float"/>
              <param name="Z" type="float"/>
            </accessor>
          </technique_common>
        </source>
        <source id="Link2-mesh-normals">
          <float_array id="Link2-mesh-normals-array" count="2385">-1 0 0 0 1 0 0 1 -3.89368e-7 0 1 1.59903e-7 0 1 -5.62389e-7 0 1 -3.65796e-7 0 1 0 0 1 1.04612e-6 0 1 1.2147e-6 0 1 1.31261e-7 0 1 2.52864e-7 0 1 0 0 1 -2.29404e-6 0 1 -1.50793e-7 0 1 2.98929e-7 0 1 2.03668e-7 0 1 6.13702e-7 0 1 0 0 1 0 0 1 2.73979e-7 0 1 -2.05503e-7 0 1 1.16114e-6 0 1 -1.23932e-6 0 1 1.49109e-7 0 1 4.47324e-7 0 1 1.49107e-7 0 1 0 0 1 0 0 1 6.96237e-7 0 1 -1.49106e-7 0 1 -1.86105e-6 0 1 0 0 1 0 0 1 1.36604e-6 0 1 0 0 1 -1.12667e-6 0 1 -5.17235e-7 0 1 0 0 1 -1.16175e-6 0 1 4.98989e-7 0 1 3.50468e-7 0 1 1.61282e-7 0 1 -1.55152e-7 0 1 0 0 -1 0 0 -1 0 0 -1 4.02106e-7 0 -1 -1.11084e-6 0 -1 4.01147e-7 0 -1 5.55279e-7 0 -1 2.09439e-7 0 -1 -4.16685e-7 0 -1 4.82591e-7 0 -1 0 0 -1 0 0 -1 -4.39166e-7 0 -1 -2.08601e-7 0 -1 -3.14675e-7 0 -1 -1.67082e-7 0 -1 1.59965e-7 0 -1 -2.3325e-7 0 -1 3.30953e-7 0 -1 -6.26633e-7 0 -1 1.5783e-7 0 -1 -1.67531e-7 0 -1 -1.36252e-6 0 -1 2.80314e-6 0 -1 3.16054e-7 0 -1 5.99251e-7 0 -1 0 0 -1 0 0 -1 5.92914e-7 0 -1 -3.71244e-7 0 -1 1.14745e-6 0 -1 -7.16675e-7 0 -1 3.51807e-7 0 -1 3.49838e-7 0 -1 -8.71732e-7 0 -1 1.17508e-6 0 -1 -4.35448e-7 0 -1 4.60438e-7 0 -1 -3.32821e-7 0 -1 2.3511e-7 0 -1 -3.65923e-7 0 -1 2.42791e-7 0 -1 -7.3204e-7 0 -1 2.42749e-7 0 -1 7.32236e-7 0 -1 -3.64058e-7 0 -1 1.81997e-7 0 -1 0 0 -1 -2.51195e-7 0 -1 -2.70544e-6 0 -1 1.18456e-6 0 -1 -8.20306e-7 -1 0 0 -1 0 0 0 -1 1.42109e-7 0 -1 5.7849e-7 0 -1 -3.24288e-7 0 -1 -4.2988e-6 0 -1 9.76784e-7 0 -1 1.69411e-7 0 -1 -2.05686e-7 0 -1 6.30216e-7 0 -1 -4.22326e-7 0 -1 9.72945e-7 0 -1 2.52497e-6 0 -1 -3.85213e-7 0 -1 0 0 -1 -5.1585e-7 0 -1 1.23251e-7 0 -1 2.94587e-6 0 -1 -2.23383e-6 0 -1 3.55079e-7 0 -1 -2.81549e-7 0 -1 1.13896e-6 0 -1 -1.87866e-6 0 -1 -6.70905e-7 0 -1 0 0 -1 4.45278e-6 0 -1 2.12379e-7 0 -1 4.08154e-7 0 -1 -8.89753e-7 0 -1 -5.01159e-7 0 -1 0 0 -1 -4.44911e-7 0 -1 4.8392e-6 0 -1 -2.5e-6 0 -1 -4.7687e-7 0 -1 0 0 -1 -4.73076e-6 0 -1 6.07111e-7 0 -1 -4.20749e-7 0 -1 6.0478e-7 0 -1 -6.31059e-7 0 -1 0 0 -1 2.51212e-7 0 -1 -3.0132e-7 0 -1 4.59589e-7 -0.8725965 0 -0.4884418 -0.8725965 0 -0.4884418 0.9359375 0 0.3521664 0.9359376 0 0.3521659 0.9359374 0 0.3521667 0.9359378 0 0.3521658 0.935937 0 0.3521675 0.935938 0 0.3521652 0.9359374 0 0.3521665 0.9359377 0 0.352166 0 1 9.2802e-7 0 1 -2.8972e-7 0 1 0 0 1 3.26887e-7 0 1 -3.80867e-6 0 1 -7.87784e-7 0 1 2.63165e-7 0 1 1.62719e-7 0 1 2.18005e-7 0 1 3.62992e-7 0 1 -5.99251e-7 0 1 -2.63751e-7 0 1 -1.23046e-6 0 1 -1.83378e-7 0 1 1.73752e-7 0 1 -1.5722e-7 0 1 1.50133e-7 0 1 -1.36523e-6 0 1 -2.03064e-6 0 1 -6.65643e-7 0 1 4.60438e-7 0 1 -1.66195e-7 0 1 4.26785e-7 0 1 0 0 1 -3.3818e-7 0 1 9.34379e-7 0 1 4.18739e-7 0 1 -2.92778e-7 0 1 1.4845e-7 0 1 0 0 1 -1.78356e-7 0 1 -1.74284e-7 0 1 -2.93447e-7 0 1 1.7478e-7 0 1 2.92612e-7 0 1 -3.51371e-7 0 1 -7.15139e-7 0 1 5.74653e-7 0 1 -2.93771e-7 0 1 -1.88396e-7 0 1 -2.89463e-7 0 1 6.96722e-7 0 1 1.88395e-7 0 1 -1.25596e-7 0 1 2.51191e-7 0 1 4.74407e-7 0 1 -2.3511e-7 0.9977479 0 0.06707543 0.9977479 0 0.06707549 0.997748 0 0.06707543 0.997748 0 0.06707543 0.8703172 0 -0.4924917 0.8703173 0 -0.4924914 0.9331132 0 -0.359583 0.9331132 0 -0.3595829 0.9615982 0 -0.2744612 0.9756962 0.01012527 -0.2188943 0.97917 0 -0.2030421 0.9972959 0 -0.07349163 0.9972954 -8.97918e-7 -0.07349729 0.9972954 0 -0.07349801 -0.9433701 0 -0.3317423 -0.9433701 0 -0.3317425 -0.884018 0 -0.4674531 -0.8840177 0 -0.4674534 -0.8052698 0 -0.5929086 -0.8052697 0 -0.5929088 -0.7088554 0 -0.7053539 -0.7088555 0 -0.7053537 -0.5968871 0 -0.8023253 -0.5968874 0 -0.8023251 -0.4718213 0 -0.8816942 -0.4718202 0 -0.8816949 -0.6018154 0 -0.7986354 -0.6018154 0 -0.7986353 -0.7880104 0 0.615662 -0.7880098 0 0.6156628 -0.7880108 5.36888e-7 0.6156615 -0.7880108 0 0.6156615 0.8703172 0 -0.4924917 0.8703173 0 -0.4924914 0.9331133 0 -0.3595828 0.9615982 0 -0.2744613 0.9756236 -0.01584714 -0.218878 0.9972954 0 -0.07349801 0.9972954 1.40544e-6 -0.07349735 0.9972959 0 -0.07349157 0.97917 0 -0.203042 -0.4078236 0 0.9130607 -0.4078047 0 0.9130692 -0.5484659 0 0.8361729 -0.5484502 0 0.8361833 -0.6750022 0 0.7378158 -0.7842037 0 0.6205037 -0.7842037 0 0.6205037 -0.8732691 0 0.4872383 -0.8732691 0 0.4872382 -0.939896 0 0.3414608 -0.9398961 0 0.3414608 -0.9823758 0 0.1869169 -0.982375 0 0.186921 -0.99962 0 0.02756786 -0.99962 0 0.02756845 -0.9911841 0 -0.1324927 -0.957284 0 -0.2891494 -0.957286 0 -0.2891432 0 1 1.60468e-7 0 1 2.19155e-7 0 1 0 0 1 -1.33951e-6 0 1 9.33523e-7 0 1 1.16837e-6 0 1 -1.91025e-7 0 1 -2.22953e-7 0 1 1.32769e-6 0 1 -3.33193e-7 0 1 -8.49989e-7 0 1 2.54058e-6 0 1 -1.34291e-6 0 1 -6.26428e-7 0 1 -1.07128e-6 0 1 2.6688e-7 0 1 -2.71582e-7 0 1 2.94604e-6 0 1 2.71631e-7 0 1 5.43142e-7 0 1 -2.94794e-6 0 1 5.42809e-7 0 1 2.95145e-6 0 1 -1.08451e-6 0 1 -1.08103e-6 0 1 1.08725e-6 0 1 -1.4923e-6 0 1 7.58434e-7 0 1 1.09517e-6 0 1 -1.0953e-6 0 1 1.47318e-6 0 1 1.09491e-6 0 1 -1.4745e-6 0 1 -5.4701e-7 0 1 2.96041e-6 0 1 -5.45324e-7 0 1 5.60526e-7 0 1 -1.03181e-6 0 -1 -4.6864e-7 0 -1 1.64339e-7 0 -1 1.6991e-6 0 -1 1.01268e-6 0 -1 -1.4069e-6 0 -1 -3.20885e-7 0 -1 6.77414e-7 0 -1 9.35172e-7 0 -1 -1.86235e-6 0 -1 -1.47559e-6 0 -1 -7.41223e-7 0 -1 3.71868e-7 0 -1 -7.50096e-7 0 -1 -1.51631e-6 0 -1 1.06374e-6 0 -1 -1.52587e-6 0 -1 -2.16866e-6 0 -1 1.17162e-6 0 -1 -1.94842e-7 0 -1 5.41136e-7 0 -1 -3.0071e-6 0 -1 5.39199e-7 0 -1 5.37031e-7 0 -1 3.04471e-6 0 -1 -1.60386e-6 0 -1 1.0953e-6 0 -1 1.90543e-6 0 -1 -2.96322e-6 0 -1 8.29996e-7 0 -1 -8.29037e-7 0 -1 2.17265e-6 -0.9433701 0 -0.3317424 -0.9433701 0 -0.3317422 -0.8840178 0 -0.4674532 -0.8840178 0 -0.4674534 -0.8052698 0 -0.5929086 -0.7088558 0 -0.7053536 -0.5968868 0 -0.8023254 -0.5968871 0 -0.8023253 -0.4313921 0 0.9021646 -0.4313934 0 0.9021639 -0.999228 0 -0.0392878 -0.999228 0 -0.03928792 -0.9999766 0 0.006840229 -0.9999766 0 0.006840229 -0.5562173 0 0.8310369 -0.5562162 0 0.8310378 -0.6570674 0 0.7538319 -0.6570684 0 0.7538311 -0.7473218 0 0.6644624 -0.7473225 0 0.6644615 -0.769041 0 0.6391996 -0.7690415 0 0.6391988 -0.8681326 0 0.4963324 -0.94098 0 0.3384625 -0.9409799 0 0.3384625 -0.9853818 0 0.1703612 -0.9853817 0 0.1703612 -0.9999958 0 -0.002891063 -0.9999958 0 -0.002891063 -0.9843805 0 -0.1760543 -0.9843805 0 -0.1760544 0.971405 0 0.237429 0.9714062 0 0.2374237 0.9215075 0 0.3883608 0.9215074 0 0.3883607 0.8483282 0 0.5294708 0.8483218 0 0.5294811 0.7537009 0 0.6572177 0.7537107 0 0.6572064 0.6400319 0 0.7683483 0.640032 0 0.7683483 0.5101808 0 0.8600673 0.3674786 0 0.9300321 0.3674589 0 0.9300398 0.2154306 0 0.9765192 0.05796116 0 0.9983189 -0.1009428 0 0.9948922 -0.1009653 0 0.99489 -0.257342 0 0.9663204 0.555042 0 -0.8318224 0.6449424 0 -0.7642313 0.7266831 0 -0.6869729 0.7992327 0 -0.6010218 0.7992325 0 -0.6010221 -0.7690413 0 0.6391991 -0.7690412 0 0.6391993 -0.8681326 0 0.4963325 -0.8681327 0 0.4963323 -0.9409799 0 0.3384626 -0.94098 0 0.3384624 -0.9853818 0 0.1703612 -0.9853817 0 0.1703612 -0.9999959 0 -0.002891063 -0.9999959 0 -0.002891063 -0.9843806 0 -0.1760543 -0.9843805 0 -0.1760544 0.5550423 0 -0.8318221 0.5550422 0 -0.8318223 0.6449428 0 -0.7642309 0.6449419 0 -0.7642318 0.7266836 0 -0.6869723 0.7266829 0 -0.6869731 0.7992322 0 -0.6010225 0.799233 0 -0.6010213 -0.9961948 0 0.08715403 -0.9961948 0 -0.08715403 -0.9961949 0 -0.08715403 -0.9659254 0 -0.2588206 -0.9063077 0 -0.4226184 -0.9063079 0 -0.4226182 -0.8191527 0 -0.5735757 -0.8191524 0 -0.5735759 -0.7071068 0 -0.7071068 -0.5735762 0 -0.8191524 -0.5735757 0 -0.8191527 -0.4226165 0 -0.9063086 -0.4226171 0 -0.9063085 -0.2588194 0 -0.9659258 -0.2588185 0 -0.965926 -0.08715587 0 -0.9961947 -0.08715593 0 -0.9961947 0.08715587 0 -0.9961947 0.08715587 0 -0.9961947 0.2588183 0 -0.9659261 0.2588196 0 -0.9659258 0.4226173 0 -0.9063082 0.4226168 0 -0.9063086 0.5735757 0 -0.8191527 0.5735762 0 -0.8191524 0.7071062 0 -0.7071074 0.7071062 0 -0.7071074 0.8191524 0 -0.5735762 0.8191522 0 -0.5735763 0.906308 0 -0.4226179 0.9659258 0 -0.2588193 0.9659258 0 -0.2588195 0.9961947 0 -0.08715581 0.9961948 0 -0.08715587 0.9961948 0 0.08715581 0.9961948 0 0.08715587 0.9659258 0 0.2588193 0.9659258 0 0.2588194 0.9063079 0 0.422618 0.906308 0 0.4226179 0.8191524 0 0.5735762 0.8191522 0 0.5735763 0.7071065 0 0.7071071 0.7071059 0 0.7071077 0.5735762 0 0.8191524 0.5735757 0 0.8191527 0.4226203 0 0.9063069 0.2588183 0 0.9659261 0.2588185 0 0.965926 0.08715587 0 0.9961947 0.08715587 0 0.9961947 -0.08715587 0 0.9961947 -0.08715593 0 0.9961947 -0.2588183 0 0.9659261 -0.2588185 0 0.965926 -0.4226201 0 0.906307 -0.5735757 0 0.8191527 -0.5735762 0 0.8191524 -0.7071065 0 0.7071071 -0.7071071 0 0.7071065 -0.8191527 0 0.5735757 -0.8191524 0 0.5735759 -0.9063077 0 0.4226184 -0.9063078 0 0.4226183 -0.9659255 0 0.2588205 -0.9659254 0 0.2588206 -0.9961949 0 0.08715403 -0.9961947 0 0.08715671 -0.9961948 0 -0.08715397 -0.9961947 0 -0.08715671 -0.9659248 0 -0.2588232 -0.9659268 0 -0.2588154 -0.9063071 0 -0.4226199 -0.8191478 0 -0.5735825 -0.8191478 0 -0.5735826 -0.7071126 0 -0.7071011 -0.7071125 0 -0.7071011 -0.5735586 0 -0.8191645 -0.5735796 0 -0.8191499 -0.42263 0 -0.9063023 -0.4226043 0 -0.9063143 -0.2588244 0 -0.9659245 -0.2588534 0 -0.9659166 -0.0871365 0 -0.9961964 -0.0871365 0 -0.9961965 0.0871365 0 -0.9961964 0.0871365 0 -0.9961965 0.2588527 0 -0.9659169 0.2588236 0 -0.9659246 0.4226055 0 -0.9063138 0.422631 0 -0.9063019 0.5735784 0 -0.8191508 0.5735574 0 -0.8191654 0.707114 0 -0.7070997 0.7071139 0 -0.7070997 0.8191464 0 -0.5735845 0.9063082 0 -0.4226176 0.9063082 0 -0.4226175 0.9659268 0 -0.2588154 0.9659248 0 -0.2588232 0.9961947 0 -0.08715671 0.9961948 0 -0.08715397 0.9961947 0 0.08715671 0.9961948 0 0.08715397 0.9659268 0 0.2588154 0.9063082 0 0.4226176 0.9063082 0 0.4226175 0.8191464 0 0.5735845 0.707114 0 0.7070997 0.7071139 0 0.7070997 0.5735784 0 0.8191508 0.5735574 0 0.8191654 0.422631 0 0.9063019 0.422631 0 0.9063019 0.2587946 0 0.9659324 0.2587946 0 0.9659324 0.08716738 0 0.9961937 0.08719831 0 0.9961911 -0.08719831 0 0.9961911 -0.08716738 0 0.9961938 -0.2587953 0 0.9659322 -0.42263 0 0.9063023 -0.42263 0 0.9063025 -0.5735586 0 0.8191645 -0.5735796 0 0.8191499 -0.7071126 0 0.7071011 -0.7071125 0 0.7071011 -0.8191478 0 0.5735825 -0.8191478 0 0.5735826 -0.9063071 0 0.4226199 -0.9659268 0 0.2588154 -0.9961948 0 0.08715397 0.08715355 0 -0.9961949 -0.08715355 0 -0.9961949 -0.2588187 0 -0.965926 -0.258818 0 -0.9659262 -0.4226189 0 -0.9063075 -0.4226193 0 -0.9063073 -0.5735776 0 -0.8191514 -0.5735774 0 -0.8191514 -0.7071051 0 -0.7071086 -0.7071053 0 -0.7071083 -0.8191526 0 -0.5735757 -0.8191528 0 -0.5735754 -0.9063081 0 -0.4226179 -0.9063083 0 -0.4226173 -0.9659259 0 -0.2588192 -0.9659259 0 -0.2588191 -0.9961947 0 -0.08715593 -0.9961948 0 -0.08715581 -0.9961947 0 0.08715593 -0.9961948 0 0.08715581 -0.9659259 0 0.2588192 -0.9659259 0 0.258819 -0.9063081 0 0.4226179 -0.9063083 0 0.4226174 -0.8191512 0 0.5735778 -0.8191515 0 0.5735772 -0.7071068 0 0.7071068 -0.7071078 0 0.7071058 -0.5735769 0 0.8191518 -0.573578 0 0.819151 -0.4226155 0 0.9063091 -0.4226159 0 0.9063089 -0.2588215 0 0.9659252 -0.2588227 0 0.9659249 -0.08715355 0 0.9961949 0.08715355 0 0.9961949 0.2588222 0 0.965925 0.2588217 0 0.9659251 0.4226159 0 0.9063089 0.4226164 0 0.9063088 0.5735776 0 0.8191514 0.5735769 0 0.8191518 0.7071073 0 0.7071063 0.8191521 0 0.5735766 0.9063081 0 0.4226179 0.9063083 0 0.4226174 0.9659255 0 0.2588201 0.9659256 0 0.2588199 0.9961947 0 0.08715593 0.9961947 0 0.08715581 0.9961947 0 -0.08715593 0.9961947 0 -0.08715581 0.9659255 0 -0.2588202 0.9659256 0 -0.2588199 0.9063081 0 -0.4226177 0.9063083 0 -0.4226174 0.8191533 0 -0.5735747 0.8191538 0 -0.573574 0.7071048 0 -0.7071088 0.7071056 0 -0.7071081 0.5735769 0 -0.8191518 0.5735776 0 -0.8191514 0.4226193 0 -0.9063073 0.4226197 0 -0.9063072 0.2588174 0 -0.9659262 0.2588189 0 -0.9659259 0 1 -1.22504e-7 0 1 3.13483e-7 0 1 -7.34716e-6 0 1 4.10555e-7 0 1 -2.26195e-7 0 1 1.55089e-6 0 1 -1.18398e-6 0 1 9.42094e-7 0 1 -3.84636e-7 0 1 6.28065e-7 0 1 8.2111e-7 0 1 -5.31599e-7 0 1 1.56742e-7 -0.6632744 0 -0.7483763 -0.7732857 0 -0.6340579 -0.7732888 0 -0.634054 -0.8638323 0 -0.5037797 -0.9326415 0 -0.3608046 -0.9326404 0 -0.3608073 -0.9779656 0 -0.2087665 -0.9779657 0 -0.2087657 -0.9986748 0 -0.05146521 -0.9942449 0 0.1071307 -0.9942449 0 0.1071311 -0.9647868 0 0.2630333 -0.9110442 0 0.4123088 -0.8343678 0 0.5512082 -0.834369 0 0.5512064 -0.4052278 0 -0.9142158 -0.4052281 0 -0.9142156 -0.405228 0 -0.9142158 -0.4052282 0 -0.9142156 -0.3317126 0 -0.9433806 -0.1789154 0 -0.9838645 -0.1789153 0 -0.9838645 -0.02165329 0 -0.9997656 -0.02165001 0 -0.9997656 0.1361523 0 -0.9906879 0.1361523 0 -0.9906879 0.2905507 0 -0.9568597 0.2905476 0 -0.9568606 0.4376911 0 -0.8991255 0.4376884 0 -0.8991267 -0.3317122 0 -0.9433807 -0.3317124 0 -0.9433806 -0.1789134 0 -0.9838649 -0.1789135 0 -0.9838649 -0.02165204 0 -0.9997656 0.1361527 0 -0.9906879 0.1361526 0 -0.990688 0.2905456 0 -0.9568612 0.2905505 0 -0.9568597 0.4376919 0 -0.899125 0.4376901 0 -0.8991259 0.952349 0 0.3050107 0.978014 0 0.2085393 0.9780147 0 0.2085359 -0.951937 0 -0.3062942 -0.951937 0 -0.3062942 -0.9826071 0 -0.1856967 -0.9826077 0 -0.1856943 -0.9980626 0 -0.06221973 -0.9980625 0 -0.06222057 -0.9992602 0 0.03845947 -0.9992603 0 0.03845936 -0.9812399 0 0.1927908 -0.9812398 0 0.1927917 -0.9395287 0 0.3424701 -0.9395284 0 0.3424713 -0.8751379 0 0.4838737 -0.8751389 0 0.4838719 -0.7896133 0 0.613605 -0.789613 0 0.6136052 -0.6850302 0 0.7285147 -0.6850278 0 0.7285169 -0.5639023 0 0.8258415 -0.5638994 0 0.8258436 -0.4291663 0 0.9032256 -0.4291626 0 0.9032273 -0.3265738 -0.8910064 0.3153684 -0.3265739 -0.8910064 0.3153685 -0.3265739 0.8910062 0.3153688 -0.3265737 0.8910064 0.3153686 0.9791701 0 -0.203042 0.9972959 0 -0.07349157 0.9972959 0 -0.07349151 0.9972954 0 -0.07349801 -0.3521656 0 0.9359378 -0.3521659 -3.18611e-6 0.9359376 -0.3521723 0 0.9359353 -0.3521775 0 0.9359333 -0.3521643 0 0.9359383 -0.3521686 8.42284e-6 0.9359366 -0.3521624 0 0.9359389 -0.352167 0 0.9359372 -0.3521634 0 0.9359386 0.9359378 0 0.3521655 0.9359373 0 0.3521668 0.3521665 0 -0.9359374 0.3521654 -7.5023e-6 -0.9359379 0.3521721 0 -0.9359353 0.3521603 0 -0.9359398 0.3521654 0 -0.9359378 0.3521656 3.98976e-6 -0.9359378 0.3521723 0 -0.9359353 0.352167 0 -0.9359373 0.35217 0 -0.9359361 0.3521669 0 -0.9359373 0 -1 2.3283e-7 0.9359378 0 0.3521655 0.9359374 0 0.3521668 -0.9359378 0 -0.3521656 -0.9359381 0 -0.3521648 -0.9359378 0 -0.3521654 -0.9977479 0 -0.06707549 -0.997748 0 -0.06707549 -0.4407849 0 -0.8976129 -0.4407849 0 -0.8976129 -0.9961948 0 0.08715373 -0.996195 0 -0.0871523 -0.965924 0 -0.2588261 -0.965924 0 -0.2588261 -0.9063078 0 -0.4226183 -0.8191549 0 -0.5735724 -0.8191549 0 -0.5735723 -0.7071065 0 -0.7071071 -0.7071069 0 -0.7071067 -0.5735768 0 -0.8191519 -0.5735765 0 -0.8191521 -0.4226219 0 -0.9063061 -0.2588183 0 -0.9659261 -0.2588179 0 -0.9659261 -0.08716076 0 -0.9961944 -0.08716076 0 -0.9961943 0.08716148 0 -0.9961942 0.2588158 0 -0.9659267 0.2588162 0 -0.9659267 0.4226253 0 -0.9063047 0.5735765 0 -0.8191521 0.5735768 0 -0.8191519 0.7071068 0 -0.7071067 0.7071065 0 -0.7071071 0.8191509 0 -0.5735781 0.9063078 0 -0.4226183 0.9659262 0 -0.2588182 0.996195 0 -0.0871523 0.9961948 0 0.08715373 0.9659273 0 0.2588139 0.9659274 0 0.2588136 0.9063078 0 0.4226183 0.8191509 0 0.5735781 0.7071068 0 0.7071067 0.7071061 0 0.7071075 0.5735771 0 0.8191517 0.573576 0 0.8191525 0.4226122 0 0.9063107 0.4226108 0 0.9063113 0.2588158 0 0.9659267 0.08716231 0 0.9961942 0.08716064 0 0.9961944 -0.08715993 0 0.9961944 -0.0871616 0 0.9961943 -0.2588179 0 0.9659261 -0.4226075 0 0.9063128 -0.4226089 0 0.9063122 -0.573576 0 0.8191525 -0.5735771 0 0.8191517 -0.7071061 0 0.7071076 -0.7071069 0 0.7071067 -0.8191549 0 0.5735724 -0.8191549 0 0.5735723 -0.9063078 0 0.4226183 -0.9659252 0 0.2588215 -0.9659251 0 0.2588219 0 -1 0 0 -1 0 0 -1 0 0 -1 0 0 -1 0 0 -1 0 0 -1 0 0 -1 0 0 -1 0 0 -1 2.90228e-7 0 -1 0 0 -1 0 0 -1 0 0 -1 0 0 -1 -1.35362e-7 0 -1 5.89422e-7 0 -1 -2.90233e-7 0 -1 0 1 0 0 0 0 -1 0 0 1 9.70128e-6 0 1 1.70885e-5 0 1 -1.01231e-5 0 1</float_array>
          <technique_common>
            <accessor source="#Link2-mesh-normals-array" count="795" stride="3">
              <param name="X" type="float"/>
              <param name="Y" type="float"/>
              <param name="Z" type="float"/>
            </accessor>
          </technique_common>
        </source>
        <vertices id="Link2-mesh-vertices">
          <input semantic="POSITION" source="#Link2-mesh-positions"/>
        </vertices>
        <triangles material="colour_abb_white_001-material" count="1150">
          <input semantic="VERTEX" source="#Link2-mesh-vertices" offset="0"/>
          <input semantic="NORMAL" source="#Link2-mesh-normals" offset="1"/>
          <p>0 0 1 0 2 0 2 0 1 0 3 0 4 1 5 1 6 1 7 1 8 1 9 1 10 1 11 1 12 1 12 1 11 1 4 1 13 1 12 1 14 1 14 2 12 2 4 2 14 1 4 1 9 1 9 3 4 3 6 3 9 4 6 4 7 4 15 5 16 5 17 5 17 1 16 1 18 1 17 6 18 6 19 6 19 7 18 7 20 7 21 8 22 8 23 8 24 9 25 9 26 9 27 1 28 1 10 1 29 10 30 10 17 10 17 11 30 11 31 11 17 1 31 1 15 1 32 12 33 12 34 12 34 1 33 1 30 1 34 1 30 1 35 1 35 1 30 1 29 1 23 1 22 1 36 1 36 13 22 13 37 13 36 1 37 1 38 1 38 1 37 1 39 1 38 1 39 1 40 1 40 14 39 14 41 14 40 15 41 15 25 15 25 1 41 1 42 1 25 16 42 16 26 16 43 1 44 1 45 1 45 1 44 1 10 1 10 17 44 17 46 17 10 18 46 18 27 18 45 1 47 1 43 1 43 19 47 19 48 19 43 1 48 1 49 1 49 20 48 20 50 20 49 21 50 21 51 21 20 22 52 22 19 22 19 1 52 1 53 1 19 1 53 1 54 1 54 23 53 23 55 23 54 1 55 1 56 1 56 24 55 24 57 24 56 1 57 1 58 1 58 25 57 25 59 25 58 1 59 1 60 1 60 26 59 26 61 26 60 1 61 1 62 1 62 27 61 27 63 27 62 28 63 28 64 28 64 29 63 29 21 29 64 1 21 1 65 1 65 1 21 1 23 1 28 1 66 1 10 1 10 30 66 30 67 30 10 31 67 31 32 31 32 1 67 1 68 1 32 32 68 32 33 32 32 1 69 1 10 1 10 33 69 33 70 33 10 34 70 34 11 34 11 35 70 35 71 35 11 36 71 36 72 36 73 1 74 1 75 1 50 1 76 1 51 1 51 37 76 37 77 37 51 1 77 1 78 1 78 1 77 1 79 1 78 38 79 38 75 38 75 1 79 1 80 1 75 39 80 39 73 39 26 1 81 1 24 1 24 40 81 40 82 40 24 1 82 1 83 1 83 41 82 41 84 41 83 1 84 1 85 1 85 42 84 42 75 42 85 1 75 1 86 1 86 1 75 1 74 1 87 1 88 1 89 1 89 43 88 43 11 43 89 1 11 1 90 1 90 1 11 1 72 1 91 44 92 44 93 44 94 44 95 44 96 44 97 45 98 45 99 45 99 44 98 44 100 44 101 44 102 44 103 44 104 44 105 44 106 44 106 46 105 46 107 46 106 47 107 47 108 47 108 44 107 44 109 44 108 44 109 44 110 44 110 48 109 48 111 48 110 44 111 44 112 44 101 44 103 44 113 44 114 49 115 49 116 49 116 50 115 50 117 50 116 44 117 44 104 44 104 51 117 51 118 51 104 52 118 52 105 52 119 44 120 44 121 44 122 44 123 44 124 44 97 53 125 53 98 53 98 54 125 54 126 54 98 44 126 44 127 44 120 44 128 44 121 44 121 55 128 55 129 55 121 44 129 44 114 44 114 56 129 56 130 56 114 57 130 57 115 57 122 58 124 58 131 58 93 44 94 44 91 44 91 59 94 59 96 59 91 44 96 44 132 44 132 44 96 44 133 44 134 60 135 60 136 60 102 61 101 61 137 61 137 62 101 62 138 62 137 63 138 63 121 63 121 64 138 64 139 64 121 44 139 44 119 44 97 44 140 44 125 44 125 65 140 65 141 65 125 66 141 66 142 66 125 44 143 44 122 44 122 67 143 67 144 67 122 68 144 68 123 68 96 44 98 44 133 44 133 69 98 69 127 69 133 44 127 44 136 44 136 44 127 44 145 44 136 70 145 70 134 70 135 44 146 44 136 44 136 44 146 44 147 44 136 44 147 44 111 44 111 71 147 71 148 71 111 72 148 72 112 72 103 44 149 44 113 44 113 44 149 44 150 44 113 73 150 73 151 73 151 74 150 74 152 74 151 44 152 44 153 44 153 44 152 44 154 44 153 44 154 44 155 44 155 75 154 75 156 75 155 44 156 44 157 44 157 76 156 76 158 76 157 44 158 44 159 44 159 77 158 77 160 77 159 78 160 78 161 78 161 79 160 79 162 79 124 44 163 44 131 44 131 80 163 80 164 80 131 81 164 81 165 81 165 82 164 82 166 82 165 44 166 44 167 44 167 44 166 44 168 44 167 83 168 83 169 83 169 84 168 84 170 84 169 85 170 85 171 85 171 86 170 86 172 86 171 87 172 87 173 87 173 88 172 88 174 88 173 44 174 44 175 44 175 89 174 89 176 89 175 44 176 44 162 44 162 90 176 90 177 90 162 91 177 91 161 91 142 92 178 92 125 92 125 93 178 93 179 93 125 94 179 94 143 94 99 0 100 0 180 0 180 0 100 0 88 0 180 0 88 0 87 0 181 0 182 0 183 0 183 0 182 0 184 0 183 95 184 95 94 95 94 96 184 96 6 96 94 0 6 0 95 0 95 0 6 0 5 0 185 44 186 44 187 44 185 44 187 44 188 44 189 44 190 44 187 44 191 44 192 44 187 44 188 44 187 44 193 44 193 97 187 97 190 97 193 98 190 98 194 98 194 44 195 44 193 44 193 99 195 99 196 99 193 100 196 100 197 100 198 101 199 101 200 101 201 102 202 102 187 102 187 103 202 103 203 103 203 44 204 44 187 44 187 44 204 44 205 44 187 104 205 104 206 104 207 44 208 44 187 44 187 105 208 105 209 105 187 106 209 106 189 106 210 107 211 107 212 107 213 44 214 44 215 44 216 44 217 44 218 44 218 108 217 108 219 108 218 109 219 109 200 109 200 110 219 110 220 110 200 111 220 111 198 111 200 44 221 44 187 44 187 112 221 112 222 112 187 113 222 113 191 113 223 44 224 44 187 44 187 114 224 114 225 114 187 115 225 115 201 115 192 44 226 44 187 44 187 116 226 116 227 116 187 117 227 117 207 117 210 118 228 118 211 118 211 119 228 119 229 119 211 120 229 120 230 120 214 44 231 44 215 44 215 121 231 121 232 121 215 44 232 44 218 44 218 122 232 122 233 122 218 123 233 123 216 123 199 124 234 124 200 124 200 125 234 125 235 125 200 126 235 126 236 126 197 127 237 127 193 127 193 128 237 128 238 128 193 44 238 44 239 44 239 129 238 129 230 129 239 44 230 44 240 44 240 44 230 44 229 44 215 44 241 44 213 44 213 130 241 130 242 130 213 131 242 131 212 131 212 132 242 132 243 132 212 133 243 133 210 133 236 44 244 44 200 44 200 134 244 134 245 134 200 135 245 135 221 135 186 44 246 44 187 44 187 136 246 136 247 136 187 137 247 137 248 137 248 44 249 44 187 44 187 138 249 138 250 138 187 139 250 139 223 139 206 140 251 140 187 140 187 141 251 141 252 141 253 142 254 142 255 142 255 143 254 143 256 143 255 144 256 144 7 144 7 145 256 145 93 145 7 146 93 146 8 146 8 147 93 147 92 147 133 148 136 148 13 148 13 149 136 149 12 149 257 1 258 1 259 1 259 1 258 1 260 1 261 44 262 44 263 44 263 44 262 44 264 44 265 1 180 1 266 1 267 1 268 1 252 1 265 150 269 150 270 150 270 1 271 1 265 1 265 1 271 1 272 1 265 1 272 1 273 1 268 1 274 1 252 1 252 151 274 151 275 151 252 152 275 152 276 152 265 1 277 1 269 1 269 1 277 1 252 1 269 1 252 1 278 1 278 1 252 1 276 1 251 153 279 153 252 153 252 154 279 154 280 154 252 155 280 155 267 155 281 1 282 1 283 1 282 1 281 1 266 1 266 156 281 156 284 156 266 157 284 157 285 157 285 1 286 1 266 1 266 158 286 158 287 158 266 1 287 1 265 1 288 1 289 1 290 1 291 159 292 159 293 159 288 1 294 1 289 1 289 160 294 160 295 160 289 1 295 1 296 1 296 161 295 161 297 161 296 162 297 162 298 162 291 163 293 163 299 163 293 1 300 1 299 1 299 164 300 164 301 164 299 1 301 1 302 1 302 165 301 165 303 165 302 1 303 1 304 1 304 166 303 166 279 166 304 1 279 1 305 1 305 1 279 1 306 1 283 1 307 1 281 1 281 167 307 167 308 167 281 168 308 168 309 168 310 169 311 169 290 169 290 170 311 170 312 170 290 1 312 1 288 1 251 1 313 1 279 1 279 171 313 171 314 171 279 172 314 172 315 172 315 1 316 1 279 1 279 1 316 1 317 1 279 173 317 173 318 173 298 1 319 1 296 1 296 174 319 174 320 174 296 175 320 175 321 175 318 176 322 176 279 176 279 177 322 177 323 177 279 178 323 178 306 178 273 1 324 1 265 1 265 1 324 1 325 1 265 1 325 1 180 1 180 179 325 179 326 179 180 1 326 1 327 1 327 180 326 180 296 180 327 1 296 1 328 1 328 1 296 1 321 1 292 181 291 181 329 181 329 182 291 182 330 182 329 183 330 183 331 183 331 184 330 184 332 184 331 185 332 185 333 185 333 1 332 1 334 1 333 1 334 1 335 1 335 1 334 1 336 1 335 186 336 186 337 186 336 187 338 187 337 187 337 188 338 188 339 188 337 1 339 1 340 1 340 189 339 189 341 189 340 1 341 1 342 1 342 190 341 190 343 190 342 191 343 191 344 191 344 192 343 192 345 192 344 1 345 1 346 1 346 193 345 193 347 193 346 1 347 1 348 1 348 194 347 194 349 194 348 1 349 1 350 1 350 1 349 1 351 1 350 1 351 1 310 1 310 195 351 195 352 195 310 196 352 196 311 196 10 197 12 197 353 197 353 198 12 198 136 198 353 199 136 199 354 199 354 200 136 200 111 200 203 201 50 201 48 201 203 202 48 202 204 202 204 203 48 203 47 203 204 204 47 204 205 204 205 205 47 205 206 205 206 206 47 206 45 206 206 207 45 207 355 207 355 208 45 208 356 208 356 209 45 209 10 209 356 210 10 210 353 210 229 211 64 211 65 211 229 212 65 212 240 212 240 213 65 213 23 213 240 214 23 214 239 214 239 215 23 215 36 215 239 216 36 216 193 216 193 217 36 217 38 217 193 218 38 218 188 218 188 219 38 219 40 219 188 220 40 220 185 220 185 221 40 221 25 221 185 222 25 222 186 222 89 223 266 223 87 223 87 224 266 224 180 224 265 225 287 225 218 225 218 226 287 226 17 226 218 227 17 227 215 227 215 228 17 228 19 228 118 229 315 229 314 229 118 230 314 230 105 230 105 203 314 203 313 203 105 231 313 231 107 231 107 232 313 232 251 232 107 233 251 233 109 233 354 234 111 234 357 234 357 235 111 235 109 235 357 236 109 236 358 236 358 237 109 237 251 237 359 238 360 238 361 238 359 239 361 239 362 239 362 240 361 240 363 240 362 241 363 241 364 241 364 242 363 242 365 242 364 242 365 242 366 242 366 243 365 243 367 243 366 244 367 244 368 244 368 245 367 245 369 245 368 246 369 246 370 246 370 247 369 247 371 247 370 248 371 248 372 248 372 249 371 249 373 249 372 250 373 250 374 250 374 251 373 251 375 251 374 252 375 252 376 252 376 253 375 253 377 253 376 253 377 253 378 253 378 254 377 254 379 254 378 255 379 255 380 255 184 256 381 256 382 256 383 1 384 1 255 1 382 1 385 1 184 1 184 257 385 257 386 257 184 258 386 258 255 258 255 259 386 259 387 259 255 260 387 260 383 260 384 1 388 1 255 1 255 261 388 261 389 261 255 262 389 262 253 262 381 263 184 263 390 263 390 1 184 1 182 1 390 264 182 264 391 264 391 265 182 265 392 265 391 1 392 1 393 1 393 266 392 266 394 266 393 267 394 267 395 267 395 268 394 268 396 268 396 269 394 269 379 269 396 1 379 1 397 1 397 270 379 270 377 270 397 1 377 1 398 1 398 271 377 271 375 271 398 1 375 1 399 1 375 1 373 1 399 1 399 272 373 272 371 272 399 273 371 273 400 273 400 274 371 274 369 274 400 1 369 1 401 1 401 275 369 275 367 275 401 276 367 276 402 276 402 277 367 277 365 277 402 278 365 278 403 278 403 279 365 279 363 279 403 1 363 1 404 1 404 1 363 1 361 1 404 1 361 1 405 1 405 280 361 280 360 280 405 1 360 1 406 1 406 281 360 281 407 281 406 282 407 282 408 282 408 1 407 1 409 1 408 1 409 1 410 1 410 1 409 1 411 1 410 1 411 1 412 1 412 1 411 1 413 1 412 283 413 283 414 283 413 1 415 1 414 1 414 284 415 284 416 284 414 1 416 1 417 1 417 285 416 285 418 285 417 286 418 286 419 286 419 287 418 287 420 287 419 288 420 288 421 288 421 289 420 289 422 289 421 1 422 1 423 1 423 1 422 1 424 1 423 290 424 290 425 290 425 291 424 291 426 291 425 1 426 1 427 1 427 292 426 292 428 292 427 1 428 1 429 1 429 293 428 293 253 293 429 1 253 1 430 1 430 1 253 1 389 1 431 44 432 44 256 44 256 44 432 44 183 44 183 294 432 294 433 294 183 295 433 295 434 295 435 296 436 296 256 296 256 297 436 297 437 297 256 298 437 298 431 298 434 44 438 44 183 44 183 299 438 299 439 299 183 44 439 44 181 44 181 300 439 300 440 300 181 44 440 44 441 44 441 301 440 301 442 301 441 44 442 44 443 44 435 302 256 302 444 302 444 44 256 44 254 44 444 44 254 44 445 44 446 44 447 44 448 44 448 44 447 44 449 44 448 44 449 44 450 44 450 44 449 44 451 44 450 303 451 303 452 303 452 44 451 44 453 44 452 44 453 44 454 44 454 44 453 44 455 44 454 304 455 304 456 304 456 44 455 44 457 44 456 305 457 305 458 305 458 44 457 44 359 44 458 44 359 44 459 44 459 44 359 44 362 44 459 306 362 306 460 306 460 44 362 44 364 44 460 44 364 44 461 44 461 44 364 44 366 44 461 307 366 307 462 307 462 308 366 308 368 308 462 309 368 309 463 309 445 310 254 310 464 310 464 311 254 311 465 311 464 44 465 44 466 44 466 312 465 312 467 312 466 44 467 44 468 44 468 313 467 313 469 313 468 314 469 314 470 314 470 315 469 315 471 315 470 44 471 44 472 44 472 316 471 316 473 316 472 317 473 317 446 317 446 318 473 318 474 318 446 319 474 319 447 319 442 44 475 44 443 44 443 320 475 320 476 320 443 44 476 44 380 44 380 321 476 321 477 321 380 44 477 44 378 44 378 44 477 44 478 44 378 44 478 44 376 44 376 322 478 322 479 322 376 44 479 44 374 44 374 323 479 323 480 323 374 324 480 324 372 324 372 44 480 44 463 44 372 44 463 44 370 44 370 44 463 44 368 44 161 325 339 325 338 325 161 326 338 326 159 326 159 327 338 327 336 327 159 328 336 328 157 328 157 329 336 329 334 329 157 216 334 216 155 216 155 330 334 330 332 330 155 330 332 330 153 330 153 331 332 331 330 331 153 332 330 332 151 332 151 221 330 221 291 221 151 221 291 221 113 221 163 333 124 333 312 333 312 334 124 334 288 334 140 335 97 335 328 335 328 336 97 336 327 336 97 337 99 337 327 337 327 338 99 338 180 338 163 339 312 339 311 339 163 340 311 340 164 340 164 341 311 341 352 341 164 342 352 342 166 342 166 343 352 343 351 343 166 344 351 344 168 344 168 345 351 345 349 345 168 346 349 346 170 346 170 347 349 347 347 347 170 347 347 347 172 347 172 348 347 348 345 348 172 349 345 349 174 349 174 350 345 350 343 350 174 351 343 351 176 351 176 352 343 352 341 352 176 353 341 353 177 353 177 354 341 354 339 354 177 355 339 355 161 355 467 356 426 356 424 356 467 357 424 357 469 357 469 358 424 358 422 358 469 359 422 359 471 359 471 360 422 360 420 360 471 361 420 361 473 361 473 362 420 362 418 362 473 363 418 363 474 363 474 364 418 364 416 364 474 365 416 365 447 365 447 366 416 366 415 366 447 366 415 366 449 366 449 367 415 367 413 367 449 368 413 368 451 368 451 369 413 369 411 369 451 369 411 369 453 369 453 370 411 370 409 370 453 370 409 370 455 370 455 371 409 371 407 371 455 372 407 372 457 372 457 373 407 373 360 373 457 373 360 373 359 373 129 374 322 374 318 374 129 374 318 374 130 374 130 375 318 375 317 375 130 375 317 375 115 375 115 376 317 376 316 376 115 376 316 376 117 376 117 377 316 377 315 377 117 378 315 378 118 378 215 379 19 379 54 379 215 380 54 380 241 380 241 381 54 381 56 381 241 382 56 382 242 382 242 383 56 383 58 383 242 384 58 384 243 384 243 385 58 385 60 385 243 386 60 386 210 386 210 387 60 387 62 387 210 388 62 388 228 388 228 389 62 389 64 389 228 390 64 390 229 390 224 391 80 391 79 391 224 392 79 392 225 392 225 393 79 393 77 393 225 394 77 394 201 394 201 395 77 395 76 395 201 396 76 396 202 396 202 397 76 397 50 397 202 398 50 398 203 398 275 399 110 399 276 399 276 400 110 400 112 400 276 401 112 401 278 401 278 402 112 402 148 402 278 402 148 402 269 402 269 403 148 403 147 403 269 404 147 404 270 404 270 405 147 405 146 405 270 406 146 406 271 406 271 407 146 407 135 407 271 407 135 407 272 407 272 408 135 408 134 408 272 409 134 409 273 409 273 410 134 410 145 410 273 411 145 411 324 411 324 412 145 412 127 412 324 413 127 413 325 413 325 414 127 414 126 414 325 415 126 415 326 415 326 416 126 416 125 416 326 417 125 417 296 417 296 418 125 418 122 418 296 419 122 419 289 419 289 420 122 420 131 420 289 421 131 421 290 421 290 422 131 422 165 422 290 423 165 423 310 423 310 424 165 424 167 424 310 425 167 425 350 425 350 426 167 426 169 426 350 427 169 427 348 427 348 428 169 428 171 428 348 428 171 428 346 428 346 429 171 429 173 429 346 430 173 430 344 430 344 431 173 431 175 431 344 432 175 432 342 432 342 433 175 433 162 433 342 434 162 434 340 434 340 435 162 435 160 435 340 436 160 436 337 436 337 437 160 437 158 437 337 438 158 438 335 438 335 439 158 439 156 439 335 440 156 440 333 440 333 441 156 441 154 441 333 442 154 442 331 442 331 443 154 443 152 443 331 444 152 444 329 444 329 445 152 445 150 445 329 445 150 445 292 445 292 446 150 446 149 446 292 447 149 447 293 447 293 448 149 448 103 448 293 449 103 449 300 449 300 450 103 450 102 450 300 451 102 451 301 451 301 452 102 452 137 452 301 453 137 453 303 453 303 454 137 454 121 454 303 454 121 454 279 454 279 455 121 455 114 455 279 456 114 456 280 456 280 457 114 457 116 457 280 458 116 458 267 458 267 459 116 459 104 459 267 460 104 460 268 460 268 461 104 461 106 461 268 462 106 462 274 462 274 463 106 463 108 463 274 464 108 464 275 464 275 465 108 465 110 465 429 466 464 466 427 466 427 467 464 467 466 467 427 468 466 468 425 468 425 469 466 469 468 469 425 470 468 470 423 470 423 471 468 471 470 471 423 471 470 471 421 471 421 472 470 472 472 472 421 473 472 473 419 473 419 474 472 474 446 474 419 475 446 475 417 475 417 476 446 476 448 476 417 477 448 477 414 477 414 478 448 478 450 478 414 479 450 479 412 479 412 480 450 480 452 480 412 481 452 481 410 481 410 482 452 482 454 482 410 483 454 483 408 483 408 484 454 484 456 484 408 485 456 485 406 485 406 486 456 486 458 486 406 487 458 487 405 487 405 488 458 488 459 488 405 489 459 489 404 489 404 490 459 490 460 490 404 491 460 491 403 491 403 492 460 492 461 492 403 493 461 493 402 493 402 494 461 494 462 494 402 494 462 494 401 494 401 495 462 495 463 495 401 496 463 496 400 496 400 497 463 497 480 497 400 498 480 498 399 498 399 499 480 499 479 499 399 500 479 500 398 500 398 501 479 501 478 501 398 502 478 502 397 502 397 503 478 503 477 503 397 503 477 503 396 503 396 504 477 504 476 504 396 505 476 505 395 505 395 506 476 506 475 506 395 506 475 506 393 506 393 507 475 507 442 507 393 508 442 508 391 508 391 509 442 509 440 509 391 510 440 510 390 510 390 511 440 511 439 511 390 512 439 512 381 512 381 513 439 513 438 513 381 514 438 514 382 514 382 515 438 515 434 515 382 516 434 516 385 516 385 517 434 517 433 517 385 518 433 518 386 518 386 519 433 519 432 519 386 519 432 519 387 519 387 520 432 520 431 520 387 521 431 521 383 521 383 522 431 522 437 522 383 523 437 523 384 523 384 524 437 524 436 524 384 525 436 525 388 525 388 526 436 526 435 526 388 527 435 527 389 527 389 528 435 528 444 528 389 528 444 528 430 528 430 529 444 529 445 529 430 529 445 529 429 529 429 530 445 530 464 530 481 531 81 531 482 531 482 532 81 532 26 532 482 532 26 532 483 532 483 533 26 533 42 533 483 534 42 534 484 534 484 535 42 535 41 535 484 536 41 536 485 536 485 537 41 537 39 537 485 538 39 538 486 538 486 539 39 539 37 539 486 540 37 540 487 540 487 541 37 541 22 541 487 542 22 542 488 542 488 543 22 543 21 543 488 544 21 544 489 544 489 545 21 545 63 545 489 546 63 546 490 546 490 547 63 547 61 547 490 548 61 548 491 548 491 549 61 549 59 549 491 550 59 550 492 550 492 551 59 551 57 551 492 552 57 552 493 552 493 553 57 553 55 553 493 554 55 554 494 554 494 555 55 555 53 555 494 556 53 556 495 556 495 557 53 557 52 557 495 558 52 558 496 558 496 559 52 559 20 559 496 560 20 560 497 560 497 561 20 561 18 561 497 562 18 562 498 562 498 563 18 563 16 563 498 564 16 564 499 564 499 565 16 565 15 565 499 565 15 565 500 565 500 566 15 566 31 566 500 566 31 566 501 566 501 567 31 567 30 567 501 568 30 568 502 568 502 569 30 569 33 569 502 570 33 570 503 570 503 571 33 571 68 571 503 572 68 572 504 572 504 573 68 573 67 573 504 573 67 573 505 573 505 574 67 574 66 574 505 439 66 439 506 439 506 575 66 575 28 575 506 576 28 576 507 576 507 577 28 577 27 577 507 578 27 578 508 578 508 579 27 579 46 579 508 580 46 580 509 580 509 581 46 581 44 581 509 582 44 582 510 582 510 583 44 583 43 583 510 584 43 584 511 584 511 585 43 585 49 585 511 586 49 586 512 586 512 587 49 587 51 587 512 588 51 588 513 588 513 589 51 589 78 589 513 590 78 590 514 590 514 591 78 591 75 591 514 592 75 592 515 592 515 593 75 593 84 593 515 594 84 594 516 594 516 595 84 595 82 595 516 596 82 596 481 596 481 531 82 531 81 531 501 1 502 1 481 1 501 1 481 1 500 1 500 1 481 1 499 1 499 1 481 1 482 1 499 1 482 1 483 1 483 1 484 1 499 1 499 597 484 597 485 597 499 1 485 1 486 1 486 1 487 1 499 1 499 598 487 598 488 598 499 1 488 1 498 1 494 599 495 599 496 599 514 1 515 1 502 1 502 1 515 1 516 1 502 1 516 1 481 1 498 600 488 600 497 600 497 1 488 1 489 1 497 601 489 601 490 601 508 1 509 1 510 1 490 602 491 602 497 602 497 603 491 603 492 603 497 1 492 1 496 1 496 604 492 604 493 604 496 1 493 1 494 1 503 1 504 1 512 1 512 1 504 1 505 1 512 1 505 1 506 1 506 1 507 1 512 1 512 605 507 605 508 605 512 606 508 606 511 606 511 1 508 1 510 1 503 607 512 607 502 607 502 608 512 608 513 608 502 609 513 609 514 609 266 610 89 610 90 610 266 610 90 610 282 610 282 611 90 611 72 611 282 612 72 612 283 612 283 613 72 613 71 613 283 613 71 613 307 613 307 614 71 614 70 614 307 615 70 615 308 615 308 616 70 616 69 616 308 617 69 617 309 617 309 618 69 618 32 618 309 618 32 618 281 618 281 619 32 619 34 619 281 620 34 620 284 620 284 621 34 621 35 621 284 621 35 621 285 621 285 622 35 622 29 622 285 622 29 622 286 622 286 623 29 623 17 623 286 624 17 624 287 624 246 625 186 625 24 625 24 626 186 626 25 626 101 627 113 627 299 627 299 628 113 628 291 628 246 629 24 629 83 629 246 629 83 629 247 629 247 630 83 630 85 630 247 631 85 631 248 631 248 632 85 632 86 632 248 633 86 633 249 633 249 634 86 634 74 634 249 635 74 635 250 635 250 636 74 636 73 636 250 637 73 637 223 637 223 638 73 638 80 638 223 639 80 639 224 639 101 640 299 640 302 640 101 641 302 641 138 641 138 642 302 642 304 642 138 643 304 643 139 643 139 644 304 644 305 644 139 644 305 644 119 644 119 645 305 645 306 645 119 646 306 646 120 646 120 647 306 647 323 647 120 648 323 648 128 648 128 649 323 649 322 649 128 650 322 650 129 650 254 651 253 651 428 651 254 651 428 651 465 651 465 652 428 652 426 652 465 653 426 653 467 653 380 654 379 654 394 654 380 655 394 655 443 655 443 656 394 656 392 656 443 657 392 657 441 657 441 658 392 658 182 658 441 659 182 659 181 659 140 660 328 660 321 660 140 661 321 661 141 661 141 662 321 662 320 662 141 663 320 663 142 663 142 664 320 664 319 664 142 665 319 665 178 665 178 666 319 666 298 666 178 667 298 667 179 667 179 668 298 668 297 668 179 669 297 669 143 669 143 670 297 670 295 670 143 671 295 671 144 671 144 672 295 672 294 672 144 673 294 673 123 673 123 674 294 674 288 674 123 675 288 675 124 675 183 676 94 676 256 676 256 677 94 677 93 677 255 678 7 678 184 678 184 679 7 679 6 679 353 210 354 210 357 210 251 680 206 680 358 680 358 680 206 680 355 680 358 681 355 681 357 681 357 682 355 682 356 682 357 683 356 683 353 683 92 684 91 684 517 684 517 685 518 685 92 685 92 686 518 686 263 686 92 687 263 687 8 687 519 688 9 688 520 688 520 689 9 689 8 689 520 690 8 690 259 690 259 691 8 691 263 691 259 692 263 692 257 692 257 692 263 692 264 692 258 693 257 693 262 693 262 694 257 694 264 694 13 695 14 695 521 695 521 696 522 696 13 696 13 697 522 697 260 697 13 698 260 698 133 698 523 699 132 699 524 699 524 700 132 700 133 700 524 701 133 701 261 701 261 702 133 702 260 702 261 703 260 703 262 703 262 704 260 704 258 704 524 705 518 705 523 705 523 44 518 44 517 44 518 706 524 706 263 706 263 707 524 707 261 707 523 708 517 708 132 708 132 709 517 709 91 709 519 710 521 710 9 710 9 710 521 710 14 710 260 707 522 707 259 707 259 706 522 706 520 706 520 1 522 1 519 1 519 1 522 1 521 1 277 711 200 711 252 711 252 712 200 712 187 712 265 713 218 713 277 713 277 714 218 714 200 714 525 715 212 715 526 715 526 716 212 716 211 716 526 716 211 716 527 716 527 717 211 717 230 717 527 718 230 718 528 718 528 719 230 719 238 719 528 719 238 719 529 719 529 720 238 720 237 720 529 721 237 721 530 721 530 722 237 722 197 722 530 723 197 723 531 723 531 724 197 724 196 724 531 725 196 725 532 725 532 726 196 726 195 726 532 726 195 726 533 726 533 727 195 727 194 727 533 728 194 728 534 728 534 729 194 729 190 729 534 730 190 730 535 730 535 731 190 731 189 731 535 731 189 731 536 731 536 732 189 732 209 732 536 733 209 733 537 733 537 734 209 734 208 734 537 734 208 734 538 734 538 735 208 735 207 735 538 736 207 736 539 736 539 737 207 737 227 737 539 738 227 738 540 738 540 739 227 739 226 739 540 739 226 739 541 739 541 740 226 740 192 740 541 740 192 740 542 740 542 741 192 741 191 741 542 741 191 741 543 741 543 742 191 742 222 742 543 742 222 742 544 742 544 743 222 743 221 743 544 743 221 743 545 743 545 744 221 744 245 744 545 745 245 745 546 745 546 746 245 746 244 746 546 746 244 746 547 746 547 747 244 747 236 747 547 747 236 747 548 747 548 748 236 748 235 748 548 749 235 749 549 749 549 750 235 750 234 750 549 751 234 751 550 751 550 752 234 752 199 752 550 753 199 753 551 753 551 754 199 754 198 754 551 754 198 754 552 754 552 755 198 755 220 755 552 756 220 756 553 756 553 757 220 757 219 757 553 758 219 758 554 758 554 759 219 759 217 759 554 759 217 759 555 759 555 760 217 760 216 760 555 761 216 761 556 761 556 762 216 762 233 762 556 763 233 763 557 763 557 764 233 764 232 764 557 765 232 765 558 765 558 766 232 766 231 766 558 767 231 767 559 767 559 768 231 768 214 768 559 768 214 768 560 768 560 769 214 769 213 769 560 770 213 770 525 770 525 715 213 715 212 715 560 44 525 44 532 44 532 771 550 771 551 771 532 44 533 44 550 44 550 44 533 44 534 44 550 772 534 772 535 772 551 773 552 773 532 773 532 774 552 774 553 774 532 44 553 44 554 44 554 775 555 775 532 775 532 44 555 44 556 44 532 44 556 44 557 44 557 44 558 44 532 44 532 776 558 776 559 776 532 777 559 777 560 777 525 44 526 44 532 44 532 778 526 778 527 778 532 779 527 779 528 779 528 44 529 44 532 44 532 780 529 780 530 780 532 44 530 44 531 44 535 781 536 781 550 781 550 782 536 782 537 782 550 44 537 44 538 44 543 44 550 44 542 44 542 783 550 783 541 783 543 44 544 44 550 44 550 784 544 784 545 784 550 785 545 785 546 785 546 786 547 786 550 786 550 787 547 787 548 787 550 44 548 44 549 44 538 44 539 44 550 44 550 44 539 44 540 44 550 788 540 788 541 788 561 789 562 789 11 789 11 789 562 789 4 789 563 789 564 789 96 789 96 789 564 789 98 789 565 790 88 790 100 790 98 790 564 790 100 790 100 790 564 790 566 790 100 790 566 790 565 790 561 790 11 790 1 790 1 790 11 790 88 790 1 790 88 790 3 790 3 790 88 790 565 790 3 790 565 790 567 790 567 790 565 790 568 790 565 0 566 0 569 0 569 0 566 0 570 0 5 791 4 791 562 791 562 791 0 791 5 791 5 792 0 792 2 792 5 793 2 793 95 793 563 791 96 791 570 791 570 791 96 791 95 791 570 792 95 792 569 792 569 794 95 794 2 794 569 791 2 791 571 791 571 791 2 791 572 791 1 1 0 1 561 1 561 1 0 1 562 1 570 44 566 44 563 44 563 44 566 44 564 44 3 1 567 1 2 1 2 1 567 1 572 1 571 44 568 44 569 44 569 44 568 44 565 44 572 0 567 0 571 0 571 0 567 0 568 0</p>
        </triangles>
      </mesh>
    </geometry>
  </library_geometries>
  <library_visual_scenes>
    <visual_scene id="Scene" name="Scene">
      <node id="Link2" name="Link2" type="NODE">
        <matrix sid="transform">1 0 0 0 0 1 0 0 0 0 1 0 0 0 0 1</matrix>
        <instance_geometry url="#Link2-mesh" name="Link2">
          <bind_material>
            <technique_common>
              <instance_material symbol="colour_abb_white_001-material" target="#colour_abb_white_001-material"/>
            </technique_common>
          </bind_material>
        </instance_geometry>
      </node>
    </visual_scene>
  </library_visual_scenes>
  <scene>
    <instance_visual_scene url="#Scene"/>
  </scene>
</COLLADA>