<?xml version="1.0" encoding="utf-8"?>
<COLLADA xmlns="http://www.collada.org/2005/11/COLLADASchema" version="1.4.1" xmlns:xsi="http://www.w3.org/2001/XMLSchema-instance">
  <asset>
    <contributor>
      <author>Blender User</author>
      <authoring_tool>Blender 2.82.7</authoring_tool>
    </contributor>
    <created>2024-02-04T12:01:45</created>
    <modified>2024-02-04T12:01:45</modified>
    <unit name="meter" meter="1"/>
    <up_axis>Z_UP</up_axis>
  </asset>
  <library_effects>
    <effect id="colour_abb_white_002-effect">
      <profile_COMMON>
        <technique sid="common">
          <lambert>
            <emission>
              <color sid="emission">0 0 0 1</color>
            </emission>
            <diffuse>
              <color sid="diffuse">0.7404 0.7404 0.7248001 1</color>
            </diffuse>
            <index_of_refraction>
              <float sid="ior">1</float>
            </index_of_refraction>
          </lambert>
        </technique>
      </profile_COMMON>
    </effect>
  </library_effects>
  <library_images/>
  <library_materials>
    <material id="colour_abb_white_002-material" name="colour_abb_white.002">
      <instance_effect url="#colour_abb_white_002-effect"/>
    </material>
  </library_materials>
  <library_geometries>
    <geometry id="Link5_001-mesh" name="Link5.001">
      <mesh>
        <source id="Link5_001-mesh-positions">
          <float_array id="Link5_001-mesh-positions-array" count="1224">0.09474998 0.01673203 0.03250002 0.09474998 0.03125 0.03499996 0.09474998 0.01499998 0.03296411 0.09474998 -0.03125 0.03499996 0.09474998 0.01326793 0.03250002 0.09474998 0.01673203 -0.02649992 0.09474998 0.01799994 -0.02776795 0.09474998 -0.006874561 0.01888775 0.09474998 -0.003490328 0.01979458 0.09474998 0.01326793 0.02649998 0.09474998 0 0.02009999 0.09474998 0.003490328 0.01979458 0.09474998 0.006874561 0.01888775 0.09474998 0.01499998 0.0260359 0.09474998 0.01004999 0.01740705 0.09474998 0.01326793 -0.03249996 0.09474998 -0.03125 -0.03500002 0.09474998 0.01499998 -0.03296405 0.09474998 0.03125 -0.03500002 0.09474998 0.01673203 -0.03249996 0.09474998 0.01799994 -0.03123205 0.09474998 0.01846408 -0.02949994 0.09474998 -0.003490328 -0.01979464 0.09474998 0 -0.02009993 0.09474998 0.01199996 -0.03123205 0.09474998 -0.006874561 -0.01888781 0.09474998 -0.01004999 -0.01740711 0.09474998 -0.01292002 -0.01539748 0.09474998 -0.01539748 -0.01291996 0.09474998 -0.01740705 -0.01004999 0.09474998 -0.01888781 -0.00687462 0.09474998 0.01153588 -0.02949994 0.09474998 0.01199996 -0.02776795 0.09474998 0.003490328 -0.01979464 0.09474998 -0.01292002 0.01539742 0.09474998 -0.01004999 0.01740705 0.09474998 0.01799994 0.03123199 0.09474998 0.01846408 0.0295 0.09474998 0.01799994 0.02776789 0.09474998 0.01292002 0.01539742 0.09474998 0.01539748 0.01292002 0.09474998 0.01673203 0.02649998 0.09474998 0.01740705 0.01004993 0.09474998 -0.01888781 0.006874561 0.09474998 -0.01740705 0.01004993 0.09474998 -0.01539748 0.01292002 0.09474998 0.01199996 0.02776789 0.09474998 0.01153588 0.0295 0.09474998 0.01199996 0.03123199 0.09474998 0.01888781 0.006874561 0.09474998 0.01979458 0.003490328 0.09474998 0.02009999 0 0.09474998 0.01979458 -0.003490269 0.09474998 -0.01979458 -0.003490269 0.09474998 -0.02009999 0 0.09474998 -0.01979458 0.003490328 0.09474998 0.006874561 -0.01888781 0.09474998 0.01326793 -0.02649992 0.09474998 0.01004999 -0.01740711 0.09474998 0.01499998 -0.02603584 0.09474998 0.01292002 -0.01539748 0.09474998 0.01888781 -0.00687462 0.09474998 0.01740705 -0.01004999 0.09474998 0.01539748 -0.01291996 0.07499998 -0.03125 0.03999996 0.07499998 -0.03324997 0.04330122 0.07499998 -0.03125 -0.04000002 0.07499998 -0.03324997 -0.04330128 0.07499998 0.03125 -0.04000002 0.07499998 0.03324997 -0.04330128 0.07499998 0.03125 0.03999996 0.07499998 0.03324997 0.04330122 -0.07499992 0.03125 -0.04000002 -0.07499992 0.03324997 -0.04330128 -0.07499992 -0.03125 -0.04000002 -0.07499992 -0.03324997 -0.04330128 -0.07499992 -0.03125 0.03999996 -0.07499992 -0.03324997 0.04330122 -0.07499992 0.03125 0.03999996 -0.07499992 0.03324997 0.04330122 -0.01732051 0.03324997 0.07660245 -0.01732051 -0.03324997 0.07660245 0.01732045 -0.03324997 0.07660245 0.01732045 0.03324997 0.07660245 0.01732045 0.03324997 -0.07660251 0.01732045 -0.03324997 -0.07660251 -0.01732051 -0.03324997 -0.07660251 -0.01732051 0.03324997 -0.07660251 -0.004099965 0.03324997 0 -0.004024028 0.03324997 -8.68291e-4 -0.003798484 0.03324997 -0.001710116 -0.003430128 0.03324997 -0.002499997 -0.002930164 0.03324997 -0.003213942 -0.002313971 0.03324997 -0.003830134 -0.001600027 0.03324997 -0.004330098 -8.10043e-4 0.03324997 -0.004698455 3.18126e-5 0.03324997 -0.004923999 9.00014e-4 0.03324997 -0.004999935 0.001768171 0.03324997 -0.004923999 0.002610027 0.03324997 -0.004698455 0.003399908 0.03324997 -0.004330098 0.004113852 0.03324997 -0.003830134 0.004730165 0.03324997 -0.003213942 0.005230128 0.03324997 -0.002499997 0.002610027 0.03324997 0.004698395 0.001768171 0.03324997 0.004924058 9.00014e-4 0.03324997 0.004999995 3.18126e-5 0.03324997 0.004924058 0.005899965 0.03324997 0 0.005824029 0.03324997 -8.68291e-4 0.005598366 0.03324997 -0.001710116 0.005824029 0.03324997 8.68231e-4 0.005598366 0.03324997 0.001710057 0.005230128 0.03324997 0.002499938 -8.10043e-4 0.03324997 0.004698395 -0.001600027 0.03324997 0.004330039 -0.002313971 0.03324997 0.003830194 -0.002930164 0.03324997 0.003213882 -0.003430128 0.03324997 0.002499938 0.004730165 0.03324997 0.003213882 0.004113852 0.03324997 0.003830194 0.003399908 0.03324997 0.004330039 -0.003798484 0.03324997 0.001710057 -0.004024028 0.03324997 8.68231e-4 0.005899965 -0.03324997 0 0.001768171 -0.03324997 0.004924058 0.002610027 -0.03324997 0.004698395 0.003399908 -0.03324997 0.004330039 0.004113852 -0.03324997 0.003830194 0.004730165 -0.03324997 0.003213882 0.005230128 -0.03324997 0.002499938 0.005824029 -0.03324997 -8.68291e-4 0.005598366 -0.03324997 -0.001710116 0.005230128 -0.03324997 -0.002499997 0.002610027 -0.03324997 -0.004698455 0.001768171 -0.03324997 -0.004923999 9.00014e-4 -0.03324997 -0.004999935 3.18126e-5 -0.03324997 -0.004923999 0.005598366 -0.03324997 0.001710057 0.005824029 -0.03324997 8.68231e-4 0.004730165 -0.03324997 -0.003213942 0.004113852 -0.03324997 -0.003830134 0.003399908 -0.03324997 -0.004330098 -8.10043e-4 -0.03324997 -0.004698455 -0.001600027 -0.03324997 -0.004330098 -0.002313971 -0.03324997 -0.003830134 -0.002930164 -0.03324997 -0.003213942 -0.003430128 -0.03324997 -0.002499997 -0.003430128 -0.03324997 0.002499938 -0.003798484 -0.03324997 0.001710057 -0.004024028 -0.03324997 8.68231e-4 -0.003798484 -0.03324997 -0.001710116 -0.004024028 -0.03324997 -8.68291e-4 -0.004099965 -0.03324997 0 -0.002930164 -0.03324997 0.003213882 -0.002313971 -0.03324997 0.003830194 -0.001600027 -0.03324997 0.004330039 -8.10043e-4 -0.03324997 0.004698395 3.18126e-5 -0.03324997 0.004924058 9.00014e-4 -0.03324997 0.004999995 -0.09474992 0.01979458 0.003490328 -0.09474992 0.01888781 0.006874561 -0.09474992 0.03125 0.03499996 -0.09474992 0.01740705 0.01004993 -0.09474992 -0.006874561 -0.01888781 -0.09474992 -0.03125 -0.03500002 -0.09474992 -0.01004999 -0.01740711 -0.09474992 -0.01292002 -0.01539748 -0.09474992 0.01539748 0.01292002 -0.09474992 0.01292002 0.01539742 -0.09474992 0.01004999 0.01740705 -0.09474992 0.006874561 0.01888775 -0.09474992 0.003490328 0.01979458 -0.09474992 -0.03125 0.03499996 -0.09474992 0 0.02009999 -0.09474992 -0.003490328 0.01979458 -0.09474992 -0.006874561 0.01888775 -0.09474992 -0.01004999 0.01740705 -0.09474992 -0.01292002 0.01539742 -0.09474992 -0.01539748 0.01292002 -0.09474992 -0.01740705 0.01004993 -0.09474992 -0.01888781 0.006874561 -0.09474992 -0.01888781 -0.00687462 -0.09474992 -0.01740705 -0.01004999 -0.09474992 -0.01539748 -0.01291996 -0.09474992 0.006874561 -0.01888781 -0.09474992 0.01004999 -0.01740711 -0.09474992 0.03125 -0.03500002 -0.09474992 0.01292002 -0.01539748 -0.09474992 0.01539748 -0.01291996 -0.09474992 0.02009999 0 -0.09474992 0.01979458 -0.003490269 -0.09474992 0.01740705 -0.01004999 -0.09474992 0.01888781 -0.00687462 -0.09474992 -0.01979458 0.003490328 -0.09474992 -0.02009999 0 -0.09474992 -0.01979458 -0.003490269 -0.09474992 -0.003490328 -0.01979464 -0.09474992 0 -0.02009993 -0.09474992 0.003490328 -0.01979464 -0.08974993 -0.03125 0.03999996 -0.08974993 0.03125 0.03999996 -0.08974993 0.03125 -0.04000002 -0.08974993 -0.03125 -0.04000002 0.08974999 -0.03125 -0.04000002 0.08974999 -0.03125 0.03999996 0.08974999 0.03125 -0.04000002 0.08974999 0.03125 0.03999996 -0.002915978 0.01984053 -0.003201782 -0.003175616 0.01989018 -0.002896368 -0.003417253 0.01994204 -0.002492249 -0.003580689 0.01997715 -0.002218782 -0.003787159 0.02002483 -0.001705467 -0.003869295 0.02004384 -0.001501262 -0.003909468 0.02005344 -0.001367032 0.004110157 0.01973205 -0.003825128 0.003541886 0.01964658 -0.004244983 0.002607524 0.01954489 -0.00469011 0.001994192 0.01949888 -0.004878818 0.002736866 0.01955461 -0.004650294 0.003395259 0.01962941 -0.004321038 0.002850234 0.01956558 -0.004603922 0.001766383 0.01949048 -0.004911839 0.001240432 0.0194711 -0.004988372 0.001085221 0.01946902 -0.004996478 9.00491e-4 0.01947093 -0.004989087 3.11358e-4 0.01947706 -0.004965245 3.44352e-5 0.01949071 -0.004910647 -4.38826e-4 0.01951414 -0.004817426 -5.42299e-4 0.01952153 -0.004787385 -8.04917e-4 0.01954579 -0.004685103 -0.001278877 0.01958972 -0.00450021 -0.001591205 0.01963007 -0.004315197 -0.002000927 0.01968312 -0.004072368 -0.0023036 0.01973229 -0.003817856 -0.002613902 0.01978272 -0.003557026 -0.002670764 0.01979362 -0.003490149 0.005899012 0.02009975 -9.79607e-5 0.005825936 0.02008169 -8.56847e-4 0.00582391 0.02008116 -8.68172e-4 0.005803048 0.02007609 -9.79513e-4 0.005596458 0.02002668 -0.00170952 0.005589187 0.02002495 -0.00173527 0.005230009 0.01994389 -0.002499878 0.005229532 0.01994377 -0.002500951 0.004775345 0.01985013 -0.003159224 0.004726231 0.01984125 -0.003210008 0.004455149 0.01979225 -0.003489911 0.004181087 0.01974272 -0.003772795 0.004720747 0.01984089 0.003205299 0.004868566 0.01986855 0.003041386 0.005222856 0.01994293 0.002495288 0.005295217 0.01995813 0.002383589 0.00534445 0.01996904 0.002290368 0.005589663 0.02002537 0.001706361 0.005647242 0.0200386 0.00156939 0.00582093 0.0200805 8.67515e-4 0.005831301 0.02008301 8.25554e-4 0.005854189 0.02008867 6.74754e-4 0.00589329 0.02009832 0 0.00589329 0.02009832 -3.28341e-7 -0.002304196 0.01973253 0.003817677 -0.001818537 0.01965707 0.004196286 -0.00159347 0.01962983 0.004318118 -0.001126289 0.01957333 0.00457096 -8.05156e-4 0.01954597 0.004684567 -3.99606e-4 0.01951146 0.004828095 -2.58581e-4 0.01950258 0.004863858 0.00126475 0.01947158 0.004986643 0.001407325 0.01947474 0.004974126 9.00014e-4 0.01947188 0.00498557 3.39583e-5 0.01949095 0.004909992 5.05073e-4 0.01947218 0.004984378 0.001765429 0.01949113 0.004909038 0.002174913 0.01950985 0.004834651 0.002603948 0.01954662 0.004681348 0.002977311 0.01957869 0.004547953 0.003392517 0.01963001 0.004316687 0.003673732 0.01966476 0.004160046 0.004103839 0.01973247 0.003817558 0.004334032 0.01976871 0.003634095 0.00446397 0.01979297 0.003489971 -0.004011034 0.02007818 -8.65669e-4 -0.004062294 0.02009063 -6.12468e-4 -0.004099965 0.02009999 0 -0.004039645 0.02008503 7.74651e-4 -0.004017829 0.02007979 8.668e-4 -0.003862977 0.02004235 0.00152111 -0.003827929 0.02003401 0.00162661 -0.003792762 0.02002596 0.001707553 -0.003511428 0.01996171 0.002353429 -0.003420472 0.01994264 0.002493739 -0.00304687 0.0198642 0.003069519 -0.002921819 0.01984101 0.003206253 -0.002662062 0.01979279 0.003489971 -0.002506375 0.01976394 0.003660082 -0.002915978 -0.01984053 0.003201723 -0.003175616 -0.01989018 0.002896308 -0.003417253 -0.01994204 0.002492308 -0.003580689 -0.01997715 0.002218842 -0.003787159 -0.02002483 0.001705527 -0.003869295 -0.02004384 0.001501321 -0.003909468 -0.02005344 0.001366972 0.004110157 -0.01973205 0.003825187 0.003541886 -0.01964658 0.004244923 0.002607524 -0.01954489 0.00469017 0.001994192 -0.01949888 0.004878759 0.002736866 -0.01955461 0.004650354 0.003395259 -0.01962941 0.004321098 0.002850234 -0.01956558 0.004603981 0.001766383 -0.01949048 0.004911899 0.001240432 -0.0194711 0.004988312 0.001085221 -0.01946902 0.004996538 9.00491e-4 -0.01947093 0.004989027 3.11358e-4 -0.01947706 0.004965186 3.44352e-5 -0.01949071 0.004910588 -4.38826e-4 -0.01951414 0.004817366 -5.42299e-4 -0.01952153 0.004787445 -8.04917e-4 -0.01954579 0.004685044 -0.001278877 -0.01958972 0.004500269 -0.001591205 -0.01963007 0.004315137 -0.002000927 -0.01968312 0.004072308 -0.0023036 -0.01973229 0.003817915 -0.002613902 -0.01978272 0.003557085 -0.002670764 -0.01979362 0.00349009 0.00589329 -0.02009832 3.86915e-7 0.005899012 -0.02009975 9.79001e-5 0.005825936 -0.02008169 8.56786e-4 0.00582391 -0.02008116 8.68231e-4 0.005803048 -0.02007609 9.79572e-4 0.005596458 -0.02002668 0.001709461 0.005589187 -0.02002495 0.00173521 0.005230009 -0.01994389 0.002499938 0.005229532 -0.01994377 0.00250101 0.004775345 -0.01985013 0.003159284 0.004726231 -0.01984125 0.003210067 0.004455149 -0.01979225 0.003489851 0.004181087 -0.01974272 0.003772735 0.004720747 -0.01984089 -0.003205358 0.004868566 -0.01986855 -0.003041446 0.005222856 -0.01994293 -0.002495229 0.005295217 -0.01995813 -0.002383649 0.00534445 -0.01996904 -0.002290427 0.005589663 -0.02002537 -0.001706421 0.005647242 -0.0200386 -0.001569449 0.00582093 -0.0200805 -8.67457e-4 0.005831301 -0.02008301 -8.25614e-4 0.005854189 -0.02008867 -6.74814e-4 0.00589329 -0.02009832 0 -0.002304196 -0.01973253 -0.003817737 -0.001818537 -0.01965707 -0.004196345 -0.00159347 -0.01962983 -0.004318177 -0.001126289 -0.01957333 -0.00457102 -8.05156e-4 -0.01954597 -0.004684627 -3.99606e-4 -0.01951146 -0.004828155 -2.58581e-4 -0.01950258 -0.004863917 0.00126475 -0.01947158 -0.004986584 0.001407325 -0.01947474 -0.004974186 9.00014e-4 -0.01947188 -0.004985511 3.39583e-5 -0.01949095 -0.004910051 5.05073e-4 -0.01947218 -0.004984319 0.001765429 -0.01949113 -0.004909098 0.002174913 -0.01950985 -0.004834711 0.002603948 -0.01954662 -0.004681408 0.002977311 -0.01957869 -0.004548013 0.003392517 -0.01963001 -0.004316747 0.003673732 -0.01966476 -0.004160106 0.004103839 -0.01973247 -0.003817498 0.004334032 -0.01976871 -0.003634154 0.00446397 -0.01979297 -0.00349003 -0.004011034 -0.02007818 8.65608e-4 -0.004062294 -0.02009063 6.12407e-4 -0.004099965 -0.02009999 0 -0.004039645 -0.02008503 -7.74593e-4 -0.004017829 -0.02007979 -8.66741e-4 -0.003862977 -0.02004235 -0.00152117 -0.003827929 -0.02003407 -0.00162667 -0.003792762 -0.02002596 -0.001707613 -0.003511428 -0.01996171 -0.002353489 -0.003420472 -0.01994264 -0.002493679 -0.00304687 -0.0198642 -0.00306946 -0.002921819 -0.01984101 -0.003206193 -0.002662062 -0.01979279 -0.00349003 -0.002506375 -0.01976394 -0.003660023 0.0827499 0.01673203 0.02649998 0.0827499 0.01499998 0.0260359 0.0827499 0.01799994 0.02776789 0.0827499 0.01846408 0.0295 0.0827499 0.01799994 0.03123199 0.0827499 0.01673203 0.03250002 0.0827499 0.01499998 0.03296411 0.0827499 0.01326793 0.03250002 0.0827499 0.01199996 0.03123199 0.0827499 0.01153588 0.0295 0.0827499 0.01199996 0.02776789 0.0827499 0.01326793 0.02649998 0.0827499 0.01326793 -0.02649992 0.0827499 0.01499998 -0.02603584 0.0827499 0.01199996 -0.02776795 0.0827499 0.01153588 -0.02949994 0.0827499 0.01199996 -0.03123205 0.0827499 0.01326793 -0.03249996 0.0827499 0.01499998 -0.03296405 0.0827499 0.01673203 -0.03249996 0.0827499 0.01799994 -0.03123205 0.0827499 0.01846408 -0.02949994 0.0827499 0.01799994 -0.02776795 0.0827499 0.01673203 -0.02649992</float_array>
          <technique_common>
            <accessor source="#Link5_001-mesh-positions-array" count="408" stride="3">
              <param name="X" type="float"/>
              <param name="Y" type="float"/>
              <param name="Z" type="float"/>
            </accessor>
          </technique_common>
        </source>
        <source id="Link5_001-mesh-normals">
          <float_array id="Link5_001-mesh-normals-array" count="2037">1 -2.62967e-6 0 1 0 0 1 -9.66222e-6 0 1 -1.553e-5 0 1 5.37167e-6 0 1 -4.4113e-6 0 1 2.30547e-6 0 1 2.5103e-7 0 1 1.48546e-6 0 1 -2.35667e-6 0 1 -3.78299e-6 0 1 7.93766e-5 0 1 1.33419e-6 0 1 1.5631e-6 0 1 1.29539e-6 0 1 1.439e-6 0 1 -1.19559e-6 0 1 -2.50097e-6 0 1 1.33419e-6 0 1 -3.53523e-6 0 1 2.97067e-6 0 1 -3.69463e-6 0 1 1.01665e-5 0 1 3.74075e-6 0 1 5.75599e-6 0 1 -1.29537e-6 0 1 1.23879e-6 0 1 -1.58112e-6 0 1 1.13898e-6 0 1 -4.88158e-7 0 1 -1.66292e-5 0 1 1.51896e-4 0 1 -1.03097e-5 0 1 3.19594e-6 0 1 -3.52028e-6 0 1 5.96619e-7 0 1 -3.52028e-6 0 1 -4.32186e-6 0 1 3.35484e-6 0 1 -1.63885e-6 0 1 -8.43952e-7 0 1 -2.21731e-5 0 1 5.24062e-6 0 1 8.08288e-6 0 1 -1.38496e-5 0 1 3.69463e-6 0 -1 0 0 -0.5 0 0.8660255 -0.5000002 0 0.8660254 0.4999992 0 0.8660259 0.4999994 0 0.8660258 0.4999994 0 -0.8660258 0.4999992 0 -0.8660258 -0.5000002 0 -0.8660254 -0.5000001 0 -0.8660255 0 1 0 0 1 3.97532e-6 0 1 -1.04217e-6 0 1 -3.6848e-7 0 1 0 0 1 2.44742e-7 0 1 0 0 1 0 0 1 -3.58313e-7 0 1 1.49162e-6 0 1 -1.11102e-6 0 1 -5.34949e-7 0 1 -4.35246e-6 0 1 -1.49163e-6 0 1 0 0 1 3.43481e-7 0 1 6.63955e-6 0 1 2.96406e-6 0 1 -5.73181e-6 0 1 4.62803e-7 0 1 7.21824e-6 0 1 3.68435e-7 0 1 -2.23888e-6 0 1 6.63231e-6 0 1 5.34882e-7 0 1 0 0 1 -1.24255e-7 0 1 1.11102e-6 0 1 -3.97532e-6 0 1 2.06883e-6 0 -1 0 0 -1 1.11102e-6 0 -1 5.34882e-7 0 -1 4.35246e-6 0 -1 -2.96406e-6 0 -1 5.73181e-6 0 -1 1.49162e-6 0 -1 0 0 -1 -3.43481e-7 0 -1 -6.63955e-6 0 -1 2.96406e-6 0 -1 2.11992e-6 0 -1 -6.63231e-6 0 -1 -5.34949e-7 0 -1 0 0 -1 1.24252e-7 0 -1 -1.11102e-6 0 -1 -4.62803e-7 0 -1 -7.21727e-6 0 -1 -3.6848e-7 0 -1 2.23888e-6 0 -1 -6.71736e-6 0 -1 3.97532e-6 0 -1 -2.302e-6 0 -1 2.06883e-6 0 -1 3.68435e-7 0 -1 0 0 -1 -2.4475e-7 0 -1 0 0 -1 0 0 -1 3.58313e-7 0 -1 -1.49163e-6 -1 -5.03649e-6 0 -1 2.50096e-6 0 -1 1.23879e-6 0 -1 9.37862e-7 0 -1 3.79785e-7 0 -1 -3.59843e-6 0 -1 2.48246e-6 0 -1 -1.00065e-6 0 -1 -9.37862e-7 0 -1 -1.29537e-6 0 -1 5.03649e-6 0 -1 5.756e-6 0 -1 -3.88618e-6 0 -1 9.29069e-7 0 -1 -2.81359e-6 0 -1 -9.29067e-7 0 -1 1.19324e-6 0 -1 5.18158e-6 0 -1 -2.878e-6 0 -1 -8.64353e-7 0 -1 -5.96619e-7 0 -1 8.64353e-7 0 -1 2.60081e-6 0 -1 -2.60081e-6 0 -1 3.79785e-7 0 0 0 1 0 0 -1 0.7071068 0 -0.7071068 0.7071068 0 0.7071068 -0.7071068 0 -0.7071068 -0.7071068 0 0.7071068 -1.09928e-5 -0.9870249 0.1605676 2.09251e-4 -0.9918547 0.1273753 2.09389e-4 -0.9918565 0.1273599 6.98544e-4 -0.9956812 0.09283626 6.98771e-4 -0.9956815 0.09283262 0.001164734 -0.9974208 0.07176685 -0.002310693 -0.9792926 0.2024367 -0.001215159 -0.970597 0.2407076 -0.001217305 -0.9706066 0.2406687 -0.001670122 -0.9747391 0.2233403 -0.001674771 -0.9747756 0.2231808 -0.001400887 -0.9723415 0.2335596 -9.48133e-4 -0.9676659 0.2522337 -9.6387e-4 -0.9678571 0.2514987 -7.1247e-4 -0.9647281 0.2632477 6.82039e-4 -0.9646025 0.2637074 0.001021742 -0.9687359 0.2480921 0.001017749 -0.9686935 0.2482581 0.001166164 -0.9702737 0.2420074 0.001342177 -0.9721029 0.2345507 0.001350522 -0.9721807 0.234228 0.001838505 -0.9763377 0.2162437 0.001838386 -0.9763389 0.2162384 0.002591669 -0.9812484 0.19273 0.002588331 -0.9812334 0.1928068 6.29592e-5 -0.9659277 0.2588126 -1.0931e-5 -0.9870133 0.1606392 -1.09296e-5 -0.9870321 0.1605237 -0.002516865 -0.9997091 0.02399313 -0.001857697 -0.9989255 0.04630893 -0.001861631 -0.9989398 0.04599875 -0.001240909 -0.9976919 0.06789243 -0.001243472 -0.9976908 0.06790852 -4.89391e-4 -0.9944052 0.1056327 -4.90689e-4 -0.9942393 0.1071821 -9.25545e-5 -0.9900253 0.1408898 2.64059e-5 -0.9850264 0.1724037 2.64488e-5 -0.9850283 0.1723934 2.629e-5 -0.9659273 0.2588139 -0.003281116 -0.9844667 0.1755413 -0.002299427 -0.9792277 0.2027506 1.86239e-5 -0.9861097 -0.1660955 -1.40296e-4 -0.9908356 -0.1350738 -1.41452e-4 -0.9908466 -0.1349923 -3.7488e-4 -0.9931996 -0.1164239 -6.49492e-4 -0.9953513 -0.09630936 -6.48815e-4 -0.9953498 -0.09632402 -0.001441061 -0.9982007 -0.0599454 -0.001444816 -0.9982099 -0.05979114 -0.002112865 -0.9992886 -0.03765565 -5.34544e-4 -0.9961946 -0.08715611 1.84869e-5 -0.9998971 -0.0143513 1.84186e-5 -0.9961948 0.08715486 -0.003830373 -0.9999927 0 -0.003990352 -0.9998859 -0.01457577 0.002395272 -0.9801191 -0.1983963 0.001701891 -0.9752557 -0.2210736 0.001700639 -0.9752506 -0.2210959 0.001275241 -0.9714419 -0.2372745 0.00127691 -0.9714613 -0.2371947 0.001088142 -0.96946 -0.2452474 -8.59374e-4 -0.9666035 -0.2562755 1.48808e-4 -0.9531506 -0.3024962 9.62926e-4 -0.9680525 -0.2507458 9.67691e-4 -0.9681172 -0.250496 1.36888e-4 -0.9572597 -0.2892299 -0.001015722 -0.9684485 -0.2492122 -0.001015067 -0.9684364 -0.2492589 -7.8734e-4 -0.9659245 -0.258823 -4.15191e-4 -0.9721167 -0.234497 -4.14918e-4 -0.9721227 -0.2344724 -2.03979e-4 -0.9761657 -0.2170267 -2.04028e-4 -0.9761697 -0.2170084 -2.76109e-5 -0.9810094 -0.1939599 -2.71528e-5 -0.9810358 -0.1938264 1.84587e-5 -0.9861152 -0.1660632 1.84583e-5 -0.9861144 -0.1660678 0.001686513 -0.9987688 0.04958051 0.001686811 -0.9987676 0.04960435 4.86133e-4 -0.9961947 0.08715462 0 -0.999884 0.01523512 0 -0.9961948 -0.08715564 0.002618074 -0.999807 -0.019477 0.001475632 -0.9983462 -0.05746978 0.00147593 -0.9983465 -0.05746597 0.001012444 -0.9968997 -0.07867747 5.86092e-4 -0.9950597 -0.09927648 5.85393e-4 -0.9950599 -0.09927493 1.33157e-4 -0.99085 -0.1349676 1.32593e-4 -0.9908453 -0.1350024 -1.97858e-5 -0.9858908 -0.1673902 -1.99533e-5 -0.9858822 -0.1674408 -1.99184e-5 -0.965925 -0.2588222 0.003420293 -0.9853641 -0.1704292 0.002392411 -0.9801061 -0.1984602 -1.12023e-5 0.9870249 -0.1605674 2.08843e-4 0.99185 -0.127412 2.09386e-4 0.9918565 -0.1273599 6.98546e-4 0.9956812 -0.09283626 6.9859e-4 0.9956815 -0.09283262 0.001166462 0.9974254 -0.07170391 -0.002309083 0.9792817 -0.2024897 -0.00121206 0.9705638 -0.2408414 -0.001217544 0.9706062 -0.2406703 -0.001680433 0.9748112 -0.2230253 -0.00167489 0.9747755 -0.2231815 -0.001401364 0.9723415 -0.2335596 -9.65303e-4 0.9678589 -0.2514923 -9.56829e-4 0.9677733 -0.2518215 -7.69167e-4 0.9654269 -0.2606732 6.81909e-4 0.9646025 -0.2637074 0.001021742 0.9687359 -0.2480921 0.001017391 0.9686935 -0.2482581 0.001147627 0.9700632 -0.2428505 0.001348316 0.9721617 -0.2343074 0.001347124 0.9721484 -0.2343627 0.001841962 0.9763658 -0.2161169 0.001838624 0.9763389 -0.2162385 0.002588927 0.9812319 -0.192814 0.002588629 0.9812333 -0.1928073 6.29656e-5 0.9659253 -0.2588211 -1.11371e-5 0.9870586 -0.1603605 -1.11377e-5 0.9870321 -0.1605235 1.80048e-5 0.9961947 -0.08715635 -0.003990292 0.999886 0.01456916 -0.002516865 0.999709 -0.02399384 -0.001871824 0.9989476 -0.04583001 -0.001861631 0.9989398 -0.04599875 -0.001240551 0.9976912 -0.06790339 -0.001243352 0.9976908 -0.06790852 -4.89573e-4 0.9944069 -0.1056165 -4.90826e-4 0.9942393 -0.1071821 -9.25536e-5 0.9900253 -0.1408898 2.6412e-5 0.9850264 -0.1724037 2.66747e-5 0.9850158 -0.1724644 2.66301e-5 0.965925 -0.2588224 -0.003281116 0.9844667 -0.1755413 -0.002314686 0.9793151 -0.2023281 1.84043e-5 0.9861097 0.1660957 -1.40621e-4 0.9908395 0.1350451 -1.39866e-4 0.9908276 0.1351329 -3.75023e-4 0.9931995 0.116424 -6.4962e-4 0.9953513 0.09630942 -6.48944e-4 0.9953498 0.09632402 -0.001441359 0.9982013 0.05993533 -0.00143975 0.9981999 0.05995911 -0.002112925 0.9992886 0.03765571 -5.34661e-4 0.9961946 0.08715611 1.84869e-5 0.9998971 0.0143488 1.84843e-5 0.9997586 0.02197527 0.002395272 0.9801191 0.1983963 0.001701951 0.9752557 0.2210736 0.001700639 0.9752506 0.2210959 0.001275241 0.9714419 0.2372745 0.00127691 0.9714613 0.2371947 0.001088082 0.96946 0.2452474 -8.18263e-4 0.9661065 0.2581429 1.48795e-4 0.9531593 0.302469 9.63015e-4 0.9680525 0.2507458 9.6025e-4 0.968031 0.2508291 1.36334e-4 0.9572651 0.2892119 -0.001015722 0.9684485 0.2492122 -0.001015126 0.9684364 0.2492589 -7.87541e-4 0.9659267 0.2588146 -4.15689e-4 0.9721166 0.2344979 -4.15076e-4 0.9721225 0.2344732 -2.04359e-4 0.9761655 0.2170273 -2.04228e-4 0.9761696 0.217009 -2.73671e-5 0.9810224 0.1938947 -2.76433e-5 0.9810092 0.1939615 1.8239e-5 0.986118 0.1660463 1.82391e-5 0.9861143 0.166068 0.001686453 0.9987688 -0.04958051 0.001686751 0.9987676 -0.04960435 4.86019e-4 0.9961947 -0.08715462 0 0.9998839 -0.0152381 0 0.9961948 0.08715564 0.002618074 0.999807 0.019477 0.001476228 0.9983493 0.05741477 0.001476168 0.9983465 0.0574634 0.00101298 0.9968997 0.07867759 5.85774e-4 0.9950597 0.0992763 5.85579e-4 0.9950603 0.09927117 1.31767e-4 0.9908325 0.1350971 1.32593e-4 0.9908453 0.1350024 -1.97858e-5 0.9858908 0.1673902 -1.97372e-5 0.9858938 0.1673726 -1.95823e-5 0.9659274 0.2588137 0.003416001 0.9853446 0.1705414 0.002397179 0.9801341 0.1983221 0 0.9553808 0.295377 0 0.9063069 0.4226204 0 0.9063071 0.4226198 0 0.8191458 0.5735855 0 0.8191461 0.573585 0 0.7071158 0.7070978 0 0.573579 0.8191503 0 0.5735785 0.8191508 0 0.4226154 0.9063093 0 0.4226155 0.9063091 0 0.2588219 0.9659251 0 0.08713614 0.9961965 0 0.08713614 0.9961965 0 -0.08713614 0.9961965 0 -0.08713614 0.9961965 0 -0.258822 0.965925 0 -0.2588219 0.9659251 0 -0.4226154 0.9063093 0 -0.4226154 0.9063091 0 -0.5735788 0.8191505 0 -0.5735786 0.8191505 0 -0.7071161 0.7070974 0 -0.7071158 0.7070978 0 -0.8191461 0.573585 0 -0.8191455 0.573586 0 -0.9063071 0.4226198 0 -0.9063069 0.4226204 0 -0.955299 0.2956414 6.39032e-4 -0.9640239 0.265815 0 -0.9553756 -0.295394 0 -0.9063068 -0.4226205 0 -0.9063071 -0.4226199 0 -0.8191566 -0.57357 0 -0.8191573 -0.5735691 0 -0.7070989 -0.7071148 0 -0.7070991 -0.7071144 0 -0.573579 -0.8191503 0 -0.5735791 -0.8191502 0 -0.4226154 -0.9063093 0 -0.4226154 -0.9063091 0 -0.2588219 -0.9659251 0 -0.258822 -0.965925 0 -0.08716988 -0.9961935 0 -0.08716988 -0.9961935 0 0.08716988 -0.9961935 0 0.08716988 -0.9961935 0 0.2588219 -0.9659251 0 0.4226155 -0.9063092 0 0.4226154 -0.9063091 0 0.5735788 -0.8191505 0 0.5735793 -0.8191501 0 0.7070989 -0.7071148 0 0.8191573 -0.5735691 0 0.819157 -0.5735695 0 0.9063071 -0.4226199 0 0.9063068 -0.4226205 0 0.9552937 -0.2956586 6.96002e-4 0.9647496 -0.2631691 0 -0.2588086 0.9659287 0 -0.2588092 0.9659286 0 -0.7070963 0.7071173 0 -0.7070956 0.707118 0 -0.9659283 0.2588102 0 -0.965928 0.2588115 0 -0.9659234 -0.2588284 0 -0.9659237 -0.2588271 0 -0.7071288 -0.7070848 0 -0.7071294 -0.7070841 0 -0.2588089 -0.9659286 0 -0.2588089 -0.9659286 0 0.2588086 -0.9659287 0 0.2588092 -0.9659286 0 0.7071294 -0.7070841 0 0.7071288 -0.7070848 0 0.9659237 -0.2588271 0 0.9659234 -0.2588284 0 0.965928 0.2588115 0 0.9659283 0.2588102 0 0.7070956 0.707118 0 0.7070963 0.7071173 0 0.2588089 0.9659286 0 0.2588089 0.9659286 1 1.81041e-5 0 1 -2.80039e-6 0 1 1.81033e-5 0 1 -6.62579e-6 0 1 -1.81035e-5 0 1 7.10175e-6 0 1 -1.32518e-5 0 1 -3.62083e-5 0 1 -1.6565e-6 0 1 7.65093e-6 0 1 -1.12021e-5 0 -0.9982873 5.0826e-4 -0.05850034 0.9490017 -1.23668e-4 -0.3152712 0.9659342 -0.001014411 -0.2587862 0.9062946 -8.85081e-4 -0.4226456 0.916818 4.72264e-4 -0.3993051 0.9171945 4.72312e-4 -0.3984397 0.8191223 -9.55294e-4 -0.5736182 0.8389335 8.62271e-4 -0.5442335 0.8391634 8.62278e-4 -0.5438789 0.6148909 0.001174867 -0.7886113 0.737519 -0.00200361 -0.6753235 0.7071751 -4.1692e-4 -0.7070384 0.7376368 8.43216e-4 -0.6751973 0.7379988 8.43228e-4 -0.6748016 0.6149379 0.001174867 -0.7885747 0.5735263 -0.001158893 -0.8191864 0.4761355 9.98861e-4 -0.8793713 0.4760655 9.98868e-4 -0.8794094 0.4225927 -0.001327335 -0.9063188 0.333579 0.001070201 -0.9427216 0.3337116 0.001070201 -0.9426747 0.2589136 -0.001383602 -0.9658996 0.2457601 -9.46469e-4 -0.9693303 0.002944529 0.001046895 -0.9999952 0.003019094 0.001046895 -0.999995 0.08713018 -0.001368463 -0.996196 0.1560039 0.00103414 -0.987756 0.1558167 0.00103414 -0.9877855 -0.2589144 -0.00137937 -0.9658993 -0.1787814 0.001109719 -0.9838883 -0.0871315 0.001104891 -0.9961963 -0.1786181 -0.00473088 -0.9839071 -0.08742707 -0.00134927 -0.9961701 -0.4226454 -0.001381397 -0.9062941 -0.3365505 0.001320719 -0.9416646 -0.3365851 0.001320719 -0.9416521 -0.5735259 -0.001309454 -0.8191865 -0.4867234 0.001120448 -0.8735555 -0.4867065 0.001120448 -0.873565 -0.7071064 9.49277e-4 -0.7071067 -0.742351 -0.002374827 -0.6700071 -0.7425124 -0.00238353 -0.6698282 -0.6233755 0.001192748 -0.7819216 -0.6230368 0.001192688 -0.7821918 -0.906347 7.14482e-4 -0.4225335 -0.9219567 -0.001824796 -0.3872886 -0.884243 -2.41925e-4 -0.467027 -0.8393222 6.48604e-4 -0.5436339 -0.8191225 6.48027e-4 -0.5736182 -0.8388118 -0.001657724 -0.5444191 -0.7427023 9.50196e-4 -0.6696211 -0.9961968 5.07996e-4 -0.08713126 -0.9999867 -0.00516051 -1.44926e-4 -0.9983229 -0.001436948 -0.0578739 -0.9886766 -5.96294e-5 -0.1500623 -0.9707914 2.41457e-4 -0.2399253 -0.9659005 2.41355e-4 -0.2589138 -0.9707067 -0.001032948 -0.2402654 -0.9218863 7.14952e-4 -0.3874601 -0.9659003 -6.47563e-4 0.2589138 -0.9828962 1.05933e-5 0.1841611 -0.9961979 9.74597e-6 0.0871194 -0.9842983 -0.005943298 0.1764132 -0.9953942 -6.42203e-4 0.09586453 -0.9063473 -1.74514e-4 0.4225334 -0.9623622 1.51104e-4 0.2717701 -0.9622173 1.51029e-4 0.2722827 -0.7188553 4.1482e-4 0.6951597 -0.8230623 -4.55925e-4 0.567951 -0.8191227 -4.41828e-6 0.5736185 -0.9138765 1.18212e-5 0.4059923 -0.90511 1.1894e-5 0.4251776 -0.7183725 4.14816e-4 0.6956586 -0.7070384 -5.29246e-5 0.7071752 -0.7181623 -6.20687e-4 0.6958754 -0.5736182 -8.61656e-4 0.8191224 -0.5942797 4.60339e-4 0.8042585 -0.5937494 4.60358e-4 0.8046499 -0.2942577 6.35665e-4 0.955726 -0.3785778 -2.51313e-4 0.9255695 -0.4226451 -0.001158058 0.9062945 -0.4607436 7.47618e-4 0.887533 -0.4605106 7.47638e-4 0.887654 -0.2941167 6.35671e-4 0.9557693 -0.258785 -0.001079857 0.9659343 -0.1434841 8.93209e-4 0.9896523 -0.1440281 8.9321e-4 0.9895733 -0.08713096 -0.001316905 0.996196 -0.05215519 -4.50514e-4 0.998639 0.1933104 9.88905e-4 0.9811372 0.1934798 9.88905e-4 0.9811037 0.08713203 -0.001214861 0.996196 0.04044401 7.88042e-4 0.9991816 0.03997731 7.88041e-4 0.9992003 0.4225928 -0.001351296 0.9063186 0.3635023 0.001043558 0.9315927 0.2587857 0.001037836 0.9659343 0.3624362 -0.005882382 0.93199 0.2786775 -0.002096831 0.9603825 0.6435604 0.001188993 0.7653945 0.6437007 0.001188993 0.7652765 0.5736178 -0.001389443 0.819122 0.5099722 0.001271367 0.86019 0.5097797 0.001271367 0.8603041 0.7615255 -0.003816425 0.6481239 0.7071067 -8.8324e-4 0.7071064 0.7619178 0.001393318 0.6476724 0.8191221 0.001126468 0.5736181 0.8580673 -0.00355786 0.5135251 0.7620066 0.001393318 0.6475678 0.9659342 0.001004397 0.2587861 0.9800596 -0.00307703 0.1986803 0.9580015 -6.01554e-4 0.2867626 0.9277948 9.2565e-4 0.3730898 0.9062947 9.24617e-4 0.4226457 0.9276746 -0.002612173 0.3733808 0.8584464 0.00112909 0.5129022 0.9731272 4.8303e-4 -0.2302679 0.9731087 4.82991e-4 -0.2303459 0.9961968 -5.62338e-4 -0.08713132 0.9969819 0 -0.07763504 0.9961979 0 0.0871194 0.9981111 -0.001708507 0.06141239 0.9801257 0.001006364 0.1983751 -0.9982832 -5.0826e-4 0.05857163 0.9490017 1.23668e-4 0.3152712 0.9659342 0.001014411 0.2587862 0.9062946 8.85082e-4 0.4226459 0.916818 -4.72264e-4 0.3993051 0.9171945 -4.72312e-4 0.3984397 0.8191223 9.50188e-4 0.5736182 0.8389335 -8.67125e-4 0.5442333 0.838954 -8.67135e-4 0.5442018 0.6151781 -0.001167953 0.7883873 0.7372847 0.001996994 0.6755793 0.7071065 4.19674e-4 0.7071069 0.7377789 -8.49214e-4 0.675042 0.7379993 -8.49222e-4 0.674801 0.6149373 -0.001167893 0.7885751 0.5736182 0.001160979 0.8191221 0.4761355 -9.98861e-4 0.8793713 0.4760655 -9.98868e-4 0.8794094 0.4225927 0.001327335 0.9063188 0.333579 -0.001070201 0.9427216 0.3337116 -0.001070201 0.9426747 0.2587854 0.001387715 0.9659339 0.2457601 9.54864e-4 0.9693303 0.002941608 -0.001046895 0.9999952 0.003019154 -0.001046895 0.999995 0.08713138 0.001368463 0.9961959 0.1557573 -0.001025557 0.9877949 0.1558163 -0.001025557 0.9877855 -0.2587851 0.001383721 0.965934 -0.1787835 -0.001101195 0.9838879 -0.0871315 -0.001096248 0.9961963 -0.1786149 0.004739403 0.9839076 -0.0866 0.001327335 0.9962424 -0.4226459 0.001381397 0.9062939 -0.3365503 -0.001320719 0.9416646 -0.3365861 -0.001320719 0.9416518 -0.5736178 0.001312136 0.8191221 -0.486723 -0.001120448 0.8735557 -0.4867063 -0.001120448 0.8735649 -0.7070382 -9.49251e-4 0.7071748 -0.7423499 0.002380728 0.6700083 -0.742511 0.002389371 0.6698296 -0.6231285 -0.001192688 0.7821186 -0.6231691 -0.001192688 0.7820863 -0.906347 -7.14482e-4 0.4225335 -0.9219568 0.001824796 0.3872886 -0.884243 2.41925e-4 0.467027 -0.8390561 -6.53462e-4 0.5440447 -0.8191227 -6.53124e-4 0.573618 -0.8388659 0.001659274 0.5443357 -0.7427018 -9.50197e-4 0.6696216 -0.9961978 -5.08007e-4 0.0871194 -0.9999858 0.005351662 1.44869e-4 -0.9983235 0.001437008 0.05786371 -0.9886766 5.96294e-5 0.1500623 -0.970632 -2.43707e-4 0.2405692 -0.9659004 -2.43732e-4 0.2589138 -0.9707162 0.001033365 0.2402269 -0.9218861 -7.14952e-4 0.3874604 -0.9659003 6.49979e-4 -0.2589138 -0.9828962 -8.91663e-6 -0.184161 -0.9961969 -9.03408e-6 -0.08713126 -0.9846175 0.005823433 -0.1746268 -0.9953942 6.41386e-4 -0.09586453 -0.9063473 1.74514e-4 -0.4225334 -0.962363 -1.51102e-4 -0.2717673 -0.9622057 -1.51052e-4 -0.2723239 -0.7188553 -4.08639e-4 -0.6951597 -0.8230619 4.60972e-4 -0.5679515 -0.8191229 9.5533e-6 -0.5736182 -0.9137997 -8.18739e-6 -0.4061655 -0.9051354 -8.09015e-6 -0.4251236 -0.7182235 -4.08639e-4 -0.6958124 -0.707107 5.00893e-5 -0.7071067 -0.718163 6.14537e-4 -0.6958748 -0.5735264 8.60304e-4 -0.8191866 -0.5941702 -4.60337e-4 -0.8043392 -0.5946221 -4.60346e-4 -0.8040053 -0.2942577 -6.27344e-4 -0.955726 -0.3785697 2.59355e-4 -0.9255728 -0.4226461 0.001165926 -0.9062941 -0.4607421 -7.39857e-4 -0.8875338 -0.4610816 -7.39861e-4 -0.8873574 -0.2939459 -6.27362e-4 -0.9558219 -0.2589142 0.001073718 -0.9658998 -0.1439881 -8.9321e-4 -0.989579 -0.1438098 -8.9321e-4 -0.989605 -0.08713096 0.001308262 -0.996196 -0.0529139 4.60805e-4 -0.9985991 0.1933104 -9.97406e-4 -0.9811372 0.1934802 -9.97405e-4 -0.9811037 0.08713203 0.001206219 -0.996196 0.04044407 -7.96687e-4 -0.9991816 0.04062157 -7.96686e-4 -0.9991744 0.4225928 0.001359224 -0.9063186 0.3632994 -0.001043558 -0.9316719 0.2589142 -0.001037836 -0.9658998 0.3628006 0.005899071 -0.9318481 0.2776568 0.002051353 -0.9606782 0.6435604 -0.001188993 -0.7653945 0.6435236 -0.001188993 -0.7654253 0.5735262 0.001385509 -0.8191861 0.5099723 -0.001271367 -0.8601899 0.5100223 -0.001271367 -0.8601603 0.7620912 0.003842651 -0.6474584 0.7071753 8.80537e-4 -0.7070378 0.7619178 -0.001393318 -0.6476724 0.8191224 -0.001121342 -0.5736178 0.8580007 0.003553986 -0.5136364 0.7620065 -0.001393318 -0.6475679 0.9659342 -0.001004397 -0.258786 0.9800596 0.00307703 -0.1986803 0.9580712 6.0824e-4 -0.2865296 0.9277946 -9.22293e-4 -0.3730904 0.9062946 -9.20829e-4 -0.4226455 0.9276743 0.002615511 -0.3733814 0.8584461 -0.001124501 -0.5129026 0.9731366 -4.8511e-4 0.230228 0.9731088 -4.85088e-4 0.2303459 0.9961977 5.61667e-4 0.0871194 0.9969819 0 0.07763504 0.9961969 0 -0.08713126 0.9981103 0.001708269 -0.06142431 0.9801257 -0.001006364 -0.1983751</float_array>
          <technique_common>
            <accessor source="#Link5_001-mesh-normals-array" count="679" stride="3">
              <param name="X" type="float"/>
              <param name="Y" type="float"/>
              <param name="Z" type="float"/>
            </accessor>
          </technique_common>
        </source>
        <vertices id="Link5_001-mesh-vertices">
          <input semantic="POSITION" source="#Link5_001-mesh-positions"/>
        </vertices>
        <triangles material="colour_abb_white_002-material" count="824">
          <input semantic="VERTEX" source="#Link5_001-mesh-vertices" offset="0"/>
          <input semantic="NORMAL" source="#Link5_001-mesh-normals" offset="1"/>
          <p>0 0 1 0 2 0 2 1 1 1 3 1 2 1 3 1 4 1 5 2 6 2 1 2 7 3 8 3 9 3 9 4 8 4 10 4 10 5 11 5 9 5 9 6 11 6 12 6 9 1 12 1 13 1 13 1 12 1 14 1 15 1 16 1 17 1 17 1 16 1 18 1 17 1 18 1 19 1 19 1 18 1 20 1 1 7 6 7 18 7 18 8 6 8 21 8 18 9 21 9 20 9 22 10 16 10 23 10 23 1 16 1 15 1 23 11 15 11 24 11 22 1 25 1 16 1 16 12 25 12 26 12 16 13 26 13 27 13 27 1 28 1 16 1 16 14 28 14 29 14 16 15 29 15 30 15 24 1 31 1 23 1 23 16 31 16 32 16 23 1 32 1 33 1 34 17 35 17 3 17 3 18 35 18 7 18 0 1 36 1 1 1 1 19 36 19 37 19 1 20 37 20 38 20 14 1 39 1 13 1 13 21 39 21 40 21 13 22 40 22 41 22 41 23 40 23 42 23 43 24 44 24 3 24 3 25 44 25 45 25 3 26 45 26 34 26 9 1 46 1 7 1 7 27 46 27 47 27 7 1 47 1 3 1 3 28 47 28 48 28 3 29 48 29 4 29 42 1 49 1 41 1 41 30 49 30 50 30 41 1 50 1 38 1 38 31 50 31 51 31 38 1 51 1 1 1 1 32 51 32 52 32 1 33 52 33 5 33 30 1 53 1 16 1 16 34 53 34 54 34 16 35 54 35 3 35 3 36 54 36 55 36 3 37 55 37 43 37 33 38 32 38 56 38 56 39 32 39 57 39 56 1 57 1 58 1 58 40 57 40 59 40 58 1 59 1 60 1 52 41 61 41 5 41 5 42 61 42 62 42 5 43 62 43 59 43 59 44 62 44 63 44 59 45 63 45 60 45 64 1 65 1 66 1 66 1 65 1 67 1 66 1 67 1 68 1 68 1 67 1 69 1 68 1 69 1 70 1 70 1 69 1 71 1 70 1 71 1 64 1 64 1 71 1 65 1 72 46 73 46 74 46 74 46 73 46 75 46 74 46 75 46 76 46 76 46 75 46 77 46 76 46 77 46 78 46 78 46 77 46 79 46 78 46 79 46 72 46 72 46 79 46 73 46 80 47 79 47 81 47 81 48 79 48 77 48 82 49 65 49 83 49 83 50 65 50 71 50 84 51 69 51 85 51 85 52 69 52 67 52 86 53 75 53 87 53 87 54 75 54 73 54 73 55 79 55 88 55 88 55 89 55 73 55 73 56 89 56 90 56 73 57 90 57 91 57 91 55 92 55 73 55 73 58 92 58 93 58 73 59 93 59 87 59 87 60 93 60 94 60 94 55 95 55 87 55 87 61 95 61 96 61 87 62 96 62 84 62 84 63 96 63 97 63 84 64 97 64 98 64 98 55 99 55 84 55 84 65 99 65 100 65 84 55 100 55 69 55 100 55 101 55 69 55 69 66 101 66 102 66 69 67 102 67 103 67 104 55 105 55 83 55 83 68 105 68 106 68 83 69 106 69 80 69 80 70 106 70 107 70 108 55 71 55 109 55 109 55 71 55 69 55 109 55 69 55 110 55 110 71 69 71 103 71 108 55 111 55 71 55 71 72 111 72 112 72 71 73 112 73 113 73 107 55 114 55 80 55 80 74 114 74 115 74 80 55 115 55 79 55 115 75 116 75 79 75 79 76 116 76 117 76 79 77 117 77 118 77 113 78 119 78 71 78 71 79 119 79 120 79 71 80 120 80 83 80 83 81 120 81 121 81 83 82 121 82 104 82 118 55 122 55 79 55 79 83 122 83 123 83 79 84 123 84 88 84 67 85 65 85 124 85 125 85 126 85 82 85 82 86 126 86 127 86 82 85 127 85 65 85 127 85 128 85 65 85 65 87 128 87 129 87 65 88 129 88 130 88 124 85 131 85 67 85 67 89 131 89 132 89 67 90 132 90 133 90 134 85 135 85 85 85 85 91 135 91 136 91 85 92 136 92 86 92 86 93 136 93 137 93 130 94 138 94 65 94 65 95 138 95 139 95 65 96 139 96 124 96 133 97 140 97 67 97 67 98 140 98 141 98 67 99 141 99 85 99 85 100 141 100 142 100 85 101 142 101 134 101 137 85 143 85 86 85 86 102 143 102 144 102 86 85 144 85 75 85 144 103 145 103 75 103 75 104 145 104 146 104 75 105 146 105 147 105 148 85 77 85 149 85 149 106 77 106 150 106 147 85 151 85 75 85 75 107 151 107 152 107 75 85 152 85 77 85 77 108 152 108 153 108 77 109 153 109 150 109 148 85 154 85 77 85 77 110 154 110 155 110 77 111 155 111 81 111 81 112 155 112 156 112 156 85 157 85 81 85 81 113 157 113 158 113 81 114 158 114 82 114 82 115 158 115 159 115 82 116 159 116 125 116 160 46 161 46 162 46 162 117 161 117 163 117 164 46 165 46 166 46 166 118 165 118 167 118 163 46 168 46 162 46 162 119 168 119 169 119 162 120 169 120 170 120 170 46 171 46 162 46 162 121 171 121 172 121 162 46 172 46 173 46 173 122 172 122 174 122 173 123 174 123 175 123 175 46 176 46 173 46 173 124 176 124 177 124 173 125 177 125 178 125 178 46 179 46 173 46 173 126 179 126 180 126 173 127 180 127 181 127 182 128 183 128 165 128 165 129 183 129 184 129 165 130 184 130 167 130 185 46 186 46 187 46 187 131 186 131 188 131 187 132 188 132 189 132 160 46 162 46 190 46 190 133 162 133 187 133 190 46 187 46 191 46 189 134 192 134 187 134 187 135 192 135 193 135 187 136 193 136 191 136 181 46 194 46 173 46 173 46 194 46 195 46 173 137 195 137 165 137 165 46 195 46 196 46 165 138 196 138 182 138 164 46 197 46 165 46 165 139 197 139 198 139 165 46 198 46 187 46 187 140 198 140 199 140 187 141 199 141 185 141 200 142 76 142 201 142 201 142 76 142 78 142 162 55 201 55 187 55 187 55 201 55 78 55 187 55 78 55 202 55 202 55 78 55 72 55 202 143 72 143 203 143 203 143 72 143 74 143 165 85 203 85 74 85 173 85 165 85 200 85 200 85 165 85 74 85 200 85 74 85 76 85 64 85 66 85 204 85 16 85 3 85 204 85 204 85 3 85 205 85 204 85 205 85 64 85 204 143 66 143 206 143 206 143 66 143 68 143 1 55 18 55 207 55 207 55 18 55 206 55 207 55 206 55 70 55 70 55 206 55 68 55 207 142 70 142 205 142 205 142 70 142 64 142 85 143 86 143 84 143 84 143 86 143 87 143 81 142 82 142 80 142 80 142 82 142 83 142 206 144 18 144 204 144 204 144 18 144 16 144 205 145 3 145 207 145 207 145 3 145 1 145 187 146 202 146 165 146 165 146 202 146 203 146 173 147 200 147 162 147 162 147 200 147 201 147 208 148 209 148 191 148 191 149 209 149 210 149 191 150 210 150 211 150 211 151 212 151 191 151 191 152 212 152 213 152 191 153 213 153 214 153 215 154 216 154 61 154 217 155 218 155 61 155 217 156 61 156 219 156 216 157 220 157 61 157 61 158 220 158 221 158 61 159 221 159 219 159 218 160 222 160 61 160 61 161 222 161 223 161 61 162 223 162 224 162 225 163 226 163 193 163 193 164 226 164 227 164 227 165 228 165 193 165 193 166 228 166 229 166 193 167 229 167 230 167 230 168 231 168 193 168 193 169 231 169 232 169 193 170 232 170 233 170 233 171 234 171 193 171 193 172 234 172 235 172 193 173 235 173 191 173 191 174 235 174 236 174 191 175 236 175 208 175 237 176 238 176 52 176 52 177 238 177 239 177 239 178 240 178 52 178 52 179 240 179 241 179 52 180 241 180 242 180 242 181 243 181 52 181 52 182 243 182 244 182 52 183 244 183 245 183 245 184 246 184 52 184 52 185 246 185 247 185 52 186 247 186 61 186 61 187 247 187 248 187 61 188 248 188 215 188 249 189 250 189 50 189 250 190 251 190 50 190 50 191 251 191 252 191 50 192 252 192 253 192 253 193 254 193 50 193 50 194 254 194 255 194 50 195 255 195 256 195 256 196 257 196 50 196 50 197 257 197 258 197 50 198 258 198 51 198 51 199 258 199 259 199 51 200 259 200 52 200 52 201 259 201 260 201 52 202 260 202 237 202 261 203 262 203 161 203 161 204 262 204 263 204 161 205 263 205 264 205 264 206 265 206 161 206 161 207 265 207 266 207 161 208 266 208 267 208 268 209 269 209 49 209 268 210 49 210 270 210 267 211 271 211 161 211 161 212 271 212 272 212 161 213 272 213 270 213 269 214 273 214 49 214 49 215 273 215 274 215 49 216 274 216 50 216 50 217 274 217 275 217 50 218 275 218 276 218 276 219 277 219 50 219 50 220 277 220 278 220 50 221 278 221 279 221 279 222 280 222 50 222 50 223 280 223 281 223 50 224 281 224 249 224 214 225 282 225 191 225 191 226 282 226 283 226 191 227 283 227 190 227 190 228 283 228 284 228 190 229 284 229 160 229 160 230 284 230 285 230 160 231 285 231 286 231 286 232 287 232 160 232 160 233 287 233 288 233 160 234 288 234 289 234 289 235 290 235 160 235 160 236 290 236 291 236 160 237 291 237 292 237 292 238 293 238 160 238 160 239 293 239 294 239 160 240 294 240 161 240 161 241 294 241 295 241 161 242 295 242 261 242 296 243 297 243 194 243 194 244 297 244 298 244 194 245 298 245 299 245 299 246 300 246 194 246 194 247 300 247 301 247 194 248 301 248 302 248 303 249 304 249 43 249 305 250 306 250 43 250 305 251 43 251 307 251 304 252 308 252 43 252 43 253 308 253 309 253 43 254 309 254 307 254 306 255 310 255 43 255 43 256 310 256 311 256 43 257 311 257 312 257 313 258 314 258 181 258 181 259 314 259 315 259 315 260 316 260 181 260 181 261 316 261 317 261 181 262 317 262 318 262 318 263 319 263 181 263 181 264 319 264 320 264 181 265 320 265 321 265 321 266 322 266 181 266 181 267 322 267 323 267 181 268 323 268 194 268 194 269 323 269 324 269 194 270 324 270 296 270 55 271 54 271 325 271 325 272 326 272 55 272 55 273 326 273 327 273 55 274 327 274 328 274 328 275 329 275 55 275 55 276 329 276 330 276 55 277 330 277 331 277 331 278 332 278 55 278 55 279 332 279 333 279 55 280 333 280 334 280 334 281 335 281 55 281 55 282 335 282 336 282 55 283 336 283 43 283 43 284 336 284 337 284 43 285 337 285 303 285 338 286 339 286 53 286 339 287 340 287 53 287 53 288 340 288 341 288 53 289 341 289 342 289 342 290 343 290 53 290 53 291 343 291 344 291 53 292 344 292 345 292 345 293 346 293 53 293 53 294 346 294 347 294 53 295 347 295 54 295 54 296 347 296 348 296 54 297 348 297 325 297 349 298 350 298 182 298 182 299 350 299 351 299 182 300 351 300 352 300 352 301 353 301 182 301 182 302 353 302 354 302 182 303 354 303 355 303 356 304 357 304 30 304 356 305 30 305 358 305 355 306 359 306 182 306 182 307 359 307 360 307 182 308 360 308 358 308 357 309 361 309 30 309 30 310 361 310 362 310 30 311 362 311 53 311 53 312 362 312 363 312 53 313 363 313 364 313 364 314 365 314 53 314 53 315 365 315 366 315 53 316 366 316 367 316 367 317 368 317 53 317 53 318 368 318 369 318 53 319 369 319 338 319 302 320 370 320 194 320 194 321 370 321 371 321 194 322 371 322 195 322 195 323 371 323 372 323 195 324 372 324 196 324 196 325 372 325 373 325 196 326 373 326 374 326 374 327 375 327 196 327 196 328 375 328 376 328 196 329 376 329 377 329 377 330 378 330 196 330 196 331 378 331 379 331 196 332 379 332 380 332 380 333 381 333 196 333 196 334 381 334 382 334 196 335 382 335 182 335 182 336 382 336 383 336 182 337 383 337 349 337 358 338 30 338 182 338 182 339 30 339 29 339 182 340 29 340 183 340 183 341 29 341 28 341 183 342 28 342 184 342 184 343 28 343 27 343 184 343 27 343 167 343 167 344 27 344 26 344 167 345 26 345 166 345 166 346 26 346 25 346 166 347 25 347 164 347 164 348 25 348 22 348 164 348 22 348 197 348 197 349 22 349 23 349 197 350 23 350 198 350 198 351 23 351 33 351 198 352 33 352 199 352 199 353 33 353 56 353 199 354 56 354 185 354 185 355 56 355 58 355 185 356 58 356 186 356 186 357 58 357 60 357 186 358 60 358 188 358 188 359 60 359 63 359 188 360 63 360 189 360 189 361 63 361 62 361 189 362 62 362 192 362 192 363 62 363 61 363 192 364 61 364 193 364 193 365 61 365 224 365 193 366 224 366 225 366 270 367 49 367 161 367 161 368 49 368 42 368 161 369 42 369 163 369 163 370 42 370 40 370 163 371 40 371 168 371 168 372 40 372 39 372 168 373 39 373 169 373 169 374 39 374 14 374 169 375 14 375 170 375 170 376 14 376 12 376 170 377 12 377 171 377 171 378 12 378 11 378 171 379 11 379 172 379 172 380 11 380 10 380 172 381 10 381 174 381 174 382 10 382 8 382 174 383 8 383 175 383 175 384 8 384 7 384 175 384 7 384 176 384 176 385 7 385 35 385 176 386 35 386 177 386 177 387 35 387 34 387 177 388 34 388 178 388 178 389 34 389 45 389 178 389 45 389 179 389 179 390 45 390 44 390 179 391 44 391 180 391 180 392 44 392 43 392 180 393 43 393 181 393 181 394 43 394 312 394 181 395 312 395 313 395 41 396 384 396 13 396 13 397 384 397 385 397 38 398 386 398 41 398 41 399 386 399 384 399 37 400 387 400 38 400 38 401 387 401 386 401 36 402 388 402 37 402 37 403 388 403 387 403 0 404 389 404 36 404 36 405 389 405 388 405 2 406 390 406 0 406 0 407 390 407 389 407 4 408 391 408 2 408 2 409 391 409 390 409 48 410 392 410 4 410 4 411 392 411 391 411 47 412 393 412 48 412 48 413 393 413 392 413 46 414 394 414 47 414 47 415 394 415 393 415 9 416 395 416 46 416 46 417 395 417 394 417 13 418 385 418 9 418 9 419 385 419 395 419 391 420 392 420 393 420 387 1 393 1 394 1 390 1 391 1 389 1 389 1 391 1 393 1 389 421 393 421 388 421 388 1 393 1 387 1 384 422 386 422 385 422 385 423 386 423 387 423 385 1 387 1 395 1 395 1 387 1 394 1 57 408 396 408 59 408 59 409 396 409 397 409 32 410 398 410 57 410 57 411 398 411 396 411 31 412 399 412 32 412 32 413 399 413 398 413 24 414 400 414 31 414 31 415 400 415 399 415 15 416 401 416 24 416 24 417 401 417 400 417 17 418 402 418 15 418 15 419 402 419 401 419 19 396 403 396 17 396 17 397 403 397 402 397 20 398 404 398 19 398 19 399 404 399 403 399 21 400 405 400 20 400 20 401 405 401 404 401 6 402 406 402 21 402 21 403 406 403 405 403 5 404 407 404 6 404 6 405 407 405 406 405 59 406 397 406 5 406 5 407 397 407 407 407 402 1 403 1 396 1 396 1 403 1 397 1 401 424 402 424 400 424 400 425 402 425 396 425 400 426 396 426 399 426 399 420 396 420 398 420 406 427 407 427 405 427 405 428 407 428 397 428 405 429 397 429 404 429 404 430 397 430 403 430 237 431 260 431 108 431 288 432 287 432 122 432 122 433 287 433 123 433 118 434 290 434 122 434 122 435 290 435 289 435 122 436 289 436 288 436 117 437 292 437 118 437 118 438 292 438 291 438 118 439 291 439 290 439 261 440 295 440 116 440 116 441 295 441 294 441 116 442 294 442 117 442 117 443 294 443 293 443 117 444 293 444 292 444 261 445 116 445 262 445 262 446 116 446 115 446 262 447 115 447 263 447 263 448 115 448 264 448 264 449 115 449 114 449 264 450 114 450 265 450 265 451 114 451 266 451 266 452 114 452 107 452 266 453 107 453 267 453 268 454 270 454 106 454 106 455 270 455 272 455 106 456 272 456 107 456 107 457 272 457 271 457 107 458 271 458 267 458 104 459 274 459 105 459 105 460 274 460 273 460 105 461 273 461 106 461 106 462 273 462 269 462 106 463 269 463 268 463 121 464 276 464 104 464 104 465 276 465 275 465 104 466 275 466 274 466 120 467 278 467 121 467 121 468 278 468 277 468 121 469 277 469 276 469 119 470 249 470 120 470 120 471 249 471 281 471 281 472 280 472 120 472 120 473 280 473 279 473 120 474 279 474 278 474 112 475 254 475 113 475 113 476 254 476 253 476 253 477 252 477 113 477 113 478 252 478 251 478 113 479 251 479 119 479 119 480 251 480 250 480 119 481 250 481 249 481 108 482 260 482 111 482 111 483 260 483 259 483 111 484 259 484 258 484 258 485 257 485 111 485 111 486 257 486 256 486 111 487 256 487 112 487 112 488 256 488 255 488 112 489 255 489 254 489 110 490 240 490 109 490 109 491 240 491 239 491 109 492 239 492 108 492 108 493 239 493 238 493 108 494 238 494 237 494 103 495 242 495 110 495 110 496 242 496 241 496 110 497 241 497 240 497 246 498 245 498 102 498 102 499 245 499 244 499 102 500 244 500 103 500 103 501 244 501 243 501 103 502 243 502 242 502 246 503 102 503 247 503 247 504 102 504 101 504 247 505 101 505 248 505 100 506 216 506 101 506 101 507 216 507 215 507 101 508 215 508 248 508 217 509 219 509 99 509 99 510 219 510 221 510 99 511 221 511 100 511 100 512 221 512 220 512 100 513 220 513 216 513 217 514 99 514 218 514 218 515 99 515 98 515 218 516 98 516 222 516 222 517 98 517 223 517 223 518 98 518 97 518 223 519 97 519 224 519 228 520 227 520 96 520 96 521 227 521 226 521 96 522 226 522 97 522 97 523 226 523 225 523 97 524 225 524 224 524 94 525 231 525 95 525 95 526 231 526 230 526 95 527 230 527 96 527 96 528 230 528 229 528 96 529 229 529 228 529 235 530 234 530 93 530 93 531 234 531 233 531 93 532 233 532 94 532 94 533 233 533 232 533 94 534 232 534 231 534 235 535 93 535 236 535 236 536 93 536 92 536 236 537 92 537 208 537 91 538 210 538 92 538 92 539 210 539 209 539 92 540 209 540 208 540 89 541 282 541 90 541 90 542 282 542 214 542 214 543 213 543 90 543 90 544 213 544 212 544 90 545 212 545 91 545 91 546 212 546 211 546 91 547 211 547 210 547 287 548 286 548 123 548 123 549 286 549 285 549 123 550 285 550 88 550 88 551 285 551 284 551 88 552 284 552 89 552 89 553 284 553 283 553 89 554 283 554 282 554 326 555 325 555 124 555 376 556 375 556 151 556 151 557 375 557 152 557 147 558 378 558 151 558 151 559 378 559 377 559 151 560 377 560 376 560 146 561 380 561 147 561 147 562 380 562 379 562 147 563 379 563 378 563 349 564 383 564 145 564 145 565 383 565 382 565 145 566 382 566 146 566 146 567 382 567 381 567 146 568 381 568 380 568 349 569 145 569 350 569 350 570 145 570 144 570 350 571 144 571 351 571 351 572 144 572 352 572 352 573 144 573 143 573 352 574 143 574 353 574 353 575 143 575 354 575 354 576 143 576 137 576 354 577 137 577 355 577 356 578 358 578 136 578 136 579 358 579 360 579 136 580 360 580 137 580 137 581 360 581 359 581 137 582 359 582 355 582 134 583 362 583 135 583 135 584 362 584 361 584 135 585 361 585 136 585 136 586 361 586 357 586 136 587 357 587 356 587 142 588 364 588 134 588 134 589 364 589 363 589 134 590 363 590 362 590 141 591 366 591 142 591 142 592 366 592 365 592 142 593 365 593 364 593 140 594 338 594 141 594 141 595 338 595 369 595 369 596 368 596 141 596 141 597 368 597 367 597 141 598 367 598 366 598 132 599 343 599 133 599 133 600 343 600 342 600 342 601 341 601 133 601 133 602 341 602 340 602 133 603 340 603 140 603 140 604 340 604 339 604 140 605 339 605 338 605 124 606 325 606 131 606 131 607 325 607 348 607 131 608 348 608 347 608 347 609 346 609 131 609 131 610 346 610 345 610 131 611 345 611 132 611 132 612 345 612 344 612 132 613 344 613 343 613 138 614 329 614 139 614 139 615 329 615 328 615 139 616 328 616 124 616 124 617 328 617 327 617 124 618 327 618 326 618 130 619 331 619 138 619 138 620 331 620 330 620 138 621 330 621 329 621 335 622 334 622 129 622 129 623 334 623 333 623 129 624 333 624 130 624 130 625 333 625 332 625 130 626 332 626 331 626 335 627 129 627 336 627 336 628 129 628 128 628 336 629 128 629 337 629 127 630 304 630 128 630 128 631 304 631 303 631 128 632 303 632 337 632 305 633 307 633 126 633 126 634 307 634 309 634 126 635 309 635 127 635 127 636 309 636 308 636 127 637 308 637 304 637 305 638 126 638 306 638 306 639 126 639 125 639 306 640 125 640 310 640 310 641 125 641 311 641 311 642 125 642 159 642 311 643 159 643 312 643 316 644 315 644 158 644 158 645 315 645 314 645 158 646 314 646 159 646 159 647 314 647 313 647 159 648 313 648 312 648 156 649 319 649 157 649 157 650 319 650 318 650 157 651 318 651 158 651 158 652 318 652 317 652 158 653 317 653 316 653 323 654 322 654 155 654 155 655 322 655 321 655 155 656 321 656 156 656 156 657 321 657 320 657 156 658 320 658 319 658 323 659 155 659 324 659 324 660 155 660 154 660 324 661 154 661 296 661 148 662 298 662 154 662 154 663 298 663 297 663 154 664 297 664 296 664 150 665 370 665 149 665 149 666 370 666 302 666 302 667 301 667 149 667 149 668 301 668 300 668 149 669 300 669 148 669 148 670 300 670 299 670 148 671 299 671 298 671 375 672 374 672 152 672 152 673 374 673 373 673 152 674 373 674 153 674 153 675 373 675 372 675 153 676 372 676 150 676 150 677 372 677 371 677 150 678 371 678 370 678</p>
        </triangles>
      </mesh>
    </geometry>
  </library_geometries>
  <library_visual_scenes>
    <visual_scene id="Scene" name="Scene">
      <node id="Link5" name="Link5" type="NODE">
        <matrix sid="transform">1 0 0 0 0 1 0 0 0 0 1 0 0 0 0 1</matrix>
        <instance_geometry url="#Link5_001-mesh" name="Link5">
          <bind_material>
            <technique_common>
              <instance_material symbol="colour_abb_white_002-material" target="#colour_abb_white_002-material"/>
            </technique_common>
          </bind_material>
        </instance_geometry>
      </node>
    </visual_scene>
  </library_visual_scenes>
  <scene>
    <instance_visual_scene url="#Scene"/>
  </scene>
</COLLADA>