<?xml version="1.0" encoding="utf-8"?>
<COLLADA xmlns="http://www.collada.org/2005/11/COLLADASchema" version="1.4.1" xmlns:xsi="http://www.w3.org/2001/XMLSchema-instance">
  <asset>
    <contributor>
      <author>Blender User</author>
      <authoring_tool>Blender 2.82.7</authoring_tool>
    </contributor>
    <created>2024-02-04T12:02:07</created>
    <modified>2024-02-04T12:02:07</modified>
    <unit name="meter" meter="1"/>
    <up_axis>Z_UP</up_axis>
  </asset>
  <library_effects>
    <effect id="Material_001-effect">
      <profile_COMMON>
        <technique sid="common">
          <lambert>
            <emission>
              <color sid="emission">0 0 0 1</color>
            </emission>
            <diffuse>
              <color sid="diffuse">0.0118336 0.0118336 0.0118336 1</color>
            </diffuse>
            <index_of_refraction>
              <float sid="ior">1.45</float>
            </index_of_refraction>
          </lambert>
        </technique>
      </profile_COMMON>
    </effect>
  </library_effects>
  <library_images/>
  <library_materials>
    <material id="Material_001-material" name="Material.001">
      <instance_effect url="#Material_001-effect"/>
    </material>
  </library_materials>
  <library_geometries>
    <geometry id="Link6_001-mesh" name="Link6.001">
      <mesh>
        <source id="Link6_001-mesh-positions">
          <float_array id="Link6_001-mesh-positions-array" count="1680">0.1399999 -0.03074997 0.03843724 0.1399999 -0.03074997 0.01823627 0.1399999 -0.02994537 0.01823627 0.1399999 -0.0216543 0.03958547 0.1399999 -0.02423328 0.03843724 0.1399999 -0.01199996 0.03843724 0.1399999 -0.02960032 -0.01077359 0.1399999 -0.02994537 -0.0094859 0.1399999 -0.02994537 -0.03491431 0.1399999 -0.02727979 0.01574993 0.1399999 -0.02553886 0.01823627 0.1399999 0.01077359 0.02960026 0.1399999 0.01199996 0.02902841 0.1399999 0.01199996 0.03843724 0.1399999 -0.01077359 -0.02960032 0.1399999 -0.01199996 -0.02902847 0.1399999 -0.01199996 -0.03491431 0.1399999 -0.03673654 0.05056357 0.1399999 -0.03830462 0.04926633 0.1399999 -0.03830462 0.03843724 0.1399999 -0.05277049 -0.03348916 0.1399999 -0.05173504 -0.03491431 0.1399999 -0.03830462 -0.03491431 0.1399999 -0.0155431 -0.06053644 0.1399999 -0.01199996 -0.06121236 0.1399999 -0.01199996 -0.04816514 0.1399999 0.001236021 0.05380415 0.1399999 0.003236055 0.05235111 0.1399999 0.01199996 0.0612123 0.1399999 0.01199996 0.05103898 0.1399999 0.0155431 0.06053638 0.1399999 0.02005457 0.05103898 0.1399999 0.03074997 0.05103898 0.1399999 0.03074997 0.05436277 0.1399999 0.03010958 0.05476915 0.1399999 0.02300775 0.05811095 0.1399999 0.02005457 0.05907058 0.1399999 0.04815703 0.03983902 0.1399999 0.04278415 0.04556047 0.1399999 0.03074997 0.03843724 0.1399999 0.03673654 0.05056357 0.1399999 0.03598731 0.05103898 0.1399999 0.03074997 0.01823627 0.1399999 0.05971759 0.01823627 0.1399999 0.05944103 0.01931357 0.1399999 0.05655169 0.0266112 0.1399999 0.05277049 0.0334891 0.1399999 0.04917544 0.03843724 0.1399999 0.04815703 -0.03983896 0.1399999 0.05173504 -0.03491431 0.1399999 0.03074997 -0.03491431 0.1399999 0.04947733 -0.004972636 0.1399999 0.04665434 -0.003715693 0.1399999 0.05249994 -0.004330098 0.1399999 0.0613929 -0.01171129 0.1399999 0.05456769 -0.00203365 0.1399999 0.06237661 -0.003924429 0.1399999 0.05489069 0.001039505 0.1399999 0.06237661 0.003924369 0.1399999 0.05334562 0.003715753 0.1399999 0.0613929 0.01171135 0.1399999 0.05052262 0.004972577 0.1399999 0.04749995 0.004330039 0.1399999 0.04543226 0.00203371 0.1399999 0.05277049 -0.03348916 0.1399999 0.05655169 -0.02661114 0.1399999 0.05944103 -0.01931351 0.1399999 0.03074997 -0.05436271 0.1399999 0.03673654 -0.05056351 0.1399999 0.03074997 -0.04816514 0.1399999 0.03963565 -0.04816514 0.1399999 0.04278415 -0.04556053 0.1399999 0.03010958 -0.05476909 0.1399999 0.02576667 -0.04816514 0.1399999 0.02300775 -0.05811101 0.1399999 0.02552258 -0.04827386 0.1399999 0.02501142 -0.04816514 0.1399999 0.02005457 -0.05907052 0.1399999 0.02005457 -0.04816514 0.1399999 0.0155431 -0.06053644 0.1399999 0.01199996 -0.04816514 0.1399999 0.01199996 -0.06121236 0.1399999 -0.007833302 -0.06200712 0.1399999 0 -0.06249994 0.1399999 0.007833302 -0.06200712 0.1399999 -0.02300775 -0.05811101 0.1399999 -0.02994537 -0.04816514 0.1399999 -0.02994537 -0.05484646 0.1399999 -0.03830462 -0.04926627 0.1399999 -0.03673654 -0.05056351 0.1399999 -0.03074997 -0.04816514 0.1399999 -0.03074997 -0.05436271 0.1399999 -0.03010958 -0.05476909 0.1399999 -0.03963565 -0.04816514 0.1399999 -0.03830462 -0.04816514 0.1399999 -0.04278415 -0.04556053 0.1399999 -0.04815703 -0.03983896 0.1399999 -0.05052262 -0.004972636 0.1399999 -0.05334562 -0.003715693 0.1399999 -0.05869531 -0.0211969 0.1399999 -0.05489069 -0.001039564 0.1399999 -0.05456769 0.00203371 0.1399999 -0.05869531 0.01823627 0.1399999 -0.05249994 0.004330039 0.1399999 -0.03830462 0.01823627 0.1399999 -0.04947733 0.004972577 0.1399999 -0.04665434 0.003715753 0.1399999 -0.04510921 0.001039505 0.1399999 -0.04543226 -0.00203365 0.1399999 -0.04749995 -0.004330098 0.1399999 -0.05655169 -0.02661114 0.1399999 -0.05944103 0.01931357 0.1399999 -0.05971759 0.01823627 0.1399999 -0.06237661 0.003924369 0.1399999 -0.06237661 -0.003924429 0.1399999 -0.0613929 -0.01171129 0.1399999 -0.0613929 0.01171135 0.1399999 -0.05944103 -0.01931351 0.1399999 -0.04917544 0.03843724 0.1399999 -0.05277049 0.0334891 0.1399999 -0.05655169 0.0266112 0.1399999 -0.05869531 0.02119684 0.1399999 -0.04278415 0.04556047 0.1399999 -0.04815703 0.03983902 0.1399999 -0.01199996 0.0612123 0.1399999 -0.0155431 0.06053638 0.1399999 -0.01199996 0.05103898 0.1399999 -0.02300775 0.05811095 0.1399999 -0.02994537 0.05103898 0.1399999 -0.02994537 0.0548464 0.1399999 -0.03010958 0.05476915 0.1399999 0.01077359 -0.02960032 0.1399999 0.005469858 -0.03102141 0.1399999 0.01199996 -0.03491431 0.1399999 0 -0.03149992 0.1399999 -0.005469918 -0.03102141 0.1399999 0.02005457 -0.03491431 0.1399999 0.01574999 -0.02727979 0.1399999 0.01199996 -0.02902847 0.1399999 0.04510921 -0.001039564 0.1399999 0.03102141 -0.005469858 0.1399999 0.03074997 -0.006482899 0.1399999 0.02960032 -0.01077359 0.1399999 0.02727979 -0.01574999 0.1399999 0.0241304 -0.02024775 0.1399999 0.02024775 -0.0241304 0.1399999 0.02005457 -0.02426558 0.1399999 0.02727979 0.01574993 0.1399999 0.02960032 0.01077365 0.1399999 0.03074997 0.006482958 0.1399999 0.03102141 0.005469918 0.1399999 0.03149998 0 0.1399999 0.02005457 0.02426564 0.1399999 0.02024775 0.02413034 0.1399999 0.0241304 0.02024781 0.1399999 0.02553886 0.01823627 0.1399999 0.02005457 0.03843724 0.1399999 0.01574999 0.02727973 0.1399999 -0.01077359 0.02960026 0.1399999 -0.005469918 0.03102135 0.1399999 0 0.03149998 0.1399999 0.005469858 0.03102135 0.1399999 -0.02447736 0.03832864 0.1399999 -0.02024775 0.02413034 0.1399999 -0.01574999 0.02727973 0.1399999 -0.01199996 0.02902841 0.1399999 -0.02960032 0.01077365 0.1399999 -0.02994537 0.00948584 0.1399999 -0.03074997 0.006482958 0.1399999 -0.03074997 -0.006482899 0.1399999 -0.03102141 -0.005469858 0.1399999 -0.03149998 0 0.1399999 -0.03102141 0.005469918 0.1399999 -0.03074997 -0.03491431 0.1399999 -0.01574999 -0.02727979 0.1399999 -0.02024775 -0.0241304 0.1399999 -0.0241304 -0.02024775 0.1399999 -0.02727979 -0.01574999 0.1399999 -0.003236055 0.04764878 0.1399999 0.007833302 0.06200718 0.1399999 0 0.0625 0.1399999 -0.001236021 0.05380415 0.1399999 -0.007833302 0.06200718 0.1399999 -0.003236055 0.05235111 0.1399999 -0.003662347 0.05103898 0.1399999 -0.003999948 0.04999995 0.1399999 0.003662347 0.05103898 0.1399999 0.003999948 0.04999995 0.1399999 0.003236055 0.04764878 0.1399999 0.001236021 0.04619574 0.1399999 -0.001236021 0.04619574 0.1399999 0.0234549 0.04805648 0.1399999 0.02654504 0.04805648 0.1399999 0.02654504 0.03854596 0.1399999 0.0234549 0.03854596 0.1399999 0.02904504 0.04624021 0.1399999 0.02999997 0.04330122 0.1399999 0.02904504 0.04036235 0.1399999 0.0209549 0.04036235 0.1399999 0.02005457 0.04313313 0.1399999 0.01999998 0.04330122 0.1399999 0.02005457 0.04346942 0.1399999 0.0209549 0.04624021 0.1399999 -0.02989071 0.04434084 0.1399999 -0.02834564 0.04701697 0.1399999 -0.02552258 0.0482738 0.1399999 -0.02498853 0.03843724 0.1399999 -0.02749997 0.03897106 0.1399999 -0.02994537 0.03843724 0.1399999 -0.02956771 0.04126751 0.1399999 -0.02249997 0.04763138 0.1399999 -0.02043223 0.04533493 0.1399999 -0.02010923 0.04226171 0.1399999 -0.02654504 -0.0385459 0.1399999 -0.0234549 -0.0385459 0.1399999 -0.0209549 -0.04036229 0.1399999 -0.02654504 -0.04805654 0.1399999 -0.0234549 -0.04805654 0.1399999 -0.0209549 -0.04624015 0.1399999 -0.01999998 -0.04330128 0.1399999 -0.02904504 -0.04624015 0.1399999 -0.02994537 -0.04346936 0.1399999 -0.02999997 -0.04330128 0.1399999 -0.02994537 -0.04313308 0.1399999 -0.02904504 -0.04036229 0.1399999 0.02749997 -0.03897112 0.1399999 0.02447736 -0.03832858 0.1399999 0.0216543 -0.03958553 0.1399999 0.02010923 -0.04226166 0.1399999 0.02956771 -0.04126757 0.1399999 0.02989071 -0.04434078 0.1399999 0.02834564 -0.04701691 0.1399999 0.02249997 -0.04763132 0.1399999 0.02043223 -0.04533487 0.1399999 -0.03598731 0.05103898 0.1399999 -0.03074997 0.05103898 0.1399999 -0.03074997 0.05436277 0.1399999 -0.0241304 0.02024781 0.134 -0.02300775 0.05811095 0.134 -0.0155431 0.06053638 0.134 -0.007833302 0.06200718 0.134 -0.03010958 0.05476915 0.134 -0.03673654 0.05056357 0.134 -0.04278415 0.04556047 0.134 -0.04815703 0.03983902 0.134 -0.05277049 0.0334891 0.134 -0.05655169 0.0266112 0.134 -0.05944103 0.01931357 0.134 -0.0613929 0.01171135 0.134 -0.06237661 0.003924369 0.134 -0.06237661 -0.003924429 0.134 -0.0613929 -0.01171129 0.134 -0.05944103 -0.01931351 0.134 -0.05655169 -0.02661114 0.134 -0.05277049 -0.03348916 0.134 -0.04815703 -0.03983896 0.134 -0.04278415 -0.04556053 0.134 -0.03673654 -0.05056351 0.134 -0.03010958 -0.05476909 0.134 -0.0155431 -0.06053644 0.134 -0.02300775 -0.05811101 0.134 -0.007833302 -0.06200712 0.134 0 -0.06249994 0.134 0.007833302 -0.06200712 0.134 0.0155431 -0.06053644 0.134 0.03010958 -0.05476909 0.134 0.02300775 -0.05811101 0.134 0.03673654 -0.05056351 0.134 0.04278415 -0.04556053 0.134 0.04815703 -0.03983896 0.134 0.0613929 0.01171135 0.134 0.06237661 0.003924369 0.134 0.06237661 -0.003924429 0.134 0.0613929 -0.01171129 0.134 0.05944103 -0.01931351 0.134 0.05655169 -0.02661114 0.134 0.05277049 -0.03348916 0.134 0.05277049 0.0334891 0.134 0.05655169 0.0266112 0.134 0.05944103 0.01931357 0.134 0.03673654 0.05056357 0.134 0.04278415 0.04556047 0.134 0.04815703 0.03983902 0.134 0.03010958 0.05476915 0.134 0.02300775 0.05811095 0.134 0.0155431 0.06053638 0.134 0.007833302 0.06200718 0.134 0 0.0625 0.12 0.00607866 -0.04811757 0.12 0.01206141 -0.04697626 0.12 0.01785403 -0.04509407 0.12 0.02336502 -0.04250079 0.12 0.02850759 -0.03923732 0.12 0.0332005 -0.03535491 0.12 0.03736984 -0.03091508 0.12 0.04094988 -0.02598756 0.12 0.04388409 -0.0206502 0.12 0.04612624 -0.01498728 0.12 0.04764091 -0.009087979 0.12 0.04840427 -0.00304526 0.12 0.04840427 0.00304532 0.12 0.04764091 0.00908792 0.12 0.04612624 0.01498734 0.12 0.04388409 0.02065026 0.12 0.04094988 0.02598762 0.12 0.03736984 0.03091502 0.12 0.0332005 0.03535497 0.12 0.02850759 0.03923726 0.12 0.02336502 0.04250085 0.12 0.01785403 0.04509413 0.12 0.01206141 0.0469762 0.12 0.00607866 0.04811751 0.134 0 0.0625 0.12 0 0.04849994 0.12 -0.00607866 0.04811751 0.12 -0.01206141 0.0469762 0.12 -0.01785403 0.04509413 0.12 -0.02336502 0.04250085 0.12 -0.02850759 0.03923726 0.12 -0.0332005 0.03535497 0.12 -0.03736984 0.03091502 0.12 -0.04094988 0.02598762 0.12 -0.04388409 0.02065026 0.12 -0.04612624 0.01498734 0.12 -0.04764091 0.00908792 0.12 -0.04840427 0.00304532 0.12 -0.04840427 -0.00304526 0.12 -0.04764091 -0.009087979 0.12 -0.04612624 -0.01498728 0.12 -0.04388409 -0.0206502 0.12 -0.04094988 -0.02598756 0.12 -0.03736984 -0.03091508 0.12 -0.0332005 -0.03535491 0.12 -0.02850759 -0.03923732 0.12 -0.02336502 -0.04250079 0.12 -0.01785403 -0.04509407 0.12 -0.01206141 -0.04697626 0.12 -0.00607866 -0.04811757 0.134 0 -0.06249994 0.12 0 -0.0485 0.12 -0.01097881 0.03016412 0.12 -0.005574107 0.03161227 0.12 0 0.03209996 0.12 0 0.04849994 0.12 0.005574047 0.03161227 0.12 0.01097881 -0.03016406 0.12 0.005574047 -0.03161233 0.12 0 -0.03210002 0.12 -0.005574107 -0.03161233 0.12 0.01604998 0.02779936 0.12 0.02063345 0.02459001 0.12 0.02459001 0.02063345 0.12 0.02779936 0.01604998 0.12 -0.02063345 0.02459001 0.12 -0.01604998 0.02779936 0.12 0.02063345 -0.02458995 0.12 0.01604998 -0.02779942 0.12 0.03016412 -0.01097875 0.12 0.02779936 -0.01604992 0.12 0.02459001 -0.02063339 0.12 0.03161227 0.005574107 0.12 0.03209996 0 0.12 0.03161227 -0.005574047 0.12 -0.03016412 0.01097881 0.12 -0.02779936 0.01604998 0.12 -0.02459001 0.02063345 0.12 -0.01097881 -0.03016406 0.12 -0.01604998 -0.02779942 0.12 0.01097881 0.03016412 0.12 -0.02779936 -0.01604992 0.12 -0.03016412 -0.01097875 0.12 -0.03161227 -0.005574047 0.12 -0.02063345 -0.02458995 0.12 -0.02459001 -0.02063339 0.12 0.03016412 0.01097881 0.12 -0.03209996 0 0.12 -0.03161227 0.005574107 0.108 0.003490328 -0.01979464 0.108 0.006874561 -0.01888781 0.108 0.01004999 -0.01740711 0.108 0.01292002 -0.01539748 0.108 0.01539748 -0.01291996 0.108 0.01740705 -0.01004999 0.108 0.01888781 -0.00687462 0.108 0.01979458 -0.003490269 0.108 0.02009999 0 0.108 0.01979458 0.003490328 0.108 0.01888781 0.006874561 0.108 0.01740705 0.01004993 0.108 0.01539748 0.01292002 0.108 0.01292002 0.01539742 0.108 0.01004999 0.01740705 0.108 0.006874561 0.01888775 0.108 0.003490328 0.01979458 0.12 0 0.03209996 0.108 0 0.02009999 0.108 -0.003490328 0.01979458 0.108 -0.006874561 0.01888775 0.108 -0.01004999 0.01740705 0.108 -0.01292002 0.01539742 0.108 -0.01539748 0.01292002 0.108 -0.01740705 0.01004993 0.108 -0.01888781 0.006874561 0.108 -0.01979458 0.003490328 0.108 -0.02009999 0 0.108 -0.01979458 -0.003490269 0.108 -0.01888781 -0.00687462 0.108 -0.01740705 -0.01004999 0.108 -0.01539748 -0.01291996 0.108 -0.01292002 -0.01539748 0.108 -0.01004999 -0.01740711 0.108 -0.006874561 -0.01888781 0.108 -0.003490328 -0.01979464 0.108 0 -0.02009993 -0.06400001 0 0.02009999 0.108 0 0.02009999 -0.06400001 -0.003490328 0.01979458 -0.06400001 -0.006874561 0.01888775 -0.06400001 -0.01004999 0.01740705 -0.06400001 -0.01292002 0.01539742 -0.06400001 -0.01539748 0.01292002 -0.06400001 -0.01740705 0.01004993 -0.06400001 -0.01888781 0.006874561 -0.06400001 -0.01979458 0.003490328 -0.06400001 -0.02009999 0 -0.06400001 -0.01979458 -0.003490269 -0.06400001 -0.01888781 -0.00687462 -0.06400001 -0.01740705 -0.01004999 -0.06400001 -0.01539748 -0.01291996 -0.06400001 -0.01292002 -0.01539748 -0.06400001 -0.01004999 -0.01740711 -0.06400001 -0.006874561 -0.01888781 -0.06400001 -0.003490328 -0.01979464 -0.06400001 0 -0.02009993 0.108 0 -0.02009993 -0.06400001 0.003490328 -0.01979464 -0.06400001 0.006874561 -0.01888781 -0.06400001 0.01004999 -0.01740711 -0.06400001 0.01292002 -0.01539748 -0.06400001 0.01539748 -0.01291996 -0.06400001 0.01740705 -0.01004999 -0.06400001 0.01888781 -0.00687462 -0.06400001 0.01979458 -0.003490269 -0.06400001 0.02009999 0 -0.06400001 0.01979458 0.003490328 -0.06400001 0.01888781 0.006874561 -0.06400001 0.01740705 0.01004993 -0.06400001 0.01539748 0.01292002 -0.06400001 0.01292002 0.01539742 -0.06400001 0.01004999 0.01740705 -0.06400001 0.006874561 0.01888775 -0.06400001 0.003490328 0.01979458 -0.06400001 0 -0.02009993 0.1299999 -0.02960032 0.01077365 0.1299999 -0.02727979 0.01574993 0.1299999 0.02024775 -0.0241304 0.1299999 0.01574999 -0.02727979 0.1299999 0.0241304 -0.02024775 0.1299999 0.02727979 -0.01574999 0.1299999 0.02960032 -0.01077359 0.1299999 0.03102141 -0.005469858 0.1299999 0.03149998 0 0.1299999 0.03102141 0.005469918 0.1299999 0.02960032 0.01077365 0.1299999 0.02727979 0.01574993 0.1299999 0.0241304 0.02024781 0.1299999 0.02024775 0.02413034 0.1299999 0.01574999 0.02727973 0.1299999 0.01077359 0.02960026 0.1299999 0.005469858 0.03102135 0.1299999 0 0.03149998 0.1299999 -0.005469918 0.03102135 0.1299999 -0.01077359 0.02960026 0.1299999 -0.01574999 0.02727973 0.1299999 -0.02024775 0.02413034 0.1299999 -0.0241304 0.02024781 0.1299999 -0.03102141 0.005469918 0.1299999 -0.03149998 0 0.1299999 -0.03102141 -0.005469858 0.1299999 -0.02960032 -0.01077359 0.1299999 -0.02727979 -0.01574999 0.1299999 -0.0241304 -0.02024775 0.1299999 -0.02024775 -0.0241304 0.1299999 -0.01574999 -0.02727979 0.1299999 -0.01077359 -0.02960032 0.1299999 -0.005469918 -0.03102141 0.1399999 0 -0.03149992 0.1299999 0 -0.03149992 0.1299999 0.005469858 -0.03102141 0.1299999 0.01077359 -0.02960032 0.1299999 -0.001236021 0.04619574 0.1299999 -0.003236055 0.04764878 0.1299999 -0.003999948 0.04999995 0.1299999 -0.003236055 0.05235111 0.1299999 -0.001236021 0.05380415 0.1299999 0.001236021 0.05380415 0.1299999 0.003236055 0.05235111 0.1299999 0.003999948 0.04999995 0.1299999 0.003236055 0.04764878 0.1299999 0.001236021 0.04619574 0.1299999 0.02654504 0.03854596 0.1299999 0.0234549 0.03854596 0.1299999 0.0209549 0.04036235 0.1299999 0.01999998 0.04330122 0.1299999 0.0209549 0.04624021 0.1299999 0.0234549 0.04805648 0.1299999 0.02654504 0.04805648 0.1299999 0.02904504 0.04624021 0.1299999 0.02999997 0.04330122 0.1299999 0.02904504 0.04036235 0.1299999 -0.02010923 0.04226171 0.1299999 -0.0216543 0.03958547 0.1299999 -0.02447736 0.03832864 0.1299999 -0.02749997 0.03897106 0.1299999 -0.02956771 0.04126751 0.1299999 -0.02989071 0.04434084 0.1299999 -0.02834564 0.04701697 0.1299999 -0.02552258 0.0482738 0.1299999 -0.02249997 0.04763138 0.1299999 -0.02043223 0.04533493 0.1299999 -0.04665434 0.003715753 0.1299999 -0.04510921 0.001039505 0.1299999 -0.04543226 -0.00203365 0.1299999 -0.04749995 -0.004330098 0.1299999 -0.05052262 -0.004972636 0.1299999 -0.05334562 -0.003715693 0.1299999 -0.05489069 -0.001039564 0.1299999 -0.05456769 0.00203371 0.1299999 -0.05249994 0.004330039 0.1299999 -0.04947733 0.004972577 0.1299999 -0.02654504 -0.0385459 0.1299999 -0.0234549 -0.0385459 0.1299999 -0.0209549 -0.04036229 0.1299999 -0.01999998 -0.04330128 0.1299999 -0.0209549 -0.04624015 0.1299999 -0.0234549 -0.04805654 0.1299999 -0.02654504 -0.04805654 0.1299999 -0.02904504 -0.04624015 0.1299999 -0.02999997 -0.04330128 0.1299999 -0.02904504 -0.04036229 0.1299999 0.02010923 -0.04226166 0.1299999 0.0216543 -0.03958553 0.1299999 0.02447736 -0.03832858 0.1299999 0.02749997 -0.03897112 0.1299999 0.02956771 -0.04126757 0.1299999 0.02989071 -0.04434078 0.1299999 0.02834564 -0.04701691 0.1299999 0.02552258 -0.04827386 0.1299999 0.02249997 -0.04763132 0.1299999 0.02043223 -0.04533487 0.1299999 0.04665434 -0.003715693 0.1299999 0.04510921 -0.001039564 0.1299999 0.04543226 0.00203371 0.1299999 0.04749995 0.004330039 0.1299999 0.05052262 0.004972577 0.1299999 0.05334562 0.003715753 0.1299999 0.05489069 0.001039505 0.1299999 0.05456769 -0.00203365 0.1299999 0.05249994 -0.004330098 0.1299999 0.04947733 -0.004972636</float_array>
          <technique_common>
            <accessor source="#Link6_001-mesh-positions-array" count="560" stride="3">
              <param name="X" type="float"/>
              <param name="Y" type="float"/>
              <param name="Z" type="float"/>
            </accessor>
          </technique_common>
        </source>
        <source id="Link6_001-mesh-normals">
          <float_array id="Link6_001-mesh-normals-array" count="2316">1 0 0 1 2.01783e-5 0 1 6.52858e-7 0 1 1.36732e-5 0 1 2.4541e-6 0 1 -1.60641e-6 0 1 -1.12711e-6 0 1 1.35023e-6 0 1 2.61704e-7 0 1 1.07727e-6 0 1 6.5247e-6 0 1 -3.71535e-6 0 1 -4.4562e-7 0 1 3.30117e-6 0 1 -7.12332e-6 0 1 6.92765e-6 0 1 2.47836e-6 0 1 1.56884e-6 0 1 9.23525e-7 0 1 -1.26929e-5 0 1 4.73235e-6 0 1 -1.91517e-6 0 1 1.91517e-6 0 1 2.67678e-7 0 1 6.7748e-6 0 1 2.48653e-5 0 1 -1.40545e-6 0 1 -2.59867e-5 0 1 5.41707e-6 0 1 -1.76856e-6 0 1 5.6528e-7 0 1 6.9002e-6 0 1 -4.80766e-6 0 1 3.01552e-5 0 1 -4.36187e-6 0 1 1.83432e-5 0 1 -2.20364e-6 0 1 9.59947e-5 0 1 1.78781e-6 0 1 -1.78781e-6 0 1 1.94501e-6 0 1 -5.27437e-6 0 1 8.06402e-6 0 1 1.4246e-5 0 1 -3.77113e-6 0 1 -9.01932e-5 0 1 3.8095e-6 0 1 -1.01063e-5 0 1 1.72307e-5 0 1 -1.34923e-6 0 1 4.2593e-6 0 1 -2.56426e-6 0 1 1.11275e-4 0 1 -2.41719e-6 0 1 4.35288e-7 0 1 -2.35811e-6 0 1 -1.90834e-6 0 1 4.7896e-6 0 1 -1.3323e-6 0 1 1.3323e-6 0 1 -3.5922e-6 0 1 -3.02764e-6 0 1 3.29946e-6 0 1 -1.51337e-5 0 1 1.22322e-5 0 1 -7.71128e-5 0 1 -2.57506e-6 0 1 1.72693e-5 0 1 2.17791e-6 0 1 1.60916e-6 0 1 4.03267e-6 0 1 -4.31115e-7 0 1 4.31115e-7 0 1 1.32628e-6 0 1 8.42293e-6 0 1 -2.80227e-6 0 1 2.80227e-6 0 1 6.06763e-6 0 1 -1.23174e-5 0 1 -7.35916e-6 0 1 9.0272e-6 0 1 -9.0364e-6 0 1 1.02862e-5 0 1 -8.54143e-6 0 1 2.17766e-6 0 1 -3.41488e-6 0 1 1.8681e-6 0 1 -1.09556e-6 0 1 -1.94768e-6 0 1 -3.71436e-5 0 1 3.11294e-5 0 1 7.86671e-6 0 1 3.81559e-6 0 1 4.05613e-6 0 1 -2.04757e-5 0 1 7.09119e-6 0 1 -2.03552e-5 0 1 -1.36731e-5 0 1 4.48315e-5 0 1 -2.2247e-6 0 1 -3.25421e-6 0 1 3.21629e-4 0 1 -3.0851e-6 0 0 -0.3090183 0.9510561 0 -0.1873894 0.9822857 1.23603e-6 -0.1873913 0.9822854 6.18019e-6 -0.4257732 0.90483 0 -0.425775 0.9048292 0 -0.3090194 0.9510558 0 -0.5357623 0.8443689 1.40759e-5 -0.5358359 0.8443222 -3.09009e-6 -0.5358253 0.8443289 0 -0.535806 0.8443412 0 -0.4256182 0.9049029 0 -0.6374333 0.7705056 2.47205e-6 -0.6374288 0.7705094 0 -0.6374281 0.7705098 0 -0.728963 0.6845532 0 -0.7289636 0.6845526 0 -0.8090382 0.5877562 8.03416e-6 -0.8090204 0.5877806 0 -0.8090167 0.5877856 0 -0.8763047 0.4817575 0 -0.9297783 0.3681199 3.70811e-6 -0.9297759 0.3681261 0 -0.9297728 0.3681339 0 -0.9685842 0.2486857 1.69955e-6 -0.9685833 0.2486894 0 -0.9685825 0.2486931 0 -0.9921148 0.1253325 0 -0.9921149 0.1253319 0 -1 0 0 -0.9921148 -0.1253332 0 -0.9921145 -0.125335 0 -0.9685831 -0.2486906 0 -0.9297813 -0.3681126 -3.3991e-6 -0.9297759 -0.3681261 0 -0.9297752 -0.3681279 0 -0.8763081 -0.4817512 0 -0.8763076 -0.4817522 0 -0.8090175 -0.5877846 6.18019e-7 -0.8090162 -0.5877865 0 -0.8090155 -0.5877874 0 -0.7289705 -0.6845452 0 -0.7289699 -0.6845457 0 -0.6374123 -0.770523 6.1802e-6 -0.6374206 -0.7705161 4.21194e-6 -0.6374211 -0.7705157 -3.7081e-6 -0.535826 -0.8443285 0 -0.5358257 -0.8443287 0 -0.6374333 -0.7705056 0 -0.3090183 -0.9510561 0 -0.425775 -0.9048292 -1.1665e-5 -0.425785 -0.9048244 0 -0.4261554 -0.9046499 0 -0.535806 -0.8443412 -1.48661e-5 -0.1873666 -0.9822901 0 -0.1873894 -0.9822857 0 -0.3090194 -0.9510558 0 -0.1873767 -0.9822881 0 -0.06278806 -0.998027 0 0.06278806 -0.998027 -7.41621e-6 0.187377 -0.9822881 0 0.187366 -0.9822903 0 0.4257842 -0.9048248 0 0.3090099 -0.9510589 4.94413e-6 0.3090187 -0.951056 0 0.3090239 -0.9510543 0 0.1873894 -0.9822857 0 0.6374278 -0.7705102 0 0.5358257 -0.8443287 -3.24459e-6 0.5358253 -0.8443289 0 0.535806 -0.8443412 0 0.4257851 -0.9048244 1.18709e-5 0.6374143 -0.7705214 0 0.6374203 -0.7705163 0 0.7289711 -0.6845445 0 0.992115 0.1253314 0 1 0 0 0.9921147 -0.1253338 0 0.9921146 -0.1253344 0 0.9685831 -0.2486906 0 0.9297763 -0.368125 0 0.8763076 -0.4817522 0 0.8763081 -0.4817512 0 0.8090175 -0.5877846 6.18019e-7 0.8090162 -0.5877865 0 0.8090155 -0.5877874 0 0.7289693 -0.6845464 0 0.8763047 0.4817575 0 0.9297763 0.368125 0 0.9685842 0.2486857 1.69955e-6 0.9685835 0.2486888 0 0.9685825 0.2486931 0 0.9921148 0.1253331 0 0.6374291 0.7705091 0 0.7289642 0.6845519 0 0.7289624 0.6845538 0 0.8090382 0.5877562 9.27019e-6 0.8090204 0.5877806 0 0.8090167 0.5877856 1.18968e-5 0.5358244 0.8443294 0 0.5357623 0.8443689 0 0.6374288 0.7705094 0 0.4257718 0.9048306 0 0.535806 0.8443412 -4.69196e-6 0.5358371 0.8443215 -1.35964e-5 0.3090187 0.951056 0 0.3090452 0.9510474 0 0.4257721 0.9048305 2.28709e-6 0.1873925 0.9822851 0 0.1873894 0.9822857 0 0.3090017 0.9510616 0 0.1873916 0.9822854 0 0.06278806 0.998027 0 -0.06278806 0.998027 0 -0.187393 0.982285 -0.7064056 0.1326267 -0.6952708 -0.7064069 0.1326317 -0.6952685 -0.7064068 0.2187256 -0.6731631 -0.7064084 0.2187309 -0.6731598 -0.7064083 0.3013728 -0.6404389 -0.7064065 0.3013694 -0.6404424 -0.7064068 0.3792602 -0.5976212 -0.7064056 0.3792552 -0.5976259 -0.7064056 0.4511707 -0.5453771 -0.7064085 0.4511761 -0.545369 -0.7064074 0.5159693 -0.4845248 -0.7064056 0.5159648 -0.4845323 -0.7064064 0.572627 -0.4160391 -0.7064071 0.572629 -0.4160351 -0.7064071 0.620256 -0.3409863 -0.7064069 0.620256 -0.3409867 -0.7064071 0.6581014 -0.2605602 -0.7064064 0.6581009 -0.2605636 -0.7064062 0.6855697 -0.1760244 -0.7064069 0.6855691 -0.1760239 -0.7064069 0.7022246 -0.08871269 -0.706407 0.7022248 -0.08871072 -0.7064065 0.7078064 0 -0.7064067 0.7078063 0 -0.7064074 0.7022243 0.08871144 -0.7064067 0.7022249 0.08871239 -0.7064072 0.6855689 0.1760234 -0.7064065 0.6855702 0.1760215 -0.7064066 0.6581014 0.2605612 -0.7064073 0.6581004 0.2605624 -0.7064071 0.620253 0.3409917 -0.7064051 0.6202581 0.3409864 -0.7064058 0.5726307 0.4160349 -0.706408 0.572624 0.4160404 -0.706407 0.5159657 0.4845291 -0.7064054 0.5159707 0.4845262 -0.7064054 0.4511781 0.5453712 -0.7064081 0.4511681 0.5453761 -0.7064079 0.3792609 0.5976195 -0.7064071 0.3792639 0.5976186 -0.7064065 0.301365 0.6404444 -0.7064055 0.3013699 0.6404433 -0.7064057 0.2187247 0.6731646 -0.706407 0.2187188 0.6731652 -0.7064071 0.1326366 0.6952672 -0.706408 0.1326333 0.6952669 -0.7064083 0.04444217 0.706408 -0.7064082 0.04444175 0.7064081 -0.7064083 -0.04444211 0.706408 -0.7064083 -0.04444175 0.7064081 -0.7064078 -0.1326379 0.6952663 -0.7064073 -0.1326315 0.6952681 -0.7064069 -0.2187257 0.673163 -0.7064052 -0.2187194 0.6731669 -0.7064059 -0.301364 0.6404455 -0.7064067 -0.3013693 0.6404423 -0.7064068 -0.3792602 0.5976212 -0.7064087 -0.3792632 0.5976171 -0.7064076 -0.4511761 0.5453701 -0.7064055 -0.4511699 0.5453779 -0.7064056 -0.5159657 0.4845312 -0.7064076 -0.5159701 0.4845237 -0.7064074 -0.5726299 0.4160331 -0.7064057 -0.5726251 0.4160428 -0.7064057 -0.6202547 0.3409913 -0.7064069 -0.620256 0.3409867 -0.7064071 -0.6581014 0.2605602 -0.7064064 -0.6581009 0.2605636 -0.7064064 -0.6855695 0.1760243 -0.7064079 -0.685569 0.1760204 -0.7064073 -0.7022244 0.08871132 -0.7064068 -0.7022247 0.08871251 -0.7064065 -0.7078065 0 -0.7064067 -0.7078062 0 -0.7064069 -0.7022247 -0.08871263 -0.706407 -0.7022248 -0.08871084 -0.7064062 -0.6855698 -0.1760237 -0.7064063 -0.6855695 -0.1760247 -0.7064068 -0.6581013 -0.2605612 -0.7064071 -0.6581005 -0.2605624 -0.7064068 -0.6202561 -0.3409868 -0.706407 -0.6202563 -0.340986 -0.7064073 -0.5726258 -0.416039 -0.706406 -0.5726302 -0.4160351 -0.7064058 -0.5159708 -0.4845255 -0.7064081 -0.5159621 -0.4845317 -0.7064079 -0.4511694 -0.5453752 -0.7064055 -0.4511777 -0.5453715 -0.7064061 -0.3792597 -0.5976224 -0.7064073 -0.3792541 -0.5976245 -0.7064073 -0.301372 -0.6404403 -0.7064082 -0.3013687 -0.6404408 -0.7064085 -0.2187238 -0.6731619 -0.7064067 -0.2187314 -0.6731614 -0.7064068 -0.1326251 -0.6952698 -0.7064052 -0.1326338 -0.6952698 -0.7064053 -0.04444235 -0.706411 -0.7064051 -0.04444193 -0.7064113 -0.7064053 0.04444235 -0.706411 -0.7064051 0.04444193 -0.7064113 -1 2.51892e-6 0 -1 0 0 -1 -2.33555e-6 0 -1 2.33555e-6 0 -1 1.17226e-6 0 -1 -2.33744e-6 0 -1 1.17028e-6 0 -1 -2.53485e-6 0 -1 1.74433e-6 0 -1 -2.92728e-6 0 -1 -1.1703e-6 0 -1 -1.74433e-6 0 -1 2.92725e-7 0 -1 1.26307e-6 0 -1 1.1667e-6 0 -1 -1.27587e-6 0 -1 1.17224e-6 0 -1 -1.17142e-6 0 -1 -1.25927e-6 0 -1 -1.26307e-6 0 -1 -1.16672e-6 0 -1 1.27587e-6 0 -1 1.15629e-6 0 -1 -1.17226e-6 0 -1 -2.92725e-7 0 -1 -5.03784e-6 0 -1 2.92727e-6 0 -1 5.82135e-7 0 -1 -1.17028e-6 0 -1 1.17142e-6 0 -1 2.32855e-6 0 -1 1.1703e-6 0 -1 -1.17224e-6 0 -1 1.16873e-6 0 -1 -2.54254e-6 0 -1 -1.15979e-6 0 -1 2.31962e-6 0 -1 2.51855e-6 0 -1 -1.17142e-6 0 -1 2.52869e-6 0 -1 -2.33106e-6 0 -1 1.16957e-6 0 -1 -1.16957e-6 0 -1 3.17316e-7 0 -1 1.17142e-6 0 -0.7057582 0.183372 -0.68431 -0.7057572 0.1833603 -0.6843142 -0.7057569 0.2993991 -0.6420807 -0.7057587 0.2994032 -0.6420767 -0.7057583 0.406359 -0.5803254 -0.7057572 0.4063534 -0.5803307 -0.7057571 0.5009536 -0.5009515 -0.7057583 0.5009584 -0.5009452 -0.7057585 0.5803299 -0.4063524 -0.7057572 0.5803269 -0.4063588 -0.7057573 0.6420775 -0.2994047 -0.7057573 0.6420766 -0.2994067 -0.705758 0.6843128 -0.1833621 -0.7057586 0.6843135 -0.1833572 -0.7057586 0.7057566 -0.06174552 -0.7057589 0.7057563 -0.06174546 -0.7057586 0.7057566 0.06174552 -0.705759 0.7057563 0.06174546 -0.7057584 0.6843125 0.1833619 -0.7057588 0.6843117 0.1833633 -0.705759 0.6420759 0.2994043 -0.7057594 0.6420748 0.2994058 -0.7057591 0.5803296 0.4063517 -0.705759 0.5803329 0.4063472 -0.7057582 0.5009528 0.5009509 -0.7057613 0.5009428 0.5009565 -0.7057591 0.4063494 0.5803313 -0.7057594 0.4063518 0.5803292 -0.7057588 0.2994083 0.6420741 -0.7057603 0.2994026 0.6420753 -0.7057601 0.1833555 0.6843125 -0.7057583 0.1833636 0.6843121 -0.7057587 0.06174737 0.7057564 -0.7057572 0.06175327 0.7057573 -0.7057574 -0.06174749 0.7057576 -0.7057594 -0.06175309 0.7057552 -0.705759 -0.1833558 0.6843135 -0.7057601 -0.1833633 0.6843104 -0.7057598 -0.2994078 0.6420733 -0.7057585 -0.2994034 0.6420767 -0.7057592 -0.4063478 0.5803322 -0.7057595 -0.4063541 0.5803275 -0.7057597 -0.5009509 0.5009506 -0.705758 -0.5009473 0.5009566 -0.7057588 -0.5803294 0.4063524 -0.7057597 -0.5803329 0.4063459 -0.7057594 -0.6420754 0.2994041 -0.7057587 -0.6420753 0.2994061 -0.7057586 -0.6843122 0.1833619 -0.7057586 -0.6843119 0.1833633 -0.7057586 -0.7057566 0.06174552 -0.7057589 -0.7057563 0.06174546 -0.7057586 -0.7057566 -0.06174552 -0.7057589 -0.7057563 -0.06174546 -0.7057585 -0.6843125 -0.1833619 -0.7057575 -0.6843146 -0.1833575 -0.7057572 -0.6420775 -0.299405 -0.705757 -0.6420772 -0.2994061 -0.7057572 -0.5803312 -0.4063528 -0.7057586 -0.5803261 -0.4063575 -0.705759 -0.500951 -0.5009516 -0.7057558 -0.5009614 -0.5009456 -0.7057578 -0.4063585 -0.5803264 -0.7057583 -0.4063542 -0.580329 -0.7057583 -0.2993965 -0.6420803 -0.7057569 -0.299404 -0.6420782 -0.7057573 -0.1833699 -0.6843115 -0.7057585 -0.1833637 -0.6843119 -0.7057586 -0.06174737 -0.7057564 -0.7057617 -0.06173181 -0.7057546 -0.705761 0.06174719 -0.7057541 -0.705758 0.06173217 -0.7057584 0 0.08716988 0.9961935 0 -0.08716988 0.9961935 0 -0.258822 0.9659251 0 -0.4226154 0.9063092 0 -0.5735787 0.8191505 0 -0.5735793 0.8191501 0 -0.7070989 0.7071148 0 -0.7070992 0.7071144 0 -0.819157 0.5735695 0 -0.8191573 0.573569 0 -0.906307 0.4226201 0 -0.9063067 0.4226207 0 -0.965925 0.2588226 0 -0.9659251 0.2588219 0 -0.9961948 0.08715528 0 -0.9961947 0.08715605 0 -0.9961947 -0.08715605 0 -0.9961947 -0.08715528 0 -0.9659274 -0.2588133 0 -0.9659273 -0.258814 0 -0.9063067 -0.4226206 0 -0.906307 -0.4226199 0 -0.819146 -0.573585 0 -0.8191457 -0.5735855 0 -0.7071162 -0.7070974 0 -0.7071158 -0.7070978 0 -0.573579 -0.8191503 0 -0.5735784 -0.8191508 0 -0.4226154 -0.9063092 0 -0.258822 -0.9659251 0 -0.08713614 -0.9961965 0 -0.08713614 -0.9961964 0 0.08713614 -0.9961965 0 0.08713614 -0.9961964 0 0.258822 -0.9659251 0 0.258822 -0.965925 0 0.4226152 -0.9063093 0 0.4226154 -0.9063092 0 0.5735788 -0.8191505 0 0.573579 -0.8191503 0 0.7071158 -0.7070978 0 0.819146 -0.573585 0 0.8191457 -0.5735855 0 0.906307 -0.4226199 0 0.9063067 -0.4226206 0 0.9659273 -0.258814 0 0.9659274 -0.2588133 0 0.9961948 -0.08715528 0 0.9961947 -0.08715605 0 0.9961947 0.08715605 0 0.9961947 0.08715528 0 0.9659251 0.2588219 0 0.965925 0.2588226 0 0.9063067 0.4226207 0 0.906307 0.4226201 0 0.819157 0.5735695 0 0.8191573 0.573569 0 0.7070989 0.7071148 0 0.5735793 0.8191501 0 0.5735791 0.8191502 0 0.4226154 0.9063092 0 0.4226152 0.9063093 0 0.258822 0.965925 0 0.258822 0.9659251 -1 -5.2687e-6 0 -1 5.2687e-6 0 -1 3.64245e-6 0 -1 -2.25368e-6 0 -1 -3.64243e-6 0 -1 3.0683e-6 0 -1 2.10613e-6 0 -1 -2.79022e-6 0 -1 -2.10613e-6 0 -1 2.79022e-6 0 -1 3.36997e-6 0 -1 -1.65939e-6 0 -1 -3.36997e-6 0 -1 3.05178e-6 0 -1 -4.54623e-7 0 -1 4.54623e-7 0 -1 -3.81472e-6 0 -1 -1.36524e-5 0 -1 1.83906e-5 0 -1 -4.66857e-6 0 -1 -2.85913e-6 0 -1 9.77876e-7 0 -1 2.85913e-6 0 -1 -1.83906e-5 0 -1 1.36524e-5 0 0 0.9063045 -0.4226253 -6.89061e-6 -0.5735753 0.8191529 0 -0.5733416 0.8193165 0 -0.7071116 0.7071021 0 -0.7071124 0.7071013 0 -0.8191493 0.5735804 0 -0.8191493 0.5735805 0 -0.9063091 0.4226155 0 -0.9063083 0.4226172 0 -0.9659266 0.2588166 -2.77445e-7 -0.9659261 0.2588185 0 -0.9659253 0.2588211 0 -0.9961948 0.08715569 0 -0.9961948 0.08715552 0 -0.9961948 -0.08715569 0 -0.9961948 -0.08715552 0 -0.9659253 -0.2588211 -2.9815e-7 -0.9659261 -0.2588182 0 -0.9659266 -0.2588166 0 -0.9063045 -0.4226253 0 -0.9063049 -0.4226245 0 -0.819157 -0.5735696 0 -0.8191567 -0.5735698 0 -0.8191568 -0.5735697 0 -0.7071018 -0.7071118 0 -0.707101 -0.7071127 0 -0.5736802 -0.8190795 2.91526e-6 -0.5735746 -0.8191534 0 -0.5735707 -0.8191562 0 -0.4226239 -0.9063052 1.72265e-6 -0.4226204 -0.9063068 0 -0.4226071 -0.9063131 0 -0.2588136 -0.9659273 0 -0.08716815 -0.9961937 0 -0.08716815 -0.9961937 0 0.08716815 -0.9961937 0 0.08716815 -0.9961937 0 0.2588136 -0.9659274 0 0.2588137 -0.9659273 0 0.4226071 -0.9063131 1.59014e-6 0.4226206 -0.9063068 0 0.4226239 -0.9063052 0 0.5735749 -0.8191533 0 0.5735753 -0.8191529 0 0.707102 -0.7071115 0 0.7071007 -0.7071129 0 0.8191568 -0.5735697 0 0.8191567 -0.5735698 0 0.819157 -0.5735696 0 0.9063049 -0.4226245 0 0.9659286 -0.2588092 -2.22341e-6 0.965925 -0.258822 -1.32511e-7 0.9659262 -0.2588174 0 0.9659253 -0.2588211 0 0.9961948 -0.08715569 0 0.9961948 -0.08715552 0 0.9961948 0.08715569 0 0.9961948 0.08715552 0 0.9659253 0.2588211 -6.72849e-7 0.9659277 0.2588122 1.4659e-6 0.9659262 0.2588174 0 0.9659225 0.2588316 0 0.9063087 0.4226164 0 0.9063087 0.4226163 0 0.8191486 0.5735814 0 0.81915 0.5735794 0 0.7071114 0.7071023 0 0.7071127 0.707101 0 0.5735746 0.8191534 0 0.5735756 0.8191527 0 0.4226239 0.9063052 1.72265e-6 0.4226204 0.9063068 0 0.4226071 0.9063131 0 0.2588137 0.9659273 0 0.2588136 0.9659274 0 0.08714687 0.9961956 0 0.08714658 0.9961956 0 -0.08714687 0.9961956 0 -0.08714658 0.9961956 0 -0.2588136 0.9659273 0 -0.4226071 0.9063131 1.59014e-6 -0.4226206 0.9063068 0 -0.4226239 0.9063052 0 -0.5735855 0.8191457 1 -1.11185e-5 0 1 2.70259e-6 0 1 -2.19585e-6 0 1 2.22972e-6 0 1 2.65338e-7 0 1 -2.41e-6 0 1 -3.16127e-6 0 1 6.43159e-7 0 1 4.74394e-7 0 1 -4.29044e-6 0 1 1.86388e-6 0 1 7.40422e-7 0 1 1.17347e-6 0 1 -1.59262e-6 0 1 4.44729e-5 0 1 -2.24641e-5 0 1 1.14053e-5 0 1 -6.43159e-7 0 1 1.97579e-6 0 1 -4.6565e-6 0 1 4.29044e-6 0 1 -1.86387e-6 0 1 -1.11064e-6 0 1 7.3024e-6 0 1 -2.34694e-6 0 1 -6.37052e-6 0 0 0.5877739 0.8090254 0 0.5877739 0.8090253 0 0.9510576 0.3090139 0 0.9510543 -0.309024 -1.17726e-6 0.9510577 -0.3090136 0 0.95106 -0.3090063 0 0.5877739 -0.8090253 0 0.5877739 -0.8090254 0 0 -1 0 -0.5877739 -0.8090253 0 -0.5877739 -0.8090253 0 -0.95106 -0.3090063 -1.17726e-6 -0.9510576 -0.3090139 0 -0.9510545 -0.3090234 0 -0.9510576 0.3090139 0 -0.5877739 0.8090253 0 -0.5877739 0.8090253 0 0 1 1 2.43052e-5 0 1 3.2407e-5 0 1 -7.65043e-6 0 1 6.18927e-6 0 1 -1.62035e-5 0 0 0.5877927 0.8090116 0 0.5877921 0.8090121 0 0.9510563 0.309018 -1.64822e-6 0.9510547 0.3090227 0 0.951029 0.3091021 0 0.9510931 -0.3089043 1.88361e-6 0.9510583 -0.3090116 0 0.9510563 -0.309018 0 0.5877674 -0.8090299 0 -0.5877679 -0.8090297 0 -0.587767 -0.8090303 0 -0.9510588 -0.3090099 0 -0.9510585 -0.309011 0 -0.9510547 0.3090227 0 -0.9510553 0.3090209 0 -0.5877922 0.8090119 0 -0.5877925 0.8090118 0 -0.8660322 0.4999883 0 -0.8660321 0.4999884 0 -0.406737 0.9135453 5.18006e-6 -0.4067201 0.9135529 0 -0.4065372 0.9136343 0 0.2077949 0.9781724 5.18003e-6 0.207892 0.9781518 0 0.2079117 0.9781476 0 0.7431455 0.6691299 0 0.7431456 0.6691298 0 0.9945222 0.1045258 0 0.9945222 0.1045256 0 0.8660219 -0.5000061 0 0.8660227 -0.5000047 0 0.4067193 -0.9135532 0 0.4067201 -0.9135529 0 -0.2078922 -0.9781518 0 -0.2078918 -0.9781519 0 -0.7431455 -0.6691299 0 -0.7431456 -0.6691298 0 -0.9945219 -0.1045288 0 -0.9945217 -0.1045297 1 3.96103e-6 0 1 -9.90295e-7 0 1 -1.98064e-6 0 1 1.98064e-6 0 0 -0.8660327 -0.4999876 0 -0.8660313 -0.4999898 0 -0.9945217 0.1045297 0 -0.7431464 0.6691288 0 -0.7431447 0.6691309 0 -0.2079285 0.9781441 0 -0.207929 0.978144 0 0.4067522 0.9135385 0 0.4067516 0.9135388 0 0.8660236 0.5000033 0 0.8660219 0.5000061 0 0.994522 -0.1045277 0 0.9945225 -0.1045238 0 0.7431287 -0.6691485 0 0.743126 -0.6691516 0 0.2079293 -0.9781439 0 0.207929 -0.978144 0 -0.4067193 -0.9135532 0 -0.4067201 -0.9135529 1 2.59245e-6 0 1 -2.59262e-6 0 1 1.03705e-5 0 0 -0.5877927 -0.8090116 0 -0.5877921 -0.8090121 0 -0.9510583 -0.3090116 0 -0.5877927 0.8090116 0 -0.5877921 0.8090121 0 0.5877931 0.8090113 0 0.5877917 0.8090124 0 0.951056 0.3090189 -1.1773e-6 0.9510553 0.3090209 0 0.9510338 0.3090872 0 0.951098 -0.3088894 2.11906e-6 0.9510588 -0.3090099 0 0.951056 -0.3090189 0 0.5877922 -0.8090119 0 0.5877925 -0.8090118 0 0.8660223 -0.5000054 0 0.4067515 -0.9135388 0 0.4067524 -0.9135385 0 -0.2079285 -0.9781441 0 -0.2079294 -0.9781439 0 -0.8660219 0.5000061 0 -0.8660227 0.5000047 0 -0.4067374 0.9135451 -4.70906e-6 -0.4067516 0.9135388 0 -0.4069135 0.9134668 0 0.2080107 0.9781265 -4.70909e-6 0.2079294 0.9781439 0 0.2079115 0.9781477 0 0.743146 0.6691294 0 0.9945219 0.1045288 0 0.9945217 0.1045297 0 0.8660227 0.5000047 0 0.9945222 -0.1045258 0 0.9945222 -0.1045256 0 0.7431269 -0.6691505 0 0.2079285 -0.9781441 0 -0.4067201 -0.9135529 0 -0.4067194 -0.9135531 0 -0.8660334 -0.4999862 0 -0.9945216 0.1045316 0 -0.994522 0.1045279 0 -0.7431437 0.6691319 0 -0.2079293 0.9781439 0 0.4067515 0.9135388 0 0.4067524 0.9135385 1 2.47571e-6 0 1 1.03713e-5 0 1 4.89625e-6 0 1 -7.92225e-6 0 1 1.77147e-6 0 1 1.03702e-5 0</float_array>
          <technique_common>
            <accessor source="#Link6_001-mesh-normals-array" count="772" stride="3">
              <param name="X" type="float"/>
              <param name="Y" type="float"/>
              <param name="Z" type="float"/>
            </accessor>
          </technique_common>
        </source>
        <vertices id="Link6_001-mesh-vertices">
          <input semantic="POSITION" source="#Link6_001-mesh-positions"/>
        </vertices>
        <triangles material="Material_001-material" count="1100">
          <input semantic="VERTEX" source="#Link6_001-mesh-vertices" offset="0"/>
          <input semantic="NORMAL" source="#Link6_001-mesh-normals" offset="1"/>
          <p>0 0 1 0 2 0 3 0 4 0 5 0 6 0 7 0 8 0 9 0 10 0 2 0 11 1 12 1 13 1 14 0 15 0 16 0 17 0 18 0 19 0 20 0 21 0 22 0 23 0 24 0 25 0 26 0 27 0 28 0 28 2 27 2 29 2 28 0 29 0 30 0 30 0 29 0 31 0 32 3 33 3 34 3 34 0 35 0 31 0 31 4 35 4 36 4 31 5 36 5 30 5 37 0 38 0 39 0 39 6 38 6 40 6 39 7 40 7 32 7 32 0 40 0 41 0 32 0 41 0 33 0 42 0 43 0 44 0 44 0 45 0 42 0 42 0 45 0 46 0 42 8 46 8 39 8 39 0 46 0 47 0 39 0 47 0 37 0 48 0 49 0 50 0 50 0 49 0 51 0 50 9 51 9 52 9 53 10 54 10 55 10 55 11 54 11 56 11 55 0 56 0 57 0 57 0 56 0 58 0 57 12 58 12 59 12 59 13 58 13 60 13 59 14 60 14 61 14 61 0 60 0 43 0 61 0 43 0 62 0 62 0 43 0 42 0 62 15 42 15 63 15 49 0 64 0 51 0 51 0 64 0 65 0 51 0 65 0 53 0 53 16 65 16 66 16 53 0 66 0 54 0 67 17 68 17 69 17 69 0 68 0 70 0 69 0 70 0 50 0 50 0 70 0 71 0 50 18 71 18 48 18 67 0 69 0 72 0 72 0 69 0 73 0 72 0 73 0 74 0 73 0 75 0 74 0 74 19 75 19 76 19 74 0 76 0 77 0 77 0 76 0 78 0 77 20 78 20 79 20 79 0 78 0 80 0 79 0 80 0 81 0 24 0 82 0 25 0 25 21 82 21 83 21 25 0 83 0 80 0 80 22 83 22 84 22 80 23 84 23 81 23 23 0 25 0 85 0 85 0 25 0 86 0 85 0 86 0 87 0 88 0 89 0 90 0 90 0 89 0 91 0 90 0 91 0 86 0 86 24 91 24 92 24 86 25 92 25 87 25 93 0 94 0 95 0 95 0 94 0 22 0 95 26 22 26 96 26 96 0 22 0 21 0 97 0 98 0 99 0 100 27 101 27 102 27 102 28 101 28 103 28 102 0 103 0 104 0 104 29 103 29 105 29 104 30 105 30 106 30 107 0 108 0 22 0 22 31 108 31 109 31 22 0 109 0 20 0 20 32 109 32 97 32 20 0 97 0 110 0 110 0 97 0 99 0 111 0 112 0 102 0 102 0 112 0 99 0 102 0 99 0 100 0 100 0 99 0 98 0 113 33 114 33 115 33 112 0 116 0 99 0 99 34 116 34 113 34 99 0 113 0 117 0 117 0 113 0 115 0 104 0 19 0 118 0 118 0 119 0 104 0 104 0 119 0 120 0 104 0 120 0 102 0 102 35 120 35 121 35 102 0 121 0 111 0 18 0 122 0 19 0 19 0 122 0 123 0 19 0 123 0 118 0 124 0 125 0 126 0 126 0 125 0 127 0 126 0 127 0 128 0 128 36 127 36 129 36 128 37 129 37 130 37 131 0 132 0 133 0 133 38 132 38 134 38 133 0 134 0 16 0 16 39 134 39 135 39 16 40 135 40 14 40 136 0 137 0 133 0 133 41 137 41 138 41 133 42 138 42 131 42 139 0 140 0 52 0 52 0 140 0 141 0 52 0 141 0 50 0 50 43 141 43 142 43 50 44 142 44 143 44 143 0 144 0 50 0 50 0 144 0 145 0 50 0 145 0 136 0 136 45 145 45 146 45 136 46 146 46 137 46 147 47 148 47 42 47 42 48 148 48 149 48 42 49 149 49 63 49 63 50 149 50 150 50 63 51 150 51 139 51 139 0 150 0 151 0 139 0 151 0 140 0 152 52 153 52 39 52 39 53 153 53 154 53 39 54 154 54 42 54 42 0 154 0 155 0 42 0 155 0 147 0 13 0 12 0 156 0 156 55 12 55 157 55 156 56 157 56 152 56 158 57 159 57 5 57 5 58 159 58 160 58 5 0 160 0 13 0 13 59 160 59 161 59 13 60 161 60 11 60 162 0 163 0 4 0 4 61 163 61 164 61 4 0 164 0 5 0 5 62 164 62 165 62 5 63 165 63 158 63 9 64 2 64 166 64 166 65 2 65 167 65 167 0 2 0 1 0 167 0 1 0 168 0 169 0 170 0 22 0 104 0 171 0 172 0 106 0 107 0 104 0 104 0 107 0 22 0 104 66 22 66 171 66 171 67 22 67 170 67 8 0 7 0 173 0 174 0 175 0 8 0 174 68 8 68 15 68 175 0 176 0 8 0 8 69 176 69 177 69 8 70 177 70 6 70 126 0 5 0 178 0 28 0 179 0 26 0 26 71 179 71 180 71 26 0 180 0 181 0 181 72 180 72 182 72 181 0 182 0 183 0 183 73 182 73 124 73 183 0 124 0 184 0 184 0 124 0 126 0 184 0 126 0 185 0 185 0 126 0 178 0 27 0 186 0 29 0 29 0 186 0 187 0 29 0 187 0 13 0 187 74 188 74 13 74 13 75 188 75 189 75 13 0 189 0 5 0 5 0 189 0 190 0 5 76 190 76 178 76 34 0 31 0 32 0 32 0 31 0 191 0 32 0 191 0 192 0 152 0 39 0 156 0 156 0 39 0 193 0 156 0 193 0 194 0 192 0 195 0 32 0 32 77 195 77 196 77 32 78 196 78 39 78 39 0 196 0 197 0 39 79 197 79 193 79 194 80 198 80 156 80 156 0 198 0 199 0 156 0 199 0 13 0 13 81 199 81 200 81 13 0 200 0 29 0 29 82 200 82 201 82 29 0 201 0 31 0 31 83 201 83 202 83 31 0 202 0 191 0 203 0 204 0 128 0 128 84 204 84 205 84 128 0 205 0 126 0 206 0 207 0 208 0 208 0 207 0 209 0 205 85 210 85 126 85 126 86 210 86 211 86 126 87 211 87 5 87 5 0 211 0 212 0 5 0 212 0 3 0 8 0 213 0 214 0 15 0 8 0 16 0 16 0 8 0 214 0 16 88 214 88 215 88 216 0 86 0 217 0 217 0 86 0 25 0 217 0 25 0 218 0 218 0 25 0 219 0 216 0 220 0 86 0 86 0 220 0 221 0 86 0 221 0 90 0 90 89 221 89 222 89 90 0 222 0 173 0 173 90 222 90 223 90 173 0 223 0 8 0 8 91 223 91 224 91 8 92 224 92 213 92 225 93 50 93 226 93 226 0 50 0 136 0 226 0 136 0 227 0 227 0 136 0 228 0 225 0 229 0 50 0 50 94 229 94 230 94 50 0 230 0 69 0 69 95 230 95 231 95 69 0 231 0 73 0 76 0 232 0 78 0 78 0 232 0 233 0 78 0 233 0 228 0 172 0 168 0 104 0 104 0 168 0 1 0 104 0 1 0 19 0 19 0 1 0 0 0 19 0 0 0 17 0 17 0 0 0 234 0 93 0 88 0 94 0 94 0 88 0 90 0 94 0 90 0 22 0 22 0 90 0 173 0 22 0 173 0 169 0 169 96 173 96 7 96 209 0 203 0 208 0 208 0 203 0 128 0 208 0 128 0 235 0 235 0 128 0 130 0 235 97 130 97 236 97 236 0 234 0 235 0 235 0 234 0 0 0 235 0 0 0 208 0 208 0 0 0 2 0 208 0 2 0 206 0 206 0 2 0 10 0 206 98 10 98 162 98 162 99 10 99 237 99 162 100 237 100 163 100 228 101 136 101 78 101 78 0 136 0 133 0 78 0 133 0 80 0 80 0 133 0 16 0 80 0 16 0 25 0 25 0 16 0 215 0 25 102 215 102 219 102 238 103 125 103 239 103 239 104 125 104 124 104 239 105 124 105 240 105 241 106 129 106 238 106 238 107 129 107 127 107 238 108 127 108 125 108 17 109 234 109 242 109 242 110 234 110 236 110 242 111 236 111 241 111 241 112 236 112 130 112 241 113 130 113 129 113 17 114 242 114 18 114 18 115 242 115 243 115 18 116 243 116 122 116 122 117 243 117 244 117 122 118 244 118 123 118 123 119 244 119 118 119 118 120 244 120 245 120 118 121 245 121 119 121 119 122 245 122 246 122 119 122 246 122 120 122 120 123 246 123 121 123 121 124 246 124 247 124 121 125 247 125 111 125 111 126 247 126 112 126 112 127 247 127 248 127 112 128 248 128 116 128 116 129 248 129 249 129 116 130 249 130 113 130 113 131 249 131 250 131 113 131 250 131 114 131 114 132 250 132 251 132 114 133 251 133 115 133 115 134 251 134 252 134 115 134 252 134 117 134 117 135 252 135 99 135 99 136 252 136 253 136 99 137 253 137 110 137 110 138 253 138 254 138 110 139 254 139 20 139 20 140 254 140 21 140 21 141 254 141 255 141 21 142 255 142 96 142 96 143 255 143 256 143 96 144 256 144 95 144 95 145 256 145 93 145 93 146 256 146 257 146 93 147 257 147 88 147 258 148 91 148 257 148 257 149 91 149 89 149 257 150 89 150 88 150 259 151 85 151 260 151 260 152 85 152 87 152 260 153 87 153 258 153 258 154 87 154 92 154 258 155 92 155 91 155 82 156 24 156 259 156 259 157 24 157 23 157 259 158 23 158 85 158 259 159 261 159 82 159 82 160 261 160 262 160 82 160 262 160 83 160 83 161 262 161 263 161 264 162 81 162 263 162 263 163 81 163 84 163 263 161 84 161 83 161 265 164 74 164 266 164 266 165 74 165 77 165 266 166 77 166 264 166 264 167 77 167 79 167 264 168 79 168 81 168 70 169 68 169 267 169 267 170 68 170 67 170 267 171 67 171 265 171 265 172 67 172 72 172 265 173 72 173 74 173 70 174 267 174 71 174 71 175 267 175 268 175 71 176 268 176 269 176 270 177 58 177 271 177 271 178 58 178 56 178 271 178 56 178 272 178 272 179 56 179 54 179 272 180 54 180 273 180 273 181 54 181 66 181 273 181 66 181 274 181 274 182 66 182 65 182 274 182 65 182 275 182 275 183 65 183 64 183 275 184 64 184 276 184 276 185 64 185 49 185 276 186 49 186 269 186 269 187 49 187 48 187 269 188 48 188 71 188 277 189 45 189 278 189 278 190 45 190 44 190 278 190 44 190 279 190 279 191 44 191 43 191 279 192 43 192 270 192 270 193 43 193 60 193 270 194 60 194 58 194 280 195 38 195 281 195 281 196 38 196 37 196 281 197 37 197 282 197 282 198 37 198 47 198 282 199 47 199 277 199 277 200 47 200 46 200 277 189 46 189 45 189 283 201 41 201 280 201 280 202 41 202 40 202 280 203 40 203 38 203 284 204 34 204 283 204 283 205 34 205 33 205 283 206 33 206 41 206 285 207 36 207 284 207 284 208 36 208 35 208 284 209 35 209 34 209 179 210 28 210 285 210 285 211 28 211 30 211 285 212 30 212 36 212 285 213 286 213 179 213 179 214 286 214 287 214 179 214 287 214 180 214 180 215 287 215 240 215 180 215 240 215 182 215 182 216 240 216 124 216 263 217 288 217 264 217 264 218 288 218 289 218 264 219 289 219 266 219 266 220 289 220 290 220 266 221 290 221 265 221 265 222 290 222 291 222 265 223 291 223 267 223 267 224 291 224 292 224 267 225 292 225 268 225 268 226 292 226 293 226 268 227 293 227 269 227 269 228 293 228 294 228 269 229 294 229 276 229 276 230 294 230 295 230 276 231 295 231 275 231 275 232 295 232 296 232 275 233 296 233 274 233 274 234 296 234 297 234 274 235 297 235 273 235 273 236 297 236 298 236 273 237 298 237 272 237 272 238 298 238 299 238 272 239 299 239 271 239 271 240 299 240 300 240 271 241 300 241 270 241 270 242 300 242 301 242 270 243 301 243 279 243 279 244 301 244 302 244 279 245 302 245 278 245 278 246 302 246 303 246 278 247 303 247 277 247 277 248 303 248 304 248 277 249 304 249 282 249 282 250 304 250 305 250 282 251 305 251 281 251 281 252 305 252 306 252 281 253 306 253 280 253 280 254 306 254 307 254 280 255 307 255 283 255 283 256 307 256 308 256 283 257 308 257 284 257 284 258 308 258 309 258 284 259 309 259 285 259 285 260 309 260 310 260 285 261 310 261 286 261 286 262 310 262 311 262 286 263 311 263 312 263 312 264 311 264 313 264 312 265 313 265 240 265 240 266 313 266 314 266 240 267 314 267 239 267 239 268 314 268 315 268 239 269 315 269 238 269 238 270 315 270 316 270 238 271 316 271 241 271 241 272 316 272 317 272 241 273 317 273 242 273 242 274 317 274 318 274 242 275 318 275 243 275 243 276 318 276 319 276 243 277 319 277 244 277 244 278 319 278 320 278 244 279 320 279 245 279 245 280 320 280 321 280 245 281 321 281 246 281 246 282 321 282 322 282 246 283 322 283 247 283 247 284 322 284 323 284 247 285 323 285 248 285 248 286 323 286 324 286 248 287 324 287 249 287 249 288 324 288 325 288 249 289 325 289 250 289 250 290 325 290 326 290 250 291 326 291 251 291 251 292 326 292 327 292 251 293 327 293 252 293 252 294 327 294 328 294 252 295 328 295 253 295 253 296 328 296 329 296 253 297 329 297 254 297 254 298 329 298 330 298 254 299 330 299 255 299 255 300 330 300 331 300 255 301 331 301 256 301 256 302 331 302 332 302 256 303 332 303 257 303 257 304 332 304 333 304 257 305 333 305 258 305 258 306 333 306 334 306 258 307 334 307 260 307 260 308 334 308 335 308 260 309 335 309 259 309 259 310 335 310 336 310 259 311 336 311 261 311 261 312 336 312 337 312 261 313 337 313 338 313 338 314 337 314 339 314 338 315 339 315 263 315 263 316 339 316 288 316 340 317 315 317 341 317 341 318 315 318 314 318 341 318 314 318 342 318 342 319 314 319 343 319 342 318 343 318 344 318 345 318 289 318 346 318 346 318 289 318 288 318 346 318 288 318 347 318 347 320 288 320 339 320 347 318 339 318 348 318 349 318 307 318 350 318 350 321 307 321 306 321 350 318 306 318 351 318 351 322 306 322 305 322 351 318 305 318 352 318 353 318 318 318 354 318 354 323 318 323 317 323 354 324 317 324 340 324 340 325 317 325 316 325 340 326 316 326 315 326 355 318 292 318 356 318 356 327 292 327 291 327 356 318 291 318 345 318 345 328 291 328 290 328 345 329 290 329 289 329 357 318 296 318 358 318 358 318 296 318 295 318 358 330 295 330 359 330 359 331 295 331 294 331 359 332 294 332 355 332 355 318 294 318 293 318 355 333 293 333 292 333 360 318 300 318 361 318 361 318 300 318 299 318 361 318 299 318 362 318 362 318 299 318 298 318 362 318 298 318 357 318 357 318 298 318 297 318 357 334 297 334 296 334 363 335 322 335 364 335 364 318 322 318 321 318 364 336 321 336 365 336 365 337 321 337 320 337 365 338 320 338 353 338 353 339 320 339 319 339 353 340 319 340 318 340 339 318 337 318 348 318 348 318 337 318 336 318 348 318 336 318 366 318 366 341 336 341 335 341 366 318 335 318 367 318 343 318 311 318 344 318 344 318 311 318 310 318 344 342 310 342 368 342 368 343 310 343 309 343 368 318 309 318 349 318 349 344 309 344 308 344 349 345 308 345 307 345 369 318 329 318 370 318 370 346 329 346 328 346 370 318 328 318 371 318 335 347 334 347 367 347 367 348 334 348 333 348 367 318 333 318 372 318 372 349 333 349 332 349 372 318 332 318 373 318 373 350 332 350 331 350 373 351 331 351 369 351 369 352 331 352 330 352 369 318 330 318 329 318 305 353 304 353 352 353 352 318 304 318 303 318 352 354 303 354 374 354 374 355 303 355 302 355 374 356 302 356 360 356 360 357 302 357 301 357 360 358 301 358 300 358 328 318 327 318 371 318 371 318 327 318 326 318 371 318 326 318 375 318 375 318 326 318 325 318 375 318 325 318 376 318 376 359 325 359 324 359 376 360 324 360 363 360 363 318 324 318 323 318 363 361 323 361 322 361 346 362 377 362 345 362 345 363 377 363 378 363 345 364 378 364 356 364 356 365 378 365 379 365 356 366 379 366 355 366 355 367 379 367 380 367 355 368 380 368 359 368 359 369 380 369 381 369 359 370 381 370 358 370 358 371 381 371 382 371 358 372 382 372 357 372 357 373 382 373 383 373 357 374 383 374 362 374 362 375 383 375 384 375 362 376 384 376 361 376 361 377 384 377 385 377 361 378 385 378 360 378 360 379 385 379 386 379 360 380 386 380 374 380 374 381 386 381 387 381 374 382 387 382 352 382 352 383 387 383 388 383 352 384 388 384 351 384 351 385 388 385 389 385 351 386 389 386 350 386 350 387 389 387 390 387 350 388 390 388 349 388 349 389 390 389 391 389 349 390 391 390 368 390 368 391 391 391 392 391 368 392 392 392 344 392 344 393 392 393 393 393 344 394 393 394 394 394 394 395 393 395 395 395 394 396 395 396 341 396 341 397 395 397 396 397 341 398 396 398 340 398 340 399 396 399 397 399 340 400 397 400 354 400 354 401 397 401 398 401 354 402 398 402 353 402 353 403 398 403 399 403 353 404 399 404 365 404 365 405 399 405 400 405 365 406 400 406 364 406 364 407 400 407 401 407 364 408 401 408 363 408 363 409 401 409 402 409 363 410 402 410 376 410 376 411 402 411 403 411 376 412 403 412 375 412 375 413 403 413 404 413 375 414 404 414 371 414 371 415 404 415 405 415 371 416 405 416 370 416 370 417 405 417 406 417 370 418 406 418 369 418 369 419 406 419 407 419 369 420 407 420 373 420 373 421 407 421 408 421 373 422 408 422 372 422 372 423 408 423 409 423 372 424 409 424 367 424 367 425 409 425 410 425 367 426 410 426 366 426 366 427 410 427 411 427 366 428 411 428 348 428 348 429 411 429 412 429 348 430 412 430 347 430 347 431 412 431 413 431 347 432 413 432 346 432 346 433 413 433 377 433 393 434 414 434 415 434 415 435 414 435 416 435 415 435 416 435 396 435 396 436 416 436 417 436 396 436 417 436 397 436 397 437 417 437 418 437 397 437 418 437 398 437 398 438 418 438 419 438 398 439 419 439 399 439 399 440 419 440 420 440 399 441 420 441 400 441 400 442 420 442 421 442 400 443 421 443 401 443 401 444 421 444 422 444 401 445 422 445 402 445 402 446 422 446 423 446 402 447 423 447 403 447 403 448 423 448 424 448 403 449 424 449 404 449 404 450 424 450 425 450 404 451 425 451 405 451 405 452 425 452 426 452 405 453 426 453 406 453 406 454 426 454 427 454 406 455 427 455 407 455 407 456 427 456 428 456 407 457 428 457 408 457 408 458 428 458 429 458 408 459 429 459 409 459 409 460 429 460 430 460 409 461 430 461 410 461 410 462 430 462 431 462 410 462 431 462 411 462 411 463 431 463 432 463 411 463 432 463 412 463 412 464 432 464 433 464 412 465 433 465 434 465 434 466 433 466 435 466 434 467 435 467 377 467 377 468 435 468 436 468 377 469 436 469 378 469 378 470 436 470 437 470 378 471 437 471 379 471 379 472 437 472 438 472 379 473 438 473 380 473 380 474 438 474 439 474 380 474 439 474 381 474 381 475 439 475 440 475 381 476 440 476 382 476 382 477 440 477 441 477 382 478 441 478 383 478 383 479 441 479 442 479 383 480 442 480 384 480 384 481 442 481 443 481 384 482 443 482 385 482 385 483 443 483 444 483 385 484 444 484 386 484 386 485 444 485 445 485 386 486 445 486 387 486 387 487 445 487 446 487 387 488 446 488 388 488 388 489 446 489 447 489 388 490 447 490 389 490 389 491 447 491 448 491 389 491 448 491 390 491 390 492 448 492 449 492 390 493 449 493 391 493 391 494 449 494 450 494 391 495 450 495 392 495 392 496 450 496 451 496 392 497 451 497 393 497 393 434 451 434 414 434 419 498 418 498 429 498 438 499 437 499 448 499 416 500 414 500 430 500 430 501 414 501 451 501 435 502 452 502 449 502 449 503 452 503 432 503 429 318 418 318 430 318 430 504 418 504 417 504 430 505 417 505 416 505 448 318 437 318 449 318 449 506 437 506 436 506 449 507 436 507 435 507 451 508 450 508 430 508 430 509 450 509 449 509 430 318 449 318 431 318 431 510 449 510 432 510 422 318 421 318 427 318 429 511 428 511 419 511 419 512 428 512 427 512 419 318 427 318 420 318 420 318 427 318 421 318 447 318 440 318 448 318 448 513 440 513 439 513 448 514 439 514 438 514 427 515 426 515 425 515 425 516 424 516 427 516 427 517 424 517 423 517 427 518 423 518 422 518 447 318 446 318 440 318 440 519 446 519 445 519 440 520 445 520 444 520 444 318 443 318 440 318 440 521 443 521 442 521 440 522 442 522 441 522 166 523 453 523 454 523 146 524 455 524 456 524 146 525 145 525 455 525 455 526 145 526 144 526 455 527 144 527 457 527 457 528 144 528 143 528 457 529 143 529 458 529 458 530 143 530 142 530 458 531 142 531 459 531 459 532 142 532 141 532 459 533 141 533 460 533 141 534 140 534 460 534 460 535 140 535 151 535 460 536 151 536 461 536 461 537 151 537 150 537 461 538 150 538 462 538 462 539 150 539 149 539 462 540 149 540 463 540 149 541 148 541 463 541 463 542 148 542 147 542 463 543 147 543 464 543 464 544 147 544 155 544 464 545 155 545 465 545 155 546 154 546 465 546 465 547 154 547 153 547 465 548 153 548 466 548 466 549 153 549 152 549 466 550 152 550 467 550 152 551 157 551 467 551 467 552 157 552 12 552 467 553 12 553 468 553 12 554 11 554 468 554 468 555 11 555 161 555 468 555 161 555 469 555 469 556 161 556 160 556 469 557 160 557 470 557 470 558 160 558 159 558 470 559 159 559 471 559 471 560 159 560 158 560 471 561 158 561 472 561 472 562 158 562 165 562 472 563 165 563 473 563 165 564 164 564 473 564 473 565 164 565 163 565 473 566 163 566 474 566 474 567 163 567 237 567 474 568 237 568 475 568 475 569 237 569 10 569 475 570 10 570 454 570 454 571 10 571 9 571 454 572 9 572 166 572 166 573 167 573 453 573 453 574 167 574 168 574 453 575 168 575 476 575 168 576 172 576 476 576 476 577 172 577 171 577 476 578 171 578 477 578 477 579 171 579 170 579 477 580 170 580 478 580 170 581 169 581 478 581 478 582 169 582 7 582 478 583 7 583 479 583 7 584 6 584 479 584 479 585 6 585 177 585 479 586 177 586 480 586 480 587 177 587 176 587 480 588 176 588 481 588 481 589 176 589 175 589 481 590 175 590 482 590 482 591 175 591 174 591 482 592 174 592 483 592 483 593 174 593 15 593 483 594 15 594 484 594 15 595 14 595 484 595 484 596 14 596 135 596 484 597 135 597 485 597 485 598 135 598 486 598 485 599 486 599 487 599 487 600 486 600 132 600 487 601 132 601 488 601 488 602 132 602 131 602 488 602 131 602 489 602 489 603 131 603 138 603 489 604 138 604 456 604 456 605 138 605 137 605 456 606 137 606 146 606 482 607 483 607 484 607 472 0 484 0 471 0 471 0 484 0 470 0 485 608 468 608 484 608 484 609 468 609 469 609 484 610 469 610 470 610 485 0 487 0 468 0 468 611 487 611 488 611 468 612 488 612 489 612 472 613 473 613 484 613 484 614 473 614 474 614 484 615 474 615 475 615 475 616 454 616 484 616 484 617 454 617 453 617 484 618 453 618 476 618 476 0 477 0 484 0 484 619 477 619 478 619 484 620 478 620 479 620 459 621 460 621 458 621 458 622 460 622 461 622 458 623 461 623 462 623 465 0 466 0 489 0 489 624 466 624 467 624 489 625 467 625 468 625 479 626 480 626 484 626 484 0 480 0 481 0 484 0 481 0 482 0 465 627 489 627 464 627 464 628 489 628 456 628 464 629 456 629 455 629 455 630 457 630 464 630 464 631 457 631 458 631 464 632 458 632 463 632 463 0 458 0 462 0 490 633 491 633 190 633 190 634 491 634 178 634 491 635 492 635 178 635 178 635 492 635 185 635 185 636 492 636 184 636 184 637 492 637 493 637 184 638 493 638 183 638 493 639 494 639 183 639 183 640 494 640 181 640 494 641 495 641 181 641 181 641 495 641 26 641 495 642 496 642 26 642 26 643 496 643 27 643 27 644 496 644 186 644 186 645 496 645 497 645 186 646 497 646 187 646 497 647 498 647 187 647 187 647 498 647 188 647 498 648 499 648 188 648 188 649 499 649 189 649 499 650 490 650 189 650 189 650 490 650 190 650 497 651 496 651 495 651 498 652 497 652 499 652 499 0 497 0 495 0 499 0 495 0 490 0 490 0 495 0 494 0 494 653 493 653 490 653 490 654 493 654 492 654 490 655 492 655 491 655 500 650 501 650 193 650 193 650 501 650 194 650 501 656 502 656 194 656 194 657 502 657 198 657 198 658 502 658 199 658 199 659 502 659 503 659 199 660 503 660 200 660 200 661 503 661 201 661 201 662 503 662 504 662 201 663 504 663 202 663 504 664 505 664 202 664 202 664 505 664 191 664 505 641 506 641 191 641 191 641 506 641 192 641 506 665 507 665 192 665 192 666 507 666 195 666 507 667 508 667 195 667 195 668 508 668 196 668 508 669 509 669 196 669 196 670 509 670 197 670 509 671 500 671 197 671 197 672 500 672 193 672 503 0 502 0 504 0 504 0 502 0 507 0 504 0 507 0 505 0 505 0 507 0 506 0 508 0 507 0 509 0 509 0 507 0 502 0 509 0 502 0 500 0 500 0 502 0 501 0 510 673 511 673 212 673 212 674 511 674 3 674 3 675 511 675 4 675 4 676 511 676 512 676 4 677 512 677 162 677 162 678 512 678 206 678 206 679 512 679 513 679 206 680 513 680 207 680 513 681 514 681 207 681 207 682 514 682 209 682 514 683 515 683 209 683 209 684 515 684 203 684 515 685 516 685 203 685 203 686 516 686 204 686 516 687 517 687 204 687 204 688 517 688 205 688 517 689 518 689 205 689 205 690 518 690 210 690 518 691 519 691 210 691 210 692 519 692 211 692 519 693 510 693 211 693 211 694 510 694 212 694 515 695 514 695 519 695 519 696 514 696 510 696 513 0 512 0 514 0 514 697 512 697 511 697 514 0 511 0 510 0 518 0 517 0 519 0 519 698 517 698 516 698 519 0 516 0 515 0 520 699 521 699 106 699 106 700 521 700 107 700 521 701 522 701 107 701 107 701 522 701 108 701 522 702 523 702 108 702 108 703 523 703 109 703 523 704 524 704 109 704 109 705 524 705 97 705 524 706 525 706 97 706 97 707 525 707 98 707 525 708 526 708 98 708 98 709 526 709 100 709 526 710 527 710 100 710 100 711 527 711 101 711 527 712 528 712 101 712 101 713 528 713 103 713 528 714 529 714 103 714 103 715 529 715 105 715 529 716 520 716 105 716 105 717 520 717 106 717 524 718 523 718 525 718 525 0 523 0 528 0 525 0 528 0 526 0 526 0 528 0 527 0 529 719 528 719 520 719 520 0 528 0 523 0 520 0 523 0 521 0 521 720 523 720 522 720 530 641 531 641 213 641 213 641 531 641 214 641 531 721 532 721 214 721 214 722 532 722 215 722 532 723 533 723 215 723 215 668 533 668 219 668 533 669 534 669 219 669 219 669 534 669 218 669 534 724 535 724 218 724 218 725 535 725 217 725 535 650 536 650 217 650 217 650 536 650 216 650 536 726 537 726 216 726 216 727 537 727 220 727 220 728 537 728 221 728 221 729 537 729 538 729 221 730 538 730 222 730 222 731 538 731 223 731 223 732 538 732 539 732 223 733 539 733 224 733 539 734 530 734 224 734 224 735 530 735 213 735 531 0 530 0 532 0 532 0 530 0 539 0 532 0 539 0 533 0 533 0 539 0 534 0 536 0 535 0 537 0 537 0 535 0 534 0 537 0 534 0 538 0 538 0 534 0 539 0 540 736 541 736 228 736 228 686 541 686 227 686 541 737 542 737 227 737 227 738 542 738 226 738 542 739 543 739 226 739 226 740 543 740 225 740 543 691 544 691 225 691 225 692 544 692 229 692 544 694 545 694 229 694 229 694 545 694 230 694 545 741 546 741 230 741 230 742 546 742 231 742 231 743 546 743 73 743 73 744 546 744 547 744 73 745 547 745 75 745 75 746 547 746 76 746 76 747 547 747 548 747 76 748 548 748 232 748 548 749 549 749 232 749 232 682 549 682 233 682 549 750 540 750 233 750 233 751 540 751 228 751 540 0 549 0 544 0 544 0 549 0 545 0 548 0 547 0 549 0 549 0 547 0 546 0 549 0 546 0 545 0 543 0 542 0 544 0 544 0 542 0 541 0 544 0 541 0 540 0 550 752 551 752 52 752 52 709 551 709 139 709 551 753 552 753 139 753 139 754 552 754 63 754 552 712 553 712 63 712 63 755 553 755 62 755 553 756 554 756 62 756 62 715 554 715 61 715 554 757 555 757 61 757 61 758 555 758 59 758 555 759 556 759 59 759 59 700 556 700 57 700 556 760 557 760 57 760 57 761 557 761 55 761 557 702 558 702 55 702 55 762 558 762 53 762 558 763 559 763 53 763 53 705 559 705 51 705 559 764 550 764 51 764 51 765 550 765 52 765 554 766 559 766 558 766 554 767 553 767 552 767 558 768 557 768 554 768 554 0 557 0 556 0 554 0 556 0 555 0 559 769 554 769 550 769 550 770 554 770 552 770 550 771 552 771 551 771</p>
        </triangles>
      </mesh>
    </geometry>
  </library_geometries>
  <library_visual_scenes>
    <visual_scene id="Scene" name="Scene">
      <node id="Link6" name="Link6" type="NODE">
        <matrix sid="transform">1 0 0 0 0 1 0 0 0 0 1 0 0 0 0 1</matrix>
        <instance_geometry url="#Link6_001-mesh" name="Link6">
          <bind_material>
            <technique_common>
              <instance_material symbol="Material_001-material" target="#Material_001-material"/>
            </technique_common>
          </bind_material>
        </instance_geometry>
      </node>
    </visual_scene>
  </library_visual_scenes>
  <scene>
    <instance_visual_scene url="#Scene"/>
  </scene>
</COLLADA>