<?xml version="1.0" encoding="utf-8"?>
<COLLADA xmlns="http://www.collada.org/2005/11/COLLADASchema" version="1.4.1" xmlns:xsi="http://www.w3.org/2001/XMLSchema-instance">
  <asset>
    <contributor>
      <author>Blender User</author>
      <authoring_tool>Blender 2.82.7</authoring_tool>
    </contributor>
    <created>2024-02-04T12:01:21</created>
    <modified>2024-02-04T12:01:21</modified>
    <unit name="meter" meter="1"/>
    <up_axis>Z_UP</up_axis>
  </asset>
  <library_effects>
    <effect id="colour_abb_white_001-effect">
      <profile_COMMON>
        <technique sid="common">
          <lambert>
            <emission>
              <color sid="emission">0 0 0 1</color>
            </emission>
            <diffuse>
              <color sid="diffuse">0.7404 0.7404 0.7248001 1</color>
            </diffuse>
            <index_of_refraction>
              <float sid="ior">1</float>
            </index_of_refraction>
          </lambert>
        </technique>
      </profile_COMMON>
    </effect>
    <effect id="Material_005-effect">
      <profile_COMMON>
        <technique sid="common">
          <lambert>
            <emission>
              <color sid="emission">0 0 0 1</color>
            </emission>
            <diffuse>
              <color sid="diffuse">0.8000001 0.01691049 0.0347339 1</color>
            </diffuse>
            <index_of_refraction>
              <float sid="ior">1.45</float>
            </index_of_refraction>
          </lambert>
        </technique>
      </profile_COMMON>
    </effect>
  </library_effects>
  <library_images/>
  <library_materials>
    <material id="colour_abb_white_001-material" name="colour_abb_white.001">
      <instance_effect url="#colour_abb_white_001-effect"/>
    </material>
    <material id="Material_005-material" name="Material.005">
      <instance_effect url="#Material_005-effect"/>
    </material>
  </library_materials>
  <library_geometries>
    <geometry id="Link4_001-mesh" name="Link4.001">
      <mesh>
        <source id="Link4_001-mesh-positions">
          <float_array id="Link4_001-mesh-positions-array" count="2334">-0.1306 0.09795069 -0.03017765 -0.1306 0.09824925 -0.02676457 -0.09473001 0.09824931 -0.03570789 -0.08927178 0.09622114 -0.06025081 -0.08595895 0.09592497 -0.06446188 -0.1029143 0.09592497 -0.06023448 -0.2025133 0.09824919 -0.00883454 -0.1556 0.09824925 -0.02053135 -0.1703646 0.09543657 -0.04899996 -0.1556 0.09740537 -0.03017765 -0.1379223 0.09715032 -0.03749996 -0.1482776 0.09692448 -0.03749996 -0.2096758 0.09348618 -0.06149131 -0.06480872 0.09342241 -0.09833997 -0.2256647 0.09299999 -0.06306225 -0.03552711 0.09299999 -0.1104688 0.0120514 0.1196779 0.05606174 0.02218359 0.09592497 0.107 0.01589995 0.1206491 0.05221319 0.06151062 0.09592497 0.09071016 0.01589995 0.122 0.04907751 0.02983552 0.122 0.04330515 0.007113158 0.1173751 0.06099998 -0.02038359 0.09592497 0.107 -0.005313158 0.1173751 0.06099998 -0.0102514 0.1196779 0.05606174 -0.01409995 0.122 0.04907751 -0.02803564 0.122 0.04330515 -0.01409995 0.1206491 0.05221319 -0.05971062 0.09592497 0.09071016 -0.2511 0.1025 -0.04899996 -0.1925155 0.09737467 0.02132785 -0.2511 0.1025 0.02499997 -0.189575 0.09711724 0.02499997 -0.1306 0.105925 -0.03017765 -0.1306 0.09790545 2.67029e-7 -0.1306 0.105925 0.03017759 -0.1306 0.09747171 0.03017759 -0.1556 0.105925 -0.03017765 -0.1556 0.09793525 9.82285e-7 -0.1556 0.105925 0.02817761 -0.1556 0.09742099 0.02817761 -0.1358724 0.09737449 0.03544998 -0.1379223 0.105925 0.03750002 -0.1379223 0.09715032 0.03750002 -0.1520645 0.09717315 0.03371322 -0.1482776 0.09692448 0.03750002 -0.1520645 0.105925 0.03371322 -0.1482776 0.105925 0.03750002 -0.05018198 0.122 -0.01016086 -0.1014358 0.09809988 -0.02035588 -0.05018198 0.122 0.0101608 -0.1019181 0.09787499 2.67029e-7 -0.1024181 0.09764188 0.0205512 -0.04240524 0.122 0.02893555 -0.09237551 0.09737443 0.04629492 -0.08927178 0.09622114 0.06025087 -0.04240524 0.122 -0.02893561 -0.1029143 0.09592497 0.06023442 -0.08595895 0.09592497 0.06446182 -0.2318714 0.09299999 0.06151473 -0.03552711 0.09299999 0.1104689 -0.2308686 0.09303045 0.06141626 -0.06480872 0.09342241 0.09834003 -0.1538113 0.09737437 0.03097724 -0.1551287 0.09737455 0.03064882 -0.06480872 0.09592497 0.09834003 -0.02217376 0.09592497 0.1159999 0.02397376 0.09592497 0.1159999 0.06660872 0.09592497 0.09834003 0.09161013 0.09592497 0.06061065 0.09924 0.09592497 0.06570863 0.1079 0.09592497 0.02128362 0.1168999 0.09592497 0.02307379 0.1079 0.09592497 -0.02128356 0.1168999 0.09592497 -0.02307385 0.09161013 0.09592497 -0.06061059 0.09924 0.09592497 -0.06570869 0.06151062 0.09592497 -0.09071022 0.06660872 0.09592497 -0.09833997 0.02218359 0.09592497 -0.1069999 0.02397376 0.09592497 -0.116 -0.02038359 0.09592497 -0.1069999 -0.02217376 0.09592497 -0.116 -0.05971062 0.09592497 -0.09071022 -0.06480872 0.09592497 -0.09833997 -0.09085392 0.07012653 -0.07229477 -0.08756494 0.06589204 -0.07558375 -0.1894593 0.07899999 -0.07208925 -0.2511 0.08019948 -0.07558375 -0.2511 0.09711033 -0.06149131 -0.2511 0.09480047 0.06141626 -0.08956503 0.06606698 0.07358372 -0.09239172 0.06970638 0.07075703 -0.195666 0.07899999 0.07054173 -0.2511 0.08019948 0.07358372 -0.08837091 0.05892497 0.07477784 -0.06948769 0.03092497 0.07924854 -0.09109997 0.03092497 0.07956933 -0.09109997 0.02838718 0.07999992 -0.2511 0.04238539 0.07999992 -0.2511 0.05242359 -0.08199995 -0.08598744 0.05892497 -0.07716125 -0.06963014 0.036547 -0.08199995 -0.03552711 0.07899999 0.1104689 -0.06480872 0.07724267 0.09834003 -0.03552711 0.07899999 -0.1104688 -0.06480872 0.07724267 -0.09833997 -0.1379223 0.105925 -0.03749996 -0.1482776 0.105925 -0.03749996 -0.2511 0.07138222 -0.103 -0.2511 -0.07138222 -0.103 -0.2901 0.07138222 -0.103 -0.2901 -0.07138222 -0.103 -0.2901 0.1115 -0.06288224 -0.2511 0.1115 -0.06288224 -0.2901 0.1115 0.05797779 -0.2511 0.1115 0.05797779 -0.2901 0.09078961 0.07868814 -0.2511 0.09078961 0.07868814 -0.2901 0.04558461 0.08491766 -0.2511 0.04558461 0.08491766 -0.2901 0 0.08700001 -0.2511 0 0.08700001 -0.2901 -0.04558461 0.08491766 -0.2511 -0.04558461 0.08491766 -0.2901 -0.09078961 0.07868814 -0.2511 -0.09078961 0.07868814 -0.2901 -0.1115 0.05797779 -0.2511 -0.1115 0.05797779 -0.2901 -0.1115 -0.06288224 -0.2511 -0.1115 -0.06288224 -0.2511 -0.09711033 -0.06149131 -0.2511 -0.08019948 -0.07558375 -0.2511 -0.05242359 -0.08199995 -0.2511 -0.04238539 0.07999992 -0.2511 -0.08019948 0.07358372 -0.2511 -0.09480047 0.06141626 -0.2511 -0.1025 0.02499997 -0.2511 -0.1025 -0.04899996 -0.09109997 -0.02417498 0.07999992 -0.08722662 -0.02804833 0.07999992 -0.06748783 -0.06413549 0.07358372 -0.07811939 -0.07966667 0.06141626 -0.09084713 -0.08847969 0.01824963 -0.08842277 -0.08826756 0.02499997 -0.09084713 -0.08847969 -0.01824957 -0.07980322 -0.08751344 -0.04899996 -0.06673622 0.03092497 -0.08199995 -0.09109997 0.03092497 -0.08199995 -0.06252884 -0.02917498 -0.08199995 -0.06186699 -0.03586781 -0.08199995 -0.09109997 -0.02917498 -0.08199995 -0.07781851 -0.08195018 -0.06149131 -0.0655049 -0.06396198 -0.07558375 -0.06504929 -0.02917498 0.07947957 -0.08609998 -0.02917498 0.07979202 -0.08319318 -0.08121567 0.05618929 -0.08766984 -0.08399999 0.04487276 -0.08159983 -0.08399999 -0.05750733 -0.08162355 -0.08502328 -0.05514043 -0.05903589 0.03092497 -0.0897004 -0.02014672 0.03092497 -0.1058088 0.0219466 0.03092497 -0.1058088 0.0219466 0.03092497 0.1058089 -0.02014672 0.03092497 0.1058089 -0.05903589 0.03092497 0.08970034 0.09060031 0.03092497 0.0599358 0.06083589 0.03092497 0.08970034 -0.09109997 0.03092497 0.05226385 0.09060031 0.03092497 -0.05993586 0.1067088 0.03092497 -0.02104669 0.1067088 0.03092497 0.02104663 0.06083589 0.03092497 -0.0897004 -0.09433209 0.03092497 0.04611241 -0.1005004 0.03092497 0.03022348 -0.1040375 0.03092497 0.0135504 -0.1048517 0.03092497 -0.003474295 -0.1029219 0.03092497 -0.02040892 -0.09829795 0.03092497 -0.03681403 -0.09109997 0.03092497 -0.05226379 -0.08609998 -0.02917498 0.06022047 -0.01955485 -0.02917498 -0.1028337 0.02135485 -0.02917498 -0.1028337 -0.05735063 -0.02917498 0.08717823 -0.09109997 -0.02917498 -0.05226379 0.05915063 -0.02917498 -0.08717817 0.0880782 -0.02917498 -0.0582506 0.0880782 -0.02917498 0.05825054 0.1037337 -0.02917498 -0.02045482 0.1037337 -0.02917498 0.02045488 0.05915063 -0.02917498 0.08717823 0.02135485 -0.02917498 0.1028338 -0.01955485 -0.02917498 0.1028338 -0.05735063 -0.02917498 -0.08717817 -0.09433209 -0.02917498 0.04611241 -0.09829795 -0.02917498 -0.03681403 -0.1029219 -0.02917498 -0.02040892 -0.1048517 -0.02917498 -0.003474295 -0.1040375 -0.02917498 0.0135504 -0.1005004 -0.02917498 0.03022348 -0.09109997 -0.02417498 0.05226385 -0.1396359 0.105925 0.02699995 -0.1410999 0.105925 0.02846407 -0.1410999 0.105925 -0.02846401 -0.1396359 0.105925 -0.02700001 -0.1391 0.105925 -0.02499991 -0.1431 0.105925 0.02899992 -0.1451 0.105925 0.02846407 -0.1465641 0.105925 0.02699995 -0.1471 0.105925 0.02499997 -0.1396359 0.105925 -0.02299994 -0.1451 0.105925 0.02153587 -0.1410999 0.105925 -0.02153581 -0.1465641 0.105925 0.023 -0.1431 0.105925 -0.02099996 -0.1451 0.105925 -0.02153581 -0.1465641 0.105925 -0.02299994 -0.1471 0.105925 -0.02499991 -0.1465641 0.105925 -0.02700001 -0.1451 0.105925 -0.02846401 -0.1431 0.105925 -0.02899998 -0.1431 0.105925 0.02100002 -0.1410999 0.105925 0.02153587 -0.1396359 0.105925 0.023 -0.1391 0.105925 0.02499997 -0.01879227 -0.08399999 0.09899997 -0.05517899 -0.08399999 0.0839281 0.02059227 -0.08399999 0.09899997 -0.08302807 -0.08399999 0.05607891 0.056979 -0.08399999 0.0839281 0.08482807 -0.08399999 0.05607891 0.09989994 -0.08399999 0.0196923 0.09989994 -0.08399999 -0.01969224 -0.05517899 -0.08399999 -0.08392816 0.08482807 -0.08399999 -0.05607897 -0.01879227 -0.08399999 -0.09899991 0.056979 -0.08399999 -0.08392816 0.02059227 -0.08399999 -0.09899991 0.01382929 -0.105 0.06499993 -0.01202929 -0.105 0.06499993 0.03771954 -0.105 0.05510425 -0.03591954 -0.105 0.05510425 0.05600434 -0.105 0.03681945 -0.05420434 -0.105 0.03681945 0.0658999 -0.105 0.01292932 -0.06410002 -0.105 0.01292932 0.0658999 -0.105 -0.01292926 -0.06410002 -0.105 -0.01292926 0.05600434 -0.105 -0.03681951 -0.05420434 -0.105 -0.03681951 0.03771954 -0.105 -0.05510431 -0.03591954 -0.105 -0.05510431 0.01382929 -0.105 -0.06499999 -0.01202929 -0.105 -0.06499999 -0.009542942 -0.123975 0.0525 -0.02883887 -0.123975 0.04450726 0.01134282 -0.123975 0.0525 -0.04360735 -0.123975 0.02973878 0.03063887 -0.123975 0.04450726 -0.05159997 -0.123975 0.01044285 0.04540735 -0.123975 0.02973878 -0.05159997 -0.123975 -0.01044291 0.05339998 -0.123975 0.01044285 -0.04360735 -0.123975 -0.02973884 0.05339998 -0.123975 -0.01044291 -0.02883887 -0.123975 -0.04450732 0.04540735 -0.123975 -0.02973884 -0.009542942 -0.123975 -0.05249994 0.03063887 -0.123975 -0.04450732 0.01134282 -0.123975 -0.05249994 -0.02217376 0.05892497 0.1159999 -0.06480872 0.05892497 0.09834003 0.02397376 0.05892497 0.1159999 0.06660872 0.05892497 0.09834003 0.09924 0.05892497 0.06570863 0.1168999 0.05892497 0.02307379 0.1168999 0.05892497 -0.02307385 0.09924 0.05892497 -0.06570869 0.06660872 0.05892497 -0.09833997 0.02397376 0.05892497 -0.116 -0.02217376 0.05892497 -0.116 -0.06480872 0.05892497 -0.09833997 0.05198198 0.122 0.0101608 0.04420512 0.122 0.02893555 0.05198198 0.122 -0.01016086 0.04420512 0.122 -0.02893561 0.02983552 0.122 -0.04330521 0.01106077 0.122 -0.05108195 -0.009260773 0.122 -0.05108195 -0.02803564 0.122 -0.04330521 -0.01409995 0.122 0.05221319 -0.005313158 0.122 0.06099998 0.007113158 0.122 0.06099998 0.01589995 0.122 0.05221319 -0.2901 -0.02380096 -0.05746072 -0.2901 0 -0.062195 -0.2901 -0.04397851 0.04397857 -0.2901 0.02380096 -0.05746072 -0.2901 0.04397851 -0.04397851 -0.2901 0.05746072 -0.02380102 -0.2901 0.06219506 0 -0.2901 0.05746072 0.02380096 -0.2901 0.04397851 0.04397857 -0.2901 0.02380096 0.05746066 -0.2901 0 0.06219506 -0.2901 -0.02380096 0.05746066 -0.2901 0 0.08700001 -0.2901 -0.05746072 0.02380096 -0.2901 -0.06219506 0 -0.2901 -0.05746072 -0.02380102 -0.2901 -0.04397851 -0.04397851 -1.1325 0.0656073 -0.06560736 -1.1325 0.03550642 -0.08572012 -1.1325 0.03550642 0.08572006 -1.1325 0.08572012 -0.03550642 -1.1325 -0.03550642 -0.08572012 -1.1325 -0.0656073 -0.06560736 -1.1325 0 -0.09278279 -1.1325 -0.03550642 0.08572006 -1.1325 0 0.09278273 -1.1325 -0.08572012 0.03550636 -1.1325 -0.0656073 0.0656073 -1.1325 -0.09278279 0 -1.1325 -0.08572012 -0.03550642 -1.1325 0.0656073 0.0656073 -1.1325 0.08572012 0.03550636 -1.1325 0.09278279 0 -1.1205 0.08572012 -0.03550642 -1.1205 0.0656073 -0.06560736 -1.1205 0.09278279 0 -1.1205 0.08572012 0.03550636 -1.1205 0.0656073 0.0656073 -1.1205 0.03550642 0.08572006 -1.1205 0 0.09278273 -1.1205 -0.03550642 0.08572006 -1.1205 -0.0656073 0.0656073 -1.1205 -0.08572012 0.03550636 -1.1205 -0.09278279 0 -1.1205 -0.08572012 -0.03550642 -1.1205 -0.0656073 -0.06560736 -1.1205 -0.03550642 -0.08572012 -1.1205 0 -0.09278279 -1.1205 0.03550642 -0.08572012 -1.1075 0.05746072 -0.02380102 -1.1075 0.04397851 -0.04397851 -1.1075 0.06219506 0 -1.1075 0.05746072 0.02380096 -1.1075 0.04397851 0.04397857 -1.1075 0.02380096 0.05746066 -1.1075 0 0.06219506 -1.1075 -0.02380096 0.05746066 -1.1075 -0.04397851 0.04397857 -1.1075 -0.05746072 0.02380096 -1.1075 -0.06219506 0 -1.1075 -0.05746072 -0.02380102 -1.1075 -0.04397851 -0.04397851 -1.1075 -0.02380096 -0.05746072 -1.1075 0 -0.062195 -1.1075 0.02380096 -0.05746072 -0.1431 0.09592497 0.02899992 -0.1451 0.09592497 0.02846407 -0.1410999 0.09592497 0.02846407 -0.1396359 0.09592497 0.02699995 -0.1391 0.09592497 0.02499997 -0.1396359 0.09592497 0.023 -0.1410999 0.09592497 0.02153587 -0.1431 0.09592497 0.02100002 -0.1451 0.09592497 0.02153587 -0.1465641 0.09592497 0.023 -0.1471 0.09592497 0.02499997 -0.1465641 0.09592497 0.02699995 -0.1410999 0.09592497 -0.02153581 -0.1431 0.09592497 -0.02099996 -0.1396359 0.09592497 -0.02299994 -0.1391 0.09592497 -0.02499991 -0.1396359 0.09592497 -0.02700001 -0.1410999 0.09592497 -0.02846401 -0.1431 0.09592497 -0.02899998 -0.1451 0.09592497 -0.02846401 -0.1465641 0.09592497 -0.02700001 -0.1471 0.09592497 -0.02499991 -0.1465641 0.09592497 -0.02299994 -0.1451 0.09592497 -0.02153581 -0.003990292 0.106 0.001970291 -0.003990292 0.106 0.004142522 -0.00331521 0.106 0.004142522 -0.0291903 0.106 0.004142522 -0.02851521 0.106 0.004142522 -0.0291903 0.106 0.00194621 -0.02851521 0.106 0.001946926 -0.02851521 0.106 -0.003340899 -0.0291903 0.106 -0.003340899 -0.02851521 0.106 0.001266479 -0.0291903 0.106 0.001266956 0.006044685 0.106 0.001979827 0.006044685 0.106 0.004142522 0.01499086 0.106 0.004142522 0.01395756 0.106 0.001236796 0.01232963 0.106 -0.003340899 0.006044685 0.106 -0.003340899 -0.01915526 0.106 0.004142522 -0.01047027 0.106 0.004142522 -0.01915526 0.106 0.001955866 -0.01381146 0.106 0.001960873 -0.01609933 0.106 -0.002523362 -0.01639211 0.106 -0.004236996 -0.01647579 0.106 -0.003340899 0.02398937 0.106 0.004142522 0.02483457 0.106 0.004142522 0.02398937 0.106 0.001996874 0.02481454 0.106 0.001997709 0.02476471 0.106 -0.003340899 0.02398937 0.106 -0.003340899 0.02480739 0.106 0.001229286 0.02398937 0.106 0.001229882 -0.01915526 0.106 0.001259922 -0.03178977 0.106 0.001268744 -0.03178977 0.106 0.001943826 0.006044685 0.106 0.001242399 -0.00331521 0.106 0.001248955 -0.00331521 0.106 0.001970887 -0.00331521 0.106 -0.003340899 -0.003990292 0.106 -0.003340899 -0.003990292 0.106 0.001249432 0.01424878 0.106 0.001987576 0.02930516 0.106 0.002002 0.02930516 0.106 0.001226186 -0.01915526 0.106 -0.003340899 -0.01435863 0.106 0.001256585 0.03247731 0.124 -0.01457113 0.04060465 0.124 -0.01457113 0.03247731 0.1015 -0.01457113 0.04060465 0.1015 -0.01457113 0.03014343 0.124 -0.008091151 0.03014343 0.1015 -0.008091151 0.02476471 0.124 -0.008091151 0.02476471 0.1015 -0.008091151 0.02476471 0.124 -0.003340899 0.02476471 0.1015 -0.003340899 0.02398937 0.1015 -0.003340899 0.02398937 0.1015 -0.008071601 0.02398937 0.124 -0.008071601 0.02398937 0.124 0.001229882 0.01858037 0.124 -0.008071601 0.01858037 0.1015 -0.008071601 0.01644617 0.124 -0.01457113 0.01644617 0.1015 -0.01457113 0.008336007 0.124 -0.01457113 0.008336007 0.1015 -0.01457113 0.01395756 0.124 0.001236796 0.01232963 0.1015 -0.003340899 0.006044685 0.1015 -0.003340899 0.006044685 0.1015 -0.01457113 0.006044685 0.124 -0.01457113 0.006044685 0.124 0.001242399 -0.00331521 0.124 -0.01457113 -0.00331521 0.1015 -0.01457113 -0.00331521 0.124 0.001248955 -0.00331521 0.1015 -0.003340899 -0.003990292 0.1015 -0.003340899 -0.003990292 0.1015 -0.01457113 -0.003990292 0.124 -0.01457113 -0.003990292 0.124 0.001249432 -0.008825778 0.124 -0.01438921 -0.008825778 0.1015 -0.01438921 -0.01330089 0.124 -0.01214259 -0.01330089 0.1015 -0.01214259 -0.01550316 0.124 -0.008984744 -0.01550316 0.1015 -0.008984744 -0.01639211 0.124 -0.004236996 -0.01610159 0.124 -0.007350504 -0.01610159 0.1015 -0.007350504 -0.01647579 0.1015 -0.003340899 -0.01915526 0.1015 -0.003340899 -0.01915526 0.1015 -0.01457113 -0.01915526 0.124 -0.01457113 -0.01915526 0.124 0.001259922 -0.02851521 0.124 -0.01457113 -0.02851521 0.1015 -0.01457113 -0.02851521 0.124 0.001266479 -0.02851521 0.1015 -0.003340899 -0.0291903 0.1015 -0.003340899 -0.0291903 0.1015 -0.01457113 -0.0291903 0.124 -0.01457113 -0.0291903 0.124 0.001266956 -0.03402578 0.124 -0.01438921 -0.03402578 0.1015 -0.01438921 -0.03850078 0.124 -0.01214259 -0.03850078 0.1015 -0.01214259 -0.04070317 0.124 -0.008984744 -0.04070317 0.1015 -0.008984744 -0.0413016 0.1015 -0.007350504 -0.04159212 0.1015 -0.004236996 -0.0413016 0.124 -0.007350504 -0.04159212 0.124 -0.004236996 -0.04130411 0.1015 -0.002521216 -0.03958523 0.1015 0.001268744 -0.04130411 0.124 -0.002521216 -0.03958523 0.124 0.001268744 -0.03178977 0.124 0.001268744 -0.03178977 0.1015 0.001268744 -0.03178977 0.1015 0.001943826 -0.03900027 0.124 0.001943826 -0.03178977 0.124 0.001943826 -0.03900027 0.1015 0.001943826 -0.03567028 0.124 0.004142522 -0.03567028 0.1015 0.004142522 -0.0384891 0.124 0.007537841 -0.0384891 0.1015 0.007537841 -0.03900361 0.1015 0.009128212 -0.03876829 0.1015 0.01262617 -0.03900361 0.124 0.009128212 -0.03876829 0.124 0.01262617 -0.03805243 0.1015 0.01414096 -0.03474223 0.1015 0.01725566 -0.03805243 0.124 0.01414096 -0.03474223 0.124 0.01725566 -0.0291903 0.124 0.01773881 -0.0291903 0.1015 0.01773881 -0.0291903 0.124 0.00194621 -0.0291903 0.1015 0.004142522 -0.02851521 0.1015 0.004142522 -0.02851521 0.1015 0.01773881 -0.02851521 0.124 0.01773881 -0.02851521 0.124 0.001946926 -0.01915526 0.124 0.01773881 -0.01915526 0.1015 0.01773881 -0.01915526 0.124 0.001955866 -0.01915526 0.1015 0.004142522 -0.01047027 0.1015 0.004142522 -0.01336061 0.124 0.007748365 -0.01047027 0.124 0.004142522 -0.01336061 0.1015 0.007748365 -0.01383531 0.1015 0.009346365 -0.01349139 0.1015 0.01284217 -0.01383531 0.124 0.009346365 -0.01349139 0.124 0.01284217 -0.01273 0.1015 0.01433515 -0.009362936 0.1015 0.01732277 -0.01273 0.124 0.01433515 -0.009362936 0.124 0.01732277 -0.003990292 0.124 0.01773881 -0.003990292 0.1015 0.01773881 -0.003990292 0.124 0.001970291 -0.003990292 0.1015 0.004142522 -0.00331521 0.1015 0.004142522 -0.00331521 0.1015 0.01773881 -0.00331521 0.124 0.01773881 -0.00331521 0.124 0.001970887 0.006044685 0.124 0.01773881 0.006044685 0.1015 0.01773881 0.006044685 0.124 0.001979827 0.006044685 0.1015 0.004142522 0.01499086 0.1015 0.004142522 0.01967579 0.1015 0.01774585 0.01967579 0.124 0.01774585 0.01424878 0.124 0.001987576 0.02398937 0.124 0.01774585 0.02398937 0.1015 0.01774585 0.02398937 0.124 0.001996874 0.02398937 0.1015 0.004142522 0.02483457 0.1015 0.004142522 0.02483457 0.1015 0.01774585 0.02483457 0.124 0.01774585 0.02483457 0.124 0.004142522 0.02930516 0.124 0.01774585 0.02930516 0.1015 0.01774585 0.03500312 0.124 0.002002 0.03500312 0.1015 0.002002 0.02930516 0.124 0.002002 0.02930516 0.1015 0.002002 0.02930516 0.1015 0.001226186 0.03500312 0.124 0.001226186 0.02930516 0.124 0.001226186 0.03500312 0.1015 0.001226186 0.02480739 0.124 0.001229286 -0.01609933 0.124 -0.002523362 -0.01435863 0.124 0.001256585 -0.01381146 0.124 0.001960873 0.02481454 0.124 0.001997709 0.03102797 -0.108475 0.00101602 0.02842837 -0.108475 0.001018524 0.03102797 -0.108475 3.41086e-4 0.02842837 -0.108475 3.39298e-4 -0.006806492 -0.108475 0.001052141 -0.006806492 -0.108475 0.003214716 -0.01575279 -0.108475 0.003214716 -0.01471948 -0.108475 3.09138e-4 -0.01309156 -0.108475 -0.004268586 -0.006806492 -0.108475 -0.004268586 0.02775341 -0.108475 0.001019239 0.01839345 -0.108475 0.00102806 0.02775341 -0.108475 3.38821e-4 0.01839345 -0.108475 3.32265e-4 0.01839345 -0.108475 0.003214716 0.009708464 -0.108475 0.003214716 0.01304966 -0.108475 0.001033186 0.02775341 -0.108475 -0.004268586 0.02842837 -0.108475 -0.004268586 0.02775341 -0.108475 0.003214716 0.02842837 -0.108475 0.003214716 0.01533752 -0.108475 -0.003451049 0.0156303 -0.108475 -0.005164682 0.01571387 -0.108475 -0.004268586 0.003228366 -0.108475 0.003214716 0.002553403 -0.108475 0.003214716 0.003228366 -0.108475 0.001042604 0.002553403 -0.108475 0.0010432 0.002553403 -0.108475 -0.004268586 0.003228366 -0.108475 -0.004268586 0.002553403 -0.108475 3.21178e-4 0.003228366 -0.108475 3.21655e-4 -0.01501071 -0.108475 0.001059889 -0.02475118 -0.108475 0.001069188 -0.02475118 -0.108475 3.02224e-4 -0.03006708 -0.108475 0.001074314 -0.03006708 -0.108475 2.98409e-4 -0.02557647 -0.108475 0.001070022 -0.0255692 -0.108475 3.01628e-4 -0.02552652 -0.108475 -0.004268586 -0.02475118 -0.108475 -0.004268586 -0.02559649 -0.108475 0.003214716 -0.02475118 -0.108475 0.003214716 0.01839345 -0.108475 -0.004268586 0.01359683 -0.108475 3.28927e-4 -0.006806492 -0.108475 3.14741e-4 -0.03323924 -0.126475 -0.01549881 -0.04136657 -0.126475 -0.01549881 -0.03323924 -0.1039749 -0.01549881 -0.04136657 -0.1039749 -0.01549881 -0.03090524 -0.126475 -0.009018838 -0.03090524 -0.1039749 -0.009018838 -0.02552652 -0.126475 -0.009018838 -0.02552652 -0.1039749 -0.009018838 -0.02552652 -0.126475 -0.004268586 -0.02552652 -0.1039749 -0.004268586 -0.02475118 -0.1039749 -0.004268586 -0.02475118 -0.1039749 -0.008999407 -0.02475118 -0.126475 -0.008999407 -0.02475118 -0.126475 3.02224e-4 -0.0193423 -0.126475 -0.008999407 -0.0193423 -0.1039749 -0.008999407 -0.01720798 -0.126475 -0.01549881 -0.01720798 -0.1039749 -0.01549881 -0.009097814 -0.126475 -0.01549881 -0.009097814 -0.1039749 -0.01549881 -0.01471948 -0.126475 3.09138e-4 -0.01309156 -0.1039749 -0.004268586 -0.006806492 -0.1039749 -0.004268586 -0.006806492 -0.1039749 -0.01549881 -0.006806492 -0.126475 -0.01549881 -0.006806492 -0.126475 3.14741e-4 0.002553403 -0.126475 -0.01549881 0.002553403 -0.1039749 -0.01549881 0.002553403 -0.126475 3.21178e-4 0.002553403 -0.1039749 -0.004268586 0.003228366 -0.1039749 -0.004268586 0.003228366 -0.1039749 -0.01549881 0.003228366 -0.126475 -0.01549881 0.003228366 -0.126475 3.21655e-4 0.008063971 -0.126475 -0.0153169 0.008063971 -0.1039749 -0.0153169 0.01253896 -0.126475 -0.0130704 0.01253896 -0.1039749 -0.0130704 0.01474124 -0.126475 -0.009912431 0.01474124 -0.1039749 -0.009912431 0.0156303 -0.126475 -0.005164682 0.01533967 -0.126475 -0.008278191 0.01533967 -0.1039749 -0.008278191 0.01571387 -0.1039749 -0.004268586 0.01839345 -0.1039749 -0.004268586 0.01839345 -0.1039749 -0.01549881 0.01839345 -0.126475 -0.01549881 0.01839345 -0.126475 3.32265e-4 0.02775341 -0.126475 -0.01549881 0.02775341 -0.1039749 -0.01549881 0.02775341 -0.126475 3.38821e-4 0.02775341 -0.1039749 -0.004268586 0.02842837 -0.1039749 -0.004268586 0.02842837 -0.1039749 -0.01549881 0.02842837 -0.126475 -0.01549881 0.02842837 -0.126475 3.39298e-4 0.03326398 -0.126475 -0.0153169 0.03326398 -0.1039749 -0.0153169 0.03773897 -0.126475 -0.0130704 0.03773897 -0.1039749 -0.0130704 0.03994125 -0.126475 -0.009912431 0.03994125 -0.1039749 -0.009912431 0.04053968 -0.1039749 -0.008278191 0.04083031 -0.1039749 -0.005164682 0.04053968 -0.126475 -0.008278191 0.04083031 -0.126475 -0.005164682 0.04054218 -0.1039749 -0.003448903 0.03882342 -0.1039749 3.41086e-4 0.04054218 -0.126475 -0.003448903 0.03882342 -0.126475 3.41086e-4 0.03102797 -0.126475 3.41086e-4 0.03102797 -0.1039749 3.41086e-4 0.03102797 -0.1039749 0.00101602 0.03823846 -0.126475 0.00101602 0.03102797 -0.126475 0.00101602 0.03823846 -0.1039749 0.00101602 0.03490847 -0.126475 0.003214716 0.03490847 -0.1039749 0.003214716 0.03772729 -0.126475 0.006610035 0.03772729 -0.1039749 0.006610035 0.0382418 -0.1039749 0.008200526 0.03800648 -0.1039749 0.01169848 0.0382418 -0.126475 0.008200526 0.03800648 -0.126475 0.01169848 0.03729051 -0.1039749 0.01321315 0.03398042 -0.1039749 0.01632797 0.03729051 -0.126475 0.01321315 0.03398042 -0.126475 0.01632797 0.02842837 -0.126475 0.01681113 0.02842837 -0.1039749 0.01681113 0.02842837 -0.126475 0.001018524 0.02842837 -0.1039749 0.003214716 0.02775341 -0.1039749 0.003214716 0.02775341 -0.1039749 0.01681113 0.02775341 -0.126475 0.01681113 0.02775341 -0.126475 0.001019239 0.01839345 -0.126475 0.01681113 0.01839345 -0.1039749 0.01681113 0.01839345 -0.126475 0.00102806 0.01839345 -0.1039749 0.003214716 0.009708464 -0.1039749 0.003214716 0.01259869 -0.126475 0.006820678 0.009708464 -0.126475 0.003214716 0.01259869 -0.1039749 0.006820678 0.0130735 -0.1039749 0.008418679 0.01272946 -0.1039749 0.01191449 0.0130735 -0.126475 0.008418679 0.01272946 -0.126475 0.01191449 0.01196819 -0.1039749 0.01340746 0.008601009 -0.1039749 0.01639509 0.01196819 -0.126475 0.01340746 0.008601009 -0.126475 0.01639509 0.003228366 -0.126475 0.01681113 0.003228366 -0.1039749 0.01681113 0.003228366 -0.126475 0.001042604 0.003228366 -0.1039749 0.003214716 0.002553403 -0.1039749 0.003214716 0.002553403 -0.1039749 0.01681113 0.002553403 -0.126475 0.01681113 0.002553403 -0.126475 0.0010432 -0.006806492 -0.126475 0.01681113 -0.006806492 -0.1039749 0.01681113 -0.006806492 -0.126475 0.001052141 -0.006806492 -0.1039749 0.003214716 -0.01575279 -0.1039749 0.003214716 -0.02043759 -0.1039749 0.01681816 -0.02043759 -0.126475 0.01681816 -0.01501071 -0.126475 0.001059889 -0.02475118 -0.126475 0.01681816 -0.02475118 -0.1039749 0.01681816 -0.02475118 -0.126475 0.001069188 -0.02475118 -0.1039749 0.003214716 -0.02559649 -0.1039749 0.003214716 -0.02559649 -0.1039749 0.01681816 -0.02559649 -0.126475 0.01681816 -0.02559649 -0.126475 0.003214716 -0.03006708 -0.126475 0.01681816 -0.03006708 -0.1039749 0.01681816 -0.03576493 -0.126475 0.001074314 -0.03576493 -0.1039749 0.001074314 -0.03006708 -0.126475 0.001074314 -0.03006708 -0.1039749 0.001074314 -0.03006708 -0.1039749 2.98409e-4 -0.03576493 -0.126475 2.98409e-4 -0.03006708 -0.126475 2.98409e-4 -0.03576493 -0.1039749 2.98409e-4 -0.0255692 -0.126475 3.01628e-4 0.01533752 -0.126475 -0.003451049 0.01359683 -0.126475 3.28927e-4 0.01304966 -0.126475 0.001033186 -0.02557647 -0.126475 0.001070022</float_array>
          <technique_common>
            <accessor source="#Link4_001-mesh-positions-array" count="778" stride="3">
              <param name="X" type="float"/>
              <param name="Y" type="float"/>
              <param name="Z" type="float"/>
            </accessor>
          </technique_common>
        </source>
        <source id="Link4_001-mesh-normals">
          <float_array id="Link4_001-mesh-normals-array" count="2655">-0.0217244 0.9959601 -0.08712899 -0.02172458 0.9959599 -0.08713102 -0.02172559 0.9959598 -0.08713275 -0.02173179 0.9959599 -0.08712977 -0.02172547 0.9959596 -0.08713513 -0.02172464 0.9959596 -0.08713543 -0.02172565 0.9959596 -0.08713567 -0.02172541 0.9959598 -0.08713209 -0.02172487 0.9959597 -0.08713471 -0.02172517 0.9959596 -0.08713477 -0.02172529 0.9959595 -0.08713597 -0.02172535 0.9959596 -0.08713597 -0.02172476 0.9959598 -0.08713334 -0.02172505 0.9959598 -0.08713293 0.1617255 0.9063085 0.3904482 0.1617292 0.9063079 0.3904482 0.16173 0.9063069 0.3904502 0.1617301 0.906308 0.3904476 3.84836e-6 0.9063086 0.4226167 0 0.9063078 0.4226183 0 0.9063077 0.4226184 -3.84835e-6 0.9063084 0.4226172 -0.1617287 0.9063082 0.3904476 -0.161729 0.9063076 0.3904487 -0.1617273 0.9063072 0.3904507 -0.1617292 0.9063079 0.390448 0.08715569 0.9961947 0 0.08716309 0.9961941 -9.59236e-6 0.08715242 0.996195 0 0.08715587 0.9961948 5.74915e-5 1 0 0 -1 0 0 -1 -3.01258e-6 0 0.7071068 0 0.7071068 0.707112 -7.88868e-6 0.7071015 0.7071263 0 0.7070873 -0.7071074 0 0.7071062 -0.7071068 0 0.7071068 -0.4226189 0.9063075 0 -0.4226185 0.9063077 -7.3543e-7 -0.4226183 0.9063078 -9.87619e-7 -0.3904485 0.9063078 0.1617286 -0.3904485 0.9063077 0.1617292 -0.3904481 0.9063079 0.1617295 -0.3904491 0.9063076 -0.1617287 -0.3904487 0.9063078 -0.1617285 -0.3904488 0.9063076 -0.1617294 -0.02172541 0.9959595 0.08713668 -0.02172535 0.9959597 0.087134 -0.0217244 0.9959641 0.08708411 -0.02172517 0.9959596 0.08713555 -0.02172523 0.9959596 0.08713477 -0.02172523 0.9959596 0.08713489 -0.02172523 0.9959595 0.08713608 -0.02172535 0.9959597 0.08713442 -0.02172571 0.9959595 0.0871362 -0.02173286 0.9959566 0.08716726 -0.02173048 0.9959611 0.08711689 -0.02164012 0.9959424 0.08735322 -0.02172851 0.9959599 0.08713108 -0.02174705 0.9959494 0.08724671 0 1 2.78765e-6 0 1 0 0 1 -2.431e-6 0 1 1.21549e-6 0 1 -1.12119e-6 0 1 2.43097e-6 0 1 -1.39384e-6 0.05592125 0.6391839 -0.7670183 0.05592155 0.6391845 -0.7670176 0.05592155 0.6391824 -0.7670195 0.05591988 0.6391842 -0.7670179 0.05592256 0.6391977 -0.7670066 0.05590772 0.6389749 0.7671933 0.05592 0.6391751 0.7670255 0.05592358 0.6391864 0.767016 0.05592143 0.6391806 0.767021 0.05592131 0.6391831 0.7670189 0.01463413 0.1672697 0.9858027 0.01463222 0.1672692 0.9858027 0.01463413 0.1672691 0.9858027 0.01463145 0.1672612 0.9858042 0.01463401 0.1672685 0.9858028 0.01968735 0.2250285 -0.9741533 0.01968735 0.2250281 -0.9741533 0.01968741 0.2250283 -0.9741534 -0.2419218 -1.64372e-6 0.9702958 -0.2419221 0 0.9702957 -0.08496701 -0.936295 0.3407822 -0.08496701 -0.9362941 0.3407844 -0.2419216 0 -0.9702959 -0.2419214 0 -0.9702959 -0.08496677 -0.936294 -0.3407847 -0.08496648 -0.936295 -0.3407821 0.08007228 0.91523 -0.3948956 0.08007228 0.9152306 -0.3948945 0.7071065 0 -0.7071071 0.707107 0 -0.7071067 0 0 -1 -0.7071058 0 -0.7071078 -0.7071077 0 -0.7071059 0.08528459 0.9748067 0.2061032 0.08528459 0.9748068 0.2061028 0 0 1 6.24522e-7 0 1 0 0.7071068 -0.7071068 0 0.7071066 -0.707107 0 0.7071064 0.7071073 0 0.7071059 0.7071076 0 0.1365159 0.9906379 0 0.1365159 0.990638 0 0.04563325 0.9989583 0 0.04563331 0.9989583 0 -0.04563325 0.9989583 0 -0.04563331 0.9989583 0 -0.1365158 0.990638 0 -0.136516 0.9906379 0 -0.7071059 0.7071076 0 -0.7071064 0.7071073 0 -1 0 0 -0.707107 -0.7071066 0 -0.7071064 -0.7071072 1 2.05765e-6 0 1 -2.49634e-6 0 1 2.39053e-6 0 1 -2.74422e-6 0 1 -3.30286e-7 0 1 3.30286e-7 0 1 1.52191e-6 0 1 -5.04322e-7 0 1 5.04322e-7 0 1 7.8469e-7 0 1 6.99191e-7 0 1 6.21735e-7 0 0.05592113 -0.6391805 0.7670211 0.05592101 -0.639181 0.7670207 0.08715569 -0.9961948 0 0.08715575 -0.9961948 0 0.08715575 -0.9961947 0 0.08715575 -0.9961947 -7.04538e-7 -1.33009e-7 0 -1 0.05592131 -0.6391839 -0.7670181 0.05592137 -0.6391845 -0.7670177 0.0146321 -0.1672696 0.9858027 0.01463472 -0.1672753 0.9858017 0.01463401 -0.1672686 0.9858028 0.01463407 -0.1672683 0.9858028 0.08528447 -0.9748067 0.2061029 0.08528453 -0.9748067 0.2061033 0.0852847 -0.9748066 0.2061038 0.08528453 -0.974807 0.2061023 0.0800721 -0.9152285 -0.394899 0.08007216 -0.9152305 -0.3948947 0.08007311 -0.9152361 -0.3948813 0.08007228 -0.9152302 -0.3948953 0.01968735 -0.2250283 -0.9741534 0.01968747 -0.2250284 -0.9741533 0 -1 -3.43379e-7 0 -1 3.43377e-7 0 -1 0 0 -1 0 0 -1 0 0 -1 0 0 -1 0 0 -1 0 0 -1 -1.47308e-7 0 -1 3.76947e-7 0 -1 -3.58478e-7 0 1 0 0 1 0 0 1 0 0 1 -1.02399e-6 0 1 4.62135e-7 0 1 -2.57475e-7 0 1 2.96799e-7 0 1 0 0.8620746 0.06159776 -0.5030241 0.9064509 0 0.4223114 0.9064508 0 0.4223115 0.9624987 0 0.2712867 0.9624987 0 0.2712867 0.9935691 0 0.1132276 0.9935691 0 0.1132276 0.9988584 0 -0.04776984 0.9988584 0 -0.04776984 0.9782287 0 -0.2075302 0.9322183 0 -0.3618967 0.9322183 0 -0.3618966 0.8852427 0 -0.4651294 0.8852432 0 -0.4651287 1 -6.71995e-6 0 0 1 1.24415e-6 0 1 -3.25531e-6 0 1 -3.67923e-7 0 1 -4.88261e-6 0 1 7.78074e-7 0 1 1.0176e-6 0 1 6.75673e-7 0 1 3.30122e-7 0 1 -7.35865e-7 0 1 1.62756e-6 0 1 -1.24415e-6 0 1 -4.09203e-6 0 1 -6.47796e-7 0 1 -6.39067e-7 0 1 -5.11505e-7 0 1 3.67941e-7 -0.381751 -0.06975704 0.9216291 -0.381751 -0.06975704 0.9216291 0 -0.06975704 0.997564 0 -0.06975704 0.9975641 -0.7053847 -0.06975686 0.705384 -0.7053795 -0.06979596 0.7053852 -0.7053841 -0.06977558 0.7053827 -0.7053841 -0.06975668 0.7053845 -0.7053839 -0.06975674 0.7053847 0.381751 -0.0697571 0.9216291 0.381751 -0.06975698 0.9216291 0.7053858 -0.06975686 0.7053828 0.7053858 -0.06975698 0.7053827 0.9216287 -0.06975698 0.381752 0.9216287 -0.06975716 0.3817522 0.997564 -0.06975698 0 0.9975641 -0.06975686 0 -0.7053831 -0.06973904 -0.7053872 -0.7053855 -0.06975406 -0.7053834 -0.7053869 -0.06975513 -0.7053819 -0.7053841 -0.0697574 -0.7053845 -0.7053846 -0.06975489 -0.7053841 0.9216291 -0.06975704 -0.3817511 0.9216291 -0.06975716 -0.3817512 -0.3817511 -0.06975507 -0.9216293 -0.3817484 -0.06975704 -0.9216302 0.7053844 -0.06975543 -0.7053843 0.7053858 -0.06975698 -0.7053827 0 -0.06975704 -0.997564 0 -0.06975704 -0.9975641 0.381751 -0.06975704 -0.9216291 0.3817484 -0.06975501 -0.9216303 -0.9216261 -0.06978482 0.3817532 0 -0.8507983 0.5254924 0 -0.8507984 0.5254924 0.2010974 -0.8507985 0.4854913 0.2010973 -0.8507983 0.4854916 -0.2010977 -0.8507981 0.4854918 -0.201097 -0.8507984 0.4854915 0.3715801 -0.8507977 0.3715799 0.3715803 -0.8507982 0.3715784 -0.3715794 -0.8507984 0.3715792 -0.3715807 -0.8507979 0.3715787 0.4854922 -0.8507984 0.2010955 0.4854926 -0.8507976 0.2010985 -0.4854932 -0.8507975 0.2010975 -0.4854919 -0.8507978 0.2010985 -0.4854922 -0.8507978 0.2010983 -0.4854922 -0.8507977 0.2010991 0.5254926 -0.8507983 0 0.5254923 -0.8507984 0 -0.5254938 -0.8507975 0 -0.5254936 -0.8507976 0 0.4854938 -0.8507974 -0.2010961 0.4854918 -0.8507983 -0.2010971 -0.4854929 -0.8507974 -0.201098 -0.4854924 -0.8507982 -0.2010962 -0.4854872 -0.8507987 -0.2011069 0.3715791 -0.8507984 -0.3715792 0.3715808 -0.8507978 -0.3715789 -0.3715803 -0.8507977 -0.3715797 -0.3715839 -0.8508048 -0.3715596 -0.3715792 -0.8507983 -0.3715792 0.2010982 -0.8507976 -0.4854925 0.2010959 -0.8507982 -0.4854926 -0.2010976 -0.8507984 -0.4854913 -0.2010963 -0.8507978 -0.485493 0 -0.8507975 -0.5254938 0 -0.8507976 -0.5254937 -0.3195775 -0.5501183 0.7715182 -0.3195735 -0.5501216 0.7715173 0 -0.5501191 0.8350864 0 -0.5501194 0.8350861 -0.5904945 -0.5501215 0.5904937 -0.590494 -0.5501215 0.5904942 0.3195749 -0.5501219 0.7715166 0.3195738 -0.55012 0.7715185 -0.7715179 -0.5501212 0.3195729 -0.7715158 -0.5501235 0.3195741 0.590494 -0.5501213 0.5904942 0.590494 -0.5501213 0.5904942 -0.8350835 -0.5501232 0 -0.8350839 -0.5501229 0 0.7715183 -0.5501204 0.3195734 0.7715186 -0.5501211 0.3195716 -0.7715173 -0.550122 -0.3195729 -0.7715172 -0.550122 -0.3195732 0.8350864 -0.5501191 0 0.8350862 -0.5501192 0 -0.5904945 -0.5501215 -0.5904937 -0.590494 -0.5501213 -0.5904942 0.7715176 -0.5501216 -0.3195728 0.7715202 -0.5501192 -0.3195708 -0.3195728 -0.5501216 -0.7715176 -0.3195733 -0.5501219 -0.7715172 0.590494 -0.5501216 -0.590494 0.5904942 -0.5501213 -0.5904942 0 -0.5501232 -0.8350836 0 -0.5501227 -0.8350839 0.3195704 -0.5501238 -0.771517 0.3195732 -0.5501211 -0.7715179 0 -1 -2.78948e-6 0 -1 2.29834e-7 0 -1 2.71108e-7 0 -1 -2.78952e-6 -0.3596041 -0.3420168 0.8681645 -0.3596062 -0.3420213 0.8681619 0 -0.3420177 0.9396935 0 -0.3420177 0.9396936 0.3596034 -0.3420211 0.868163 0.3596057 -0.3420178 0.8681634 0.6644641 -0.3420209 0.6644617 0.6644642 -0.3420208 0.6644614 0.8681637 -0.3420179 0.3596046 0.8681617 -0.3420212 0.3596064 0.9396935 -0.342018 0 0.9396935 -0.3420178 0 0.8681627 -0.342021 -0.3596042 0.8681628 -0.3420179 -0.3596069 0.6644636 -0.3420184 -0.6644634 0.6644641 -0.342021 -0.6644615 0.3596055 -0.3420212 -0.8681622 0.3596035 -0.3420178 -0.8681643 0 -0.3420212 -0.9396923 0 -0.3420212 -0.9396923 -0.3596044 -0.3420178 -0.8681639 -0.3596057 -0.3420199 -0.8681626 -0.6644687 -0.3420178 -0.6644586 -0.6644538 -0.3420265 -0.664469 -0.6644635 -0.3420188 -0.6644633 -0.6644623 -0.3420211 0.6644634 -0.664463 -0.3420209 0.6644628 0.7071067 0 -0.7071069 0.707107 0 -0.7071067 0.3826842 0 -0.9238793 0.3826841 0 -0.9238793 0.9238798 0 -0.3826829 0.9238798 0 -0.3826829 0.9238798 0 0.3826829 0.9238799 0 0.3826829 0.7071082 0 0.7071055 0.7071081 0 0.7071055 0.3826817 0 0.9238802 0.3826822 0 0.9238802 -0.3826848 0 0.923879 -0.382683 0 0.9238798 -0.382682 -1.88493e-6 0.9238802 -0.382681 0 0.9238806 -0.3826797 0 0.9238811 -0.3826785 1.29366e-5 0.9238816 -0.7071063 0 0.7071073 -0.707107 0 0.7071066 -0.7071068 0 -0.7071068 -0.707107 0 -0.7071067 -0.7071067 -1.5393e-6 -0.7071069 -0.3826845 0 -0.9238792 -0.3826808 -1.3799e-5 -0.9238807 -0.3826859 0 -0.9238786 -0.3826872 0 -0.923878 -0.3826832 2.81511e-6 -0.9238796 -0.3826842 0 -0.9238793 -0.7071066 0 -0.707107 -0.7071077 0 0.7071059 0.3904481 0.9063076 0.161731 0.390448 0.906308 0.1617293 0.2988361 0.9063078 0.2988362 0.2988359 0.906308 0.2988361 0.4226185 0.9063077 0 0.4226186 0.9063076 0 0.3904474 0.906308 -0.16173 0.3904486 0.9063076 -0.16173 0.2988358 0.9063081 -0.2988361 0.2988368 0.9063078 -0.2988358 0.161729 0.9063078 -0.3904485 0.1617282 0.9063078 -0.3904487 -0.2988363 0.9063078 0.2988363 -0.2988365 0.9063079 0.2988359 -0.2988348 0.9063081 0.2988368 0 0.9063079 -0.4226181 0 0.9063076 -0.4226188 -0.1617279 0.9063076 -0.3904495 -0.1617284 0.9063079 -0.3904487 -0.2988395 0.9063082 -0.2988318 -0.2988362 0.9063079 -0.2988358 -0.2988363 0.9063078 -0.2988363 0 1 3.9697e-6 0 1 -1.57155e-6 0 1 -1.4022e-6 0 1 2.68904e-6 0 1 4.85542e-7 0 1 -8.97167e-7 0 1 -2.06937e-6 -0.00367707 0.9998844 0.01475745 -0.002197325 0.9999344 0.01124483 -0.001129269 0.9998961 0.01437205 0.00106132 0.9999349 0.01136863 0.00106126 0.999917 0.01284474 0.002679407 0.9999348 0.01111155 0.002721488 0.9999367 0.01091998 0.003811359 0.9998759 0.01529091 0.001312971 0.9995917 0.02854514 -0.004639208 0.9998228 0.01824927 -0.004911959 0.9997936 0.01971286 -0.004773616 0.9997949 0.01968801 0.7071048 0 0.7071088 0.7071033 0 0.7071103 0.7071059 0 0.7071077 -0.7071081 0 0.7071055 -0.7071029 -3.74631e-7 0.7071108 -0.7071059 0 0.7071077 0.7071089 0.7071048 0 0.7071076 0.7071061 -3.81592e-7 0.7071055 0.7071081 0 -0.8427739 0 0.5382679 -0.8427022 -1.01911e-4 0.5383801 -0.8428485 0 0.5381509 -1 5.9686e-7 0 -1 -5.37221e-7 0 -1 -5.75858e-7 0 -1 4.1437e-6 0 -1 -6.43183e-7 0 -1 1.31869e-6 0 -1 1.09864e-6 0 -1 -6.15436e-7 0 -1 -6.99472e-7 0 -1 -3.38197e-7 0 -1 1.23087e-6 0 -1 4.11825e-7 0 -1 -4.11825e-7 0 -1 6.43183e-7 0 -1 -1.26606e-6 0 -1 2.07164e-6 0 -1 -5.9686e-7 0 -1 -1.1308e-6 0 -1 1.22397e-6 0 -1 2.82316e-6 0 0 0.8314656 -0.5555763 0 0.8314762 -0.5555605 0 0.9807853 -0.1950906 0 0.9807854 -0.1950895 0 0.9807854 0.1950895 0 0.9807853 0.1950906 0 0.8314656 0.5555763 0 0.8314762 0.5555605 0 0.5555666 0.8314721 0 0.5555725 0.8314682 0 0.1950871 0.980786 0 0.1950954 0.9807843 0 -0.1950871 0.980786 0 -0.1950954 0.9807843 0 -0.5555666 0.8314721 0 -0.5555725 0.8314682 0 -0.8314656 0.5555763 0 -0.8314762 0.5555605 0 -0.9807853 0.1950906 0 -0.9807854 0.1950895 0 -0.9807854 -0.1950895 0 -0.9807853 -0.1950906 0 -0.8314656 -0.5555763 0 -0.8314762 -0.5555605 0 -0.5555666 -0.8314721 0 -0.5555725 -0.8314682 0 -0.1950871 -0.980786 0 -0.1950954 -0.9807843 0 0.1950871 -0.980786 0 0.1950954 -0.9807843 0 0.5555666 -0.8314721 0 0.5555725 -0.8314682 0.9175558 0.3305985 -0.2208989 0.9175552 0.3305996 -0.220899 0.9175553 0.3899686 -0.0775693 0.9175552 0.3899688 -0.07756894 0.9175582 0.3899617 0.07756954 0.9175562 0.3899663 0.07756966 0.9175551 0.3306002 0.2208989 0.9175556 0.3305988 0.2208985 0.9175562 0.2208963 0.3305988 0.9175552 0.2208984 0.3306003 0.9175554 0.07756847 0.3899685 0.9175555 0.07757312 0.3899672 0.9175558 -0.07756829 0.3899676 0.9175553 -0.0775687 0.3899685 0.9175557 -0.2208968 0.3305996 0.9175557 -0.2208978 0.3305991 0.9175539 -0.330604 0.2208984 0.9175569 -0.3305951 0.2208992 0.9175571 -0.3899644 0.07756966 0.9175579 -0.3899623 0.07756954 0.9175552 -0.3899687 -0.07756906 0.9175552 -0.3899686 -0.07756918 0.9175563 -0.3305968 -0.2208988 0.917555 -0.3306002 -0.2208994 0.9175561 -0.2208964 -0.3305989 0.9175552 -0.2209016 -0.3305979 0.9175557 -0.07757133 -0.3899671 0.9175553 -0.0775721 -0.3899679 0.9175558 0.07756829 -0.3899676 0.9175557 0.07757198 -0.3899672 0.917555 0.2209022 -0.3305982 0.917557 0.220893 -0.330599 0 0.5555707 -0.8314693 0 0.5555709 -0.8314692 0 0.1950888 -0.9807856 0 -0.1950888 -0.9807856 0 -0.1950888 -0.9807856 0 -0.5555709 -0.8314693 0 -0.5555707 -0.8314694 0 -0.831469 -0.5555713 0 -0.8314689 -0.5555713 0 -0.9807854 -0.1950898 0 -0.9807856 -0.1950895 0 -0.9807853 0.1950904 0 -0.9807853 0.1950907 0 -0.8314705 0.5555689 0 -0.8314705 0.5555689 0 -0.5555673 0.8314716 0 -0.5555675 0.8314715 0 -0.1950935 0.9807847 0 -0.1950934 0.9807847 0 0.1950935 0.9807847 0 0.1950934 0.9807847 0 0.5555675 0.8314715 0 0.5555673 0.8314716 0 0.8314705 0.5555689 0 0.8314705 0.5555689 0 0.9807853 0.1950907 0 0.9807853 0.1950904 0 0.9807855 -0.1950895 0 0.9807854 -0.1950898 0 0.831469 -0.5555713 0 0.8314689 -0.5555713 0.2587995 0 -0.9659312 0.2587969 0 -0.9659318 -0.2587821 0 -0.9659358 -0.2587854 0 -0.9659349 -0.7071349 0 -0.7070787 -0.7071363 0 -0.7070773 -0.965917 0 -0.2588523 -0.9659171 0 -0.258852 -0.965917 0 0.2588523 -0.965917 0 0.2588523 -0.7071349 0 0.7070787 -0.7071356 0 0.707078 -0.2587834 0 0.9659354 -0.2587854 0 0.9659349 0.2587995 0 0.9659312 0.2587981 0 0.9659314 0.9659313 0 0.2587988 0.9659314 0 0.2587981 0.9659314 0 -0.2587985 0.9659314 0 -0.2587981 0.7071076 0 -0.7071061 0.7071068 0 -0.7071068 0 1 7.27606e-6 0 1 -4.20071e-6 0 1 9.93927e-6 -0.2587834 0 -0.9659354 -0.2587841 0 -0.9659352 -0.7071356 0 -0.707078 -0.9659209 0 0.2588375 -0.9659209 0 0.2588379 -0.7071054 0 0.7071082 -0.2588398 0 0.9659203 -0.2588379 0 0.9659209 0.258852 0 0.9659171 0.2588546 0 0.9659164 0.707078 0 0.7071356 0.7070773 0 0.7071363 0.9659352 0 0.2587844 0.9659354 0 0.2587834 0.2587981 0 -0.9659314 0 1 -3.63798e-6 0 1 4.72574e-6 0 1 -1.14766e-5 0 1 9.93878e-6 0 1 4.04628e-6 0 1 -4.99999e-6 0 1 8.96572e-6 0 1 2.31252e-6 0 1 -2.12047e-6 0 1 5.60671e-6 0 1 -1.68686e-5 0 1 6.41864e-6 -0.940837 0 -0.3388594 -0.940837 0 -0.3388593 0.9500905 0 -0.3119745 0.9500905 0 -0.3119744 -0.9421969 0 0.3350598 -0.9421972 1.9274e-7 0.3350592 -0.9421973 0 0.3350586 -0.9421973 0 0.3350588 1 1.76386e-7 0 -0.03759384 0 -0.9992932 -0.03759384 0 -0.9992932 -0.44866 0 -0.8937026 -0.4486606 0 -0.8937023 -0.8202345 0 -0.5720275 -0.8202344 0 -0.5720278 -0.9956751 0 -0.09290379 -0.9956752 0 -0.09290367 -0.9956677 5.38962e-5 -0.0929836 -0.9956735 0 -0.09292149 -1 2.04181e-7 0 1 7.01783e-7 0 -0.4486696 0 -0.8936978 -0.4486704 0 -0.8936973 -0.82022 0 -0.5720484 -0.9956752 0 -0.09290379 -0.9107154 0 0.4130344 0 0 1 -0.5509995 0 0.8345057 -0.5509997 0 0.8345056 -0.7694024 0 -0.6387645 -0.7694023 0 -0.6387646 -0.9977449 0 0.0671215 -0.9977448 0 0.06712162 -0.6852731 0 0.7282862 -0.6852729 0 0.7282865 -0.08669686 0 0.9962348 -0.08669739 0 0.9962348 1 -2.04764e-7 0 1 2.04889e-7 0 -0.7802695 0 -0.6254435 -0.7802697 0 -0.6254433 -0.7802698 0 -0.6254431 -0.9951956 0 0.09790748 -0.9951956 0 0.0979076 -0.6637027 0 0.7479965 -0.6637027 0 0.7479965 -0.07720547 0 0.9970153 -0.07720613 0 0.9970152 -1 1.86136e-7 0 -0.9454989 0 0.3256256 -0.9454988 0 0.3256255 -0.9455093 2.55393e-5 0.3255952 -0.9455002 0 0.3256216 0.9403116 0 0.3403147 0.9403116 0 0.3403146 0.9425028 0 0.3341982 0.942503 0 0.3341979 0 -1 -6.3909e-7 0 -1 -4.75515e-7 0 -1 -9.63221e-7 0 -1 -3.49659e-6 0 -1 -9.58945e-7 0 -1 2.1211e-6 0 -1 -2.01631e-5 0 -1 -1.20034e-5 0 -1 2.95075e-6 0 -1 -2.19451e-6 0 -1 2.49115e-6 0 -1 4.46321e-6 0 -1 2.85519e-5 0 -1 9.41389e-6 0 -1 3.67155e-6 0 -1 -2.95521e-6 0 -1 4.15359e-6 0 -1 -2.40067e-6 0 -1 3.58234e-6 0 -1 1.26172e-6 0 -1 -8.22118e-6 0 -1 -3.52863e-6 0 -1 4.21483e-6 0 -1 -7.54079e-6 0 -1 -2.38628e-6 0 -1 9.65205e-7 -0.9999564 0 0.009337544 6.89132e-4 0 0.9999998 6.89088e-4 0 0.9999998 0 1 9.06728e-7 0 1 8.22294e-7 0 1 1.06187e-6 7.00478e-4 0 0.9999998 7.00479e-4 0 0.9999998 6.89225e-4 0 0.9999998 7.00499e-4 0 0.9999998 -0.908318 0 0.4182805 -0.9083179 0 0.4182808 6.89837e-4 0 0.9999998 6.89837e-4 0 0.9999998 0 1 -5.79079e-6 0 1 -7.40712e-7 0 1 -2.96941e-6 0 1 9.33591e-6 0 1 8.91668e-7 6.87855e-4 0 0.9999998 6.87935e-4 0 0.9999998 0 1 2.29482e-6 0 1 -5.62322e-6 0 1 -2.95521e-6 9.17296e-4 0 -0.9999996 9.17143e-4 0 -0.9999996 0 1 1.48364e-5 0 1 3.34685e-6 9.55189e-4 0 -0.9999996 9.55233e-4 0 -0.9999996 9.58898e-4 0 -0.9999997 9.58899e-4 0 -0.9999996 -0.5467262 0 0.8373115 -0.5467261 0 0.8373116 0 1 1.08825e-5 9.55232e-4 0 -0.9999996 9.5519e-4 0 -0.9999996 9.54589e-4 0 -0.9999996 9.5459e-4 0 -0.9999997 9.55682e-4 0 -0.9999997 9.55683e-4 0 -0.9999997 -0.9999565 0 0.009337067 -0.9999565 0 0.009337067 0 1 8.02653e-7 0 1 7.87145e-7 0 1 -9.54487e-6 -0.9390231 0 -0.3438539 -0.9390231 0 -0.3438544 -0.9857168 0 0.1684117 -0.9857167 0 0.168412 -0.9586002 0 -0.2847555 -0.8908424 0 0.4543126 -0.9514489 0 -0.3078069 -0.9514487 0 -0.3078072 -0.904126 0 0.427266 -0.9041255 0 0.4272669 -0.9862026 0 0.1655433 -0.9862025 0 0.1655432 0 -1 -4.0462e-6 0 -1 1.34555e-5 0 -1 2.31503e-5 0 -1 6.41864e-6 0 -1 -1.25554e-5 0 -1 5.05303e-5 0.9408317 0 -0.3388746 0.9408317 0 -0.3388745 -0.9500837 0 -0.3119952 -0.9500837 0 -0.3119955 0.9421968 0 0.33506 0.942195 1.54192e-6 0.3350653 0.9421943 0 0.3350671 0.9421941 0 0.3350678 0.03759288 0 -0.9992932 0.448651 0 -0.8937071 0.4486512 0 -0.893707 0.8202447 0 -0.5720129 0.8202443 0 -0.5720134 0.9956717 0 -0.09294122 0.9956717 0 -0.09294122 0.99568 6.10832e-5 -0.09285181 0.9956735 0 -0.09292149 -1 7.02856e-7 0 1 2.04181e-7 0 0.9956716 0 -0.09294152 0.9956716 0 -0.09294158 0.9107263 0 0.4130106 0.5509996 0 0.8345056 0.5509993 0 0.8345057 0.7694023 0 -0.6387645 0.7694024 0 -0.6387645 0.9977449 0 0.06712156 0.9977449 0 0.06712156 0.6852998 0 0.7282611 0.08669501 0 0.996235 0.08669537 0 0.9962349 -1 -2.04764e-7 0 -1 -4.09776e-7 0 0.7802922 0 -0.6254152 0.7802922 0 -0.6254153 0.9951922 0 0.09794121 0.9951922 0 0.0979411 0.6636893 0 0.7480084 0.6636896 0 0.7480081 0.07720553 0 0.9970153 0.07720601 0 0.9970152 1 1.86146e-7 0 -1 0 0 0.9455024 0 0.325615 0.9455023 0 0.3256155 0.9455029 -4.25676e-6 0.3256137 0.9455025 0 0.3256148 -1 2.05331e-7 0 -0.9403139 0 0.3403083 -0.9403139 0 0.3403083 -0.9424998 0 0.3342067 -0.9424998 0 0.3342067 0 1 -2.21049e-6 0 1 -1.14756e-6 0 1 1.04915e-5 0 1 2.88957e-6 0 1 -6.99349e-7 0 1 7.13241e-6 0 1 -7.47307e-6 0 1 -3.53513e-6 0 1 3.6892e-6 0 1 -6.64813e-6 0 1 6.33821e-5 0 1 9.60266e-6 0 1 4.07965e-5 0 1 -1.48585e-5 0 1 -9.65231e-7 0 1 -4.6096e-5 0 1 4.80133e-6 0 1 2.19286e-6 0 1 1.26172e-6 0 1 -1.72933e-6 0 1 -1.72881e-6 0 1 -2.47516e-6 0 1 -8.221e-6 0 1 -3.52871e-6 0 1 5.81357e-6 0 1 -3.93432e-6 0 1 -1.97014e-6 0 1 3.65364e-5 0 1 -5.19197e-7 0 1 2.38621e-6 0 1 -9.65231e-7 0.9999565 0 0.009337544 0.9999565 0 0.009337544 -7.15592e-4 0 0.9999998 0 -1 1.09337e-6 0 -1 -1.64464e-6 0 -1 3.09704e-6 -7.00489e-4 0 0.9999998 -7.00483e-4 0 0.9999998 -6.89228e-4 0 0.9999998 -6.89227e-4 0 0.9999998 0 -1 -4.41709e-6 0 -1 9.28298e-7 0 -1 -4.62433e-6 -6.87749e-4 0 0.9999998 0.9083179 0 0.4182807 -7.01334e-4 0 0.9999998 -7.01339e-4 0 0.9999998 0 -1 -6.33759e-6 0 -1 2.33398e-6 0 -1 -3.80011e-6 -6.87863e-4 0 0.9999998 -6.87844e-4 0 0.9999998 0 -1 1.14742e-6 0 -1 2.81163e-6 0 -1 -7.24882e-6 0 -1 5.25434e-6 -9.62969e-4 0 -0.9999996 -9.63047e-4 0 -0.9999995 0 -1 -3.67155e-6 0 -1 1.05095e-5 0 -1 -6.46446e-6 0 -1 2.0333e-5 0 -1 -1.22152e-6 -9.42471e-4 0 -0.9999996 -9.58907e-4 0 -0.9999996 -9.58886e-4 0 -0.9999996 0.546705 0 0.8373253 0.5467054 0 0.837325 0 -1 -5.4415e-6 0 -1 3.40613e-6 0 -1 -1.58923e-5 0 -1 1.03658e-5 -9.55211e-4 0 -0.9999996 -9.546e-4 0 -0.9999996 -9.54601e-4 0 -0.9999996 0 -1 1.71263e-6 -9.55637e-4 0 -0.9999997 -9.55682e-4 0 -0.9999997 0.9999564 0 0.009337544 0.9999565 0 0.009337544 0 -1 -5.99662e-6 0 -1 -7.87151e-7 0 -1 9.54563e-6 0.9390231 0 -0.3438541 0.9857169 0 0.1684113 0.9857169 0 0.1684111 0.9585807 0 -0.284821 0.9585808 0 -0.284821 0.8908712 0 0.4542562 0.9514558 0 -0.3077858 0.9514555 0 -0.3077864 0.9040852 0 0.4273521 0.9040854 0 0.4273518 0.9861913 0 0.16561 0.9861913 0 0.1656099</float_array>
          <technique_common>
            <accessor source="#Link4_001-mesh-normals-array" count="885" stride="3">
              <param name="X" type="float"/>
              <param name="Y" type="float"/>
              <param name="Z" type="float"/>
            </accessor>
          </technique_common>
        </source>
        <vertices id="Link4_001-mesh-vertices">
          <input semantic="POSITION" source="#Link4_001-mesh-positions"/>
        </vertices>
        <triangles material="colour_abb_white_001-material" count="1434">
          <input semantic="VERTEX" source="#Link4_001-mesh-vertices" offset="0"/>
          <input semantic="NORMAL" source="#Link4_001-mesh-normals" offset="1"/>
          <p>0 0 1 0 2 0 3 1 4 1 5 1 6 2 7 2 8 2 8 3 7 3 9 3 2 4 3 4 0 4 0 5 3 5 5 5 0 6 5 6 10 6 10 7 5 7 11 7 9 8 11 8 8 8 8 9 11 9 5 9 8 10 5 10 12 10 12 11 5 11 13 11 12 12 13 12 14 12 14 13 13 13 15 13 16 14 17 14 18 14 18 15 17 15 19 15 18 16 19 16 20 16 20 17 19 17 21 17 17 18 16 18 22 18 17 19 22 19 23 19 23 20 22 20 24 20 23 21 24 21 25 21 26 22 27 22 28 22 28 23 27 23 29 23 28 24 29 24 25 24 25 25 29 25 23 25 6 26 8 26 30 26 6 27 30 27 31 27 31 28 30 28 32 28 31 29 32 29 33 29 1 30 0 30 34 30 1 30 34 30 35 30 35 30 34 30 36 30 35 30 36 30 37 30 9 31 7 31 38 31 38 32 7 32 39 32 38 31 39 31 40 31 40 31 39 31 41 31 37 33 36 33 42 33 42 34 36 34 43 34 42 35 43 35 44 35 45 36 46 36 47 36 47 37 46 37 48 37 49 38 50 38 51 38 51 39 50 39 52 39 51 40 52 40 53 40 51 41 53 41 54 41 54 42 53 42 55 42 54 43 55 43 56 43 50 44 49 44 2 44 2 45 49 45 57 45 2 46 57 46 3 46 55 47 58 47 56 47 56 48 58 48 59 48 60 49 61 49 62 49 62 50 61 50 63 50 62 51 63 51 58 51 45 52 62 52 46 52 46 53 62 53 58 53 46 54 58 54 44 54 44 55 58 55 55 55 44 56 55 56 42 56 45 57 64 57 62 57 62 58 64 58 65 58 62 59 65 59 33 59 33 60 65 60 31 60 59 61 58 61 29 61 29 62 58 62 66 62 29 62 66 62 23 62 23 62 66 62 67 62 23 63 67 63 17 63 17 62 67 62 68 62 17 62 68 62 19 62 19 62 68 62 69 62 19 64 69 64 70 64 70 62 69 62 71 62 70 62 71 62 72 62 72 62 71 62 73 62 72 62 73 62 74 62 74 62 73 62 75 62 74 62 75 62 76 62 76 62 75 62 77 62 76 62 77 62 78 62 78 65 77 65 79 65 78 62 79 62 80 62 80 62 79 62 81 62 80 66 81 66 82 66 82 62 81 62 83 62 82 62 83 62 84 62 84 62 83 62 85 62 84 67 85 67 4 67 4 62 85 62 5 62 86 68 87 68 88 68 88 69 87 69 89 69 88 70 89 70 14 70 14 71 89 71 90 71 14 72 90 72 12 72 60 73 62 73 91 73 92 74 93 74 94 74 60 75 91 75 94 75 94 76 91 76 95 76 94 77 95 77 92 77 96 78 92 78 95 78 97 79 96 79 98 79 98 80 96 80 95 80 98 81 95 81 99 81 99 82 95 82 100 82 89 83 87 83 101 83 101 84 87 84 102 84 101 85 102 85 103 85 60 86 94 86 61 86 61 87 94 87 104 87 104 88 94 88 105 88 105 89 94 89 93 89 106 90 88 90 15 90 15 91 88 91 14 91 86 92 88 92 107 92 107 93 88 93 106 93 12 94 90 94 8 94 8 95 90 95 30 95 108 96 34 96 10 96 10 97 34 97 0 97 109 98 108 98 11 98 11 98 108 98 10 98 38 99 109 99 9 99 9 100 109 100 11 100 33 101 32 101 62 101 62 102 32 102 91 102 43 103 48 103 44 103 44 104 48 104 46 104 110 98 111 98 112 98 112 98 111 98 113 98 114 105 115 105 112 105 112 106 115 106 110 106 116 62 117 62 114 62 114 62 117 62 115 62 118 107 119 107 116 107 116 108 119 108 117 108 119 109 118 109 120 109 119 110 120 110 121 110 121 111 120 111 122 111 121 112 122 112 123 112 123 113 122 113 124 113 123 114 124 114 125 114 125 115 124 115 126 115 125 116 126 116 127 116 128 117 129 117 126 117 126 118 129 118 127 118 130 119 131 119 128 119 128 119 131 119 129 119 113 120 111 120 130 120 130 121 111 121 131 121 132 122 131 122 133 122 133 123 131 123 111 123 100 30 95 30 119 30 110 124 115 124 90 124 119 30 95 30 117 30 90 125 89 125 110 125 110 126 89 126 101 126 110 30 101 30 111 30 111 30 101 30 134 30 111 127 134 127 133 127 95 128 91 128 117 128 117 30 91 30 32 30 117 30 32 30 115 30 115 30 32 30 30 30 115 30 30 30 90 30 119 30 121 30 100 30 100 129 121 129 123 129 100 30 123 30 135 30 135 130 123 130 125 130 135 30 125 30 136 30 136 131 125 131 127 131 136 30 127 30 137 30 137 30 127 30 129 30 137 30 129 30 138 30 138 30 129 30 131 30 138 132 131 132 139 132 139 133 131 133 132 133 99 103 100 103 140 103 140 103 100 103 135 103 140 103 135 103 141 103 136 134 137 134 142 134 142 135 137 135 143 135 144 136 145 136 138 136 144 137 138 137 146 137 146 138 138 138 139 138 146 139 139 139 147 139 103 98 148 98 149 98 150 98 151 98 152 98 152 140 151 140 134 140 152 98 134 98 149 98 149 98 134 98 101 98 149 98 101 98 103 98 132 141 133 141 153 141 153 142 133 142 154 142 142 143 155 143 156 143 141 144 135 144 156 144 156 145 135 145 136 145 156 146 136 146 142 146 157 147 143 147 137 147 138 148 145 148 137 148 137 149 145 149 158 149 137 150 158 150 157 150 132 151 153 151 159 151 132 152 159 152 139 152 139 153 159 153 160 153 139 154 160 154 147 154 133 155 134 155 154 155 154 156 134 156 151 156 161 157 162 157 163 157 164 158 165 158 166 158 167 119 168 119 164 119 97 119 98 119 169 119 170 119 171 119 172 119 172 119 167 119 170 119 170 119 167 119 164 119 170 119 164 119 173 119 173 119 164 119 166 119 173 119 166 119 163 119 163 159 166 159 97 159 163 160 97 160 161 160 161 161 97 161 148 161 97 119 169 119 148 119 148 162 169 162 174 162 148 163 174 163 175 163 175 119 176 119 148 119 148 164 176 164 177 164 148 165 177 165 178 165 178 166 179 166 148 166 148 167 179 167 180 167 148 119 180 119 149 119 181 62 156 62 155 62 182 62 155 62 183 62 183 168 155 168 184 168 150 62 152 62 185 62 186 62 183 62 187 62 187 62 183 62 188 62 187 62 188 62 189 62 189 62 188 62 190 62 191 62 188 62 192 62 192 62 188 62 183 62 192 62 183 62 193 62 193 62 183 62 184 62 182 169 194 169 155 169 155 170 194 170 150 170 155 62 150 62 181 62 181 62 150 62 195 62 185 171 196 171 150 171 150 172 196 172 197 172 150 173 197 173 198 173 198 174 199 174 150 174 150 175 199 175 200 175 150 62 200 62 195 62 201 176 181 176 195 176 185 177 180 177 179 177 185 178 179 178 196 178 196 179 179 179 178 179 196 180 178 180 197 180 197 181 178 181 177 181 197 182 177 182 198 182 198 183 177 183 176 183 198 184 176 184 199 184 199 185 176 185 175 185 199 185 175 185 200 185 200 186 175 186 174 186 200 187 174 187 195 187 195 188 174 188 169 188 195 189 169 189 201 189 180 30 185 30 149 30 149 30 185 30 152 30 140 30 201 30 99 30 99 30 201 30 169 30 99 190 169 190 98 190 36 62 202 62 43 62 43 62 202 62 203 62 43 191 203 191 48 191 108 62 204 62 34 62 34 192 204 192 205 192 34 193 205 193 206 193 203 62 207 62 48 62 48 62 207 62 208 62 48 62 208 62 47 62 47 194 208 194 209 194 47 62 209 62 40 62 40 195 209 195 210 195 206 62 211 62 212 62 212 196 211 196 213 196 212 62 213 62 214 62 214 197 213 197 215 197 214 62 215 62 210 62 210 62 215 62 216 62 210 62 216 62 40 62 40 198 216 198 217 198 40 62 217 62 38 62 217 62 218 62 38 62 38 199 218 199 219 199 38 62 219 62 109 62 109 200 219 200 220 200 109 201 220 201 108 201 108 202 220 202 221 202 108 62 221 62 204 62 212 203 222 203 206 203 206 62 222 62 223 62 206 62 223 62 34 62 34 204 223 204 224 204 34 62 224 62 36 62 36 205 224 205 225 205 36 206 225 206 202 206 193 207 184 207 226 207 226 208 184 208 227 208 192 209 193 209 228 209 228 210 193 210 226 210 227 211 184 211 155 211 157 212 229 212 143 212 143 213 229 213 227 213 143 214 227 214 142 214 142 215 227 215 155 215 191 216 192 216 230 216 230 217 192 217 228 217 188 218 191 218 231 218 231 219 191 219 230 219 190 220 188 220 232 220 232 221 188 221 231 221 189 222 190 222 233 222 233 223 190 223 232 223 159 224 153 224 234 224 234 225 153 225 154 225 234 226 154 226 194 226 194 227 154 227 151 227 194 228 151 228 150 228 187 229 189 229 235 229 235 230 189 230 233 230 194 231 182 231 234 231 234 232 182 232 236 232 186 233 187 233 237 233 237 234 187 234 235 234 182 235 183 235 236 235 236 236 183 236 238 236 183 237 186 237 238 237 238 238 186 238 237 238 157 239 158 239 229 239 239 240 228 240 240 240 240 241 228 241 226 241 241 242 230 242 239 242 239 243 230 243 228 243 240 244 226 244 242 244 242 245 226 245 227 245 243 246 231 246 241 246 241 247 231 247 230 247 242 248 227 248 244 248 244 249 227 249 229 249 245 250 232 250 243 250 243 251 232 251 231 251 145 252 144 252 246 252 145 253 246 253 158 253 158 254 246 254 244 254 158 255 244 255 229 255 247 256 233 256 245 256 245 257 233 257 232 257 146 258 248 258 144 258 144 259 248 259 246 259 249 260 235 260 247 260 247 261 235 261 233 261 248 262 146 262 250 262 250 263 146 263 147 263 250 264 147 264 160 264 251 265 237 265 249 265 249 266 237 266 235 266 250 267 160 267 252 267 252 268 160 268 159 268 252 269 159 269 234 269 253 270 238 270 251 270 251 271 238 271 237 271 252 272 234 272 254 272 254 273 234 273 236 273 254 274 236 274 253 274 253 275 236 275 238 275 255 276 240 276 256 276 256 277 240 277 242 277 257 278 239 278 255 278 255 279 239 279 240 279 256 280 242 280 258 280 258 281 242 281 244 281 259 282 241 282 257 282 257 283 241 283 239 283 258 284 244 284 260 284 260 285 244 285 246 285 261 286 243 286 259 286 259 287 243 287 241 287 260 288 246 288 262 288 262 289 246 289 248 289 263 290 245 290 261 290 261 291 245 291 243 291 262 292 248 292 264 292 264 293 248 293 250 293 265 294 247 294 263 294 263 295 247 295 245 295 264 296 250 296 266 296 266 297 250 297 252 297 267 298 249 298 265 298 265 299 249 299 247 299 266 300 252 300 268 300 268 301 252 301 254 301 269 302 251 302 267 302 267 303 251 303 249 303 268 304 254 304 270 304 270 305 254 305 253 305 270 306 253 306 269 306 269 307 253 307 251 307 257 308 255 308 256 308 270 119 269 119 268 119 268 309 269 309 256 309 256 119 269 119 257 119 257 310 269 310 267 310 257 119 267 119 265 119 260 119 262 119 258 119 258 119 262 119 264 119 258 119 264 119 256 119 256 119 264 119 266 119 256 119 266 119 268 119 265 119 263 119 257 119 257 119 263 119 261 119 257 311 261 311 259 311 271 312 272 312 165 312 165 313 272 313 166 313 273 314 271 314 164 314 164 315 271 315 165 315 274 316 273 316 168 316 168 317 273 317 164 317 275 318 274 318 167 318 167 319 274 319 168 319 276 320 275 320 172 320 172 321 275 321 167 321 277 322 276 322 171 322 171 323 276 323 172 323 278 324 277 324 170 324 170 325 277 325 171 325 279 326 278 326 173 326 173 327 278 327 170 327 280 328 279 328 163 328 163 329 279 329 173 329 281 330 280 330 162 330 162 331 280 331 163 331 161 332 282 332 162 332 162 333 282 333 281 333 161 334 148 334 282 334 282 335 148 335 103 335 282 336 103 336 102 336 97 337 166 337 96 337 96 338 166 338 272 338 278 339 279 339 77 339 77 340 279 340 79 340 279 341 280 341 79 341 79 342 280 342 81 342 280 98 281 98 81 98 81 98 281 98 83 98 277 343 278 343 75 343 75 344 278 344 77 344 73 30 276 30 75 30 75 30 276 30 277 30 71 345 275 345 73 345 73 346 275 346 276 346 69 347 274 347 71 347 71 348 274 348 275 348 68 349 273 349 69 349 69 350 273 350 274 350 67 103 271 103 68 103 68 103 271 103 273 103 66 351 63 351 61 351 105 352 272 352 104 352 104 353 272 353 271 353 104 354 271 354 61 354 61 355 271 355 67 355 61 356 67 356 66 356 96 357 272 357 92 357 92 358 272 358 105 358 92 37 105 37 93 37 282 359 102 359 107 359 107 360 102 360 87 360 107 361 87 361 86 361 13 362 85 362 15 362 15 363 85 363 83 363 15 364 83 364 106 364 106 365 83 365 281 365 106 366 281 366 107 366 107 367 281 367 282 367 85 368 13 368 5 368 66 369 58 369 63 369 283 370 284 370 72 370 72 371 284 371 70 371 284 372 21 372 70 372 70 373 21 373 19 373 285 374 283 374 74 374 74 375 283 375 72 375 286 376 285 376 76 376 76 377 285 377 74 377 287 378 286 378 78 378 78 379 286 379 76 379 288 380 287 380 80 380 80 381 287 381 78 381 29 382 27 382 59 382 59 383 27 383 54 383 59 384 54 384 56 384 289 385 288 385 82 385 82 386 288 386 80 386 290 387 289 387 84 387 84 388 289 388 82 388 3 389 57 389 4 389 4 390 57 390 290 390 4 391 290 391 84 391 27 392 26 392 54 392 54 62 26 62 283 62 291 62 292 62 26 62 26 393 292 393 293 393 284 62 283 62 21 62 21 394 283 394 26 394 21 395 26 395 20 395 20 62 26 62 293 62 20 62 293 62 294 62 51 62 54 62 49 62 49 396 54 396 283 396 49 397 283 397 57 397 57 62 283 62 285 62 57 62 285 62 286 62 289 62 290 62 288 62 288 398 290 398 57 398 288 62 57 62 287 62 287 62 57 62 286 62 42 399 55 399 37 399 37 400 55 400 53 400 37 401 53 401 35 401 35 402 53 402 52 402 35 403 52 403 1 403 1 404 52 404 50 404 1 405 50 405 2 405 7 406 6 406 39 406 39 407 6 407 31 407 39 408 31 408 41 408 41 409 31 409 65 409 41 410 65 410 64 410 18 411 294 411 16 411 16 412 294 412 293 412 16 413 293 413 22 413 22 103 293 103 24 103 24 103 293 103 292 103 291 414 28 414 292 414 292 415 28 415 25 415 292 416 25 416 24 416 18 30 20 30 294 30 26 31 28 31 291 31 156 417 181 417 141 417 141 418 181 418 201 418 141 419 201 419 140 419 40 420 41 420 47 420 47 421 41 421 64 421 47 422 64 422 45 422 295 31 296 31 113 31 113 31 296 31 112 31 128 31 126 31 297 31 296 31 298 31 112 31 112 423 298 423 299 423 112 424 299 424 114 424 114 425 299 425 300 425 114 31 300 31 116 31 300 426 301 426 116 426 116 427 301 427 302 427 116 31 302 31 118 31 118 428 302 428 303 428 118 31 303 31 120 31 120 429 303 429 304 429 120 430 304 430 305 430 297 431 126 431 306 431 306 432 126 432 124 432 306 433 124 433 305 433 305 434 124 434 307 434 305 435 307 435 120 435 297 31 308 31 128 31 128 436 308 436 309 436 128 31 309 31 130 31 130 437 309 437 310 437 130 31 310 31 113 31 113 438 310 438 311 438 113 439 311 439 295 439 312 31 313 31 314 31 312 31 314 31 315 31 316 31 317 31 318 31 318 31 317 31 319 31 318 31 319 31 313 31 313 440 319 440 320 440 313 441 320 441 314 441 321 31 322 31 323 31 323 31 322 31 319 31 323 31 319 31 324 31 324 31 319 31 317 31 325 31 326 31 314 31 314 31 326 31 327 31 314 442 327 442 315 442 328 443 329 443 315 443 315 444 329 444 312 444 330 445 328 445 327 445 327 446 328 446 315 446 331 447 330 447 326 447 326 448 330 448 327 448 332 449 331 449 325 449 325 450 331 450 326 450 333 451 332 451 314 451 314 452 332 452 325 452 334 453 333 453 320 453 320 454 333 454 314 454 335 455 334 455 319 455 319 456 334 456 320 456 336 457 335 457 322 457 322 458 335 458 319 458 337 459 336 459 321 459 321 460 336 460 322 460 338 461 337 461 323 461 323 462 337 462 321 462 339 463 338 463 324 463 324 464 338 464 323 464 340 465 339 465 317 465 317 466 339 466 324 466 341 467 340 467 316 467 316 468 340 468 317 468 342 469 341 469 318 469 318 470 341 470 316 470 343 471 342 471 313 471 313 472 342 472 318 472 329 473 343 473 312 473 312 474 343 474 313 474 328 475 344 475 329 475 329 476 344 476 345 476 330 477 346 477 328 477 328 478 346 478 344 478 331 479 347 479 330 479 330 480 347 480 346 480 332 481 348 481 331 481 331 482 348 482 347 482 333 483 349 483 332 483 332 484 349 484 348 484 334 485 350 485 333 485 333 486 350 486 349 486 335 487 351 487 334 487 334 488 351 488 350 488 336 489 352 489 335 489 335 490 352 490 351 490 337 491 353 491 336 491 336 492 353 492 352 492 338 493 354 493 337 493 337 494 354 494 353 494 339 495 355 495 338 495 338 496 355 496 354 496 340 497 356 497 339 497 339 498 356 498 355 498 341 499 357 499 340 499 340 500 357 500 356 500 342 501 358 501 341 501 341 502 358 502 357 502 343 503 359 503 342 503 342 504 359 504 358 504 329 505 345 505 343 505 343 506 345 506 359 506 359 507 345 507 298 507 298 508 345 508 299 508 358 509 359 509 296 509 296 509 359 509 298 509 357 510 358 510 295 510 295 511 358 511 296 511 356 512 357 512 311 512 311 513 357 513 295 513 355 514 356 514 310 514 310 515 356 515 311 515 354 516 355 516 309 516 309 517 355 517 310 517 353 518 354 518 308 518 308 519 354 519 309 519 352 520 353 520 297 520 297 521 353 521 308 521 351 522 352 522 306 522 306 523 352 523 297 523 350 524 351 524 305 524 305 525 351 525 306 525 349 526 350 526 304 526 304 527 350 527 305 527 348 528 349 528 303 528 303 529 349 529 304 529 347 530 348 530 302 530 302 531 348 531 303 531 346 532 347 532 301 532 301 533 347 533 302 533 344 534 346 534 300 534 300 535 346 535 301 535 345 536 344 536 299 536 299 537 344 537 300 537 207 538 360 538 208 538 208 539 360 539 361 539 203 540 362 540 207 540 207 541 362 541 360 541 202 542 363 542 203 542 203 543 363 543 362 543 225 544 364 544 202 544 202 545 364 545 363 545 224 546 365 546 225 546 225 547 365 547 364 547 223 548 366 548 224 548 224 549 366 549 365 549 222 550 367 550 223 550 223 551 367 551 366 551 212 552 368 552 222 552 222 553 368 553 367 553 214 33 369 33 212 33 212 33 369 33 368 33 210 554 370 554 214 554 214 555 370 555 369 555 209 556 371 556 210 556 210 557 371 557 370 557 208 558 361 558 209 558 209 559 361 559 371 559 364 62 365 62 371 62 367 62 368 62 369 62 365 560 366 560 371 560 371 561 366 561 367 561 371 62 367 62 370 62 370 62 367 62 369 62 363 62 364 62 362 62 362 62 364 62 371 62 362 562 371 562 360 562 360 62 371 62 361 62 213 563 372 563 215 563 215 564 372 564 373 564 211 542 374 542 213 542 213 565 374 565 372 565 206 544 375 544 211 544 211 545 375 545 374 545 205 566 376 566 206 566 206 567 376 567 375 567 204 568 377 568 205 568 205 37 377 37 376 37 221 569 378 569 204 569 204 570 378 570 377 570 220 571 379 571 221 571 221 572 379 572 378 572 219 573 380 573 220 573 220 574 380 574 379 574 218 575 381 575 219 575 219 576 381 576 380 576 217 556 382 556 218 556 218 557 382 557 381 557 216 559 383 559 217 559 217 559 383 559 382 559 215 577 373 577 216 577 216 577 373 577 383 577 378 62 379 62 372 62 372 578 379 578 380 578 372 579 380 579 381 579 376 62 377 62 375 62 375 62 377 62 378 62 375 62 378 62 374 62 374 62 378 62 372 62 381 580 382 580 372 580 372 581 382 581 383 581 372 62 383 62 373 62 384 62 385 62 386 62 387 62 388 62 389 62 389 62 388 62 390 62 391 62 392 62 393 62 393 62 392 62 394 62 395 62 396 62 397 62 398 582 399 582 400 582 401 62 402 62 403 62 403 583 402 583 404 583 405 584 406 584 407 584 408 62 409 62 410 62 410 585 409 585 411 585 412 62 413 62 414 62 414 62 413 62 415 62 404 62 416 62 403 62 403 62 416 62 393 62 403 62 393 62 390 62 390 62 393 62 394 62 390 62 394 62 389 62 389 62 394 62 417 62 389 62 417 62 418 62 419 62 420 62 421 62 422 62 423 62 420 62 420 62 423 62 424 62 420 62 424 62 421 62 421 62 395 62 419 62 419 62 395 62 397 62 419 62 397 62 400 62 400 586 397 586 425 586 400 62 425 62 398 62 398 62 425 62 410 62 398 62 410 62 415 62 415 62 410 62 411 62 415 587 411 587 414 587 414 588 411 588 426 588 414 62 426 62 427 62 407 62 428 62 405 62 405 62 428 62 416 62 405 589 416 589 429 589 429 62 416 62 404 62 429 62 404 62 424 62 424 62 404 62 384 62 424 62 384 62 421 62 421 62 384 62 386 62 430 98 431 98 432 98 432 98 431 98 433 98 434 590 430 590 435 590 435 591 430 591 432 591 436 98 434 98 437 98 437 98 434 98 435 98 438 31 436 31 412 31 412 31 436 31 437 31 412 31 437 31 439 31 413 98 412 98 440 98 440 98 412 98 439 98 440 30 441 30 413 30 413 30 441 30 442 30 413 30 442 30 415 30 415 30 442 30 443 30 444 98 442 98 445 98 445 98 442 98 441 98 446 592 444 592 447 592 447 593 444 593 445 593 448 98 446 98 449 98 449 98 446 98 447 98 398 594 450 594 399 594 399 595 450 595 448 595 399 596 448 596 451 596 451 597 448 597 449 597 400 98 399 98 452 98 452 98 399 98 451 98 452 30 453 30 400 30 400 30 453 30 454 30 400 598 454 598 419 598 419 30 454 30 455 30 456 98 454 98 457 98 457 98 454 98 453 98 420 31 458 31 422 31 422 31 458 31 456 31 422 31 456 31 459 31 459 31 456 31 457 31 423 98 422 98 460 98 460 98 422 98 459 98 460 30 461 30 423 30 423 30 461 30 462 30 423 30 462 30 424 30 424 30 462 30 463 30 464 599 462 599 465 599 465 600 462 600 461 600 466 601 464 601 467 601 467 602 464 602 465 602 468 603 466 603 469 603 469 604 466 604 467 604 470 605 471 605 406 605 406 606 471 606 472 606 406 607 472 607 407 607 407 608 472 608 473 608 428 98 407 98 474 98 474 98 407 98 473 98 474 30 475 30 428 30 428 30 475 30 476 30 428 30 476 30 416 30 416 30 476 30 477 30 478 98 476 98 479 98 479 98 476 98 475 98 393 31 480 31 391 31 391 609 480 609 478 609 391 31 478 31 481 31 481 31 478 31 479 31 392 98 391 98 482 98 482 98 391 98 481 98 482 30 483 30 392 30 392 30 483 30 484 30 392 610 484 610 394 610 394 30 484 30 485 30 486 599 484 599 487 599 487 600 484 600 483 600 488 611 486 611 489 611 489 612 486 612 487 612 490 613 488 613 491 613 491 613 488 613 489 613 492 606 493 606 494 606 494 614 493 614 495 614 496 615 497 615 498 615 498 615 497 615 499 615 500 103 499 103 417 103 417 616 499 616 497 616 417 103 497 103 501 103 418 31 417 31 502 31 502 31 417 31 501 31 503 98 504 98 505 98 505 98 504 98 418 98 505 98 418 98 502 98 506 617 503 617 507 617 507 618 503 618 505 618 508 619 506 619 509 619 509 620 506 620 507 620 510 621 511 621 512 621 512 622 511 622 513 622 514 623 515 623 516 623 516 624 515 624 517 624 518 625 517 625 519 625 519 626 517 626 515 626 389 30 520 30 387 30 387 627 520 627 518 627 387 30 518 30 521 30 521 30 518 30 519 30 388 103 387 103 522 103 522 103 387 103 521 103 522 31 523 31 388 31 388 31 523 31 524 31 388 31 524 31 390 31 390 31 524 31 525 31 526 103 524 103 527 103 527 103 524 103 523 103 403 30 528 30 401 30 401 628 528 628 526 628 401 30 526 30 529 30 529 30 526 30 527 30 402 103 401 103 530 103 530 103 401 103 529 103 531 629 532 629 533 629 533 630 532 630 402 630 533 631 402 631 530 631 534 632 535 632 536 632 536 633 535 633 537 633 538 634 539 634 540 634 540 635 539 635 541 635 542 636 541 636 543 636 543 637 541 637 539 637 384 30 544 30 385 30 385 30 544 30 542 30 385 30 542 30 545 30 545 30 542 30 543 30 386 103 385 103 546 103 546 103 385 103 545 103 546 31 547 31 386 31 386 31 547 31 548 31 386 638 548 638 421 638 421 31 548 31 549 31 550 103 548 103 551 103 551 103 548 103 547 103 395 30 552 30 396 30 396 30 552 30 550 30 396 30 550 30 553 30 553 30 550 30 551 30 397 103 396 103 554 103 554 103 396 103 553 103 554 639 555 639 397 639 397 640 555 640 556 640 397 641 556 641 425 641 425 642 556 642 557 642 558 103 556 103 559 103 559 103 556 103 555 103 410 30 560 30 408 30 408 30 560 30 558 30 408 30 558 30 561 30 561 30 558 30 559 30 409 103 408 103 562 103 562 103 408 103 561 103 562 31 563 31 409 31 409 31 563 31 564 31 409 31 564 31 565 31 566 103 564 103 567 103 567 103 564 103 563 103 568 643 566 643 569 643 569 644 566 644 567 644 570 98 568 98 426 98 426 98 568 98 569 98 426 98 569 98 571 98 427 30 426 30 572 30 572 30 426 30 571 30 573 103 574 103 575 103 575 103 574 103 427 103 575 103 427 103 572 103 431 645 573 645 433 645 433 646 573 646 575 646 435 119 432 119 433 119 553 119 551 119 547 119 571 119 569 119 567 119 441 119 440 119 445 119 445 119 440 119 451 119 445 119 451 119 447 119 447 647 451 647 449 647 439 119 437 119 435 119 502 119 501 119 475 119 559 119 555 119 561 119 561 648 555 648 554 648 543 119 539 119 545 119 545 649 539 649 538 649 545 650 538 650 535 650 519 119 515 119 521 119 521 651 515 651 514 651 521 652 514 652 511 652 567 119 563 119 571 119 571 119 563 119 562 119 571 119 562 119 572 119 527 119 523 119 529 119 529 119 523 119 522 119 529 119 522 119 452 119 452 653 522 653 521 653 452 654 521 654 507 654 493 119 492 119 482 119 482 655 492 655 491 655 535 119 534 119 545 119 545 656 534 656 533 656 545 657 533 657 530 657 511 119 510 119 521 119 521 658 510 658 509 658 521 119 509 119 507 119 502 659 460 659 459 659 457 119 453 119 459 119 459 119 453 119 452 119 459 660 452 660 502 660 502 119 452 119 507 119 502 661 507 661 505 661 501 662 497 662 496 662 479 119 475 119 481 119 481 119 475 119 501 119 481 119 501 119 482 119 482 119 501 119 496 119 482 663 496 663 493 663 546 119 545 119 452 119 452 664 545 664 530 664 452 665 530 665 529 665 433 119 575 119 435 119 435 119 575 119 572 119 435 666 572 666 439 666 439 119 572 119 562 119 439 119 562 119 440 119 440 119 562 119 561 119 440 119 561 119 451 119 451 119 561 119 554 119 451 119 554 119 452 119 452 119 554 119 553 119 452 119 553 119 546 119 546 119 553 119 547 119 475 119 474 119 502 119 502 667 474 667 473 667 502 668 473 668 460 668 460 669 473 669 472 669 460 670 472 670 469 670 491 119 489 119 482 119 482 119 489 119 487 119 482 119 487 119 483 119 469 671 467 671 460 671 460 672 467 672 465 672 460 119 465 119 461 119 576 673 438 673 414 673 414 673 438 673 412 673 574 674 576 674 427 674 427 675 576 675 414 675 477 679 480 679 416 679 416 680 480 680 393 680 443 681 450 681 415 681 415 681 450 681 398 681 455 682 458 682 419 682 419 680 458 680 420 680 405 683 429 683 577 683 577 684 429 684 578 684 463 685 578 685 424 685 424 686 578 686 429 686 485 692 500 692 394 692 394 693 500 693 417 693 504 697 520 697 418 697 418 698 520 698 389 698 525 701 528 701 390 701 390 702 528 702 403 702 579 703 544 703 404 703 404 704 544 704 384 704 532 705 579 705 402 705 402 706 579 706 404 706 549 708 552 708 421 708 421 709 552 709 395 709 557 710 560 710 425 710 425 711 560 711 410 711 580 712 570 712 411 712 411 713 570 713 426 713 565 714 580 714 409 714 409 715 580 715 411 715 469 719 472 719 468 719 468 720 472 720 471 720 406 721 405 721 470 721 470 722 405 722 577 722 533 723 534 723 531 723 531 723 534 723 536 723 535 724 538 724 537 724 537 724 538 724 540 724 509 725 510 725 508 725 508 726 510 726 512 726 511 727 514 727 513 727 513 728 514 728 516 728 491 719 492 719 490 719 490 720 492 720 494 720 493 729 496 729 495 729 495 730 496 730 498 730 581 119 582 119 583 119 583 119 582 119 584 119 585 119 586 119 587 119 588 731 589 731 590 731 591 119 592 119 593 119 593 119 592 119 594 119 595 119 596 119 592 119 592 119 596 119 597 119 592 119 597 119 594 119 598 119 599 119 593 119 593 119 599 119 584 119 593 119 584 119 591 119 591 119 584 119 582 119 591 119 582 119 600 119 600 119 582 119 601 119 602 732 603 732 604 732 605 119 606 119 607 119 607 119 606 119 608 119 609 119 610 119 611 119 611 119 610 119 612 119 613 119 614 119 615 119 616 119 617 119 618 119 618 119 617 119 619 119 620 119 621 119 619 119 619 119 621 119 615 119 619 733 615 733 618 733 618 119 615 119 614 119 618 119 614 119 622 119 622 119 614 119 623 119 604 119 624 119 602 119 602 119 624 119 594 119 602 734 594 734 625 734 625 119 594 119 597 119 625 119 597 119 612 119 615 735 588 735 613 735 613 736 588 736 590 736 613 119 590 119 587 119 587 119 590 119 626 119 587 119 626 119 585 119 585 119 626 119 611 119 585 119 611 119 608 119 608 119 611 119 612 119 608 119 612 119 607 119 607 119 612 119 597 119 627 98 628 98 629 98 629 98 628 98 630 98 631 737 627 737 632 737 632 738 627 738 629 738 633 98 631 98 634 98 634 98 631 98 632 98 635 30 633 30 620 30 620 30 633 30 634 30 620 30 634 30 636 30 621 98 620 98 637 98 637 98 620 98 636 98 637 31 638 31 621 31 621 31 638 31 639 31 621 31 639 31 615 31 615 31 639 31 640 31 641 98 639 98 642 98 642 98 639 98 638 98 643 739 641 739 644 739 644 740 641 740 642 740 645 98 643 98 646 98 646 98 643 98 644 98 588 741 647 741 589 741 589 742 647 742 645 742 589 743 645 743 648 743 648 744 645 744 646 744 590 98 589 98 649 98 649 98 589 98 648 98 649 31 650 31 590 31 590 31 650 31 651 31 590 31 651 31 626 31 626 31 651 31 652 31 653 98 651 98 654 98 654 98 651 98 650 98 611 30 655 30 609 30 609 30 655 30 653 30 609 30 653 30 656 30 656 30 653 30 654 30 610 98 609 98 657 98 657 98 609 98 656 98 657 31 658 31 610 31 610 31 658 31 659 31 610 31 659 31 612 31 612 31 659 31 660 31 661 745 659 745 662 745 662 745 659 745 658 745 663 746 661 746 664 746 664 747 661 747 662 747 665 748 663 748 666 748 666 749 663 749 664 749 667 750 668 750 603 750 603 751 668 751 669 751 603 752 669 752 604 752 604 753 669 753 670 753 624 98 604 98 671 98 671 98 604 98 670 98 671 31 672 31 624 31 624 31 672 31 673 31 624 754 673 754 594 754 594 31 673 31 674 31 675 98 673 98 676 98 676 98 673 98 672 98 593 30 677 30 598 30 598 755 677 755 675 755 598 30 675 30 678 30 678 30 675 30 676 30 599 98 598 98 679 98 679 98 598 98 678 98 679 31 680 31 599 31 599 31 680 31 681 31 599 31 681 31 584 31 584 31 681 31 682 31 683 745 681 745 684 745 684 745 681 745 680 745 685 746 683 746 686 746 686 747 683 747 684 747 687 748 685 748 688 748 688 749 685 749 686 749 689 756 690 756 691 756 691 757 690 757 692 757 693 758 694 758 695 758 695 758 694 758 696 758 697 103 696 103 583 103 583 103 696 103 694 103 583 103 694 103 698 103 581 30 583 30 699 30 699 30 583 30 698 30 700 98 701 98 702 98 702 98 701 98 581 98 702 98 581 98 699 98 703 759 700 759 704 759 704 760 700 760 702 760 705 761 703 761 706 761 706 762 703 762 704 762 707 763 708 763 709 763 709 764 708 764 710 764 711 765 712 765 713 765 713 765 712 765 714 765 715 766 714 766 716 766 716 767 714 767 712 767 582 31 717 31 601 31 601 768 717 768 715 768 601 31 715 31 718 31 718 31 715 31 716 31 600 103 601 103 719 103 719 103 601 103 718 103 719 30 720 30 600 30 600 30 720 30 721 30 600 30 721 30 591 30 591 30 721 30 722 30 723 103 721 103 724 103 724 103 721 103 720 103 592 31 725 31 595 31 595 769 725 769 723 769 595 31 723 31 726 31 726 31 723 31 724 31 596 103 595 103 727 103 727 103 595 103 726 103 728 770 729 770 730 770 730 771 729 771 596 771 730 771 596 771 727 771 731 772 732 772 733 772 733 773 732 773 734 773 735 774 736 774 737 774 737 775 736 775 738 775 739 776 738 776 740 776 740 777 738 777 736 777 607 31 741 31 605 31 605 31 741 31 739 31 605 31 739 31 742 31 742 31 739 31 740 31 606 103 605 103 743 103 743 103 605 103 742 103 743 30 744 30 606 30 606 30 744 30 745 30 606 778 745 778 608 778 608 30 745 30 746 30 747 103 745 103 748 103 748 103 745 103 744 103 585 31 749 31 586 31 586 779 749 779 747 779 586 31 747 31 750 31 750 31 747 31 748 31 587 103 586 103 751 103 751 103 586 103 750 103 751 780 752 780 587 780 587 781 752 781 753 781 587 782 753 782 613 782 613 783 753 783 754 783 755 103 753 103 756 103 756 103 753 103 752 103 614 31 757 31 623 31 623 784 757 784 755 784 623 31 755 31 758 31 758 31 755 31 756 31 622 103 623 103 759 103 759 103 623 103 758 103 759 30 760 30 622 30 622 30 760 30 761 30 622 30 761 30 762 30 763 103 761 103 764 103 764 103 761 103 760 103 765 785 763 785 766 785 766 786 763 786 764 786 767 98 765 98 616 98 616 98 765 98 766 98 616 98 766 98 768 98 617 31 616 31 769 31 769 31 616 31 768 31 770 103 771 103 772 103 772 103 771 103 617 103 772 103 617 103 769 103 628 787 770 787 630 787 630 788 770 788 772 788 632 789 629 789 630 789 750 62 748 62 744 62 768 62 766 62 764 62 638 62 637 62 642 62 642 62 637 62 648 62 642 790 648 790 644 790 644 62 648 62 646 62 636 62 634 62 632 62 718 62 716 62 712 62 699 62 698 62 672 62 756 62 752 62 758 62 758 62 752 62 751 62 689 791 688 791 679 791 740 62 736 62 742 62 742 792 736 792 735 792 742 793 735 793 732 793 732 62 731 62 742 62 742 794 731 794 730 794 742 795 730 795 727 795 764 62 760 62 768 62 768 62 760 62 759 62 768 62 759 62 769 62 712 62 711 62 718 62 718 796 711 796 708 796 718 797 708 797 707 797 689 62 679 62 690 62 724 62 720 62 726 62 726 62 720 62 719 62 726 798 719 798 649 798 649 799 719 799 718 799 649 800 718 800 704 800 704 62 718 62 707 62 704 62 707 62 706 62 699 801 657 801 656 801 654 62 650 62 656 62 656 62 650 62 649 62 656 62 649 62 699 62 699 802 649 802 704 802 699 62 704 62 702 62 688 62 686 62 679 62 679 803 686 803 684 803 679 62 684 62 680 62 743 804 742 804 649 804 649 805 742 805 727 805 649 62 727 62 726 62 630 62 772 62 632 62 632 806 772 806 769 806 632 807 769 807 636 807 636 808 769 808 759 808 636 62 759 62 637 62 637 62 759 62 758 62 637 62 758 62 648 62 648 809 758 809 751 809 648 810 751 810 649 810 649 62 751 62 750 62 649 62 750 62 743 62 743 62 750 62 744 62 672 62 671 62 699 62 699 811 671 811 670 811 699 812 670 812 657 812 657 813 670 813 669 813 657 814 669 814 666 814 698 815 694 815 693 815 676 62 672 62 678 62 678 816 672 816 698 816 678 62 698 62 679 62 679 62 698 62 693 62 679 817 693 817 690 817 666 818 664 818 657 818 657 819 664 819 662 819 657 62 662 62 658 62 773 820 635 820 619 820 619 821 635 821 620 821 771 822 773 822 617 822 617 822 773 822 619 822 674 826 677 826 594 826 594 827 677 827 593 827 640 828 647 828 615 828 615 829 647 829 588 829 652 833 655 833 626 833 626 833 655 833 611 833 602 834 625 834 774 834 774 834 625 834 775 834 660 835 775 835 612 835 612 836 775 836 625 836 682 840 697 840 584 840 584 841 697 841 583 841 701 846 717 846 581 846 581 847 717 847 582 847 722 853 725 853 591 853 591 853 725 853 592 853 776 854 741 854 597 854 597 855 741 855 607 855 729 856 776 856 596 856 596 857 776 857 597 857 746 862 749 862 608 862 608 862 749 862 585 862 754 863 757 863 613 863 613 864 757 864 614 864 777 866 767 866 618 866 618 867 767 867 616 867 762 868 777 868 622 868 622 869 777 869 618 869 666 873 669 873 665 873 665 873 669 873 668 873 603 874 602 874 667 874 667 875 602 875 774 875 730 876 731 876 728 876 728 877 731 877 733 877 732 878 735 878 734 878 734 878 735 878 737 878 706 879 707 879 705 879 705 880 707 880 709 880 708 881 711 881 710 881 710 882 711 882 713 882 688 873 689 873 687 873 687 873 689 873 691 873 690 883 693 883 692 883 692 884 693 884 695 884</p>
        </triangles>
        <triangles material="Material_005-material" count="108">
          <input semantic="VERTEX" source="#Link4_001-mesh-vertices" offset="0"/>
          <input semantic="NORMAL" source="#Link4_001-mesh-normals" offset="1"/>
          <p>434 62 436 62 438 62 431 676 430 676 573 676 573 62 430 62 434 62 573 677 434 677 574 677 574 62 434 62 438 62 574 678 438 678 576 678 478 62 480 62 476 62 476 62 480 62 477 62 446 62 448 62 444 62 444 62 448 62 450 62 444 62 450 62 442 62 442 62 450 62 443 62 458 62 455 62 456 62 456 62 455 62 454 62 463 62 462 62 464 62 471 687 470 687 463 687 463 688 470 688 577 688 463 689 577 689 578 689 471 690 463 690 468 690 468 691 463 691 464 691 468 62 464 62 466 62 485 62 484 62 500 62 500 62 484 62 486 62 486 62 488 62 500 62 500 694 488 694 490 694 500 695 490 695 494 695 494 62 495 62 500 62 500 62 495 62 498 62 500 696 498 696 499 696 517 699 518 699 516 699 516 62 518 62 520 62 516 62 520 62 513 62 512 700 513 700 508 700 508 62 513 62 520 62 508 62 520 62 506 62 506 62 520 62 504 62 506 62 504 62 503 62 526 62 528 62 524 62 524 62 528 62 525 62 579 707 532 707 544 707 544 62 532 62 531 62 541 62 542 62 540 62 540 62 542 62 544 62 540 62 544 62 537 62 537 62 544 62 531 62 537 62 531 62 536 62 550 62 552 62 548 62 548 62 552 62 549 62 560 62 557 62 558 62 558 62 557 62 556 62 570 716 580 716 565 716 564 62 566 62 565 62 565 717 566 717 568 717 565 718 568 718 570 718 631 119 633 119 635 119 628 119 627 119 770 119 770 823 627 823 631 823 770 824 631 824 771 824 771 119 631 119 635 119 771 825 635 825 773 825 675 119 677 119 673 119 673 119 677 119 674 119 643 830 645 830 641 830 641 831 645 831 647 831 641 832 647 832 639 832 639 119 647 119 640 119 655 119 652 119 653 119 653 119 652 119 651 119 774 119 775 119 660 119 661 837 663 837 665 837 660 119 659 119 661 119 774 119 660 119 667 119 661 119 665 119 660 119 660 838 665 838 668 838 660 839 668 839 667 839 682 119 681 119 697 119 697 119 681 119 683 119 683 119 685 119 697 119 697 842 685 842 687 842 697 843 687 843 691 843 691 844 692 844 697 844 697 845 692 845 695 845 697 119 695 119 696 119 701 848 700 848 703 848 714 119 715 119 713 119 713 119 715 119 717 119 713 849 717 849 710 849 710 850 717 850 709 850 701 851 703 851 717 851 717 119 703 119 705 119 717 852 705 852 709 852 723 119 725 119 721 119 721 119 725 119 722 119 776 858 729 858 741 858 741 859 729 859 728 859 738 860 739 860 737 860 737 119 739 119 741 119 737 861 741 861 734 861 734 119 741 119 728 119 734 119 728 119 733 119 747 119 749 119 745 119 745 119 749 119 746 119 757 119 754 119 755 119 755 865 754 865 753 865 767 870 777 870 762 870 761 119 763 119 762 119 762 871 763 871 765 871 762 872 765 872 767 872</p>
        </triangles>
      </mesh>
    </geometry>
  </library_geometries>
  <library_visual_scenes>
    <visual_scene id="Scene" name="Scene">
      <node id="Link4" name="Link4" type="NODE">
        <matrix sid="transform">1 0 0 0 0 1 0 0 0 0 1 0 0 0 0 1</matrix>
        <instance_geometry url="#Link4_001-mesh" name="Link4">
          <bind_material>
            <technique_common>
              <instance_material symbol="colour_abb_white_001-material" target="#colour_abb_white_001-material"/>
              <instance_material symbol="Material_005-material" target="#Material_005-material"/>
            </technique_common>
          </bind_material>
        </instance_geometry>
      </node>
    </visual_scene>
  </library_visual_scenes>
  <scene>
    <instance_visual_scene url="#Scene"/>
  </scene>
</COLLADA>