<?xml version="1.0" encoding="utf-8"?>
<COLLADA xmlns="http://www.collada.org/2005/11/COLLADASchema" version="1.4.1" xmlns:xsi="http://www.w3.org/2001/XMLSchema-instance">
  <asset>
    <contributor>
      <author>Blender User</author>
      <authoring_tool>Blender 2.82.7</authoring_tool>
    </contributor>
    <created>2024-02-04T11:52:58</created>
    <modified>2024-02-04T11:52:58</modified>
    <unit name="meter" meter="1"/>
    <up_axis>Z_UP</up_axis>
  </asset>
  <library_effects>
    <effect id="Material_001-effect">
      <profile_COMMON>
        <technique sid="common">
          <lambert>
            <emission>
              <color sid="emission">0 0 0 1</color>
            </emission>
            <diffuse>
              <color sid="diffuse">0.0118336 0.0118336 0.0118336 1</color>
            </diffuse>
            <index_of_refraction>
              <float sid="ior">1.45</float>
            </index_of_refraction>
          </lambert>
        </technique>
      </profile_COMMON>
    </effect>
  </library_effects>
  <library_images/>
  <library_materials>
    <material id="Material_001-material" name="Material.001">
      <instance_effect url="#Material_001-effect"/>
    </material>
  </library_materials>
  <library_geometries>
    <geometry id="Link6-mesh" name="Link6">
      <mesh>
        <source id="Link6-mesh-positions">
          <float_array id="Link6-mesh-positions-array" count="1959">0 -0.002999961 0.02499997 0 -0.002598047 0.02649998 0 -0.007009387 0.03070998 0 -0.01033484 0.02289998 0 -0.01124995 0.02381992 0 -0.00999999 0.02164995 0 -0.002598047 0.02349996 0 -0.01033484 0.02039992 0 -0.004867017 0.01497995 0 -0.01124995 0.01949 0 -0.009257614 0.01274001 0 -0.01249998 0.01915001 0 -0.01470434 0.0126599 0 -0.0161255 0.01392996 0 -0.01401418 0.01128995 0 -0.01274198 0.009259939 0 -0.01384168 0.01012992 0 -0.01401418 0.008999943 0 -0.01470434 0.007749915 0 -0.01497906 0.004869937 0 -0.0161255 0.006709933 0 -0.01815545 0.006389975 0 -0.01574999 0 0 -0.02283489 0.001249909 0 -0.02018558 0.007039904 0 -0.02374994 0.002169966 0 -0.02160656 0.00830996 0 -0.02499997 0.002499938 0 -0.02229678 0.009670019 0 -0.03071016 0.007009983 0 -0.02838045 0.01366996 0 -0.02625 0.002169966 0 -0.02716505 0.001249909 0 -0.03149998 0 0 -0.02749997 0 0 -0.02716505 -0.001250028 0 -0.03071016 -0.007009983 0 -0.02625 -0.002170085 0 -0.02499997 -0.002500057 0 -0.01366728 0.02837991 0 -0.01249998 0.02415001 0 -0.01374995 0.02381992 0 -0.01963984 0.02462995 0 -0.01466506 0.02289998 0 -0.01499998 0.02164995 0 -0.01466506 0.02039992 0 -0.02462768 0.01963996 0 -0.01815545 0.01456999 0 -0.02018558 0.01425993 0 -0.01374995 0.01949 0 -0.02160656 0.01321995 0 -0.02229678 0.01195991 0 -0.0224694 0.01082992 0 -0.02838045 -0.01367008 0 -0.02374994 -0.002170085 0 -0.01497906 -0.004870057 0 -0.02283489 -0.001250028 0 -0.02249997 0 0 -0.01274198 -0.009260058 0 -0.02462768 -0.01964008 0 -0.01374995 -0.01949 0 -0.01466506 -0.02040004 0 -0.01249998 -0.01915001 0 -0.009257614 -0.01274001 0 -0.01124995 -0.01949 0 -0.004867017 -0.01498007 0 -0.01033484 -0.02040004 0 -0.00999999 -0.02165007 0 0 -0.01575005 0 0 -0.03149998 0 -0.01033484 -0.02289998 0 -0.007009387 -0.03070998 0 -0.01124995 -0.02382004 0 -0.01366728 -0.02838003 0 -0.01249998 -0.02415001 0 -0.01374995 -0.02382004 0 -0.01963984 -0.02463006 0 -0.01466506 -0.02289998 0 -0.01499998 -0.02165007 0 0.01374995 -0.02382004 0 0.01249998 -0.02415001 0 0.01366728 -0.02838003 0 0.01963984 -0.02463006 0 0.01466506 -0.02289998 0 0.01499998 -0.02165007 0 0.01466506 -0.02040004 0 0.02462768 -0.01964008 0 0.01374995 -0.01949 0 0.01274198 -0.009260058 0 0.01249998 -0.01915001 0 0.009257614 -0.01274001 0 0.01124995 -0.01949 0 0.004867017 -0.01498007 0 0.01033484 -0.02040004 0 0.00999999 -0.02165007 0 0.01124995 -0.02382004 0 0.007009387 -0.03070998 0 0.02838045 -0.01367008 0 0.01497906 -0.004870057 0 0.02374994 -0.002170085 0 0.02283489 -0.001250028 0 0.01574999 0 0 0.02249997 0 0 0.02283489 0.001249909 0 0.01497906 0.004869937 0 0.02374994 0.002169966 0 0.02838045 0.01366996 0 0.02499997 0.002499938 0 0.03071016 0.007009983 0 0.02625 0.002169966 0 0.02716505 0.001249909 0 0.03149998 0 0 0.02749997 0 0 0.02716505 -0.001250028 0 0.03071016 -0.007009983 0 0.02625 -0.002170085 0 0.02499997 -0.002500057 0 0.01466506 0.02039992 0 0.01374995 0.01949 0 0.02462768 0.01963996 0 0.01963984 0.02462995 0 0.01499998 0.02164995 0 0.01466506 0.02289998 0 0.01374995 0.02381992 0 0.01366728 0.02837991 0 0.01249998 0.02415001 0 0.01124995 0.02381992 0 0.007009387 0.03070998 0 0.01033484 0.02289998 0 0.002999961 0.02499997 0 0.00999999 0.02164995 0 0.002598047 0.02349996 0 0.01033484 0.02039992 0 0.004867017 0.01497995 0 0.01124995 0.01949 0 0.009257614 0.01274001 0 0.01249998 0.01915001 0 0.01274198 0.009259939 0 -0.00149995 0.02759993 0 0 0.02799999 0 0 0.03149998 0 0.00149995 0.0223999 0 0 0.01574993 0 0.01033484 -0.02289998 0 0 0.02199995 0 -0.00149995 0.0223999 0 0.00149995 0.02759993 0 0.002598047 0.02649998 -0.00999999 0 0.03149998 -0.00999999 0.007009387 0.03070998 -0.00999999 0.01366728 0.02837991 -0.00999999 0.01963984 0.02462995 -0.00999999 0.02462768 0.01963996 -0.00999999 0.02838045 0.01366996 -0.00999999 0.03071016 0.007009983 -0.00999999 0.03149998 0 -0.00999999 0.03071016 -0.007009983 -0.00999999 0.02838045 -0.01367008 -0.00999999 0.02462768 -0.01964008 -0.00999999 0.01963984 -0.02463006 -0.00999999 0.01366728 -0.02838003 -0.00999999 0.007009387 -0.03070998 -0.00999999 0 -0.03149998 -0.00999999 -0.007009387 -0.03070998 -0.00999999 -0.01366728 -0.02838003 -0.00999999 -0.01963984 -0.02463006 -0.00999999 -0.02462768 -0.01964008 -0.00999999 -0.02838045 -0.01367008 -0.00999999 -0.03071016 -0.007009983 -0.00999999 -0.03149998 0 -0.00999999 -0.03071016 0.007009983 -0.00999999 -0.02838045 0.01366996 -0.00999999 -0.02462768 0.01963996 -0.00999999 -0.01963984 0.02462995 -0.00999999 -0.01366728 0.02837991 -0.00999999 -0.007009387 0.03070998 -0.01399993 0.002075791 0.02283 -0.01364994 0.002613008 0.02353 -0.01399993 0.004902601 0.0223999 -0.01326 0.002923905 0.02433001 -0.01285994 0.002994418 0.02517998 -0.01248002 0.002818703 0.02602994 -0.01213991 0.002400994 0.02679991 -0.01187002 0.001758575 0.02742993 -0.01169002 9.33751e-4 0.02784991 -0.01162993 0 0.02799999 -0.01240992 0.01124286 0.0238099 -0.01295995 0.01035237 0.0229299 -0.01217997 0.01184225 0.02406001 -0.01200997 0.01249998 0.02415001 -0.01242995 0.01499915 0.02158999 -0.01210999 0.01483958 0.02252995 -0.01283001 0.01480269 0.02067995 -0.01326 0.01429545 0.01990997 -0.01399993 0.01667958 0.0157299 -0.01366996 0.01353639 0.01937997 -0.01399993 0.01260459 0.01915001 -0.01254999 0.02591949 0.002319931 -0.01296997 0.02499997 0.002499938 -0.01219999 0.02672797 0.001809954 -0.01195001 0.02729547 9.89914e-4 -0.01187002 0.02749997 -1.00136e-5 -0.01399993 0.02196419 0.006579995 -0.01354002 0.02381438 0.002200007 -0.01399993 0.02288907 0.001339912 -0.01296997 0.02499997 -0.002500057 -0.01254999 0.02591675 -0.002330064 -0.01399993 0.02196419 -0.006579995 -0.01399993 0.01985645 -0.01146006 -0.01399993 0.01667958 -0.01573002 -0.01326 0.01429319 -0.01991009 -0.01283001 0.01480126 -0.02067005 -0.01366996 0.01353549 -0.01938009 -0.01399993 0.01260459 -0.01915001 -0.01200997 0.01249998 -0.02415001 -0.01187002 0.01348274 -0.02394998 -0.01217997 0.01183885 -0.02406001 -0.01240992 0.01124227 -0.02381002 -0.01399993 0.003540754 -0.02265 -0.01399993 0 -0.02293002 -0.01399993 0.006996512 -0.02183008 -0.01295995 0.01035284 -0.02293002 -0.01399993 0.01028448 -0.02049005 -0.01353001 0.01000165 -0.02174007 -0.01190996 0.01431185 -0.02337002 -0.01210999 0.01483929 -0.02253007 -0.01242995 0.01499909 -0.02157998 -0.01399993 0.02288907 -0.001340031 -0.01354002 0.02381318 -0.002200007 -0.01219999 0.02672326 -0.001810073 -0.01195001 0.02729129 -0.001000046 -0.01399993 0.01985645 0.01145994 -0.01190996 0.01431369 0.0233699 -0.01187002 0.01348459 0.02394998 -0.01399993 0.007653117 0.0216099 -0.01399993 0.01028448 0.02048993 -0.01353001 0.01000165 0.02173995 -0.01169002 -9.29227e-4 0.02784991 -0.01187002 -0.001755654 0.02742993 -0.01213991 -0.002400755 0.02679991 -0.01248002 -0.002819657 0.02601993 -0.01285994 -0.002994596 0.02517998 -0.01399993 -0.004902601 0.0223999 -0.01326 -0.002923309 0.02433001 -0.01364994 -0.002611875 0.02351999 -0.01399993 -0.002075791 0.02283 -0.01399993 -0.007653117 0.0216099 -0.01295995 -0.01035284 0.0229299 -0.01240992 -0.01124227 0.0238099 -0.01217997 -0.01183885 0.02406001 -0.01200997 -0.01249998 0.02415001 -0.01187002 -0.01348274 0.02394998 -0.01190996 -0.01431185 0.0233699 -0.01210999 -0.01483929 0.02252995 -0.01242995 -0.01499909 0.02157998 -0.01283001 -0.01480126 0.02066993 -0.01326 -0.01429319 0.01990997 -0.01399993 -0.01667958 0.0157299 -0.01366996 -0.01353549 0.01937997 -0.01399993 -0.01260459 0.01915001 -0.01399993 -0.01028448 0.02048993 -0.01353001 -0.01000165 0.02173995 -0.01293992 -0.0233854 0.009359955 -0.01350998 -0.02194255 0.009670019 -0.01399993 -0.02196419 0.006579995 -0.01227998 -0.02478897 0.009649991 -0.01163995 -0.02594298 0.01051998 -0.01108992 -0.02666848 0.01180994 -0.01071 -0.02684849 0.01332998 -0.01387 -0.02067089 0.01052999 -0.01399993 -0.01985645 0.01145994 -0.01399993 -0.02288907 0.001339912 -0.01354002 -0.02381318 0.002200007 -0.01296997 -0.02499997 0.002499938 -0.01254999 -0.02591675 0.002329945 -0.01219999 -0.02672326 0.001809954 -0.01195001 -0.02729129 9.99927e-4 -0.01187002 -0.02749997 1.00136e-5 -0.01195001 -0.02729547 -9.90033e-4 -0.01219999 -0.02672797 -0.001810073 -0.01254999 -0.02591949 -0.002320051 -0.01296997 -0.02499997 -0.002500057 -0.01399993 -0.02196419 -0.006579995 -0.01354002 -0.02381438 -0.002200007 -0.01399993 -0.02288907 -0.001340031 -0.01399993 -0.01985645 -0.01146006 -0.01399993 -0.01667958 -0.01573002 -0.01326 -0.01429545 -0.01991009 -0.01283001 -0.01480269 -0.02068006 -0.01242995 -0.01499915 -0.02158999 -0.01210999 -0.01483958 -0.02253007 -0.01190996 -0.01431369 -0.02337002 -0.01187002 -0.01348459 -0.02394998 -0.01200997 -0.01249998 -0.02415001 -0.01217997 -0.01184225 -0.02406001 -0.01240992 -0.01124286 -0.02381002 -0.01295995 -0.01035237 -0.02293002 -0.01399993 -0.006996512 -0.02183008 -0.01353001 -0.01000165 -0.02174007 -0.01399993 -0.01028448 -0.02049005 -0.01399993 -0.01260459 -0.01915001 -0.01366996 -0.01353639 -0.01938009 -0.01399993 -0.003540754 -0.02265 -0.01136994 -0.02274399 0.01727998 -0.01089 -0.02422207 0.01698994 -0.01197993 -0.02132129 0.01696991 -0.01265001 -0.02017486 0.01610994 -0.01327002 -0.01947957 0.01484 -0.01373994 -0.01933526 0.01332998 -0.01394999 -0.01975589 0.01181995 -0.01060998 -0.02552479 0.01613998 -0.01054 -0.02644777 0.01485002 -0.01508998 0 -0.0173 -0.01508998 0.001511573 -0.01723003 -0.01508998 0.005593597 -0.01637005 -0.01508998 0.008078634 -0.01529002 -0.01406002 0.01067769 -0.01994001 -0.01407992 0.01120609 -0.01951003 -0.01406002 0.01182967 -0.01924002 -0.01508998 0.00975418 -0.01428008 -0.01400995 0.01249998 -0.01915001 -0.01508998 0.01186776 -0.01258003 -0.01508998 0.01368939 -0.01057004 -0.01508998 0.01513886 -0.008360028 -0.01508998 0.0169028 -0.003670096 -0.01508998 0.01729595 0 -0.01406002 0.02259886 -6.99997e-4 -0.01407992 0.02249997 0 -0.01406002 0.01182705 0.0192399 -0.01400995 0.01249998 0.01915001 -0.01508998 0.00975418 0.01427996 -0.01508998 0.008078634 0.0152899 -0.01407992 0.01120328 0.01950991 -0.01406002 0.01067584 0.01994001 -0.01508998 0.005593597 0.01636993 -0.01508998 0.001511573 0.01722991 -0.01412999 0.001121103 0.02222001 -0.01508998 0.01186776 0.01257991 -0.01508998 0.01368939 0.01056993 -0.01508998 0 0.0173 -0.01417994 0 0.02199995 -0.01508998 0.01513886 0.008359909 -0.01508998 0.0169028 0.003669977 -0.01406002 0.02259999 6.99997e-4 -0.01412999 -0.001121878 0.02222001 -0.01508998 -0.001511573 0.01722991 -0.01508998 -0.005593597 0.01636993 -0.01508998 -0.008078634 0.0152899 -0.01406002 -0.01067769 0.01994001 -0.01407992 -0.01120609 0.01950991 -0.01406002 -0.01182967 0.0192399 -0.01508998 -0.00975418 0.01427996 -0.01400995 -0.01249998 0.01915001 -0.01508998 -0.01186776 0.01257991 -0.01508998 -0.01368939 0.01056993 -0.01508998 -0.01513886 0.008359909 -0.01508998 -0.0169028 0.003669977 -0.01508998 -0.01729595 0 -0.01406002 -0.02259886 6.99997e-4 -0.01407992 -0.02249997 0 -0.01406002 -0.01182705 -0.01924002 -0.01400995 -0.01249998 -0.01915001 -0.01508998 -0.00975418 -0.01428008 -0.01508998 -0.008078634 -0.01529002 -0.01407992 -0.01120328 -0.01951003 -0.01406002 -0.01067584 -0.01994001 -0.01508998 -0.005593597 -0.01637005 -0.01508998 -0.001511573 -0.01723003 -0.01508998 -0.01186776 -0.01258003 -0.01508998 -0.01368939 -0.01057004 -0.01508998 -0.01513886 -0.008360028 -0.01508998 -0.0169028 -0.003670096 -0.01406002 -0.02259999 -6.99997e-4 -0.006999969 -0.01497906 0.004869937 -0.006999969 -0.01497906 -0.004870057 -0.006999969 -0.01274198 0.009259939 -0.006999969 -0.01574999 0 -0.006999969 -0.01274198 -0.009260058 -0.006999969 -0.009257614 0.01274001 -0.006999969 -0.009257614 -0.01274001 -0.006999969 -0.004867017 0.01497995 -0.006999969 -0.004867017 -0.01498007 -0.006999969 0 0.01574993 -0.006999969 0 -0.01575005 -0.006999969 0.004867017 0.01497995 -0.006999969 0.004867017 -0.01498007 -0.006999969 0.009257614 0.01274001 -0.006999969 0.009257614 -0.01274001 -0.006999969 0.01274198 0.009259939 -0.006999969 0.01274198 -0.009260058 -0.006999969 0.01497906 0.004869937 -0.006999969 0.01497906 -0.004870057 -0.006999969 0.01574999 0 -0.02234995 0 0.01383996 -0.02234995 0.001222014 0.01377999 -0.02924001 0 0.01749992 -0.02924001 0.004930317 0.01678991 -0.02234995 0.004441022 0.0130999 -0.02234995 0.006454885 0.01223993 -0.02924001 0.009461164 0.01471996 -0.02234995 0.007812678 0.01142001 -0.02924001 0.01322555 0.01145994 -0.02234995 0.01093459 0.008479952 -0.02234995 0.01211136 0.006689906 -0.02924001 0.01591855 0.007269978 -0.02234995 0.01351398 0.002959966 -0.02924001 0.01732188 0.002489924 -0.02234995 0.01383525 0 -0.02924001 0.01732188 -0.002490043 -0.02234995 0.01351398 -0.002960085 -0.02924001 0.01591855 -0.007270097 -0.02234995 0.01211136 -0.006690025 -0.02924001 0.01322555 -0.01146006 -0.02234995 0.01093459 -0.008480072 -0.02234995 0.007812678 -0.01142001 -0.02924001 0.009461164 -0.01472008 -0.02234995 0.006454885 -0.01224005 -0.02924001 0.004930317 -0.01679003 -0.02234995 0.004441022 -0.01310002 -0.02234995 0.001222014 -0.01377999 -0.02924001 0 -0.01750004 -0.02234995 0 -0.01384007 -0.02234995 -0.001222014 -0.01377999 -0.02924001 -0.004930317 -0.01679003 -0.02234995 -0.004441022 -0.01310002 -0.02234995 -0.006454885 -0.01224005 -0.02924001 -0.009461164 -0.01472008 -0.02234995 -0.007812678 -0.01142001 -0.02924001 -0.01322555 -0.01146006 -0.02234995 -0.01093459 -0.008480072 -0.02234995 -0.01211136 -0.006690025 -0.02924001 -0.01591855 -0.007270097 -0.02234995 -0.01351398 -0.002960085 -0.02924001 -0.01732188 -0.002490043 -0.02234995 -0.01383525 0 -0.02924001 -0.01732188 0.002489924 -0.02234995 -0.01351398 0.002959966 -0.02924001 -0.01591855 0.007269978 -0.02234995 -0.01211136 0.006689906 -0.02924001 -0.01322555 0.01145994 -0.02234995 -0.01093459 0.008479952 -0.02234995 -0.007812678 0.01142001 -0.02924001 -0.009461164 0.01471996 -0.02234995 -0.006454885 0.01223993 -0.02924001 -0.004930317 0.01678991 -0.02234995 -0.004441022 0.0130999 -0.02234995 -0.001222014 0.01377999 -0.02023994 0 -0.01326 -0.02023994 -0.001759588 -0.01314008 -0.02023994 -0.00371164 -0.01273 -0.02023994 -0.00580877 -0.01192009 -0.01902997 -0.003736317 -0.01280999 -0.01902997 -0.005847394 -0.01199007 -0.01784992 -0.003846347 -0.01319003 -0.01784992 -0.006019592 -0.01235008 -0.01679992 -0.004035353 -0.01384007 -0.01679992 -0.00631541 -0.01295006 -0.01596999 -0.004282951 -0.01468002 -0.01596999 -0.00670284 -0.01375007 -0.01596999 -0.009177744 -0.01224005 -0.01679992 -0.008647263 -0.01153004 -0.01679992 -0.01085847 -0.009479999 -0.01784992 -0.01034975 -0.009029984 -0.01784992 -0.0121209 -0.00646007 -0.01902997 -0.01177418 -0.006280064 -0.01902997 -0.01293355 -0.003280043 -0.02023994 -0.01284807 -0.003260016 -0.02023994 -0.01325589 0 -0.02023994 -0.01169639 -0.00624001 -0.01902997 -0.01005375 -0.008769989 -0.01784992 -0.008242189 -0.01099002 -0.01902997 -0.00177133 -0.01323008 -0.01784992 0 -0.01374006 -0.01784992 -0.001823484 -0.01362001 -0.01902997 0 -0.01333999 -0.01679992 0 -0.01441001 -0.01679992 -0.00191307 -0.01428008 -0.01596999 0 -0.01530003 -0.01596999 -0.002030432 -0.01516008 -0.01596999 -0.01152455 -0.01006007 -0.01679992 -0.01271659 -0.006780028 -0.01784992 -0.01331436 -0.00338006 -0.01902997 -0.01334404 0 -0.02023994 -0.01284807 0.003260016 -0.01596999 -0.01349669 -0.007200002 -0.01679992 -0.01396864 -0.003550052 -0.01784992 -0.01373708 0 -0.01902997 -0.01293355 0.003279924 -0.02023994 -0.01169639 0.00624001 -0.01596999 -0.01482558 -0.003769993 -0.01679992 -0.01441216 0 -0.01784992 -0.01331436 0.00337994 -0.01902997 -0.01177418 0.006279945 -0.02023994 -0.009987294 0.008719921 -0.01596999 -0.01529628 0 -0.01679992 -0.01396864 0.003549933 -0.01784992 -0.0121209 0.006459951 -0.01902997 -0.01005375 0.008769989 -0.02023994 -0.007953524 0.01059997 -0.02023994 -0.00580877 0.01191997 -0.01596999 -0.01482558 0.003769993 -0.01596999 -0.01349669 0.007200002 -0.01596999 -0.01152455 0.01005995 -0.01596999 -0.009177744 0.01223993 -0.01596999 -0.00670284 0.01374995 -0.01596999 -0.004282951 0.0146799 -0.01596999 -0.002030432 0.01515996 -0.01596999 0 0.01529991 -0.01679992 -0.00191307 0.01427996 -0.01679992 0 0.01441001 -0.01784992 -0.001823484 0.01362001 -0.01784992 0 0.01373994 -0.01902997 0 0.01333999 -0.01902997 -0.00177133 0.01322996 -0.02023994 0 0.01326 -0.02023994 -0.001759588 0.01313996 -0.01902997 -0.003736317 0.01280999 -0.02023994 -0.00371164 0.01273 -0.01902997 -0.005847394 0.01198995 -0.01902997 -0.008006453 0.01067996 -0.01784992 -0.01034975 0.009029984 -0.01679992 -0.01271659 0.006779909 -0.01679992 -0.01085847 0.009479999 -0.01679992 -0.008647263 0.01152992 -0.02023994 -0.009987294 -0.00872004 -0.01902997 -0.008006453 -0.01068007 -0.02023994 -0.007953524 -0.01060009 -0.01784992 -0.008242189 0.0109899 -0.01679992 -0.00631541 0.01294994 -0.01784992 -0.006019592 0.01234996 -0.01679992 -0.004035353 0.01383996 -0.01784992 -0.003846347 0.01318991 -0.01596999 0.002030432 0.01515996 -0.01679992 0.00191307 0.01427996 -0.01679992 0.004035353 0.01383996 -0.01784992 0.003846347 0.01318991 -0.01784992 0.006019592 0.01234996 -0.01902997 0.005847394 0.01198995 -0.01902997 0.008006453 0.01067996 -0.02023994 0.007953524 0.01059997 -0.02023994 0.009987294 0.008719921 -0.02023994 0.00580877 0.01191997 -0.02023994 0.00371164 0.01273 -0.02023994 0.001759588 0.01313996 -0.01902997 0.00177133 0.01322996 -0.01784992 0.001823484 0.01362001 -0.01596999 0.004282951 0.0146799 -0.01679992 0.00631541 0.01294994 -0.01784992 0.008242189 0.0109899 -0.01902997 0.01005375 0.008769989 -0.02023994 0.01169639 0.00624001 -0.01596999 0.00670284 0.01374995 -0.01679992 0.008647263 0.01152992 -0.01784992 0.01034975 0.009029984 -0.01902997 0.01177418 0.006279945 -0.02023994 0.01284807 0.003260016 -0.01596999 0.009177744 0.01223993 -0.01596999 0.01152455 0.01005995 -0.01596999 0.01349669 0.007200002 -0.01596999 0.01482558 0.003769993 -0.01596999 0.01529628 0 -0.01596999 0.01482558 -0.003769993 -0.01596999 0.01349669 -0.007200002 -0.01679992 0.01271659 -0.006780028 -0.01679992 0.01085847 -0.009479999 -0.01784992 0.01034975 -0.009029984 -0.01784992 0.008242189 -0.01099002 -0.01902997 0.008006453 -0.01068007 -0.01902997 0.005847394 -0.01199007 -0.02023994 0.00580877 -0.01192009 -0.02023994 0.00371164 -0.01273 -0.02023994 0.001759588 -0.01314008 -0.01596999 0.01152455 -0.01006007 -0.01679992 0.008647263 -0.01153004 -0.01784992 0.006019592 -0.01235008 -0.01902997 0.003736317 -0.01280999 -0.01596999 0.009177744 -0.01224005 -0.01679992 0.00631541 -0.01295006 -0.01784992 0.003846347 -0.01319003 -0.01902997 0.00177133 -0.01323008 -0.01596999 0.00670284 -0.01375007 -0.01679992 0.004035353 -0.01384007 -0.01784992 0.001823484 -0.01362001 -0.01596999 0.004282951 -0.01468002 -0.01596999 0.002030432 -0.01516008 -0.01679992 0.00191307 -0.01428008 -0.02023994 0.007953524 -0.01060009 -0.02023994 0.009987294 -0.00872004 -0.02023994 0.01169639 -0.00624001 -0.01902997 0.01177418 -0.006280064 -0.01902997 0.01293355 -0.003280043 -0.01784992 0.01331436 -0.00338006 -0.01784992 0.01373708 0 -0.01679992 0.01441216 0 -0.01679992 0.01396864 0.003549933 -0.02023994 0.01284807 -0.003260016 -0.01902997 0.01334404 0 -0.01784992 0.01331436 0.00337994 -0.01679992 0.01271659 0.006779909 -0.02023994 0.01325589 0 -0.01902997 0.01293355 0.003279924 -0.01784992 0.0121209 0.006459951 -0.01679992 0.01085847 0.009479999 -0.01902997 0.003736317 0.01280999 -0.01679992 0.01396864 -0.003550052 -0.01784992 0.0121209 -0.00646007 -0.01902997 0.01005375 -0.008769989 -0.03399997 0 0.01749992 -0.03399997 0.004930317 0.01678991 -0.03399997 0.009461164 0.01471996 -0.03399997 0.01322555 0.01145994 -0.03399997 0.01591855 0.007269978 -0.03399997 0.01732188 0.002489924 -0.03399997 0.01732188 -0.002490043 -0.03399997 0.01591855 -0.007270097 -0.03399997 0.01322555 -0.01146006 -0.03399997 0.009461164 -0.01472008 -0.03399997 0.004930317 -0.01679003 -0.03399997 0 -0.01750004 -0.03399997 -0.004930317 -0.01679003 -0.03399997 -0.009461164 -0.01472008 -0.03399997 -0.01322555 -0.01146006 -0.03399997 -0.01591855 -0.007270097 -0.03399997 -0.01732188 -0.002490043 -0.03399997 -0.01732188 0.002489924 -0.03399997 -0.01591855 0.007269978 -0.03399997 -0.01322555 0.01145994 -0.03399997 -0.009461164 0.01471996 -0.03399997 -0.004930317 0.01678991 -0.01380991 -0.02154755 0.009939908 -0.01229 -0.025303 0.009939908 -0.01406991 -0.02005577 0.01138997 -0.01315999 -0.02346819 0.009409904 -0.01144993 -0.02656018 0.01138997 -0.01388001 -0.01939237 0.0133599 -0.01084995 -0.02690309 0.0133599 -0.01327991 -0.01973527 0.01533997 -0.01064991 -0.02623975 0.01533997 -0.01242995 -0.02099257 0.01678991 -0.01091992 -0.02474784 0.01678991 -0.01156997 -0.02282726 0.01731991 -0.001869916 -0.02106738 0.007550001 -0.003369927 -0.01735836 0.007550001 -0.001029968 -0.02230906 0.008979916 -0.002719998 -0.01925528 0.007019996 -0.003629922 -0.01588499 0.008979916 -4.40001e-4 -0.02264779 0.01092994 -0.003440022 -0.01522976 0.01092994 -2.49982e-4 -0.02199256 0.01288998 -0.002839922 -0.01556849 0.01288998 -5.09977e-4 -0.02051919 0.01432001 -0.002009987 -0.01681017 0.01432001 -0.001160025 -0.01862227 0.01484</float_array>
          <technique_common>
            <accessor source="#Link6-mesh-positions-array" count="653" stride="3">
              <param name="X" type="float"/>
              <param name="Y" type="float"/>
              <param name="Z" type="float"/>
            </accessor>
          </technique_common>
        </source>
        <source id="Link6-mesh-normals">
          <float_array id="Link6-mesh-normals-array" count="3369">1 0 0 0 0.1119965 0.9937086 0 0.3303256 0.9438671 0 0.5317404 0.8469074 0 0.7072613 0.7069523 0 0.8466218 0.532195 0 0.9439156 0.330187 0 0.9937128 0.1119599 0 0.9937129 -0.1119591 0 0.9439174 -0.3301817 0 0.8466222 -0.5321944 0 0.7072617 -0.7069519 0 0.5317408 -0.8469073 0 0.3303105 -0.9438723 0 0.1119965 -0.9937086 0 0.5317404 -0.8469074 0 0.7072613 -0.7069523 0 0.8466218 -0.532195 0 0.9937128 -0.1119599 0 0.9937129 0.1119591 0 0.8466222 0.5321944 0 0.7072617 0.7069519 0 0.5317408 0.8469073 0 -0.1119965 -0.9937086 0 -0.3303105 -0.9438723 0 -0.5317404 -0.8469074 0 -0.7072613 -0.7069523 0 -0.8466218 -0.532195 0 -0.9439174 -0.3301817 0 -0.9937128 -0.1119599 0 -0.9937129 0.1119591 0 -0.9439156 0.330187 0 -0.8466222 0.5321944 0 -0.7072617 0.7069519 0 -0.5317408 0.8469073 0 -0.3303256 0.9438671 0 -0.1119965 0.9937086 0 -0.5317404 0.8469074 0 -0.7072613 0.7069523 0 -0.8466218 0.532195 0 -0.9937128 0.1119599 0 -0.9937129 -0.1119591 0 -0.8466222 -0.5321944 0 -0.7072617 -0.7069519 0 -0.5317408 -0.8469073 -0.9109402 0.06205624 0.4078444 -0.9068749 0.06674063 0.4160814 -0.9049276 0.06540966 0.4205088 -0.9055036 0.068134 0.4188328 -0.9018982 0.05532568 0.4283909 -0.8993464 0.04896897 0.434486 -0.8996874 0.04758572 0.4339337 -0.9055117 0.0182386 0.4239292 -0.906477 0.009525537 0.422148 -0.906355 0.1839236 0.3803853 -0.9066336 0.1822596 0.3805221 -0.9064372 0.190461 0.3769565 -0.9044499 0.244699 0.3494178 -0.9060189 0.2529908 0.3393013 -0.9053584 0.2484922 0.3443515 -0.9080122 0.2739388 0.3169722 -0.9201062 0.2517943 0.3000069 -0.9094457 0.2708849 0.3154838 -0.9037274 0.4241461 0.05811232 -0.8998836 0.4333884 0.04882907 -0.9058136 0.4234405 0.01413893 -0.905467 0.4240583 0.01744002 -0.9028123 0.4059167 0.141992 -0.9081329 0.4115471 0.0769664 -0.9061067 0.4153562 0.08031255 -0.9174713 0.3917468 0.06914502 -0.9035691 0.4245704 -0.05747109 -0.9028125 0.405917 -0.1419895 -0.9027189 0.3642431 -0.2289667 -0.9025763 0.3044974 -0.304364 -0.904869 0.2434333 -0.349217 -0.908038 0.2737796 -0.3170361 -0.9092867 0.2711204 -0.3157394 -0.9200159 0.2519255 -0.3001738 -0.9047738 0.2048395 -0.3733968 -0.9064549 0.1917265 -0.3762722 -0.9067049 0.1813022 -0.3808094 -0.902818 0.04816091 -0.4273175 -0.9056509 0.03343009 -0.4227043 -0.9075248 0.09695661 -0.4086542 -0.9025787 0.1422069 -0.4063608 -0.9041231 0.1489006 -0.4004872 -0.906373 0.1844555 -0.3800848 -0.9128801 0.1540731 -0.3780362 -0.9080491 0.1536646 -0.3896591 -0.9025872 0.2167226 -0.3719781 -0.8980952 0.23386 -0.3724707 -0.9009736 0.2370371 -0.3634006 -0.9051992 0.2463847 -0.3462789 -0.9055567 0.2479005 -0.3442566 -0.9087677 0.3348017 -0.2490966 -0.9086011 0.3834313 -0.1656036 -0.9173069 0.3921198 -0.06921255 -0.9062618 0.4150662 -0.08005994 -0.9081328 0.4115469 -0.07696855 -0.9026456 0.4269106 -0.05457502 -0.9000591 0.4330283 -0.04878813 -0.9055866 0.4237923 -0.01769739 -0.9057579 0.4234901 -0.01609081 -0.902975 0.4260618 0.05574607 -0.9086008 0.3834304 0.1656072 -0.9027189 0.3642432 0.2289667 -0.9087676 0.3348019 0.2490966 -0.9025764 0.3044973 0.304364 -0.9010468 0.2372134 0.3631042 -0.8980525 0.2339065 0.3725445 -0.9025326 0.2168293 0.3720485 -0.9048026 0.2044938 0.3735166 -0.9045512 0.1540997 0.3975431 -0.9061347 0.1167697 0.4065523 -0.9056423 0.06939309 0.4183262 -0.9112054 0.1613304 0.3790479 -0.9077741 0.1601656 0.3876768 -0.9023969 0.1423392 0.406718 -0.9064767 -0.009571909 0.4221476 -0.9055268 -0.01818382 0.4238996 -0.8997842 -0.04719084 0.4337759 -0.8993474 -0.04896867 0.434484 -0.9031721 -0.05856233 0.4252653 -0.9043588 -0.06277883 0.4221305 -0.9047746 -0.07122534 0.4198926 -0.9085118 -0.06316256 0.413058 -0.9088866 -0.06273239 0.4122982 -0.9056183 -0.06868344 0.418495 -0.9061347 -0.1167697 0.4065523 -0.9045419 -0.1540478 0.3975846 -0.906373 -0.1844555 0.3800848 -0.9064537 -0.1916281 0.3763248 -0.9067014 -0.1812999 0.3808187 -0.9047703 -0.2048397 0.3734052 -0.9025729 -0.2167793 0.37198 -0.8980952 -0.23386 0.3724707 -0.9009734 -0.2370373 0.3634009 -0.9051903 -0.2463645 0.3463166 -0.905564 -0.2479464 0.3442041 -0.9048702 -0.2434323 0.3492146 -0.9092868 -0.2711207 0.3157393 -0.9200009 -0.2519535 0.3001964 -0.9112054 -0.1613304 0.3790479 -0.9077978 -0.1601734 0.3876179 -0.9087706 -0.3906135 0.1468237 -0.9038859 -0.4068992 0.1319978 -0.8976788 -0.415937 0.145497 -0.9069619 -0.3800137 0.181686 -0.9018242 -0.4020075 0.1584395 -0.945927 -0.2977907 0.1286188 -0.9206459 -0.3610522 0.1485005 -0.9173091 -0.3921149 0.06920999 -0.9062589 -0.415072 0.08006274 -0.9035692 -0.4245703 0.0574699 -0.9026461 -0.4269095 0.05457419 -0.9000595 -0.4330273 0.04878801 -0.9055867 -0.4237921 0.01769697 -0.9057578 -0.4234902 0.01609307 -0.9058136 -0.4234408 -0.01413726 -0.9054675 -0.4240572 -0.01744043 -0.8998832 -0.4333892 -0.04882919 -0.9029749 -0.4260617 -0.05574798 -0.9037268 -0.4241472 -0.05811351 -0.9081328 -0.4115469 -0.07696849 -0.9061094 -0.4153507 -0.08030974 -0.917469 -0.3917518 -0.06914758 -0.9028126 -0.4059171 -0.1419895 -0.9086011 -0.3834313 -0.1656036 -0.9087676 -0.3348019 -0.2490966 -0.9080125 -0.2739385 -0.316972 -0.9060176 -0.2529926 -0.3393037 -0.9053516 -0.2484456 -0.3444028 -0.9044595 -0.2447183 -0.3493795 -0.9010472 -0.2372131 -0.3631033 -0.8980524 -0.2339066 -0.3725447 -0.902547 -0.2167731 -0.3720465 -0.9048066 -0.2044914 -0.3735082 -0.9066371 -0.1822623 -0.3805122 -0.9064379 -0.1905589 -0.3769054 -0.9063547 -0.1839261 -0.3803848 -0.9080265 -0.1536625 -0.3897123 -0.9128801 -0.1540731 -0.3780362 -0.9201217 -0.2517653 -0.2999839 -0.9094454 -0.2708854 -0.3154841 -0.9056509 -0.03343015 -0.4227043 -0.902818 -0.04816102 -0.4273176 -0.9025787 -0.1422069 -0.4063608 -0.9041311 -0.1489355 -0.4004566 -0.9025764 -0.3044973 -0.304364 -0.9027189 -0.3642431 -0.2289667 -0.9049941 -0.3431835 0.2514178 -0.9053025 -0.3597166 0.2259016 -0.9064438 -0.331664 0.2614547 -0.9061383 -0.3198702 0.2767608 -0.913253 -0.3187175 0.2537485 -0.9083136 -0.3217378 0.267304 -0.9023969 -0.1423392 0.406718 -0.905082 -0.4055413 0.1279176 -0.906719 -0.3967947 0.1428802 -0.8802602 -0.4110655 0.2369964 -0.9371817 -0.2798731 0.2082347 -0.9371085 -0.2800304 0.2083523 -0.9010704 -0.3556269 0.248197 -0.8751246 -0.4096787 0.2575278 -0.8915026 -0.389914 0.2306306 -0.905137 -0.3750816 0.2001022 -0.9025764 -0.3044973 0.3043641 -0.908038 -0.2737795 0.3170363 -0.9081329 -0.4115471 0.07696634 -0.9075248 -0.09695672 -0.4086542 -0.9817299 0.008799672 -0.1900766 -0.9813387 0.01515984 -0.1916885 -0.9823332 0.03857851 -0.1831207 -0.9814856 0.07228904 -0.1773712 -0.9818081 0.04383331 -0.1847473 -0.9818828 0.07553058 -0.1737859 -0.9817929 0.0865302 -0.1691011 -0.9818083 0.09621596 -0.1636921 -0.9819047 0.1007715 -0.1603383 -0.9817658 0.09813243 -0.1628064 -0.9818471 0.09399008 -0.164749 -0.9818431 0.09535866 -0.1639841 -0.9814568 0.1201374 -0.1493642 -0.9809619 0.1248437 -0.1487542 -0.9820834 0.1396353 -0.1265476 -0.981862 0.1585395 -0.1039825 -0.9825708 0.17399 -0.06543815 -0.9822255 0.1866369 -0.01999557 -0.9816795 0.1905372 -9.99012e-4 -0.9817867 0.1898902 -0.006064593 -0.981845 0.09498625 0.1641895 -0.9817569 0.09815621 0.1628462 -0.9818941 0.1007682 0.1604049 -0.9818027 0.09637928 0.1636292 -0.9817896 0.08674949 0.1690084 -0.9818828 0.07553064 0.1737859 -0.981755 0.07446819 0.1749624 -0.9816085 0.05270111 0.1834869 -0.9825485 0.0383448 0.1820116 -0.9817363 0.01244622 0.1898394 -0.9817125 0.02863562 0.1882036 -0.9814575 0.1201346 0.1493619 -0.9818457 0.09401553 0.164743 -0.9820833 0.1396356 0.1265476 -0.9809622 0.1248459 0.1487512 -0.9818277 0.008790433 0.1895711 -0.9817449 0.00642836 0.1900939 -0.9807791 0.1565461 0.1164723 -0.9818619 0.15854 0.1039825 -0.9813193 0.176617 0.07628268 -0.9808541 0.1917799 0.03385019 -0.9818009 0.1898047 0.006431043 -0.9816797 0.1905372 6.99994e-4 -0.980854 0.1917802 -0.03385096 -0.9813192 0.176618 -0.07628118 -0.9807791 0.1565459 -0.1164723 -0.9822254 0.1866372 0.01999628 -0.9825711 0.1739888 0.06543767 -0.981745 -0.006423771 0.1900938 -0.981828 -0.008790016 0.1895698 -0.9817125 -0.02863562 0.1882036 -0.9817363 -0.01245743 0.1898384 -0.9825485 -0.03834497 0.1820115 -0.9816085 -0.05270111 0.1834869 -0.981755 -0.07446777 0.1749624 -0.9818828 -0.07553064 0.1737859 -0.9818093 -0.09623402 0.1636753 -0.9817931 -0.08650231 0.1691151 -0.9819049 -0.1007711 0.1603376 -0.9817659 -0.09813255 0.1628065 -0.9818455 -0.09401524 0.1647441 -0.9818442 -0.09532886 0.1639959 -0.9814575 -0.1201346 0.1493619 -0.9809622 -0.1248459 0.1487513 -0.9820833 -0.1396353 0.1265476 -0.981862 -0.1585395 0.1039825 -0.9825711 -0.1739888 0.06543767 -0.9822254 -0.1866374 0.01999628 -0.9816795 -0.1905372 9.99012e-4 -0.9817868 -0.1898897 0.006065785 -0.9818441 -0.095016 -0.1641778 -0.9817569 -0.09815615 -0.162846 -0.9818941 -0.1007683 -0.160405 -0.9818019 -0.09635949 -0.1636461 -0.9817892 -0.0867784 -0.168995 -0.9818827 -0.07553058 -0.1737858 -0.9814855 -0.07228904 -0.1773711 -0.9818081 -0.04383331 -0.1847473 -0.9823332 -0.03857851 -0.1831207 -0.9817299 -0.008798956 -0.1900766 -0.9813387 -0.01515984 -0.1916885 -0.9814568 -0.1201374 -0.1493642 -0.9818472 -0.09399032 -0.164748 -0.9820833 -0.1396356 -0.1265476 -0.9809619 -0.1248437 -0.1487541 -0.9807791 -0.1565461 -0.1164723 -0.9818619 -0.15854 -0.1039824 -0.9813192 -0.176618 -0.07628118 -0.980854 -0.1917802 -0.03385096 -0.9818009 -0.1898046 -0.006429731 -0.9816797 -0.1905372 -6.99994e-4 -0.9808541 -0.1917799 0.03385019 -0.9813193 -0.1766168 0.07628268 -0.9807791 -0.1565459 0.1164723 -0.9822255 -0.1866369 -0.01999557 -0.9825708 -0.17399 -0.06543815 1 -9.69021e-7 0 1 0 0 1 0 0 1 -1.43457e-7 0 1 0 0 1 0 0 1 1.99593e-7 0 0.4686775 0.04329246 0.882308 0.4536921 0.1270245 0.8820591 0.4742392 0.1819844 0.861382 0.4616403 0.3483755 0.8157958 0.453411 0.3703728 0.8107049 0.470819 0.4560455 0.7552167 0.4604303 0.5811292 0.6710387 0.4770694 0.6025394 0.6398055 0.4581566 0.7427421 0.4882895 0.4545751 0.7492893 0.481588 0.4797871 0.8212406 0.3088174 0.4550818 0.8543923 0.2508277 0.4765617 0.874007 0.09487187 0.476562 0.8740073 -0.09486806 0.4797871 0.8212406 -0.3088174 0.4581564 0.7427424 -0.4882894 0.47707 0.6025261 -0.6398176 0.4604396 0.5811259 -0.6710351 0.4708275 0.4560913 -0.7551836 0.4534111 0.3703725 -0.8107051 0.4616402 0.3483754 -0.8157958 0.4742404 0.1819542 -0.8613877 0.4537044 0.1270234 -0.882053 0.4686757 0.04337769 -0.8823047 0.4545752 0.7492894 -0.4815879 0.4550817 0.8543923 -0.2508277 0.4515152 0.8922635 0 0.4686757 -0.04337769 -0.8823047 0.4537042 -0.1270233 -0.882053 0.4742404 -0.1819541 -0.8613877 0.4616403 -0.3483755 -0.8157958 0.453411 -0.3703728 -0.8107049 0.4708275 -0.4560913 -0.7551836 0.4604395 -0.581126 -0.6710352 0.47707 -0.6025261 -0.6398176 0.4581566 -0.7427421 -0.4882895 0.4545753 -0.7492893 -0.481588 0.4797872 -0.8212406 -0.3088174 0.4550817 -0.8543923 -0.2508277 0.476562 -0.8740073 -0.09486806 0.4765617 -0.874007 0.09487187 0.4797872 -0.8212406 0.3088174 0.4581564 -0.7427424 0.4882894 0.4770694 -0.6025394 0.6398055 0.4604303 -0.5811291 0.6710388 0.4708192 -0.4560454 0.7552165 0.4534112 -0.3703725 0.8107051 0.4616402 -0.3483754 0.8157958 0.4742392 -0.1819846 0.861382 0.4536921 -0.1270247 0.8820591 0.4686775 -0.04329246 0.882308 0.4545751 -0.7492894 0.4815879 0.4550818 -0.8543923 0.2508277 0.4515152 -0.8922635 0 0.264783 -0.04735308 -0.9631448 0.2743094 -0.06538695 -0.9594159 0.2358484 -0.1997925 -0.9510303 -0.06885963 -0.3594105 -0.9306355 -0.3167625 -0.3434005 -0.8841593 -0.5404672 -0.303318 -0.7847889 -0.7245458 -0.2506238 -0.6420446 -0.9187528 -0.1416336 -0.3685559 -0.9123244 -0.163213 -0.375534 -0.9174363 -0.2053999 -0.3407665 -0.91833 -0.2061584 -0.3378885 -0.7280136 -0.4660982 -0.5027412 -0.5403227 -0.6928572 -0.477494 -0.3125501 -0.8860366 -0.3424205 -0.07198357 -0.9896926 -0.1238029 0.2633565 -0.9590654 -0.1041011 0.2833924 -0.9515879 -0.119035 0.2382969 -0.9090451 -0.341836 0.2519438 -0.9026734 -0.3488627 -0.07153385 -0.820609 -0.5669953 -0.3152258 -0.6462933 -0.6949372 -0.5390011 -0.4380958 -0.7194095 -0.7297235 -0.2452697 -0.6382371 -0.7293567 -0.3558291 -0.5843154 -0.7284284 -0.3568409 -0.5848562 -0.07466077 -0.06780546 -0.9949012 -0.06875282 -0.2085686 -0.9755882 -0.07457679 -0.2050195 -0.9759126 -0.3204515 -0.06222498 -0.945219 -0.5370649 -0.05541115 -0.8417191 -0.5348334 -0.05725663 -0.8430154 -0.5406944 -0.1707732 -0.8237026 -0.5346339 -0.1757076 -0.8266158 -0.3171368 -0.1971861 -0.927654 -0.3154103 -0.1983906 -0.9279858 -0.06583786 -0.06179571 -0.995915 -0.3155516 -0.05876624 -0.9470871 -0.7305781 -0.04627096 -0.6812596 -0.7298166 -0.04700934 -0.6820248 -0.7247958 -0.1436082 -0.6738306 -0.7296296 -0.1388248 -0.6696031 -0.9151536 -0.01864027 -0.4026743 -0.9174552 -0.0273568 -0.3968975 -0.9089424 -0.08594757 -0.4079666 -0.9095644 -0.08662056 -0.4064353 -0.9115543 -0.2577062 -0.3204001 -0.9209589 -0.2651959 -0.2854925 -0.7265503 -0.5660271 -0.3895357 -0.5385217 -0.7856864 -0.3044524 -0.3139984 -0.9420745 -0.1179014 -0.072142 -0.9896813 0.1238005 0.2382784 -0.9090495 0.3418371 0.2833867 -0.9515895 0.1190355 0.2633562 -0.959065 0.1041052 -0.9112086 -0.3052421 -0.2766335 -0.9204054 -0.3218669 -0.2219364 -0.7271705 -0.6400485 -0.248115 -0.5381091 -0.8363606 -0.1045935 -0.3137694 -0.9421491 0.1179147 -0.07165819 -0.9303646 0.359565 0.2709486 -0.8043455 0.5287867 0.2519252 -0.902678 0.3488642 -0.9160078 -0.3354475 -0.2200111 -0.9115124 -0.3834962 -0.1485795 -0.7265452 -0.6818188 -0.08517807 -0.5378484 -0.8365253 0.1046167 -0.3147076 -0.8853718 0.3421638 -0.07148981 -0.8212966 0.5660046 0.2195049 -0.6688671 0.7102355 0.2918373 -0.7875578 0.5427556 -0.9081597 -0.3918273 -0.1473678 -0.91883 -0.3916131 -0.0488944 -0.7264369 -0.681932 0.08519536 -0.5387812 -0.7855319 0.3043921 -0.3120296 -0.7816525 0.5400527 -0.0675162 -0.6772614 0.7326382 0.2838197 -0.5025847 0.8166119 0.2513751 -0.3801161 0.890125 0.2768394 -0.4967195 0.822575 -0.9144412 -0.4024159 -0.04311329 -0.9144411 -0.4024163 0.04311466 -0.908156 -0.391835 0.1473705 -0.9160031 -0.3354562 0.2200172 -0.9112088 -0.3052417 0.2766337 -0.9115543 -0.2577062 0.3204004 -0.9174363 -0.2053995 0.3407665 -0.9123244 -0.1632136 0.3755338 -0.9187528 -0.1416332 0.3685559 -0.9095644 -0.08662056 0.4064353 -0.9089426 -0.08594709 0.4079664 -0.9174551 -0.02735602 0.396898 -0.7305309 -0.04631632 0.6813073 -0.5371347 -0.05535411 0.8416783 -0.3203667 -0.06216543 0.9452517 -0.315639 -0.05882769 0.9470541 -0.06583762 -0.06186252 0.9959108 -0.07466042 -0.06787228 0.9948966 -0.06873106 -0.2050487 0.9763356 -0.06531828 -0.359543 0.9308397 -0.07897597 -0.5225005 0.8489735 -0.07793569 -0.6800786 0.728985 -0.3152698 -0.6473649 0.6939191 -0.3147158 -0.7815718 0.538609 -0.5390916 -0.6935177 0.4779263 -0.727804 -0.5649412 0.388771 -0.9204045 -0.3218641 0.2219441 -0.7265604 -0.5656575 0.3900536 -0.7267804 -0.466973 0.5037128 -0.7279781 -0.4666073 0.5023202 -0.9209589 -0.2651958 0.2854925 -0.9151619 -0.0186702 0.4026541 0.2647336 -0.04726022 0.9631629 0.2743424 -0.0654509 0.9594022 0.2371516 -0.2008109 0.9504916 0.2768346 -0.346231 0.8963742 0.2357822 -0.1997397 0.9510577 0.2709762 -0.8043389 -0.5287824 0.291844 -0.7875685 -0.5427364 -0.06749993 -0.68062 -0.7295206 -0.3119341 -0.4959062 -0.8104162 -0.5359004 -0.3070065 -0.7864845 -0.5357265 -0.4407306 -0.7202456 0.2194973 -0.6688541 -0.71025 0.2334005 -0.6600601 -0.7140342 -0.07895797 -0.5171099 -0.8522694 -0.3194983 -0.3416108 -0.8838682 -0.3189427 -0.4916386 -0.8102883 0.2837776 -0.5025908 -0.8166229 -0.06533282 -0.36127 -0.9301697 -0.06585222 -0.5229999 -0.849785 0.2768486 -0.4967715 -0.8225405 0.2513751 -0.3801161 -0.890125 0.2768701 -0.3461831 -0.8963818 0.2371101 -0.2007793 -0.9505085 -0.7265483 -0.6818217 0.08512836 -0.7271793 -0.6400865 0.247991 -0.7269164 -0.6402996 0.2482115 -0.5385281 -0.7856423 0.3045548 -0.9115091 -0.3835032 0.1485822 -0.5412467 -0.5716857 -0.616626 -0.5386517 -0.5737745 -0.6169581 -0.3119537 -0.648135 -0.6946985 -0.07799512 -0.6767416 -0.7320777 -0.7268506 -0.4674205 -0.5031961 -0.3120715 -0.7822788 -0.5391209 -0.3147563 -0.7809002 -0.5395584 -0.06849098 -0.8214818 -0.5661066 -0.7277432 -0.5646336 -0.3893313 -0.5391192 -0.6938084 -0.477473 -0.07169348 -0.9303665 -0.359553 -0.07172393 -0.9303602 -0.3595631 -0.7269082 -0.6403542 -0.2480947 -0.5387758 -0.7854948 -0.3044973 -0.3146797 -0.8850716 -0.3429648 -0.7264412 -0.681934 -0.08514279 -0.5378538 -0.8365356 -0.1045061 -0.3137732 -0.9421594 -0.1178232 -0.07214128 -0.9896742 -0.123858 -0.5381017 -0.836378 0.1044909 -0.3139945 -0.9420863 0.1178181 -0.07197177 -0.9896856 0.1238649 -0.9188293 -0.3916147 0.0488947 -0.3125786 -0.8857188 0.3432153 -0.07168859 -0.9303667 0.3595535 -0.5402914 -0.6931986 0.4770334 -0.5413043 -0.5725966 0.6157296 -0.3118249 -0.4928647 0.8123113 -0.06586915 -0.5176029 0.8530818 -0.06854945 -0.8207941 0.5670962 -0.9183302 -0.2061579 0.3378886 -0.7293296 -0.3563416 0.584037 -0.5358002 -0.439156 0.721152 -0.3188329 -0.4947104 0.8084598 -0.5390806 -0.4396148 0.7184225 -0.5387152 -0.5727717 0.6178339 -0.7283992 -0.3563585 0.5851866 -0.3120003 -0.6469979 0.6957366 0.233438 -0.660054 0.7140277 -0.7298704 -0.2485723 0.6367896 -0.5408433 -0.1749306 0.8227319 -0.3155185 -0.1973497 0.9281709 -0.3170757 -0.1982213 0.9274542 -0.07455629 -0.208424 0.9751927 -0.5403539 -0.3059729 0.7838357 -0.5357889 -0.3043952 0.7875747 -0.316724 -0.3419468 0.8847364 -0.06884956 -0.3612301 0.9299315 -0.319535 -0.3431065 0.8832753 -0.7246972 -0.2471799 0.6432077 -0.724644 -0.1398966 0.6747742 -0.5347664 -0.05731195 0.8430542 -0.5347045 -0.1715488 0.8274433 -0.7298176 -0.04700905 0.6820239 -0.7294876 -0.1425727 0.6689701 -0.9151619 0.01867127 0.4026541 -0.9174551 0.0273568 0.3968978 -0.7296301 0.1388247 0.6696026 -0.5404655 0.3033189 0.7847896 -0.3189439 0.4916375 0.8102884 -0.07799404 0.6767416 0.7320778 0.2195048 0.668867 0.7102356 0.233438 0.660054 0.7140277 0.2838197 0.5025847 0.8166119 0.2768388 0.4967198 0.822575 0.2513751 0.3801161 0.890125 0.2357822 0.1997397 0.9510577 -0.07466042 0.06787228 0.9948966 -0.06583762 0.06186252 0.9959108 -0.315639 0.05882769 0.9470541 -0.3203667 0.06216543 0.9452517 -0.5371347 0.05535411 0.8416783 -0.7305309 0.04631632 0.6813073 -0.7298173 0.04700982 0.6820241 -0.9089426 0.08594751 0.4079664 -0.9095644 0.08662056 0.4064353 -0.724546 0.2506237 0.6420443 -0.535726 0.44073 0.7202464 -0.3119556 0.6481122 0.694719 -0.06854677 0.8214659 0.5661231 0.2709487 0.8043454 0.5287868 0.2918373 0.7875578 0.5427556 -0.9187527 0.1416336 0.368556 -0.7293567 0.3558291 0.5843154 -0.5386523 0.5737558 0.616975 -0.3147556 0.7809124 0.5395414 -0.07168877 0.9303624 0.3595646 0.2382785 0.9090493 0.3418374 0.2519252 0.902678 0.3488642 -0.9123244 0.1632136 0.3755338 -0.9174363 0.2053995 0.3407665 -0.9115543 0.2577062 0.3204004 -0.9112088 0.3052417 0.2766337 -0.9160031 0.3354562 0.2200172 -0.908156 0.391835 0.1473705 -0.9144411 0.4024163 0.04311466 -0.9144412 0.4024159 -0.04311329 -0.91883 0.3916131 -0.0488944 -0.9081595 0.3918278 -0.1473678 -0.9115123 0.3834965 -0.1485794 -0.7277776 0.564956 -0.388799 -0.5413055 0.5726151 -0.6157113 -0.3118249 0.4928647 -0.8123113 -0.06531685 0.3594965 -0.9308577 0.2358484 0.1997925 -0.9510303 0.2743094 0.06538695 -0.9594159 0.264783 0.04735308 -0.9631448 -0.9160075 0.3354481 -0.2200111 -0.9204055 0.3218664 -0.2219364 -0.7268158 0.4669615 -0.5036723 -0.5390806 0.4396148 -0.7184225 -0.3195347 0.3430634 -0.8832922 -0.06873172 0.205106 -0.9763235 -0.06884968 0.3611845 -0.9299492 -0.9112086 0.3052421 -0.2766335 -0.9209589 0.2651958 -0.2854925 -0.7284002 0.3563579 -0.5851857 -0.5357889 0.3043949 -0.7875748 -0.3171616 0.198269 -0.9274147 -0.07466077 0.06780546 -0.9949012 -0.07455533 0.2084807 -0.9751806 -0.9115544 0.2577062 -0.3204002 -0.9183301 0.2061582 -0.3378886 -0.7298704 0.2485723 -0.6367896 -0.5408419 0.1748843 -0.8227428 -0.3155515 0.05876624 -0.9470871 -0.06583786 0.06179577 -0.995915 -0.9174363 0.2053999 -0.3407665 -0.9123244 0.1632137 -0.375534 -0.9095644 0.08662056 -0.4064353 -0.7298166 0.04700934 -0.6820248 -0.7305781 0.04627096 -0.6812596 -0.5348336 0.05725663 -0.8430153 -0.5370649 0.05541157 -0.8417192 -0.3204515 0.06222498 -0.945219 -0.9089426 0.08594709 -0.4079664 -0.9174551 0.02735602 -0.3968977 -0.9151536 0.01863992 -0.4026743 0.23711 0.2007794 -0.9505085 0.2768701 0.3461831 -0.8963818 0.2513751 0.3801161 -0.890125 0.2768486 0.4967715 -0.8225405 0.2837776 0.5025908 -0.8166229 0.2334008 0.6600601 -0.7140341 0.2194973 0.668854 -0.7102501 0.2918441 0.7875685 -0.5427365 -0.07172381 0.9303643 -0.3595526 -0.3139944 0.9420867 -0.1178141 -0.5378542 0.8365349 0.1045097 -0.7269251 0.6403375 0.2480883 -0.9115091 0.3835032 0.1485822 0.2709763 0.8043388 -0.5287827 0.2519437 0.9026735 -0.3488625 -0.07198381 0.9896853 -0.1238603 -0.3137729 0.9421589 0.1178272 -0.5387758 0.7854949 0.3044973 -0.7277692 0.564603 0.3893269 -0.9204044 0.3218641 0.2219441 0.2382968 0.9090451 -0.3418358 0.2833927 0.9515877 -0.1190351 -0.07214152 0.9896736 0.1238629 -0.3146795 0.8850717 0.3429648 -0.5391199 0.6938178 0.4774586 -0.726817 0.4674448 0.5032222 -0.9209589 0.2651959 0.2854925 0.2633565 0.9590654 -0.1041011 0.2633562 0.959065 0.1041052 0.2833865 0.9515897 0.1190354 -0.07197117 0.9896935 0.1238025 -0.07165819 0.9303689 0.3595539 -0.3125502 0.8860364 0.3424206 -0.3120725 0.78229 0.539104 -0.5412465 0.5716671 0.6166434 -0.7284286 0.3568404 0.5848562 -0.9183302 0.2061579 0.3378886 0.2371515 0.2008109 0.9504916 0.2743422 0.0654509 0.9594022 0.2647336 0.0472601 0.9631629 0.2768346 0.346231 0.8963742 -0.06885963 0.3594581 0.9306172 -0.3166809 0.3434537 0.8841679 -0.3194994 0.3416107 0.8838678 -0.7246965 0.2471802 -0.6432083 -0.7294889 0.1425721 -0.6689688 -0.7246435 0.139897 -0.6747745 -0.53477 0.1715403 -0.8274025 -0.5347664 0.05731195 0.8430541 -0.5345647 0.1757628 0.8266487 -0.3170546 0.1972438 0.9276698 -0.3154954 0.1983311 0.9279695 -0.06875222 0.2085115 0.9756004 -0.0745781 0.2049624 0.9759244 -0.729724 0.2452695 0.6382365 -0.5359013 0.3070063 0.786484 -0.06585115 0.5229998 0.8497853 -0.07895797 0.5171099 0.8522694 -0.5406954 0.1707724 0.8237022 -0.7247958 0.1436082 0.6738306 -0.06533414 0.3613151 0.9301521 -0.5390018 0.4380955 0.7194091 -0.728014 0.4660841 0.5027539 -0.3119341 0.4959062 0.8104162 -0.7265228 0.5660594 0.3895402 -0.3152245 0.6462728 0.6949568 -0.540322 0.6928677 0.4774793 -0.06757116 0.6805949 0.7295374 -0.7271866 0.6400328 0.2481083 -0.5385218 0.7856864 0.3044524 -0.07147818 0.8206258 0.5669781 -0.9188293 0.3916147 0.0488947 -0.7264412 0.681934 0.08514279 -0.7265498 0.6818136 0.08517998 -0.5381084 0.8363606 0.1045969 -0.3139978 0.9420741 0.1179053 -0.7264376 0.6819317 -0.08519262 -0.5387812 0.7855319 -0.3043921 -0.312029 0.7816408 -0.5400701 -0.06744408 0.6772635 -0.7326428 -0.06849402 0.8207845 -0.567117 -0.0715453 0.8213056 -0.5659846 -0.5381017 0.8363786 -0.1044875 -0.537848 0.836526 -0.1046129 -0.3137703 0.9421494 -0.1179108 -0.072142 0.9896813 -0.1238005 -0.7265419 0.6818284 -0.08512908 -0.7268999 0.6403159 -0.248218 -0.5390914 0.6935071 -0.4779419 -0.3152709 0.6473864 -0.6938984 -0.07897597 0.5225005 -0.8489735 -0.07793658 0.6801011 -0.7289639 -0.3125786 0.8857188 -0.3432153 -0.3147076 0.8853718 -0.3421638 -0.07169336 0.9303625 -0.3595635 -0.7271624 0.6401032 -0.2479975 -0.5385284 0.7856422 -0.3045548 -0.7265856 0.5656433 -0.3900271 -0.5402917 0.6931892 -0.4770469 -0.3147162 0.7815603 -0.5386256 -0.7279785 0.4666067 -0.50232 -0.5387136 0.5727905 -0.6178177 -0.3119988 0.6470196 -0.6957172 -0.7293294 0.3563417 -0.5840372 -0.5357993 0.4391563 -0.7211525 -0.3188324 0.4947105 -0.80846 -0.06587034 0.5176028 -0.8530817 -0.5403539 0.3059729 -0.7838357 -0.3168037 0.3419374 -0.8847115 -0.9187528 0.1416336 -0.3685559 -0.3154352 0.1973032 -0.928209 0 0.1425384 0.9897893 0 0.1425386 0.9897893 0 0.4155417 0.9095742 0 0.6546494 0.7559327 0 0.8412293 0.5406786 0 0.9595066 0.2816866 0 1 0 0 0.9595066 -0.2816866 0 0.841229 -0.540679 0 0.654649 -0.7559331 0 0.4155416 -0.9095742 0 0.1425384 -0.9897893 0 0.1425386 -0.9897893 0 0.4155417 -0.9095742 0 0.6546491 -0.7559329 0 0.841229 -0.5406792 0 0.9595066 -0.2816863 0 0.9595066 0.2816863 0 0.8412287 0.5406796 0 0.6546487 0.7559334 0 0.4155416 0.9095742 0 -0.1425384 -0.9897893 0 -0.1425386 -0.9897893 0 -0.4155417 -0.9095742 0 -0.6546494 -0.7559327 0 -0.8412293 -0.5406786 0 -0.9595066 -0.2816866 0 -1 0 0 -0.9595066 0.2816866 0 -0.841229 0.540679 0 -0.654649 0.7559331 0 -0.4155416 0.9095742 0 -0.1425384 0.9897893 0 -0.1425386 0.9897893 0 -0.4155417 0.9095742 0 -0.6546491 0.7559329 0 -0.841229 0.5406792 0 -0.9595066 0.2816863 0 -0.9595066 -0.2816863 0 -0.8412287 -0.5406796 0 -0.6546487 -0.7559334 0 -0.4155416 -0.9095742 0 0.1562588 -0.9877162 0 0.4544447 -0.8907751 0 0.70667 -0.7075433 0 0.8909834 -0.4540361 0 0.9877016 -0.1563507 0 0.9877021 0.1563474 0 0.8909834 0.4540361 0 0.7066577 0.7075557 0 0.4544638 0.8907653 0 0.1562588 0.9877162 0 0.4544638 0.8907653 0 0.7066579 0.7075555 0 0.9877023 0.156347 0 0.9877016 -0.1563512 0 0.7066698 -0.7075436 0 0.4544446 -0.8907751 0 -0.1562588 0.9877162 0 -0.4544638 0.8907653 0 -0.7066579 0.7075555 0 -0.8909834 0.4540361 0 -0.9877023 0.156347 0 -0.9877016 -0.1563512 0 -0.8909834 -0.4540361 0 -0.7066698 -0.7075436 0 -0.4544446 -0.8907751 0 -0.1562588 -0.9877162 0 -0.4544447 -0.8907751 0 -0.70667 -0.7075433 0 -0.9877016 -0.1563507 0 -0.9877021 0.1563474 0 -0.7066577 0.7075557 0 -0.4544638 0.8907653 9.89089e-5 0.7896839 0.6135141 -4.2026e-4 0.9333238 0.3590358 -0.007493436 0.9658998 0.2588079 0.001574754 0.9965622 0.08283352 -0.002431452 0.9792033 -0.2028673 -0.007195591 0.9659019 -0.2588085 0.002598464 0.8805148 -0.4740117 -0.006266295 0.7000173 -0.7140985 0.00302422 0.4525015 -0.8917586 0 0.159449 -0.9872062 -0.008079349 0.2576942 -0.9661928 -0.005126118 0.707697 -0.7064976 -0.007405757 0.7077249 0.7064493 0.003701865 0.5390936 0.8422378 -0.005407571 0.2576271 0.9662294 0 0.1924768 0.9813016 0 -0.158696 -0.9873275 -0.008178949 -0.257694 -0.9661921 0.002891957 -0.4532238 -0.8913921 -0.005067706 -0.7012477 -0.7128998 -0.005968451 -0.7076936 -0.7064942 0.002457261 -0.8785269 -0.4776865 -0.007331252 -0.965901 -0.2588079 -0.002398252 -0.9795004 -0.2014284 0.00157541 -0.9966364 0.08193516 -0.007537186 -0.9658995 0.2588078 -2.24095e-4 -0.9320451 0.3623424 4.69989e-4 -0.7934214 0.6086727 0.003721296 -0.5387749 0.8424416 0 -0.1926091 0.9812756 -0.005393087 -0.2576271 0.9662294 -0.007405757 -0.7077249 0.7064493 0.001610219 0.680397 -0.732842 -9.82038e-4 0.2456955 -0.9693466 0 0.255234 -0.9668794 -0.001788675 0.7090135 -0.7051926 8.80677e-4 0.9112836 -0.4117783 -0.006015062 0.9659114 -0.258803 0 0.9901661 0.1398966 0 0.9899487 -0.1414269 -0.006089508 0.9659164 0.2587828 8.70566e-4 0.9107236 0.4130155 -0.001788675 0.7090135 0.7051926 -9.45325e-4 0.2552329 0.9668791 0 0.2451108 0.9694952 0.001559257 0.6808362 0.7324341 0 -0.2450192 -0.9695183 -9.53849e-4 -0.2552329 -0.9668791 0.001553177 -0.6808876 -0.7323863 8.70047e-4 -0.9106939 -0.4130811 0 -0.9901665 -0.139894 0 -0.9899487 0.1414269 -0.00601387 -0.9659177 0.25878 8.81199e-4 -0.9113124 0.4117147 -0.001788675 -0.7090135 0.7051926 0.001616358 -0.6803448 0.7328905 -9.73033e-4 -0.2457831 0.9693244 0 -0.255234 0.9668794 -0.0060907 -0.9659103 -0.2588059 -0.001788675 -0.7090135 -0.7051926 0.001586675 0.9754785 0.2200893 -0.00175476 0.9594357 -0.2819225 7.06812e-4 0.9659343 -0.2587868 -6.92268e-4 0.7031189 -0.711072 5.2441e-4 0.3849054 -0.9229559 0 0.1355817 -0.9907662 -0.006641983 0.2553139 -0.9668354 1.63342e-4 0.708968 -0.7052407 -0.00181365 0.9659329 0.2587863 7.94378e-4 0.8147501 0.5798118 -0.006094098 0.7050852 0.7090964 -1.99585e-5 0.3972296 0.9177193 -0.001000463 0.63198 0.7749843 -0.006391942 0.2624484 0.9649249 0 0.1324006 0.9911964 -8.64663e-4 0.6311569 -0.7756547 6.6356e-5 0.3973358 -0.9176734 -0.006335139 0.2624486 -0.9649253 0 0.133078 -0.9911056 -0.006007373 0.7051329 -0.7090498 8.09553e-4 0.8135506 -0.5814936 -0.00181359 0.9659329 -0.2587863 -0.001600205 0.9659274 0.2588085 -6.49825e-4 0.7090139 0.7051942 5.04562e-4 0.3862907 0.9223771 1.37361e-4 0.7032989 0.7108944 -0.0067088 0.2552281 0.9668577 0 0.1348971 0.9908596 6.75173e-4 0.9590114 0.2833667 0.001586616 0.9754785 -0.2200893 0 -0.1348971 -0.9908596 -0.006713271 -0.2553143 -0.9668349 5.04299e-4 -0.3864477 -0.9223112 1.372e-4 -0.7032998 -0.7108934 -6.43594e-4 -0.7089683 -0.7052402 6.77718e-4 -0.9590111 -0.2833679 -0.001600086 -0.9659335 -0.2587854 0.001586675 -0.9754784 0.2200897 8.10341e-4 -0.8134911 0.581577 -8.71584e-4 -0.6312624 0.7755689 5.84536e-5 -0.397336 0.9176732 -0.006343245 -0.2624485 0.9649252 0 -0.1329048 0.9911289 -0.006003975 -0.7050864 0.709096 -0.00181365 -0.9659329 0.2587863 0 -0.1325731 -0.9911733 -0.006383657 -0.2624485 -0.964925 -1.21652e-5 -0.3972299 -0.9177192 -9.93358e-4 -0.6318748 -0.7750698 -0.006097733 -0.7051317 -0.7090502 7.93591e-4 -0.8148095 -0.5797284 -0.00181359 -0.9659329 -0.2587863 0.001586616 -0.9754784 -0.2200897 -0.00175476 -0.9594356 0.2819224 7.04377e-4 -0.9659281 0.2588098 -6.98761e-4 -0.7031213 0.7110697 1.63398e-4 -0.7090137 0.7051948 5.24673e-4 -0.384749 0.9230211 0 -0.1355817 0.9907662 -0.006637394 -0.2552278 0.9668583 0 0 1 -0.001787066 0.2392187 0.9709641 0.002417147 0.5740592 0.8188104 0.002840757 0.8320508 0.5546923 -0.00112766 0.977081 0.2128652 0.00100708 0.9860893 -0.1662138 -0.005987346 0.9659169 -0.2587832 0.004093408 0.8464479 -0.532456 -0.006800949 0.7089533 -0.7052227 0.003923058 0.5731333 -0.8194528 0 0.1994445 -0.9799092 -0.004846036 0.2553175 -0.9668451 -0.004807829 0.9659233 0.2587842 -0.00642544 0.7050834 0.7090954 -0.003648757 0.2624514 0.9649383 0 0 -1 -0.001786231 0.2391179 -0.9709889 -0.003657579 0.2624514 -0.9649383 -0.006544649 0.7051293 -0.7090486 -0.00471127 0.9659237 -0.2587843 8.73871e-4 0.9858437 0.1676651 -9.59312e-4 0.9773796 -0.2114909 -0.006013035 0.9659106 0.2588062 0.00402373 0.8471369 0.5313597 -0.006911814 0.7089974 0.7051771 -0.004877328 0.2552308 0.9668679 0 0.199095 0.9799803 0.003841757 0.5730578 0.8195059 0.003015995 0.835869 -0.5489208 0.002370834 0.5733319 -0.8193199 0 -0.199095 -0.9799803 -0.00488466 -0.255317 -0.9668452 0.003835916 -0.5731369 -0.8194507 0.004029095 -0.8471365 -0.5313603 8.72362e-4 -0.9858401 -0.1676859 -9.57175e-4 -0.9773854 0.2114635 -0.00471127 -0.9659237 0.2587843 0.003015935 -0.835869 0.5489208 -0.006547629 -0.7050828 0.7090948 0.002363801 -0.5733292 0.8193219 -0.001785457 -0.2390013 0.9710177 -0.003665983 -0.2624514 0.9649384 -0.006011247 -0.9659168 -0.2587832 -0.006908059 -0.7089518 -0.7052231 -0.001788139 -0.2393356 -0.9709354 0.00242424 -0.5740618 -0.8188084 0.002840578 -0.8320508 -0.5546923 -0.001129865 -0.977075 -0.2128927 0.00100851 -0.9860926 0.166194 -0.005989074 -0.9659107 0.2588062 0.004088163 -0.8464485 0.5324552 -0.006805002 -0.7089989 0.7051767 0.00392878 -0.573054 0.8195083 0 -0.1994445 0.9799092 -0.004838764 -0.2552313 0.966868 -0.004807829 -0.9659233 -0.2587842 -0.00642234 -0.7051298 -0.7090492 -0.003640115 -0.2624514 -0.9649384 0 -0.1921176 -0.9813719 -0.004832088 -0.2552311 -0.9668681 0.00398451 -0.5347319 -0.8450123 0.00338751 -0.8227745 -0.5683579 1.69019e-4 -0.9797229 -0.2003574 -1.74019e-4 -0.978492 0.2062848 -0.004787266 -0.9659232 0.2587847 0.00334382 -0.8192465 0.5734317 -0.006696343 -0.7089981 0.7051787 0.003712832 -0.5430159 0.8397142 0 -0.1823123 0.9832407 -0.005548655 -0.2552301 0.9668645 -0.004909336 -0.9659165 -0.2588075 -0.006969571 -0.7089986 -0.7051755 0 0.1921176 0.9813719 -0.004832088 0.2552311 0.9668681 0.00398451 0.5347319 0.8450123 0.00338751 0.8227745 0.5683579 1.68999e-4 0.9797276 0.2003345 -1.74039e-4 0.978487 -0.2063086 -0.00478667 0.9659171 -0.2588077 0.00334382 0.8192465 -0.5734317 -0.006696403 0.7089981 -0.7051787 0.003712832 0.5430159 -0.8397142 0 0.1823123 -0.9832407 -0.005548596 0.2552301 -0.9668645 -0.004909873 0.9659227 0.2587845 -0.006969571 0.7089986 0.7051755 -0.9053532 -0.3664225 0.2146396 -0.9047715 -0.3661873 0.2174748 -0.907145 -0.3653995 0.2087374 -0.9068098 -0.3652642 0.2104237 -0.9062215 -0.3655991 0.2123678 -0.9055785 -0.3661565 0.2141426 -0.9077962 -0.3650296 0.206542 -0.9072651 -0.3648135 0.2092397 -0.9057326 -0.3662189 0.2133825 -0.9064195 -0.3656795 0.211382 0.9055957 0.3662452 -0.2139182 0.9081616 0.367283 -0.2008624 0.9056853 0.3665477 -0.2130193 0.9061989 0.3667557 -0.2104607 0.9061102 0.3664535 -0.2113671 0.9059256 0.3652331 -0.2142514 0.9068111 0.3667371 -0.2078404 0.9074889 0.3670109 -0.2043699 0.9064375 0.365439 -0.2117203 0.9063063 0.3665323 -0.210388 0.3428072 -0.9291884 -0.1381739 0.3458001 -0.9011073 -0.2615873 0.229026 -0.8693239 -0.4379763 0.08202809 -0.664125 -0.743108 -0.1004765 -0.2991747 -0.9488936 -0.2792767 0.1449751 -0.9492033 -0.2319144 0.1824457 -0.9554733 -0.433762 0.5321417 -0.7271009 -0.1014915 0.683592 -0.7227734 -0.5843724 0.7117089 -0.3898453 -0.3989923 0.906441 -0.1384553 -0.01869815 0.9487918 -0.3153484 -0.07870662 -0.308902 -0.9478317 0.1562014 -0.6991386 -0.6977151 -0.345012 0.928376 0.1381477 -0.1552028 0.9643256 0.2144492 -0.2994589 0.8508214 0.4317724 -0.1101868 0.6623394 0.741057 0.09685522 0.3034686 0.9479061 0.2800765 -0.1494613 0.9482713 0.2941902 -0.1623623 0.9418549 0.3850577 -0.5450286 0.7447647 0.4246194 -0.5908362 0.6860109 0.4092336 -0.7987605 0.4410324 0.3981137 -0.9068306 0.1384342 0.4429076 -0.8620152 0.2465011 0.1038545 0.3237739 0.9404173 -0.06234925 0.7351614 0.6750189 -0.4054093 0.8936334 -0.1925169 -0.8903464 0.4504925 -0.06587868 0.02838921 0.8161428 -0.5771525 -0.01223611 0.5577582 -0.8299134 -0.2574326 0.1047203 -0.9606052 -0.1216172 -0.2553817 -0.9591608 -0.4384044 -0.4350535 -0.7864668 0.2760732 -0.4762634 -0.8348394 -0.3486716 -0.7986785 -0.4904497 0.4716916 -0.6672763 -0.5764108 0.3212701 -0.9276981 -0.190163 -0.1487433 -0.9808871 -0.1254432 -0.694917 -0.03698265 -0.7181383 -0.9309305 0.1578584 -0.3293163 0.3921793 -0.8993667 0.1932225 -0.2504789 -0.9100811 0.3301708 0.7993893 -0.467252 0.3776938 0.6757625 -0.2953839 0.6753469 0.2390632 -0.111645 0.9645643 0.08911454 0.2484216 0.9645441 -0.2732345 0.1465735 0.9507151 0.1883358 0.6574113 0.7296163 -0.5578773 0.4367197 0.7057259 0.06305205 0.8880375 0.4554272 -0.3349167 0.9224026 0.1923649 -0.6851275 0.6539348 0.320889 -0.2408915 -0.333099 0.911601 -0.3879159 -0.6775234 0.6248867 -1 -8.32919e-6 0 -1 -1.42637e-6 0 -1 0 0 -1 1.31307e-7 0 -1 1.05208e-6 0 -1 0 0 -1 0 0 -1 5.45467e-7 0 -1 -1.68659e-7 0 -1 4.1646e-6 0 -1 -1.5303e-6 0</float_array>
          <technique_common>
            <accessor source="#Link6-mesh-normals-array" count="1123" stride="3">
              <param name="X" type="float"/>
              <param name="Y" type="float"/>
              <param name="Z" type="float"/>
            </accessor>
          </technique_common>
        </source>
        <vertices id="Link6-mesh-vertices">
          <input semantic="POSITION" source="#Link6-mesh-positions"/>
        </vertices>
        <triangles material="Material_001-material" count="1330">
          <input semantic="VERTEX" source="#Link6-mesh-vertices" offset="0"/>
          <input semantic="NORMAL" source="#Link6-mesh-normals" offset="1"/>
          <p>0 0 1 0 2 0 3 0 2 0 4 0 3 0 0 0 2 0 3 0 5 0 0 0 0 0 5 0 6 0 6 0 5 0 7 0 8 0 7 0 9 0 10 0 9 0 11 0 12 0 11 0 13 0 12 0 10 0 11 0 12 0 14 0 10 0 10 0 14 0 15 0 15 0 14 0 16 0 17 0 15 0 16 0 17 0 18 0 15 0 15 0 18 0 19 0 19 0 18 0 20 0 21 0 19 0 20 0 21 0 22 0 19 0 21 0 23 0 22 0 21 0 24 0 23 0 23 0 24 0 25 0 25 0 24 0 26 0 27 0 26 0 28 0 29 0 28 0 30 0 29 0 27 0 28 0 29 0 31 0 27 0 29 0 32 0 31 0 29 0 33 0 32 0 32 0 33 0 34 0 34 0 33 0 35 0 35 0 33 0 36 0 37 0 36 0 38 0 37 0 35 0 36 0 2 0 39 0 4 0 4 0 39 0 40 0 40 0 39 0 41 0 41 0 39 0 42 0 43 0 42 0 44 0 43 0 41 0 42 0 44 0 42 0 45 0 45 0 42 0 46 0 47 0 46 0 48 0 47 0 45 0 46 0 47 0 49 0 45 0 47 0 13 0 49 0 49 0 13 0 11 0 48 0 46 0 50 0 50 0 46 0 30 0 51 0 30 0 52 0 51 0 50 0 30 0 36 0 53 0 38 0 38 0 53 0 54 0 54 0 53 0 55 0 56 0 55 0 22 0 57 0 22 0 23 0 57 0 56 0 22 0 55 0 53 0 58 0 58 0 53 0 59 0 60 0 59 0 61 0 60 0 58 0 59 0 60 0 62 0 58 0 58 0 62 0 63 0 63 0 62 0 64 0 65 0 64 0 66 0 67 0 65 0 66 0 67 0 68 0 65 0 67 0 69 0 68 0 67 0 70 0 69 0 69 0 70 0 71 0 71 0 70 0 72 0 73 0 72 0 74 0 75 0 73 0 74 0 75 0 76 0 73 0 75 0 77 0 76 0 76 0 77 0 78 0 61 0 76 0 78 0 61 0 59 0 76 0 73 0 71 0 72 0 79 0 80 0 81 0 82 0 79 0 81 0 82 0 83 0 79 0 82 0 84 0 83 0 82 0 85 0 84 0 82 0 86 0 85 0 85 0 86 0 87 0 87 0 86 0 88 0 89 0 88 0 90 0 91 0 90 0 92 0 93 0 92 0 94 0 93 0 91 0 92 0 81 0 95 0 96 0 81 0 80 0 95 0 86 0 97 0 88 0 88 0 97 0 98 0 98 0 97 0 99 0 100 0 98 0 99 0 100 0 101 0 98 0 100 0 102 0 101 0 101 0 102 0 103 0 104 0 103 0 105 0 106 0 105 0 107 0 108 0 107 0 109 0 110 0 108 0 109 0 110 0 111 0 108 0 110 0 112 0 111 0 111 0 112 0 113 0 114 0 113 0 115 0 116 0 114 0 115 0 116 0 97 0 114 0 116 0 99 0 97 0 114 0 111 0 113 0 108 0 106 0 107 0 117 0 118 0 119 0 120 0 117 0 119 0 120 0 121 0 117 0 120 0 122 0 121 0 120 0 123 0 122 0 120 0 124 0 123 0 123 0 124 0 125 0 125 0 124 0 126 0 126 0 124 0 127 0 128 0 127 0 129 0 130 0 129 0 131 0 132 0 131 0 133 0 134 0 133 0 135 0 136 0 135 0 137 0 118 0 137 0 119 0 118 0 136 0 137 0 138 0 139 0 140 0 2 0 138 0 140 0 2 0 1 0 138 0 133 0 141 0 142 0 133 0 131 0 141 0 119 0 137 0 106 0 106 0 137 0 104 0 105 0 106 0 104 0 104 0 101 0 103 0 92 0 68 0 94 0 94 0 68 0 69 0 143 0 69 0 96 0 95 0 143 0 96 0 65 0 63 0 64 0 10 0 8 0 9 0 141 0 144 0 142 0 142 0 144 0 145 0 8 0 145 0 6 0 7 0 8 0 6 0 139 0 146 0 140 0 140 0 146 0 127 0 127 0 146 0 147 0 129 0 127 0 147 0 136 0 134 0 135 0 134 0 132 0 133 0 132 0 130 0 131 0 130 0 128 0 129 0 128 0 126 0 127 0 143 0 94 0 69 0 91 0 89 0 90 0 89 0 87 0 88 0 27 0 25 0 26 0 56 0 54 0 55 0 28 0 52 0 30 0 145 0 8 0 142 0 140 1 127 1 148 1 148 1 127 1 149 1 149 2 127 2 124 2 150 3 124 3 120 3 151 4 120 4 119 4 152 5 119 5 106 5 153 6 106 6 108 6 154 7 108 7 111 7 155 8 111 8 114 8 156 9 114 9 97 9 157 10 97 10 86 10 158 11 86 11 82 11 159 12 82 12 81 12 160 13 81 13 96 13 161 14 96 14 69 14 162 14 161 14 69 14 161 13 160 13 96 13 160 15 159 15 81 15 159 16 158 16 82 16 158 17 157 17 86 17 157 9 156 9 97 9 156 18 155 18 114 18 155 19 154 19 111 19 154 6 153 6 108 6 153 20 152 20 106 20 152 21 151 21 119 21 151 22 150 22 120 22 150 2 149 2 124 2 69 23 71 23 162 23 162 23 71 23 163 23 163 24 71 24 73 24 164 25 73 25 76 25 165 26 76 26 59 26 166 27 59 27 53 27 167 28 53 28 36 28 168 29 36 29 33 29 169 30 33 30 29 30 170 31 29 31 30 31 171 32 30 32 46 32 172 33 46 33 42 33 173 34 42 34 39 34 174 35 39 35 2 35 175 36 2 36 140 36 148 36 175 36 140 36 175 35 174 35 2 35 174 37 173 37 39 37 173 38 172 38 42 38 172 39 171 39 46 39 171 31 170 31 30 31 170 40 169 40 29 40 169 41 168 41 33 41 168 28 167 28 36 28 167 42 166 42 53 42 166 43 165 43 59 43 165 44 164 44 76 44 164 24 163 24 73 24 176 45 177 45 178 45 178 46 177 46 179 46 149 47 179 47 180 47 181 48 149 48 180 48 181 49 182 49 149 49 149 50 182 50 148 50 148 51 182 51 183 51 184 52 148 52 183 52 184 53 185 53 148 53 186 54 187 54 150 54 188 55 150 55 189 55 188 56 186 56 150 56 190 57 191 57 151 57 192 58 151 58 193 58 192 59 190 59 151 59 193 60 151 60 194 60 195 61 194 61 196 61 195 62 193 62 194 62 197 63 198 63 154 63 199 64 154 64 155 64 200 65 155 65 201 65 200 66 199 66 155 66 154 67 202 67 153 67 154 68 198 68 202 68 202 69 198 69 203 69 204 70 202 70 203 70 205 71 206 71 156 71 207 72 156 72 157 72 208 73 157 73 158 73 209 74 158 74 159 74 210 75 159 75 211 75 210 76 209 76 159 76 210 77 212 77 209 77 209 78 212 78 213 78 214 79 215 79 160 79 216 80 160 80 217 80 216 81 214 81 160 81 162 82 218 82 161 82 162 83 219 83 218 83 218 84 220 84 161 84 161 85 220 85 160 85 160 86 220 86 221 86 217 87 160 87 221 87 222 88 223 88 220 88 220 89 223 89 221 89 215 90 224 90 160 90 160 91 224 91 159 91 159 92 224 92 225 92 226 93 159 93 225 93 226 94 211 94 159 94 209 95 208 95 158 95 208 96 207 96 157 96 227 97 228 97 207 97 207 98 228 98 205 98 156 99 207 99 205 99 206 100 229 100 156 100 156 101 229 101 155 101 155 102 229 102 230 102 201 103 155 103 230 103 199 104 197 104 154 104 202 105 231 105 153 105 153 106 231 106 152 106 152 107 231 107 194 107 151 108 152 108 194 108 191 109 232 109 151 109 151 110 232 110 150 110 150 111 232 111 233 111 189 112 150 112 233 112 150 113 187 113 234 113 149 114 234 114 178 114 179 115 149 115 178 115 235 116 234 116 236 116 236 117 234 117 187 117 150 118 234 118 149 118 185 119 237 119 148 119 148 120 237 120 238 120 239 121 148 121 238 121 239 122 175 122 148 122 239 123 240 123 175 123 175 124 240 124 241 124 242 125 241 125 243 125 244 126 242 126 243 126 244 127 245 127 242 127 241 128 242 128 175 128 175 129 242 129 246 129 174 130 246 130 247 130 248 131 174 131 247 131 248 132 249 132 174 132 174 133 249 133 250 133 251 134 174 134 250 134 251 135 252 135 174 135 174 136 252 136 173 136 173 137 252 137 253 137 254 138 173 138 253 138 254 139 255 139 173 139 173 140 255 140 256 140 257 141 256 141 258 141 259 142 257 142 258 142 260 143 261 143 246 143 246 144 261 144 247 144 262 145 263 145 264 145 265 146 264 146 170 146 266 147 170 147 171 147 267 148 171 148 268 148 267 149 266 149 171 149 264 150 269 150 270 150 264 151 263 151 269 151 271 152 272 152 264 152 264 153 272 153 273 153 170 154 273 154 274 154 275 155 170 155 274 155 275 156 169 156 170 156 275 157 276 157 169 157 169 158 276 158 277 158 278 159 169 159 277 159 278 160 279 160 169 160 169 161 279 161 168 161 168 162 279 162 280 162 281 163 168 163 280 163 281 164 282 164 168 164 281 165 283 165 282 165 282 166 283 166 284 166 168 167 282 167 167 167 167 168 282 168 285 168 166 169 285 169 286 169 165 170 286 170 287 170 288 171 165 171 287 171 288 172 289 172 165 172 165 173 289 173 290 173 291 174 165 174 290 174 291 175 164 175 165 175 291 176 292 176 164 176 164 177 292 177 293 177 294 178 164 178 293 178 294 179 295 179 164 179 164 180 295 180 296 180 297 181 296 181 298 181 299 182 297 182 298 182 300 183 301 183 286 183 286 184 301 184 287 184 219 185 162 185 302 185 302 186 162 186 163 186 297 187 163 187 164 187 296 188 297 188 164 188 165 189 166 189 286 189 166 190 167 190 285 190 303 191 304 191 172 191 305 192 172 192 306 192 305 193 303 193 172 193 306 194 172 194 257 194 307 195 257 195 308 195 307 196 306 196 257 196 174 197 175 197 246 197 266 198 265 198 170 198 265 199 262 199 264 199 269 200 309 200 270 200 270 201 309 201 257 201 257 202 309 202 308 202 304 203 310 203 172 203 172 204 310 204 171 204 171 205 310 205 311 205 268 206 171 206 311 206 172 207 173 207 257 207 257 208 173 208 256 208 273 209 170 209 264 209 163 210 297 210 302 210 312 211 313 211 219 211 219 212 313 212 218 212 218 213 313 213 314 213 220 214 314 214 222 214 220 215 218 215 314 215 314 216 315 216 222 216 222 217 315 217 316 217 316 218 315 218 317 218 317 219 315 219 318 219 318 220 315 220 319 220 320 221 319 221 213 221 320 222 318 222 319 222 319 223 321 223 213 223 213 224 321 224 209 224 209 225 321 225 322 225 208 226 322 226 323 226 207 227 323 227 324 227 227 228 324 228 325 228 326 229 325 229 327 229 326 230 227 230 325 230 328 231 329 231 330 231 331 232 328 232 330 232 331 233 332 233 328 233 331 234 333 234 332 234 331 235 235 235 333 235 331 236 334 236 235 236 235 237 334 237 234 237 234 238 334 238 178 238 178 239 334 239 335 239 176 240 335 240 336 240 176 241 178 241 335 241 330 242 196 242 337 242 330 243 329 243 196 243 337 244 194 244 338 244 337 245 196 245 194 245 335 246 339 246 336 246 336 247 339 247 340 247 194 248 231 248 338 248 338 249 231 249 341 249 341 250 231 250 202 250 342 251 202 251 204 251 325 252 204 252 343 252 327 253 325 253 343 253 227 254 207 254 324 254 207 255 208 255 323 255 208 256 209 256 322 256 342 257 204 257 325 257 202 258 342 258 341 258 340 259 339 259 344 259 344 260 339 260 345 260 245 261 345 261 242 261 245 262 344 262 345 262 345 263 346 263 242 263 242 264 346 264 246 264 246 265 346 265 260 265 260 266 346 266 347 266 348 267 347 267 349 267 348 268 260 268 347 268 349 269 347 269 350 269 350 270 347 270 351 270 352 271 351 271 259 271 352 272 350 272 351 272 351 273 353 273 259 273 259 274 353 274 257 274 257 275 353 275 354 275 270 276 354 276 355 276 264 277 355 277 356 277 271 278 356 278 357 278 358 279 357 279 359 279 358 280 271 280 357 280 360 281 361 281 362 281 363 282 360 282 362 282 363 283 364 283 360 283 363 284 365 284 364 284 363 285 299 285 365 285 363 286 366 286 299 286 299 287 366 287 297 287 297 288 366 288 302 288 302 289 366 289 367 289 219 290 367 290 312 290 219 291 302 291 367 291 362 292 300 292 368 292 362 293 361 293 300 293 368 294 286 294 369 294 368 295 300 295 286 295 286 296 285 296 369 296 369 297 285 297 370 297 370 298 285 298 282 298 371 299 282 299 284 299 357 300 284 300 372 300 359 301 357 301 372 301 271 302 264 302 356 302 264 303 270 303 355 303 270 304 257 304 354 304 284 305 357 305 371 305 282 306 371 306 370 306 373 0 374 0 375 0 373 307 376 307 374 307 375 0 377 0 378 0 375 0 374 0 377 0 377 0 379 0 378 0 378 0 379 0 380 0 380 308 379 308 381 308 382 309 381 309 383 309 384 310 383 310 385 310 386 311 385 311 387 311 388 312 387 312 389 312 390 0 389 0 391 0 392 0 390 0 391 0 390 0 388 0 389 0 388 0 386 0 387 0 386 0 384 0 385 0 384 0 382 0 383 0 380 313 381 313 382 313 393 314 394 314 395 314 395 315 394 315 396 315 396 316 394 316 397 316 398 317 396 317 397 317 398 318 399 318 396 318 398 319 400 319 399 319 399 320 400 320 401 320 401 321 400 321 402 321 403 322 401 322 402 322 403 323 404 323 401 323 403 324 405 324 404 324 404 325 405 325 406 325 406 326 405 326 407 326 408 327 407 327 409 327 410 328 409 328 411 328 412 329 411 329 413 329 414 330 412 330 413 330 414 331 415 331 412 331 414 332 416 332 415 332 415 333 416 333 417 333 417 334 416 334 418 334 419 335 417 335 418 335 419 336 420 336 417 336 419 337 421 337 420 337 412 338 410 338 411 338 410 339 408 339 409 339 408 340 406 340 407 340 421 341 422 341 420 341 420 342 422 342 423 342 423 343 422 343 424 343 425 344 423 344 424 344 425 345 426 345 423 345 425 346 427 346 426 346 426 347 427 347 428 347 428 348 427 348 429 348 430 349 428 349 429 349 430 350 431 350 428 350 430 351 432 351 431 351 431 352 432 352 433 352 433 353 432 353 434 353 435 354 434 354 436 354 437 355 436 355 438 355 439 356 438 356 440 356 441 357 439 357 440 357 441 358 442 358 439 358 441 359 443 359 442 359 442 360 443 360 444 360 444 361 443 361 445 361 446 362 444 362 445 362 446 363 395 363 444 363 446 364 393 364 395 364 439 365 437 365 438 365 437 366 435 366 436 366 435 367 433 367 434 367 421 368 447 368 422 368 422 369 447 369 448 369 424 370 448 370 449 370 450 371 449 371 451 371 452 372 451 372 453 372 454 373 453 373 455 373 456 374 455 374 457 374 458 375 457 375 366 375 363 376 458 376 366 376 363 377 362 377 458 377 458 378 362 378 459 378 460 379 459 379 461 379 462 380 461 380 463 380 464 381 463 381 465 381 466 382 465 382 467 382 432 383 467 383 434 383 432 384 466 384 467 384 432 385 430 385 466 385 466 386 430 386 468 386 464 387 468 387 469 387 462 388 469 388 470 388 460 389 470 389 456 389 458 390 456 390 457 390 458 391 460 391 456 391 458 392 459 392 460 392 448 393 447 393 471 393 449 394 471 394 451 394 449 395 448 395 471 395 472 396 473 396 474 396 472 397 475 397 473 397 473 398 475 398 476 398 453 399 476 399 455 399 453 400 473 400 476 400 453 401 451 401 473 401 473 402 451 402 471 402 474 403 471 403 447 403 474 404 473 404 471 404 475 405 477 405 476 405 476 406 477 406 478 406 455 407 478 407 457 407 455 408 476 408 478 408 312 409 367 409 477 409 477 410 367 410 478 410 478 411 367 411 366 411 457 412 478 412 366 412 362 413 368 413 459 413 459 414 368 414 479 414 461 415 479 415 480 415 463 416 480 416 481 416 465 417 481 417 482 417 467 418 482 418 483 418 436 419 483 419 438 419 436 420 467 420 483 420 436 421 434 421 467 421 368 422 369 422 479 422 479 423 369 423 484 423 480 424 484 424 485 424 481 425 485 425 486 425 482 426 486 426 487 426 483 427 487 427 488 427 438 428 488 428 440 428 438 429 483 429 488 429 369 430 370 430 484 430 484 431 370 431 489 431 485 432 489 432 490 432 486 433 490 433 491 433 487 434 491 434 492 434 488 435 492 435 493 435 440 436 493 436 441 436 440 437 488 437 493 437 370 438 371 438 489 438 489 439 371 439 494 439 490 440 494 440 495 440 491 441 495 441 496 441 492 442 496 442 497 442 493 443 497 443 498 443 441 444 498 444 499 444 443 445 499 445 445 445 443 446 441 446 499 446 371 447 357 447 494 447 494 448 357 448 356 448 500 449 356 449 355 449 501 450 355 450 354 450 502 451 354 451 353 451 503 452 353 452 351 452 504 453 351 453 347 453 346 454 504 454 347 454 346 455 505 455 504 455 346 456 506 456 505 456 346 457 345 457 506 457 506 458 345 458 507 458 508 459 507 459 509 459 510 460 509 460 511 460 512 461 510 461 511 461 512 462 513 462 510 462 512 463 514 463 513 463 513 464 514 464 515 464 516 465 515 465 517 465 518 466 517 466 499 466 519 467 499 467 498 467 497 468 519 468 498 468 497 469 520 469 519 469 497 470 496 470 520 470 520 471 496 471 521 471 522 472 521 472 501 472 502 473 501 473 354 473 502 474 522 474 501 474 502 475 523 475 522 475 502 476 503 476 523 476 502 477 353 477 503 477 345 478 339 478 507 478 393 479 446 479 514 479 514 480 446 480 515 480 515 481 446 481 445 481 517 482 445 482 499 482 517 483 515 483 445 483 430 484 429 484 468 484 468 485 429 485 524 485 469 486 524 486 525 486 470 487 525 487 454 487 456 488 454 488 455 488 456 489 470 489 454 489 429 490 427 490 524 490 524 491 427 491 526 491 525 492 526 492 452 492 454 493 452 493 453 493 454 494 525 494 452 494 526 495 427 495 450 495 452 496 450 496 451 496 452 497 526 497 450 497 427 498 425 498 450 498 450 499 425 499 424 499 449 500 450 500 424 500 424 501 422 501 448 501 495 502 494 502 500 502 521 503 500 503 501 503 521 504 495 504 500 504 521 505 496 505 495 505 355 506 501 506 500 506 461 507 462 507 460 507 460 508 462 508 470 508 525 509 470 509 469 509 526 510 525 510 524 510 479 511 461 511 459 511 463 512 464 512 462 512 462 513 464 513 469 513 524 514 469 514 468 514 484 515 480 515 479 515 480 516 463 516 461 516 465 517 466 517 464 517 464 518 466 518 468 518 489 519 485 519 484 519 485 520 481 520 480 520 481 521 465 521 463 521 494 522 490 522 489 522 490 523 486 523 485 523 486 524 482 524 481 524 482 525 467 525 465 525 495 526 491 526 490 526 491 527 487 527 486 527 487 528 483 528 482 528 500 529 494 529 356 529 496 530 492 530 491 530 492 531 488 531 487 531 521 532 522 532 520 532 520 533 522 533 527 533 519 534 527 534 518 534 499 535 519 535 518 535 497 536 493 536 492 536 351 537 504 537 503 537 503 538 504 538 528 538 523 539 528 539 529 539 527 540 529 540 518 540 527 541 523 541 529 541 527 542 522 542 523 542 523 543 503 543 528 543 527 544 519 544 520 544 498 545 441 545 493 545 528 546 504 546 530 546 531 547 530 547 510 547 513 548 531 548 510 548 513 549 516 549 531 549 513 550 515 550 516 550 530 551 531 551 528 551 528 552 531 552 529 552 529 553 531 553 516 553 518 554 516 554 517 554 518 555 529 555 516 555 504 556 505 556 530 556 530 557 505 557 508 557 510 558 508 558 509 558 510 559 530 559 508 559 507 560 508 560 506 560 506 561 508 561 505 561 339 562 335 562 507 562 507 563 335 563 532 563 533 564 532 564 534 564 535 565 534 565 536 565 537 566 536 566 538 566 539 567 538 567 540 567 400 568 540 568 402 568 400 569 539 569 540 569 400 570 541 570 539 570 400 571 398 571 541 571 541 572 398 572 397 572 542 573 397 573 543 573 544 574 543 574 514 574 512 575 544 575 514 575 512 576 545 576 544 576 512 577 511 577 545 577 545 578 511 578 509 578 533 579 509 579 507 579 532 580 533 580 507 580 335 581 334 581 532 581 532 582 334 582 546 582 534 583 546 583 547 583 536 584 547 584 548 584 538 585 548 585 549 585 540 586 549 586 550 586 402 587 550 587 403 587 402 588 540 588 550 588 546 589 334 589 551 589 547 590 551 590 552 590 548 591 552 591 553 591 549 592 553 592 554 592 550 593 554 593 555 593 403 594 555 594 405 594 403 595 550 595 555 595 334 596 331 596 551 596 551 597 331 597 330 597 556 598 330 598 337 598 557 599 337 599 338 599 558 600 338 600 341 600 559 601 341 601 342 601 560 602 342 602 325 602 324 603 560 603 325 603 324 604 561 604 560 604 324 605 323 605 561 605 561 606 323 606 562 606 563 607 562 607 564 607 565 608 564 608 566 608 567 609 566 609 568 609 569 610 568 610 570 610 418 611 570 611 571 611 419 612 571 612 447 612 421 613 419 613 447 613 323 614 322 614 562 614 562 615 322 615 572 615 564 616 572 616 573 616 566 617 573 617 574 617 568 618 574 618 575 618 570 619 575 619 571 619 570 620 568 620 575 620 322 621 321 621 572 621 572 622 321 622 576 622 573 623 576 623 577 623 574 624 577 624 578 624 575 625 578 625 579 625 571 626 579 626 447 626 571 627 575 627 579 627 321 628 319 628 576 628 576 629 319 629 580 629 577 630 580 630 581 630 578 631 581 631 582 631 579 632 582 632 474 632 447 633 579 633 474 633 319 634 315 634 580 634 580 635 315 635 314 635 583 636 314 636 584 636 585 637 584 637 477 637 475 638 585 638 477 638 475 639 582 639 585 639 475 640 472 640 582 640 582 641 472 641 474 641 314 642 313 642 584 642 584 643 313 643 477 643 477 644 313 644 312 644 419 645 418 645 571 645 570 646 418 646 569 646 569 647 418 647 416 647 414 648 569 648 416 648 414 649 586 649 569 649 414 650 587 650 586 650 414 651 413 651 587 651 587 652 413 652 588 652 589 653 588 653 590 653 591 654 590 654 592 654 593 655 592 655 594 655 559 656 594 656 558 656 341 657 559 657 558 657 413 658 411 658 588 658 588 659 411 659 595 659 590 660 595 660 596 660 592 661 596 661 597 661 594 662 597 662 598 662 558 663 598 663 557 663 338 664 558 664 557 664 411 665 409 665 595 665 595 666 409 666 599 666 596 667 599 667 600 667 597 668 600 668 601 668 598 669 601 669 602 669 557 670 602 670 556 670 337 671 557 671 556 671 409 672 407 672 599 672 599 673 407 673 405 673 555 674 599 674 405 674 555 675 600 675 599 675 555 676 554 676 600 676 600 677 554 677 601 677 601 678 554 678 553 678 602 679 553 679 552 679 556 680 552 680 551 680 330 681 556 681 551 681 397 682 394 682 543 682 543 683 394 683 514 683 514 684 394 684 393 684 397 685 542 685 541 685 541 686 542 686 603 686 537 687 603 687 535 687 536 688 537 688 535 688 581 689 580 689 583 689 585 690 583 690 584 690 585 691 581 691 583 691 585 692 582 692 581 692 509 693 533 693 545 693 545 694 533 694 535 694 603 695 545 695 535 695 603 696 544 696 545 696 603 697 542 697 544 697 544 698 542 698 543 698 551 699 547 699 546 699 547 700 536 700 534 700 539 701 541 701 537 701 538 702 539 702 537 702 534 703 535 703 533 703 546 704 534 704 532 704 603 705 537 705 541 705 552 706 548 706 547 706 552 707 556 707 602 707 548 708 538 708 536 708 602 709 557 709 598 709 553 710 549 710 548 710 553 711 602 711 601 711 549 712 540 712 538 712 598 713 558 713 594 713 601 714 598 714 597 714 554 715 550 715 549 715 342 716 560 716 559 716 559 717 560 717 593 717 594 718 559 718 593 718 597 719 594 719 592 719 600 720 597 720 596 720 593 721 560 721 604 721 591 722 604 722 605 722 589 723 605 723 606 723 587 724 606 724 586 724 587 725 589 725 606 725 587 726 588 726 589 726 604 727 591 727 593 727 593 728 591 728 592 728 596 729 592 729 590 729 599 730 596 730 595 730 560 731 561 731 604 731 604 732 561 732 563 732 605 733 563 733 565 733 606 734 565 734 567 734 586 735 567 735 569 735 586 736 606 736 567 736 605 737 589 737 591 737 591 738 589 738 590 738 595 739 590 739 588 739 562 740 563 740 561 740 563 741 605 741 604 741 572 742 564 742 562 742 564 743 565 743 563 743 565 744 606 744 605 744 576 745 573 745 572 745 573 746 566 746 564 746 566 747 567 747 565 747 580 748 577 748 576 748 577 749 574 749 573 749 574 750 568 750 566 750 568 751 569 751 567 751 581 752 578 752 577 752 578 753 575 753 574 753 583 754 580 754 314 754 582 755 579 755 578 755 395 756 396 756 607 756 607 757 396 757 608 757 608 758 396 758 399 758 609 759 399 759 401 759 610 760 401 760 404 760 611 761 404 761 406 761 612 762 406 762 408 762 613 763 408 763 410 763 614 764 410 764 412 764 615 765 412 765 415 765 616 766 415 766 417 766 617 767 417 767 420 767 618 768 617 768 420 768 617 769 616 769 417 769 616 770 615 770 415 770 615 771 614 771 412 771 614 772 613 772 410 772 613 762 612 762 408 762 612 773 611 773 406 773 611 774 610 774 404 774 610 775 609 775 401 775 609 776 608 776 399 776 420 777 423 777 618 777 618 778 423 778 619 778 619 779 423 779 426 779 620 780 426 780 428 780 621 781 428 781 431 781 622 782 431 782 433 782 623 783 433 783 435 783 624 784 435 784 437 784 625 785 437 785 439 785 626 786 439 786 442 786 627 787 442 787 444 787 628 788 444 788 395 788 607 789 628 789 395 789 628 790 627 790 444 790 627 791 626 791 442 791 626 792 625 792 439 792 625 793 624 793 437 793 624 783 623 783 435 783 623 794 622 794 433 794 622 795 621 795 431 795 621 796 620 796 428 796 620 797 619 797 426 797 142 798 8 798 382 798 382 798 8 798 380 798 380 799 8 799 10 799 378 800 10 800 15 800 375 801 15 801 19 801 373 802 19 802 22 802 376 803 22 803 55 803 374 804 55 804 58 804 377 805 58 805 63 805 379 806 63 806 65 806 381 807 65 807 68 807 383 807 381 807 68 807 381 808 379 808 65 808 379 809 377 809 63 809 377 804 374 804 58 804 374 810 376 810 55 810 376 811 373 811 22 811 373 801 375 801 19 801 375 812 378 812 15 812 378 813 380 813 10 813 68 814 92 814 383 814 383 814 92 814 385 814 385 815 92 815 90 815 387 816 90 816 88 816 389 817 88 817 98 817 391 818 98 818 101 818 392 819 101 819 104 819 390 820 104 820 137 820 388 821 137 821 135 821 386 822 135 822 133 822 384 823 133 823 142 823 382 823 384 823 142 823 384 824 386 824 133 824 386 825 388 825 135 825 388 820 390 820 137 820 390 826 392 826 104 826 392 827 391 827 101 827 391 817 389 817 98 817 389 828 387 828 88 828 387 829 385 829 90 829 244 830 6 830 245 830 244 831 243 831 6 831 6 832 243 832 0 832 0 833 243 833 241 833 240 834 0 834 241 834 240 835 1 835 0 835 240 836 239 836 1 836 1 837 239 837 238 837 138 838 238 838 237 838 139 839 237 839 185 839 139 840 138 840 237 840 138 841 1 841 238 841 6 842 145 842 245 842 245 843 145 843 344 843 344 844 145 844 144 844 340 845 344 845 144 845 185 846 184 846 139 846 139 847 184 847 146 847 146 848 184 848 183 848 182 849 146 849 183 849 182 850 147 850 146 850 182 851 181 851 147 851 147 852 181 852 129 852 129 853 181 853 180 853 179 854 129 854 180 854 179 855 131 855 129 855 179 856 177 856 131 856 131 857 177 857 176 857 141 858 176 858 336 858 144 859 336 859 340 859 144 860 141 860 336 860 141 861 131 861 176 861 203 862 105 862 204 862 203 863 198 863 105 863 105 864 198 864 107 864 105 865 103 865 204 865 204 866 103 866 343 866 343 867 103 867 102 867 327 868 102 868 326 868 327 869 343 869 102 869 102 870 100 870 326 870 326 871 100 871 227 871 227 872 100 872 99 872 228 873 99 873 116 873 205 874 228 874 116 874 228 875 227 875 99 875 273 876 272 876 27 876 27 877 272 877 25 877 25 878 272 878 271 878 23 879 271 879 358 879 57 880 358 880 359 880 372 881 57 881 359 881 372 882 56 882 57 882 372 883 284 883 56 883 56 884 284 884 54 884 54 885 284 885 283 885 281 886 54 886 283 886 281 887 38 887 54 887 57 888 23 888 358 888 23 889 25 889 271 889 236 890 130 890 235 890 236 891 187 891 130 891 130 892 187 892 128 892 128 893 187 893 186 893 126 894 186 894 188 894 125 895 188 895 189 895 125 896 126 896 188 896 126 897 128 897 186 897 130 898 132 898 235 898 235 899 132 899 333 899 333 900 132 900 134 900 332 901 134 901 328 901 332 902 333 902 134 902 134 903 136 903 328 903 328 904 136 904 329 904 317 905 91 905 316 905 317 906 318 906 91 906 91 907 318 907 89 907 89 908 318 908 320 908 91 909 93 909 316 909 316 910 93 910 222 910 222 911 93 911 94 911 223 912 94 912 143 912 221 913 143 913 95 913 217 914 95 914 216 914 217 915 221 915 95 915 95 916 80 916 216 916 216 917 80 917 214 917 221 918 223 918 143 918 223 919 222 919 94 919 250 920 249 920 40 920 40 921 249 921 4 921 4 922 249 922 248 922 247 923 4 923 248 923 247 924 3 924 4 924 247 925 261 925 3 925 3 926 261 926 5 926 5 927 261 927 260 927 7 928 260 928 348 928 9 929 348 929 349 929 350 930 9 930 349 930 350 931 11 931 9 931 350 932 352 932 11 932 9 933 7 933 348 933 7 934 5 934 260 934 361 935 360 935 62 935 62 936 360 936 64 936 64 937 360 937 364 937 365 938 64 938 364 938 365 939 66 939 64 939 365 940 299 940 66 940 66 941 299 941 67 941 67 942 299 942 298 942 296 943 67 943 298 943 296 944 70 944 67 944 296 945 295 945 70 945 70 946 295 946 72 946 72 947 295 947 294 947 74 948 294 948 293 948 74 949 72 949 294 949 352 950 259 950 11 950 11 951 259 951 258 951 49 952 258 952 256 952 45 953 256 953 255 953 44 954 255 954 254 954 253 955 44 955 254 955 253 956 43 956 44 956 253 957 252 957 43 957 43 958 252 958 41 958 41 959 252 959 251 959 40 960 251 960 250 960 40 961 41 961 251 961 44 962 45 962 255 962 45 963 49 963 256 963 49 964 11 964 258 964 361 965 62 965 300 965 300 966 62 966 301 966 301 967 62 967 60 967 287 968 60 968 61 968 288 969 61 969 78 969 289 970 78 970 290 970 289 971 288 971 78 971 78 972 77 972 290 972 290 973 77 973 291 973 291 974 77 974 75 974 292 975 75 975 74 975 293 976 292 976 74 976 292 977 291 977 75 977 288 978 287 978 61 978 287 979 301 979 60 979 189 980 233 980 125 980 125 981 233 981 123 981 123 982 233 982 232 982 122 983 232 983 191 983 121 984 191 984 190 984 192 985 121 985 190 985 192 986 117 986 121 986 192 987 193 987 117 987 117 988 193 988 118 988 118 989 193 989 195 989 136 990 195 990 196 990 329 950 136 950 196 950 136 991 118 991 195 991 121 992 122 992 191 992 122 993 123 993 232 993 320 965 213 965 89 965 89 994 213 994 212 994 87 995 212 995 210 995 85 996 210 996 211 996 84 997 211 997 226 997 225 998 84 998 226 998 225 999 83 999 84 999 225 1000 224 1000 83 1000 83 1001 224 1001 79 1001 79 1002 224 1002 215 1002 80 1003 215 1003 214 1003 80 1004 79 1004 215 1004 84 1005 85 1005 211 1005 85 1006 87 1006 210 1006 87 1007 89 1007 212 1007 198 1008 197 1008 107 1008 107 1009 197 1009 109 1009 109 1010 197 1010 199 1010 110 1011 199 1011 200 1011 112 1012 200 1012 201 1012 230 1013 112 1013 201 1013 230 1014 113 1014 112 1014 230 1015 229 1015 113 1015 113 1016 229 1016 115 1016 115 1017 229 1017 206 1017 116 1018 206 1018 205 1018 116 1019 115 1019 206 1019 112 1020 110 1020 200 1020 110 1021 109 1021 199 1021 281 1022 280 1022 38 1022 38 1023 280 1023 37 1023 37 1024 280 1024 279 1024 35 1025 279 1025 278 1025 34 1026 278 1026 277 1026 276 1027 34 1027 277 1027 276 1028 32 1028 34 1028 276 1029 275 1029 32 1029 32 1030 275 1030 31 1030 31 1031 275 1031 274 1031 27 1032 274 1032 273 1032 27 1033 31 1033 274 1033 34 1034 35 1034 278 1034 35 1035 37 1035 279 1035 629 1036 630 1036 631 1036 629 1037 632 1037 630 1037 630 1038 633 1038 631 1038 631 1039 633 1039 634 1039 634 1040 633 1040 635 1040 636 1041 635 1041 637 1041 638 1042 637 1042 639 1042 640 1043 638 1043 639 1043 638 1044 636 1044 637 1044 636 1045 634 1045 635 1045 641 1046 642 1046 643 1046 641 1047 644 1047 642 1047 642 1048 645 1048 643 1048 643 1049 645 1049 646 1049 646 1050 645 1050 647 1050 648 1051 647 1051 649 1051 650 1052 649 1052 651 1052 652 1053 650 1053 651 1053 650 1054 648 1054 649 1054 648 1055 646 1055 647 1055 16 1056 14 1056 647 1056 647 1057 14 1057 649 1057 649 1058 14 1058 12 1058 651 1059 12 1059 13 1059 652 1060 13 1060 47 1060 48 1061 652 1061 47 1061 48 1062 650 1062 652 1062 48 1063 50 1063 650 1063 650 1064 50 1064 648 1064 648 1065 50 1065 51 1065 646 1066 51 1066 52 1066 646 1067 648 1067 51 1067 652 1068 651 1068 13 1068 651 1069 649 1069 12 1069 52 1070 28 1070 646 1070 646 1071 28 1071 643 1071 643 1072 28 1072 26 1072 641 1073 26 1073 24 1073 644 1074 24 1074 21 1074 20 1075 644 1075 21 1075 20 1076 642 1076 644 1076 20 1077 18 1077 642 1077 642 1078 18 1078 645 1078 645 1079 18 1079 17 1079 647 1080 17 1080 16 1080 647 1081 645 1081 17 1081 644 1082 641 1082 24 1082 641 1083 643 1083 26 1083 308 1084 309 1084 634 1084 634 1085 309 1085 631 1085 631 1086 309 1086 269 1086 629 1087 269 1087 263 1087 632 1088 263 1088 262 1088 265 1089 632 1089 262 1089 265 1090 630 1090 632 1090 265 1091 266 1091 630 1091 630 1092 266 1092 633 1092 633 1093 266 1093 267 1093 635 1094 267 1094 268 1094 635 1095 633 1095 267 1095 632 1096 629 1096 263 1096 629 1097 631 1097 269 1097 268 1098 311 1098 635 1098 635 1099 311 1099 637 1099 637 1100 311 1100 310 1100 639 1101 310 1101 304 1101 640 1102 304 1102 303 1102 305 1103 640 1103 303 1103 305 1104 638 1104 640 1104 305 1105 306 1105 638 1105 638 1106 306 1106 636 1106 636 1107 306 1107 307 1107 634 1108 307 1108 308 1108 634 1109 636 1109 307 1109 640 1110 639 1110 304 1110 639 1111 637 1111 310 1111 623 1112 624 1112 622 1112 622 1113 624 1113 625 1113 621 1114 625 1114 626 1114 620 1115 626 1115 627 1115 619 1116 627 1116 628 1116 618 1117 628 1117 607 1117 617 1118 607 1118 608 1118 616 1119 608 1119 609 1119 615 1120 609 1120 610 1120 614 1114 610 1114 611 1114 613 1121 611 1121 612 1121 613 1114 614 1114 611 1114 619 1114 620 1114 627 1114 620 1114 621 1114 626 1114 621 1114 622 1114 625 1114 614 1114 615 1114 610 1114 615 1114 616 1114 609 1114 616 1122 617 1122 608 1122 617 1114 618 1114 607 1114 619 1114 628 1114 618 1114</p>
        </triangles>
      </mesh>
    </geometry>
  </library_geometries>
  <library_visual_scenes>
    <visual_scene id="Scene" name="Scene">
      <node id="Link6" name="Link6" type="NODE">
        <matrix sid="transform">1 0 0 0 0 1 0 0 0 0 1 0 0 0 0 1</matrix>
        <instance_geometry url="#Link6-mesh" name="Link6">
          <bind_material>
            <technique_common>
              <instance_material symbol="Material_001-material" target="#Material_001-material"/>
            </technique_common>
          </bind_material>
        </instance_geometry>
      </node>
    </visual_scene>
  </library_visual_scenes>
  <scene>
    <instance_visual_scene url="#Scene"/>
  </scene>
</COLLADA>