<?xml version="1.0" encoding="utf-8"?>
<COLLADA xmlns="http://www.collada.org/2005/11/COLLADASchema" version="1.4.1" xmlns:xsi="http://www.w3.org/2001/XMLSchema-instance">
  <asset>
    <contributor>
      <author>Blender User</author>
      <authoring_tool>Blender 2.82.7</authoring_tool>
    </contributor>
    <created>2024-08-20T14:53:28</created>
    <modified>2024-08-20T14:53:28</modified>
    <unit name="meter" meter="1"/>
    <up_axis>Z_UP</up_axis>
  </asset>
  <library_effects>
    <effect id="Material_003-effect">
      <profile_COMMON>
        <technique sid="common">
          <lambert>
            <emission>
              <color sid="emission">0 0 0 1</color>
            </emission>
            <diffuse>
              <color sid="diffuse">0.8 0.8 0.8 1</color>
            </diffuse>
            <index_of_refraction>
              <float sid="ior">1.45</float>
            </index_of_refraction>
          </lambert>
        </technique>
      </profile_COMMON>
    </effect>
  </library_effects>
  <library_images/>
  <library_materials>
    <material id="Material_003-material" name="Material.003">
      <instance_effect url="#Material_003-effect"/>
    </material>
  </library_materials>
  <library_geometries>
    <geometry id="meshId0_name_014-mesh" name="meshId0_name.014">
      <mesh>
        <source id="meshId0_name_014-mesh-positions">
          <float_array id="meshId0_name_014-mesh-positions-array" count="198">-6.064e-5 6.55651e-7 -1.90123e-7 -6.07e-5 6.55651e-7 -0.02475529 -6.07e-5 0.004830062 -0.02427977 -0.006141006 6.55651e-7 -0.02475529 -0.006140947 6.55651e-7 -1.89857e-7 -0.006141006 0.004830062 -0.02427977 -6.07e-5 0.009474039 -0.02287089 -0.006141006 0.009474039 -0.02287089 -6.07e-5 0.01375389 -0.02058339 -0.006141006 0.01375389 -0.02058339 -6.07e-5 0.0175051 -0.01750475 -0.006141006 0.0175051 -0.01750475 -6.07e-5 0.02058374 -0.01375347 -0.006141006 0.02058374 -0.01375347 -6.064e-5 0.02287149 -0.009473562 -0.006140947 0.02287149 -0.009473562 -6.064e-5 0.02428025 -0.004829645 -0.006140947 0.02428025 -0.004829645 -6.064e-5 0.02475589 -1.89041e-7 -0.006140947 0.02475589 -1.88775e-7 -6.064e-5 0.02428025 0.004829287 -0.006140947 0.02428025 0.004829287 -6.064e-5 0.02287149 0.009473204 -0.006140947 0.02287149 0.009473204 -6.064e-5 0.02058374 0.01375293 -0.006140947 0.02058374 0.01375293 -6.064e-5 0.0175051 0.01750439 -0.006140947 0.0175051 0.01750439 -6.064e-5 0.01375389 0.02058303 -0.006140947 0.01375389 0.02058303 -6.064e-5 0.009474039 0.0228706 -0.006140947 0.009474039 0.0228706 -6.064e-5 0.004830062 0.02427935 -0.006140947 0.004830062 0.02427935 -6.064e-5 6.53487e-7 0.02475506 -0.006140947 6.53487e-7 0.02475506 -6.064e-5 -0.004828751 0.02427935 -0.006140947 -0.004828751 0.02427935 -6.064e-5 -0.009472727 0.0228706 -0.006140947 -0.009472727 0.0228706 -6.064e-5 -0.01375252 0.02058303 -0.006140947 -0.01375252 0.02058303 -6.064e-5 -0.01750379 0.01750439 -0.006140947 -0.01750379 0.01750439 -6.064e-5 -0.02058243 0.01375293 -0.006140947 -0.02058243 0.01375293 -6.064e-5 -0.02287018 0.009473204 -0.006140947 -0.02287018 0.009473204 -6.064e-5 -0.02427875 0.004829287 -0.006140947 -0.02427875 0.004829287 -6.064e-5 -0.02475458 -1.90418e-7 -0.006140947 -0.02475458 -1.90152e-7 -6.064e-5 -0.02427875 -0.004829645 -0.006140947 -0.02427875 -0.004829645 -6.064e-5 -0.02287018 -0.009473562 -0.006140947 -0.02287018 -0.009473562 -6.07e-5 -0.02058243 -0.01375347 -0.006141006 -0.02058243 -0.01375347 -6.07e-5 -0.01750379 -0.01750475 -0.006141006 -0.01750379 -0.01750475 -6.07e-5 -0.01375252 -0.02058339 -0.006141006 -0.01375252 -0.02058339 -6.07e-5 -0.009472727 -0.02287089 -0.006141006 -0.009472727 -0.02287089 -6.07e-5 -0.004828751 -0.02427977 -0.006141006 -0.004828751 -0.02427977</float_array>
          <technique_common>
            <accessor source="#meshId0_name_014-mesh-positions-array" count="66" stride="3">
              <param name="X" type="float"/>
              <param name="Y" type="float"/>
              <param name="Z" type="float"/>
            </accessor>
          </technique_common>
        </source>
        <source id="meshId0_name_014-mesh-normals">
          <float_array id="meshId0_name_014-mesh-normals-array" count="261">1 2.39933e-7 -2.42658e-6 -1 -4.86879e-7 2.37015e-6 0.6857035 0 -0.727881 -0.6857035 0 -0.727881 0.6856992 0.1420046 -0.7138987 -0.6856992 0.1420046 -0.7138987 1 0 0 0.6856969 0.2785453 -0.6724823 -1 0 0 -0.6856969 0.2785453 -0.6724823 0.6857008 0.4043767 -0.6052222 -0.6857008 0.4043767 -0.6052222 0.6857143 0.5146825 -0.5146825 -0.6857143 0.5146825 -0.5146825 0.6856923 0.6052147 -0.4044022 -0.6857008 0.6052222 -0.4043767 1 -4.75925e-6 -1.14912e-5 -0.6856969 0.6724823 -0.2785453 0 0.8819189 -0.4714013 0.6856969 0.6724823 -0.2785453 0.6856992 0.7138987 -0.1420046 -1 0 0 0 0.9569379 -0.2902928 0.6857035 0.727881 0 -0.6856992 0.7138987 -0.1420046 -0.6857035 0.727881 0 0.6856992 0.7138987 0.1420046 -0.6856992 0.7138987 0.1420046 0.6856969 0.6724823 0.2785453 -0.6856969 0.6724823 0.2785453 0.6857008 0.6052222 0.4043767 -0.6857135 0.6052029 0.4043841 1 0 0 -0.6857035 0.5147049 0.5146744 0 0.7730162 0.6343863 0.6857035 0.5147049 0.5146744 0.6857008 0.4043767 0.6052222 0 0.6343998 0.7730051 0.6856969 0.2785453 0.6724823 -0.6857008 0.4043767 0.6052222 -0.6856969 0.2785453 0.6724823 0.6856992 0.1420046 0.7138987 -0.6856992 0.1420046 0.7138987 0.6857035 0 0.727881 -0.6857035 0 0.727881 0.6856992 -0.1420046 0.7138987 -0.6856992 -0.1420046 0.7138987 1 0 0 -0.6856969 -0.2785453 0.6724823 0 -0.2902876 0.9569395 0.6856969 -0.2785453 0.6724823 0.6857008 -0.4043767 0.6052222 -1 -2.43438e-7 0 0 -0.4713925 0.8819236 0.6857035 -0.5147049 0.5146744 -0.6857008 -0.4043767 0.6052222 -0.6857035 -0.5147049 0.5146744 0.6857135 -0.6052029 0.4043841 -0.6857135 -0.6052029 0.4043841 0.6856969 -0.6724823 0.2785453 -0.6856969 -0.6724823 0.2785453 0.6856992 -0.7138987 0.1420046 -0.6856992 -0.7138987 0.1420046 -0.6857035 -0.727881 0 0 -0.9951826 0.09803903 0.6857035 -0.727881 0 0.6856992 -0.7138987 -0.1420046 -1 0 0 0 -0.9951826 -0.09803944 0.6856969 -0.6724823 -0.2785453 -0.6856992 -0.7138987 -0.1420046 -0.6856969 -0.6724823 -0.2785453 0.6856923 -0.6052147 -0.4044022 -0.6857008 -0.6052222 -0.4043767 0.6857035 -0.5146744 -0.5147049 -0.6857035 -0.5146744 -0.5147049 0.6857008 -0.4043767 -0.6052222 -0.6857008 -0.4043767 -0.6052222 1 -1.14896e-6 -2.15041e-6 -0.6856969 -0.2785453 -0.6724823 0 -0.4713911 -0.8819243 0.6856969 -0.2785453 -0.6724823 0.6856992 -0.1420046 -0.7138987 -1 4.86859e-7 2.27905e-6 0 -0.2903006 -0.9569355 -1 4.86879e-7 2.37015e-6 -0.6856992 -0.1420046 -0.7138987</float_array>
          <technique_common>
            <accessor source="#meshId0_name_014-mesh-normals-array" count="87" stride="3">
              <param name="X" type="float"/>
              <param name="Y" type="float"/>
              <param name="Z" type="float"/>
            </accessor>
          </technique_common>
        </source>
        <vertices id="meshId0_name_014-mesh-vertices">
          <input semantic="POSITION" source="#meshId0_name_014-mesh-positions"/>
        </vertices>
        <triangles material="Material_003-material" count="128">
          <input semantic="VERTEX" source="#meshId0_name_014-mesh-vertices" offset="0"/>
          <input semantic="NORMAL" source="#meshId0_name_014-mesh-normals" offset="1"/>
          <p>0 0 1 0 2 0 3 1 4 1 5 1 1 2 3 3 2 4 3 3 5 5 2 4 0 6 2 4 6 7 5 5 4 8 7 9 2 4 5 5 6 7 5 5 7 9 6 7 0 6 6 7 8 10 7 9 4 8 9 11 6 7 7 9 8 10 7 9 9 11 8 10 0 6 8 10 10 12 9 11 4 8 11 13 8 10 9 11 10 12 9 11 11 13 10 12 0 6 10 12 12 14 11 13 4 8 13 15 10 12 11 13 12 14 11 13 13 15 12 14 0 16 12 16 14 16 13 15 4 8 15 17 12 18 13 18 14 18 13 15 15 17 14 19 0 6 14 19 16 20 15 21 4 21 17 21 14 19 15 17 16 20 15 22 17 22 16 22 0 6 16 20 18 23 17 24 4 8 19 25 16 20 17 24 18 23 17 24 19 25 18 23 0 6 18 23 20 26 19 25 4 8 21 27 18 23 19 25 20 26 19 25 21 27 20 26 0 6 20 26 22 28 21 27 4 8 23 29 20 26 21 27 22 28 21 27 23 29 22 28 0 6 22 28 24 30 23 29 4 8 25 31 22 28 23 29 24 30 23 29 25 31 24 30 0 32 24 32 26 32 25 31 4 8 27 33 24 34 25 34 26 34 25 31 27 33 26 35 0 6 26 35 28 36 27 8 4 8 29 8 26 35 27 33 28 36 27 37 29 37 28 37 0 6 28 36 30 38 29 39 4 8 31 40 28 36 29 39 30 38 29 39 31 40 30 38 0 6 30 38 32 41 31 40 4 8 33 42 30 38 31 40 32 41 31 40 33 42 32 41 0 6 32 41 34 43 33 42 4 8 35 44 32 41 33 42 34 43 33 42 35 44 34 43 0 6 34 43 36 45 35 44 4 8 37 46 34 43 35 44 36 45 35 44 37 46 36 45 0 47 36 47 38 47 37 46 4 8 39 48 36 49 37 49 38 49 37 46 39 48 38 50 0 6 38 50 40 51 39 52 4 52 41 52 38 50 39 48 40 51 39 53 41 53 40 53 0 6 40 51 42 54 41 55 4 8 43 56 40 51 41 55 42 54 41 55 43 56 42 54 0 6 42 54 44 57 43 56 4 8 45 58 42 54 43 56 44 57 43 56 45 58 44 57 0 6 44 57 46 59 45 58 4 8 47 60 44 57 45 58 46 59 45 58 47 60 46 59 0 6 46 59 48 61 47 60 4 8 49 62 46 59 47 60 48 61 47 60 49 62 48 61 0 6 48 6 50 6 49 62 4 8 51 63 48 64 49 64 50 64 49 62 51 63 50 65 0 6 50 65 52 66 51 67 4 67 53 67 50 65 51 63 52 66 51 68 53 68 52 68 0 6 52 66 54 69 53 70 4 8 55 71 52 66 53 70 54 69 53 70 55 71 54 69 0 6 54 69 56 72 55 71 4 8 57 73 54 69 55 71 56 72 55 71 57 73 56 72 0 6 56 72 58 74 57 73 4 8 59 75 56 72 57 73 58 74 57 73 59 75 58 74 0 6 58 74 60 76 59 75 4 8 61 77 58 74 59 75 60 76 59 75 61 77 60 76 0 78 60 78 62 78 61 77 4 8 63 79 60 80 61 80 62 80 61 77 63 79 62 81 0 6 62 81 64 82 63 83 4 83 65 83 62 81 63 79 64 82 63 84 65 84 64 84 0 6 64 82 1 2 65 85 4 85 3 85 64 82 65 86 1 2 65 86 3 3 1 2</p>
        </triangles>
      </mesh>
    </geometry>
  </library_geometries>
  <library_visual_scenes>
    <visual_scene id="Scene" name="Scene">
      <node id="Node_0x7fd4b47b6090" name="Node_0x7fd4b47b6090" type="NODE">
        <matrix sid="transform">1 0 0 0 0 1 0 0 0 0 1 0 0 0 0 1</matrix>
        <instance_geometry url="#meshId0_name_014-mesh" name="Node_0x7fd4b47b6090">
          <bind_material>
            <technique_common>
              <instance_material symbol="Material_003-material" target="#Material_003-material"/>
            </technique_common>
          </bind_material>
        </instance_geometry>
      </node>
    </visual_scene>
  </library_visual_scenes>
  <scene>
    <instance_visual_scene url="#Scene"/>
  </scene>
</COLLADA>