<?xml version="1.0" encoding="utf-8"?>
<COLLADA xmlns="http://www.collada.org/2005/11/COLLADASchema" version="1.4.1" xmlns:xsi="http://www.w3.org/2001/XMLSchema-instance">
  <asset>
    <contributor>
      <author>Blender User</author>
      <authoring_tool>Blender 2.82.7</authoring_tool>
    </contributor>
    <created>2024-02-04T16:44:41</created>
    <modified>2024-02-04T16:44:41</modified>
    <unit name="meter" meter="1"/>
    <up_axis>Z_UP</up_axis>
  </asset>
  <library_effects>
    <effect id="black_002-effect">
      <profile_COMMON>
        <technique sid="common">
          <lambert>
            <emission>
              <color sid="emission">0 0 0 1</color>
            </emission>
            <diffuse>
              <color sid="diffuse">0.0118336 0.0118336 0.0118336 1</color>
            </diffuse>
            <index_of_refraction>
              <float sid="ior">1.45</float>
            </index_of_refraction>
          </lambert>
        </technique>
      </profile_COMMON>
    </effect>
  </library_effects>
  <library_images/>
  <library_materials>
    <material id="black_002-material" name="black.002">
      <instance_effect url="#black_002-effect"/>
    </material>
  </library_materials>
  <library_geometries>
    <geometry id="Link6_003-mesh" name="Link6.003">
      <mesh>
        <source id="Link6_003-mesh-positions">
          <float_array id="Link6_003-mesh-positions-array" count="1632">-0.01064544 0.01463007 -0.01873326 -0.01064544 0.002451539 -0.02384936 -0.01064544 0 -9.04541e-5 -0.01064544 0.02112293 -0.0107457 -0.01064544 0.02378225 3.96973e-4 -0.01064544 0.02024072 0.01223009 -0.0106489 0.01290667 0.01964133 -0.01064544 0.004980742 0.02307665 -0.01064544 -0.004624247 0.02307456 -0.01064544 -0.01452636 0.01877474 -0.01064544 -0.02192097 0.00891149 -0.01064544 -0.02363133 -0.001859605 -0.01064544 -0.02126759 -0.01019555 -0.01064544 -0.01699119 -0.01660943 -0.01064544 -0.00899589 -0.02193331 -0.01562964 0.0209105 0.01112264 -0.0156452 0.02354806 0.001660168 -0.01564353 0.01343113 0.01970678 -0.0156359 0.003485918 0.0233469 -0.0156452 -0.005928158 0.02278709 -0.01564294 -0.01180958 0.02046751 -0.01564121 -0.01957219 0.01326143 -0.01564121 -0.02358812 0.003015697 -0.01564151 -0.02150744 -0.01027107 -0.01564353 -0.01616138 -0.01725244 -0.01564431 -0.009260177 -0.02196639 -0.01552015 0.002283096 -0.02352416 -0.01564121 0.01103019 -0.02111339 -0.01563894 0.01729679 -0.01610314 -0.01563215 0.02060127 -0.01153147 -0.01563793 0.02320617 -0.004673421 -0.01564544 0.02863001 -0.01962471 -0.01564544 0.02515578 -0.01838731 -0.01564544 0.02999466 -0.01473033 -0.01564544 0.0279653 -0.01102674 -0.01564544 0.03104245 -0.005625486 -0.01564544 0.03603148 -0.01393383 -0.01564544 0.006843745 -0.02834653 -0.01564544 0.0212177 -0.02432078 -0.01564544 0.02164894 -0.0197618 -0.01564544 0.03665059 -0.02746969 -0.01564544 0.02988648 -0.02403438 -0.01564544 0.02564346 -0.02762115 -0.01564544 0.02486515 -0.02922362 -0.01564544 0.03200447 0.01511228 -0.01564544 0.0279116 0.01220262 -0.01564544 0.02434647 0.01831942 -0.01564544 0.02930015 0.006602883 -0.01564544 0.03663456 0.0125963 -0.01564544 0.03665059 0.01653808 -0.01564544 0.04023045 0.004725337 -0.01564544 0.03554791 0.006883621 -0.01564544 0.006007671 0.02816563 -0.01564544 0.02229064 0.0259459 -0.01564544 0.02061307 0.02131932 -0.01564544 0.02486515 0.02904272 -0.01564544 0.02646183 0.02740925 -0.01564544 0.03009426 0.02084875 -0.01564544 0.03307247 0.03291577 -0.01564544 -0.03707009 0.01223266 -0.01564544 -0.03434634 0.006082594 -0.01564544 -0.05157661 0.009673297 -0.01564544 -0.03144967 0.01502043 -0.01564544 -0.02921897 0.01975899 -0.01564544 -0.02416479 0.01814097 -0.01564544 -0.02781093 0.01171773 -0.01564544 -0.0304709 0.005745351 -0.01564544 -0.02591782 -9.04541e-5 -0.01564544 -0.02605193 0.02810215 -0.01564544 -0.01866751 0.03115463 -0.01564544 -0.02149301 0.02558541 -0.01564544 -0.0210843 0.02067512 -0.01564544 -0.03396427 -0.005928397 -0.01564544 -0.03705877 -0.0103408 -0.01564544 -0.05139416 -0.01194345 -0.01564544 -0.03413015 -0.01507079 -0.01564544 -0.02492332 -0.01808202 -0.01564544 -0.02892279 -0.01999533 -0.01564544 -0.02903944 -0.01387947 -0.01564544 -0.02767974 -0.009896934 -0.01564544 -0.03116577 -0.006014466 -0.01564544 -0.01928383 -0.03112971 -0.01564544 -0.02147907 -0.02616894 -0.01564544 -0.0213356 -0.02044188 -0.01564544 -0.02920609 -0.02610582 -0.01564544 -0.0294944 -0.02834653 -0.01564544 0.002687454 -0.03703135 -0.01564544 -1.30884e-4 -0.0362097 -0.01564544 -0.01667898 -0.03286397 -0.01564544 -0.003410339 -0.03808569 -0.01564544 -0.004052281 -0.04023432 -0.01564544 0.004203021 -0.04024946 -0.01564544 0.01981675 -0.04893529 -0.01564544 0.005376279 -0.05269819 -0.01564544 0.001857936 -0.04381835 -0.0156455 -0.01535534 -0.05140572 -0.01564544 -0.002346277 -0.04359716 -0.01564544 -0.02194035 -0.03154182 -0.01564544 -0.0239098 -0.03536254 -0.01564544 -0.01985156 -0.03823375 -0.01564544 -0.01692062 -0.03639781 -0.01564544 0.03774702 0.002921879 -0.01564544 0.03625774 -3.99902e-4 -0.01564544 0.03641963 -0.008347034 -0.01564544 0.03855949 -0.003678739 -0.01564544 0.04152435 0.003409743 -0.01564544 0.04247659 -0.002862155 -0.01564544 0.05276143 0.003272593 -0.01564544 0.04374974 1.62476e-4 -0.01564544 0.05183982 -0.0102849 -0.01564544 -0.02170968 0.03790146 -0.01564544 -0.02385121 0.03390538 -0.01564544 -0.03185015 0.03935801 -0.01564544 -0.02094686 0.03094393 -0.01564544 -0.01698237 0.03274536 -0.01564544 -0.01018738 0.03854244 -0.01564544 -0.01652759 0.03581613 -0.01564544 -0.01847869 0.03776741 -0.01564544 0.02486515 -0.04122334 -0.0156458 0.03754693 -0.03771239 -0.01564633 0.04784077 -0.02293574 -0.01564544 0.04822212 0.0208323 -0.01564651 0.03799384 0.03654098 -0.01564544 0.0209313 0.04825007 -0.01564544 0.01018738 0.03854244 -0.01564544 0.006693661 0.05233556 -0.01564544 0.02381247 0.03854244 -0.01564544 0.003499925 0.03854244 -0.01564544 -0.001630127 0.04450964 -0.01564544 -0.003179728 0.04132443 -0.0156455 -0.01378458 0.05157333 -0.01564544 0.002608954 0.04009604 -0.01564544 0.002923429 0.0425288 -0.01564544 -0.001257598 0.039155 -0.01564544 5.75855e-5 0.03892475 -0.01564544 0.001390278 0.0447672 -0.01564544 -0.04516959 0.02724069 -0.01564544 -0.03117877 0.02612751 -0.01564544 -0.04271876 0.002725124 -0.01564544 -0.03928709 -0.003849208 -0.01564544 -0.03778731 0.003021717 -0.01564544 -0.04337364 -0.001977026 -0.01564544 -0.03627032 -9.09546e-4 -0.01564544 -0.04414069 -0.02891319 -0.01564544 -0.03452968 -0.04012256 -0.01564544 0.01891213 0.03098398 -0.01564544 0.02226614 0.03154939 -0.01564544 0.02054363 0.03827232 -0.01564544 0.01722019 0.03709101 -0.01564544 0.02325838 0.03637313 -0.01564544 0.01638919 0.03335762 -0.01564544 0.02359008 0.03391087 -0.01564544 0.01663506 -0.03645539 -0.01564544 0.01925617 -0.03823935 -0.01564544 0.02213543 -0.03789037 -0.01564544 0.02188086 -0.03153699 -0.01564544 0.0188719 -0.03114449 -0.01564544 0.01666569 -0.03317576 -0.01564544 0.02375948 -0.03422701 -0.0166381 0.05302035 0.007621765 -0.01663011 0.04896461 0.02199703 -0.0166381 0.03303819 0.04246699 -0.01663219 0.01439362 0.05150496 -0.01664584 -0.005938887 0.05370754 -0.01663035 -0.02849185 0.04542207 -0.01661825 -0.04161208 0.03340888 -0.01663184 -0.05194836 0.01467609 -0.01663643 -0.05324125 -0.005804598 -0.01662892 -0.04801183 -0.02437901 -0.0166375 -0.03053152 -0.04470247 -0.01663905 -0.005582451 -0.05381172 -0.0166313 0.02095019 -0.04955041 -0.0166431 0.05273455 -0.01098054 -1.45389e-4 -0.0419144 -0.003334403 -1.45389e-4 -0.03801369 -0.003413558 -1.45389e-4 -0.03623956 0.001129746 -1.453e-4 -0.04077214 0.003684878 -1.45389e-4 -0.04386848 3.78418e-4 -1.45389e-4 -0.02146095 0.03100681 -1.45389e-4 -0.01817202 0.03132921 -1.45389e-4 -0.01638245 0.03365975 -1.45389e-4 -0.0172249 0.03726142 -1.45389e-4 -0.02147692 0.03804934 -1.45389e-4 -0.02379673 0.03448188 -1.45389e-4 0.01841741 0.03106856 -1.45389e-4 0.02228128 0.03156077 -1.45389e-4 0.02374166 0.03547239 -1.45389e-4 0.02064323 0.03824168 -1.45389e-4 0.01730304 0.03716844 -1.45598e-4 0.01629394 0.03413963 -1.45389e-4 0.03900849 -0.003728628 -1.45389e-4 0.04247099 -0.002872586 -1.45389e-4 0.04371935 3.43018e-5 -1.45389e-4 0.04250001 0.002611279 -1.45389e-4 0.03969889 0.003646433 -1.45389e-4 0.03714084 0.002259433 -1.45389e-4 0.03630733 -9.29321e-4 -1.45389e-4 0.01944726 -0.03854954 -1.45389e-4 0.02292346 -0.0370028 -1.45389e-4 0.02359968 -0.03333163 -1.45389e-4 0.02059727 -0.03107297 -1.45389e-4 0.01725161 -0.03211081 -1.45389e-4 0.01635456 -0.03573679 -1.45389e-4 -0.01797461 -0.03813916 -1.45389e-4 -0.01647871 -0.03299009 -1.45389e-4 -0.02008473 -0.03105038 -1.45389e-4 -0.02335947 -0.0328055 -1.45389e-4 -0.02285647 -0.03731977 -1.45389e-4 0.002188324 0.04417842 -1.45389e-4 -6.76922e-4 0.04490327 -1.45389e-4 0.003037691 0.0416938 -1.45389e-4 0.001998484 0.03951478 -1.45389e-4 -6.68816e-4 0.03890061 -1.45389e-4 -0.00269407 0.04043537 -1.45389e-4 -0.002895176 0.04316854 -1.45389e-4 6.61858e-4 -0.03607726 -1.45598e-4 0.002981007 -0.03730773 -1.45389e-4 0.004161238 -0.0407772 -1.45389e-4 0.001476824 -0.04398924 -1.45389e-4 -0.001983106 -0.04367566 -1.45389e-4 -0.004156827 -0.04071676 -1.45389e-4 -0.002395272 -0.03672456 -0.01664495 0.04129827 -0.03524065 -0.01658272 -0.05425155 0.01396101 -0.01658642 -0.05058449 0.02419519 -0.01659864 -0.04466277 0.03381186 -0.01661151 -0.03089934 0.04668664 -0.016586 -0.04649031 -0.03143638 -0.0165733 -0.05307281 -0.01874107 -0.016626 -0.05587077 -0.004383504 -0.01658964 0.05559951 0.007082939 -0.01659631 0.05582332 -0.006477892 -0.01658713 0.05147129 -0.02250218 -0.01661664 0.0450018 -0.03360289 -0.01659721 -0.01296639 0.05449414 -0.01660501 -7.41593e-4 0.05597937 -0.01657563 0.01005578 0.05509454 -0.01659405 0.02283722 0.05116307 -0.01656281 0.03399294 0.04458564 -0.01659929 0.04514402 0.03339415 -0.01657092 0.05258798 0.01953184 -0.01638633 0.03614038 -0.04279172 -0.01659989 0.02490872 -0.05039024 -0.01660394 0.01291501 -0.0546357 -0.01659309 -5.77383e-4 -0.05626916 -0.01660102 -0.01526433 -0.05406785 -0.0165854 -0.0285443 -0.04842638 -0.01658225 -0.03936845 -0.04004573 -0.01614314 -0.05589979 0.004322767 -0.01614314 -0.0384835 0.0406605 -0.01614314 -0.02276313 0.05112922 -0.01214015 0.05593729 -0.003988564 -0.01214569 0.05317354 -0.01824462 -0.01214641 0.047791 -0.02937608 -0.01214623 0.04144454 -0.03791987 -0.01214045 0.03082495 -0.04708433 -0.0121448 0.01673203 -0.05364072 -0.01214534 0.005816757 -0.05576831 -0.01214635 -0.004435062 -0.05607712 -0.01215904 -0.01981222 -0.0527032 -0.0121358 -0.03107106 -0.04673886 -0.01213395 -0.03850692 -0.0408647 -0.01214551 -0.04494547 -0.03345006 -0.0121476 -0.05114513 -0.02325791 -0.01213413 -0.05530029 -0.009888291 -0.0111649 -0.0559476 6.85791e-4 -0.01214671 -0.05437254 0.01391547 -0.01214641 -0.04835999 0.02854502 -0.01214534 -0.03769308 0.04159778 -0.01214122 -0.02438616 0.05054455 -0.0121448 -0.01067537 0.0549575 -0.01214551 8.84481e-4 0.05601584 -0.01214581 0.01374715 0.05434751 -0.01216125 0.02613019 0.04953479 -0.01214671 0.03495979 0.04375129 -0.01213204 0.04349994 0.03540831 -0.0121361 0.05034238 0.02462756 -0.01213914 0.05375826 0.01577001 -0.01214754 0.05575758 0.00595659 -0.01114523 -0.001284897 -0.05547446 -0.01114535 0.01791596 -0.05234265 -0.01114535 0.03345382 -0.04394954 -0.01114523 0.04649084 -0.030128 -0.01114535 0.05367678 -0.01295751 -0.01114523 0.05486875 0.008077979 -0.01114511 0.04411178 0.03370076 -0.01114535 0.02830713 0.04731625 -0.01114523 0.008449912 0.05464023 -0.01114523 -0.0117774 0.053927 -0.01114535 -0.02923345 0.0466687 -0.01114511 -0.04397433 0.03382945 -0.01114535 -0.05380368 0.01253014 -0.01114535 -0.05112171 -0.02076965 -0.01114523 -0.04128736 -0.03686445 -0.01114523 -0.02478283 -0.04965353 -0.01114535 0.01442617 -0.04807859 -0.01114535 0.006935298 -0.0495969 -0.01114535 -0.001300692 0.05001574 -0.01114535 0.01123744 0.04873275 -0.01114535 0.02240353 0.04473215 -0.01114535 0.02448409 -0.04376608 -0.01114535 3.03574e-4 -0.05015987 -0.01114535 -0.01108694 0.04871273 -0.01114535 -0.008405804 -0.04935091 -0.01114535 0.03339719 -0.03744834 -0.01114535 -0.04103028 0.02860689 -0.01114535 -0.03556811 0.03508228 -0.01114535 0.03261351 0.03799813 -0.01114535 0.04101365 0.02864903 -0.01114535 0.04018515 -0.02977842 -0.01114535 -0.01591098 -0.04757624 -0.01114535 -0.02497828 -0.04349744 -0.01114535 -0.03081899 -0.03944331 -0.01114535 -0.04261183 -0.02633702 -0.01114535 -0.04704248 -0.01735287 -0.01114535 -0.01867842 0.0463398 -0.01114535 -0.03730136 -0.03350716 -0.01114535 -0.04818391 0.01343601 -0.01114535 -0.04521596 0.02114975 -0.01114535 -0.02789908 0.04159349 -0.01114535 0.04589039 0.01993685 -0.01114535 0.04941016 0.008455157 -0.01114535 0.04876267 -0.01163125 -0.01114535 0.045053 -0.02169531 -0.01114535 -0.04945141 -0.007785618 -0.01114535 -0.05002999 0.003283739 -0.01114535 0.05001586 -0.001845121 -0.001142203 0.002459049 -0.05007678 -0.001142442 -0.006082236 -0.04968017 -0.001145899 -0.01382505 -0.04819226 -0.001145601 -0.02147638 -0.04519188 -0.001141011 -0.02937835 -0.0406385 -0.001161515 -0.0369789 -0.03391319 -1.48488e-4 -0.04286551 -0.02588963 -0.001147925 -0.04692411 -0.0175963 -0.001163721 -0.04963815 -0.007063448 -0.001136004 -0.04992216 0.003920972 -0.0011307 -0.04801803 0.01413232 -0.001145839 -0.04406791 0.02344113 -0.001155555 -0.03846848 0.03203052 -1.49189e-4 -0.03231805 0.03801697 -0.001146018 -0.02747541 0.04177194 -0.001143097 -0.01972669 0.04582226 -1.49189e-4 -0.01282459 0.04823815 -0.00113672 -0.006169378 0.04959142 -1.9349e-4 0.001685917 0.04988574 -0.001146316 0.008399426 0.04914587 -0.001140654 0.01892626 0.04632127 -0.001127958 0.02872669 0.04093307 -1.50798e-4 0.03509259 0.03551352 -0.001152455 0.03954952 0.03057235 -0.001125514 0.04435998 0.02315461 -0.001146614 0.04814261 0.01367712 -0.001151144 0.0498445 0.004426956 -0.001134753 0.04986739 -0.005037546 -1.52094e-4 0.04800385 -0.01409357 -0.001138806 0.04558038 -0.02081871 -1.48399e-4 0.04122084 -0.02838659 -0.001143753 0.03676807 -0.03393089 -1.54389e-4 0.03192603 -0.03858786 -1.51394e-4 0.02633863 -0.04262584 -0.001153349 0.01827967 -0.04670846 -0.001146018 0.01006507 -0.04903805 -1.453e-4 0.04907822 0.004154384 -1.45389e-4 0.04330831 0.02363365 -1.45389e-4 0.02532696 0.0419116 -1.45389e-4 0.01314121 0.04745566 -1.453e-4 -0.02459222 0.04241979 -1.45389e-4 -0.04212164 0.02520579 -1.45389e-4 -0.04813575 0.01019209 -1.45389e-4 -0.04899972 -9.04541e-5 -1.45389e-4 -0.04843074 -0.009071767 -1.453e-4 -0.03313618 -0.0369265 -1.453e-4 -0.008894264 -0.04877644 -1.45389e-4 0.01208996 -0.04787182 -0.01064544 -0.02307903 -0.01859712 -0.01064544 -0.02058023 -0.02509164 -0.01064544 -0.02830731 -0.02668005 -0.01064544 -0.02926439 -0.02001696 -0.01064544 -0.03137469 -0.005849838 -0.01064544 -0.02748715 -0.01213204 -0.01064544 -0.03388869 -0.01500511 -0.01064544 -0.03743356 -0.00995773 -0.01064544 -0.0225324 0.02669006 -0.01064544 -0.02079123 0.02106624 -0.01064544 -0.02436524 0.01813071 -0.01064544 -0.02838033 0.01915401 -0.01064544 -0.0298779 0.02327656 -0.01064544 -0.02776646 0.02658408 -0.01064544 -0.02949291 0.01407897 -0.01064544 -0.03407925 0.01474803 -0.01064544 -0.02779954 0.01102477 -0.01064544 -0.02866524 0.007497549 -0.01064544 -0.03460931 0.006016612 -0.01064544 -0.03697401 0.0111081 -0.01064544 0.02913975 -0.01984775 -0.01064544 0.02379065 -0.01839083 -0.01064544 0.02863633 -0.02628833 -0.01064544 0.02224558 -0.02662581 -0.01064544 0.02073627 -0.02185189 -0.01064544 0.03255319 -0.005515754 -0.01064544 0.03712445 -0.01132088 -0.01064544 0.03262335 -0.01545798 -0.01064544 0.02755266 -0.01151245 -0.01064544 0.02819222 0.02643382 -0.01064544 0.02298063 0.02673691 -0.01064544 0.02972835 0.02108871 -0.01064544 0.02487045 0.01790207 -0.01064544 0.02045404 0.02211999 -0.01064544 0.03363752 0.01494079 -0.01064544 0.03703182 0.01097786 -0.01064544 0.0349164 0.006427228 -0.01064544 0.02970635 0.006533682 -0.01064544 0.0277037 0.01019901 -0.01064544 0.02934384 0.01395893 -0.01064544 -0.02272075 -0.03023898 -0.01064544 -0.02906566 -0.02941906 -0.01064544 -0.02589666 -0.006910145 -0.01064544 -0.03031706 -0.003292441 -0.01064544 -0.03627657 -0.003865659 -0.01064574 -0.03965193 -0.01292061 -0.01064544 -0.03147047 -0.02709555 -0.01064544 -0.01972281 -0.0177707 -0.01064544 -0.03959059 -0.00844568 -0.01064544 -0.01816695 -0.02569836 -0.01064544 -0.01794993 -0.02076524 -1.45389e-4 -0.02564334 -0.007326245 -1.45389e-4 -0.02963817 -0.003374159 -1.45389e-4 -0.03572338 -0.00367099 -1.45389e-4 -0.03950011 -0.007946968 -1.45389e-4 -0.03960299 -0.01300168 -1.17285e-4 -0.02015882 -0.01701682 -1.45389e-4 -0.03096467 -0.02797043 -1.45389e-4 -0.02665573 -0.03033214 -1.45389e-4 -0.02153402 -0.02952307 -1.45389e-4 -0.0180782 -0.02546936 -1.45389e-4 -0.01794856 -0.02077025 -0.01064544 -0.02679675 0.005080163 -0.01064544 -0.02520292 0.008098483 -0.01064544 -0.01813793 0.02030843 -0.01064544 -0.02562499 0.03036177 -0.01064544 -0.01800054 0.02477234 -0.01064544 -0.02049338 0.02862292 -0.01064544 -0.03129607 0.002910256 -0.01064544 -0.0398218 0.008572876 -0.01064544 -0.03613084 0.003726482 -0.01064544 -0.03930473 0.01334321 -0.01064562 -0.03092074 0.02786362 -1.45389e-4 -0.01969319 0.01764148 -1.45389e-4 -0.02518415 0.008130848 -1.45389e-4 -0.03969037 0.01267427 -1.45389e-4 -0.03932148 0.00725317 -1.45389e-4 -0.03552246 0.003482282 -1.45389e-4 -0.03128623 0.002921879 -1.45389e-4 -0.02713263 0.004803538 -1.45389e-4 -0.03063744 0.02834349 -1.45389e-4 -0.01877355 0.01886582 -1.45389e-4 -0.0175668 0.02357137 -1.45389e-4 -0.02044546 0.02858418 -1.45389e-4 -0.02496606 0.03022187 -0.01064544 0.02639502 -0.03044933 -0.01064562 0.01772391 -0.02122277 -0.01064544 0.02702504 -0.004948318 -0.01064544 0.02520292 -0.008279383 -0.01064544 0.01871711 -0.02673286 -0.01064544 0.03173565 -0.003158569 -0.01064544 0.02180272 -0.02956843 -0.01064544 0.03919231 -0.007328093 -0.01064544 0.03602617 -0.003891289 -0.01064544 0.03976267 -0.01272177 -0.01064562 0.03115725 -0.02763718 -1.06095e-4 0.02169418 -0.01435655 -1.45389e-4 0.01825249 -0.02015501 -1.45389e-4 0.02678382 -0.005452156 -1.45389e-4 0.03998136 -0.01234555 -1.45389e-4 0.03900772 -0.007026672 -1.45389e-4 0.03549581 -0.003564715 -1.45389e-4 0.03051269 -0.003241956 -1.45389e-4 0.0308023 -0.02824312 -1.45389e-4 0.01798754 -0.02532333 -1.45389e-4 0.02084648 -0.02895408 -1.45389e-4 0.02426302 -0.03024131 -1.45389e-4 0.0268222 -0.03015941 -0.01064562 0.01828706 0.02005392 -0.01064544 0.02653878 0.005760908 -0.01064544 0.02622932 0.03033286 -0.01064544 0.02043271 0.02856403 -0.01064544 0.017807 0.02430319 -0.01064544 0.0313248 0.002749443 -0.01064544 0.03113692 0.02748763 -0.01064574 0.03957051 0.012883 -0.01064544 0.03959071 0.00826472 -0.01064544 0.03687798 0.004274487 -9.50975e-5 0.02516037 0.008172214 -1.45389e-4 0.02725815 0.004521727 -1.45389e-4 0.03427755 0.00294435 -1.45389e-4 0.03940755 0.007390797 -1.45389e-4 0.03959822 0.01282823 -1.45389e-4 0.01838314 0.01986265 -1.453e-4 0.03063809 0.02834337 -1.45389e-4 0.02526986 0.03022778 -1.45389e-4 0.02077329 0.02890181 -1.45389e-4 0.01775884 0.02406382 -2.05098e-4 0.01453983 0.0204913 -1.49099e-4 0.007581055 0.02378332 -4.04699e-4 0.02026689 0.01463097 -1.56297e-4 0.02506476 -2.41577e-4 -1.45389e-4 0.01018738 -0.03072363 -2.12087e-4 0.01718896 -0.01844614 -1.4679e-4 0.00776726 -0.02406603 -2.93492e-4 0.02412885 -0.006940186 -1.45389e-4 -0.01096016 0.02966111 -2.96487e-4 -0.02026265 0.01461315 -1.61989e-4 -0.01548624 0.01974374 -2.4089e-4 -0.02483916 0.003426969 -1.51394e-4 -0.02484232 -0.003628969 -1.45389e-4 -0.01063591 -0.03054589 -1.4819e-4 -0.01241111 -0.02200037 -1.4679e-4 -0.002630889 -0.02510118 -1.50589e-4 -0.007103621 0.02401757 -1.45791e-4 0.0018121 0.02500802 -1.45389e-4 0.003499925 0.03854244 -6.47096e-4 0.02163082 -0.01271629 -6.49197e-4 -0.02304267 0.009791135 -6.34594e-4 -0.02280193 -0.01049482 -6.58287e-4 -0.01931911 -0.01609653 -6.40003e-4 0.0239138 0.007716298 -0.007145345 0.02491754 0.003178477 -0.007145345 0.02209568 0.0118131 -0.007145345 0.0164718 0.01892369 -0.007145345 0.009967625 0.02288657 -0.007145345 0.001744747 0.02506297 -0.007145345 -0.01070928 0.02286547 -0.007145345 -0.01936507 0.01591235 -0.007145345 -0.02434992 0.006550133 -0.007145345 -0.02465516 -0.005280554 -0.007145345 -0.02035886 -0.01484215 -0.007145345 -0.0132209 -0.02149254 -0.007145345 -0.001877129 -0.02535057 -0.007145345 0.009102702 -0.02347946 -0.007145345 0.01537925 -0.01990097 -0.007145345 0.02146941 -0.01327657 -0.007145345 0.02472186 -0.004239976 -0.007145345 0 -9.04541e-5</float_array>
          <technique_common>
            <accessor source="#Link6_003-mesh-positions-array" count="544" stride="3">
              <param name="X" type="float"/>
              <param name="Y" type="float"/>
              <param name="Z" type="float"/>
            </accessor>
          </technique_common>
        </source>
        <source id="Link6_003-mesh-normals">
          <float_array id="Link6_003-mesh-normals-array" count="2931">-1 0 0 -1 0 0 -1 0 0 -1 1.76897e-4 -2.90482e-4 -1 -3.98286e-4 8.55965e-5 -1 2.61595e-7 0 -1 0 0 -1 0 0 -1 0 0 -0.02270263 -0.9630399 -0.2684004 -0.06488865 -0.9559948 -0.2861179 0.04459697 -0.7532427 -0.6562291 -0.08355122 -0.7082934 -0.7009562 0.06925606 -0.3966949 -0.9153342 -0.05413717 2.11061e-4 -0.9985336 0.04190015 0.05926662 -0.9973625 -0.04214072 0.3665399 -0.9294475 -0.09375476 0.3965469 -0.9132146 0.1207302 0.675385 -0.7275159 -0.1445996 0.7917025 -0.5935471 0.119122 0.9244064 -0.3623297 -0.1430178 0.9774738 -0.1552128 0.1575338 0.9756241 0.1527773 -0.05024683 0.9608538 0.2724617 -0.04827237 0.8310516 0.5540966 0.05352485 0.7928231 0.6070971 -0.01258641 0.5639972 0.8256808 -0.03478956 0.5539135 0.831847 -0.01525324 0.1650618 0.9861654 0.06141632 0.1328311 0.989234 0.07329398 -0.2640438 0.9617219 -0.1581402 -0.3824346 0.9103491 0.07764363 -0.6225928 0.7786847 -0.0818991 -0.7733662 0.6286473 -0.007526576 -0.8104252 0.5857938 0.04179972 -0.9340073 0.3548003 -0.122595 -0.965345 0.2303898 0.06029808 -0.9967256 0.05387216 -0.04833251 -0.3433483 -0.9379637 -1 3.8924e-7 0 -1 -2.60474e-5 9.90461e-6 -1 -2.03594e-5 1.17552e-5 -0.9999998 -1.95438e-4 6.97952e-4 -1 -4.02836e-4 3.81405e-5 -0.9999993 -5.4197e-4 0.001128911 -1 -2.85207e-7 0 -1 1.70883e-7 0 -1 -4.10968e-7 0 -1 -2.26396e-5 -1.33274e-5 -1 -3.53804e-5 -8.53886e-6 -1 -1.98896e-7 0 -1 0 0 -1 5.00144e-7 0 -1 -2.03521e-6 0 -1 -3.97592e-7 0 -1 -1.58253e-7 0 -1 -2.2963e-7 0 -1 -2.06937e-4 -2.57315e-4 -1 -1.63344e-7 0 -1 2.05453e-7 0 -1 6.81332e-7 0 -1 -5.27107e-7 0 -0.9999998 4.02136e-4 -4.88598e-4 -0.9999992 0.001312375 -3.02789e-4 -1 9.01041e-7 0 -1 -3.54697e-7 0 -1 1.3165e-6 0 -1 2.05514e-4 9.07588e-5 -1 3.72587e-4 -9.34282e-6 -1 1.89791e-4 2.8817e-4 -1 1.63346e-7 0 -1 -6.52162e-7 0 -1 0 0 -1 -2.17971e-7 0 -1 3.2573e-6 2.57586e-6 -1 -3.91994e-7 0 -1 0 0 -1 6.49579e-7 0 -1 1.24895e-7 0 -1 -1.99671e-7 0 -1 0 0 -1 0 0 -1 7.70542e-7 0 -1 -3.1131e-7 0 -1 1.16448e-5 -1.17825e-5 -1 3.99134e-7 0 -1 -1.60679e-5 1.4046e-4 -0.9999999 1.76561e-4 4.25975e-4 -0.9999989 0.001477837 2.53897e-4 -0.9999995 0.001021206 5.64613e-5 -0.9999978 0.002082049 -2.00262e-4 -0.9999998 6.50191e-4 -2.54877e-4 -1 -2.32887e-4 -3.83386e-4 -1 -3.51766e-6 -2.36224e-4 -0.9999961 0.001139521 -0.002573966 -1 -1.78491e-4 -3.81569e-4 -0.9999984 -0.001251459 -0.001322686 -0.9999872 -0.005074918 2.28773e-4 -0.999998 -4.26963e-4 -0.001990079 -0.9999992 -4.73992e-4 0.001209735 -0.9999985 -3.24995e-4 0.001722455 -0.9999966 -0.002662897 1.6896e-4 -0.999809 -0.01665544 0.01022446 -1 -3.47099e-5 2.26642e-5 -1 -9.12241e-5 2.71007e-5 -1 -7.86667e-5 -3.61035e-6 -1 -1.51086e-7 0 -1 0 0 -1 -1.77388e-5 7.67115e-5 -1 0 0 -1 1.91392e-7 0 -1 -1.13985e-4 -1.4308e-4 -1 -1.38723e-4 -1.0978e-4 -1 0 0 -1 4.1024e-6 -1.8599e-6 -1 2.73932e-6 0 -1 -3.09953e-7 0 -1 3.02542e-6 -3.22346e-6 -1 -3.17749e-7 0 -1 1.55111e-7 -4.50492e-6 -1 1.72342e-6 -4.12234e-6 -1 -5.81364e-7 -4.02453e-6 -1 0 0 -1 0 0 -1 1.93867e-7 0 -1 -5.2209e-7 0 -1 -6.63869e-7 0 -1 2.38573e-7 0 -1 -1.80249e-7 0 -1 0 0 -1 -1.37869e-6 2.99859e-6 -1 4.30688e-6 5.96594e-6 -1 3.18741e-6 1.7818e-6 -1 7.30836e-7 4.72953e-6 -1 -3.72319e-5 -5.30258e-6 -1 -3.73525e-5 3.18451e-5 -1 0 0 -0.9999625 -0.008644521 -6.81202e-4 -1 0 0 -1 1.92787e-7 0 -1 7.69439e-7 0 -1 -3.4915e-6 0 -1 0 0 -1 4.47346e-7 0 -1 0 0 -1 1.06034e-5 -1.23925e-5 -1 0 -1.52507e-5 -1 -1.84355e-5 -4.38731e-6 -1 4.77103e-5 7.12753e-5 -0.9999296 0.009862959 -0.006611049 -0.9997495 -0.00422132 0.02198183 -1 1.47173e-7 0 -1 -1.72573e-7 0 -0.8033651 -0.5765348 -0.1490383 -0.7229502 -0.6650471 -0.1872308 -0.7874107 -0.5165512 -0.3363914 -0.9027806 -0.2434023 -0.3546022 -0.07779437 -0.434902 -0.8971111 -0.8021189 -0.1647074 -0.5740007 -0.003554999 -0.107692 -0.994178 -0.8786448 0.01776111 -0.4771457 0.5765955 0.2820951 -0.7667855 -0.9542284 0.1675229 -0.2477587 -0.9124027 0.2754308 -0.302753 -0.9137143 0.2739567 -0.3001232 0.1367087 0.8672965 -0.4786519 -0.9022083 0.4051938 -0.1477779 -0.5706398 0.8195773 -0.05160915 -0.8754687 0.4832577 0.004078626 -0.114874 0.9562186 0.2691655 -0.8749944 0.4451714 0.190282 0.0221256 0.7579655 0.6519194 0.05449938 0.758028 0.6499412 -0.8883688 0.2328495 0.3957043 0.7397782 0.2308076 0.6320254 -0.8747133 0.03015637 0.4837016 -0.6663581 -0.1880183 0.7215373 0.5417144 -0.1334472 0.8299021 -0.7523665 -0.3523344 0.5566017 -0.6857043 -0.7262043 0.04936593 -0.1897571 -0.9817145 0.01513373 -0.02975779 0.02027928 0.9993515 0.03717756 -0.6974194 0.7156983 -0.04595941 -0.9305148 0.3633596 0.04915654 -0.931822 -0.3595714 -0.0572009 -0.4902693 -0.869692 0.05418789 0.05994641 -0.9967297 -0.04928463 0.7290328 -0.6827021 0.0525093 0.9890741 -0.137751 -0.04248565 0.8841224 0.4653198 0.04036921 0.4161757 0.9083877 -0.007091999 -0.09204441 0.9957298 -0.008090376 -0.09755551 0.9951973 0.01375204 -0.686376 0.7271168 -0.005231738 -0.7931392 0.609018 0.02963054 -0.9887758 0.1464396 -0.02256143 -0.9734697 -0.2277012 0.03409957 -0.7067375 -0.7066537 -0.01735734 -0.1821624 -0.9831153 0.01015424 -0.04143631 -0.9990896 -0.008728861 0.881373 -0.4723405 0.01732456 0.8382144 -0.5450658 -0.02365666 0.8297108 0.5576922 0.0208351 0.7138078 0.7000317 -0.01068574 -0.1662229 0.9860304 -6.08387e-4 -0.1263819 0.9919816 4.9126e-4 -0.8722681 0.4890278 -0.02606588 -0.9365181 0.349649 0.023135 -0.990783 -0.1334683 -0.02973419 -0.5729667 -0.8190392 0.002807974 -0.6663926 -0.7455958 -0.00401479 0.334903 -0.9422442 0.003117442 0.3059065 -0.9520565 -0.003493249 0.9487247 -0.3160843 0.01695698 0.9759716 -0.2172374 -0.02363282 0.8222953 0.5685702 0.01789301 0.6851173 0.728213 0.00906217 -0.2040709 0.9789143 5.66429e-4 -0.2400064 0.9707711 -7.25163e-5 -0.9216761 0.3879604 0.00146079 -0.9188523 0.3945988 -0.005309641 -0.9039068 -0.4276967 0.02279484 -0.8246733 -0.5651499 -0.02649307 -0.3465336 -0.9376634 0.03021782 0.1280488 -0.9913074 -0.01892542 0.4765825 -0.878926 0.01819831 0.9123371 -0.4090355 -0.01173239 0.9674278 -0.2528753 0.01700359 0.8183431 0.5744786 -0.01860707 0.7194852 0.6942586 0.02134168 -0.1203162 0.9925063 -0.0316329 -0.4063213 0.9131826 0.02326428 -0.913944 0.4051732 -0.020599 -0.9832469 0.181111 0.02461522 -0.8196058 -0.5723991 -0.02584922 -0.6009657 -0.7988568 0.01897424 -0.1293242 -0.9914208 -0.02855765 0.2961556 -0.9547128 0.02493673 0.6771265 -0.735444 -0.02018928 0.9705377 -0.2401022 0.01852571 0.9997848 -0.009340524 -0.02211397 0.6726568 0.7396242 0.0096035 0.5626414 0.8266453 0.05900585 -0.5299386 0.8459808 -0.03393685 -0.959742 0.2788257 0.01344507 -0.9975804 0.06821107 3.84294e-4 -0.5541785 -0.8323978 -0.01996368 -0.4736379 -0.8804934 0.01298004 0.1532633 -0.9881002 -0.02859586 0.4721954 -0.88103 0.04398369 0.8880005 -0.4577342 -0.05347818 0.9924275 0.1105794 0.0637049 0.5764 0.8146809 -0.02605605 0.1654602 0.9858722 -0.02418786 -0.2451819 -0.9691753 0.02100962 -0.8248409 -0.5649744 -0.01044964 -0.9461864 -0.3234533 0.01421552 -0.9916487 0.1281834 -0.01940441 -0.9024375 0.4303839 0.01764285 -0.4171519 0.9086657 -0.008998513 -0.2243946 0.9744569 0.009616851 0.1724758 0.9849669 -0.009860277 0.6039377 0.7969706 0.01458662 0.748399 0.6630884 -0.02702921 0.9969396 0.07335448 0.0355156 0.898663 -0.4371996 -0.01787859 0.6159288 -0.787599 0.02007585 0.08492636 -0.996185 0.02251136 -0.2798137 -0.9597904 -0.006877899 -0.4686926 -0.8833346 0.009534716 -0.9046548 -0.4260386 -0.013516 -0.946635 -0.3220239 0.01644235 -0.8356084 0.5490795 -0.01179516 -0.7672553 0.6412335 0.0123012 0.05253475 0.9985434 0.002928733 0.09025996 0.9959139 -0.01588195 0.8057976 0.5919783 0.02009415 0.8916251 0.4523284 -0.002445638 0.9581478 -0.2862641 -0.02445447 0.9146206 -0.403573 0.04366487 0.4960785 -0.867179 -0.00223577 0.2071562 -0.9783054 0.265362 -0.761007 -0.5919894 -0.1352935 -0.5700156 0.8104183 -0.857516 -0.4221414 0.294046 0.5581615 -0.7505376 0.3537644 -0.7291089 -0.6525552 0.2063297 -0.9996819 -0.02385586 0.008188009 -0.9998965 -0.0127865 0.006602764 -0.9999747 -0.005901873 0.003981888 -0.9999698 -0.00573343 0.005254626 -0.9999747 -0.005347073 0.00471723 -0.9996652 -0.02337008 -0.01111817 -0.9998483 -0.01666343 -0.005095541 -0.9999656 -0.006649553 -0.004965722 -0.999993 -0.003718852 4.58934e-4 -0.9997336 -0.02267014 0.004359006 -0.9998201 0.01895356 8.05429e-4 -0.9998862 0.01509118 3.6992e-5 -0.9996203 0.02644473 -0.007754564 -0.9998869 0.01363486 -0.00635153 -0.9999591 0.008713781 -0.002421438 -0.9999549 -0.003109931 0.008976161 -0.9999006 -0.005464971 0.01300501 -0.9996304 -0.003907263 0.0269041 -0.9999111 0.002097904 0.01317065 -0.9997667 0.004454016 0.02113825 -0.9997365 0.005420029 0.02230602 -0.9999285 0.004958987 0.01088178 -0.9994579 0.01875334 0.02706187 -0.9994272 0.02229082 0.02546721 -0.9999629 0.006985187 0.005044996 -0.9996668 0.02353912 0.01059263 -0.9997658 0.02067804 0.006389975 -0.9997774 0.02011668 0.00636959 -0.9978745 0.03258579 -0.05643367 -0.9931396 0.07789003 -0.08721792 -0.9999383 0.00594002 -0.009400665 -0.9998971 0.005087494 -0.01341849 -0.9999682 0.001549422 -0.007828116 -0.9998664 0.001171171 -0.01631009 -0.999674 -0.00325638 -0.02532511 -0.9999446 -0.003666639 -0.009872078 -0.9997792 -0.009201824 -0.01889503 -0.9995303 -0.01894283 -0.02409017 -0.9998982 -0.01102656 -0.00906217 -0.9999249 -0.009230375 -0.008071362 -0.8642153 -0.5009909 0.04625952 -0.8605499 -0.3483967 0.3715828 -0.8727858 -0.1942558 0.4477831 0.08096241 0.9784934 -0.1897258 -0.1177309 0.9583136 -0.2603356 0.07206922 0.8979331 -0.4341915 -0.06301635 0.862335 -0.5024017 0.0628159 0.801175 -0.5951244 -0.09932088 0.7150103 -0.6920229 0.05246669 0.6524483 -0.7560149 -0.1313911 0.5571959 -0.8199202 0.1118811 0.4191355 -0.9010039 -0.07510054 0.3327659 -0.9400143 0.05516117 0.1910243 -0.9800342 -0.06080466 0.1199215 -0.9909196 0.06912791 0.03002971 -0.9971557 -0.08551174 -0.1476384 -0.9853378 0.08033615 -0.213683 -0.9735943 -0.1168724 -0.3884293 -0.914037 0.06923466 -0.4668846 -0.881604 -0.04771423 -0.6115148 -0.7897931 -0.02439165 -0.6197066 -0.7844545 0.0255323 -0.7548287 -0.655425 -0.02098947 -0.7703595 -0.6372643 0.06144559 -0.8527497 -0.518693 -0.08273863 -0.8847517 -0.4586598 0.1122065 -0.9488809 -0.2950167 -0.1095779 -0.9755497 -0.190514 0.04658162 -0.9967786 -0.06528919 -0.01156812 -0.9999295 -0.002693474 0.08091247 -0.9890092 0.1237503 -0.02516484 -0.985569 0.1673941 -0.02220976 -0.9411615 0.3372267 0.09061384 -0.921126 0.3785712 -0.08663922 -0.848358 0.5222856 0.1049705 -0.7700507 0.6292879 -0.01042014 -0.7420701 0.6702414 -0.05958586 -0.6232503 0.7797491 0.09634703 -0.5553824 0.8259951 -0.06461775 -0.4753636 0.8774133 0.006537199 -0.3245676 0.94584 0.05846369 -0.3058434 0.9502852 -0.04121446 -0.1205295 0.9918538 0.02507585 -0.09114116 0.9955223 -0.03795552 0.08171868 0.9959325 0.05994123 0.1284003 0.9899093 -0.083413 0.2928601 0.9525101 0.07300573 0.3613646 0.9295623 -0.06088912 0.5070815 0.8597447 0.03805929 0.5474917 0.8359453 -0.01786077 0.698706 0.7151859 -0.05751538 0.7071163 0.7047542 0.06896638 0.842304 0.5345725 -0.09681397 0.8769553 0.4707192 0.05892348 0.9314075 0.3591769 -0.05691421 0.9703694 0.2348279 0.01574337 0.9797523 0.1995938 -0.03137785 0.9993712 0.01651006 -0.0356242 0.9992027 0.01802724 0.452265 0.02680879 -0.8914807 0.8200883 0.09212517 -0.5647727 0.7235589 0.1320254 -0.6775189 0.5613077 0.3489521 -0.7504439 0.8347738 0.2616783 -0.484435 0.5495997 0.5459834 -0.6323308 0.8584859 0.3730604 -0.3518921 0.5111384 0.6899756 -0.5125145 0.644155 0.6886003 -0.3330075 0.8444146 0.4941623 -0.2068034 0.4564886 0.8734337 -0.1695046 0.8692786 0.4935308 -0.02797091 0.6463461 0.7629112 0.01426565 0.4082831 0.8945488 0.1818991 0.866769 0.4654069 0.1791866 0.9140191 0.3740471 0.1570283 0.3741994 0.7830258 0.4968357 0.6275727 0.5435057 0.5574533 0.8536354 0.3399582 0.3946329 0.5481709 0.4576403 0.7000529 0.7821376 0.2265683 0.5804546 0.8414963 0.1869601 0.5068826 0.3640832 0.1198102 0.9236282 0.8539286 -0.01833784 0.520067 0.6795415 -0.06684476 0.7305855 0.5413528 -0.2574763 0.800402 0.8651168 -0.1925756 0.463128 0.4565551 -0.49651 0.738265 0.8660413 -0.3283711 0.3770211 0.05186372 -0.773284 0.6319352 0.8701301 -0.447475 0.2064938 0.7245733 -0.637465 0.2619773 0.6264887 -0.7671481 0.137825 0.8652588 -0.4892739 -0.1092624 0.6055227 -0.7597978 -0.2367479 0.7958486 -0.5166813 -0.3156986 0.8039108 -0.5082023 -0.3089627 0.4657472 -0.6685211 -0.5797925 0.8278114 -0.3436243 -0.4434531 0.8515161 -0.3248941 -0.4115388 0.344392 -0.438928 -0.8299015 0.8671245 -0.1197675 -0.4834781 0.7845607 -0.1335031 -0.6055093 1 0 0 1 -2.21916e-6 -2.13691e-5 1 -8.76127e-6 -2.44751e-5 1 3.75864e-6 1.51442e-5 1 -1.74745e-6 2.31941e-5 1 3.08257e-6 -2.26416e-5 1 1.00838e-6 -2.80661e-5 1 1.83534e-6 2.1995e-5 1 3.23202e-6 -7.50138e-6 1 0 0 1 0 0 1 3.27178e-5 -2.75782e-5 1 -3.13864e-5 -2.82688e-5 1 -1.83557e-5 1.60731e-5 1 -9.52683e-6 0 1 6.55079e-6 2.70603e-5 1 6.80848e-6 2.81029e-5 1 1.38633e-5 1.99553e-5 1 6.88369e-6 -2.2125e-5 1 -2.54475e-5 -1.16741e-5 1 1.65727e-5 2.17137e-5 1 1.56974e-5 1.71448e-5 1 4.10177e-5 -2.29547e-5 1 1.32943e-5 3.48707e-6 1 -4.05886e-5 -2.26971e-5 1 -2.25348e-5 -6.89308e-6 1 1.84999e-5 1.37474e-5 1 8.14209e-6 1.24357e-5 0.9999948 -0.00322926 -1.68807e-4 1 2.10452e-5 -2.10156e-5 1 3.48265e-5 -4.08343e-5 1 -4.37333e-5 -2.31354e-5 1 -1.82344e-5 1.11033e-5 1 -1.24557e-5 1.21482e-5 1 8.99207e-6 1.97983e-5 1 2.92488e-7 0 0.9999893 -0.004480481 -0.001128137 0.9999996 -6.4218e-4 7.66751e-4 0.9999954 -0.002801954 -0.001143395 1 1.36944e-7 0 1 -3.53407e-7 -1.53984e-5 1 -2.18292e-5 -1.29955e-6 1 -1.49945e-5 -4.87314e-6 0.0182898 -0.04637682 -0.9987566 -0.01128756 -0.09247225 -0.9956514 0.01151752 -0.1887062 -0.9819661 -0.01194298 -0.2300972 -0.9730944 0.01880425 -0.3650076 -0.9308146 -0.01086485 -0.4102214 -0.9119212 0.02800887 -0.4990609 -0.8661141 -0.01603198 -0.5701402 -0.8213911 0.005954623 -0.6626707 -0.7488873 -0.008176565 -0.6753267 -0.7374735 0.001753449 -0.8035959 -0.5951728 0.005495667 -0.805934 -0.59198 -0.002692162 -0.8968629 -0.4423006 -6.49827e-5 -0.898207 -0.4395728 0.005392611 -0.9683566 -0.2495127 -4.75337e-4 -0.9697334 -0.2441661 -0.01490455 -0.9985259 -0.05219197 0.01241606 -0.9995881 -0.02587658 -0.001079797 -0.9830539 0.1833134 0.003858447 -0.9838591 0.1789032 -0.009506583 -0.9332571 0.3590836 0.0161677 -0.9204194 0.3905979 -0.01204329 -0.8719597 0.4894296 0.02764463 -0.8373801 0.5459216 -0.02494627 -0.7641377 0.6445706 0.0156328 -0.6987171 0.7152274 -0.01215177 -0.6471696 0.7622492 0.01176935 -0.6112172 0.7913754 0.003806233 -0.4632331 0.8862283 -0.001956164 -0.4576762 0.8891168 0.01399719 -0.3321396 0.9431264 -0.005957067 -0.2983309 0.954444 0.01106446 -0.1976643 0.9802074 -0.02216982 -0.1319558 0.9910076 0.02281343 -0.0401749 0.9989323 -0.01740431 0.107086 0.9940975 -0.01220738 0.1017874 0.9947313 0.03362888 0.2589982 0.9652922 -0.03228235 0.3371154 0.9409098 0.02823805 0.4815587 0.8759589 -0.03093051 0.5503154 0.8343839 0.02689939 0.6456053 0.7631974 -0.0153349 0.740924 0.6714139 -0.01964509 0.7437083 0.6682155 0.01818978 0.838846 0.5440649 -0.02357232 0.8723516 0.4883106 0.0228281 0.9285345 0.3705438 -0.03185093 0.9555993 0.292943 0.03016996 0.9830477 0.1808511 -0.01972019 0.9980814 0.05869132 0.01561003 0.9998752 0.002443552 -0.02578645 0.9915703 -0.126978 0.02302831 0.9797083 -0.1991018 -0.01065379 0.9412232 -0.3376173 -0.01915144 0.9381149 -0.3457944 -0.001920223 0.866398 -0.4993505 -0.01538276 0.85655 -0.5158349 0.00595349 0.779146 -0.6268143 -0.01930773 0.7487123 -0.6626139 0.01851648 0.6950433 -0.7187295 -0.005629837 0.5857249 -0.8104904 -0.01293098 0.5782269 -0.8157736 0.01665043 0.450202 -0.8927716 -0.02593803 0.3939431 -0.9187688 0.02668619 0.2727574 -0.9617127 -0.007399618 0.1986361 -0.9800455 0.0130198 0.1353057 -0.9907184 -0.009949803 0.08458137 -0.996367 0.6238389 0.768706 0.1411253 0.8747385 0.4646393 0.1376335 0.6325782 0.7198046 0.285878 0.5344579 0.7082442 0.461243 0.6483627 0.6260398 0.4332438 0.7289364 0.3754454 0.5724443 0.6204227 0.3772262 0.6875873 0.8076189 0.2442092 0.5367623 0.3747732 0.2400851 0.8954911 0.5638554 0.1691174 0.8083727 0.5232109 -0.09456777 0.8469401 0.6677255 -0.329762 0.6673827 0.6059108 -0.3686981 0.7049354 0.6542698 -0.3746936 0.6569139 0.7774031 -0.4994138 0.3824009 0.5536231 -0.6973351 0.45522 0.739286 -0.6194572 0.2640629 0.8089452 -0.5457282 0.2186058 0.5234445 -0.8376704 0.1559303 0.7849384 -0.6173983 0.05187541 0.5584806 -0.827858 -0.05244708 0.7484484 -0.6629199 -0.0190289 0.5497654 -0.8090959 -0.2076584 0.7799777 -0.5940803 -0.1967319 0.6591854 -0.5641902 -0.497156 0.2766433 -0.6372295 -0.7193102 0.803404 -0.2969318 -0.516114 0.9173428 -0.174829 -0.3576551 0.7821232 -0.2274592 -0.5801256 0.3364807 -0.1778547 -0.9247424 0.612268 -0.03669065 -0.7897986 0.8734235 0.02097684 -0.4865095 0.6605961 0.1019087 -0.7437927 0.4938831 0.2376434 -0.836424 0.7211751 0.2396166 -0.6499927 0.4074236 0.6749355 -0.6151976 0.5745798 0.7394667 -0.3507806 0.8028721 0.5951033 -0.03533637 0.6064953 0.7950816 0.002971589 0.1158506 -0.545847 -0.8298372 -0.1894447 -0.9164023 -0.352587 0.1717268 -0.9848357 0.02467167 -0.172227 -0.1983375 0.9648835 0.1126527 0.008116602 0.9936013 -0.1595296 0.9771643 0.1403579 0.06788885 0.9966224 -0.04620581 0.02556145 0.43141 -0.9017938 -0.1799498 0.2200863 -0.9587389 -0.009091019 -0.744042 -0.668071 -0.1984538 -0.8334422 -0.5157426 0.1779979 -0.9312527 0.3179391 -0.2602623 -0.2200094 0.940138 0.007778108 -0.4094421 0.912303 -0.0470243 0.8174346 0.5740989 0.02338677 0.84999 0.5262796 0.1047878 0.8142213 -0.5710195 -0.2675185 0.5407221 -0.7975296 0.03160995 -0.03072571 -0.999028 0.09254831 -0.4812281 -0.8716962 -0.1320695 -0.9468951 -0.2931681 0.06476736 -0.9944617 -0.08277183 -0.02317458 -0.6351307 0.772057 -0.0238626 -0.6345247 0.7725342 0.01187646 0.2469381 0.9689585 0.0639739 0.3042776 0.9504328 -0.1155541 0.9336119 0.3391405 -0.08069705 0.9526512 0.2931621 -0.4656032 0.7459544 -0.4761993 -0.1580667 0.3549017 -0.9214444 -0.2843692 0.01939749 -0.9585186 -0.1287418 -0.1431644 -0.9812898 0.1226615 -0.6670065 -0.7348853 -0.06507855 -0.8727174 -0.483869 0.03522777 -0.9705742 0.2382122 0.1841151 -0.8978797 0.399892 -0.2450347 -0.2343849 0.9407559 0.01770323 0.08667939 0.996079 0.05335617 0.9130387 0.404368 0.07708156 0.9042568 0.419974 -0.1532028 0.7734333 -0.6150853 0.1818134 0.4369439 -0.8809222 -0.07222837 -0.2621076 -0.962332 -0.007818162 -0.3354949 -0.9420096 0.08550792 -0.9581994 -0.2730242 -0.209394 -0.974858 0.07619881 0.1798703 -0.6350488 0.7512389 -0.228425 -0.05133986 0.9722069 0.2394911 0.5804039 0.7783158 -0.05694812 0.9519336 0.3009639 0.1409361 0.9856192 -0.09323066 -0.1383939 0.7425742 -0.6553097 0.09850215 0.3631291 -0.9265176 0.1541697 -0.4461773 -0.8815654 -0.2491095 -0.7608906 -0.5991579 0.1789155 -0.9814987 0.06818759 -0.2304578 -0.6584932 0.7164328 0.2083799 -0.1279258 0.9696458 -0.2036324 0.6012355 0.7726901 0.118222 0.8708232 0.4771693 0.02361363 0.8686426 -0.4948762 -0.2129905 0.7503948 -0.6257339 -0.1720595 -0.05719274 -0.9834249 0.2038947 -0.856474 -0.4742146 -0.05698275 -0.9595352 -0.2757631 -0.08002173 -0.5467413 0.833469 0.1177951 -0.3999659 0.9089288 -5.6636e-4 0.6263728 0.7795236 -0.09342569 0.6876534 0.7200031 0.08418804 0.9367691 -0.3396704 -0.04506146 0.8763412 -0.4795786 0.1030481 0.3292798 -0.9385926 0.1248303 -0.4737157 -0.871786 -0.1485595 -0.7510701 -0.6432914 0.1372305 -0.9730916 0.1850962 -0.07583647 -0.904197 0.4203292 0.08520579 -0.04472559 0.9953591 0.01216447 0.02043801 0.9997172 -0.06452703 0.8757231 0.4784825 0.1355407 0.9616483 0.2384564 -0.1212091 0.9098309 -0.3968831 0.1194565 0.575266 -0.8091967 -0.1056412 0.2216867 -0.9693787 1 4.04207e-7 0 1 -5.58308e-5 -1.1219e-5 1 0 0 1 -4.62893e-5 -6.6376e-5 1 2.26254e-7 0 1 1.24077e-6 0 1 -6.97413e-5 -4.89883e-5 1 -1.57965e-7 0 1 2.60847e-7 0 -0.01120787 -0.7032558 -0.7108485 0.03490912 -0.6329516 -0.773404 -0.01392948 0.09572422 -0.9953104 0.01594871 0.04871499 -0.9986855 -0.02720469 0.7492285 -0.6617526 0.02085697 0.809981 -0.5860853 -0.007965028 0.9998745 -0.01370418 -0.00481671 0.9997814 -0.02034848 0.001473784 -0.8702847 -0.4925469 -6.14971e-4 -0.8693521 -0.4941928 0.0264402 0.694604 0.7189063 -0.03403514 0.4803671 0.8764069 0.05674141 0.1279528 0.9901559 -0.04964858 -0.1558528 0.9865319 0.03150498 -0.705732 0.7077781 -0.00771594 -0.7609739 0.6487367 0.007486224 -0.9990059 0.04394829 1.44542e-4 -0.9996198 0.02757734 -1.30204e-4 -0.8604965 -0.5094565 6.50337e-4 -0.8616916 -0.507432 -6.89279e-5 0.8660893 0.4998894 -1.78338e-4 0.8661223 0.4998323 1 1.08102e-6 0 1 1.19966e-7 0 1 -1.47716e-7 0 1 1.2164e-7 0 1 -4.00136e-6 1.46535e-5 1 -1.7751e-7 0 1 -2.96397e-7 0 1 0 0 1 -4.48709e-5 2.88953e-5 1 -2.43654e-7 0 1 0 0 1 -5.37324e-5 2.6812e-5 1 -4.59226e-5 2.62642e-5 -9.96777e-4 -0.8655462 0.5008281 7.698e-6 -0.8660258 0.4999995 0.02963489 0.9937403 -0.1077138 -0.03897684 0.9969348 0.06783723 0.03821516 0.7949711 0.6054425 -0.02430427 0.7042658 0.7095203 0.01328665 0.1664421 0.9859617 -0.001214563 0.1311458 0.9913624 -5.85303e-4 -0.4343857 0.9007268 0.01079678 -0.4126259 0.9108367 -0.01428896 -0.8628375 0.5052796 1.42261e-4 -0.8842857 0.4669463 -4.97585e-5 0.8660092 -0.5000282 -4.96556e-4 0.8658753 -0.5002596 0.03409212 -0.7991006 0.60023 -0.02450013 -0.9683632 0.2483396 0.04476225 -0.9985249 0.03073209 -0.02747207 -0.8391251 -0.5432443 0.002120375 -0.8671811 -0.4979885 -0.002029895 -0.3209263 -0.947102 0.008853554 -0.3406079 -0.9401638 -0.03235661 0.314243 -0.9487911 0.02981418 0.42645 -0.9040197 1 -4.97914e-5 4.44619e-5 1 5.30384e-7 0 1 0 0 1 -6.39919e-5 -2.0199e-5 1 -8.83972e-7 3.24437e-5 1 -1.44747e-7 0 1 4.80949e-7 0 1 -3.15303e-5 4.42676e-6 1 5.87766e-6 -1.54723e-5 1 2.18331e-5 -1.73974e-5 1 6.79625e-5 -5.34948e-6 1 5.53259e-5 -2.98138e-5 1 4.04181e-7 0 0.008620083 0.8598718 -0.5104373 -2.29705e-4 0.8658474 -0.5003083 0.002899348 0.8681856 -0.4962311 0.02447301 -0.9941576 -0.1051276 -0.01212251 -0.9835833 -0.1800472 0.006520628 -0.7354589 -0.677538 -0.01330876 -0.701961 -0.7120911 0.02215057 -0.168285 -0.9854896 -0.01544559 -0.06462717 -0.99779 0.03392785 0.3549539 -0.934268 -0.0295512 0.5096662 -0.8598646 -0.002872824 0.8773183 -0.4799005 1.31508e-4 -0.8661753 0.4997404 -4.19444e-4 -0.8660115 0.5000242 -0.04502165 0.9976759 -0.05114537 0.04452192 0.9831644 0.1772165 -0.02844601 0.7853528 0.6183947 0.01854175 0.6765263 0.7361851 -0.02263349 0.3524661 0.9355509 0.01879161 0.188353 0.9819216 -0.02628666 -0.0319752 0.999143 -0.007228791 -0.4337943 0.9009829 0.03248441 -0.508206 0.8606228 1 -2.82117e-5 -3.92815e-6 1 -4.14286e-5 -4.34614e-5 1 -2.17773e-7 0 1 -5.49634e-7 0 1 3.72287e-7 0 1 3.37667e-7 0 1 -3.81628e-5 -4.6646e-5 1 3.12449e-7 0 1 5.41806e-5 1.08219e-5 1 6.92772e-5 6.52364e-5 1 -2.43407e-7 0 1 7.17576e-5 6.15881e-5 -5.98904e-4 0.8670308 0.4982542 0.0632739 0.5314985 0.8446928 -0.07951366 0.2185552 0.9725798 0.05648052 -0.2643975 0.9627586 -0.06633627 -0.6535261 0.7539916 0.03235 -0.8265544 0.5619266 -0.01780611 -0.9998319 -0.004375636 0.002821266 -0.9993818 0.03504443 -0.001124322 0.8660342 0.4999836 0.001219809 0.8651318 0.5015431 0.04663145 -0.5010172 -0.8641802 -0.03967547 -0.3309453 -0.9428156 0.01624351 0.2828059 -0.9590396 0.02129667 0.291796 -0.9562436 -0.0107361 0.8512808 -0.5246006 -0.008165538 0.8487029 -0.5288068 0.007117092 0.9936538 0.1122558 -0.006373107 0.9891183 0.1469842 -3.82447e-4 -0.8659837 -0.5000723 -3.25487e-4 -0.8659668 -0.5001014 1 0 0 1 6.25648e-6 -2.14828e-6 1 0 0 1 0 0 1 0 0 0.9999998 2.07324e-4 6.38073e-4 1 0 0 0.9998705 -0.01592081 -0.002365827 0.999859 9.84929e-5 -0.0167998 0.9626321 -0.2360661 -0.1327121 0.997973 -0.02507191 -0.05849236 1 0 0 0.999996 -0.002603113 -0.001091241 0.9999111 0.01109582 -0.007399082 1 0 0 0.9999513 0.001071274 0.009822428 0.9983213 -0.0578441 0.002965271 0.99917 -0.0376423 0.01557159 0.9999996 3.98078e-4 -8.26789e-4 0.9999995 3.35144e-5 -0.001047492 0.9999997 2.77351e-4 -8.39904e-4 1 2.86639e-4 -1.65501e-4 0.9999997 8.08577e-4 -1.25171e-4 1 0 0 1 0 0 1 0 0 1 0 0 0.999998 -0.001037836 0.001750946 0.9987524 -0.04800838 -0.01374799 0.9949389 -0.08528274 0.05313712 1 0 0 0.9990264 0.01602268 -0.0411061 0.9999845 0.005420863 -0.001390159 0.998496 0.05230408 -0.01643598 0.9892259 0.126784 -0.07319867 0.9939152 0.0880708 -0.06615263 1 -1.2302e-4 3.71434e-4 1 0 0 1 1.68274e-5 -5.13014e-6 1 1.77166e-5 1.78492e-5 1 2.69663e-6 -2.95656e-5 1 -2.74867e-5 3.6227e-5 1 0 0 1 0 0 1 0 0 0.99871 0.04917663 0.01264536 0.9993632 0.03079122 -0.01803135 0.9999998 2.87267e-4 -6.34124e-4 1 0 0 1 0 0 1 0 0 1 0 0 1 0 0 1 0 0 1 -9.62244e-5 -2.16139e-4 1 -2.89671e-4 -1.67168e-4 1 -2.48179e-4 7.01549e-5 1 4.82882e-6 8.81031e-6 1 0 0 0.999965 -0.001331508 -0.008271396 0.9999968 -0.001630246 0.001977384 0.9999992 0.001269817 3.32393e-4 0.9999983 0.001323223 0.001337468 1 0 0 1 1.41133e-6 1.56084e-5 1 3.80973e-6 1.0417e-5 1 8.3832e-6 6.16148e-6 1 4.62888e-5 -8.23627e-5 1 -6.40255e-5 3.83753e-5 1 0 0 1 1.12605e-5 6.71129e-5 1 0 0 1 8.73164e-6 9.73082e-7 1 5.8522e-6 7.80251e-6 1 1.86567e-6 9.99532e-6 0.9999999 4.08043e-4 -3.96393e-4 0.9999997 7.90576e-4 -2.07773e-4 1 -2.48907e-5 1.06949e-5 1 -1.22298e-5 -5.78752e-6 1 -1.37112e-5 5.27245e-7 1 -4.37019e-6 -2.35665e-5 1 0 0 1 1.5005e-5 -9.75768e-6 1 3.00484e-5 -8.24962e-6 1 -4.206e-5 3.19094e-4 1 7.32335e-5 1.49584e-4 1 -1.1637e-4 1.68087e-4 1 -1.23357e-5 1.23913e-4 1 -9.81824e-5 1.74698e-4 1 -3.65508e-4 3.43641e-5 0.9999993 -4.0504e-4 -0.001198232 0.9999923 0.002663195 -0.002889215 0.9999989 -6.60094e-4 -0.001372516 0.9999999 5.02835e-4 -1.38724e-5 1 2.60541e-4 3.81955e-4 1 7.04962e-6 1.44212e-5 1 -1.02461e-4 3.75007e-4 0.9999999 -5.08097e-4 8.24371e-6 1 1.98727e-4 2.66503e-4 1 5.45335e-4 1.27557e-4 1 0 0 1 0 0 1 0 0 1 -2.21948e-4 3.14812e-4 0.9998104 -0.01199799 0.01534205 0.9999606 0.002180516 0.008619546 0.9999633 -0.002456903 0.008211314 0.999982 0.002427875 0.005504786 1 0 0 1 0 0 1 5.52134e-4 -2.69827e-6 0.9999999 2.37311e-4 6.19441e-4 0.9999997 7.90703e-4 -3.52376e-4 1 2.98596e-4 3.33701e-4 1 0 0 1 -2.92126e-6 -2.93672e-5 1 1.97756e-5 -3.21979e-5 0.9999994 3.53629e-4 -0.001035273 1 0 0 1 0 0 1 -2.27197e-5 -4.15041e-6 -1 1.3357e-4 2.44027e-5 1 0 0 0.9999994 1.72258e-4 -0.00118196 0.9999997 3.74095e-4 -8.40757e-4 1 0 0 1 0 0 1 0 0 1 0 0 0.9999991 0.001349151 -2.4852e-4 0.9999992 0.001268506 -2.72291e-4 0.9135112 -0.2850059 0.2902913 0.7500245 -0.6225651 0.2233296 -0.8922501 0.4163472 -0.1747709 -0.5633956 0.7802914 0.2715341 0.9111659 0.3516365 0.2147758 0.9153531 0.2204009 0.3369749 0.9221663 -0.3282943 -0.2045288 0.9165678 -0.3998737 -0.0021227 -0.0506193 -0.9879927 -0.1459735 0.06985402 -0.9482056 -0.3098815 -0.0455904 -0.8842364 -0.4648092 0.0464797 -0.7834876 -0.6196668 -0.04155182 -0.7152822 -0.6975994 0.04798901 -0.5197072 -0.8529956 -0.03007662 -0.4276404 -0.9034485 0.03660053 -0.255701 -0.9660629 -0.005689442 -0.2076632 -0.9781839 -0.008873462 0.1104105 -0.9938465 0.07243812 0.1733118 -0.9821994 -0.08712512 0.4525829 -0.8874559 0.07962989 0.62427 -0.7771397 -0.03317046 0.7319487 -0.680552 0.01851946 0.8655988 -0.5003958 0.05676037 0.8812559 -0.4692191 -0.05618077 0.959924 -0.2745719 0.05906462 0.9979221 -0.025747 0.02677601 0.9996415 -1.08372e-4 -0.04224681 0.9568961 0.2873414 0.06844741 0.9100114 0.408894 -0.03396606 0.8486821 0.5278116 0.03220057 0.6813236 0.7312738 -0.02016586 0.6504217 0.7593056 0.03143209 0.3218295 0.9462758 -0.001419186 0.3022225 0.9532365 -0.04607933 -0.09895598 0.9940243 0.0505011 -0.1677763 0.9845308 -0.02169322 -0.4951702 0.8685252 -0.04635614 -0.5119553 0.8577604 0.05007636 -0.7352443 0.6759499 -0.03301584 -0.7911179 0.610772 -0.01148664 -0.9175251 0.3975121 0.05195403 -0.9396418 0.3381925 -0.03091531 -0.98982 0.1389272 0.03394103 -0.9990763 0.02635461 1 0 0 1 0 0 1 0 0 1 0 0 1 1.62251e-7 0</float_array>
          <technique_common>
            <accessor source="#Link6_003-mesh-normals-array" count="977" stride="3">
              <param name="X" type="float"/>
              <param name="Y" type="float"/>
              <param name="Z" type="float"/>
            </accessor>
          </technique_common>
        </source>
        <vertices id="Link6_003-mesh-vertices">
          <input semantic="POSITION" source="#Link6_003-mesh-positions"/>
        </vertices>
        <triangles material="black_002-material" count="1148">
          <input semantic="VERTEX" source="#Link6_003-mesh-vertices" offset="0"/>
          <input semantic="NORMAL" source="#Link6_003-mesh-normals" offset="1"/>
          <p>0 0 1 0 2 0 3 0 0 0 2 0 4 1 3 1 2 1 5 2 4 2 2 2 6 3 5 3 2 3 7 4 6 4 2 4 8 5 7 5 2 5 9 0 8 0 2 0 10 0 9 0 2 0 11 6 10 6 2 6 12 7 11 7 2 7 13 8 12 8 2 8 14 0 13 0 2 0 1 0 14 0 2 0 15 9 16 9 4 9 4 10 5 10 15 10 17 11 15 11 5 11 5 12 6 12 17 12 18 13 6 13 7 13 7 14 8 14 18 14 19 15 18 15 8 15 20 16 19 16 8 16 8 17 9 17 20 17 21 18 20 18 9 18 9 19 10 19 21 19 22 20 21 20 10 20 10 21 11 21 22 21 11 22 23 22 22 22 23 23 11 23 12 23 23 24 12 24 13 24 13 25 24 25 23 25 13 26 25 26 24 26 25 27 13 27 14 27 25 28 14 28 1 28 1 29 26 29 25 29 1 30 27 30 26 30 1 31 0 31 27 31 28 32 27 32 0 32 0 33 3 33 28 33 29 34 28 34 3 34 30 35 29 35 3 35 3 36 4 36 30 36 16 37 30 37 4 37 6 38 18 38 17 38 31 39 32 39 33 39 32 40 16 40 34 40 35 41 34 41 16 41 34 0 33 0 32 0 33 0 36 0 31 0 37 42 27 42 38 42 39 43 38 43 27 43 39 44 27 44 28 44 31 45 40 45 41 45 42 0 41 0 40 0 43 46 37 46 38 46 38 0 42 0 43 0 44 47 45 47 46 47 45 48 16 48 46 48 16 49 45 49 47 49 48 50 44 50 49 50 50 51 47 51 51 51 50 52 51 52 48 52 49 53 50 53 48 53 52 0 53 0 54 0 55 54 56 54 53 54 52 0 55 0 53 0 46 0 49 0 44 0 49 0 46 0 57 0 58 55 49 55 57 55 57 56 56 56 58 56 17 57 54 57 46 57 59 0 60 0 61 0 62 0 59 0 63 0 61 58 63 58 59 58 63 0 64 0 62 0 64 59 65 59 62 59 66 60 65 60 67 60 64 61 67 61 65 61 68 0 69 0 70 0 64 62 71 62 21 62 69 63 21 63 71 63 69 64 71 64 70 64 72 0 73 0 74 0 74 0 73 0 75 0 76 0 77 0 75 0 75 0 78 0 76 0 79 65 80 65 67 65 78 66 79 66 76 66 79 0 67 0 76 0 24 67 81 67 82 67 24 68 82 68 83 68 24 69 83 69 76 69 84 0 82 0 85 0 81 70 85 70 82 70 37 71 86 71 87 71 88 0 37 0 87 0 87 0 89 0 88 0 90 0 88 0 89 0 37 0 91 0 86 0 91 72 92 72 93 72 93 73 94 73 91 73 93 74 95 74 96 74 96 0 94 0 93 0 85 75 81 75 97 75 97 0 98 0 85 0 99 0 100 0 90 0 88 0 90 0 100 0 101 0 102 0 47 0 103 76 35 76 104 76 105 77 101 77 50 77 47 0 50 0 101 0 102 78 104 78 35 78 35 79 47 79 102 79 103 0 104 0 106 0 50 80 107 80 105 80 108 81 105 81 107 81 106 82 108 82 109 82 107 0 109 0 108 0 110 0 111 0 112 0 69 0 68 0 113 0 111 83 113 83 68 83 68 0 112 0 111 0 19 84 69 84 114 84 115 0 116 0 117 0 110 0 115 0 117 0 114 85 116 85 115 85 81 86 24 86 25 86 24 87 76 87 23 87 67 88 22 88 23 88 76 89 67 89 23 89 67 90 64 90 22 90 64 91 21 91 22 91 69 92 19 92 20 92 69 93 20 93 21 93 18 94 19 94 52 94 17 95 52 95 54 95 17 96 18 96 52 96 16 97 15 97 46 97 15 98 17 98 46 98 28 99 32 99 39 99 28 100 29 100 32 100 29 101 30 101 32 101 37 102 26 102 27 102 91 0 118 0 92 0 119 103 92 103 118 103 120 104 119 104 40 104 40 105 36 105 120 105 109 106 103 106 106 106 36 107 103 107 109 107 109 108 120 108 36 108 121 109 107 109 50 109 121 110 50 110 49 110 121 0 49 0 58 0 122 111 121 111 58 111 123 112 122 112 58 112 124 113 125 113 123 113 126 0 124 0 123 0 124 0 127 0 125 0 128 114 129 114 130 114 127 115 131 115 132 115 132 0 125 0 127 0 115 0 129 0 133 0 134 0 131 0 127 0 125 116 132 116 135 116 135 0 128 0 125 0 130 117 125 117 128 117 133 118 134 118 115 118 134 0 127 0 115 0 130 119 115 119 110 119 115 120 130 120 129 120 110 121 112 121 130 121 136 0 112 0 137 0 137 0 63 0 136 0 61 122 136 122 63 122 138 123 61 123 60 123 139 0 72 0 74 0 60 124 140 124 138 124 141 125 139 125 74 125 139 126 142 126 72 126 138 0 141 0 61 0 74 0 61 0 141 0 60 0 142 0 140 0 60 0 72 0 142 0 85 0 77 0 84 0 143 127 77 127 85 127 77 128 143 128 74 128 77 129 74 129 75 129 85 0 144 0 143 0 98 130 95 130 144 130 98 131 99 131 95 131 95 132 90 132 96 132 99 133 90 133 95 133 40 0 31 0 36 0 55 0 58 0 56 0 47 134 35 134 16 134 40 135 119 135 118 135 118 136 43 136 40 136 40 0 43 0 42 0 32 137 30 137 16 137 145 0 146 0 55 0 147 0 148 0 124 0 145 138 55 138 52 138 147 0 124 0 126 0 126 0 149 0 147 0 124 0 148 0 150 0 150 139 145 139 52 139 55 140 146 140 151 140 151 141 149 141 126 141 151 0 126 0 55 0 55 0 126 0 58 0 58 0 126 0 123 0 152 0 153 0 91 0 118 142 153 142 154 142 43 143 155 143 156 143 156 144 37 144 43 144 118 0 91 0 153 0 37 0 156 0 157 0 154 0 158 0 118 0 43 0 158 0 155 0 91 0 37 0 152 0 37 0 157 0 152 0 158 0 43 0 118 0 115 145 19 145 114 145 19 146 115 146 127 146 127 147 52 147 19 147 52 0 127 0 124 0 52 0 124 0 150 0 25 148 88 148 81 148 88 149 25 149 26 149 26 150 37 150 88 150 112 0 68 0 137 0 72 0 67 0 80 0 72 151 60 151 67 151 67 152 60 152 66 152 85 0 98 0 144 0 107 153 121 153 159 153 160 154 159 154 121 154 122 155 160 155 121 155 122 156 123 156 161 156 123 157 162 157 161 157 123 158 125 158 162 158 163 159 162 159 125 159 130 160 163 160 125 160 164 161 163 161 130 161 130 162 112 162 164 162 165 163 112 163 136 163 112 164 165 164 164 164 136 165 166 165 165 165 166 166 136 166 61 166 167 167 166 167 61 167 61 168 74 168 167 168 168 169 167 169 74 169 74 170 143 170 168 170 169 171 168 171 143 171 143 172 144 172 169 172 169 173 144 173 95 173 95 174 170 174 169 174 95 175 93 175 170 175 93 176 92 176 171 176 171 177 170 177 93 177 92 178 119 178 171 178 109 179 107 179 172 179 159 180 172 180 107 180 173 181 174 181 139 181 142 182 139 182 174 182 174 183 175 183 142 183 140 184 142 184 175 184 175 185 176 185 140 185 138 186 140 186 176 186 176 187 177 187 138 187 141 188 138 188 177 188 177 189 173 189 141 189 139 190 141 190 173 190 69 191 113 191 178 191 178 192 179 192 69 192 114 193 69 193 179 193 179 194 180 194 114 194 116 195 114 195 180 195 180 196 181 196 116 196 117 197 116 197 181 197 181 198 182 198 117 198 110 199 117 199 182 199 111 200 110 200 182 200 182 201 183 201 111 201 183 202 178 202 111 202 113 203 111 203 178 203 146 204 145 204 184 204 184 205 185 205 146 205 151 206 146 206 185 206 185 207 186 207 151 207 149 208 151 208 186 208 147 209 149 209 186 209 186 210 187 210 147 210 148 211 147 211 187 211 187 212 188 212 148 212 188 213 189 213 148 213 150 214 148 214 189 214 189 215 184 215 150 215 145 216 150 216 184 216 106 217 104 217 190 217 190 218 191 218 106 218 108 219 106 219 191 219 191 220 192 220 108 220 192 221 193 221 108 221 105 222 108 222 193 222 193 223 194 223 105 223 101 224 105 224 194 224 194 225 195 225 101 225 102 226 101 226 195 226 195 227 196 227 102 227 104 228 102 228 196 228 196 229 190 229 104 229 154 230 153 230 197 230 197 231 198 231 154 231 158 232 154 232 198 232 198 233 199 233 158 233 155 234 158 234 199 234 199 235 200 235 155 235 156 236 155 236 200 236 200 237 201 237 156 237 157 238 156 238 201 238 201 239 202 239 157 239 152 240 157 240 202 240 202 241 197 241 152 241 153 242 152 242 197 242 100 243 99 243 203 243 203 244 204 244 100 244 88 245 100 245 204 245 81 246 88 246 204 246 204 247 205 247 81 247 97 248 81 248 205 248 205 249 206 249 97 249 98 250 97 250 206 250 206 251 207 251 98 251 99 252 98 252 207 252 207 253 203 253 99 253 208 254 209 254 135 254 135 255 132 255 208 255 210 256 208 256 132 256 132 257 131 257 210 257 211 258 210 258 131 258 131 259 134 259 211 259 212 260 211 260 134 260 134 261 133 261 212 261 213 262 212 262 133 262 133 263 129 263 213 263 214 264 213 264 129 264 129 265 128 265 214 265 209 266 214 266 128 266 128 267 135 267 209 267 87 268 86 268 215 268 216 269 215 269 86 269 86 270 91 270 216 270 217 271 216 271 91 271 91 272 94 272 217 272 218 273 217 273 94 273 94 274 96 274 218 274 219 275 218 275 96 275 220 276 219 276 96 276 96 277 90 277 220 277 90 278 89 278 220 278 221 279 220 279 89 279 89 280 87 280 221 280 215 281 221 281 87 281 161 282 160 282 122 282 171 283 119 283 222 283 119 284 120 284 222 284 172 285 222 285 120 285 120 286 109 286 172 286 166 287 223 287 224 287 166 288 224 288 225 288 225 289 165 289 166 289 164 290 165 290 225 290 225 291 226 291 164 291 227 292 228 292 168 292 167 293 168 293 228 293 228 294 229 294 167 294 166 295 167 295 229 295 229 296 223 296 166 296 159 297 230 297 231 297 231 298 172 298 159 298 172 299 231 299 232 299 222 300 172 300 232 300 232 301 233 301 222 301 226 302 234 302 164 302 234 303 163 303 164 303 234 304 235 304 163 304 162 305 163 305 235 305 235 306 236 306 162 306 236 307 237 307 162 307 161 308 162 308 237 308 161 309 237 309 238 309 238 310 239 310 161 310 160 311 161 311 239 311 239 312 240 312 160 312 159 313 160 313 240 313 159 314 240 314 230 314 233 315 241 315 222 315 241 316 242 316 222 316 171 317 222 317 242 317 242 318 243 318 171 318 170 319 171 319 243 319 243 320 244 320 170 320 170 321 244 321 245 321 245 322 169 322 170 322 169 323 245 323 246 323 246 324 247 324 169 324 168 325 169 325 247 325 247 326 227 326 168 326 223 327 229 327 248 327 226 328 225 328 249 328 234 329 226 329 250 329 251 330 252 330 231 330 232 331 231 331 252 331 252 332 253 332 232 332 233 333 232 333 253 333 253 334 254 334 233 334 241 335 233 335 254 335 254 336 255 336 241 336 242 337 241 337 255 337 255 338 256 338 242 338 243 339 242 339 256 339 256 340 257 340 243 340 244 341 243 341 257 341 257 342 258 342 244 342 245 343 244 343 258 343 258 344 259 344 245 344 246 345 245 345 259 345 259 346 260 346 246 346 247 347 246 347 260 347 260 348 261 348 247 348 261 349 262 349 247 349 227 350 247 350 262 350 262 351 263 351 227 351 228 352 227 352 263 352 263 353 264 353 228 353 229 354 228 354 264 354 264 355 265 355 229 355 248 356 229 356 265 356 265 357 266 357 248 357 223 358 248 358 266 358 224 359 223 359 266 359 266 360 267 360 224 360 225 361 224 361 267 361 267 362 268 362 225 362 249 363 225 363 268 363 226 364 249 364 268 364 268 365 269 365 226 365 250 366 226 366 269 366 234 367 250 367 269 367 269 368 270 368 234 368 235 369 234 369 270 369 270 370 271 370 235 370 236 371 235 371 271 371 271 372 272 372 236 372 237 373 236 373 272 373 272 374 273 374 237 374 238 375 237 375 273 375 273 376 274 376 238 376 274 377 275 377 238 377 239 378 238 378 275 378 275 379 276 379 239 379 240 380 239 380 276 380 276 381 277 381 240 381 230 382 240 382 277 382 277 383 278 383 230 383 231 384 230 384 278 384 278 385 251 385 231 385 279 386 258 386 257 386 257 387 280 387 279 387 280 388 257 388 256 388 280 389 256 389 255 389 255 390 281 390 280 390 281 391 255 391 254 391 254 392 282 392 281 392 282 393 254 393 253 393 282 394 253 394 252 394 283 395 282 395 252 395 252 396 251 396 283 396 284 397 283 397 251 397 251 398 278 398 284 398 278 399 277 399 284 399 277 400 276 400 284 400 285 401 284 401 276 401 276 402 275 402 285 402 275 403 274 403 285 403 286 404 285 404 274 404 274 405 273 405 286 405 286 406 273 406 272 406 272 407 287 407 286 407 287 408 272 408 271 408 271 409 288 409 287 409 288 410 271 410 270 410 288 411 270 411 269 411 269 412 289 412 288 412 289 413 269 413 268 413 268 414 290 414 289 414 290 415 268 415 267 415 267 416 291 416 290 416 267 417 266 417 291 417 266 418 265 418 291 418 292 419 265 419 264 419 264 420 263 420 292 420 293 421 292 421 263 421 263 422 262 422 293 422 262 423 261 423 293 423 294 424 293 424 261 424 261 425 260 425 294 425 260 426 259 426 294 426 259 427 279 427 294 427 279 428 259 428 258 428 280 429 295 429 296 429 287 430 297 430 298 430 287 431 298 431 299 431 280 429 300 429 295 429 296 432 279 432 280 432 279 433 296 433 301 433 302 434 297 434 288 434 287 435 288 435 297 435 301 436 303 436 279 436 286 437 287 437 299 437 304 438 300 438 281 438 280 439 281 439 300 439 290 440 305 440 306 440 307 441 308 441 285 441 282 442 309 442 304 442 304 443 281 443 282 443 303 444 310 444 279 444 294 445 279 445 310 445 294 446 311 446 312 446 292 429 313 429 314 429 315 447 302 447 288 447 299 429 307 429 286 429 285 448 286 448 307 448 312 449 293 449 294 449 293 450 312 450 316 450 291 429 317 429 318 429 318 451 305 451 290 451 319 452 289 452 290 452 285 453 308 453 320 453 320 454 321 454 284 454 283 429 322 429 323 429 316 455 313 455 293 455 292 456 293 456 313 456 265 457 324 457 325 457 318 458 290 458 291 458 306 459 319 459 290 459 284 460 285 460 320 460 282 461 323 461 309 461 282 462 283 462 323 462 310 463 311 463 294 463 291 429 325 429 317 429 326 464 322 464 283 464 314 465 324 465 265 465 314 466 265 466 292 466 291 467 265 467 325 467 289 468 319 468 315 468 315 469 288 469 289 469 284 470 321 470 326 470 283 471 284 471 326 471 327 472 328 472 301 472 328 473 303 473 301 473 303 474 328 474 329 474 329 475 310 475 303 475 310 476 329 476 330 476 330 477 311 477 310 477 311 478 330 478 331 478 331 479 312 479 311 479 312 480 331 480 332 480 332 481 316 481 312 481 332 482 313 482 316 482 332 483 333 483 313 483 333 484 314 484 313 484 314 485 333 485 334 485 314 486 334 486 335 486 335 487 324 487 314 487 335 488 325 488 324 488 325 489 335 489 336 489 325 490 336 490 337 490 317 491 325 491 337 491 318 492 317 492 337 492 318 493 337 493 338 493 305 494 318 494 338 494 305 495 338 495 339 495 306 496 305 496 339 496 306 497 339 497 340 497 319 498 306 498 340 498 319 499 340 499 341 499 341 500 342 500 319 500 315 501 319 501 342 501 342 502 343 502 315 502 302 503 315 503 343 503 343 504 344 504 302 504 297 505 302 505 344 505 297 506 344 506 345 506 297 507 345 507 346 507 298 508 297 508 346 508 346 509 347 509 298 509 299 510 298 510 347 510 347 511 348 511 299 511 307 512 299 512 348 512 307 513 348 513 349 513 307 514 349 514 350 514 308 515 307 515 350 515 350 516 351 516 308 516 320 517 308 517 351 517 320 518 351 518 352 518 321 519 320 519 352 519 321 520 352 520 353 520 326 521 321 521 353 521 326 522 353 522 354 522 354 523 322 523 326 523 322 524 354 524 355 524 355 525 356 525 322 525 356 526 323 526 322 526 356 527 357 527 323 527 357 528 309 528 323 528 309 529 357 529 358 529 358 530 304 530 309 530 304 531 358 531 359 531 359 532 360 532 304 532 360 533 300 533 304 533 300 534 360 534 361 534 361 535 295 535 300 535 361 536 362 536 295 536 362 537 296 537 295 537 362 538 327 538 296 538 327 539 301 539 296 539 363 540 353 540 352 540 364 541 363 541 352 541 364 542 352 542 351 542 351 543 350 543 364 543 349 544 364 544 350 544 365 545 349 545 348 545 348 546 347 546 365 546 366 547 365 547 347 547 347 548 346 548 366 548 346 549 345 549 366 549 343 550 345 550 344 550 367 551 343 551 342 551 342 552 341 552 367 552 340 553 367 553 341 553 339 554 368 554 340 554 368 555 339 555 338 555 368 556 338 556 337 556 337 557 369 557 368 557 337 558 336 558 369 558 370 559 369 559 336 559 371 560 370 560 336 560 336 561 335 561 371 561 371 562 335 562 334 562 333 563 371 563 334 563 333 564 332 564 372 564 332 565 331 565 372 565 331 566 330 566 372 566 373 567 372 567 330 567 330 568 329 568 373 568 329 569 328 569 373 569 328 570 327 570 373 570 374 571 373 571 327 571 327 572 362 572 374 572 362 573 361 573 374 573 360 574 374 574 361 574 359 575 358 575 357 575 356 576 355 576 357 576 363 577 355 577 354 577 354 578 353 578 363 578 76 579 83 579 375 579 376 580 375 580 83 580 83 581 82 581 376 581 377 582 376 582 82 582 82 583 84 583 377 583 378 584 377 584 84 584 84 585 77 585 378 585 77 586 76 586 378 586 375 587 378 587 76 587 80 588 79 588 379 588 380 589 379 589 79 589 79 590 78 590 380 590 78 591 75 591 380 591 381 592 380 592 75 592 382 593 381 593 75 593 75 594 73 594 382 594 73 595 72 595 382 595 379 596 382 596 72 596 72 597 80 597 379 597 68 598 70 598 383 598 384 599 383 599 70 599 70 600 71 600 384 600 71 601 64 601 384 601 385 602 384 602 64 602 386 603 385 603 64 603 64 604 63 604 386 604 387 605 386 605 63 605 63 606 137 606 387 606 388 607 387 607 137 607 137 608 68 608 388 608 383 609 388 609 68 609 389 610 390 610 62 610 62 611 65 611 389 611 391 612 389 612 65 612 392 613 391 613 65 613 65 614 66 614 392 614 393 615 392 615 66 615 66 616 60 616 393 616 60 617 59 617 393 617 394 618 393 618 59 618 390 619 394 619 59 619 59 620 62 620 390 620 395 621 396 621 32 621 32 622 31 622 395 622 31 623 41 623 395 623 397 624 395 624 41 624 41 625 42 625 397 625 398 626 397 626 42 626 42 627 38 627 398 627 399 628 398 628 38 628 38 629 39 629 399 629 396 630 399 630 39 630 39 631 32 631 396 631 35 632 103 632 400 632 401 633 400 633 103 633 103 634 36 634 401 634 402 635 401 635 36 635 36 636 33 636 402 636 403 637 402 637 33 637 33 638 34 638 403 638 34 639 35 639 403 639 400 640 403 640 35 640 404 641 405 641 56 641 56 642 57 642 404 642 406 643 404 643 57 643 407 644 406 644 57 644 57 645 46 645 407 645 46 646 54 646 407 646 408 647 407 647 54 647 54 648 53 648 408 648 405 649 408 649 53 649 53 650 56 650 405 650 44 651 48 651 409 651 410 652 409 652 48 652 48 653 51 653 410 653 411 654 410 654 51 654 51 655 47 655 411 655 412 656 411 656 47 656 413 657 412 657 47 657 47 658 45 658 413 658 414 659 413 659 45 659 45 660 44 660 414 660 409 661 414 661 44 661 415 429 376 429 377 429 416 662 415 662 377 662 379 429 380 429 417 429 379 429 417 429 418 429 379 429 418 429 419 429 420 663 421 663 381 663 422 429 417 429 380 429 380 664 378 664 375 664 375 429 422 429 380 429 423 665 420 665 382 665 419 666 382 666 379 666 424 429 425 429 376 429 421 667 416 667 381 667 381 429 416 429 378 429 380 429 381 429 378 429 419 429 423 429 382 429 415 429 424 429 376 429 377 429 378 429 416 429 420 668 381 668 382 668 425 669 422 669 375 669 375 670 376 670 425 670 426 671 427 671 417 671 418 672 417 672 427 672 419 673 418 673 427 673 427 674 428 674 419 674 428 675 429 675 419 675 423 676 419 676 429 676 420 677 423 677 429 677 429 678 430 678 420 678 431 679 426 679 417 679 417 680 422 680 431 680 416 681 421 681 432 681 432 682 433 682 416 682 415 683 416 683 433 683 433 684 434 684 415 684 424 685 415 685 434 685 434 686 435 686 424 686 425 687 424 687 435 687 435 688 436 688 425 688 422 689 425 689 436 689 436 690 431 690 422 690 432 691 421 691 420 691 420 692 430 692 432 692 437 693 438 693 385 693 439 429 384 429 385 429 438 694 439 694 385 694 388 429 383 429 440 429 383 429 384 429 441 429 442 429 440 429 383 429 383 429 441 429 442 429 392 429 393 429 443 429 444 429 445 429 393 429 439 429 441 429 384 429 393 695 445 695 443 695 394 696 390 696 446 696 447 697 446 697 390 697 393 698 394 698 444 698 446 699 444 699 394 699 389 700 385 700 386 700 385 429 389 429 391 429 391 429 437 429 385 429 437 429 391 429 392 429 447 701 387 701 388 701 392 702 443 702 437 702 386 429 387 429 390 429 386 703 390 703 389 703 387 704 447 704 390 704 440 705 447 705 388 705 448 706 439 706 438 706 438 707 449 707 448 707 444 708 446 708 450 708 450 709 451 709 444 709 445 710 444 710 451 710 451 711 452 711 445 711 443 712 445 712 452 712 452 713 453 713 443 713 437 714 443 714 453 714 453 715 454 715 437 715 454 716 449 716 437 716 438 717 437 717 449 717 450 718 446 718 447 718 447 719 455 719 450 719 448 720 456 720 439 720 456 721 457 721 439 721 441 722 439 722 457 722 442 723 441 723 457 723 457 724 458 724 442 724 440 725 442 725 458 725 458 726 459 726 440 726 459 727 455 727 440 727 447 728 440 728 455 728 397 429 398 429 460 429 399 729 396 729 461 729 462 730 463 730 403 730 403 731 400 731 462 731 398 732 399 732 461 732 461 733 464 733 398 733 465 734 462 734 400 734 466 429 460 429 398 429 464 429 466 429 398 429 467 735 400 735 401 735 467 429 468 429 400 429 463 736 461 736 396 736 403 429 463 429 396 429 400 429 468 429 465 429 469 429 401 429 402 429 470 737 469 737 402 737 401 429 469 429 467 429 395 738 470 738 402 738 470 739 395 739 397 739 460 740 470 740 397 740 402 741 403 741 395 741 403 429 396 429 395 429 471 742 472 742 461 742 471 743 461 743 463 743 463 744 473 744 471 744 467 745 469 745 474 745 474 746 475 746 467 746 468 747 467 747 475 747 475 748 476 748 468 748 465 749 468 749 476 749 476 750 477 750 465 750 462 751 465 751 477 751 477 752 473 752 462 752 463 753 462 753 473 753 474 754 469 754 470 754 470 755 478 755 474 755 472 756 479 756 461 756 464 757 461 757 479 757 479 758 480 758 464 758 466 759 464 759 480 759 480 760 481 760 466 760 460 761 466 761 481 761 481 762 482 762 460 762 482 763 478 763 460 763 470 764 460 764 478 764 483 765 484 765 407 765 485 429 486 429 405 429 407 766 408 766 483 766 405 429 404 429 485 429 486 429 408 429 405 429 486 429 487 429 408 429 406 767 407 767 414 767 484 768 488 768 412 768 411 769 412 769 488 769 407 770 484 770 413 770 487 771 483 771 408 771 489 429 485 429 404 429 409 429 489 429 406 429 414 429 409 429 406 429 484 429 412 429 413 429 413 772 414 772 407 772 404 429 406 429 489 429 490 773 489 773 409 773 491 774 490 774 410 774 492 429 491 429 411 429 410 429 411 429 491 429 488 775 492 775 411 775 490 776 409 776 410 776 493 777 494 777 484 777 488 778 484 778 494 778 494 779 495 779 488 779 492 780 488 780 495 780 495 781 496 781 492 781 491 782 492 782 496 782 490 783 491 783 496 783 496 784 497 784 490 784 493 785 484 785 483 785 483 786 498 786 493 786 485 787 489 787 499 787 499 788 500 788 485 788 500 789 501 789 485 789 486 790 485 790 501 790 487 791 486 791 501 791 501 792 502 792 487 792 483 793 487 793 502 793 502 794 498 794 483 794 499 795 489 795 490 795 490 796 497 796 499 796 477 797 196 797 495 797 499 798 497 798 364 798 496 429 495 429 194 429 497 799 496 799 193 799 496 800 194 800 193 800 195 429 194 429 495 429 495 801 196 801 195 801 349 802 500 802 499 802 500 429 184 429 501 429 184 803 502 803 501 803 498 804 502 804 503 804 502 805 504 805 503 805 498 806 505 806 493 806 498 807 503 807 505 807 477 808 495 808 494 808 506 809 477 809 494 809 493 810 506 810 494 810 507 429 481 429 480 429 480 811 479 811 507 811 479 812 508 812 509 812 479 813 472 813 508 813 471 814 508 814 472 814 478 815 482 815 359 815 481 816 359 816 482 816 478 817 359 817 357 817 474 818 478 818 357 818 357 819 355 819 474 819 190 820 196 820 476 820 191 821 475 821 474 821 196 822 477 822 476 822 191 823 190 823 475 823 476 429 475 429 190 429 473 824 477 824 506 824 506 825 510 825 473 825 473 826 510 826 471 826 511 827 458 827 457 827 512 828 513 828 456 828 513 829 457 829 456 829 514 830 512 830 449 830 448 831 449 831 512 831 456 832 448 832 512 832 511 429 459 429 458 429 340 833 455 833 459 833 453 834 452 834 175 834 176 835 175 835 452 835 452 836 451 836 176 836 370 837 177 837 176 837 176 838 451 838 370 838 369 839 370 839 451 839 369 429 451 429 450 429 368 840 369 840 450 840 450 841 455 841 368 841 454 842 515 842 514 842 449 843 454 843 514 843 515 844 454 844 453 844 453 845 428 845 427 845 453 846 175 846 428 846 428 429 175 429 174 429 430 847 429 847 371 847 370 848 371 848 429 848 429 429 428 429 174 429 174 849 173 849 429 849 173 850 370 850 429 850 370 429 173 429 177 429 430 851 371 851 333 851 432 852 430 852 333 852 432 853 333 853 372 853 372 854 433 854 432 854 433 429 516 429 434 429 435 855 434 855 516 855 517 856 431 856 436 856 431 857 515 857 426 857 515 858 453 858 427 858 427 859 426 859 515 859 220 860 221 860 516 860 215 429 516 429 221 429 218 861 219 861 373 861 217 429 218 429 374 429 373 862 374 862 218 862 373 863 219 863 220 863 507 864 215 864 216 864 507 865 216 865 217 865 205 866 204 866 516 866 203 867 207 867 372 867 516 429 433 429 205 429 433 868 206 868 205 868 372 869 207 869 206 869 206 870 433 870 372 870 220 429 204 429 203 429 373 871 220 871 203 871 220 429 516 429 204 429 355 872 363 872 191 872 355 873 191 873 474 873 363 874 192 874 191 874 497 429 193 429 364 429 193 875 192 875 363 875 193 876 363 876 364 876 181 877 367 877 182 877 511 878 179 878 178 878 367 879 183 879 182 879 459 429 511 429 178 429 459 429 178 429 183 429 367 880 459 880 183 880 511 429 180 429 179 429 518 881 517 881 516 881 516 882 215 882 518 882 509 883 507 883 479 883 215 884 509 884 518 884 215 885 507 885 509 885 184 886 504 886 502 886 519 887 520 887 511 887 457 888 513 888 511 888 513 889 519 889 511 889 517 890 436 890 435 890 435 891 516 891 517 891 372 892 373 892 203 892 340 893 368 893 455 893 459 894 367 894 340 894 343 895 367 895 181 895 181 896 180 896 343 896 212 429 213 429 180 429 212 429 180 429 521 429 521 897 180 897 511 897 521 898 211 898 212 898 213 899 214 899 180 899 343 900 180 900 214 900 214 901 209 901 345 901 209 902 208 902 345 902 366 903 345 903 208 903 345 904 343 904 214 904 210 905 211 905 521 905 366 906 208 906 210 906 210 429 521 429 366 429 188 429 365 429 366 429 365 907 500 907 349 907 349 908 499 908 364 908 359 909 481 909 360 909 374 910 360 910 217 910 366 911 521 911 188 911 188 912 521 912 520 912 511 913 520 913 521 913 184 914 520 914 504 914 500 915 185 915 184 915 187 429 365 429 188 429 187 916 186 916 365 916 520 917 184 917 188 917 188 918 184 918 189 918 500 919 186 919 185 919 500 429 365 429 186 429 217 920 360 920 197 920 481 429 200 429 199 429 198 921 197 921 360 921 507 922 201 922 200 922 200 923 481 923 507 923 197 924 202 924 217 924 202 429 201 429 507 429 507 925 217 925 202 925 360 926 199 926 198 926 199 927 360 927 481 927 471 928 522 928 508 928 471 929 510 929 522 929 512 930 514 930 523 930 515 931 431 931 524 931 525 932 524 932 431 932 431 933 517 933 525 933 493 934 505 934 526 934 526 935 506 935 493 935 527 936 506 936 526 936 526 937 528 937 527 937 528 938 526 938 505 938 505 939 529 939 528 939 529 940 505 940 503 940 503 941 530 941 529 941 530 942 503 942 504 942 504 943 531 943 530 943 531 944 504 944 520 944 531 945 520 945 519 945 519 946 532 946 531 946 532 947 519 947 513 947 513 948 533 948 532 948 533 949 513 949 512 949 533 950 512 950 523 950 523 951 534 951 533 951 534 952 523 952 514 952 514 953 535 953 534 953 535 954 514 954 515 954 535 955 515 955 524 955 536 956 535 956 524 956 524 957 525 957 536 957 537 958 536 958 525 958 537 959 525 959 517 959 538 960 537 960 517 960 517 961 518 961 538 961 518 962 509 962 538 962 539 963 538 963 509 963 540 964 539 964 509 964 509 965 508 965 540 965 541 966 540 966 508 966 508 967 522 967 541 967 522 968 510 968 541 968 542 969 541 969 510 969 510 970 506 970 542 970 527 971 542 971 506 971 537 429 538 429 543 429 536 429 537 429 543 429 535 429 536 429 543 429 534 429 535 429 543 429 533 429 534 429 543 429 532 972 533 972 543 972 531 429 532 429 543 429 530 429 531 429 543 429 529 429 530 429 543 429 528 429 529 429 543 429 527 429 528 429 543 429 542 973 527 973 543 973 541 974 542 974 543 974 540 975 541 975 543 975 539 976 540 976 543 976 538 429 539 429 543 429</p>
        </triangles>
      </mesh>
    </geometry>
  </library_geometries>
  <library_visual_scenes>
    <visual_scene id="Scene" name="Scene">
      <node id="Link6" name="Link6" type="NODE">
        <matrix sid="transform">1 0 0 0 0 1 0 0 0 0 1 0 0 0 0 1</matrix>
        <instance_geometry url="#Link6_003-mesh" name="Link6">
          <bind_material>
            <technique_common>
              <instance_material symbol="black_002-material" target="#black_002-material"/>
            </technique_common>
          </bind_material>
        </instance_geometry>
      </node>
    </visual_scene>
  </library_visual_scenes>
  <scene>
    <instance_visual_scene url="#Scene"/>
  </scene>
</COLLADA>