<?xml version="1.0" encoding="utf-8"?>
<COLLADA xmlns="http://www.collada.org/2005/11/COLLADASchema" version="1.4.1" xmlns:xsi="http://www.w3.org/2001/XMLSchema-instance">
  <asset>
    <contributor>
      <author>Blender User</author>
      <authoring_tool>Blender 2.82.7</authoring_tool>
    </contributor>
    <created>2024-02-04T16:25:39</created>
    <modified>2024-02-04T16:25:39</modified>
    <unit name="meter" meter="1"/>
    <up_axis>Z_UP</up_axis>
  </asset>
  <library_effects>
    <effect id="black-effect">
      <profile_COMMON>
        <technique sid="common">
          <lambert>
            <emission>
              <color sid="emission">0 0 0 1</color>
            </emission>
            <diffuse>
              <color sid="diffuse">0.0118336 0.0118336 0.0118336 1</color>
            </diffuse>
            <index_of_refraction>
              <float sid="ior">1.45</float>
            </index_of_refraction>
          </lambert>
        </technique>
      </profile_COMMON>
    </effect>
  </library_effects>
  <library_images/>
  <library_materials>
    <material id="black-material" name="black">
      <instance_effect url="#black-effect"/>
    </material>
  </library_materials>
  <library_geometries>
    <geometry id="Link6-mesh" name="Link6">
      <mesh>
        <source id="Link6-mesh-positions">
          <float_array id="Link6-mesh-positions-array" count="1950">-0.005499958 -0.0103901 0.02443963 -0.005499958 -0.009786188 0.02504366 -0.005499958 -0.01121509 0.02751857 -0.005499958 -0.01121509 0.02421861 -0.005499958 -0.01204013 0.02729755 -0.005499958 -0.01264405 0.02669364 -0.005499958 -0.009565114 0.02586859 -0.005499958 -0.009786188 0.02669364 -0.005499958 -0.0103901 0.02729755 -0.005499958 -0.01286512 0.02586859 -0.005499958 -0.01264405 0.02504366 -0.005499958 -0.01204013 0.02443963 -0.005499958 -0.02779752 0.009890079 -0.005499958 -0.0271936 0.009286165 -0.005499958 -0.02636861 0.009065032 -0.005499958 -0.02554363 0.009286165 -0.005499958 -0.02636861 0.01236516 -0.005499958 -0.02493965 0.009890079 -0.005499958 -0.0271936 0.01214402 -0.005499958 -0.02779752 0.01154011 -0.005499958 -0.02471858 0.01071518 -0.005499958 -0.02493965 0.01154011 -0.005499958 -0.02554363 0.01214402 -0.005499958 -0.02801859 0.01071518 -0.005499958 -0.02779752 -0.01154011 -0.005499958 -0.0271936 -0.01214402 -0.005499958 -0.02636861 -0.01236516 -0.005499958 -0.02554363 -0.01214402 -0.005499958 -0.02636861 -0.009065091 -0.005499958 -0.02493965 -0.01154011 -0.005499958 -0.0271936 -0.009286224 -0.005499958 -0.02779752 -0.009890139 -0.005499958 -0.02471858 -0.01071518 -0.005499958 -0.02493965 -0.009890139 -0.005499958 -0.02554363 -0.009286224 -0.005499958 -0.02801859 -0.01071518 -0.005499958 -0.0103901 -0.02729755 -0.005499958 -0.009786188 -0.02669364 -0.005499958 -0.01121509 -0.02421861 -0.005499958 -0.01121509 -0.02751857 -0.005499958 -0.01204013 -0.02443963 -0.005499958 -0.01264405 -0.02504366 -0.005499958 -0.009565114 -0.02586859 -0.005499958 -0.009786188 -0.02504366 -0.005499958 -0.0103901 -0.02443963 -0.005499958 -0.01286512 -0.02586859 -0.005499958 -0.01264405 -0.02669364 -0.005499958 -0.01204013 -0.02729755 -0.005499958 0.01104009 -0.02729755 -0.005499958 0.01164406 -0.02669364 -0.005499958 0.0102151 -0.02421861 -0.005499958 0.0102151 -0.02751857 -0.005499958 0.009390115 -0.02443963 -0.005499958 0.008786141 -0.02504366 -0.005499958 0.01186513 -0.02586859 -0.005499958 0.01164406 -0.02504366 -0.005499958 0.01104009 -0.02443963 -0.005499958 0.008565127 -0.02586859 -0.005499958 0.008786141 -0.02669364 -0.005499958 0.009390115 -0.02729755 -0.005499958 0.02393966 -0.01154011 -0.005499958 0.02454358 -0.01214402 -0.005499958 0.02536863 -0.01236516 -0.005499958 0.02619361 -0.01214402 -0.005499958 0.02536863 -0.009065091 -0.005499958 0.02679753 -0.01154011 -0.005499958 0.02454358 -0.009286224 -0.005499958 0.02393966 -0.009890139 -0.005499958 0.0270186 -0.01071518 -0.005499958 0.02679753 -0.009890139 -0.005499958 0.02619361 -0.009286224 -0.005499958 0.02371859 -0.01071518 -0.005499958 0.02393966 0.009890079 -0.005499958 0.02454358 0.009286165 -0.005499958 0.02536863 0.009065032 -0.005499958 0.02619361 0.009286165 -0.005499958 0.02536863 0.01236516 -0.005499958 0.02679753 0.009890079 -0.005499958 0.02454358 0.01214402 -0.005499958 0.02393966 0.01154011 -0.005499958 0.0270186 0.01071518 -0.005499958 0.02679753 0.01154011 -0.005499958 0.02619361 0.01214402 -0.005499958 0.02371859 0.01071518 -0.005499958 0.01104009 0.02443963 -0.005499958 0.01164406 0.02504366 -0.005499958 0.0102151 0.02751857 -0.005499958 0.0102151 0.02421861 -0.005499958 0.009390115 0.02729755 -0.005499958 0.008786141 0.02669364 -0.005499958 0.01186513 0.02586859 -0.005499958 0.01164406 0.02669364 -0.005499958 0.01104009 0.02729755 -0.005499958 0.008565127 0.02586859 -0.005499958 0.008786141 0.02504366 -0.005499958 0.009390115 0.02443963 -5.99999e-4 -0.01204013 0.02729755 -5.99999e-4 -0.01121509 0.02751857 -5.99999e-4 -0.0103901 0.02729755 -5.99999e-4 -0.009786188 0.02669364 -5.99999e-4 -0.009565114 0.02586859 -5.99999e-4 -0.009786188 0.02504366 -5.99999e-4 -0.0103901 0.02443963 -5.99999e-4 -0.01121509 0.02421861 -5.99999e-4 -0.01204013 0.02443963 -5.99999e-4 -0.01264405 0.02504366 -5.99999e-4 -0.01286512 0.02586859 -5.99999e-4 -0.01264405 0.02669364 -5.99999e-4 -0.0271936 0.01214402 -5.99999e-4 -0.02636861 0.01236516 -5.99999e-4 -0.02554363 0.01214402 -5.99999e-4 -0.02493965 0.01154011 -5.99999e-4 -0.02471858 0.01071518 -5.99999e-4 -0.02493965 0.009890079 -5.99999e-4 -0.02554363 0.009286165 -5.99999e-4 -0.02636861 0.009065032 -5.99999e-4 -0.0271936 0.009286165 -5.99999e-4 -0.02779752 0.009890079 -5.99999e-4 -0.02801859 0.01071518 -5.99999e-4 -0.02779752 0.01154011 -5.99999e-4 -0.0271936 -0.009286224 -5.99999e-4 -0.02636861 -0.009065091 -5.99999e-4 -0.02554363 -0.009286224 -5.99999e-4 -0.02493965 -0.009890139 -5.99999e-4 -0.02471858 -0.01071518 -5.99999e-4 -0.02493965 -0.01154011 -5.99999e-4 -0.02554363 -0.01214402 -5.99999e-4 -0.02636861 -0.01236516 -5.99999e-4 -0.0271936 -0.01214402 -5.99999e-4 -0.02779752 -0.01154011 -5.99999e-4 -0.02801859 -0.01071518 -5.99999e-4 -0.02779752 -0.009890139 -5.99999e-4 -0.01204013 -0.02443963 -5.99999e-4 -0.01121509 -0.02421861 -5.99999e-4 -0.0103901 -0.02443963 -5.99999e-4 -0.009786188 -0.02504366 -5.99999e-4 -0.009565114 -0.02586859 -5.99999e-4 -0.009786188 -0.02669364 -5.99999e-4 -0.0103901 -0.02729755 -5.99999e-4 -0.01121509 -0.02751857 -5.99999e-4 -0.01204013 -0.02729755 -5.99999e-4 -0.01264405 -0.02669364 -5.99999e-4 -0.01286512 -0.02586859 -5.99999e-4 -0.01264405 -0.02504366 -5.99999e-4 0.009390115 -0.02443963 -5.99999e-4 0.0102151 -0.02421861 -5.99999e-4 0.01104009 -0.02443963 -5.99999e-4 0.01164406 -0.02504366 -5.99999e-4 0.01186513 -0.02586859 -5.99999e-4 0.01164406 -0.02669364 -5.99999e-4 0.01104009 -0.02729755 -5.99999e-4 0.0102151 -0.02751857 -5.99999e-4 0.009390115 -0.02729755 -5.99999e-4 0.008786141 -0.02669364 -5.99999e-4 0.008565127 -0.02586859 -5.99999e-4 0.008786141 -0.02504366 -5.99999e-4 0.02454358 -0.009286224 -5.99999e-4 0.02536863 -0.009065091 -5.99999e-4 0.02619361 -0.009286224 -5.99999e-4 0.02679753 -0.009890139 -5.99999e-4 0.0270186 -0.01071518 -5.99999e-4 0.02679753 -0.01154011 -5.99999e-4 0.02619361 -0.01214402 -5.99999e-4 0.02536863 -0.01236516 -5.99999e-4 0.02454358 -0.01214402 -5.99999e-4 0.02393966 -0.01154011 -5.99999e-4 0.02371859 -0.01071518 -5.99999e-4 0.02393966 -0.009890139 -5.99999e-4 0.02454358 0.01214402 -5.99999e-4 0.02536863 0.01236516 -5.99999e-4 0.02619361 0.01214402 -5.99999e-4 0.02679753 0.01154011 -5.99999e-4 0.0270186 0.01071518 -5.99999e-4 0.02679753 0.009890079 -5.99999e-4 0.02619361 0.009286165 -5.99999e-4 0.02536863 0.009065032 -5.99999e-4 0.02454358 0.009286165 -5.99999e-4 0.02393966 0.009890079 -5.99999e-4 0.02371859 0.01071518 -5.99999e-4 0.02393966 0.01154011 -5.99999e-4 0.009390115 0.02729755 -5.99999e-4 0.0102151 0.02751857 -5.99999e-4 0.01104009 0.02729755 -5.99999e-4 0.01164406 0.02669364 -5.99999e-4 0.01186513 0.02586859 -5.99999e-4 0.01164406 0.02504366 -5.99999e-4 0.01104009 0.02443963 -5.99999e-4 0.0102151 0.02421861 -5.99999e-4 0.009390115 0.02443963 -5.99999e-4 0.008786141 0.02504366 -5.99999e-4 0.008565127 0.02586859 -5.99999e-4 0.008786141 0.02669364 -0.005499958 0.00149995 0.02800005 -0.005499958 0.001232028 0.02899998 -0.005499958 -0.002232015 0.02700001 -0.005499958 5e-4 0.02973204 -0.005499958 -5e-4 0.03000003 -0.005499958 -0.00149995 0.02973204 -0.005499958 -0.00149995 0.02626794 -0.005499958 -5e-4 0.02599996 -0.005499958 -0.002232015 0.02899998 -0.005499958 -0.002499997 0.02800005 -0.005499958 0.001232028 0.02700001 -0.005499958 5e-4 0.02626794 -4.99983e-4 0.0121088 0.02831989 -4.99983e-4 0.005945205 0.03032261 0 0.005841255 0.02983349 0 0.01779186 -0.02434688 0 0.01742744 -0.02467507 -4.99983e-4 0.01772129 -0.02507954 -4.99983e-4 -0.01310878 -0.02831989 -4.99983e-4 -0.006945252 -0.03032261 0 -0.006841301 -0.02983349 0 -0.01879185 0.02434688 0 -0.01842743 0.02467507 -4.99983e-4 -0.01872134 0.02507954 0 -0.0165655 0.02574998 -4.99983e-4 -0.01310878 0.02831989 0 -0.01290541 0.02786308 -4.99983e-4 -0.006945252 0.03032261 0 -0.02316588 0.02040845 -4.99983e-4 -0.02353745 0.02074307 0 -0.02470368 0.01829189 -4.99983e-4 -0.02734678 0.0155 0 -0.02691376 0.01525002 -4.99983e-4 -0.03133016 -0.003240406 0 -0.03083288 0 -4.99983e-4 -0.03133016 0.003240346 0 -0.03083288 0.003188014 -4.99983e-4 -0.02998274 0.00957942 0 -0.02950721 0.009424924 0 -0.02730929 0.01436156 -4.99983e-4 -0.02734678 -0.0155 0 -0.02730929 -0.01436156 -4.99983e-4 -0.02998274 -0.009579479 0 -0.02950721 -0.009424984 0 -0.03083288 -0.003188073 -4.99983e-4 -0.02353745 -0.02074307 0 -0.02470368 -0.01829189 0 -0.02691376 -0.01525002 -4.99983e-4 -0.01872134 -0.02507954 0 -0.01879185 -0.02434688 0 -0.02316588 -0.02040845 0 -0.01290541 -0.02786308 0 -0.01473069 -0.02680927 0 -0.01842743 -0.02467507 -4.99983e-4 0.005945205 -0.03032261 0 0.004732549 -0.02995008 -4.99983e-4 -5e-4 -0.03099995 0 -5e-4 -0.03049999 0 -0.005732536 -0.02995008 -4.99983e-4 0.0121088 -0.02831989 0 0.0137307 -0.02680927 0 0.01190543 -0.02786308 0 0.005841255 -0.02983349 0 0.02216589 -0.02040845 -4.99983e-4 0.02253746 -0.02074307 0 0.02370369 -0.01829189 -4.99983e-4 0.02634674 -0.0155 0 0.02591377 -0.01525002 -4.99983e-4 0.03033018 0.003240346 0 0.02983289 0 -4.99983e-4 0.03033018 -0.003240406 0 0.02983289 -0.003188073 -4.99983e-4 0.02898275 -0.009579479 0 0.02850717 -0.009424984 0 0.02630931 -0.01436156 -4.99983e-4 0.02634674 0.0155 0 0.02630931 0.01436156 -4.99983e-4 0.02898275 0.00957942 0 0.02850717 0.009424924 0 0.02983289 0.003188014 -4.99983e-4 0.02253746 0.02074307 0 0.02370369 0.01829189 0 0.02591377 0.01525002 -4.99983e-4 0.01772129 0.02507954 0 0.01779186 0.02434688 0 0.02216589 0.02040845 0 0.01190543 0.02786308 0 0.01556551 0.02574998 0 0.01742744 0.02467507 0 -0.006841301 0.02983349 0 -0.005732536 0.02995008 -4.99983e-4 -5e-4 0.03099995 0 -5e-4 0.03049999 0 0.004732549 0.02995008 0 -0.008965134 0.02586859 0 -0.009266555 0.02699357 0 -0.01009011 0.02781718 0 -0.01121509 0.02811866 0 -0.01234012 0.02781718 0 -0.01316368 0.02699357 0 -0.0134651 0.02586859 0 -0.01343333 0.02574998 0 -0.01316368 0.02474361 0 -0.01234012 0.02392011 0 -0.01121509 0.02361863 0 -0.01009011 0.02392011 0 -0.009266555 0.02474361 0 -0.008996903 0.02574998 0 -0.02749359 0.01266366 0 -0.02831715 0.01184016 0 -0.02861857 0.01071518 0 -0.02831715 0.009590029 0 -0.02749359 0.008766531 0 -0.02730929 0.008717179 0 -0.02636861 0.008465051 0 -0.02524358 0.008766531 0 -0.02442002 0.009590029 0 -0.0241186 0.01071518 0 -0.02442002 0.01184016 0 -0.02524358 0.01266366 0 -0.02636861 0.01296514 0 -0.02730929 0.01271313 0 -0.02749359 -0.008766591 0 -0.02831715 -0.009590089 0 -0.02861857 -0.01071518 0 -0.02831715 -0.01184016 0 -0.02749359 -0.01266366 0 -0.02730929 -0.01271313 0 -0.02636861 -0.01296514 0 -0.02524358 -0.01266366 0 -0.02442002 -0.01184016 0 -0.0241186 -0.01071518 0 -0.02442002 -0.009590089 0 -0.02524358 -0.008766591 0 -0.02636861 -0.008465111 0 -0.02730929 -0.008717238 0 -0.009217143 -0.02680927 0 -0.008965134 -0.02586859 0 -0.009266555 -0.02474361 0 -0.01009011 -0.02392011 0 -0.01121509 -0.02361863 0 -0.01234012 -0.02392011 0 -0.01316368 -0.02474361 0 -0.0134651 -0.02586859 0 -0.01321303 -0.02680927 0 -0.01316368 -0.02699357 0 -0.01234012 -0.02781718 0 -0.01121509 -0.02811866 0 -0.01009011 -0.02781718 0 -0.009266555 -0.02699357 0 0.01221305 -0.02680927 0 0.01246511 -0.02586859 0 0.01216363 -0.02474361 0 0.01134008 -0.02392011 0 0.0102151 -0.02361863 0 0.009090125 -0.02392011 0 0.008266568 -0.02474361 0 0.007965087 -0.02586859 0 0.008217155 -0.02680927 0 0.008266568 -0.02699357 0 0.009090125 -0.02781718 0 0.0102151 -0.02811866 0 0.01134008 -0.02781718 0 0.01216363 -0.02699357 0 0.0264936 -0.01266366 0 0.02731716 -0.01184016 0 0.02761858 -0.01071518 0 0.02731716 -0.009590089 0 0.0264936 -0.008766591 0 0.02630931 -0.008717238 0 0.02536863 -0.008465111 0 0.02424359 -0.008766591 0 0.02342003 -0.009590089 0 0.02311861 -0.01071518 0 0.02342003 -0.01184016 0 0.02424359 -0.01266366 0 0.02536863 -0.01296514 0 0.02630931 -0.01271313 0 0.0264936 0.008766531 0 0.02731716 0.009590029 0 0.02761858 0.01071518 0 0.02731716 0.01184016 0 0.0264936 0.01266366 0 0.02630931 0.01271313 0 0.02536863 0.01296514 0 0.02424359 0.01266366 0 0.02342003 0.01184016 0 0.02311861 0.01071518 0 0.02342003 0.009590029 0 0.02424359 0.008766531 0 0.02536863 0.008465051 0 0.02630931 0.008717179 0 0.01246511 0.02586859 0 0.01216363 0.02699357 0 0.01134008 0.02781718 0 0.0102151 0.02811866 0 0.009090125 0.02781718 0 0.008266568 0.02699357 0 0.007965087 0.02586859 0 0.007996916 0.02574998 0 0.008266568 0.02474361 0 0.009090125 0.02392011 0 0.0102151 0.02361863 0 0.01134008 0.02392011 0 0.01216363 0.02474361 0 0.01243335 0.02574998 0 -5e-4 0.02599996 0 5e-4 0.02626794 0 0.001232028 0.02700001 0 0.00149995 0.02800005 0 0.001232028 0.02899998 0 5e-4 0.02973204 0 -5e-4 0.03000003 0 -0.00149995 0.02973204 0 -0.002232015 0.02899998 0 -0.002499997 0.02800005 0 -0.002232015 0.02700001 0 -0.00149995 0.02626794 -0.005499958 -5e-4 0.03099995 -0.005499958 -0.006945252 0.03032261 -0.005499958 -0.01310878 0.02831989 -0.005499958 -0.01872134 0.02507954 -0.005499958 -0.02353745 0.02074307 -0.005499958 -0.02734678 0.0155 -0.005499958 -0.02998274 0.00957942 -0.005499958 -0.03133016 0.003240346 -0.005499958 -0.03133016 -0.003240406 -0.005499958 -0.02998274 -0.009579479 -0.005499958 -0.02734678 -0.0155 -0.005499958 -0.02353745 -0.02074307 -0.005499958 -0.01872134 -0.02507954 -0.005499958 -0.01310878 -0.02831989 -0.005499958 -0.006945252 -0.03032261 -0.005499958 -5e-4 -0.03099995 -0.005499958 0.005945205 -0.03032261 -0.005499958 0.0121088 -0.02831989 -0.005499958 0.01772129 -0.02507954 -0.005499958 0.02253746 -0.02074307 -0.005499958 0.02634674 -0.0155 -0.005499958 0.02898275 -0.009579479 -0.005499958 0.03033018 -0.003240406 -0.005499958 0.03033018 0.003240346 -0.005499958 0.02898275 0.00957942 -0.005499958 0.02634674 0.0155 -0.005499958 0.02253746 0.02074307 -0.005499958 0.01772129 0.02507954 -0.005499958 0.0121088 0.02831989 -0.005499958 0.005945205 0.03032261 0 -0.01879185 -0.01751941 0 -0.01879185 -0.01829189 0 -0.01806306 -0.01829189 0 0.00246036 0.02532762 0 0.004732549 0.02478903 0 0.004732549 0.02574998 0 -0.005732536 -0.02680927 0 0.004732549 -0.02680927 0 -0.005732536 0.02574998 0 0.01779186 0.01829189 0 0.008221507 0.02396219 0 0.01351243 0.0213049 0 0.02630931 0 0 0.02495682 0.001482605 0 0.02487045 0 0 0.01710325 0.01829189 0 0.01779186 0.01771408 0 0.01804798 0.01749914 0 0.0239287 0.00731337 0 0.02158361 0.01274996 0 0.01779186 -0.01829189 0 0.01995414 -0.01522749 0 0.02291446 -0.01010006 0 0.02461254 -0.004427969 0 0.00538069 -0.02481263 0 0.004732549 -0.02488845 0 0.01779186 -0.01751941 0 0.01706308 -0.01829189 0 0.01589107 -0.01953417 0 0.01094436 -0.02278763 0 -0.006380677 -0.02481263 0 -0.01194435 -0.02278763 0 -0.005732536 -0.02488845 0 -5e-4 -0.02549999 0 -0.01689106 -0.01953417 0 -0.02730929 0 0 -0.02095413 -0.01522749 0 -0.0258705 0 0 -0.02561259 -0.004427969 0 -0.02391451 -0.01010006 0 -0.01879185 0.01829189 0 -0.0225836 0.01274996 0 -0.01904797 0.01749914 0 -0.01879185 0.01771408 0 -0.0181033 0.01829189 0 -0.02492868 0.00731337 0 -0.0259568 0.001482605 0 -0.01451247 0.0213049 0 -0.009221494 0.02396219 0 -0.005732536 0.02478903 0 -0.003460347 0.02532762 -0.005499958 0.03431391 0.0392968 -0.005499958 0.02755945 0.04437249 -0.005499958 0.02007824 0.04829889 -0.005499958 0.01612502 -0.04979819 -0.005499958 0.02389794 -0.04648643 -0.005499958 0.03103893 -0.04197078 -0.005499958 -0.01712507 -0.04979819 -0.005499958 -0.008921563 -0.05182009 -0.005499958 -5e-4 -0.05249994 -0.005499958 0.007921576 -0.05182009 -0.005499958 0.01206403 0.05097442 -0.005499958 0.003724455 0.05232971 -0.005499958 -0.004724442 0.05232971 -0.005499958 -0.01306402 0.05097442 -0.005499958 -0.02107822 0.04829889 -0.005499958 -0.02855944 0.04437249 -0.005499958 -0.0353139 0.0392968 -0.005499958 -0.04116672 0.03320342 -0.005499958 -0.04596632 0.02624994 -0.005499958 -0.04370665 -0.02982336 -0.005499958 -0.03836309 -0.03636807 -0.005499958 -0.03203892 -0.04197078 -0.005499958 -0.02489793 -0.04648643 -0.005499958 -0.04958832 0.01861673 -0.005499958 -0.05193901 0.01050132 -0.005499958 -0.05295741 0.002113938 -0.005499958 -0.05261719 -0.006328165 -0.005499958 -0.05092716 -0.01460641 -0.005499958 -0.04793113 -0.02250641 -0.005499958 0.05093896 0.01050132 -0.005499958 0.04858833 0.01861673 -0.005499958 0.04496628 0.02624994 -0.005499958 0.04016673 0.03320342 -0.005499958 0.03736311 -0.03636807 -0.005499958 0.0427066 -0.02982336 -0.005499958 0.04693114 -0.02250641 -0.005499958 0.04992717 -0.01460641 -0.005499958 0.0516172 -0.006328165 -0.005499958 0.05195736 0.002113938 -4.99983e-4 -0.003382682 -0.02466303 -4.99983e-4 -0.006265342 -0.02432614 -4.99983e-4 -0.008992671 -0.02333348 -4.99983e-4 -0.01171994 -0.02234083 -4.99983e-4 -0.01414483 -0.02074593 -4.99983e-4 -0.01656967 -0.01915115 -4.99983e-4 -0.01856136 -0.01704007 -4.99983e-4 -0.02200424 -0.01241546 -4.99983e-4 -0.02055305 -0.01492899 -4.99983e-4 -0.02345538 -0.00990194 -4.99983e-4 -0.02428776 -0.007121622 -4.99983e-4 -0.02512019 -0.004341185 -4.99983e-4 -0.02330017 0.009835004 -4.99983e-4 -0.02528893 -0.001443803 -4.99983e-4 -0.02545768 0.001453518 -4.99983e-4 -0.02495372 0.0043118 -4.99983e-4 -0.0244497 0.007170081 -4.99983e-4 -0.01868432 0.01715606 -4.99983e-4 -0.01646101 0.01902157 -4.99983e-4 -0.02215063 0.01249998 -4.99983e-4 -0.02041745 0.01482802 -4.99983e-4 -0.0142377 0.02088719 -4.99983e-4 -0.01164406 0.02218979 -4.99983e-4 -0.009050488 0.02349227 -4.99983e-4 -0.00622636 0.02416163 -4.99983e-4 -0.003402292 0.02483099 -4.99983e-4 -5e-4 0.02483099 -4.99983e-4 0.002402305 0.02483099 -4.99983e-4 0.005226373 0.02416163 -4.99983e-4 0.01768434 0.01715606 -4.99983e-4 0.008050501 0.02349227 -4.99983e-4 0.01064407 0.02218979 -4.99983e-4 0.01323771 0.02088719 -4.99983e-4 0.01546102 0.01902157 -4.99983e-4 0.01941746 0.01482802 -4.99983e-4 0.02115058 0.01249998 -4.99983e-4 0.02230018 0.009835004 -4.99983e-4 0.02344971 0.007170081 -4.99983e-4 0.02395367 0.0043118 -4.99983e-4 0.02445769 0.001453518 -4.99983e-4 0.02428895 -0.001443803 -4.99983e-4 0.02412015 -0.004341185 -4.99983e-4 0.02328777 -0.007121622 -4.99983e-4 0.02245539 -0.00990194 -4.99983e-4 0.02100419 -0.01241546 -4.99983e-4 0.01955306 -0.01492899 -4.99983e-4 0.01756137 -0.01704007 -4.99983e-4 0.01556968 -0.01915115 -4.99983e-4 0.01314479 -0.02074593 -4.99983e-4 0.01071995 -0.02234083 -4.99983e-4 0.007992684 -0.02333348 -4.99983e-4 0.005265355 -0.02432614 -4.99983e-4 0.002382695 -0.02466303 -4.99983e-4 -5e-4 -0.02500003 -0.01249998 0.007921576 -0.05182009 -0.01249998 -5e-4 -0.05249994 -0.01249998 -0.008921563 -0.05182009 -0.01249998 -0.01712507 -0.04979819 -0.01249998 -0.02489793 -0.04648643 -0.01249998 -0.03203892 -0.04197078 -0.01249998 -0.03836309 -0.03636807 -0.01249998 -0.04370665 -0.02982336 -0.01249998 -0.04793113 -0.02250641 -0.01249998 -0.05092716 -0.01460641 -0.01249998 -0.05261719 -0.006328165 -0.01249998 -0.05295741 0.002113938 -0.01249998 -0.05193901 0.01050132 -0.01249998 -0.04958832 0.01861673 -0.01249998 -0.04596632 0.02624994 -0.01249998 -0.04116672 0.03320342 -0.01249998 -0.0353139 0.0392968 -0.01249998 -0.02855944 0.04437249 -0.01249998 -0.02107822 0.04829889 -0.01249998 -0.01306402 0.05097442 -0.01249998 -0.004724442 0.05232971 -0.01249998 0.003724455 0.05232971 -0.01249998 0.01206403 0.05097442 -0.01249998 0.02007824 0.04829889 -0.01249998 0.02755945 0.04437249 -0.01249998 0.03431391 0.0392968 -0.01249998 0.04016673 0.03320342 -0.01249998 0.04496628 0.02624994 -0.01249998 0.04858833 0.01861673 -0.01249998 0.05093896 0.01050132 -0.01249998 0.05195736 0.002113938 -0.01249998 0.0516172 -0.006328165 -0.01249998 0.04992717 -0.01460641 -0.01249998 0.04693114 -0.02250641 -0.01249998 0.0427066 -0.02982336 -0.01249998 0.03736311 -0.03636807 -0.01249998 0.03103893 -0.04197078 -0.01249998 0.02389794 -0.04648643 -0.01249998 0.01612502 -0.04979819 -0.01249998 -5e-4 0.02500003 -0.01249998 0.005265355 0.02432614 -0.01249998 0.01071995 0.02234083 -0.01249998 0.01556968 0.01915115 -0.01249998 0.01955306 0.01492899 -0.01249998 0.02245539 0.009901881 -0.01249998 0.02412015 0.004341125 -0.01249998 0.02445769 -0.001453578 -0.01249998 0.02344971 -0.007170021 -0.01249998 0.02115058 -0.01249998 -0.01249998 0.01768434 -0.01715606 -0.01249998 0.01323771 -0.02088719 -0.01249998 0.008050501 -0.02349227 -0.01249998 0.002402305 -0.02483099 -0.01249998 -0.003402292 -0.02483099 -0.01249998 -0.009050488 -0.02349227 -0.01249998 -0.0142377 -0.02088719 -0.01249998 -0.01868432 -0.01715606 -0.01249998 -0.02215063 -0.01249998 -0.01249998 -0.0244497 -0.007170021 -0.01249998 -0.02545768 -0.001453578 -0.01249998 -0.02512019 0.004341125 -0.01249998 -0.02345538 0.009901881 -0.01249998 -0.02055305 0.01492899 -0.01249998 -0.01656967 0.01915115 -0.01249998 -0.01171994 0.02234083 -0.01249998 -0.006265342 0.02432614</float_array>
          <technique_common>
            <accessor source="#Link6-mesh-positions-array" count="650" stride="3">
              <param name="X" type="float"/>
              <param name="Y" type="float"/>
              <param name="Z" type="float"/>
            </accessor>
          </technique_common>
        </source>
        <source id="Link6-mesh-normals">
          <float_array id="Link6-mesh-normals-array" count="2475">1 0 0 1 0 0 1 3.85751e-7 0 1 1.24699e-6 0 1 -3.8575e-7 0 1 1.24699e-6 0 1 -1.24698e-6 0 1 -3.85738e-7 0 1 -3.85752e-7 0 1 -3.8575e-7 0 1 1.05394e-6 0 1 -7.715e-7 0 1 0 0 1 3.85734e-7 0 1 3.85735e-7 0 1 1.24698e-6 0 1 1.05394e-6 0 1 -1.24699e-6 0 1 1.24698e-6 0 1 3.8575e-7 0 0 0.2587707 -0.9659389 0 -0.2587707 -0.9659389 0 -0.2587711 -0.9659387 0 -0.7070901 -0.7071235 0 -0.707091 -0.7071226 0 -0.9659292 -0.2588066 0 -0.9659301 -0.2588034 0 -0.9659207 0.2588382 0 -0.9659199 0.2588415 0 -0.7071608 0.7070528 0 -0.7071599 0.7070537 0 -0.2587711 0.9659387 0 -0.2587707 0.9659389 0 0.2587707 0.9659389 0 0.2587711 0.9659387 0 0.7071616 0.7070519 0 0.7071599 0.7070537 0 0.9659199 0.2588415 0 0.9659292 -0.2588066 0 0.7070901 -0.7071235 0 0.7070919 -0.7071217 0 0.2587711 -0.9659387 0 0.2589023 -0.9659035 0 -0.2589005 -0.965904 0 -0.7070901 -0.7071235 0 -0.9659217 -0.258835 0 -0.9659207 -0.2588382 0 -0.9659301 0.2588034 0 -0.965931 0.2588001 0 -0.7070901 0.7071235 0 -0.7070901 0.7071235 0 -0.2589005 0.965904 0 0.2589023 0.9659035 0 0.2589005 0.965904 0 0.7070935 0.70712 0 0.7070866 0.7071269 0 0.965931 0.2588001 0 0.9659292 0.2588066 0 0.9659199 -0.2588415 0 0.9659217 -0.258835 0 0.7070866 -0.707127 0 0.7070936 -0.70712 0 0.2589005 -0.965904 0 -0.965931 -0.2588001 0 -0.9659217 0.258835 0 0.9659217 0.258835 0 0.965931 -0.2588001 0 -0.7071599 -0.7070537 0 -0.7071608 -0.7070528 0 -0.9659199 -0.2588415 0 -0.9659292 0.2588066 0 -0.707091 0.7071226 0 0.7070918 0.7071218 0 0.7070901 0.7071235 0 0.7071599 -0.7070537 0 0.7071616 -0.7070519 0 0.7070901 0.7071235 0 0.9659296 0.2588049 0 0.9659301 0.2588034 0 0.9659207 -0.2588382 0 0.9659203 -0.2588399 0 -0.2589023 -0.9659035 0 -0.2589023 0.9659035 0 0.7070919 0.7071217 0 0.9659207 0.2588382 0 0.9659301 -0.2588034 0 0.7070918 -0.7071218 0 0.9659203 0.2588399 0 0.9659296 -0.2588049 0 0.7070901 -0.7071235 1 -1.69717e-6 0 1 3.10577e-7 0 1 8.48585e-7 0 1 -8.48579e-7 0 0.7052158 0.2190956 0.6742906 0.705168 0.4744784 -0.5268857 0.7052161 -0.2190956 -0.6742902 0.705166 -0.4744771 0.5268895 0.7051673 -0.354503 0.6140577 0.7052038 -0.3544994 0.6140178 0.7052108 -0.3544948 0.6140125 0.7052133 -0.2190965 0.6742929 0.7051947 -0.4744254 0.5268976 0.7052174 -0.4744077 0.5268832 0.7052109 -0.5735868 0.4167442 0.705191 -0.5736077 0.4167492 0.7051804 -0.5736147 0.4167575 0.7051877 -0.7090206 0 0.7051878 -0.7090206 0 0.7051978 -0.6935167 0.1474136 0.7051853 -0.6935293 0.1474141 0.7051836 -0.6477273 0.2883841 0.7052046 -0.6477074 0.288378 0.7051811 -0.6477373 0.2883678 0.7052017 -0.6477109 -0.2883768 0.7051834 -0.6477265 -0.2883865 0.7051857 -0.6935285 -0.1474161 0.705198 -0.6935169 -0.1474114 0.7051903 -0.5736083 -0.4167497 0.7051811 -0.5736142 -0.4167571 0.7051811 -0.6477373 -0.2883678 0.705195 -0.4744225 -0.5268998 0.7052176 -0.4744101 -0.5268806 0.7052119 -0.573586 -0.4167436 0.7052146 -0.2190958 -0.6742919 0.7052109 -0.3544953 -0.6140121 0.7052102 -0.3544962 -0.6140123 0.7051694 -0.3545083 -0.6140522 0.7051673 -0.4744761 -0.5268885 0.7051696 0.07410633 -0.7051553 0.7051611 0.0741086 -0.7051636 0.7051633 -0.07410699 -0.7051616 0.705169 -0.07410776 -0.7051558 0.7052137 -0.0741437 -0.7051073 0.7051671 0.3545178 -0.6140494 0.7052299 0.354478 -0.6140001 0.7052114 0.3544955 -0.6140113 0.7052133 0.2190965 -0.6742931 0.7052167 0.219095 -0.6742898 0.7052193 0.07414335 -0.7051019 0.7051929 0.4744266 -0.5268989 0.7052171 0.4744074 -0.5268837 0.7052115 0.5735872 -0.4167426 0.705191 0.5736077 -0.4167492 0.7051809 0.573614 -0.4167577 0.7051877 0.7090206 0 0.7051979 0.6935167 -0.1474128 0.7051867 0.693528 -0.1474138 0.7051848 0.6477262 -0.2883836 0.7052044 0.6477072 -0.2883788 0.7051817 0.6477379 -0.2883654 0.7052008 0.6477116 0.2883775 0.7051848 0.6477252 0.2883864 0.705187 0.6935274 0.1474155 0.7051977 0.6935173 0.1474111 0.7051878 0.7090206 0 0.7051903 0.5736083 0.4167497 0.7051809 0.573614 0.4167577 0.7051817 0.6477379 0.2883654 0.7051963 0.4744213 0.5268991 0.7052176 0.4744101 0.5268806 0.7052115 0.5735872 0.4167426 0.7052147 0.2190957 0.6742917 0.7052109 0.3544948 0.6140123 0.7052055 0.3544987 0.6140162 0.7051673 0.354503 0.6140577 0.7051666 0.4744792 0.5268867 0.7052132 -0.2190962 0.6742932 0.7052184 -0.07414323 0.7051028 0.7051665 -0.07410669 0.7051584 0.7051651 -0.07410818 0.7051597 0.7051601 0.07410734 0.7051648 0.7051729 0.07410734 0.705152 0.7052193 0.07414335 0.7051019 0.6947612 -0.6947353 -0.1861446 0.6947484 -0.6947442 -0.1861593 0.6947258 -0.5085928 -0.5086153 0.6947634 -0.5085967 -0.50856 0.6947667 -0.1861169 -0.6947373 0.6948124 -0.1861619 -0.6946794 0.6948248 0.1861024 -0.6946831 0.6947702 0.1861727 -0.6947187 0.6947689 0.5085628 -0.5085864 0.6947305 0.5086191 -0.5085825 0.694747 0.6947492 -0.1861457 0.6947578 0.6947351 -0.1861578 0.6947468 0.6947383 0.1861871 0.6947545 0.6947355 0.186169 0.6947665 0.694728 0.1861526 0.6947876 0.5086001 0.5085235 0.6947178 0.508591 0.508628 0.6946926 0.1861354 0.6948063 0.6947431 0.1861795 0.6947441 0.6947508 -0.1861209 0.694752 0.6947 -0.18619 0.6947843 0.6947068 -0.508656 0.508578 0.6947779 -0.50855 0.508587 0.6947683 -0.6947224 0.1861668 0.6947562 -0.6947376 0.1861552 0.6947468 -0.6947383 0.1861871 0.6947678 0.508561 -0.5085898 0.6947776 0.5085526 -0.5085849 0.6947681 0.6947215 -0.1861703 0.6947576 0.6947358 -0.1861562 0.6947589 0.6947382 0.1861428 0.6947638 0.694734 0.1861397 0.6947786 0.5085586 0.5085772 0.6947691 0.5085546 0.5085944 0.6947563 0.186036 0.6947692 0.6947476 0.1862156 0.6947298 0.6947397 0.1862081 0.6947397 0.6947391 -0.1862179 0.6947378 0.6947717 -0.1861721 0.6947174 0.694767 -0.5085628 0.508589 0.6947767 -0.5085512 0.5085873 0.6947642 -0.6947325 0.1861438 0.6947609 -0.6947372 0.1861387 0.6947568 -0.6947327 -0.1861708 0.6947668 -0.6947267 -0.1861556 0.6947782 -0.5085564 -0.5085802 0.6947688 -0.5085557 -0.5085937 0.6947793 -0.1862084 -0.6947001 0.6947427 -0.1861789 -0.6947446 0.6947384 0.186218 -0.6947384 0.6948218 0.1861054 -0.6946852 0.6948142 0.1864408 -0.6946029 0.6947671 0.5085614 -0.5085902 0.694777 0.5085529 -0.5085852 0.6947645 0.6947315 -0.1861461 0.6947599 0.6947386 -0.1861371 0.6947558 0.6947342 0.1861686 0.6947666 0.6947265 0.1861574 0.6947688 0.5085548 0.5085945 0.6948157 0.1864404 0.6946015 0.6948189 0.1861978 0.6946632 0.6947512 0.1861231 0.6947512 0.6947397 -0.1862177 0.6947371 0.6947727 -0.1861718 0.6947165 0.6947677 -0.5085623 0.5085886 0.6947762 -0.5085515 0.5085877 0.694768 -0.6947222 0.186168 0.6947581 -0.6947348 0.1861578 0.6947599 -0.6947365 -0.1861449 0.6947638 -0.6947345 -0.1861379 0.6947479 0.1862061 -0.6947322 0.6947563 0.186036 -0.6947692 0.6947495 -0.6947466 0.1861463 0.6947566 -0.6947367 0.1861566 0.6947672 -0.6947266 -0.1861546 0.694788 -0.5086004 -0.5085226 0.6947178 -0.508591 -0.508628 0.69469 -0.1861361 -0.6948087 0.6947446 -0.1861789 -0.6947427 0.6947508 0.1861209 -0.694752 0.6947005 0.1861901 -0.6947838 0.6947064 0.5086556 -0.508579 0.6947759 0.5085513 -0.5085883 0.6947684 0.6947225 -0.1861655 0.6947584 0.6947346 -0.1861577 0.6947516 0.6947417 0.1861569 0.6947489 0.6947399 0.186173 0.6947253 0.5085924 0.5086162 0.6947615 0.508598 0.5085613 0.6947667 0.1861169 0.6947373 0.6948128 0.1861621 0.694679 0.6948221 -0.1861031 0.6946855 0.6947736 -0.1861716 0.6947156 0.6947694 -0.5085631 0.5085855 0.6947324 -0.5086178 0.5085812 0.6947526 -0.6947379 0.1861668 0.6947568 -0.6947368 0.1861556 0.6947569 -0.6947329 -0.1861695 0.6947876 -0.5086001 -0.5085235 0.6947158 -0.5085923 -0.5086293 0.6946926 -0.1861354 -0.6948063 0.6947431 -0.1861795 -0.6947441 0.6947 0.18619 -0.6947843 0.6947082 0.5086551 -0.5085772 0.6947683 0.6947224 -0.1861668 0.6947585 0.6947378 0.1861453 0.6947492 0.6947438 0.1861575 0.6947497 0.6947407 0.1861675 0.694728 0.5085906 0.5086144 0.6947618 0.5085982 0.5085607 0.6948163 0.1861609 0.6946759 0.6947702 -0.1861727 0.6947187 0.6947689 -0.5085628 0.5085864 0.6947497 -0.6947407 0.1861675 0.6947711 -0.5085638 0.5085824 0.6947759 -0.5085499 0.5085898 0.69477 -0.6947209 0.1861651 0.6947574 -0.694736 0.1861562 0.6947602 -0.6947369 -0.1861425 0.6947647 -0.694734 -0.186136 0.6947711 -0.5085551 -0.5085911 0.6947453 -0.186033 -0.694781 0.6947501 -0.1862164 -0.6947271 0.6947376 -0.1862075 -0.694742 0.6947378 0.1862175 -0.6947391 0.6947717 0.1861721 -0.6947174 0.6947694 0.508565 -0.5085836 0.6947772 0.5085509 -0.508587 0.6947658 0.6947309 -0.1861434 0.6947609 0.6947372 -0.1861387 0.6947568 0.6947327 0.1861708 0.6947678 0.6947258 0.1861553 0.6947695 0.5085562 0.5085923 0.6947768 0.1862077 0.6947028 0.6947436 0.1861792 0.6947436 0.6947384 -0.186218 0.6947384 0.6948218 -0.1861054 0.6946852 0.6948047 -0.1864374 0.6946133 0.6947707 -0.5085641 0.5085827 0.6947763 -0.5085496 0.5085894 0.6947662 -0.6947314 0.186141 0.6947599 -0.6947386 0.1861371 0.6947558 -0.6947342 -0.1861686 0.6947673 -0.6947267 -0.1861537 0.6947795 -0.5085555 -0.5085793 0.6948032 -0.1864378 -0.6946147 0.6948201 -0.1861988 -0.6946619 0.6947501 -0.1861222 -0.6947524 0.6947385 0.1862174 -0.6947385 0.6947782 0.5085502 -0.5085864 0.6947688 0.6947216 -0.1861678 0.6947586 0.6947344 -0.1861577 0.6947599 0.6947365 0.1861449 0.694765 0.6947334 0.1861376 0.69478 0.5085577 0.5085763 0.6947709 0.5085552 0.5085913 0.6947479 -0.1862061 0.6947322 0.6947453 -0.186033 0.694781 0.6947613 -0.6947355 -0.1861433 0.6947474 -0.6947451 -0.1861596 0.6947253 -0.5085924 -0.5086162 0.6948128 -0.1861621 -0.694679 0.6947697 0.1861726 -0.6947192 0.6947694 0.5085631 -0.5085855 0.6947456 0.6947503 -0.1861473 0.6947571 0.694733 0.1861683 0.6947663 0.6947278 0.1861535 0.694785 0.5086019 0.5085253 0.6947181 0.5085912 0.5086274 0.6947426 0.1861793 0.6947445 0.6947005 -0.1861901 0.6947838 0.6947064 -0.5086556 0.508579 0.6947759 -0.5085513 0.5085883 0.6947563 -0.6947377 0.1861541 0 0.258849 0.9659179 0 -0.258849 0.9659179 0 -0.7071133 0.7071004 0 -0.7071133 0.7071003 0 -0.9659289 0.2588078 0 -0.965929 0.2588077 0 -0.9659212 -0.2588365 0 -0.9659211 -0.2588366 0 -0.7071134 -0.7071002 0 -0.7071132 -0.7071004 0 -0.258849 -0.9659179 0 0.258849 -0.9659179 0 0.2588491 -0.9659179 0 0.7071133 -0.7071003 0 0.7071133 -0.7071003 0 0.9659211 -0.2588368 0 0.9659212 -0.2588365 0 0.965929 0.2588077 0 0.9659289 0.258808 0 0.7071133 0.7071003 0 0.7071133 0.7071003 0 0.2588491 0.9659179 0 0.1045166 0.9945232 0 -0.1045166 0.9945232 0 -0.309024 0.9510543 0 -0.3090239 0.9510543 0 -0.499996 0.8660277 0 -0.4999959 0.8660278 0 -0.6691305 0.743145 0 -0.6691303 0.7431452 0 -0.8090179 0.5877841 0 -0.8090177 0.5877844 0 -0.9135472 0.4067329 0 -0.9135469 0.4067336 0 -0.9781472 0.2079139 0 -0.9781472 0.207914 0 -1 0 0 -0.9781472 -0.2079139 0 -0.9135469 -0.4067336 0 -0.9135472 -0.4067328 0 -0.8090177 -0.5877844 0 -0.8090179 -0.5877841 0 -0.6691303 -0.7431452 0 -0.6691305 -0.7431451 0 -0.4999958 -0.8660279 0 -0.4999961 -0.8660278 0 -0.3090239 -0.9510543 0 -0.309024 -0.9510543 0 -0.1045166 -0.9945232 0 0.1045166 -0.9945232 0 0.1045166 -0.9945232 0 0.309024 -0.9510543 0 0.3090239 -0.9510543 0 0.499996 -0.8660277 0 0.4999959 -0.8660278 0 0.6691305 -0.743145 0 0.6691303 -0.7431452 0 0.8090179 -0.5877841 0 0.8090177 -0.5877844 0 0.9135472 -0.4067329 0 0.9135466 -0.4067343 0 0.9781474 -0.2079131 0 0.9781472 -0.2079139 0 1 0 0 0.9781472 0.2079139 0 0.9781474 0.2079131 0 0.9135466 0.4067344 0 0.9135472 0.4067328 0 0.8090177 0.5877844 0 0.8090179 0.5877841 0 0.6691303 0.7431452 0 0.6691305 0.7431451 0 0.4999958 0.8660279 0 0.4999961 0.8660278 0 0.3090239 0.9510543 0 0.309024 0.9510543 0 0.1045166 0.9945232 1 0 0 1 0 0 1 0 0 1 0 0 1 0 0 1 0 0 1 0 0 1 0 0 1 0 0 1 0 0 1 0 0 1 0 0 1 0 0 1 0 0 1 0 0 1 0 0 1 0 0 1 0 0 1 0 0 1 0 0 1 0 0 1 0 0 1 0 0 1 0 0 1 0 0 1 0 0 1 0 0 1 0 0 1 0 0 1 0 0 1 0 0 1 0 0 1 0 0 1 0 0 1 0 0 1 0 0 1 0 0 1 0 0 1 0 0 1 0 0 1 0 0 1 0 0 1 0 0 1 0 0 1 0 0 1 0 0 1 0 0 1 0 0 1 0 0 1 0 0 1 0 0 1 0 0 1 0 0 1 0 0 1 0 0 1 0 0 1 0 0 1 0 0 1 0 0 1 0 0 1 0 0 1 0 0 1 0 0 1 0 0 1 0 0 1 0 0 1 0 0 1 0 0 1 0 0 1 0 0 1 0 0 1 0 0 1 0 0 1 0 0 1 0 0 1 0 0 1 0 0 1 0 0 1 0 0 1 0 0 1 0 0 1 0 0 1 0 0 1 0 0 1 0 0 1 0 0 1 0 0 1 0 0 1 0 0 1 0 0 1 0 0 1 0 0 1 0 0 1 0 0 1 0 0 1 0 0 1 0 0 1 0 0 1 0 0 1 0 0 1 0 0 1 0 0 1 0 0 1 0 0 1 0 0 1 0 0 1 0 0 1 0 0 1 0 0 1 0 0 1 0 0 1 0 0 1 0 0 1 0 0 1 0 0 1 0 0 1 0 0 1 0 0 1 0 0 1 0 0 1 0 0 1 0 0 0.7047713 0.08235287 0.7046386 0.7047601 0.0823487 0.7046502 0.7047122 0.08243221 0.7046884 0.7047091 0.2426627 0.6667082 0.7047131 0.2426603 0.6667049 0.7047181 0.2426595 0.6666999 0.7047185 0.3898779 0.5927622 0.7047574 0.389845 0.5927377 0.7047281 0.3898522 0.5927678 0.704728 0.5160607 0.4868675 0.7047157 0.5160644 0.4868813 0.7047169 0.5160644 0.4868797 0.7047313 0.6144205 0.3547412 0.704715 0.5160709 0.4868755 0.7046891 0.516084 0.486899 0.7047011 0.6144515 0.3547475 0.7047613 0.6143994 0.3547183 0.7047479 0.6796519 0.2034795 0.7047231 0.6796776 0.2034793 0.7047226 0.6796783 0.2034787 0.704729 0.7082764 0.04125189 0.7047119 0.6514688 -0.2810154 0.7047254 0.7082799 0.04125332 0.7047254 0.7082798 0.04125332 0.7047286 0.7082766 0.04125493 0.7047312 0.6986963 -0.123197 0.7047233 0.6987036 -0.123201 0.7047154 0.6987119 -0.1231989 0.7046976 0.6514802 -0.2810246 0.7047358 0.4560278 -0.5434943 0.7047524 0.4560241 -0.543476 0.7047249 0.6514554 -0.2810139 0.7047218 0.5690951 -0.4236721 0.7047188 0.5690964 -0.4236753 0.7047138 0.5691015 -0.4236769 0.7047084 0.456058 -0.5435045 0.7047097 0.4560654 -0.5434966 0.7047107 0.4560614 -0.5434988 0.7047088 0.3184294 -0.6340256 0.7047041 0.3184304 -0.6340302 0.7047815 0.3183736 -0.6339727 0.7047802 0.1635937 -0.6903058 0.704708 0.1636303 -0.6903707 0.7047036 0.1636416 -0.6903726 0.7047334 0.1636244 -0.6903463 0.7047342 0 -0.7094715 0.7047359 0 -0.7094697 0.7047324 -0.1636349 -0.6903448 0.704708 -0.1636303 -0.6903707 0.7047221 -0.163607 -0.690362 0.7047086 -0.4560648 -0.5434986 0.7047806 -0.1636137 -0.6903007 0.7047815 -0.3183736 -0.6339727 0.7047041 -0.3184304 -0.6340302 0.7047088 -0.3184294 -0.6340256 0.7047125 -0.4560496 -0.5435064 0.7047752 -0.4560202 -0.5434497 0.7047362 -0.4560281 -0.5434937 0.7047118 -0.4560596 -0.5434987 0.7047144 -0.5691006 -0.4236771 0.7047179 -0.5690971 -0.4236758 0.7047222 -0.5690948 -0.4236719 0.7047249 -0.6514554 -0.2810139 0.7047115 -0.6514693 -0.2810152 0.7046974 -0.65148 -0.2810255 0.7047154 -0.6987119 -0.1231989 0.7047232 -0.6987035 -0.1232014 0.7047314 -0.6986964 -0.1231952 0.7047287 -0.7082767 0.04125148 0.7047268 -0.7082786 0.0412532 0.7047275 -0.7082778 0.04125255 0.704729 -0.7082763 0.04125308 0.7047224 -0.6796782 0.2034795 0.7047232 -0.6796778 0.2034785 0.7047465 -0.6796531 0.2034798 0.7047597 -0.6144003 0.3547196 0.7047311 -0.6144207 0.3547413 0.7047011 -0.6144515 0.3547475 0.7046911 -0.5160883 0.4868918 0.7047157 -0.5160644 0.4868813 0.7047163 -0.5160647 0.4868801 0.7047051 -0.5160771 0.4868831 0.7047294 -0.5160553 0.486871 0.7047277 -0.3898519 0.5927683 0.7047592 -0.3898441 0.5927363 0.7047178 -0.3898783 0.5927628 0.7047199 -0.2426591 0.6666982 0.7047149 -0.2426597 0.6667032 0.7047089 -0.2426627 0.6667085 0.7047132 -0.08243221 0.7046875 0.70476 -0.0823487 0.7046503 0.7047722 -0.08235275 0.7046377 0.7047046 -0.08238381 0.7047016 0.7047047 0.08238381 0.7047016 0 0.08046531 -0.9967575 0 -0.08046531 -0.9967575 0 -0.08046531 -0.9967575 0 -0.2393081 -0.9709438 0 -0.2393082 -0.9709436 0 -0.3919697 -0.9199782 0 -0.3919697 -0.9199782 0 -0.5344619 -0.8451926 0 -0.5344617 -0.8451927 0 -0.6631224 -0.748511 0 -0.6631231 -0.7485104 0 -0.7746086 -0.6324409 0 -0.7746087 -0.6324408 0 -0.8660223 -0.5000056 0 -0.8660232 -0.5000041 0 -0.9350172 -0.3546026 0 -0.9350172 -0.3546026 0 -0.9797908 -0.200025 0 -0.9797906 -0.2000259 0 -0.9991891 -0.04026567 0 -0.9927089 0.1205366 0 -0.9927089 0.1205376 0 -0.9605181 0.2782174 0 -0.960518 0.2782183 0 -0.9034499 0.4286938 0 -0.90345 0.4286937 0 -0.8229875 0.5680597 0 -0.8229876 0.5680595 0 -0.7212001 0.6927269 0 -0.7211991 0.6927279 0 -0.6007447 0.7994409 0 -0.6007444 0.7994413 0 -0.4647192 0.8854582 0 -0.4647188 0.8854584 0 -0.3166689 0.9485362 0 -0.316669 0.9485361 0 -0.1604086 0.9870508 0 -0.1604087 0.9870508 0 0 1 0 0.1604086 0.9870508 0 0.3166689 0.9485362 0 0.3166689 0.9485362 0 0.4647192 0.8854582 0 0.4647188 0.8854584 0 0.6007445 0.7994411 0 0.6007444 0.7994413 0 0.7211998 0.6927272 0 0.7211996 0.6927274 0 0.8229879 0.568059 0 0.8229876 0.5680595 0 0.9034495 0.4286946 0 0.9034495 0.4286944 0 0.9605185 0.2782166 0 0.9605182 0.2782174 0 0.9927089 0.1205376 0 0.9927089 0.1205376 0 0.9991891 -0.04026567 0 0.9797908 -0.200025 0 0.9797906 -0.2000259 0 0.9350172 -0.3546026 0 0.9350172 -0.3546026 0 0.8660227 -0.5000048 0 0.8660227 -0.5000048 0 0.7746086 -0.6324409 0 0.7746087 -0.6324408 0 0.6631225 -0.7485108 0 0.6631228 -0.7485106 0 0.5344619 -0.8451926 0 0.5344615 -0.8451929 0 0.3919698 -0.9199781 0 0.3919699 -0.9199782 0 0.2393082 -0.9709438 0 0.2393082 -0.9709436 0 0.08046531 -0.9967575 0.01408612 -0.1160834 -0.9931396 0.01408046 -0.3419871 -0.9395992 -0.01408672 -0.2306056 -0.9729455 -0.01408708 -0.2306055 -0.9729454 0.01408344 -0.5494518 -0.8354067 -0.0140835 -0.4487657 -0.8935384 -0.01408356 -0.4487326 -0.8935551 0.01408439 -0.7273023 -0.6861729 -0.01409071 -0.64271 -0.76598 -0.01409095 -0.6427333 -0.7659605 0.01408523 -0.865943 -0.4999443 -0.01408654 -0.8020459 -0.5970963 -0.01408654 -0.8020455 -0.5970969 0.01408761 -0.9578941 -0.2867761 -0.01408284 -0.9181232 -0.3960448 -0.01408284 -0.9181233 -0.3960447 0.01408511 -0.9982092 -0.05813992 -0.01408481 -0.9847108 -0.173627 -0.01408481 -0.9847105 -0.1736286 0.01408571 -0.98471 0.1736313 -0.01408511 -0.9982091 0.05814075 -0.01408511 -0.9982092 0.05813908 0.01408475 -0.9181265 0.3960372 -0.01408338 -0.9578923 0.2867825 -0.01408338 -0.9578961 0.2867697 0.0140866 -0.8020457 0.5970966 -0.01408529 -0.865943 0.4999444 -0.01408529 -0.865943 0.4999443 0.01408708 -0.6427217 0.7659703 -0.01408463 -0.7273021 0.6861729 -0.01408439 -0.7273022 0.6861729 0.01408803 -0.4487493 0.8935467 -0.01408761 -0.549466 0.8353973 -0.01408731 -0.5494374 0.8354161 0.01408749 -0.2306056 0.9729454 -0.01408088 -0.341987 0.9395993 -0.01408046 -0.3419872 0.9395991 0.01408505 0 0.9999009 -0.01409089 -0.1161036 0.9931373 -0.01409095 -0.1160631 0.9931419 0.01408731 0.2306056 0.9729454 -0.01409095 0.1160631 0.993142 -0.01409131 0.1161037 0.9931373 0.01408803 0.4487493 0.8935467 -0.01408046 0.3419868 0.9395993 -0.01408088 0.3419872 0.9395991 0.01408708 0.6427215 0.7659704 -0.01408731 0.5494374 0.8354161 -0.01408767 0.5494664 0.835397 0.0140866 0.8020457 0.5970966 -0.01408445 0.7273026 0.6861724 -0.01408463 0.7273017 0.6861733 0.01408463 0.9181268 0.3960365 -0.01408541 0.8659424 0.4999457 -0.01408529 0.8659437 0.4999431 0.01408571 0.98471 0.1736313 -0.01408338 0.9578956 0.2867712 -0.01408332 0.9578923 0.2867825 0.01408511 0.9982092 -0.05813992 -0.01408511 0.9982092 0.05813908 -0.01408511 0.9982091 0.05814075 0.01408767 0.9578939 -0.2867769 -0.01408481 0.9847108 -0.173627 -0.01408481 0.9847105 -0.1736286 0.01408529 0.865943 -0.4999443 -0.01408272 0.9181239 -0.3960433 -0.01408272 0.9181232 -0.3960448 0.01408439 0.7273023 -0.6861729 -0.01408666 0.8020458 -0.5970963 -0.01408666 0.8020455 -0.5970969 0.01408344 0.549452 -0.8354067 -0.01409095 0.6427329 -0.7659608 -0.01409071 0.64271 -0.76598 0.01408046 0.341987 -0.9395992 -0.01408356 0.4487329 -0.8935549 -0.0140835 0.4487653 -0.8935386 -0.01408505 0 -0.9999009 0.01408612 0.1160834 -0.9931396 -0.01408749 0.2306055 -0.9729454 -0.01408672 0.2306056 -0.9729455 -1 0 0 -1 1.8895e-7 0 -1 0 0 -1 3.6286e-7 0 -1 0 0 -1 -3.66425e-7 0 -1 0 0 -1 0 0 -1 -3.67892e-7 0 -1 0 0 -1 0 0 -1 -1.8895e-7 0 -1 0 0 -1 0 0 -1 2.49742e-7 0 -1 0 0 -1 0 0 -1 0 0 -1 1.2538e-7 0 -1 0 0 -1 1.81429e-7 0 -1 -1.81428e-7 0 -1 0 0 -1 0 0 -1 0 0 -1 0 0 -1 1.24564e-7 0 -1 -1.81429e-7 0 -1 -1.24871e-7 0 -1 0 0</float_array>
          <technique_common>
            <accessor source="#Link6-mesh-normals-array" count="825" stride="3">
              <param name="X" type="float"/>
              <param name="Y" type="float"/>
              <param name="Z" type="float"/>
            </accessor>
          </technique_common>
        </source>
        <vertices id="Link6-mesh-vertices">
          <input semantic="POSITION" source="#Link6-mesh-positions"/>
        </vertices>
        <triangles material="black-material" count="1300">
          <input semantic="VERTEX" source="#Link6-mesh-vertices" offset="0"/>
          <input semantic="NORMAL" source="#Link6-mesh-normals" offset="1"/>
          <p>0 0 1 0 2 0 0 0 2 0 3 0 3 1 2 1 4 1 3 2 4 2 5 2 1 0 6 0 2 0 2 0 6 0 7 0 2 0 7 0 8 0 5 0 9 0 3 0 3 0 9 0 10 0 3 0 10 0 11 0 12 3 13 3 14 3 14 0 15 0 16 0 16 4 15 4 17 4 16 5 18 5 19 5 17 0 20 0 16 0 16 0 20 0 21 0 16 6 21 6 22 6 14 7 16 7 12 7 12 8 16 8 19 8 12 0 19 0 23 0 24 3 25 3 26 3 26 0 27 0 28 0 28 9 27 9 29 9 28 5 30 5 31 5 29 10 32 10 28 10 28 0 32 0 33 0 28 6 33 6 34 6 26 7 28 7 24 7 24 8 28 8 31 8 24 0 31 0 35 0 36 11 37 11 38 11 36 0 38 0 39 0 39 12 38 12 40 12 39 13 40 13 41 13 37 0 42 0 38 0 38 0 42 0 43 0 38 0 43 0 44 0 41 0 45 0 39 0 39 0 45 0 46 0 39 0 46 0 47 0 48 11 49 11 50 11 48 0 50 0 51 0 51 12 50 12 52 12 51 14 52 14 53 14 49 0 54 0 50 0 50 0 54 0 55 0 50 0 55 0 56 0 53 0 57 0 51 0 51 0 57 0 58 0 51 0 58 0 59 0 60 15 61 15 62 15 62 0 63 0 64 0 64 9 63 9 65 9 64 15 66 15 67 15 65 16 68 16 64 16 64 0 68 0 69 0 64 17 69 17 70 17 62 7 64 7 60 7 60 8 64 8 67 8 60 0 67 0 71 0 72 5 73 5 74 5 74 0 75 0 76 0 76 9 75 9 77 9 76 18 78 18 79 18 77 0 80 0 76 0 76 0 80 0 81 0 76 17 81 17 82 17 74 7 76 7 72 7 72 8 76 8 79 8 72 0 79 0 83 0 84 0 85 0 86 0 84 0 86 0 87 0 87 1 86 1 88 1 87 19 88 19 89 19 85 0 90 0 86 0 86 0 90 0 91 0 86 0 91 0 92 0 89 0 93 0 87 0 87 0 93 0 94 0 87 0 94 0 95 0 96 20 2 20 97 20 97 21 2 21 8 21 97 22 8 22 98 22 98 23 8 23 7 23 98 24 7 24 99 24 99 25 7 25 6 25 99 26 6 26 100 26 100 27 6 27 1 27 100 28 1 28 101 28 101 29 1 29 0 29 101 30 0 30 102 30 102 31 0 31 3 31 102 32 3 32 103 32 103 33 3 33 11 33 103 34 11 34 104 34 104 35 11 35 10 35 104 36 10 36 105 36 105 37 10 37 9 37 105 37 9 37 106 37 106 38 9 38 5 38 106 38 5 38 107 38 107 39 5 39 4 39 107 40 4 40 96 40 96 41 4 41 2 41 108 42 16 42 109 42 109 43 16 43 22 43 109 43 22 43 110 43 110 23 22 23 21 23 110 44 21 44 111 44 111 45 21 45 20 45 111 46 20 46 112 46 112 47 20 47 17 47 112 48 17 48 113 48 113 49 17 49 15 49 113 50 15 50 114 50 114 51 15 51 14 51 114 51 14 51 115 51 115 52 14 52 13 52 115 53 13 53 116 53 116 54 13 54 12 54 116 55 12 55 117 55 117 56 12 56 23 56 117 57 23 57 118 57 118 58 23 58 19 58 118 59 19 59 119 59 119 60 19 60 18 60 119 61 18 61 108 61 108 62 18 62 16 62 120 42 28 42 121 42 121 43 28 43 34 43 121 43 34 43 122 43 122 23 34 23 33 23 122 44 33 44 123 44 123 63 33 63 32 63 123 26 32 26 124 26 124 27 32 27 29 27 124 64 29 64 125 64 125 49 29 49 27 49 125 50 27 50 126 50 126 51 27 51 26 51 126 51 26 51 127 51 127 52 26 52 25 52 127 53 25 53 128 53 128 54 25 54 24 54 128 55 24 55 129 55 129 65 24 65 35 65 129 37 35 37 130 37 130 38 35 38 31 38 130 66 31 66 131 66 131 60 31 60 30 60 131 61 30 61 120 61 120 62 30 62 28 62 132 20 38 20 133 20 133 21 38 21 44 21 133 22 44 22 134 22 134 67 44 67 43 67 134 68 43 68 135 68 135 69 43 69 42 69 135 46 42 46 136 46 136 47 42 47 37 47 136 70 37 70 137 70 137 71 37 71 36 71 137 50 36 50 138 50 138 31 36 31 39 31 138 32 39 32 139 32 139 33 39 33 47 33 139 34 47 34 140 34 140 72 47 72 46 72 140 73 46 73 141 73 141 57 46 57 45 57 141 57 45 57 142 57 142 58 45 58 41 58 142 58 41 58 143 58 143 74 41 74 40 74 143 75 40 75 132 75 132 41 40 41 38 41 144 20 50 20 145 20 145 21 50 21 56 21 145 22 56 22 146 22 146 67 56 67 55 67 146 68 55 68 147 68 147 69 55 69 54 69 147 46 54 46 148 46 148 47 54 47 49 47 148 70 49 70 149 70 149 71 49 71 48 71 149 50 48 50 150 50 150 31 48 31 51 31 150 32 51 32 151 32 151 33 51 33 59 33 151 34 59 34 152 34 152 76 59 76 58 76 152 73 58 73 153 73 153 77 58 77 57 77 153 78 57 78 154 78 154 79 57 79 53 79 154 80 53 80 155 80 155 74 53 74 52 74 155 74 52 74 144 74 144 41 52 41 50 41 156 62 64 62 157 62 157 81 64 81 70 81 157 43 70 43 158 43 158 23 70 23 69 23 158 44 69 44 159 44 159 63 69 63 68 63 159 25 68 25 160 25 160 28 68 28 65 28 160 64 65 64 161 64 161 49 65 49 63 49 161 50 63 50 162 50 162 51 63 51 62 51 162 82 62 82 163 82 163 53 62 53 61 53 163 53 61 53 164 53 164 72 61 72 60 72 164 83 60 83 165 83 165 37 60 37 71 37 165 84 71 84 166 84 166 85 71 85 67 85 166 38 67 38 167 38 167 86 67 86 66 86 167 40 66 40 156 40 156 62 66 62 64 62 168 62 76 62 169 62 169 81 76 81 82 81 169 43 82 43 170 43 170 23 82 23 81 23 170 44 81 44 171 44 171 45 81 45 80 45 171 69 80 69 172 69 172 70 80 70 77 70 172 48 77 48 173 48 173 49 77 49 75 49 173 50 75 50 174 50 174 51 75 51 74 51 174 82 74 82 175 82 175 53 74 53 73 53 175 53 73 53 176 53 176 72 73 72 72 72 176 83 72 83 177 83 177 57 72 57 83 57 177 78 83 78 178 78 178 79 83 79 79 79 178 58 79 58 179 58 179 86 79 86 78 86 179 40 78 40 168 40 168 62 78 62 76 62 180 20 86 20 181 20 181 21 86 21 92 21 181 22 92 22 182 22 182 23 92 23 91 23 182 24 91 24 183 24 183 25 91 25 90 25 183 26 90 26 184 26 184 27 90 27 85 27 184 28 85 28 185 28 185 29 85 29 84 29 185 30 84 30 186 30 186 31 84 31 87 31 186 32 87 32 187 32 187 33 87 33 95 33 187 34 95 34 188 34 188 36 95 36 94 36 188 36 94 36 189 36 189 87 94 87 93 87 189 84 93 84 190 84 190 85 93 85 89 85 190 88 89 88 191 88 191 39 89 39 88 39 191 89 88 89 180 89 180 41 88 41 86 41 192 0 193 0 194 0 195 90 196 90 193 90 193 91 196 91 197 91 194 92 198 92 199 92 197 0 200 0 193 0 193 0 200 0 201 0 193 0 201 0 194 0 192 0 194 0 202 0 202 0 194 0 199 0 202 93 199 93 203 93 204 94 205 94 206 94 207 95 208 95 209 95 210 96 211 96 212 96 213 97 214 97 215 97 215 98 214 98 216 98 215 99 216 99 217 99 217 100 216 100 218 100 217 101 218 101 219 101 213 102 215 102 220 102 220 103 215 103 221 103 220 104 221 104 222 104 222 105 221 105 223 105 222 106 223 106 224 106 225 107 226 107 227 107 227 108 226 108 228 108 227 109 228 109 229 109 229 110 228 110 230 110 229 111 230 111 223 111 223 112 230 112 231 112 223 113 231 113 224 113 232 114 233 114 234 114 234 115 233 115 235 115 234 116 235 116 225 116 225 117 235 117 236 117 225 107 236 107 226 107 237 118 238 118 232 118 232 119 238 119 239 119 232 120 239 120 233 120 240 121 241 121 237 121 237 122 241 122 242 122 237 123 242 123 238 123 212 124 243 124 210 124 210 125 243 125 244 125 210 126 244 126 240 126 240 127 244 127 245 127 240 128 245 128 241 128 246 129 247 129 248 129 248 130 247 130 249 130 248 131 249 131 211 131 211 132 249 132 250 132 211 133 250 133 212 133 209 134 208 134 251 134 208 135 252 135 251 135 251 136 252 136 253 136 251 137 253 137 246 137 246 138 253 138 254 138 246 139 254 139 247 139 207 140 209 140 255 140 255 141 209 141 256 141 255 142 256 142 257 142 257 143 256 143 258 143 257 144 258 144 259 144 260 145 261 145 262 145 262 145 261 145 263 145 262 146 263 146 264 146 264 147 263 147 265 147 264 148 265 148 258 148 258 149 265 149 266 149 258 150 266 150 259 150 267 151 268 151 269 151 269 152 268 152 270 152 269 153 270 153 260 153 260 154 270 154 271 154 260 155 271 155 261 155 272 156 273 156 267 156 267 157 273 157 274 157 267 158 274 158 268 158 275 159 276 159 272 159 272 160 276 160 277 160 272 161 277 161 273 161 206 162 278 162 204 162 204 163 278 163 279 163 204 164 279 164 275 164 275 165 279 165 280 165 275 166 280 166 276 166 218 167 281 167 219 167 219 168 281 168 282 168 219 169 282 169 283 169 283 170 282 170 284 170 283 171 284 171 205 171 205 172 284 172 285 172 205 173 285 173 206 173 100 174 286 174 99 174 99 175 286 175 287 175 99 176 287 176 98 176 98 177 287 177 288 177 98 178 288 178 97 178 97 179 288 179 289 179 97 180 289 180 96 180 96 181 289 181 290 181 96 182 290 182 107 182 107 183 290 183 291 183 107 184 291 184 106 184 291 185 292 185 106 185 106 186 292 186 293 186 106 187 293 187 105 187 105 188 293 188 294 188 105 189 294 189 104 189 104 190 294 190 295 190 104 191 295 191 103 191 103 192 295 192 296 192 103 193 296 193 102 193 102 194 296 194 297 194 102 195 297 195 101 195 101 196 297 196 298 196 101 197 298 197 100 197 100 198 298 198 299 198 100 199 299 199 286 199 108 200 300 200 119 200 119 201 300 201 301 201 119 202 301 202 118 202 118 203 301 203 302 203 118 204 302 204 117 204 117 205 302 205 303 205 117 206 303 206 116 206 303 207 304 207 116 207 116 208 304 208 305 208 116 209 305 209 115 209 115 210 305 210 306 210 115 211 306 211 114 211 114 212 306 212 307 212 114 213 307 213 113 213 113 214 307 214 308 214 113 215 308 215 112 215 112 216 308 216 309 216 112 217 309 217 111 217 111 218 309 218 310 218 111 219 310 219 110 219 110 220 310 220 311 220 110 221 311 221 109 221 109 222 311 222 312 222 109 223 312 223 108 223 108 224 312 224 313 224 108 225 313 225 300 225 120 226 314 226 131 226 131 227 314 227 315 227 131 228 315 228 130 228 130 229 315 229 316 229 130 230 316 230 129 230 129 231 316 231 317 231 129 206 317 206 128 206 317 232 318 232 128 232 128 233 318 233 319 233 128 234 319 234 127 234 127 235 319 235 320 235 127 236 320 236 126 236 126 237 320 237 321 237 126 238 321 238 125 238 125 239 321 239 322 239 125 240 322 240 124 240 124 241 322 241 323 241 124 242 323 242 123 242 123 243 323 243 324 243 123 219 324 219 122 219 122 220 324 220 325 220 122 221 325 221 121 221 121 222 325 222 326 222 121 223 326 223 120 223 120 244 326 244 327 244 120 245 327 245 314 245 137 246 328 246 136 246 136 247 328 247 329 247 136 217 329 217 135 217 135 248 329 248 330 248 135 249 330 249 134 249 134 250 330 250 331 250 134 251 331 251 133 251 133 252 331 252 332 252 133 253 332 253 132 253 132 254 332 254 333 254 132 255 333 255 143 255 143 256 333 256 334 256 143 257 334 257 142 257 142 258 334 258 335 258 142 204 335 204 141 204 335 259 336 259 141 259 141 260 336 260 337 260 141 261 337 261 140 261 140 262 337 262 338 262 140 263 338 263 139 263 139 264 338 264 339 264 139 265 339 265 138 265 138 266 339 266 340 266 138 267 340 267 137 267 137 268 340 268 341 268 137 269 341 269 328 269 149 246 342 246 148 246 148 270 342 270 343 270 148 271 343 271 147 271 147 248 343 248 344 248 147 272 344 272 146 272 146 273 344 273 345 273 146 274 345 274 145 274 145 275 345 275 346 275 145 253 346 253 144 253 144 276 346 276 347 276 144 277 347 277 155 277 155 256 347 256 348 256 155 278 348 278 154 278 154 258 348 258 349 258 154 279 349 279 153 279 349 280 350 280 153 280 153 281 350 281 351 281 153 282 351 282 152 282 152 283 351 283 352 283 152 263 352 263 151 263 151 284 352 284 353 284 151 265 353 265 150 265 150 285 353 285 354 285 150 286 354 286 149 286 149 268 354 268 355 268 149 287 355 287 342 287 162 288 356 288 161 288 161 289 356 289 357 289 161 290 357 290 160 290 160 291 357 291 358 291 160 292 358 292 159 292 159 293 358 293 359 293 159 219 359 219 158 219 359 294 360 294 158 294 158 295 360 295 361 295 158 296 361 296 157 296 157 297 361 297 362 297 157 298 362 298 156 298 156 299 362 299 363 299 156 300 363 300 167 300 167 301 363 301 364 301 167 302 364 302 166 302 166 303 364 303 365 303 166 304 365 304 165 304 165 305 365 305 366 305 165 206 366 206 164 206 164 306 366 306 367 306 164 307 367 307 163 307 163 308 367 308 368 308 163 309 368 309 162 309 162 310 368 310 369 310 162 311 369 311 356 311 174 312 370 312 173 312 173 313 370 313 371 313 173 314 371 314 172 314 172 315 371 315 372 315 172 316 372 316 171 316 171 317 372 317 373 317 171 318 373 318 170 318 373 294 374 294 170 294 170 319 374 319 375 319 170 320 375 320 169 320 169 321 375 321 376 321 169 322 376 322 168 322 168 299 376 299 377 299 168 300 377 300 179 300 179 323 377 323 378 323 179 324 378 324 178 324 178 325 378 325 379 325 178 326 379 326 177 326 177 327 379 327 380 327 177 328 380 328 176 328 176 329 380 329 381 329 176 307 381 307 175 307 175 308 381 308 382 308 175 309 382 309 174 309 174 330 382 330 383 330 174 331 383 331 370 331 184 332 384 332 183 332 183 333 384 333 385 333 183 334 385 334 182 334 182 177 385 177 386 177 182 178 386 178 181 178 181 335 386 335 387 335 181 180 387 180 180 180 180 336 387 336 388 336 180 337 388 337 191 337 191 183 388 183 389 183 191 338 389 338 190 338 389 185 390 185 190 185 190 186 390 186 391 186 190 339 391 339 189 339 189 340 391 340 392 340 189 341 392 341 188 341 188 342 392 342 393 342 188 191 393 191 187 191 187 343 393 343 394 343 187 193 394 193 186 193 186 344 394 344 395 344 186 345 395 345 185 345 185 346 395 346 396 346 185 197 396 197 184 197 184 347 396 347 397 347 184 199 397 199 384 199 198 348 398 348 199 348 199 349 398 349 399 349 199 349 399 349 203 349 203 350 399 350 400 350 203 351 400 351 202 351 202 352 400 352 401 352 202 353 401 353 192 353 192 354 401 354 402 354 192 355 402 355 193 355 193 356 402 356 403 356 193 357 403 357 195 357 195 358 403 358 404 358 195 358 404 358 196 358 196 359 404 359 405 359 196 360 405 360 197 360 197 361 405 361 406 361 197 362 406 362 200 362 200 363 406 363 407 363 200 364 407 364 201 364 201 365 407 365 408 365 201 366 408 366 194 366 194 367 408 367 409 367 194 368 409 368 198 368 198 369 409 369 398 369 205 370 410 370 283 370 283 371 410 371 411 371 283 371 411 371 219 371 219 372 411 372 412 372 219 373 412 373 217 373 217 374 412 374 413 374 217 375 413 375 215 375 215 376 413 376 414 376 215 377 414 377 221 377 221 378 414 378 415 378 221 379 415 379 223 379 223 380 415 380 416 380 223 381 416 381 229 381 229 382 416 382 417 382 229 383 417 383 227 383 227 384 417 384 418 384 227 384 418 384 225 384 225 385 418 385 419 385 225 385 419 385 234 385 234 386 419 386 420 386 234 387 420 387 232 387 232 388 420 388 421 388 232 389 421 389 237 389 237 390 421 390 422 390 237 391 422 391 240 391 240 392 422 392 423 392 240 393 423 393 210 393 210 394 423 394 424 394 210 395 424 395 211 395 211 396 424 396 425 396 211 396 425 396 248 396 248 397 425 397 426 397 248 398 426 398 246 398 246 399 426 399 427 399 246 400 427 400 251 400 251 401 427 401 428 401 251 402 428 402 209 402 209 403 428 403 429 403 209 404 429 404 256 404 256 405 429 405 430 405 256 406 430 406 258 406 258 407 430 407 431 407 258 408 431 408 264 408 264 409 431 409 432 409 264 410 432 410 262 410 262 411 432 411 433 411 262 411 433 411 260 411 260 412 433 412 434 412 260 413 434 413 269 413 269 414 434 414 435 414 269 415 435 415 267 415 267 416 435 416 436 416 267 417 436 417 272 417 272 418 436 418 437 418 272 419 437 419 275 419 275 420 437 420 438 420 275 421 438 421 204 421 204 422 438 422 439 422 204 423 439 423 205 423 205 424 439 424 410 424 440 0 441 0 442 0 443 0 444 0 445 0 329 0 328 0 446 0 351 0 350 0 447 0 376 0 375 0 268 0 403 0 285 0 284 0 403 0 402 0 285 0 285 425 402 425 401 425 285 426 401 426 445 426 445 0 401 0 400 0 400 0 399 0 445 0 445 427 399 427 398 427 445 0 398 0 448 0 407 0 282 0 408 0 408 428 282 428 448 428 408 0 448 0 409 0 409 429 448 429 398 429 407 430 406 430 282 430 282 431 406 431 405 431 282 0 405 0 284 0 284 0 405 0 404 0 284 0 404 0 403 0 392 0 391 0 445 0 445 0 391 0 390 0 445 432 390 432 285 432 285 433 390 433 389 433 285 0 389 0 206 0 385 0 279 0 386 0 386 434 279 434 278 434 386 0 278 0 387 0 387 0 278 0 206 0 387 435 206 435 388 435 388 0 206 0 389 0 385 436 384 436 279 436 279 0 384 0 397 0 279 0 397 0 396 0 449 437 276 437 280 437 445 438 444 438 392 438 392 439 444 439 450 439 392 440 450 440 393 440 393 0 450 0 451 0 393 0 451 0 394 0 280 441 279 441 449 441 449 442 279 442 396 442 449 443 396 443 451 443 451 0 396 0 395 0 451 444 395 444 394 444 383 0 382 0 452 0 452 445 382 445 381 445 452 446 381 446 380 446 453 0 454 0 452 0 451 0 455 0 449 0 449 0 455 0 456 0 449 447 456 447 457 447 274 0 273 0 449 0 449 0 273 0 277 0 449 0 277 0 276 0 453 0 452 0 458 0 458 0 452 0 380 0 458 0 380 0 459 0 268 0 274 0 376 0 376 0 274 0 449 0 376 448 449 448 377 448 377 449 449 449 457 449 377 450 457 450 378 450 378 0 457 0 459 0 378 0 459 0 379 0 379 0 459 0 380 0 370 0 271 0 371 0 371 451 271 451 270 451 375 0 374 0 268 0 268 0 374 0 373 0 268 0 373 0 270 0 270 0 373 0 372 0 270 0 372 0 371 0 359 0 358 0 265 0 265 0 358 0 357 0 265 0 357 0 266 0 370 0 383 0 271 0 271 452 383 452 452 452 271 0 452 0 261 0 261 0 452 0 263 0 357 0 356 0 266 0 266 453 356 453 369 453 266 0 369 0 259 0 460 0 257 0 259 0 369 0 368 0 259 0 259 454 368 454 367 454 259 455 367 455 460 455 460 456 367 456 461 456 367 0 366 0 461 0 461 0 366 0 365 0 461 457 365 457 462 457 462 0 365 0 364 0 462 0 364 0 463 0 463 458 364 458 363 458 463 459 363 459 362 459 359 460 265 460 360 460 360 0 265 0 263 0 360 461 263 461 361 461 361 462 263 462 452 462 361 0 452 0 362 0 362 0 452 0 454 0 362 463 454 463 463 463 464 0 465 0 447 0 208 437 207 437 460 437 460 0 207 0 255 0 460 0 255 0 257 0 461 464 466 464 460 464 460 0 466 0 467 0 460 0 467 0 468 0 350 0 349 0 447 0 447 465 349 465 348 465 447 466 348 466 464 466 464 467 348 467 347 467 464 0 347 0 469 0 252 468 208 468 343 468 343 0 208 0 460 0 343 0 460 0 344 0 344 469 460 469 468 469 344 0 468 0 345 0 345 0 468 0 469 0 345 0 469 0 346 0 346 0 469 0 347 0 343 0 342 0 252 0 252 0 342 0 355 0 252 470 355 470 253 470 355 471 354 471 253 471 253 0 354 0 353 0 253 0 353 0 254 0 254 472 353 472 352 472 254 0 352 0 247 0 352 0 351 0 247 0 247 473 351 473 447 473 247 0 447 0 249 0 249 0 447 0 250 0 212 0 250 0 341 0 341 0 340 0 212 0 212 474 340 474 339 474 212 475 339 475 243 475 243 0 339 0 338 0 243 476 338 476 244 476 441 477 334 477 333 477 330 478 470 478 331 478 331 0 470 0 471 0 338 479 337 479 244 479 244 0 337 0 336 0 244 0 336 0 245 0 245 480 336 480 335 480 335 0 334 0 245 0 245 0 334 0 441 0 245 481 441 481 241 481 241 482 441 482 242 482 330 483 329 483 470 483 470 484 329 484 446 484 470 0 446 0 472 0 472 485 446 485 473 485 442 0 441 0 474 0 474 0 441 0 333 0 474 0 333 0 471 0 471 486 333 486 332 486 471 487 332 487 331 487 327 0 326 0 475 0 475 488 326 488 325 488 475 489 325 489 324 489 440 0 476 0 441 0 441 490 476 490 321 490 441 491 321 491 320 491 319 0 233 0 320 0 320 0 233 0 239 0 320 0 239 0 441 0 441 0 239 0 238 0 441 0 238 0 242 0 477 0 475 0 478 0 478 0 475 0 324 0 478 0 324 0 479 0 479 0 324 0 323 0 479 0 323 0 476 0 476 0 323 0 322 0 476 0 322 0 321 0 319 0 318 0 233 0 233 0 318 0 317 0 233 0 317 0 235 0 317 0 316 0 235 0 235 0 316 0 315 0 235 492 315 492 236 492 236 493 315 493 314 493 314 494 327 494 236 494 236 0 327 0 475 0 236 0 475 0 226 0 226 0 475 0 228 0 231 0 230 0 301 0 301 0 230 0 302 0 301 0 300 0 231 0 231 495 300 495 313 495 231 0 313 0 224 0 224 0 313 0 312 0 312 0 311 0 224 0 224 496 311 496 480 496 224 0 480 0 222 0 222 0 480 0 220 0 481 0 482 0 480 0 480 497 482 497 483 497 480 0 483 0 484 0 311 0 310 0 480 0 480 0 310 0 309 0 480 498 309 498 481 498 481 499 309 499 308 499 481 0 308 0 485 0 485 500 308 500 307 500 485 0 307 0 486 0 486 501 307 501 306 501 486 502 306 502 305 502 477 0 486 0 475 0 475 503 486 503 305 503 475 504 305 504 228 504 228 505 305 505 304 505 228 506 304 506 230 506 230 0 304 0 303 0 230 0 303 0 302 0 216 507 214 507 480 507 480 481 214 481 213 481 480 0 213 0 220 0 296 0 487 0 297 0 297 0 487 0 488 0 297 508 488 508 298 508 298 509 488 509 489 509 296 0 295 0 487 0 487 0 295 0 294 0 487 0 294 0 484 0 484 0 294 0 480 0 480 510 294 510 293 510 480 0 293 0 216 0 293 0 292 0 216 0 216 511 292 511 291 511 216 0 291 0 218 0 291 512 290 512 218 512 218 0 290 0 289 0 218 0 289 0 281 0 281 474 289 474 288 474 281 0 288 0 282 0 282 0 288 0 287 0 282 513 287 513 448 513 448 514 287 514 286 514 448 0 286 0 299 0 465 515 473 515 447 515 447 0 473 0 446 0 447 0 446 0 250 0 250 0 446 0 328 0 250 516 328 516 341 516 443 0 445 0 490 0 490 0 445 0 448 0 490 0 448 0 489 0 489 0 448 0 299 0 489 0 299 0 298 0 436 0 491 0 437 0 437 517 491 517 492 517 437 518 492 518 438 518 438 0 492 0 493 0 438 0 493 0 439 0 426 519 494 519 427 519 427 520 494 520 495 520 427 0 495 0 428 0 428 0 495 0 496 0 428 521 496 521 429 521 423 522 497 522 424 522 424 523 497 523 498 523 424 0 498 0 425 0 425 524 498 524 499 524 425 0 499 0 426 0 426 525 499 525 500 525 426 526 500 526 494 526 493 0 501 0 439 0 439 527 501 527 502 527 439 0 502 0 410 0 410 0 502 0 503 0 410 0 503 0 411 0 411 528 503 528 504 528 411 0 504 0 412 0 412 529 504 529 505 529 412 0 505 0 413 0 505 0 506 0 413 0 413 530 506 530 507 530 413 0 507 0 414 0 414 531 507 531 508 531 414 0 508 0 415 0 415 0 508 0 509 0 415 0 509 0 416 0 420 0 510 0 421 0 421 0 510 0 511 0 421 532 511 532 422 532 422 0 511 0 512 0 422 533 512 533 423 533 423 0 512 0 513 0 423 534 513 534 497 534 509 0 514 0 416 0 416 0 514 0 515 0 416 535 515 535 417 535 417 536 515 536 516 536 417 0 516 0 418 0 418 0 516 0 517 0 418 0 517 0 419 0 419 537 517 537 518 537 419 538 518 538 420 538 420 0 518 0 519 0 420 0 519 0 510 0 433 539 520 539 434 539 434 0 520 0 521 0 434 540 521 540 435 540 435 541 521 541 522 541 435 0 522 0 436 0 436 542 522 542 523 542 436 526 523 526 491 526 496 0 524 0 429 0 429 0 524 0 525 0 429 0 525 0 430 0 430 0 525 0 526 0 430 0 526 0 431 0 431 543 526 543 527 543 431 544 527 544 432 544 432 545 527 545 528 545 432 0 528 0 433 0 433 0 528 0 529 0 433 546 529 546 520 546 473 547 530 547 472 547 472 548 530 548 531 548 472 549 531 549 470 549 470 550 531 550 532 550 470 551 532 551 471 551 532 552 533 552 471 552 471 553 533 553 534 553 471 554 534 554 474 554 474 555 534 555 535 555 474 556 535 556 442 556 442 557 535 557 536 557 442 558 536 558 440 558 537 559 479 559 476 559 440 560 536 560 476 560 476 561 536 561 538 561 476 562 538 562 537 562 537 563 539 563 479 563 479 564 539 564 540 564 479 565 540 565 478 565 478 566 540 566 541 566 478 567 541 567 477 567 542 568 481 568 485 568 541 569 543 569 477 569 477 570 543 570 544 570 477 571 544 571 486 571 486 572 544 572 545 572 486 573 545 573 485 573 485 574 545 574 546 574 485 575 546 575 542 575 484 576 547 576 548 576 484 577 548 577 487 577 542 578 549 578 481 578 481 579 549 579 550 579 481 580 550 580 482 580 482 581 550 581 547 581 482 582 547 582 483 582 483 583 547 583 484 583 548 584 551 584 487 584 487 585 551 585 552 585 487 586 552 586 488 586 488 587 552 587 553 587 488 588 553 588 489 588 489 589 553 589 554 589 489 590 554 590 490 590 554 591 555 591 490 591 490 592 555 592 556 592 490 593 556 593 443 593 443 592 556 592 557 592 443 594 557 594 444 594 444 595 557 595 558 595 444 596 558 596 450 596 456 597 455 597 559 597 558 598 560 598 450 598 450 599 560 599 561 599 450 600 561 600 451 600 451 601 561 601 562 601 451 602 562 602 455 602 455 603 562 603 563 603 455 604 563 604 559 604 456 605 559 605 457 605 457 606 559 606 564 606 457 607 564 607 459 607 564 608 565 608 459 608 459 609 565 609 566 609 459 610 566 610 458 610 566 611 567 611 458 611 458 612 567 612 568 612 458 613 568 613 453 613 453 614 568 614 569 614 453 615 569 615 454 615 454 616 569 616 570 616 454 617 570 617 463 617 570 618 571 618 463 618 463 619 571 619 572 619 463 620 572 620 462 620 572 621 573 621 462 621 462 622 573 622 574 622 462 623 574 623 461 623 461 624 574 624 575 624 461 625 575 625 466 625 466 626 575 626 576 626 466 627 576 627 467 627 467 628 576 628 468 628 576 629 577 629 468 629 468 630 577 630 578 630 468 631 578 631 469 631 578 632 579 632 469 632 469 633 579 633 580 633 469 634 580 634 464 634 464 635 580 635 581 635 464 636 581 636 465 636 465 637 581 637 582 637 465 638 582 638 473 638 473 639 582 639 583 639 473 640 583 640 530 640 584 641 499 641 585 641 585 642 499 642 498 642 585 643 498 643 586 643 586 644 498 644 497 644 586 645 497 645 587 645 587 646 497 646 513 646 587 647 513 647 588 647 588 648 513 648 512 648 588 649 512 649 589 649 589 650 512 650 511 650 589 651 511 651 590 651 590 652 511 652 510 652 590 653 510 653 591 653 591 654 510 654 519 654 591 655 519 655 592 655 592 656 519 656 518 656 592 657 518 657 593 657 593 658 518 658 517 658 593 659 517 659 594 659 594 660 517 660 516 660 594 660 516 660 595 660 595 661 516 661 515 661 595 662 515 662 596 662 596 663 515 663 514 663 596 664 514 664 597 664 597 665 514 665 509 665 597 666 509 666 598 666 598 667 509 667 508 667 598 668 508 668 599 668 599 669 508 669 507 669 599 670 507 670 600 670 600 671 507 671 506 671 600 672 506 672 601 672 601 673 506 673 505 673 601 674 505 674 602 674 602 675 505 675 504 675 602 676 504 676 603 676 603 677 504 677 503 677 603 678 503 678 604 678 604 679 503 679 502 679 604 679 502 679 605 679 605 680 502 680 501 680 605 680 501 680 606 680 606 681 501 681 493 681 606 682 493 682 607 682 607 683 493 683 492 683 607 684 492 684 608 684 608 685 492 685 491 685 608 686 491 686 609 686 609 687 491 687 523 687 609 688 523 688 610 688 610 689 523 689 522 689 610 690 522 690 611 690 611 691 522 691 521 691 611 692 521 692 612 692 612 693 521 693 520 693 612 694 520 694 613 694 613 695 520 695 529 695 613 696 529 696 614 696 614 697 529 697 528 697 614 697 528 697 615 697 615 698 528 698 527 698 615 699 527 699 616 699 616 700 527 700 526 700 616 701 526 701 617 701 617 702 526 702 525 702 617 703 525 703 618 703 618 704 525 704 524 704 618 705 524 705 619 705 619 706 524 706 496 706 619 707 496 707 620 707 620 708 496 708 495 708 620 709 495 709 621 709 621 710 495 710 494 710 621 711 494 711 622 711 622 712 494 712 500 712 622 713 500 713 584 713 584 714 500 714 499 714 623 715 624 715 557 715 625 716 560 716 624 716 624 717 560 717 558 717 624 718 558 718 557 718 626 719 562 719 625 719 625 720 562 720 561 720 625 721 561 721 560 721 627 722 559 722 626 722 626 723 559 723 563 723 626 724 563 724 562 724 628 725 565 725 627 725 627 726 565 726 564 726 627 727 564 727 559 727 629 728 567 728 628 728 628 729 567 729 566 729 628 730 566 730 565 730 630 731 569 731 629 731 629 732 569 732 568 732 629 733 568 733 567 733 631 734 571 734 630 734 630 735 571 735 570 735 630 736 570 736 569 736 632 737 573 737 631 737 631 738 573 738 572 738 631 739 572 739 571 739 633 740 575 740 632 740 632 741 575 741 574 741 632 742 574 742 573 742 634 743 577 743 633 743 633 744 577 744 576 744 633 745 576 745 575 745 635 746 579 746 634 746 634 747 579 747 578 747 634 748 578 748 577 748 636 749 581 749 635 749 635 750 581 750 580 750 635 751 580 751 579 751 637 752 583 752 636 752 636 753 583 753 582 753 636 754 582 754 581 754 638 755 531 755 637 755 637 756 531 756 530 756 637 757 530 757 583 757 639 758 533 758 638 758 638 759 533 759 532 759 638 760 532 760 531 760 640 761 535 761 639 761 639 762 535 762 534 762 639 763 534 763 533 763 641 764 538 764 640 764 640 765 538 765 536 765 640 766 536 766 535 766 642 767 539 767 641 767 641 768 539 768 537 768 641 769 537 769 538 769 643 770 541 770 642 770 642 771 541 771 540 771 642 772 540 772 539 772 644 773 544 773 643 773 643 774 544 774 543 774 643 775 543 775 541 775 645 776 546 776 644 776 644 777 546 777 545 777 644 778 545 778 544 778 646 779 549 779 645 779 645 780 549 780 542 780 645 781 542 781 546 781 647 782 547 782 646 782 646 783 547 783 550 783 646 784 550 784 549 784 648 785 551 785 647 785 647 786 551 786 548 786 647 787 548 787 547 787 649 788 553 788 648 788 648 789 553 789 552 789 648 790 552 790 551 790 557 791 556 791 623 791 623 791 556 791 555 791 623 792 555 792 649 792 649 793 555 793 554 793 649 794 554 794 553 794 638 795 588 795 639 795 639 795 588 795 589 795 639 795 589 795 640 795 636 795 585 795 637 795 637 796 585 796 586 796 637 795 586 795 638 795 638 797 586 797 587 797 638 795 587 795 588 795 623 798 605 798 624 798 624 799 605 799 606 799 624 800 606 800 625 800 647 795 601 795 648 795 648 801 601 801 602 801 648 795 602 795 649 795 649 802 602 802 603 802 649 803 603 803 623 803 623 804 603 804 604 804 623 795 604 795 605 795 634 795 621 795 635 795 635 795 621 795 622 795 635 795 622 795 636 795 636 805 622 805 584 805 636 806 584 806 585 806 643 807 595 807 644 807 644 795 595 795 596 795 644 808 596 808 645 808 606 809 607 809 625 809 625 810 607 810 608 810 625 795 608 795 626 795 626 811 608 811 609 811 626 795 609 795 627 795 596 795 597 795 645 795 645 812 597 812 598 812 645 795 598 795 646 795 646 795 598 795 599 795 646 795 599 795 647 795 647 813 599 813 600 813 647 814 600 814 601 814 589 795 590 795 640 795 640 795 590 795 591 795 640 815 591 815 641 815 641 795 591 795 592 795 641 816 592 816 642 816 642 817 592 817 593 817 642 795 593 795 643 795 643 795 593 795 594 795 643 795 594 795 595 795 629 818 614 818 630 818 630 795 614 795 615 795 630 819 615 819 631 819 631 795 615 795 616 795 631 820 616 820 632 820 616 821 617 821 632 821 632 795 617 795 618 795 632 822 618 822 633 822 633 795 618 795 619 795 633 795 619 795 634 795 634 823 619 823 620 823 634 795 620 795 621 795 609 795 610 795 627 795 627 795 610 795 611 795 627 795 611 795 628 795 628 824 611 824 612 824 628 795 612 795 629 795 629 795 612 795 613 795 629 795 613 795 614 795</p>
        </triangles>
      </mesh>
    </geometry>
  </library_geometries>
  <library_visual_scenes>
    <visual_scene id="Scene" name="Scene">
      <node id="Link6" name="Link6" type="NODE">
        <matrix sid="transform">1 0 0 0 0 1 0 0 0 0 1 0 0 0 0 1</matrix>
        <instance_geometry url="#Link6-mesh" name="Link6">
          <bind_material>
            <technique_common>
              <instance_material symbol="black-material" target="#black-material"/>
            </technique_common>
          </bind_material>
        </instance_geometry>
      </node>
    </visual_scene>
  </library_visual_scenes>
  <scene>
    <instance_visual_scene url="#Scene"/>
  </scene>
</COLLADA>