<?xml version="1.0" encoding="utf-8"?>
<COLLADA xmlns="http://www.collada.org/2005/11/COLLADASchema" version="1.4.1" xmlns:xsi="http://www.w3.org/2001/XMLSchema-instance">
  <asset>
    <contributor>
      <author>Blender User</author>
      <authoring_tool>Blender 2.82.7</authoring_tool>
    </contributor>
    <created>2024-02-04T15:12:53</created>
    <modified>2024-02-04T15:12:53</modified>
    <unit name="meter" meter="1"/>
    <up_axis>Z_UP</up_axis>
  </asset>
  <library_effects>
    <effect id="Material_008-effect">
      <profile_COMMON>
        <technique sid="common">
          <lambert>
            <emission>
              <color sid="emission">0 0 0 1</color>
            </emission>
            <diffuse>
              <color sid="diffuse">0.0118336 0.0118336 0.0118336 1</color>
            </diffuse>
            <index_of_refraction>
              <float sid="ior">1.45</float>
            </index_of_refraction>
          </lambert>
        </technique>
      </profile_COMMON>
    </effect>
  </library_effects>
  <library_images/>
  <library_materials>
    <material id="Material_008-material" name="Material.008">
      <instance_effect url="#Material_008-effect"/>
    </material>
  </library_materials>
  <library_geometries>
    <geometry id="Link6-mesh" name="Link6">
      <mesh>
        <source id="Link6-mesh-positions">
          <float_array id="Link6-mesh-positions-array" count="1884">0.07501685 -0.005076766 0.003264963 0.07501685 -0.005825281 0.001456916 0.07501685 0 -1.5625e-5 0.07501685 -0.006021559 -3.04016e-4 0.07501685 -0.003267943 0.005041837 0.07501685 -0.001185476 0.005911529 0.07501685 9.68212e-4 0.005914449 0.07501685 0.002521693 0.005457639 0.07501685 0.004214167 0.00429207 0.07501685 0.005865931 0.001341164 0.07501685 0.005287468 0.00283873 0.07501685 0.00595349 -0.001061201 0.07501685 0.004881322 -0.003580808 0.07501685 0.003392159 -0.004973828 0.07501685 0.001522123 -0.005865395 0.07501685 -5.12512e-4 -0.005983829 0.07501685 -0.003101229 -0.005160689 0.07501685 -0.001855492 -0.005729317 0.07501685 -0.004453063 -0.004075586 0.07501685 -0.005558431 -0.002343058 0.08001685 0.005997955 3.25562e-4 0.08001685 0.005764484 0.001676082 0.08001685 0.00523132 0.002938091 0.08001685 0.003947436 0.00456202 0.08001685 0.002180635 0.005582213 0.08001685 8.55249e-4 0.005930721 0.08001685 -5.12511e-4 0.005952596 0.08001685 -0.002524971 0.005476236 0.08001685 -0.004454731 0.004042685 0.08001685 -0.005390524 0.002636015 0.08001685 -0.0058344 0.001341164 0.08001685 -0.006019473 -2.0752e-5 0.08001685 -0.005851447 -0.001375615 0.08001685 -0.005237102 -0.002996623 0.08001685 -0.004174649 -0.004311382 0.08001685 -0.003102838 -0.005159676 0.08001685 -0.001857161 -0.00572884 0.08001685 -8.53787e-4 -0.005954504 0.08001685 1.71236e-4 -0.006020724 0.08001685 0.001867473 -0.00573939 0.08001685 0.003390491 -0.00497502 0.08001685 0.004519462 -0.003934681 0.08001685 0.005533516 -0.002354741 0.08001685 0.005919516 -0.001040697 0.08001685 -0.01845675 0.02300769 0.08001685 -0.02014672 0.0215612 0.08001685 -0.007518351 0.02135282 0.08001685 0.0289846 0.005517542 0.08001685 0.02852737 0.007497191 0.08001685 0.007518529 0.007502853 0.08001685 0.007518529 -0.007534027 0.08001685 0.02852737 -0.007528364 0.08001685 0.02912229 -0.004845976 0.08001685 0.02939999 0.002507328 0.08001685 0.02949291 -0.001504659 0.08001685 0.01045018 -0.009168028 0.08001685 0.01096916 -0.009050846 0.08001685 0.01251667 -0.01274526 0.08001685 0.01200938 -0.01306271 0.08001685 0.0256735 -0.01454573 0.08001685 0.01163208 -0.0131933 0.08001685 0.0112369 -0.01325017 0.08001685 0.01083815 -0.01323109 0.08001685 0.007518529 -0.01325905 0.08001685 0.01045018 -0.01313698 0.08001685 0.01008701 -0.01297116 0.08001685 0.009658575 -0.01265561 0.08001685 0.01235514 -0.009441912 0.08001685 0.01265686 -0.009703338 0.08001685 0.01297909 -0.01012694 0.08001685 0.01304095 -0.01205801 0.08001685 0.00932765 -0.0100702 0.08001685 0.0098598 -0.009475052 0.08001685 0.01163208 -0.009111702 0.08001685 0.01200938 -0.009242296 0.08001685 0.01319903 -0.01075512 0.08001685 0.02794736 -0.009485483 0.08001685 0.009270429 -0.01211476 0.08001685 0.009109973 -0.01170796 0.08001685 0.01323461 -0.01135396 0.08001685 0.02683115 -0.01229703 0.08001685 0.009064733 -0.01076549 0.08001685 0.02426314 -0.01683902 0.08001685 0.01547098 -0.02518224 0.08001685 0.0209276 -0.02086591 0.08001685 0.007694602 -0.02852922 0.08001685 0.01204264 -0.02695453 0.08001685 0 -0.0132656 0.08001685 6.49098e-4 -0.01334381 0.08001685 0.004250049 -0.01325905 0.08001685 -0.00424987 -0.01325905 0.08001685 -6.48582e-4 -0.01334369 0.08001685 -1.4022e-4 -0.01826989 0.08001685 -0.002657949 -0.02942287 0.08001685 0.001988112 -0.02946937 0.08001685 8.65264e-4 -0.01813775 0.08001685 -0.002053618 -0.01432728 0.08001685 -0.001428365 -0.01372545 0.08001685 0.005288839 -0.02903765 0.08001685 -9.88242e-4 -0.01807081 0.08001685 -0.00528866 -0.02903765 0.08001685 -0.001720607 -0.0175907 0.08001685 -0.002367079 -0.01662969 0.08001685 -0.002482414 -0.01533269 0.08001685 0.002377927 -0.0166158 0.08001685 0.001824915 -0.01748657 0.08001685 0.001791298 -0.01396059 0.08001685 0.002484619 -0.01531404 0.08001685 -0.006896615 -0.02871155 0.08001685 -0.007518351 -0.01325905 0.08001685 -0.01087021 -0.02746152 0.08001685 -0.02080571 -0.02099931 0.08001685 -0.01549118 -0.02516931 0.08001685 -0.02402281 -0.01725327 0.08001685 -0.02136832 -0.01325905 0.08001685 -0.02136832 -0.007534027 0.08001685 -0.0273981 -0.01113641 0.08001685 -0.02909862 0.005088329 0.08001685 -0.02951407 -2.62451e-6 0.08001685 -0.02136832 0.007502853 0.08001685 -0.02925455 -0.004137098 0.08001685 -0.02722311 0.0114625 0.08001685 -0.02215826 0.01945883 0.08001685 -0.0246874 0.0162127 0.08001685 -0.01145434 0.01320457 0.08001685 -0.0107057 0.01318508 0.08001685 -0.0120092 0.009211063 0.08001685 -0.01246553 0.00948441 0.08001685 -0.009761571 0.009534239 0.08001685 -0.01008677 0.009302616 0.08001685 -0.007518351 0.007502853 0.08001685 -0.0113697 0.009025871 0.08001685 -0.01290345 0.009985923 0.08001685 -0.01313966 0.01046276 0.08001685 -0.01057416 0.009089469 0.08001685 -0.0121901 0.01294636 0.08001685 -0.01008677 0.01293998 0.08001685 -0.009761571 0.01270836 0.08001685 -0.01323682 0.01112133 0.08001685 -0.01317775 0.01165008 0.08001685 -0.009109556 0.01057213 0.08001685 -0.00927025 0.01015901 0.08001685 -0.009486079 0.009823143 0.08001685 -0.01283502 0.01237076 0.08001685 -0.009400486 0.01231729 0.08001685 -0.009121894 0.0117129 0.08001685 -0.009037792 0.01127451 0.08001685 -0.01059591 0.02752441 0.08001685 -0.01471906 0.02559953 0.08001685 -0.00424987 0.02135282 0.08001685 -0.006491303 0.02880644 0.08001685 0.004211664 0.029226 0.08001685 -7.32344e-4 0.02949875 0.08001685 0.004250049 0.02135282 0.08001685 0.007518529 0.02135282 0.08001685 0.02003866 0.02163398 0.08001685 0.01680934 0.02428084 0.08001685 0.01297539 0.02648717 0.08001685 0.009306132 0.02800983 0.08001685 0.0132417 0.01101827 0.08001685 0.0130819 0.01030743 0.08001685 0.01264029 0.009643077 0.08001685 0.01209926 0.009254753 0.08001685 0.01172864 0.009106338 0.08001685 0.01133662 0.009030818 0.08001673 0.01083129 0.009033203 0.08001685 0.01017475 0.009254753 0.08001685 0.00973159 0.009549736 0.08001685 0.00968784 0.01264113 0.08001685 0.01000165 0.01288789 0.08001685 0.01035654 0.01307088 0.08001685 0.01073956 0.01318335 0.08001685 0.01124829 0.01322609 0.08001685 0.009248316 0.0101844 0.08001685 0.009058356 0.01082241 0.08001685 0.009041607 0.01135414 0.08001685 0.009226799 0.0119937 0.08001685 0.009426414 0.01233947 0.08001685 0.01191753 0.01307088 0.08001685 0.01227235 0.01288789 0.08001685 0.02148979 0.02020639 0.08001685 0.01268529 0.01255232 0.08001685 0.0234428 0.01790589 0.08001685 0.01310628 0.01187431 0.08001685 0.02516072 0.01540142 0.08001685 0.02661257 0.01273262 0.08001685 0.02778255 0.009928107 0.08001685 -0.00424987 0.007502853 0.08001685 -0.007518351 -0.007534027 0.08001685 -0.00424987 -0.007534027 0.08001685 0.004250049 -0.007534027 0.08001685 0.004250049 0.007502853 0.08001685 -0.009145498 -0.01184183 0.08001685 -0.009499907 -0.01248127 0.08001685 -0.01191729 -0.01310211 0.08001685 -0.01227217 -0.01291918 0.08001685 -0.01011103 -0.01299446 0.08001673 -0.0108307 -0.009064435 0.08001685 -0.01017451 -0.009285986 0.08001685 -0.009731531 -0.00958085 0.08001685 -0.01073938 -0.01321458 0.08001685 -0.01113682 -0.01325255 0.08001685 -0.01153421 -0.01321458 0.08001685 -0.01308172 -0.01033866 0.08001685 -0.01272386 -0.009777307 0.08001685 -0.01233309 -0.00941646 0.08001685 -0.009248077 -0.01021564 0.08001685 -0.00903517 -0.01098465 0.08001685 -0.01268512 -0.01258355 0.08001685 -0.01310604 -0.01190561 0.08001685 -0.01324474 -0.01112651 0.08001685 -0.01169198 -0.009125351 0.0740168 3.24409e-4 -0.01330465 0.0740168 0.001428544 -0.01372545 0.0740168 0.002308785 -0.01469969 0.0740168 0.002480924 -0.01620787 0.0740168 0.001870214 -0.01746404 0.0740168 0.001052558 -0.01802265 0.0740168 2.16892e-4 -0.01824653 0.0740168 -0.001178622 -0.01801985 0.0740168 -0.002308607 -0.01683163 0.0740168 -0.002453684 -0.01509821 0.0740168 -0.001505434 -0.01380246 0.0740168 -6.48945e-4 -0.01334381 0.0675168 0.009046494 -0.01135212 0.0675168 0.009046494 -0.01095288 0.0675168 0.009122073 -0.0117442 0.0675168 0.009270429 -0.01211476 0.0675168 0.009486317 -0.01245063 0.0675168 0.00976181 -0.01273959 0.0675168 0.01008701 -0.01297116 0.0675168 0.01045018 -0.01313698 0.0675168 0.01083815 -0.01323109 0.0675168 0.0112369 -0.01325017 0.0675168 0.01163208 -0.0131933 0.0675168 0.01200938 -0.01306271 0.0675168 0.01246571 -0.01278948 0.0675168 0.01299512 -0.01211047 0.0675168 0.01319903 -0.01154994 0.0675168 0.01321804 -0.01095384 0.0675168 0.01299512 -0.01019459 0.0675168 0.01265686 -0.009703338 0.0675168 0.01235514 -0.009441912 0.0675168 0.01200938 -0.009242296 0.0675168 0.01163208 -0.009111702 0.0675168 0.0112369 -0.009054899 0.0675168 0.01083815 -0.009073913 0.0675168 0.01045018 -0.009168028 0.0675168 0.01008701 -0.009333848 0.0675168 0.00976181 -0.009565472 0.0675168 0.009486317 -0.009854376 0.0675168 0.009270429 -0.01019024 0.0675168 0.009122073 -0.01056087 0.0675168 -0.01133644 -0.009062051 0.0675168 -0.01093721 -0.009062051 0.0675168 -0.01172846 -0.00913757 0.0675168 -0.01209908 -0.009285986 0.0675168 -0.01243495 -0.009501814 0.0675168 -0.01272386 -0.009777307 0.0675168 -0.01303839 -0.01028406 0.0675168 -0.01321542 -0.01085364 0.0675168 -0.013206 -0.01145005 0.0675168 -0.0129472 -0.01219773 0.0675168 -0.01258599 -0.01267236 0.0675168 -0.01227217 -0.01291918 0.0675168 -0.01191729 -0.01310211 0.0675168 -0.01153421 -0.01321458 0.0675168 -0.01113682 -0.01325255 0.0675168 -0.01073938 -0.01321458 0.0675168 -0.0103563 -0.01310211 0.0675168 -0.01000148 -0.01291918 0.0675168 -0.009687662 -0.01267236 0.0675168 -0.009426176 -0.01237064 0.0675168 -0.00922656 -0.01202487 0.0675168 -0.009096026 -0.01164764 0.0675168 -0.009039163 -0.0112524 0.0675168 -0.009058177 -0.01085364 0.0675168 -0.009152293 -0.01046568 0.0675168 -0.009318172 -0.01010251 0.0675168 -0.009549736 -0.009777307 0.0675168 -0.00983864 -0.009501814 0.0675168 -0.01017451 -0.009285986 0.0675168 -0.01054519 -0.00913757 0.0675168 -0.009046316 0.01092165 0.0675168 -0.009046316 0.01132088 0.0675168 -0.009121894 0.0117129 0.0675168 -0.00927025 0.01208359 0.0675168 -0.009486079 0.0124194 0.0675168 -0.009761571 0.01270836 0.0675168 -0.01008683 0.01293998 0.0675168 -0.01064395 0.01315289 0.0675168 -0.01143431 0.0131905 0.0675168 -0.0120092 0.01303154 0.0675168 -0.01250576 0.01270115 0.0675168 -0.01299488 0.01207917 0.0675168 -0.01319885 0.01151871 0.0675168 -0.01323682 0.01112133 0.0675168 -0.01314264 0.01053231 0.0675168 -0.01290345 0.009985923 0.0675168 -0.01265662 0.009672164 0.0675168 -0.01235491 0.009410679 0.0675168 -0.0120092 0.009211063 0.0675168 -0.0116319 0.009080469 0.0675168 -0.01123672 0.009023666 0.0675168 -0.01083797 0.00904268 0.0675168 -0.01044994 0.009136795 0.0675168 -0.01008683 0.009302616 0.0675168 -0.009761571 0.009534239 0.0675168 -0.009486079 0.009823143 0.0675168 -0.00927025 0.01015901 0.0675168 -0.009121894 0.01052963 0.0675168 0.01133662 0.009030818 0.0675168 0.01093739 0.009030818 0.0675168 0.01172864 0.009106338 0.0675168 0.01209926 0.009254753 0.0675168 0.01243513 0.009470641 0.0675168 0.0127241 0.009746074 0.0675168 0.01303857 0.01025289 0.0675168 0.01321566 0.01082241 0.0675168 0.01320624 0.01141881 0.0675168 0.01304721 0.0119937 0.0675168 0.01271688 0.01249033 0.0675168 0.01227235 0.01288789 0.0675168 0.01191747 0.01307088 0.0675168 0.01133573 0.0132023 0.0675168 0.01073956 0.01318335 0.0675168 0.01035654 0.01307088 0.0675168 0.01000165 0.01288789 0.0675168 0.00968784 0.01264113 0.0675168 0.009426414 0.01233947 0.0675168 0.009226799 0.0119937 0.0675168 0.009096205 0.01161634 0.0675168 0.009039402 0.01122123 0.0675168 0.009058356 0.01082241 0.0675168 0.009152531 0.0104345 0.0675168 0.009318351 0.01007133 0.0675168 0.009549915 0.009746074 0.0675168 0.009838879 0.009470641 0.0675168 0.01017475 0.009254753 0.0675168 0.01054537 0.009106338 0.0675168 0.01224517 0.02119344 0.0675168 -0.01072067 0.0219863 0.0675168 -0.01482266 0.0194593 0.0675168 -0.02070337 0.01306664 0.0675168 -0.0181241 0.01639664 0.0675168 0.02440136 0.002064406 0.0675168 0.02450007 -1.5625e-5 0.0675168 0.008802533 0.02281957 0.0675168 0.006508409 0.02360409 0.0675168 0.02102619 -0.0126146 0.0675168 -0.02402061 0.004806578 0.0675168 -0.01510882 -0.0192905 0.0675168 0.02427351 -0.003138005 0.0675168 0.01342546 -0.02049797 0.0675168 0.0185815 -0.01590836 0.0675168 0.01563441 -0.01886665 0.0675168 0.02387475 -0.005515575 0.0675168 0.02331602 -0.007508754 0.0675168 0.02231621 -0.0101031 0.0675168 0.02392387 0.005140125 0.0675168 0.02285116 0.008793175 0.0675168 0.02170979 0.01131832 0.0675168 0.02029043 0.01369822 0.0675168 0.01454442 0.01968896 0.0675168 0.01765078 0.01690578 0.0675168 -0.007830977 0.02318876 0.0675168 -0.005159437 0.02392488 0.0675168 -0.02433329 0.002750933 0.0675168 -1.73246e-4 0.02448314 0.0675168 0.002761483 0.02430158 0.0675168 0.007496535 -0.02331221 0.0675168 0.005161702 0.02393448 0.0675168 -0.002421855 0.02435445 0.0675168 -0.02202165 0.01069945 0.0675168 -0.02340024 0.007150411 0.0675168 -0.02413779 -0.004154443 0.0675168 -0.02445143 -0.001401424 0.0675168 -0.02449005 6.77734e-4 0.0675168 -0.02340102 -0.007178664 0.0675168 -0.01284027 -0.02086973 0.0675168 -0.0104022 -0.02218675 0.0675168 -0.007830977 -0.02321994 0.0675168 0.01102566 -0.02188354 0.0675168 -0.005162119 -0.02395635 0.0675168 -0.003111779 -0.02431714 0.0675168 -0.0204665 -0.01343345 0.0675168 -0.02202188 -0.01073092 0.0675168 -0.0179063 -0.01669746 0.0675168 0.004465103 -0.02409642 0.0675168 0.001731455 -0.02444452 0.0675168 -0.001039266 -0.02448368 0.06835657 0.02501136 6.72607e-4 0.06838023 0.0248757 -0.002615153 0.06840783 0.02441912 -0.005428969 0.06840974 0.02344453 -0.008770883 0.06840288 0.02210837 -0.01167809 0.06839329 0.0210604 -0.01350706 0.06836229 0.01951086 -0.01565414 0.06835627 0.01825553 -0.01710438 0.06836777 0.01675313 -0.01857948 0.06843197 0.01481646 -0.02014279 0.06833654 0.01204729 -0.02194088 0.06842583 0.009876728 -0.02297908 0.06846207 0.007865548 -0.02373737 0.06844294 0.005268931 -0.02444446 0.06837427 0.00208503 -0.02494847 0.06838643 -2.8879e-4 -0.02501779 0.0683636 -0.002074658 -0.02493309 0.06837689 -0.006573259 -0.02413046 0.06837499 -0.01001095 -0.02295231 0.06837952 -0.01295119 -0.0214132 0.0684331 -0.01534789 -0.01974081 0.06836414 -0.01749807 -0.01788455 0.06837415 -0.01926422 -0.0159415 0.06843584 -0.02069252 -0.01403653 0.06837964 -0.02322143 -0.009307682 0.06840521 -0.02408033 -0.006778955 0.06838887 -0.02471506 -0.00385183 0.06837373 -0.02498918 -0.001028597 0.06839317 -0.02494883 0.001739501 0.06836986 -0.02472418 0.003701269 0.06838029 -0.02429962 0.005906045 0.06838226 -0.02343237 0.008746504 0.06837773 -0.02207577 0.01174408 0.06837517 -0.02095067 0.01363009 0.06834965 -0.01970767 0.01538217 0.06838822 -0.01798218 0.01737117 0.06838774 -0.0163806 0.01887398 0.06837964 -0.01291382 0.02139776 0.06838947 -0.01468467 0.02022898 0.06843632 -0.01115924 0.02235275 0.06840479 -0.009392917 0.02316546 0.06836253 -0.006865799 0.02402746 0.06837451 -0.004835128 0.0245161 0.06838762 -0.002816319 0.02483242 0.06838375 -3.2533e-4 0.02499169 0.06839102 0.002323746 0.02488762 0.0683785 0.005479454 0.02438241 0.06838268 0.004187107 0.0246312 0.06838506 0.007332146 0.0238862 0.06838661 0.009243845 0.02322572 0.06839001 0.01214075 0.02185249 0.06838065 0.01631933 0.01892662 0.06838893 0.0146178 0.02027904 0.06837481 0.01845759 0.01688945 0.06837183 0.02079212 0.013897 0.06839269 0.02196055 0.01193761 0.06835329 0.02312844 0.009520053 0.06838858 0.02404522 0.00684905 0.06840264 0.02467554 0.00410825 0.06853061 -0.02203601 -0.01184684 0.0684179 -0.004230022 -0.02466136 0.07751631 -9.45075e-4 -0.02500236 0.07719576 -0.00287801 -0.02485728 0.07751631 -0.00433284 -0.02463912 0.07751613 -0.007261931 -0.0239517 0.07751625 -0.01011908 -0.02289003 0.07751566 -0.01248013 -0.02169322 0.07751619 -0.01494091 -0.02007734 0.07751631 -0.01727646 -0.01811075 0.07751625 -0.0187183 -0.01658761 0.0775159 -0.02059739 -0.01420706 0.07751584 -0.02205556 -0.01180833 0.07751625 -0.02326035 -0.009213745 0.07751643 -0.02403956 -0.00690025 0.07751601 -0.0246855 -0.004058599 0.07751619 -0.02498519 -0.001071453 0.07727873 -0.02496618 0.001328408 0.07751637 -0.02483904 0.002863585 0.07702374 -0.02451461 0.004910945 0.07751613 -0.02409934 0.006646096 0.07719939 -0.02364063 0.00811845 0.07751631 -0.02282261 0.01022309 0.0775159 -0.0215612 0.01267045 0.07751631 -0.02028876 0.0145955 0.07724136 -0.01880556 0.01646935 0.07751661 -0.01689797 0.01841843 0.07751607 -0.01480132 0.02015227 0.07751643 -0.01281291 0.02145814 0.07722771 -0.01101058 0.02243196 0.07751595 -0.00968784 0.02303373 0.07751613 -0.007899582 0.0237177 0.07751637 -0.005472004 0.02438521 0.07701367 -0.003609299 0.02472817 0.07751637 -0.002227425 0.02488744 0.0772835 -5.04599e-4 0.0249837 0.07723534 0.00136429 0.02495414 0.0775159 0.003154456 0.02477985 0.07751601 0.005166471 0.02445 0.07716512 0.006995201 0.02399146 0.07751619 0.008447647 0.02351593 0.07721984 0.009833097 0.02297395 0.07751637 0.01171219 0.02207702 0.07727497 0.01332044 0.02114856 0.07751637 0.01458168 0.02029329 0.07723414 0.01567292 0.01946771 0.07751631 0.01738578 0.0179553 0.0775159 0.01906645 0.01617491 0.07751625 0.02087855 0.01377046 0.07751625 0.02202528 0.01182222 0.07751566 0.02311652 0.009532928 0.07751643 0.02397805 0.007071018 0.07751619 0.02455806 0.004744529 0.07751631 0.02498179 0.001512825 0.07751637 0.0249738 -0.001219928 0.07715499 0.02478307 -0.003384292 0.0775159 0.0243954 -0.00551033 0.07751625 0.02382153 -0.007626175 0.07718223 0.02288359 -0.01010727 0.07751637 0.02189588 -0.01209139 0.07751578 0.02064138 -0.01415342 0.07751619 0.01934975 -0.01584821 0.07716107 0.01794844 -0.01741319 0.07751601 0.01649308 -0.01881164 0.07751619 0.01413351 -0.02066975 0.07751631 0.01140171 -0.02227085 0.07726144 0.009563565 -0.02311873 0.07751631 0.00837475 -0.02357333 0.07722204 0.006870925 -0.02406066 0.07751607 0.004852056 -0.02454656 0.07751595 0.002105772 -0.024944 0.07751685 5.69272e-4 0.0294575 0.07751685 0.00602436 0.0288127 0.07751685 -0.005835294 0.02883225 0.07751685 -0.01179367 0.02697092 0.07751685 -0.01582717 0.02486753 0.07751685 -0.0191701 0.02237111 0.07751685 -0.004538118 -0.02915453 0.07751685 -0.008956372 -0.02807176 0.07751685 -3.79178e-4 -0.02948617 0.07751685 0.004532337 -0.02911585 0.07751685 -0.02261483 0.01885056 0.07751685 0.01038902 -0.02757346 0.07751685 0.01944231 -0.02213728 0.07751685 0.02334421 -0.01800769 0.07751685 0.02599596 -0.01385688 0.07751685 0.01549685 -0.0250858 0.07751685 0.02827757 -0.008246719 0.07751685 0.02188581 0.01972466 0.07751685 0.02524894 0.01514559 0.07751685 0.01195913 0.0268774 0.07751685 0.02744233 0.01073545 0.07751685 0.02876996 0.006384253 0.07751685 0.0182777 0.0230776 0.07751685 -0.02507025 -0.01551204 0.07751685 -0.02161359 -0.02002096 0.07751685 -0.01418548 -0.02585029 0.07751685 0.02936339 -0.00228846 0.07751685 -0.02715635 -0.01146936 0.07751685 -0.02866357 -0.006780147 0.07751685 -0.01799225 -0.02335947 0.07751685 -0.02599573 0.01382571 0.07751685 -0.02795922 0.009308516 0.07751685 0.02940237 0.002260267 0.07751685 -0.02920722 0.003765821 0.07751685 -0.02945101 -0.001153528 0.07802242 0.03002488 -1.69739e-4 0.07802444 0.02953678 -0.005547225 0.07802355 0.02803617 -0.01077884 0.07802242 0.02605426 -0.01493841 0.07802438 0.0229808 -0.01937788 0.07801675 0.01933163 -0.02298408 0.07802271 0.01568132 -0.02563101 0.07801675 0.009391844 -0.02858424 0.07802349 0.00367558 -0.02982097 0.07802635 -0.002044856 -0.03001701 0.07801002 -0.008886337 -0.02873837 0.07801938 -0.0141226 -0.02650308 0.07801848 -0.01812756 -0.02398729 0.07801616 -0.02285474 -0.01951974 0.07801765 -0.02593976 -0.01514726 0.07801735 -0.02764594 -0.01169371 0.07801651 -0.02887356 -0.008271455 0.07801735 -0.02982622 -0.003462851 0.07801741 -0.03000897 3.54919e-4 0.07801741 -0.02972066 0.004246652 0.07801622 -0.02859425 0.009222507 0.07801258 -0.02627307 0.01453661 0.0780211 -0.02253228 0.01988238 0.07801437 -0.01879727 0.02338773 0.07802337 -0.01408469 0.02654659 0.07801067 -0.00796163 0.02896839 0.07801985 -0.00140053 0.03000193 0.0780121 0.004043817 0.02970176 0.07802057 0.008016586 0.02886521 0.07801687 0.01383936 0.02665698 0.07801675 0.01965737 0.02274328 0.07801574 0.02431648 0.01763236 0.07802248 0.02658921 0.0139029 0.07802242 0.02814918 0.01043123 0.07801687 0.02964037 0.004924774 0.07951176 1.58781e-4 -0.0300461 0.0795319 -0.005265772 -0.02962052 0.07951015 -0.01114511 -0.027902 0.07951593 -0.01477396 -0.02614825 0.07951498 -0.01877784 -0.0234642 0.07951593 -0.02202159 -0.02041733 0.07952988 -0.02528566 -0.01627051 0.07951009 -0.02803599 -0.01077878 0.0795167 -0.02947753 -0.005848407 0.07951456 -0.03002125 -4.63501e-4 0.07950675 -0.02952563 0.005633831 0.07951742 -0.02746719 0.0122146 0.0795179 -0.02431631 0.01763224 0.07951575 -0.02070474 0.02173602 0.07950925 -0.01625096 0.02526116 0.07951676 -0.01102244 0.0279389 0.07952064 -0.004343807 0.02974677 0.07951939 0.001142203 0.02997392 0.07951933 0.004832744 0.02961045 0.07951307 0.008391082 0.02880769 0.07951724 0.01208418 0.02742117 0.07951432 0.01543819 0.02572739 0.07951802 0.01845979 0.02361547 0.07951515 0.02250176 0.01990753 0.07951587 0.02594709 0.01514136 0.07951605 0.02801716 0.01067054 0.07952183 0.02945172 0.005881309 0.07951253 0.03006058 5.59082e-5 0.07952082 0.02953559 -0.005372047 0.07951718 0.02841043 -0.009746968 0.07951736 0.02700418 -0.01306539 0.07951098 0.02478927 -0.01698309 0.07951939 0.02229684 -0.02010363 0.07952547 0.01873719 -0.0235179 0.07951515 0.01284092 -0.02718853 0.07951623 0.008043169 -0.02894318 0.07951623 0.004220604 -0.02972871</float_array>
          <technique_common>
            <accessor source="#Link6-mesh-positions-array" count="628" stride="3">
              <param name="X" type="float"/>
              <param name="Y" type="float"/>
              <param name="Z" type="float"/>
            </accessor>
          </technique_common>
        </source>
        <source id="Link6-mesh-normals">
          <float_array id="Link6-mesh-normals-array" count="3192">1 -2.50143e-6 0 1 1.37966e-6 0 1 7.78447e-6 0 1 -4.35219e-6 0 1 0 0 1 -3.04134e-6 0 1 1.02399e-6 0 1 9.02648e-7 0 1 -4.8175e-6 0 1 -4.76986e-6 0 1 2.34479e-6 0 0.01897627 -0.9991565 -0.03641879 -0.00858438 -0.9853533 -0.1703091 0.005209684 -0.9328079 -0.3603364 -0.002602934 -0.9211671 -0.3891587 0.002779126 -0.8044175 -0.5940579 -0.008360505 -0.7844206 -0.620173 0.01420921 -0.5671276 -0.8235074 -0.01253527 -0.4999865 -0.8659425 0.004655599 -0.2821213 -0.9593675 -0.002604842 -0.2543027 -0.9671213 0.003277957 0.001360356 -0.9999938 0.01036947 -0.01601713 -0.999818 -0.02300435 0.2302865 -0.972851 0.02289587 0.3852666 -0.9225212 -0.01886993 0.5962193 -0.8025999 0.0237717 0.700585 -0.713173 -0.01742017 0.8324558 -0.5538177 0.009869635 0.9239026 -0.3825005 -0.005781352 0.9459505 -0.3242596 -7.50129e-4 0.9938461 -0.1107682 0.007214725 0.9908688 -0.1346367 -0.007385015 0.992372 0.1230587 0.01429295 0.975066 0.2214543 -0.01377302 0.9350011 0.3543773 0.01612085 0.8429193 0.5377985 -0.01366418 0.7777279 0.6284526 0.001923382 0.6259769 0.7798392 4.2352e-5 0.6206027 0.7841253 -4.66596e-5 0.4152698 0.9096983 4.64932e-5 0.4155787 0.9095573 -3.52708e-5 0.1861942 0.9825131 0.009246885 0.2193952 0.9755923 -0.001459002 0.06447184 0.9979186 0.01530778 -0.05812066 0.9981922 -0.01355361 -0.1635913 0.9864352 0.006981849 -0.4303269 0.9026462 5.60177e-5 -0.4485695 0.8937481 -6.06399e-5 -0.6831629 0.730266 0.003005623 -0.6776539 0.7353748 -0.02266728 -0.8413481 0.5400183 0.0240041 -0.9198832 0.3914572 -0.007681429 -0.9594343 0.2818279 -0.007025122 -0.9983322 0.05730211 1 5.86177e-7 0 1 0 0 1 8.17655e-7 0 1 1.76159e-7 0 1 1.33311e-6 0 1 1.22144e-5 0 1 -2.85896e-6 0 1 4.65558e-6 0 1 -2.81336e-6 0 1 3.89573e-6 0 1 6.05697e-6 0 1 -2.99885e-6 0 1 -1.25744e-5 0 1 3.61602e-7 0 1 -4.67564e-6 0 1 -2.81503e-6 0 1 2.06936e-6 0 1 3.88031e-6 0 1 -1.79451e-6 0 1 -7.56097e-6 0 1 -2.94204e-6 0 1 -3.3492e-7 0 1 3.49216e-6 0 1 -2.11779e-6 0 1 2.70665e-6 0 1 2.36413e-7 0 1 3.30949e-6 0 1 3.6567e-6 0 1 -3.07265e-6 0 1 -2.14649e-6 0 1 -2.16183e-6 0 1 1.54743e-6 0 1 2.15004e-5 0 1 8.72618e-6 0 1 3.81516e-6 0 1 -7.00012e-6 0 1 -3.40286e-6 0 1 -7.01106e-6 0 1 -6.02914e-7 0 1 3.96985e-7 0 1 5.10741e-6 0 1 -1.68618e-6 0 1 -3.91726e-6 0 1 -1.83481e-6 0 1 1.77447e-6 0 1 -3.07556e-6 0 1 -1.88477e-5 0 1 1.09e-6 0 1 2.46626e-5 0 1 1.3644e-6 0 1 -2.5535e-6 0 1 6.93567e-6 0 1 1.96598e-5 0 1 5.81618e-7 0 1 2.54997e-6 0 1 -2.50519e-5 0 1 6.02402e-6 0 1 7.95304e-6 0 1 -3.18488e-5 0 1 4.35049e-5 0 1 -8.42708e-7 0 1 -1.49111e-6 0 1 2.99155e-6 0 1 8.54816e-7 0 1 -2.90581e-6 0 1 -1.26522e-6 0 1 1.98496e-6 0 1 -8.13681e-6 0 1 0 0 0.9999999 -2.23517e-4 6.19004e-4 1 1.33913e-4 -1.935e-4 1 -1.78839e-5 0 1 -2.71118e-5 0 1 3.08982e-5 0 1 1.36482e-5 0 1 2.86216e-6 0 1 2.57289e-5 0 1 -4.8957e-6 0 1 1.90366e-5 0 1 -1.60577e-6 0 1 -1.76751e-5 0 1 -1.54728e-6 0 1 -4.03044e-6 0 1 1.65457e-5 0 1 -9.79427e-7 0 1 -2.73521e-6 0 1 -5.09137e-6 0 1 6.31633e-6 0 1 4.55917e-6 0 1 -8.90884e-6 0 1 -6.07906e-6 0 1 8.31944e-6 0 1 2.75943e-6 0 1 -1.10637e-5 0 1 3.84608e-5 0 1 9.43216e-6 0 1 -4.87593e-6 0 1 -1.17213e-4 1.93564e-4 1 6.17119e-7 0 1 -1.28659e-6 0 1 -9.3817e-6 0 1 1.13923e-6 0 1 -1.17909e-6 0 1 6.25785e-7 0 0.9999999 1.56424e-4 -4.73541e-4 1 -1.53087e-5 0 1 3.2878e-6 0 1 9.26849e-6 0 1 1.03304e-5 0 1 -9.50429e-7 0 -1.62317e-6 -0.1196047 -0.9928216 0.01997154 -0.4750657 -0.8797238 -0.01509416 -0.3560609 -0.9343409 0.01858156 -0.7418704 -0.6702858 -0.02059406 -0.8898245 -0.4558379 0.01750713 -0.9933964 -0.1133897 -0.01155441 -0.996589 0.08171272 0.01428687 -0.899253 0.4371955 -0.004360377 -0.8441354 0.5361126 -0.001133203 -0.5614881 0.8274841 -0.001782536 -0.5641497 0.8256706 0.01044112 -0.2587479 0.9658885 -0.003902614 -0.1302994 0.991467 0.01337665 0.1603172 0.986975 0.00101763 0.2284956 0.9735445 -0.01029765 0.548254 0.8362486 0.01616019 0.7245658 0.6890163 -0.01069742 0.829679 0.5581384 0.006731569 0.9960472 0.08857136 0.008033275 0.9964829 0.08341109 -0.01092177 0.919769 -0.3923084 0.02206647 0.8067927 -0.5904224 3.4444e-4 0.6935206 -0.7204368 0.005884408 0.4396948 -0.8981281 -1.079e-5 0.4720965 -0.8815469 1.27974e-5 0.1194838 -0.9928362 0.008675634 0.04016095 -0.9991557 1 1.12803e-5 0 1 -1.05796e-5 0 1 -5.18925e-6 0 1 3.48766e-6 0 1 -4.51507e-6 0 1 1.2664e-5 0 -0.001458287 0.9999989 0 -0.003705263 0.9988447 0.04791355 4.03897e-4 0.9819294 0.1892474 -1.76246e-4 0.9283563 0.3716916 -1.86718e-7 0.9302182 0.3670073 -1.59961e-7 0.8412662 0.5406213 -0.001636743 0.8124555 0.583021 0.001341283 0.7237346 0.6900772 -6.82483e-4 0.5800365 0.8145903 0 0.5930159 0.8051908 0 0.4153832 0.9096465 -1.47487e-7 0.4153832 0.9096465 0 0.235741 0.971816 0 0.2357421 0.9718157 -1.46754e-7 0.04769784 0.9988618 1.32538e-7 0.04769754 0.9988619 0 -0.142331 0.9898192 0 -0.142331 0.9898192 0 -0.3271542 0.944971 0 -0.3271542 0.944971 0 -0.5137303 0.8579518 -8.34018e-4 -0.5304488 0.8477166 0.001041829 -0.7886405 0.6148538 3.72993e-4 -0.7950651 0.6065241 0.002013385 -0.9397189 0.3419423 -0.001416146 -0.964199 0.2651758 0.002342939 -0.9994912 0.03181129 -5.7334e-4 -0.9982441 -0.05923122 0.00302273 -0.9594894 -0.2817286 5.78555e-4 -0.9437966 -0.3305265 0.002013921 -0.8236398 -0.5671098 0 -0.7958952 -0.6054347 1.35782e-7 -0.6548203 -0.7557846 0 -0.654817 -0.7557875 1.22876e-7 -0.5000517 -0.8659955 0 -0.500052 -0.8659954 0 -0.3270189 -0.9450178 0 -0.3270189 -0.9450178 0 -0.142331 -0.9898192 -0.001637279 -0.09140455 -0.9958125 0.001340508 0.0475465 -0.9988682 -6.81926e-4 0.2357409 -0.9718157 0 0.2201462 -0.9754669 0 0.4153832 -0.9096465 -0.001636028 0.4614316 -0.8871743 0.001342833 0.5801367 -0.8145182 -6.82606e-4 0.7237321 -0.6900808 -0.002047359 0.7454844 -0.66652 0.001340091 0.8412211 -0.5406898 -6.81625e-4 0.9283773 -0.3716387 -0.001499652 0.9353514 -0.3537167 0.001405835 0.9819278 -0.1892505 -1.90404e-4 0 -1 -0.003044128 0.07054668 -0.9975039 4.07335e-4 0.1891183 -0.9819543 -1.77737e-4 0.371783 -0.9283197 -0.001764655 0.4134849 -0.9105093 0.001337707 0.5406024 -0.8412773 -6.82734e-4 0.6900895 -0.7237237 0 0.6783918 -0.7347004 0 0.8496758 -0.5273055 5.76476e-4 0.8432404 -0.5375363 0.002014338 0.9549279 -0.2968312 -0.002125024 0.9792443 -0.2026724 0.002691447 0.999872 0.01577836 -0.00148493 0.9845149 0.1752948 0.004363358 0.9449846 0.3270859 -0.001532554 0.8495555 0.5274972 0.002009093 0.7957165 0.6056659 -6.80203e-4 0.6182161 0.786008 -1.25376e-7 0.6306941 0.7760316 0 0.4581903 0.8888542 -1.21425e-7 0.45819 0.8888543 0 0.2817556 0.9594863 0 0.2817559 0.9594861 0 0.09509015 0.9954687 0 0.09509015 0.9954687 0 -0.09509015 0.9954687 0 -0.09509015 0.9954687 0 -0.2817556 0.9594863 -0.001637339 -0.3305774 0.9437775 0.001339673 -0.4581874 0.8888547 -6.82572e-4 -0.618216 0.7860081 -0.002045571 -0.6430778 0.7657982 0.001341164 -0.7557191 0.6548947 -6.80714e-4 -0.8660364 0.4999806 -0.001424372 -0.8746437 0.4847643 0.001340925 -0.9449948 0.327083 -0.001707434 -0.9898214 0.1423053 -0.002415657 -0.9918175 0.1276413 0.001340091 -0.9988664 -0.04758435 -6.81288e-4 -0.9718143 -0.2357468 -0.002046108 -0.9637504 -0.2667981 0.001341521 -0.9096326 -0.4154117 -6.81143e-4 -0.8145655 -0.5800712 -0.002046465 -0.7955313 -0.6059091 0.001338779 -0.6900919 -0.7237206 -6.85951e-4 -0.5405974 -0.8412812 0 -0.5540851 -0.8324601 0 -0.371787 -0.9283182 -0.001765429 -0.3199045 -0.9474483 0.001424014 -0.1891171 -0.9819536 -0.002191662 -0.9948177 0.1016514 6.81208e-4 -0.9999998 0 -3.34132e-5 -0.9819295 -0.1892474 1.5912e-7 -0.9821066 -0.188326 1.41003e-7 -0.9283772 -0.3716393 -0.001635551 -0.9081269 -0.4186921 0.001342475 -0.8412211 -0.5406898 -6.82425e-4 -0.7237337 -0.690079 1.44012e-7 -0.7346987 -0.6783936 1.72485e-7 -0.5801383 -0.814518 0 -0.5801402 -0.8145168 0 -0.3569371 -0.9341285 5.77756e-4 -0.3682239 -0.929737 0.002340018 -0.04759353 -0.9988641 0.001080989 -0.02599906 -0.9996614 0.001509368 0.266574 -0.9638134 -0.001635372 0.3311138 -0.9435895 0.002344906 0.5538961 -0.8325825 -0.002181112 0.6658878 -0.7460488 0.004363238 0.786036 -0.6181654 -0.001535654 0.9030835 -0.4294624 0.002004742 0.9397201 -0.3419389 -6.83589e-4 0.9954713 -0.09506094 -1.46602e-7 0.9938163 -0.1110373 -1.28448e-7 0.9874541 0.1579067 5.7765e-4 0.989293 0.1459422 0.002014756 0.9160735 0.4010055 -1.50069e-7 0.8960658 0.4439215 0 0.7860156 0.6182069 -0.001637935 0.7532756 0.6577031 0.001338005 0.6549034 0.7557114 -6.84137e-4 0.4999379 0.866061 -1.7388e-7 0.5137979 0.8579114 0 0.3271542 0.944971 -0.00163865 0.2782394 0.9605104 0.001340031 0.1423308 0.9898183 -6.83146e-4 -0.04769754 0.9988616 -0.002046525 -0.07968848 0.9968178 0.00134021 -0.2357427 0.9718146 -6.79884e-4 -0.4153815 0.9096471 0 -0.4007939 0.9161684 0 -0.5800396 0.8145884 0 -0.5800381 0.8145893 0 -0.7237309 0.6900823 1.34089e-7 -0.7237342 0.6900789 1.39277e-7 -0.8412671 0.5406199 0 -0.8412695 0.5406162 0 -0.928357 0.3716901 -3.1501e-4 -0.9319785 0.3625137 3.22998e-4 -0.9819288 0.1892502 -1.90268e-4 0 1 0 0.004708468 0.999989 0 -0.1892645 0.9819262 0 -0.1892645 0.9819262 0 -0.371652 0.9283722 0 -0.3716523 0.928372 0 -0.5407096 0.8412094 -0.001637935 -0.5831364 0.8123727 0.001338422 -0.6900126 0.7237961 -0.001350343 -0.8497033 0.5272595 4.71719e-4 -0.8327994 0.5535746 0.002014219 -0.9549199 0.2968568 -0.001400649 -0.9756429 0.2193607 0.002334296 -0.9998728 -0.01578223 -0.002201855 -0.9877105 -0.1562789 0.002007305 -0.9638214 -0.2665416 -0.001356065 -0.8326339 -0.5538222 4.70513e-4 -0.8495753 -0.5274672 0.002013683 -0.66664 -0.7453772 0 -0.6306375 -0.7760777 0 -0.4583119 -0.8887916 0 -0.4583119 -0.8887916 0 -0.2203237 -0.9754268 2.75119e-4 -0.2259442 -0.9741403 0.00212568 0.03182399 -0.9994913 0 0.0838052 -0.9964821 -1.82072e-7 0.281616 -0.9595272 0 0.2816179 -0.9595267 0 0.4583119 -0.8887916 0 0.4583119 -0.8887916 -1.43799e-7 0.6181186 -0.7860849 0 0.6181214 -0.7860827 -1.41841e-7 0.7557212 -0.6548935 0 0.7557197 -0.6548952 0 0.8660389 -0.4999767 -1.59232e-7 0.8660351 -0.4999833 -1.59679e-7 0.9450117 -0.3270364 -0.001637518 0.9605332 -0.2781608 0.001339793 0.9898193 -0.1423237 -6.81407e-4 0.9988674 0.04757708 -1.47364e-7 0.9995011 0.03158503 -1.51053e-7 0.9718059 0.2357826 -0.001637756 0.9584344 0.2853087 0.001338839 0.9096353 0.4154057 -6.82628e-4 0.814614 0.580003 -0.002045631 0.7956185 0.6057947 0.001342594 0.6900096 0.7237991 -6.8207e-4 0.5407093 0.8412093 0 0.5541098 0.8324437 0 0.371652 0.9283722 -0.001766085 0.3197497 0.9475004 0.00142008 0.1892646 0.9819251 -1 0 0 -1 -5.29592e-6 0 -1 1.40516e-5 0 -1 -2.54726e-6 0 -1 -4.94724e-6 0 -1 4.0653e-5 0 -1 -3.75959e-5 0 -1 1.11678e-6 0 -1 -1.33539e-5 0 -1 -3.16063e-6 0 -1 1.33846e-5 0 -1 -8.60313e-6 0 -1 3.44091e-7 0 -1 -1.72214e-5 0 -1 1.22116e-5 0 -1 -2.82645e-5 0 -1 3.29445e-5 0 -1 -5.8796e-6 0 -1 -2.43313e-5 0 -1 3.40277e-5 0 -1 4.58017e-5 0 -1 -1.49479e-5 0 -1 7.0492e-5 0 -1 -3.55199e-5 0 -1 -1.13383e-5 0 -1 4.86717e-5 0 -1 -5.8794e-5 0 -1 1.70334e-5 0 -1 -3.89544e-5 0 -1 -1.55352e-6 0 -1 -3.45055e-6 0 -1 -3.19773e-7 0 -1 8.4023e-6 0 -1 -1.61673e-6 0 -1 3.61005e-6 0 -1 -2.48882e-6 0 -1 1.69799e-6 0 -1 -1.64056e-6 0 -1 4.526e-7 0 -1 -3.03659e-6 0 -1 2.05744e-5 0 -1 -2.12052e-6 0 -1 1.4832e-5 0 -1 -1.04945e-6 0 -1 -9.01413e-6 0 -1 1.05707e-6 0 -1 1.93561e-5 0 -1 4.38299e-5 0 -1 -1.13462e-5 0 -1 -2.30526e-4 0 -1 3.00193e-5 0 -1 -2.50205e-6 0 -1 3.70894e-5 0 -1 2.96811e-5 0 -1 -1.33943e-5 0 -1 5.79583e-6 0 -1 -1.57223e-5 0 -1 -4.33207e-6 0 -1 -4.16434e-6 0 -1 3.48873e-7 0 -1 1.04688e-6 0 -1 -1.32625e-6 0 -1 7.70688e-6 0 -1 3.05089e-6 0 -1 -3.78054e-5 0 -1 -6.99119e-7 0 -1 3.20227e-6 0 -1 5.69945e-6 0 -1 9.16919e-6 0 -1 1.04208e-4 0 -1 -3.02927e-4 0 -1 8.28457e-6 0 -1 2.31505e-6 0 -1 -2.4244e-5 0 -1 4.70343e-6 0 -1 -1.51656e-5 0 -1 8.94733e-7 0 -1 -3.97095e-6 0 -1 -1.83146e-5 0 -1 -8.57043e-7 0 -1 6.78091e-7 0 -1 -1.24682e-7 0 -1 -3.30972e-5 0 -1 -5.88296e-7 0 -1 9.94144e-7 0 -1 -1.61299e-7 0 -1 1.71382e-5 0 -1 1.3399e-7 0 -1 5.07297e-7 0 -1 -5.08577e-7 0 -1 3.77887e-7 0 -1 -2.52034e-7 0 -0.5559425 0.8303394 -0.0382682 -0.4805213 0.8746834 -0.06346851 -0.5059055 0.8507074 -0.142677 -0.4899828 0.8393796 -0.2352845 -0.5405945 0.7850074 -0.3025244 -0.466374 0.8041784 -0.3685005 -0.5166888 0.7615816 -0.3911858 -0.5858507 0.6611499 -0.4686787 -0.5379685 0.6768874 -0.5024076 -0.5367988 0.6390207 -0.550908 -0.5999255 0.5581739 -0.5731765 -0.5697109 0.5822337 -0.5800288 -0.5086382 0.5114737 -0.6925907 -0.4646636 0.4934296 -0.7352653 -0.564446 0.4127441 -0.7148728 -0.589946 0.3285337 -0.7375835 -0.4700593 0.3312125 -0.8181337 -0.4863103 0.3005546 -0.8204689 -0.4734251 0.234692 -0.8489926 -0.502487 0.2165258 -0.8370325 -0.5361428 0.1066208 -0.8373667 -0.5104055 0.01216095 -0.8598479 -0.5368734 0.02186954 -0.8433794 -0.501187 -0.03460866 -0.8646468 -0.5311803 -0.06787592 -0.8445356 -0.450163 -0.1547446 -0.8794358 -0.5339971 -0.224889 -0.815029 -0.4668166 -0.286482 -0.8366662 -0.5495494 -0.3115041 -0.7752167 -0.524089 -0.4047777 -0.7493236 -0.5005962 -0.4020808 -0.7666385 -0.5084544 -0.491967 -0.7067126 -0.4779623 -0.5651696 -0.6724101 -0.5734557 -0.5569064 -0.6008361 -0.5035169 -0.6406357 -0.5797039 -0.5745995 -0.6439742 -0.5051068 -0.5047016 -0.6984854 -0.5073407 -0.5729283 -0.7640441 -0.2966309 -0.5037057 -0.8195189 -0.273257 -0.4892636 -0.8473538 -0.2064285 -0.5259611 -0.8450419 -0.09627789 -0.5023647 -0.8603448 -0.08623629 -0.4790331 -0.8776482 0.01615518 -0.5265349 -0.8500071 -0.01578003 -0.5228609 -0.8499913 0.0642749 -0.4983834 -0.8619787 0.09277373 -0.4893769 -0.855903 0.1671543 -0.5273036 -0.8400153 0.1277705 -0.5379464 -0.814916 0.2156983 -0.4983047 -0.8291218 0.2534753 -0.5748075 -0.7627629 0.2962924 -0.5421999 -0.7340949 0.4088082 -0.4864489 -0.7962583 0.3596392 -0.5221055 -0.6991663 0.4884387 -0.6037374 -0.6302406 0.4881578 -0.5259696 -0.6373698 0.5631303 -0.5863716 -0.5509093 0.5938581 -0.5756416 -0.5596095 0.5962164 -0.6012419 -0.4191122 0.6803331 -0.5433163 -0.4645445 0.6992895 -0.4979999 -0.4021151 0.7683095 -0.4871348 -0.2892199 0.8240458 -0.5459113 -0.321879 0.773547 -0.546693 -0.222441 0.8072464 -0.5039535 -0.199266 0.8404309 -0.5213613 -0.1287959 0.8435603 -0.528381 -0.1316124 0.8387441 -0.4997961 -0.0560221 0.8643295 -0.5117551 -0.04907578 0.8577286 -0.54452 0.03441017 0.8380419 -0.4982432 0.05352467 0.8653837 -0.4949461 0.131379 0.8589342 -0.563281 0.1544485 0.811702 -0.4892032 0.2272533 0.842043 -0.509886 0.2049643 0.8354676 -0.5190247 0.2795015 0.8077699 -0.5235143 0.2756998 0.8061777 -0.5387353 0.3613835 0.7610297 -0.5338945 0.3611311 0.7645528 -0.4926524 0.4764856 0.7281862 -0.5809971 0.5431145 0.6061923 -0.5035319 0.5360714 0.6775568 -0.5354579 0.5817986 0.6122053 -0.5150067 0.6618757 0.5446915 -0.5288022 0.7289487 0.4347438 -0.5179321 0.7371226 0.4340468 -0.4949576 0.7792149 0.3845013 -0.5508157 0.7605409 0.3437731 -0.4904955 0.8361434 0.2455167 -0.600569 0.7586659 0.2524738 -0.4950174 0.8473289 0.1923326 -0.5507622 0.8247815 0.1280494 -0.4813233 0.8717383 0.09165352 -0.5432296 0.8386403 0.03979909 -0.4778925 -0.7577947 -0.4442591 -0.4893349 -0.7558472 -0.4350248 -0.5448754 -0.8188382 -0.1805962 -0.5128237 0.1147695 0.8507879 -0.5064829 0.850322 -0.1429253 -0.4712382 0.8466612 -0.2471832 -0.4582912 0.1486091 -0.8762903 -0.4790381 0.5416845 -0.6907246 -0.4737532 0.7651768 -0.4359617 -0.5893021 0.6367124 0.4973132 -0.5246528 0.4563152 0.7186905 -0.4911499 -0.3713201 0.7879679 -0.5085864 -0.5371298 0.6729277 -0.5039687 -0.7420741 0.4419748 -0.4508001 -0.7982436 -0.3994827 -0.4830482 -0.5082772 -0.7129647 -0.4788763 -0.1859933 -0.8579534 -0.5325226 -0.1190556 -0.8380009 -0.001715421 -0.04736196 -0.9988764 0.001725077 -0.07512903 -0.9971724 -0.002868592 -0.1251503 -0.9921337 7.4051e-4 -0.1481231 -0.9889687 -1.16077e-4 -0.2209603 -0.9752828 0.001825213 -0.2284873 -0.9735451 -0.005926072 -0.3241987 -0.9459705 0.002263605 -0.3483062 -0.9373782 7.2586e-4 -0.452137 -0.8919482 -0.003244102 -0.4637721 -0.8859486 0.002678394 -0.548883 -0.835895 -0.004738569 -0.5722931 -0.8200355 5.20247e-4 -0.6440996 -0.7649415 -0.00288701 -0.6534234 -0.7569872 0.001294016 -0.7399877 -0.6726192 -0.005221903 -0.7262105 -0.6874527 0.003082275 -0.7849348 -0.6195707 -0.002882122 -0.8001325 -0.5998165 -8.91069e-4 -0.8523725 -0.5229344 3.66171e-4 -0.8545027 -0.5194469 -1.59511e-4 -0.9061074 -0.4230478 4.67128e-4 -0.9069839 -0.421165 -7.27144e-4 -0.9468755 -0.3215997 -1.10353e-5 -0.9476892 -0.3191949 0.001409947 -0.9751245 -0.2216533 -0.001637876 -0.9772846 -0.2119249 0.001032292 -0.9953185 -0.09664374 -3.01326e-5 -0.9950057 -0.09981864 5.08126e-4 -0.9998937 0.01457434 -0.001590669 -0.9999687 0.007765531 0.001860976 -0.9966112 0.08223509 -0.002057552 -0.9935092 0.1137329 0.001978099 -0.9875981 0.1569908 -0.002651095 -0.9819494 0.1891256 0.002522706 -0.9726965 0.2320675 -0.002688705 -0.9564152 0.2919978 -0.001377522 -0.9548179 0.2971886 0.003755033 -0.9322604 0.3617685 -0.005832433 -0.9110262 0.4123073 0.00360769 -0.888869 0.4581474 -0.003573358 -0.8588074 0.5122863 0.002173781 -0.834238 0.5514003 -0.002049505 -0.8156006 0.5786116 0.00360018 -0.7838249 0.6209716 -0.003490924 -0.7553365 0.655328 0.004717826 -0.7150118 0.6990966 -0.002392113 -0.6842601 0.7292341 0.002337455 -0.6372729 0.7706347 -0.001413166 -0.6242 0.7812634 -2.66319e-5 -0.5508389 0.8346117 5.3469e-4 -0.5489466 0.8358573 -5.29317e-4 -0.4780663 0.8783237 1.10776e-4 -0.4753527 0.8797954 -0.001117825 -0.417991 0.9084505 -2.42081e-4 -0.4140385 0.9102594 0.001939475 -0.3572349 0.9340126 -0.004440307 -0.3228999 0.9464227 0.002684473 -0.2651433 0.9642053 -0.002381384 -0.2339413 0.9722478 0.001491248 -0.1806809 0.9835407 -0.002290129 -0.1547949 0.987944 0.001433968 -0.1149938 0.9933652 -0.001896142 -0.0637986 0.9979611 -2.26854e-4 -0.05581152 0.9984413 0.001217901 0.0158354 0.9998739 -0.003257215 0.03926122 0.9992237 0.002972781 0.09641796 0.9953366 -7.14651e-4 0.1363162 0.9906651 0.00222969 0.1618036 0.9868205 -7.86033e-4 0.189029 0.9819713 0.001166522 0.2433989 0.9699257 -0.001654982 0.2587241 0.9659498 0.00119692 0.3265437 0.9451814 -0.003010213 0.3118081 0.9501404 0.002209901 0.3647275 0.9311117 -0.002817571 0.4283444 0.9036113 -0.001954317 0.4310284 0.9023364 0.002191662 0.5002184 0.8658966 -0.004312276 0.5361896 0.8440867 9.24124e-4 0.5611047 0.8277444 0.001139521 0.6035382 0.7973333 -0.002415955 0.6222063 0.7828497 0.002483189 0.6616506 0.7498082 -0.003542423 0.6897734 0.7240167 0.005224347 0.7271732 0.6864342 -0.004433095 0.7884414 0.615094 7.76639e-4 0.7985936 0.6018701 -0.001034498 0.858887 0.5121641 2.98524e-4 0.8618 0.5072482 -8.8904e-4 0.9004263 0.4350077 5.72813e-4 0.9026957 0.4302791 7.7756e-4 0.9458339 0.3246499 -0.001085698 0.9438722 0.3303091 0.001258611 0.9702991 0.2419049 -0.003082752 0.9745581 0.2241142 0.003707051 0.9915081 0.1299922 -0.005716025 0.9952346 0.09734195 0.003496408 0.9999897 -0.002913534 -0.004429817 0.9991387 -0.04126137 0.002775728 0.9960961 -0.08823215 -0.003626525 0.9870803 -0.1601855 9.61203e-4 0.9838072 -0.1792282 1.75203e-4 0.9651305 -0.2617694 -0.004551947 0.9599976 -0.2799714 0.005821347 0.9351148 -0.3542972 -0.005513906 0.9086192 -0.4175893 6.66254e-4 0.8952631 -0.4455373 -0.002318203 0.8676576 -0.497157 0.002410709 0.8543131 -0.5197532 -0.004216551 0.8109098 -0.5851562 0.001145303 0.7953552 -0.6061426 -5.70562e-4 0.7560834 -0.6544752 0.002565741 0.7446823 -0.6674142 -5.89814e-4 0.7005963 -0.7135576 0.001411318 0.6930381 -0.7208997 -0.001887917 0.628075 -0.7781505 9.39931e-4 0.6186941 -0.7856314 -0.007689714 0.5447548 -0.8385602 0.004549026 0.5056337 -0.8627363 -0.002085864 0.4314296 -0.9021442 4.92171e-4 0.4188149 -0.9080715 -0.00228703 0.3527305 -0.9357222 -0.003130316 0.3565689 -0.9342638 -1.06656e-4 0.3082855 -0.951294 -0.005773127 0.2627804 -0.9648385 -1.92255e-4 0.2339694 -0.972244 -0.003927469 0.1564419 -0.9876794 1.57391e-4 0.1432352 -0.9896887 0.003065824 0.01912218 -0.9998126 4.21013e-4 0.02919811 -0.9995737 0.2011145 0.387184 -0.8998009 0.4077674 0.02493482 0.9127454 0.2074021 0.3945613 0.8951568 0.2430515 0.5121091 0.8238146 0.2234979 0.6241972 0.7486164 0.2672427 0.9549875 -0.1287646 0.2125453 0.7034952 -0.6781733 0.1947336 -0.9237793 0.3297133 0.1677116 0.2699009 0.9481701 0.3410565 0.863202 -0.3722403 0.2291501 0.2591994 -0.9382463 0.1893195 -0.1046742 -0.9763205 0.2828207 -0.9585127 0.03558003 0.1495773 -0.9703672 0.1897741 0.4372614 -0.6728072 0.5967688 0.1976856 -0.4412913 0.8753185 0.1067957 -0.152081 0.9825814 0.4894828 0.01746523 0.8718381 -1 2.44057e-5 2.07905e-4 -1 -8.41668e-5 1.46206e-4 -1 -1.05753e-5 9.88316e-5 -1 -1.19513e-5 9.4306e-5 -1 7.38284e-5 1.01492e-4 -1 -4.80832e-5 1.50022e-4 -1 1.45845e-5 2.23492e-4 -1 -2.04932e-4 1.04628e-4 -1 -3.76622e-5 7.32904e-5 -1 6.51838e-5 1.7044e-4 -1 -9.84753e-5 1.33208e-4 -1 -3.48581e-5 -1.47851e-4 -1 3.48368e-5 -1.08981e-4 -1 -9.26505e-6 -1.06866e-4 -1 -1.16533e-5 -1.09489e-4 -1 7.85458e-6 -1.0699e-4 -1 8.35139e-5 1.64083e-4 -1 -1.95186e-4 -5.04952e-5 -1 -4.0394e-5 3.79959e-5 -1 -1.08551e-4 -2.7019e-4 -1 6.56043e-5 -1.64498e-4 -1 4.21023e-5 -1.62795e-4 -1 9.06574e-5 -7.54284e-5 -1 6.11462e-5 -1.79395e-4 -1 1.62749e-4 -9.47772e-5 -1 1.00432e-4 -9.5655e-5 -1 1.82677e-5 -2.60014e-4 -1 1.98196e-4 -1.28093e-4 -1 1.82765e-4 1.84845e-4 -1 4.14871e-5 -9.95072e-5 -1 4.73895e-5 -1.00696e-4 -1 3.26858e-5 -1.29272e-4 -1 8.41509e-5 -1.12413e-4 -1 7.50815e-5 -6.01894e-5 -1 1.14587e-4 -4.69792e-5 -1 1.02774e-4 7.4246e-5 -1 2.59944e-4 4.67685e-5 -1 9.07986e-5 8.3636e-5 -1 4.57036e-5 1.35569e-4 -1 1.00118e-4 1.6128e-4 -1 8.06465e-5 2.43084e-5 -1 5.2436e-5 8.4818e-5 -1 4.91366e-5 8.57264e-5 -1 -1.68187e-4 -1.28669e-4 -1 -1.65103e-4 -1.27315e-4 -1 -4.36215e-6 -1.55803e-4 -1 -6.21859e-5 -1.02217e-4 -1 9.328e-5 -3.17854e-4 -1 -4.9866e-5 -1.16024e-4 -1 -8.57854e-5 -1.25363e-4 -1 9.22102e-5 -1.98166e-4 -1 2.08506e-4 -3.78115e-5 -1 3.21276e-4 -2.0721e-4 -1 2.33204e-4 1.16647e-4 -1 -6.87504e-5 2.32863e-4 -1 1.03824e-4 6.18041e-5 -1 7.94791e-6 2.48055e-4 -1 7.59029e-5 8.13766e-5 -1 4.95419e-5 8.57907e-5 -1 -8.18896e-5 -2.5591e-5 -1 -1.51316e-4 2.53323e-5 -1 -1.09552e-4 -5.54668e-5 -1 -3.31686e-4 1.03232e-5 -1 -7.88901e-5 -8.19635e-5 -1 -1.10738e-4 -7.61307e-5 -1 -7.82106e-5 -1.15739e-4 -1 -3.18263e-4 -1.47416e-4 -1 -3.49442e-5 9.49395e-5 -1 -9.37608e-5 6.27961e-5 -1 -1.22154e-4 3.03781e-4 -1 -2.17508e-4 -5.98446e-5 -1 -1.03324e-4 4.44183e-5 -1 -8.13263e-5 -1.68392e-4 -1 1.16708e-4 9.66621e-5 -1 9.59993e-5 -8.2732e-7 -1 1.10873e-4 -2.21408e-5 -1 1.05815e-4 1.6375e-5 -1 1.50542e-4 -1.9196e-5 -1 9.40808e-5 1.29297e-4 -1 -1.08255e-4 9.1542e-5 -1 -1.49542e-4 3.38578e-5 -1 -1.04969e-4 -4.42028e-5 -1 -1.01889e-4 4.76917e-6 -1 -1.32582e-4 5.24507e-5 -1 -1.35709e-4 -1.90958e-5 -1 -2.26893e-4 3.73788e-5 -0.678121 0.7319185 -0.06668764 -0.8297987 0.5490214 -0.1000488 -0.6766949 0.7077565 -0.2028912 -0.8216015 0.5280631 -0.2147569 -0.7153383 0.630906 -0.3004144 -0.7805653 0.5267522 -0.3365264 -0.6883069 0.5962962 -0.4131157 -0.8000572 0.4360665 -0.4120128 -0.7231804 0.4862244 -0.490506 -0.7744731 0.3786939 -0.5067369 -0.7359907 0.3966364 -0.5486323 -0.7484903 0.2903695 -0.5961945 -0.6999866 0.304081 -0.6461839 -0.8227002 0.1447799 -0.5497301 -0.7088184 0.1483604 -0.6896127 -0.7834272 0.04672265 -0.6197249 -0.6813067 0.02473104 -0.7315803 -0.7922575 -0.04850643 -0.608256 -0.6122171 -0.1438424 -0.7774958 -0.787807 -0.1466046 -0.5982201 -0.7652042 -0.251721 -0.5925363 -0.7529777 -0.259503 -0.6047172 -0.7186495 -0.3697629 -0.5889129 -0.766889 -0.3513914 -0.537034 -0.7408499 -0.4552652 -0.4938371 -0.698789 -0.4911568 -0.5200568 -0.8060544 -0.4696977 -0.3600841 -0.7068092 -0.578129 -0.4076614 -0.7705385 -0.566425 -0.2922894 -0.7323192 -0.6105001 -0.3016591 -0.7312467 -0.6419953 -0.2304787 -0.7955926 -0.576771 -0.1853854 -0.704131 -0.6965558 -0.1378756 -0.8101036 -0.5806287 -0.08125621 -0.6959906 -0.71723 -0.03432655 -0.7838675 -0.6201671 0.03073358 -0.7380473 -0.6729055 0.04984605 -0.7713989 -0.6206883 0.1403206 -0.7689445 -0.6237007 0.1404345 -0.7392067 -0.6176545 0.2684707 -0.7356085 -0.6209554 0.27073 -0.7844054 -0.5146065 0.3462491 -0.7213134 -0.5669262 0.3978716 -0.7957684 -0.4328603 0.4235382 -0.6979311 -0.4907782 0.5215641 -0.7652437 -0.3851762 0.5157921 -0.6451743 -0.424567 0.635211 -0.8032639 -0.2754075 0.5281269 -0.6658031 -0.2756173 0.6933552 -0.8398309 -0.1618674 0.5181536 -0.6837048 -0.1126161 0.721017 -0.8245953 -0.05496585 0.5630466 -0.6563429 0.04060351 0.7533695 -0.795584 0.07111489 0.6016552 -0.6787586 0.1526933 0.7183116 -0.7982378 0.186743 0.5726637 -0.6766921 0.2607051 0.6885642 -0.8418672 0.2781395 0.4624913 -0.7018808 0.3975481 0.5910322 -0.8114945 0.3978005 0.4280555 -0.6123227 0.5842032 0.5326984 -0.8221393 0.4588272 0.3369935 -0.7034537 0.6074932 0.3689239 -0.7877417 0.551552 0.2743238 -0.716984 0.6358448 0.2857191 -0.7578482 0.6240313 0.1903972 -0.6747792 0.71219 0.1935424 -0.787573 0.609102 0.09340023 -0.6566433 0.7521159 0.05604869 -0.7862187 0.6179257 -0.005294978 0.09553611 -0.07750689 -0.9924039 -0.1323057 -0.1817906 -0.9743959 0.1113694 -0.2791913 -0.9537553 -0.07834899 -0.3915184 -0.9168286 0.02411216 -0.4349767 -0.9001189 -0.03071331 -0.5316751 -0.8463913 0.04830658 -0.5561755 -0.8296597 -0.04438024 -0.6861749 -0.7260815 -0.05579316 -0.6835804 -0.7277396 0.06606656 -0.7839574 -0.6172893 -0.07456344 -0.8148372 -0.5748747 0.05869042 -0.8950101 -0.4421681 0.04070717 -0.8934547 -0.447305 -0.03896665 -0.9405567 -0.3373939 0.06681942 -0.9576471 -0.2800846 -0.08080589 -0.9777296 -0.193689 0.0714007 -0.9924048 -0.1001742 -0.03430074 -0.9982682 -0.04779249 0.0322017 -0.9967503 0.07383823 0.05492329 -0.9952029 0.08096051 -0.0776664 -0.9723784 0.2201093 0.1210357 -0.9474371 0.2961646 -0.1089797 -0.9109643 0.3978284 0.08944559 -0.8609738 0.5007231 -0.1136341 -0.8139309 0.5697401 0.09800684 -0.747051 0.6575025 -0.06724756 -0.6828502 0.7274569 0.0740928 -0.6188461 0.7820101 -0.09248691 -0.554284 0.8271731 0.1046385 -0.453454 0.885116 -0.1115646 -0.3657022 0.9240213 0.1276155 -0.2592177 0.9573508 -0.1355642 -0.1539788 0.9787303 0.08844405 -0.04119199 0.9952291 -0.07431083 0.05479252 0.9957288 0.00898689 0.09800648 0.9951452 -0.04856634 0.2059101 0.977365 -0.0176298 0.2199948 0.9753418 -0.05207496 0.3510643 0.9349022 -0.06135892 0.3538976 0.9332694 0.07255506 0.4496403 0.8902581 -0.08060717 0.5563392 0.8270365 -0.01916193 0.5727924 0.8194766 0.1105254 0.6719018 0.7323471 -0.1267982 0.7330438 0.6682583 0.09150856 0.8070214 0.5833891 -0.06416583 0.8522183 0.5192366 0.05222052 0.9108961 0.4093181 0.01289713 0.9073716 0.4201315 0.03867298 0.9572216 0.2867602 -0.04512047 0.9642397 0.2611628 0.05856114 0.9928847 0.1036856 -0.03528577 0.996546 0.07517296 -0.01019746 0.995854 -0.09039354 0.01206582 0.9952839 -0.09625244 0.02992373 0.968045 -0.2489849 -0.05031508 0.9600251 -0.2753549 0.03882026 0.9200453 -0.3898843 -0.03470504 0.9022226 -0.4298723 0.06347608 0.8687079 -0.4912407 -0.08291131 0.8193483 -0.567269 0.05452704 0.780265 -0.6230678 -0.03363215 0.6917995 -0.7213061 0.02523344 0.7026544 -0.7110838 -0.05511635 0.5860827 -0.8083746 0.1186438 0.5246082 -0.8430361 -0.1342408 0.4212836 -0.8969391 0.08386999 0.3422781 -0.935848 -0.04374325 0.2112035 -0.9764629 -0.01296985 0.2012888 -0.9794461 0.03314638 0.07782167 -0.9964162 -0.07017612 0.03413051 -0.9969506 0.7674717 0.6409111 0.01484298 0.6265517 0.7752596 0.08003413 0.7192513 0.6882287 0.09496819 0.7352752 0.6603836 0.1525255 0.6382605 0.736046 0.2255214 0.658699 0.7205477 0.2166255 0.7082155 0.6515694 0.271824 0.6317287 0.703431 0.3257358 0.7491031 0.5819171 0.3165708 0.7073998 0.5828679 0.3998132 0.6330127 0.6273394 0.4535861 0.7552404 0.4996722 0.4241932 0.7035412 0.4983828 0.5066008 0.6176904 0.5318614 0.5792946 0.7292426 0.4337493 0.5292134 0.6244121 0.44697 0.640568 0.7500615 0.329868 0.573232 0.6533857 0.3417113 0.675515 0.7218615 0.2652457 0.6391875 0.6460508 0.2676433 0.7148326 0.7455815 0.1547452 0.6481992 0.7176152 0.154466 0.6790941 0.6654319 0.07317405 0.7428634 0.7577822 0.03594404 0.6515169 0.6242954 -0.03218221 0.7805253 0.8066594 -0.07053881 0.5867923 0.5715436 -0.2147182 0.7919811 0.7226631 -0.2060742 0.6597663 0.7435387 -0.2828664 0.6059182 0.6176785 -0.3591882 0.699612 0.7607328 -0.3698601 0.5333752 0.6197862 -0.4864937 0.6157832 0.7032466 -0.4622848 0.5401269 0.7227613 -0.4993427 0.4777793 0.6370791 -0.5784667 0.509418 0.7579649 -0.5145567 0.4008997 0.6186133 -0.679202 0.3949714 0.7518416 -0.5816621 0.3104892 0.6664601 -0.7152222 0.2104474 0.7450084 -0.6369798 0.1980385 0.6775856 -0.7330075 0.05981498 0.6813701 -0.729462 0.0601657 0.7290767 -0.6830876 -0.04288035 0.6181097 -0.7821397 -0.07872802 0.7944746 -0.587 -0.1556965 0.7102483 -0.6754073 -0.1984249 0.6307042 -0.6947779 -0.345682 0.7916333 -0.5349581 -0.2951892 0.6165046 -0.6176652 -0.4882744 0.7351801 -0.514256 -0.4416458 0.6315819 -0.5307132 -0.5651972 0.8076799 -0.3639791 -0.463867 0.6367237 -0.429459 -0.640428 0.744302 -0.2967775 -0.5982789 0.713627 -0.3039047 -0.6311722 0.7043135 -0.2130276 -0.677172 0.6451223 -0.2165676 -0.7327454 0.7597972 -0.1292024 -0.6371931 0.7635618 -0.09356492 -0.6389204 0.6298556 -0.05843156 -0.7745113 0.7623699 -0.006476759 -0.647109 0.6519144 0.05836123 -0.7560435 0.7375087 0.0875954 -0.6696328 0.6781184 0.1479466 -0.7199079 0.689879 0.1496893 -0.7082797 0.7126265 0.2410872 -0.6588174 0.7001059 0.243142 -0.6713671 0.7532367 0.3020489 -0.5842954 0.53343 0.4463397 -0.7184939 0.8263794 0.3493519 -0.441645 0.6258549 0.5404549 -0.5623292 0.7523968 0.5072829 -0.4201945 0.7039868 0.5558552 -0.4420722 0.7191854 0.5918565 -0.3639757 0.6502179 0.660913 -0.3747143 0.7113839 0.6248649 -0.3216782 0.6767382 0.6778875 -0.2872179 0.7255905 0.6395616 -0.2539278 0.719911 0.6654591 -0.1972115 0.6616174 0.726077 -0.1872825 0.7218496 0.6756345 -0.1498377 0.6810421 0.7289409 -0.06947642 0.6139136 0.7845619 -0.08702087</float_array>
          <technique_common>
            <accessor source="#Link6-mesh-normals-array" count="1064" stride="3">
              <param name="X" type="float"/>
              <param name="Y" type="float"/>
              <param name="Z" type="float"/>
            </accessor>
          </technique_common>
        </source>
        <vertices id="Link6-mesh-vertices">
          <input semantic="POSITION" source="#Link6-mesh-positions"/>
        </vertices>
        <triangles material="Material_008-material" count="1268">
          <input semantic="VERTEX" source="#Link6-mesh-vertices" offset="0"/>
          <input semantic="NORMAL" source="#Link6-mesh-normals" offset="1"/>
          <p>0 0 1 0 2 0 1 1 3 1 2 1 4 2 0 2 2 2 5 3 4 3 2 3 6 4 5 4 2 4 7 4 6 4 2 4 8 4 7 4 2 4 9 5 10 5 2 5 10 4 8 4 2 4 11 6 9 6 2 6 12 7 11 7 2 7 13 4 12 4 2 4 14 4 13 4 2 4 15 8 14 8 2 8 16 4 17 4 2 4 17 4 15 4 2 4 18 4 16 4 2 4 19 9 18 9 2 9 3 10 19 10 2 10 9 11 11 11 20 11 20 12 21 12 9 12 10 13 9 13 21 13 21 14 22 14 10 14 8 15 10 15 22 15 22 16 23 16 8 16 7 17 8 17 23 17 23 18 24 18 7 18 6 19 7 19 24 19 24 20 25 20 6 20 5 21 6 21 25 21 25 22 26 22 5 22 26 23 27 23 5 23 4 24 5 24 27 24 27 25 28 25 4 25 0 26 4 26 28 26 28 27 29 27 0 27 1 28 0 28 29 28 29 29 30 29 1 29 3 30 1 30 30 30 30 31 31 31 3 31 31 32 32 32 3 32 19 33 3 33 32 33 32 34 33 34 19 34 18 35 19 35 33 35 33 36 34 36 18 36 16 37 18 37 34 37 34 38 35 38 16 38 17 39 16 39 35 39 35 40 36 40 17 40 15 41 17 41 36 41 36 42 37 42 15 42 37 43 38 43 15 43 14 44 15 44 38 44 38 45 39 45 14 45 13 46 14 46 39 46 39 47 40 47 13 47 12 48 13 48 40 48 40 49 41 49 12 49 41 50 42 50 12 50 11 51 12 51 42 51 42 52 43 52 11 52 43 53 20 53 11 53 44 54 45 54 46 54 47 55 48 55 49 55 50 4 51 4 52 4 53 4 47 4 49 4 50 56 52 56 54 56 49 57 50 57 54 57 54 58 53 58 49 58 55 59 56 59 50 59 57 60 58 60 59 60 59 61 58 61 60 61 61 4 62 4 63 4 63 62 62 62 64 62 64 4 65 4 63 4 63 63 65 63 66 63 67 64 68 64 51 64 51 4 68 4 69 4 70 4 57 4 59 4 50 65 71 65 72 65 50 4 72 4 55 4 50 66 56 66 73 66 73 67 51 67 50 67 73 4 74 4 51 4 51 68 74 68 67 68 51 69 69 69 75 69 76 70 51 70 75 70 63 4 66 4 77 4 77 4 78 4 63 4 59 71 79 71 70 71 79 4 59 4 80 4 75 72 79 72 80 72 80 4 76 4 75 4 50 73 81 73 71 73 60 4 61 4 59 4 63 74 59 74 61 74 82 75 59 75 63 75 63 4 83 4 84 4 63 4 84 4 82 4 85 76 86 76 63 76 63 77 86 77 83 77 87 4 88 4 89 4 89 4 90 4 87 4 90 78 91 78 87 78 92 79 93 79 94 79 94 80 95 80 92 80 90 81 96 81 97 81 90 4 97 4 91 4 94 82 98 82 95 82 92 4 99 4 93 4 99 83 100 83 93 83 100 84 99 84 101 84 102 4 103 4 90 4 98 85 104 85 105 85 101 86 102 86 100 86 103 4 96 4 90 4 105 87 95 87 98 87 88 4 106 4 89 4 89 88 106 88 107 88 89 89 107 89 104 89 63 4 89 4 85 4 89 90 98 90 85 90 104 4 98 4 89 4 90 91 100 91 102 91 108 4 100 4 90 4 108 4 90 4 109 4 110 4 108 4 109 4 109 92 111 92 112 92 109 93 112 93 110 93 113 94 111 94 114 94 109 4 114 4 111 4 114 95 115 95 116 95 114 96 116 96 113 96 117 4 118 4 119 4 118 97 120 97 115 97 120 4 116 4 115 4 121 4 117 4 119 4 119 98 122 98 123 98 123 99 121 99 119 99 124 100 125 100 46 100 119 101 126 101 127 101 128 102 129 102 130 102 119 4 130 4 131 4 131 4 126 4 119 4 119 103 127 103 132 103 132 4 133 4 119 4 130 104 129 104 134 104 134 4 131 4 130 4 46 4 45 4 124 4 45 105 135 105 124 105 125 4 136 4 46 4 46 106 136 106 137 106 138 4 139 4 122 4 122 107 119 107 138 107 119 108 133 108 138 108 130 4 140 4 141 4 141 109 142 109 130 109 130 110 142 110 128 110 122 111 139 111 143 111 45 4 122 4 143 4 143 4 135 4 45 4 137 4 144 4 46 4 144 112 145 112 46 112 146 113 140 113 130 113 46 4 147 4 148 4 148 114 44 114 46 114 46 4 149 4 150 4 46 115 150 115 147 115 151 116 152 116 153 116 152 4 149 4 153 4 152 4 150 4 149 4 154 117 155 117 156 117 154 4 156 4 157 4 157 4 158 4 154 4 153 4 154 4 158 4 158 118 151 118 153 118 159 4 160 4 48 4 48 119 160 119 161 119 48 120 161 120 162 120 48 4 162 4 163 4 48 121 163 121 164 121 164 122 49 122 48 122 164 123 165 123 49 123 165 124 166 124 49 124 166 4 167 4 49 4 168 4 169 4 154 4 154 125 169 125 170 125 170 4 171 4 154 4 171 126 172 126 154 126 155 4 154 4 172 4 167 4 173 4 49 4 173 4 174 4 49 4 154 127 175 127 176 127 176 4 177 4 154 4 154 128 177 128 168 128 155 129 172 129 178 129 178 130 179 130 155 130 180 131 155 131 179 131 179 132 181 132 180 132 182 4 180 4 181 4 181 4 183 4 182 4 184 133 182 133 183 133 183 4 159 4 185 4 185 4 184 4 183 4 48 4 186 4 159 4 186 4 185 4 159 4 30 4 29 4 130 4 29 4 28 4 130 4 187 4 130 4 28 4 188 4 189 4 34 4 34 4 33 4 188 4 188 4 33 4 32 4 188 134 32 134 31 134 31 4 30 4 130 4 189 135 37 135 36 135 190 4 41 4 40 4 190 4 40 4 39 4 189 136 36 136 35 136 35 137 34 137 189 137 190 138 39 138 38 138 189 4 190 4 38 4 38 4 37 4 189 4 190 4 50 4 41 4 49 139 22 139 21 139 21 4 20 4 49 4 50 140 49 140 20 140 20 4 43 4 50 4 50 141 43 141 42 141 42 4 41 4 50 4 187 142 28 142 27 142 25 143 24 143 191 143 24 4 23 4 191 4 49 4 191 4 23 4 23 144 22 144 49 144 27 4 26 4 187 4 191 4 187 4 26 4 26 4 25 4 191 4 49 145 174 145 175 145 154 146 49 146 175 146 191 4 49 4 154 4 154 4 153 4 191 4 187 4 191 4 153 4 153 4 149 4 187 4 130 4 187 4 149 4 149 4 46 4 130 4 130 147 46 147 146 147 46 148 145 148 146 148 192 149 193 149 109 149 194 4 195 4 114 4 193 150 196 150 109 150 197 151 198 151 188 151 198 4 199 4 188 4 196 152 200 152 109 152 200 4 201 4 109 4 114 4 109 4 201 4 201 4 202 4 114 4 202 4 194 4 114 4 115 153 203 153 204 153 204 4 205 4 115 4 199 4 206 4 188 4 207 154 192 154 109 154 114 155 195 155 208 155 114 156 208 156 209 156 209 4 210 4 114 4 115 157 114 157 210 157 210 4 203 4 115 4 115 4 205 4 211 4 188 4 115 4 211 4 211 158 197 158 188 158 188 159 206 159 207 159 109 4 188 4 207 4 189 4 188 4 109 4 109 4 90 4 189 4 190 4 189 4 90 4 90 4 89 4 190 4 50 4 190 4 89 4 89 4 63 4 50 4 50 160 63 160 81 160 63 161 78 161 81 161 31 162 130 162 188 162 115 4 188 4 130 4 130 4 119 4 115 4 115 163 119 163 118 163 88 164 87 164 212 164 106 165 88 165 212 165 212 166 213 166 106 166 213 167 214 167 106 167 107 168 106 168 214 168 214 169 215 169 107 169 104 170 107 170 215 170 215 171 216 171 104 171 105 172 104 172 216 172 95 173 105 173 216 173 216 174 217 174 95 174 217 175 218 175 95 175 92 176 95 176 218 176 218 177 219 177 92 177 99 178 92 178 219 178 101 179 99 179 219 179 219 180 220 180 101 180 102 181 101 181 220 181 103 182 102 182 220 182 220 183 221 183 103 183 96 184 103 184 221 184 221 185 222 185 96 185 97 186 96 186 222 186 91 187 97 187 222 187 222 188 223 188 91 188 87 189 91 189 223 189 223 190 212 190 87 190 212 4 223 4 218 4 214 191 213 191 218 191 213 192 212 192 218 192 215 4 214 4 218 4 216 4 215 4 218 4 217 4 216 4 218 4 220 193 219 193 218 193 221 194 220 194 218 194 222 195 221 195 218 195 223 196 222 196 218 196 224 197 225 197 81 197 81 198 78 198 224 198 226 199 224 199 78 199 227 200 226 200 78 200 78 201 77 201 227 201 228 202 227 202 77 202 77 203 66 203 228 203 229 204 228 204 66 204 230 205 229 205 66 205 66 206 65 206 230 206 231 207 230 207 65 207 65 208 64 208 231 208 232 209 231 209 64 209 64 210 62 210 232 210 233 211 232 211 62 211 62 212 61 212 233 212 234 213 233 213 61 213 61 214 60 214 234 214 235 215 234 215 60 215 60 216 58 216 235 216 236 217 235 217 58 217 58 218 57 218 236 218 237 219 236 219 57 219 57 220 70 220 237 220 238 221 237 221 70 221 70 222 79 222 238 222 239 223 238 223 79 223 79 224 75 224 239 224 240 225 239 225 75 225 75 226 69 226 240 226 241 227 240 227 69 227 69 228 68 228 241 228 242 229 241 229 68 229 68 230 67 230 242 230 243 231 242 231 67 231 67 232 74 232 243 232 244 233 243 233 74 233 74 234 73 234 244 234 245 235 244 235 73 235 73 236 56 236 245 236 246 237 245 237 56 237 247 238 246 238 56 238 56 239 55 239 247 239 248 240 247 240 55 240 55 241 72 241 248 241 249 242 248 242 72 242 250 243 249 243 72 243 72 244 71 244 250 244 251 245 250 245 71 245 252 246 251 246 71 246 71 247 81 247 252 247 225 248 252 248 81 248 253 249 254 249 197 249 197 250 211 250 253 250 255 251 253 251 211 251 256 252 255 252 211 252 211 253 205 253 256 253 257 254 256 254 205 254 258 255 257 255 205 255 205 256 204 256 258 256 259 257 258 257 204 257 204 258 203 258 259 258 260 259 259 259 203 259 203 260 210 260 260 260 261 261 260 261 210 261 210 262 209 262 261 262 262 263 261 263 209 263 209 264 208 264 262 264 263 265 262 265 208 265 264 266 263 266 208 266 208 267 195 267 264 267 265 268 264 268 195 268 195 269 194 269 265 269 266 270 265 270 194 270 194 271 202 271 266 271 267 272 266 272 202 272 202 273 201 273 267 273 268 274 267 274 201 274 201 275 200 275 268 275 269 276 268 276 200 276 200 277 196 277 269 277 270 278 269 278 196 278 271 279 270 279 196 279 196 280 193 280 271 280 272 281 271 281 193 281 273 282 272 282 193 282 193 283 192 283 273 283 274 284 273 284 192 284 275 285 274 285 192 285 192 286 207 286 275 286 276 287 275 287 207 287 277 288 276 288 207 288 207 289 206 289 277 289 278 290 277 290 206 290 279 291 278 291 206 291 206 292 199 292 279 292 280 293 279 293 199 293 281 294 280 294 199 294 199 295 198 295 281 295 282 296 281 296 198 296 198 297 197 297 282 297 254 298 282 298 197 298 283 299 140 299 146 299 284 300 283 300 146 300 285 301 284 301 146 301 146 302 145 302 285 302 286 303 285 303 145 303 145 304 144 304 286 304 287 305 286 305 144 305 288 306 287 306 144 306 144 307 137 307 288 307 289 308 288 308 137 308 137 309 136 309 289 309 290 310 289 310 136 310 136 311 125 311 290 311 291 312 290 312 125 312 125 313 124 313 291 313 292 314 291 314 124 314 124 315 135 315 292 315 293 316 292 316 135 316 135 317 143 317 293 317 294 318 293 318 143 318 143 319 139 319 294 319 295 320 294 320 139 320 296 321 295 321 139 321 139 322 138 322 296 322 297 323 296 323 138 323 138 324 133 324 297 324 298 325 297 325 133 325 133 326 132 326 298 326 299 327 298 327 132 327 132 328 127 328 299 328 300 329 299 329 127 329 301 330 300 330 127 330 127 331 126 331 301 331 302 332 301 332 126 332 126 333 131 333 302 333 303 334 302 334 131 334 304 335 303 335 131 335 131 336 134 336 304 336 305 337 304 337 134 337 306 338 305 338 134 338 134 339 129 339 306 339 307 340 306 340 129 340 129 341 128 341 307 341 308 342 307 342 128 342 128 343 142 343 308 343 309 344 308 344 142 344 142 345 141 345 309 345 310 346 309 346 141 346 141 347 140 347 310 347 283 348 310 348 140 348 165 349 311 349 312 349 165 350 164 350 311 350 313 351 311 351 164 351 164 352 163 352 313 352 314 353 313 353 163 353 163 354 162 354 314 354 315 355 314 355 162 355 162 356 161 356 315 356 316 357 315 357 161 357 317 358 316 358 161 358 161 359 160 359 317 359 318 360 317 360 160 360 160 361 159 361 318 361 319 362 318 362 159 362 159 363 183 363 319 363 320 364 319 364 183 364 321 365 320 365 183 365 183 366 181 366 321 366 322 367 321 367 181 367 181 368 179 368 322 368 323 369 322 369 179 369 179 370 178 370 323 370 324 371 323 371 178 371 178 372 172 372 324 372 325 373 324 373 172 373 172 374 171 374 325 374 326 375 325 375 171 375 171 376 170 376 326 376 327 377 326 377 170 377 170 378 169 378 327 378 328 379 327 379 169 379 169 380 168 380 328 380 329 381 328 381 168 381 168 382 177 382 329 382 330 383 329 383 177 383 177 384 176 384 330 384 331 385 330 385 176 385 176 386 175 386 331 386 332 387 331 387 175 387 333 388 332 388 175 388 175 389 174 389 333 389 334 390 333 390 174 390 174 391 173 391 334 391 335 392 334 392 173 392 336 393 335 393 173 393 173 394 167 394 336 394 337 395 336 395 167 395 338 396 337 396 167 396 167 397 166 397 338 397 339 398 338 398 166 398 166 399 165 399 339 399 312 400 339 400 165 400 334 401 335 401 245 401 323 401 324 401 340 401 290 401 291 401 341 401 342 402 292 402 293 402 291 403 292 403 342 403 291 404 342 404 341 404 294 401 295 401 343 401 343 401 344 401 294 401 293 401 294 401 344 401 293 401 344 401 342 401 345 405 346 405 316 405 241 406 242 406 315 406 242 401 243 401 315 401 314 407 315 407 243 407 347 401 340 401 324 401 324 401 325 401 347 401 328 401 329 401 348 401 348 408 329 408 330 408 256 401 257 401 301 401 305 401 306 401 254 401 254 409 304 409 305 409 238 401 239 401 349 401 237 410 238 410 349 410 245 411 335 411 336 411 336 401 337 401 245 401 245 412 337 412 338 412 325 401 326 401 347 401 326 413 348 413 347 413 326 401 327 401 348 401 348 414 327 414 328 414 298 415 299 415 350 415 263 401 264 401 351 401 245 416 338 416 339 416 339 417 312 417 245 417 244 401 245 401 312 401 312 401 311 401 244 401 311 418 243 418 244 418 243 419 311 419 313 419 313 420 314 420 243 420 315 401 316 401 346 401 346 401 352 401 315 401 330 421 331 421 348 421 348 422 331 422 332 422 348 423 332 423 333 423 300 424 301 424 257 424 254 425 306 425 307 425 307 426 308 426 254 426 254 427 308 427 309 427 353 428 234 428 235 428 233 429 234 429 353 429 349 401 354 401 237 401 236 401 237 401 354 401 354 401 355 401 236 401 235 401 236 401 355 401 235 430 355 430 353 430 240 401 356 401 357 401 239 431 240 431 357 431 357 432 358 432 239 432 239 401 358 401 349 401 240 433 241 433 356 433 315 434 356 434 241 434 352 401 356 401 315 401 316 401 317 401 359 401 359 435 345 435 316 435 360 436 317 436 318 436 360 437 359 437 317 437 361 401 318 401 319 401 361 401 360 401 318 401 362 438 319 438 320 438 362 439 361 439 319 439 340 440 363 440 323 440 322 441 323 441 363 441 363 442 364 442 322 442 321 443 322 443 364 443 320 401 321 401 364 401 320 444 364 444 362 444 290 401 341 401 365 401 289 401 290 401 365 401 365 401 366 401 289 401 297 401 298 401 350 401 350 445 299 445 300 445 257 446 350 446 300 446 367 401 350 401 257 401 287 447 288 447 368 447 368 401 369 401 287 401 303 401 304 401 254 401 254 401 253 401 303 401 302 401 303 401 253 401 253 448 301 448 302 448 301 449 253 449 255 449 255 401 256 401 301 401 245 450 333 450 334 450 333 451 245 451 246 451 333 401 246 401 348 401 348 452 246 452 247 452 247 453 248 453 348 453 230 401 231 401 370 401 348 454 280 454 281 454 348 455 281 455 282 455 348 456 282 456 254 456 369 401 371 401 287 401 286 457 287 457 371 457 371 401 348 401 286 401 348 458 285 458 286 458 366 459 372 459 289 459 288 401 289 401 372 401 372 401 368 401 288 401 296 460 297 460 373 460 295 461 296 461 373 461 373 401 343 401 295 401 350 462 374 462 297 462 297 401 374 401 373 401 375 401 376 401 258 401 258 463 259 463 375 463 376 401 377 401 258 401 257 401 258 401 377 401 377 401 367 401 257 401 378 401 375 401 259 401 264 401 265 401 351 401 379 464 351 464 265 464 265 465 266 465 379 465 266 401 267 401 379 401 267 466 380 466 379 466 267 401 268 401 380 401 268 467 381 467 380 467 353 468 382 468 233 468 382 469 232 469 233 469 382 401 370 401 232 401 231 401 232 401 370 401 309 470 310 470 254 470 310 471 283 471 254 471 254 401 283 401 348 401 283 401 284 401 348 401 348 472 284 472 285 472 268 401 269 401 381 401 269 473 383 473 381 473 269 474 270 474 383 474 270 475 384 475 383 475 384 476 270 476 271 476 271 401 272 401 384 401 385 401 386 401 261 401 260 401 261 401 386 401 259 401 260 401 386 401 386 477 378 477 259 477 351 401 387 401 263 401 387 401 262 401 263 401 387 401 385 401 262 401 261 401 262 401 385 401 370 478 388 478 230 478 229 401 230 401 388 401 388 401 389 401 229 401 389 401 390 401 229 401 228 479 229 479 390 479 390 401 384 401 228 401 278 480 248 480 249 480 249 481 250 481 278 481 277 401 278 401 250 401 348 482 248 482 278 482 278 401 279 401 348 401 279 483 280 483 348 483 224 484 272 484 273 484 272 485 224 485 226 485 384 486 272 486 226 486 226 401 227 401 384 401 227 487 228 487 384 487 277 401 250 401 251 401 251 488 252 488 277 488 277 489 252 489 225 489 224 401 273 401 274 401 224 490 274 490 275 490 225 491 224 491 275 491 275 492 276 492 225 492 276 401 277 401 225 401 391 493 392 493 352 493 352 494 346 494 391 494 352 495 393 495 356 495 356 496 393 496 357 496 358 497 357 497 394 497 358 498 394 498 395 498 358 499 395 499 349 499 396 500 397 500 354 500 354 501 349 501 396 501 397 502 398 502 354 502 398 503 399 503 354 503 355 504 354 504 399 504 355 505 400 505 353 505 400 506 401 506 353 506 382 507 353 507 401 507 401 508 402 508 370 508 370 509 382 509 401 509 402 510 403 510 370 510 403 511 404 511 370 511 388 512 370 512 404 512 389 513 388 513 405 513 390 514 389 514 405 514 405 515 406 515 390 515 390 516 406 516 407 516 407 517 384 517 390 517 384 518 407 518 383 518 408 519 381 519 383 519 381 520 408 520 409 520 409 521 380 521 381 521 410 522 379 522 380 522 380 523 409 523 410 523 379 524 410 524 351 524 411 525 412 525 351 525 412 526 387 526 351 526 412 527 413 527 387 527 385 528 387 528 413 528 413 529 414 529 385 529 378 530 386 530 415 530 415 531 416 531 378 531 378 532 417 532 375 532 376 533 375 533 417 533 417 534 418 534 376 534 418 535 419 535 377 535 377 536 376 536 418 536 367 537 377 537 419 537 367 538 419 538 420 538 420 539 421 539 350 539 350 540 367 540 420 540 374 541 350 541 421 541 421 542 422 542 374 542 373 543 374 543 422 543 423 544 343 544 373 544 373 545 422 545 423 545 424 546 425 546 343 546 344 547 343 547 425 547 425 548 426 548 344 548 342 549 344 549 427 549 344 550 426 550 427 550 341 551 342 551 428 551 342 552 429 552 428 552 428 553 430 553 341 553 431 554 432 554 365 554 365 555 341 555 431 555 366 556 365 556 432 556 366 557 432 557 433 557 433 558 434 558 372 558 372 559 366 559 433 559 372 560 434 560 435 560 368 561 372 561 435 561 435 562 436 562 369 562 435 563 369 563 368 563 437 564 371 564 369 564 369 565 438 565 437 565 437 566 439 566 348 566 437 567 348 567 371 567 439 568 440 568 347 568 439 569 347 569 348 569 440 570 441 570 347 570 441 571 340 571 347 571 340 572 441 572 363 572 442 573 364 573 363 573 363 574 443 574 442 574 364 575 442 575 444 575 362 576 364 576 445 576 361 577 362 577 445 577 361 578 445 578 446 578 446 579 447 579 361 579 360 580 361 580 447 580 359 581 360 581 447 581 447 582 448 582 359 582 448 583 449 583 359 583 345 584 359 584 449 584 449 585 391 585 345 585 345 586 391 586 346 586 414 587 450 587 385 587 450 588 386 588 385 588 417 589 378 589 416 589 438 590 369 590 436 590 392 591 393 591 352 591 393 592 394 592 357 592 388 593 404 593 405 593 400 594 355 594 399 594 396 595 349 595 395 595 444 596 445 596 364 596 363 597 441 597 443 597 341 598 430 598 431 598 429 599 342 599 427 599 423 600 424 600 343 600 450 601 415 601 386 601 411 602 351 602 410 602 383 603 451 603 408 603 451 604 383 604 407 604 452 605 407 605 406 605 452 606 453 606 407 606 451 607 407 607 453 607 453 608 454 608 451 608 408 609 451 609 454 609 454 610 455 610 408 610 455 611 409 611 408 611 455 612 456 612 409 612 456 613 457 613 409 613 410 614 409 614 457 614 457 615 458 615 410 615 458 616 411 616 410 616 411 617 458 617 459 617 459 618 412 618 411 618 413 619 412 619 459 619 459 620 460 620 413 620 460 621 461 621 413 621 414 622 413 622 461 622 450 623 414 623 461 623 461 624 462 624 450 624 415 625 450 625 462 625 462 626 463 626 415 626 416 627 415 627 463 627 463 628 464 628 416 628 464 629 465 629 416 629 417 630 416 630 465 630 418 631 417 631 465 631 465 632 466 632 418 632 419 633 418 633 466 633 466 634 467 634 419 634 467 635 468 635 419 635 420 636 419 636 468 636 468 637 469 637 420 637 421 638 420 638 469 638 469 639 470 639 421 639 422 640 421 640 470 640 470 641 471 641 422 641 422 642 471 642 472 642 423 643 422 643 472 643 472 644 473 644 423 644 424 645 423 645 473 645 424 646 473 646 474 646 474 647 425 647 424 647 474 648 475 648 425 648 426 649 425 649 475 649 475 650 476 650 426 650 427 651 426 651 476 651 427 652 476 652 477 652 477 653 429 653 427 653 428 654 429 654 477 654 477 655 478 655 428 655 430 656 428 656 478 656 478 657 479 657 430 657 431 658 430 658 479 658 479 659 480 659 431 659 480 660 481 660 431 660 432 661 431 661 481 661 481 662 482 662 432 662 433 663 432 663 482 663 482 664 483 664 433 664 434 665 433 665 483 665 483 666 484 666 434 666 435 667 434 667 484 667 484 668 485 668 435 668 485 669 486 669 435 669 436 670 435 670 486 670 486 671 487 671 436 671 438 672 436 672 487 672 487 673 488 673 438 673 437 674 438 674 488 674 488 675 489 675 437 675 439 676 437 676 489 676 440 677 439 677 489 677 489 678 490 678 440 678 440 679 490 679 491 679 441 680 440 680 491 680 491 681 492 681 441 681 441 682 492 682 493 682 443 683 441 683 493 683 493 684 494 684 443 684 494 685 495 685 443 685 442 686 443 686 495 686 495 687 496 687 442 687 444 688 442 688 496 688 496 689 497 689 444 689 445 690 444 690 497 690 497 691 498 691 445 691 446 692 445 692 498 692 498 693 499 693 446 693 447 694 446 694 499 694 499 695 500 695 447 695 448 696 447 696 500 696 500 697 501 697 448 697 501 698 502 698 448 698 449 699 448 699 502 699 449 700 502 700 503 700 391 701 449 701 503 701 503 702 504 702 391 702 392 703 391 703 504 703 504 704 505 704 392 704 505 705 393 705 392 705 505 706 506 706 393 706 393 707 506 707 507 707 507 708 394 708 393 708 507 709 508 709 394 709 508 710 395 710 394 710 508 711 509 711 395 711 396 712 395 712 509 712 396 713 509 713 510 713 397 714 396 714 510 714 510 715 511 715 397 715 398 716 397 716 511 716 511 717 512 717 398 717 399 718 398 718 512 718 512 719 513 719 399 719 400 720 399 720 513 720 513 721 514 721 400 721 401 722 400 722 514 722 514 723 515 723 401 723 402 724 401 724 515 724 515 725 516 725 402 725 403 726 402 726 516 726 516 727 517 727 403 727 517 728 518 728 403 728 404 729 403 729 518 729 518 730 519 730 404 730 405 731 404 731 519 731 519 732 520 732 405 732 520 733 452 733 406 733 406 734 405 734 520 734 515 735 517 735 516 735 485 736 487 736 486 736 490 737 492 737 491 737 494 738 493 738 492 738 494 739 496 739 495 739 506 740 505 740 504 740 511 741 513 741 512 741 472 742 471 742 470 742 488 743 490 743 489 743 507 744 509 744 508 744 519 745 518 745 517 745 452 746 454 746 453 746 466 747 468 747 467 747 468 748 470 748 469 748 474 749 476 749 475 749 478 750 480 750 479 750 482 751 484 751 483 751 484 752 487 752 485 752 521 753 522 753 487 753 487 754 484 754 521 754 523 755 521 755 484 755 484 756 482 756 523 756 482 757 481 757 523 757 524 758 523 758 481 758 524 759 481 759 480 759 480 760 478 760 524 760 525 761 524 761 478 761 478 762 477 762 525 762 526 763 525 763 477 763 527 764 528 764 455 764 455 765 454 765 527 765 529 766 527 766 454 766 454 767 452 767 529 767 530 768 529 768 452 768 488 769 487 769 522 769 477 770 476 770 526 770 531 771 526 771 476 771 452 772 520 772 530 772 520 773 519 773 530 773 532 774 530 774 519 774 519 775 517 775 532 775 514 776 513 776 533 776 513 777 511 777 533 777 534 778 533 778 511 778 511 779 510 779 534 779 535 780 534 780 510 780 510 781 509 781 535 781 532 782 517 782 515 782 536 783 532 783 515 783 515 784 514 784 536 784 533 785 536 785 514 785 509 786 507 786 535 786 537 787 535 787 507 787 538 788 539 788 498 788 498 789 497 789 538 789 492 790 490 790 540 790 522 791 540 791 490 791 490 792 488 792 522 792 541 793 542 793 501 793 540 794 543 794 494 794 494 795 492 795 540 795 462 796 461 796 544 796 545 797 544 797 461 797 461 798 460 798 545 798 460 799 459 799 545 799 457 800 456 800 546 800 528 801 546 801 456 801 456 802 455 802 528 802 507 803 506 803 537 803 547 804 537 804 506 804 501 805 500 805 541 805 539 806 541 806 500 806 500 807 499 807 539 807 499 808 498 808 539 808 497 809 496 809 538 809 543 810 538 810 496 810 496 811 494 811 543 811 548 812 549 812 464 812 464 813 463 813 548 813 544 814 548 814 463 814 463 815 462 815 544 815 550 816 545 816 459 816 459 817 458 817 550 817 546 818 550 818 458 818 458 819 457 819 546 819 476 820 474 820 531 820 551 821 531 821 474 821 474 822 473 822 551 822 473 823 472 823 551 823 552 824 551 824 472 824 465 825 464 825 549 825 506 826 504 826 547 826 553 827 547 827 504 827 553 828 504 828 503 828 542 829 553 829 503 829 503 830 502 830 542 830 502 831 501 831 542 831 552 832 472 832 470 832 554 833 552 833 470 833 470 834 468 834 554 834 555 835 554 835 468 835 555 836 468 836 466 836 549 837 555 837 466 837 466 838 465 838 549 838 556 839 557 839 547 839 537 840 547 840 557 840 557 841 558 841 537 841 535 842 537 842 558 842 558 843 559 843 535 843 534 844 535 844 559 844 559 845 560 845 534 845 533 846 534 846 560 846 560 847 561 847 533 847 536 848 533 848 561 848 561 849 562 849 536 849 532 850 536 850 562 850 562 851 563 851 532 851 530 852 532 852 563 852 563 853 564 853 530 853 529 854 530 854 564 854 564 855 565 855 529 855 527 856 529 856 565 856 527 857 565 857 566 857 528 858 527 858 566 858 546 859 528 859 566 859 566 860 567 860 546 860 546 861 567 861 568 861 550 862 546 862 568 862 545 863 550 863 568 863 545 864 568 864 569 864 544 865 545 865 569 865 544 866 569 866 570 866 548 867 544 867 570 867 548 868 570 868 571 868 548 869 571 869 572 869 549 870 548 870 572 870 549 871 572 871 573 871 555 872 549 872 573 872 555 873 573 873 574 873 554 874 555 874 574 874 554 875 574 875 575 875 554 876 575 876 576 876 552 877 554 877 576 877 551 878 552 878 576 878 551 879 576 879 577 879 531 880 551 880 577 880 577 881 578 881 531 881 526 882 531 882 578 882 526 883 578 883 579 883 525 884 526 884 579 884 579 885 580 885 525 885 524 886 525 886 580 886 524 887 580 887 581 887 523 888 524 888 581 888 581 889 582 889 523 889 521 890 523 890 582 890 582 891 583 891 521 891 522 892 521 892 583 892 583 893 584 893 522 893 540 894 522 894 584 894 584 895 585 895 540 895 543 896 540 896 585 896 585 897 586 897 543 897 538 898 543 898 586 898 586 899 587 899 538 899 539 900 538 900 587 900 587 901 588 901 539 901 541 902 539 902 588 902 588 903 589 903 541 903 542 904 541 904 589 904 589 905 590 905 542 905 553 906 542 906 590 906 590 907 556 907 553 907 547 908 553 908 556 908 591 909 592 909 565 909 566 910 565 910 592 910 592 911 593 911 566 911 567 912 566 912 593 912 593 913 594 913 567 913 568 914 567 914 594 914 594 915 595 915 568 915 569 916 568 916 595 916 595 917 596 917 569 917 596 918 597 918 569 918 570 919 569 919 597 919 571 920 570 920 597 920 597 921 598 921 571 921 572 922 571 922 598 922 598 923 599 923 572 923 573 924 572 924 599 924 599 925 600 925 573 925 574 926 573 926 600 926 575 927 574 927 600 927 600 928 601 928 575 928 576 929 575 929 601 929 601 930 602 930 576 930 577 931 576 931 602 931 602 932 603 932 577 932 578 933 577 933 603 933 603 934 604 934 578 934 579 935 578 935 604 935 604 936 605 936 579 936 580 937 579 937 605 937 605 938 606 938 580 938 581 939 580 939 606 939 606 940 607 940 581 940 582 941 581 941 607 941 607 942 608 942 582 942 583 943 582 943 608 943 608 944 609 944 583 944 584 945 583 945 609 945 609 946 610 946 584 946 610 947 611 947 584 947 585 948 584 948 611 948 611 949 612 949 585 949 586 950 585 950 612 950 612 951 613 951 586 951 613 952 614 952 586 952 587 953 586 953 614 953 614 954 615 954 587 954 588 955 587 955 615 955 589 956 588 956 615 956 615 957 616 957 589 957 616 958 617 958 589 958 590 959 589 959 617 959 617 960 618 960 590 960 556 961 590 961 618 961 557 962 556 962 618 962 618 963 619 963 557 963 619 964 620 964 557 964 558 965 557 965 620 965 620 966 621 966 558 966 559 967 558 967 621 967 621 968 622 968 559 968 560 969 559 969 622 969 622 970 623 970 560 970 623 971 624 971 560 971 561 972 560 972 624 972 562 973 561 973 624 973 624 974 625 974 562 974 563 975 562 975 625 975 625 976 626 976 563 976 564 977 563 977 626 977 626 978 627 978 564 978 627 979 591 979 564 979 565 980 564 980 591 980 53 981 54 981 618 981 53 982 618 982 617 982 47 983 53 983 617 983 48 984 47 984 617 984 186 985 48 985 617 985 617 986 616 986 186 986 185 987 186 987 616 987 185 988 616 988 615 988 184 989 185 989 615 989 182 990 184 990 615 990 182 991 615 991 614 991 180 992 182 992 614 992 155 993 180 993 614 993 155 994 614 994 613 994 156 995 155 995 613 995 613 996 612 996 156 996 157 997 156 997 612 997 157 998 612 998 611 998 158 999 157 999 611 999 611 1000 610 1000 158 1000 151 1001 158 1001 610 1001 151 1002 610 1002 609 1002 609 1003 608 1003 151 1003 152 1004 151 1004 608 1004 608 1005 607 1005 152 1005 150 1006 152 1006 607 1006 607 1007 606 1007 150 1007 147 1008 150 1008 606 1008 148 1009 147 1009 606 1009 606 1010 605 1010 148 1010 44 1011 148 1011 605 1011 605 1012 604 1012 44 1012 45 1013 44 1013 604 1013 122 1014 45 1014 604 1014 604 1015 603 1015 122 1015 123 1016 122 1016 603 1016 603 1017 602 1017 123 1017 121 1018 123 1018 602 1018 117 1019 121 1019 602 1019 602 1020 601 1020 117 1020 118 1021 117 1021 601 1021 601 1022 600 1022 118 1022 120 1023 118 1023 600 1023 600 1024 599 1024 120 1024 116 1025 120 1025 599 1025 599 1026 598 1026 116 1026 598 1027 597 1027 116 1027 113 1028 116 1028 597 1028 597 1029 596 1029 113 1029 111 1030 113 1030 596 1030 596 1031 595 1031 111 1031 112 1032 111 1032 595 1032 595 1033 594 1033 112 1033 110 1034 112 1034 594 1034 594 1035 593 1035 110 1035 108 1036 110 1036 593 1036 593 1037 592 1037 108 1037 100 1038 108 1038 592 1038 93 1039 100 1039 592 1039 592 1040 591 1040 93 1040 94 1041 93 1041 591 1041 94 1042 591 1042 627 1042 98 1043 94 1043 627 1043 98 1044 627 1044 626 1044 85 1045 98 1045 626 1045 85 1046 626 1046 625 1046 86 1047 85 1047 625 1047 83 1048 86 1048 625 1048 83 1049 625 1049 624 1049 84 1050 83 1050 624 1050 624 1051 623 1051 84 1051 82 1052 84 1052 623 1052 623 1053 622 1053 82 1053 59 1054 82 1054 622 1054 59 1055 622 1055 621 1055 80 1056 59 1056 621 1056 80 1057 621 1057 620 1057 76 1058 80 1058 620 1058 51 1059 76 1059 620 1059 51 1060 620 1060 619 1060 52 1061 51 1061 619 1061 619 1062 618 1062 52 1062 54 1063 52 1063 618 1063</p>
        </triangles>
      </mesh>
    </geometry>
  </library_geometries>
  <library_visual_scenes>
    <visual_scene id="Scene" name="Scene">
      <node id="Link6" name="Link6" type="NODE">
        <matrix sid="transform">1 0 0 0 0 1 0 0 0 0 1 0 0 0 0 1</matrix>
        <instance_geometry url="#Link6-mesh" name="Link6">
          <bind_material>
            <technique_common>
              <instance_material symbol="Material_008-material" target="#Material_008-material"/>
            </technique_common>
          </bind_material>
        </instance_geometry>
      </node>
    </visual_scene>
  </library_visual_scenes>
  <scene>
    <instance_visual_scene url="#Scene"/>
  </scene>
</COLLADA>