<?xml version="1.0" encoding="utf-8"?>
<COLLADA xmlns="http://www.collada.org/2005/11/COLLADASchema" version="1.4.1" xmlns:xsi="http://www.w3.org/2001/XMLSchema-instance">
  <asset>
    <contributor>
      <author>Blender User</author>
      <authoring_tool>Blender 2.82.7</authoring_tool>
    </contributor>
    <created>2024-02-04T10:17:09</created>
    <modified>2024-02-04T10:17:09</modified>
    <unit name="meter" meter="1"/>
    <up_axis>Z_UP</up_axis>
  </asset>
  <library_cameras>
    <camera id="Camera-camera" name="Camera.007">
      <optics>
        <technique_common>
          <perspective>
            <xfov sid="xfov">49.13434</xfov>
            <aspect_ratio>1.777778</aspect_ratio>
            <znear sid="znear">0.1</znear>
            <zfar sid="zfar">100</zfar>
          </perspective>
        </technique_common>
      </optics>
      <extra>
        <technique profile="blender">
          <shiftx sid="shiftx" type="float">0</shiftx>
          <shifty sid="shifty" type="float">0</shifty>
          <dof_distance sid="dof_distance" type="float">10</dof_distance>
        </technique>
      </extra>
    </camera>
  </library_cameras>
  <library_effects>
    <effect id="colour_abb_black-effect">
      <profile_COMMON>
        <technique sid="common">
          <lambert>
            <emission>
              <color sid="emission">0 0 0 1</color>
            </emission>
            <diffuse>
              <color sid="diffuse">0.09411765 0.0980392 0.1019608 1</color>
            </diffuse>
            <index_of_refraction>
              <float sid="ior">1</float>
            </index_of_refraction>
          </lambert>
        </technique>
      </profile_COMMON>
    </effect>
  </library_effects>
  <library_images/>
  <library_materials>
    <material id="colour_abb_black-material" name="colour_abb_black">
      <instance_effect url="#colour_abb_black-effect"/>
    </material>
  </library_materials>
  <library_geometries>
    <geometry id="Link_6-mesh" name="Link 6">
      <mesh>
        <source id="Link_6-mesh-positions">
          <float_array id="Link_6-mesh-positions-array" count="2550">-4.99971e-4 -0.006234884 0.007918238 -0.004999995 -0.005768418 0.008211314 -4.99971e-4 -0.004338741 0.009109616 -0.004999995 -0.004338741 0.009109616 -4.99971e-4 -0.0022251 0.00984925 -0.004999995 -0.0022251 0.00984925 -4.99971e-4 0 0.01009994 -0.004999995 0 0.01009994 -4.99971e-4 0.0022251 0.00984925 -0.004999995 0.0022251 0.00984925 -4.99971e-4 0.004338741 0.009109616 -0.004999995 0.004338741 0.009109616 -0.004999995 0.005768418 0.008211314 -4.99971e-4 0.006234884 0.007918238 -0.004999995 0.006234884 0.007918238 -4.99971e-4 0.007818281 0.006334841 -0.004999995 0.007818281 0.006334841 -4.99971e-4 0.009009659 0.004438698 -0.004999995 0.009009659 0.004438698 -4.99971e-4 0.009749233 0.002325177 -0.004999995 0.009749233 0.002325177 -4.99971e-4 0.00999999 1.00015e-4 -0.004999995 0.00999999 1.00015e-4 -4.99971e-4 0.009749233 -0.002125144 -0.004999995 0.009749233 -0.002125144 -4.99971e-4 0.009009659 -0.004238784 -0.004999995 0.009009659 -0.004238784 -4.99971e-4 0.007818281 -0.006134808 -0.004999995 0.007818281 -0.006134808 -4.99971e-4 0.006234884 -0.007718265 -0.004999995 0.006234884 -0.007718265 -0.004999995 0.005768418 -0.0080114 -4.99971e-4 0.004338741 -0.008909702 -0.004999995 0.004338741 -0.008909702 -4.99971e-4 0.0022251 -0.009649276 -0.004999995 0.0022251 -0.009649276 -4.99971e-4 0 -0.009899973 -0.004999995 0 -0.009899973 -4.99971e-4 -0.0022251 -0.009649276 -0.004999995 -0.0022251 -0.009649276 -4.99971e-4 -0.004338741 -0.008909702 -0.004999995 -0.004338741 -0.008909702 -0.004999995 -0.005768418 -0.0080114 -4.99971e-4 -0.006234884 -0.007718265 -0.004999995 -0.006234884 -0.007718265 -4.99971e-4 -0.007818281 -0.006134808 -0.004999995 -0.007818281 -0.006134808 -4.99971e-4 -0.009009659 -0.004238784 -0.004999995 -0.009009659 -0.004238784 -4.99971e-4 -0.009749233 -0.002125144 -0.004999995 -0.009749233 -0.002125144 -4.99971e-4 -0.00999999 1.00015e-4 -0.004999995 -0.00999999 1.00015e-4 -4.99971e-4 -0.009749233 0.002325177 -0.004999995 -0.009749233 0.002325177 -4.99971e-4 -0.009009659 0.004438698 -0.004999995 -0.009009659 0.004438698 -4.99971e-4 -0.007818281 0.006334841 -0.004999995 -0.007818281 0.006334841 -0.004999995 -0.006234884 0.007918238 0 -0.005768418 -0.008598208 0 -0.004555702 -0.009360194 0 -0.002336442 -0.01013672 -4.99971e-4 0 -0.009899973 0 0 -0.01039993 0 0.002336442 -0.01013672 0 0.004555702 -0.009360194 0 -0.006546556 0.008309185 0 -0.008209228 0.006646513 0 -0.009460151 0.004655659 0 -0.01023674 0.002436399 0 -0.01049995 1.00015e-4 0 -0.01023674 -0.002236485 0 -0.009460151 -0.004455745 0 -0.008209228 -0.006446599 0 -0.006546556 -0.008109211 0 0.005768418 0.008798122 0 0.004555702 0.009560108 0 0.002336442 0.01033669 -4.99971e-4 0 0.01009994 0 0 0.01060003 0 -0.002336442 0.01033669 0 -0.004555702 0.009560108 0 -0.005768418 0.008798122 0 0.005768418 -0.008598208 0 0.006546556 -0.008109211 0 0.008209228 -0.006446599 0 0.009460151 -0.004455745 0 0.01023674 -0.002236485 0 0.01049995 1.00015e-4 0 0.01023674 0.002436399 0 0.009460151 0.004655659 0 0.008209228 0.006646513 0 0.006546556 0.008309185 -0.004999995 0.01232975 0.0129652 0 0.01186835 0.0131402 -0.004999995 0.01161837 0.01323497 0 0.01139003 0.01332157 -0.004999995 0.01139003 0.01332157 -0.004999995 0.01039218 0.01320046 0 0.01039218 0.01320046 -0.004999995 0.009565055 0.01262944 0 0.009565055 0.01262944 0 0.009218096 0.01196849 -0.004999995 0.009097933 0.01173949 0 0.009097933 0.01173949 -0.004999995 0.009097933 0.01171845 0 0.009097933 0.01073431 -0.004999995 0.009097933 0.01073431 -0.004999995 0.009565055 0.009844303 0 0.009565055 0.009844303 -0.004999995 0.01039218 0.00927335 0 0.01039218 0.00927335 -0.004999995 0.01139003 0.009152173 0 0.01139003 0.009152173 -0.004999995 0.01161837 0.009238779 0 0.01186835 0.00933361 -0.004999995 0.01232975 0.009508609 0 0.01232975 0.009508609 -0.004999995 0.01299631 0.01026093 0 0.01299631 0.01026093 -0.004999995 0.01323688 0.01123684 0 0.01323688 0.01123684 -0.004999995 0.01311814 0.01171845 0 0.01305651 0.01196849 -0.004999995 0.01299631 0.01221287 0 0.01299631 0.01221287 0 0.01232975 0.0129652 -0.004999995 -0.01270878 0.01262944 0 -0.01305568 0.01196849 -0.004999995 -0.0131759 0.01173949 0 -0.0131759 0.01173949 -0.004999995 -0.0131759 0.01171845 0 -0.0131759 0.01073431 -0.004999995 -0.0131759 0.01073431 -0.004999995 -0.01270878 0.009844303 0 -0.01270878 0.009844303 -0.004999995 -0.01188153 0.00927335 0 -0.01188153 0.00927335 -0.004999995 -0.01161837 0.009241402 0 -0.01186835 0.00927174 -0.004999995 -0.01088374 0.009152173 0 -0.01088374 0.009152173 -0.004999995 -0.009943962 0.009508609 0 -0.009943962 0.009508609 -0.004999995 -0.009277462 0.01026093 0 -0.009277462 0.01026093 -0.004999995 -0.009036898 0.01123684 0 -0.009036898 0.01123684 -0.004999995 -0.009155571 0.01171845 0 -0.009217202 0.01196849 -0.004999995 -0.009277462 0.01221287 0 -0.009277462 0.01221287 -0.004999995 -0.009943962 0.0129652 0 -0.009943962 0.0129652 -0.004999995 -0.01088374 0.01332157 0 -0.01088374 0.01332157 -0.004999995 -0.01161837 0.01323235 0 -0.01186835 0.01320207 -0.004999995 -0.01188153 0.01320046 0 -0.01188153 0.01320046 0 -0.01270878 0.01262944 -0.004999995 -0.0131759 -0.01153945 -0.004999995 -0.0131759 -0.01151841 0 -0.0131759 -0.01053428 -0.004999995 -0.0131759 -0.01053428 0 -0.01270878 -0.009644389 -0.004999995 -0.01270878 -0.009644389 0 -0.01188153 -0.009073376 -0.004999995 -0.01188153 -0.009073376 0 -0.01186835 -0.009071826 -0.004999995 -0.01161837 -0.009041428 0 -0.01088374 -0.00895226 -0.004999995 -0.01088374 -0.00895226 0 -0.009943962 -0.009308636 -0.004999995 -0.009943962 -0.009308636 0 -0.009277462 -0.01006096 -0.004999995 -0.009277462 -0.01006096 0 -0.009036898 -0.01103693 0 -0.0131759 -0.01153945 0 -0.01305568 -0.01176846 -0.004999995 -0.01270878 -0.01242941 0 -0.01270878 -0.01242941 -0.004999995 -0.01188153 -0.01300042 0 -0.01188153 -0.01300042 -0.004999995 -0.01161837 -0.01303237 0 -0.01186835 -0.01300197 -0.004999995 -0.01088374 -0.0131216 0 -0.01088374 -0.0131216 -0.004999995 -0.009943962 -0.0127651 0 -0.009943962 -0.0127651 -0.004999995 -0.009277462 -0.01201277 0 -0.009277462 -0.01201277 0 -0.009217202 -0.01176846 -0.004999995 -0.009155571 -0.01151841 -0.004999995 -0.009036898 -0.01103693 -0.004999995 0.009097933 -0.01153945 -0.004999995 0.009097933 -0.01151841 0 0.009097933 -0.01053428 -0.004999995 0.009097933 -0.01053428 0 0.009565055 -0.009644389 -0.004999995 0.009565055 -0.009644389 0 0.01039218 -0.009073376 -0.004999995 0.01039218 -0.009073376 0 0.01139003 -0.00895226 -0.004999995 0.01139003 -0.00895226 0 0.01186835 -0.009133696 -0.004999995 0.01161837 -0.009038865 0 0.01232975 -0.009308636 -0.004999995 0.01232975 -0.009308636 0 0.01299631 -0.01006096 -0.004999995 0.01299631 -0.01006096 0 0.01323688 -0.01103693 0 0.009097933 -0.01153945 0 0.009218096 -0.01176846 -0.004999995 0.009565055 -0.01242941 0 0.009565055 -0.01242941 -0.004999995 0.01039218 -0.01300042 0 0.01039218 -0.01300042 -0.004999995 0.01139003 -0.0131216 0 0.01139003 -0.0131216 -0.004999995 0.01161837 -0.01303493 0 0.01186835 -0.0129401 -0.004999995 0.01232975 -0.0127651 0 0.01232975 -0.0127651 -0.004999995 0.01299631 -0.01201277 0 0.01299631 -0.01201277 0 0.01305651 -0.01176846 -0.004999995 0.01311814 -0.01151841 -0.004999995 0.01323688 -0.01103693 -0.004999995 0.002499938 0.01584994 0 0.002499938 0.01584994 -0.004999995 0.00225234 0.01693469 0 0.00225234 0.01693469 -0.004999995 0.001558721 0.01780456 0 0.001558721 0.01780456 -0.004999995 5.56302e-4 0.0182873 0 5.56302e-4 0.0182873 -0.004999995 -5.56302e-4 0.0182873 0 -5.56302e-4 0.0182873 -0.004999995 -0.001558721 0.01780456 0 -0.001558721 0.01780456 -0.004999995 -0.00225234 0.01693469 0 -0.00225234 0.01693469 -0.004999995 -0.002499938 0.01584994 0 -0.002499938 0.01584994 -0.004999995 -0.00225234 0.01476526 0 -0.00225234 0.01476526 -0.004999995 -0.001558721 0.01389545 0 -0.001558721 0.01389545 -0.004999995 -5.56302e-4 0.01341265 0 -5.56302e-4 0.01341265 -0.004999995 5.56302e-4 0.01341265 0 5.56302e-4 0.01341265 -0.004999995 0.001558721 0.01389545 0 0.001558721 0.01389545 -0.004999995 0.00225234 0.01476526 0 0.00225234 0.01476526 0 0.005768418 0.01196849 0 0.006914794 0.01833277 0 0.005768418 0.01866477 0 0.005768418 0.01334345 0 -0.01350808 0.01416343 0 -0.01423454 0.01334345 0 -0.01186835 0.01334345 0 -0.01924747 0.003227949 0 -0.01949989 1.00015e-4 0 -0.01545268 0.01196849 0 -0.01558905 0.01181441 0 -0.01726639 0.009162068 0 -0.01849645 0.006274878 0 -0.005768418 0.01869994 0 -0.008359491 0.0177173 0 -0.005768418 0.01334345 0 -0.01107716 0.01614814 0 -0.01186835 0.01550221 0 -0.005425155 0.01883012 0 -0.002350389 0.01945775 0 7.85186e-4 0.01958411 0 0.003900468 0.01920586 0 0.01427048 0.01334345 0 0.01233261 0.01520472 0 0.01186835 0.01334345 0 0.01186835 0.01552522 0 0.009749948 0.0169875 0 0.01893335 -0.004566669 0 0.0179395 -0.007543325 0 0.01648116 -0.01032209 0 0.01539427 -0.01176846 0 0.01459586 -0.01283091 0 0.01233261 -0.01500481 0 0.01186835 -0.01532518 0 0.009749948 -0.0167874 0 0.006914794 -0.0181328 0 0.005768418 -0.01846486 0 0.005768418 -0.01176846 0 0.003900468 -0.01900589 0 -0.005768418 -0.01849991 0 -0.005425155 -0.01863002 0 -0.005768418 -0.01176846 0 -0.002350389 -0.01925784 0 7.85186e-4 -0.0193842 0 -0.01186835 -0.01530218 0 -0.01107716 -0.01594817 0 -0.008359491 -0.0175172 0 -0.01350808 -0.01396346 0 -0.01545268 -0.01176846 0 -0.01186835 1.00015e-4 0 -0.01924747 -0.003028035 0 -0.01849645 -0.006074965 0 -0.01558905 -0.0116145 0 -0.01726639 -0.008962094 0 0.01943665 1.00015e-4 0 0.01186835 1.00015e-4 0 -0.005768418 0.01196849 0 0 0.01060003 0 0 -0.01039993 0 0.01943665 -0.001469016 0 0.01459586 0.01303082 0 0.01539427 0.01196849 0 0.01648116 0.010522 0 0.0179395 0.007743299 0 0.01893335 0.004766583 0 0.01943665 0.001669049 -8.66003e-4 -0.01999998 1.00015e-4 -8.66003e-4 -0.01987046 -0.001504123 -8.66003e-4 -0.01974093 -0.003108203 -8.66003e-4 -0.01935583 -0.004670739 -8.66003e-4 -0.01897066 -0.006233274 -8.66003e-4 -0.01833987 -0.007713854 -8.66003e-4 -0.01770907 -0.009194433 -8.66003e-4 -0.01684898 -0.01055467 -8.66003e-4 -0.01598876 -0.01191478 -8.66003e-4 -0.0149216 -0.01311939 -8.66003e-4 -0.01385444 -0.014324 -8.66003e-4 -0.01260787 -0.01534181 -8.66003e-4 -0.01136124 -0.01635962 -8.66003e-4 -0.009967565 -0.01716428 -8.66003e-4 -0.00857383 -0.01796901 -8.66003e-4 -0.007069051 -0.0185396 -8.66003e-4 -0.005564332 -0.01911038 -8.66003e-4 -0.003987491 -0.01943218 -8.66003e-4 -0.00241065 -0.01975417 -8.66003e-4 -8.02707e-4 -0.01981896 -8.66003e-4 8.05319e-4 -0.01988375 -8.66003e-4 0.002402842 -0.01968973 -8.66003e-4 0.004000425 -0.01949578 -8.66003e-4 0.005546212 -0.01904809 -8.66003e-4 0.007091999 -0.01860034 -8.66003e-4 0.008545994 -0.01791042 -8.66003e-4 0.00999999 -0.01722043 -8.66003e-4 0.01132434 -0.01630628 -8.66003e-4 0.01264888 -0.01539212 -8.66003e-4 0.01380956 -0.01427721 -8.66003e-4 0.01497018 -0.01316243 -8.66003e-4 0.01593697 -0.0118758 -8.66003e-4 0.01690369 -0.0105893 -8.66003e-4 0.01765161 -0.009164333 -8.66003e-4 0.01839947 -0.007739245 -8.66003e-4 0.01890921 -0.00621283 -8.66003e-4 0.01941883 -0.004686236 -8.66003e-4 0.01967698 -0.003097832 -8.66003e-4 0.01993513 -0.001509249 -8.66003e-4 0.01999998 1.00015e-4 -8.66003e-4 0.01993513 0.001709282 -8.66003e-4 0.01967698 0.003297746 -8.66003e-4 0.01941883 0.004886209 -8.66003e-4 0.01890921 0.006412684 -8.66003e-4 0.01839947 0.007939279 -8.66003e-4 0.01765161 0.009364247 -8.66003e-4 0.01690369 0.01078933 -8.66003e-4 0.01593697 0.0120759 -8.66003e-4 0.01497018 0.0133624 -8.66003e-4 0.01380956 0.01447725 -8.66003e-4 0.01264888 0.01559203 -8.66003e-4 0.01132434 0.01650631 -8.66003e-4 0.00999999 0.01742053 -8.66003e-4 0.008545994 0.01811039 -8.66003e-4 0.007091999 0.01880025 -8.66003e-4 0.005546212 0.019248 -8.66003e-4 0.004000425 0.01969575 -8.66003e-4 0.002402842 0.01988977 -8.66003e-4 8.05319e-4 0.02008378 -8.66003e-4 -8.02707e-4 0.02001899 -8.66003e-4 -0.00241065 0.0199542 -8.66003e-4 -0.003987491 0.01963222 -8.66003e-4 -0.005564332 0.01931035 -8.66003e-4 -0.007069051 0.0187397 -8.66003e-4 -0.00857383 0.01816898 -8.66003e-4 -0.009967565 0.01736432 -8.66003e-4 -0.01136124 0.01655966 -8.66003e-4 -0.01260787 0.01554185 -8.66003e-4 -0.01385444 0.01452404 -8.66003e-4 -0.0149216 0.01331943 -8.66003e-4 -0.01598876 0.01211482 -8.66003e-4 -0.01684898 0.01075464 -8.66003e-4 -0.01770907 0.009394407 -8.66003e-4 -0.01833987 0.007913827 -8.66003e-4 -0.01897066 0.006433308 -8.66003e-4 -0.01935583 0.004870653 -8.66003e-4 -0.01974093 0.003308117 -8.66003e-4 -0.01987046 0.001704037 -0.004999995 0.01974093 -0.003108203 -0.004999995 0.01999998 1.00015e-4 -0.004999995 0.01897066 -0.006233274 -0.004999995 0.01770907 -0.009194433 -0.004999995 0.01623946 -0.01151841 -0.004999995 0.01598876 -0.01191478 -0.004999995 0.01385444 -0.014324 -0.004999995 0.01161837 -0.01614964 -0.004999995 0.01136124 -0.01635962 -0.004999995 0.00857383 -0.01796901 -0.004999995 0.005768418 -0.01903295 -0.004999995 0.005564332 -0.01911038 -0.004999995 0.00241065 -0.01975417 -0.004999995 -8.05319e-4 -0.01988375 -0.004999995 -0.004000425 -0.01949578 -0.004999995 -0.005768418 -0.01898372 -0.004999995 -0.007091999 -0.01860034 -0.004999995 -0.00999999 -0.01722043 -0.004999995 -0.01161837 -0.01610332 -0.004999995 -0.01264888 -0.01539212 -0.004999995 -0.01497018 -0.01316243 -0.004999995 -0.01620548 -0.01151841 -0.004999995 -0.01690369 -0.0105893 -0.004999995 -0.01839947 -0.007739245 -0.004999995 -0.01941883 -0.004686236 -0.004999995 -0.01993513 -0.001509249 -0.004999995 -0.01993513 1.00015e-4 -0.004999995 -0.01993513 0.001709282 -0.004999995 -0.01941883 0.004886209 -0.004999995 -0.01839947 0.007939279 -0.004999995 -0.01690369 0.01078933 -0.004999995 -0.01620548 0.01171845 -0.004999995 -0.01498436 0.01334345 -0.004999995 -0.01497018 0.0133624 -0.004999995 -0.01264888 0.01559203 -0.004999995 -0.01161837 0.01630336 -0.004999995 -0.00999999 0.01742053 -0.004999995 -0.007091999 0.01880025 -0.004999995 -0.005768418 0.01918369 -0.004999995 -0.004000425 0.01969575 -0.002499938 -5e-4 0.02009367 -0.004499912 -5e-4 0.02009367 -0.004999995 -8.05319e-4 0.02008378 -0.004499912 5e-4 0.02009367 -0.004999995 0.00241065 0.0199542 -0.002499938 5e-4 0.02009367 -0.004999995 0.005564332 0.01931035 -0.004999995 0.005768418 0.01923286 -0.004999995 0.00857383 0.01816898 -0.004999995 0.01136124 0.01655966 -0.004999995 0.01161837 0.01634973 -0.004999995 0.01385444 0.01452404 -0.004999995 0.01490032 0.01334345 -0.004999995 0.01598876 0.01211482 -0.004999995 0.01623946 0.01171845 -0.004999995 0.01770907 0.009394407 -0.004999995 0.01897066 0.006433308 -0.004999995 0.01974093 0.003308117 -0.002499938 5e-4 0.01990002 -0.002499938 -5e-4 0.01990002 -0.004499912 -5e-4 0.01990002 -0.004499912 5e-4 0.01990002 -0.004999995 0.005768418 0.01171845 -0.004999995 -0.005768418 -0.01151841 -0.004999995 -0.005768418 0.01334345 -0.004999995 0.01161837 0.01334345 -0.004999995 0.005768418 -0.01151841 -0.004999995 0.01161837 1.00015e-4 -0.004999995 0 -0.009899973 -0.004999995 -0.005768418 0.01171845 -0.004999995 -0.01161837 1.00015e-4 -0.004999995 0 0.01009994 -0.004999995 -0.01161837 0.01334345 -0.004999995 0.005768418 0.01334345 -0.004999995 -0.007091999 -0.01860034 -0.004999995 -0.00999999 -0.01722043 -0.004999995 -0.002499938 0.01584994 -0.004999995 -0.00225234 0.01476526 -0.004999995 0.005768418 0.01923286 -0.004999995 0.00857383 0.01816898 0 0.009460151 0.004655659 0 0.008209228 0.006646513 -0.004999995 0.005768418 -0.0080114 -0.004999995 0.004338741 -0.008909702 0 -0.01270878 -0.01242941 0 -0.01188153 -0.01300042 -0.004999995 -0.005768418 0.008211314 -0.004999995 -0.004338741 0.009109616 0 0.01305651 0.01196849 0 0.01299631 0.01221287 0 -0.009217202 0.01196849 0 -0.009277462 0.01221287 0 -0.001558721 0.01780456 0 -0.00225234 0.01693469 -0.004999995 -0.01161837 -0.01610332 -0.004999995 0.01623946 0.01171845 -0.004999995 0.01770907 0.009394407 -4.99971e-4 0.004338741 -0.008909702 -4.99971e-4 0.0022251 -0.009649276 0 -0.01107716 0.01614814 0 -0.01186835 0.01550221 0 0.009218096 -0.01176846 0 0.009565055 -0.01242941 -4.99971e-4 -0.006234884 0.007918238 -4.99971e-4 -0.004338741 0.009109616 -0.004999995 0.01323688 0.01123684 -0.004999995 0.01311814 0.01171845 -0.004999995 -0.01161837 0.01323235 -0.004999995 -0.01188153 0.01320046 -0.004999995 -0.01690369 -0.0105893 -0.004999995 -0.01839947 -0.007739245 -0.004999995 -0.001558721 0.01389545 -0.004999995 0.0022251 -0.009649276 -0.004999995 0.01598876 0.01211482 -0.004999995 0.01232975 0.0129652 -0.004999995 0.01161837 0.01323497 0 0.01049995 1.00015e-4 0 0.01023674 0.002436399 -0.004999995 0.01232975 -0.009308636 -0.004999995 0.01299631 -0.01006096 0 -0.01726639 0.009162068 0 -0.01849645 0.006274878 0 -0.005768418 -0.008598208 0 -0.004555702 -0.009360194 -0.002499938 5e-4 0.01990002 -0.002499938 5e-4 0.01990002 -0.004499912 5e-4 0.01990002 -0.004499912 5e-4 0.01990002 0 -0.00225234 0.01476526 0 -0.001558721 0.01389545 -0.004999995 0.006234884 -0.007718265 -0.004999995 -0.0022251 0.00984925 0 -0.01088374 -0.0131216 0 -0.009943962 -0.0127651 0 -0.0131759 -0.01153945 0 -0.01305568 -0.01176846 -0.004999995 -0.0131759 -0.01153945 -0.004999995 -0.01270878 -0.01242941 0 -0.01088374 0.01332157 0 -0.01186835 0.01320207 -0.004999995 -0.01993513 0.001709282 -0.004999995 -0.01941883 0.004886209 -0.004999995 0.01136124 0.01655966 0 0.01233261 0.01520472 0 0.01186835 0.01552522 -0.004499912 5e-4 0.02009367 -0.004499912 5e-4 0.02009367 0 0.01023674 -0.002236485 0 0.01427048 0.01334345 0 0.01039218 -0.01300042 -0.004999995 0.01299631 0.01026093 -0.004999995 -0.009277462 0.01221287 -0.004999995 -0.009943962 0.0129652 -0.004999995 -0.009943962 -0.0127651 -0.004999995 -0.009277462 -0.01201277 -0.004999995 0.009565055 -0.01242941 -0.004999995 0.01039218 -0.01300042 0 0.01232975 0.0129652 -0.004999995 -0.01839947 0.007939279 -0.004999995 -5.56302e-4 0.01341265 0 0.009460151 -0.004455745 0 0.01139003 0.01332157 0 0.01039218 0.01320046 -0.004999995 -0.009943962 -0.009308636 -0.004999995 -0.009277462 -0.01006096 0 0.01299631 0.01026093 0 0.01323688 0.01123684 0 -0.009277462 0.01026093 0 -0.009036898 0.01123684 0 5.56302e-4 0.0182873 0 -5.56302e-4 0.0182873 -0.004999995 -0.01690369 0.01078933 0 0.01943665 1.00015e-4 0 0.01943665 -0.001469016 0 0.009749948 -0.0167874 0 0.006914794 -0.0181328 0 0.01299631 -0.01006096 0 0.01323688 -0.01103693 -4.99971e-4 0.006234884 -0.007718265 -0.004999995 0.007818281 -0.006134808 0 -0.01350808 0.01416343 0 -0.01423454 0.01334345 -0.004999995 -0.009277462 0.01026093 -0.004999995 -0.009036898 0.01123684 -0.004999995 -0.00225234 0.01693469 0 0.005768418 -0.01846486 0 0.003900468 -0.01900589 -0.004999995 0.01139003 -0.00895226 -0.004999995 0.01161837 -0.009038865 -0.004999995 0.01299631 0.01221287 -0.004499912 -5e-4 0.01990002 -0.004499912 -5e-4 0.01990002 0 -0.009277462 -0.01006096 0 -0.009036898 -0.01103693 0 -5.56302e-4 0.01341265 0 5.56302e-4 0.01341265 0 -0.009943962 0.009508609 -0.004999995 -0.01620548 0.01171845 -0.004999995 -0.01498436 0.01334345 0 0.01139003 -0.0131216 0 0.01186835 -0.0129401 0 -0.002336442 -0.01013672 0 0.01459586 0.01303082 0 -0.005768418 0.01869994 0 -0.005425155 0.01883012 -0.004999995 0.01039218 0.01320046 -0.004999995 0.009565055 0.01262944 0 -0.008209228 0.006646513 0 -0.009460151 0.004655659 -0.004999995 -0.0022251 -0.009649276 -0.004999995 -0.004338741 -0.008909702 -4.99971e-4 -0.0022251 0.00984925 0 -0.0131759 0.01173949 0 -0.0131759 0.01073431 -0.004999995 5.56302e-4 0.01341265 -0.004999995 0.001558721 0.01389545 -0.004999995 0.01139003 -0.0131216 -0.004999995 0.01161837 -0.01303493 0 0.009749948 0.0169875 0 -0.006546556 0.008309185 -4.99971e-4 0.009009659 -0.004238784 -4.99971e-4 0.007818281 -0.006134808 -0.004999995 0.009097933 0.01173949 0 0.009565055 0.01262944 0 -0.009943962 -0.009308636 -0.004499912 -5e-4 0.02009367 -0.004499912 -5e-4 0.02009367 0 -0.01088374 0.009152173 -0.004999995 0.00857383 -0.01796901 -0.004999995 0.005768418 -0.01903295 -0.004999995 0.002499938 0.01584994 -0.004999995 0.00225234 0.01476526 -0.002499938 -5e-4 0.02009367 -0.002499938 -5e-4 0.02009367 -0.004999995 -0.009009659 0.004438698 -0.004999995 -0.007818281 0.006334841 0 0.01186835 -0.009133696 0 0.01232975 -0.009308636 0 -0.01023674 0.002436399 0 -0.01049995 1.00015e-4 -0.004999995 -0.01088374 -0.0131216 -0.004999995 0.009749233 -0.002125144 -0.004999995 0.009009659 -0.004238784 -0.004999995 0.01999998 1.00015e-4 -0.004999995 0.01974093 0.003308117 -0.004999995 0.01139003 0.009152173 -0.004999995 0.01161837 0.009238779 -0.004999995 0.01136124 -0.01635962 -0.004999995 -5.56302e-4 0.0182873 -0.004999995 -0.001558721 0.01780456 0 -0.002336442 0.01033669 0 -0.004555702 0.009560108 0 0.01539427 0.01196849 0 -0.0131759 -0.01053428 0 -0.01270878 -0.009644389 -0.004999995 0.01039218 0.00927335 -0.004999995 -0.01264888 -0.01539212 -0.004999995 -0.01497018 -0.01316243 -0.004999995 -0.009943962 0.009508609 0 -0.01270878 0.009844303 -4.99971e-4 -0.0022251 -0.009649276 -4.99971e-4 -0.004338741 -0.008909702 -0.004999995 -0.0131759 0.01171845 -0.004999995 -0.0131759 0.01073431 -0.004999995 -0.0131759 -0.01053428 -0.004999995 -0.01270878 -0.009644389 0 0.01648116 0.010522 0 0.002499938 0.01584994 0 0.00225234 0.01476526 0 0.009218096 0.01196849 0 0.01893335 -0.004566669 -0.004999995 -0.00999999 0.01742053 -0.004999995 -0.007091999 0.01880025 -0.004999995 0.01385444 0.01452404 -0.004999995 0.01490032 0.01334345 0 0.01648116 -0.01032209 0 0.01539427 -0.01176846 -0.004999995 0.01385444 -0.014324 -0.004999995 0.01161837 -0.01614964 -0.004999995 -0.006234884 0.007918238 0 -0.01186835 -0.01300197 0 0.01039218 0.00927335 0 0.01139003 0.009152173 -0.004999995 -0.004000425 0.01969575 -0.004999995 -8.05319e-4 0.02008378 0 -0.009943962 0.0129652 -0.002499938 5e-4 0.02009367 -0.002499938 5e-4 0.02009367 -0.004999995 -0.005768418 0.01918369 -0.004999995 -0.01188153 -0.009073376 0 0.0179395 -0.007543325 -0.004999995 0.01598876 -0.01191478 -4.99971e-4 0.007818281 0.006334841 -4.99971e-4 0.009009659 0.004438698 -0.004999995 -0.01264888 0.01559203 -0.004999995 -0.01161837 0.01630336 -0.004999995 -0.01188153 0.00927335 -0.004999995 -0.01161837 0.009241402 0 0.01459586 -0.01283091 0 0.01233261 -0.01500481 -0.004999995 0.01623946 -0.01151841 0 -0.01188153 -0.009073376 0 -0.01186835 -0.009071826 -0.004999995 0.009097933 -0.01151841 -0.004999995 0.009097933 -0.01053428 -0.004999995 0.01323688 -0.01103693 -0.004999995 0.009097933 -0.01153945 0 0.01299631 -0.01201277 0 0.01305651 -0.01176846 0 0.01186835 -0.01532518 0 -0.01545268 0.01196849 0 -0.01188153 0.00927335 -4.99971e-4 -0.009009659 -0.004238784 -4.99971e-4 -0.009749233 -0.002125144 -0.004999995 -0.01161837 -0.009041428 0 0.005768418 0.008798122 0 0.004555702 0.009560108 -0.004999995 -0.01088374 0.009152173 -0.004999995 -0.01497018 0.0133624 -0.004999995 0.005564332 -0.01911038 0 -0.009217202 -0.01176846 -0.004999995 -0.01270878 0.009844303 0 0.01893335 0.004766583 0 0.01943665 0.001669049 -4.99971e-4 0.009749233 0.002325177 0 -0.01949989 1.00015e-4 0 -0.01924747 -0.003028035 0 0.006914794 0.01833277 0 0.005768418 0.01866477 0 -0.006546556 -0.008109211 -0.004999995 0.01311814 -0.01151841 -0.004999995 -0.009009659 -0.004238784 -0.004999995 -0.009749233 -0.002125144 -0.004999995 -0.0131759 -0.01151841 -0.004999995 0.007818281 0.006334841 -0.004999995 0.009009659 0.004438698 0 0.009097933 -0.01053428 0 0.009565055 -0.009644389 0 0.009097933 0.01173949 0 0.009097933 0.01073431 0 0.001558721 0.01389545 -0.004999995 0.009097933 0.01073431 -0.004999995 0.009565055 0.009844303 -0.004999995 0.00225234 0.01693469 -0.004999995 0.00241065 0.0199542 -0.004999995 0.01974093 -0.003108203 -4.99971e-4 -0.00999999 1.00015e-4 0 0.00225234 0.01693469 -4.99971e-4 0.00999999 1.00015e-4 0 -0.01088374 -0.00895226 0 -0.009460151 -0.004455745 0 -0.008209228 -0.006446599 0 0.009565055 0.009844303 -0.004999995 0.00241065 -0.01975417 0 -0.01558905 -0.0116145 0 -0.01726639 -0.008962094 -0.004999995 -0.007818281 -0.006134808 0 -0.01186835 0.00927174 -0.004999995 0.01897066 -0.006233274 -0.004999995 -0.01088374 -0.00895226 0 -0.01023674 -0.002236485 0 0.01039218 -0.009073376 -0.004999995 0.006234884 0.007918238 -0.004999995 0.001558721 0.01780456 -0.004999995 0.01299631 -0.01201277 -0.004999995 0.009565055 -0.009644389 -4.99971e-4 -0.009749233 0.002325177 -0.002499938 -5e-4 0.01990002 -0.002499938 -5e-4 0.01990002 -0.004999995 0.009097933 0.01171845 -4.99971e-4 0.006234884 0.007918238 0 7.85186e-4 -0.0193842 -0.004999995 -0.009155571 -0.01151841 -0.004999995 -0.009036898 -0.01103693 -0.004999995 -8.05319e-4 -0.01988375 -0.004999995 -0.004000425 -0.01949578 0 -0.01849645 -0.006074965 -0.004999995 -0.006234884 -0.007718265 0 -0.005768418 0.008798122 0 7.85186e-4 0.01958411 0 0.003900468 0.01920586 -0.004999995 -0.0131759 0.01173949 0 0.0179395 0.007743299 -0.004999995 -0.01993513 1.00015e-4 -0.004999995 0.005768418 0.008211314 0 -0.005768418 -0.01849991 0 -0.005425155 -0.01863002 0 0.004555702 -0.009360194 0 0.005768418 -0.008598208 -4.99971e-4 -0.007818281 -0.006134808 -4.99971e-4 0.009749233 -0.002125144 0 -0.01305568 0.01196849 0 0.002336442 0.01033669 0 -0.01924747 0.003227949 0 0.001558721 0.01780456 -4.99971e-4 -0.007818281 0.006334841 0 0.01186835 0.00933361 -0.004999995 0.01232975 -0.0127651 -0.004999995 -0.005768418 -0.01898372 0 0.006546556 -0.008109211 0 -0.002350389 0.01945775 -0.004999995 -0.00999999 1.00015e-4 -0.004999995 -0.01270878 0.01262944 -0.004999995 0.009749233 0.002325177 0 0.01139003 -0.00895226 0 -0.008359491 -0.0175172 -0.004999995 0.01232975 0.009508609 -0.004999995 -0.009155571 0.01171845 -0.004999995 -0.01941883 -0.004686236 -0.004999995 -0.01993513 -0.001509249 -0.004999995 5.56302e-4 0.0182873 -4.99971e-4 -0.009009659 0.004438698 -0.004999995 0.01139003 0.01332157 -0.004999995 0.005564332 0.01931035 -4.99971e-4 -0.006234884 -0.007718265 -0.004999995 0.01770907 -0.009194433 -0.004999995 0.01897066 0.006433308 -0.004999995 0.01039218 -0.009073376 0 -0.01558905 0.01181441 -4.99971e-4 0.004338741 0.009109616 0 -0.01188153 0.01320046 -0.004999995 0.0022251 0.00984925 -0.004999995 0.004338741 0.009109616 0 0.01232975 0.009508609 0 0.008209228 -0.006446599 -4.99971e-4 0.0022251 0.00984925 0 -0.009277462 -0.01201277 0 -0.002350389 -0.01925784 0 0.01232975 -0.0127651 0 0.009097933 -0.01153945 0 0.01186835 0.0131402 0 0.002336442 -0.01013672 0 -0.01270878 0.01262944 -0.004999995 -0.005768418 -0.0080114 0 -0.01186835 -0.01530218 0 -0.01107716 -0.01594817 -0.004999995 -0.009749233 0.002325177 -0.004999995 0.00999999 1.00015e-4 -0.004999995 -0.01188153 -0.01300042 0 -0.01545268 -0.01176846 -0.004999995 -0.01620548 -0.01151841 0 -0.01350808 -0.01396346 0 -0.008359491 0.0177173 0 -0.002499938 0.01584994 -0.004999995 0.01161837 0.01634973 -0.004999995 -0.01161837 -0.01303237 -0.004999995 -0.01088374 0.01332157 0 0.006546556 0.008309185</float_array>
          <technique_common>
            <accessor source="#Link_6-mesh-positions-array" count="850" stride="3">
              <param name="X" type="float"/>
              <param name="Y" type="float"/>
              <param name="Z" type="float"/>
            </accessor>
          </technique_common>
        </source>
        <source id="Link_6-mesh-normals">
          <float_array id="Link_6-mesh-normals-array" count="1221">0 0.6234773 -0.7818415 0 0.5320165 -0.8467341 0 0.4338946 -0.9009637 0 0.222514 -0.9749296 0 0 -1 0 -0.222514 -0.9749296 0 -0.4338946 -0.9009637 0 -0.5320165 -0.8467341 0 -0.6234773 -0.7818415 0 -0.7818415 -0.6234773 0 -0.9009695 -0.4338826 0 -0.9749296 -0.222514 0 -1 0 0 -0.9749296 0.222514 0 -0.9009695 0.4338826 0 -0.7818415 0.6234773 0 -0.6234959 0.7818266 0 -0.6234773 0.7818415 0 -0.5320165 0.8467341 0 -0.4338579 0.9009814 0 -0.4338826 0.9009695 0 -0.222514 0.9749296 0 0 1 0 0.222514 0.9749296 0 0.4338579 0.9009814 0 0.4338826 0.9009695 0 0.5320165 0.8467341 0 0.6234959 0.7818266 0 0.6234773 0.7818415 0 0.7818415 0.6234773 0 0.9009695 0.4338826 0 0.9749296 0.222514 0 1 0 0 0.9749296 -0.222514 0 0.9009695 -0.4338826 0 0.7818415 -0.6234773 0.7071312 0.4408506 0.5528258 0.704902 0.3773699 0.6005873 0.707134 0.3067808 0.6370614 0.7071257 0.1573255 0.6893636 0.7071373 0 0.7070763 0.7071257 -0.1573255 0.6893636 0.707134 -0.3067808 0.6370614 0.7071064 -0.4408847 0.5528303 0.7071312 0.4408506 -0.5528258 0.7071312 0.5528258 -0.4408506 0.707134 0.6370614 -0.3067808 0.7071558 0.6893327 -0.1573254 0.7071068 0.7071068 0 0.7071558 0.6893327 0.1573254 0.707134 0.6370614 0.3067808 0.7071678 0.5528001 0.4408239 0.7071064 0.4408847 0.5528303 0.7071312 -0.4408506 -0.5528258 0.704902 -0.3773699 -0.6005873 0.707134 -0.3067808 -0.6370614 0.7071558 -0.1573254 -0.6893327 0.7071526 0 -0.707061 0.7071558 0.1573254 -0.6893327 0.707134 0.3067808 -0.6370614 0.7048867 0.3773781 -0.6006003 0.7048785 -0.3774042 0.6005933 0.7071583 -0.5527926 0.4408485 0.707134 -0.6370614 0.3067808 0.7071558 -0.6893327 0.1573254 0.7071068 -0.7071068 0 0.7071558 -0.6893327 -0.1573254 0.707134 -0.6370614 -0.3067808 0.7071312 -0.5528258 -0.4408506 0 -0.5680239 -0.8230121 0 -0.3546027 -0.9350171 0 -0.3546662 -0.934993 0 -0.1205182 -0.9927111 0 -0.120582 -0.9927035 0 0.3546027 -0.9350171 0 0.7485129 -0.6631203 0 0.7484843 -0.6631525 0 0.8854776 -0.464682 0 0.970945 -0.2393028 0 0.9709539 -0.2392669 0 0.970945 0.2393028 0 0.7485129 0.6631203 0 0.3546027 0.9350171 0 -0.1204881 0.9927148 0 -0.1205182 0.9927111 0 -0.3546027 0.9350171 0 -0.3546294 0.935007 0 -0.5680795 0.8229737 0 -0.8854585 0.4647185 0 -0.9709539 -0.2392669 0 -0.970961 -0.2392382 0 -0.8854585 -0.4647185 0 -0.8854776 -0.464682 0 -0.5680589 -0.822988 0 0.885446 -0.4647424 0 0.9709308 -0.2393603 0 0.3545761 0.9350273 0 0.3549634 0.9348803 0 0.1205483 0.9927075 0 0.1209465 0.9926591 0 -0.970945 -0.2393028 0 -0.970938 -0.2393316 0 -0.885446 -0.4647424 0 -0.1204881 -0.9927148 0 0.1205182 -0.9927111 0 0.1209465 -0.9926591 0 0.3545659 -0.935031 0 0.3549734 -0.9348765 0 0.970938 0.2393316 0 0.970938 -0.2393316 0 0.3528954 -0.9356628 0 0.1186879 -0.9929317 0 0.1204881 -0.9927148 0 0.9709237 0.2393891 0 0.8854268 0.4647789 0 0.7485415 0.663088 -9.15571e-5 0.3529222 0.9356527 0 0.1204881 0.9927148 -9.15573e-5 0.1186277 0.9929389 0 -0.1205483 0.9927075 0 -0.5680589 0.822988 0 -0.885446 0.4647424 0 -0.8854268 0.4647789 0 -0.9709308 0.2393603 0 -0.970938 0.2393316 0 -0.1205519 -0.992707 0 -0.3545659 -0.935031 0 -0.3545392 -0.9350411 0 0.885446 0.4647424 0 -0.1205519 0.992707 0 -0.8854776 0.464682 0 -0.970961 0.2392382 0 -0.9709539 0.2392669 0 -0.9009637 -0.4338946 0 -0.6234959 -0.7818266 0 0.6234959 -0.7818266 0 0.9009637 -0.4338946 0 0.9009637 0.4338946 0 0.6235108 0.7818148 0 0.2225431 0.974923 0 -0.2225431 0.974923 0 -0.6235108 0.7818148 0 -0.9009637 0.4338946 1 0 0 0.5000254 -0.8660107 0 0.253769 -0.9672521 -0.004974663 0.4999961 -0.8548125 -0.1389234 0.2599318 -0.9628798 -0.07278817 0.2595342 -0.9532328 -0.1548843 0.2656983 -0.9360477 -0.2306929 0.5000016 -0.821464 -0.274218 0.2595364 -0.9160377 -0.3058037 0.4999643 -0.7668541 -0.4024557 0.2656691 -0.8869165 -0.3778879 0.2595078 -0.8551276 -0.4487901 0.5000023 -0.6923062 -0.5202978 0.2657344 -0.8148133 -0.5152325 0.2515138 -0.7698622 -0.5865603 0.4987833 -0.6487266 -0.5747774 0.2588942 -0.7270278 -0.6359281 0.4999987 -0.5999191 -0.6245787 0.2595384 -0.6689888 -0.696487 0.4988039 -0.5481533 -0.6713588 0.2657322 -0.6097161 -0.746748 0.5000283 -0.4919407 -0.7127174 0.2519977 -0.5446472 -0.7999105 0.5000324 -0.3712399 -0.7823993 0.2591118 -0.4880092 -0.8334916 0.2595385 -0.4139981 -0.8724938 0.4987968 -0.3073533 -0.8103923 0.2656996 -0.3418449 -0.9014133 0.5000327 -0.240952 -0.831811 0.2526403 -0.2636883 -0.9309358 0.4999914 -0.1043747 -0.8597178 0.2593512 -0.1985877 -0.9451456 0.2595337 -0.1163995 -0.9586936 0.2656995 -0.0387898 -0.9632753 0.4999666 0.03485298 -0.8653432 0.259534 0.03888124 -0.964951 0.4999964 0.1732271 -0.8485258 0.2657305 0.1161865 -0.9570204 0.259536 0.1931565 -0.9462198 0.4988027 0.2411307 -0.8324975 0.264721 0.2689327 -0.9260659 0.5000269 0.3070844 -0.809736 0.2589583 0.3419105 -0.9033482 0.5000293 0.4330087 -0.7499828 0.2657322 0.4132935 -0.8709622 0.2595347 0.4828736 -0.8363462 0.4987743 0.4923347 -0.7133238 0.2642081 0.5487423 -0.7931432 0.258618 0.6101663 -0.7488752 0.4999965 0.547698 -0.6708431 0.2657048 0.6678328 -0.69527 0.4999979 0.6482303 -0.5742819 0.2595349 0.7228767 -0.6403835 0.4987717 0.692903 -0.5206844 0.2657039 0.7707124 -0.5791406 0.5000038 0.7319533 -0.4628614 0.2474783 0.823463 -0.5105519 0.2576461 0.8519229 -0.4559012 0.4999967 0.7967353 -0.339435 0.2595383 0.8884547 -0.378534 0.2656992 0.9144434 -0.3052824 0.499998 0.8408682 -0.2072261 0.2595366 0.9376765 -0.2310925 0.5000256 0.8632034 -0.06967514 0.2657321 0.9515632 -0.1546416 0.2621305 0.9609315 -0.08887225 0.5371142 0.8434392 -0.01089549 0.2778435 0.9606109 -0.005462825 0.5085126 0.8572566 0.08078455 0.257431 0.9616659 0.09448802 0.2657321 0.9515632 0.1546416 0.5000209 0.8408554 0.2072229 0.2595366 0.9376765 0.2310925 0.4999967 0.7967353 0.339435 0.2656992 0.9144434 0.3052824 0.2595383 0.8884547 0.378534 0.2657051 0.8536377 0.4479995 0.5000267 0.7319422 0.4628543 0.2581929 0.8158102 0.5174845 0.4988131 0.6928876 0.5206652 0.2636591 0.7720552 0.578286 0.5000307 0.6482027 0.5742845 0.25392 0.7207421 0.6450238 0.4988062 0.6003741 0.6250947 0.2600259 0.6723745 0.6930362 0.4999965 0.547698 0.6708431 0.2586239 0.6101803 0.7488617 0.498808 0.4923379 0.7132979 0.2642365 0.5487378 0.7931368 0.5000293 0.4330087 0.7499828 0.2595385 0.4828503 0.8363586 0.2657002 0.4132605 0.8709875 0.4999688 0.3070862 0.8097712 0.2589299 0.3419132 0.9033553 0.4988027 0.2411307 0.8324975 0.2647264 0.2689685 0.926054 0.4999964 0.1732271 0.8485258 0.259536 0.1931565 0.9462198 0.2613077 0.1119759 0.9587386 0.5000026 0.03485333 0.8653222 0.2568517 0.04715251 0.9653 0.5000274 -0.1043758 0.8596967 0.2705217 -0.04239106 0.9617803 0.2595337 -0.1163995 0.9586936 0.2657018 -0.1928215 0.9445753 0.4999971 -0.2409495 0.831833 0.2548047 -0.2730857 0.9276308 0.4987739 -0.307358 0.8104047 0.2605717 -0.3383648 0.9042188 0.499969 -0.3712686 0.7824262 0.25951 -0.4140014 0.8725007 0.4999979 -0.4919713 0.7127175 0.2657042 -0.4820275 0.8348958 0.2553536 -0.5523658 0.7935279 0.498781 -0.5481617 0.6713691 0.2609394 -0.6075157 0.7502236 0.4999987 -0.5999191 0.6245787 0.2595384 -0.6689888 0.696487 0.4988052 -0.6487458 0.5747368 0.2655766 -0.7216833 0.6392514 0.4987723 -0.6487733 0.5747342 0.255661 -0.7749487 0.5780069 0.4999971 -0.69236 0.5202313 0.4999643 -0.7668541 0.4024557 0.2612097 -0.8139036 0.5189707 0.2595078 -0.8551276 0.4487901 0.4999974 -0.821457 0.2742463 0.2656974 -0.8869093 0.3778848 0.259534 -0.9160291 0.3058313 0.4999982 -0.854816 0.1388934 0.2656983 -0.9360477 0.2306929 0.259533 -0.9532284 0.1549141 0.2657012 -0.9609314 0.07754957 -0.00827068 0.987021 -0.1603783 -0.011994 0.9999281 0 -0.008270621 0.9485012 -0.3166655 0.003662288 0.8809968 -0.4731081 -0.008087575 0.8495017 -0.5275242 -0.00827068 0.799423 -0.6007118 -0.00827074 0.6927019 -0.7211766 0.002166867 0.6248834 -0.7807151 0.003662228 0.5758607 -0.8175397 -0.008270621 0.4286698 -0.9034234 0.002685666 0.3456009 -0.9383777 0.003662288 0.2873684 -0.9578132 -0.00827074 0.1205214 -0.9926763 -0.008270561 -0.04025429 -0.9991553 0.003662288 -0.2093026 -0.9778441 -0.004699945 -0.2692398 -0.9630617 -0.00827074 -0.354574 -0.9349914 0.003662288 -0.5082086 -0.8612263 -0.005218803 -0.5604896 -0.8281452 -0.00827068 -0.6324214 -0.7745804 0.003662288 -0.75477 -0.6559794 -0.005585014 -0.7939598 -0.6079446 -0.008270621 -0.8451611 -0.5344477 -0.00827074 -0.9199451 -0.3919602 -0.00827068 -0.9709101 -0.2393017 0.003662228 -0.9974728 -0.07095593 -0.003692746 -0.9999482 -0.009491324 -0.00827068 -0.9967246 0.08044844 -0.00827068 -0.9709101 0.2393017 -0.00827074 -0.9199451 0.3919602 0.003662228 -0.8400645 0.5424743 -0.001678526 -0.8052779 0.5928953 0.003570675 -0.794164 0.6076932 0.003662288 -0.7552952 0.6553746 0.003662228 -0.6250519 0.7805747 -0.002075314 -0.5760576 0.8174065 -0.008270621 -0.4999625 0.8660076 0.003662288 -0.3456903 0.9383416 -0.002685666 -0.2874897 0.9577801 -0.00827068 -0.2000225 0.9797564 0.01751792 -0.1044669 0.9943741 -0.008942008 -0.01791459 0.9997996 -0.02227914 -0.05679661 0.9981372 -0.06347924 0.05435407 0.9965019 -0.007721304 0.1263182 0.9919598 -9.15582e-5 0.06897383 0.9976186 0.003662228 0.2873964 0.9578047 0.002685666 0.3456009 0.9383777 -0.008270621 0.4286698 0.9034234 0.003662288 0.5758055 0.8175785 0.002166807 0.6248164 0.7807688 0.003662347 0.699539 0.7145851 -0.003570735 0.7421396 0.6702359 0.003662228 0.805118 0.5931035 0.001525938 0.8399268 0.5426976 -0.00827068 0.8854216 0.4647151 -0.008270621 0.9485012 0.3166655 -0.00827068 0.987021 0.1603783 -1 0 0 -1 5.5129e-7 0 -1 1.22548e-6 0 -1 0 0 -1 1.35139e-7 0 -1 -1.35139e-7 0 -1 0 0 -1 -2.44252e-7 0 -1 0 0 -1 2.32157e-7 0 -1 0 0 -1 1.28808e-6 0 -1 1.82361e-7 0 -1 -2.16775e-7 0 -1 0 0 -1 -2.25224e-7 0 -1 2.25224e-7 0 -1 2.08395e-7 0 -1 2.17033e-7 0 -1 -7.28863e-7 0 -1 2.13567e-7 0 -1 2.33186e-7 0 -1 -4.21052e-7 0 -1 -1.38867e-7 0 -1 -3.38532e-7 0 -1 6.96767e-7 0 -1 -1.94519e-6 0 -1 4.85648e-7 0 -1 1.34006e-7 0 -1 -2.36669e-7 0 -1 1.89179e-7 0 -1 -1.64088e-7 0 -1 -1.4143e-7 0 -1 3.9952e-7 0 -1 -2.99105e-7 0 -1 2.08028e-7 0 -1 7.03564e-7 0 -1 -2.51136e-7 0 -1 0 0 -1 1.11977e-6 0 -1 -4.86483e-7 0 -1 -4.4333e-7 0 -1 2.20588e-6 0 -1 -4.67061e-7 0 -1 3.28183e-7 0 -1 -1.97879e-7 0 -1 0 0 -1 0 0 -1 0 0 -1 3.09864e-7 0 -1 2.08023e-7 0 -1 -2.20185e-7 0 -1 1.76444e-6 0 -1 2.4538e-6 0 -1 -1.97972e-7 0 -1 1.96922e-7 0 -1 6.2196e-7 0 -1 -2.98191e-7 0 -1 1.60604e-7 0 -1 0 0 -1 1.29847e-7 0 -1 1.69895e-7 0 -1 1.40346e-7 0 -1 -3.86208e-7 0 -1 -5.64552e-7 0 -1 -1.19579e-6 0 -1 -6.20317e-7 0 -1 1.8724e-7 0 -1 -1.38876e-7 0 -1 0 0 -1 0 0 -1 -2.29421e-6 0 -1 -2.44977e-7 0</float_array>
          <technique_common>
            <accessor source="#Link_6-mesh-normals-array" count="407" stride="3">
              <param name="X" type="float"/>
              <param name="Y" type="float"/>
              <param name="Z" type="float"/>
            </accessor>
          </technique_common>
        </source>
        <vertices id="Link_6-mesh-vertices">
          <input semantic="POSITION" source="#Link_6-mesh-positions"/>
        </vertices>
        <triangles material="colour_abb_black-material" count="960">
          <input semantic="VERTEX" source="#Link_6-mesh-vertices" offset="0"/>
          <input semantic="NORMAL" source="#Link_6-mesh-normals" offset="1"/>
          <p>0 0 488 1 506 2 506 2 488 1 489 2 506 2 489 2 4 3 4 3 489 2 533 3 4 3 533 3 6 4 6 4 533 3 7 4 6 4 7 4 827 5 827 5 7 4 823 5 827 5 823 5 821 6 823 5 11 6 821 6 821 6 11 6 12 7 821 6 12 7 13 8 13 8 12 7 764 8 13 8 764 8 15 9 15 9 764 8 16 9 15 9 16 9 695 10 695 10 16 9 18 10 695 10 18 10 19 11 19 11 18 10 20 11 19 11 20 11 750 12 750 12 20 11 22 12 750 12 22 12 792 13 792 13 22 12 643 13 792 13 643 13 25 14 25 14 643 13 644 14 25 14 644 14 27 15 27 15 644 14 581 15 27 15 581 15 580 16 581 15 532 17 580 16 580 16 532 17 484 18 580 16 484 18 499 19 499 19 484 18 485 20 499 19 485 20 500 21 500 21 485 20 514 21 500 21 514 21 36 22 36 22 514 21 37 22 36 22 37 22 662 23 662 23 37 22 39 23 662 23 39 23 663 24 39 23 612 25 663 24 663 24 612 25 42 26 663 24 42 26 43 27 43 27 42 26 44 28 43 27 44 28 791 29 791 29 44 28 758 29 791 29 758 29 714 30 714 30 758 29 48 30 714 30 48 30 49 31 49 31 48 30 50 31 49 31 50 31 51 32 51 32 50 31 52 32 51 32 52 32 53 33 53 33 52 32 54 33 53 33 54 33 55 34 55 34 54 33 636 34 55 34 636 34 797 35 797 35 636 34 637 35 797 35 637 35 0 0 0 0 637 35 681 0 0 0 681 0 488 1 816 36 524 37 40 38 40 38 524 37 525 38 40 38 525 38 38 39 38 39 525 38 603 39 38 39 603 39 63 40 63 40 603 39 64 40 63 40 64 40 34 41 34 41 64 40 65 41 34 41 65 41 32 42 32 42 65 41 789 42 32 42 789 42 29 43 505 44 621 44 57 45 57 45 621 44 68 45 57 45 68 45 813 46 813 46 68 45 69 46 813 46 69 46 768 47 768 47 69 46 640 47 768 47 640 47 748 48 748 48 640 47 641 48 748 48 641 48 715 49 715 49 641 48 762 49 715 49 762 49 47 50 47 50 762 49 752 50 47 50 752 50 45 51 45 51 752 50 74 51 45 51 74 51 816 36 816 36 74 51 75 52 816 36 75 52 524 37 772 53 76 54 10 55 10 55 76 54 77 55 10 55 77 55 8 56 8 56 77 55 78 56 8 56 78 56 79 57 79 57 78 56 80 57 79 57 80 57 613 58 613 58 80 57 652 58 613 58 652 58 2 59 2 59 652 58 653 59 2 59 653 59 505 44 505 44 653 59 83 60 505 44 83 60 621 44 789 42 84 61 29 43 29 43 84 61 801 43 29 43 801 43 623 62 623 62 801 43 826 62 623 62 826 62 622 63 622 63 826 62 562 63 622 63 562 63 23 64 23 64 562 63 549 64 23 64 549 64 21 65 21 65 549 64 518 65 21 65 518 65 726 66 726 66 518 65 519 66 726 66 519 66 17 67 17 67 519 66 482 67 17 67 482 67 694 68 694 68 482 67 483 68 694 68 483 68 772 53 772 53 483 68 849 53 772 53 849 53 76 54 516 69 832 70 517 71 517 71 832 70 563 72 517 71 563 72 98 73 98 73 563 72 99 74 99 74 563 72 564 74 99 74 564 74 608 75 564 74 625 76 608 75 608 75 625 76 103 77 608 75 103 77 624 78 624 78 103 77 105 79 624 78 105 79 771 32 771 32 105 79 107 80 771 32 107 80 108 80 108 80 107 80 109 81 109 81 107 80 110 81 109 81 110 81 111 82 111 82 110 81 683 82 111 82 683 82 113 83 113 83 683 82 114 84 113 83 114 84 648 85 648 85 114 84 116 86 648 85 116 86 117 87 117 87 116 86 118 87 117 87 118 87 552 88 552 88 118 87 120 88 552 88 120 88 507 12 507 12 120 88 568 12 507 12 568 12 508 89 508 89 568 12 490 90 508 89 490 90 591 91 591 91 490 90 491 92 591 91 491 92 516 69 516 69 491 92 559 93 516 69 559 93 832 70 128 75 129 94 130 78 130 78 129 94 614 95 130 78 614 95 664 32 664 32 614 95 615 80 664 32 615 80 665 80 665 80 615 80 723 81 723 81 615 80 661 81 723 81 661 81 137 96 137 96 661 81 713 97 137 96 713 97 139 98 139 98 713 97 140 99 139 98 140 99 141 84 141 84 140 99 142 84 141 84 142 84 660 87 660 87 142 84 144 87 660 87 144 87 584 88 584 88 144 87 569 88 584 88 569 88 147 12 147 12 569 88 570 12 147 12 570 12 149 100 149 100 570 12 492 101 149 100 492 101 553 102 553 102 492 101 493 102 553 102 493 102 554 93 554 93 493 102 687 93 554 93 687 93 848 103 848 103 687 93 156 72 848 103 156 72 509 104 509 104 156 72 541 105 509 104 541 105 510 106 510 106 541 105 822 107 510 106 822 107 128 75 128 75 822 107 161 75 128 75 161 75 129 94 538 108 163 32 164 109 164 109 163 32 666 109 164 109 666 109 656 75 656 75 666 109 167 75 656 75 167 75 703 110 703 110 167 75 169 74 703 110 169 74 704 111 704 111 169 74 171 112 704 111 171 112 172 103 172 103 171 112 173 72 172 103 173 72 626 93 626 93 173 72 565 93 626 93 565 93 176 91 176 91 565 93 566 91 176 91 566 91 595 12 164 109 536 113 538 108 538 108 536 113 537 114 538 108 537 114 539 81 539 81 537 114 486 115 539 81 486 115 183 82 183 82 486 115 487 116 183 82 487 116 185 117 185 117 487 116 682 118 185 117 682 118 642 119 642 119 682 118 534 84 642 119 534 84 555 120 555 120 534 84 535 120 555 120 535 120 191 121 535 120 192 122 191 121 191 121 192 122 193 123 191 121 193 123 194 124 194 124 193 123 595 12 194 124 595 12 195 12 195 12 595 12 566 91 196 108 705 32 738 109 738 109 705 32 706 109 738 109 706 109 200 75 200 75 706 109 767 75 200 75 767 75 202 74 202 74 767 75 203 74 202 74 203 74 204 125 204 125 203 74 205 72 204 125 205 72 638 126 638 126 205 72 207 127 638 126 207 127 208 69 208 69 207 127 520 93 208 69 520 93 578 91 578 91 520 93 521 91 578 91 521 91 579 12 738 109 213 80 196 108 196 108 213 80 503 128 196 108 503 128 557 81 557 81 503 128 504 81 557 81 504 81 558 82 558 82 504 81 551 82 558 82 551 82 618 84 618 84 551 82 220 129 618 84 220 129 619 85 619 85 220 129 602 86 619 85 602 86 223 120 223 120 602 86 830 120 223 120 830 120 225 88 830 120 709 130 225 88 225 88 709 130 710 131 225 88 710 131 228 132 228 132 710 131 579 12 228 132 579 12 707 12 707 12 579 12 521 91 230 12 231 12 232 133 232 133 231 12 233 133 232 133 233 133 234 134 234 134 233 133 235 134 234 134 235 134 236 5 236 5 235 134 571 5 236 5 571 5 650 3 650 3 571 5 572 3 650 3 572 3 651 135 651 135 572 3 494 135 651 135 494 135 242 136 242 136 494 135 495 136 242 136 495 136 478 32 478 32 495 136 845 32 478 32 845 32 479 137 479 137 845 32 530 137 479 137 530 137 513 138 513 138 530 137 531 138 513 138 531 138 561 139 561 139 531 138 596 139 561 139 596 139 616 140 616 140 596 139 597 140 616 140 597 140 617 141 617 141 597 140 742 141 617 141 742 141 633 142 633 142 742 141 670 142 633 142 670 142 230 12 230 12 670 142 231 12 718 143 717 143 258 143 729 143 730 143 261 143 582 143 263 143 264 143 136 143 265 143 138 143 138 143 265 143 266 143 712 143 820 143 133 143 133 143 820 143 522 143 133 143 522 143 136 143 136 143 522 143 523 143 136 143 523 143 265 143 133 143 131 143 712 143 712 143 131 143 793 143 712 143 793 143 263 143 263 143 793 143 834 143 263 143 834 143 264 143 264 143 834 143 160 143 605 143 272 143 273 143 273 143 272 143 501 143 273 143 501 143 264 143 264 143 501 143 502 143 264 143 502 143 582 143 257 143 255 143 261 143 255 143 253 143 261 143 261 143 253 143 251 143 261 143 251 143 273 143 273 143 251 143 249 143 249 143 247 143 273 143 273 143 247 143 245 143 273 143 245 143 605 143 605 143 245 143 243 143 605 143 243 143 606 143 606 143 243 143 241 143 606 143 241 143 277 143 277 143 241 143 239 143 277 143 239 143 278 143 278 143 239 143 237 143 278 143 237 143 279 143 279 143 237 143 796 143 279 143 796 143 730 143 730 143 796 143 749 143 730 143 749 143 261 143 261 143 749 143 669 143 261 143 669 143 257 143 550 143 545 143 282 143 282 143 545 143 546 143 282 143 546 143 261 143 261 143 546 143 284 143 261 143 284 143 729 143 672 143 639 143 692 143 692 143 639 143 210 143 692 143 210 143 287 143 287 143 210 143 212 143 287 143 212 143 678 143 678 143 212 143 227 143 678 143 227 143 700 143 700 143 227 143 226 143 700 143 226 143 701 143 701 143 226 143 224 143 701 143 224 143 711 143 224 143 222 143 711 143 711 143 222 143 601 143 711 143 601 143 576 143 576 143 601 143 218 143 576 143 218 143 577 143 577 143 218 143 216 143 577 143 216 143 587 143 587 143 216 143 295 143 587 143 295 143 588 143 297 143 298 143 299 143 299 143 298 143 300 143 299 143 300 143 295 143 295 143 300 143 301 143 295 143 301 143 588 143 302 143 837 143 188 143 188 143 837 143 807 143 188 143 807 143 190 143 190 143 807 143 297 143 190 143 297 143 828 143 828 143 297 143 299 143 188 143 186 143 302 143 302 143 186 143 184 143 302 143 184 143 305 143 305 143 184 143 182 143 305 143 182 143 841 143 166 143 168 143 266 143 168 143 307 143 266 143 266 143 307 143 759 143 266 143 759 143 138 143 266 143 308 143 166 143 166 143 308 143 778 143 166 143 778 143 655 143 182 143 180 143 841 143 841 143 180 143 179 143 841 143 179 143 756 143 756 143 179 143 655 143 756 143 655 143 311 143 311 143 655 143 778 143 312 143 825 143 313 143 313 143 825 143 798 143 313 143 798 143 684 143 740 143 258 143 741 143 741 143 258 143 717 143 741 143 717 143 754 143 754 143 717 143 93 143 754 143 93 143 112 143 314 143 780 143 82 143 82 143 81 143 314 143 314 143 81 143 315 143 314 143 315 143 258 143 258 143 315 143 794 143 258 143 794 143 718 143 629 143 70 143 610 143 629 143 610 143 598 143 598 143 610 143 609 143 598 143 609 143 146 143 629 143 759 143 70 143 70 143 759 143 307 143 70 143 307 143 71 143 71 143 307 143 72 143 73 143 72 143 751 143 751 143 72 143 307 143 751 143 307 143 170 143 170 143 307 143 168 143 594 143 178 143 299 143 299 143 178 143 722 143 299 143 722 143 828 143 73 143 751 143 753 143 753 143 751 143 174 143 753 143 174 143 731 143 731 143 174 143 594 143 731 143 594 143 60 143 60 143 594 143 299 143 60 143 299 143 61 143 295 143 790 143 66 143 66 143 833 143 295 143 295 143 833 143 316 143 295 143 316 143 299 143 299 143 316 143 62 143 299 143 62 143 61 143 216 143 214 143 295 143 295 143 214 143 831 143 295 143 831 143 790 143 790 143 831 143 198 143 790 143 198 143 85 143 85 143 198 143 739 143 85 143 739 143 86 143 86 143 739 143 763 143 93 143 92 143 112 143 112 143 92 143 91 143 112 143 91 143 684 143 684 143 91 143 90 143 684 143 90 143 313 143 313 143 90 143 89 143 313 143 89 143 88 143 672 143 575 143 639 143 639 143 575 143 312 143 639 143 312 143 206 143 206 143 312 143 313 143 206 143 313 143 806 143 806 143 313 143 88 143 806 143 88 143 763 143 763 143 88 143 87 143 763 143 87 143 86 143 671 143 102 143 261 143 102 143 100 143 261 143 261 143 100 143 97 143 261 143 97 143 282 143 282 143 97 143 95 143 282 143 95 143 550 143 550 143 95 143 127 143 550 143 127 143 318 143 318 143 127 143 126 143 318 143 126 143 654 143 654 143 126 143 124 143 654 143 124 143 320 143 320 143 124 143 122 143 320 143 122 143 321 143 321 143 122 143 567 143 321 143 567 143 724 143 724 143 567 143 825 143 724 143 825 143 323 143 323 143 825 143 312 143 609 143 67 143 146 143 146 143 67 143 780 143 146 143 780 143 148 143 148 143 780 143 314 143 148 143 314 143 150 143 150 143 314 143 152 143 154 143 273 143 540 143 540 143 273 143 264 143 540 143 264 143 158 143 158 143 264 143 160 143 740 143 671 143 258 143 258 143 671 143 261 143 258 143 261 143 314 143 314 143 261 143 273 143 314 143 273 143 152 143 152 143 273 143 154 143 727 144 324 145 728 146 728 146 324 145 325 147 325 147 326 148 728 146 728 146 326 148 327 149 728 146 327 149 309 150 309 150 327 149 328 151 309 150 328 151 757 152 328 151 329 153 757 152 757 152 329 153 330 154 757 152 330 154 310 155 330 154 331 156 310 155 310 155 331 156 332 157 310 155 332 157 306 158 306 158 332 157 333 159 306 158 333 159 843 160 843 160 333 159 334 161 843 160 334 161 836 162 836 162 334 161 335 163 836 162 335 163 303 164 303 164 335 163 336 165 303 164 336 165 304 166 336 165 337 167 304 166 304 166 337 167 338 168 304 166 338 168 787 169 787 169 338 168 339 170 787 169 339 170 788 171 788 171 339 170 340 172 788 171 340 172 829 173 829 173 340 172 341 174 341 174 342 175 829 173 829 173 342 175 343 176 829 173 343 176 773 177 773 177 343 176 344 178 773 177 344 178 296 179 344 178 345 180 296 179 296 179 345 180 346 181 296 179 346 181 294 182 294 182 346 181 347 183 294 182 347 183 293 184 293 184 347 183 348 185 293 184 348 185 292 186 348 185 349 187 292 186 292 186 349 187 350 188 292 186 350 188 291 189 350 188 351 190 291 189 291 189 351 190 352 191 291 189 352 191 290 192 290 192 352 191 353 193 290 192 353 193 289 194 289 194 353 193 354 195 289 194 354 195 288 196 288 196 354 195 355 197 288 196 355 197 677 198 355 197 356 199 677 198 677 198 356 199 357 200 677 198 357 200 286 201 357 200 358 202 286 201 286 201 358 202 359 203 286 201 359 203 285 204 285 204 359 203 360 205 285 204 360 205 317 206 360 205 361 207 317 206 317 206 361 207 362 208 317 206 362 208 574 209 574 209 362 208 363 210 574 209 363 210 725 211 363 210 364 212 725 211 725 211 364 212 365 213 725 211 365 213 322 214 322 214 365 213 366 215 322 214 366 215 784 216 784 216 366 215 367 217 367 217 368 218 784 216 784 216 368 218 369 219 784 216 369 219 668 220 668 220 369 219 370 221 668 220 370 221 319 222 319 222 370 221 371 223 319 222 371 223 604 224 604 224 371 223 372 225 604 224 372 225 280 226 280 226 372 225 373 227 280 226 373 227 281 228 281 228 373 227 374 229 281 228 374 229 283 230 283 230 374 229 375 231 283 230 375 231 620 232 375 231 376 233 620 232 620 232 376 233 377 234 620 232 377 234 259 235 259 235 377 234 378 236 259 235 378 236 260 237 260 237 378 236 379 238 260 237 379 238 782 239 379 238 380 240 782 239 782 239 380 240 381 241 782 239 381 241 781 242 781 242 381 241 382 243 781 242 382 243 802 244 802 244 382 243 383 245 383 245 384 246 802 244 802 244 384 246 385 247 802 244 385 247 276 248 276 248 385 247 386 249 276 248 386 249 271 250 271 250 386 249 387 251 271 250 387 251 844 252 844 252 387 251 388 253 844 252 388 253 274 254 388 253 389 255 274 254 274 254 389 255 390 256 274 254 390 256 275 257 275 257 390 256 391 258 275 257 391 258 262 259 262 259 391 258 392 260 262 259 392 260 583 261 583 261 392 260 393 262 583 261 393 262 267 263 267 263 393 262 394 264 267 263 394 264 268 265 268 265 394 264 269 266 394 264 395 267 269 266 269 266 395 267 396 268 269 266 396 268 270 269 396 268 397 270 270 269 270 269 397 270 398 271 270 269 398 271 795 272 398 271 399 273 795 272 795 272 399 273 400 274 795 272 400 274 727 144 727 144 400 274 401 275 727 144 401 275 324 145 362 208 402 276 645 277 362 208 361 207 402 276 402 276 361 207 360 205 402 276 360 205 760 278 360 205 359 203 760 278 760 278 359 203 358 202 760 278 358 202 405 279 405 279 358 202 357 200 405 279 357 200 406 280 406 280 357 200 356 199 406 280 356 199 407 281 356 199 355 197 407 281 407 281 355 197 354 195 407 281 354 195 679 282 354 195 353 193 679 282 679 282 353 193 352 191 679 282 352 191 680 283 680 283 352 191 351 190 680 283 351 190 649 284 649 284 351 190 350 188 649 284 350 188 630 285 350 188 349 187 630 285 630 285 349 187 348 185 630 285 348 185 412 286 412 286 348 185 347 183 412 286 347 183 721 287 721 287 347 183 346 181 721 287 346 181 414 288 346 181 345 180 414 288 414 288 345 180 344 178 414 288 344 178 776 289 344 178 343 176 776 289 776 289 343 176 342 175 776 289 342 175 777 290 777 290 342 175 341 174 777 290 341 174 800 291 800 291 341 174 340 172 800 291 340 172 476 292 340 172 339 170 476 292 476 292 339 170 338 168 476 292 338 168 477 293 477 293 338 168 337 167 477 293 337 167 496 294 496 294 337 167 336 165 496 294 336 165 421 295 336 165 335 163 421 295 421 295 335 163 334 161 421 295 334 161 659 296 659 296 334 161 333 159 659 296 333 159 423 297 423 297 333 159 332 157 423 297 332 157 511 298 332 157 331 156 511 298 511 298 331 156 330 154 511 298 330 154 512 299 330 154 329 153 512 299 512 299 329 153 328 151 512 299 328 151 810 300 328 151 327 149 810 300 810 300 327 149 326 148 810 300 326 148 811 301 811 301 326 148 325 147 811 301 325 147 428 302 428 302 325 147 324 145 428 302 324 145 542 303 324 145 401 275 542 303 542 303 401 275 400 274 542 303 400 274 543 304 400 274 399 273 543 304 543 304 399 273 398 271 543 304 398 271 560 305 398 271 397 270 560 305 560 305 397 270 396 268 560 305 396 268 573 306 573 306 396 268 395 267 573 306 395 267 433 307 433 307 395 267 394 264 433 307 394 264 434 308 434 308 394 264 393 262 434 308 393 262 720 309 720 309 393 262 392 260 720 309 392 260 696 310 696 310 392 260 391 258 696 310 391 258 697 311 697 311 391 258 390 256 697 311 390 256 673 312 390 256 389 255 673 312 673 312 389 255 388 253 673 312 388 253 674 313 674 313 388 253 387 251 674 313 387 251 440 314 440 314 387 251 386 249 440 314 386 249 685 315 634 316 627 317 686 318 686 318 627 317 548 319 686 318 548 319 446 320 386 249 385 247 685 315 685 315 385 247 384 246 685 315 384 246 686 318 686 318 384 246 383 245 686 318 383 245 634 316 634 316 383 245 382 243 634 316 382 243 688 321 688 321 382 243 381 241 688 321 381 241 548 319 548 319 381 241 446 320 446 320 381 241 380 240 446 320 380 240 448 322 448 322 380 240 379 238 448 322 379 238 480 323 480 323 379 238 378 236 480 323 378 236 481 324 378 236 377 234 481 324 481 324 377 234 376 233 481 324 376 233 544 325 544 325 376 233 375 231 544 325 375 231 846 326 846 326 375 231 374 229 846 326 374 229 675 327 675 327 374 229 373 227 675 327 373 227 454 328 454 328 373 227 372 225 454 328 372 225 515 329 515 329 372 225 371 223 515 329 371 223 497 330 497 330 371 223 370 221 497 330 370 221 498 331 370 221 369 219 498 331 498 331 369 219 368 218 498 331 368 218 458 332 368 218 367 217 458 332 458 332 367 217 366 215 458 332 366 215 646 333 366 215 365 213 646 333 646 333 365 213 364 212 646 333 364 212 645 277 645 277 364 212 363 210 645 277 363 210 362 208 527 334 769 334 689 334 689 334 769 334 442 334 770 32 593 32 635 32 635 32 593 32 628 32 592 143 529 143 443 143 443 143 529 143 547 143 528 12 526 12 445 12 445 12 526 12 447 12 463 22 462 22 460 22 460 22 462 22 461 22 104 334 106 334 464 334 416 335 417 335 465 335 439 334 690 334 466 334 453 334 676 334 467 334 33 334 31 334 468 334 209 334 590 334 469 334 469 336 590 336 589 336 819 334 201 334 30 334 30 334 201 334 31 334 31 334 201 334 199 334 31 337 199 337 468 337 41 334 611 334 465 334 465 338 611 338 470 338 465 334 470 334 468 334 468 339 470 339 35 339 468 340 35 340 33 340 761 341 734 341 733 341 41 334 465 334 835 334 835 342 465 342 775 342 835 343 775 343 177 343 761 334 733 334 175 334 175 334 733 334 46 334 175 334 46 334 177 334 177 334 46 334 779 334 177 344 779 344 835 344 145 334 585 334 471 334 56 334 838 334 719 334 719 345 838 345 803 345 719 334 803 334 699 334 699 334 803 334 472 334 699 334 472 334 698 334 56 334 719 334 58 334 58 346 719 346 143 346 58 347 143 347 59 347 59 348 143 348 145 348 59 334 145 334 1 334 1 334 145 334 471 334 1 334 471 334 3 334 464 334 786 334 824 334 824 334 9 334 464 334 464 349 9 349 473 349 464 334 473 334 471 334 471 350 473 350 5 350 471 334 5 334 3 334 30 351 28 351 819 351 819 352 28 352 26 352 819 353 26 353 589 353 589 354 26 354 24 354 589 334 24 334 469 334 469 334 24 334 839 334 469 334 839 334 805 334 464 334 106 334 786 334 786 334 106 334 743 334 786 334 743 334 14 334 14 334 743 334 744 334 14 334 744 334 736 334 736 355 744 355 657 355 736 334 657 334 737 334 472 334 785 334 698 334 698 356 785 356 429 356 698 334 429 334 135 334 135 334 429 334 430 334 135 334 430 334 134 334 599 334 600 334 804 334 430 357 431 357 134 357 134 334 431 334 432 334 134 334 432 334 132 334 132 334 432 334 599 334 132 334 599 334 783 334 783 358 599 358 804 358 466 334 155 334 474 334 474 359 155 359 157 359 474 360 157 360 159 360 809 361 151 361 466 361 466 362 151 362 153 362 466 334 153 334 155 334 702 363 229 363 817 363 817 364 229 364 211 364 469 334 403 334 209 334 209 365 403 365 747 365 209 334 747 334 211 334 211 334 747 334 404 334 211 366 404 366 817 366 217 334 219 334 409 334 409 367 219 367 221 367 409 334 221 334 408 334 408 368 221 368 799 368 408 334 799 334 693 334 693 369 799 369 766 369 693 334 766 334 702 334 702 334 766 334 732 334 702 334 732 334 229 334 199 334 197 334 468 334 468 334 197 334 708 334 468 334 708 334 631 334 631 370 708 370 215 370 631 371 215 371 411 371 411 372 215 372 217 372 411 334 217 334 410 334 410 334 217 334 409 334 737 373 657 373 805 373 805 374 657 374 647 374 805 375 647 375 469 375 469 376 647 376 115 376 469 334 115 334 403 334 403 377 115 377 808 377 403 378 808 378 459 378 459 379 808 379 818 379 818 380 808 380 119 380 818 381 119 381 457 381 457 334 119 334 121 334 457 382 121 382 456 382 456 334 121 334 123 334 456 334 123 334 455 334 455 383 123 383 125 383 455 334 125 334 676 334 676 384 125 384 94 384 676 334 94 334 467 334 449 385 450 385 475 385 475 334 450 334 451 334 475 334 451 334 467 334 467 386 451 386 452 386 467 334 452 334 453 334 246 334 248 334 466 334 466 334 248 334 250 334 466 334 250 334 475 334 475 334 250 334 252 334 475 334 252 334 254 334 254 334 256 334 475 334 475 334 256 334 632 334 475 334 632 334 449 334 449 334 632 334 745 334 449 387 745 387 815 387 815 334 745 334 765 334 815 334 765 334 746 334 746 334 765 334 812 334 746 334 812 334 444 334 444 334 812 334 238 334 444 334 238 334 441 334 441 334 238 334 240 334 441 388 240 388 690 388 690 389 240 389 586 389 690 334 586 334 466 334 466 390 586 390 244 390 466 334 244 334 246 334 435 334 474 334 600 334 600 334 474 334 159 334 600 334 159 334 804 334 435 334 436 334 474 334 474 391 436 391 437 391 474 334 437 334 466 334 466 392 437 392 438 392 466 393 438 393 439 393 691 334 785 334 716 334 716 334 785 334 472 334 716 334 472 334 761 334 761 334 472 334 803 334 761 334 803 334 734 334 842 394 424 394 165 394 165 395 424 395 425 395 165 334 425 334 667 334 667 334 425 334 426 334 667 334 426 334 691 334 691 334 426 334 427 334 691 396 427 396 785 396 165 334 735 334 842 334 842 334 735 334 162 334 842 334 162 334 422 334 422 397 162 397 181 397 422 334 181 334 658 334 658 398 181 398 840 398 658 334 840 334 420 334 420 399 840 399 847 399 420 334 847 334 419 334 419 400 847 400 187 400 419 334 187 334 418 334 418 334 187 334 189 334 418 334 189 334 417 334 417 401 189 401 556 401 417 402 556 402 465 402 465 334 556 334 774 334 465 334 774 334 775 334 631 334 413 334 468 334 468 334 413 334 755 334 468 334 755 334 465 334 465 403 755 403 415 403 465 404 415 404 416 404 94 334 96 334 467 334 467 405 96 405 814 405 467 334 814 334 475 334 475 334 814 334 607 334 475 334 607 334 101 334 585 334 809 334 471 334 471 334 809 334 466 334 471 334 466 334 464 334 464 334 466 334 475 334 464 334 475 334 104 334 104 406 475 406 101 406</p>
        </triangles>
      </mesh>
    </geometry>
  </library_geometries>
  <library_visual_scenes>
    <visual_scene id="Scene" name="Scene">
      <node id="Link_6" name="Link_6" type="NODE">
        <matrix sid="transform">1 0 0 0 0 1 0 0 0 0 1 0 0 0 0 1</matrix>
        <instance_geometry url="#Link_6-mesh" name="Link_6">
          <bind_material>
            <technique_common>
              <instance_material symbol="colour_abb_black-material" target="#colour_abb_black-material"/>
            </technique_common>
          </bind_material>
        </instance_geometry>
      </node>
      <node id="Camera" name="Camera" type="NODE">
        <matrix sid="transform">0.6858805 -0.3173701 0.6548619 7.481132 0.01081652 -0.8953433 -0.4452451 -5.343665 0.7276338 0.3124682 -0.6106657 -6.50764 0 0 0 1</matrix>
        <instance_camera url="#Camera-camera"/>
      </node>
    </visual_scene>
  </library_visual_scenes>
  <scene>
    <instance_visual_scene url="#Scene"/>
  </scene>
</COLLADA>