<?xml version="1.0" encoding="utf-8"?>
<COLLADA xmlns="http://www.collada.org/2005/11/COLLADASchema" version="1.4.1" xmlns:xsi="http://www.w3.org/2001/XMLSchema-instance">
  <asset>
    <contributor>
      <author>Blender User</author>
      <authoring_tool>Blender 2.82.7</authoring_tool>
    </contributor>
    <created>2024-02-04T15:21:55</created>
    <modified>2024-02-04T15:21:55</modified>
    <unit name="meter" meter="1"/>
    <up_axis>Z_UP</up_axis>
  </asset>
  <library_effects>
    <effect id="Material_008-effect">
      <profile_COMMON>
        <technique sid="common">
          <lambert>
            <emission>
              <color sid="emission">0 0 0 1</color>
            </emission>
            <diffuse>
              <color sid="diffuse">0.0118336 0.0118336 0.0118336 1</color>
            </diffuse>
            <index_of_refraction>
              <float sid="ior">1.45</float>
            </index_of_refraction>
          </lambert>
        </technique>
      </profile_COMMON>
    </effect>
  </library_effects>
  <library_images/>
  <library_materials>
    <material id="Material_008-material" name="Material.008">
      <instance_effect url="#Material_008-effect"/>
    </material>
  </library_materials>
  <library_geometries>
    <geometry id="Gp12_Link_6_T-mesh" name="Gp12 Link 6 T">
      <mesh>
        <source id="Gp12_Link_6_T-mesh-positions">
          <float_array id="Gp12_Link_6_T-mesh-positions-array" count="1632">0.1 -0.001827061 0.02881348 0.1 -0.001999974 0.02799987 0.09400004 -0.001999974 0.02799987 0.09400004 -0.001827061 0.02881348 0.1 -0.001338243 0.02948617 0.09400004 -0.001338243 0.02948617 0.1 -6.18034e-4 0.0299021 0.09400004 -6.18034e-4 0.0299021 0.1 2.09057e-4 0.029989 0.09400004 2.09057e-4 0.029989 0.1 9.99987e-4 0.02973198 0.09400004 9.99987e-4 0.02973198 0.1 0.001617968 0.02917546 0.09400004 0.001617968 0.02917546 0.1 0.001956284 0.02841567 0.09400004 0.001956284 0.02841567 0.1 0.001999974 0.02799987 0.09400004 0.001999974 0.02799987 0.1 0.001956284 0.02758419 0.09400004 0.001956284 0.02758419 0.1 0.001617968 0.02682447 0.09400004 0.001617968 0.02682447 0.1 9.99987e-4 0.026268 0.09400004 9.99987e-4 0.026268 0.1 2.09057e-4 0.02601099 0.09400004 2.09057e-4 0.02601099 0.1 -6.18034e-4 0.02609789 0.09400004 -6.18034e-4 0.02609789 0.1 -0.001338243 0.02651369 0.09400004 -0.001338243 0.02651369 0.1 -0.001827061 0.02718651 0.09400004 -0.001827061 0.02718651 0.09400004 -0.003470838 -0.03080511 0.09400004 -0.006898105 -0.03022277 0.09400004 -0.005532503 -0.0262593 0.09400004 -0.003470838 0.03080511 0.09400004 0 0.03099989 0.09400004 -0.006898105 0.03022277 0.09400004 -0.005532503 0.02549993 0.09400004 0.005532503 0.02549993 0.09400004 0.003470838 0.03080511 0.09400004 0.006898105 0.03022277 0.09400004 -0.01649296 0.02624845 0.09400004 -0.01345038 0.02793002 0.09400004 -0.01217597 0.02663528 0.09400004 -0.009113073 0.02547371 0.09400004 -0.009065091 0.02586865 0.09400004 -0.009113073 0.02626359 0.09400004 -0.009480059 0.02696263 0.09400004 -0.01023852 0.02926027 0.09400004 -0.01012986 0.02741134 0.09400004 -0.01091384 0.02750653 0.09400004 -0.01165241 0.02722644 0.09400004 -0.0123651 0.02586865 0.09400004 -0.01217597 0.02510178 0.09400004 -0.01829183 0.01829183 0.09400004 -0.01165241 0.02451074 0.09400004 -0.009480059 0.02477443 0.09400004 -0.006217241 0.02421462 0.09400004 -0.01012986 0.02432572 0.09400004 -0.009203076 0.02324438 0.09400004 -0.01091384 0.02423059 0.09400004 -0.01204383 0.02190756 0.09400004 -0.01469463 0.02022552 0.09400004 -0.02423661 0.01932799 0.09400004 -0.02192026 0.02192032 0.09400004 -0.01932805 0.02423667 0.09400004 -0.0262593 0 0.09400004 -0.02606749 0.009077191 0.09400004 -0.02528351 0.00917232 0.09400004 -0.01926279 0.01593554 0.09400004 -0.02463346 0.01180922 0.09400004 -0.02528351 0.01225793 0.09400004 -0.02426654 0.01110982 0.09400004 -0.02110815 0.01339554 0.09400004 -0.02421849 0.010715 0.09400004 -0.02262055 0.01064443 0.09400004 -0.02426654 0.01032018 0.09400004 -0.01711362 0.01822412 0.09400004 -0.02624845 0.01649308 0.09400004 -0.02606749 0.01235318 0.09400004 -0.02793002 0.01345038 0.09400004 -0.02680581 0.01207304 0.09400004 -0.02732962 0.01148188 0.09400004 -0.02926021 0.01023852 0.09400004 -0.02751863 0.010715 0.09400004 -0.03022271 0.006898105 0.09400004 -0.02732962 0.009948372 0.09400004 -0.03080505 0.003470838 0.09400004 -0.02680581 0.009357213 0.09400004 -0.03099983 0 0.09400004 -0.03080505 -0.003470838 0.09400004 -0.02624845 -0.01649308 0.09400004 -0.02793002 -0.01345038 0.09400004 -0.02680581 -0.01207304 0.09400004 -0.02606749 -0.01235318 0.09400004 -0.02423661 -0.01932799 0.09400004 -0.02463346 0.009621024 0.09400004 -0.02377641 0.007725477 0.09400004 -0.02455717 0.004684567 0.09400004 -0.02495062 0.001569688 0.09400004 -0.02495062 -0.001569688 0.09400004 -0.02528351 -0.01225793 0.09400004 -0.02463346 -0.01180922 0.09400004 -0.01926279 -0.01593554 0.09400004 -0.02455717 -0.004684567 0.09400004 -0.02606749 -0.009077191 0.09400004 -0.02680581 -0.009357213 0.09400004 -0.03022271 -0.006898105 0.09400004 -0.02732962 -0.009948372 0.09400004 -0.02926021 -0.01023852 0.09400004 -0.02751863 -0.010715 0.09400004 -0.02732962 -0.01148188 0.09400004 -0.02110815 -0.01339554 0.09400004 -0.02426654 -0.01110982 0.09400004 -0.02262055 -0.01064443 0.09400004 -0.02421849 -0.010715 0.09400004 -0.02426654 -0.01032018 0.09400004 -0.02377641 -0.007725477 0.09400004 -0.02463346 -0.009621024 0.09400004 -0.02528351 -0.00917232 0.09400004 -0.01649296 -0.02624845 0.09400004 -0.01932805 -0.02423667 0.09400004 -0.01829183 -0.01829183 0.09400004 -0.02192026 -0.02192032 0.09400004 -0.01711362 -0.01822412 0.09400004 -0.01469463 -0.0202254 0.09400004 -0.006217241 -0.02421462 0.09400004 -0.009065091 -0.02586865 0.09400004 -0.009113073 -0.02547371 0.09400004 -0.009480059 -0.02477443 0.09400004 -0.009203076 -0.02324438 0.09400004 -0.01012986 -0.02432572 0.09400004 -0.01204383 -0.02190756 0.09400004 -0.01091384 -0.02423059 0.09400004 -0.01023852 -0.02926027 0.09400004 -0.01012986 -0.02741134 0.09400004 -0.009480059 -0.02696263 0.09400004 -0.009113073 -0.02626359 0.09400004 -0.01165241 -0.02451074 0.09400004 -0.01217597 -0.02510178 0.09400004 -0.0123651 -0.02586865 0.09400004 -0.01217597 -0.02663528 0.09400004 -0.01345038 -0.02793002 0.09400004 -0.01165241 -0.02722644 0.09400004 -0.01091384 -0.02750653 0.09400004 0.005532503 -0.0262593 0.09400004 0.006898105 -0.03022277 0.09400004 0.003470838 -0.03080511 0.09400004 0 -0.03099989 0.09400004 0.01345038 -0.02793002 0.09400004 0.01023852 -0.02926027 0.09400004 0.01130008 -0.02741134 0.09400004 0.01195001 -0.02696263 0.09400004 0.01649296 -0.02624845 0.09400004 0.009254097 -0.02663528 0.09400004 0.009777784 -0.02722644 0.09400004 0.0105161 -0.02750653 0.09400004 0.01231718 -0.02547371 0.09400004 0.01195001 -0.02477443 0.09400004 0.01829183 -0.01829183 0.09400004 0.01469463 -0.0202254 0.09400004 0.01711362 -0.01822412 0.09400004 0.01204383 -0.02190756 0.09400004 0.01231718 -0.02626359 0.09400004 0.0123651 -0.02586865 0.09400004 0.01932805 -0.02423667 0.09400004 0.01130008 -0.02432572 0.09400004 0.0105161 -0.02423059 0.09400004 0.009203076 -0.02324438 0.09400004 0.009777784 -0.02451074 0.09400004 0.006217241 -0.02421462 0.09400004 0.009254097 -0.02510178 0.09400004 0.009065091 -0.02586865 0.09400004 0.02192026 -0.02192032 0.09400004 0.02423661 -0.01932799 0.09400004 0.02377641 -0.007725477 0.09400004 0.02455717 -0.004684567 0.09400004 0.02566969 -0.009077191 0.09400004 0.02495062 -0.001569688 0.09400004 0.02645373 -0.00917232 0.09400004 0.02493131 -0.009357213 0.09400004 0.02440762 -0.009948372 0.09400004 0.02262055 -0.01064443 0.09400004 0.02421849 -0.010715 0.09400004 0.02110815 -0.01339554 0.09400004 0.02440762 -0.01148188 0.09400004 0.01926279 -0.01593554 0.09400004 0.02493131 -0.01207304 0.09400004 0.0262593 0 0.09400004 0.03080505 -0.003470838 0.09400004 0.03022271 -0.006898105 0.09400004 0.02566969 -0.01235318 0.09400004 0.02624845 -0.01649308 0.09400004 0.02645373 -0.01225793 0.09400004 0.02793002 -0.01345038 0.09400004 0.02710366 -0.01180922 0.09400004 0.02926021 -0.01023852 0.09400004 0.02747052 -0.01110982 0.09400004 0.02751863 -0.010715 0.09400004 0.02747052 -0.01032018 0.09400004 0.03022271 0.006898105 0.09400004 0.03080505 0.003470838 0.09400004 0.03099983 0 0.09400004 0.02710366 0.009621024 0.09400004 0.02747052 0.01032018 0.09400004 0.02926021 0.01023852 0.09400004 0.01926279 0.01593554 0.09400004 0.01829183 0.01829183 0.09400004 0.02493131 0.01207304 0.09400004 0.02566969 0.01235318 0.09400004 0.02751863 0.010715 0.09400004 0.02747052 0.01110982 0.09400004 0.02793002 0.01345038 0.09400004 0.02710366 0.01180922 0.09400004 0.02624845 0.01649308 0.09400004 0.02645373 0.01225793 0.09400004 0.02423661 0.01932799 0.09400004 0.02110815 0.01339554 0.09400004 0.02440762 0.01148188 0.09400004 0.02262055 0.01064443 0.09400004 0.02421849 0.010715 0.09400004 0.02377641 0.007725477 0.09400004 0.02710366 -0.009621024 0.09400004 0.02495062 0.001569688 0.09400004 0.02645373 0.00917232 0.09400004 0.02566969 0.009077191 0.09400004 0.02455717 0.004684567 0.09400004 0.02493131 0.009357213 0.09400004 0.02440762 0.009948372 0.09400004 0.02192026 0.02192032 0.09400004 0.01932805 0.02423667 0.09400004 0.01469463 0.02022552 0.09400004 0.01204383 0.02190756 0.09400004 0.01130008 0.02432572 0.09400004 0.01195001 0.02477443 0.09400004 0.01711362 0.01822412 0.09400004 0.009254097 0.02663528 0.09400004 0.009065091 0.02586865 0.09400004 0.006217241 0.02421462 0.09400004 0.009254097 0.02510178 0.09400004 0.009203076 0.02324438 0.09400004 0.009777784 0.02451074 0.09400004 0.0105161 0.02423059 0.09400004 0.01345038 0.02793002 0.09400004 0.01649296 0.02624845 0.09400004 0.01231718 0.02626359 0.09400004 0.01195001 0.02696263 0.09400004 0.01023852 0.02926027 0.09400004 0.01231718 0.02547371 0.09400004 0.0123651 0.02586865 0.09400004 0.01130008 0.02741134 0.09400004 0.0105161 0.02750653 0.09400004 0.009777784 0.02722644 0.09400004 0.003133237 0.0248028 0.09400004 0 0.02499997 0.09400004 -0.003133237 0.0248028 0.09400004 -0.003133237 -0.0248028 0.09400004 0 -0.02499997 0.09400004 0.003133237 -0.0248028 0.1 -0.0123651 0.02586865 0.1 -0.01217597 0.02510178 0.1 -0.01165241 0.02451074 0.1 -0.01091384 0.02423059 0.1 -0.01012986 0.02432572 0.1 -0.009480059 0.02477443 0.1 -0.009113073 0.02547371 0.1 -0.009065091 0.02586865 0.1 -0.009113073 0.02626359 0.1 -0.009480059 0.02696263 0.1 -0.01012986 0.02741134 0.1 -0.01091384 0.02750653 0.1 -0.01165241 0.02722644 0.1 -0.01217597 0.02663528 0.1 -0.02751863 0.010715 0.1 -0.02732962 0.009948372 0.1 -0.02680581 0.009357213 0.1 -0.02606749 0.009077191 0.1 -0.02528351 0.00917232 0.1 -0.02463346 0.009621024 0.1 -0.02426654 0.01032018 0.1 -0.02421849 0.010715 0.1 -0.02426654 0.01110982 0.1 -0.02463346 0.01180922 0.1 -0.02528351 0.01225793 0.1 -0.02606749 0.01235318 0.1 -0.02680581 0.01207304 0.1 -0.02732962 0.01148188 0.1 -0.02751863 -0.010715 0.1 -0.02732962 -0.01148188 0.1 -0.02680581 -0.01207304 0.1 -0.02606749 -0.01235318 0.1 -0.02528351 -0.01225793 0.1 -0.02463346 -0.01180922 0.1 -0.02426654 -0.01110982 0.1 -0.02421849 -0.010715 0.1 -0.02426654 -0.01032018 0.1 -0.02463346 -0.009621024 0.1 -0.02528351 -0.00917232 0.1 -0.02606749 -0.009077191 0.1 -0.02680581 -0.009357213 0.1 -0.02732962 -0.009948372 0.1 -0.0123651 -0.02586865 0.1 -0.01217597 -0.02663528 0.1 -0.01165241 -0.02722644 0.1 -0.01091384 -0.02750653 0.1 -0.01012986 -0.02741134 0.1 -0.009480059 -0.02696263 0.1 -0.009113073 -0.02626359 0.1 -0.009065091 -0.02586865 0.1 -0.009113073 -0.02547371 0.1 -0.009480059 -0.02477443 0.1 -0.01012986 -0.02432572 0.1 -0.01091384 -0.02423059 0.1 -0.01165241 -0.02451074 0.1 -0.01217597 -0.02510178 0.1 0.009065091 -0.02586865 0.1 0.009254097 -0.02663528 0.1 0.009777784 -0.02722644 0.1 0.0105161 -0.02750653 0.1 0.01130008 -0.02741134 0.1 0.01195001 -0.02696263 0.1 0.01231718 -0.02626359 0.1 0.0123651 -0.02586865 0.1 0.01231718 -0.02547371 0.1 0.01195001 -0.02477443 0.1 0.01130008 -0.02432572 0.1 0.0105161 -0.02423059 0.1 0.009777784 -0.02451074 0.1 0.009254097 -0.02510178 0.1 0.02421849 -0.010715 0.1 0.02440762 -0.01148188 0.1 0.02493131 -0.01207304 0.1 0.02566969 -0.01235318 0.1 0.02645373 -0.01225793 0.1 0.02710366 -0.01180922 0.1 0.02747052 -0.01110982 0.1 0.02751863 -0.010715 0.1 0.02747052 -0.01032018 0.1 0.02710366 -0.009621024 0.1 0.02645373 -0.00917232 0.1 0.02566969 -0.009077191 0.1 0.02493131 -0.009357213 0.1 0.02440762 -0.009948372 0.1 0.02421849 0.010715 0.1 0.02440762 0.009948372 0.1 0.02493131 0.009357213 0.1 0.02566969 0.009077191 0.1 0.02645373 0.00917232 0.1 0.02710366 0.009621024 0.1 0.02747052 0.01032018 0.1 0.02751863 0.010715 0.1 0.02747052 0.01110982 0.1 0.02710366 0.01180922 0.1 0.02645373 0.01225793 0.1 0.02566969 0.01235318 0.1 0.02493131 0.01207304 0.1 0.02440762 0.01148188 0.1 0.009065091 0.02586865 0.1 0.009254097 0.02510178 0.1 0.009777784 0.02451074 0.1 0.0105161 0.02423059 0.1 0.01130008 0.02432572 0.1 0.01195001 0.02477443 0.1 0.01231718 0.02547371 0.1 0.0123651 0.02586865 0.1 0.01231718 0.02626359 0.1 0.01195001 0.02696263 0.1 0.01130008 0.02741134 0.1 0.0105161 0.02750653 0.1 0.009777784 0.02722644 0.1 0.009254097 0.02663528 0.1 0 -0.02499997 0.1 0.003133237 -0.0248028 0.1 0.006217241 -0.02421462 0.1 0.009203076 -0.02324438 0.1 0.01204383 -0.02190756 0.1 0.01469463 -0.0202254 0.1 0.01711362 -0.01822412 0.1 0.01926279 -0.01593554 0.1 0.02110815 -0.01339554 0.1 0.02262055 -0.01064443 0.1 0.02377641 -0.007725477 0.1 0.02455717 -0.004684567 0.1 0.02495062 -0.001569688 0.1 0.02495062 0.001569688 0.1 0.02455717 0.004684567 0.1 0.02377641 0.007725477 0.1 0.02262055 0.01064443 0.1 0.02110815 0.01339554 0.1 0.01926279 0.01593554 0.1 0.01711362 0.01822412 0.1 0.01469463 0.02022552 0.1 0.01204383 0.02190756 0.1 0.009203076 0.02324438 0.1 0.006217241 0.02421462 0.1 0.003133237 0.0248028 0.1 0 0.02499997 0.1 -0.003133237 0.0248028 0.1 -0.006217241 0.02421462 0.1 -0.009203076 0.02324438 0.1 -0.01204383 0.02190756 0.1 -0.01469463 0.02022552 0.1 -0.01711362 0.01822412 0.1 -0.01926279 0.01593554 0.1 -0.02110815 0.01339554 0.1 -0.02262055 0.01064443 0.1 -0.02377641 0.007725477 0.1 -0.02455717 0.004684567 0.1 -0.02495062 0.001569688 0.1 -0.02495062 -0.001569688 0.1 -0.02455717 -0.004684567 0.1 -0.02377641 -0.007725477 0.1 -0.02262055 -0.01064443 0.1 -0.02110815 -0.01339554 0.1 -0.01926279 -0.01593554 0.1 -0.01711362 -0.01822412 0.1 -0.01469463 -0.0202254 0.1 -0.01204383 -0.02190756 0.1 -0.009203076 -0.02324438 0.1 -0.006217241 -0.02421462 0.1 -0.003133237 -0.0248028 0.1 -0.005532503 0.02549993 0.1 0.006786823 0.0297352 0.1 0.003414869 0.03030812 0.1 0.005532503 0.02549993 0.1 0 0.03050005 0.1 -0.003414869 0.03030812 0.1 -0.006786823 0.0297352 0.1 0.01007348 0.02878832 0.1 0.01323342 0.02747941 0.1 0.01622682 0.02582502 0.1 0.01829183 0.01829183 0.1 0.02384585 0.0190165 0.1 0.02156662 0.02156662 0.1 0.01901644 0.02384579 0.1 0.0262593 0 0.1 0.02973514 0.006786823 0.1 0.02878832 0.01007354 0.1 0.02582508 0.01622676 0.1 0.02747941 0.01323342 0.1 0.03030806 0.003414869 0.1 0.03049999 0 0.1 0.02878832 -0.01007354 0.1 0.02973514 -0.006786823 0.1 0.03030806 -0.003414869 0.1 0.01829183 -0.01829183 0.1 0.02747941 -0.01323342 0.1 0.02582508 -0.01622676 0.1 0.02384585 -0.0190165 0.1 0.02156662 -0.02156662 0.1 0.01901644 -0.02384579 0.1 0.005532503 -0.0262593 0.1 0.01323342 -0.02747941 0.1 0.01622682 -0.02582502 0.1 0.01007348 -0.02878832 0.1 0.006786823 -0.0297352 0.1 0.003414869 -0.03030812 0.1 0 -0.03050005 0.1 -0.003414869 -0.03030812 0.1 -0.005532503 -0.0262593 0.1 -0.006786823 -0.0297352 0.1 -0.01323342 -0.02747941 0.1 -0.01007348 -0.02878832 0.1 -0.01622682 -0.02582502 0.1 -0.01901644 -0.02384579 0.1 -0.01829183 -0.01829183 0.1 -0.02384585 -0.0190165 0.1 -0.02156662 -0.02156662 0.1 -0.0262593 0 0.1 -0.02582508 -0.01622676 0.1 -0.02747941 -0.01323342 0.1 -0.02878832 -0.01007354 0.1 -0.02973514 -0.006786823 0.1 -0.03030806 -0.003414869 0.1 -0.03049999 0 0.1 -0.03030806 0.003414869 0.1 -0.02582508 0.01622676 0.1 -0.02747941 0.01323342 0.1 -0.02384585 0.0190165 0.1 -0.02973514 0.006786823 0.1 -0.02878832 0.01007354 0.1 -0.02156662 0.02156662 0.1 -0.01829183 0.01829183 0.1 -0.01901644 0.02384579 0.1 -0.01622682 0.02582502 0.1 -0.01323342 0.02747941 0.1 -0.01007348 0.02878832 0.0995 0.003470838 -0.03080511 0.0995 0 -0.03099989 0.0995 0.006898105 -0.03022277 0.0995 0.01023852 -0.02926027 0.0995 0.01345038 -0.02793002 0.0995 0.01649296 -0.02624845 0.0995 0.01932805 -0.02423667 0.0995 0.02192026 -0.02192032 0.0995 0.02423661 -0.01932799 0.0995 0.02624845 -0.01649308 0.0995 0.02793002 -0.01345038 0.0995 0.02926021 -0.01023852 0.0995 0.03022271 -0.006898105 0.0995 0.03080505 -0.003470838 0.0995 0.03099983 0 0.0995 0.03080505 0.003470838 0.0995 0.03022271 0.006898105 0.0995 0.02926021 0.01023852 0.0995 0.02793002 0.01345038 0.0995 0.02624845 0.01649308 0.0995 0.02423661 0.01932799 0.0995 0.02192026 0.02192032 0.0995 0.01932805 0.02423667 0.0995 0.01649296 0.02624845 0.0995 0.01345038 0.02793002 0.0995 0.01023852 0.02926027 0.0995 0.006898105 0.03022277 0.0995 0.003470838 0.03080511 0.0995 0 0.03099989 0.0995 -0.003470838 0.03080511 0.0995 -0.006898105 0.03022277 0.0995 -0.01023852 0.02926027 0.0995 -0.01345038 0.02793002 0.0995 -0.01649296 0.02624845 0.0995 -0.01932805 0.02423667 0.0995 -0.02192026 0.02192032 0.0995 -0.02423661 0.01932799 0.0995 -0.02624845 0.01649308 0.0995 -0.02793002 0.01345038 0.0995 -0.02926021 0.01023852 0.0995 -0.03022271 0.006898105 0.0995 -0.03080505 0.003470838 0.0995 -0.03099983 0 0.0995 -0.03080505 -0.003470838 0.0995 -0.03022271 -0.006898105 0.0995 -0.02926021 -0.01023852 0.0995 -0.02793002 -0.01345038 0.0995 -0.02624845 -0.01649308 0.0995 -0.02423661 -0.01932799 0.0995 -0.02192026 -0.02192032 0.0995 -0.01932805 -0.02423667 0.0995 -0.01649296 -0.02624845 0.0995 -0.01345038 -0.02793002 0.0995 -0.01023852 -0.02926027 0.0995 -0.006898105 -0.03022277 0.0995 -0.003470838 -0.03080511</float_array>
          <technique_common>
            <accessor source="#Gp12_Link_6_T-mesh-positions-array" count="544" stride="3">
              <param name="X" type="float"/>
              <param name="Y" type="float"/>
              <param name="Z" type="float"/>
            </accessor>
          </technique_common>
        </source>
        <source id="Gp12_Link_6_T-mesh-normals">
          <float_array id="Gp12_Link_6_T-mesh-normals-array" count="2331">0 0.9781507 -0.207897 0 0.9781505 -0.2078981 0 0.8089969 -0.587813 0 0.8089959 -0.5878143 0 0.5000525 -0.8659952 0 0.5000525 -0.8659951 0 0.1044915 -0.9945258 0 0.1044916 -0.9945259 0 -0.3089871 -0.9510663 0 -0.3089871 -0.9510663 0 -0.6692281 -0.743057 0 -0.6692273 -0.7430578 0 -0.9135173 -0.4068002 0 -0.913518 -0.4067984 0 -0.9945249 -0.1044998 0 -0.994525 -0.1044986 0 -0.9945235 0.1045131 0 -0.9945234 0.1045148 0 -0.9135156 0.4068039 0 -0.9135153 0.4068045 0 -0.6691564 0.7431216 0 -0.6691556 0.7431223 0 -0.3090405 0.9510489 0 -0.3090392 0.9510494 0 0.1044916 0.9945259 0 0.1044915 0.9945258 0 0.499989 0.8660318 0 0.499988 0.8660325 0 0.8090251 0.5877741 0 0.8090242 0.5877755 0 0.978144 0.207929 0 0.9781438 0.2079296 -1 0 0 -1 -1.97379e-6 0 -1 2.05266e-6 0 -1 3.4599e-6 0 -1 6.38754e-6 0 -1 7.09779e-6 0 -1 -5.14985e-6 0 -1 -9.17091e-7 0 -1 7.58321e-6 0 -1 2.24803e-6 0 -1 -1.01329e-6 0 -1 -7.29297e-7 0 -1 1.43223e-5 0 -1 6.10651e-6 0 -1 1.63404e-6 0 -1 -6.53632e-6 0 -1 1.53668e-6 0 -1 -2.30638e-6 0 -1 -5.71605e-6 0 -1 -2.14521e-5 0 -1 9.0892e-6 0 -1 5.0494e-6 0 -1 5.76057e-6 0 -1 1.80301e-5 0 -1 -7.74848e-6 0 -1 -5.84196e-6 0 -1 -6.78813e-6 0 -1 -2.13718e-5 0 -1 1.8635e-5 0 -1 -1.87313e-5 0 -1 6.5834e-6 0 -1 1.01894e-5 0 -1 8.41445e-6 0 -1 1.68289e-5 0 -1 2.12971e-5 0 -1 -1.13262e-5 0 -1 -8.65079e-6 0 -1 5.10466e-6 0 -1 -4.40081e-6 0 -1 1.04995e-5 0 -1 9.54916e-6 0 -1 7.24684e-6 0 -1 5.73556e-6 0 -1 3.28506e-6 0 -1 1.42444e-5 0 -1 -4.56344e-6 0 -1 -3.26816e-6 0 -1 1.0241e-5 0 -1 -2.09214e-6 0 -1 1.20855e-5 0 -1 3.00831e-6 0 -1 -1.30092e-5 0 -1 -3.37556e-6 0 -1 -6.83654e-6 0 -1 -4.63356e-6 0 -1 1.77626e-5 0 -1 -2.04504e-6 0 -1 5.14602e-6 0 -1 -1.8001e-6 0 -1 4.59362e-6 0 -1 -1.46065e-5 0 -1 3.47228e-6 0 -1 -1.1963e-6 0 -1 1.01672e-5 0 -1 3.12849e-6 0 -1 5.06009e-7 0 -1 -6.42982e-6 0 -1 1.11782e-5 0 -1 -1.53319e-6 0 -1 -5.04967e-6 0 -1 -1.40463e-6 0 -1 4.41382e-6 0 -1 5.54983e-6 0 -1 1.32771e-5 0 -1 2.13469e-6 0 -1 2.61514e-6 0 -1 5.14536e-6 0 -1 -1.01617e-6 0 -1 6.53632e-6 0 -1 -1.63404e-6 0 -1 -8.54405e-6 0 -1 -1.9044e-5 0 -1 1.89324e-5 0 -1 -6.59692e-6 0 -1 9.54683e-6 0 -1 -9.0892e-6 0 -1 1.00638e-5 0 -1 -5.76057e-6 0 -1 3.02963e-6 0 -1 -1.16773e-5 0 -1 1.76335e-5 0 -1 2.02482e-5 0 -1 1.09456e-5 0 -1 5.12007e-6 0 -1 5.54963e-6 0 -1 -2.8392e-6 0 -1 2.18912e-5 0 -1 3.17099e-6 0 -1 -2.46621e-5 0 -1 5.51838e-6 0 -1 -9.8561e-6 0 -1 -4.70724e-6 0 -1 2.25125e-6 0 -1 -3.64106e-6 0 -1 -3.60334e-6 0 -1 9.90915e-6 0 -1 -2.36447e-6 0 -1 -2.81395e-6 0 -1 -6.08111e-6 0 -1 1.41993e-5 0 -1 3.26816e-6 0 -1 -1.38993e-5 0 -1 1.05622e-5 0 -1 3.03602e-6 0 -1 -2.60069e-6 0 -1 1.45106e-5 0 -1 -3.33326e-6 0 -1 2.26068e-5 0 -1 -5.86704e-7 0 -1 -2.85178e-6 0 -1 -1.0241e-5 0 -1 -5.1862e-6 0 -1 -2.71658e-6 0 -1 1.37321e-6 0 -1 -4.51349e-6 0 -1 2.48276e-6 0 -1 8.09328e-6 0 -1 5.20514e-6 0 -1 -1.36894e-6 0 -1 2.46516e-6 0 -1 -3.61152e-6 0 -1 5.77843e-6 0 -1 -4.93031e-6 0 0 0.9709262 0.2393791 0 0.9709266 0.2393777 0 0.7485071 0.6631268 0 0.7485085 0.6631253 0 0.3546164 0.9350119 0 0.354615 0.9350124 0 -0.1204597 0.9927182 0 -0.1204601 0.9927182 0 -0.5681363 0.8229345 0 -0.5681366 0.8229343 0 -0.8854688 0.4646989 0 -0.8854675 0.4647013 0 -0.9927006 0.1206043 0 -0.9927008 0.1206036 0 -0.9927006 -0.1206043 0 -0.9927006 -0.1206047 0 -0.8854184 -0.4647948 0 -0.8854198 -0.4647924 0 -0.5681356 -0.8229351 0 -0.5681373 -0.8229338 0 -0.1205343 -0.9927092 0 0.3545486 -0.9350377 0 0.3545513 -0.9350367 0 0.7485747 -0.6630506 0 0.748576 -0.6630491 0 0.9709131 -0.2394326 0 0.9709132 -0.2394319 0 0.9709299 0.2393639 0 0.9709303 0.2393624 0 0.7484917 0.6631442 0 0.7484947 0.6631408 0 0.3545944 0.9350202 0 0.3545972 0.9350192 0 -0.1204586 0.9927183 0 -0.120459 0.9927183 0 -0.5681024 0.8229579 0 -0.5681092 0.8229533 0 -0.8854528 0.4647294 0 -0.885456 0.4647234 0 -0.992693 0.1206672 0 -0.9926945 0.1206551 0 -0.9926945 -0.1206551 0 -0.992693 -0.1206672 0 -0.8855057 -0.4646286 0 -0.8855039 -0.4646322 0 -0.5680624 -0.8229856 0 -0.5680577 -0.8229889 0 -0.1206088 -0.9927002 0 0.3546704 -0.9349915 0 0.354669 -0.934992 0 0.7485231 -0.6631088 0 0.7485207 -0.6631115 0 0.9709398 -0.2393239 0 0.9709398 0.2393239 0 0.74852 0.6631122 0 0.7485238 0.6631081 0 0.3546683 0.9349923 0 0.354671 0.9349913 0 -0.1206088 0.9927002 0 -0.5680567 0.8229896 0 -0.5680634 0.8229849 0 -0.8855031 0.4646334 0 -0.8855063 0.4646273 0 -0.8854553 -0.4647246 0 -0.8854535 -0.4647281 0 -0.5681081 -0.822954 0 -0.5681034 -0.8229572 0 -0.1204586 -0.9927183 0 -0.120459 -0.9927183 0 0.3545965 -0.9350194 0 0.3545951 -0.93502 0 0.7484947 -0.6631408 0 0.7484917 -0.6631442 0 0.9709299 -0.2393639 0 0.9709303 -0.2393624 0 0.9709131 0.2394326 0 0.9709132 0.2394319 0 0.7485747 0.6630506 0 0.748576 0.6630491 0 0.3545506 0.9350368 0 0.3545492 0.9350374 0 -0.1205343 0.9927092 0 -0.8854198 0.4647924 0 -0.8854184 0.4647948 0 -0.9927006 0.1206047 0 -0.9927008 -0.1206036 0 -0.8854675 -0.4647013 0 -0.8854688 -0.4646989 0 -0.1204597 -0.9927182 0 -0.1204601 -0.9927182 0 0.3546143 -0.9350128 0 0.3546171 -0.9350118 0 0.7485071 -0.6631268 0 0.7485085 -0.6631253 0 0.9709262 -0.2393791 0 0.9709266 -0.2393777 0 0.9709316 0.2393574 0 0.9709317 0.2393566 0 0.7485327 0.6630979 0 0.7485348 0.6630955 0 0.354605 0.9350162 0 0.3546068 0.9350156 0 -0.568094 0.8229638 0 -0.5680964 0.8229621 0 -0.8853559 0.464914 0 -0.8853546 0.4649165 0 -0.9927193 0.1204512 0 -0.9927192 0.1204515 0 -0.9927193 -0.1204512 0 -0.9927194 -0.1204504 0 -0.8854037 -0.4648229 0 -0.885405 -0.4648205 0 -0.5680954 -0.8229628 0 -0.568095 -0.822963 0 0.3546718 -0.9349909 0 0.3546715 -0.934991 0 0.748466 -0.6631733 0 0.7484666 -0.6631726 0 0.9709448 -0.2393038 0 0.9709451 -0.2393024 0 0.9709227 0.2393934 0 0.7485596 0.6630675 0 0.7485573 0.6630702 0 0.3546704 0.9349915 0 0.354669 0.934992 0 -0.1205999 0.9927012 0 -0.568095 0.822963 0 -0.885536 0.4645708 0 -0.8855367 0.4645695 0 -0.9926756 0.1208114 0 -0.9926756 -0.1208114 0 -0.8854857 -0.4646668 0 -0.8854864 -0.4646655 0 -0.5681397 -0.8229321 0 -0.5681408 -0.8229315 0 -0.1204498 -0.9927195 0 -0.1204501 -0.9927195 0 0.3545944 -0.9350202 0 0.3545972 -0.9350192 0 0.7485283 -0.663103 0 0.7485313 -0.6630995 0 0.9709128 -0.2394334 0 0.9709128 0.2394334 0 0.7485313 0.6630995 0 0.7485283 0.663103 0 0.3545965 0.9350194 0 0.3545951 0.93502 0 -0.1204498 0.9927195 0 -0.1204501 0.9927195 0 -0.5681397 0.8229321 0 -0.5681408 0.8229315 0 -0.8854857 0.4646668 0 -0.8854864 0.4646655 0 -0.885536 -0.4645708 0 -0.8855367 -0.4645695 0 -0.568094 -0.8229638 0 -0.1205999 -0.9927012 0 0.3546683 -0.9349923 0 0.354671 -0.9349913 0 0.7485566 -0.663071 0 0.7485603 -0.6630668 0 0.9709227 -0.2393934 0 0.9709448 0.2393038 0 0.9709451 0.2393024 0 0.7484652 0.6631742 0 0.7484673 0.6631717 0 0.3546708 0.9349913 0 0.3546725 0.9349907 0 -0.885405 0.4648205 0 -0.8854037 0.4648229 0 -0.9927194 0.1204504 0 -0.9927192 -0.1204515 0 -0.8853546 -0.4649165 0 -0.8853559 -0.464914 0 0.3546061 -0.9350159 0 0.3546057 -0.9350159 0 0.7485335 -0.663097 0 0.748534 -0.6630964 0 0.9709316 -0.2393574 0 0.9709317 -0.2393566 0 -0.06280428 0.9980259 0 -0.06280452 0.9980259 0 -0.1873428 0.9822947 0 -0.1873432 0.9822946 0 -0.3090407 0.9510489 0 -0.309042 0.9510484 0 -0.4257792 0.9048271 0 -0.4257806 0.9048265 0 -0.5358194 0.8443326 0 -0.5358209 0.8443317 0 -0.6374364 0.770503 0 -0.6374369 0.7705025 0 -0.728968 0.6845478 0 -0.7289676 0.6845483 0 -0.8090195 0.587782 0 -0.8090192 0.5877822 0 -0.8763027 0.4817609 0 -0.8763048 0.4817573 0 -0.9297671 0.3681483 0 -0.929768 0.368146 0 -0.9685842 0.2486861 0 -0.968584 0.2486868 0 -0.9921169 0.1253166 0 -0.9921166 0.1253181 0 -1 0 0 -0.9921166 -0.1253181 0 -0.9921169 -0.1253166 0 -0.9685838 -0.2486876 0 -0.9685843 -0.2486854 0 -0.9297676 -0.368147 0 -0.9297675 -0.3681473 0 -0.876304 -0.4817587 0 -0.8763034 -0.4817596 0 -0.8090199 -0.5877815 0 -0.8090189 -0.5877827 0 -0.7289676 -0.6845483 0 -0.728968 -0.6845478 0 -0.637458 -0.7704851 0 -0.6374602 -0.7704833 0 -0.5357934 -0.8443492 0 -0.535793 -0.8443494 0 -0.4257794 -0.9048271 0 -0.4257805 -0.9048266 0 -0.3090407 -0.9510489 0 -0.309042 -0.9510484 0 -0.1873428 -0.9822947 0 -0.1873432 -0.9822946 0 -0.06280428 -0.9980259 0 -0.06280452 -0.9980259 0 0.06280428 -0.9980259 0 0.06280452 -0.9980259 0 0.1873428 -0.9822947 0 0.1873432 -0.9822946 0 0.3090407 -0.9510489 0 0.309042 -0.9510484 0 0.4257792 -0.9048271 0 0.4257806 -0.9048265 0 0.535793 -0.8443494 0 0.5357934 -0.8443492 0 0.6374584 -0.7704848 0 0.6374599 -0.7704836 0 0.728968 -0.6845478 0 0.7289676 -0.6845483 0 0.8090195 -0.587782 0 0.8090192 -0.5877822 0 0.8763027 -0.4817609 0 0.8763048 -0.4817573 0 0.9297671 -0.3681483 0 0.929768 -0.368146 0 0.9685842 -0.2486861 0 0.968584 -0.2486868 0 0.9921169 -0.1253166 0 0.9921166 -0.1253181 0 1 0 0 0.9921166 0.1253181 0 0.9921169 0.1253166 0 0.9685838 0.2486876 0 0.9685843 0.2486854 0 0.9297676 0.368147 0 0.9297675 0.3681473 0 0.876304 0.4817587 0 0.8763034 0.4817596 0 0.8090199 0.5877815 0 0.8090189 0.5877827 0 0.7289676 0.6845483 0 0.728968 0.6845478 0 0.637436 0.7705034 0 0.6374374 0.7705023 0 0.5358198 0.8443325 0 0.5358206 0.844332 0 0.4257794 0.9048271 0 0.4257805 0.9048266 0 0.3090407 0.9510489 0 0.309042 0.9510484 0 0.1873428 0.9822947 0 0.1873432 0.9822946 0 0.06280428 0.9980259 0 0.06280452 0.9980259 1 9.65599e-7 0 1 3.00104e-6 0 1 0 0 1 4.10529e-6 0 1 -8.55937e-6 0 1 4.38642e-6 0 1 -1.63422e-6 0 1 -8.09867e-6 0 1 3.46934e-6 0 1 -2.44582e-6 0 1 -3.52142e-6 0 1 1.60822e-6 0 1 -1.98246e-6 0 1 7.8219e-6 0 1 -2.5247e-6 0 1 6.4748e-6 0 1 3.2259e-6 0 1 -1.00365e-6 0 1 2.36085e-6 0 1 -1.71935e-6 0 1 -1.89324e-5 0 1 6.59692e-6 0 1 2.20312e-6 0 1 2.62577e-6 0 1 6.00208e-6 0 1 -6.21473e-6 0 1 -6.83641e-6 0 1 -8.00079e-6 0 1 3.02963e-6 0 1 -2.40701e-6 0 1 3.71593e-6 0 1 3.59503e-6 0 1 8.36079e-6 0 1 4.70724e-6 0 1 -2.25125e-6 0 1 -2.49125e-6 0 1 3.21866e-5 0 1 -1.41993e-5 0 1 6.08111e-6 0 1 1.63737e-5 0 1 -1.0628e-5 0 1 -5.314e-6 0 1 8.54405e-6 0 1 -1.84022e-6 0 1 -1.04607e-6 0 1 2.60069e-6 0 1 -2.90211e-5 0 1 1.01726e-6 0 1 5.9551e-7 0 1 3.33828e-6 0 1 -5.5097e-6 0 1 2.81859e-6 0 1 -1.0241e-5 0 1 -1.33884e-5 0 1 -7.67134e-6 0 1 -4.6793e-6 0 1 2.92456e-6 0 1 -2.15627e-6 0 1 8.4642e-7 0 1 -1.54788e-6 0 1 -2.05038e-6 0 1 -9.36688e-7 0 1 3.16275e-5 0 1 -2.72256e-6 0 1 3.98099e-6 0 1 5.85101e-6 0 1 5.27179e-6 0 1 -1.01894e-5 0 1 6.20182e-6 0 1 -2.62577e-6 0 1 -2.14521e-5 0 1 7.65054e-6 0 1 -1.42901e-6 0 1 2.52483e-6 0 1 8.00079e-6 0 1 -2.11043e-6 0 1 2.89315e-5 0 1 -1.05216e-5 0 1 8.1617e-6 0 1 -4.74364e-6 0 1 -3.69718e-6 0 1 -8.32659e-6 0 1 3.99997e-6 0 1 -9.17361e-6 0 1 2.16987e-5 0 1 -5.56264e-6 0 1 -7.24684e-6 0 1 3.28506e-6 0 1 -7.12219e-6 0 1 -1.79492e-5 0 1 1.84022e-6 0 1 1.0241e-5 0 1 -3.50091e-6 0 1 -5.05899e-6 0 1 2.9255e-6 0 1 -1.50416e-6 0 1 1.30092e-5 0 1 -3.37556e-6 0 1 -6.83633e-6 0 1 1.80013e-6 0 1 3.34395e-6 0 1 -1.9279e-6 0 1 2.90021e-6 0 1 -4.90006e-6 0 1 -1.01726e-6 0 1 6.8185e-6 0 1 -3.80441e-6 0 1 6.5074e-6 0 1 3.91068e-6 0 1 -5.28209e-6 0 1 2.04305e-6 0 1 2.73788e-6 0 1 3.69773e-6 0 1 -4.93031e-6 0 0 0.05604797 -0.9984282 0 0.1675126 -0.98587 0 0.1675126 -0.98587 0 0.2768527 -0.9609124 0 0.3826695 -0.9238854 0 0.3826681 -0.923886 0 0.4837176 -0.8752241 0 0.4837188 -0.8752236 0 0.5786854 -0.8155509 0 0.5786851 -0.8155512 0 0.6663348 -0.7456527 0 0.6663339 -0.7456535 0 0.7456687 -0.6663169 0 0.7456683 -0.6663174 0 0.8155266 -0.5787199 0 0.8155254 -0.5787213 0 0.8752314 -0.4837046 0 0.8752327 -0.4837021 0 0.9238916 -0.3826543 0 0.9238921 -0.3826532 0 0.9609122 -0.2768533 0 0.9609125 -0.2768525 0 0.98587 -0.1675127 0 0.9858699 -0.1675133 0 0.9984282 -0.05604749 0 0.9984281 -0.05604898 0 0.9984281 0.05604898 0 0.9984282 0.05604749 0 0.98587 0.1675127 0 0.9858699 0.1675133 0 0.9609122 0.2768533 0 0.9609125 0.2768525 0 0.9238916 0.3826543 0 0.9238921 0.3826532 0 0.875232 0.4837034 0 0.8752321 0.4837033 0 0.8155266 0.5787199 0 0.8155254 0.5787213 0 0.7456683 0.6663174 0 0.7456687 0.6663169 0 0.6663348 0.7456527 0 0.6663339 0.7456535 0 0.5786851 0.8155512 0 0.5786854 0.8155509 0 0.4837176 0.8752241 0 0.4837188 0.8752236 0 0.3826694 0.9238854 0 0.3826682 0.9238858 0 0.2768527 0.9609124 0 0.1675126 0.98587 0 0.1675126 0.98587 0 0.05604815 0.9984282 0 0.05604797 0.9984282 0 -0.05604815 0.9984282 0 -0.05604797 0.9984282 0 -0.1675126 0.98587 0 -0.1675126 0.98587 0 -0.2768527 0.9609124 0 -0.3826695 0.9238854 0 -0.3826681 0.923886 0 -0.4837176 0.8752241 0 -0.4837188 0.8752236 0 -0.5786854 0.8155509 0 -0.5786851 0.8155512 0 -0.6663348 0.7456527 0 -0.6663339 0.7456535 0 -0.7456687 0.6663169 0 -0.7456683 0.6663174 0 -0.8155266 0.5787199 0 -0.8155254 0.5787213 0 -0.8752314 0.4837046 0 -0.8752327 0.4837021 0 -0.9238916 0.3826543 0 -0.9238921 0.3826532 0 -0.9609122 0.2768533 0 -0.9609125 0.2768525 0 -0.98587 0.1675127 0 -0.9858699 0.1675133 0 -0.9984282 0.05604749 0 -0.9984281 0.05604898 0 -0.9984281 -0.05604898 0 -0.9984282 -0.05604749 0 -0.98587 -0.1675127 0 -0.9858699 -0.1675133 0 -0.9609122 -0.2768533 0 -0.9609125 -0.2768525 0 -0.9238916 -0.3826543 0 -0.9238921 -0.3826532 0 -0.875232 -0.4837034 0 -0.8752321 -0.4837033 0 -0.8155266 -0.5787199 0 -0.8155254 -0.5787213 0 -0.7456683 -0.6663174 0 -0.7456687 -0.6663169 0 -0.6663348 -0.7456527 0 -0.6663339 -0.7456535 0 -0.5786851 -0.8155512 0 -0.5786854 -0.8155509 0 -0.4837176 -0.8752241 0 -0.4837188 -0.8752236 0 -0.3826694 -0.9238854 0 -0.3826682 -0.9238858 0 -0.2768527 -0.9609124 0 -0.1675126 -0.98587 0 -0.1675126 -0.98587 0 -0.05604815 -0.9984282 0 -0.05604797 -0.9984282 0 0.05604815 -0.9984282 0.7066159 0.706485 -0.0396617 0.706586 0.6976298 -0.1185278 0.7065849 0.6976294 -0.1185373 0.7065824 0.6799789 -0.1958826 0.7065006 0.6800488 -0.1959356 0.7064802 0.6538589 -0.2708401 0.7066153 0.6537395 -0.2707757 0.706593 0.6193316 -0.3422789 0.7066435 0.6192842 -0.3422601 0.7066559 0.5770694 -0.4094247 0.7064193 0.5772217 -0.4096182 0.7064063 0.5277517 -0.4716656 0.7066052 0.5276362 -0.4714969 0.7066067 0.4715207 -0.5276128 0.7065241 0.4715592 -0.5276891 0.70653 0.409507 -0.577165 0.706615 0.4094755 -0.5770833 0.7066121 0.3422904 -0.6193035 0.706605 0.3422718 -0.6193217 0.706601 0.2707955 -0.6537469 0.7065464 0.2707957 -0.6538057 0.7065459 0.1959115 -0.6800085 0.7065825 0.1959082 -0.6799715 0.7065853 0.1185329 -0.6976297 0.7066003 0.1185309 -0.6976149 0.7065969 0.03969675 -0.7065019 0.7064812 0.03966748 -0.7066193 0.7064762 -0.03970503 -0.7066222 0.7065999 -0.03965938 -0.7065011 0.7066001 -0.1185334 -0.6976147 0.7065825 -0.1185339 -0.6976323 0.7065861 -0.1958949 -0.6799716 0.7065439 -0.1959189 -0.6800086 0.7065413 -0.2708286 -0.6537976 0.7066028 -0.2707741 -0.6537537 0.7065998 -0.3422961 -0.6193143 0.7066171 -0.3422662 -0.6193111 0.7066141 -0.4094581 -0.5770968 0.7065322 -0.4095236 -0.5771505 0.706521 -0.4715841 -0.5276709 0.7066099 -0.4714958 -0.5276308 0.7066041 -0.5276048 -0.4715336 0.7064105 -0.5277806 -0.4716267 0.7064065 -0.5772808 -0.4095569 0.7066646 -0.5770136 -0.4094881 0.7066286 -0.6193008 -0.3422611 0.7066085 -0.6193146 -0.3422775 0.7066058 -0.6537392 -0.2708012 0.7064918 -0.6538572 -0.2708138 0.7064913 -0.6800664 -0.1959078 0.7065901 -0.6799628 -0.1959108 0.7065712 -0.6976444 -0.118531 0.7065996 -0.697615 -0.1185341 0.7065959 -0.7065031 -0.03969472 0.7064949 -0.7066056 -0.0396685 0.7064729 -0.7066256 0.03970158 0.7066159 -0.706485 0.0396617 0.706586 -0.6976298 0.1185278 0.7065849 -0.6976294 0.1185373 0.7065824 -0.6799789 0.1958826 0.7065006 -0.6800488 0.1959356 0.7064802 -0.6538589 0.2708401 0.7066153 -0.6537395 0.2707757 0.706593 -0.6193316 0.3422789 0.7066435 -0.6192842 0.3422601 0.7066559 -0.5770694 0.4094247 0.7064193 -0.5772217 0.4096182 0.7064063 -0.5277517 0.4716656 0.7066052 -0.5276362 0.4714969 0.7066067 -0.4715207 0.5276128 0.7065241 -0.4715592 0.5276891 0.70653 -0.409507 0.577165 0.706615 -0.4094755 0.5770833 0.7066121 -0.3422904 0.6193035 0.706605 -0.3422718 0.6193217 0.706601 -0.2707955 0.6537469 0.7065464 -0.2707957 0.6538057 0.7065459 -0.1959115 0.6800085 0.7065825 -0.1959082 0.6799715 0.7065853 -0.1185329 0.6976297 0.7066003 -0.1185309 0.6976149 0.7065969 -0.03969675 0.7065019 0.7064812 -0.03966748 0.7066193 0.7064762 0.03970503 0.7066222 0.7065999 0.03965938 0.7065011 0.7066001 0.1185334 0.6976147 0.7065825 0.1185339 0.6976323 0.7065861 0.1958949 0.6799716 0.7065439 0.1959189 0.6800086 0.7065413 0.2708286 0.6537976 0.7066028 0.2707741 0.6537537 0.7065998 0.3422961 0.6193143 0.7066171 0.3422662 0.6193111 0.7066141 0.4094581 0.5770968 0.7065322 0.4095236 0.5771505 0.706521 0.4715841 0.5276709 0.7066099 0.4714958 0.5276308 0.7066041 0.5276048 0.4715336 0.7064105 0.5277806 0.4716267 0.7064065 0.5772808 0.4095569 0.7066646 0.5770136 0.4094881 0.7066286 0.6193008 0.3422611 0.7066085 0.6193146 0.3422775 0.7066058 0.6537392 0.2708012 0.7064918 0.6538572 0.2708138 0.7064913 0.6800664 0.1959078 0.7065901 0.6799628 0.1959108 0.7065712 0.6976444 0.118531 0.7065996 0.697615 0.1185341 0.7065959 0.7065031 0.03969472 0.7064949 0.7066056 0.0396685 0.7064729 0.7066256 -0.03970158</float_array>
          <technique_common>
            <accessor source="#Gp12_Link_6_T-mesh-normals-array" count="777" stride="3">
              <param name="X" type="float"/>
              <param name="Y" type="float"/>
              <param name="Z" type="float"/>
            </accessor>
          </technique_common>
        </source>
        <vertices id="Gp12_Link_6_T-mesh-vertices">
          <input semantic="POSITION" source="#Gp12_Link_6_T-mesh-positions"/>
        </vertices>
        <triangles material="Material_008-material" count="1124">
          <input semantic="VERTEX" source="#Gp12_Link_6_T-mesh-vertices" offset="0"/>
          <input semantic="NORMAL" source="#Gp12_Link_6_T-mesh-normals" offset="1"/>
          <p>0 0 1 0 2 0 2 1 3 1 0 1 4 2 0 2 3 2 3 3 5 3 4 3 6 4 4 4 5 4 5 5 7 5 6 5 8 6 6 6 7 6 7 7 9 7 8 7 10 8 8 8 9 8 9 9 11 9 10 9 12 10 10 10 11 10 11 11 13 11 12 11 14 12 12 12 13 12 13 13 15 13 14 13 16 14 14 14 15 14 15 15 17 15 16 15 18 16 16 16 17 16 17 17 19 17 18 17 20 18 18 18 19 18 19 19 21 19 20 19 22 20 20 20 21 20 21 21 23 21 22 21 24 22 22 22 23 22 23 23 25 23 24 23 26 24 24 24 25 24 25 25 27 25 26 25 28 26 26 26 27 26 27 27 29 27 28 27 30 28 28 28 29 28 29 29 31 29 30 29 1 30 30 30 31 30 31 31 2 31 1 31 32 32 33 32 34 32 35 32 36 32 7 32 7 32 5 32 35 32 37 32 35 32 5 32 38 32 29 32 27 32 38 33 27 33 25 33 25 32 39 32 38 32 39 34 25 34 23 34 40 32 41 32 15 32 15 32 13 32 40 32 40 32 13 32 11 32 36 35 40 35 11 35 11 32 9 32 36 32 36 36 9 36 7 36 5 37 3 37 37 37 3 32 2 32 37 32 38 32 37 32 2 32 2 32 31 32 38 32 31 32 29 32 38 32 23 32 21 32 39 32 39 32 21 32 19 32 41 32 39 32 19 32 19 32 17 32 41 32 17 32 15 32 41 32 42 32 43 32 44 32 38 38 45 38 46 38 46 32 47 32 38 32 37 39 38 39 47 39 47 32 48 32 37 32 49 32 37 32 48 32 48 32 50 32 49 32 49 40 50 40 51 40 43 32 49 32 51 32 51 32 52 32 43 32 52 32 44 32 43 32 44 41 53 41 42 41 42 32 53 32 54 32 54 32 55 32 42 32 55 42 54 42 56 42 57 43 45 43 38 43 38 32 58 32 57 32 59 32 57 32 58 32 58 32 60 32 59 32 61 32 59 32 60 32 60 32 62 32 61 32 56 44 61 44 62 44 62 32 63 32 56 32 56 45 63 45 55 45 55 46 64 46 65 46 65 47 66 47 55 47 55 48 66 48 42 48 67 49 68 49 69 49 70 50 71 50 72 50 73 32 71 32 70 32 70 32 74 32 73 32 75 51 73 51 74 51 74 52 76 52 75 52 76 32 77 32 75 32 63 53 78 53 55 53 70 54 55 54 78 54 64 32 55 32 70 32 72 32 64 32 70 32 79 32 64 32 72 32 72 55 80 55 79 55 81 56 79 56 80 56 80 32 82 32 81 32 82 32 83 32 81 32 84 32 81 32 83 32 83 57 85 57 84 57 86 58 84 58 85 58 85 32 87 32 86 32 88 32 86 32 87 32 87 59 89 59 88 59 88 60 89 60 68 60 68 32 67 32 88 32 67 32 90 32 88 32 91 32 90 32 67 32 92 32 93 32 94 32 94 61 95 61 92 61 96 62 92 62 95 62 97 32 77 32 76 32 76 32 98 32 97 32 69 32 97 32 98 32 98 63 99 63 69 63 69 32 99 32 67 32 99 64 100 64 67 64 67 32 100 32 101 32 102 32 103 32 104 32 67 65 101 65 105 65 106 32 67 32 105 32 91 32 67 32 106 32 106 66 107 66 91 66 108 67 91 67 107 67 107 32 109 32 108 32 110 68 108 68 109 68 109 69 111 69 110 69 93 70 110 70 111 70 111 32 112 32 93 32 93 71 112 71 94 71 113 32 104 32 103 32 103 72 114 72 113 72 115 32 113 32 114 32 114 73 116 73 115 73 116 74 117 74 115 74 118 75 115 75 117 75 117 32 119 32 118 32 105 76 118 76 119 76 119 32 120 32 105 32 105 77 120 77 106 77 121 32 122 32 123 32 123 78 122 78 124 78 124 46 96 46 123 46 95 32 102 32 96 32 104 32 96 32 102 32 104 32 123 32 96 32 125 79 123 79 104 79 123 32 125 32 126 32 127 80 34 80 128 80 128 81 129 81 127 81 129 32 130 32 127 32 131 82 127 82 130 82 130 83 132 83 131 83 133 84 131 84 132 84 132 32 134 32 133 32 126 85 133 85 134 85 33 86 135 86 136 86 136 87 137 87 33 87 34 32 33 32 137 32 137 88 138 88 34 88 34 89 138 89 128 89 134 32 139 32 126 32 126 90 139 90 140 90 140 91 123 91 126 91 123 92 140 92 141 92 141 93 121 93 123 93 141 41 142 41 121 41 143 94 121 94 142 94 142 95 144 95 143 95 135 96 143 96 144 96 144 32 145 32 135 32 145 32 136 32 135 32 146 97 147 97 148 97 34 32 146 32 148 32 148 32 149 32 34 32 149 32 32 32 34 32 150 98 151 98 152 98 152 99 153 99 150 99 154 32 150 32 153 32 147 100 146 100 155 100 155 32 156 32 147 32 151 32 147 32 156 32 156 32 157 32 151 32 157 32 152 32 151 32 158 32 159 32 160 32 161 101 162 101 160 101 160 32 159 32 161 32 163 32 161 32 159 32 153 102 164 102 154 102 154 103 164 103 165 103 166 32 154 32 165 32 159 32 167 32 163 32 163 104 167 104 168 104 169 32 163 32 168 32 168 105 170 105 169 105 171 32 169 32 170 32 170 32 172 32 171 32 146 106 171 106 172 106 172 32 173 32 146 32 173 107 155 107 146 107 165 108 158 108 166 108 160 109 166 109 158 109 174 110 166 110 160 110 160 111 175 111 174 111 176 112 177 112 178 112 177 32 179 32 178 32 180 32 178 32 179 32 178 113 181 113 176 113 181 114 182 114 176 114 183 115 176 115 182 115 182 116 184 116 183 116 185 117 183 117 184 117 184 118 186 118 185 118 187 32 185 32 186 32 186 32 188 32 187 32 189 32 190 32 191 32 187 119 160 119 162 119 188 120 160 120 187 120 175 32 160 32 188 32 188 32 192 32 175 32 193 121 175 121 192 121 192 122 194 122 193 122 195 32 193 32 194 32 194 123 196 123 195 123 197 32 195 32 196 32 196 32 198 32 197 32 197 124 198 124 199 124 199 125 200 125 197 125 191 126 197 126 200 126 201 32 202 32 189 32 202 32 203 32 189 32 189 32 203 32 190 32 204 127 205 127 206 127 207 32 208 32 209 32 210 32 209 32 208 32 206 32 205 32 211 32 211 128 212 128 206 128 213 129 206 129 212 129 212 130 214 130 213 130 215 131 213 131 214 131 214 32 216 32 215 32 217 32 215 32 216 32 218 32 207 32 209 32 209 132 219 132 218 132 220 133 218 133 219 133 219 134 221 134 220 134 222 135 220 135 221 135 200 32 223 32 191 32 191 32 223 32 180 32 180 32 189 32 191 32 179 32 189 32 180 32 189 32 179 32 224 32 206 32 201 32 204 32 204 136 201 136 189 136 189 137 225 137 204 137 225 138 189 138 224 138 224 139 226 139 225 139 226 32 224 32 227 32 228 32 226 32 227 32 227 140 222 140 228 140 222 141 229 141 228 141 221 32 229 32 222 32 216 32 210 32 217 32 208 32 217 32 210 32 230 111 217 111 208 111 208 142 231 142 230 142 232 32 233 32 234 32 234 143 235 143 232 143 236 144 232 144 235 144 39 32 41 32 237 32 237 32 238 32 39 32 239 145 39 145 238 145 238 32 240 32 239 32 241 146 239 146 240 146 240 147 242 147 241 147 233 148 241 148 242 148 242 149 243 149 233 149 243 32 234 32 233 32 244 150 245 150 246 150 246 32 247 32 244 32 248 151 244 151 247 151 236 152 208 152 207 152 235 153 208 153 236 153 231 32 208 32 235 32 235 154 249 154 231 154 245 155 231 155 249 155 249 156 250 156 245 156 250 157 246 157 245 157 247 32 251 32 248 32 248 158 251 158 252 158 41 159 248 159 252 159 252 32 253 32 41 32 253 32 237 32 41 32 39 32 239 32 254 32 39 160 254 160 255 160 38 32 39 32 255 32 255 32 256 32 38 32 256 32 58 32 38 32 34 161 127 161 257 161 34 162 257 162 258 162 146 32 34 32 258 32 258 163 259 163 146 163 259 164 171 164 146 164 54 165 53 165 260 165 260 166 261 166 54 166 56 167 54 167 261 167 261 168 262 168 56 168 61 169 56 169 262 169 262 170 263 170 61 170 59 171 61 171 263 171 263 172 264 172 59 172 57 173 59 173 264 173 264 174 265 174 57 174 45 175 57 175 265 175 265 176 266 176 45 176 46 177 45 177 266 177 266 178 267 178 46 178 47 179 46 179 267 179 267 180 268 180 47 180 48 181 47 181 268 181 268 182 269 182 48 182 50 183 48 183 269 183 269 184 270 184 50 184 51 185 50 185 270 185 270 185 271 185 51 185 52 186 51 186 271 186 271 187 272 187 52 187 44 188 52 188 272 188 272 189 273 189 44 189 53 190 44 190 273 190 273 191 260 191 53 191 87 192 85 192 274 192 274 193 275 193 87 193 89 194 87 194 275 194 275 195 276 195 89 195 68 196 89 196 276 196 276 197 277 197 68 197 69 198 68 198 277 198 277 199 278 199 69 199 97 200 69 200 278 200 278 201 279 201 97 201 77 202 97 202 279 202 279 203 280 203 77 203 75 204 77 204 280 204 280 205 281 205 75 205 73 206 75 206 281 206 281 207 282 207 73 207 71 208 73 208 282 208 282 209 283 209 71 209 72 210 71 210 283 210 283 211 284 211 72 211 80 212 72 212 284 212 284 212 285 212 80 212 82 213 80 213 285 213 285 214 286 214 82 214 83 215 82 215 286 215 286 216 287 216 83 216 85 217 83 217 287 217 287 217 274 217 85 217 112 218 111 218 288 218 288 218 289 218 112 218 94 219 112 219 289 219 289 220 290 220 94 220 95 221 94 221 290 221 290 222 291 222 95 222 102 223 95 223 291 223 291 223 292 223 102 223 103 224 102 224 292 224 292 225 293 225 103 225 114 226 103 226 293 226 293 227 294 227 114 227 116 204 114 204 294 204 294 205 295 205 116 205 117 206 116 206 295 206 295 207 296 207 117 207 119 228 117 228 296 228 296 229 297 229 119 229 120 230 119 230 297 230 297 231 298 231 120 231 106 232 120 232 298 232 298 233 299 233 106 233 107 234 106 234 299 234 299 235 300 235 107 235 109 236 107 236 300 236 300 237 301 237 109 237 111 238 109 238 301 238 301 239 288 239 111 239 142 240 141 240 302 240 302 241 303 241 142 241 144 242 142 242 303 242 303 243 304 243 144 243 145 244 144 244 304 244 304 245 305 245 145 245 136 246 145 246 305 246 305 246 306 246 136 246 137 173 136 173 306 173 306 174 307 174 137 174 138 247 137 247 307 247 307 248 308 248 138 248 128 177 138 177 308 177 308 249 309 249 128 249 129 179 128 179 309 179 309 250 310 250 129 250 130 251 129 251 310 251 310 252 311 252 130 252 132 183 130 183 311 183 311 184 312 184 132 184 134 253 132 253 312 253 312 254 313 254 134 254 139 255 134 255 313 255 313 256 314 256 139 256 140 257 139 257 314 257 314 258 315 258 140 258 141 259 140 259 315 259 315 260 302 260 141 260 155 261 173 261 316 261 316 262 317 262 155 262 156 263 155 263 317 263 317 264 318 264 156 264 157 265 156 265 318 265 318 266 319 266 157 266 152 246 157 246 319 246 319 246 320 246 152 246 153 267 152 267 320 267 320 268 321 268 153 268 164 269 153 269 321 269 321 270 322 270 164 270 165 271 164 271 322 271 322 272 323 272 165 272 158 273 165 273 323 273 323 274 324 274 158 274 159 275 158 275 324 275 324 276 325 276 159 276 167 277 159 277 325 277 325 278 326 278 167 278 168 253 167 253 326 253 326 254 327 254 168 254 170 279 168 279 327 279 327 280 328 280 170 280 172 281 170 281 328 281 328 282 329 282 172 282 173 283 172 283 329 283 329 284 316 284 173 284 186 285 184 285 330 285 330 285 331 285 186 285 188 286 186 286 331 286 331 287 332 287 188 287 192 288 188 288 332 288 332 289 333 289 192 289 194 290 192 290 333 290 333 290 334 290 194 290 196 267 194 267 334 267 334 291 335 291 196 291 198 292 196 292 335 292 335 293 336 293 198 293 199 294 198 294 336 294 336 294 337 294 199 294 200 295 199 295 337 295 337 295 338 295 200 295 223 296 200 296 338 296 338 297 339 297 223 297 180 298 223 298 339 298 339 299 340 299 180 299 178 300 180 300 340 300 340 301 341 301 178 301 181 302 178 302 341 302 341 303 342 303 181 303 182 304 181 304 342 304 342 305 343 305 182 305 184 306 182 306 343 306 343 191 330 191 184 191 229 307 221 307 344 307 344 241 345 241 229 241 228 308 229 308 345 308 345 309 346 309 228 309 226 310 228 310 346 310 346 311 347 311 226 311 225 312 226 312 347 312 347 313 348 313 225 313 204 314 225 314 348 314 348 315 349 315 204 315 205 316 204 316 349 316 349 317 350 317 205 317 211 294 205 294 350 294 350 294 351 294 211 294 212 295 211 295 351 295 351 295 352 295 212 295 214 318 212 318 352 318 352 319 353 319 214 319 216 320 214 320 353 320 353 278 354 278 216 278 210 321 216 321 354 321 354 321 355 321 210 321 209 322 210 322 355 322 355 323 356 323 209 323 219 324 209 324 356 324 356 325 357 325 219 325 221 326 219 326 357 326 357 326 344 326 221 326 240 327 238 327 358 327 358 328 359 328 240 328 242 329 240 329 359 329 359 330 360 330 242 330 243 331 242 331 360 331 360 332 361 332 243 332 234 171 243 171 361 171 361 172 362 172 234 172 235 267 234 267 362 267 362 268 363 268 235 268 249 333 235 333 363 333 363 334 364 334 249 334 250 271 249 271 364 271 364 335 365 335 250 335 246 273 250 273 365 273 365 336 366 336 246 336 247 337 246 337 366 337 366 338 367 338 247 338 251 277 247 277 367 277 367 278 368 278 251 278 252 185 251 185 368 185 368 185 369 185 252 185 253 339 252 339 369 339 369 340 370 340 253 340 237 341 253 341 370 341 370 342 371 342 237 342 238 343 237 343 371 343 371 344 358 344 238 344 259 345 258 345 372 345 372 346 373 346 259 346 171 347 259 347 373 347 373 348 374 348 171 348 169 349 171 349 374 349 374 350 375 350 169 350 163 351 169 351 375 351 375 352 376 352 163 352 161 353 163 353 376 353 376 354 377 354 161 354 162 355 161 355 377 355 377 356 378 356 162 356 187 357 162 357 378 357 378 358 379 358 187 358 185 359 187 359 379 359 379 360 380 360 185 360 183 361 185 361 380 361 380 362 381 362 183 362 176 363 183 363 381 363 381 364 382 364 176 364 177 365 176 365 382 365 382 366 383 366 177 366 179 367 177 367 383 367 383 368 384 368 179 368 224 369 179 369 384 369 384 369 385 369 224 369 227 370 224 370 385 370 385 371 386 371 227 371 222 372 227 372 386 372 386 373 387 373 222 373 220 374 222 374 387 374 387 375 388 375 220 375 218 376 220 376 388 376 388 377 389 377 218 377 207 378 218 378 389 378 389 379 390 379 207 379 236 380 207 380 390 380 390 381 391 381 236 381 232 382 236 382 391 382 391 383 392 383 232 383 233 384 232 384 392 384 392 385 393 385 233 385 241 386 233 386 393 386 393 387 394 387 241 387 239 388 241 388 394 388 394 389 395 389 239 389 254 390 239 390 395 390 395 391 396 391 254 391 255 392 254 392 396 392 396 393 397 393 255 393 256 394 255 394 397 394 397 395 398 395 256 395 58 396 256 396 398 396 398 397 399 397 58 397 60 398 58 398 399 398 399 399 400 399 60 399 62 400 60 400 400 400 400 401 401 401 62 401 63 402 62 402 401 402 401 403 402 403 63 403 78 404 63 404 402 404 402 405 403 405 78 405 70 406 78 406 403 406 403 407 404 407 70 407 74 408 70 408 404 408 404 409 405 409 74 409 76 410 74 410 405 410 405 411 406 411 76 411 98 412 76 412 406 412 406 413 407 413 98 413 99 414 98 414 407 414 407 415 408 415 99 415 100 416 99 416 408 416 408 417 409 417 100 417 101 418 100 418 409 418 409 418 410 418 101 418 105 419 101 419 410 419 410 420 411 420 105 420 118 421 105 421 411 421 411 422 412 422 118 422 115 423 118 423 412 423 412 424 413 424 115 424 113 425 115 425 413 425 413 426 414 426 113 426 104 427 113 427 414 427 414 428 415 428 104 428 125 429 104 429 415 429 415 430 416 430 125 430 126 431 125 431 416 431 416 432 417 432 126 432 133 433 126 433 417 433 417 434 418 434 133 434 131 435 133 435 418 435 418 436 419 436 131 436 127 437 131 437 419 437 419 438 420 438 127 438 257 439 127 439 420 439 420 440 421 440 257 440 258 441 257 441 421 441 421 442 372 442 258 442 267 443 266 443 422 443 423 444 424 444 12 444 24 445 26 445 422 445 422 445 425 445 24 445 22 446 24 446 425 446 425 445 20 445 22 445 426 445 427 445 6 445 6 445 8 445 426 445 424 445 426 445 8 445 8 445 10 445 424 445 10 447 12 447 424 447 26 445 28 445 422 445 422 448 28 448 30 448 428 449 422 449 30 449 30 450 1 450 428 450 428 451 1 451 0 451 427 452 428 452 0 452 0 445 4 445 427 445 427 445 4 445 6 445 12 445 14 445 423 445 423 453 14 453 16 453 425 454 423 454 16 454 16 445 18 445 425 445 18 445 20 445 425 445 429 445 423 445 370 445 370 445 369 445 429 445 369 445 368 445 429 445 430 445 429 445 368 445 368 445 367 445 430 445 431 455 430 455 367 455 367 445 366 445 431 445 431 445 366 445 365 445 393 456 392 456 363 456 365 445 364 445 431 445 431 445 364 445 363 445 363 445 432 445 431 445 432 445 363 445 392 445 392 457 391 457 432 457 363 445 362 445 393 445 393 458 362 458 361 458 394 445 393 445 361 445 361 445 360 445 394 445 395 445 394 445 360 445 360 445 359 445 395 445 425 459 395 459 359 459 359 445 358 445 425 445 423 460 425 460 358 460 358 445 371 445 423 445 423 461 371 461 370 461 432 445 433 445 434 445 434 445 435 445 432 445 432 462 435 462 431 462 436 445 348 445 347 445 347 445 346 445 387 445 346 463 345 463 387 463 388 464 387 464 345 464 345 465 344 465 388 465 389 466 388 466 344 466 344 445 357 445 389 445 390 467 389 467 357 467 357 445 356 445 390 445 350 445 349 445 437 445 437 468 438 468 350 468 351 469 350 469 438 469 390 470 432 470 391 470 356 471 432 471 390 471 433 445 432 445 356 445 356 445 355 445 433 445 439 445 433 445 355 445 355 445 354 445 439 445 440 445 439 445 354 445 354 445 353 445 440 445 438 445 440 445 353 445 353 445 352 445 438 445 438 445 352 445 351 445 437 472 349 472 348 472 348 445 436 445 437 445 436 445 441 445 437 445 436 445 442 445 441 445 341 445 340 445 436 445 436 473 340 473 339 473 339 474 338 474 443 474 443 445 444 445 339 445 339 445 444 445 436 445 444 445 445 445 436 445 445 445 442 445 436 445 379 445 446 445 332 445 333 445 332 445 446 445 443 445 338 445 337 445 337 445 336 445 443 445 447 445 443 445 336 445 336 445 335 445 447 445 448 475 447 475 335 475 335 445 334 445 448 445 449 445 448 445 334 445 380 445 379 445 332 445 332 445 331 445 380 445 381 476 380 476 331 476 331 477 330 477 381 477 382 478 381 478 330 478 330 479 343 479 382 479 382 480 343 480 342 480 383 481 382 481 342 481 342 482 341 482 383 482 341 445 384 445 383 445 436 483 384 483 341 483 385 445 384 445 436 445 347 484 385 484 436 484 386 445 385 445 347 445 387 485 386 485 347 485 334 445 333 445 449 445 446 445 449 445 333 445 450 445 449 445 446 445 446 486 451 486 450 486 377 445 376 445 326 445 326 445 325 445 377 445 378 445 377 445 325 445 318 445 317 445 452 445 452 445 317 445 316 445 374 487 452 487 316 487 316 445 329 445 374 445 375 488 374 488 329 488 329 489 328 489 375 489 376 445 375 445 328 445 328 445 327 445 376 445 327 445 326 445 376 445 323 445 322 445 453 445 453 490 454 490 323 490 324 491 323 491 454 491 454 492 451 492 324 492 325 493 324 493 451 493 451 445 446 445 325 445 325 494 446 494 378 494 378 495 446 495 379 495 453 496 322 496 321 496 453 445 321 445 320 445 320 445 455 445 453 445 455 445 320 445 319 445 456 497 455 497 319 497 319 445 318 445 456 445 452 445 456 445 318 445 457 498 456 498 452 498 452 445 458 445 457 445 459 445 458 445 452 445 452 445 460 445 459 445 460 499 461 499 459 499 462 445 463 445 305 445 305 445 304 445 462 445 304 445 303 445 462 445 464 445 462 445 303 445 303 500 302 500 464 500 465 501 464 501 302 501 302 445 315 445 465 445 465 502 315 502 314 502 460 445 420 445 310 445 310 445 309 445 460 445 309 503 308 503 460 503 461 504 460 504 308 504 308 445 307 445 461 445 463 445 461 445 307 445 307 505 306 505 463 505 463 445 306 445 305 445 466 445 467 445 468 445 468 445 465 445 466 445 466 506 465 506 417 506 314 445 417 445 465 445 418 445 417 445 314 445 314 445 313 445 418 445 419 445 418 445 313 445 313 445 312 445 419 445 420 445 419 445 312 445 312 507 311 507 420 507 420 508 311 508 310 508 410 445 409 445 469 445 469 445 299 445 298 445 411 445 410 445 469 445 298 509 411 509 469 509 412 510 411 510 298 510 298 445 297 445 412 445 413 511 412 511 297 511 297 445 296 445 413 445 413 445 296 445 295 445 414 512 413 512 295 512 295 513 294 513 414 513 415 514 414 514 294 514 294 445 293 445 415 445 415 515 293 515 292 515 417 516 416 516 466 516 415 517 466 517 416 517 467 518 466 518 415 518 292 445 467 445 415 445 470 445 467 445 292 445 292 445 291 445 470 445 471 445 470 445 291 445 291 445 290 445 471 445 290 519 289 519 471 519 472 520 471 520 289 520 289 445 288 445 472 445 473 521 472 521 288 521 288 445 301 445 473 445 474 445 473 445 301 445 301 445 300 445 474 445 474 522 300 522 299 522 299 445 469 445 474 445 469 445 475 445 474 445 476 445 475 445 469 445 477 523 478 523 286 523 286 445 285 445 477 445 479 524 477 524 285 524 469 445 409 445 408 445 277 525 469 525 408 525 476 445 469 445 277 445 277 445 276 445 476 445 480 445 476 445 276 445 276 445 275 445 480 445 481 445 480 445 275 445 275 445 274 445 481 445 478 526 481 526 274 526 274 445 287 445 478 445 478 527 287 527 286 527 284 445 283 445 404 445 405 445 404 445 283 445 283 445 282 445 405 445 406 528 405 528 282 528 282 529 281 529 406 529 281 445 280 445 406 445 407 530 406 530 280 530 280 445 279 445 407 445 408 531 407 531 279 531 279 532 278 532 408 532 408 445 278 445 277 445 482 445 479 445 483 445 483 533 484 533 482 533 285 445 284 445 479 445 404 445 479 445 284 445 404 518 483 518 479 518 403 534 483 534 404 534 484 535 483 535 403 535 399 536 422 536 266 536 266 537 265 537 399 537 400 538 399 538 265 538 265 539 264 539 400 539 401 540 400 540 264 540 264 445 263 445 401 445 402 541 401 541 263 541 263 445 262 445 402 445 402 542 262 542 261 542 403 543 402 543 484 543 484 544 402 544 261 544 261 545 485 545 484 545 485 546 261 546 260 546 486 547 485 547 260 547 260 445 273 445 486 445 486 548 273 548 272 548 487 549 486 549 272 549 272 445 271 445 487 445 271 445 270 445 487 445 428 550 487 550 270 550 270 445 269 445 428 445 422 551 428 551 269 551 269 445 268 445 422 445 422 552 268 552 267 552 422 553 399 553 398 553 422 554 398 554 397 554 397 445 425 445 422 445 397 445 396 445 425 445 396 445 395 445 425 445 452 555 374 555 373 555 452 445 373 445 372 445 372 445 460 445 452 445 372 445 421 445 460 445 421 556 420 556 460 556 148 557 488 557 489 557 488 558 148 558 147 558 147 559 490 559 488 559 490 560 147 560 151 560 151 560 491 560 490 560 491 561 151 561 150 561 150 562 492 562 491 562 492 563 150 563 154 563 154 564 493 564 492 564 493 565 154 565 166 565 166 566 494 566 493 566 494 567 166 567 174 567 174 568 495 568 494 568 495 569 174 569 175 569 175 570 496 570 495 570 496 571 175 571 193 571 193 572 497 572 496 572 497 573 193 573 195 573 195 574 498 574 497 574 498 575 195 575 197 575 197 576 499 576 498 576 499 577 197 577 191 577 191 578 500 578 499 578 500 579 191 579 190 579 190 580 501 580 500 580 501 581 190 581 203 581 203 582 502 582 501 582 502 583 203 583 202 583 202 584 503 584 502 584 503 585 202 585 201 585 201 586 504 586 503 586 504 587 201 587 206 587 206 588 505 588 504 588 505 589 206 589 213 589 213 590 506 590 505 590 506 591 213 591 215 591 215 592 507 592 506 592 507 593 215 593 217 593 217 594 508 594 507 594 508 595 217 595 230 595 230 596 509 596 508 596 509 597 230 597 231 597 231 598 510 598 509 598 510 599 231 599 245 599 245 600 511 600 510 600 511 601 245 601 244 601 244 602 512 602 511 602 512 603 244 603 248 603 248 604 513 604 512 604 513 605 248 605 41 605 41 605 514 605 513 605 514 606 41 606 40 606 40 607 515 607 514 607 515 608 40 608 36 608 36 609 516 609 515 609 516 610 36 610 35 610 35 611 517 611 516 611 517 612 35 612 37 612 37 613 518 613 517 613 518 614 37 614 49 614 49 614 519 614 518 614 519 615 49 615 43 615 43 616 520 616 519 616 520 617 43 617 42 617 42 618 521 618 520 618 521 619 42 619 66 619 66 620 522 620 521 620 522 621 66 621 65 621 65 622 523 622 522 622 523 623 65 623 64 623 64 624 524 624 523 624 524 625 64 625 79 625 79 626 525 626 524 626 525 627 79 627 81 627 81 628 526 628 525 628 526 629 81 629 84 629 84 630 527 630 526 630 527 631 84 631 86 631 86 632 528 632 527 632 528 633 86 633 88 633 88 634 529 634 528 634 529 635 88 635 90 635 90 636 530 636 529 636 530 637 90 637 91 637 91 638 531 638 530 638 531 639 91 639 108 639 108 640 532 640 531 640 532 641 108 641 110 641 110 642 533 642 532 642 533 643 110 643 93 643 93 644 534 644 533 644 534 645 93 645 92 645 92 646 535 646 534 646 535 647 92 647 96 647 96 648 536 648 535 648 536 649 96 649 124 649 124 650 537 650 536 650 537 651 124 651 122 651 122 652 538 652 537 652 538 653 122 653 121 653 121 654 539 654 538 654 539 655 121 655 143 655 143 656 540 656 539 656 540 657 143 657 135 657 135 658 541 658 540 658 541 659 135 659 33 659 33 659 542 659 541 659 542 660 33 660 32 660 32 661 543 661 542 661 543 662 32 662 149 662 149 663 489 663 543 663 489 664 149 664 148 664 445 665 501 665 502 665 501 666 445 666 444 666 444 667 500 667 501 667 500 668 444 668 443 668 443 669 499 669 500 669 499 670 443 670 447 670 447 671 498 671 499 671 498 672 447 672 448 672 448 673 497 673 498 673 497 674 448 674 449 674 449 675 496 675 497 675 496 676 449 676 450 676 450 677 495 677 496 677 495 678 450 678 451 678 451 679 494 679 495 679 494 680 451 680 454 680 454 681 493 681 494 681 493 682 454 682 453 682 453 683 492 683 493 683 492 684 453 684 455 684 455 685 491 685 492 685 491 686 455 686 456 686 456 687 490 687 491 687 490 688 456 688 457 688 457 689 488 689 490 689 488 690 457 690 458 690 458 691 489 691 488 691 489 692 458 692 459 692 459 693 543 693 489 693 543 694 459 694 461 694 461 695 542 695 543 695 542 696 461 696 463 696 463 697 541 697 542 697 541 698 463 698 462 698 462 699 540 699 541 699 540 700 462 700 464 700 464 701 539 701 540 701 539 702 464 702 465 702 465 703 538 703 539 703 538 704 465 704 468 704 468 705 537 705 538 705 537 706 468 706 467 706 467 707 536 707 537 707 536 708 467 708 470 708 470 709 535 709 536 709 535 710 470 710 471 710 471 711 534 711 535 711 534 712 471 712 472 712 472 713 533 713 534 713 533 714 472 714 473 714 473 715 532 715 533 715 532 716 473 716 474 716 474 717 531 717 532 717 531 718 474 718 475 718 475 719 530 719 531 719 530 720 475 720 476 720 476 721 529 721 530 721 529 722 476 722 480 722 480 723 528 723 529 723 528 724 480 724 481 724 481 725 527 725 528 725 527 726 481 726 478 726 478 727 526 727 527 727 526 728 478 728 477 728 477 729 525 729 526 729 525 730 477 730 479 730 479 731 524 731 525 731 524 732 479 732 482 732 482 733 523 733 524 733 523 734 482 734 484 734 484 735 522 735 523 735 522 736 484 736 485 736 485 737 521 737 522 737 521 738 485 738 486 738 486 739 520 739 521 739 520 740 486 740 487 740 487 741 519 741 520 741 519 742 487 742 428 742 428 743 518 743 519 743 518 744 428 744 427 744 427 745 517 745 518 745 517 746 427 746 426 746 426 747 516 747 517 747 516 748 426 748 424 748 424 749 515 749 516 749 515 750 424 750 423 750 423 751 514 751 515 751 514 752 423 752 429 752 429 753 513 753 514 753 513 754 429 754 430 754 430 755 512 755 513 755 512 756 430 756 431 756 431 757 511 757 512 757 511 758 431 758 435 758 435 759 510 759 511 759 510 760 435 760 434 760 434 761 509 761 510 761 509 762 434 762 433 762 433 763 508 763 509 763 508 764 433 764 439 764 439 765 507 765 508 765 507 766 439 766 440 766 440 767 506 767 507 767 506 768 440 768 438 768 438 769 505 769 506 769 505 770 438 770 437 770 437 771 504 771 505 771 504 772 437 772 441 772 441 773 503 773 504 773 503 774 441 774 442 774 442 775 502 775 503 775 502 776 442 776 445 776</p>
        </triangles>
      </mesh>
    </geometry>
  </library_geometries>
  <library_visual_scenes>
    <visual_scene id="Scene" name="Scene">
      <node id="Gp12_Link_6_T" name="Gp12_Link_6_T" type="NODE">
        <matrix sid="transform">1 0 0 0 0 1 0 0 0 0 1 0 0 0 0 1</matrix>
        <instance_geometry url="#Gp12_Link_6_T-mesh" name="Gp12_Link_6_T">
          <bind_material>
            <technique_common>
              <instance_material symbol="Material_008-material" target="#Material_008-material"/>
            </technique_common>
          </bind_material>
        </instance_geometry>
      </node>
    </visual_scene>
  </library_visual_scenes>
  <scene>
    <instance_visual_scene url="#Scene"/>
  </scene>
</COLLADA>