<?xml version="1.0" encoding="utf-8"?>
<COLLADA xmlns="http://www.collada.org/2005/11/COLLADASchema" version="1.4.1" xmlns:xsi="http://www.w3.org/2001/XMLSchema-instance">
  <asset>
    <contributor>
      <author>Blender User</author>
      <authoring_tool>Blender 2.82.7</authoring_tool>
    </contributor>
    <created>2023-09-27T15:15:47</created>
    <modified>2023-09-27T15:15:47</modified>
    <unit name="meter" meter="1"/>
    <up_axis>Z_UP</up_axis>
  </asset>
  <library_cameras>
    <camera id="Camera-camera" name="Camera.009">
      <optics>
        <technique_common>
          <perspective>
            <xfov sid="xfov">49.13434</xfov>
            <aspect_ratio>1.777778</aspect_ratio>
            <znear sid="znear">0.1</znear>
            <zfar sid="zfar">100</zfar>
          </perspective>
        </technique_common>
      </optics>
      <extra>
        <technique profile="blender">
          <shiftx sid="shiftx" type="float">0</shiftx>
          <shifty sid="shifty" type="float">0</shifty>
          <dof_distance sid="dof_distance" type="float">10</dof_distance>
        </technique>
      </extra>
    </camera>
  </library_cameras>
  <library_lights>
    <light id="Lamp-light" name="Lamp.008">
      <technique_common>
        <point>
          <color sid="color">1 1 1</color>
          <constant_attenuation>1</constant_attenuation>
          <linear_attenuation>0</linear_attenuation>
          <quadratic_attenuation>0.00111109</quadratic_attenuation>
        </point>
      </technique_common>
      <extra>
        <technique profile="blender">
          <type sid="type" type="int">0</type>
          <flag sid="flag" type="int">0</flag>
          <mode sid="mode" type="int">8192</mode>
          <gamma sid="blender_gamma" type="float">1</gamma>
          <red sid="red" type="float">1</red>
          <green sid="green" type="float">1</green>
          <blue sid="blue" type="float">1</blue>
          <shadow_r sid="blender_shadow_r" type="float">0</shadow_r>
          <shadow_g sid="blender_shadow_g" type="float">0</shadow_g>
          <shadow_b sid="blender_shadow_b" type="float">0</shadow_b>
          <energy sid="blender_energy" type="float">1</energy>
          <dist sid="blender_dist" type="float">29.99998</dist>
          <spotsize sid="spotsize" type="float">75</spotsize>
          <spotblend sid="spotblend" type="float">0.15</spotblend>
          <att1 sid="att1" type="float">0</att1>
          <att2 sid="att2" type="float">1</att2>
          <falloff_type sid="falloff_type" type="int">2</falloff_type>
          <clipsta sid="clipsta" type="float">1.000799</clipsta>
          <clipend sid="clipend" type="float">30.002</clipend>
          <bias sid="bias" type="float">1</bias>
          <soft sid="soft" type="float">3</soft>
          <bufsize sid="bufsize" type="int">2880</bufsize>
          <samp sid="samp" type="int">3</samp>
          <buffers sid="buffers" type="int">1</buffers>
          <area_shape sid="area_shape" type="int">1</area_shape>
          <area_size sid="area_size" type="float">0.1</area_size>
          <area_sizey sid="area_sizey" type="float">0.1</area_sizey>
          <area_sizez sid="area_sizez" type="float">1</area_sizez>
        </technique>
      </extra>
    </light>
  </library_lights>
  <library_effects>
    <effect id="link_01_part_000_mtl_001_008-effect">
      <profile_COMMON>
        <technique sid="common">
          <lambert>
            <emission>
              <color sid="emission">0 0 0 1</color>
            </emission>
            <diffuse>
              <color sid="diffuse">0.15 0.15 0.15 1</color>
            </diffuse>
            <index_of_refraction>
              <float sid="ior">1</float>
            </index_of_refraction>
          </lambert>
        </technique>
      </profile_COMMON>
    </effect>
  </library_effects>
  <library_images/>
  <library_materials>
    <material id="link_01_part_000_mtl_001_008-material" name="link_01_part_000_mtl_001.008">
      <instance_effect url="#link_01_part_000_mtl_001_008-effect"/>
    </material>
  </library_materials>
  <library_geometries>
    <geometry id="Link6_001-mesh" name="Link6.001">
      <mesh>
        <source id="Link6_001-mesh-positions">
          <float_array id="Link6_001-mesh-positions-array" count="2547">0.06220912 -0.05029952 0 0.06220912 -0.05029952 -0.01049995 0.06293851 -0.0493083 0 0.0665304 -0.04442667 -0.01049995 0.06615394 -0.0449382 0 0.0665304 -0.04442667 0 0.07029896 -0.03818488 -0.01049995 0.07029896 -0.03818488 0 -0.04899042 -0.06324481 1.23492e-7 -0.04493778 -0.06609827 1.23138e-7 -0.04493778 -0.0625633 1.23138e-7 0.05737113 0.05575448 0 0.0536884 0.05921357 0 0.0536884 0.03774988 0 0.0463097 0.06523358 0 0.0449385 0.06611591 0 0.0449385 0.03774988 0 0.03695535 -0.01530724 0 0.03658515 -0.01599997 0 0.0449385 -0.01599997 0 -0.03695482 0.01530724 1.2244e-7 -0.03658455 0.01599997 1.22407e-7 -0.04493778 0.01599997 1.23138e-7 0.004250228 -0.0625 0 0.004237592 -0.0625633 0 0.01562511 -0.0625633 0 -0.004237115 -0.0625633 1.19579e-7 -0.01562476 -0.0625633 1.20575e-7 -0.003926277 -0.06412637 1.19552e-7 -0.01562476 -0.07843655 1.20575e-7 0.003926694 -0.06412637 0 0.01562511 -0.07837885 0 0.003005445 -0.0655052 0 0.0128625 -0.07895922 0 0.00162667 -0.06642645 0 0.005620121 -0.07980233 0 -0.001668751 -0.07998257 1.19355e-7 2.00866e-7 -0.06674998 0 -0.008944034 -0.07949841 1.19991e-7 -0.001626074 -0.06642645 1.19351e-7 -0.003004848 -0.0655052 1.19472e-7 -0.004249632 -0.0625 1.19581e-7 -0.003926277 -0.0608735 1.19552e-7 -0.01562476 -0.0449382 1.20575e-7 -0.003004848 -0.05949479 1.19472e-7 -0.001626074 -0.05857348 1.19351e-7 2.00866e-7 -0.05824995 0 0.01562511 -0.0449382 0 0.00162667 -0.05857348 0 0.003005445 -0.05949479 0 0.003926694 -0.0608735 0 0.0536884 -0.0449382 0 0.0536884 -0.03541272 0 0.0449385 -0.0449382 0 0.05250036 -0.03517639 0 0.05112153 -0.03425514 0 0.05020028 -0.03287637 0 0.04987668 -0.03125 0 0.05020028 -0.0296235 0 0.05112153 -0.02824479 0 0.05713188 -0.02824479 0 0.05805331 -0.0296235 0 0.06293851 -0.01599997 0 0.05837678 -0.03125 0 0.06293851 -0.0449382 0 0.05805331 -0.03287637 0 0.05713188 -0.03425514 0 0.05575317 -0.03517639 0 0.05412673 -0.03549993 0 0.05250036 -0.02732348 0 0.0536884 -0.02708715 0 0.0536884 -0.01599997 0 0.05412673 -0.02699995 0 0.05575317 -0.02732348 0 0.0644136 -0.0046193 0 0.06293851 -0.004912734 0 0.06250017 -0.004999995 0 0.06058675 -0.0046193 0 0.05896461 -0.003535509 0 0.05788075 -0.001913309 0 0.05750018 0 0 0.0536884 0.01599997 0 0.05788075 0.001913309 0 0.05896461 0.003535509 0 0.06058675 0.0046193 0 0.06293851 0.01599997 0 0.06250017 0.004999995 0 0.06293851 0.004912734 0 0.07800024 0.01599997 0 0.0644136 0.0046193 0 0.06603568 0.003535509 0 0.06711965 0.001913309 0 0.06750017 0 0 0.07800024 -0.01599997 0 0.06711965 -0.001913309 0 0.06603568 -0.003535509 0 0.0536884 0.02708715 0 0.05250036 0.02732348 0 0.0449385 0.01599997 0 0.05250036 0.03517639 0 0.05112153 0.03425514 0 0.05020028 0.03287637 0 0.05112153 0.02824479 0 0.05020028 0.0296235 0 0.04987668 0.03125 0 0.0536884 0.03541272 0 0.05412673 0.03549993 0 0.06293851 0.03774988 0 0.05575317 0.03517639 0 0.05713188 0.03425514 0 0.05805331 0.0296235 0 0.05837678 0.03125 0 0.05805331 0.03287637 0 0.05412673 0.02699995 0 0.05575317 0.02732348 0 0.05713188 0.02824479 0 -0.0126869 0.03774988 1.20318e-7 -0.01562476 0.03774988 1.20575e-7 -0.015307 0.03695511 1.20547e-7 -0.01562476 0.03678536 1.20575e-7 -0.02222245 0.03325867 1.21152e-7 -0.04493778 0.03774988 1.23138e-7 -0.02828395 0.02828425 1.21682e-7 -0.03325837 0.02222269 1.22117e-7 -0.03695482 -0.01530724 1.2244e-7 -0.03923106 -0.007803559 1.22639e-7 -0.04493778 -0.01599997 1.23138e-7 -0.03999972 0 1.22706e-7 -0.03923106 0.007803559 1.22639e-7 -0.02222245 -0.03325867 1.21152e-7 -0.04493778 -0.0449382 1.23138e-7 -0.01562476 -0.03678536 1.20575e-7 -0.015307 -0.03695511 1.20547e-7 -0.02828395 -0.02828425 1.21682e-7 -0.03325837 -0.02222269 1.22117e-7 -0.03658455 -0.01599997 1.22407e-7 0.01562511 -0.0367853 0 0.01530742 -0.03695511 0 0.007803916 -0.0392313 0 2.00866e-7 -0.03999996 0 -0.007803261 -0.0392313 1.19891e-7 0.02222305 -0.03325867 0 0.02828449 -0.02828425 0 0.03325897 -0.02222269 0 0.03695535 0.01530724 0 0.03923153 0.007803559 0 0.0400002 0 0 0.03923153 -0.007803559 0 0.01562511 0.03774988 0 0.01562511 0.0367853 0 0.02222305 0.03325867 0 0.02828449 0.02828425 0 0.03325897 0.02222269 0 0.03658515 0.01599997 0 0.004250228 0.0625 0 0.003926694 0.0608735 0 0.003005445 0.05949479 0 0.0128625 0.07895922 0 0.003005445 0.0655052 0 0.01562511 0.07837885 0 0.003926694 0.06412637 0 -0.007803261 0.0392313 1.19891e-7 2.00866e-7 0.03999996 0 2.00866e-7 0.05824995 0 0.00162667 0.05857348 0 0.007803916 0.0392313 0 0.01268732 0.03774988 0 0.01530742 0.03695511 0 -0.06058621 0.0046193 1.24506e-7 -0.06249976 0.004999995 1.24673e-7 -0.06293797 0.01599997 1.24711e-7 -0.06293797 0.004912734 1.24711e-7 -0.06441307 0.0046193 1.2484e-7 -0.0578804 -0.001913309 1.24269e-7 -0.05896425 -0.003535509 1.24364e-7 -0.06058621 -0.0046193 1.24506e-7 -0.06293797 -0.01599997 1.24711e-7 -0.06249976 -0.004999995 1.24673e-7 -0.06293797 -0.004912734 1.24711e-7 -0.05896425 0.003535509 1.24364e-7 -0.0578804 0.001913309 1.24269e-7 -0.05749958 0 1.24236e-7 -0.06441307 -0.0046193 1.2484e-7 -0.07832694 -0.01599997 1.26057e-7 -0.06603527 -0.003535509 1.24982e-7 -0.07867336 -0.01450681 1.26087e-7 -0.06711912 -0.001913309 1.25077e-7 -0.07966756 -0.007283627 1.26174e-7 -0.07999968 0 1.26203e-7 -0.06749963 0 1.2511e-7 -0.07966756 0.007283627 1.26174e-7 -0.06711912 0.001913309 1.25077e-7 -0.07867336 0.01450681 1.26087e-7 -0.06603527 0.003535509 1.24982e-7 -0.07832694 0.01599997 1.26057e-7 0.02824503 0.05112135 0 0.02732366 0.05250012 0 0.02700018 0.05412656 0 0.03425544 0.05112135 0 0.03287667 0.0502001 0 0.03125011 0.04987657 0 0.0296238 0.0502001 0 0.03425544 0.0571317 0 0.03287667 0.05805301 0 0.04017812 0.06917893 0 0.03125011 0.05837655 0 0.03517669 0.05575299 0 0.03550016 0.05412656 0 0.03517669 0.05250012 0 0.02732366 0.05575299 0 0.02824503 0.0571317 0 0.01999801 0.07746022 0 0.0296238 0.05805301 0 0.02696746 0.0753178 0 0.0337128 0.0725497 0 0.05205667 0.06074637 0 0.07029896 0.03818488 0 0.0665304 0.04442667 0 0.06293851 0.0493083 0 0.06220912 0.05029952 0 0.07800024 0.01777637 0 0.07605773 0.02480411 0 0.07348352 0.0316258 0 0.07051008 0.03774988 0 0.07348352 -0.0316258 0 0.07605773 -0.02480411 0 0.07800024 -0.01777637 0 0.0536884 -0.05921357 0 0.05737113 -0.05575448 0 0.05205667 -0.06074637 0 0.04972976 -0.0625633 0 0.0449385 -0.0625633 0 0.0463097 -0.06523358 0 0.02696746 -0.0753178 0 0.0337128 -0.0725497 0 0.04017812 -0.06917893 0 0.0449385 -0.06611591 0 0.01999801 -0.07746022 0 -0.04302883 -0.06744259 1.22971e-7 -0.03670948 -0.07108008 1.22418e-7 -0.03008556 -0.07412719 1.21839e-7 -0.02321153 -0.07655853 1.21238e-7 -0.01614487 -0.07835388 1.2062e-7 -0.06293797 -0.04927396 1.24711e-7 -0.05964684 -0.05331254 1.24423e-7 -0.05454516 -0.05852168 1.23977e-7 -0.04979205 -0.0625633 1.23562e-7 -0.07702589 -0.02160954 1.25943e-7 -0.0747385 -0.02853274 1.25743e-7 -0.07183027 -0.03521889 1.25489e-7 -0.06832528 -0.0416125 1.25182e-7 -0.06293797 -0.0449382 1.24711e-7 -0.06608581 -0.0449382 1.24986e-7 -0.06425285 -0.04766047 1.24826e-7 -0.07702589 0.02160954 1.25943e-7 -0.0747385 0.02853274 1.25743e-7 -0.06425285 0.04766047 1.24826e-7 -0.06832528 0.0416125 1.25182e-7 -0.06293797 0.03774988 1.24711e-7 -0.07044267 0.03774988 1.25367e-7 -0.07183027 0.03521889 1.25489e-7 -0.04493778 0.06609827 1.23138e-7 -0.04899042 0.06324481 1.23492e-7 -0.05454516 0.05852168 1.23977e-7 -0.05964684 0.05331254 1.24423e-7 -0.06293797 0.04927396 1.24711e-7 -0.001626074 0.05857348 1.19351e-7 -0.003004848 0.05949479 1.19472e-7 -0.01562476 0.05667144 1.20575e-7 -0.02699971 0.05412656 1.21569e-7 -0.02732324 0.05250012 1.21598e-7 -0.02824449 0.05112135 1.21678e-7 -0.02962327 0.0502001 1.21799e-7 -0.03124976 0.04987657 1.21941e-7 -0.03287625 0.0502001 1.22083e-7 -0.03517621 0.05575299 1.22284e-7 -0.04302883 0.06744259 1.22971e-7 -0.03425496 0.0571317 1.22204e-7 -0.03670948 0.07108008 1.22418e-7 -0.03287625 0.05805301 1.22083e-7 -0.03008556 0.07412719 1.21839e-7 -0.03124976 0.05837655 1.21941e-7 -0.02321153 0.07655853 1.21238e-7 -0.02962327 0.05805301 1.21799e-7 -0.02824449 0.0571317 1.21678e-7 -0.03425496 0.05112135 1.22204e-7 -0.03517621 0.05250012 1.22284e-7 -0.03549981 0.05412656 1.22312e-7 -0.05805271 0.03287637 1.24284e-7 -0.05713146 0.03425514 1.24204e-7 -0.05575275 0.03517639 1.24083e-7 -0.05412626 0.03549993 1.23941e-7 -0.05249994 0.03517639 1.23799e-7 -0.05112123 0.03425514 1.23678e-7 -0.05019968 0.03287637 1.23598e-7 -0.04987621 0.03125 1.23569e-7 -0.05019968 0.0296235 1.23598e-7 -0.05112123 0.02824479 1.23678e-7 -0.05249994 0.02732348 1.23799e-7 -0.05412626 0.02699995 1.23941e-7 -0.05575275 0.02732348 1.24083e-7 -0.05713146 0.02824479 1.24204e-7 -0.05805271 0.0296235 1.24284e-7 -0.05837631 0.03125 1.24312e-7 -0.05112123 -0.03425514 1.23678e-7 -0.05249994 -0.03517639 1.23799e-7 -0.05412626 -0.03549993 1.23941e-7 -0.05575275 -0.03517639 1.24083e-7 -0.05713146 -0.03425514 1.24204e-7 -0.05713146 -0.02824479 1.24204e-7 -0.05575275 -0.02732348 1.24083e-7 -0.05412626 -0.02699995 1.23941e-7 -0.05249994 -0.02732348 1.23799e-7 -0.05112123 -0.02824479 1.23678e-7 -0.05019968 -0.0296235 1.23598e-7 -0.04987621 -0.03125 1.23569e-7 -0.05019968 -0.03287637 1.23598e-7 -0.05805271 -0.03287637 1.24284e-7 -0.05837631 -0.03125 1.24312e-7 -0.05805271 -0.0296235 1.24284e-7 0.03425544 -0.05112135 0 0.03517669 -0.05250012 0 0.03517669 -0.05575299 0 0.03425544 -0.0571317 0 0.02824503 -0.0571317 0 0.02732366 -0.05575299 0 0.02700018 -0.05412656 0 0.02732366 -0.05250012 0 0.02824503 -0.05112135 0 0.03550016 -0.05412656 0 0.0296238 -0.0502001 0 0.03125011 -0.04987657 0 0.03287667 -0.0502001 0 0.03287667 -0.05805301 0 0.03125011 -0.05837655 0 0.0296238 -0.05805301 0 -0.02732324 -0.05575299 1.21598e-7 -0.02824449 -0.0571317 1.21678e-7 -0.02962327 -0.05805301 1.21799e-7 -0.03124976 -0.05837655 1.21941e-7 -0.03287625 -0.05805301 1.22083e-7 -0.03425496 -0.0571317 1.22204e-7 -0.03517621 -0.05575299 1.22284e-7 -0.03549981 -0.05412656 1.22312e-7 -0.03517621 -0.05250012 1.22284e-7 -0.03425496 -0.05112135 1.22204e-7 -0.02962327 -0.0502001 1.21799e-7 -0.03124976 -0.04987657 1.21941e-7 -0.03287625 -0.0502001 1.22083e-7 -0.02824449 -0.05112135 1.21678e-7 -0.02732324 -0.05250012 1.21598e-7 -0.02699971 -0.05412656 1.21569e-7 0.02061039 0.06794273 -0.01049995 0.01385158 0.06963574 -0.01049995 0.0128625 0.07895922 -0.01049995 -0.05903404 0.0394454 -0.01049989 -0.06425285 0.04766047 -0.01049989 -0.05488348 0.04504185 -0.01049989 -0.05964684 0.05331254 -0.01049989 -0.05020421 0.05020457 -0.01049989 -0.05454516 0.05852168 -0.01049989 -0.04504156 0.05488365 -0.01049989 -0.04899042 0.06324481 -0.01049989 -0.03944516 0.05903428 -0.01049989 -0.04302883 0.06744259 -0.01049989 -0.03346896 0.0626164 -0.01049989 -0.03670948 0.07108008 -0.01049989 -0.0271703 0.06559544 -0.01049989 -0.03008556 0.07412719 -0.01049989 -0.02060997 0.06794273 -0.01049989 -0.02321153 0.07655853 -0.01049989 -0.01385116 0.06963574 -0.01049989 -0.01614487 0.07835388 -0.01049989 -0.05488348 -0.04504185 -0.01049989 -0.06425285 -0.04766047 -0.01049989 -0.05903404 -0.0394454 -0.01049989 -0.06832528 -0.0416125 -0.01049989 -0.0626161 -0.03346914 -0.01049989 -0.07183027 -0.03521889 -0.01049989 -0.06559514 -0.02717041 -0.01049989 -0.0747385 -0.02853274 -0.01049989 -0.06794238 -0.02061021 -0.01049989 -0.07702589 -0.02160954 -0.01049989 -0.06963539 -0.0138514 -0.01049989 -0.07867336 -0.01450681 -0.01049989 -0.07065773 -0.00695914 -0.01049989 -0.07966756 -0.007283627 -0.01049989 -0.07099962 0 -0.01049989 -0.07999968 0 -0.01049989 -0.07065773 0.00695914 -0.01049989 -0.07966756 0.007283627 -0.01049989 -0.06963539 0.0138514 -0.01049989 -0.07867336 0.01450681 -0.01049989 -0.06794238 0.02061021 -0.01049989 -0.07702589 0.02160954 -0.01049989 -0.06559514 0.02717041 -0.01049989 -0.0747385 0.02853274 -0.01049989 -0.0626161 0.03346914 -0.01049989 -0.07183027 0.03521889 -0.01049989 -0.06832528 0.0416125 -0.01049989 0.07100015 0 -0.01049995 0.07800024 0.01777637 -0.01049995 0.07065826 -0.00695914 -0.01049995 0.07800024 -0.01777637 -0.01049995 0.06963592 -0.0138514 -0.01049995 0.06794291 -0.02061021 -0.01049995 0.07605773 -0.02480411 -0.01049995 0.06559568 -0.02717041 -0.01049995 0.07348352 -0.0316258 -0.01049995 0.06261664 -0.03346914 -0.01049995 0.05903446 -0.0394454 -0.01049995 0.05488383 -0.04504185 -0.01049995 0.05020481 -0.05020457 -0.01049995 0.05737113 -0.05575448 -0.01049995 0.04504203 -0.05488365 -0.01049995 0.05205667 -0.06074637 -0.01049995 0.03944563 -0.05903428 -0.01049995 0.0463097 -0.06523358 -0.01049995 0.03346931 -0.0626164 -0.01049995 0.04017812 -0.06917893 -0.01049995 0.02717065 -0.06559544 -0.01049995 0.01999801 0.07746022 -0.01049995 0.02696746 0.0753178 -0.01049995 0.02717065 0.06559544 -0.01049995 0.0337128 0.0725497 -0.01049995 0.03346931 0.0626164 -0.01049995 0.04017812 0.06917893 -0.01049995 0.03944563 0.05903428 -0.01049995 0.0463097 0.06523358 -0.01049995 0.04504203 0.05488365 -0.01049995 0.05205667 0.06074637 -0.01049995 0.05020481 0.05020457 -0.01049995 0.05737113 0.05575448 -0.01049995 0.05488383 0.04504185 -0.01049995 0.06220912 0.05029952 -0.01049995 0.05903446 0.0394454 -0.01049995 0.0665304 0.04442667 -0.01049995 0.06261664 0.03346914 -0.01049995 0.07029896 0.03818488 -0.01049995 0.06559568 0.02717041 -0.01049995 0.07348352 0.0316258 -0.01049995 0.06794291 0.02061021 -0.01049995 0.07605773 0.02480411 -0.01049995 0.06963592 0.0138514 -0.01049995 0.07065826 0.00695914 -0.01049995 0.0337128 -0.0725497 -0.01049995 0.02696746 -0.0753178 -0.01049995 0.02061039 -0.06794273 -0.01049995 0.01999801 -0.07746022 -0.01049995 0.01385158 -0.06963574 -0.01049995 0.0128625 -0.07895922 -0.01049995 0.006959319 -0.07065808 -0.01049995 0.005620121 -0.07980233 -0.01049995 1.98538e-7 -0.07099997 -0.01049995 -0.00166881 -0.07998257 -0.01049995 -0.006958961 -0.07065808 -0.01049989 -0.008944034 -0.07949841 -0.01049989 -0.01385116 -0.06963574 -0.01049989 -0.01614487 -0.07835388 -0.01049989 -0.02060997 -0.06794273 -0.01049989 -0.02321153 -0.07655853 -0.01049989 -0.0271703 -0.06559544 -0.01049989 -0.03008556 -0.07412719 -0.01049989 -0.03346896 -0.0626164 -0.01049989 -0.03670948 -0.07108008 -0.01049989 -0.03944516 -0.05903428 -0.01049989 -0.04302883 -0.06744259 -0.01049989 -0.04504156 -0.05488365 -0.01049989 -0.04899042 -0.06324481 -0.01049989 -0.05020421 -0.05020457 -0.01049989 -0.05454516 -0.05852168 -0.01049989 -0.05964684 -0.05331254 -0.01049989 0.05575317 -0.03517639 -0.02094614 0.05412673 -0.03549993 -0.02094614 0.05713188 -0.03425514 -0.02094614 0.06261664 -0.03346914 -0.02399992 0.05903446 -0.0394454 -0.02399992 0.05488383 -0.04504185 -0.02399992 0.05805331 -0.03287637 -0.02094614 0.05250036 -0.03517639 -0.02094614 0.05020475 -0.05020457 -0.02399992 0.05250036 -0.02732348 -0.02094614 0.05112153 -0.02824479 -0.02094614 0.05837678 -0.03125 -0.02094614 0.05020028 -0.03287637 -0.02094614 0.05112153 -0.03425514 -0.02094614 0.04987668 -0.03125 -0.02094614 0.05020028 -0.0296235 -0.02094614 0.05412673 -0.02699995 -0.02094614 0.05575317 -0.02732348 -0.02094614 0.05713188 -0.02824479 -0.02094614 0.05805331 -0.0296235 -0.02094614 0.06559568 -0.02717041 -0.02399992 0.04504203 -0.05488365 -0.02399992 0.03517669 -0.05250012 -0.02094614 0.03550016 -0.05412656 -0.02094614 0.06794291 -0.02061021 -0.02399992 0.02061039 0.06794273 -0.02399986 0.02615594 0.06600624 -0.02399986 0.07083147 -0.0048877 -0.02399992 1.95544e-7 0.07099997 -0.02399986 0.00603044 0.0707333 -0.02399986 0.006958842 0.0706532 -0.02399986 -0.05488348 -0.04504185 -0.02399986 -0.05419397 -0.04586923 -0.02399986 0.07065826 -0.00695914 -0.02399992 0.05617856 -0.04341584 -0.02399992 0.009024858 -0.07042378 -0.02399986 0.006959319 -0.07065808 -0.02399986 -0.0694158 -0.01491236 -0.02399986 -0.07041096 -0.009121537 -0.02399986 0.05958592 -0.03860199 -0.02399992 0.01483798 -0.06942927 -0.02399986 -0.04784274 -0.05245679 -0.02399986 -0.004776835 -0.07083642 -0.02399986 -0.006958961 -0.07065808 -0.02399986 0.001116871 -0.07098931 -0.02399986 -0.05020427 -0.05020457 -0.02399986 -0.05840897 -0.04036319 -0.02399986 -0.06155228 -0.03538352 -0.02399986 -0.0626161 -0.03346914 -0.02399986 0.05903446 0.0394454 -0.02399992 0.06209284 0.03443068 -0.02399992 0.06261664 0.03346914 -0.02399992 0.06917864 0.01597869 -0.02399992 0.06963592 0.0138514 -0.02399992 0.06984335 -0.01275408 -0.02399992 0.06854349 -0.01850473 -0.02399992 -0.07065773 -0.00695914 -0.02399986 -0.07099962 0 -0.02399986 -0.07073283 0.006030499 -0.02399986 0.01280111 0.06983202 -0.02399986 0.01851999 0.06854176 -0.02399986 0.05098664 -0.04940742 -0.02399992 0.04671084 -0.05346691 -0.02399992 -0.03346896 -0.0626164 -0.02399986 -0.0385456 -0.0596255 -0.02399986 -0.04333829 -0.05623733 -0.02399986 -0.07065272 0.006958723 -0.02399986 -0.0698316 0.01280117 -0.02399986 -0.06854128 0.01852035 -0.02399986 -0.06794238 0.02061021 -0.02399986 -0.06600594 0.02615606 -0.02399986 -0.06559514 0.02717041 -0.02399986 -0.05623883 0.04333758 -0.02399986 -0.05488348 0.04504185 -0.02399986 -0.0091753 0.0703963 -0.02399986 -0.01495206 0.06940531 -0.02399986 -0.02060997 0.06794273 -0.02399986 -0.006958484 0.0706532 -0.02399986 -9.77082e-4 0.07098972 -0.02399986 0.06559568 0.02717041 -0.02399992 0.06762057 0.02164435 -0.02399992 0.07065826 0.00695914 -0.02399992 0.07099014 0.001007676 -0.02399992 0.04034173 -0.05842548 -0.02399992 0.03537249 -0.06156098 -0.02399992 0.03346931 -0.0626164 -0.02399992 -0.06559514 -0.02717041 -0.02399986 -0.06794238 -0.02061021 -0.02399986 -0.05020427 0.05020457 -0.02399986 -0.04586863 0.05419439 -0.02399986 -0.04504156 0.05488365 -0.02399986 -0.04036259 0.05840939 -0.02399986 -0.0353825 0.06155306 -0.02399986 -0.03346896 0.0626164 -0.02399986 0.03346931 0.0626164 -0.02399992 0.03854024 0.05962932 -0.02399992 0.05783843 0.04117888 -0.02399992 0.04333865 0.05623817 -0.02399992 0.04504203 0.05488365 -0.02399992 0.05422443 0.0458306 -0.02399992 0.05020475 0.05020457 -0.02399992 -0.0626161 0.03346914 -0.02399986 -0.05962944 0.03853946 -0.02399986 -0.0271703 0.06559544 -0.02399986 -0.02163171 0.06762433 -0.02399986 0.02717065 0.06559544 -0.02399986 0.02717065 -0.06559544 -0.02399986 0.02061039 -0.06794273 -0.02399986 -0.01385116 -0.06963574 -0.02399986 -0.02060997 -0.06794273 -0.02399986 -0.0271703 -0.06559544 -0.02399986 0.03425544 -0.05112135 -0.02094614 0.03517669 -0.05575299 -0.02094614 0.03944563 -0.05903428 -0.02399992 0.03125011 -0.04987657 -0.02094614 0.02962374 -0.0502001 -0.02094614 0.02824503 -0.05112135 -0.02094614 0.03287667 -0.0502001 -0.02094614 0.02732366 -0.05575299 -0.02094614 0.02824503 -0.0571317 -0.02094614 0.02700018 -0.05412656 -0.02094614 0.02732366 -0.05250012 -0.02094614 0.03287667 -0.05805301 -0.02094614 0.03425544 -0.0571317 -0.02094614 0.03125011 -0.05837655 -0.02094614 0.02962374 -0.05805301 -0.02094614 0.06963592 -0.0138514 -0.02399992 0.07100015 0 -0.02399992 0.0644136 -0.0046193 -0.009999871 0.06250017 -0.004999995 -0.009999871 0.06058675 -0.0046193 -0.009999871 0.06794291 0.02061021 -0.02399992 0.06603568 -0.003535509 -0.009999871 0.06711965 0.001913309 -0.009999871 0.06750017 0 -0.009999871 0.06711965 -0.001913309 -0.009999871 0.02828449 -0.02828425 -0.008999943 0.02222305 -0.03325867 -0.008999943 0.03325897 -0.02222269 -0.008999943 0.05896461 -0.003535509 -0.009999871 0.03923153 -0.007803559 -0.008999943 0.03695535 -0.01530724 -0.008999943 -0.068542 0.01851803 -0.02399986 -0.06983852 0.01278716 -0.02399986 0.05896461 0.003535509 -0.009999871 0.05788075 0.001913309 -0.009999871 0.05750018 0 -0.009999871 0.06250017 0.004999995 -0.009999871 0.06058675 0.0046193 -0.009999871 0.05788075 -0.001913309 -0.009999871 0.06603568 0.003535509 -0.009999871 0.0644136 0.0046193 -0.009999871 0.01530742 -0.03695511 -0.008999943 -0.03944516 0.05903428 -0.02399986 -0.0590341 0.0394454 -0.02399986 0.05805331 0.0296235 -0.02094614 0.05713188 0.02824479 -0.02094614 0.0400002 0 -0.008999943 0.03975009 0.004455566 -0.008999943 -0.0130465 0.0378105 -0.008999884 -0.02222245 0.03325867 -0.008999884 -0.02828395 0.02828425 -0.008999884 -0.0312578 0.02495658 -0.008999884 -0.03381848 0.02136063 -0.008999884 -0.03811669 -0.01212453 -0.008999884 -0.0365495 -0.01625102 -0.008999884 -0.03453898 -0.02017158 -0.008999884 -0.03325837 -0.02222269 -0.008999884 -0.03057497 -0.0257886 -0.008999884 -0.02222245 -0.03325867 -0.008999884 -0.01837885 -0.03552621 -0.008999884 0.03901809 0.008808732 -0.008999943 0.03781086 0.01304638 -0.008999943 0.03695535 0.01530724 -0.008999943 0.01751136 0.03596121 -0.008999943 0.02136147 0.03381842 -0.008999943 0.02495718 0.03125792 -0.008999943 -0.015307 0.03695511 -0.008999884 -0.02754783 -0.02900147 -0.008999884 -0.02418959 -0.03185433 -0.008999884 -0.01435261 -0.03733605 -0.008999884 -0.01015836 -0.03868657 -0.008999884 -0.00780332 -0.0392313 -0.008999884 0.007803916 0.0392313 -0.008999943 1.9887e-7 0.03999996 -0.008999943 0.01530742 0.03695511 -0.008999943 -0.004455447 0.03974992 -0.008999943 -0.008808612 0.03901773 -0.008999884 -0.03596132 0.01751017 -0.008999884 -0.03695482 0.01530724 -0.008999884 -0.03923106 0.007803559 -0.008999884 1.9887e-7 -0.03999996 -0.008999943 0.007803916 -0.0392313 -0.008999943 0.03325897 0.02222269 -0.008999943 0.02828449 0.02828425 -0.008999943 -0.03999972 0 -0.008999884 -0.03923106 -0.007803559 -0.008999884 1.95544e-7 -0.07099997 -0.02399986 0.01385158 -0.06963574 -0.02399986 -0.06963539 0.0138514 -0.02399986 0.05575317 0.02732348 -0.02094614 0.03944563 0.05903428 -0.02399992 1.98538e-7 0.07099997 -0.01049995 -0.006958961 0.07065808 -0.01049989 0.05837678 0.03125 -0.02094614 0.05412673 0.02699995 -0.02094614 0.05713188 0.03425514 -0.02094614 0.05805331 0.03287637 -0.02094614 0.05412673 0.03549993 -0.02094614 0.05250036 0.03517639 -0.02094614 0.05575317 0.03517639 -0.02094614 0.05112153 0.02824479 -0.02094614 0.05250036 0.02732348 -0.02094614 0.05020028 0.0296235 -0.02094614 0.04987668 0.03125 -0.02094614 0.05020028 0.03287637 -0.02094614 0.05112153 0.03425514 -0.02094614 0.03923153 0.007803559 -0.008999943 0.006959319 0.07065808 -0.01049995 0.01385158 0.06963574 -0.02399986 0.05488383 0.04504185 -0.02399992 -0.01385116 0.06963574 -0.02399986 0.003926634 -0.0608735 -0.02094614 0.004250168 -0.0625 -0.02094614 0.003926634 -0.06412637 -0.02094614 -0.0590341 -0.0394454 -0.02399986 0.005620121 0.07980233 -0.01049995 -0.00166881 0.07998257 -0.01049995 -0.008944034 0.07949841 -0.01049989 -0.015307 -0.03695511 -0.008999884 0.02222305 0.03325867 -0.008999943 0.003005385 -0.0655052 -0.02094614 -0.03944516 -0.05903428 -0.02399986 1.96221e-7 -0.05824995 -0.02094614 -0.001626133 -0.05857348 -0.02094614 -0.003004908 -0.05949479 -0.02094614 0.003005385 -0.05949479 -0.02094614 0.00162661 -0.05857348 -0.02094614 -0.003926277 -0.06412637 -0.02094614 -0.003004908 -0.0655052 -0.02094614 -0.004249691 -0.0625 -0.02094614 -0.003926277 -0.0608735 -0.02094614 0.00162661 -0.06642645 -0.02094614 1.96221e-7 -0.06674998 -0.02094614 -0.001626133 -0.06642645 -0.02094614 -0.06963539 -0.0138514 -0.02399986 -0.008944034 0.07949841 1.19991e-7 -0.001668751 0.07998257 1.19355e-7 -0.01614487 0.07835388 1.2062e-7 -0.05805271 0.03287637 -0.02094608 -0.05713146 0.03425514 -0.02094608 -0.05837631 0.03125 -0.02094608 -0.05805271 0.0296235 -0.02094608 -0.05713146 0.02824479 -0.02094608 -0.06441307 0.0046193 -0.009999811 -0.06249976 0.004999995 -0.009999811 -0.06603527 0.003535509 -0.009999811 -0.03325837 0.02222269 -0.008999884 0.005620121 0.07980233 0 -0.04504156 -0.05488365 -0.02399986 1.98538e-7 0.07999998 -0.01049995 2.00866e-7 0.07999998 0 -0.03124976 0.05837655 -0.02094608 -0.02962327 0.05805301 -0.02094608 -0.03287625 0.05805301 -0.02094608 -0.03425496 0.0571317 -0.02094608 -0.03517621 0.05575299 -0.02094608 -0.03549981 0.05412656 -0.02094608 -0.03517621 0.05250012 -0.02094608 -0.05575275 0.03517639 -0.02094608 -0.05575275 0.02732348 -0.02094608 0.03287667 0.0502001 -0.02094614 0.03125011 0.04987657 -0.02094614 0.02962374 0.0502001 -0.02094614 0.03287667 0.05805301 -0.02094614 0.03425544 0.0571317 -0.02094614 0.03125011 0.05837655 -0.02094614 0.02962374 0.05805301 -0.02094614 0.02824503 0.0571317 -0.02094614 0.03517669 0.05575299 -0.02094614 -0.003926277 0.0608735 1.19552e-7 -0.02732324 0.05575299 1.21598e-7 0.00162667 0.06642645 0 2.00866e-7 0.06674998 0 -0.001626074 0.06642645 1.19351e-7 -0.004249632 0.0625 1.19581e-7 -0.003926277 0.06412637 1.19552e-7 -0.003004848 0.0655052 1.19472e-7 -0.02824449 0.0571317 -0.02094608 -0.05412626 0.03549993 -0.02094608 -0.05249994 0.03517639 -0.02094608 -0.05412626 0.02699995 -0.02094608 -0.05249994 0.02732348 -0.02094608 -0.05112123 0.03425514 -0.02094608 -0.04987621 0.03125 -0.02094608 -0.05019968 0.03287637 -0.02094608 -0.05019968 0.0296235 -0.02094608 -0.05112123 0.02824479 -0.02094608 -0.06058621 0.0046193 -0.009999811 -0.06711912 0.001913309 -0.009999811 -0.0578804 -0.001913309 -0.009999811 -0.05749958 0 -0.009999811 -0.06749963 0 -0.009999811 -0.05896425 -0.003535509 -0.009999811 -0.06711912 -0.001913309 -0.009999811 -0.06603527 -0.003535509 -0.009999811 -0.0578804 0.001913309 -0.009999811 -0.05896425 0.003535509 -0.009999811 -0.06058621 -0.0046193 -0.009999811 -0.06249976 -0.004999995 -0.009999811 -0.06441307 -0.0046193 -0.009999811 -0.02824449 -0.05112135 -0.02094608 -0.02732324 -0.05250012 -0.02094608 -0.02699971 -0.05412656 -0.02094608 -0.02828395 -0.02828425 -0.008999884 0.03425544 0.05112135 -0.02094614 0.02824503 0.05112135 -0.02094614 -0.03695482 -0.01530724 -0.008999884 0.03550016 0.05412656 -0.02094614 0.003926634 0.06412637 -0.02094614 0.004250168 0.0625 -0.02094614 0.02732366 0.05575299 -0.02094614 -0.02732324 0.05250012 -0.02094608 -0.02732324 0.05575299 -0.02094608 -0.02962327 0.0502001 -0.02094608 -0.02824449 0.05112135 -0.02094608 -0.03124976 0.04987657 -0.02094608 -0.03287625 0.0502001 -0.02094608 -0.03425496 0.05112135 -0.02094608 -0.02732324 -0.05575299 -0.02094608 0.02732366 0.05250012 -0.02094614 0.02700018 0.05412656 -0.02094614 0.03517669 0.05250012 -0.02094614 -0.00780332 0.0392313 -0.008999884 0.003005385 0.0655052 -0.02094614 0.003926634 0.0608735 -0.02094614 -0.02824449 -0.0571317 -0.02094608 -0.02962327 -0.05805301 -0.02094608 -0.03124976 -0.05837655 -0.02094608 -0.03287625 -0.05805301 -0.02094608 1.96221e-7 0.06674998 -0.02094614 -0.001626133 0.06642645 -0.02094614 0.00162661 0.06642645 -0.02094614 -0.003004908 0.0655052 -0.02094614 -0.003926277 0.06412637 -0.02094614 -0.004249691 0.0625 -0.02094614 -0.03517621 -0.05250012 -0.02094608 -0.03549981 -0.05412656 -0.02094608 -0.03517621 -0.05575299 -0.02094608 -0.03425496 -0.0571317 -0.02094608 -0.03287625 -0.0502001 -0.02094608 -0.03425496 -0.05112135 -0.02094608 -0.03124976 -0.04987657 -0.02094608 -0.02962327 -0.0502001 -0.02094608 0.003005385 0.05949479 -0.02094614 -0.003004908 0.05949479 -0.02094614 0.00162661 0.05857348 -0.02094614 1.96221e-7 0.05824995 -0.02094614 -0.001626133 0.05857348 -0.02094614 -0.05713146 -0.03425514 -0.02094608 -0.05805271 -0.03287637 -0.02094608 -0.05837631 -0.03125 -0.02094608 -0.05575275 -0.03517639 -0.02094608 -0.05805271 -0.0296235 -0.02094608 -0.05412626 -0.03549993 -0.02094608 -0.05249994 -0.03517639 -0.02094608 -0.05249994 -0.02732348 -0.02094608 -0.05112123 -0.02824479 -0.02094608 -0.05412626 -0.02699995 -0.02094608 -0.05713146 -0.02824479 -0.02094608 -0.05112123 -0.03425514 -0.02094608 -0.003926277 0.0608735 -0.02094614 -0.02699971 0.05412656 -0.02094608 -0.05019968 -0.0296235 -0.02094608 -0.05575275 -0.02732348 -0.02094608 -0.05019968 -0.03287637 -0.02094608 -0.04987621 -0.03125 -0.02094608</float_array>
          <technique_common>
            <accessor source="#Link6_001-mesh-positions-array" count="849" stride="3">
              <param name="X" type="float"/>
              <param name="Y" type="float"/>
              <param name="Z" type="float"/>
            </accessor>
          </technique_common>
        </source>
        <source id="Link6_001-mesh-normals">
          <float_array id="Link6_001-mesh-normals-array" count="4359">0.8054506 -0.592663 0 0.8054538 -0.5926585 -1.5206e-6 0.8054652 -0.5926433 6.57751e-6 0.8053978 -0.5927348 0 0.8560707 -0.5168589 0 0.8560711 -0.5168583 0 0 0 1 0 0 1 0 0 1 0 0 1 0 0 1 0 0 1 0 0 1 0 0 1 0 0 1 0 0 1 0 0 1 0 0 1 0 0 1 0 0 1 0 0 1 0 0 1 0 0 1 0 0 1 0 0 1 0 0 1 0 0 1 0 0 1 0 0 1 0 0 1 0 0 1 0 0 1 0 0 1 0 0 1 0 0 1 0 0 1 0 0 1 0 0 1 0 0 1 0 0 1 0 0 1 0 0 1 0 0 1 0 0 1 0 0 1 0 0 1 0 0 1 0 0 1 0 0 1 0 0 1 0 0 1 0 0 1 0 0 1 0 0 1 0 0 1 0 0 1 0 0 1 0 0 1 0 0 1 0 0 1 0 0 1 0 0 1 0 0 1 0 0 1 0 0 1 0 0 1 0 0 1 0 0 1 0 0 1 0 0 1 0 0 1 0 0 1 0 0 1 0 0 1 0 0 1 0 0 1 0 0 1 0 0 1 0 0 1 0 0 1 0 0 1 0 0 1 0 0 1 0 0 1 0 0 1 0 0 1 0 0 1 0 0 1 0 0 1 0 0 1 0 0 1 0 0 1 0 0 1 0 0 1 0 0 1 0 0 1 0 0 1 0 0 1 0 0 1 0 0 1 0 0 1 0 0 1 0 0 1 0 0 1 0 0 1 0 0 1 0 0 1 0 0 1 0 0 1 0 0 1 0 0 1 0 0 1 0 0 1 0 0 1 0 0 1 0 0 1 0 0 1 0 0 1 0 0 1 0 0 1 0 0 1 0 0 1 0 0 1 0 0 1 0 0 1 0 0 1 0 0 1 0 0 1 0 0 1 0 0 1 0 0 1 0 0 1 0 0 1 0 0 1 0 0 1 0 0 1 0 0 1 0 0 1 0 0 1 0 0 1 0 0 1 0 0 1 0 0 1 0 0 1 0 0 1 0 0 1 0 0 1 0 0 1 0 0 1 0 0 1 0 0 1 0 0 1 0 0 1 0 0 1 0 0 1 0 0 1 0 0 1 0 0 1 0 0 1 0 0 1 0 0 1 0 0 1 0 0 1 0 0 1 0 0 1 0 0 1 0 0 1 0 0 1 0 0 1 0 0 1 0 0 1 0 0 1 0 0 1 0 0 1 0 0 1 0 0 1 0 0 1 0 0 1 0 0 1 0 0 1 0 0 1 0 0 1 0 0 1 0 0 1 0 0 1 0 0 1 0 0 1 0 0 1 0 0 1 0 0 1 0 0 1 0 0 1 0 0 1 0 0 1 0 0 1 0 0 1 0 0 1 0 0 1 0 0 1 0 0 1 0 0 1 0 0 1 0 0 1 0 0 1 0 0 1 0 0 1 0 0 1 0 0 1 0 0 1 0 0 1 0 0 1 0 0 1 0 0 1 0 0 1 0 0 1 0 0 1 0 0 1 0 0 1 0 0 1 0 0 1 0 0 1 0 0 1 0 0 1 0 0 1 0 0 1 0 0 1 0 0 1 0 0 1 0 0 1 0 0 1 0 0 1 0 0 1 0 0 1 0 0 1 0 0 1 0 0 1 0 0 1 0 0 1 0 0 1 0 0 1 0 0 1 0 0 1 0 0 1 0 0 1 0 0 1 0 0 1 0 0 1 0 0 1 0 0 1 0 0 1 0 0 1 0 0 1 0 0 1 0 0 1 0 0 1 0 0 1 0 0 1 0 0 1 0 0 1 0 0 1 0 0 1 0 0 1 0 0 1 0 0 1 0 0 1 0 0 1 0 0 1 0 0 1 0 0 1 0 0 1 0 0 1 0 0 1 0 0 1 0 0 1 0 0 1 0 0 1 0 0 1 0 0 1 0 0 1 0 0 1 0 0 1 0 0 1 0 0 1 0 0 1 0 0 1 0 0 1 0 0 1 0 0 1 0 0 1 0 0 1 0 0 1 0 0 1 0 0 1 0 0 1 0 0 1 0 0 1 0 0 1 0 0 1 0 0 1 0 0 1 0 0 1 0 0 1 0 0 1 0 0 1 0 0 1 0 0 1 0 0 1 0 0 1 0 0 1 0 0 1 0 0 1 0 0 1 0 0 1 0 0 1 0 0 1 0 0 1 0 0 1 0 0 1 0 0 1 0 0 1 0 0 1 0 0 1 0 0 1 0 0 1 0 0 1 0 0 1 0 0 1 0 0 1 0 0 1 0 0 1 0 0 1 0 0 1 0 0 1 0 0 1 0 0 1 0 0 1 0 0 1 0 0 1 0 0 1 0 0 1 0 0 1 0 0 1 0 0 1 0 0 1 0 0 1 0 0 1 0 0 1 0 0 1 0 0 1 0 0 1 0 0 1 0 0 1 0 0 1 0 0 1 0 0 1 0 0 1 0 0 1 0 0 1 0 0 1 0 0 1 0 0 1 0 0 1 0 0 1 0 0 1 0 0 1 0 0 1 0 0 1 0 0 1 0 0 1 0 0 1 0 0 1 0 0 1 0 0 1 0 0 1 0 0 1 0 0 1 0 0 1 0 0 1 0 0 1 0 0 1 0 0 1 0 0 1 0 0 1 0 0 1 0 0 1 0 0 1 0 0 1 0 0 1 0 0 1 0 0 1 0 0 1 0 0 1 0 0 1 0 0 1 0 0 1 0 0 -1 -2.87342e-7 0 -1 0 0 -1 0 0 -1 0 0 -1 0 0 -1 0 0 -1 -2.30315e-7 0 -1 0 0 -1 -3.46e-7 0 -1 0 0 -1 0 0 -1 0 0 -1 0 0 -1 -3.32995e-7 0 -1 0 0 -1 0 0 -1 -2.29874e-7 0 -1 -4.47444e-7 0 -1 0 0 -1 -2.23546e-7 0 -1 0 0 -1 0 0 -1 0 0 -1 0 1.23146e-7 -1 0 0 -1 0 -1.27654e-7 -1 2.33094e-7 0 -1 -2.20702e-7 0 -1 2.3397e-7 -1.35335e-7 -1 -2.19939e-7 0 -1 0 0 -1 0 0 -1 -2.36043e-7 0 -1 0 0 -1 -2.37256e-7 0 -1 0 -1.29151e-7 -1 -1.36518e-6 0 -1 2.22994e-7 0 -1 0 0 -1 0 -1.23301e-7 -1 0 0 -1 0 0 -1 2.22922e-7 0 -1 -3.46718e-7 0 -1 0 0 -1 -2.60666e-7 0 -1 -2.21962e-7 0 -1 -1.45227e-7 0 -1 -2.21358e-7 0 -1 0 0 -1 0 0 -1 0 0 -1 0 0 -1 0 0 -1 -2.19065e-7 0 -1 0 0 -1 0 0 -1 0 0 -1 -2.17212e-7 0 -1 -2.7976e-7 0 -1 0 0 -1 0 0 -1 -2.30067e-7 0 -1 0 0 -1 -2.23296e-7 0 -1 0 0 -1 0 0 -1 0 0 -1 -2.31652e-7 0 -1 -2.22007e-7 0 -1 -4.42823e-7 0 -1 -4.66132e-7 0 -1 0 0 -1 0 0 -1 0 0 -1 2.3491e-7 0 -1 0 0 -1 0 0 -1 -2.7976e-7 0 -1 -2.29924e-7 0 -1 0 0 -1 -1.39715e-7 0 -1 0 0 -1 -2.58169e-7 0 -1 -2.30682e-7 0 -1 0 0 -1 2.31134e-7 0 -1 -1.94684e-7 0 -1 -2.3169e-7 0 -1 -4.647e-7 0 -1 0 0 -1 0 0 -1 0 0 -1 -4.39836e-7 0 -1 -4.38161e-7 0 -1 0 0 -1 0 0 -1 0 0 -1 0.7481493 -0.6635304 0 0.7481485 -0.6635314 0 0.8995757 -0.4367651 0 0.8995755 -0.4367655 0 -0.1951035 0.9807827 0 -0.1951035 0.9807827 0 -0.5555638 0.8314739 0 0.8577247 -0.5141094 0 0.8577252 -0.5141085 -3.09409e-7 0.6846486 -0.7288734 0 0.684639 -0.7288824 3.0412e-6 0.6846358 -0.7288854 0 0.803207 -0.5957002 -3.09408e-7 0.8032069 -0.5957002 -3.09408e-7 -0.8314475 0.5556035 0 -0.8314536 0.5555942 0 0.9356032 -0.3530536 0 0.935603 -0.3530539 0 0.1951122 0.980781 0 0.1951047 0.9807825 -2.09477e-7 0.1951056 0.9807823 0 0.7409572 -0.6715524 -3.09412e-7 0.7409565 -0.6715531 0 0 -1.85777e-7 1 0 -1.85774e-7 1 6.91373e-6 0 1 0 0 1 2.42769e-6 0 1 2.62782e-6 0 1 2.352e-6 2.37214e-7 1 2.84839e-7 -2.37189e-7 1 0 2.87859e-6 1 0 0 1 0.9039898 -0.427554 0 0.9039899 -0.4275541 0 -0.9807823 0.1951056 0 -0.9807836 0.1950992 0 0.5555329 0.8314947 0 0.5555264 0.8314989 0 0.6154172 -0.7882016 0 0.6154221 -0.7881978 -4.56179e-6 0.6154342 -0.7881882 0 0.9638587 -0.2664141 0 0.9638579 -0.2664169 0 -0.9807852 -0.195091 0 -0.9807839 -0.1950974 0 0.6715534 -0.7409562 0 0.671553 -0.7409566 -6.18816e-7 -0.9807831 -0.1951011 0 -0.9807819 -0.1951075 0 0.9415472 -0.3368813 0 0.9415472 -0.3368813 0 0 0 -1 5.30684e-7 0 -1 -1.72063e-6 0 -1 0 0 -1 0 0 -1 -1.23814e-7 0 -1 0 1.76135e-7 -1 0 0 -1 0 0 -1 0 -4.14721e-7 -1 5.32916e-7 2.50695e-7 -1 0 1.97762e-7 -1 2.50836e-7 2.35924e-7 -1 -1.01559e-6 6.08511e-7 -1 0 -1.64153e-7 -1 -1.59528e-7 0 -1 0 0 -1 2.54516e-7 0 -1 -1.39175e-6 -1.36206e-7 -1 -1.81738e-6 0 -1 -1.27193e-6 0 -1 -1.6828e-7 0 -1 0 0 -1 -3.30753e-7 0 -1 0 0 -1 0 0 -1 0 0 -1 -5.98728e-7 -2.21989e-7 -1 -3.09665e-7 0 -1 0 0 -1 -1.5384e-7 -3.37492e-7 -1 0 0 -1 -2.33751e-7 0 -1 0 -4.91697e-7 -1 -2.68756e-7 -3.29744e-7 -1 -8.02019e-7 -2.3121e-7 -1 0 0 -1 0 0 -1 0 0 -1 -3.81329e-7 0 -1 0 0 -1 -6.72128e-7 0 -1 0 0 -1 0 -2.27047e-7 -1 0 0 -1 0 0 -1 1.3699e-7 0 -1 -1.46417e-6 0 -1 0 0 -1 -2.08914e-7 0 -1 1.7553e-7 0 -1 0 0 -1 2.37333e-7 0 -1 0 0 -1 -1.47792e-7 0 -1 -1.21667e-7 1.2898e-7 -1 -2.63221e-7 1.42495e-7 -1 -1.25761e-7 0 -1 0 0 -1 0 0 -1 -2.63785e-7 -2.06047e-7 -1 -3.02421e-7 0 -1 1.2379e-6 0 -1 -3.38319e-7 0 -1 4.15905e-7 0 -1 -3.63678e-7 0 -1 0 2.62986e-7 -1 0 3.87089e-7 -1 3.63054e-6 5.27718e-7 -1 -2.91155e-6 -6.73439e-7 -1 3.85695e-6 2.54878e-6 -1 0 0 -1 0 0 -1 0 0 -1 1.21925e-7 0 -1 -1.28747e-7 0 -1 0 0 -1 0 -1.84283e-7 -1 -2.59321e-7 0 -1 -5.97376e-7 0 -1 0 -1.76633e-7 -1 6.57252e-6 3.10421e-7 -1 -9.32351e-7 -5.39136e-7 -1 0 -2.85362e-7 -1 0 1.52555e-7 -1 2.74432e-7 1.80238e-7 -1 0 -2.64546e-6 -1 5.11339e-7 -8.58766e-7 -1 -5.13792e-7 9.14973e-7 -1 0.8314846 0.5555479 0 -0.8314846 -0.5555479 0 -0.8314862 -0.5555456 0 0.541104 -0.8409557 0 0.5411056 -0.8409547 0 0.5411066 -0.840954 0 -0.9807842 0.1950955 0 -0.9807831 0.195102 0 -0.8314364 -0.5556201 0 -0.8314425 -0.5556108 0 1 0 0 0.595704 -0.8032041 -6.18819e-7 0.5957046 -0.8032037 0 4.32125e-6 2.4404e-6 1 1.38246e-5 0 1 6.91262e-6 0 1 3.45648e-6 -2.44003e-6 1 1.13933e-6 2.19126e-7 1 0 -1.24129e-7 1 5.69667e-7 0 1 0 -3.09902e-7 1 1.31401e-6 0 1 0 5.72562e-7 1 -0.5555887 -0.8314574 0 -0.5555887 -0.8314573 0 0.5555515 -0.8314822 0 0.5555577 -0.8314781 0 0.9700307 -0.2429825 0 0.9700307 -0.2429825 0 0.9807823 0.1951056 0 0.980781 0.1951122 0 -0.5555623 -0.831475 0 -0.5555654 -0.8314729 0 -0.8314751 0.5555622 0 -0.8314735 0.5555645 0 0.4623028 -0.8867222 0 0.4623028 -0.8867222 0 0.8314734 -0.5555645 0 0.8314734 -0.5555647 0 0.9891771 -0.1467269 0 0.9891771 -0.1467268 0 0.9638579 0.266417 0 0.9638587 0.2664141 0 0.5141023 -0.8577288 -6.18819e-7 0.5141019 -0.8577291 6.18819e-7 -0.5555871 0.8314583 0 -0.5555902 0.8314564 0 -0.1951035 -0.9807827 0 -0.1951035 -0.9807827 0 0.9807826 -0.1951039 0 0.9807839 -0.1950975 0 0.1951041 -0.9807826 0 0.1951047 -0.9807825 -2.09477e-7 0.1951162 -0.9807801 0 0.9987955 -0.04906874 0 0.9987954 -0.04906994 0 -2.41443e-5 0 1 2.04505e-5 0 1 -2.34565e-5 0 1 0.9891771 0.1467268 0 0.9891771 0.1467269 0 -0.1951033 0.9807828 0 -0.1951057 0.9807822 -3.72951e-7 -0.195109 0.9807816 0 0.9987955 0.04906994 0 0.9987955 0.04906874 0 -0.1950901 -0.9807854 0 -0.1950907 -0.9807852 0 0.3796479 -0.9251312 0 0.3796479 -0.9251312 0 -0.195062 0.9807909 0 -0.1950626 0.9807909 0 0.1951069 0.980782 0 0.1951069 0.980782 0 0.9700308 0.2429824 0 0.9700307 0.2429826 0 -0.9039899 0.4275541 0 -0.5555727 0.831468 0 -0.5555754 0.8314662 0 0.9356032 0.3530535 0 0.9356032 0.3530536 0 -0.9807929 -0.1950523 0 -0.9807929 0.1950523 0 -0.6343923 0.7730113 0 -0.6343923 0.7730113 0 -0.7730143 0.6343886 0 0.4275546 -0.9039895 0 0.4275543 -0.9039897 0 0.5555727 0.831468 0 0.5555695 0.8314701 0 -0.9569423 0.2902785 0 -0.9569424 0.2902777 0 -0.881909 0.47142 0 -0.8819187 0.4714015 -1.44338e-6 -0.8819195 0.4714002 0 0.3368859 -0.9415455 6.18819e-7 0.3368861 -0.9415454 -6.18819e-7 2.41563e-5 0 1 -1.02291e-5 2.79921e-6 1 -1.17321e-5 1.25304e-6 1 -0.4275546 0.9039896 0 -0.9415472 0.3368813 0 -0.9415464 0.3368835 0 -2.89287e-6 0 1 0 -2.43411e-7 1 2.05797e-7 0 1 0 -5.74131e-7 1 0 0 1 1.90135e-7 0 1 2.05789e-7 0 1 0 2.6342e-7 1 0 0 1 -0.8314489 0.5556013 0 0.9415472 0.3368813 0 0.9415472 0.3368813 0 -0.8314489 -0.5556013 0 0.5555871 0.8314585 0 0.55559 0.8314564 0 0.8314411 0.5556132 0 0.8314411 0.5556132 0 0.5555654 -0.831473 0 0.5555623 -0.8314751 0 0.1951048 -0.9807825 0 0.1951041 -0.9807825 0 -0.4713896 0.8819251 0 -0.4713959 0.8819218 -6.18583e-6 -0.4715291 0.8818506 0 0.1950761 0.9807881 0 0.1950767 0.980788 0 0.2938322 -0.9558571 0 0.2938324 -0.955857 0 0.4275541 0.9039897 0 0.4275548 0.9039895 0 0.9039899 0.4275541 0 0.9039898 0.427554 0 -0.1467273 -0.9891771 0 -0.1467273 -0.9891771 0 0 -3.70662e-6 1 0 1.59625e-6 1 -1.78531e-6 0 1 0 3.04878e-6 1 0 -8.20358e-7 1 -0.5141097 0.8577244 -6.18828e-7 -0.514109 0.857725 6.18828e-7 -1.02153e-5 0 1 -0.7409474 0.6715632 0 -0.740948 0.6715624 3.09408e-7 -0.8577322 0.5140967 3.09411e-7 -0.8577328 0.5140959 0 0.8995725 0.4367715 0 0.8995757 0.4367651 4.56182e-6 0.8996198 0.4366743 0 -0.8314363 0.55562 0 -0.8314425 0.5556108 0 -0.5555754 -0.8314661 0 -0.5555726 -0.831468 0 0.8314521 -0.5555965 -2.09464e-7 0.8314521 -0.5555967 0 2.56538e-7 0 1 1.31389e-7 0 1 0 0 1 1.88859e-7 0 1 0 0 1 0 -1.95868e-7 1 0 0 1 0 0 1 0 0 1 0 0 1 2.83367e-7 0 1 0 0 1 1.55137e-7 -4.62484e-7 1 1.24675e-7 1.84324e-7 1 0 1.3623e-7 1 0 0 1 1.22871e-7 0 1 0 0 1 0 0 1 2.37252e-7 -1.79593e-7 1 1.84324e-7 0 1 0 -1.80589e-7 1 0 0 1 2.92925e-7 0 1 0 5.82559e-7 1 0 -2.3857e-7 1 -5.39598e-7 -1.21277e-6 1 1.67517e-7 3.79114e-7 1 1.22e-7 -2.64716e-7 1 1.65792e-7 0 1 -2.63581e-7 0 1 1.63167e-7 0 1 0 0 1 1.6054e-7 0 1 0 1.23509e-7 1 0 0 1 2.04802e-7 -2.60808e-7 1 0 0 1 0 0 1 1.79087e-7 0 1 0 -2.86123e-7 1 0 0 1 0 0 1 0 0 1 0.8314792 0.5555559 0 0.8314764 0.5555601 0 -0.9951839 0.09802585 0 -0.9951837 0.09802752 0 0 6.53793e-7 1 -7.39654e-7 1.08289e-6 1 0 -3.51405e-6 1 0.3368859 0.9415455 0 0.3368861 0.9415454 0 0.8577252 0.5141085 -3.09409e-7 0.8577247 0.5141095 0 -0.04906916 -0.9987955 0 -0.04906916 -0.9987954 3.765e-7 0.2429824 -0.9700307 6.18817e-7 0.2429825 -0.9700307 -6.18818e-7 -0.3368858 0.9415456 0 -0.3368858 0.9415456 0 -0.8032082 0.5956986 3.09408e-7 -0.8032068 0.5957004 3.09408e-7 -0.9700308 0.2429824 0 -0.9700307 0.2429822 0 -0.195109 -0.9807816 0 -0.1951057 -0.9807822 -3.72951e-7 -0.1951033 -0.9807828 0 -0.5555887 0.8314574 0 -0.5555887 0.8314573 0 0.9807965 0.1950343 0 0.9807959 0.1950376 0 0.9807947 -0.1950431 0 0.9807954 -0.1950399 0 -0.2902864 0.9569399 0 -0.2902865 0.9569399 -1.50582e-7 0.2055884 -0.9786386 0 0.2055881 -0.9786386 0 0.2055881 -0.9786386 0 0.9807815 0.1951097 0 0.9807814 0.1951099 0 0.5141021 0.8577291 0 0.5141019 0.8577291 0 1.00677e-5 2.32865e-6 1 0 9.14006e-7 1 0.6715528 0.7409567 -6.18816e-7 0.6715536 0.740956 0 -0.2429825 -0.9700307 0 -0.2429823 -0.9700307 0 -0.3368858 -0.9415456 0 -0.3368858 -0.9415456 0 0.0497713 -0.9987607 -1.23769e-6 0.04906916 -0.9987953 3.62631e-4 -0.5957046 0.8032037 0 -0.5957046 0.8032037 6.1882e-7 -0.6715536 0.740956 0 -0.6715541 0.7409555 6.18817e-7 -0.8768857 0.480699 0 -0.876881 0.4807077 6.84266e-6 -0.8768708 0.4807264 0 -0.9170093 0.3988661 0 -0.9170098 0.3988648 0 -0.949517 0.3137157 0 -0.949517 0.3137156 0 -0.9807839 0.1950975 0 -0.9807852 0.195091 0 0.8560714 0.5168579 0 0.8560707 0.5168589 0 0.1951069 -0.980782 0 0.1951069 -0.980782 0 0 2.87863e-6 1 1.29081e-6 0 1 0 1.85774e-7 1 1.05257e-6 1.85777e-7 1 1.38292e-5 0 1 -2.27866e-6 0 1 3.45631e-6 0 1 0 -4.38266e-7 1 3.35992e-7 0 1 -1.317e-6 0 1 -0.9951837 -0.09802752 0 -0.9951839 -0.09802585 0 -0.04906904 -0.9987954 1.23764e-6 -0.04977113 -0.9987606 3.61404e-4 0.2429824 0.9700307 0 0.2429825 0.9700307 0 0.803207 0.5957002 -6.18815e-7 0.8032069 0.5957002 0 0.595704 0.8032041 0 0.5957046 0.8032037 -6.1882e-7 -0.4275546 -0.9039896 0 -0.4275546 -0.9039895 0 -0.9039899 -0.4275541 0 0.04906904 -0.9987954 1.23764e-6 0.04906904 -0.9987954 -1.23764e-6 0.1467272 -0.9891771 0 0.1467273 -0.989177 0 0.146032 -0.9892799 0 0.1467273 -0.9891769 3.62232e-4 -0.2429823 0.9700307 0 -0.2429824 0.9700307 0 -0.4179149 0.9084863 0 -0.4179142 0.9084865 0 -0.498873 0.8666752 0 -0.4988732 0.866675 0 -0.5757632 0.8176166 0 -0.5757262 0.8176426 9.1236e-6 -0.5757092 0.8176547 0 -0.9892826 0.1460132 -3.72601e-4 -0.9891769 0.146728 0 -0.9741421 0.2259365 0 -0.9741386 0.2259516 8.93357e-6 -0.9741238 0.2260153 0 0.5555727 -0.831468 0 0.55557 -0.8314698 0 -0.9807836 -0.1950991 0 -0.09801769 0.9951847 8.24771e-7 -0.09801769 0.9951847 -2.10649e-7 0.09802085 0.9951844 -8.24798e-7 0.09802085 0.9951844 2.11953e-7 -0.8819195 -0.4714002 0 -0.8819187 -0.4714015 -1.44338e-6 -0.881909 -0.47142 0 -0.7730143 -0.6343886 0 -0.9806511 0.1957638 0 -0.9807821 0.1951068 -1.99003e-6 -0.9807873 0.1950802 1.81497e-7 0.1156331 -0.993292 0 0.1156331 -0.993292 0 0.9807815 -0.1951097 0 -0.1460319 -0.9892799 0 -0.1467272 -0.989177 3.62628e-4 0.3796476 0.9251312 0 0.3796482 0.925131 0 0.4623028 0.8867222 0 0.4623028 0.8867222 0 0.2938322 0.9558571 0 0.2938324 0.955857 0 0.7409566 0.671553 0 0.740957 0.6715525 -3.09412e-7 -0.9415472 -0.3368813 0 -0.9415464 -0.3368835 0 -0.8577322 -0.5140967 3.09411e-7 -0.8577328 -0.5140959 0 -0.156965 -0.9876042 0 -0.1569734 -0.987603 1.52061e-6 -0.156974 -0.9876028 -1.19323e-6 -0.06640243 -0.997793 0 -0.06640237 -0.997793 -4.13562e-7 1.39715e-7 0 1 0 0 1 2.58169e-7 0 1 2.30682e-7 0 1 0 0 1 -2.31134e-7 0 1 1.94684e-7 0 1 -0.6477752 0.7618316 0 -0.6477755 0.7618314 0 -0.7751898 0.6317286 0 -0.7751938 0.6317235 -3.04124e-6 -0.7752017 0.6317138 0 -0.7144404 0.6996963 0 -0.714442 0.6996947 0 -0.8294805 0.5585358 0 -0.8294811 0.5585348 0 0.8314764 -0.5555601 0 0.8314789 -0.5555562 0 -0.9807836 -0.1950992 0 -0.9807823 -0.1951056 0 0.8054581 0.5926529 0 0.8054538 0.5926585 -1.5206e-6 0.8054506 0.592663 0 0.1951162 0.9807801 0 0.1951041 0.9807826 0 -0.8314474 -0.5556035 0 -0.8314536 -0.5555942 0 0.5555577 0.8314781 0 0.5555513 0.8314823 0 0.2902783 0.9569423 -8.24789e-7 0.2902781 0.9569424 6.14135e-7 -0.6343924 -0.7730112 0 -0.6343922 -0.7730115 0 -0.8314844 0.555548 0 -0.8314846 0.5555478 2.09473e-7 -0.9569424 -0.2902777 0 -0.9569423 -0.2902784 0 0.5411066 0.840954 0 0.5411056 0.8409547 0 0.541104 0.8409557 0 -0.5141095 -0.8577246 0 -0.5141094 -0.8577247 0 -0.9987955 -0.04906868 0 -0.9987955 -0.04906874 0 0.02472072 -0.9996945 -1.52061e-6 0.02472072 -0.9996945 1.52061e-6 -0.3334582 0.9427649 0 -0.3334581 0.942765 0 -0.9906603 0.1363534 0 -0.9906601 0.1363548 0 -0.9987598 0.04978942 0 -0.9987954 0.04906868 -3.72709e-4 -0.5555638 -0.8314739 0 8.05643e-7 0 1 -1.31397e-6 0 1 2.68805e-6 0 1 -0.8314741 -0.5555636 2.09479e-7 -0.8314742 -0.5555633 0 -0.5555874 -0.8314583 0 -0.5555874 -0.8314582 0 0.6343921 -0.7730115 0 0.6343919 -0.7730116 0 -0.5555626 0.8314748 4.18957e-7 -0.5555625 0.8314748 -3.22317e-7 0.2055881 0.9786386 0 0.2055881 0.9786386 0 0.2055884 0.9786386 0 0.7481493 0.6635304 0 0.7481485 0.6635313 0 0.6846358 0.7288854 0 0.684639 0.7288824 3.0412e-6 0.6846486 0.7288734 0 0.615423 0.7881972 0 0.615423 0.7881971 0 -0.246235 -0.9692102 0 -0.2462349 -0.9692103 0 -0.3334581 -0.942765 0 -0.3334583 -0.9427649 0 -0.4179146 -0.9084864 0 -0.4179146 -0.9084864 0 -0.9700307 -0.2429823 0 -0.9700308 -0.2429824 0 -0.9891769 -0.146728 0 -0.9891771 -0.1467268 0 -0.8032069 -0.5957003 3.09408e-7 -0.803208 -0.5956987 3.09408e-7 0.06640237 -0.997793 -1.52059e-6 0.06640243 -0.997793 1.52059e-6 0.1569734 -0.9876028 0 0.1569733 -0.9876029 0 -0.2462349 0.9692103 0 0.8314877 -0.5555433 0 0.8314846 -0.5555479 0 0.980781 -0.1951121 0 0.980781 -0.1951121 0 0.9807826 0.1951039 0 0.9807826 0.1951039 0 0.8314735 0.5555645 0 0.8314765 0.5555599 0 0.1951018 -0.980783 0 0.1951161 -0.9807802 -2.33106e-6 0.1951689 -0.9807698 0 0.555545 -0.8314865 0 0.5555479 -0.8314847 0 0.8314734 0.5555645 0 0.5555266 -0.8314989 0 0.5555329 -0.8314947 0 0.4713855 0.8819273 0 0.4714024 0.8819184 0 0.471403 0.8819179 0 -0.4715291 -0.8818506 0 -0.4713959 -0.8819218 -6.18583e-6 -0.4713896 -0.8819251 0 0.7730143 -0.6343886 0 -0.1156331 -0.993292 0 -0.1156331 -0.993292 0 -0.498873 -0.8666752 0 -0.4988734 -0.8666749 0 -0.5957046 -0.8032037 0 -0.5957046 -0.8032037 6.1882e-7 -0.8768805 -0.4807087 0 -0.8768803 -0.4807089 0 -0.9170098 -0.3988648 0 -0.9170092 -0.3988661 0 -0.8294755 -0.558543 0 -0.8294798 -0.5585368 4.56179e-6 -0.8294897 -0.5585222 0 0.01042747 -0.9999457 -1.66064e-6 0.01042747 -0.9999457 0 0.246235 -0.9692102 0 -0.1950626 -0.9807909 0 -0.1950633 -0.9807907 0 0.1950639 -0.9807906 0 0.195062 -0.9807909 0 0.5555871 -0.8314583 0 0.5555887 -0.8314574 0 0.831475 -0.5555622 0 0.9807831 -0.195102 0 0.9807823 -0.1951052 0 0.9807812 0.1951107 0 0.9807819 0.1951075 0 0.5555669 -0.8314719 0 0.5555607 -0.8314761 0 0.5555918 0.8314553 0 0.5555855 0.8314594 0 -0.9989621 0.04554963 0 -0.9989621 0.04555261 0 0.8314844 -0.555548 0 -0.1950932 -0.9807848 0 -0.1950935 -0.9807847 0 0.1951094 -0.9807815 0 0.1951091 -0.9807816 4.97938e-7 0.5555874 -0.8314583 0 0.5555874 -0.8314582 0 0.9807839 0.1950975 0 0.9807823 -0.1951056 0 -0.1950901 0.9807854 0 -0.1950907 0.9807852 0 0.1951041 0.9807825 0 0.1951048 0.9807825 0 0.9951838 0.09802669 0 0.9951838 0.09802669 0 0.471403 -0.8819179 0 0.4714024 -0.8819184 0 0.4713855 -0.8819273 0 -0.1950953 0.9807843 0 -0.1950956 0.9807842 6.76643e-7 -0.5555871 -0.8314585 0 -0.5555903 -0.8314564 0 -0.195062 -0.9807909 0 0.1950767 -0.980788 0 0.1950761 -0.9807881 0 0.5555871 -0.8314585 0 0.5555902 -0.8314564 0 -0.8314734 -0.5555645 0 -0.8314751 -0.5555621 0 3.05848e-6 0 -1 -0.949517 -0.3137157 0 -0.949517 -0.3137156 0 -0.7752017 -0.6317138 0 -0.7751938 -0.6317235 -3.04124e-6 -0.7751898 -0.6317286 0 -0.7409466 -0.671564 3.09407e-7 -0.7409486 -0.6715618 0 0.831451 0.5555981 -2.09465e-7 0.8314514 0.5555976 0 0.5555625 0.8314748 -4.18957e-7 0.5555626 0.8314748 3.22317e-7 0.1951116 0.9807811 -4.18964e-7 0.1951112 0.9807811 0 0 0 -1 0 0 -1 0 0 -1 0 0 -1 0 0 -1 0 0 -1 0 0 -1 0 0 -1 0 0 -1 0 0 -1 0 0 -1 0 0 -1 0 0 -1 0 0 -1 0 0 -1 0 0 -1 0 0 -1 -0.5555857 -0.8314594 0 -0.1951176 -0.9807798 0 -0.1951164 -0.9807802 0 0.1950907 -0.9807852 0 0.1950907 -0.9807853 0 6.91453e-6 0 1 6.91508e-6 0 1 2.68815e-6 -2.37206e-7 1 0 0 1 0 1.85771e-7 1 -1.99375e-6 2.37189e-7 1 0 -9.55319e-7 1 0 2.37194e-7 1 -0.1950944 -0.9807845 0 -0.1950943 -0.9807845 0 0.8314765 -0.5555601 0 0.8314765 -0.5555601 0 0 0 1 4.11593e-7 4.49678e-7 1 -2.49764e-6 0 1 0 0 1 6.1739e-7 -4.49678e-7 1 -3.64149e-7 0 1 -1.24877e-6 0 1 1.75402e-6 0 1 0.1951056 -0.9807823 0 0.1951122 -0.980781 0 -0.8314847 -0.5555479 2.09473e-7 -0.8314861 -0.5555456 0 -0.9807819 -0.1951075 0 -0.9807832 -0.1951011 0 0.6343917 0.7730118 0 0.6343921 0.7730115 0 -0.2902927 -0.9569379 6.33673e-7 -0.2902865 -0.9569399 -4.12406e-6 -0.2902746 -0.9569434 1.59289e-7 -0.5555654 0.8314729 0 -0.5555623 0.831475 0 0.5555654 0.831473 0 0.5555623 0.8314751 0 0.9569416 -0.2902808 0 0.956942 -0.2902792 0 0.9951838 -0.09802669 0 0.9951838 -0.09802669 0 0.9569416 0.2902808 0 0.956942 0.2902794 0 0.8819124 -0.4714135 0 0.8819184 -0.4714021 -1.44338e-6 0.8819195 -0.4714001 0 -0.03514724 -0.9993822 -9.85791e-7 -0.03514724 -0.9993823 0 -0.9807842 -0.1950955 0 -0.9807829 -0.1951019 0 -0.980782 -0.1951068 0 -0.9807821 -0.1951068 0 0.8314411 -0.5556132 0 0.8314411 -0.5556132 0 -0.5757092 -0.8176547 0 -0.5757262 -0.8176426 9.1236e-6 -0.5757632 -0.8176166 0 -0.6715542 -0.7409555 0 -0.6715535 -0.7409561 6.18817e-7 -0.9989619 -0.04555267 0 -0.9989621 -0.04555004 0 -0.9906604 -0.1363534 0 -0.9906601 -0.1363549 0 -0.9741238 -0.2260153 0 -0.9741386 -0.2259516 8.93357e-6 -0.9741421 -0.2259365 0 0.9807958 0.1950379 0 0.981005 0.193983 8.55445e-5 0.9807875 0.1950798 -2.17961e-7 1.05264e-6 -1.24127e-7 1 0 0 1 -1.21402e-6 0 1 -6.71957e-7 6.75445e-7 1 -2.84835e-7 -2.01074e-7 1 3.45705e-6 2.44043e-6 1 0 -5.72625e-7 1 3.35978e-7 1.58474e-7 1 5.69679e-7 0 1 0.8314861 0.5555456 0 0.1950907 0.9807852 0 0.1950907 0.9807853 0 -0.5556029 -0.8314478 0 -0.5556006 -0.8314493 0 -0.9807829 0.1951019 0 -0.9807843 0.1950955 0 0.8314406 -0.5556137 0 0.8314521 0.5555965 -2.09464e-7 0.8314521 0.5555966 0 3.45724e-6 0 1 -1.38297e-5 0 1 0 0 1 1.05262e-6 1.8577e-7 1 7.83265e-7 -4.38239e-7 1 -1.61132e-6 0 1 1.31387e-6 0 1 3.45695e-6 -2.44036e-6 1 1.94493e-6 -3.0989e-7 1 0 3.65549e-7 1 0 2.37193e-7 1 0.1950914 0.9807851 0 -0.1950913 0.9807851 0 -0.1950907 0.9807852 0 0.2902746 -0.9569434 0 0.2902782 -0.9569423 -8.24789e-7 0.2902801 -0.9569419 -3.2367e-7 -0.9807839 0.1950975 0 -0.9807839 0.1950974 0 -0.09801775 -0.9951847 8.24771e-7 -0.09801769 -0.9951847 -2.11946e-7 -0.9807819 0.1951075 0 -0.9807832 0.1951011 0 -0.8314844 -0.555548 0 -0.8314846 -0.5555478 2.44517e-7 -0.9807836 0.1950991 0 -0.5555871 0.8314585 0 -0.5555856 0.8314594 0 -0.1950632 0.9807907 -4.18928e-7 -0.1950626 0.9807909 3.95633e-7 0.1950633 0.9807907 0 0.1950626 0.9807909 0 -0.7144412 -0.6996955 0 -0.7144415 -0.6996952 0 0.9807974 -0.1950293 0 0.9807972 -0.1950302 0 -0.1951116 0.9807811 4.18964e-7 -0.1951112 0.9807811 0 0.1950953 0.9807843 0 0.1950956 0.9807842 -6.76643e-7 -0.5555625 0.8314748 4.18957e-7 -0.5555626 0.8314748 -3.22317e-7 -0.831451 0.5555981 2.09465e-7 -0.8314514 0.5555976 0 -0.9807959 0.1950371 2.0948e-7 -0.9807958 0.1950379 0 -0.8314735 -0.5555645 0 -0.8314196 -0.5556452 0 -0.8314165 -0.5556498 0 0.980794 -0.1950466 0 0.9807929 -0.1950523 0 -0.8314861 0.5555456 0 -0.8314847 0.5555479 0 -6.91355e-6 0 1 0 2.44006e-6 1 3.45705e-6 -2.44043e-6 1 1.21388e-6 -5.72562e-7 1 0 4.38275e-7 1 0 1.58473e-7 1 5.69672e-7 0 1 5.26311e-7 0 1 0 1.34355e-7 1 2.01408e-7 -4.38269e-7 1 -0.5555607 -0.8314761 0 -0.5555623 -0.831475 0 0.7730143 0.6343886 0 0.9807954 0.1950399 0 0.9807947 0.1950431 0 0.8819195 0.4714001 0 0.8819184 0.4714021 -1.44338e-6 0.8819124 0.4714135 0 0.5555623 0.8314751 0 0.5555639 0.831474 0 -0.5555623 0.8314751 0 -0.5555607 0.8314761 0 -0.8314054 0.5556665 0 -0.8314086 0.5556617 0 0.5555625 0.8314748 4.18957e-7 0.5555626 0.8314748 -4.21123e-7 0.9807965 -0.1950343 0 0.9807959 -0.1950375 0 -0.8314741 0.5555636 2.09479e-7 -0.8314742 0.5555633 0 -0.831475 0.5555621 0 -0.8314735 0.5555645 0 0.5555871 0.8314583 0 0.5555887 0.8314573 0 -0.6477805 -0.7618271 0 -0.6477752 -0.7618316 -4.56183e-6 -0.6477439 -0.7618582 0 0.8314877 0.5555433 0 0.980781 0.1951121 0 0.980781 0.1951121 0 0.5555669 0.8314719 0 0.5555607 0.8314761 0 0.9807826 -0.1951039 0 -0.1951176 0.9807798 0 -0.1951164 0.9807802 0 0.831475 0.5555621 0 -0.5555887 0.8314573 0 -0.1951178 0.9807798 0 -0.8314737 -0.5555641 0 -0.8314792 -0.5555559 0 0.9807929 0.1950523 0 0.980794 0.1950466 0 -0.1950914 -0.9807851 0 -0.9807689 0.1951729 0 -0.9807689 0.1951729 0 -0.8314765 0.5555601 0 -0.5555887 -0.8314573 0 -0.8314861 0.5555456 2.09473e-7 -0.8314847 0.5555479 0 0.09802085 -0.9951844 -8.24798e-7 0.09802085 -0.9951844 2.10656e-7 0.8314751 0.5555622 0 0.8314735 0.5555645 0 0.8314766 -0.5555599 0 0.8314735 -0.5555645 0 -2.68805e-6 0 -1 -0.9807972 -0.1950302 0 -0.9807974 -0.1950293 0 0.9807842 0.1950955 -2.0947e-7 0.9807831 0.195102 0 0.8314765 0.5555601 0 0.8314765 0.5555601 0 0.195092 -0.980785 0 0.1950901 -0.9807854 0 -0.9807689 -0.1951729 0 -0.9807689 -0.1951729 0 -0.5556002 0.8314496 0 -0.5556029 0.8314478 0 -0.8314085 -0.5556618 0 -0.8314054 -0.5556665 0 -0.5555874 0.8314582 0 -0.5555874 0.8314583 0 0.9807824 0.1951052 0 0.1951689 0.9807698 0 0.1951161 0.9807802 -2.33106e-6 0.1951018 0.980783 0 0.5555856 -0.8314594 0 0.5555917 -0.8314553 0 0.5555478 0.8314846 0 0.5555451 0.8314864 0 3.45779e-6 -2.44095e-6 1 6.56848e-7 0 1 1.05266e-6 -1.2413e-7 1 -5.6967e-7 0 1 0 4.38295e-7 1 1.31403e-6 0 1 -1.13933e-6 -2.19135e-7 1 2.68815e-6 2.37206e-7 1 -6.91379e-6 0 -1 0.5555623 -0.8314751 0 0.5555638 -0.8314739 0 -0.9807819 0.1951075 0 -0.1950932 0.9807848 0 -0.1950935 0.9807847 0 0.9807812 -0.1951108 0 0.9807819 -0.1951075 0 -0.1950944 0.9807845 0 -0.1950943 0.9807845 0 -0.8314195 0.5556452 0 -0.8314165 0.5556498 0 -0.8314406 -0.5556137 2.0947e-7 -0.8314411 -0.5556132 0 0.9807832 -0.1951011 0 -0.9807839 -0.1950975 0 0.1951094 0.9807815 4.18964e-7 0.1951091 0.9807816 0 0.5555874 0.8314583 0 0.5555874 0.8314582 0 0.8314861 -0.5555456 0 0.8314846 -0.5555478 0</float_array>
          <technique_common>
            <accessor source="#Link6_001-mesh-normals-array" count="1453" stride="3">
              <param name="X" type="float"/>
              <param name="Y" type="float"/>
              <param name="Z" type="float"/>
            </accessor>
          </technique_common>
        </source>
        <vertices id="Link6_001-mesh-vertices">
          <input semantic="POSITION" source="#Link6_001-mesh-positions"/>
        </vertices>
        <triangles material="link_01_part_000_mtl_001_008-material" count="1623">
          <input semantic="VERTEX" source="#Link6_001-mesh-vertices" offset="0"/>
          <input semantic="NORMAL" source="#Link6_001-mesh-normals" offset="1"/>
          <p>0 0 1 0 2 0 2 1 1 1 3 1 2 2 3 2 4 2 4 3 3 3 5 3 6 4 7 4 3 4 3 5 7 5 5 5 8 6 9 6 10 6 11 7 12 7 13 7 14 8 15 8 16 8 17 9 18 9 19 9 20 10 21 10 22 10 23 11 24 11 25 11 26 12 27 12 28 12 28 7 27 7 29 7 24 13 30 13 31 13 31 14 30 14 32 14 31 15 32 15 33 15 33 16 32 16 34 16 33 17 34 17 35 17 35 18 34 18 36 18 36 19 34 19 37 19 36 20 37 20 38 20 38 21 37 21 39 21 38 22 39 22 29 22 29 23 39 23 40 23 29 24 40 24 28 24 26 25 41 25 27 25 27 26 41 26 42 26 27 27 42 27 43 27 43 28 42 28 44 28 44 29 45 29 43 29 43 30 45 30 46 30 43 31 46 31 47 31 46 32 48 32 47 32 47 33 48 33 49 33 47 34 49 34 25 34 25 35 49 35 50 35 25 36 50 36 23 36 51 37 52 37 53 37 53 38 52 38 54 38 53 39 54 39 55 39 55 40 56 40 53 40 53 41 56 41 57 41 53 42 57 42 19 42 19 43 57 43 58 43 19 44 58 44 59 44 60 45 61 45 62 45 62 46 61 46 63 46 62 27 63 27 64 27 64 47 63 47 65 47 65 48 66 48 64 48 64 49 66 49 67 49 64 50 67 50 51 50 51 51 67 51 68 51 51 52 68 52 52 52 69 53 70 53 71 53 71 54 70 54 72 54 71 55 72 55 62 55 62 56 72 56 73 56 62 57 73 57 60 57 74 58 75 58 62 58 62 59 75 59 76 59 62 60 76 60 71 60 71 61 76 61 77 61 71 62 77 62 78 62 78 63 79 63 71 63 71 64 79 64 80 64 71 65 80 65 81 65 81 66 80 66 82 66 82 67 83 67 81 67 81 68 83 68 84 68 81 69 84 69 85 69 85 70 84 70 86 70 85 59 86 59 87 59 88 71 89 71 90 71 90 72 91 72 88 72 88 73 91 73 92 73 88 74 92 74 93 74 93 75 92 75 94 75 93 76 94 76 95 76 96 77 97 77 98 77 99 78 13 78 100 78 100 79 13 79 16 79 100 80 16 80 101 80 97 81 102 81 98 81 98 82 102 82 103 82 98 83 103 83 16 83 16 84 103 84 104 84 16 85 104 85 101 85 99 86 105 86 13 86 13 87 105 87 106 87 13 88 106 88 107 88 107 89 106 89 108 89 107 90 108 90 109 90 110 91 85 91 111 91 111 92 85 92 107 92 111 93 107 93 112 93 112 94 107 94 109 94 113 95 81 95 114 95 114 96 81 96 85 96 114 97 85 97 115 97 115 98 85 98 110 98 116 99 117 99 118 99 118 100 117 100 119 100 119 101 117 101 120 101 120 102 117 102 121 102 120 103 121 103 122 103 22 104 21 104 121 104 121 105 21 105 123 105 121 106 123 106 122 106 124 107 125 107 126 107 126 108 125 108 127 108 126 109 127 109 22 109 22 110 127 110 128 110 22 111 128 111 20 111 129 112 130 112 131 112 131 113 130 113 43 113 131 114 43 114 132 114 129 115 133 115 130 115 130 116 133 116 134 116 130 117 134 117 126 117 126 118 134 118 135 118 126 119 135 119 124 119 47 120 136 120 137 120 137 121 138 121 47 121 47 122 138 122 139 122 47 123 139 123 43 123 43 124 139 124 140 124 43 125 140 125 132 125 136 126 47 126 141 126 141 127 47 127 53 127 141 128 53 128 142 128 19 129 18 129 53 129 53 130 18 130 143 130 53 131 143 131 142 131 144 132 145 132 98 132 98 133 145 133 146 133 98 134 146 134 19 134 19 135 146 135 147 135 19 136 147 136 17 136 148 137 149 137 16 137 16 138 149 138 150 138 150 139 151 139 16 139 16 140 151 140 152 140 16 141 152 141 98 141 98 142 152 142 153 142 98 143 153 143 144 143 154 144 155 144 148 144 148 145 155 145 156 145 157 146 158 146 159 146 159 147 158 147 160 147 161 148 162 148 163 148 163 149 162 149 164 149 164 150 162 150 165 150 164 151 165 151 156 151 156 152 165 152 166 152 156 153 166 153 148 153 148 154 166 154 167 154 148 155 167 155 149 155 168 156 22 156 169 156 169 157 22 157 170 157 169 158 170 158 171 158 171 159 170 159 172 159 173 160 174 160 126 160 126 161 174 161 175 161 126 162 175 162 176 162 176 163 175 163 177 163 176 164 177 164 178 164 168 165 179 165 22 165 22 166 179 166 180 166 22 167 180 167 126 167 126 168 180 168 181 168 126 169 181 169 173 169 178 170 182 170 183 170 183 171 182 171 184 171 183 172 184 172 185 172 185 173 184 173 186 173 185 174 186 174 187 174 187 175 186 175 188 175 188 176 186 176 189 176 188 177 189 177 190 177 190 178 189 178 191 178 190 179 191 179 192 179 192 180 191 180 193 180 192 181 193 181 194 181 195 182 196 182 148 182 196 183 197 183 148 183 148 184 197 184 159 184 148 185 159 185 154 185 154 186 159 186 160 186 198 187 199 187 16 187 16 188 199 188 200 188 16 189 200 189 148 189 148 190 200 190 201 190 148 191 201 191 195 191 202 192 15 192 203 192 203 193 15 193 204 193 203 194 204 194 205 194 202 195 206 195 15 195 15 196 206 196 207 196 15 197 207 197 16 197 16 198 207 198 208 198 16 199 208 199 198 199 197 200 209 200 159 200 159 201 209 201 210 201 159 202 210 202 211 202 211 203 210 203 212 203 211 204 212 204 213 204 213 205 212 205 205 205 213 206 205 206 214 206 214 207 205 207 204 207 13 208 12 208 16 208 16 209 12 209 215 209 16 210 215 210 14 210 216 211 217 211 107 211 107 212 217 212 218 212 107 213 218 213 13 213 13 214 218 214 219 214 13 215 219 215 11 215 220 216 85 216 88 216 88 217 85 217 87 217 88 218 87 218 89 218 220 219 221 219 85 219 85 220 221 220 222 220 85 221 222 221 107 221 107 222 222 222 223 222 107 223 223 223 216 223 224 224 225 224 62 224 95 225 74 225 93 225 93 226 74 226 62 226 93 216 62 216 226 216 226 227 62 227 225 227 64 228 4 228 5 228 64 229 5 229 62 229 62 230 5 230 7 230 62 231 7 231 224 231 227 232 228 232 51 232 51 117 228 117 0 117 51 233 0 233 64 233 64 234 0 234 2 234 64 235 2 235 4 235 227 236 51 236 229 236 229 237 51 237 53 237 229 238 53 238 230 238 230 239 53 239 231 239 230 240 231 240 232 240 233 241 234 241 25 241 25 242 234 242 235 242 25 243 235 243 231 243 231 244 235 244 236 244 231 245 236 245 232 245 24 246 31 246 25 246 25 247 31 247 237 247 25 248 237 248 233 248 10 249 9 249 27 249 9 250 238 250 27 250 27 251 238 251 239 251 27 252 239 252 240 252 240 253 241 253 27 253 27 254 241 254 242 254 27 255 242 255 29 255 243 256 244 256 130 256 130 257 244 257 245 257 130 258 245 258 10 258 10 259 245 259 246 259 10 260 246 260 8 260 178 113 183 113 176 113 176 261 183 261 247 261 176 262 247 262 248 262 248 263 249 263 176 263 176 264 249 264 250 264 176 265 250 265 251 265 251 266 250 266 252 266 251 267 252 267 253 267 193 268 172 268 194 268 194 269 172 269 170 269 194 270 170 270 254 270 254 271 170 271 255 271 256 272 257 272 258 272 258 273 257 273 259 273 258 274 259 274 170 274 170 275 259 275 260 275 170 276 260 276 255 276 121 277 261 277 262 277 262 278 263 278 121 278 121 279 263 279 264 279 121 280 264 280 258 280 258 281 264 281 265 281 258 282 265 282 256 282 163 283 266 283 161 283 161 284 266 284 267 284 161 285 267 285 116 285 116 286 267 286 268 286 116 287 268 287 117 287 117 58 268 58 269 58 117 288 269 288 270 288 270 289 271 289 117 289 117 290 271 290 272 290 117 291 272 291 121 291 121 292 272 292 273 292 121 293 273 293 274 293 261 294 275 294 276 294 276 295 275 295 277 295 276 296 277 296 278 296 278 297 277 297 279 297 278 298 279 298 280 298 280 299 279 299 281 299 280 300 281 300 282 300 282 301 281 301 283 301 282 302 283 302 284 302 274 303 285 303 121 303 121 304 285 304 286 304 121 305 286 305 261 305 261 306 286 306 287 306 261 307 287 307 275 307 258 308 288 308 289 308 289 309 290 309 258 309 258 310 290 310 291 310 258 311 291 311 121 311 121 312 291 312 292 312 121 313 292 313 293 313 293 314 294 314 121 314 121 315 294 315 295 315 121 316 295 316 22 316 22 317 295 317 296 317 296 318 297 318 22 318 22 319 297 319 298 319 22 320 298 320 170 320 170 321 298 321 299 321 170 322 299 322 300 322 300 323 301 323 170 323 170 324 301 324 302 324 170 325 302 325 258 325 258 326 302 326 303 326 258 327 303 327 288 327 113 328 96 328 81 328 81 329 96 329 98 329 81 330 98 330 71 330 71 330 98 330 19 330 71 331 19 331 69 331 69 332 19 332 59 332 304 333 305 333 130 333 130 334 305 334 251 334 130 335 251 335 243 335 243 336 251 336 253 336 305 337 306 337 251 337 251 338 306 338 307 338 251 339 307 339 308 339 309 340 310 340 176 340 176 341 310 341 311 341 176 342 311 342 126 342 126 343 311 343 312 343 126 344 312 344 313 344 313 345 314 345 126 345 126 346 314 346 315 346 126 347 315 347 130 347 130 348 315 348 316 348 130 349 316 349 304 349 308 350 317 350 251 350 251 351 317 351 318 351 251 352 318 352 176 352 176 353 318 353 319 353 176 354 319 354 309 354 320 355 321 355 53 355 322 356 323 356 231 356 324 357 325 357 25 357 25 358 325 358 326 358 25 359 326 359 47 359 47 360 326 360 327 360 47 361 327 361 328 361 53 362 321 362 231 362 231 363 321 363 329 363 231 364 329 364 322 364 328 365 330 365 47 365 47 366 330 366 331 366 47 367 331 367 53 367 53 368 331 368 332 368 53 369 332 369 320 369 323 370 333 370 231 370 231 371 333 371 334 371 231 372 334 372 25 372 25 373 334 373 335 373 25 374 335 374 324 374 336 375 337 375 27 375 337 376 338 376 27 376 27 377 338 377 339 377 27 378 339 378 10 378 10 379 339 379 340 379 10 380 340 380 341 380 341 381 342 381 10 381 10 382 342 382 343 382 10 383 343 383 130 383 130 384 343 384 344 384 130 385 344 385 345 385 346 386 43 386 347 386 347 387 43 387 130 387 347 388 130 388 348 388 348 389 130 389 345 389 346 390 349 390 43 390 43 391 349 391 350 391 43 392 350 392 27 392 27 393 350 393 351 393 27 394 351 394 336 394 352 395 353 395 354 395 355 396 356 396 357 396 357 397 356 397 358 397 357 398 358 398 359 398 359 399 358 399 360 399 359 400 360 400 361 400 361 401 360 401 362 401 361 402 362 402 363 402 363 403 362 403 364 403 363 404 364 404 365 404 365 405 364 405 366 405 365 406 366 406 367 406 367 407 366 407 368 407 367 408 368 408 369 408 369 409 368 409 370 409 369 410 370 410 371 410 371 411 370 411 372 411 373 412 374 412 375 412 375 406 374 406 376 406 375 406 376 406 377 406 377 413 376 413 378 413 377 414 378 414 379 414 379 415 378 415 380 415 379 416 380 416 381 416 381 417 380 417 382 417 381 418 382 418 383 418 383 406 382 406 384 406 383 406 384 406 385 406 385 406 384 406 386 406 385 406 386 406 387 406 387 419 386 419 388 419 387 420 388 420 389 420 389 421 388 421 390 421 389 422 390 422 391 422 391 423 390 423 392 423 391 424 392 424 393 424 393 425 392 425 394 425 393 426 394 426 395 426 395 427 394 427 396 427 395 428 396 428 397 428 397 429 396 429 398 429 397 430 398 430 355 430 355 431 398 431 399 431 355 406 399 406 356 406 400 432 401 432 402 432 402 433 401 433 403 433 402 434 403 434 404 434 404 435 403 435 405 435 405 436 403 436 406 436 405 437 406 437 407 437 407 438 406 438 408 438 407 439 408 439 409 439 409 440 408 440 6 440 409 441 6 441 410 441 410 442 6 442 3 442 410 443 3 443 411 443 411 444 3 444 1 444 411 445 1 445 412 445 412 446 1 446 413 446 412 447 413 447 414 447 414 448 413 448 415 448 414 449 415 449 416 449 416 450 415 450 417 450 416 451 417 451 418 451 418 452 417 452 419 452 418 453 419 453 420 453 354 454 421 454 352 454 352 455 421 455 422 455 352 456 422 456 423 456 423 406 422 406 424 406 423 406 424 406 425 406 425 457 424 457 426 457 425 458 426 458 427 458 427 459 426 459 428 459 427 406 428 406 429 406 429 460 428 460 430 460 429 461 430 461 431 461 431 462 430 462 432 462 431 406 432 406 433 406 433 463 432 463 434 463 433 464 434 464 435 464 435 465 434 465 436 465 435 406 436 406 437 406 437 466 436 466 438 466 437 467 438 467 439 467 439 468 438 468 440 468 439 469 440 469 441 469 441 470 440 470 442 470 441 471 442 471 443 471 443 406 442 406 401 406 443 406 401 406 444 406 444 406 401 406 400 406 419 472 445 472 420 472 420 406 445 406 446 406 420 473 446 473 447 473 447 474 446 474 448 474 447 475 448 475 449 475 449 476 448 476 450 476 449 406 450 406 451 406 451 477 450 477 452 477 451 478 452 478 453 478 453 479 452 479 454 479 453 480 454 480 455 480 455 481 454 481 456 481 455 482 456 482 457 482 457 483 456 483 458 483 457 484 458 484 459 484 459 406 458 406 460 406 459 485 460 485 461 485 461 486 460 486 462 486 461 406 462 406 463 406 463 487 462 487 464 487 463 488 464 488 465 488 465 489 464 489 466 489 465 406 466 406 467 406 467 490 466 490 468 490 467 491 468 491 469 491 469 406 468 406 470 406 469 406 470 406 373 406 373 492 470 492 471 492 373 493 471 493 374 493 228 494 413 494 0 494 0 495 413 495 1 495 408 496 224 496 6 496 6 497 224 497 7 497 472 498 473 498 67 498 67 499 473 499 68 499 474 500 472 500 66 500 66 500 472 500 67 500 475 501 409 501 476 501 476 502 409 502 410 502 229 503 415 503 227 503 227 504 415 504 413 504 227 505 413 505 228 505 476 506 410 506 477 506 477 507 410 507 411 507 478 508 474 508 65 508 65 509 474 509 66 509 406 510 225 510 408 510 408 511 225 511 224 511 68 512 473 512 52 512 52 513 473 513 479 513 52 514 479 514 54 514 412 515 480 515 411 515 411 516 480 516 477 516 481 517 482 517 474 517 474 518 482 518 472 518 474 519 478 519 483 519 484 520 485 520 486 520 486 521 485 521 479 521 486 522 479 522 487 522 487 520 479 520 482 520 482 523 479 523 473 523 482 524 473 524 472 524 488 525 481 525 489 525 489 526 481 526 474 526 489 520 474 520 490 520 490 520 474 520 483 520 490 520 483 520 491 520 492 527 407 527 475 527 475 528 407 528 409 528 483 529 478 529 63 529 63 530 478 530 65 530 485 531 55 531 479 531 479 532 55 532 54 532 232 533 417 533 230 533 230 534 417 534 415 534 230 535 415 535 229 535 226 536 225 536 403 536 403 537 225 537 406 537 491 538 483 538 61 538 61 539 483 539 63 539 414 540 493 540 412 540 412 541 493 541 480 541 494 542 495 542 321 542 321 543 495 543 329 543 496 544 405 544 492 544 492 545 405 545 407 545 497 546 498 546 499 546 500 547 501 547 499 547 499 548 501 548 502 548 503 549 499 549 504 549 504 550 499 550 505 550 506 551 477 551 504 551 507 552 508 552 504 552 509 553 510 553 499 553 506 554 504 554 511 554 507 555 504 555 512 555 513 556 514 556 515 556 508 557 516 557 504 557 504 558 516 558 514 558 504 559 514 559 517 559 517 560 514 560 513 560 503 561 518 561 499 561 499 562 518 562 519 562 499 563 519 563 520 563 521 564 522 564 498 564 498 565 522 565 523 565 498 566 524 566 525 566 505 567 526 567 504 567 504 568 526 568 527 568 504 569 527 569 496 569 510 570 528 570 499 570 499 571 528 571 529 571 499 572 529 572 530 572 502 573 531 573 499 573 499 574 531 574 532 574 499 575 532 575 497 575 477 576 533 576 504 576 504 577 533 577 534 577 504 578 534 578 493 578 535 579 536 579 515 579 515 580 536 580 537 580 515 581 537 581 513 581 530 582 538 582 499 582 499 583 538 583 539 583 499 584 539 584 540 584 540 585 541 585 499 585 499 586 541 586 542 586 499 587 542 587 543 587 499 588 544 588 545 588 546 589 499 589 547 589 547 590 499 590 548 590 546 591 549 591 499 591 499 592 549 592 550 592 499 593 550 593 500 593 523 594 551 594 498 594 498 595 551 595 552 595 498 596 552 596 524 596 525 597 553 597 498 597 498 598 553 598 554 598 498 599 554 599 499 599 493 600 555 600 504 600 504 601 555 601 556 601 504 602 556 602 557 602 520 603 558 603 499 603 499 604 558 604 559 604 499 605 559 605 509 605 545 606 560 606 499 606 499 607 560 607 561 607 499 608 561 608 562 608 562 609 563 609 499 609 499 610 563 610 564 610 499 611 564 611 565 611 566 612 567 612 568 612 567 613 569 613 568 613 568 614 569 614 570 614 568 615 570 615 571 615 571 616 570 616 572 616 496 617 492 617 504 617 504 618 492 618 475 618 504 619 475 619 511 619 543 620 573 620 499 620 499 621 573 621 574 621 499 622 574 622 544 622 565 623 575 623 499 623 499 624 575 624 576 624 499 625 576 625 548 625 521 626 498 626 568 626 568 627 498 627 577 627 568 628 577 628 566 628 557 629 578 629 504 629 504 630 578 630 579 630 504 631 579 631 512 631 580 632 581 632 515 632 515 633 581 633 582 633 515 634 582 634 535 634 56 635 55 635 484 635 484 635 55 635 485 635 583 636 494 636 320 636 320 637 494 637 321 637 235 638 419 638 236 638 236 639 419 639 417 639 236 640 417 640 232 640 322 641 329 641 584 641 584 642 329 642 495 642 61 643 60 643 491 643 491 644 60 644 490 644 226 645 403 645 93 645 93 645 403 645 401 645 93 645 401 645 88 645 88 645 401 645 220 645 416 646 585 646 414 646 414 647 585 647 493 647 586 520 587 520 588 520 583 648 589 648 586 648 590 649 591 649 592 649 592 520 591 520 588 520 592 650 588 650 593 650 594 651 595 651 596 651 596 652 595 652 588 652 596 520 588 520 597 520 597 520 588 520 591 520 595 653 584 653 588 653 588 654 584 654 495 654 588 655 495 655 586 655 586 656 495 656 494 656 586 657 494 657 583 657 489 658 490 658 73 658 73 659 490 659 60 659 69 660 59 660 481 660 481 661 59 661 482 661 598 662 404 662 496 662 496 663 404 663 405 663 486 664 57 664 484 664 484 665 57 665 56 665 589 666 583 666 332 666 332 667 583 667 320 667 584 668 595 668 322 668 322 669 595 669 323 669 234 670 445 670 235 670 235 671 445 671 419 671 482 672 59 672 487 672 487 673 59 673 58 673 505 674 402 674 598 674 598 675 402 675 404 675 221 676 220 676 442 676 442 677 220 677 401 677 418 678 557 678 416 678 416 679 557 679 585 679 333 680 323 680 594 680 594 681 323 681 595 681 488 682 489 682 72 682 72 683 489 683 73 683 58 684 57 684 487 684 487 685 57 685 486 685 69 686 481 686 70 686 70 687 481 687 488 687 70 688 488 688 72 688 599 689 400 689 505 689 505 690 400 690 402 690 554 520 553 520 499 520 499 691 553 691 505 691 526 692 505 692 527 692 527 693 505 693 496 693 444 694 553 694 443 694 443 695 553 695 525 695 74 696 600 696 75 696 75 697 600 697 601 697 75 698 601 698 76 698 553 699 444 699 599 699 599 700 444 700 400 700 586 701 589 701 331 701 331 702 589 702 332 702 446 703 445 703 233 703 233 704 445 704 234 704 594 705 596 705 333 705 333 706 596 706 334 706 601 707 602 707 76 707 76 708 602 708 77 708 603 709 441 709 525 709 525 710 441 710 443 710 397 711 573 711 395 711 395 711 573 711 543 711 604 712 600 712 95 712 95 713 600 713 74 713 222 714 221 714 440 714 440 715 221 715 442 715 605 716 606 716 91 716 91 716 606 716 92 716 606 717 607 717 92 717 92 717 607 717 94 717 142 718 608 718 141 718 141 719 608 719 609 719 610 720 608 720 143 720 143 720 608 720 142 720 420 721 578 721 418 721 418 722 578 722 557 722 611 723 78 723 602 723 602 724 78 724 77 724 612 725 613 725 147 725 147 726 613 726 17 726 17 727 613 727 18 727 18 728 613 728 610 728 18 729 610 729 143 729 447 730 579 730 420 730 420 731 579 731 578 731 511 520 475 520 506 520 506 732 475 732 477 732 533 733 477 733 534 733 534 734 477 734 493 734 367 735 575 735 365 735 365 735 575 735 565 735 541 736 393 736 543 736 543 737 393 737 395 737 530 520 529 520 541 520 530 520 541 520 538 520 538 738 541 738 614 738 538 520 614 520 615 520 616 739 617 739 618 739 601 520 600 520 604 520 607 520 606 520 604 520 604 740 606 740 618 740 619 520 620 520 616 520 602 520 601 520 611 520 611 520 601 520 604 520 611 741 604 741 621 741 621 742 604 742 618 742 606 743 605 743 618 743 618 744 605 744 622 744 618 745 622 745 616 745 616 520 622 520 623 520 616 746 623 746 619 746 607 747 604 747 94 747 94 747 604 747 95 747 551 748 439 748 603 748 603 749 439 749 441 749 622 750 605 750 90 750 90 750 605 750 91 750 591 751 324 751 597 751 597 752 324 752 335 752 325 753 324 753 590 753 590 754 324 754 591 754 330 755 328 755 587 755 587 756 328 756 588 756 330 757 587 757 331 757 331 758 587 758 586 758 141 759 609 759 136 759 136 760 609 760 624 760 136 761 624 761 137 761 596 762 597 762 334 762 334 763 597 763 335 763 237 764 448 764 233 764 233 765 448 765 446 765 425 766 566 766 423 766 423 767 566 767 577 767 439 768 551 768 437 768 437 769 551 769 523 769 457 770 580 770 455 770 455 771 580 771 515 771 512 772 579 772 507 772 507 773 579 773 508 773 549 774 546 774 500 774 500 775 546 775 547 775 500 776 547 776 548 776 625 777 363 777 565 777 565 778 363 778 365 778 563 779 562 779 564 779 564 520 562 520 565 520 359 780 560 780 357 780 357 781 560 781 545 781 355 782 626 782 397 782 397 783 626 783 573 783 222 784 440 784 223 784 223 785 440 785 438 785 223 786 438 786 216 786 627 787 628 787 110 787 110 788 628 788 115 788 623 789 622 789 89 789 89 790 622 790 90 790 588 791 328 791 593 791 593 792 328 792 327 792 629 793 630 793 631 793 629 794 631 794 612 794 632 795 633 795 613 795 613 796 633 796 634 796 613 797 634 797 635 797 613 798 636 798 637 798 637 799 638 799 613 799 613 800 638 800 639 800 613 801 639 801 640 801 613 802 641 802 642 802 630 803 643 803 631 803 631 804 643 804 644 804 631 805 644 805 645 805 646 806 631 806 647 806 647 807 631 807 648 807 612 808 631 808 613 808 613 809 631 809 649 809 613 810 649 810 632 810 640 811 650 811 613 811 613 812 650 812 651 812 613 813 651 813 641 813 642 814 652 814 613 814 613 815 652 815 653 815 613 816 653 816 654 816 655 817 656 817 657 817 657 818 656 818 658 818 657 819 658 819 646 819 646 820 658 820 659 820 646 821 659 821 631 821 635 822 660 822 613 822 613 823 660 823 661 823 613 824 661 824 662 824 654 825 663 825 613 825 613 826 663 826 664 826 613 827 664 827 624 827 609 828 608 828 624 828 624 829 608 829 610 829 624 830 610 830 613 830 645 831 665 831 631 831 631 832 665 832 666 832 631 833 666 833 648 833 662 834 667 834 613 834 613 835 667 835 668 835 613 836 668 836 636 836 79 837 78 837 621 837 621 838 78 838 611 838 146 839 629 839 147 839 147 840 629 840 612 840 497 841 532 841 500 841 500 842 532 842 531 842 500 843 531 843 502 843 497 844 352 844 577 844 577 845 352 845 423 845 521 846 435 846 523 846 523 847 435 847 437 847 453 848 455 848 669 848 669 849 455 849 515 849 449 850 670 850 447 850 447 851 670 851 579 851 369 852 548 852 367 852 367 853 548 853 575 853 626 854 355 854 545 854 545 855 355 855 357 855 671 856 391 856 541 856 541 857 391 857 393 857 86 858 619 858 87 858 87 859 619 859 623 859 87 860 623 860 89 860 628 861 672 861 115 861 115 862 672 862 114 862 592 863 326 863 590 863 590 864 326 864 325 864 327 865 326 865 593 865 593 866 326 866 592 866 138 867 137 867 664 867 664 868 137 868 624 868 33 869 450 869 31 869 31 870 450 870 448 870 31 871 448 871 237 871 618 872 80 872 621 872 621 873 80 873 79 873 427 874 673 874 425 874 425 875 673 875 566 875 571 876 572 876 568 876 568 877 572 877 521 877 431 878 572 878 429 878 429 879 572 879 570 879 459 880 581 880 457 880 457 881 581 881 580 881 461 882 582 882 459 882 459 883 582 883 581 883 508 406 669 406 515 406 500 884 674 884 549 884 549 885 674 885 675 885 562 886 361 886 625 886 625 887 361 887 363 887 361 888 562 888 359 888 359 889 562 889 560 889 257 890 399 890 259 890 259 891 399 891 398 891 259 892 398 892 260 892 260 893 398 893 255 893 255 894 398 894 396 894 254 895 255 895 394 895 394 896 255 896 396 896 676 897 627 897 111 897 111 898 627 898 110 898 217 899 216 899 436 899 436 900 216 900 438 900 620 901 619 901 84 901 84 902 619 902 86 902 672 498 677 498 114 498 114 499 677 499 113 499 628 520 627 520 678 520 678 520 627 520 676 520 678 519 676 519 679 519 680 903 681 903 682 903 682 904 681 904 683 904 682 905 683 905 678 905 678 906 683 906 684 906 685 907 683 907 686 907 686 908 683 908 681 908 686 520 681 520 687 520 687 909 681 909 688 909 684 910 677 910 678 910 678 911 677 911 672 911 678 912 672 912 628 912 689 913 629 913 145 913 145 914 629 914 146 914 674 915 500 915 690 915 690 916 500 916 502 916 691 917 353 917 497 917 497 918 353 918 352 918 692 919 433 919 521 919 521 920 433 920 435 920 673 921 427 921 570 921 570 922 427 922 429 922 463 923 535 923 461 923 461 924 535 924 582 924 379 925 558 925 377 925 377 925 558 925 520 925 508 926 451 926 669 926 669 927 451 927 453 927 451 928 508 928 449 928 449 929 508 929 670 929 693 930 549 930 371 930 371 931 549 931 675 931 371 932 693 932 369 932 369 933 693 933 548 933 280 934 368 934 278 934 278 935 368 935 366 935 278 936 366 936 276 936 276 937 366 937 364 937 276 938 364 938 261 938 261 939 364 939 362 939 261 940 362 940 262 940 538 941 389 941 671 941 671 942 389 942 391 942 254 943 394 943 194 943 194 944 394 944 392 944 194 945 392 945 192 945 616 946 620 946 83 946 83 947 620 947 84 947 694 948 695 948 50 948 50 948 695 948 23 948 139 949 138 949 663 949 663 950 138 950 664 950 140 951 139 951 654 951 654 952 139 952 663 952 152 953 665 953 153 953 153 954 665 954 645 954 153 955 645 955 144 955 152 956 151 956 665 956 665 956 151 956 666 956 23 957 695 957 24 957 24 958 695 958 696 958 24 959 696 959 30 959 35 960 452 960 33 960 33 961 452 961 450 961 618 962 617 962 80 962 80 962 617 962 82 962 691 963 353 963 502 963 502 964 353 964 690 964 213 965 214 965 422 965 422 966 214 966 424 966 214 967 204 967 424 967 424 968 204 968 426 968 211 969 213 969 421 969 421 970 213 970 422 970 433 971 692 971 431 971 431 972 692 972 572 972 381 973 559 973 379 973 379 974 559 974 558 974 697 975 375 975 520 975 520 976 375 976 377 976 242 977 458 977 29 977 29 978 458 978 456 978 29 979 456 979 38 979 36 980 38 980 454 980 454 981 38 981 456 981 353 520 354 520 690 520 690 982 354 982 698 982 690 983 698 983 674 983 674 984 698 984 699 984 674 985 699 985 675 985 675 986 699 986 700 986 675 987 700 987 371 987 371 988 700 988 372 988 360 989 263 989 362 989 362 990 263 990 262 990 264 991 358 991 265 991 265 992 358 992 356 992 265 993 356 993 256 993 263 994 360 994 264 994 264 995 360 995 358 995 256 996 356 996 257 996 257 997 356 997 399 997 616 998 83 998 617 998 617 999 83 999 82 999 679 1000 676 1000 112 1000 112 1001 676 1001 111 1001 217 1002 436 1002 218 1002 218 1003 436 1003 434 1003 218 1004 434 1004 219 1004 113 1005 677 1005 96 1005 96 513 677 513 684 513 96 1006 684 1006 97 1006 112 1007 109 1007 679 1007 679 1008 109 1008 678 1008 683 1009 102 1009 684 1009 684 1010 102 1010 97 1010 132 1011 140 1011 701 1011 701 1012 140 1012 654 1012 702 1013 666 1013 150 1013 150 1014 666 1014 151 1014 703 1015 32 1015 696 1015 696 1016 32 1016 30 1016 144 1017 645 1017 145 1017 145 1018 645 1018 689 1018 14 1019 428 1019 15 1019 15 1020 428 1020 426 1020 15 1021 426 1021 204 1021 518 520 503 520 519 520 519 520 503 520 520 520 465 1022 704 1022 463 1022 463 1023 704 1023 535 1023 387 1024 529 1024 385 1024 385 1025 529 1025 528 1025 452 1026 35 1026 454 1026 454 1027 35 1027 36 1027 282 1028 370 1028 280 1028 280 1029 370 1029 368 1029 390 1030 190 1030 392 1030 392 1031 190 1031 192 1031 529 1032 387 1032 538 1032 538 1033 387 1033 389 1033 682 1034 678 1034 108 1034 108 1034 678 1034 109 1034 705 520 706 520 707 520 708 520 709 520 705 520 710 520 711 520 712 520 712 520 711 520 707 520 712 520 707 520 713 520 703 520 696 520 707 520 707 520 696 520 695 520 707 1035 695 1035 705 1035 705 1036 695 1036 694 1036 705 520 694 520 708 520 714 520 703 520 715 520 715 520 703 520 707 520 715 1037 707 1037 716 1037 716 520 707 520 711 520 708 1038 694 1038 49 1038 49 1039 694 1039 50 1039 709 1040 708 1040 48 1040 48 1041 708 1041 49 1041 120 1042 122 1042 632 1042 632 1043 122 1043 633 1043 34 1044 32 1044 714 1044 714 1045 32 1045 703 1045 211 1046 421 1046 159 1046 159 1047 421 1047 354 1047 159 1048 354 1048 157 1048 11 1049 219 1049 432 1049 432 1050 219 1050 434 1050 11 1051 432 1051 12 1051 12 1052 432 1052 430 1052 12 1053 430 1053 215 1053 14 1054 215 1054 428 1054 428 1055 215 1055 430 1055 241 1056 460 1056 242 1056 242 1057 460 1057 458 1057 240 1058 462 1058 241 1058 241 1059 462 1059 460 1059 239 1060 464 1060 240 1060 240 1061 464 1061 462 1061 383 1062 717 1062 381 1062 381 1063 717 1063 559 1063 717 1064 383 1064 528 1064 528 1065 383 1065 385 1065 503 1066 373 1066 697 1066 697 1067 373 1067 375 1067 718 1068 700 1068 719 1068 719 1069 700 1069 699 1069 700 1070 718 1070 372 1070 372 1071 718 1071 720 1071 282 1072 372 1072 370 1072 721 1073 722 1073 288 1073 288 1074 722 1074 289 1074 723 1075 721 1075 303 1075 303 1076 721 1076 288 1076 724 1077 723 1077 302 1077 302 1078 723 1078 303 1078 725 1079 724 1079 301 1079 301 1080 724 1080 302 1080 172 1081 726 1081 171 1081 171 1082 726 1082 727 1082 171 1083 727 1083 169 1083 728 1084 726 1084 193 1084 193 1085 726 1085 172 1085 103 1086 102 1086 685 1086 685 1086 102 1086 683 1086 99 1087 100 1087 681 1087 681 1088 100 1088 688 1088 132 1089 701 1089 131 1089 131 1090 701 1090 641 1090 131 1091 641 1091 129 1091 167 1092 657 1092 149 1092 149 1093 657 1093 702 1093 149 1094 702 1094 150 1094 729 1095 633 1095 123 1095 123 1095 633 1095 122 1095 730 1096 698 1096 157 1096 157 1097 698 1097 354 1097 239 1098 238 1098 464 1098 464 1099 238 1099 466 1099 467 1100 731 1100 465 1100 465 1101 731 1101 704 1101 249 1102 378 1102 250 1102 250 1103 378 1103 376 1103 248 1104 380 1104 249 1104 249 1105 380 1105 378 1105 250 1106 376 1106 252 1106 252 1107 376 1107 374 1107 252 1108 374 1108 253 1108 732 1109 733 1109 699 1109 699 1110 733 1110 719 1110 372 1111 720 1111 282 1111 734 1112 735 1112 281 1112 281 1113 735 1113 283 1113 736 1114 734 1114 279 1114 279 1115 734 1115 281 1115 737 1116 736 1116 277 1116 277 1117 736 1117 279 1117 738 672 737 672 275 672 275 1118 737 1118 277 1118 739 1119 738 1119 287 1119 287 1120 738 1120 275 1120 740 1121 739 1121 286 1121 286 1122 739 1122 287 1122 290 1123 289 1123 741 1123 741 1124 289 1124 722 1124 742 1125 725 1125 300 1125 300 1126 725 1126 301 1126 388 1127 188 1127 390 1127 390 1128 188 1128 190 1128 680 682 682 682 106 682 106 683 682 683 108 683 688 1074 100 1074 687 1074 687 1129 100 1129 101 1129 705 1130 709 1130 46 1130 46 1131 709 1131 48 1131 706 1132 705 1132 45 1132 45 1133 705 1133 46 1133 707 1134 706 1134 44 1134 44 1135 706 1135 45 1135 685 1077 686 1077 103 1077 103 1136 686 1136 104 1136 686 1137 687 1137 104 1137 104 1076 687 1076 101 1076 743 1138 744 1138 199 1138 199 1139 744 1139 200 1139 744 1140 745 1140 200 1140 200 1141 745 1141 201 1141 127 1142 125 1142 667 1142 667 1143 125 1143 668 1143 120 1144 632 1144 119 1144 119 1145 632 1145 649 1145 119 1146 649 1146 118 1146 714 1147 715 1147 34 1147 34 1148 715 1148 37 1148 746 1149 747 1149 203 1149 203 1150 747 1150 202 1150 748 1151 746 1151 205 1151 205 1112 746 1112 203 1112 749 1152 748 1152 212 1152 212 1153 748 1153 205 1153 750 1154 749 1154 210 1154 210 1155 749 1155 212 1155 747 1156 751 1156 202 1156 202 1157 751 1157 206 1157 704 1158 731 1158 517 1158 247 1159 382 1159 248 1159 248 1160 382 1160 380 1160 253 1161 374 1161 243 1161 243 1162 374 1162 471 1162 243 1163 471 1163 244 1163 517 1164 469 1164 503 1164 503 1165 469 1165 373 1165 711 1166 710 1166 40 1166 40 1167 710 1167 28 1167 716 1168 711 1168 39 1168 39 1169 711 1169 40 1169 715 1170 716 1170 37 1170 37 1171 716 1171 39 1171 752 1172 267 1172 269 1172 753 1173 284 1173 282 1173 157 1174 158 1174 730 1174 730 1175 158 1175 754 1175 730 1176 754 1176 733 1176 733 1177 754 1177 755 1177 733 1178 755 1178 719 1178 719 1179 755 1179 756 1179 752 1180 269 1180 757 1180 757 1181 269 1181 753 1181 757 1182 753 1182 758 1182 758 1183 753 1183 282 1183 758 1184 282 1184 759 1184 759 1185 282 1185 720 1185 759 1186 720 1186 756 1186 756 1187 720 1187 718 1187 756 1188 718 1188 719 1188 760 1149 284 1149 735 1149 735 1189 284 1189 283 1189 761 1190 762 1190 291 1190 291 1191 762 1191 292 1191 741 1192 761 1192 290 1192 290 1193 761 1193 291 1193 723 1194 724 1194 725 1194 722 1195 721 1195 723 1195 763 1196 764 1196 765 1196 766 520 767 520 768 520 768 520 767 520 765 520 768 520 765 520 769 520 769 520 765 520 764 520 723 1197 725 1197 765 1197 765 1198 725 1198 742 1198 765 1199 742 1199 763 1199 741 520 722 520 761 520 761 520 722 520 723 520 761 1200 723 1200 762 1200 762 1201 723 1201 765 1201 727 1202 770 1202 169 1202 169 1203 770 1203 168 1203 771 1204 728 1204 191 1204 191 1205 728 1205 193 1205 772 1206 773 1206 774 1206 772 1207 774 1207 775 1207 774 1208 776 1208 777 1208 773 1209 778 1209 774 1209 774 1210 778 1210 779 1210 774 1211 779 1211 770 1211 728 520 771 520 726 520 726 520 771 520 774 520 726 520 774 520 727 520 727 520 774 520 770 520 780 1212 775 1212 781 1212 781 520 775 520 774 520 781 520 774 520 782 520 782 1213 774 1213 777 1213 99 1214 681 1214 105 1214 105 687 681 687 680 687 105 1215 680 1215 106 1215 783 1216 784 1216 349 1216 349 1217 784 1217 350 1217 784 1218 785 1218 350 1218 350 1219 785 1219 351 1219 133 1220 129 1220 786 1220 786 1221 129 1221 641 1221 165 1222 655 1222 166 1222 166 1223 655 1223 657 1223 166 1224 657 1224 167 1224 787 1225 743 1225 198 1225 198 1226 743 1226 199 1226 745 1227 788 1227 201 1227 201 1228 788 1228 195 1228 20 1229 128 1229 661 1229 661 1230 128 1230 662 1230 128 1231 127 1231 662 1231 662 1232 127 1232 667 1232 124 1233 789 1233 125 1233 125 1234 789 1234 668 1234 20 1235 661 1235 21 1235 21 1236 661 1236 729 1236 21 1237 729 1237 123 1237 733 1238 732 1238 730 1238 730 1239 732 1239 698 1239 751 1240 790 1240 206 1240 206 1241 790 1241 207 1241 791 1242 792 1242 160 1242 160 1243 792 1243 154 1243 793 1244 750 1244 209 1244 209 1245 750 1245 210 1245 8 1246 468 1246 9 1246 9 1247 468 1247 466 1247 9 1248 466 1248 238 1248 469 1249 517 1249 467 1249 467 1250 517 1250 731 1250 188 1251 388 1251 187 1251 187 1252 388 1252 386 1252 187 1253 386 1253 185 1253 185 1254 386 1254 384 1254 185 1255 384 1255 183 1255 183 1256 384 1256 382 1256 183 1257 382 1257 247 1257 712 1258 41 1258 710 1258 710 1259 41 1259 26 1259 710 1260 26 1260 28 1260 760 520 735 520 734 520 737 1261 738 1261 794 1261 794 1262 738 1262 739 1262 794 1263 795 1263 760 1263 760 520 734 520 794 520 794 1264 734 1264 736 1264 794 1265 736 1265 737 1265 796 520 797 520 798 520 798 520 797 520 794 520 799 1266 798 1266 800 1266 800 1267 798 1267 794 1267 800 1268 794 1268 740 1268 740 1269 794 1269 739 1269 800 1270 740 1270 285 1270 285 635 740 635 286 635 762 1034 765 1034 292 1034 292 1034 765 1034 293 1034 763 1271 742 1271 299 1271 299 1272 742 1272 300 1272 779 1273 179 1273 770 1273 770 1274 179 1274 168 1274 336 1275 351 1275 801 1275 801 1276 351 1276 785 1276 713 1244 707 1244 42 1244 42 1277 707 1277 44 1277 788 1278 802 1278 195 1278 195 1279 802 1279 196 1279 790 1280 751 1280 747 1280 803 650 802 650 788 650 748 520 749 520 750 520 787 1281 804 1281 790 1281 790 1282 747 1282 788 1282 788 1283 747 1283 746 1283 788 1284 746 1284 748 1284 748 1285 750 1285 788 1285 788 1286 750 1286 793 1286 788 520 793 520 803 520 743 1287 787 1287 744 1287 744 1288 787 1288 790 1288 744 1289 790 1289 745 1289 745 1290 790 1290 788 1290 798 1291 799 1291 273 1291 273 1271 799 1271 274 1271 796 1292 798 1292 272 1292 272 1293 798 1293 273 1293 118 1294 649 1294 116 1294 116 1295 649 1295 805 1295 116 1296 805 1296 161 1296 767 1001 766 1001 294 1001 294 1001 766 1001 295 1001 766 1297 768 1297 295 1297 295 1298 768 1298 296 1298 165 1299 162 1299 655 1299 655 1300 162 1300 656 1300 790 1301 804 1301 207 1301 207 1302 804 1302 208 1302 806 1303 791 1303 158 1303 158 1304 791 1304 160 1304 155 1305 154 1305 807 1305 807 1305 154 1305 792 1305 808 1306 809 1306 337 1306 337 1307 809 1307 338 1307 809 1308 810 1308 338 1308 338 1309 810 1309 339 1309 810 1310 811 1310 339 1310 339 1311 811 1311 340 1311 470 1312 245 1312 471 1312 471 1313 245 1313 244 1313 42 1314 41 1314 713 1314 713 1315 41 1315 712 1315 812 1316 813 1316 755 1316 755 1317 813 1317 756 1317 814 1318 812 1318 754 1318 754 1319 812 1319 755 1319 813 1320 815 1320 756 1320 756 1321 815 1321 759 1321 815 1322 816 1322 759 1322 759 1323 816 1323 758 1323 816 1324 817 1324 758 1324 758 1325 817 1325 757 1325 795 1326 284 1326 760 1326 294 1327 293 1327 767 1327 767 1328 293 1328 765 1328 774 1329 771 1329 189 1329 189 1330 771 1330 191 1330 804 1331 787 1331 208 1331 208 1332 787 1332 198 1332 818 1333 819 1333 820 1333 821 1334 811 1334 810 1334 822 1335 823 1335 824 1335 824 1336 823 1336 818 1336 810 520 809 520 808 520 825 520 824 520 783 520 783 1337 824 1337 818 1337 783 1338 818 1338 784 1338 784 1339 818 1339 820 1339 784 1340 820 1340 785 1340 820 1341 821 1341 785 1341 785 1342 821 1342 810 1342 785 520 810 520 801 520 801 520 810 520 808 520 825 1343 783 1343 346 1343 346 1344 783 1344 349 1344 134 1345 133 1345 639 1345 639 1345 133 1345 786 1345 803 1346 197 1346 802 1346 802 1347 197 1347 196 1347 134 1348 639 1348 135 1348 135 1349 639 1349 789 1349 135 1350 789 1350 124 1350 800 1351 285 1351 799 1351 799 1352 285 1352 274 1352 797 1353 796 1353 271 1353 271 1354 796 1354 272 1354 769 1355 297 1355 768 1355 768 1356 297 1356 296 1356 806 1357 814 1357 158 1357 158 1358 814 1358 754 1358 826 520 807 520 792 520 791 520 806 520 792 520 792 520 806 520 827 520 828 520 826 520 829 520 829 520 826 520 792 520 829 520 792 520 830 520 830 520 792 520 827 520 803 1359 793 1359 197 1359 197 1360 793 1360 209 1360 826 1361 156 1361 807 1361 807 1362 156 1362 155 1362 801 1363 808 1363 336 1363 336 1364 808 1364 337 1364 821 1365 341 1365 811 1365 811 1366 341 1366 340 1366 245 1367 470 1367 246 1367 246 1368 470 1368 468 1368 246 1369 468 1369 8 1369 831 635 832 635 308 635 308 1370 832 1370 317 1370 832 1371 833 1371 317 1371 317 1372 833 1372 318 1372 834 1373 831 1373 307 1373 307 1374 831 1374 308 1374 833 1375 835 1375 318 1375 318 684 835 684 319 684 836 1271 834 1271 306 1271 306 1272 834 1272 307 1272 837 1376 836 1376 305 1376 305 1377 836 1377 306 1377 753 1378 795 1378 284 1378 298 1379 297 1379 764 1379 764 862 297 862 769 862 298 1377 764 1377 299 1377 299 1380 764 1380 763 1380 180 1381 179 1381 778 1381 778 1382 179 1382 779 1382 776 1383 774 1383 186 1383 186 1384 774 1384 189 1384 824 702 825 702 347 702 347 1385 825 1385 346 1385 773 1386 772 1386 181 1386 181 1387 772 1387 173 1387 772 1388 775 1388 173 1388 173 1388 775 1388 174 1388 838 659 839 659 312 659 312 1389 839 1389 313 1389 840 1190 838 1190 311 1190 311 1191 838 1191 312 1191 794 1390 797 1390 270 1390 270 1391 797 1391 271 1391 162 1392 161 1392 656 1392 656 1393 161 1393 805 1393 821 1394 820 1394 341 1394 341 1395 820 1395 342 1395 835 1396 841 1396 319 1396 319 1397 841 1397 309 1397 842 500 837 500 304 500 304 500 837 500 305 500 816 406 815 406 817 406 817 406 815 406 827 406 817 406 827 406 843 406 814 406 806 406 812 406 812 406 806 406 827 406 812 1398 827 1398 813 1398 813 406 827 406 815 406 817 1399 843 1399 757 1399 757 1400 843 1400 752 1400 269 1401 844 1401 753 1401 753 1402 844 1402 795 1402 777 1403 776 1403 184 1403 184 1404 776 1404 186 1404 822 1405 824 1405 348 1405 348 1406 824 1406 347 1406 778 1407 773 1407 180 1407 180 1408 773 1408 181 1408 175 1409 174 1409 780 1409 780 1410 174 1410 775 1410 314 1411 313 1411 845 1411 845 1412 313 1412 839 1412 164 1413 156 1413 828 1413 828 1414 156 1414 826 1414 820 1415 819 1415 342 1415 342 1402 819 1402 343 1402 177 1416 781 1416 178 1416 178 1417 781 1417 782 1417 178 1418 782 1418 182 1418 841 1419 846 1419 309 1419 309 1420 846 1420 310 1420 782 1421 777 1421 182 1421 182 1422 777 1422 184 1422 836 1423 837 1423 842 1423 831 520 834 520 836 520 847 520 848 520 842 520 842 520 848 520 845 520 842 1424 845 1424 839 1424 841 1425 835 1425 842 1425 842 1426 835 1426 833 1426 842 1427 833 1427 836 1427 836 1428 833 1428 832 1428 836 520 832 520 831 520 846 520 841 520 840 520 840 1429 841 1429 842 1429 840 1430 842 1430 838 1430 838 520 842 520 839 520 795 1431 844 1431 794 1431 823 1432 822 1432 345 1432 345 1433 822 1433 348 1433 310 1193 846 1193 311 1193 311 1192 846 1192 840 1192 269 1434 794 1434 270 1434 828 1435 829 1435 164 1435 164 1436 829 1436 163 1436 344 1437 343 1437 818 1437 818 1438 343 1438 819 1438 780 1439 781 1439 175 1439 175 1440 781 1440 177 1440 847 1441 842 1441 316 1441 316 1442 842 1442 304 1442 267 1443 752 1443 827 1443 827 1444 752 1444 843 1444 844 1445 269 1445 794 1445 848 529 847 529 315 529 315 529 847 529 316 529 845 1446 848 1446 314 1446 314 539 848 539 315 539 829 1447 830 1447 163 1447 163 1448 830 1448 266 1448 830 1449 827 1449 266 1449 266 1450 827 1450 267 1450 823 1451 345 1451 818 1451 818 1452 345 1452 344 1452</p>
        </triangles>
      </mesh>
    </geometry>
  </library_geometries>
  <library_visual_scenes>
    <visual_scene id="Scene" name="Scene">
      <node id="Camera" name="Camera" type="NODE">
        <matrix sid="transform">0.6859207 -0.3240135 0.6515582 7.481132 0.7276763 0.3054209 -0.6141704 -6.50764 -4.01133e-9 0.8953956 0.4452714 5.343665 0 0 0 1</matrix>
        <instance_camera url="#Camera-camera"/>
      </node>
      <node id="Lamp" name="Lamp" type="NODE">
        <matrix sid="transform">-0.2908646 -0.7711008 0.5663933 4.076245 0.9551712 -0.1998833 0.2183912 1.005454 -0.05518904 0.6045247 0.7946723 5.903862 0 0 0 1</matrix>
        <instance_light url="#Lamp-light"/>
      </node>
      <node id="Link6" name="Link6" type="NODE">
        <matrix sid="transform">1 0 0 0 0 1 0 0 0 0 1 0 0 0 0 1</matrix>
        <instance_geometry url="#Link6_001-mesh" name="Link6">
          <bind_material>
            <technique_common>
              <instance_material symbol="link_01_part_000_mtl_001_008-material" target="#link_01_part_000_mtl_001_008-material"/>
            </technique_common>
          </bind_material>
        </instance_geometry>
      </node>
    </visual_scene>
  </library_visual_scenes>
  <scene>
    <instance_visual_scene url="#Scene"/>
  </scene>
</COLLADA>