<?xml version="1.0" encoding="utf-8"?>
<COLLADA xmlns="http://www.collada.org/2005/11/COLLADASchema" version="1.4.1" xmlns:xsi="http://www.w3.org/2001/XMLSchema-instance">
  <asset>
    <contributor>
      <author>Blender User</author>
      <authoring_tool>Blender 2.82.7</authoring_tool>
    </contributor>
    <created>2023-09-27T15:21:57</created>
    <modified>2023-09-27T15:21:57</modified>
    <unit name="meter" meter="1"/>
    <up_axis>Z_UP</up_axis>
  </asset>
  <library_cameras>
    <camera id="Camera-camera" name="Camera.012">
      <optics>
        <technique_common>
          <perspective>
            <xfov sid="xfov">49.13434</xfov>
            <aspect_ratio>1.777778</aspect_ratio>
            <znear sid="znear">0.1</znear>
            <zfar sid="zfar">100</zfar>
          </perspective>
        </technique_common>
      </optics>
      <extra>
        <technique profile="blender">
          <shiftx sid="shiftx" type="float">0</shiftx>
          <shifty sid="shifty" type="float">0</shifty>
          <dof_distance sid="dof_distance" type="float">10</dof_distance>
        </technique>
      </extra>
    </camera>
  </library_cameras>
  <library_lights>
    <light id="Lamp-light" name="Lamp.011">
      <technique_common>
        <point>
          <color sid="color">1 1 1</color>
          <constant_attenuation>1</constant_attenuation>
          <linear_attenuation>0</linear_attenuation>
          <quadratic_attenuation>0.00111109</quadratic_attenuation>
        </point>
      </technique_common>
      <extra>
        <technique profile="blender">
          <type sid="type" type="int">0</type>
          <flag sid="flag" type="int">0</flag>
          <mode sid="mode" type="int">8192</mode>
          <gamma sid="blender_gamma" type="float">1</gamma>
          <red sid="red" type="float">1</red>
          <green sid="green" type="float">1</green>
          <blue sid="blue" type="float">1</blue>
          <shadow_r sid="blender_shadow_r" type="float">0</shadow_r>
          <shadow_g sid="blender_shadow_g" type="float">0</shadow_g>
          <shadow_b sid="blender_shadow_b" type="float">0</shadow_b>
          <energy sid="blender_energy" type="float">1</energy>
          <dist sid="blender_dist" type="float">29.99998</dist>
          <spotsize sid="spotsize" type="float">75</spotsize>
          <spotblend sid="spotblend" type="float">0.15</spotblend>
          <att1 sid="att1" type="float">0</att1>
          <att2 sid="att2" type="float">1</att2>
          <falloff_type sid="falloff_type" type="int">2</falloff_type>
          <clipsta sid="clipsta" type="float">1.000799</clipsta>
          <clipend sid="clipend" type="float">30.002</clipend>
          <bias sid="bias" type="float">1</bias>
          <soft sid="soft" type="float">3</soft>
          <bufsize sid="bufsize" type="int">2880</bufsize>
          <samp sid="samp" type="int">3</samp>
          <buffers sid="buffers" type="int">1</buffers>
          <area_shape sid="area_shape" type="int">1</area_shape>
          <area_size sid="area_size" type="float">0.1</area_size>
          <area_sizey sid="area_sizey" type="float">0.1</area_sizey>
          <area_sizez sid="area_sizez" type="float">1</area_sizez>
        </technique>
      </extra>
    </light>
  </library_lights>
  <library_effects>
    <effect id="link_01_part_000_mtl_001_011-effect">
      <profile_COMMON>
        <technique sid="common">
          <lambert>
            <emission>
              <color sid="emission">0 0 0 1</color>
            </emission>
            <diffuse>
              <color sid="diffuse">0.96 0.76 0.13 1</color>
            </diffuse>
            <index_of_refraction>
              <float sid="ior">1</float>
            </index_of_refraction>
          </lambert>
        </technique>
      </profile_COMMON>
    </effect>
  </library_effects>
  <library_images/>
  <library_materials>
    <material id="link_01_part_000_mtl_001_011-material" name="link_01_part_000_mtl_001.011">
      <instance_effect url="#link_01_part_000_mtl_001_011-effect"/>
    </material>
  </library_materials>
  <library_geometries>
    <geometry id="Link4_002-mesh" name="Link4.002">
      <mesh>
        <source id="Link4_002-mesh-positions">
          <float_array id="Link4_002-mesh-positions-array" count="1653">0.09249985 0 1.0595 0.09181547 -0.01123172 1.0595 0.09249985 0 1.049 0.08499991 0 1.087 0.09181547 0.01123172 1.0595 0.09136962 -0.01441603 1.049 0.08336663 -0.0165826 1.087 0.09136962 0.01441603 1.049 0.02899992 -0.09299999 1.049 -0.02899992 -0.09299999 1.049 0.02899992 -0.0878365 1.049 -0.02899992 -0.0878365 1.049 -0.09234738 -0.005296409 1.049 -0.09242081 0.003814399 1.049 -0.09165763 0.01244407 1.049 -0.09136962 0.01441603 1.049 0.07496237 0.0541929 1.049 0.08249235 0.0418477 1.049 -0.02899992 0.0878365 1.049 0.08800637 0.02847999 1.049 0.08800637 -0.02847999 1.049 -0.02899992 0.09299999 1.049 0.02899992 0.09299999 1.049 0.02899992 0.0878365 1.049 0.04233491 0.0822435 1.049 -0.04233503 0.0822435 1.049 0.08249235 -0.0418477 1.049 0.07496237 -0.0541929 1.049 0.06560039 -0.06521362 1.049 0.05463528 0.07464063 1.049 0.06560039 0.06521362 1.049 0.05463528 -0.07464063 1.049 0.04233491 -0.0822435 1.049 -0.08800649 0.02847999 1.049 -0.08249235 0.0418477 1.049 -0.07496237 0.0541929 1.049 -0.04233503 -0.0822435 1.049 -0.05463528 -0.07464063 1.049 -0.06560039 0.06521362 1.049 -0.05463528 0.07464063 1.049 -0.08249235 -0.0418477 1.049 -0.08800649 -0.02847999 1.049 -0.09136962 -0.01441603 1.049 -0.06560039 -0.06521362 1.049 -0.07496237 -0.0541929 1.049 0.08977234 -0.02229726 1.0595 0 0.0627681 1.087 0 0.08499997 1.087 -0.01224541 0.06156206 1.087 -0.0165826 0.08336675 1.087 -0.02402031 0.05799019 1.087 -0.03252816 0.07852971 1.087 -0.03487205 0.0521897 1.087 -0.04722332 0.07067489 1.087 -0.04438376 0.04438376 1.087 -0.06010413 0.06010407 1.087 -0.05218982 0.03487205 1.087 -0.07067489 0.04722338 1.087 -0.05799007 0.02402031 1.087 -0.07852983 0.03252804 1.087 -0.06156206 0.01224535 1.087 -0.08336663 0.0165826 1.087 -0.06276822 0 1.087 -0.08500003 0 1.087 -0.06156206 -0.01224535 1.087 -0.08336663 -0.0165826 1.087 -0.05799007 -0.02402031 1.087 -0.07852983 -0.03252804 1.087 -0.05218982 -0.03487205 1.087 -0.07067489 -0.04722338 1.087 -0.04438376 -0.04438376 1.087 -0.06010413 -0.06010407 1.087 -0.03487205 -0.0521897 1.087 -0.04722332 -0.07067489 1.087 -0.02402031 -0.05799019 1.087 -0.03252816 -0.07852971 1.087 -0.01224541 -0.06156206 1.087 -0.0165826 -0.08336675 1.087 0 -0.0627681 1.087 0 -0.08499997 1.087 0.01224541 -0.06156206 1.087 0.0165826 -0.08336675 1.087 0.02402019 -0.05799019 1.087 0.03252804 -0.07852971 1.087 0.03487205 -0.0521897 1.087 0.04722332 -0.07067489 1.087 0.04438364 -0.04438376 1.087 0.06010401 -0.06010407 1.087 0.0521897 -0.03487205 1.087 0.07067477 -0.04722338 1.087 0.05799007 -0.02402031 1.087 0.07852971 -0.03252804 1.087 0.06156194 -0.01224535 1.087 0.06276798 0 1.087 0.06156194 0.01224535 1.087 0.08336663 0.0165826 1.087 0.05799007 0.02402031 1.087 0.07852971 0.03252804 1.087 0.0521897 0.03487205 1.087 0.07067477 0.04722338 1.087 0.04438364 0.04438376 1.087 0.06010401 0.06010407 1.087 0.03487205 0.0521897 1.087 0.04722332 0.07067489 1.087 0.02402019 0.05799019 1.087 0.03252804 0.07852971 1.087 0.01224541 0.06156206 1.087 0.0165826 0.08336675 1.087 0.08977234 0.02229726 1.0595 0.08640062 -0.03303283 1.0595 0.05970489 -0.009209513 1.11394 0.08640062 0.03303283 1.0595 0.08175027 -0.04327952 1.0595 0.05747938 -0.01784133 1.116527 0.06047654 6.15442e-6 1.113191 0.05970156 0.00922966 1.113944 0.05747365 0.01785773 1.116535 0.08175027 0.04327952 1.0595 0.07589018 -0.05288583 1.0595 0.0559591 -0.02160483 1.118812 0.05310106 -0.02651196 1.126051 0.05595123 0.0216217 1.118825 0.05309748 0.02651596 1.126066 0.06890702 -0.06170946 1.0595 0.05438375 -0.02464586 1.121979 0.05251383 -0.02677929 1.130667 0.05437815 0.02465534 1.121993 0.05251383 0.02677929 1.130667 0.07589018 0.05288583 1.0595 0.04810941 -0.03239548 1.1415 0.04810941 0.03239548 1.1415 0.04312837 0.03878057 1.1415 0.06890702 0.06170946 1.0595 0.06090426 -0.06961983 1.0595 0.04312837 -0.03878057 1.1415 0.05215263 -0.02537888 1.1415 0.05215263 0.02537888 1.1415 0.03730642 0.04440969 1.1415 0.06090426 0.06961983 1.0595 0.05199992 -0.0696361 1.08 0.03730642 -0.04440969 1.1415 0.05101382 -0.02759677 1.175667 0.05101382 0.02759677 1.175667 0.04399991 0.0377888 1.1815 0.05199992 0.0696361 1.08 0.05199992 0.07649999 1.056 0.05199992 -0.07649999 1.056 0.05199992 -0.07649999 1.0595 0.04905354 -0.07148844 1.08 0.03946828 -0.04249989 1.19579 0.04775238 0.03222876 1.1815 0.04905354 0.07148844 1.08 0.03075718 0.04917293 1.1415 0.03861773 0.04327428 1.195 0.05199992 0.07649999 1.0595 0.05199992 -0.09299999 1.08 0.05199992 -0.09299999 1.056 -0.02739679 -0.08247786 1.08 -0.0402143 -0.07704538 1.08 -0.05200004 -0.09299999 1.08 -0.04610705 -0.07334077 1.08 -0.04758048 -0.07241457 1.08 -0.04831695 -0.0719515 1.08 -0.04905366 -0.07148844 1.08 -0.05200004 -0.0696361 1.08 0.04831695 -0.0719515 1.08 0.04758024 -0.07241457 1.08 0.04610705 -0.07334077 1.08 0.0402143 -0.07704538 1.08 0.02739679 -0.08247786 1.08 0.01387631 -0.08579409 1.08 0 -0.08690905 1.08 -0.01387643 -0.08579409 1.08 0.03075718 -0.04917293 1.1415 0.03111302 -0.04894858 1.192359 0.05112898 -0.02738267 1.179038 0.05150496 0.02666872 1.1815 0.04399991 0.03064829 1.193528 0.0402143 0.07704538 1.08 0.04831695 0.0719515 1.08 0.05199992 0.09299999 1.08 0.02739679 0.08247786 1.08 0.04610705 0.07334077 1.08 0.04758024 0.07241457 1.08 -0.05200004 0.0696361 1.08 -0.04905366 0.07148844 1.08 -0.05200004 0.09299999 1.08 -0.04831695 0.0719515 1.08 -0.04758048 0.07241457 1.08 -0.04610705 0.07334077 1.08 -0.0402143 0.07704538 1.08 -0.02739679 0.08247786 1.08 -0.01387643 0.08579409 1.08 0 0.08690905 1.08 0.01387631 0.08579409 1.08 0.0325576 0.04799991 1.1665 0.04399991 0.0377888 1.195 0.05199992 0.09299999 1.056 0.04421472 -0.08124834 1.056 0.03558945 -0.0604999 1.194079 0.04737693 -0.03345775 1.210687 0.04399991 0.05199992 1.195 0.04399996 0.05199992 1.28 0.04399996 -0.0324999 1.28 0.04399996 -0.0324999 1.219964 0.04399996 0 1.219964 0.04399996 0.006850004 1.218508 0.04399996 0.01286041 1.214907 0.04399991 0.022601 1.204949 0.02507126 0.05230122 1.1665 0.02360844 0.05297768 1.1415 0.02399992 0.04799991 1.195 0.02399992 0.05199992 1.195 0.0325576 0.04799991 1.195 0.03599989 0.0852071 1.056 0.03599989 0.09299999 1.056 0.04421472 0.08124834 1.056 0.03599989 -0.0852071 1.056 0.03599989 -0.09299999 1.056 -0.03600001 -0.09299999 1.056 -0.05200004 -0.09299999 1.056 0.02360844 -0.05297768 1.1415 0.02153921 -0.05385214 1.189529 0.02699637 -0.0604999 1.191004 0.04383981 -0.0604999 1.197981 0.05306643 -0.04249989 1.203626 0.05074054 -0.02809602 1.201445 0.0516653 -0.02635681 1.182229 0.05246752 0.0216217 1.184939 0.02622282 0.04799991 1.175578 0.01599931 0.05574959 1.1415 -0.02399992 0.04799991 1.195 -1.1303e-4 0.04799991 1.193974 -0.005573272 0.04799991 1.193089 0.01251715 0.04799991 1.237818 0.01845026 0.04799991 1.240055 0.005351185 0.04799991 1.193158 -0.01060843 0.04799991 1.190792 -0.01916301 0.04799991 1.183853 -0.03255772 0.04799991 1.195 -0.02626419 0.04799991 1.175523 -0.03255772 0.04799991 1.1665 0.01040399 0.04799991 1.190912 0.02399998 0.04799991 1.243122 0.01902425 0.04799991 1.183994 -0.02399992 0.04799991 1.243122 -0.01845014 0.04799991 1.240055 -0.01251721 0.04799991 1.237818 -0.006324291 0.04799991 1.236457 0 0.04799991 1.236 0.006324172 0.04799991 1.236457 -0.03600001 0.09299999 1.056 -0.05200004 0.09299999 1.056 0.01599931 -0.05574959 1.1415 0.04703861 -0.0324999 1.211616 0.01702928 0.05544364 1.1665 0.01814329 -0.0604999 1.188787 0.008078336 -0.05743455 1.1415 0.05166798 -0.0604999 1.202673 0.05725401 -0.0324999 1.219909 0.05349999 -0.02239978 1.193864 0.05349999 -0.02239978 1.187397 0.05349999 0.0160427 1.187397 0.008078336 0.05743455 1.1415 0.00861001 0.05735731 1.1665 -0.04354238 0.05199992 1.286325 -0.04219651 0.05199992 1.292463 0.02399998 0.05199992 1.243122 0.01845026 0.05199992 1.240055 0.01251715 0.05199992 1.237818 0.006324172 0.05199992 1.236457 0 0.05199992 1.236 -0.006324291 0.05199992 1.236457 -0.02399992 0.05199992 1.195 -0.04399991 0.05199992 1.195 -0.02399992 0.05199992 1.243122 -0.04399991 0.05199992 1.28 -0.01845014 0.05199992 1.240055 -0.01251721 0.05199992 1.237818 -0.04065054 0.05199992 1.296838 -0.03658455 0.05199992 1.304445 -0.03111267 0.05199992 1.311113 -0.02444499 0.05199992 1.316585 -0.01683801 0.05199992 1.320651 -0.008583784 0.05199992 1.323155 0 0.05199992 1.324 0.008584022 0.05199992 1.323155 0.01683807 0.05199992 1.320651 0.02444517 0.05199992 1.316585 0.03111267 0.05199992 1.311113 0.04315453 0.05199992 1.288584 0.03658473 0.05199992 1.304445 0.04065084 0.05199992 1.296838 0.01110219 -0.05692744 1.187665 0 -0.0579999 1.1415 0.05899852 -0.0604999 1.20811 0.06515341 -0.04249989 1.213637 0.07842695 -0.0324999 1.25283 0.07314789 -0.0324999 1.240778 -0.02444499 -0.0324999 1.316585 -0.03803813 -0.0324999 1.35377 -0.01683801 -0.0324999 1.320651 -0.0259025 -0.0324999 1.358855 -0.008583784 -0.0324999 1.323155 -0.01311612 -0.0324999 1.361957 0 -0.0324999 1.324 0 -0.0324999 1.363 0.008584022 -0.0324999 1.323155 0.01311624 -0.0324999 1.361957 0.01683807 -0.0324999 1.320651 0.08173513 -0.0324999 1.265565 0.06603074 -0.0324999 1.229711 0.02590274 -0.0324999 1.358855 0.03803837 -0.0324999 1.35377 0.02444517 -0.0324999 1.316585 0.04921805 -0.0324999 1.346832 0.03111267 -0.0324999 1.311113 0.05916094 -0.0324999 1.338215 0.03658473 -0.0324999 1.304445 0.06761705 -0.0324999 1.328135 0.04065084 -0.0324999 1.296838 0.07437396 -0.0324999 1.316844 0.07926177 -0.0324999 1.304628 0.04315453 -0.0324999 1.288584 0.08215785 -0.0324999 1.291793 0.08298921 -0.0324999 1.278662 -0.04315441 -0.0324999 1.288584 -0.07926177 -0.0324999 1.304628 -0.04065054 -0.0324999 1.296838 -0.07437396 -0.0324999 1.316844 -0.03658455 -0.0324999 1.304445 -0.06761687 -0.0324999 1.328135 -0.03111267 -0.0324999 1.311113 -0.05916088 -0.0324999 1.338215 -0.04921787 -0.0324999 1.346832 -0.07842683 -0.0324999 1.25283 -0.08173513 -0.0324999 1.265565 -0.04399991 -0.0324999 1.28 -0.08298921 -0.0324999 1.278662 -0.08215785 -0.0324999 1.291794 -0.04399991 -0.0324999 1.219964 -0.04703855 -0.0324999 1.211616 -0.05725407 -0.0324999 1.219909 -0.06603074 -0.0324999 1.229711 -0.07314777 -0.0324999 1.240778 0.05349999 0 1.193864 0.05349999 0.008558273 1.191995 0 0.0579999 1.1415 -0.03600001 -0.0852071 1.056 -0.04421472 -0.08124834 1.056 -0.05200004 -0.07649999 1.056 -0.05200004 -0.07649999 1.0595 0.009115457 -0.0604999 1.187448 -0.008078455 -0.05743455 1.1415 5.07626e-5 -0.0579999 1.187 0.05349999 0.004384458 1.193371 0 0.0579999 1.1665 -0.008078455 0.05743455 1.1415 -0.03600001 0.0852071 1.056 -0.04421472 0.08124834 1.056 -0.05200004 0.07649999 1.056 -0.05200004 0.07649999 1.0595 3.37003e-7 -0.05799758 1.187003 0.06576097 -0.0604999 1.214239 0.07538467 -0.04249989 1.225538 -0.06090426 -0.06961983 1.0595 0 -0.0604999 1.187 -0.01599943 -0.05574959 1.1415 -0.01095235 -0.05695647 1.187647 0.07188993 -0.0604999 1.221001 -0.00861001 0.05735731 1.1665 -0.01599943 0.05574959 1.1415 -0.06090426 0.06961983 1.0595 -0.06890702 -0.06170946 1.0595 0.08201873 -0.0604999 1.32384 0.07733726 -0.0604999 1.331646 -0.05899858 -0.0604999 1.20811 -0.07732653 -0.0604999 1.228332 -0.07172679 -0.0604999 1.220823 0.05899858 -0.0604999 1.35189 -0.06552314 -0.0604999 1.214008 0.07188999 -0.0604999 1.338999 0.06574797 -0.0604999 1.345774 0.03561031 -0.0604999 1.365909 -0.0773108 -0.0604999 1.331686 0.04383993 -0.0604999 1.362019 0.05155968 -0.0604999 1.357395 0.07739508 -0.0604999 1.22844 0.08201873 -0.0604999 1.23616 0.08590865 -0.0604999 1.24439 -0.09121298 -0.0604999 1.261857 -0.08899569 -0.0604999 1.253004 0.03556597 -0.0604999 1.194073 0.05177253 -0.0604999 1.202747 0.06574171 -0.0604999 1.214224 0.09255218 -0.0604999 1.270884 0.09300005 -0.0604999 1.280019 0.09255218 -0.0604999 1.289115 0.09120965 -0.0604999 1.298161 0.08899545 -0.0604999 1.306996 0.08586895 -0.0604999 1.315706 0.02699649 -0.0604999 1.368995 -0.0658493 -0.0604999 1.345668 -0.07188981 -0.0604999 1.338999 -0.03558933 -0.0604999 1.365921 -0.04383981 -0.0604999 1.362019 -0.05168479 -0.0604999 1.357315 -0.09255218 -0.0604999 1.289116 -0.09299993 -0.0604999 1.28 -0.09255027 -0.0604999 1.270865 -0.08592081 -0.0604999 1.24441 -0.08200907 -0.0604999 1.236142 0.08899545 -0.0604999 1.253003 0.09121668 -0.0604999 1.261874 0.01812398 -0.0604999 1.371217 0.009115576 -0.0604999 1.372552 0 -0.0604999 1.373 -0.02699649 -0.0604999 1.368995 -0.05899852 -0.0604999 1.35189 -0.08201855 -0.0604999 1.32384 -0.08592081 -0.0604999 1.31559 -0.08899569 -0.0604999 1.306996 -0.0912168 -0.0604999 1.298124 -0.01814341 -0.0604999 1.188787 -0.009115576 -0.0604999 1.187448 -0.009115457 -0.0604999 1.372552 -0.01816284 -0.0604999 1.371209 -0.05166792 -0.0604999 1.202673 -0.04383993 -0.0604999 1.197981 -0.02697885 -0.0604999 1.190999 -0.03558945 -0.0604999 1.194079 0.01826798 -0.0604999 1.188815 0.08346951 -0.04249989 1.23899 0.07732659 -0.0604999 1.228332 -0.06890702 0.06170946 1.0595 -0.02360844 -0.05297768 1.1415 -0.02147841 -0.05387639 1.189514 -0.0170294 0.05544364 1.1665 -0.02360844 0.05297768 1.1415 -0.03075718 0.04917293 1.1415 -0.03075718 -0.04917293 1.1415 0.08917701 -0.04249989 1.253609 0.09288287 -0.04249989 1.284665 0.09077596 -0.04249989 1.300217 -0.03730654 0.04440969 1.1415 0.07893979 -0.04249989 1.329168 0.08608353 -0.04249989 1.315194 0.06954789 -0.04249989 1.341742 0.05817544 -0.04249989 1.352558 -0.0758903 -0.05288583 1.0595 -0.02699661 -0.0604999 1.191004 -0.03730654 -0.04440969 1.1415 0.08592081 -0.0604999 1.24441 0.09234488 -0.04249989 1.26898 -0.02507126 0.05230122 1.1665 0.04514622 -0.04249989 1.361307 0.03083121 -0.04249989 1.367741 -0.0758903 0.05288583 1.0595 -0.08175039 -0.04327952 1.0595 -0.03107786 -0.04897099 1.192346 0.0912131 -0.0604999 1.261857 0.09300005 -0.0604999 1.28 -0.04312849 0.03878057 1.1415 -0.03861784 0.04327428 1.195 0.06576097 -0.0604999 1.345761 0.05166804 -0.0604999 1.357327 0.01563835 -0.04249989 1.371676 -0.08175039 0.04327952 1.0595 -0.05309748 -0.02651613 1.126067 -0.04312849 -0.03878057 1.1415 -0.05306649 -0.04249989 1.203626 -0.03946828 -0.04249989 1.19579 0.0912131 -0.0604999 1.298143 0.08592081 -0.0604999 1.315589 -0.04399991 0.0377888 1.1815 0.07732665 -0.0604999 1.331668 0.03558957 -0.0604999 1.365921 0 -0.04249989 1.373 -0.08640074 -0.03303283 1.0595 -0.05437755 -0.02465635 1.121994 -0.05251383 -0.02677929 1.130667 -0.04810953 -0.03239548 1.1415 -0.04399991 0.0377888 1.195 -0.04810953 0.03239548 1.1415 0.01814341 -0.0604999 1.371213 -0.08640074 0.03303283 1.0595 -0.08977246 -0.02229726 1.0595 -0.05747246 -0.01786106 1.116537 -0.05310034 0.02651286 1.126054 -0.0559504 -0.02162384 1.118827 -0.05251383 0.02677929 1.130667 -0.05101394 -0.02759677 1.175667 -0.04737687 -0.03345775 1.210687 -0.06515336 -0.04249989 1.213637 -0.04775261 0.03222876 1.1815 -0.04399991 0 1.219964 -0.04399991 0.03065687 1.193515 -0.04399991 0.02262037 1.204925 -0.04399991 0.01282358 1.214935 -0.04399991 0.006830692 1.218517 -0.08977246 0.02229726 1.0595 -0.05970072 -0.009235322 1.113945 -0.0543816 0.02464962 1.121984 -0.05215287 0.02537888 1.1415 -0.05215287 -0.02537888 1.1415 -0.05099987 -0.02754306 1.1765 -0.05113196 -0.02737754 1.179064 -0.06576085 -0.0604999 1.214239 -0.05150508 0.02666872 1.1815 -0.05101394 0.02759677 1.175667 -0.01563811 -0.04249989 1.371676 -0.09181547 -0.01123172 1.0595 -0.05748105 0.01783704 1.116525 -0.0559566 0.02161026 1.118816 -0.05099987 0.02746504 1.1765 -0.05074048 -0.02809602 1.201445 -0.07188987 -0.0604999 1.221001 -0.09181547 0.01123172 1.0595 -0.06162238 0 1.100096 -0.06047654 8.2008e-7 1.113191 -0.05970716 0.009196996 1.113938 -0.05166888 -0.0263502 1.182244 -0.07538485 -0.04249989 1.225538 -0.05246758 0.0216217 1.184939 -0.03083121 -0.04249989 1.367741 -0.01814329 -0.0604999 1.371213 -0.09249997 0 1.049 -0.09249997 0 1.0595 -0.05349993 0 1.193864 -0.05349993 -0.02239978 1.193864 -0.08917689 -0.04249989 1.253609 -0.0451461 -0.04249989 1.361307 -0.05349993 0.0160427 1.187397 -0.05349993 0.008569657 1.19199 -0.04315441 0.05199992 1.288584 -0.05349993 0.004374623 1.193373 -0.05349993 -0.02239978 1.187397 -0.08346939 -0.04249989 1.23899 -0.09234476 -0.04249989 1.268981 -0.09288287 -0.04249989 1.284665 -0.05166786 -0.0604999 1.357327 -0.05817526 -0.04249989 1.352558 -0.06954789 -0.04249989 1.341742 -0.07893961 -0.04249989 1.329168 -0.08201861 -0.0604999 1.23616 -0.09255218 -0.0604999 1.270884 -0.09077596 -0.04249989 1.300218 -0.08608341 -0.04249989 1.315194 -0.09121298 -0.0604999 1.298143 -0.06576085 -0.0604999 1.345761 -0.07732647 -0.0604999 1.331668</float_array>
          <technique_common>
            <accessor source="#Link4_002-mesh-positions-array" count="551" stride="3">
              <param name="X" type="float"/>
              <param name="Y" type="float"/>
              <param name="Z" type="float"/>
            </accessor>
          </technique_common>
        </source>
        <source id="Link4_002-mesh-normals">
          <float_array id="Link4_002-mesh-normals-array" count="2583">0.9981487 -0.06082057 0 0.9631019 -0.05868488 0.2626611 0.9981487 0.06082057 0 0.9967679 -0.07814711 -0.01862436 0.9566494 -0.09422343 0.2755795 0.9631019 0.05868488 0.2626611 0.9967679 0.07814711 -0.01862436 0 0 -1 5.52872e-7 0 -1 -1.26975e-6 0 -1 -3.01199e-6 0 -1 4.50928e-6 0 -1 3.61646e-6 0 -1 1.44952e-6 0 -1 -1.50491e-6 0 -1 -2.01274e-6 0 -1 -3.65808e-6 0 -1 -1.6891e-6 0 -1 1.44952e-6 0 -1 -1.10156e-6 0 -1 3.16654e-6 0 -1 0.9832907 -0.1815559 0.01330798 0.9501447 -0.1754332 0.2577759 1.36839e-5 0 1 6.31556e-7 0 1 0 0 1 -5.05237e-6 0 1 5.05237e-6 0 1 -1.36838e-5 0 1 5.05244e-6 0 1 1.3684e-5 0 1 1.36837e-5 0 1 -1.01049e-5 0 1 1.71049e-6 0 1 -1.71048e-6 0 1 -5.05242e-6 0 1 6.84192e-6 0 1 1.36839e-5 0 1 6.31556e-7 0 1 -1.36839e-5 0 1 -6.31553e-7 0 1 5.05241e-6 0 1 -5.0524e-6 0 1 1.36838e-5 0 1 -5.05243e-6 0 1 -1.3684e-5 0 1 -1.36838e-5 0 1 1.01049e-5 0 1 -1.71049e-6 0 1 1.71048e-6 0 1 5.05242e-6 0 1 -6.84197e-6 0 1 -1.36839e-5 0 1 -6.31553e-7 0 1 0.9566494 0.09422343 0.2755795 0.9832907 0.1815552 0.01330792 0.972233 -0.2324967 -0.02661365 0.9207237 -0.2792975 0.2725085 0.9501447 0.1754332 0.2577759 0.972233 0.2324967 -0.02661359 0.9539297 -0.2996049 0.01597505 0.9190614 -0.2886472 0.2683448 0.9920435 -0.09770542 0.07939404 0.920724 0.2792969 0.272508 0.9539297 0.2996049 0.01597505 0.9241793 -0.3812067 -0.02396088 0.8795229 -0.3991596 0.2590585 0.9705463 -0.2226595 0.09199291 0.9933039 -0.07610744 0.0869199 0.9920405 0.09770518 0.0794326 0.9190612 0.2886477 0.2683452 0.9241802 0.3812046 -0.0239607 0.9105782 -0.4132595 0.008002102 0.8475675 -0.4530376 0.2763809 0.9540946 -0.2894211 0.07706588 0.7580123 1.433e-5 0.6522403 0.6966558 -9.02574e-6 0.7174056 0.9932869 0.07637095 0.08688366 0.9540944 0.2894204 0.07707023 0.9704766 0.2229741 0.09196573 0.8795229 0.3991596 0.2590585 0.9105772 0.4132617 0.008002042 0.8536739 -0.5206985 -0.01067185 0.8243607 -0.5028806 0.2598857 0.9407001 -0.3284192 0.08499521 0.8790906 -0.4698803 0.08007669 0.7582306 -1.95757e-5 0.6519866 0.9405927 0.3287171 0.08503305 0.87909 0.4698814 0.08007782 0.8475675 0.4530376 0.276381 0.8536727 0.5207006 -0.01067173 0.853644 -0.5207489 -0.01060658 0.7557848 -0.5981389 0.2664949 0.9189301 -0.3845094 0.08786368 0.8324971 1.33293e-5 0.5540294 0.8978554 -0.4320387 0.0848425 0.8718932 -0.4826162 0.08297008 0.8327255 -1.93532e-5 0.5536862 0.9188434 0.3847174 0.08786082 0.8977703 0.4322196 0.08482283 0.8718544 0.4826842 0.08298265 0.8243607 0.5028806 0.2598857 0.8536419 0.5207525 -0.0106067 0.78412 -0.6205581 0.007961809 0.7435116 -0.6101797 0.2736261 0.8953678 2.56852e-5 0.4453276 0.9537907 2.6232e-5 0.300472 0.858638 -0.5051046 0.08723664 0.9920057 2.9485e-5 0.1261933 0.8956305 -2.00347e-5 0.444799 0.9539608 -2.4553e-5 0.2999314 0.9920495 0 0.1258486 0.858638 0.5051046 0.08723664 0.7703589 0.6322193 0.08274173 0.7557847 0.5981388 0.2664948 0.7841171 0.620562 0.007961928 0.7619138 0.6472361 -0.02393776 0.7619138 -0.6472361 -0.02393776 0.6792755 -0.6872037 0.2575578 0.7703589 -0.6322193 0.08274173 0.7854997 -0.6127653 0.08665359 0.8626826 -0.4971162 0.09302866 0.9994446 0 0.03332376 0.9994447 0 0.03332406 0.8626826 0.4971162 0.09302866 0.7854998 0.6127654 0.08665353 0.743511 0.6101803 0.2736265 0.6923052 0.7160256 0.08955979 0.7028946 0.711115 0.01596319 0.7028986 -0.711111 0.01596283 0.6258224 -0.7312781 0.2712539 0.6045301 -0.736625 0.3031947 0.6923052 -0.7160256 0.08955985 0.7883166 -0.6149653 0.01935881 0.8664384 -0.4992718 -0.003530502 0.8664384 0.4992718 -0.003530502 0.7884628 0.6150795 -0.001928985 0.6792743 0.6872047 0.257558 0.6045314 0.7366243 0.3031939 0.6322718 0.7704228 0.08173853 0.6950958 0.7189122 0.002679884 0.6227064 0.7809082 -0.04918581 0.6512926 -0.7575517 0.04397225 0.6227105 -0.780905 -0.04918646 0.5910271 -0.764914 0.2561125 0.5178239 -0.8236761 0.2311192 0.6322714 -0.7704231 0.08173859 0.6950954 -0.7189136 -0.002390146 0.798646 -0.6016689 0.01262307 0.999445 0 0.03331202 0.999445 0 0.03331202 0.8233296 0.5674805 0.009713292 0.8288483 0.5593889 0.009728789 0.6258226 0.731278 0.2712538 0.5178239 0.8236761 0.2311192 0.5858643 0.8055269 0.0888229 0.7107192 0.7034715 -0.002490341 0.6114336 0.7912958 0 0.6512899 0.7575539 0.04397213 0.5255672 -0.8502916 -0.02799248 0.6114336 -0.7912958 0 1 0 0 6.76449e-6 0 1 2.02905e-5 0 1 -6.76354e-5 0 1 -2.02935e-5 0 1 6.76459e-5 0 1 -8.11628e-5 0 1 -6.7645e-6 0 1 6.93663e-6 0 1 2.08021e-6 0 1 0.5177891 -0.8236979 0.2311193 0.5858643 -0.8055269 0.0888229 0.447574 -0.837347 0.3138914 0.6100683 -0.7923409 0.003578484 0.7976415 -0.6030308 0.01105165 0.8287279 0.5593223 0.01920628 0.9994169 0 -0.03414773 0.7866463 0.5309035 0.3151654 0.7866346 0.5309195 0.3151673 0.5910271 0.764914 0.2561125 0.4475724 0.8373476 0.3138916 0.5177891 0.8236979 0.2311193 8.11868e-5 0 1 -6.93661e-6 0 1 -2.0802e-6 0 1 0.5881841 0.8087152 -0.004413604 0.4697248 0.8787971 0.08410978 0.713793 0.7003567 0 0.6093888 0.7928694 0.001890301 0.5255706 0.8502895 -0.02799212 0.5206105 -0.8535948 -0.01846033 0.5177536 -0.8237217 0.2311147 0.517838 -0.8236712 0.2311056 0.5178245 -0.8236783 0.2311102 0.4697237 -0.8787975 0.0841099 0.58819 -0.8087226 -5.48e-4 0.3800271 -0.89665 0.2271525 0.3750882 0.007300615 -0.9269604 0.7756383 -0.6305077 -0.02907502 0.9964282 -0.003086507 -0.08438861 1 0 -7.88886e-7 1 0 -7.88885e-7 1 0 0 1 0 0 1 5.10905e-7 5.45066e-7 1 5.17622e-6 3.49866e-6 1 -1.07153e-5 -1.66647e-5 0.8049483 0.4850311 0.3417645 0.3800292 0.8966493 0.2271524 0.5178245 0.8236783 0.2311102 0.5177537 0.8237219 0.2311136 0.517838 0.8236712 0.2311056 0.4981742 0.8670637 0.004805922 0.468145 0.8796083 0.08443665 0.6149355 0.7885774 0 2.9096e-5 0 -1 2.90006e-5 0 -1 0.5206105 0.8535948 -0.01846033 0.434094 -0.9007944 0.01148879 7.31265e-6 0 -1 1.45003e-5 0 -1 0 -1 -3.73127e-7 0 -1 0 0 -1 1.84784e-6 0 -1 5.38962e-7 0.4681434 -0.8796092 0.08443683 0.455691 -0.8901379 7.38269e-4 0.275918 -0.9095614 0.3107531 0.3368793 -0.00966835 -0.9414983 0.4275383 -0.006191134 -0.903976 0.3546929 0.7037929 -0.615523 0.8452716 -0.5343317 -0.002358496 0.9861392 6.99099e-4 -0.1659193 0.8526927 0.3953465 0.3414913 0.2759163 0.9095618 0.3107532 0.4698223 0.8827536 -0.003606617 0.4705545 0.8189958 0.3283662 0.3409371 0.9358968 0.08865249 0 1 2.17588e-6 0 1 0 0 1 -1.22042e-6 0 1 3.05181e-7 0 1 0 0 1 0 0 1 -1.20162e-7 0 1 0 0 1 -4.16179e-7 0 1 0 0 1 2.12911e-7 0 1 2.29387e-6 0 1 6.9294e-7 0 1 -3.73127e-7 0.434094 0.9007944 0.01148879 0.3864681 0.9214198 -0.04035073 0.3864681 -0.9214198 -0.04035073 0.2313859 -0.943384 0.2376706 0.3409371 -0.9358968 0.08865255 0.4698175 -0.8827537 0.004168868 0.2768486 0.01398026 -0.9608118 0.2893144 -0.9537336 0.08178883 0.4992227 0.01579821 -0.8663298 0.4001798 0.7071105 -0.5829672 0.9396927 1.58134e-5 0.3420201 0.8854876 -0.4646627 5.56821e-4 0.9626881 -8.12143e-4 -0.2706123 0.8664044 0.3569608 0.3491741 0.2313859 0.943384 0.2376706 0.2893144 0.9537336 0.08178883 0.3639442 0.9314126 0.003904938 0.4073002 0.8442475 0.3483573 0.3422838 0.939593 -0.002602696 0.7071194 0 -0.7070943 0.707103 0 -0.7071105 0.09369796 -0.95131 0.2936493 0.07728326 -0.9618796 0.2623263 0.3422822 -0.9395943 -0.002360582 0.2429614 -0.01588737 -0.9699059 0.09767979 -0.991786 0.08257949 0.2072346 -0.9741775 0.08962273 0.514093 0.005467772 -0.857717 0.4456098 0.7071854 -0.548927 0.9396925 2.23363e-6 0.3420205 0.902232 -0.4312287 0.004389166 0.9415664 0.00328046 -0.3368117 0.885416 0.3145881 0.3421592 0.09369701 0.9513102 0.2936493 0.09767979 0.991786 0.08257949 0.2072346 0.9741775 0.08962273 0.07728326 0.9618796 0.2623263 0.3429957 0.8778051 0.3343837 0.2216417 0.9751242 0.002802073 0 1 0 0 1 1.388e-7 0 1 -2.60497e-7 0 1 -2.81739e-7 0 1 5.1639e-7 0 1 -1.1705e-6 0 1 0 0 1 -1.62441e-6 0 1 7.68563e-7 0 1 -1.06617e-6 0 1 9.01854e-7 0 1 0 0 1 2.60216e-7 0 1 0 0 1 -3.57929e-7 0 1 1.12238e-6 0 1 -6.5274e-7 0 1 8.50213e-7 0 1 -1.35404e-6 -0.07728296 -0.96188 0.2623251 0.2817464 -0.9594737 0.005407392 0.1689912 0.02361053 -0.9853348 0.06954854 -0.9937826 0.08694469 0.2080721 -0.9781093 -0.002883195 0.5956911 -0.003756821 -0.8032048 0.4540042 0.7024233 -0.5481621 0 1 -2.08499e-7 0 1 3.44384e-7 0 1 0 0 1 -1.72771e-7 0 1 -1.7387e-7 0 1 0 0 1 0 0 1 1.93473e-7 0 1 0 0 1 0 0 1 3.47176e-7 0 1 -2.26868e-7 0 1 3.50241e-7 0 1 0 0 1 1.99772e-7 0 1 1.63789e-7 0 1 0 0 1 6.88431e-7 0 1 0 0 1 0 0 1 -6.91839e-7 0 1 0 0 1 6.96708e-7 0 1 -2.26385e-7 0 1 3.69233e-7 0 1 -6.98029e-7 0 1 1.62527e-7 0 1 -2.56849e-7 0 1 0 0.9396926 -1.41715e-6 0.3420203 0.9396919 0 0.3420224 0.9396876 0 0.3420341 0.9072339 -0.4206267 0 0.9219517 0 -0.3873051 0.9165627 0.2093124 0.3407362 0.06954848 0.9937825 0.08694475 0.2080745 0.978112 -0.001400709 -0.07728296 0.96188 0.2623251 0.2798275 0.8944912 0.3486865 0.2087129 0.9182193 0.336619 -1 0 1.31603e-6 -1 0 1.31604e-6 -0.707097 0 -0.7071166 -0.7071148 0 -0.7070989 -2.90964e-5 0 -1 -2.90001e-5 0 -1 -1 0 0 -0.09369719 -0.9513087 0.2936537 0.1466979 -0.02145767 -0.9889487 -0.06954801 -0.9937825 0.08694481 0.06981194 -0.9975602 -7.78806e-5 0.09631741 -0.9953399 0.004626035 0.6377573 0.01837164 -0.7700183 0.5250006 0.7095217 -0.4700569 0.9389984 0.0384131 0.3417698 1 2.35526e-7 0 1 0 0 0.9171693 0.2048363 0.3418226 0.06981223 0.9975602 0 -0.06954801 0.9937825 0.08694487 -0.09369814 0.9513087 0.2936537 0.07443171 0.997225 0.001500129 0.1528204 0.9264888 0.343896 0.4836121 0 -0.8752824 0.4836685 0 -0.8752514 -7.31271e-6 0 -1 -1.45001e-5 0 -1 -0.3864651 -0.9214208 -0.04035389 -0.2313877 -0.9433831 0.2376721 0.05723738 0.02883672 -0.9979441 -0.09767991 -0.991786 0.08257937 -0.0698117 -0.9975602 5.27143e-5 -0.04715168 -0.9988878 5.2723e-5 0.6715489 -0.00211066 -0.7409574 0.5412111 0.7004294 -0.4652841 0.9352576 0.07359558 0.3462325 0.9330807 0.1126149 0.3415819 -0.06981176 0.9975603 0 -0.09767991 0.991786 0.08257943 -0.2313877 0.9433831 0.2376721 0.07004815 0.9385335 0.3380063 0.8819176 0 0.4714037 0.7730051 0 0.6343999 -0.3864651 0.9214208 -0.04035389 -0.434099 -0.9007919 0.01149439 -0.5206046 -0.8535988 -0.01844739 -0.6114386 -0.7912918 0 -0.5910326 -0.7649104 0.256111 -0.3800293 -0.8966509 0.2271455 -0.2759148 -0.9095636 0.3107497 0.04906362 -9.48973e-4 -0.9987952 -0.2072345 -0.9741775 0.08962231 -0.09436869 -0.9955274 0.004437744 0.7409539 0.002551138 -0.6715511 0 -1 7.1289e-6 0.5910226 0.711485 -0.3801072 0.7581785 0.0170716 -0.6518237 0.9951848 0 0.09801709 0.995185 0 0.09801512 -0.07443225 0.9972251 0.001500964 -0.2072345 0.9741775 0.08962231 -0.2759165 0.909563 0.3107495 0.05107331 0.9383973 0.3417631 -0.3800273 0.8966516 0.2271457 0.9569429 0 0.2902763 0.9569463 0 0.2902649 0.6344016 0 0.7730038 0.6343894 0 0.7730137 0.3528012 0 -0.9356983 0.3528333 0 -0.9356862 -0.434099 0.9007919 0.01149439 -0.5206046 0.8535988 -0.01844739 -0.6114386 0.7912918 0 -0.5910326 0.7649104 0.256111 -0.525571 0.850289 -0.02799874 -0.5255743 -0.8502869 -0.02799922 -0.6548312 -0.6625199 -0.3636807 -0.6258252 -0.7312769 0.2712508 -0.5178256 -0.8236775 0.2311106 -0.5177745 -0.8237051 0.2311272 -0.5178745 -0.8236445 0.2311187 -0.5177263 -0.8237375 0.2311192 -0.5178228 -0.8236744 0.231128 -0.4475757 -0.8373472 0.3138883 0 -1 -5.46537e-7 0 -1 6.41202e-7 0 -1 -3.78697e-7 0 -1 -2.75199e-7 0 -1 1.1725e-6 0 -1 -2.06346e-6 0 -1 1.1533e-6 0 -1 -3.87539e-7 0 -1 3.61547e-7 0 -1 7.1902e-7 0 -1 -8.16304e-7 0 -1 1.45221e-6 0 -1 0 0 -1 -1.37344e-6 0 -1 1.06962e-6 0 -1 -4.81916e-7 0 -1 2.91369e-7 0 -1 4.93424e-7 0 -1 -1.91031e-6 0 -1 9.44914e-7 0 -1 2.72743e-7 0 -1 1.37631e-6 0 -1 4.55784e-7 0 -1 -1.09612e-6 0 -1 -6.47294e-7 0 -1 1.41682e-7 0 -1 -2.15922e-7 0 -1 1.41924e-6 0 -1 3.40116e-7 0 -1 -9.51971e-6 0 -1 2.39948e-6 0 -1 -2.84175e-6 0 -1 -6.5714e-7 0 -1 1.93292e-7 0 -1 -9.11521e-7 0 -1 3.74734e-7 0 -1 -2.80507e-6 0 -1 2.11991e-6 0 -1 -2.09091e-6 0 -1 1.93925e-6 0 -1 5.78711e-6 0 -1 -7.18649e-6 0 -1 4.25547e-6 0 -1 -2.47477e-6 0 -1 -3.44852e-7 -0.04906344 0.001044213 -0.9987952 -0.2893117 -0.9537345 0.08178848 -0.2080717 -0.9781095 -0.00282365 -0.05339741 0.03197157 -0.9980615 -0.05612599 0.02704948 -0.9980573 0.6131419 0.698755 -0.3685084 0.8032042 -0.00581634 -0.5956755 -0.2080743 0.978112 -0.001400113 -0.07004261 0.9384419 0.3382617 -0.2893117 0.9537345 0.08178848 -0.05534923 0.9383239 0.3412986 -0.4475772 0.8373464 0.313888 -0.5178228 0.8236744 0.231128 -0.5177263 0.8237375 0.2311192 -0.5178747 0.8236446 0.2311176 -0.5177745 0.8237051 0.2311272 -0.5178256 0.8236775 0.2311106 0.4713888 0 0.8819255 0.4714207 0 0.8819086 0.2146617 0 -0.9766885 -0.6548312 0.6625199 -0.3636807 -0.625824 0.7312778 0.2712512 -0.6512897 0.7575548 0.04396176 -0.6512897 -0.7575548 0.04396176 -0.6521477 -0.7566253 0.04713541 -0.6792759 -0.6872042 0.2575551 -0.6045267 -0.7366252 0.3032011 -0.3409419 -0.935895 0.0886532 -0.2799291 -0.9600049 0.005508959 -0.1466939 -0.0204159 -0.9889713 0.8570371 0.01250249 -0.5151033 0.6421559 0.713105 -0.2812775 -0.2216386 0.9751248 0.002802431 -0.156796 0.9258793 0.343748 -0.3409419 0.935895 0.08865326 -0.4697288 0.8787948 0.08411014 -0.6045255 0.736626 0.3032014 0.2902753 0 0.9569433 0.290294 0 0.9569376 0.07208091 0 -0.9973988 0.07204437 0 -0.9974015 -0.6521478 0.7566252 0.04713487 -0.6792747 0.6872052 0.2575554 -0.7619141 -0.6472356 -0.02393782 -0.7435118 -0.6101805 0.2736237 -0.4681452 -0.8796082 0.08443778 -0.3422874 -0.9395923 -0.00240308 -0.1679037 0.02366781 -0.9855193 -0.4697288 -0.8787948 0.08411014 0.8576643 0.01168406 -0.5140774 0.6676222 0.6973859 -0.260641 0.6772859 0.7143733 -0.1759397 0.6968159 0.715892 0.04411715 0.6808257 0.7161542 0.1536216 -0.2087134 0.9182491 0.3365373 -0.3422876 0.9395917 -0.002603054 -0.4681435 0.879609 0.0844379 -0.5858573 0.805532 0.08882278 0.5993162 0.7156627 0.3586739 0.6480743 0.7160732 0.259305 0.5356882 0.7149168 0.4493685 0.4586706 0.7138313 0.5292127 -0.7619141 0.6472356 -0.02393782 -0.7435125 0.6101799 0.2736234 -0.7841149 -0.6205648 0.007954359 -0.7557797 -0.598145 0.2664955 -0.4698185 -0.8827525 0.004318118 -0.2429279 -0.01583945 -0.969915 -0.5858573 -0.805532 0.08882272 0.9039751 -0.005650818 -0.4275479 0.9313906 0.01733493 -0.3636084 0.695633 0.715303 -0.0666061 0.7029503 0.6963285 -0.1448709 0.712325 0.6951839 0.09650129 0.718016 0.6955908 -0.02462774 0.6860279 0.6950998 0.2149466 -0.2827273 0.8936295 0.3485567 -0.3639492 0.9314107 0.0039047 -0.4698215 0.8827542 -0.003606498 -0.6322671 0.7704268 0.08173811 -0.5881772 0.8087201 -0.004415571 -0.07208025 0 -0.9973989 -0.07204371 0 -0.9974015 0.5753585 0.6958949 0.4297592 0.6399185 0.6953331 0.3271332 0.4943128 0.6967744 0.5197694 0.3992318 0.6979709 0.5945171 0.3700355 0.7124062 0.5962811 0.2718603 0.7106253 0.648925 0.09801101 0 0.9951853 0.09801101 0 0.9951853 -0.7841149 0.6205648 0.007954359 -0.7557797 0.598145 0.2664955 -0.8536439 -0.5207489 -0.01061594 -0.82436 -0.5028816 0.2598859 -0.6322671 -0.7704268 0.08173811 -0.4548818 -0.8905516 6.6798e-4 -0.2763528 0.01401317 -0.9609542 -0.5881831 -0.8087277 -4.97584e-4 0.941542 0.001838922 -0.3368905 0.9792531 0.01830154 -0.2018131 0.9908369 0.01498156 0.13423 0.9992939 0.01538997 -0.03427571 0.9540989 0.01820355 0.298938 -0.3430002 0.8778119 0.3343609 1 0 0 1 0 0 -0.4981679 0.8670673 0.004804491 -0.6923052 0.7160256 0.08956009 -0.6093891 0.7928691 0.00189048 -0.2146636 0 -0.9766881 0.8011131 0.01303201 0.5983712 0.8902618 0.01755779 0.4551107 0.6890376 0.01679784 0.724531 0.5574044 0.0184077 0.830037 0.2929635 0.6994856 0.6518377 0.1787359 0.7013096 0.6900858 0.1664117 0.7084928 0.6858171 -0.8536439 0.5207489 -0.01061594 -0.82436 0.5028816 0.259886 -0.8536723 -0.5207011 -0.01068204 -0.8475673 -0.4530375 0.2763814 -0.8790941 -0.4698741 0.08007407 -0.7703589 -0.6322193 0.08274191 -0.6923052 -0.7160256 0.08956003 -0.5141019 0.005463421 -0.8577117 -0.427533 -0.006189703 -0.9039785 -0.3368875 -0.009678125 -0.9414952 -0.6097854 -0.7925584 0.003598868 0.9700275 -0.00160861 -0.2429905 0.9891698 -0.004127681 -0.146718 0.9891522 0.007114768 0.1467221 0.9987759 -0.006217658 0.04907327 0.9987753 0.006311178 -0.04907321 0.9415457 -0.00111109 0.3368837 0.9700204 -0.004443287 0.2429831 -0.4084479 0.8437561 0.3482041 -0.4836121 0 -0.8752824 -0.4836694 0 -0.8752508 -0.4705807 0.819043 0.328211 -0.6950961 0.7189118 0.002681791 -0.7703589 0.6322193 0.08274191 -0.6149351 0.7885779 0 -0.7107257 0.703465 -0.002490639 -0.352808 0 -0.9356958 -0.3528394 0 -0.9356839 0.7409432 -0.005949616 0.6715414 0.8031551 0.01074618 0.5956731 0.8577161 -0.005470514 0.5140947 0.9039895 0.00121957 0.4275532 0.6715717 0.003225624 0.7409326 0.5140842 -0.003396332 0.857733 0.5956643 -0.002553284 0.8032295 0.4098778 0.01614958 0.9119975 0.2507138 0.0140658 0.9679592 -0.09801304 0 0.9951851 0.05996841 0.7034302 0.70823 -0.8536736 0.520699 -0.0106821 -0.8475673 0.4530375 0.2763814 -0.9105786 -0.4132587 0.007991015 -0.8795227 -0.3991595 0.259059 -0.8978008 -0.4321555 0.08482736 -0.8717927 -0.4827912 0.08300733 -0.7854992 -0.612766 0.08665364 -0.6950944 -0.7189146 -0.002388536 -0.4992209 0.01580131 -0.8663307 -0.5956852 -0.003760337 -0.8032093 -0.3748571 0.007355272 -0.9270535 -0.7884628 0.6150795 -0.00192666 -0.7854992 0.612766 0.08665364 -0.7137997 0.7003499 0 0.4275599 0.004712641 0.9039748 0.3368788 -0.006134867 0.941528 0.2429705 0.008875548 0.9699932 0.05613464 0.7059918 0.7059919 0.08435666 0.01793909 0.9962741 -0.9105776 0.4132609 0.007991135 -0.8795232 0.3991589 0.2590587 -0.9241772 -0.3812118 -0.02396422 -0.919061 -0.2886477 0.2683457 -0.9540909 -0.289431 0.07707417 -0.9539948 2.53969e-5 0.2998237 -0.9188128 -0.3847911 0.08785742 -0.9920464 0 0.1258735 -0.8586459 -0.5050912 0.08723688 -0.7883166 -0.6149653 0.01935923 -0.7986439 -0.6016715 0.01262444 -0.3546908 0.7037951 -0.6155216 -0.6377609 0.01837337 -0.7700154 0 1 -3.59087e-6 -0.8288316 0.5594137 0.009726464 -0.8586459 0.5050912 0.08723688 -1 0 0 -1 0 0 -1 0 0 -1 6.23827e-7 0 -1 1.0659e-6 0 -1 0 2.58044e-7 -1 -2.1739e-6 -5.45679e-7 -1 -5.61182e-7 0 -0.2902695 0 0.956945 -0.2902882 0 0.9569392 0.1467381 -0.005009949 0.9891627 -0.05613493 0.7059921 0.7059916 0.04904973 0 0.9987964 -0.9241763 0.3812139 -0.02396446 -0.879093 0.4698755 0.08007794 -0.9190614 0.2886472 0.2683452 -0.9539297 -0.2996049 0.01597505 -0.9207253 -0.2792895 0.2725114 -0.9704574 -0.2230612 0.09195786 -0.9405918 -0.3287203 0.08503067 -0.9538348 -1.89532e-5 0.300332 -0.9920145 -2.12434e-5 0.1261249 -0.8956536 1.4663e-5 0.4447524 -0.9994454 0 0.03330278 -0.9994453 0 0.03330248 -0.8626778 -0.4971279 0.09301126 -0.8664326 -0.4992818 -0.003528177 -0.8213675 -0.5681626 0.05046731 -0.4001644 0.7071152 -0.5829722 -0.7756689 -0.6304683 -0.02911537 -0.4540078 0.7024217 -0.5481613 -0.6715553 -0.002111077 -0.7409515 -0.4714264 0 0.8819054 -0.4713947 0 0.8819225 -0.6343823 0 0.7730196 -0.6343945 0 0.7730095 -0.7866443 0.5309105 0.3151584 -0.7866316 0.5309311 0.3151557 -0.8233382 0.5674682 0.009711027 -0.8626777 0.4971278 0.09301143 -0.8718901 0.482621 0.08297353 -0.05996912 0.70343 0.7082302 -0.04905003 0 0.9987964 -0.9539297 0.2996049 0.01597505 -0.9207249 0.27929 0.2725119 -0.8978226 0.4321089 0.08483231 -0.9722346 -0.2324895 -0.02661859 -0.9501457 -0.1754232 0.2577787 -0.9920386 -0.09771358 0.07944577 -0.7582169 2.41827e-5 0.6520025 -0.8328214 1.61636e-5 0.553542 -0.8954583 -1.93936e-5 0.4451455 -0.999445 0 0.03331583 -0.999445 0 0.03331571 -0.9998574 0 0.01688563 -0.9998574 0 0.01689082 -0.7911643 -0.6116025 -0.001261234 -0.9396924 7.90667e-6 0.342021 -0.4456052 0.7071877 -0.5489277 -0.8452634 -0.5343447 -0.002370059 -0.5250027 0.7095186 -0.470059 0 -1 -7.12967e-6 -0.7409539 0.002550721 -0.6715511 -0.7730123 0 0.6343911 -0.8287361 0.55931 0.01920318 -0.804881 0.4851688 0.3417279 -0.8664326 0.4992818 -0.003528177 -0.1664134 0.7084918 0.6858178 -0.08435761 0.01793926 0.9962741 -0.9722346 0.2324895 -0.02661859 -0.9540923 0.2894297 0.07706147 -0.9501457 0.1754232 0.2577787 -0.9188967 0.3845896 0.08786195 -0.9832927 -0.1815447 0.01330476 -0.9566488 -0.09423118 0.2755784 -0.9932858 -0.07635414 0.08691096 -0.9932864 -0.07634282 0.08691352 -0.7579594 -3.69635e-5 0.6523019 -0.8325052 -2.45773e-5 0.5540174 -0.9986764 0 -0.05143511 -0.9396911 2.08281e-5 0.3420244 -0.939693 0 0.342019 -0.8855294 -0.4645832 5.74037e-4 -0.5412045 0.7004313 -0.4652889 -0.7581712 0.01706522 -0.6518323 -0.8664074 0.3568707 0.3492586 -0.881923 0 0.4713937 -0.881923 0 0.4713937 -0.8526796 0.3953505 0.3415195 -0.1787328 0.7013114 0.6900848 -0.2718589 0.7106286 0.6489219 -0.1467381 -0.005008995 0.9891628 -0.9832926 0.1815454 0.01330482 -0.9406879 0.3284522 0.08500266 -0.9705765 0.2225195 0.09201252 -0.9920446 0.09771609 0.07936781 -0.9566488 0.09423118 0.2755784 -0.9967674 -0.07815474 -0.01862186 -0.9631012 -0.05869501 0.2626615 -0.6966437 7.33099e-6 0.7174173 -0.9948937 -0.002321958 -0.1009023 -0.9396926 -1.1188e-6 0.3420202 -0.902248 -0.4311949 0.004418253 -0.9859992 7.06512e-4 -0.1667488 -0.5910263 0.7114881 -0.3800956 -0.8032041 -0.00582695 -0.5956754 -0.9700394 -0.001590132 -0.2429429 -0.9415337 0.001859426 -0.3369138 -0.3368873 -0.006136834 0.941525 -0.4275552 0.004712998 0.903977 -0.8853938 0.3145876 0.3422173 -0.9172585 0.2043246 0.3418894 -0.956939 0 0.2902894 -0.956939 0 0.2902894 -0.9626969 -8.23039e-4 -0.2705812 -0.3700332 0.712408 0.5962805 -0.2507101 0.01406669 0.9679601 -0.2929646 0.6994876 0.651835 -0.2429676 0.008876621 0.9699938 -0.9967674 0.07815474 -0.01862186 -0.9933094 0.07604646 0.08691048 -0.9933103 0.07603478 0.08690983 -0.9631012 0.05869501 0.2626615 -0.9981482 -0.06083142 0 -0.9390009 0.03833395 0.3417716 -0.939688 0 0.3420327 -0.9072834 -0.4205199 0 -0.6131431 0.6987598 -0.3684974 -0.8570476 0.0124945 -0.5150857 -0.9792524 0.01830053 -0.2018163 -0.9313855 0.01734155 -0.3636212 -0.9987766 -0.006220221 0.04905802 -0.4098805 0.01614505 0.9119964 -0.514087 -0.003396809 0.8577315 -0.9219677 0 -0.3872671 -0.9165738 0.2093645 0.3406746 -0.9352836 0.07338523 0.346207 -0.9330927 0.1126167 0.3415489 -0.4586678 0.7138303 0.5292166 -0.535691 0.7149174 0.4493643 -0.5993112 0.7156618 0.3586842 -0.9414843 0.003262996 -0.3370411 -0.3992329 0.6979713 0.594516 -0.9981482 0.06083142 0 -1 -1.48189e-6 0 -0.6421552 0.7131056 -0.2812778 -0.8576708 0.01168292 -0.5140665 -0.7029539 0.6963247 -0.1448718 -0.9891675 -0.004122853 -0.1467342 -0.9039745 -0.005648374 -0.4275492 -0.6676222 0.6973859 -0.2606405 -0.9992938 0.01538461 -0.03428417 -0.9908365 0.01498216 0.1342335 -0.5574064 0.01840692 0.8300358 -0.995185 0 0.09801441 -0.9951848 0 0.09801644 -0.494311 0.6967731 0.519773 -0.57536 0.6958964 0.4297549 -0.6480834 0.716065 0.2593045 -0.6399247 0.6953256 0.3271371 -0.6956421 0.7152942 -0.06660616 -0.6772856 0.7143719 -0.1759462 -0.998776 0.006319403 -0.04905796 -0.9039876 0.001226603 0.4275571 -0.9415374 -0.001103997 0.3369068 -0.7180092 0.6955976 -0.0246337 -0.9891509 0.007106244 0.1467317 -0.7123292 0.6951797 0.09650069 -0.5956582 -0.002549707 0.803234 -0.6808204 0.716159 0.1536227 -0.6890339 0.01679551 0.7245345 -0.8011168 0.01302796 0.5983663 -0.6860283 0.6950976 0.2149523 -0.8902586 0.01755923 0.4551168 -0.9540965 0.01821875 0.2989449 -0.6968162 0.7158917 0.04411703 -0.9700283 -0.004445374 0.2429515 -0.6715781 0.003230631 0.7409268 -0.7409432 -0.005954563 0.6715414 -0.8031551 0.01074618 0.5956731 -0.8577166 -0.005469799 0.5140939 0 -1 7.12967e-6</float_array>
          <technique_common>
            <accessor source="#Link4_002-mesh-normals-array" count="861" stride="3">
              <param name="X" type="float"/>
              <param name="Y" type="float"/>
              <param name="Z" type="float"/>
            </accessor>
          </technique_common>
        </source>
        <vertices id="Link4_002-mesh-vertices">
          <input semantic="POSITION" source="#Link4_002-mesh-positions"/>
        </vertices>
        <triangles material="link_01_part_000_mtl_001_011-material" count="1055">
          <input semantic="VERTEX" source="#Link4_002-mesh-vertices" offset="0"/>
          <input semantic="NORMAL" source="#Link4_002-mesh-normals" offset="1"/>
          <p>0 0 1 0 2 0 1 1 0 1 3 1 2 2 4 2 0 2 5 3 2 3 1 3 6 4 1 4 3 4 4 5 3 5 0 5 4 6 2 6 7 6 8 7 9 7 10 7 10 7 9 7 11 7 12 8 13 8 2 8 2 7 13 7 14 7 2 9 14 9 15 9 16 7 17 7 18 7 18 10 17 10 19 10 5 7 20 7 11 7 21 7 22 7 18 7 18 7 22 7 23 7 18 7 23 7 24 7 19 7 7 7 18 7 18 11 7 11 2 11 18 7 2 7 25 7 20 7 26 7 11 7 11 12 26 12 27 12 11 7 27 7 28 7 24 7 29 7 18 7 18 7 29 7 30 7 18 7 30 7 16 7 28 7 31 7 11 7 11 7 31 7 32 7 11 7 32 7 10 7 15 7 33 7 2 7 2 13 33 13 34 13 2 14 34 14 35 14 5 7 11 7 2 7 2 15 11 15 36 15 2 16 36 16 37 16 35 7 38 7 2 7 2 17 38 17 39 17 2 16 39 16 25 16 40 18 41 18 2 18 2 7 41 7 42 7 2 19 42 19 12 19 37 7 43 7 2 7 2 20 43 20 44 20 2 14 44 14 40 14 45 21 5 21 1 21 6 22 45 22 1 22 46 23 47 23 48 23 48 24 47 24 49 24 48 25 49 25 50 25 50 26 49 26 51 26 50 25 51 25 52 25 52 25 51 25 53 25 52 25 53 25 54 25 54 27 53 27 55 27 54 28 55 28 56 28 56 29 55 29 57 29 56 30 57 30 58 30 58 25 57 25 59 25 58 31 59 31 60 31 60 32 59 32 61 32 60 25 61 25 62 25 62 25 61 25 63 25 62 25 63 25 64 25 64 25 63 25 65 25 64 25 65 25 66 25 66 25 65 25 67 25 66 33 67 33 68 33 68 25 67 25 69 25 68 34 69 34 70 34 70 35 69 35 71 35 70 36 71 36 72 36 72 25 71 25 73 25 72 25 73 25 74 25 74 25 73 25 75 25 74 25 75 25 76 25 76 26 75 26 77 26 76 37 77 37 78 37 78 38 77 38 79 38 78 39 79 39 80 39 80 40 79 40 81 40 80 25 81 25 82 25 82 41 81 41 83 41 82 25 83 25 84 25 84 25 83 25 85 25 84 25 85 25 86 25 86 42 85 42 87 42 86 43 87 43 88 43 88 44 87 44 89 44 88 45 89 45 90 45 90 25 89 25 91 25 90 46 91 46 92 46 92 47 91 47 6 47 92 25 6 25 93 25 93 25 6 25 3 25 93 25 3 25 94 25 94 25 3 25 95 25 94 25 95 25 96 25 96 25 95 25 97 25 96 48 97 48 98 48 98 25 97 25 99 25 98 49 99 49 100 49 100 50 99 50 101 50 100 51 101 51 102 51 102 25 101 25 103 25 102 25 103 25 104 25 104 25 103 25 105 25 104 25 105 25 106 25 106 41 105 41 107 41 106 52 107 52 46 52 46 53 107 53 47 53 4 54 95 54 3 54 4 55 7 55 108 55 5 56 45 56 20 56 91 57 45 57 6 57 108 58 95 58 4 58 19 59 108 59 7 59 109 60 20 60 45 60 109 61 45 61 91 61 92 62 93 62 110 62 95 63 108 63 97 63 108 64 19 64 111 64 26 65 20 65 109 65 109 66 91 66 112 66 113 67 92 67 110 67 110 68 93 68 114 68 94 69 115 69 93 69 108 70 111 70 97 70 19 71 17 71 111 71 26 72 109 72 112 72 89 73 112 73 91 73 113 74 90 74 92 74 110 75 115 75 113 75 114 76 115 76 110 76 93 77 115 77 114 77 116 78 94 78 96 78 94 79 116 79 115 79 97 80 111 80 117 80 111 81 17 81 117 81 27 82 26 82 112 82 112 83 89 83 118 83 119 84 90 84 113 84 90 85 120 85 88 85 113 86 115 86 116 86 116 87 96 87 121 87 96 88 98 88 122 88 97 89 117 89 99 89 17 90 16 90 117 90 118 91 27 91 112 91 89 92 123 92 118 92 124 93 90 93 119 93 119 94 113 94 116 94 90 95 124 95 120 95 88 96 120 96 125 96 119 97 116 97 121 97 96 98 126 98 121 98 122 99 126 99 96 99 127 100 122 100 98 100 128 101 99 101 117 101 117 102 16 102 128 102 27 103 118 103 123 103 87 104 123 104 89 104 121 105 124 105 119 105 120 106 124 106 126 106 129 107 88 107 125 107 122 108 125 108 120 108 126 109 124 109 121 109 120 110 126 110 122 110 125 111 122 111 127 111 130 112 127 112 98 112 100 113 131 113 98 113 132 114 99 114 128 114 132 115 128 115 16 115 30 116 132 116 16 116 123 117 28 117 27 117 133 118 123 118 87 118 86 119 88 119 134 119 129 120 134 120 88 120 125 121 135 121 129 121 127 122 136 122 125 122 125 123 136 123 135 123 136 124 127 124 130 124 131 125 130 125 98 125 99 126 132 126 101 126 100 127 137 127 131 127 138 128 132 128 30 128 28 129 123 129 133 129 139 130 133 130 87 130 87 131 85 131 139 131 140 132 86 132 134 132 141 133 134 133 129 133 129 134 135 134 141 134 130 135 142 135 136 135 130 136 131 136 143 136 132 137 138 137 101 137 103 138 101 138 144 138 100 139 102 139 137 139 131 140 137 140 143 140 138 141 30 141 145 141 28 142 146 142 31 142 28 143 133 143 146 143 133 144 139 144 147 144 148 145 139 145 85 145 84 146 86 146 140 146 134 147 149 147 140 147 149 148 134 148 141 148 136 149 142 149 135 149 135 150 142 150 141 150 142 151 130 151 150 151 130 152 143 152 150 152 138 153 144 153 101 153 151 154 103 154 144 154 137 155 102 155 152 155 143 156 137 156 153 156 145 157 154 157 138 157 29 158 145 158 30 158 32 159 31 159 146 159 146 160 133 160 147 160 139 161 155 161 147 161 147 161 155 161 156 161 147 161 156 161 146 161 157 25 158 25 159 25 159 162 158 162 160 162 159 163 160 163 161 163 161 25 162 25 159 25 159 164 162 164 163 164 159 165 163 165 164 165 139 25 148 25 155 25 155 166 148 166 165 166 155 167 165 167 166 167 166 25 167 25 155 25 155 168 167 168 168 168 155 169 168 169 169 169 169 25 170 25 155 25 155 25 170 25 171 25 155 25 171 25 159 25 159 25 171 25 172 25 159 170 172 170 157 170 165 171 148 171 85 171 84 172 140 172 173 172 85 173 83 173 168 173 174 174 140 174 149 174 141 175 175 175 149 175 142 176 150 176 176 176 141 177 142 177 175 177 143 178 177 178 150 178 150 179 177 179 176 179 138 180 154 180 144 180 105 181 103 181 178 181 179 182 103 182 151 182 151 25 144 25 180 25 181 25 178 25 180 25 180 168 178 168 182 168 182 25 183 25 180 25 180 167 183 167 179 167 180 166 179 166 151 166 184 25 185 25 186 25 186 164 185 164 187 164 186 183 187 183 188 183 188 25 189 25 186 25 186 162 189 162 190 162 186 184 190 184 191 184 191 25 192 25 186 25 186 25 192 25 193 25 186 25 193 25 180 25 180 25 193 25 194 25 180 185 194 185 181 185 152 186 195 186 137 186 102 187 104 187 152 187 143 188 153 188 196 188 137 189 195 189 153 189 180 161 144 161 197 161 197 161 144 161 154 161 197 161 154 161 145 161 145 190 29 190 24 190 32 191 146 191 198 191 166 192 165 192 85 192 166 193 85 193 167 193 167 194 85 194 168 194 173 195 82 195 84 195 140 196 174 196 173 196 169 197 168 197 83 197 199 198 174 198 149 198 200 199 149 199 175 199 176 200 175 200 142 200 177 161 143 161 196 161 201 201 202 201 196 201 196 202 202 202 203 202 203 203 204 203 205 203 205 204 206 204 203 204 203 205 206 205 207 205 203 206 207 206 196 206 196 207 207 207 208 207 196 161 208 161 177 161 208 208 176 208 177 208 105 209 178 209 181 209 182 210 178 210 103 210 103 211 179 211 183 211 183 212 182 212 103 212 152 213 209 213 195 213 152 214 104 214 210 214 211 7 212 7 213 7 213 7 212 7 201 7 213 7 201 7 153 7 153 7 201 7 196 7 153 215 195 215 213 215 214 216 215 216 216 216 216 7 215 7 197 7 216 217 197 217 145 217 24 218 216 218 145 218 32 219 198 219 217 219 218 7 217 7 156 7 156 220 217 220 198 220 156 221 198 221 146 221 155 222 159 222 219 222 219 223 159 223 220 223 9 223 8 223 219 223 219 224 8 224 218 224 219 225 218 225 155 225 155 223 218 223 156 223 221 226 82 226 173 226 222 227 173 227 174 227 81 228 169 228 83 228 199 229 223 229 174 229 199 230 149 230 224 230 225 231 149 231 200 231 200 232 175 232 226 232 176 233 227 233 175 233 228 234 176 234 208 234 105 235 181 235 107 235 152 236 210 236 209 236 195 237 209 237 229 237 210 238 104 238 230 238 231 239 232 239 233 239 234 240 235 240 236 240 233 240 237 240 231 240 231 240 237 240 238 240 231 241 238 241 239 241 239 242 238 242 240 242 239 240 240 240 241 240 236 240 235 240 242 240 242 240 235 240 243 240 242 243 243 243 244 243 244 244 243 244 211 244 244 245 211 245 229 245 229 240 211 240 213 240 229 246 213 246 195 246 231 240 245 240 246 240 246 247 247 247 231 247 231 240 247 240 248 240 231 248 248 248 232 248 232 240 248 240 249 240 232 240 249 240 236 240 236 249 249 249 250 249 236 240 250 240 234 240 251 240 252 240 186 240 180 240 197 240 215 240 22 250 21 250 215 250 215 251 21 251 251 251 215 240 251 240 180 240 180 252 251 252 186 252 216 253 24 253 214 253 24 254 23 254 214 254 217 255 10 255 32 255 169 256 81 256 170 256 253 257 82 257 221 257 173 258 222 258 221 258 174 259 223 259 222 259 82 260 253 260 80 260 225 261 224 261 149 261 225 262 200 262 254 262 200 263 226 263 254 263 175 264 227 264 226 264 228 265 227 265 176 265 208 266 207 266 228 266 181 267 194 267 107 267 104 268 106 268 230 268 210 269 255 269 209 269 244 270 229 270 209 270 210 271 230 271 255 271 22 272 215 272 23 272 23 273 215 273 214 273 8 272 10 272 218 272 218 273 10 273 217 273 170 274 81 274 79 274 170 275 79 275 171 275 253 276 221 276 222 276 256 277 222 277 223 277 257 278 78 278 80 278 253 279 257 279 80 279 258 280 224 280 225 280 259 281 225 281 254 281 226 282 205 282 254 282 260 283 226 283 227 283 227 284 228 284 261 284 207 285 262 285 228 285 107 286 194 286 47 286 263 287 106 287 46 287 230 288 106 288 263 288 194 289 193 289 47 289 255 290 244 290 209 290 230 291 264 291 255 291 265 240 266 240 202 240 201 240 212 240 202 240 202 292 212 292 267 292 202 293 267 293 265 293 265 294 267 294 268 294 265 295 268 295 269 295 269 240 270 240 265 240 265 296 270 296 271 296 265 297 271 297 272 297 273 240 274 240 275 240 275 298 274 298 276 298 275 299 276 299 277 299 277 300 276 300 265 300 277 301 265 301 278 301 278 302 265 302 272 302 266 240 279 240 202 240 202 303 279 303 280 303 202 304 280 304 281 304 281 240 282 240 202 240 202 305 282 305 283 305 202 306 283 306 284 306 284 307 285 307 202 307 202 240 285 240 286 240 202 308 286 308 287 308 287 240 288 240 202 240 202 309 288 309 289 309 202 240 289 240 290 240 290 310 289 310 291 310 290 240 291 240 292 240 172 311 171 311 79 311 293 312 253 312 222 312 222 313 256 313 293 313 294 314 78 314 257 314 253 315 293 315 257 315 225 316 295 316 258 316 225 317 259 317 296 317 297 318 298 318 203 318 299 240 300 240 301 240 301 240 300 240 302 240 301 319 302 319 303 319 303 320 302 320 304 320 303 321 304 321 305 321 305 240 304 240 306 240 305 322 306 322 307 322 307 240 306 240 308 240 307 323 308 323 309 323 297 240 203 240 310 240 254 240 204 240 259 240 259 324 204 324 203 324 259 240 203 240 311 240 311 325 203 325 298 325 308 240 312 240 309 240 309 240 312 240 313 240 309 240 313 240 314 240 314 326 313 326 315 326 314 240 315 240 316 240 316 327 315 327 317 327 316 328 317 328 318 328 318 329 317 329 319 329 318 330 319 330 320 330 319 240 321 240 320 240 320 331 321 331 322 331 320 240 322 240 323 240 323 332 322 332 324 332 323 240 324 240 203 240 203 333 324 333 325 333 203 334 325 334 310 334 326 335 327 335 328 335 328 336 327 336 329 336 328 240 329 240 330 240 330 337 329 337 331 337 330 338 331 338 332 338 332 339 331 339 333 339 332 340 333 340 299 340 299 341 333 341 334 341 299 240 334 240 300 240 335 240 336 240 337 240 337 342 336 342 338 342 337 343 338 343 326 343 326 344 338 344 339 344 326 345 339 345 327 345 340 240 341 240 337 240 337 240 341 240 342 240 342 240 343 240 337 240 337 240 343 240 344 240 337 346 344 346 335 346 205 347 226 347 345 347 205 348 204 348 254 348 226 349 260 349 345 349 260 350 227 350 261 350 262 351 261 351 228 351 262 352 207 352 346 352 263 353 46 353 347 353 263 354 264 354 230 354 192 355 47 355 193 355 255 356 242 356 244 356 242 357 255 357 264 357 211 358 243 358 212 358 212 359 243 359 267 359 348 360 11 360 219 360 219 361 11 361 9 361 348 362 219 362 349 362 349 7 219 7 220 7 349 363 220 363 350 363 159 364 164 364 220 364 220 364 164 364 351 364 220 364 351 364 350 364 77 365 172 365 79 365 256 366 352 366 293 366 353 367 78 367 294 367 257 368 354 368 294 368 293 369 354 369 257 369 296 370 295 370 225 370 311 371 296 371 259 371 205 372 345 372 355 372 345 161 260 161 261 161 262 161 346 161 261 161 261 373 346 373 355 373 261 374 355 374 345 374 206 375 346 375 207 375 347 376 356 376 263 376 347 377 46 377 357 377 192 378 49 378 47 378 264 379 263 379 356 379 242 380 264 380 236 380 235 381 268 381 243 381 243 382 268 382 267 382 358 360 251 360 18 360 18 361 251 361 21 361 251 7 358 7 252 7 252 383 358 383 359 383 252 384 359 384 360 384 184 364 186 364 361 364 361 364 186 364 252 364 361 364 252 364 360 364 36 385 11 385 348 385 157 386 172 386 77 386 352 387 354 387 293 387 76 388 78 388 353 388 353 389 294 389 362 389 354 390 362 390 294 390 296 391 363 391 295 391 311 392 364 392 296 392 205 393 355 393 206 393 206 394 355 394 346 394 357 395 356 395 347 395 46 396 48 396 357 396 191 397 49 397 192 397 264 398 356 398 236 398 320 399 292 399 318 399 318 399 292 399 291 399 318 400 291 400 316 400 316 400 291 400 289 400 25 401 358 401 18 401 36 402 348 402 349 402 36 403 349 403 350 403 365 404 350 404 351 404 164 405 365 405 351 405 75 406 158 406 157 406 75 407 157 407 77 407 352 408 366 408 354 408 367 409 76 409 353 409 368 410 353 410 362 410 369 411 363 411 296 411 295 412 363 412 369 412 364 413 311 413 298 413 364 414 369 414 296 414 290 415 323 415 202 415 202 416 323 416 203 416 357 417 370 417 356 417 371 418 357 418 48 418 49 419 191 419 51 419 232 420 236 420 356 420 191 421 190 421 51 421 320 422 323 422 292 422 292 423 323 423 290 423 289 424 288 424 316 424 316 425 288 425 314 425 234 426 269 426 235 426 235 427 269 427 268 427 25 428 359 428 358 428 25 429 360 429 359 429 361 430 360 430 372 430 372 431 184 431 361 431 25 432 39 432 360 432 350 433 37 433 36 433 373 434 350 434 365 434 71 435 365 435 164 435 160 436 158 436 73 436 161 437 160 437 73 437 73 438 162 438 161 438 162 439 73 439 163 439 163 440 73 440 164 440 75 441 73 441 158 441 374 223 375 223 376 223 377 223 378 223 379 223 379 442 378 442 380 442 379 443 380 443 376 443 375 223 381 223 376 223 376 444 381 444 382 444 376 445 382 445 379 445 383 223 384 223 385 223 385 446 384 446 386 446 369 447 387 447 376 447 376 448 387 448 388 448 376 449 388 449 389 449 379 450 390 450 391 450 223 223 392 223 376 223 376 451 392 451 224 451 376 452 224 452 393 452 393 223 295 223 376 223 376 453 295 453 394 453 376 454 394 454 369 454 395 455 396 455 376 455 376 456 396 456 397 456 376 457 397 457 398 457 398 223 399 223 376 223 376 458 399 458 400 458 376 459 400 459 374 459 401 460 402 460 383 460 383 461 402 461 403 461 383 462 403 462 384 462 404 223 405 223 406 223 407 463 408 463 379 463 379 464 408 464 409 464 379 465 409 465 390 465 391 223 410 223 379 223 379 466 410 466 411 466 379 467 411 467 377 467 389 223 412 223 376 223 376 468 412 468 413 468 376 469 413 469 395 469 401 223 414 223 402 223 402 470 414 470 415 470 402 223 415 223 416 223 404 471 406 471 417 471 417 472 406 472 418 472 417 473 418 473 402 473 386 223 384 223 379 223 379 474 384 474 419 474 379 475 419 475 420 475 420 223 421 223 379 223 379 476 421 476 422 476 379 477 422 477 407 477 423 223 424 223 376 223 376 478 424 478 366 478 416 479 425 479 402 479 402 480 425 480 426 480 402 481 426 481 417 481 376 482 427 482 423 482 423 483 427 483 428 483 423 223 428 223 429 223 429 223 428 223 430 223 366 484 352 484 376 484 376 485 352 485 431 485 376 486 431 486 223 486 424 487 354 487 366 487 76 488 367 488 74 488 353 489 368 489 367 489 354 490 424 490 362 490 362 491 424 491 368 491 364 492 298 492 432 492 364 493 433 493 369 493 370 494 357 494 371 494 233 495 356 495 370 495 50 496 371 496 48 496 356 497 233 497 232 497 53 498 51 498 190 498 185 499 184 499 53 499 187 500 185 500 53 500 188 501 187 501 53 501 188 502 53 502 189 502 189 503 53 503 190 503 288 504 287 504 314 504 314 505 287 505 309 505 250 506 270 506 234 506 234 506 270 506 269 506 360 507 434 507 372 507 184 508 372 508 55 508 39 509 38 509 360 509 37 510 350 510 43 510 373 511 43 511 350 511 365 512 71 512 373 512 73 513 71 513 164 513 435 514 74 514 367 514 436 515 367 515 368 515 368 516 424 516 423 516 432 517 433 517 364 517 298 518 297 518 432 518 370 519 371 519 437 519 233 520 370 520 237 520 371 521 50 521 438 521 52 522 439 522 50 522 55 523 53 523 184 523 287 524 286 524 309 524 309 525 286 525 307 525 271 526 270 526 249 526 249 527 270 527 250 527 38 528 434 528 360 528 55 529 372 529 434 529 43 530 373 530 44 530 69 531 373 531 71 531 431 240 352 240 223 240 224 240 392 240 223 240 440 532 74 532 435 532 435 533 367 533 436 533 423 534 436 534 368 534 72 535 74 535 440 535 432 536 388 536 433 536 297 537 441 537 432 537 310 538 441 538 297 538 324 539 442 539 325 539 322 540 443 540 324 540 437 541 237 541 370 541 371 542 438 542 437 542 438 543 50 543 439 543 52 544 444 544 439 544 319 545 445 545 321 545 321 546 446 546 322 546 317 547 447 547 319 547 315 548 448 548 317 548 434 549 38 549 35 549 55 550 434 550 57 550 449 551 44 551 373 551 373 552 69 552 449 552 440 553 435 553 436 553 423 554 450 554 436 554 451 555 72 555 440 555 452 556 388 556 432 556 441 557 452 557 432 557 310 558 325 558 453 558 310 559 453 559 441 559 442 560 324 560 443 560 453 561 325 561 442 561 443 562 322 562 446 562 237 563 437 563 238 563 438 564 454 564 437 564 454 565 438 565 439 565 444 566 52 566 54 566 439 567 444 567 241 567 271 568 249 568 272 568 272 569 249 569 248 569 447 570 445 570 319 570 445 571 446 571 321 571 448 572 447 572 317 572 455 573 448 573 315 573 313 574 455 574 315 574 312 575 456 575 313 575 305 576 307 576 285 576 285 577 307 577 286 577 35 578 457 578 434 578 434 579 457 579 57 579 44 580 449 580 458 580 449 581 69 581 458 581 70 582 72 582 451 582 440 583 436 583 459 583 459 584 436 584 450 584 459 585 451 585 440 585 441 586 412 586 452 586 453 587 460 587 441 587 443 588 397 588 442 588 442 589 461 589 453 589 446 590 399 590 443 590 437 591 454 591 238 591 231 592 273 592 245 592 245 593 273 593 275 593 439 594 241 594 454 594 444 595 54 595 462 595 463 596 241 596 444 596 247 597 278 597 248 597 248 597 278 597 272 597 447 598 381 598 445 598 445 599 374 599 446 599 448 600 464 600 447 600 455 601 465 601 448 601 313 602 456 602 455 602 456 603 312 603 466 603 308 604 466 604 312 604 35 605 467 605 457 605 57 606 457 606 467 606 40 607 44 607 458 607 67 608 458 608 69 608 66 609 68 609 468 609 70 610 469 610 68 610 70 611 451 611 469 611 470 612 428 612 427 612 430 613 428 613 471 613 459 614 450 614 430 614 471 615 451 615 459 615 441 616 460 616 412 616 395 617 460 617 453 617 443 618 472 618 397 618 397 619 461 619 442 619 453 620 461 620 395 620 446 621 473 621 399 621 399 622 472 622 443 622 238 623 454 623 240 623 277 624 246 624 275 624 275 625 246 625 245 625 454 626 241 626 240 626 444 627 462 627 474 627 54 628 56 628 462 628 241 629 463 629 239 629 444 630 474 630 463 630 247 631 246 631 278 631 278 632 246 632 277 632 447 633 464 633 381 633 445 634 381 634 475 634 475 635 374 635 445 635 446 636 374 636 473 636 379 637 464 637 448 637 455 638 385 638 465 638 448 639 465 639 379 639 456 640 476 640 455 640 466 641 401 641 456 641 303 642 305 642 284 642 284 642 305 642 285 642 466 643 308 643 477 643 35 644 34 644 467 644 57 645 467 645 59 645 458 646 478 646 40 646 478 647 458 647 67 647 468 648 479 648 66 648 480 649 468 649 68 649 469 650 481 650 68 650 469 651 451 651 471 651 428 652 470 652 471 652 470 653 427 653 376 653 471 654 459 654 430 654 274 7 273 7 231 7 231 7 239 7 274 7 274 7 239 7 463 7 274 7 463 7 482 7 483 655 474 655 462 655 483 656 462 656 56 656 474 657 482 657 463 657 476 658 385 658 455 658 456 659 401 659 476 659 484 660 401 660 466 660 308 661 306 661 477 661 415 662 466 662 477 662 485 663 467 663 34 663 467 664 485 664 59 664 41 665 40 665 478 665 486 666 478 666 67 666 487 667 64 667 66 667 479 668 468 668 488 668 66 669 479 669 489 669 490 670 468 670 480 670 481 671 480 671 68 671 491 672 481 672 469 672 469 673 471 673 491 673 470 674 492 674 471 674 470 675 376 675 493 675 387 240 369 240 388 240 412 676 389 676 388 676 393 240 224 240 295 240 474 677 483 677 494 677 483 678 56 678 490 678 495 679 340 679 337 679 276 680 274 680 337 680 337 681 274 681 482 681 482 364 474 364 496 364 496 682 497 682 482 682 482 683 497 683 498 683 482 684 498 684 337 684 337 685 498 685 499 685 337 686 499 686 495 686 301 687 303 687 283 687 283 688 303 688 284 688 466 689 415 689 484 689 477 690 306 690 304 690 415 691 477 691 416 691 34 692 33 692 485 692 56 693 58 693 488 693 485 694 500 694 59 694 486 695 41 695 478 695 65 696 486 696 67 696 501 697 64 697 487 697 487 698 66 698 489 698 479 699 488 699 502 699 468 700 490 700 488 700 489 701 479 701 502 701 503 702 490 702 504 702 504 703 490 703 480 703 504 704 480 704 481 704 491 705 504 705 481 705 491 706 471 706 505 706 492 707 470 707 341 707 471 708 492 708 506 708 470 709 493 709 342 709 376 710 507 710 493 710 378 240 377 240 380 240 380 240 377 240 376 240 301 711 283 711 299 711 299 712 283 712 282 712 299 713 282 713 332 713 332 714 282 714 281 714 508 715 496 715 494 715 494 716 496 716 474 716 483 717 509 717 494 717 490 718 503 718 483 718 56 719 488 719 490 719 477 720 304 720 510 720 425 721 416 721 477 721 500 722 485 722 33 722 59 723 500 723 61 723 58 724 502 724 488 724 41 725 486 725 42 725 486 726 65 726 511 726 64 727 501 727 62 727 501 728 487 728 512 728 513 729 487 729 489 729 502 730 513 730 489 730 491 731 509 731 504 731 504 732 509 732 503 732 509 733 491 733 514 733 514 734 491 734 505 734 506 735 505 735 471 735 492 736 341 736 515 736 470 737 342 737 341 737 506 738 492 738 515 738 493 739 343 739 342 739 516 740 507 740 376 740 493 741 507 741 516 741 330 742 332 742 280 742 280 742 332 742 281 742 509 743 508 743 494 743 496 744 508 744 497 744 483 745 503 745 509 745 510 746 304 746 302 746 425 747 477 747 510 747 15 748 500 748 33 748 512 749 58 749 60 749 517 750 61 750 500 750 58 751 513 751 502 751 511 752 42 752 486 752 511 753 65 753 63 753 62 754 501 754 518 754 518 755 501 755 519 755 501 756 512 756 520 756 487 757 513 757 512 757 514 758 505 758 506 758 341 759 340 759 515 759 515 760 340 760 495 760 515 761 521 761 506 761 343 762 493 762 522 762 493 763 516 763 522 763 384 240 403 240 419 240 497 764 523 764 498 764 330 765 280 765 328 765 328 766 280 766 279 766 523 767 497 767 508 767 524 768 510 768 302 768 524 769 302 769 300 769 525 770 425 770 510 770 500 771 15 771 517 771 58 772 512 772 513 772 60 773 520 773 512 773 520 774 60 774 62 774 61 775 517 775 63 775 42 776 511 776 526 776 511 777 63 777 527 777 520 778 519 778 501 778 514 779 506 779 508 779 495 780 528 780 515 780 515 781 529 781 521 781 506 782 521 782 508 782 522 783 344 783 343 783 522 784 516 784 377 784 391 785 390 785 530 785 530 786 410 786 391 786 417 787 524 787 404 787 405 788 404 788 531 788 523 789 532 789 498 789 498 790 533 790 499 790 534 791 326 791 279 791 279 792 326 792 328 792 508 793 521 793 523 793 531 794 300 794 334 794 417 795 510 795 524 795 524 796 300 796 531 796 510 797 417 797 525 797 15 798 526 798 517 798 519 799 520 799 518 799 518 800 520 800 62 800 517 801 527 801 63 801 511 802 527 802 526 802 495 803 535 803 528 803 528 804 529 804 515 804 536 805 521 805 529 805 522 806 537 806 344 806 537 807 522 807 377 807 530 808 390 808 538 808 537 809 410 809 530 809 539 810 408 810 407 810 404 811 524 811 531 811 540 812 405 812 531 812 532 813 523 813 536 813 533 814 498 814 532 814 499 815 535 815 495 815 499 816 533 816 535 816 541 817 334 817 333 817 542 818 333 818 331 818 543 819 331 819 329 819 523 820 521 820 536 820 541 821 531 821 334 821 527 822 517 822 526 822 536 364 529 364 528 364 528 823 535 823 536 823 536 364 535 364 533 364 536 364 533 364 532 364 537 824 335 824 344 824 377 825 544 825 537 825 538 826 336 826 530 826 538 827 390 827 545 827 537 828 544 828 410 828 530 829 335 829 537 829 408 830 539 830 538 830 407 831 546 831 539 831 541 832 540 832 531 832 326 833 534 833 337 833 337 834 534 834 276 834 541 835 333 835 542 835 331 836 543 836 542 836 547 837 329 837 327 837 547 838 543 838 329 838 538 839 338 839 336 839 530 840 336 840 335 840 545 841 408 841 538 841 420 842 419 842 547 842 547 843 421 843 420 843 539 844 338 844 538 844 407 845 548 845 546 845 539 846 546 846 339 846 541 847 418 847 540 847 386 240 379 240 385 240 383 240 385 240 401 240 546 848 327 848 339 848 549 849 541 849 542 849 543 850 403 850 542 850 546 851 547 851 327 851 419 852 543 852 547 852 421 853 547 853 546 853 539 854 339 854 338 854 546 855 548 855 421 855 541 856 549 856 418 856 400 240 399 240 374 240 375 240 374 240 381 240 403 857 549 857 542 857 543 858 550 858 403 858 543 859 419 859 550 859 418 860 549 860 403 860</p>
        </triangles>
      </mesh>
    </geometry>
  </library_geometries>
  <library_visual_scenes>
    <visual_scene id="Scene" name="Scene">
      <node id="Camera" name="Camera" type="NODE">
        <matrix sid="transform">0.6859207 -0.3240135 0.6515582 7.481132 0.7276763 0.3054209 -0.6141704 -6.50764 -4.01133e-9 0.8953956 0.4452714 5.343665 0 0 0 1</matrix>
        <instance_camera url="#Camera-camera"/>
      </node>
      <node id="Lamp" name="Lamp" type="NODE">
        <matrix sid="transform">-0.2908646 -0.7711008 0.5663933 4.076245 0.9551712 -0.1998833 0.2183912 1.005454 -0.05518904 0.6045247 0.7946723 5.903862 0 0 0 1</matrix>
        <instance_light url="#Lamp-light"/>
      </node>
      <node id="Link4" name="Link4" type="NODE">
        <matrix sid="transform">1 0 0 0 0 1 0 0 0 0 1 0 0 0 0 1</matrix>
        <instance_geometry url="#Link4_002-mesh" name="Link4">
          <bind_material>
            <technique_common>
              <instance_material symbol="link_01_part_000_mtl_001_011-material" target="#link_01_part_000_mtl_001_011-material"/>
            </technique_common>
          </bind_material>
        </instance_geometry>
      </node>
    </visual_scene>
  </library_visual_scenes>
  <scene>
    <instance_visual_scene url="#Scene"/>
  </scene>
</COLLADA>