<?xml version="1.0" encoding="utf-8"?>
<COLLADA xmlns="http://www.collada.org/2005/11/COLLADASchema" version="1.4.1" xmlns:xsi="http://www.w3.org/2001/XMLSchema-instance">
  <asset>
    <contributor>
      <author>Blender User</author>
      <authoring_tool>Blender 2.82.7</authoring_tool>
    </contributor>
    <created>2024-02-04T16:50:21</created>
    <modified>2024-02-04T16:50:21</modified>
    <unit name="meter" meter="1"/>
    <up_axis>Z_UP</up_axis>
  </asset>
  <library_effects>
    <effect id="Material_013-effect">
      <profile_COMMON>
        <technique sid="common">
          <lambert>
            <emission>
              <color sid="emission">0 0 0 1</color>
            </emission>
            <diffuse>
              <color sid="diffuse">0.0118336 0.0118336 0.0118336 1</color>
            </diffuse>
            <index_of_refraction>
              <float sid="ior">1.45</float>
            </index_of_refraction>
          </lambert>
        </technique>
      </profile_COMMON>
    </effect>
  </library_effects>
  <library_images/>
  <library_materials>
    <material id="Material_013-material" name="Material.013">
      <instance_effect url="#Material_013-effect"/>
    </material>
  </library_materials>
  <library_geometries>
    <geometry id="Link6_004-mesh" name="Link6.004">
      <mesh>
        <source id="Link6_004-mesh-positions">
          <float_array id="Link6_004-mesh-positions-array" count="714">-0.01442193 -0.0287137 -0.04987883 -0.01427102 -0.03482717 -0.05172085 -0.014472 -0.05626374 -0.04235696 -0.01428997 -0.03478801 -0.05767488 -0.01442193 -0.03698253 -0.05959486 -0.01440298 -0.02773392 -0.05708789 -0.01444697 0.03692823 -0.05987 -0.01424002 0.02885532 -0.05575585 -0.01427698 0.03590935 -0.05356192 -0.02549898 0.07200264 -0.03487396 -0.003997921 0.07200264 -0.03487396 -0.001057028 0.07231616 -0.03530597 -2.02656e-6 -0.07201778 -0.032485 -9.62973e-4 -0.07033264 -0.03898787 7.99894e-5 -0.05877178 -0.05403184 -9.81927e-4 0.06475263 0.04759311 -2.02656e-6 0.06694728 0.04242205 -9.0003e-4 0.07744997 0.02165818 -1.59025e-4 -0.03208386 -0.04944801 -3.89814e-5 -0.0271461 -0.05230784 -5.19752e-5 -0.003475785 -0.04925298 -0.01405692 0.06048101 0.004773139 -0.01449692 0.06310671 0.003440141 -0.01398801 0.06616348 0.002578973 -0.01430201 0.066477 -0.002278804 -7.98702e-6 -0.07464349 0.01824998 -0.003507971 -0.07777863 0.01883697 -0.009011983 -0.06923538 0.01213812 -2.72036e-4 -0.03028124 -0.05838084 -0.004531979 -0.07777863 -0.01841998 -0.007352948 -0.06919616 -0.01442384 -0.007880926 -0.07918941 -0.01191687 -0.001001 -0.07311511 0.03243112 -2.02656e-6 -0.07201778 0.03247117 -7.98702e-6 -0.06574749 0.0455172 -2.69413e-5 -0.03557181 -0.0534439 -0.01449096 -0.02287447 -0.04310202 -0.01428997 -0.01766222 -0.04172992 -0.01447796 -0.02001363 -0.03839993 -0.01400101 -0.02271771 -0.03495287 -0.01442801 -0.0272637 -0.03863501 -0.01400101 -0.02538251 -0.04408097 -0.009112 -0.005827069 -0.04388499 -0.008250951 0.001226842 -0.05113291 -0.008577942 0.004949808 -0.04314088 -0.01435303 0.03539991 0.05350899 -0.01398801 0.03445935 0.05723118 -0.01444005 0.02901208 0.05817103 -2.00272e-5 -0.005121767 0.06259799 -0.008307933 -0.003593385 0.06706404 -7.09295e-5 -0.001163542 0.06772994 -7.09295e-5 0.06706482 -7.11918e-4 -7.98702e-6 0.06404727 -0.004002809 -0.006008028 -0.07895427 0.01264715 -1.20997e-4 0.001148462 -0.05716586 -1.51992e-4 0.03007018 -0.0584588 -0.01430892 0.02705258 0.04112911 -2.08974e-4 0.02489709 0.04422402 -0.01401996 0.02223229 0.04508614 -1.01924e-4 -0.01875954 -0.03789091 -2.58923e-4 -0.02118933 -0.04423785 -1.20997e-4 0.02713096 0.0376811 -0.01445901 0.02430927 0.03493905 -1.20997e-4 0.02054715 0.03540897 -0.01400697 0.01823496 0.03897404 -3.89814e-5 0.01937144 0.04230403 -0.01437795 0.06204861 -0.004199028 -5.19752e-5 0.0269742 -0.0527389 -0.01428997 0.02940392 -0.04862594 -3.27945e-4 0.03324449 -0.04968285 -4.29034e-4 0.002324104 -0.04090785 -7.09295e-5 0.01905792 -0.042279 -0.01435303 0.05797284 -7.90834e-4 -0.009187936 -0.002496004 0.05640816 -0.008597016 0.00643903 0.06483101 -0.01407003 0.0265823 -0.0429058 -1.40071e-4 0.02654314 -0.0432589 -0.01440298 0.02681744 -0.03812599 -2.27928e-4 5.99869e-4 0.05683898 -2.58923e-4 0.001618683 0.04124712 -1.01924e-4 0.003107905 -0.0497229 -0.01444005 0.0274837 0.05162811 -7.09295e-5 0.02912962 0.050179 -0.01405096 0.03304857 0.04978704 -7.98702e-6 -0.07225292 0.01225614 -0.01435303 -0.03090822 0.05946397 -2.03013e-4 -0.03376907 0.05797505 -0.01428997 -0.03561097 0.05409717 2.99215e-5 0.04535388 -0.06641197 -0.001001 0.05981481 -0.05313086 -2.02656e-6 0.06259727 -0.04819488 -0.01440298 0.02019447 -0.04368901 -0.01449692 -0.02546089 0.03729009 -0.01405692 -0.02491223 0.03403806 -0.01435303 -0.0181325 0.03960108 -0.01442801 -0.02220827 0.04398918 -0.01400697 -0.02710694 0.04246115 -0.014472 0.02289855 -0.03538393 -0.01398801 0.01894032 -0.03793001 -0.014032 0.03242146 -0.05912494 -0.01449096 0.05597424 0.04230403 -0.01445901 -0.04732859 0.05233311 -0.01440894 -0.03188794 0.04943418 -5.19752e-5 -0.02702856 0.05554604 -0.01442193 -0.0268718 0.05327415 -2.69413e-5 -0.02855694 0.05072712 -0.014189 0.04076886 0.003401041 -1.08004e-4 0.0433945 -0.003690004 -0.01400697 0.04562824 -0.005177974 1.70469e-5 0.07733243 -0.01865482 -0.01449692 -0.02538251 0.06541919 -0.009382963 -0.003593385 0.05057001 -5.79357e-5 -0.004729807 0.0454781 -0.008522033 -8.50134e-4 0.04034519 -0.01430892 0.04931211 0.002892017 -3.91006e-4 0.04515796 0.004498004 -0.008150935 0.005028188 0.04665303 -0.01430892 0.05005663 -0.00118184 -0.01447796 0.04366874 4.63009e-4 -3.27945e-4 0.001383543 0.05057001 -0.01449692 0.05174177 -0.04713702 -0.001138925 0.08034998 -0.007293939 -2.02656e-6 0.07866483 0.007397174 -3.89814e-5 -0.005004167 -0.06088781 -2.02656e-6 0.07588243 0.02193212 -4.22955e-4 -0.07911103 0.01186418 -2.00272e-5 -0.08012998 -7.51019e-4 -0.004066944 0.07937026 -0.01352286 -0.001238942 -0.02636224 -0.0760889 -5.19752e-5 -0.04493796 -0.06617689 -0.02556192 -0.03263252 -0.07350301 -0.02565002 -0.07824891 -0.01963496 -0.01347303 -0.07954216 0.008769035 -0.02549898 -0.07899349 0.01260805 -1.77979e-4 -0.02193391 0.04453706 1.70469e-5 -0.04074478 0.06823897 -9.88007e-4 -0.02655822 0.07587909 -0.001101016 -0.05175691 0.0617361 -0.01449692 -0.07001918 -6.91414e-6 -0.01444697 -0.06276917 -0.004668951 -0.01449692 -0.06747186 -0.0192039 7.99894e-5 -0.01295953 -0.07839989 -0.008628964 -0.003475785 -0.06774401 -1.26958e-4 -6.93381e-4 -0.06797885 -0.008049964 0.004753828 -0.06468796 -2.00272e-5 0.005106568 -0.0624938 -1.77979e-4 -0.06061375 -0.00462985 -0.01405692 -0.05720418 0.001090049 -7.98702e-6 -0.05822312 6.58989e-4 -3.89814e-5 -0.02452033 0.0356841 -1.51992e-4 -0.0187987 0.03783798 -1.01924e-4 0.005028188 0.06404709 -1.20997e-4 0.02701342 0.05621218 -7.09295e-5 0.0322647 0.05856299 -0.01444697 -0.04156774 1.89066e-4 -2.00272e-5 -0.04207724 0.002030134 -0.01381802 -0.04768127 0.006144046 -1.20997e-4 -0.04764211 0.004342079 -1.01924e-4 -0.02749878 0.04034519 -0.01447796 -0.0451731 -0.004315853 -1.77979e-4 -0.04466366 -0.004747867 -2.00272e-5 -0.004141986 -0.044003 2.99215e-5 -0.07644617 -0.01105499 -3.89814e-5 -0.07154756 -0.01567792 -2.02656e-6 -0.07679891 -0.01849889 -3.78966e-4 0.05687552 -0.00137782 -1.70946e-4 -0.03423935 0.05049204 6.10352e-5 0.05123233 0.06134414 1.70469e-5 0.03583097 0.07145214 -1.40071e-4 0.05080121 -0.001612901 -0.003997921 0.07200264 0.03486108 -0.004091978 0.07882159 0.01578116 -5.19752e-5 0.01929306 -0.03734302 -5.79357e-5 0.02462279 -0.03561902 -2.69413e-5 0.03512561 -0.05603003 -0.01447796 0.02101743 0.04226517 -3.10063e-4 0.03590935 0.05292105 -0.01432096 -0.05026769 -0.001770019 -0.01449692 -0.04693669 0.003362178 -0.01442801 0.03704577 0.05981612 -0.01432693 -0.06696242 3.46184e-4 -0.01437199 -0.06335699 0.004538059 -3.96967e-4 -0.06782454 -1.23978e-4 -3.89814e-5 -0.06198537 0.004577159 -7.70092e-5 -0.05046367 -0.001220941 -1.59025e-4 0.06310671 0.004929065 -0.008288979 0.003538966 -0.057832 -0.00813198 -0.004102826 -0.05888986 -0.001132965 0.002049863 -0.08031988 -2.58923e-4 0.02211475 -0.07695102 -5.79357e-5 -0.02738124 -0.04059386 -5.79357e-5 -0.02467709 -0.03565788 -0.02549898 -0.01166629 -0.079144 -0.02554297 0.01000517 -0.0798099 -0.02549898 0.03089308 -0.07377696 -0.02549898 -0.03890281 0.06988501 -0.02556192 -0.01887708 0.07819008 -0.025568 0.02419173 0.07670211 -0.02549898 0.002755165 0.07995414 -0.02549898 -0.05085557 -0.06174993 -0.02554893 -0.06590425 -0.04607892 -0.02549898 0.06455671 -0.0472548 -0.02556192 0.04978227 -0.06316089 -0.02554893 -0.07311511 0.03348898 -0.01449692 -0.05951637 0.03685808 -0.01449692 0.06526213 0.02530097 -0.01449096 -0.0675894 0.01934719 -0.01449692 0.06984728 0.006496191 -0.01449692 0.01917546 -0.06731295 -0.01430892 -0.009628474 -0.07025194 -0.01449096 0.06769186 -0.01928186 -0.02553093 0.06048101 0.05315613 -0.02549898 0.07200264 0.03486108 -0.02549898 0.04366874 0.06706404 -0.001037955 0.01666742 0.07866001 -7.98702e-6 -0.001712203 0.08011007 -0.025581 -0.05665558 0.05723118 -0.02536702 -0.003710865 0.07090401 -0.02549898 -0.03118252 0.06267619 -0.02544295 -0.04748535 0.05194211 -0.02544903 -0.06284749 0.03137397 -0.02549898 -0.06880426 0.01288199 -0.02542996 -0.07005834 -0.006588935 -0.02544903 -0.06296509 -0.03134894 -0.02544295 -0.04732859 -0.0520339 -0.02536702 -0.02228665 -0.06723499 -0.02549898 0.00647825 -0.06970286 -0.02544903 0.02540659 -0.06547188 -0.02542996 0.04747021 -0.05191683 -0.01449692 0.05950129 -0.0368328 -0.02541697 0.06294995 -0.03134894 -0.02544295 0.07008242 -0.006392955 -0.02549898 0.06882834 0.01288199 -0.02542996 0.06294995 0.03149104 -0.02541697 0.04743099 0.05221605 -0.02549302 0.02536737 0.06545805 -0.01444005 0.01302284 0.06918001 -0.01449692 -0.00645411 0.06972813</float_array>
          <technique_common>
            <accessor source="#Link6_004-mesh-positions-array" count="238" stride="3">
              <param name="X" type="float"/>
              <param name="Y" type="float"/>
              <param name="Z" type="float"/>
            </accessor>
          </technique_common>
        </source>
        <source id="Link6_004-mesh-normals">
          <float_array id="Link6_004-mesh-normals-array" count="1554">-0.998879 -0.01076984 -0.04609513 -0.9999364 0.01079678 0.003254234 -0.9989709 0.03164315 0.03249257 -0.9951208 -0.0239076 0.09572374 -0.9999622 -3.06347e-4 0.008690476 -0.9985716 0.001618444 0.05340522 -0.9996073 -0.01296347 0.02484375 0 0.8093355 0.5873469 0.8950113 -0.3814962 -0.2311182 0.2995754 0.8565149 0.420282 -0.09147715 -0.4974122 -0.8626778 -0.9970408 0.004254102 -0.07675689 0.5325642 -0.3104894 -0.7873829 0.9799768 -0.1843481 -0.07524102 0.2830109 -0.4722443 -0.8347996 0.0762391 -0.08147114 0.9937555 0.09713023 0.2893278 -0.9522895 0.8804266 0.07109588 0.4688223 0.6971678 -0.6460263 0.3108171 -0.1779813 0.6669369 0.7235454 0.9986842 -0.0449894 0.02461194 0.9916383 0.01100105 -0.1285795 0.9817139 0.1425169 0.1262021 0.996369 -0.0539245 0.06588643 0.9870547 -0.1031065 -0.12285 0.7315618 -0.6704982 0.1234893 -0.1808236 0.7779188 -0.601785 -0.04385745 -0.7367628 0.6747274 0.04858964 -0.9965384 -0.06745636 0.8800809 0.2509058 -0.4031178 -0.9975219 0.002074956 0.07032781 0.07333868 -0.6301617 -0.7729928 -0.1674504 -0.9193302 0.3560794 -0.1157968 -0.3240336 0.9389321 -0.1197217 0.9784463 0.1682544 0.04285454 -0.3980784 0.91635 -0.1837878 0.4241083 -0.8867663 -0.9918386 0.01081585 -0.1270403 0.988182 0.113029 -0.103542 0.9966403 0.01064211 -0.08121031 0.118791 0.5555194 0.8229745 -0.001565098 -0.9987964 0.04902565 -0.2674068 0.6787266 0.6839765 -0.999859 0.004224121 -0.01625525 0.2231062 0.9713724 0.08160507 -0.1854396 0.06856042 0.980261 0.06021928 0.3097268 0.9489168 0.9940458 -0.03541195 0.1030489 -0.2929856 -0.8880875 -0.3542034 0.08258384 0.7500202 -0.656239 0.8065263 0.4300637 -0.4056611 0.995528 -0.06075847 0.0723353 0.990534 -0.05859369 0.1241343 0.9926819 0.1043046 -0.06085419 0.9884703 0.1462025 -0.03938752 0.08064967 0.682006 0.7268861 0.9986661 -0.01049166 0.05055564 0.9992251 0.004109501 0.03914606 -0.05805462 -0.9516854 0.3015374 0.08647614 0.8660616 0.4924014 0.9404361 0.3039796 -0.1522382 0.9546059 0.2295082 -0.1898783 0.2606964 0.9267261 0.2705851 0.09738636 -0.05783146 -0.993565 0.9916412 -0.1181758 0.05179035 0.1746265 0.2411921 0.9546371 -0.2809896 0.9361522 -0.2113386 -0.4163045 -0.008956253 -0.9091813 -0.4114273 -0.911071 -0.02602487 -0.3276284 0.5960795 -0.7330409 0.1444136 -0.7281265 0.6700571 0.2361822 -0.4297056 -0.8715338 -0.2473246 0.5319075 0.8098797 -0.9997175 -0.01734316 0.01625543 -0.2018315 0.9413093 -0.2705564 0.2048559 0.9740848 0.09587955 -0.9991748 0.005195558 -0.04028385 0.9994694 -0.006040394 0.03200924 0.8282603 0.5136313 0.2239817 0.9962323 -0.05358582 0.0681892 0.9973653 -0.06245708 0.03690046 -0.1471228 0.9348691 -0.3230707 0.4811083 0.7184461 -0.5023646 0.02713042 -0.4692482 -0.8826494 -0.05282872 -0.9983432 -0.02280735 0.9985597 -0.004041254 -0.05349934 -0.005298614 -0.9871277 0.1598465 -0.254404 -0.4724676 0.8438324 -0.9999712 0.007531821 9.99437e-4 0.9990865 -0.01231294 -0.04092133 0.9999875 8.0945e-4 0.004938125 0.9006125 -0.1584132 -0.4047251 0.9999723 0.003134906 0.006764054 0.07709145 -0.8347476 -0.5452095 -0.1647084 -0.3311202 -0.9291021 0.1411819 -0.3533449 0.9247785 -0.1664878 -0.6758933 0.7179485 0.1066683 -0.7186173 0.6871761 -0.05328625 -0.9092988 0.4127184 0.9989011 0.002103686 0.04682242 0.999925 -0.001538097 -0.01215624 -0.09256678 -0.8476667 0.5223912 0.2006512 -0.6789847 0.7062004 -0.07331126 -0.9435177 -0.3231099 0.1024709 -0.9103489 0.4009547 0.1336992 -0.8962259 0.4229702 -0.2815259 -0.954805 -0.0953446 -0.07457894 0.9411997 0.3295165 0.1042327 0.968481 -0.2262303 0.06640869 -0.174997 -0.9823269 -0.06756579 0.4081895 -0.9103935 0.06718623 -0.6926251 -0.718162 -0.119636 -0.3790534 -0.9176087 0.03088027 0.3000522 -0.9534229 -0.1041522 0.5974918 -0.7950824 0.04664027 -0.78005 0.6239767 -0.07843238 -0.9307985 0.357019 0.279574 0.05233937 -0.9586966 -0.09051877 0.4253191 -0.9005054 0.9998776 -6.88866e-4 -0.01563268 0.9999116 -1.10278e-4 0.01330417 1 -1.23791e-4 -4.23178e-5 -0.060889 0.345858 0.9363091 0.08232957 0.6396099 0.7642782 -0.04025548 0.7521017 -0.6578165 0.05297672 0.9985753 0.006398737 0.1466935 0.986345 -0.07486492 0.01543867 0.8794481 0.4757444 -0.9994094 0.009443521 0.03303861 -0.9991468 0.01986473 -0.03620874 -0.9811731 -0.01379418 0.1926375 -0.9996103 -0.001648962 0.02786767 0.9999783 0.004396378 0.004911363 0.7964352 0.0048334 -0.6047045 0.999923 -0.004324138 -0.01163697 0.9997578 -0.003776371 -0.02168291 0.9999783 -0.005366563 -0.003825247 -0.9999842 -0.005601882 6.11092e-4 -0.9999843 -0.005521833 -0.001009225 0.04617506 -0.9826554 -0.1796011 -0.1384309 -0.7247458 -0.674967 -0.00109452 -0.4732369 0.8809346 0.1008207 -0.3925264 0.9141982 -0.0947175 -0.901508 -0.4222699 0.04023224 -0.7324554 -0.6796253 -0.9999561 -0.009367823 0 -0.9998536 -0.01707589 -0.001173853 -0.3267837 -0.6510925 -0.6850482 0.1896073 -0.2483255 -0.9499387 0.05690878 0.9763625 0.2085134 -0.02327603 0.9986009 -0.04748171 0.0216276 0.5427312 -0.839628 -0.052257 0.3072952 -0.9501785 0.1054167 -0.601216 -0.7921027 -0.1021121 -0.9524375 -0.2871167 -0.9999998 -3.70988e-4 -6.35913e-4 -0.9889535 -2.0282e-4 -0.1482263 -0.1450037 -0.2677447 0.952516 0.05764162 -0.6666612 0.7431288 -0.08074486 -0.8387961 -0.538425 0.02479022 -0.9686474 -0.2472 0.9454683 0.2870609 -0.1539021 0.9453198 -0.1724137 -0.2768465 -0.9997285 0.005616188 0.02261793 -0.9998941 -0.01153731 -0.008876502 -0.1167459 -0.8806701 0.4591194 0.08498567 -0.9873353 -0.1339644 0.02491825 0.7580457 -0.6517254 -0.05800127 0.6282147 -0.7758752 0.01108515 0.4472547 0.894338 -0.02579158 0.5190687 0.8543434 -0.1259436 0.7078944 -0.6949992 0.05406135 0.9092429 -0.4127405 -0.03155571 -0.05512809 0.9979805 0.14082 0.09513795 0.9854536 0.06224375 0.8353516 -0.5461809 -0.1208305 0.3224951 -0.9388275 0.04928392 -0.4901952 -0.8702182 -0.07335692 -0.7190863 -0.6910382 -0.1310342 -0.3756786 0.9174397 0.05301403 -0.8422865 0.5364167 0.07843047 -0.3599261 -0.9296784 -0.08276426 -0.8151723 -0.5732751 0.2329616 0.6829353 0.6923355 -0.1792449 0.9758412 0.124921 -0.09942561 -0.3522818 0.9305977 0.06633245 -0.6311978 0.7727804 0.02509421 0.9497529 -0.311993 -0.06199193 0.8899271 -0.4518702 -0.1620994 -0.5050381 -0.8477383 0.1405113 -0.2112495 -0.9672799 0.9999023 -0.004561543 0.01321768 0.9999191 -0.004409372 0.01193952 0.0248025 -0.1229337 0.992105 -0.08699756 0.1285225 0.9878833 -0.1154985 -0.4278242 0.8964522 0.04565775 -0.8454587 0.5320855 -0.1054072 -0.9646981 -0.2413441 0.05521988 -0.5730758 -0.8176398 0.06920188 -0.6062846 0.7922312 -0.08046847 -0.03916466 0.9959875 0.9990841 -6.77727e-4 -0.04278403 0.9997525 -0.01536583 -0.01609325 0.8517592 0.4044485 0.3330581 0.9980971 0.0106396 0.06073737 0.9991942 -0.009804129 -0.03892302 0.9999652 -0.004063487 0.007300734 -0.1123752 0.9916791 -0.06280487 0.08268201 0.7798267 0.6205114 0.1207163 0.1385529 -0.9829704 -0.1521819 0.5100837 -0.8465551 -0.182506 -0.7875839 -0.5885604 0.0897578 -0.9812193 -0.1707408 0.9215507 0.02490997 -0.3874583 0.9984967 0.01185876 -0.05351507 0.8461694 -0.0614829 -0.5293557 0.9993044 -0.008395671 0.03633582 -0.1423777 0.4985911 0.8550646 0.05265581 0.9426083 0.3297229 -0.05822086 0.8755296 -0.479644 0.04860192 0.6259055 -0.7783831 -0.08236068 0.5299221 0.8440375 0.0689826 0.7661542 0.638944 0.09831351 -0.2865389 0.953011 0.463124 -0.242286 0.8525336 0.9981462 0.02798783 -0.05404382 0.9967409 -0.07790362 0.02094435 0.12583 0.9900462 0.06305104 -0.2559333 0.8246209 0.5044786 -0.9997736 -0.002678155 -0.02110868 -0.9999923 0.001007199 0.003803968 -0.9999777 -3.72006e-4 -0.006681621 -0.9996546 7.66385e-4 0.02626931 -0.9984372 -0.002878487 0.05581182 -0.9971929 -0.007230639 0.0745263 -0.8317071 -0.2384077 -0.5014232 -0.02013564 -0.5419449 -0.8401728 0.02263486 -0.6594573 -0.7514014 -0.01421493 -0.7211895 -0.692592 0.03230488 -0.7935836 -0.6076033 -0.04112595 -0.9053018 -0.4227733 -0.02009761 0.856787 -0.5152786 0.02075767 0.8185697 -0.5740321 -0.02139276 0.7325661 -0.6803597 0.0237441 0.6771517 -0.7354603 -0.02597194 0.489711 -0.871498 0.02898424 0.412544 -0.9104765 -0.02428424 0.2774481 -0.9604337 0.03288316 0.1640975 -0.9858959 -0.03089743 -0.03076046 -0.9990491 -0.03569167 -0.2595461 -0.965071 0.03523188 -0.1473273 -0.9884601 -0.2385774 -0.1421663 -0.9606611 0.468029 -0.8362033 -0.2858545 0.1963667 -0.9323877 -0.3034688 0.04018485 -0.9417328 -0.333953 0.03307962 -0.9801272 -0.1955925 -0.04068887 -0.9987786 -0.0280317 0.9999738 0.004256725 0.005871295 0.9865719 -0.02185899 0.1618591 0.9887351 -0.02107185 0.1481857 0.001696169 -0.9891815 0.1466879 0.00160402 -0.9825543 0.1859697 -0.0235576 -0.9623309 0.2708582 -0.9999572 0.00400424 0.008340716 -0.9999656 -0.001481473 -0.008174777 -0.9998204 -0.001907348 -0.01885628 -0.9999882 -0.002925515 -0.00390172 -0.9986431 0.003215968 0.05197864 0.01372855 -0.9966248 0.08093619 -0.06874555 -0.9969995 -0.03558504 0.3414055 -0.8855776 -0.3149518 -1 -3.02307e-5 -3.26447e-4 -1 -4.43896e-5 -1.08213e-5 -0.9999043 -2.58934e-4 0.01383477 -0.9999988 0.001558184 -3.21813e-4 -0.9998408 -0.006347179 -0.01668006 -0.9999722 -3.10931e-4 0.007452309 -0.9997558 -0.004313588 -0.02167361 -0.9999117 0.008111238 0.01052683 -0.999857 0.01195687 0.01196521 -0.9973177 -0.07295876 0.005869805 -0.9995643 0.01218789 -0.02688324 -1 -3.59032e-5 7.93013e-5 -0.9999942 -4.57165e-4 -0.003381609 -0.9999998 2.30648e-4 6.70896e-4 0 0.84618 0.5328974 0 1 0 0.2545871 0.929772 -0.2659129 -0.350048 0.9365732 0.01723659 0.2406 0.9659864 0.09477394 -0.2119569 0.9199414 0.3298214 0.2861441 0.8602265 0.422057 -0.03689748 0.8646149 0.5010785 0.03425288 0.7139444 0.6993641 -0.01617991 0.6373125 0.7704357 0.02473872 0.5484699 0.8358044 -0.01787734 0.4434926 0.8960998 0.03273087 0.3502779 0.9360738 -0.03292059 0.1498038 0.9881675 0.007761657 0.07908028 0.9968381 -0.02032607 -0.08120185 0.9964904 0.03970396 -0.1692607 0.9847713 -0.03288596 -0.3829637 0.9231778 0.03329908 -0.4892809 0.8714904 -0.03372031 -0.579993 0.8139233 0.03088384 -0.7558172 0.6540539 -0.03121066 -0.8214458 0.569432 0.02108472 -0.8718744 0.4892756 0.01388341 -0.9465809 0.3221675 0.6735379 -0.7283918 0.1256669 -0.9967915 0.04803723 0.06402492 -0.9983909 0.05630302 -0.006761014 -0.9999593 -0.002370417 -0.008710622 -0.9999109 -0.008353888 -0.01042038 -0.999561 -0.009612262 -0.02803015 -0.9999942 4.60631e-5 0.003421485 -0.9999407 -0.001545011 -0.01078301 -0.9999999 -3.32074e-5 6.17662e-4 -0.9999741 -3.86703e-4 0.007189452 -0.9998677 -3.11267e-4 -0.01626586 0.904465 0.4260244 -0.02112632 0.9999992 -0.001019358 7.84267e-4 0.9999983 1.76049e-4 0.001868188 0.08747977 0.285425 -0.9544003 -0.05571782 0.511281 -0.8576056 0.02187609 0.549844 -0.8349809 0.01081335 0.785547 -0.6187076 0.05587995 0.7999344 -0.5974801 -0.0664044 0.9061231 -0.4177698 0.07493621 0.9490994 -0.305933 -0.03632456 0.9915581 -0.1244713 0.03502488 0.997328 -0.06411206 -0.08246028 0.9879348 0.1310926 0.08989936 0.957455 0.2742226 -0.1119593 0.8944707 0.4328824 0.1169533 0.7922306 0.5989095 -0.1137407 0.6623404 0.7405189 0.0991429 0.5161285 0.8507539 -0.1599726 0.3589177 0.9195581 0.1705242 0.08500504 0.98168 -0.09773862 -0.1016522 0.9900071 0.03985047 -0.218069 0.9751194 -0.06471818 -0.3856835 0.9203585 0.1137092 -0.5201427 0.8464761 -0.9996147 -0.001776874 -0.02770167 -0.9999932 -0.00296235 0.002230703 -0.9999917 -0.002634704 0.003136754 -0.3089681 -0.7685993 -0.5601732 0.1001932 -0.7954648 -0.5976597 -0.09654623 -0.3520348 -0.9309943 0.5329511 0.8195748 0.2103818 0.06544357 0.9657127 0.2512295 -0.08637821 0.8400363 0.5356097 0.995957 0.008652865 -0.08941411 0.9474388 0.2693428 0.1726684 0.9966724 -0.00543189 0.08133059 -0.07652497 -0.6500801 0.7560026 0.04905897 -0.7978715 0.6008281 0.04957485 -0.798028 0.6005778 -0.0735982 -0.9037134 0.4217646 0.1129344 -0.9553193 0.2731501 -0.1186458 -0.989486 0.08270758 0.05474513 -0.996404 -0.06467014 -0.04746335 -0.9704419 -0.2366213 0.03103917 -0.953063 -0.3011767 -0.08548957 -0.8744021 -0.4776112 0.08180963 -0.7977519 -0.5974103 -0.1333119 -0.673288 -0.7272629 0.1057117 -0.5119909 -0.8524614 -0.09143352 -0.3616133 -0.927834 0.12502 -0.1821172 -0.9752965 -0.1143924 -0.02761256 -0.9930519 -0.04939931 0.2216944 -0.9738641 0.9543857 -0.08631753 0.2858272 0.9999971 -1.02649e-4 0.002446293 0.9337204 0.07985717 0.3489831 0.9999817 0.004540264 0.003999888 0.9998413 0.01142412 -0.01367253 0.9195032 -0.264869 0.290445 0.9999614 0.001169741 0.008708715 0.9892678 -5.3756e-4 0.1461133 0.9975072 0.003053426 0.07049936 0.9993315 -4.83951e-4 -0.03655683 0.9997268 -0.002637565 -0.02322691 0.9999644 0.002327024 0.008123517 0.9991778 0.001699864 -0.04051095 0.9999428 -0.001309633 -0.01061725 0.999843 3.9897e-4 -0.01772326 -0.9995938 -0.007409334 0.02751982 -0.9999995 -9.67592e-4 -1.77969e-4 -0.9999591 0.001185357 0.008969664 -1 0 0 -0.999997 -3.14051e-5 0.002474367 -0.9995719 0.001116454 0.02923929 -0.999809 0.008039474 0.01781958 -0.9999784 0.005353033 0.00382322 -0.9999716 0.0067662 0.003310203 -0.9999585 0.007405161 0.005303978 -0.9998669 0.01591193 0.003605902 -0.9998282 0.01760369 0.005813241 -0.9998118 0.01871412 0.005115628 -0.9999937 9.58027e-5 -0.003551006 -0.9999972 6.50577e-5 -0.002410292 -0.9999534 0.009645223 -4.06027e-4 -0.9999316 0.002597987 -0.01141297 -0.9999972 0.001283943 0.00200814 -0.9999984 0.00122404 0.001341044 -0.9999073 0.004154682 -0.01297169 -0.9999939 -6.52171e-4 0.003466486 -0.999996 -4.19225e-4 -0.002836108 -1 -3.3101e-4 7.73231e-5 -0.999946 -0.001229286 0.01032936 -0.9997481 -0.001934409 -0.02236026 0.9999101 -1.29795e-4 0.01341968 0.9998029 -0.001260936 0.01981389 0.9999917 0.003848671 -0.0013929 0.9902216 7.21192e-4 -0.1395021 0.9986502 8.50769e-4 0.051934 0.9890511 -0.05358564 -0.1375016 0.751155 0.5531986 -0.3601909 0.9928689 0.1077581 0.05098837 0.9998519 0.002388596 0.01704406 0.9996821 -0.004251599 0.02485668 0.9998601 -0.002845525 -0.01648324 0.9997205 -0.003531873 -0.02337712 0.9999921 -0.001258134 -0.003780007 0.9997505 -9.90927e-4 -0.02231997 0.999994 -2.73199e-6 0.003465712 0.9863405 -0.01608049 0.1639333 0.9955593 -0.01523107 0.09289669 0.9999796 0.002880752 -0.005719661 0.9993766 -0.003978729 0.03507989 0.9993714 0.005077242 -0.03509014 0.9989678 -0.0132938 0.04343432 0.9920709 0.03363734 -0.1210941 0.999935 -0.007362604 0.008722662 0.9996257 0.002290129 0.02726554 0.9998111 6.50847e-4 0.01943099 0.9999312 0.001219511 -0.01166445 0.999249 -0.005407333 0.03837186 0.9999087 0.01294744 0.003883063 0.999038 0.005706548 -0.04348188 0.9995522 0.00385493 0.02967518 0.9998059 3.96945e-4 0.01969909 0.9992658 -6.52477e-5 -0.03831362 0.9998255 -0.00201267 -0.01857203 1 0 0 1 -2.94782e-5 -4.13683e-4 1 -3.9215e-5 -1.56404e-5 0.999226 -0.00126636 0.03931885 0.9969464 -0.003646492 0.07800501 0.9911862 -0.002794027 0.1324468 0.999733 -5.16934e-4 -0.02310013 0.999422 0.003292977 0.03383386 0.9987248 0.002821147 0.05040818 0.999488 0.01620399 -0.02759343 0.9999787 0.005739808 -0.003144443 0.9999878 0.001497805 0.004727125 0.9998485 1.37267e-5 -0.01741343 0.999984 3.95344e-4 -0.005648314 0.9999454 0.001884877 -0.01027643 0.9999927 -0.003666758 0.001183331 0.9999107 -0.00201863 0.01321947 0.9357285 0.007486522 -0.3526419 0.9971633 0.007378995 0.07490628 0.9996673 -0.01237678 -0.02263337 0.9965631 0.0363121 0.07445561 0.9887034 0.04442453 -0.1431502 0.9856681 0.003151237 -0.168667 0.9996885 -0.013426 0.02104192 0.9999065 -0.01130861 0.007680654 0.9994688 9.98166e-4 -0.03257584 0.9999491 0.009627342 0.003023684 0.9998897 0.005940556 0.01361364 0.9867924 0.00298804 -0.1619628 0.8561818 0.5074605 0.09714233 1 -3.97397e-5 -7.60732e-6 0.9999909 -1.77068e-4 -0.004272937 0.999997 0.001601159 -0.001895308 0.9919874 0.03654891 -0.1209351 0.999435 0.02982443 0.0155074 0.9991027 -0.003992736 0.04216712 0.9994955 2.35013e-4 0.031762 0.9995803 -2.14346e-4 -0.02896887 -0.9983585 -0.009426891 -0.05649298 -0.9999766 0.001127839 0.006759166 -0.9999842 -0.004894733 0.002780497 -0.9999283 -0.005633592 0.01057702 -0.9999232 -0.006856739 0.01032555 -0.9999753 -0.005300223 0.00462079 -0.9999634 -0.007340431 0.004414618 -0.9999628 -0.008517265 0.0013929 -0.9995746 -0.02916556 0 -0.9998927 -0.00160402 0.01456946 -0.9999985 -4.76562e-4 0.001720845 -0.9998083 -0.007426321 -0.01811569 -0.9999422 -0.008232891 -0.006931066 -0.9999018 0.01387298 -0.002003788 -0.9999669 -0.008057236 0.001163661 -0.9999733 -0.006144762 -0.003974258 -0.9999458 0.008484482 -0.006041288 -0.9999126 0.01019644 -0.008419156 -0.9998674 0.006418585 -0.01496756 -0.9999927 0.002619802 0.002805769 -0.9999859 0.003636956 0.003895044 -0.9981147 0.005512714 -0.06112849 -0.999875 -0.004024326 -0.01529306 -0.9999933 0.00293219 -0.002230703 -0.9999614 0.003961443 0.007853746 -0.9996581 -0.001386344 -0.02611476 -0.9998818 -9.10164e-4 -0.01535576 -0.9986221 0.002754032 0.0524047 -0.9999969 0.002063214 0.001508057 -0.9999632 7.39888e-4 -0.008551418 -0.9999999 1.77414e-4 -5.4867e-4 -0.9999761 -9.52148e-4 -0.006857633 -1 4.42982e-5 3.18944e-4</float_array>
          <technique_common>
            <accessor source="#Link6_004-mesh-normals-array" count="518" stride="3">
              <param name="X" type="float"/>
              <param name="Y" type="float"/>
              <param name="Z" type="float"/>
            </accessor>
          </technique_common>
        </source>
        <vertices id="Link6_004-mesh-vertices">
          <input semantic="POSITION" source="#Link6_004-mesh-positions"/>
        </vertices>
        <triangles material="Material_013-material" count="519">
          <input semantic="VERTEX" source="#Link6_004-mesh-vertices" offset="0"/>
          <input semantic="NORMAL" source="#Link6_004-mesh-normals" offset="1"/>
          <p>0 0 1 0 2 0 2 1 1 1 3 1 2 2 3 2 4 2 4 3 3 3 5 3 4 4 5 4 6 4 6 5 5 5 7 5 6 6 7 6 8 6 9 7 10 7 11 7 12 8 13 8 14 8 15 9 16 9 17 9 18 10 0 10 19 10 20 11 14 11 18 11 21 12 22 12 23 12 24 13 23 13 22 13 25 14 26 14 27 14 3 15 28 15 5 15 0 16 18 16 1 16 29 17 30 17 31 17 32 18 33 18 34 18 28 19 3 19 35 19 36 20 37 20 38 20 38 21 39 21 40 21 40 22 41 22 36 22 42 23 43 23 44 23 45 24 46 24 47 24 33 25 32 25 25 25 48 26 49 26 50 26 51 27 24 27 52 27 24 28 51 28 23 28 53 29 27 29 26 29 28 30 54 30 55 30 56 31 57 31 58 31 59 32 37 32 60 32 61 33 62 33 63 33 63 34 64 34 65 34 66 35 52 35 24 35 67 36 68 36 69 36 60 37 70 37 71 37 22 38 21 38 72 38 49 39 73 39 74 39 64 40 63 40 62 40 75 41 76 41 77 41 78 42 73 42 48 42 79 43 57 43 16 43 49 44 48 44 73 44 80 45 43 45 20 45 81 46 82 46 83 46 81 47 83 47 45 47 25 48 27 48 84 48 85 49 86 49 87 49 88 50 89 50 90 50 91 51 75 51 77 51 92 52 93 52 94 52 95 53 96 53 92 53 97 54 98 54 91 54 7 55 55 55 99 55 7 56 99 56 8 56 100 57 101 57 102 57 103 58 104 58 105 58 106 59 107 59 108 59 90 60 11 60 109 60 85 61 87 61 110 61 111 62 112 62 113 62 114 63 115 63 106 63 111 64 113 64 116 64 117 65 66 65 118 65 107 66 106 66 115 66 82 67 105 67 119 67 119 68 116 68 79 68 112 69 111 69 119 69 113 70 79 70 116 70 116 71 119 71 111 71 79 72 113 72 112 72 120 73 6 73 7 73 109 74 11 74 121 74 122 75 121 75 17 75 22 76 72 76 118 76 54 77 28 77 123 77 17 78 16 78 124 78 51 79 52 79 122 79 84 80 125 80 126 80 10 81 127 81 11 81 90 82 89 82 11 82 128 83 129 83 130 83 131 84 132 84 133 84 79 85 112 85 134 85 53 86 132 86 125 86 135 87 136 87 137 87 138 88 139 88 140 88 114 89 118 89 72 89 105 90 82 90 103 90 128 91 141 91 129 91 7 92 8 92 68 92 104 93 103 93 85 93 85 94 103 94 86 94 142 95 143 95 144 95 144 96 143 96 145 96 139 97 146 97 147 97 147 98 146 98 148 98 149 99 63 99 150 99 150 100 63 100 65 100 151 101 74 101 78 101 78 102 74 102 73 102 57 103 56 103 61 103 61 104 56 104 62 104 43 105 80 105 44 105 44 106 80 106 70 106 82 107 81 107 152 107 152 108 81 108 47 108 46 109 153 109 47 109 47 110 153 110 152 110 154 111 155 111 156 111 156 112 155 112 157 112 95 113 134 113 96 113 96 114 134 114 158 114 159 115 160 115 154 115 154 116 160 116 155 116 44 117 70 117 42 117 42 118 70 118 161 118 162 119 163 119 109 119 109 120 163 120 164 120 109 121 164 121 12 121 52 122 66 122 165 122 165 123 66 123 72 123 18 124 35 124 1 124 1 125 35 125 3 125 68 126 67 126 7 126 7 127 67 127 55 127 102 128 101 128 87 128 87 129 101 129 110 129 33 130 16 130 149 130 149 131 16 131 63 131 34 132 119 132 166 132 166 133 119 133 105 133 152 134 153 134 78 134 78 135 153 135 167 135 78 136 167 136 168 136 66 137 117 137 72 137 72 138 117 138 114 138 117 139 169 139 114 139 114 140 169 140 115 140 163 141 30 141 164 141 164 142 30 142 29 142 150 143 134 143 94 143 94 144 134 144 95 144 10 145 170 145 127 145 127 146 170 146 171 146 163 147 162 147 30 147 30 148 162 148 31 148 91 149 98 149 71 149 71 150 98 150 172 150 98 151 97 151 172 151 172 152 97 152 173 152 68 153 8 153 69 153 69 154 8 154 174 154 101 155 100 155 175 155 175 156 100 156 56 156 107 157 169 157 108 157 108 158 169 158 117 158 153 159 46 159 176 159 176 160 46 160 45 160 177 161 178 161 156 161 156 162 178 162 154 162 81 163 45 163 100 163 100 164 45 164 179 164 28 165 19 165 5 165 5 166 19 166 0 166 180 167 181 167 182 167 182 168 181 168 183 168 159 169 177 169 160 169 160 170 177 170 184 170 185 171 165 171 21 171 21 172 165 172 72 172 84 173 27 173 125 173 125 174 27 174 53 174 64 175 58 175 65 175 65 176 58 176 57 176 181 177 147 177 183 177 183 178 147 178 148 178 82 179 176 179 83 179 83 180 176 180 45 180 21 181 23 181 185 181 185 182 23 182 51 182 43 183 42 183 20 183 20 184 42 184 161 184 149 185 150 185 93 185 93 186 150 186 94 186 177 187 156 187 184 187 184 188 156 188 157 188 151 189 50 189 74 189 74 190 50 190 49 190 63 191 16 191 61 191 61 192 16 192 57 192 75 193 91 193 76 193 76 194 91 194 71 194 55 195 174 195 99 195 99 196 174 196 8 196 76 197 173 197 77 197 77 198 173 198 97 198 104 199 102 199 105 199 105 200 102 200 166 200 153 201 176 201 167 201 167 202 176 202 16 202 167 203 16 203 15 203 176 204 82 204 16 204 16 205 82 205 119 205 16 206 119 206 79 206 86 207 166 207 87 207 87 208 166 208 102 208 186 209 54 209 187 209 187 210 54 210 123 210 54 211 186 211 145 211 145 212 186 212 144 212 188 213 189 213 141 213 141 214 189 214 88 214 71 215 70 215 76 215 76 216 70 216 80 216 60 217 41 217 190 217 190 218 41 218 40 218 190 219 40 219 191 219 191 220 40 220 39 220 146 221 139 221 182 221 182 222 139 222 180 222 60 223 37 223 41 223 41 224 37 224 36 224 187 225 142 225 186 225 186 226 142 226 144 226 187 227 123 227 142 227 142 228 123 228 143 228 192 229 130 229 193 229 193 230 130 230 194 230 195 231 196 231 197 231 197 232 196 232 198 232 159 233 139 233 177 233 177 234 139 234 147 234 177 235 147 235 181 235 130 236 129 236 199 236 199 237 129 237 14 237 199 238 14 238 200 238 200 239 14 239 13 239 200 240 13 240 131 240 9 241 11 241 201 241 201 242 11 242 89 242 201 243 89 243 202 243 202 244 89 244 88 244 202 245 88 245 194 245 194 246 88 246 189 246 194 247 189 247 193 247 193 248 189 248 188 248 193 249 188 249 192 249 130 250 192 250 128 250 128 251 192 251 188 251 128 252 188 252 141 252 12 253 164 253 13 253 13 254 164 254 29 254 13 255 29 255 131 255 131 256 29 256 31 256 131 257 31 257 132 257 134 258 150 258 79 258 79 259 150 259 65 259 79 260 65 260 57 260 132 261 53 261 133 261 133 262 53 262 26 262 133 263 26 263 203 263 92 264 101 264 95 264 95 265 101 265 175 265 95 266 175 266 94 266 94 267 175 267 62 267 94 268 62 268 92 268 125 269 132 269 126 269 126 270 132 270 31 270 126 271 31 271 162 271 204 272 205 272 206 272 206 273 205 273 207 273 36 274 2 274 40 274 40 275 2 275 140 275 40 276 140 276 38 276 6 277 208 277 4 277 4 278 208 278 209 278 118 279 66 279 210 279 210 280 66 280 24 280 210 281 24 281 207 281 207 282 24 282 22 282 207 283 22 283 206 283 206 284 22 284 118 284 206 285 118 285 178 285 211 286 170 286 212 286 212 287 170 287 10 287 212 287 10 287 9 287 11 288 127 288 121 288 121 289 127 289 171 289 121 290 171 290 17 290 17 291 171 291 170 291 17 292 170 292 15 292 15 293 170 293 211 293 15 294 211 294 167 294 167 295 211 295 213 295 167 296 213 296 168 296 168 297 213 297 197 297 168 298 197 298 214 298 214 299 197 299 198 299 214 300 198 300 215 300 215 301 198 301 196 301 215 302 196 302 136 302 136 303 196 303 195 303 136 304 195 304 137 304 137 305 195 305 216 305 137 306 216 306 34 306 34 307 216 307 203 307 34 308 203 308 32 308 32 309 203 309 26 309 32 310 26 310 25 310 139 311 138 311 180 311 180 312 138 312 206 312 180 313 206 313 181 313 181 314 206 314 178 314 181 315 178 315 177 315 140 316 139 316 210 316 210 317 139 317 159 317 210 318 159 318 118 318 118 319 159 319 154 319 118 320 154 320 178 320 121 321 122 321 109 321 109 322 122 322 52 322 109 323 52 323 162 323 217 324 110 324 218 324 218 325 110 325 101 325 218 326 101 326 219 326 219 327 101 327 204 327 219 328 204 328 220 328 220 329 204 329 206 329 220 330 206 330 221 330 221 331 206 331 138 331 221 332 138 332 222 332 222 333 138 333 140 333 222 334 140 334 223 334 223 335 140 335 2 335 223 336 2 336 224 336 224 337 2 337 4 337 224 338 4 338 225 338 225 339 4 339 209 339 225 340 209 340 226 340 226 341 209 341 208 341 226 342 208 342 227 342 227 343 208 343 6 343 227 344 6 344 228 344 97 345 229 345 77 345 77 346 229 346 120 346 77 347 120 347 91 347 38 348 37 348 39 348 39 349 37 349 59 349 39 350 59 350 191 350 92 351 96 351 93 351 93 352 96 352 158 352 93 353 158 353 149 353 114 354 106 354 118 354 118 355 106 355 108 355 118 356 108 356 117 356 6 357 120 357 228 357 228 358 120 358 229 358 228 359 229 359 230 359 230 360 229 360 210 360 230 361 210 361 231 361 231 362 210 362 207 362 231 363 207 363 232 363 232 364 207 364 205 364 232 365 205 365 233 365 233 366 205 366 100 366 233 367 100 367 234 367 234 368 100 368 179 368 234 369 179 369 235 369 235 370 179 370 236 370 235 371 236 371 217 371 217 372 236 372 237 372 217 373 237 373 110 373 136 374 135 374 215 374 215 375 135 375 168 375 215 376 168 376 214 376 166 377 86 377 34 377 34 378 86 378 135 378 34 379 135 379 137 379 82 380 152 380 103 380 103 381 152 381 78 381 103 382 78 382 86 382 86 383 78 383 48 383 86 384 48 384 135 384 135 385 48 385 50 385 135 386 50 386 168 386 168 387 50 387 151 387 168 388 151 388 78 388 56 389 100 389 62 389 62 390 100 390 205 390 62 391 205 391 92 391 92 392 205 392 204 392 92 393 204 393 101 393 194 394 130 394 225 394 225 395 130 395 199 395 225 396 199 396 224 396 224 397 199 397 200 397 224 398 200 398 223 398 223 399 200 399 131 399 223 400 131 400 222 400 222 401 131 401 133 401 222 402 133 402 221 402 221 403 133 403 203 403 221 404 203 404 220 404 237 405 236 405 110 405 110 406 236 406 179 406 110 407 179 407 47 407 47 408 179 408 45 408 100 409 102 409 81 409 81 410 102 410 104 410 81 411 104 411 47 411 47 412 104 412 85 412 47 413 85 413 110 413 149 414 158 414 33 414 33 415 158 415 134 415 33 416 134 416 34 416 34 417 134 417 112 417 34 418 112 418 119 418 56 419 58 419 175 419 175 420 58 420 64 420 175 421 64 421 62 421 129 422 141 422 143 422 143 423 141 423 88 423 143 424 88 424 145 424 60 425 71 425 59 425 59 426 71 426 172 426 59 427 172 427 191 427 191 428 172 428 173 428 70 429 60 429 161 429 161 430 60 430 14 430 161 431 14 431 20 431 18 432 19 432 20 432 20 433 19 433 80 433 69 434 174 434 90 434 90 435 174 435 55 435 90 436 55 436 88 436 88 437 55 437 54 437 88 438 54 438 145 438 143 439 123 439 129 439 129 440 123 440 28 440 129 441 28 441 14 441 14 442 28 442 35 442 14 443 35 443 18 443 80 444 19 444 67 444 67 445 19 445 28 445 67 446 28 446 55 446 16 447 33 447 124 447 124 448 33 448 25 448 124 449 25 449 84 449 160 450 162 450 107 450 107 451 162 451 52 451 107 452 52 452 165 452 160 453 107 453 155 453 155 454 107 454 115 454 155 455 115 455 157 455 60 456 190 456 14 456 14 457 190 457 191 457 14 458 191 458 12 458 12 459 191 459 173 459 12 460 173 460 109 460 109 461 173 461 76 461 109 462 76 462 90 462 90 463 76 463 80 463 90 464 80 464 69 464 69 465 80 465 67 465 185 466 115 466 165 466 165 467 115 467 169 467 165 468 169 468 107 468 157 469 115 469 122 469 122 470 115 470 185 470 122 471 185 471 51 471 146 472 184 472 148 472 148 473 184 473 157 473 148 474 157 474 183 474 183 475 157 475 122 475 17 476 124 476 122 476 122 477 124 477 84 477 122 478 84 478 183 478 183 479 84 479 126 479 183 480 126 480 182 480 182 481 126 481 162 481 182 482 162 482 146 482 146 483 162 483 160 483 146 484 160 484 184 484 225 485 226 485 194 485 194 486 226 486 227 486 194 487 227 487 202 487 202 488 227 488 228 488 202 489 228 489 201 489 201 490 228 490 230 490 201 491 230 491 9 491 9 492 230 492 231 492 9 493 231 493 212 493 217 494 213 494 235 494 235 495 213 495 211 495 235 496 211 496 234 496 234 497 211 497 212 497 231 498 232 498 212 498 212 499 232 499 233 499 212 500 233 500 234 500 220 501 203 501 219 501 219 502 203 502 216 502 219 503 216 503 218 503 218 504 216 504 195 504 218 505 195 505 217 505 217 506 195 506 197 506 217 507 197 507 213 507 5 508 0 508 7 508 7 509 0 509 2 509 7 510 2 510 120 510 120 511 2 511 36 511 120 512 36 512 91 512 91 513 36 513 38 513 91 514 38 514 97 514 97 515 38 515 140 515 97 516 140 516 229 516 229 517 140 517 210 517</p>
        </triangles>
      </mesh>
    </geometry>
  </library_geometries>
  <library_visual_scenes>
    <visual_scene id="Scene" name="Scene">
      <node id="Link6" name="Link6" type="NODE">
        <matrix sid="transform">1 0 0 0 0 1 0 0 0 0 1 0 0 0 0 1</matrix>
        <instance_geometry url="#Link6_004-mesh" name="Link6">
          <bind_material>
            <technique_common>
              <instance_material symbol="Material_013-material" target="#Material_013-material"/>
            </technique_common>
          </bind_material>
        </instance_geometry>
      </node>
    </visual_scene>
  </library_visual_scenes>
  <scene>
    <instance_visual_scene url="#Scene"/>
  </scene>
</COLLADA>