<?xml version="1.0" encoding="utf-8"?>
<COLLADA xmlns="http://www.collada.org/2005/11/COLLADASchema" version="1.4.1" xmlns:xsi="http://www.w3.org/2001/XMLSchema-instance">
  <asset>
    <contributor>
      <author>Blender User</author>
      <authoring_tool>Blender 2.82.7</authoring_tool>
    </contributor>
    <created>2024-01-25T16:00:55</created>
    <modified>2024-01-25T16:00:55</modified>
    <unit name="meter" meter="1"/>
    <up_axis>Z_UP</up_axis>
  </asset>
  <library_effects>
    <effect id="LinkGrey_005-effect">
      <profile_COMMON>
        <technique sid="common">
          <lambert>
            <emission>
              <color sid="emission">0 0 0 1</color>
            </emission>
            <diffuse>
              <color sid="diffuse">0.8203922 0.8203922 0.8203922 1</color>
            </diffuse>
            <index_of_refraction>
              <float sid="ior">1</float>
            </index_of_refraction>
          </lambert>
        </technique>
      </profile_COMMON>
    </effect>
  </library_effects>
  <library_images/>
  <library_materials>
    <material id="LinkGrey_005-material" name="LinkGrey.005">
      <instance_effect url="#LinkGrey_005-effect"/>
    </material>
  </library_materials>
  <library_geometries>
    <geometry id="eSeries_UR5e_058-mesh" name="eSeries UR5e.058">
      <mesh>
        <source id="eSeries_UR5e_058-mesh-positions">
          <float_array id="eSeries_UR5e_058-mesh-positions-array" count="1455">-0.001911103 0.06691843 0.04351669 0.001930654 0.06590116 0.0434488 0.002183735 0.06834095 0.0434432 -0.002078711 0.06551462 0.04341119 9.33183e-4 0.0721547 0.04085153 -7.6743e-4 0.07213515 0.04130983 -0.002358555 0.07158398 0.04130983 -0.00369656 0.07055932 0.04085147 -0.004507541 0.06907629 0.04155296 -0.004866182 0.06703257 0.04127228 -0.004381656 0.06525963 0.04134744 -0.003403365 0.06388694 0.04134738 -0.001377105 0.06264698 0.04115176 1.2232e-4 0.06252998 0.04138529 0.001586914 0.06276565 0.04130983 0.00338447 0.06383478 0.04131489 0.004529833 0.06561803 0.04130989 0.004854559 0.06728774 0.04129004 0.004499435 0.06925576 0.04124158 0.002916395 0.07131713 0.0408672 0.001182556 0.07179355 0.04191374 0.001508831 0.0706157 0.0430364 0.003249645 0.07044607 0.04214316 0.003442466 0.06852847 0.04300189 0.003694355 0.06673747 0.04294145 0.002900481 0.0644713 0.04263335 0.001900136 0.06461805 0.0431655 2.24695e-4 0.06318265 0.04256284 -7.82187e-4 0.06443762 0.04334217 -0.002269148 0.06353145 0.04218792 -0.003324985 0.06515526 0.04269582 -0.003697216 0.06717956 0.04297018 -0.003332793 0.06896048 0.04290628 -0.003709137 0.0700758 0.04190701 -0.001438617 0.07103824 0.04276615 -0.002030849 0.06945985 0.0433399 -1.02537e-5 0.06993871 0.04343146 0.004981398 0.06695979 0.03943562 0.004065513 0.0702517 0.0394355 0.001653075 0.07201677 0.0394355 -9.03126e-4 0.07221776 0.0394355 -0.003217279 0.0711137 0.0394355 -0.004838168 0.06859505 0.0394355 -0.004745364 0.0660386 0.0394355 -0.003766357 0.06413024 0.0394355 -0.001247704 0.06250929 0.0394355 0.001734972 0.0627079 0.0394355 0.003822326 0.06419706 0.0394355 0 0.09089452 0.02443569 0.003028213 0.09269356 0.02504032 0.002538859 0.09269487 0.02273696 8.52775e-4 0.09269487 0.02150243 -9.82799e-4 0.09269571 0.02157086 -0.002464711 0.09269487 0.02263087 -0.003052473 0.09269356 0.02490341 -0.001804709 0.09269487 0.02690047 2.01542e-4 0.09269487 0.02748388 0.001902878 0.09269571 0.02679204 -0.01512098 0.08979713 0.01294451 -0.01821929 0.08979713 0.0219202 -0.01840621 0.08979713 0.0123735 -0.01297527 0.08979713 0.01597869 -0.01309341 0.08979713 0.01841861 -0.01463425 0.08979713 0.02094167 -0.02047234 0.08979713 0.02097433 -0.02231562 0.08979713 0.01866382 -0.0221467 0.08979713 0.01537448 -0.02067863 0.08979713 0.01337289 0.02023386 0.08979713 0.01294451 0.01713556 0.08979713 0.0219202 0.01694864 0.08979713 0.0123735 0.02237951 0.08979713 0.01597869 0.02226144 0.08979713 0.01841861 0.0207206 0.08979713 0.02094167 0.01417267 0.08979713 0.02044755 0.0130549 0.08979713 0.01827543 0.01303768 0.08979713 0.0157454 0.01467621 0.08979713 0.01337289 -0.01839858 0.08979713 -0.02307826 -0.01821929 0.08979713 -0.01343464 -0.0148046 0.08979713 -0.02213305 -0.01297527 0.08979713 -0.01937615 -0.01309341 0.08979713 -0.01693618 -0.01463425 0.08979713 -0.01441317 -0.02118211 0.08979713 -0.0149073 -0.02229988 0.08979713 -0.01707935 -0.02231711 0.08979713 -0.01960945 -0.02099496 0.08979713 -0.0216636 0.01695621 0.08979713 -0.02307826 0.01713556 0.08979713 -0.01343464 0.02055025 0.08979713 -0.02213305 0.02237951 0.08979713 -0.01937615 0.02226144 0.08979713 -0.01693618 0.0207206 0.08979713 -0.01441317 0.01417267 0.08979713 -0.0149073 0.0130549 0.08979713 -0.01707935 0.01303768 0.08979713 -0.01960945 0.01435983 0.08979713 -0.0216636 0.001294434 0.09269708 0.01518493 0.01382881 0.09269708 0.007079601 -0.003847301 0.09269708 0.01476252 -0.008579075 0.09269708 0.01270592 -0.01489102 0.09269708 0.004718601 -0.01239567 0.09269708 0.009235084 -0.01579791 0.09269702 -3.62884e-4 -0.01263248 0.09269708 -0.01004791 -0.01501786 0.09269702 -0.005466818 -0.008895337 0.09269708 -0.01361554 0.001393973 0.09269714 -0.01632928 -0.004203617 0.09269714 -0.01578676 0.006639719 0.09269708 -0.0148943 0.0140137 0.09269702 -0.007855296 0.01091057 0.09269708 -0.01198571 0.01561778 0.09269702 -0.002946615 0.01555329 0.09269702 0.002215206 0.01062911 0.09269708 0.01112818 0.006296336 0.09269708 0.01392924 0.004753053 0.06606394 0.03643554 0.00379163 0.06415903 0.03643554 0.001290142 0.0625199 0.03643554 -0.001699328 0.06269389 0.03643554 -0.003798484 0.06416702 0.03643554 -0.004758119 0.06608241 0.03643554 -0.004877924 0.06821286 0.03643554 -0.004027485 0.07017922 0.03643554 -0.002108931 0.07187753 0.03643554 0.001296341 0.07217329 0.03643554 0.003488063 0.070822 0.03643554 0.004827439 0.0686376 0.03643554 7.96158e-4 0.09879589 0.02140659 -0.001057267 0.09878969 0.02151918 -0.002679049 0.0987938 0.02278172 -0.003097593 0.09880024 0.02505719 -0.002006113 0.09880697 0.02681356 -2.58444e-4 0.09879589 0.02755707 0.001533985 0.09881085 0.02714556 0.002726316 0.09880852 0.02602076 0.003108263 0.09878218 0.02413725 0.002379119 0.09878975 0.02244484 -0.01857364 0.0983839 0.01240241 -0.02078801 0.09839349 0.01346272 -0.02219653 0.09839349 0.01550698 -0.02239584 0.09839904 0.01797431 -0.02078622 0.09838712 0.020886 -0.01721483 0.09839087 0.02192807 -0.0142284 0.09839087 0.02050447 -0.01294761 0.09839785 0.01790779 -0.01318287 0.09839349 0.01543968 -0.0152719 0.09838634 0.01285797 0.01680892 0.09839344 0.01239663 0.01456689 0.09839349 0.01346272 0.01299488 0.09839087 0.01590162 0.01346606 0.09838569 0.01959568 0.01646572 0.09839087 0.02179598 0.01895356 0.09839016 0.02170598 0.02112644 0.09839087 0.02050441 0.02240717 0.09839785 0.01790779 0.02188825 0.09838628 0.01463067 0.01928079 0.09839791 0.01259338 -0.01771336 0.09839344 -0.02303731 -0.02088099 0.09836751 -0.0219323 -0.0224992 0.09839087 -0.01862192 -0.02136826 0.09836775 -0.01503765 -0.018058 0.09839087 -0.01341962 -0.01450127 0.09838634 -0.01452547 -0.0128557 0.09839087 -0.01786077 -0.01354378 0.09839785 -0.02067339 -0.01531016 0.09839349 -0.02241253 0.01805758 0.09839087 -0.02306312 0.01486921 0.09839087 -0.02217942 0.01315724 0.09839785 -0.01984465 0.01309925 0.09838634 -0.01652777 0.01531028 0.09839344 -0.01407009 0.01817351 0.09837681 -0.01343095 0.02112644 0.09839087 -0.01485043 0.02249914 0.09839087 -0.01786077 0.021811 0.09839785 -0.02067339 0.0203756 0.09839016 -0.02217072 0.001169443 0.0978977 0.01523679 -0.004783213 0.09789335 0.01448982 -0.008417487 0.09789705 0.01274782 -0.01124447 0.09789413 0.01053041 -0.01414656 0.0979107 0.00646317 -0.01565462 0.09788829 0.00155127 -0.01553142 0.09790372 -0.003446936 -0.01381254 0.09790384 -0.008229851 -0.01060748 0.097889 -0.01227134 -0.006412744 0.09790384 -0.01500219 -0.002526342 0.09789705 -0.01610976 0.001610159 0.09789043 -0.01628506 0.004987537 0.09789705 -0.01550304 0.008658885 0.09791249 -0.01377731 0.01239943 0.09790384 -0.01035219 0.01486545 0.09790378 -0.005908071 0.01575613 0.09792101 -0.001319527 0.0154314 0.09789705 0.002586483 0.01413434 0.09790343 0.006487131 0.01116293 0.09790325 0.01061058 0.007026255 0.09791088 0.01358121 -0.01707893 0.09889543 0.02242457 -0.01380532 0.09889525 0.02079731 -0.02121114 0.09892183 0.02129411 -0.0222429 0.09889137 0.01409924 -0.0228694 0.0988965 0.01812428 -0.01222187 0.09889429 0.01653486 -0.01510125 0.09889394 0.0123654 -0.01880693 0.09889656 0.01192396 0.02261656 0.09889644 0.01519167 0.02025908 0.09889417 0.01239132 0.02044868 0.09889656 0.02162343 0.02277559 0.09889358 0.01883572 0.0133984 0.09889489 0.02049565 0.01734471 0.09889543 0.02244782 0.01616555 0.09889584 0.01198661 0.01322412 0.09889543 0.01415801 0.01238864 0.09889656 0.01711338 -0.01891702 0.09889179 -0.01292663 -0.01409667 0.09889394 -0.01419669 -0.0123431 0.09889543 -0.01790869 -0.02230435 0.09889644 -0.0208044 -0.02288001 0.09891641 -0.020621 -0.02246367 0.09889554 -0.01586228 -0.02087771 0.09893518 -0.02263444 -0.01361447 0.09889411 -0.02180933 -0.01734483 0.09889543 -0.02357566 0.02201622 0.09892898 -0.02149623 0.01935726 0.0988937 -0.02335727 0.02155005 0.09889566 -0.01455736 0.02301186 0.09889554 -0.01790869 0.01305049 0.09889644 -0.0208044 0.01238471 0.0988934 -0.01716291 0.01472181 0.09889554 -0.01378798 0.01840382 0.09889566 -0.01292735 0.015298 0.09889572 -0.02302747 0.004018306 0.09889632 -0.01687896 0.008967161 0.09889668 -0.01474827 0.01390147 0.09889549 -0.01015919 0.01674067 0.09889578 -0.002664268 0.01613944 0.09889644 0.00411123 0.01382869 0.09889662 0.008981227 0.009947717 0.09889674 0.01299905 0.005320787 0.09889632 0.01537412 2.723e-4 0.09889656 0.01621723 -0.004946708 0.09889644 0.01548272 -0.009692072 0.0988968 0.01315927 -0.01359474 0.09889668 0.00929296 -0.01611453 0.09889638 0.004233241 -0.01674133 0.09889632 -0.002664327 -0.01455193 0.09889656 -0.008965373 -0.01133161 0.09889668 -0.01294463 -0.006818473 0.09889662 -0.01594477 -0.00159496 0.09889662 -0.01728653 0.004885852 0.06817531 0.03343236 0.004751801 0.0660535 0.03343236 0.003774762 0.0641368 0.03343236 0.001663684 0.06267946 0.03343236 -4.49234e-4 0.06244301 0.03343236 -0.002094805 0.06281995 0.03339409 -0.003817439 0.06418752 0.03343236 -0.004762232 0.06609213 0.03343236 -0.005024611 0.0671001 0.03340232 -0.004071712 0.07024675 0.03343236 -0.002063155 0.07181936 0.03343236 -4.09285e-4 0.07225531 0.03343236 0.002148151 0.07186073 0.03343236 0.004045605 0.07015585 0.03343236 0.01075547 0.09889715 0.02806842 0.01830881 0.09889715 0.02390152 -0.01558774 0.09889751 0.02585291 0.002130746 0.09889709 0.02990978 -0.005624711 0.09889709 0.02949815 -0.02680218 0.09889745 0.01421236 -0.03042221 0.09889763 0.003587007 0.03049498 0.09889709 -0.001862823 0.02394837 0.09889709 0.01835978 0.02930015 0.09889864 0.008794248 -0.0142337 0.09889715 -0.02759325 -0.005773663 0.09889715 -0.03062224 -0.02994912 0.09889751 -0.006867945 -0.02690571 0.09889715 -0.01503002 0.01594549 0.09889757 -0.02680283 0.004856109 0.09889751 -0.03079378 0.02830463 0.09889853 -0.01260262 0.01289683 0.09791731 0.02823102 0.007398724 0.09789705 0.03005439 0.01922231 0.09788531 0.02445745 0.0232414 0.09789705 0.02069771 0.03148567 0.09789705 3.69498e-4 0.03089845 0.09790199 0.005826294 0.02787297 0.09786862 0.01441067 0.0308898 0.09786862 -0.007416725 0.02757781 0.09790199 -0.01589405 0.02193969 0.09787726 -0.02336585 0.005426764 0.09789186 -0.03173762 0.01430875 0.09790199 -0.02868527 -0.003924906 0.09791731 -0.03186994 -0.01290047 0.09790533 -0.02945762 -0.02214175 0.09787726 -0.02316975 -0.03154152 0.09788531 -0.001403987 -0.03046566 0.09790199 -0.008773744 -0.0276851 0.09790199 -0.01569956 -0.02559304 0.09789705 0.01779967 -0.02843761 0.09790199 0.0131058 -0.03085279 0.09790199 0.006043612 -0.02183693 0.09791725 0.0222094 -0.01759719 0.09789705 0.02556204 -0.01254075 0.09791731 0.0283879 0.001980185 0.09790199 0.03092622 -0.005471944 0.09790199 0.03051036 -0.002200007 0.09239709 0.03090906 -0.009531021 0.09239709 0.02951186 -0.01632845 0.09239709 0.02643191 -0.02366083 0.09239709 0.02044296 -0.02862417 0.09239709 0.01270449 -0.03135991 0.09239709 0.003641068 -0.03115344 0.09239709 -0.005549609 -0.02911078 0.09239709 -0.01272767 -0.02426981 0.09239709 -0.02086412 -0.01734924 0.09239709 -0.02691525 -0.01067417 0.09239709 -0.03025317 -0.003402054 0.09239709 -0.03192973 0.004060268 0.09239709 -0.03185129 0.01129555 0.09239709 -0.03002232 0.01789903 0.09239709 -0.02654486 0.02486348 0.09239709 -0.02013236 0.02935981 0.09239709 -0.01211333 0.03125119 0.09239709 -0.004893958 0.03122067 0.09239709 0.004573047 0.02833896 0.09239709 0.01330298 0.02302455 0.09239709 0.02113837 0.01402693 0.09239709 0.02779746 0.005254209 0.09239709 0.03054529 -0.004333317 0.06431311 0.03342837 4.61184e-4 0.06207752 0.03342837 0.002990424 0.06307649 0.03343003 0.004794359 0.06511175 0.03342837 0.005110859 0.06871676 0.03342956 0.003371834 0.07136589 0.03342944 4.60923e-4 0.07261765 0.03342872 -0.003034174 0.07168084 0.03342837 -0.004929423 0.0691415 0.03342944 0.03458654 0.09239768 -0.006718277 0.03081095 0.09239763 -0.01743966 0.02521115 0.09239727 -0.02490776 0.01602894 0.0923984 -0.03195643 0.003323495 0.09239768 -0.03553622 -0.02240288 0.09239852 0.02664875 -0.01265895 0.09239727 0.03211593 -0.003323614 0.09239763 0.03440845 0.008017241 0.09239763 0.03363895 0.01671206 0.09239727 0.03024071 -0.009951293 0.0923984 -0.03437805 -0.01994484 0.09239727 -0.02938103 -0.02838569 0.0923984 -0.02146077 0.02596002 0.0923984 0.0232793 0.03280872 0.09239763 0.01199376 0.03487533 0.09239727 0.002890586 -0.03453648 0.09239852 -0.007610321 -0.03458666 0.09239763 0.005590498 -0.03081095 0.09239763 0.016312 0.03574395 0.05314761 0.007446527 0.03640818 0.05314761 0.003465771 0.03464579 0.05314761 0.01133 0.03312706 0.05314761 0.01506912 0.03120625 0.05314761 0.01861852 0.02890664 0.05314761 0.02193498 0.02328687 0.05314761 0.02771174 0.02625608 0.05314761 0.02497851 0.02003496 0.05314761 0.03010201 0.01653987 0.05314761 0.03211992 0.01284396 0.05314761 0.03374111 0.008992195 0.05314761 0.03494578 0.005031287 0.05314761 0.03571945 -0.003024935 0.05314761 0.03594154 0.001009225 0.05314761 0.0360527 -0.0070225 0.05314761 0.03538721 -0.01093477 0.05314761 0.03439646 -0.01471436 0.05314761 0.03298133 -0.01831531 0.05314761 0.03115898 -0.02169394 0.05314761 0.02895164 -0.02762341 0.05314761 0.02349328 -0.02480924 0.05314761 0.02638608 -0.03010225 0.05314761 0.02030855 -0.03221565 0.05314761 0.01687037 -0.03393805 0.05314761 0.01322048 -0.03613102 0.05314761 0.005465209 -0.03524845 0.05314761 0.009403407 -0.03657501 0.05314761 0.001453936 -0.03657501 0.05314761 -0.002581834 -0.03613102 0.05314761 -0.006593048 -0.03524845 0.05314761 -0.01053118 -0.03393805 0.05314761 -0.01434832 -0.03010225 0.05314761 -0.02143633 -0.03221565 0.05314761 -0.01799815 -0.02762341 0.05314761 -0.02462112 -0.02480924 0.05314761 -0.02751392 -0.02169394 0.05314761 -0.03007954 -0.01831531 0.05314761 -0.03228688 -0.01471436 0.05314761 -0.03410917 -0.0070225 0.05314761 -0.03651499 -0.01093477 0.05314761 -0.0355243 -0.003024935 0.05314761 -0.03706932 0.001009225 0.05314761 -0.03718054 0.005031287 0.05314761 -0.03684729 0.01284396 0.05314761 -0.03486889 0.008992195 0.05314761 -0.03607362 0.01653987 0.05314761 -0.0332477 0.02003496 0.05314761 -0.03122979 0.02328687 0.05314761 -0.0288397 0.02625608 0.05314761 -0.02610635 0.02890664 0.05314761 -0.02306288 0.03312706 0.05314761 -0.01619702 0.03120625 0.05314761 -0.0197463 0.03464579 0.05314761 -0.01245784 0.03574395 0.05314761 -0.008574306 0.03640818 0.05314761 -0.004593551 0.03663051 0.05314761 -5.6396e-4 -0.01578408 0.07335793 0.03343546 0.009209632 0.07573515 0.03579503 -0.00212419 0.07683974 0.03690648 0.01578223 0.06133604 0.03343552 0.01292836 0.06011033 0.03464549 0.008152484 0.05869436 0.03607255 0.002100944 0.05785256 0.03690528 -0.002186954 0.08992773 0.03689348 -0.009507298 0.08992391 0.03575468 -0.01574563 0.08989715 0.03346961 -0.02097839 0.08990216 0.03058171 -0.02857816 0.08990508 0.02393555 -0.03403073 0.08990198 0.01531285 -0.03664809 0.08990198 0.007626295 -0.03755193 0.08990198 -4.43329e-4 -0.03669995 0.08990198 -0.008518636 -0.03413182 0.08990198 -0.01622223 -0.02996802 0.08990198 -0.02319306 -0.02291715 0.08990508 -0.0304259 -0.01218235 0.08990508 -0.03618025 -0.002153635 0.08990198 -0.03805422 0.005955457 0.08990198 -0.03764069 0.01378703 0.08990198 -0.03549355 0.02264356 0.08990502 -0.0306338 0.03105968 0.08990502 -0.02182948 0.03554761 0.08990198 -0.01266855 0.0373187 0.08990198 -0.004743874 0.03717362 0.08990508 0.00535649 0.03413194 0.08990198 0.01509392 0.02996796 0.08990198 0.02206522 0.02440255 0.08990198 0.02797853 0.01933294 0.08989715 0.03156781 0.01304793 0.08990931 0.03463244 0.005497634 0.08991962 0.03655642 0.03674733 0.05314761 -0.008283615 0.0375477 0.05314761 -2.03653e-4 0.03612744 0.05314761 0.009998083 0.03198707 0.05314761 0.01910299 0.02701151 0.05314761 0.02551931 0.02065986 0.05314761 0.03080052 0.01324999 0.05314826 0.03454506 0.005917489 0.05314809 0.03651612 -0.003584563 0.05314797 0.03687506 -0.01330751 0.05314809 0.03452473 -0.02070796 0.05314701 0.03081101 -0.02901643 0.05314761 0.02341103 -0.03422886 0.05314761 0.01487463 -0.03674739 0.05314761 0.007155835 -0.03755342 0.05314761 -0.003112494 -0.03546726 0.05314761 -0.01289433 -0.03086435 0.05314761 -0.02210789 -0.02236956 0.05314761 -0.03083521 -0.01356297 0.05314761 -0.03557837 -0.00571829 0.05314761 -0.03767538 0.00239247 0.05314761 -0.03803712 0.01250278 0.05314761 -0.03606647 0.02318453 0.05314761 -0.03021562 0.0301097 0.05314761 -0.02299964 0.03422856 0.05314761 -0.01600301 -0.01217722 0.05982595 0.03493398 -0.01579588 0.06131821 0.03343564 -0.007087469 0.05849772 0.03626435 -0.003270268 0.05794602 0.03680706 0.01579743 0.07337778 0.03343558 0.004103899 0.07666683 0.03673851 -0.01299011 0.07456111 0.03462177 0.01292586 0.07459342 0.03465068 -0.008396506 0.07594895 0.036013</float_array>
          <technique_common>
            <accessor source="#eSeries_UR5e_058-mesh-positions-array" count="485" stride="3">
              <param name="X" type="float"/>
              <param name="Y" type="float"/>
              <param name="Z" type="float"/>
            </accessor>
          </technique_common>
        </source>
        <source id="eSeries_UR5e_058-mesh-normals">
          <float_array id="eSeries_UR5e_058-mesh-normals-array" count="2616">-0.002151072 -0.07469475 0.9972042 0.01779031 4.41069e-4 0.9998418 0.01041722 0.02167141 0.999711 0.3783088 0.8998556 0.2171233 0.1535172 0.2179112 0.9638192 0.7400189 0.3354757 0.5829479 0.8154242 0.1608261 0.5560743 0.7999827 0.09251612 0.5928479 0.8319266 -0.1554716 0.5326601 0.7317846 -0.4686352 0.4948459 0.4220833 -0.2656999 0.8667464 0.3606856 -0.2092654 0.9089081 0.2875096 -0.6361951 0.7159568 -0.1953219 -0.822589 0.5340381 -0.2008526 -0.6280417 0.7518125 -0.5979068 -0.5662424 0.5673421 -0.340333 -0.4751105 0.8114454 -0.3384808 -0.4600946 0.8208189 -0.7003832 -0.4991583 0.5102005 -0.7999781 -0.1945735 0.5676057 -0.82451 0.0675376 0.5618024 -0.7362146 0.1741219 0.6539645 -0.2850699 0.05314326 0.9570325 -0.7980518 0.5513802 0.2430912 -0.6978478 0.332792 0.6342382 -0.6427091 0.6993725 0.312735 -0.4938997 0.6643853 0.5609416 -0.2854748 0.8241488 0.4891657 -0.1319597 0.3820085 0.9146891 0.07153761 0.9493486 0.3059734 -0.04102587 0.8070926 0.588998 0.0336427 0.6944265 0.7187768 -0.005222976 0.5127018 0.8585509 0.3822367 0.6908434 0.6137024 0.4646368 0.7831385 0.4132878 0.2868724 0.2504705 0.9246452 0.448669 0.4024618 0.7979478 0.7523387 0.6188087 0.22597 0.2884635 -0.02773708 0.9570891 0.3289133 0.01439213 0.9442505 0.7248877 -0.3357189 0.6015237 0.07867306 -0.2167263 0.9730572 0.3330739 -0.7246521 0.6032755 0.4367914 -0.7368258 0.5160437 0.08953934 -0.4726132 0.8767095 0.1638799 -0.8687753 0.4673036 -0.002861201 -0.06739658 0.9977223 -0.1433049 -0.8602704 0.4892839 -0.4778888 -0.8274385 0.2949033 -0.2972399 -0.03622865 0.9541153 -0.4437485 -0.1999779 0.8735538 -0.7756515 -0.2226613 0.5905818 -0.3502948 0.1050652 0.9307281 -0.4322686 0.4468967 0.7832159 -0.4822707 0.4886906 0.7270465 -0.06084448 0.0664128 0.9959354 0.9600564 0.2670955 -0.08337694 0.9833264 0.1783089 0.0357092 0.7693675 0.6193008 0.1566532 0.5857944 0.8006617 -0.1256418 0.3860893 0.9162294 0.1070451 0.07825136 0.9952939 -0.05715578 3.65501e-4 0.9990314 0.04400157 -0.4304012 0.9021664 -0.02916496 -0.3266058 0.942909 0.06520175 -0.6250805 0.7751336 0.09188234 -0.838693 0.5397478 -0.07257169 -0.8720685 0.4887409 0.02508091 -0.9807301 0.1559488 0.1176806 -0.9982805 -0.03623807 -0.04607456 -0.8896294 -0.4563774 -0.01671844 -0.9625676 -0.2597987 0.07725483 -0.8117054 -0.5784941 0.0804916 -0.5411761 -0.8408985 -0.004256367 -0.5196994 -0.8538467 0.02929705 0.06639391 -0.9971413 -0.03607338 -0.08885699 -0.993368 0.07296824 0.1608965 -0.9860299 0.0430985 0.5806382 -0.8138751 -0.02160435 0.5099085 -0.857638 0.06671279 0.920753 -0.3862915 -0.05470818 0.8379774 -0.5379732 0.0915355 0.9768901 -0.1888048 0.1001926 -0.5239415 0.8443833 0.1118132 -0.3138871 0.8471659 0.4287012 0.0200262 0.8494953 0.527216 0.3064677 0.8496894 0.4290752 0.5183488 0.8445151 0.1345695 0.454088 0.8443824 -0.2842929 0.1483574 0.8471769 -0.5101779 -0.1990682 0.8495082 -0.4885771 -0.4460654 0.8475317 -0.2876034 0 1 0 0 1 1.01549e-6 0 1 -1.05289e-6 0 1 3.86128e-6 0 1 -8.40624e-6 0 1 2.59408e-6 0 1 -1.86226e-6 0 1 1.0155e-6 0 1 1.50412e-6 0 1 -3.86128e-6 0 1 -6.07657e-6 0 1 4.6532e-7 0 1 1.46696e-6 0 1 -7.38363e-7 0 1 1.14917e-6 0 1 -1.05288e-6 0 1 3.8613e-6 0 1 -9.11481e-6 0 1 3.98844e-7 0 1 2.63276e-6 0 1 -1.15071e-6 0 1 -7.38364e-7 0 1 1.50412e-6 0 1 -3.8613e-6 0 1 -6.07657e-6 0 1 4.65321e-7 0 1 3.51034e-6 0 1 -1.15071e-6 -2.63838e-6 1 -9.91389e-6 -1.41955e-6 1 8.00577e-7 -1.35883e-6 1 3.76072e-6 -1.46461e-6 1 0 -1.07177e-6 1 -8.90527e-6 -3.41499e-6 1 8.61929e-6 -1.34213e-6 1 -2.03887e-6 -2.45008e-6 1 -2.20465e-6 -3.62151e-6 1 1.68985e-6 -6.64922e-6 1 7.94997e-6 1.10213e-5 1 -3.32764e-6 9.29686e-6 1 -3.70679e-6 9.27571e-6 1 -3.1922e-6 1.47715e-5 1 -3.51153e-6 2.71275e-5 1 -9.53122e-7 5.24676e-6 1 1.87744e-5 1.32467e-5 1 1.35699e-5 0.9973172 -0.02881819 -0.06728982 0.9211855 -0.3864779 0.0453003 0.892732 -0.4505751 -0.003413736 0.5807697 -0.8140562 0.004381299 0.5478512 -0.8360787 -0.02883982 0.06634557 -0.9964092 0.05260223 -0.0580188 -0.9969284 -0.0526095 -0.5409421 -0.8405345 0.02972406 -0.5744442 -0.8185345 -0.003890514 -0.8897468 -0.4564378 0.003925979 -0.8940556 -0.4479479 -0.002727568 -0.9993349 -0.03627669 0.003727018 -0.9982147 -0.05613863 0.02039229 -0.9171648 0.3966567 -0.03837156 -0.839474 0.5402477 0.05844718 -0.6618492 0.7476792 -0.05414307 -0.4295111 0.9003015 0.07055181 -0.08625406 0.9932192 -0.0779491 0.0783078 0.9960164 0.04265475 0.5902422 0.8067374 -0.02809119 0.5238403 0.8496518 0.06069028 0.8507233 0.5216296 -0.06459498 0.9585836 0.266692 0.09996551 0.03726005 0.01603513 0.999177 0.06060874 0.009198665 0.9981192 0.5817278 0.0140013 0.8132631 0.614272 0.002078354 0.7890917 0.9677627 0.02782487 0.2503222 0.9834993 0.002714097 0.180892 0.8479028 0.01960504 -0.5297893 0.849147 0.02048134 -0.5277594 0.3914557 -1.80638e-4 -0.920197 0.2790823 0.03255432 -0.9597153 -0.2237097 -0.005174577 -0.9746421 -0.3765088 0.03081256 -0.9259005 -0.6862161 6.55099e-4 -0.7273975 -0.8404663 0.0450797 -0.5399854 -0.9799583 -0.01655703 -0.1985135 -0.9772301 0.04364669 0.2076452 -0.9183874 -0.005106806 0.3956496 -0.5905974 0.02318179 0.8066334 -0.5483884 0.008041024 0.8361852 0.4025782 0.004766047 0.9153733 0.4318601 -0.003931224 0.9019321 0.8063459 0.004076719 0.5914303 0.8234443 -0.003972649 0.5673834 0.9986719 0.004995107 0.05127918 0.9966313 0.01574915 0.08048629 0.8747061 -0.03060966 -0.4836862 0.7815227 0.02214574 -0.6234838 0.3870979 0.004665791 -0.9220269 0.2799879 -0.03184944 -0.9594751 -0.2631887 0.03164076 -0.9642254 -0.4301604 -0.02559584 -0.9023895 -0.8533502 0.01378458 -0.5211558 -0.8967745 -0.01107746 -0.442349 -0.9987322 0.01405328 -0.04834008 -0.9953219 -0.01808702 0.09490609 -0.816365 0.01648116 0.5773013 -0.7773517 -0.00732696 0.6290236 -0.1712355 0.006914377 0.985206 -0.1366666 -0.006003856 0.990599 0.4025813 0.004080235 0.9153752 0.4294189 -0.003972172 0.9030967 0.8228304 0.004528582 0.5682692 0.8405215 -0.005660831 0.5417487 0.9999638 0.005102694 -0.006809651 0.9915699 -0.02802002 -0.1265075 0.8888294 0.02776128 -0.4573966 0.5912083 -0.03129535 -0.8059117 0.4449861 0.02174228 -0.8952736 -0.03614687 -0.01726168 -0.9991975 -0.2631887 0.03164529 -0.9642253 -0.4838087 -0.02166545 -0.8749057 -0.8533505 0.0137856 -0.5211554 -0.8967767 -0.01107734 -0.4423447 -0.998732 0.01405292 -0.04834169 -0.9871729 -0.03191423 0.1564331 -0.8156906 0.04387235 0.5768226 -0.6153787 -0.03605103 0.7874067 -0.1711997 0.02123868 0.9850075 -0.07933604 -0.003972947 0.9968401 0.329461 -0.03075248 0.9436683 0.4783397 0.02116191 0.87792 0.8408603 0.005785167 0.5412213 0.8978716 -0.03143739 0.439134 0.9997357 0.02196466 -0.006805121 0.9531065 -0.03191322 -0.3009477 0.8891048 0.01234644 -0.4575372 0.4450856 -0.003959 -0.8954793 0.4391767 -0.006671965 -0.8983759 -0.2633154 0.006625711 -0.9646871 -0.2969013 -0.007888972 -0.9548756 -0.8534128 0.006397426 -0.5211966 -0.8965435 -0.02279615 -0.4423689 -0.9985798 0.02241861 -0.04833239 -0.9709796 -0.02836328 0.2374749 -0.8329162 0.02830344 0.5526752 -0.7014524 -0.01808971 0.7124868 -0.2543132 0.01648205 0.9669815 -0.2516027 0.01545149 0.9677073 0.266914 -0.03590154 0.9630515 0.4783055 0.02434623 0.877856 0.8407473 -0.01734626 0.5411498 0.8064419 0.004960894 0.5912926 0.9997577 -0.01342195 0.01744985 0.9999657 -0.004719972 -0.006809651 0.8888986 0.02479225 -0.4574326 0.7430667 -0.03323549 -0.6683917 0.4449126 0.02830177 -0.8951267 0.2176442 -0.02590972 -0.9756843 -0.2631847 0.03225553 -0.9642062 -0.4330125 -0.02539426 -0.9010302 -0.8533493 0.01378566 -0.5211574 -0.9097003 -0.01946723 -0.4148091 -0.9985797 0.02241879 -0.04833406 -0.9709786 -0.02836388 0.2374787 -0.8329157 0.02830237 0.5526759 -0.7217974 -0.01163256 0.6920067 -0.3592773 -0.003207743 0.9332255 -0.2542267 0.03088045 0.9666516 0.08186775 0.01190298 -0.9965722 0.1244761 -0.02963691 -0.9917799 0.3985036 0.02364885 -0.916862 0.4322243 -0.006174504 -0.9017451 0.6723828 0.03533869 -0.7393595 0.6171214 -0.01284646 -0.7867631 0.8746963 0.03680998 -0.4832717 0.8134443 -0.03548651 -0.5805594 0.9837503 0.03758645 -0.1755639 0.9553046 -0.03832566 -0.2931287 0.987774 0.03886842 0.1509693 0.999029 -0.03660994 0.02451545 0.8862647 0.03973287 0.461472 0.9403823 -0.03834217 0.3379514 0.689948 0.04040408 0.7227305 0.7828371 -0.03940141 0.620978 0.4196274 0.04140627 0.9067516 0.5453113 -0.0369839 0.8374173 0.09642213 0.03069227 0.9948673 0.2739123 -0.02864253 0.961328 0.04232144 -0.01027226 0.9990513 -0.2637452 0.02906405 0.9641544 -0.2255858 0.001091837 0.9742228 -0.4251163 -0.02917182 0.9046686 -0.5624274 0.04087239 0.825836 -0.6748772 -0.03821384 0.7369399 -0.7988593 0.0401445 0.6001769 -0.8737587 -0.03838515 0.4848427 -0.9498014 0.03930181 0.3103749 -0.9811083 -0.03336918 0.1905599 -0.9994612 0.03035712 -0.01248514 -0.9964025 -0.01743286 -0.08293551 -0.9423823 0.01728701 -0.3340913 -0.9489117 2.88345e-4 -0.3155418 -0.7844209 0.01879763 -0.6199442 -0.811154 -0.01891243 -0.5845268 -0.5428054 0.01994651 -0.8396217 -0.5832012 -0.02093529 -0.812058 -0.2434876 0.003818631 -0.9698966 -0.2718672 -0.02615141 -0.9619794 0.2019097 0.6905754 -0.6945056 0.2024634 0.6586761 -0.7246754 -0.303613 0.7086231 -0.6369243 -0.3319186 0.6662473 -0.6677908 -0.6321029 0.710228 -0.3098745 0.6263682 0.6998114 -0.3434051 0.6055403 0.7274957 -0.3226003 0.3021188 0.7202898 0.6244252 0.4815573 0.4334765 0.7617091 0.4210203 0.85941 0.2900976 0.949787 0.3035138 0.07605308 0.7364794 0.6668211 0.1137883 -0.8681558 0.3771443 -0.3225952 -0.5026674 0.863235 0.04637765 -0.7722714 0.1161794 0.6245793 -0.6338053 0.6377661 0.437659 -0.09679853 0.7096901 0.6978324 -0.08864116 0.6577898 0.7479675 -0.9028266 0.4060463 0.1415304 -0.5869968 0.8091636 0.02625221 -0.7142271 0.3587606 0.6009746 -0.3349081 0.8366585 0.4334041 -0.2971177 0.7896538 -0.5368129 -0.7150728 0.3632816 -0.5972415 -0.5007317 0.8302794 -0.2447528 0.3262884 0.8330103 -0.4467994 0.4136629 0.3598101 -0.8363133 -0.02124351 0.8042681 -0.5938868 -0.2202083 0.5150588 -0.8283856 -0.06997644 0.4914109 0.8681122 -0.08087962 0.5660273 0.8204095 0.2634766 0.789653 0.5541013 0.5365901 0.4284719 0.7269684 0.4670103 0.8311187 0.301899 0.8599485 0.4488552 0.2429352 0.5534921 0.8299561 -0.06942188 0.8099257 0.5344924 -0.2415329 0.2252423 0.8517934 -0.472984 -0.2721181 0.3963049 -0.8768662 -0.1963371 0.6385323 -0.7441292 -0.6341456 0.707509 -0.3119142 -0.6794911 0.6598685 -0.3207266 -0.6833403 0.7102838 0.1689466 0.498188 0.8338619 0.2376622 0.1079058 0.9663523 0.2334941 0.9260586 0.3689307 -0.07940763 0.5235539 0.8368714 -0.1598048 0.6331636 0.1192156 -0.764782 0.6190617 0.6093171 0.495475 -0.8247854 0.497544 0.2686622 -0.3854812 0.8365253 0.3893967 -0.4025282 0.3388584 0.85038 -0.1593144 0.7740629 0.6127362 0.2556207 0.6135944 0.7471011 0.17369 0.7654371 0.6196272 -0.4324262 0.8028587 0.4103971 -0.4648477 0.598152 0.652787 -0.2990891 0.72964 -0.6149562 -0.3416735 0.6695697 -0.6594966 -0.6419665 0.7086505 -0.2927346 -0.683576 0.6661807 -0.2982066 -0.6833497 0.7102743 0.1689484 -0.7522044 0.6230139 0.2145745 0.8590326 0.4871011 0.1574659 0.5710596 0.820808 0.01285773 0.7509966 0.406518 -0.5203338 0.4641882 0.7799003 -0.4198629 0.1729046 0.6286384 -0.7582334 0.173908 0.6450357 -0.7441001 -0.2015119 0.8274683 0.5241081 0.07603967 0.3497374 0.9337568 0.155833 0.8121473 0.5622571 0.6039765 0.5124199 0.610441 0.491305 0.7940803 0.357849 -0.1516239 0.7459325 0.648533 -0.2967562 0.6610729 0.6891433 -0.2994514 0.7159686 0.6306487 -0.4971628 0.6832804 0.5347496 -0.5067715 0.6595693 0.5551134 -0.5515921 0.7759253 0.3060819 -0.7985417 0.5204226 0.3024758 -0.6140752 0.7806362 0.1162704 -0.740958 0.669086 -0.05749207 -0.7624593 0.6434826 -0.06772017 -0.6204802 0.7562542 -0.2075668 -0.7059721 0.6240043 -0.3349958 -0.5147303 0.7729826 -0.3708782 -0.5642166 0.6201725 -0.5450192 -0.3645364 0.7793542 -0.5096276 -0.3517558 0.6378316 -0.685156 -0.169588 0.7866512 -0.5936498 -0.1273245 0.6341987 -0.7626143 0.09386068 0.7390752 -0.6670518 0.0874266 0.7079769 -0.7008034 0.3171519 0.6928088 -0.6476348 0.3181669 0.6782628 -0.6623665 0.4126127 0.7429649 -0.5270237 0.556814 0.6115871 -0.5620671 0.5223916 0.7684327 -0.3696193 0.7063087 0.6143087 -0.3517854 0.6020985 0.7758775 -0.1883921 0.8177492 0.5707572 -0.07431328 0.641158 0.7671937 0.01817494 0.7063243 0.660806 0.2538532 0.6859415 0.6875108 0.2383553 0.5433674 0.722028 0.4282845 0.5554562 0.6995592 0.4495392 0.400506 0.6903825 0.6024674 0.3803358 0.713795 0.5880829 0.1925165 0.7158927 0.6711447 0.1841501 0.6724182 0.7168979 0.02918177 0.7503278 0.6604216 -0.05756402 0.6061763 0.7932444 0.9980105 -0.06304734 -2.03154e-4 0.8927367 -0.4505771 0.001192152 0.8909229 -0.4541518 -0.001642584 0.5480757 -0.8364229 0.003120481 0.5678898 -0.8226646 0.02691251 0.111127 -0.993043 -0.03894442 -0.05799776 -0.9965656 0.0591048 -0.2229929 -0.9747534 -0.01140552 -0.5739719 -0.8178616 0.04072833 -0.6217913 -0.7831818 -0.001415252 -0.8940548 -0.4479502 0.002594232 -0.8958313 -0.4443945 -2.04659e-4 -0.9984216 -0.05614995 0.001191616 -0.959676 -0.2457157 0.13655 -0.9551823 0.2898454 -0.06013774 -0.9176099 0.39685 0.02241498 -0.6625875 0.7485131 0.02657181 -0.616303 0.7871235 -0.0246461 -0.2548133 0.9667256 -0.02262371 -0.08626621 0.9933596 0.07612419 0.1522192 0.9865533 -0.05951523 0.5238565 0.8496807 0.06014215 0.6677854 0.7432302 -0.04088634 0.8517404 0.5222557 0.04227995 0.9197586 0.3902112 -0.04218333 0.9992978 -0.02887547 0.02387791 -0.006688535 0.9998474 0.01613831 -0.001810908 0.9996853 0.02502429 -0.005356907 0.9993903 0.03450268 0.006875932 0.9999609 0.005571484 -0.01261693 0.9999094 -0.004706442 -0.008133113 0.9999353 0.007957339 -0.00710386 0.9998558 -0.01542937 0.007699072 0.9999695 -0.001383244 0.008695602 0.9999583 0.002795159 -0.02285754 0.9993938 -0.02625966 -0.005034148 0.9997103 -0.02353805 -0.01476484 0.9994987 -0.02800768 0.006637275 0.9998152 -0.01804548 0.002413332 0.9989643 -0.04543882 0.01310527 0.9997872 -0.01593977 0.01510614 0.9997986 -0.01321429 -9.58995e-4 0.9999995 4.24303e-4 6.8762e-4 0.9999998 2.21554e-4 2.38379e-5 1 -1.43082e-5 -6.1592e-4 0.9999997 5.94639e-4 -5.74565e-4 0.9999998 3.10174e-4 0.0170778 0.9997111 -0.01691418 -0.001662015 0.9999986 -2.52565e-4 2.71324e-4 1 3.82182e-4 0.001303791 0.9999986 -0.001063466 0.001319468 0.9999991 -4.3132e-4 -0.01151239 0.9999234 -0.004568099 0.007439672 0.999965 -0.003833472 -1.99261e-4 1 -5.13867e-4 3.63747e-4 0.9999999 4.58264e-4 4.80058e-4 1 -2.51386e-4 3.00554e-4 1 2.66952e-4 -9.46765e-5 1 -1.01228e-5 1.73917e-5 1 2.259e-4 2.19705e-4 1 7.23626e-5 0.00189042 0.9999982 6.81432e-5 -5.79328e-4 0.9999996 -7.95187e-4 -4.68996e-4 0.9999995 -8.61621e-4 1.07178e-5 1 -3.0064e-4 -0.005179464 0.9999721 -0.005398213 -0.003080844 0.9999905 -0.003120541 -5.75218e-4 0.9999998 -2.11193e-4 -6.05802e-4 0.9999999 -2.85885e-4 -3.81357e-4 1 -5.48858e-5 -0.002630233 0.9999963 8.89953e-4 0.01432633 0.9998309 0.01153588 1.10428e-4 0.9999999 5.14374e-4 1.82558e-4 1 5.04084e-4 0.05492383 0.9964435 0.06390506 -9.57066e-5 1 -4.20309e-4 5.24376e-4 1 1.03504e-5 7.36205e-4 0.9999997 3.98682e-4 3.75453e-4 1 9.83835e-5 0.001158714 0.9999902 0.004278123 -5.65515e-4 0.9999999 -1.51826e-4 -1.37176e-4 1 -2.2825e-4 -9.79196e-4 0.9999996 -5.60612e-5 -7.48568e-4 0.9999996 -5.65729e-4 -0.002061188 0.9999977 -6.84837e-4 -5.27173e-4 0.9999999 -3.26527e-4 2.40438e-4 1 -9.80439e-5 -1.7033e-4 0.9999999 4.6389e-4 5.41043e-4 0.9999997 5.85485e-4 -9.37752e-5 1 -2.71646e-5 -4.46908e-5 1 -1.81882e-5 -2.23116e-5 1 1.65516e-5 -3.63762e-4 0.9999997 7.69795e-4 1.78523e-4 1 5.90942e-5 3.35347e-4 0.9999996 -8.77648e-4 -0.01370418 0.9998199 0.01312988 -3.61647e-4 1 -1.90646e-4 -4.84066e-4 0.9999999 2.3194e-4 -5.18408e-5 1 -7.36668e-5 -0.04570496 0.9978772 0.04639172 -2.94537e-5 1 1.32006e-4 5.89997e-4 0.9999997 -5.18298e-4 -1.42962e-4 1 1.70365e-4 -2.2558e-4 1 1.99536e-5 1.52419e-5 1 3.71213e-5 5.12147e-5 1 2.54618e-5 2.98771e-5 1 2.33473e-4 -0.001538991 0.9999985 9.54437e-4 -2.10507e-4 0.9999998 5.84838e-4 7.64446e-5 1 1.49678e-4 -1.60587e-4 0.9999997 8.76794e-4 -1.59214e-4 0.9999996 9.4552e-4 0.2389619 0.6429337 0.7276905 0.3765043 0.68353 0.625325 0.3091069 0.7684493 0.5603023 0.4777617 0.7131894 0.5129373 0.4549475 0.7607082 0.462975 0.6123399 0.7879031 0.06518131 0.8374741 0.4587602 0.2969452 0.494409 0.8239963 0.2767489 0.6267943 0.6297102 0.4589053 0.6260465 0.7766308 0.07007342 0.7743716 0.6297296 -0.06155753 0.5551757 0.8240053 -0.1131163 0.8282553 0.4587439 -0.3217878 0.4585592 0.817382 -0.3487265 0.58929 0.6936116 -0.414295 0.2015582 0.7825258 -0.5890906 0.4899609 0.5189403 -0.7004566 0.3995762 0.7918756 -0.4618138 0.2306072 0.7322689 -0.6407828 0.01213669 0.6879533 -0.7256535 -0.01014196 0.7790722 -0.6268523 -0.2095833 0.5937881 -0.7768466 -0.2038783 0.7963492 -0.5694398 -0.4419275 0.6216508 -0.6467229 -0.3962466 0.7449952 -0.5366292 -0.7778772 0.6183282 -0.1121494 -0.6132724 0.7560377 -0.2287008 -0.6636206 0.6990175 -0.2664249 -0.5668891 0.7169638 -0.405709 -0.596785 0.6676554 -0.4450663 -0.455758 0.7702742 -0.4460518 -0.6585631 0.6375552 0.3997723 -0.6069921 0.7673259 0.2068137 -0.6034591 0.7702231 0.2063821 -0.8333428 0.5475305 0.07583039 -0.6010814 0.7987245 -0.02720952 -0.5230263 0.7286515 0.4421657 -0.4889513 0.7835766 0.3833202 -0.4340757 0.7109926 0.5532341 -0.4216002 0.7400528 0.5239993 -0.3956655 0.5900876 0.7037368 0.1309869 0.7787081 0.6135604 0.1138498 0.7014526 0.7035641 -0.03695517 0.7168138 0.6962848 -0.03926074 0.7095834 0.7035269 -0.2091313 0.6813759 0.7014208 -0.2034325 0.805831 0.556104 -0.1870658 -0.04010182 0.9815286 -0.2872877 0.03823202 0.957081 -0.4123926 -0.0395326 0.9101481 -0.4877716 0.02549356 0.872599 -0.6202051 -0.0190376 0.7842088 -0.632111 -0.03879529 0.7739061 -0.7606334 0.04406154 0.6476847 -0.8541119 -0.051324 0.5175507 -0.8416935 -0.01082712 0.5398472 -0.9461614 0.008478581 0.3235844 -0.9566507 -0.03790462 0.2887607 -0.9944401 0.05152183 0.09183949 -0.998308 -0.0536493 -0.02242904 -0.9887701 0.03904831 -0.144253 -0.9610402 -0.04010432 -0.2734837 -0.9272927 0.03916352 -0.3722829 -0.8581693 -0.0534026 -0.5105818 -0.8014619 0.06091827 -0.5949352 -0.6570084 -0.06100696 -0.7514109 -0.5612028 0.07271516 -0.8244779 -0.4466614 -0.05152416 -0.8932182 -0.2594386 0.03453451 -0.965142 -0.2246364 -0.01072347 -0.9743837 0.01417779 0.01217007 -0.9998254 0.01050525 0.01806932 -0.9997816 0.2448705 -0.04085624 -0.9686947 0.3245126 0.0517717 -0.9444636 0.4655753 -0.0401023 -0.8840993 0.5711382 0.05402851 -0.819074 0.6755731 -0.07248681 -0.7337211 0.7961598 0.07015752 -0.6010055 0.8709972 -0.05346035 -0.4883706 0.930262 0.05166572 -0.3632404 0.9659988 -0.05288565 -0.25308 0.996609 0.03060835 -0.07637977 0.9989514 -0.04567098 0.003220379 0.993694 0.03382825 0.1069026 0.9429666 -0.02044874 0.3322587 0.9494573 0.01740825 0.3134133 0.8268265 -0.04311811 0.5608019 0.8050476 0.01577609 0.5930004 0.6827676 0.03156912 0.7299534 0.5932734 -0.07377064 0.8016139 0.5121 0.03745037 0.858109 0.3147994 -0.01008921 0.9491046 0.2987532 -0.03135889 0.9538151 0.1588284 0.02616006 0.9869596 0.04870247 -0.04010128 0.998008 -0.05567723 0.03916186 0.9976806 -0.8401659 -0.2036734 0.5026316 -0.00875163 -0.004342973 0.9999524 -0.02089089 -0.05425852 0.9983084 -0.05910646 -0.1579174 0.9856818 9.50382e-4 -0.008496105 0.9999635 0.009213209 -0.02496361 0.999646 0.003041982 -0.004415154 0.9999856 0.02036619 -0.01719218 0.9996448 0.007568717 -0.0038625 0.999964 0.0387541 -0.002449929 0.9992458 0.0168274 -0.001794636 0.9998568 0.006171762 0.002623915 0.9999775 0.02381503 0.01564073 0.999594 0.00433135 0.004817783 0.9999791 0.04342752 0.1018584 0.9938507 0.001131355 0.007328391 0.9999726 -0.0072245 0.02735519 0.9995998 -0.008594214 0.031771 0.9994583 -0.00498116 0.006368517 0.9999673 -0.10192 0.07632994 0.9918599 0.01461333 -0.01397103 0.9997956 -1.50447e-4 1 4.01732e-5 -1.60049e-4 1 4.89577e-5 -1.10811e-4 1 5.88854e-5 -9.37192e-5 1 2.77768e-5 -2.69261e-5 1 2.95241e-5 -7.98861e-5 1 2.64664e-4 -1.53334e-4 1 2.86737e-4 -1.04076e-4 1 4.11159e-4 -1.06139e-4 1 1.73908e-4 2.22109e-4 1 -2.72875e-4 2.2568e-4 1 -1.71378e-4 1.67897e-5 1 -3.62002e-5 -1.74987e-5 1 -8.13552e-5 2.52369e-5 1 -1.35234e-4 -6.96655e-6 1 -1.45084e-4 -1.01692e-5 1 -1.50168e-4 -3.89033e-5 1 -1.24016e-4 8.03291e-6 1 -7.66697e-5 -1.63934e-6 1 1.52728e-4 8.15953e-5 1 3.19451e-4 7.55075e-5 1 3.27088e-4 1.72259e-4 1 3.42931e-4 -5.54237e-5 1 1.17617e-4 2.75151e-5 1 3.19721e-5 2.91015e-4 1 1.67036e-4 2.89965e-4 1 1.73612e-4 -9.46543e-5 1 3.94753e-5 -2.22433e-4 1 -3.01454e-4 -2.95469e-4 1 -2.01484e-4 -1.59197e-4 1 -1.68403e-4 -1.2179e-4 1 -4.12843e-5 -6.48869e-5 1 -5.17761e-5 -4.0834e-5 1 0 -1.45441e-4 1 4.65698e-5 4.33485e-4 0.9999999 1.83926e-4 3.54747e-4 1 1.00101e-4 4.10619e-4 1 9.23393e-6 1.94782e-4 1 6.99378e-5 1.28889e-4 1 -3.70334e-5 1.42235e-4 1 -5.18212e-5 1.0926e-4 1 -7.01943e-5 2.26381e-4 1 -2.73389e-4 0.01439148 0.6852838 0.7281339 -0.001472949 0.7086073 0.7056017 -3.97962e-4 0.7080644 0.7061479 -2.96369e-4 0.7071214 0.7070922 6.24069e-4 0.7034023 0.7107918 -6.4256e-4 0.7069733 0.70724 4.41925e-4 -0.7064296 0.7077832 4.98798e-4 -0.7070901 0.7071233 8.91209e-4 -0.7091576 0.7050495 -4.56555e-4 -0.7051061 0.7091017 -0.001392304 -0.7032627 0.7109287 -0.01214933 -0.6875429 0.7260421 -0.1132932 0.6782999 0.7259986 -0.1584884 0.7473386 0.6452646 -0.253601 0.6836349 0.6843463 -0.333005 0.7325749 0.5936681 -0.3237195 0.7413855 0.5878377 -0.5112465 0.6297165 0.5848796 -0.4882586 0.7771251 0.3970897 -0.6356372 0.6592364 0.4017121 -0.6395817 0.7349857 0.2252361 -0.6545197 0.7224485 0.2228725 -0.7343952 0.6737191 0.08225822 -0.6410709 0.7674781 -0.002385079 -0.7392016 0.6689535 -0.07798886 -0.6922089 0.6838101 -0.2307608 -0.5703921 0.7813372 -0.2533085 -0.638132 0.6689533 -0.3811682 -0.5223532 0.684217 -0.5089149 -0.4552742 0.7464559 -0.4853132 -0.3310892 0.672419 -0.6619914 -0.3242365 0.7273333 -0.6048613 -0.1380597 0.6583688 -0.7399258 -0.05571681 0.7670968 -0.6391074 0.0379303 0.6672649 -0.7438541 0.1826021 0.739214 -0.6482431 0.1753216 0.7485703 -0.6394566 0.3735538 0.6296542 -0.6811705 0.3908615 0.7668778 -0.5090441 0.5527206 0.6444749 -0.5283485 0.5285124 0.7507321 -0.3963284 0.6796026 0.6537872 -0.3327201 0.6173313 0.7560675 -0.2174031 0.7269015 0.6672508 -0.1624518 0.6823185 0.7307684 -0.02047252 0.7299977 0.6833724 0.01027446 0.6500322 0.745446 0.1475412 0.7176607 0.6592527 0.224386 0.5757495 0.7392364 0.3493452 0.5692557 0.7485568 0.3400158 0.5587478 0.6412944 0.5258731 0.3987226 0.748547 0.5298092 0.4003399 0.7203375 0.5664292 0.3207801 0.6840267 0.6551394 0.2439292 0.7423314 0.6240534 0.1854569 0.664126 0.724253 0.04540753 0.7416991 0.669194 0.03134167 0.716044 0.6973513 0 -1 0 0 -1 1.92684e-6 0 -1 -2.26897e-6 0 -1 -1.96542e-6 0 -1 -1.94932e-6 0 -1 1.93249e-6 1.63525e-4 -1 5.15034e-4 3.12829e-4 -0.9999998 7.0865e-4 2.35299e-4 -0.9999997 7.54843e-4 2.39973e-4 -0.9999997 8.00445e-4 1.05047e-4 -0.9999999 5.37957e-4 5.05128e-5 -0.9999998 5.98795e-4 4.09414e-5 -0.9999998 6.98675e-4 -1.12534e-5 -1 4.13368e-4 -5.31318e-5 -1 3.96014e-4 -1.58939e-4 -0.9999998 6.26678e-4 -1.74037e-4 -0.9999998 6.65355e-4 -1.83844e-4 -0.9999999 4.92321e-4 -3.03846e-4 -0.9999998 6.02693e-4 2.82431e-4 -1 -2.67493e-4 3.12438e-4 -0.9999998 -4.80248e-4 4.56922e-4 -0.9999998 -5.52999e-4 2.69527e-4 -1 -3.81111e-4 0 -1 -3.83127e-6 0 -1 -3.43812e-6 4.09317e-6 -1 0 -1.09608e-6 -1 0 0 -1 -2.79091e-6 0 -1 -5.64365e-7 0 -1 2.05827e-6 0 -1 -7.11278e-6 0 -1 8.40905e-6 0 -1 1.78e-6 0 -1 2.69428e-5 0 -1 -1.48647e-5 8.22642e-7 -1 0 4.94942e-7 -1 9.02801e-6 0 -1 2.17893e-5 0 -1 1.70048e-5 0 -1 -8.65828e-7 0 -1 1.07508e-6 0 -1 3.78497e-6 -5.60913e-6 -1 0 0 -1 0 0 -1 -9.51337e-7 0 -1 -9.57077e-7 0 -1 8.31758e-7 -4.28175e-4 -4.16128e-4 0.9999998 -4.54359e-4 -2.59935e-4 0.9999999 2.01452e-6 -0.009098291 0.9999586 5.88144e-4 -2.64751e-5 0.9999999 -4.45393e-4 -2.79166e-4 1 -3.07152e-6 0.009595274 0.9999541 0.01048862 -0.01377975 0.9998501 -0.001702487 0.008933842 0.9999587 3.42436e-4 -0.001620233 0.9999986 -4.89572e-4 -4.44193e-4 0.9999999 -0.001474082 0.0410968 0.9991541 0.004766047 -0.01582843 0.9998634 5.57148e-4 1.12112e-5 0.9999998 -0.00380367 0.004191696 0.999984 -4.28919e-4 -4.40908e-6 1 0.4509482 -0.01854372 0.8923575 0.4382837 0.007822692 0.8988026 0.3889793 -0.002001941 0.9212444 0.2469223 0.01260668 0.9689533 0.2939442 -0.001203417 0.9558219 0.1807523 -0.005491673 0.9835133 0.04382008 0.001205384 0.9990388 0.02725803 0.01087081 0.9995694 -0.141999 0.007011473 0.989842 -0.1537175 2.47172e-4 0.9881148 -0.3904573 -9.93799e-4 0.9206206 -0.3439627 0.00873661 0.9389427 -0.2884142 -0.005224108 0.9574915 -0.4484492 -0.01745486 0.893638 -0.4718751 4.73223e-4 0.8816654 -0.3798751 0.007611751 0.9250066 -0.2347454 -0.04285442 0.9711118 -0.2567093 -0.01576989 0.96636 -0.1374394 0.02304202 0.9902421 -0.01802176 0.01535397 0.9997197 0.03769606 -0.05196946 0.997937 0.1327604 0.02574074 0.9908139 0.2595004 -0.02736949 0.9653551 0.3886419 0.004659473 0.9213772 0.2864602 -5.90634e-4 0.958092 -0.4831941 -6.85267e-4 0.8755129 -0.4766725 0.001977622 0.8790788 -0.6582997 -1.46509e-4 0.7527559 -0.6650985 -0.002725243 0.7467507 -0.8451918 0.002451539 0.5344574 -0.8534692 -0.001612186 0.5211408 -0.9466238 0.001259922 0.3223379 -0.9506735 -0.00140208 0.3101904 -0.9937851 0.001260101 0.1113095 -0.9969177 -0.005643069 0.07825243 -0.994451 0.007659614 -0.1049224 -0.9779746 -0.007968485 -0.2085719 -0.9486578 0.005834281 -0.3162509 -0.8945489 -0.007961392 -0.4468994 -0.8584911 0.005796194 -0.5127958 -0.7160544 -0.003146469 -0.6980374 -0.7165882 -0.002907514 -0.6974905 -0.4724502 0.002776801 -0.881353 -0.4741853 0.003393709 -0.8804186 -0.2582454 -0.00611931 -0.96606 -0.1836727 0.007682025 -0.9829575 -0.0445531 -0.005975961 -0.9989892 0.05092984 0.005834221 -0.9986852 0.1913082 -0.007959604 -0.9814978 0.264408 0.005794584 -0.9643936 0.4810542 -0.003142595 -0.8766853 0.480395 -0.002907395 -0.8770475 0.7228621 0.002777695 -0.6909868 0.7214936 0.003396391 -0.6924128 0.8617455 -0.006121158 -0.5073039 0.8980002 0.007684051 -0.439928 0.9506565 -0.00597614 -0.3101877 0.9759083 0.005834043 -0.2181029 0.9951118 -0.0059762 -0.09857404 0.999865 0.008003771 0.01435697 0.9903905 -0.01077741 0.1378792 0.9544613 0.0104838 0.2981507 0.9102696 -0.007968783 0.4139394 0.8584987 0.005833804 0.5127828 0.7902303 -0.005975723 0.6127809 0.7281929 0.005834162 0.6853475 0.6393228 -0.006065785 0.7689145 0.5778286 0.003822863 0.8161492 0.4720794 -0.001360893 0.8815551 0.4745237 -6.02634e-4 0.8802426</float_array>
          <technique_common>
            <accessor source="#eSeries_UR5e_058-mesh-normals-array" count="872" stride="3">
              <param name="X" type="float"/>
              <param name="Y" type="float"/>
              <param name="Z" type="float"/>
            </accessor>
          </technique_common>
        </source>
        <vertices id="eSeries_UR5e_058-mesh-vertices">
          <input semantic="POSITION" source="#eSeries_UR5e_058-mesh-positions"/>
        </vertices>
        <triangles material="LinkGrey_005-material" count="911">
          <input semantic="VERTEX" source="#eSeries_UR5e_058-mesh-vertices" offset="0"/>
          <input semantic="NORMAL" source="#eSeries_UR5e_058-mesh-normals" offset="1"/>
          <p>0 0 3 0 1 0 1 1 2 1 0 1 0 2 2 2 36 2 19 3 4 3 20 3 21 4 36 4 2 4 18 5 22 5 23 5 17 6 18 6 23 6 17 7 23 7 24 7 16 8 17 8 24 8 15 9 16 9 25 9 25 10 24 10 26 10 26 11 24 11 1 11 27 12 25 12 26 12 29 13 12 13 27 13 29 14 27 14 28 14 11 15 29 15 30 15 30 16 29 16 28 16 30 17 28 17 3 17 10 18 11 18 30 18 9 19 10 19 31 19 8 20 9 20 31 20 8 21 31 21 32 21 31 22 0 22 35 22 7 23 8 23 33 23 33 24 8 24 32 24 6 25 7 25 33 25 6 26 33 26 34 26 5 27 6 27 34 27 34 28 35 28 36 28 4 29 5 29 20 29 20 30 5 30 34 30 20 31 34 31 21 31 21 32 34 32 36 32 21 33 22 33 20 33 20 34 22 34 19 34 2 35 23 35 21 35 21 36 23 36 22 36 22 37 18 37 19 37 2 38 1 38 24 38 2 39 24 39 23 39 24 40 25 40 16 40 1 41 28 41 26 41 25 42 27 42 14 42 25 43 14 43 15 43 26 44 28 44 27 44 27 45 13 45 14 45 28 46 1 46 3 46 27 47 12 47 13 47 29 48 11 48 12 48 0 49 31 49 3 49 3 50 31 50 30 50 30 51 31 51 10 51 31 52 35 52 32 52 32 53 35 53 34 53 32 54 34 54 33 54 0 55 36 55 35 55 38 56 18 56 37 56 37 57 18 57 17 57 38 58 19 58 18 58 39 59 19 59 38 59 39 60 4 60 19 60 40 61 4 61 39 61 40 62 5 62 4 62 41 63 6 63 40 63 40 64 6 64 5 64 41 65 7 65 6 65 42 66 7 66 41 66 42 67 8 67 7 67 42 68 9 68 8 68 43 69 9 69 42 69 44 70 10 70 43 70 43 71 10 71 9 71 44 72 11 72 10 72 45 73 11 73 44 73 45 74 12 74 11 74 46 75 13 75 45 75 45 76 13 76 12 76 46 77 14 77 13 77 47 78 15 78 46 78 46 79 15 79 14 79 37 80 16 80 47 80 47 81 16 81 15 81 37 82 17 82 16 82 48 83 49 83 50 83 50 84 51 84 48 84 51 85 52 85 48 85 52 86 53 86 48 86 48 87 53 87 54 87 54 88 55 88 48 88 48 89 55 89 56 89 56 90 57 90 48 90 57 91 49 91 48 91 59 92 58 92 60 92 59 93 61 93 58 93 59 94 62 94 61 94 59 95 63 95 62 95 65 96 64 96 59 96 59 97 66 97 65 97 59 92 67 92 66 92 59 92 60 92 67 92 69 98 68 98 70 98 69 99 71 99 68 99 69 100 72 100 71 100 69 101 73 101 72 101 69 102 75 102 74 102 69 103 76 103 75 103 69 104 77 104 76 104 69 92 70 92 77 92 80 105 78 105 79 105 79 106 81 106 80 106 79 107 82 107 81 107 79 108 83 108 82 108 79 109 85 109 84 109 79 110 86 110 85 110 79 111 87 111 86 111 79 112 78 112 87 112 90 113 88 113 89 113 89 92 91 92 90 92 89 114 92 114 91 114 89 115 93 115 92 115 89 116 95 116 94 116 89 117 96 117 95 117 89 118 97 118 96 118 89 119 88 119 97 119 98 120 99 120 100 120 99 121 101 121 100 121 102 122 103 122 99 122 99 123 103 123 101 123 99 124 104 124 102 124 105 125 106 125 99 125 99 126 106 126 104 126 99 127 107 127 105 127 108 128 109 128 99 128 99 129 109 129 107 129 99 130 110 130 108 130 111 131 112 131 99 131 99 132 112 132 110 132 99 133 113 133 111 133 99 134 114 134 113 134 98 135 116 135 99 135 99 136 116 136 115 136 128 137 37 137 117 137 117 138 37 138 47 138 117 139 47 139 118 139 118 140 47 140 46 140 118 141 46 141 119 141 119 142 46 142 45 142 119 143 45 143 120 143 120 144 45 144 44 144 120 145 44 145 121 145 121 146 44 146 43 146 121 147 43 147 122 147 122 148 43 148 42 148 122 149 42 149 123 149 123 150 42 150 124 150 124 151 42 151 41 151 124 152 41 152 125 152 125 153 41 153 40 153 125 154 40 154 126 154 126 155 40 155 39 155 126 156 39 156 38 156 126 157 38 157 127 157 127 158 38 158 128 158 128 159 38 159 37 159 51 160 129 160 52 160 52 161 129 161 130 161 52 162 130 162 53 162 53 163 130 163 131 163 53 164 131 164 54 164 54 165 131 165 132 165 54 166 132 166 55 166 55 167 132 167 133 167 55 168 133 168 134 168 55 169 134 169 56 169 56 170 134 170 135 170 56 171 135 171 57 171 57 172 135 172 136 172 57 173 136 173 49 173 49 174 136 174 137 174 49 175 137 175 50 175 50 176 137 176 138 176 50 177 138 177 51 177 51 178 138 178 129 178 60 179 139 179 67 179 67 180 139 180 140 180 67 181 140 181 66 181 66 182 140 182 141 182 66 183 141 183 65 183 65 184 141 184 142 184 65 185 142 185 143 185 65 186 143 186 64 186 64 187 143 187 59 187 59 188 143 188 144 188 59 189 144 189 63 189 63 190 144 190 145 190 63 191 145 191 62 191 62 192 145 192 146 192 62 193 146 193 61 193 61 194 146 194 147 194 61 195 147 195 58 195 58 196 147 196 148 196 58 197 148 197 60 197 60 198 148 198 139 198 70 199 149 199 77 199 77 200 149 200 150 200 77 201 150 201 76 201 76 202 150 202 151 202 76 203 151 203 75 203 75 204 151 204 152 204 75 205 152 205 74 205 74 206 152 206 153 206 74 207 153 207 69 207 69 208 153 208 154 208 69 209 154 209 73 209 73 210 154 210 155 210 73 211 155 211 72 211 72 212 155 212 156 212 72 213 156 213 71 213 71 214 156 214 157 214 71 215 157 215 68 215 68 216 157 216 158 216 68 217 158 217 70 217 70 218 158 218 149 218 78 219 159 219 160 219 78 220 160 220 87 220 87 221 160 221 86 221 86 222 160 222 161 222 86 223 161 223 85 223 85 224 161 224 162 224 85 225 162 225 84 225 84 226 162 226 79 226 79 227 162 227 163 227 79 228 163 228 83 228 83 229 163 229 164 229 83 230 164 230 82 230 82 231 164 231 165 231 82 232 165 232 81 232 81 233 165 233 166 233 81 234 166 234 80 234 80 235 166 235 167 235 80 236 167 236 78 236 78 237 167 237 159 237 88 238 168 238 169 238 88 239 169 239 97 239 97 240 169 240 96 240 96 241 169 241 170 241 96 242 170 242 171 242 96 243 171 243 95 243 95 244 171 244 94 244 94 245 171 245 172 245 94 246 172 246 89 246 89 247 172 247 173 247 89 248 173 248 93 248 93 249 173 249 174 249 93 250 174 250 92 250 92 251 174 251 175 251 92 252 175 252 91 252 91 253 175 253 176 253 91 254 176 254 90 254 90 255 176 255 177 255 90 256 177 256 168 256 90 257 168 257 88 257 178 258 98 258 100 258 100 259 179 259 178 259 101 260 179 260 100 260 101 261 180 261 179 261 103 262 181 262 101 262 101 263 181 263 180 263 102 264 182 264 103 264 103 265 182 265 181 265 104 266 183 266 102 266 102 267 183 267 182 267 106 268 184 268 104 268 104 269 184 269 183 269 105 270 185 270 106 270 106 271 185 271 184 271 107 272 186 272 105 272 105 273 186 273 185 273 109 274 187 274 107 274 107 275 187 275 186 275 108 276 188 276 109 276 109 277 188 277 187 277 108 278 189 278 188 278 110 279 190 279 108 279 108 280 190 280 189 280 110 281 191 281 190 281 112 282 191 282 110 282 112 283 192 283 191 283 111 284 192 284 112 284 111 285 193 285 192 285 113 286 193 286 111 286 113 287 194 287 193 287 114 288 194 288 113 288 114 289 195 289 194 289 99 290 196 290 114 290 114 291 196 291 195 291 115 292 197 292 99 292 99 293 197 293 196 293 116 294 198 294 115 294 115 295 198 295 197 295 98 296 178 296 116 296 116 297 178 297 198 297 143 298 201 298 144 298 144 299 201 299 199 299 144 300 199 300 145 300 145 301 199 301 200 301 145 302 200 302 146 302 142 303 203 303 143 303 143 304 203 304 201 304 139 305 206 305 140 305 140 306 206 306 202 306 140 307 202 307 141 307 141 308 202 308 142 308 142 309 202 309 203 309 200 310 204 310 146 310 146 311 204 311 147 311 147 312 204 312 148 312 148 313 204 313 205 313 148 314 205 314 139 314 139 315 205 315 206 315 156 316 210 316 157 316 157 317 210 317 207 317 157 318 207 318 208 318 157 319 208 319 158 319 154 320 209 320 155 320 155 321 209 321 210 321 155 322 210 322 156 322 152 323 211 323 153 323 153 324 211 324 212 324 153 325 212 325 154 325 154 326 212 326 209 326 158 327 208 327 149 327 149 328 208 328 213 328 149 329 213 329 150 329 150 330 213 330 214 330 150 331 214 331 151 331 151 332 214 332 215 332 151 333 215 333 152 333 152 334 215 334 211 334 162 335 216 335 163 335 163 336 216 336 164 336 164 337 216 337 217 337 164 338 217 338 165 338 165 339 217 339 218 339 165 340 218 340 166 340 160 341 219 341 161 341 161 342 219 342 220 342 161 343 220 343 221 343 161 344 221 344 162 344 162 345 221 345 216 345 160 346 222 346 219 346 218 347 223 347 166 347 166 348 223 348 167 348 167 349 223 349 224 349 167 350 224 350 159 350 159 351 224 351 160 351 160 352 224 352 222 352 176 353 225 353 177 353 177 354 225 354 226 354 173 355 232 355 174 355 174 356 232 356 227 356 174 357 227 357 175 357 175 358 227 358 228 358 175 359 228 359 176 359 176 360 228 360 225 360 170 361 229 361 230 361 170 362 230 362 171 362 171 363 230 363 231 363 171 364 231 364 172 364 172 365 231 365 173 365 173 366 231 366 232 366 177 367 226 367 168 367 168 368 226 368 233 368 168 369 233 369 169 369 169 370 233 370 229 370 169 371 229 371 170 371 189 372 190 372 234 372 234 373 190 373 235 373 235 374 190 374 191 374 235 375 191 375 236 375 191 376 192 376 236 376 192 377 193 377 236 377 236 378 193 378 237 378 193 379 194 379 237 379 237 380 194 380 195 380 237 381 195 381 238 381 195 382 196 382 238 382 238 383 196 383 239 383 196 384 197 384 239 384 239 385 197 385 240 385 240 386 197 386 198 386 240 387 198 387 241 387 198 388 178 388 241 388 241 389 178 389 242 389 242 390 178 390 243 390 178 391 179 391 243 391 243 392 179 392 244 392 244 393 179 393 180 393 180 394 181 394 244 394 244 395 181 395 245 395 181 396 182 396 245 396 245 397 182 397 246 397 246 398 182 398 183 398 246 399 183 399 247 399 247 400 183 400 184 400 247 401 184 401 185 401 247 402 185 402 248 402 248 403 185 403 186 403 248 404 186 404 249 404 249 405 186 405 250 405 250 406 186 406 187 406 250 407 187 407 188 407 250 408 188 408 251 408 251 409 188 409 189 409 251 410 189 410 234 410 252 411 117 411 253 411 253 412 117 412 118 412 253 413 118 413 254 413 254 414 118 414 119 414 254 415 119 415 255 415 255 416 119 416 256 416 256 417 119 417 120 417 256 418 120 418 257 418 257 419 120 419 121 419 257 420 121 420 258 420 258 421 121 421 122 421 258 422 122 422 259 422 259 423 122 423 123 423 259 424 123 424 260 424 260 425 123 425 261 425 261 426 123 426 124 426 261 427 124 427 125 427 261 428 125 428 262 428 262 429 125 429 263 429 263 430 125 430 126 430 263 431 126 431 264 431 264 432 126 432 127 432 264 433 127 433 265 433 265 434 127 434 128 434 265 435 128 435 252 435 252 436 128 436 117 436 211 437 129 437 138 437 204 438 130 438 129 438 204 439 129 439 211 439 204 440 131 440 130 440 137 441 266 441 211 441 137 442 211 442 138 442 266 443 137 443 136 443 268 444 132 444 131 444 268 445 131 445 204 445 135 446 269 446 136 446 136 447 269 447 266 447 134 448 269 448 135 448 270 449 132 449 268 449 134 450 270 450 269 450 134 451 133 451 270 451 270 452 133 452 132 452 205 453 245 453 246 453 205 454 246 454 206 454 206 455 246 455 247 455 245 456 205 456 244 456 244 457 205 457 204 457 203 458 271 458 201 458 206 459 247 459 202 459 202 460 247 460 272 460 203 461 202 461 271 461 271 462 202 462 272 462 200 463 268 463 204 463 268 464 199 464 201 464 200 465 199 465 268 465 213 466 208 466 273 466 215 467 214 467 240 467 240 468 214 468 239 468 273 469 237 469 213 469 239 470 214 470 213 470 239 471 213 471 238 471 238 472 213 472 237 472 209 473 212 473 267 473 267 474 212 474 266 474 266 475 212 475 211 475 274 476 210 476 209 476 274 477 209 477 267 477 273 478 208 478 275 478 275 479 208 479 207 479 275 480 207 480 274 480 274 481 207 481 210 481 222 482 224 482 276 482 276 483 224 483 223 483 276 484 223 484 277 484 220 485 219 485 222 485 247 486 216 486 272 486 272 487 216 487 278 487 278 488 216 488 221 488 278 489 221 489 279 489 279 490 221 490 220 490 277 491 223 491 218 491 250 492 218 492 249 492 249 493 218 493 217 493 249 494 217 494 248 494 248 495 217 495 247 495 247 496 217 496 216 496 281 497 229 497 233 497 281 498 233 498 280 498 280 499 233 499 226 499 273 500 232 500 237 500 237 501 232 501 236 501 236 502 232 502 231 502 277 503 230 503 229 503 236 504 231 504 235 504 235 505 231 505 230 505 225 506 228 506 282 506 282 507 228 507 227 507 282 508 227 508 273 508 273 509 227 509 232 509 280 510 226 510 225 510 281 511 277 511 229 511 235 512 230 512 277 512 235 513 277 513 234 513 218 514 250 514 277 514 250 515 251 515 277 515 277 516 251 516 234 516 241 517 211 517 240 517 240 518 211 518 215 518 244 519 204 519 243 519 211 520 241 520 242 520 211 521 242 521 204 521 204 522 242 522 243 522 283 523 266 523 284 523 285 524 267 524 283 524 283 525 267 525 266 525 286 526 267 526 285 526 286 527 274 527 267 527 287 528 275 528 288 528 288 529 275 529 289 529 289 530 275 530 274 530 289 531 274 531 286 531 287 532 273 532 275 532 287 533 290 533 273 533 273 534 290 534 282 534 282 535 290 535 291 535 282 536 291 536 292 536 282 537 292 537 225 537 293 538 280 538 294 538 294 539 280 539 292 539 292 540 280 540 225 540 293 541 281 541 280 541 281 542 293 542 295 542 281 543 295 543 277 543 277 544 295 544 296 544 277 545 296 545 276 545 276 546 296 546 297 546 276 547 297 547 222 547 298 548 278 548 299 548 299 549 278 549 279 549 299 550 279 550 300 550 300 551 279 551 220 551 300 552 220 552 297 552 297 553 220 553 222 553 301 554 271 554 302 554 302 555 271 555 272 555 302 556 272 556 303 556 303 557 272 557 298 557 298 558 272 558 278 558 304 559 201 559 301 559 301 560 201 560 271 560 305 561 268 561 304 561 304 562 268 562 201 562 306 563 268 563 305 563 284 564 266 564 269 564 284 565 269 565 307 565 307 566 269 566 270 566 307 567 270 567 308 567 308 568 270 568 306 568 306 569 270 569 268 569 309 570 308 570 310 570 310 571 308 571 306 571 310 572 306 572 311 572 311 573 306 573 305 573 311 574 305 574 304 574 311 575 304 575 312 575 312 576 304 576 301 576 312 577 301 577 302 577 312 578 302 578 313 578 313 579 302 579 303 579 313 580 303 580 314 580 314 581 303 581 298 581 314 582 298 582 315 582 315 583 298 583 299 583 315 584 299 584 316 584 316 585 299 585 300 585 316 586 300 586 317 586 317 587 300 587 297 587 317 588 297 588 318 588 318 589 297 589 296 589 318 590 296 590 319 590 319 591 296 591 295 591 319 592 295 592 320 592 320 593 295 593 293 593 320 594 293 594 321 594 321 595 293 595 322 595 322 596 293 596 294 596 322 597 294 597 323 597 323 598 294 598 292 598 323 599 292 599 324 599 324 600 292 600 291 600 324 601 291 601 325 601 325 602 291 602 290 602 325 603 290 603 326 603 326 604 290 604 287 604 326 605 287 605 327 605 327 606 287 606 288 606 327 607 288 607 289 607 327 608 289 608 328 608 328 609 289 609 329 609 329 610 289 610 286 610 329 611 286 611 285 611 329 612 285 612 330 612 330 613 285 613 283 613 330 614 283 614 284 614 330 615 284 615 331 615 331 616 284 616 307 616 331 617 307 617 309 617 309 618 307 618 308 618 259 619 260 619 332 619 259 620 332 620 258 620 258 621 332 621 257 621 256 622 257 622 333 622 256 623 333 623 255 623 255 624 333 624 334 624 255 625 334 625 254 625 254 626 334 626 335 626 254 627 335 627 253 627 253 628 335 628 252 628 252 629 335 629 336 629 252 630 336 630 265 630 265 631 336 631 337 631 265 632 337 632 264 632 264 633 337 633 338 633 264 634 338 634 263 634 263 635 338 635 262 635 262 636 338 636 339 636 262 637 339 637 261 637 261 638 339 638 340 638 261 639 340 639 260 639 326 640 341 640 325 640 325 641 341 641 342 641 325 642 342 642 324 642 324 643 342 643 343 643 324 644 343 644 323 644 323 645 343 645 344 645 323 646 344 646 322 646 322 647 344 647 321 647 321 648 344 648 345 648 312 649 346 649 311 649 311 650 346 650 347 650 311 651 347 651 310 651 310 652 347 652 348 652 310 653 348 653 309 653 309 654 348 654 331 654 331 655 348 655 349 655 331 656 349 656 330 656 330 657 349 657 350 657 321 658 345 658 320 658 320 659 345 659 351 659 320 660 351 660 319 660 319 661 351 661 318 661 318 662 351 662 352 662 318 663 352 663 317 663 317 664 352 664 353 664 317 665 353 665 316 665 330 666 350 666 354 666 330 667 354 667 329 667 329 668 354 668 328 668 328 669 354 669 355 669 328 670 355 670 327 670 327 671 355 671 356 671 327 672 356 672 326 672 326 673 356 673 341 673 353 674 357 674 316 674 316 675 357 675 315 675 315 676 357 676 314 676 314 677 357 677 358 677 314 678 358 678 313 678 313 679 358 679 359 679 313 680 359 680 312 680 312 681 359 681 346 681 421 682 420 682 422 682 422 683 420 683 423 683 477 684 476 684 420 684 420 685 476 685 478 685 478 686 479 686 420 686 479 687 423 687 420 687 483 688 417 688 480 688 417 689 483 689 418 689 417 690 418 690 481 690 481 691 419 691 417 691 417 692 419 692 484 692 417 693 484 693 482 693 424 694 348 694 425 694 425 695 348 695 347 695 425 696 347 696 426 696 426 697 347 697 346 697 426 698 346 698 427 698 427 699 346 699 428 699 428 700 346 700 359 700 428 701 359 701 429 701 429 702 359 702 358 702 429 703 358 703 430 703 430 704 358 704 431 704 431 705 358 705 357 705 431 706 357 706 432 706 432 707 357 707 433 707 433 708 357 708 353 708 433 709 353 709 434 709 434 710 353 710 435 710 435 711 353 711 352 711 435 712 352 712 351 712 435 713 351 713 436 713 436 714 351 714 437 714 437 715 351 715 345 715 437 716 345 716 438 716 438 717 345 717 344 717 438 718 344 718 439 718 439 719 344 719 440 719 440 720 344 720 343 720 440 721 343 721 441 721 441 722 343 722 342 722 441 723 342 723 442 723 442 724 342 724 341 724 442 725 341 725 443 725 443 726 341 726 356 726 443 727 356 727 444 727 444 728 356 728 355 728 444 729 355 729 445 729 445 730 355 730 354 730 445 731 354 731 446 731 446 732 354 732 447 732 447 733 354 733 350 733 447 734 350 734 448 734 448 735 350 735 449 735 449 736 350 736 349 736 449 737 349 737 450 737 450 738 349 738 348 738 450 739 348 739 424 739 451 740 452 740 416 740 416 741 452 741 361 741 361 742 452 742 453 742 361 740 453 740 360 740 360 740 453 740 362 740 362 740 453 740 363 740 363 740 453 740 454 740 363 743 454 743 364 743 364 740 454 740 365 740 365 740 454 740 455 740 365 744 455 744 367 744 367 740 455 740 366 740 366 740 455 740 456 740 366 745 456 745 368 745 368 740 456 740 369 740 369 746 456 746 457 746 369 747 457 747 370 747 370 748 457 748 371 748 371 749 457 749 458 749 371 750 458 750 372 750 372 751 458 751 374 751 374 752 458 752 459 752 374 753 459 753 373 753 373 754 459 754 375 754 375 755 459 755 376 755 376 756 459 756 460 756 376 757 460 757 377 757 377 758 460 758 378 758 378 759 460 759 461 759 378 760 461 760 379 760 379 761 461 761 381 761 381 762 461 762 462 762 381 763 462 763 380 763 380 764 462 764 382 764 382 765 462 765 383 765 383 766 462 766 463 766 383 767 463 767 384 767 384 740 463 740 386 740 386 740 463 740 464 740 386 740 464 740 385 740 385 768 464 768 387 768 387 740 464 740 465 740 387 740 465 740 388 740 388 740 465 740 389 740 389 740 465 740 390 740 390 769 465 769 466 769 390 740 466 740 391 740 391 740 466 740 393 740 393 740 466 740 467 740 393 740 467 740 392 740 392 770 467 770 394 770 394 740 467 740 395 740 395 771 467 771 468 771 395 772 468 772 396 772 396 740 468 740 397 740 397 773 468 773 398 773 398 740 468 740 469 740 398 740 469 740 400 740 400 740 469 740 399 740 399 740 469 740 470 740 399 774 470 774 401 774 401 775 470 775 402 775 402 776 470 776 471 776 402 740 471 740 403 740 403 777 471 777 405 777 405 778 471 778 472 778 405 779 472 779 404 779 404 740 472 740 406 740 406 740 472 740 407 740 407 740 472 740 473 740 407 780 473 780 408 780 408 740 473 740 409 740 409 740 473 740 410 740 410 740 473 740 474 740 410 781 474 781 412 781 412 782 474 782 411 782 411 783 474 783 475 783 411 784 475 784 413 784 413 740 475 740 414 740 414 740 475 740 451 740 414 785 451 785 415 785 415 786 451 786 416 786 337 787 480 787 338 787 480 788 337 788 336 788 338 789 480 789 417 789 339 790 477 790 340 790 335 791 480 791 336 791 477 792 420 792 333 792 477 793 260 793 340 793 260 794 477 794 332 794 417 795 339 795 338 795 420 796 334 796 333 796 477 797 333 797 257 797 477 798 257 798 332 798 477 799 339 799 417 799 335 800 334 800 480 800 480 801 334 801 420 801 457 802 456 802 420 802 480 803 448 803 449 803 480 804 449 804 483 804 449 805 450 805 418 805 449 806 418 806 483 806 450 807 481 807 418 807 424 808 419 808 450 808 450 809 419 809 481 809 484 810 419 810 425 810 425 811 419 811 424 811 417 812 482 812 426 812 426 813 482 813 425 813 425 814 482 814 484 814 460 815 477 815 461 815 461 816 477 816 417 816 460 817 476 817 477 817 459 818 478 818 460 818 460 819 478 819 476 819 459 820 479 820 478 820 423 821 479 821 459 821 458 822 423 822 459 822 458 823 422 823 423 823 457 824 422 824 458 824 457 825 420 825 421 825 457 826 421 826 422 826 417 827 426 827 427 827 417 828 427 828 461 828 461 829 427 829 428 829 461 830 428 830 462 830 462 831 428 831 429 831 462 832 429 832 463 832 463 833 429 833 430 833 463 834 430 834 464 834 464 835 430 835 431 835 464 836 431 836 465 836 465 837 431 837 432 837 465 838 432 838 466 838 466 839 432 839 433 839 466 840 433 840 467 840 467 841 433 841 434 841 467 842 434 842 435 842 467 843 435 843 468 843 468 844 435 844 436 844 468 845 436 845 469 845 469 846 436 846 470 846 470 847 436 847 437 847 470 848 437 848 471 848 471 849 437 849 438 849 471 850 438 850 472 850 472 851 438 851 439 851 472 852 439 852 440 852 472 853 440 853 473 853 473 854 440 854 441 854 473 855 441 855 474 855 474 856 441 856 475 856 475 857 441 857 442 857 475 858 442 858 451 858 451 859 442 859 443 859 451 860 443 860 452 860 452 861 443 861 444 861 452 862 444 862 453 862 453 863 444 863 445 863 453 864 445 864 454 864 454 865 445 865 446 865 454 866 446 866 455 866 455 867 446 867 447 867 455 868 447 868 456 868 456 869 447 869 448 869 456 870 448 870 480 870 456 871 480 871 420 871</p>
        </triangles>
      </mesh>
    </geometry>
  </library_geometries>
  <library_visual_scenes>
    <visual_scene id="Scene" name="Scene">
      <node id="eSeries_UR5e_058" name="eSeries_UR5e_058" type="NODE">
        <matrix sid="transform">1 0 0 0 0 1 0 0 0 0 1 0 0 0 0 1</matrix>
        <instance_geometry url="#eSeries_UR5e_058-mesh" name="eSeries_UR5e_058">
          <bind_material>
            <technique_common>
              <instance_material symbol="LinkGrey_005-material" target="#LinkGrey_005-material"/>
            </technique_common>
          </bind_material>
        </instance_geometry>
      </node>
    </visual_scene>
  </library_visual_scenes>
  <scene>
    <instance_visual_scene url="#Scene"/>
  </scene>
</COLLADA>