<?xml version="1.0" encoding="utf-8"?>
<COLLADA xmlns="http://www.collada.org/2005/11/COLLADASchema" version="1.4.1" xmlns:xsi="http://www.w3.org/2001/XMLSchema-instance">
  <asset>
    <contributor>
      <author>Blender User</author>
      <authoring_tool>Blender 2.82.7</authoring_tool>
    </contributor>
    <created>2024-02-04T12:21:31</created>
    <modified>2024-02-04T12:21:31</modified>
    <unit name="meter" meter="1"/>
    <up_axis>Z_UP</up_axis>
  </asset>
  <library_effects>
    <effect id="Material_001-effect">
      <profile_COMMON>
        <technique sid="common">
          <lambert>
            <emission>
              <color sid="emission">0 0 0 1</color>
            </emission>
            <diffuse>
              <color sid="diffuse">0.0118336 0.0118336 0.0118336 1</color>
            </diffuse>
            <index_of_refraction>
              <float sid="ior">1.45</float>
            </index_of_refraction>
          </lambert>
        </technique>
      </profile_COMMON>
    </effect>
  </library_effects>
  <library_images/>
  <library_materials>
    <material id="Material_001-material" name="Material.001">
      <instance_effect url="#Material_001-effect"/>
    </material>
  </library_materials>
  <library_geometries>
    <geometry id="shape0_007-mesh" name="shape0.007">
      <mesh>
        <source id="shape0_007-mesh-positions">
          <float_array id="shape0_007-mesh-positions-array" count="1248">-0.03399986 -0.00389409 0.01706117 -0.03399986 0.00389409 -0.01706117 -0.03399986 0 0.01749998 -0.03399986 -0.007592916 0.01576697 -0.03399986 0.00389409 0.01706117 -0.03399986 0.007592916 -0.01576697 -0.03399986 -0.007592916 -0.01576697 -0.03399986 -0.01091104 0.01368194 -0.03399986 -0.01091104 -0.01368194 -0.03399986 -0.01576697 -0.007592916 -0.03399986 -0.01368206 0.01091104 -0.03399986 0.01091104 0.01368194 -0.03399986 0.01368206 0.01091104 -0.03399986 0.01576697 0.007592976 -0.03399986 0.01091104 -0.01368194 -0.03399986 0.01368206 -0.01091104 -0.03399986 0.01706117 -0.00389409 -0.03399986 0 -0.0175001 -0.02899998 0 -0.0175001 -0.02899998 -0.00389409 -0.01706117 -0.03399986 -0.00389409 -0.01706117 -0.02899998 -0.01091104 -0.01368194 -0.03399986 -0.01368206 -0.01091104 -0.02899998 -0.01368206 -0.01091104 -0.02899998 -0.01576697 -0.007592916 -0.03399986 -0.01706117 -0.00389409 -0.02899998 -0.01706117 -0.00389409 -0.03399986 -0.01749998 0 -0.03399986 -0.01706117 0.003894031 -0.02899998 -0.01706117 0.003894031 -0.03399986 -0.01576697 0.007592976 -0.02899998 -0.01576697 0.007592976 -0.02899998 -0.01368206 0.01091104 -0.02899998 -0.01091104 0.01368194 -0.02899998 0 0.01749998 -0.02899998 0.00389409 0.01706117 -0.02899998 0.01091104 0.01368194 -0.03399986 0.007592916 0.01576697 -0.02899998 0.01368206 0.01091104 -0.03399986 0.01706117 0.003894031 -0.03399986 0.01749998 0 -0.02899998 0.01576697 -0.007592916 -0.03399986 0.01576697 -0.007592916 -0.02899998 0.01091104 -0.01368194 -0.02899998 0.01706117 0.003894031 -0.02899998 -0.007592916 0.01576697 -0.02899998 -0.00389409 0.01706117 -0.02899998 -0.01749998 0 -0.02203649 -0.01222556 -0.005756735 -0.02899998 -0.007592916 -0.01576697 -0.02259117 -0.003296375 -0.01344954 -0.02267044 0 -0.01384568 -0.02899998 0 -0.0175001 -0.02899998 0.007592916 -0.01576697 -0.02899998 0.00389409 -0.01706117 -0.02899998 0.01368206 -0.01091104 -0.02899998 0.01706117 -0.00389409 -0.02899998 0.01749998 0 -0.02899998 0.01576697 0.007592976 -0.02899998 0.007592916 0.01576697 -0.02899998 0 0.01749998 -0.02267044 0 0.01384568 -0.01547205 -0.01596176 -0.004042029 -0.01775038 0.00754553 -0.01153999 -0.01703357 0.002394676 -0.01404106 -0.01593357 -0.002727925 -0.01495999 -0.01783865 -0.005608916 -0.01254534 -0.02132189 -0.01027709 -0.008230388 -0.01571536 -0.007509589 -0.0139696 -0.02193939 -0.01302969 -0.003293275 -0.01697665 -0.01363795 -0.004139006 -0.02147638 -0.01325416 -4.69393e-5 -0.02195245 -0.01251375 0.005008161 -0.02196335 -0.008262395 0.01060664 -0.01659566 -0.01387506 0.004740715 -0.01660084 -0.003631114 0.01420199 -0.01901525 0.005509495 0.01210898 -0.01913809 0.008989453 0.009768068 -0.01547038 0.00943166 0.01352858 -0.01661425 0.007042288 0.0129354 -0.01776379 0.01343679 0.003391146 -0.02029496 0.01323127 9.75856e-4 -0.01547205 0.01486909 0.007001757 -0.01569926 0.01519554 0.004372537 -0.01572197 0.01495498 -0.005002617 -0.02143955 0.008275032 -0.01024734 -0.01915365 -0.001936376 -0.01318728 -0.02146077 -0.007641077 -0.01077198 -0.01584255 -0.01162469 -0.01021295 -0.0177505 -0.009334623 -0.01014745 -0.01915228 -0.01220548 -0.005324006 -0.01925718 -0.01276135 0.004061341 -0.01659238 -0.01466506 -1.78928e-5 -0.0220052 -0.00594455 0.01209825 -0.02136665 -0.01041436 0.008108198 -0.01913809 -0.007262289 0.01111239 -0.01702129 -0.01057958 0.009569764 -0.01649999 -0.007923901 0.01245725 -0.02267307 -0.002053916 0.01368957 -0.01987749 -0.002153396 0.01298677 -0.02058094 0.003237664 0.01278609 -0.0219621 0.007842659 0.01097106 -0.02269536 0.0032835 0.01352977 -0.01710498 0.001069664 0.0140748 -0.01538139 0.004611968 0.01608306 -0.02141457 0.01179975 0.005917787 -0.02197057 0.0106045 0.008388221 -0.02201926 0.01323086 0.00256592 -0.01692277 0.01111787 0.008974075 -0.02191716 0.01318466 -0.0027408 -0.02141326 0.01213598 -0.005122959 -0.0177505 0.01360064 -0.002264201 -0.01579797 0.01567226 -3.19334e-4 -0.0214836 0.01044934 -0.008162319 -0.01776379 0.01159548 -0.007589101 -0.02149415 0.005804479 -0.01185387 -0.02074199 0.001268088 -0.01314026 -0.02267307 0.002053916 -0.01368969 -0.006999969 -0.001828432 0.01564347 -0.006999969 -0.007068574 -0.01407468 -0.006999969 0.01012384 -0.01206517 -0.006999969 0.01363986 0.007874906 -0.006999969 0.008654713 0.01315885 -0.006999969 0.01551067 -0.002734899 -0.006999969 -0.01551067 -0.002734899 -0.00999999 -0.01049387 -0.02970069 -0.01304358 -0.01009005 -0.02080917 -0.01547205 -0.01022136 -0.01289427 -0.01299536 -0.01315277 -0.0192036 -0.01185256 -0.01504039 -0.02170938 -0.00999999 -0.01536238 -0.02749985 -0.00999999 0.01978886 -0.02450805 -0.01547205 0.01022136 -0.01289427 -0.01576936 0.008102178 -0.01346385 -0.0132398 0.01071405 -0.01990246 -0.00999999 0.01049387 -0.02970069 -0.01156735 0.01249998 -0.02415055 -0.01547205 0 0.0164656 -0.00999999 -0.007937252 0.0304836 -0.01179617 -0.002793252 0.02638447 -0.01538318 -0.004535138 0.0160647 -0.01275485 -0.002772212 0.02377247 -0.00999999 0.00267136 0.03138649 -0.00999999 -0.00267136 0.03138649 -0.0154829 -0.009397983 0.01350378 -0.01324468 -0.01069438 0.01987206 -0.01182985 -0.01504206 0.02175945 -0.01255226 -0.01432114 0.01985639 -0.00999999 0.007937252 0.0304836 -0.00999999 0.01763916 0.02609795 -0.00999999 0.01297485 0.02870368 -0.01152628 0.02729767 -0.001079916 -0.00999999 0.03124487 0.004000961 -0.01143527 0.02754199 3.76662e-4 -0.01312744 0.02285414 0.001468837 -0.01325148 0.02259367 -7.01586e-4 -0.00999999 0.03147155 -0.001336932 -0.01547205 -0.01640945 -0.001359701 -0.01324629 -0.02257668 -6.10107e-4 -0.01185238 -0.02632099 0.002170741 -0.00999999 -0.03124487 0.004000961 -0.00999999 -0.03147155 -0.001336932 -0.00999999 0 -0.03149998 -0.01547205 -0.005346357 -0.0155735 -0.00999999 -0.005323529 -0.03104686 -0.01231765 -0.01026898 -0.02293467 -0.01244115 -0.0144965 -0.02011168 -0.01547205 -0.01507878 -0.006614208 -0.00999999 -0.02682316 -0.01651555 -0.01231759 -0.02499657 -0.002574086 -0.00999999 -0.03011929 0.009223878 -0.01547205 -0.01596176 0.004042088 -0.01547205 -0.01507878 0.006614148 -0.01547205 -0.01378446 0.009005844 -0.00999999 -0.02532589 0.01873099 -0.01547205 -0.01211416 0.01115185 -0.00999999 -0.01297485 0.02870368 -0.01194399 -0.01104336 0.02374094 -0.01260197 0.01421105 0.01976984 -0.00999999 0.02179604 0.02274167 -0.01547205 0.01211416 0.01115185 -0.00999999 0.02812719 0.01418137 -0.01547205 0.01349115 0.009382665 -0.00999999 0.03011929 0.009223878 -0.00999999 0.03079295 -0.006636381 -0.00999999 0.02682316 -0.01651555 -0.01571136 0.01313298 -0.008855044 -0.01244086 0.0144971 -0.02011239 -0.01547205 0.01211416 -0.01115185 -0.01233106 0.01025927 -0.02289855 -0.01547205 0.005346357 -0.0155735 -0.01547205 0.002710103 -0.01624107 -0.01547205 0 -0.01646566 -0.006999969 0.01263338 -0.009405255 -0.006999969 0.01446187 -0.006238222 0 0.01551067 -0.002734899 0 0.01572334 9.15751e-4 -0.006999969 0.01572334 9.15751e-4 -0.006999969 0.01508826 0.004517138 -0.006999969 0.01145607 0.01080828 0 0.01363986 0.007874906 0 0.008654713 0.01315885 0 0.005386769 0.01480019 -0.006999969 0.005386769 0.01480019 0 0.001828432 0.01564347 -0.006999969 0.001828432 0.01564347 -0.006999969 -0.005386769 0.01480019 -0.006999969 -0.008654713 0.01315885 -0.006999969 -0.01145607 0.01080828 -0.006999969 -0.01363986 0.007874906 0 -0.01508826 0.004517138 -0.006999969 -0.01508826 0.004517138 -0.006999969 -0.01572334 9.15751e-4 0 -0.01446187 -0.006238222 -0.006999969 -0.01446187 -0.006238222 -0.006999969 -0.01263338 -0.009405255 -0.006999969 -0.01012384 -0.01206517 0 -0.007068574 -0.01407468 0 0 -0.01574987 -0.006999969 -0.003632187 -0.01532536 -0.006999969 0 -0.01574987 0 0.003632187 -0.01532536 -0.006999969 0.003632187 -0.01532536 -0.006999969 0.007068574 -0.01407468 0 0.007068574 -0.01407468 0 -0.01536238 -0.02749985 0 -0.02364617 -0.0208112 -0.00999999 -0.01978886 -0.02450805 -0.00999999 -0.02364617 -0.0208112 -0.00999999 -0.02922844 -0.01174497 -0.00999999 -0.03079295 -0.006636381 0 -0.02812719 0.01418137 -0.00999999 -0.02812719 0.01418137 -0.00999999 -0.02179604 0.02274167 0 -0.02532607 0.0187307 -0.00999999 -0.01763916 0.02609795 -0.00999999 0.02532589 0.01873099 0 0.03124487 0.004000961 -0.00999999 0.02922844 -0.01174497 -0.00999999 0.02364617 -0.0208112 0 0.02364617 -0.0208112 -0.00999999 0.01536238 -0.02749985 -0.00999999 0.005323529 -0.03104686 0 0 -0.03149998 -0.00999999 0 -0.03149998 -0.01168787 0.002482533 0.02675598 -0.01215857 0.002999901 0.02539235 0 0 0.02799999 -0.01134026 -0.00123918 0.0277729 -0.01127386 0 0.02799999 -0.0113607 0.001313984 0.02775728 0 -0.002598047 0.02349996 0 -0.002999961 0.02499997 -0.01333147 -0.001531302 0.02231395 0 0 0.02199989 -0.01345765 0 0.02199989 -0.013336 0.001513779 0.02230137 0 0.00149995 0.02240186 -0.01276069 0.002770602 0.02375608 0 -0.01249998 0.02415055 -0.01153117 -0.01267635 0.02418327 0 -0.01124995 0.02381569 0 -0.01374995 0.02381569 -0.01144337 -0.01416879 0.02362346 0 -0.01466506 0.0229007 0 -0.01374995 0.01948559 0 -0.01249998 0.01915055 -0.01279646 -0.00992769 0.02165699 0 -0.01034128 0.02039545 -0.01316475 -0.01249527 0.0190742 -0.01152646 -0.0272817 0.001113653 0 -0.02283489 0.001249969 -0.01289427 -0.0234642 0.001999735 -0.0124408 -0.02466654 0.002498745 0 -0.02499997 0.002499997 0 -0.02625 0.002165019 -0.01146548 -0.0275442 -3.74859e-4 0 -0.02749997 0 0 -0.02716505 -0.001250028 0 -0.02625 -0.002165079 -0.01178079 -0.02653259 -0.002002477 -0.01290166 -0.02343177 -0.001973986 -0.01320308 -0.02267044 9.65007e-4 0 -0.02249997 0 0 -0.02283489 -0.001250028 0 -0.01033484 -0.0204007 -0.01330184 -0.0112465 -0.0194059 0 -0.01249998 -0.01915055 0 -0.01374995 -0.01948559 0 -0.01374995 -0.02381557 -0.01145029 -0.01363158 -0.02392387 -0.01152759 -0.01460528 -0.0230695 0 -0.01249998 -0.02415055 -0.01165759 -0.01197886 -0.02414506 -0.01186364 0.01507395 -0.02164816 -0.01289439 0.01346319 -0.01932048 -0.01321417 0.01213276 -0.01915609 0 0.01249998 -0.01915055 0 0.01124995 -0.01948559 -0.01289445 0.01000046 -0.0213198 -0.01181805 0.01138669 -0.02393257 0 0.01466506 -0.02290058 -0.01143574 0.01402539 -0.02373927 0 0.01249998 -0.02415055 0 0.02625 0.002165019 -0.01186358 0.02628487 0.002230286 0 0.02499997 0.002499997 -0.01244097 0.02466607 0.002498626 0 0.02283489 -0.001250028 0 0.02374994 -0.002165079 -0.01279938 0.02370989 -0.002227306 -0.01194876 0.02604466 -0.002328038 0 0.02716505 -0.001250028 0 0.02625 -0.002165079 0 0.02749997 0 0 0.01466506 0.0229007 -0.01152628 0.01460587 0.02306956 -0.01143854 0.01344597 0.02404028 0 0.01374995 0.02381569 -0.01192539 0.01103579 0.0237984 0 0.01124995 0.02381569 0 0.01033484 0.0229007 -0.01330786 0.01121258 0.01942217 -0.01288068 0.009906768 0.02142608 0 0.00999999 0.02165067 0 0.01249998 0.01915055 0 0.01124995 0.01948559 0 0.01374995 0.01948559 -0.01308995 0.0127722 0.01913905 -0.01184976 0.01504898 0.02171164 0 0.01446187 -0.006238222 0 0.01263338 -0.009405255 0 0.03079295 -0.006636381 0 0.03147155 -0.001336932 0 0.02716505 0.001249969 0 0.02374994 0.002165019 0 0.02283489 0.001249969 0 0.01508826 0.004517138 0 0.02249997 0 0 0.01145607 0.01080828 0 -0.001828432 0.01564347 0 -0.01572334 9.15751e-4 0 -0.01551067 -0.002734899 0 -0.003327786 -0.01540219 0 0.01012384 -0.01206517 0 -0.01012384 -0.01206517 0 -0.01263338 -0.009405255 0 0.005323231 -0.03104686 0 -0.01033484 -0.02290058 0 -0.01124995 -0.02381557 0 -0.01499998 -0.02165067 0 -0.00999999 -0.02165067 0 -0.01466506 -0.0204007 0 -0.01124995 -0.01948559 0 0 -0.03149998 0 -0.005323231 -0.03104686 0 -0.01049387 -0.02970069 0 -0.01466506 -0.02290058 0 -0.01978909 -0.02450799 0 -0.02682298 -0.01651585 0 -0.02374994 -0.002165079 0 -0.02922844 -0.01174497 0 -0.02716505 0.001249969 0 -0.03124487 0.004000961 0 -0.03147155 -0.001336932 0 -0.03079295 -0.006636381 0 -0.02499997 -0.002499938 0 -0.02374994 0.002165019 0 -0.03011918 0.009223937 0 -0.02179604 0.02274167 0 -0.01297485 0.02870368 0 -0.00793749 0.03048348 0 -0.002581119 0.02651315 0 -0.00267136 0.03138649 0 0.00258094 0.02651357 0 0.00149995 0.02759808 0 0.00793749 0.03048348 0 0.00267136 0.03138649 0 -0.001419246 0.02765309 0 0.01297485 0.02870368 0 0.03011918 0.009223937 0 0.02812719 0.01418137 0 0.02532607 0.0187307 0 0.02179604 0.02274167 0 0.02499997 -0.002499938 0 0.02922844 -0.01174497 0 0.02682298 -0.01651585 0 0.01978886 -0.02450805 0 0.01124995 -0.02381557 0 0.01033484 -0.02290058 0 0.01033484 -0.0204007 0 0.00999999 -0.02165067 0 0.01374995 -0.01948559 0 0.01466506 -0.0204007 0 0.01499998 -0.02165067 0 0.01049387 -0.02970069 0 0.01374995 -0.02381557 0 0.01536267 -0.02749979 0 -0.001459002 0.0223757 0 0.002598047 0.02349996 0 -0.01033484 0.0229007 0 -0.01499998 0.02165067 3.59664e-5 -0.01467406 0.02041316 0 -0.01363986 0.007874906 0 -0.01124995 0.01948559 0 -0.01145607 0.01080828 0 -0.008654713 0.01315885 0 -0.005386769 0.01480019 0 -0.00999999 0.02165067 0 0.01034128 0.02039545 0 0.002999961 0.02499997 0 0.01249998 0.02415055 0 0.01763916 0.02609795 0 0.01499998 0.02165067 0 0.01467359 0.02041095 0 -0.01763939 0.02609789</float_array>
          <technique_common>
            <accessor source="#shape0_007-mesh-positions-array" count="416" stride="3">
              <param name="X" type="float"/>
              <param name="Y" type="float"/>
              <param name="Z" type="float"/>
            </accessor>
          </technique_common>
        </source>
        <source id="shape0_007-mesh-normals">
          <float_array id="shape0_007-mesh-normals-array" count="2256">-1 0 0 -1 -6.80649e-7 0 -1 6.98154e-7 0 -1 1.49711e-6 0 -1 -1.72944e-7 0 -1 -1.49711e-6 0 -1 1.72944e-7 0 -1 -1.5353e-6 0 -1 7.21955e-7 0 -1 2.55885e-6 0 -1 -1.83844e-6 0 -1 2.88744e-6 0 -1 1.5353e-6 0 -1 -3.60979e-6 0 -1 2.55881e-6 0 -1 -9.1922e-7 0 -1 2.88744e-6 0 -1 8.51656e-6 0 0 0.1119993 -0.9937084 0 -0.1119994 -0.9937084 0 -0.1119993 -0.9937084 0 -0.3302602 -0.94389 0 -0.3302598 -0.9438901 0 -0.532047 -0.8467149 0 -0.5320466 -0.8467152 0 -0.707094 -0.7071196 0 -0.7070941 -0.7071194 0 -0.8467296 -0.5320237 0 -0.8467291 -0.5320243 0 -0.9438895 -0.3302618 0 -0.9438896 -0.3302613 0 -0.9937109 -0.111976 0 -0.9937111 -0.1119747 0 -0.9937111 0.1119743 0 -0.9937109 0.111976 0 -0.9438928 0.3302523 0 -0.9438924 0.3302532 0 -0.8467231 0.532034 0 -0.8467226 0.5320346 0 -0.7070941 0.7071194 0 -0.707094 0.7071196 0 -0.5320469 0.8467149 0 -0.5320468 0.8467151 0 -0.3302602 0.94389 0 -0.3302598 0.9438901 0 -0.1119741 0.9937112 0 -0.111974 0.9937112 0 0.1119741 0.9937112 0 0.111974 0.9937112 0 0.3302602 0.94389 0 0.3302598 0.9438901 0 0.532047 0.8467149 0 0.5320466 0.8467152 0 0.707094 0.7071196 0 0.7070941 0.7071194 0 0.8467231 0.532034 0 0.8467226 0.5320346 0 0.9438925 0.3302529 0 0.9438927 0.3302525 0 0.9937109 0.1119757 0 0.9937111 0.1119745 0 0.9937111 -0.1119745 0 0.9937109 -0.1119762 0 0.9438897 -0.3302611 0 0.9438894 -0.330262 0 0.8467296 -0.5320237 0 0.8467291 -0.5320243 0 0.7070941 -0.7071194 0 0.707094 -0.7071196 0 0.5320469 -0.8467149 0 0.5320468 -0.8467151 0 0.3302602 -0.94389 0 0.3302598 -0.9438901 0 0.1119994 -0.9937084 0.4970935 -0.2865654 0.8190106 0.4954144 -0.4621665 0.7355044 0.4947436 -0.4639648 0.7348235 0.4992732 -0.593957 0.6308259 0.4901579 -0.6163268 0.6163493 0.4864982 -0.8246616 0.2885357 0.5055799 -0.7305352 0.4590287 0.4837429 -0.7643945 0.4262557 0.514859 -0.8399429 0.1715112 0.4895856 -0.8664715 0.09763723 0.499722 -0.8607385 -0.09699112 0.4867436 -0.8639429 -0.129165 0.4932522 -0.8210267 -0.2874324 0.4933071 -0.8210474 -0.2872797 0.496429 -0.7458678 -0.4441167 0.489431 -0.7383837 -0.4639471 0.5014738 -0.6117586 -0.6117806 0.4868712 -0.5928502 -0.6414711 0.4869942 -0.4646928 -0.739525 0.4904057 -0.2878198 -0.8225947 0.5162532 -0.3479661 -0.7825613 0.495361 -0.0918805 -0.8638145 0.4976412 -0.09714603 -0.8619258 0.4989073 0.06626141 -0.8641186 0.4899997 0.09763276 -0.866238 0.4953057 0.4621992 -0.7355571 0.4937703 0.4663514 -0.7339668 0.4957173 0.2868257 -0.8197532 0.5103176 0.2433338 -0.8248422 0.4943306 0.6068492 -0.6223917 0.4903988 0.6162315 -0.616253 0.4954497 0.8198969 -0.2868773 0.4850221 0.8335835 -0.2643714 0.5007144 0.7329392 -0.4605271 0.485086 0.7598162 -0.4328637 0.4899976 0.8662415 -0.09761148 0.5210312 0.8535338 0.002594113 0.4929371 0.8645932 0.09742498 0.5020681 0.8243781 0.261397 0.4929659 0.8212325 0.2873358 0.4886237 0.7372049 0.4666646 0.4897045 0.7382478 0.4638747 0.5021421 0.6114846 0.6115064 0.4894519 0.5964436 0.636154 0.4873449 0.4645884 0.7393597 0.5181164 0.3537145 0.7787435 0.4890595 0.2880694 0.8233086 0.5108733 -0.2488504 0.8228499 0.4900068 -0.09760987 0.8662366 0.4988954 -0.06630468 0.8641222 0.4976323 0.09712475 0.8619333 0.4932376 0.08701115 0.8655321 -0.8656103 -0.3297309 0.3768242 -0.8154803 -0.4567434 0.3554962 -0.8546627 -0.4566105 0.2471007 -0.8410335 -0.5116705 0.175659 -0.8237299 -0.5650452 0.04683017 -0.8661459 -0.492972 -0.08228033 -0.8213411 -0.5395317 -0.1852149 -0.9539018 -0.1019912 -0.2822573 -0.8448913 0.3544464 0.4006576 -0.825752 0.4451036 0.3464339 -0.9725343 0.1576413 -0.1712492 -0.8167204 0.1416558 -0.5593759 -0.6941697 0.5014643 -0.5163934 -0.6699661 0.5056768 -0.5435408 -0.9635434 0.1866901 -0.1916533 -0.1199427 0.4200904 -0.8995209 -0.7106326 0.2248252 -0.6666746 -0.8705291 0.236467 -0.4315817 0.2473781 -0.4608901 -0.8522821 -0.2987228 -0.2670977 -0.9162006 -0.6548141 -0.1818255 -0.7335925 -0.1059023 -0.5399339 -0.8350187 -0.195182 -0.6860643 -0.7008708 -0.7262399 -0.384122 -0.5701106 -0.05604827 -0.850721 -0.5226209 0.09538936 -0.7951842 -0.598818 0.05338752 -0.948661 -0.3117566 -0.8678261 -0.4000757 -0.2946481 0.01585501 -0.9937345 0.1106365 -0.04133921 -0.9891488 0.1409818 -0.6875991 -0.7169939 -0.1145738 -0.8659369 -0.493497 0.08132696 -0.4400892 -0.7592907 0.4793736 -0.176224 -0.888597 0.4234863 -0.2853507 -0.5477941 0.7864457 0.1405193 -0.7333311 0.6651916 0.04076433 -0.5401933 0.8405532 0.1750092 -0.316701 0.9322406 -0.4588924 -0.3437713 0.8192918 0.3322941 0.07835316 0.9399157 -0.8512694 -0.07724308 0.5190125 -0.1196953 0.3584316 0.9258508 -0.09089022 0.3414542 0.9354935 -0.8708114 0.1602107 0.4647798 -0.5363672 0.4579609 0.7089303 0.2551857 0.8466032 0.4670583 -0.8136178 0.2604712 0.5197893 -0.365399 0.6344165 0.6811749 -0.3663559 0.6350119 0.6801054 -0.8414106 0.4677177 0.2706811 -0.900041 0.4161352 0.1294515 -0.6982363 0.6177354 0.3617583 -0.1079188 0.9937499 0.02854639 -0.2880409 0.9503381 -0.117856 0.5342996 0.8095088 -0.2433506 -0.6613348 0.7397645 -0.1240353 -0.7392999 0.6307827 -0.2356879 -0.1010282 0.6875327 -0.7190912 -0.4707208 0.0568552 -0.8804484 0.05878579 0.04376351 -0.9973109 0.2585819 -0.03935486 -0.9651874 -0.5161152 -0.3234241 -0.7931091 -0.8804168 -0.1061504 -0.4621671 -0.817753 0.04753679 -0.5736032 0.2159024 -0.9714871 -0.0979743 -0.6658138 -0.5399845 -0.5148872 -0.633302 -0.5110014 -0.581211 -0.9587813 -0.1748371 -0.2239878 -0.3722027 -0.8580312 -0.3539035 -0.3816 -0.859937 -0.3389543 0.1140117 -0.8324642 0.542222 -0.8369182 -0.544288 -0.05760741 -0.4138033 -0.8981211 0.148814 -0.8637408 -0.4484379 0.2299028 0.2182391 -0.337112 0.9158206 -0.8157677 -0.3447806 0.4643808 -0.477283 -0.6021671 0.6399967 -0.4938337 -0.3616086 0.7908018 0.2447039 0.03003734 0.9691325 -0.842244 -0.2375765 0.4839242 -0.8618829 -0.2081918 0.4624003 -0.3526521 -0.01249873 0.935671 -0.3538154 -0.01135295 0.9352464 0.3081997 0.4274123 0.8499011 0.03369271 0.6827173 0.7299054 0.1237458 0.5568667 0.8213322 -0.4320964 0.2031213 0.878655 -0.7578302 -0.001163601 0.652451 0.3020104 0.8952007 0.3277278 -0.2758394 0.9381496 0.2092559 -0.1323577 0.9081612 0.3971456 -0.8637489 0.3160806 0.3924679 -0.008408427 0.9999254 -0.008866965 -0.7359258 0.6768261 0.01788413 -0.6700965 0.7369229 0.08896851 -0.09889256 0.9313387 -0.3504691 -0.1921148 0.859981 -0.4727839 -0.1816423 0.5388866 -0.8225615 -0.1121076 0.6937054 -0.7114807 -0.6854764 0.6574636 -0.3128319 -0.2919033 0.2158274 -0.9317786 0.3747152 0.3099232 -0.8738055 -0.2093458 -0.08947825 -0.9737393 1 0 0 1 2.67801e-7 0 1 -2.08801e-7 0 1 2.87221e-7 0 1 1.35093e-7 0 1 1.17971e-6 0 1 -2.87221e-7 0 1 0 0 1 3.63708e-7 0 1 -2.04586e-7 0 1 8.00823e-7 0 1 2.35884e-6 0 1 5.12242e-7 0 1 -8.22975e-7 0 1 -5.12224e-7 0 1 -4.11499e-7 0 1 4.004e-7 0 -0.9406255 -0.02640044 0.338418 -0.9383853 -0.1379616 -0.3168592 -0.9391912 -0.1300212 -0.3178279 -0.9383624 -0.1613495 -0.3056833 -0.9391196 -0.196124 -0.2821166 -0.9411478 -0.1815731 -0.2850829 -0.9391819 -0.2032739 -0.2767981 -0.9369199 -0.1957364 -0.2896005 -0.9375448 -0.1966586 -0.2869411 -0.9387385 -0.1821767 -0.2925437 -0.9393273 -0.1412965 -0.3125695 -0.9333608 -0.1600727 -0.3212702 -0.9373891 0.1950309 -0.2885562 -0.9371439 0.194848 -0.2894749 -0.9399892 0.201284 -0.275509 -0.939208 0.2035104 -0.2765355 -0.9405159 0.1913904 -0.2807129 -0.9425393 0.1687207 -0.2883625 -0.9362044 0.207569 -0.2836133 -0.9396125 0.1382831 -0.3130595 -0.9414904 0.1469022 -0.3033408 -0.9385839 0.1363895 -0.3169515 -0.9363367 0.1485568 -0.3181266 -0.9377235 0.1430926 -0.3165427 -0.9396908 0.1622533 -0.30109 -0.9394402 0.06343263 0.3367915 -0.9419769 -0.04783529 0.3322519 -0.9390712 3.46266e-5 0.3437228 -0.9418714 0.04612314 0.3327926 -0.9418942 0.04601025 0.332744 -0.9391196 -0.05806523 0.3386485 -0.9420578 -0.04742503 0.3320816 -0.9375583 -0.05350524 0.3436883 -0.9397916 -0.0654298 0.3354265 -0.9372623 0.05473858 0.3443008 -0.9386934 0.05826163 0.3397947 -0.9395069 0.02935945 0.3412696 -0.9363504 0 0.351067 -0.9382658 -0.005383372 0.3458734 -0.9397476 -0.1724727 0.2951741 -0.9426977 -0.1401304 0.3027944 -0.9436324 -0.1431457 0.2984415 -0.9373934 -0.2140164 0.2747555 -0.9392982 -0.1937975 0.2831284 -0.9392742 -0.2267628 0.2575709 -0.9401898 -0.1889251 0.2834615 -0.9392412 -0.2156352 0.267072 -0.9388917 -0.1539526 0.3078652 -0.9365752 -0.170924 0.3059605 -0.9362623 -0.1703298 0.3072474 -0.9392756 0.1946594 0.2826115 -0.9391432 0.2274765 0.2574191 -0.9437132 0.1464166 0.2965934 -0.942345 0.142964 0.3025679 -0.9394709 0.1837523 0.2891877 -0.9392979 0.114302 0.3235036 -0.9392069 0.1146567 0.3236423 -0.9395679 0.06414258 0.3363006 -0.9388723 0.1165308 0.3239434 -0.9382512 0.2159763 0.2702572 -0.9387665 0.2164494 0.2680805 -0.9398106 0.1880856 0.2852714 -0.9386785 0.1767707 0.2960323 -0.9364845 0.1710423 0.3061723 -0.9387826 0.1589344 0.3056584 -0.9402483 0.3361905 0.05393624 -0.9391546 0.3434932 0.001062333 -0.9371028 0.3487393 0.01481062 -0.9380464 0.3460451 0.01793634 -0.9420946 0.3326007 0.04283237 -0.9395186 0.3407837 0.03422284 -0.9382113 0.3458518 0.01209157 -0.9375596 0.3412173 -0.06747627 -0.9439187 0.3277565 -0.03991752 -0.9391025 0.3399651 -0.05010282 -0.9355643 0.3513173 -0.03599351 -0.9391456 0.3407374 -0.04363179 -0.9413264 -0.3363446 0.02787601 -0.9463262 -0.3231434 0.006710767 -0.9430814 -0.331447 0.02720946 -0.9395048 -0.3408572 0.03386938 -0.9385541 -0.3443264 0.02357369 -0.9366533 -0.3499426 0.01486158 -0.9346628 -0.3547075 0.02425086 -0.9394562 -0.3398939 -0.0435236 -0.9356578 -0.3509761 -0.0368843 -0.937882 -0.3441511 -0.04401588 -0.9394679 -0.3418624 -0.02303165 -0.9391523 -0.3388141 -0.05655092 -0.9393312 -0.02908921 -0.3417757 -0.9391106 -0.08767378 -0.3322419 -0.9392068 -0.08651345 -0.3322741 -0.9396485 -0.1271129 -0.3176527 -0.9405604 -0.139982 -0.3094373 -0.9399746 -0.2016301 -0.275306 -0.9397171 -0.2079754 -0.2714374 -0.9396083 -0.2322527 -0.2513865 -0.9391215 -0.237739 -0.2480543 -0.9391056 -0.276277 -0.2043327 -0.9409106 -0.2874601 -0.1790358 -0.9390297 -0.3070198 -0.154797 -0.9397987 -0.3232141 -0.1109556 -0.939002 -0.328837 -0.1007056 -0.939846 -0.3371126 -0.05517816 -0.9411694 -0.3353663 -0.04158866 -0.940822 -0.3357722 0.04594802 -0.9401106 -0.3367479 0.05284965 -0.9389324 -0.3363789 0.07249397 -0.9399729 -0.3227588 0.1108048 -0.9389139 -0.3193346 0.1283203 -0.940005 -0.3000434 0.1623724 -0.9388977 -0.2930932 0.1804645 -0.9400318 -0.2691658 0.2094992 -0.9388845 -0.2584077 0.2274234 -0.9401766 -0.2209112 0.2593573 -0.9392082 -0.1150315 0.3235054 -0.9394139 -0.1138892 0.3233126 -0.9393119 -0.114289 0.3234676 -0.9398801 0.2563599 0.2256215 -0.9401766 0.2209051 0.2593626 -0.9376283 0.2743381 0.2135224 -0.9396765 0.3173974 0.1275421 -0.938974 0.3219592 0.1211206 -0.939835 0.2909067 0.1791187 -0.9388885 0.2979267 0.1724184 -0.940239 0.3352688 0.05954456 -0.9393552 0.335249 0.07225042 -0.9389954 0.3288542 -0.1007108 -0.9407331 0.3335289 -0.0614804 -0.9395533 0.2752911 -0.2036038 -0.9380822 0.2697222 -0.2173747 -0.9395607 0.3057217 -0.1541426 -0.9401402 0.3070638 -0.1478117 -0.9397172 0.2079953 -0.2714215 -0.9394751 0.2370697 -0.2473553 -0.9388244 0.2332499 -0.2533836 -0.939341 0.08642119 -0.3319184 -0.9401254 0.1334716 -0.3136072 -0.9396478 0.1271613 -0.317635 -0.9391341 0.08433765 -0.3330381 -0.9392743 -0.02979606 -0.3418717 -0.9392936 0.02909827 -0.3418787 -0.9392264 0.02835297 -0.3421257 0 -0.5495073 0.835489 0 -0.7273745 0.6862408 8.52714e-7 -0.7273757 0.6862396 4.97404e-7 -0.8660239 0.5000026 0 -0.866024 0.5000024 0 -0.9579913 0.2867977 8.52699e-7 -0.9579917 0.2867962 1.65436e-7 -0.9983071 0.05816441 0 -0.9983071 0.05816417 0 -0.9848045 -0.1736668 -2.39819e-7 -0.9848045 -0.173667 -5.68482e-7 -0.9182165 -0.396079 0 -0.9182163 -0.3960794 0 -0.8021228 -0.5971592 0 -0.8021233 -0.5971584 0 -0.6427882 -0.766044 0 -0.6427881 -0.766044 0 -0.4488099 -0.8936273 -3.29652e-6 -0.4488155 -0.8936246 -1.4212e-6 -0.2306067 -0.9730471 0 -0.2306036 -0.9730479 0 0 -1 0 0.2306067 -0.9730471 -1.53545e-6 0.2306036 -0.9730478 -3.41079e-6 0.4488155 -0.8936246 0 0.4488099 -0.8936273 0 0.6427882 -0.766044 0 0.6427881 -0.766044 0 0.8021244 -0.5971571 -9.94807e-7 0.8021227 -0.5971592 -5.68485e-7 0.9182158 -0.3960805 0 0.9182161 -0.3960799 0 0.9848045 -0.173667 0 0.9848046 -0.1736664 0 0.9983071 0.05816388 1.65437e-7 0.998307 0.05816471 8.52699e-7 0.9579917 0.2867962 0 0.9579913 0.2867977 0 0.8660248 0.5000013 1.27904e-6 0.8660239 0.5000026 1.98967e-6 0.7273732 0.6862422 0 0.7273757 0.6862396 0 0.5495073 0.835489 0 0.5495072 0.8354892 0 0.3420096 0.9396964 -0.004202961 0.3344354 0.9424094 0.006393134 0.103915 0.9945657 0 0.1160811 0.9932398 0 -0.1160811 0.9932398 0 -0.3420096 0.9396965 0 -0.3420096 0.9396964 0 -0.5495072 0.8354892 0 -0.4119164 -0.9112218 0 -0.5599759 -0.828509 -2.45122e-6 -0.5599719 -0.8285117 -6.537e-6 -0.6919456 -0.7219498 0 -0.6919366 -0.7219583 0 -0.8039967 -0.5946339 -1.80509e-6 -0.8039976 -0.5946328 4.35767e-6 -0.892921 -0.4502135 0 -0.8929249 -0.4502057 0 -0.9561665 -0.292824 0 -0.9561664 -0.292824 0 -0.9919009 -0.1270146 0 -0.991901 -0.1270136 0 -0.9990994 0.04243153 0 -0.9990995 0.0424304 0 -0.9775524 0.210693 9.23324e-6 -0.9775564 0.2106739 8.44349e-6 -0.9278933 0.3728459 0 -0.9278878 0.3728597 0 -0.851531 0.5243045 -1.32654e-6 -0.8515288 0.5243078 4.63024e-6 -0.7506781 0.6606683 0 -0.7506835 0.6606622 0 -0.6282017 0.7780506 -4.63048e-6 -0.6282092 0.7780445 -1.08946e-6 -0.4877042 0.873009 0 -0.4877025 0.87301 0 -0.3331349 0.9428792 2.97814e-6 -0.3331406 0.9428772 7.08156e-6 -0.1689953 0.9856169 0 -0.1690076 0.9856148 0 0 1 0 0.169007 0.9856148 6.81067e-6 0.1689953 0.9856169 2.17902e-6 0.3331359 0.9428789 0 0.3331408 0.9428772 0 0.4877045 0.8730089 0 0.4877042 0.873009 0 0.628202 0.7780504 0 0.6282017 0.7780506 0 0.7506835 0.6606622 4.59497e-6 0.7506781 0.6606683 -1.36191e-6 0.8515304 0.5243052 0 0.8515294 0.5243071 0 0.9278929 0.3728472 7.65342e-6 0.9278878 0.3728597 8.78376e-6 0.9775565 0.2106739 0 0.9775525 0.2106922 0 0.9990994 0.0424304 0 0.9990994 0.04243153 0 0.9919009 -0.1270138 1.27673e-7 0.9919009 -0.1270146 2.72366e-7 0.9561664 -0.292824 0 0.9561666 -0.2928234 0 0.892921 -0.4502135 4.39268e-6 0.8929249 -0.4502057 -1.77038e-6 0.8039976 -0.5946328 0 0.8039967 -0.5946339 0 0.6919366 -0.7219583 0 0.6919369 -0.7219581 0 0.559989 -0.8285001 -8.01687e-6 0.5599762 -0.8285087 -2.72348e-6 0.411911 -0.9112241 0 0.4119166 -0.9112217 0 0.2519555 -0.9677389 6.66238e-6 0.2519677 -0.9677357 2.17904e-6 0.08481025 -0.9963972 0 0.08480602 -0.9963975 0 -0.08481025 -0.9963972 2.05339e-6 -0.08480602 -0.9963975 6.53684e-6 -0.2519677 -0.9677357 0 -0.2519555 -0.9677389 0 -0.4119165 -0.9112217 0.001700758 -0.7082604 -0.7059492 -0.01022684 -0.6522959 -0.7578955 5.10019e-4 -0.9349113 -0.3548813 -0.008604288 -0.9637126 -0.2668038 -0.006491601 0.2374262 -0.971384 0 0.1802607 -0.9836189 0 -0.2588055 -0.9659296 -0.01079267 -0.182305 -0.9831828 -0.01441973 0.9636561 -0.2667567 -0.004806578 0.7003265 -0.7138066 0.002689898 0.6658025 -0.7461231 -0.007659435 0.9658982 0.2588092 0.0177049 0.9998421 0.001547753 -0.007104396 0.7024685 0.7116794 0.003418624 0.7623037 0.6472104 -0.005834877 0.2494217 0.9683775 -0.007546603 -0.2588574 0.9658861 0 -0.1953316 0.9807373 0 0.2009285 0.9796059 -0.006059825 -0.7070997 0.707088 0.004432857 -0.9905401 0.1371522 -0.007869005 -0.9658967 0.2588083 0.002866685 -0.7572419 0.6531282 0.01848608 -0.8782896 -0.4777716 -0.005585432 -0.9659179 -0.2587886 0.001219451 -0.2587926 -0.9659323 0.001521825 -0.2610731 -0.9653179 -0.007807433 -0.7070472 -0.7071233 -0.01399868 0.7069993 -0.7070757 0.006752669 0.2587863 -0.965911 -0.008021533 0.3507808 -0.9364233 -0.001099467 0.9670358 0.2546384 -0.005817472 0.9659162 -0.2587895 0.01230067 0.9044919 -0.4263135 -0.01137197 0.7081745 0.7059459 0.0107426 0.9364448 0.3506507 -0.005512773 0.2588611 0.9658988 0.009084165 0.3963367 0.9180603 -0.005697727 -0.2588609 0.9658979 -0.005323529 -0.9649503 0.2623788 0.008995354 -0.9195975 0.392759 -0.00906074 -0.7075456 0.7066097 0.009706676 -0.4047002 0.9143979 -0.006441116 -0.9659136 -0.2587846 0.003277122 -0.792979 -0.6092404 -0.006606042 -0.7070716 -0.7071112 0.003375291 -0.3822374 -0.924058 -0.006838142 -0.2588449 -0.9658947 0.001212 0.7070853 -0.7071273 -0.004752516 0.7393072 -0.6733515 -0.002015054 0.2588497 -0.9659156 0.00536102 0.1963108 -0.9805271 -0.007903158 0.984718 -0.1739776 0.004736781 0.9659234 -0.258785 -0.01218348 0.9658626 0.2587684 -0.007201731 0.7070693 0.7071077 0.01204675 0.8503078 0.5261478 -0.005742549 0.2587603 0.9659245 0.004528582 0.3501546 0.936681 -0.005885362 -0.2587592 0.965924 -0.006967782 -0.7070722 0.7071071 0.005045592 -0.3563978 0.9343207 0.008528411 -0.9981814 -0.05967706 -0.0063259 -0.9659149 0.2587828 0.009247541 -0.8461698 0.5328332 -0.01002311 -0.9658837 -0.2587826 0.005405008 -0.7722074 -0.6353475 -0.004422664 -0.7071006 -0.7070992 -0.005855381 -0.2588604 -0.9658971 0.00928235 -0.1040489 -0.9945289 -0.009063899 0.2588542 -0.9658739 0.007887661 0.5621545 -0.8269946 -0.00684297 0.7070904 -0.7070901 0.001218557 0.9659269 0.2588125 -0.004751384 0.9527686 0.30366 -0.002010703 0.9659302 -0.2587952 0.005392193 0.9472402 -0.3204792 -0.006458878 0.25886 0.9658933 6.22635e-4 0.7070674 0.7071459 -0.007585346 0.6598799 0.7513328 -0.01111465 -0.2588487 0.9658539 0.006432592 0.1334487 0.9910349 -0.005740523 -0.7070572 0.7071331 0.01278316 -0.574431 0.8184533 0.01256561 -0.9960301 0.08812636 -0.00588423 -0.9659107 0.2588086 0.004534602 -0.9366837 -0.3501476 -0.006079435 -0.9659152 -0.2587879 -0.006837487 -0.7070909 -0.7070897 0.003389775 -0.6089992 -0.7931636 -0.00660938 -0.2588591 -0.9658926 0.003846168 -0.1235493 -0.992331 -0.006791532 0.2588594 -0.9658911 0.009027838 0.4654604 -0.8850228 -0.006355524 0.7070935 -0.7070915 0.008747398 0.8939966 -0.4479883 -0.006603538 0.9659112 -0.2587895 0.004227101 0.9865785 0.163233 -0.005879938 0.9659109 0.2588083 0 0.2588656 0.9659134 -0.007470488 0.1937794 0.9810167 0.001177489 0.7070677 0.707145 -0.004030346 0.6769109 0.736054 -0.01230901 -0.7070151 0.7070913 2.10425e-4 -0.2588651 0.9659135 0 -0.2603365 0.965518 -0.005970299 -0.9659106 0.2588071 0.01684695 -0.8923924 0.4509456 -0.005969226 -0.7070764 -0.707112 -0.006073892 -0.2588459 -0.9658995 0.004540145 -0.1651188 -0.9862633 -0.006840646 0.2588452 -0.9658946 0.01274693 0.4904343 -0.8713849 -0.01074784 0.7070448 -0.7070871 -0.002894043 0.9659305 -0.2587856 0.01336759 0.9926952 -0.1199076 -0.006870806 0.9659122 0.2587789 0.009850442 0.8056468 0.5923142 -0.005653679 0.7070776 0.7071135 -0.005507647 0.2587603 0.9659259 0.01758205 0.03670591 0.9991715 0.002299785 -0.7070876 0.7071223 0.002474606 -0.7061389 0.708069 -0.008728981 -0.2587538 0.9659039 0.01534664 -0.8291727 -0.5587821 -0.01207137 -0.965865 -0.2587645 0.00497657 -0.9659235 0.2587798 -0.008895516 -0.9860948 0.1659455 0.001168847 -0.9659322 -0.2587929 -0.007934868 -0.6421229 -0.7665607 0.004906475 -0.7070602 -0.7071364 -0.0120874 -0.2587732 -0.9658625 0.01756346 0.09633517 -0.995194 -0.003247201 0.2587917 -0.9659277 -0.01167339 0.7070208 -0.7070965 -0.002475678 0.9659295 -0.2587936 0.0200383 0.8996242 -0.436205 -0.00535506 0.7075638 0.7066293 0.01518678 0.8392022 0.5436075 -0.01155573 0.9648998 0.2623642 -0.005329251 0.2588614 0.9658998 -0.006231367 -0.2588598 0.9658949 0.002841472 0.1782172 0.9839872 -0.009960651 -0.7077586 0.7063842 0.005892753 -0.4031718 0.9151054 -0.005523324 -0.9510393 -0.3090207 -0.002688169 -0.96704 0.2546107 0.01384162 -0.920018 0.3916317 1 -5.71627e-6 -5.14708e-6 -1 0 0 1 0 0 1 0 0 1 0 0 1 0 0 1 0 0 1 0 0 1 0 0 1 0 0 -1 1.9611e-4 -1.15346e-4 -1 -7.55275e-6 8.19094e-6 1 4.10797e-6 -5.14064e-6 1 0 0 1 0 0 -0.9984822 -0.05319929 -0.0142551 -1 0 0 1 0 0 1 0 0 1 0 0 1 0 0 1 0 0 1 0 0 1 0 0 1 0 0 1 0 0 1 0 0 1 0 0 1 0 0 1 0 0 1 0 0 1 0 0 1 0 0 1 0 0 1 0 0 1 0 0 1 0 0 1 0 0 1 0 0 1 0 0 1 0 0 1 0 0 1 0 0 1 0 0 1 0 0 1 0 0 1 0 0 1 -3.57169e-7 2.08293e-6 1 2.54929e-7 5.63959e-7 1 -1.02967e-6 2.29726e-6 1 0 0 1 -1.28098e-5 3.96083e-6 1 0 -1.00747e-5 1 3.83906e-5 2.80067e-6 1 0 0 1 0 0 1 0 0 1 0 0 1 0 0 1 0 0 1 0 0 1 0 0 1 0 0 1 0 0 1 0 0 -1 0 0 1 0 0 1 0 0 1 0 0 -1 -1.13075e-6 8.80806e-6 -1 3.93405e-6 -1.71782e-5 1 0 0 -1 0 0 1 0 0 -0.9983978 0.05465859 -0.01464426 -1 0 0 1 0 0 1 0 0 1 0 0 1 -4.69514e-6 -1.92596e-6 1 3.73954e-7 -7.44579e-7 1 3.67942e-7 -7.49901e-7 1 -8.06872e-7 5.01456e-6 -1 3.36769e-6 -5.78473e-6 1 1.74977e-7 -2.3329e-6 -1 0 0 1 0 0 1 0 0 1 0 0 1 -1.81746e-4 1.07855e-4</float_array>
          <technique_common>
            <accessor source="#shape0_007-mesh-normals-array" count="752" stride="3">
              <param name="X" type="float"/>
              <param name="Y" type="float"/>
              <param name="Z" type="float"/>
            </accessor>
          </technique_common>
        </source>
        <vertices id="shape0_007-mesh-vertices">
          <input semantic="POSITION" source="#shape0_007-mesh-positions"/>
        </vertices>
        <triangles material="Material_001-material" count="840">
          <input semantic="VERTEX" source="#shape0_007-mesh-vertices" offset="0"/>
          <input semantic="NORMAL" source="#shape0_007-mesh-normals" offset="1"/>
          <p>17 0 20 0 0 0 17 0 0 0 1 0 1 1 0 1 2 1 1 2 2 2 4 2 6 0 7 0 20 0 20 3 7 3 3 3 20 4 3 4 0 4 37 0 14 0 4 0 4 5 14 5 5 5 4 6 5 6 1 6 6 0 8 0 7 0 7 7 8 7 22 7 7 8 22 8 9 8 9 9 25 9 7 9 7 10 25 10 27 10 7 0 27 0 10 0 10 11 27 11 28 11 10 0 28 0 30 0 37 0 11 0 14 0 14 12 11 12 12 12 14 13 12 13 13 13 13 14 39 14 14 14 14 15 39 15 40 15 14 0 40 0 15 0 15 16 40 16 16 16 15 17 16 17 42 17 1 18 18 18 17 18 17 19 18 19 19 19 17 20 19 20 20 20 20 21 19 21 49 21 20 22 49 22 6 22 6 23 49 23 21 23 6 24 21 24 8 24 8 25 21 25 23 25 8 26 23 26 22 26 22 27 23 27 24 27 22 28 24 28 9 28 9 29 24 29 26 29 9 30 26 30 25 30 25 31 26 31 47 31 25 32 47 32 27 32 27 33 47 33 29 33 27 34 29 34 28 34 28 35 29 35 31 35 28 36 31 36 30 36 30 37 31 37 32 37 30 38 32 38 10 38 10 39 32 39 33 39 10 40 33 40 7 40 7 41 33 41 45 41 7 42 45 42 3 42 3 43 45 43 46 43 3 44 46 44 0 44 0 45 46 45 34 45 0 46 34 46 2 46 2 47 34 47 35 47 2 48 35 48 4 48 4 49 35 49 59 49 4 50 59 50 37 50 37 51 59 51 36 51 37 52 36 52 11 52 11 53 36 53 38 53 11 54 38 54 12 54 12 55 38 55 58 55 12 56 58 56 13 56 13 57 58 57 44 57 13 58 44 58 39 58 39 59 44 59 57 59 39 60 57 60 40 60 40 61 57 61 56 61 40 62 56 62 16 62 16 63 56 63 41 63 16 64 41 64 42 64 42 65 41 65 55 65 42 66 55 66 15 66 15 67 55 67 43 67 15 68 43 68 14 68 14 69 43 69 53 69 14 70 53 70 5 70 5 71 53 71 54 71 5 72 54 72 1 72 1 73 54 73 18 73 45 74 93 74 46 74 33 75 73 75 45 75 45 76 73 76 93 76 73 77 33 77 94 77 94 78 33 78 32 78 29 79 72 79 31 79 31 80 72 80 32 80 32 81 72 81 94 81 72 82 29 82 71 82 71 83 29 83 47 83 26 84 69 84 47 84 47 85 69 85 71 85 69 86 26 86 48 86 48 87 26 87 24 87 48 88 24 88 67 88 67 89 24 89 23 89 21 90 87 90 23 90 23 91 87 91 67 91 49 92 87 92 21 92 19 93 50 93 49 93 49 94 50 94 87 94 50 95 19 95 51 95 51 96 19 96 52 96 51 97 52 97 117 97 117 98 52 98 54 98 43 99 85 99 53 99 85 100 115 100 53 100 53 101 115 101 54 101 54 102 115 102 117 102 85 103 43 103 113 103 113 104 43 104 55 104 56 105 109 105 41 105 109 106 110 106 41 106 41 107 110 107 55 107 55 108 110 108 113 108 109 109 56 109 57 109 109 110 57 110 107 110 44 111 107 111 57 111 107 112 44 112 105 112 105 113 44 113 58 113 105 114 58 114 106 114 106 115 58 115 38 115 36 116 101 116 38 116 38 117 101 117 106 117 101 118 36 118 59 118 101 119 59 119 102 119 102 120 59 120 35 120 93 121 98 121 46 121 46 122 98 122 60 122 60 123 98 123 61 123 60 124 61 124 35 124 35 125 61 125 102 125 175 126 144 126 97 126 173 127 175 127 96 127 172 128 173 128 96 128 171 129 172 129 74 129 157 130 171 130 92 130 62 131 157 131 92 131 167 132 62 132 70 132 65 133 163 133 68 133 78 134 180 134 108 134 182 135 108 135 180 135 186 136 188 136 132 136 64 137 190 137 191 137 63 138 114 138 186 138 63 139 186 139 133 139 133 140 186 140 132 140 115 141 63 141 64 141 64 142 63 142 133 142 64 143 133 143 190 143 87 144 50 144 86 144 87 145 86 145 66 145 65 146 68 146 66 146 66 147 89 147 87 147 87 148 89 148 67 148 66 149 68 149 89 149 89 150 90 150 67 150 67 151 90 151 48 151 48 152 90 152 69 152 88 153 167 153 70 153 71 154 70 154 91 154 71 155 91 155 72 155 70 156 92 156 91 156 92 157 171 157 74 157 74 158 96 158 91 158 91 159 96 159 94 159 94 160 96 160 95 160 94 161 95 161 73 161 73 162 95 162 93 162 95 163 99 163 93 163 97 164 75 164 99 164 99 165 100 165 102 165 75 166 140 166 103 166 103 167 76 167 100 167 100 168 76 168 101 168 103 169 104 169 79 169 76 170 79 170 77 170 106 171 77 171 105 171 104 172 78 172 79 172 79 173 108 173 77 173 77 174 108 174 105 174 182 175 82 175 108 175 108 176 82 176 83 176 108 177 83 177 80 177 80 178 111 178 81 178 81 179 111 179 110 179 81 180 110 180 109 180 112 181 84 181 111 181 111 182 84 182 114 182 113 183 114 183 85 183 64 184 65 184 86 184 86 185 50 185 116 185 116 186 50 186 117 186 65 187 66 187 86 187 65 188 64 188 192 188 192 189 64 189 191 189 71 190 69 190 90 190 88 191 90 191 89 191 88 192 89 192 68 192 88 193 68 193 127 193 88 194 70 194 90 194 90 195 70 195 71 195 94 196 72 196 91 196 92 197 70 197 62 197 92 198 74 198 91 198 74 199 172 199 96 199 99 200 98 200 93 200 96 201 175 201 97 201 96 202 97 202 95 202 95 203 97 203 99 203 98 204 99 204 102 204 144 205 140 205 97 205 97 206 140 206 75 206 99 207 75 207 103 207 99 208 103 208 100 208 100 209 101 209 102 209 106 210 101 210 77 210 77 211 101 211 76 211 79 212 76 212 103 212 104 213 103 213 140 213 81 214 107 214 105 214 81 215 105 215 80 215 80 216 105 216 108 216 108 217 79 217 78 217 81 218 109 218 107 218 111 219 80 219 112 219 112 220 80 220 83 220 111 221 114 221 110 221 110 222 114 222 113 222 115 223 85 223 63 223 63 224 85 224 114 224 186 225 114 225 84 225 64 226 116 226 115 226 115 227 116 227 117 227 64 228 86 228 116 228 220 229 118 229 219 229 219 230 118 230 119 230 220 229 222 229 118 229 118 231 222 231 223 231 118 229 223 229 205 229 205 232 223 232 203 232 124 229 214 229 207 229 207 233 214 233 215 233 209 234 211 234 212 234 118 235 206 235 119 235 119 236 206 236 207 236 119 237 207 237 216 237 216 229 207 229 215 229 203 229 223 229 122 229 122 238 223 238 120 238 122 229 120 229 193 229 121 239 123 239 198 239 198 240 123 240 197 240 193 229 194 229 122 229 122 229 194 229 123 229 122 241 123 241 199 241 199 242 123 242 121 242 124 243 207 243 212 243 212 244 207 244 208 244 212 245 208 245 209 245 248 246 139 246 143 246 293 247 165 247 125 247 163 248 126 248 68 248 68 249 126 249 286 249 68 250 286 250 127 250 286 251 128 251 127 251 227 252 166 252 129 252 291 253 130 253 227 253 291 254 227 254 129 254 291 255 290 255 130 255 130 256 290 256 125 256 125 257 290 257 293 257 241 258 302 258 131 258 131 259 302 259 294 259 187 260 295 260 132 260 131 261 294 261 187 261 132 262 295 262 296 262 132 263 296 263 134 263 132 264 134 264 133 264 133 265 134 265 190 265 190 266 134 266 299 266 135 267 189 267 300 267 135 268 300 268 136 268 135 269 136 269 241 269 241 270 136 270 302 270 148 271 258 271 246 271 140 272 253 272 137 272 137 273 253 273 256 273 137 274 256 274 104 274 104 275 256 275 258 275 143 276 139 276 138 276 141 277 253 277 140 277 138 278 139 278 141 278 138 279 141 279 140 279 148 280 246 280 245 280 148 281 245 281 142 281 142 282 245 282 250 282 142 283 250 283 143 283 143 284 250 284 248 284 144 285 269 285 145 285 144 286 145 286 140 286 140 287 145 287 267 287 146 288 147 288 233 288 269 289 144 289 147 289 147 290 144 290 175 290 235 291 263 291 146 291 235 292 146 292 233 292 177 293 260 293 176 293 176 294 260 294 235 294 235 295 260 295 263 295 78 296 328 296 178 296 78 297 178 297 180 297 104 298 323 298 322 298 104 299 322 299 78 299 78 300 322 300 328 300 150 301 319 301 148 301 148 302 319 302 323 302 104 303 258 303 148 303 104 304 148 304 323 304 178 305 329 305 179 305 179 306 329 306 149 306 149 307 329 307 316 307 149 308 316 308 317 308 149 309 317 309 150 309 150 310 317 310 319 310 112 311 83 311 154 311 151 312 153 312 156 312 156 313 153 313 152 313 152 314 153 314 305 314 307 315 154 315 83 315 152 316 305 316 307 316 112 317 154 317 155 317 112 318 155 318 84 318 84 319 155 319 310 319 310 320 311 320 184 320 184 321 311 321 151 321 184 322 151 322 156 322 157 323 158 323 171 323 171 324 158 324 282 324 171 325 282 325 272 325 160 326 273 326 159 326 159 327 270 327 160 327 160 328 270 328 161 328 161 329 270 329 276 329 161 330 276 330 230 330 230 331 276 331 280 331 280 332 169 332 230 332 158 333 157 333 281 333 281 334 157 334 62 334 162 335 164 335 65 335 65 336 164 336 163 336 163 337 164 337 125 337 163 338 125 338 165 338 163 339 165 339 126 339 128 340 166 340 127 340 127 341 166 341 227 341 127 342 227 342 88 342 88 343 227 343 228 343 88 344 228 344 168 344 88 345 168 345 167 345 167 346 168 346 229 346 167 347 229 347 62 347 62 348 229 348 230 348 62 349 230 349 169 349 62 350 169 350 281 350 272 351 273 351 171 351 171 352 273 352 160 352 171 353 160 353 170 353 171 354 170 354 172 354 172 355 170 355 232 355 172 356 232 356 173 356 173 357 232 357 174 357 173 358 174 358 175 358 175 359 174 359 233 359 175 360 233 360 147 360 140 361 267 361 138 361 267 362 177 362 138 362 138 363 177 363 176 363 179 364 236 364 182 364 180 365 178 365 179 365 180 366 179 366 182 366 181 367 183 367 83 367 83 368 82 368 181 368 181 369 82 369 236 369 236 370 82 370 182 370 152 371 307 371 83 371 152 372 83 372 183 372 184 373 238 373 84 373 84 374 310 374 184 374 185 375 239 375 188 375 188 376 186 376 185 376 185 377 186 377 238 377 238 378 186 378 84 378 131 379 187 379 132 379 131 380 132 380 239 380 239 381 132 381 188 381 135 382 242 382 191 382 299 383 189 383 190 383 190 384 189 384 135 384 190 385 135 385 191 385 65 386 192 386 162 386 162 387 192 387 242 387 242 388 192 388 191 388 223 389 344 389 120 389 120 390 344 390 331 390 120 391 331 391 193 391 193 392 331 392 194 392 331 393 330 393 194 393 194 394 330 394 195 394 194 395 195 395 123 395 123 396 195 396 196 396 123 397 196 397 197 397 197 398 196 398 337 398 197 399 337 399 198 399 198 400 337 400 200 400 198 401 200 401 121 401 121 402 200 402 199 402 200 403 339 403 199 403 199 404 339 404 201 404 199 405 201 405 122 405 122 406 201 406 202 406 122 407 202 407 203 407 203 408 202 408 204 408 203 409 204 409 205 409 205 410 204 410 340 410 205 410 340 410 118 410 118 411 340 411 407 411 118 412 407 412 206 412 206 413 407 413 207 413 407 414 406 414 207 414 207 415 406 415 405 415 207 416 405 416 208 416 208 417 405 417 403 417 208 418 403 418 209 418 209 419 403 419 210 419 209 420 210 420 211 420 211 421 210 421 212 421 210 422 341 422 212 422 212 423 341 423 342 423 212 424 342 424 124 424 124 425 342 425 214 425 342 426 213 426 214 426 214 427 213 427 346 427 214 428 346 428 215 428 215 429 346 429 345 429 215 430 345 430 216 430 216 431 345 431 217 431 216 432 217 432 119 432 119 433 217 433 219 433 217 434 343 434 219 434 219 435 343 435 218 435 219 436 218 436 220 436 220 437 218 437 221 437 220 437 221 437 222 437 222 438 221 438 224 438 222 439 224 439 223 439 223 440 224 440 344 440 225 441 130 441 125 441 130 442 225 442 227 442 227 443 225 443 358 443 227 444 358 444 226 444 227 445 226 445 228 445 228 446 226 446 359 446 228 447 359 447 168 447 168 448 359 448 361 448 168 449 361 449 229 449 229 450 361 450 230 450 361 451 365 451 230 451 230 452 365 452 364 452 230 453 364 453 161 453 161 454 364 454 363 454 161 455 363 455 160 455 160 456 363 456 368 456 160 457 368 457 170 457 170 458 368 458 231 458 170 459 231 459 232 459 232 460 231 460 234 460 232 461 234 461 174 461 174 462 234 462 233 462 233 463 234 463 369 463 233 464 369 464 235 464 235 465 369 465 415 465 235 466 415 466 176 466 415 467 370 467 176 467 176 468 370 468 371 468 176 469 371 469 138 469 138 470 371 470 143 470 371 471 373 471 143 471 143 472 373 472 377 472 143 472 377 472 142 472 142 473 377 473 376 473 142 474 376 474 148 474 148 475 376 475 379 475 148 476 379 476 150 476 150 477 379 477 412 477 150 478 412 478 149 478 149 479 412 479 179 479 412 480 383 480 179 480 179 481 383 481 382 481 179 482 382 482 236 482 236 483 382 483 381 483 236 484 381 484 181 484 181 485 381 485 380 485 181 486 380 486 183 486 183 487 380 487 152 487 380 488 237 488 152 488 152 489 237 489 333 489 152 490 333 490 156 490 156 491 333 491 332 491 156 492 332 492 184 492 184 493 332 493 238 493 332 494 385 494 238 494 238 495 385 495 386 495 238 496 386 496 185 496 185 497 386 497 239 497 386 498 240 498 239 498 239 499 240 499 387 499 239 500 387 500 131 500 131 501 387 501 397 501 131 502 397 502 241 502 241 503 397 503 395 503 241 504 395 504 135 504 135 505 395 505 347 505 135 506 347 506 242 506 242 507 347 507 243 507 242 508 243 508 244 508 244 509 243 509 355 509 244 510 355 510 164 510 164 511 355 511 125 511 125 512 355 512 356 512 125 513 356 513 225 513 374 514 375 514 250 514 250 515 245 515 374 515 374 516 245 516 246 516 374 517 246 517 410 517 378 518 248 518 247 518 247 519 248 519 249 519 247 520 249 520 375 520 375 521 249 521 250 521 252 522 139 522 372 522 372 523 139 523 378 523 378 524 139 524 248 524 251 525 141 525 252 525 252 526 141 526 139 526 398 527 253 527 251 527 251 528 253 528 141 528 254 529 253 529 398 529 257 530 256 530 254 530 254 531 256 531 255 531 254 532 255 532 253 532 399 533 256 533 257 533 410 534 246 534 258 534 410 535 258 535 399 535 399 536 258 536 256 536 400 537 177 537 267 537 400 538 267 538 408 538 261 539 259 539 260 539 260 540 177 540 261 540 261 541 177 541 400 541 264 542 263 542 262 542 262 543 263 543 259 543 259 544 263 544 260 544 402 545 146 545 401 545 401 546 146 546 264 546 264 547 146 547 263 547 265 548 147 548 402 548 402 549 147 549 146 549 266 550 269 550 265 550 265 551 269 551 147 551 404 552 269 552 266 552 408 553 267 553 268 553 268 554 267 554 145 554 268 555 145 555 404 555 404 556 145 556 269 556 271 557 282 557 283 557 282 558 271 558 272 558 272 559 271 559 367 559 272 560 367 560 273 560 273 561 367 561 274 561 362 562 270 562 275 562 270 563 159 563 275 563 275 564 159 564 274 564 274 565 159 565 273 565 270 566 362 566 276 566 276 567 362 567 277 567 276 568 277 568 278 568 279 569 280 569 278 569 278 570 280 570 276 570 366 571 169 571 279 571 279 572 169 572 280 572 360 573 169 573 366 573 284 574 281 574 360 574 360 575 281 575 169 575 282 576 158 576 283 576 283 577 158 577 284 577 284 578 158 578 281 578 285 579 126 579 351 579 126 580 285 580 286 580 286 581 285 581 353 581 286 582 353 582 287 582 286 583 287 583 128 583 128 584 287 584 288 584 128 585 288 585 166 585 166 586 288 586 352 586 350 587 357 587 291 587 291 588 129 588 350 588 350 589 129 589 352 589 352 590 129 590 166 590 292 591 290 591 289 591 289 592 290 592 357 592 357 593 290 593 291 593 349 594 293 594 292 594 292 595 293 595 290 595 348 596 165 596 349 596 349 597 165 597 293 597 351 598 126 598 165 598 351 599 165 599 348 599 393 600 187 600 294 600 393 601 294 601 394 601 187 602 393 602 392 602 187 603 392 603 295 603 295 604 392 604 297 604 295 605 297 605 296 605 296 606 297 606 298 606 296 607 298 607 134 607 134 608 298 608 390 608 134 609 390 609 299 609 299 610 390 610 391 610 299 611 391 611 189 611 189 612 391 612 389 612 388 613 303 613 136 613 136 614 300 614 388 614 388 615 300 615 389 615 389 616 300 616 189 616 301 617 302 617 396 617 396 618 302 618 303 618 303 619 302 619 136 619 394 620 294 620 301 620 301 621 294 621 302 621 304 622 305 622 334 622 305 623 304 623 306 623 305 624 306 624 307 624 307 625 306 625 335 625 307 626 335 626 154 626 154 627 335 627 336 627 154 628 336 628 338 628 154 629 338 629 155 629 155 630 338 630 308 630 155 631 308 631 310 631 310 632 308 632 309 632 310 633 309 633 384 633 310 634 384 634 311 634 312 635 151 635 313 635 151 636 311 636 313 636 313 637 311 637 384 637 305 638 153 638 334 638 334 639 153 639 314 639 314 640 153 640 312 640 312 641 153 641 151 641 315 642 316 642 413 642 316 643 315 643 317 643 317 644 315 644 318 644 317 645 318 645 411 645 317 646 411 646 319 646 319 647 411 647 320 647 319 648 320 648 321 648 324 649 323 649 321 649 321 650 323 650 319 650 326 651 322 651 409 651 409 652 322 652 323 652 409 653 323 653 324 653 325 654 322 654 326 654 327 655 328 655 325 655 325 656 328 656 322 656 414 657 178 657 327 657 327 658 178 658 328 658 316 659 329 659 413 659 413 660 329 660 414 660 414 661 329 661 178 661 252 662 372 662 371 662 330 663 331 663 344 663 343 0 344 0 221 0 221 0 344 0 224 0 384 229 309 229 344 229 330 0 344 0 195 0 195 229 344 229 309 229 195 664 309 664 308 664 313 665 332 665 312 665 312 229 332 229 314 229 314 229 332 229 333 229 314 229 333 229 334 229 334 229 333 229 237 229 334 229 237 229 304 229 304 666 237 666 380 666 304 229 380 229 306 229 335 667 412 667 336 667 336 668 412 668 337 668 336 229 337 229 338 229 338 229 337 229 196 229 338 669 196 669 308 669 308 229 196 229 195 229 412 670 200 670 337 670 325 229 200 229 327 229 327 671 200 671 412 671 327 672 412 672 414 672 409 673 412 673 202 673 409 674 202 674 326 674 326 229 202 229 201 229 326 229 201 229 325 229 325 675 201 675 339 675 325 676 339 676 200 676 340 229 412 229 407 229 340 229 204 229 412 229 412 229 204 229 202 229 402 677 264 677 265 677 265 229 264 229 210 229 265 229 210 229 266 229 341 0 210 0 342 0 342 678 210 678 345 678 343 0 217 0 344 0 344 0 217 0 345 0 345 0 346 0 213 0 347 229 344 229 354 229 348 229 349 229 355 229 355 229 349 229 292 229 355 679 292 679 356 679 352 0 345 0 350 0 350 680 345 680 358 680 344 229 285 229 351 229 352 681 288 681 345 681 345 229 288 229 287 229 345 229 287 229 344 229 344 229 287 229 353 229 344 682 353 682 285 682 354 229 344 229 355 229 355 683 344 683 351 683 355 684 351 684 348 684 356 685 292 685 225 685 225 229 292 229 289 229 225 686 289 686 358 686 358 687 289 687 357 687 358 688 357 688 350 688 358 689 345 689 226 689 345 690 359 690 226 690 360 691 361 691 345 691 345 229 361 229 359 229 275 692 368 692 362 692 362 229 368 229 363 229 362 693 363 693 277 693 277 694 363 694 364 694 277 695 364 695 278 695 278 696 364 696 365 696 278 697 365 697 279 697 279 698 365 698 361 698 279 229 361 229 366 229 366 229 361 229 360 229 274 229 367 229 210 229 367 229 271 229 210 229 210 699 271 699 283 699 210 229 283 229 345 229 345 700 283 700 284 700 345 701 284 701 360 701 275 702 274 702 368 702 368 229 274 229 210 229 368 229 210 229 231 229 415 703 369 703 264 703 264 704 369 704 234 704 264 705 234 705 210 705 210 706 234 706 231 706 415 707 264 707 370 707 370 708 264 708 371 708 371 709 372 709 373 709 374 710 412 710 376 710 374 711 376 711 375 711 375 712 376 712 377 712 375 713 377 713 378 713 378 714 377 714 373 714 378 715 373 715 372 715 412 716 379 716 376 716 380 229 412 229 335 229 380 717 335 717 306 717 380 718 381 718 412 718 412 719 381 719 382 719 412 720 382 720 383 720 313 721 384 721 332 721 332 229 384 229 344 229 332 722 344 722 385 722 385 229 344 229 386 229 397 723 387 723 344 723 344 724 387 724 240 724 344 725 240 725 386 725 388 229 389 229 347 229 390 726 298 726 344 726 344 229 298 229 297 229 344 229 297 229 392 229 347 229 389 229 344 229 344 727 389 727 391 727 344 229 391 229 390 229 392 728 393 728 344 728 344 0 393 0 394 0 344 0 394 0 397 0 397 229 394 229 301 229 397 729 301 729 396 729 388 229 347 229 303 229 303 730 347 730 395 730 303 229 395 229 396 229 396 229 395 229 397 229 412 731 398 731 251 731 410 229 399 229 412 229 412 229 399 229 257 229 412 732 257 732 398 732 400 733 412 733 371 733 371 734 412 734 251 734 371 735 251 735 252 735 401 736 264 736 402 736 264 737 262 737 259 737 264 229 259 229 371 229 371 738 259 738 261 738 371 739 261 739 400 739 210 229 403 229 266 229 266 229 403 229 405 229 266 229 405 229 404 229 404 740 405 740 406 740 404 741 406 741 268 741 268 742 406 742 407 742 268 743 407 743 412 743 268 744 412 744 408 744 408 229 412 229 400 229 409 745 324 745 412 745 410 746 412 746 374 746 324 0 321 0 412 0 412 747 321 747 320 747 412 748 320 748 411 748 412 749 411 749 318 749 318 229 315 229 412 229 412 750 315 750 413 750 412 751 413 751 414 751 213 0 342 0 345 0</p>
        </triangles>
      </mesh>
    </geometry>
  </library_geometries>
  <library_visual_scenes>
    <visual_scene id="Scene" name="Scene">
      <node id="node" name="node" type="NODE">
        <matrix sid="transform">1 0 0 0 0 1 0 0 0 0 1 0 0 0 0 1</matrix>
        <instance_geometry url="#shape0_007-mesh" name="node">
          <bind_material>
            <technique_common>
              <instance_material symbol="Material_001-material" target="#Material_001-material"/>
            </technique_common>
          </bind_material>
        </instance_geometry>
      </node>
    </visual_scene>
  </library_visual_scenes>
  <scene>
    <instance_visual_scene url="#Scene"/>
  </scene>
</COLLADA>