<?xml version="1.0" encoding="utf-8"?>
<COLLADA xmlns="http://www.collada.org/2005/11/COLLADASchema" version="1.4.1" xmlns:xsi="http://www.w3.org/2001/XMLSchema-instance">
  <asset>
    <contributor>
      <author>Blender User</author>
      <authoring_tool>Blender 2.82.7</authoring_tool>
    </contributor>
    <created>2023-09-19T11:32:31</created>
    <modified>2023-09-19T11:32:31</modified>
    <unit name="meter" meter="1"/>
    <up_axis>Z_UP</up_axis>
  </asset>
  <library_effects>
    <effect id="RAL2003_009-effect">
      <profile_COMMON>
        <technique sid="common">
          <lambert>
            <emission>
              <color sid="emission">0 0 0 1</color>
            </emission>
            <diffuse>
              <color sid="diffuse">0.512 0.2088141 0.07027201 1</color>
            </diffuse>
            <index_of_refraction>
              <float sid="ior">1</float>
            </index_of_refraction>
          </lambert>
        </technique>
      </profile_COMMON>
    </effect>
  </library_effects>
  <library_images/>
  <library_materials>
    <material id="RAL2003_009-material" name="RAL2003.009">
      <instance_effect url="#RAL2003_009-effect"/>
    </material>
  </library_materials>
  <library_geometries>
    <geometry id="Link_5_001-mesh" name="Link 5.001">
      <mesh>
        <source id="Link_5_001-mesh-positions">
          <float_array id="Link_5_001-mesh-positions-array" count="2367">0.0265178 0.06999999 0.04524123 0.01600968 0.06999999 0.0495001 0.01187497 0.06999999 0.05054521 0.02138149 0.06999999 0.04765999 0.004822313 0.06999999 0.05136311 5.58734e-4 0.06999999 0.05148005 0.01046746 0.06999999 0.05073916 0.006242811 0.06999999 0.05132424 0.01738709 0.06999999 0.04915225 0.02271217 0.06999999 0.04716229 -8.57294e-4 0.06999999 0.05136311 0.0358383 0.06999999 0.03879117 0.03254592 0.06999999 0.04149723 0.03990912 0.06999999 0.03483927 0.03693515 0.06999999 0.03789019 0.03135633 0.06999999 0.04227221 0.02778571 0.06999999 0.04460012 0.04351973 0.06999999 0.03046429 0.04090011 0.06999999 0.03382325 0.05335581 0.06999999 0.004246234 -0.02739197 0.06999999 0.04227423 -0.03082859 0.06999999 0.03975415 -0.0225532 0.06999999 0.04524219 -0.02624696 0.06999999 0.04311418 0.04662615 0.06999999 0.02571928 0.04439246 0.06999999 0.02934527 0.04919046 0.06999999 0.02066218 0.04737019 0.06999999 0.02451121 0.05118185 0.06999999 0.01535415 0.04979699 0.06999999 0.01938009 0.05257594 0.06999999 0.009860157 0.05164319 0.06999999 0.01401317 -0.01741677 0.06999999 0.04766118 -0.0213226 0.06999999 0.04595112 0.0528866 0.06999999 0.00847721 -0.02968364 0.06999999 -0.04059386 0.0289753 0.06999999 -0.04382479 0.03254592 0.06999999 -0.04149687 0.02398008 0.06999999 -0.0465219 0.02778571 0.06999999 -0.04459989 -0.01475924 0.06999999 -0.04865384 -0.0250163 0.06999999 -0.04382288 -0.02002131 0.06999999 -0.04652082 0.03364282 0.06999999 -0.04059481 -0.03396648 0.06999999 -0.03687083 -0.03082859 0.06999999 -0.03975379 -0.03781324 0.06999999 -0.03270077 -0.03501206 0.06999999 -0.03591072 -0.03594535 0.06999999 0.03484117 -0.03874641 0.06999999 0.03163218 -0.03187406 0.06999999 0.0387932 -0.03501206 0.06999999 0.03591108 -0.01204478 0.06999999 0.04950118 -0.01611548 0.06999999 0.04823017 -0.006502568 0.06999999 0.05074012 -0.01068854 0.06999999 0.04992425 -0.005107939 0.06999999 0.05101215 0.01871794 0.06999999 -0.04865479 0.02271217 0.06999999 -0.04716181 -0.01068854 0.06999999 -0.04992377 -0.0213226 0.06999999 -0.04595077 -0.04117667 0.06999999 -0.02813374 -0.03874641 0.06999999 -0.03163182 -0.04401642 0.06999999 -0.02322578 -0.0419864 0.06999999 -0.02696883 -0.04629772 0.06999999 -0.01803576 -0.04469275 0.06999999 -0.02197873 -0.04939395 0.06999999 0.004250168 0.0417729 0.06999999 -0.03270387 0.04439246 0.06999999 -0.02934479 0.03792607 0.06999999 -0.03687274 0.04090011 0.06999999 -0.03382289 0.01325249 0.06999999 -0.05019676 0.01738709 0.06999999 -0.04915189 0.007650256 0.06999999 -0.05112874 0.01187497 0.06999999 -0.05054473 0.001979231 0.06999999 -0.05144083 0.006242811 0.06999999 -0.05132389 -0.003691852 0.06999999 -0.05112874 5.58734e-4 0.06999999 -0.05147981 -0.009293854 0.06999999 -0.05019581 -0.005107939 0.06999999 -0.0510118 -0.01611548 0.06999999 -0.04822981 -0.02624696 0.06999999 -0.0431137 -0.04799306 0.06999999 -0.01262676 -0.04683244 0.06999999 -0.01672184 -0.04908162 0.06999999 -0.007063865 -0.04837971 0.06999999 -0.01126182 -0.03955614 0.06999999 0.03046715 0.05351215 0.06999999 -0.001418828 0.05351215 0.06999999 0.002837181 0.05304294 0.06999999 -0.007066726 0.05351215 0.06999999 -0.002836823 0.05025833 0.06999999 -0.01803886 0.05164319 0.06999999 -0.01401281 0.04797673 0.06999999 -0.02322876 0.04979699 0.06999999 -0.01937985 0.04513669 0.06999999 -0.02813684 0.04737019 0.06999999 -0.02451086 -0.04955059 0.06999999 -0.001415729 -0.04931557 0.06999999 -0.005664825 -0.04962879 0.06999999 1.19209e-7 -0.04721909 0.06999999 0.0153582 -0.04837971 0.06999999 0.01126217 -0.0452274 0.06999999 0.02066516 -0.04683244 0.06999999 0.0167222 -0.04266273 0.06999999 0.02572214 -0.04469275 0.06999999 0.02197909 -0.0419864 0.06999999 0.02696919 0.05195397 0.06999999 -0.01262986 0.0528866 0.06999999 -0.008476853 0.03693515 0.06999999 -0.03788983 -0.0486136 0.06999999 0.009863138 -0.04931557 0.06999999 0.005665183 -0.00369662 0.07414388 -0.0511868 0.0019809 0.07414388 -0.05149984 -0.009305238 0.07414388 -0.05025374 -0.0147767 0.07414388 -0.04870998 -0.02004486 0.07414388 -0.04657387 -0.02504581 0.07414388 -0.04387378 -0.02971839 0.07414388 -0.04064083 -0.03400641 0.07414388 -0.03691387 -0.03785753 0.07414388 -0.03273987 -0.04122507 0.07414388 -0.02816784 -0.04406809 0.07414388 -0.02325379 -0.0463522 0.07414388 -0.01805782 -0.04804956 0.07414388 -0.01264178 -0.04913967 0.07414388 -0.007073879 -0.0496093 0.07414388 -0.001418828 -0.04945254 0.07414388 0.004253149 -0.04867154 0.07414388 0.009873151 -0.0472756 0.07414388 0.01537418 -0.04528188 0.07414388 0.0206871 -0.04271447 0.07414388 0.02575016 -0.03960448 0.07414388 0.03050017 -0.03598964 0.07414388 0.03488016 -0.03191387 0.07414388 0.03883719 -0.02742671 0.07414388 0.04232215 -0.0225827 0.07414388 0.04529321 -0.01744031 0.07414388 0.04771423 -0.01206225 0.07414388 0.04955708 -0.006513774 0.07414388 0.05079817 -8.62122e-4 0.07414388 0.05142223 0.004823982 0.07414388 0.05142223 0.01047551 0.07414388 0.05079817 0.01602405 0.07414388 0.04955708 0.02140218 0.07414388 0.04771423 0.02654439 0.07414388 0.04529321 0.03138846 0.07414388 0.04232215 0.03587567 0.07414388 0.03883719 0.03995132 0.07414388 0.03488016 0.04356616 0.07414388 0.03050017 0.04667627 0.07414388 0.02575016 0.04924368 0.07414388 0.0206871 0.0512374 0.07414388 0.01537418 0.05263322 0.07414388 0.009873151 0.05341428 0.07414388 0.004253149 0.05359059 0.07414388 1.19209e-7 0.05357098 0.07414388 -0.001418828 0.05310142 0.07414388 -0.007073879 0.05201131 0.07414388 -0.01264178 0.05031394 0.07414388 -0.01805782 0.04802978 0.07414388 -0.02325379 0.04518675 0.07414388 -0.02816784 0.04181921 0.07414388 -0.03273987 0.03796815 0.07414388 -0.03691387 0.03368026 0.07414388 -0.04064083 0.02900749 0.07414388 -0.04387378 0.02400678 0.07414388 -0.04657387 0.01873856 0.07414388 -0.04870998 0.01326692 0.07414388 -0.05025374 0.007658362 0.07414388 -0.0511868 -0.0146144 0.07414388 0.0599972 0.05690348 0.07414388 0.04283308 0.03799557 0.07414388 0.05160319 0.01910203 0.07414388 0.0599972 -0.03172171 0.07414388 0.05292618 -0.05162203 0.07414388 0.03306829 -0.05870813 0.07414388 0.01599717 -0.05870813 0.07414388 -0.01600277 -0.05162203 0.07414388 -0.0330739 -0.03172171 0.07414388 -0.05293178 0.03799557 0.07414388 -0.0516088 0.05690348 0.07414388 -0.04283881 0.01910203 0.07414388 -0.0600028 -0.0146144 0.07414388 -0.0600028 0.06392943 0.07414388 -0.04610776 0.06392943 0.07414388 0.04610216 -0.0146144 0.094603 0.0599972 -0.03172171 0.094603 0.05292618 -0.04717272 0.09942048 0.03750813 -0.05162203 0.09780454 0.03306829 -0.05870813 0.09523087 -0.01600277 -0.05162203 0.09780454 -0.0330739 -0.05870813 0.09523087 0.01599717 -0.04717272 0.09942048 -0.03751373 -0.03172171 0.094603 -0.05293178 -0.0146144 0.094603 -0.0600028 -0.0286442 0.10615 0.03255009 -0.0286442 0.10615 -0.03255581 -0.01062762 0.10615 0.03999722 0.01910203 0.094603 0.0599972 -0.01062762 0.10615 -0.04000282 0.01910203 0.094603 -0.0600028 0.01484203 0.10615 -0.04000282 0.03799557 0.094603 -0.0516088 0.03144353 0.10615 -0.03262686 0.06838256 0.09088182 -0.04516386 0.01484203 0.10615 0.03999722 0.03144353 0.10615 0.03262126 0.03799557 0.094603 0.05160319 0.06838256 0.09088182 0.04515826 0.08638435 0.04457944 -0.04134583 0.08176344 0.04457944 -0.03919577 0.08176344 0.04457944 0.03918921 0.08638435 0.04457944 0.04133927 0.0773521 0.02472317 -0.03714287 0.0773521 0.02472317 0.03713726 0.04873645 -0.01386696 -0.02382779 0.04873645 -0.01386696 0.02382123 0.04300808 -0.03965097 -0.02116191 0.04300808 -0.03965097 0.02115619 0.08638435 -0.04899996 -0.04134583 0.04300808 -0.04899996 -0.02116191 0.08638435 -0.04899996 0.04133927 0.04300808 -0.04899996 0.02115619 0.08761793 -0.04899996 0.0410782 0.08761793 0.07509493 0.0410782 0.07421249 0.0884723 0.04392111 0.07421249 0.0884723 -0.04392671 0.08761793 0.07509493 -0.04108381 0.08761793 -0.04899996 -0.04108381 0.07969599 0.083 -0.03399991 0.07969599 0.083 0.01100015 0.1136181 0.04914999 0.04612123 0.1136181 0.04914999 -0.04612684 0.07421249 0.0884723 -0.03399991 0.07421249 0.0884723 0.01100015 0.1136181 0.0470165 -0.006762862 0.1136181 0.04593944 -0.01207888 0.1136181 0.04067653 0.02452623 0.1136181 0.04320752 0.01972913 0.1136181 0.0392099 -0.02681386 0.1136181 0.03589808 -0.03110873 0.1136181 0.04426354 -0.01723587 0.1136181 0.04732573 0.004062175 0.1136181 0.04748058 -0.00135982 0.1136181 0.04517513 0.01467514 0.1136181 0.03406375 0.0331012 0.1136181 0.03761535 0.02900314 0.1136181 0.03211826 -0.03499782 0.1136181 0.02791976 -0.0384308 0.1136181 0.04201054 -0.02216994 0.1136181 0.0465539 0.00943005 0.1136181 0.01849031 -0.04375588 0.1136181 0.01338225 -0.04557883 0.1136181 0.02335727 -0.04136371 0.1136181 0.02568042 0.03995621 0.1136181 0.03006803 0.03676915 0.1136181 0.01135009 0.04612123 0.1136181 0.0159623 0.04473412 0.1136181 0.020958 0.04262316 0.1136181 0.01135009 -0.04612684 0.0671193 0.083 -0.03399991 0.0671193 0.09140402 -0.03399991 0.0671193 0.083 0.01100015 0.0671193 0.09140402 0.01100015 0.06411296 0.09264659 -0.03099989 0.06411296 0.09264659 0.008000135 0.06411296 0.083 0.008000135 0.06411296 0.083 -0.03099989 0.07035368 0.083 -0.02412176 0.07035368 0.083 0.001122236 0.07112783 0.083 0.001000165 0.07190197 0.083 0.001122236 0.07190197 0.083 -0.02412176 0.07112783 0.083 -0.02399992 0.06874513 0.083 0.00272715 0.06965517 0.083 0.005523204 0.07190197 0.083 0.00587821 0.07112783 0.083 0.006000161 0.06874513 0.083 -0.02572679 0.07260006 0.083 -0.02447676 0.06910103 0.083 0.002031087 0.06965517 0.083 0.001477122 0.06862252 0.083 0.003500103 0.06910103 0.083 0.004969239 0.06874513 0.083 0.004273176 0.07035368 0.083 0.00587821 0.06910103 0.083 -0.02503073 0.06965517 0.083 -0.02447676 0.07112783 0.083 -0.02899992 0.06910103 0.083 -0.02796888 0.06965517 0.083 -0.02852284 0.07260006 0.083 0.005523204 0.07351094 0.083 0.00272715 0.07363313 0.083 0.003500103 0.07363313 0.083 -0.02649986 0.07351094 0.083 -0.02572679 0.07035368 0.083 -0.02887785 0.06862252 0.083 -0.02649986 0.06874513 0.083 -0.02727282 0.07351094 0.083 0.004273176 0.07315522 0.083 -0.02503073 0.07315522 0.083 0.002031087 0.07260006 0.083 0.001477122 0.07351094 0.083 -0.02727282 0.07190197 0.083 -0.02887785 0.07315522 0.083 0.004969239 0.07315522 0.083 -0.02796888 0.07260006 0.083 -0.02852284 0.07351094 0.07300001 -0.02727282 0.07363313 0.07300001 -0.02649986 0.07315522 0.07300001 -0.02796888 0.07260006 0.07300001 -0.02852284 0.07190197 0.07300001 -0.02887785 0.07112783 0.07300001 -0.02899992 0.07035368 0.07300001 -0.02887785 0.06965517 0.07300001 -0.02852284 0.06910103 0.07300001 -0.02796888 0.06874513 0.07300001 -0.02727282 0.06862252 0.07300001 -0.02649986 0.06874513 0.07300001 -0.02572679 0.06910103 0.07300001 -0.02503073 0.06965517 0.07300001 -0.02447676 0.07035368 0.07300001 -0.02412176 0.07112783 0.07300001 -0.02399992 0.07190197 0.07300001 -0.02412176 0.07260006 0.07300001 -0.02447676 0.07315522 0.07300001 -0.02503073 0.07351094 0.07300001 -0.02572679 0.07351094 0.07300001 0.00272715 0.07363313 0.07300001 0.003500103 0.07315522 0.07300001 0.002031087 0.07260006 0.07300001 0.001477122 0.07190197 0.07300001 0.001122236 0.07112783 0.07300001 0.001000165 0.07035368 0.07300001 0.001122236 0.06965517 0.07300001 0.001477122 0.06910103 0.07300001 0.002031087 0.06874513 0.07300001 0.00272715 0.06862252 0.07300001 0.003500103 0.06874513 0.07300001 0.004273176 0.06910103 0.07300001 0.004969239 0.06965517 0.07300001 0.005523204 0.07035368 0.07300001 0.00587821 0.07112783 0.07300001 0.006000161 0.07190197 0.07300001 0.00587821 0.07260006 0.07300001 0.005523204 0.07315522 0.07300001 0.004969239 0.07351094 0.07300001 0.004273176 0.0985642 -0.04899996 0.0432012 0.1136181 -0.01135009 0.04612123 0.1136181 -0.04949998 0.04612123 0.0985642 -0.04949998 0.0432012 0.1136181 -0.005414545 0.04718708 0.1136181 0 0.04749715 0.1136181 0.005414545 0.04718708 0.1136181 0.01075857 0.04626226 0.1136181 -0.01075857 0.04626226 0.1025115 -0.04949998 0.04156923 0.1136181 -0.04949998 0.03048622 0.0828889 -0.04899996 0.04968011 0.0828889 -0.07099997 0.04968011 0.1025115 -0.07099997 0.04156923 0.03468984 -0.04899996 0.05924725 0.03468984 -0.07099997 0.05924725 -0.01441448 -0.04899996 0.05924725 -0.01441448 -0.07099997 0.05924725 -0.03152197 -0.04899996 0.05217611 -0.03152197 -0.07099997 0.05217611 -0.05042004 -0.04899996 0.03331828 -0.05042004 -0.07099997 0.03331828 -0.05750608 -0.04899996 0.01624715 -0.05750608 -0.07099997 0.01624715 -0.05750608 -0.04899996 -0.01625275 -0.05750608 -0.07099997 -0.01625275 -0.05042004 -0.04899996 -0.03332388 -0.05042004 -0.07099997 -0.03332388 -0.03152197 -0.07099997 -0.05218172 -0.03152197 -0.04899996 -0.05218172 -0.01441448 -0.04899996 -0.05925285 -0.01441448 -0.07099997 -0.05925285 0.03468984 -0.04899996 -0.05925285 0.03468984 -0.07099997 -0.05925285 0.0828889 -0.04899996 -0.04968583 0.0828889 -0.07099997 -0.04968583 -0.03241896 -0.04899996 0.003453135 -0.03257328 -0.04899996 -0.001152873 0.02683305 -0.04899996 0.02398419 0.02340775 -0.04899996 0.02707612 -0.02442121 -0.04899996 -0.02227377 -0.02121055 -0.04899996 -0.02558684 -0.03104025 -0.04899996 -0.01022183 -0.02938038 -0.04899996 -0.01452183 -0.03165084 -0.04899996 0.007998228 -0.02833825 -0.04899996 0.0165801 -0.03028237 -0.04899996 0.01240015 0.02981495 -0.04899996 0.02046525 0.02838307 -0.04899996 -0.02227377 0.03112256 -0.04899996 -0.01856386 -0.01361221 -0.04899996 -0.03079187 -0.02716088 -0.04899996 -0.01856386 -0.03211098 -0.04899996 -0.005737781 0.01960009 -0.04899996 0.02968418 0.03230005 -0.04899996 0.0165801 0.03334206 -0.04899996 -0.01452183 0.03500211 -0.04899996 -0.01022183 0.02517223 -0.04899996 -0.02558684 0.01757389 -0.04899996 -0.03079187 -0.01758587 -0.04899996 -0.02844285 -0.01944601 -0.04899996 0.02707612 -0.02287137 -0.04899996 0.02398419 0.03561252 -0.04899996 0.007998228 0.03424423 -0.04899996 0.01240015 0.01332175 -0.04899996 -0.03259086 -0.01563841 -0.04899996 0.02968418 -0.01151627 -0.04899996 0.03176224 -0.002627372 -0.04899996 0.0341922 -0.007153272 -0.04899996 0.03327417 0.01547807 -0.04899996 0.03176224 0.01111501 -0.04899996 0.03327417 0.02154761 -0.04899996 -0.02844285 0.008867561 -0.04899996 -0.03380882 -3.28362e-4 -0.04899996 -0.03442287 0.004290044 -0.04899996 -0.03442287 -0.009360074 -0.04899996 -0.03259086 -0.0049057 -0.04899996 -0.03380882 -0.02585315 -0.04899996 0.02046525 0.0019809 -0.04899996 0.03450012 0.03653496 -0.04899996 -0.001152873 0.03638064 -0.04899996 0.003453135 0.03607267 -0.04899996 -0.005737781 0.006589055 -0.04899996 0.0341922 0.0985642 -0.04899996 -0.04320681 0.001982867 -0.04649996 0.03444218 -0.001479804 -0.04649996 0.03432714 -0.002617716 -0.04649996 0.0341351 -0.006033957 -0.04649996 0.03356003 -0.007136106 -0.04649996 0.03321921 -0.01044505 -0.04649996 0.03219521 -0.01149189 -0.04649996 0.03171014 -0.01463454 -0.04649996 0.03025507 -0.01560711 -0.04649996 0.02963519 -0.01852744 -0.04649996 0.02777516 -0.01940852 -0.04649996 0.02703118 -0.02205431 -0.04649996 0.02479922 -0.02282851 -0.04649996 0.02394521 -0.02515244 -0.04649996 0.02138125 -0.02580547 -0.04649996 0.02043211 -0.02776616 -0.04649996 0.01758217 -0.02828669 -0.04649996 0.01655423 -0.02984923 -0.04649996 0.01346814 -0.03022772 -0.04649996 0.01238119 -0.0313642 -0.04649996 0.009115219 -0.03159403 -0.04649996 0.007986187 -0.03228414 -0.04649996 0.00459814 -0.0323612 -0.04649996 0.003449201 -0.03259259 -0.04649996 1.19209e-7 -0.03251552 -0.04649996 -0.001148819 -0.03228414 -0.04649996 -0.004597783 -0.0320543 -0.04649996 -0.005726814 -0.0313642 -0.04649996 -0.009114861 -0.03098559 -0.04649996 -0.01020276 -0.02984923 -0.04649996 -0.01346778 -0.02932864 -0.04649996 -0.01449584 -0.02776616 -0.04649996 -0.01758182 -0.02711319 -0.04649996 -0.01853072 -0.02515244 -0.04649996 -0.0213809 -0.02437835 -0.04649996 -0.02223479 -0.02205431 -0.04649996 -0.02479887 -0.02117311 -0.04649996 -0.02554285 -0.01852744 -0.04649996 -0.02777481 -0.01755475 -0.04649996 -0.02839481 -0.01463454 -0.04649996 -0.03025472 -0.01358771 -0.04649996 -0.0307399 -0.01044505 -0.04649996 -0.03219485 -0.009342908 -0.04649996 -0.03253579 -0.006033957 -0.04649996 -0.03355991 -0.004896044 -0.04649996 -0.03375184 -0.001479804 -0.04649996 -0.03432679 -3.26455e-4 -0.04649996 -0.03436481 0.003136098 -0.04649996 -0.03448081 0.004284381 -0.04649996 -0.03436481 0.007731497 -0.04649996 -0.03401875 0.008853971 -0.04649996 -0.03375184 0.01222413 -0.04649996 -0.03295075 0.01330101 -0.04649996 -0.03253686 0.01653409 -0.04649996 -0.03129482 0.01754605 -0.04649996 -0.03074085 0.02058434 -0.04649996 -0.02907991 0.02151328 -0.04649996 -0.02839684 0.02430248 -0.04649996 -0.02634584 0.02513194 -0.04649996 -0.02554476 0.0276224 -0.04649996 -0.02314186 0.02833753 -0.04649996 -0.02223777 0.03048461 -0.04649996 -0.01952481 0.03107279 -0.04649996 -0.01853382 0.03283834 -0.04649996 -0.01555991 0.03328889 -0.04649996 -0.0144999 0.03464138 -0.04649996 -0.01131677 0.0349462 -0.04649996 -0.01020574 0.03586155 -0.04649996 -0.006871819 0.03601539 -0.04649996 -0.005730867 0.0364772 -0.04649996 -0.002303838 0.0364772 -0.04649996 -0.001152873 0.0364772 -0.04649996 0.002304196 0.03632336 -0.04649996 0.003446221 0.03586155 -0.04649996 0.006872177 0.03555667 -0.04649996 0.007983207 0.03464138 -0.04649996 0.01131713 0.03419095 -0.04649996 0.01237726 0.03283834 -0.04649996 0.01556003 0.03225028 -0.04649996 0.01655113 0.03048461 -0.04649996 0.01952517 0.02976948 -0.04649996 0.02042925 0.0276224 -0.04649996 0.02314221 0.02679288 -0.04649996 0.0239433 0.02430248 -0.04649996 0.0263462 0.02337336 -0.04649996 0.02702915 0.02058434 -0.04649996 0.02908003 0.01957225 -0.04649996 0.02963316 0.01653409 -0.04649996 0.03129518 0.01545721 -0.04649996 0.03170812 0.01222413 -0.04649996 0.03295123 0.01110166 -0.04649996 0.03321814 0.007731497 -0.04649996 0.03401923 0.006583273 -0.04649996 0.0341351 0.003136098 -0.04649996 0.03448116 0.1136181 -0.01135009 -0.04612684 0.1136181 -0.04949998 -0.04612684 0.0985642 -0.04949998 -0.04320681 0.1136181 -0.008099794 -0.04680788 0.1136181 0.008099794 -0.04680788 0.1136181 0.002711713 -0.04742574 0.1136181 -0.002711713 -0.04742574 0.1025115 -0.07099997 -0.04157483 0.1025115 -0.04949998 -0.04157483 0.1136181 -0.04949998 -0.03049278 0.1136181 -0.04899996 0.03048622 0.1136181 -0.04067653 0.02452623 0.1136181 -0.03761535 0.02900314 0.1136181 -0.04899996 -0.03049278 0.1136181 -0.04593944 -0.01207888 0.1136181 -0.0470165 -0.006762862 0.1136181 -0.04320752 0.01972913 0.1136181 -0.04732573 0.004062175 0.1136181 -0.0465539 0.00943005 0.1136181 -0.04748058 -0.00135982 0.1136181 -0.04426354 -0.01723587 0.1136181 -0.04517513 0.01467514 0.1136181 -0.04201054 -0.02216994 0.1136181 -0.03589808 -0.03110873 0.1136181 -0.0392099 -0.02681386 0.1136181 -0.01849031 -0.04375588 0.1136181 -0.02335727 -0.04136371 0.1136181 -0.02791976 -0.0384308 0.1136181 -0.03211826 -0.03499782 0.1136181 -0.03406375 0.0331012 0.1136181 -0.03006803 0.03676915 0.1136181 -0.01338225 -0.04557883 0.1136181 -0.02568042 0.03995621 0.1136181 -0.020958 0.04262316 0.1136181 -0.0159623 0.04473412 0.1157907 -0.04899996 -0.02832388 0.1157907 -0.07099997 -0.02832388 0.1157907 -0.07099997 0.02831828 0.1157907 -0.04899996 0.02831828 0.1228768 -0.04899996 0.01124715 0.1228768 -0.04899996 -0.01125276 0.1228768 -0.07099997 0.01124715 0.1228768 -0.07099997 -0.01125276 0.1246415 -0.005414545 0.04718708 0.1246415 0 0.04749715 0.1246415 -0.01075857 0.04626226 0.1246415 -0.0159623 0.04473412 0.1246415 -0.020958 0.04262316 0.1246415 -0.02568042 0.03995621 0.1246415 -0.03006803 0.03676915 0.1246415 -0.03406375 0.0331012 0.1246415 -0.03761535 0.02900314 0.1246415 -0.04067653 0.02452623 0.1246415 -0.04320752 0.01972913 0.1246415 -0.04517513 0.01467514 0.1246415 -0.0465539 0.00943005 0.1246415 -0.04732573 0.004062175 0.1246415 -0.04748058 -0.00135982 0.1246415 -0.0470165 -0.006762862 0.1246415 -0.04593944 -0.01207888 0.1246415 -0.04426354 -0.01723587 0.1246415 -0.04201054 -0.02216994 0.1246415 -0.0392099 -0.02681386 0.1246415 -0.03589808 -0.03110873 0.1246415 -0.03211826 -0.03499782 0.1246415 -0.02791976 -0.0384308 0.1246415 -0.02335727 -0.04136371 0.1246415 -0.01849031 -0.04375588 0.1246415 -0.01338225 -0.04557883 0.1246415 -0.008099794 -0.04680788 0.1246415 -0.002711713 -0.04742574 0.1246415 0.002711713 -0.04742574 0.1246415 0.008099794 -0.04680788 0.1246415 0.01338225 -0.04557883 0.1246415 0.01849031 -0.04375588 0.1246415 0.02335727 -0.04136371 0.1246415 0.02791976 -0.0384308 0.1246415 0.03211826 -0.03499782 0.1246415 0.03589808 -0.03110873 0.1246415 0.0392099 -0.02681386 0.1246415 0.04201054 -0.02216994 0.1246415 0.04426354 -0.01723587 0.1246415 0.04593944 -0.01207888 0.1246415 0.0470165 -0.006762862 0.1246415 0.04748058 -0.00135982 0.1246415 0.04732573 0.004062175 0.1246415 0.0465539 0.00943005 0.1246415 0.04517513 0.01467514 0.1246415 0.04320752 0.01972913 0.1246415 0.04067653 0.02452623 0.1246415 0.03761535 0.02900314 0.1246415 0.03406375 0.0331012 0.1246415 0.03006803 0.03676915 0.1246415 0.02568042 0.03995621 0.1246415 0.020958 0.04262316 0.1246415 0.0159623 0.04473412 0.1246415 0.01075857 0.04626226 0.1246415 0.005414545 0.04718708 0.1246415 -0.03732669 -0.003603696 0.1246415 0.03519254 -0.01295387 0.1246415 0.03324747 -0.01734781 0.1246415 0.03655976 -0.008347749 0.1246415 -0.01407247 0.03475618 0.1246415 -0.009512007 0.03627014 0.1246415 -0.01840186 0.03267109 0.1246415 -0.03748071 0.001199245 0.1246415 -0.03655976 -0.008347749 0.1246415 0.03732669 -0.003603696 0.1246415 0.03748071 0.001199245 0.1246415 0.03701931 0.00598216 0.1246415 0.03595 0.0106672 0.1246415 0.03429043 0.01517617 0.1246415 0.03206783 0.01943719 0.1246415 0.01407247 0.03475618 0.1246415 0.009512007 0.03627014 0.1246415 0 0.03749716 0.1246415 -0.004795372 0.03718924 0.1246415 -0.03519254 -0.01295387 0.1246415 -0.03324747 -0.01734781 0.1246415 -0.03075641 -0.02145779 0.1246415 0.01840186 0.03267109 0.1246415 0.0224291 0.03005003 0.1246415 0.004795372 0.03718924 0.1246415 -0.02931863 0.02337813 0.1246415 -0.03206783 0.01943719 0.1246415 -0.03429043 0.01517617 0.1246415 -0.03595 0.0106672 0.1246415 -0.03701931 0.00598216 0.1246415 -0.01627063 -0.0337888 0.1246415 0.02045756 -0.03143072 0.1246415 0.01627063 -0.0337888 0.1246415 0.02931863 0.02337813 0.1246415 0.02608805 0.02693521 0.1246415 -0.0224291 0.03005003 0.1246415 -0.02776038 -0.02521383 0.1246415 -0.02430856 -0.0285567 0.1246415 -0.02045756 -0.03143072 0.1246415 0.02430856 -0.0285567 0.1246415 0.03075641 -0.02145779 0.1246415 -0.02608805 0.02693521 0.1246415 0.02776038 -0.02521383 0.1246415 -0.01181656 -0.03559279 0.1246415 -0.007168412 -0.0368117 0.1246415 0.01181656 -0.03559279 0.1246415 0.007168412 -0.0368117 0.1246415 -0.002402603 -0.03742575 0.1246415 0 -0.03750276 0.1246415 0.002402603 -0.03742575 0.1482918 -0.004795372 0.03718924 0.1482918 0 0.03749716 0.1482918 -0.009512007 0.03627014 0.1482918 -0.01407247 0.03475618 0.1482918 -0.01840186 0.03267109 0.1482918 -0.0224291 0.03005003 0.1482918 -0.02608805 0.02693521 0.1482918 -0.02931863 0.02337813 0.1482918 -0.03206783 0.01943719 0.1482918 -0.03429043 0.01517617 0.1482918 -0.03595 0.0106672 0.1482918 -0.03701931 0.00598216 0.1482918 -0.03748071 0.001199245 0.1482918 -0.03732669 -0.003603696 0.1482918 -0.03655976 -0.008347749 0.1482918 -0.03519254 -0.01295387 0.1482918 -0.03324747 -0.01734781 0.1482918 -0.03075641 -0.02145779 0.1482918 -0.02776038 -0.02521383 0.1482918 -0.02430856 -0.0285567 0.1482918 -0.02045756 -0.03143072 0.1482918 -0.01627063 -0.0337888 0.1482918 -0.01181656 -0.03559279 0.1482918 -0.007168412 -0.0368117 0.1482918 -0.002402603 -0.03742575 0.1482918 0.002402603 -0.03742575 0.1482918 0 -0.03750276 0.1482918 0.007168412 -0.0368117 0.1482918 0.01181656 -0.03559279 0.1482918 0.01627063 -0.0337888 0.1482918 0.02045756 -0.03143072 0.1482918 0.02430856 -0.0285567 0.1482918 0.02776038 -0.02521383 0.1482918 0.03075641 -0.02145779 0.1482918 0.03324747 -0.01734781 0.1482918 0.03519254 -0.01295387 0.1482918 0.03655976 -0.008347749 0.1482918 0.03732669 -0.003603696 0.1482918 0.03748071 0.001199245 0.1482918 0.03701931 0.00598216 0.1482918 0.03595 0.0106672 0.1482918 0.03429043 0.01517617 0.1482918 0.03206783 0.01943719 0.1482918 0.02931863 0.02337813 0.1482918 0.02608805 0.02693521 0.1482918 0.0224291 0.03005003 0.1482918 0.01840186 0.03267109 0.1482918 0.01407247 0.03475618 0.1482918 0.009512007 0.03627014 0.1482918 0.004795372 0.03718924 0.1012088 -0.07099997 0.04015922 0.08158606 -0.07099997 0.04826915 0.033387 -0.07099997 0.05783617 -0.01271098 -0.07099997 0.05783617 -0.02981835 -0.07099997 0.05076515 -0.04871642 -0.07099997 0.0319072 0.08158606 -0.07099997 -0.04809677 0.033387 -0.07099997 -0.05766379 0.1012088 -0.07099997 -0.03998577 0.1215741 -0.07099997 -0.00966382 0.114488 -0.07099997 -0.02673482 0.1215741 -0.07099997 0.009836196 -0.05580258 -0.07099997 -0.01466381 -0.04871642 -0.07099997 -0.03173482 0.114488 -0.07099997 0.0269072 -0.05580258 -0.07099997 0.01483619 -0.01271098 -0.07099997 -0.05766379 -0.02981835 -0.07099997 -0.05059278 -0.05580258 -0.08462178 -0.01466381 -0.05580258 -0.08462178 0.01483619 0.1215741 -0.08328199 0.009836196 0.1215741 -0.08328199 -0.00966382 0.114488 -0.0851767 0.0269072 0.114488 -0.0851767 -0.02673482 0.1012088 -0.08341848 -0.03998577 0.08158606 -0.0812453 -0.04809677 0.033387 -0.08160805 -0.05766379 0.1137984 -0.08536106 -0.0274229 0.1021257 -0.08381515 -0.03907084 0.05555009 -0.08993393 -0.03783881 0.007585823 -0.08462178 -0.05766379 -0.01271098 -0.08462178 -0.05766379 0.08158606 -0.0812453 0.04826915 0.1012088 -0.08341848 0.04015922 0.033387 -0.08160805 0.05783617 0.1021257 -0.08381515 0.03924417 0.1137984 -0.08536106 0.02759528 0.100849 -0.08882361 0.02041423 0.100849 -0.08882361 -0.02024078 0.05555009 -0.08993393 0.03801119 0.007585823 -0.08462178 0.05783617 -0.01271098 -0.08462178 0.05783617 0.07795745 -0.09183096 -0.01963472 0.05492007 -0.09195363 -0.03030073 0.07795745 -0.09183096 0.01980829 0.05492007 -0.09195363 0.03047311 0.0614466 -0.09399998 0.01171314 0.0614466 -0.09399998 -0.01153993 0.03934329 -0.09399998 -0.02266383 0.03934329 -0.09399998 0.0228362 -0.005734145 -0.09399998 -0.02266383 -0.02981835 -0.08462178 -0.05059278 -0.005734145 -0.09399998 0.0228362 -0.02981835 -0.08462178 0.05076515 -0.04871642 -0.08462178 -0.03173482 -0.00995016 -0.09399998 -0.02092075 -0.04871642 -0.08462178 0.0319072 -0.00995016 -0.09399998 0.0210942 -0.02072805 -0.09399998 0.007874131 -0.01898157 -0.09399998 0.01208114 -0.02072805 -0.09399998 -0.007701754 -0.01898157 -0.09399998 -0.01190876</float_array>
          <technique_common>
            <accessor source="#Link_5_001-mesh-positions-array" count="789" stride="3">
              <param name="X" type="float"/>
              <param name="Y" type="float"/>
              <param name="Z" type="float"/>
            </accessor>
          </technique_common>
        </source>
        <source id="Link_5_001-mesh-normals">
          <float_array id="Link_5_001-mesh-normals-array" count="3567">0 -1 1.75666e-5 0 -1 0 0 -1 -8.41385e-6 0 -1 -6.55509e-5 0 -1 5.02582e-7 0 -1 2.32107e-6 0 -1 -4.10582e-6 0 -1 -7.83814e-7 0 -1 -2.41785e-6 0 -1 -4.25645e-7 0 -1 8.20395e-7 0 -1 2.383e-7 0 -1 8.36269e-6 0 -1 -6.00912e-7 0 -1 5.26565e-7 0 -1 -5.10974e-6 0 -1 -4.6306e-7 0 -1 -9.5303e-7 0 -1 -7.02117e-7 0 -1 6.25443e-7 0 -1 3.28809e-7 0 -1 -2.83043e-6 0 -1 -7.17259e-7 0 -1 -2.38879e-6 0 -1 -8.76681e-6 0 -1 4.38726e-5 0 -1 1.52629e-5 0 -1 3.64677e-6 0 -1 1.13944e-6 0 -1 2.60791e-7 0 -1 9.62467e-6 0 -1 0 0 -1 -3.74457e-7 0 -1 2.06491e-6 0 -1 2.63343e-6 0 -1 -4.6613e-6 0 -1 -6.5302e-6 0 -1 -4.94225e-6 0 -1 4.39889e-5 0 -1 3.16685e-6 0 -1 -1.34942e-5 0 -1 -3.85679e-7 0 -1 0 0 -1 -2.66651e-7 0 -1 -1.38085e-6 0 -1 -9.59188e-7 0 -1 -2.80449e-7 0 -1 7.04033e-5 0 -1 -1.20844e-5 0 -1 -7.60798e-7 0 -1 1.021e-6 0 -1 2.66578e-7 0 -1 -2.69488e-7 0 -1 -6.85129e-7 0 -1 2.10326e-7 0 -1 1.04589e-5 0 -1 -2.66615e-7 0 -1 6.47133e-6 0 -1 1.09455e-6 0 -1 -8.11784e-6 0 -1 1.95736e-6 0 -1 6.40404e-6 0 -1 6.40503e-6 0 -1 2.79805e-5 0 -1 -6.37101e-6 0 -1 -6.38606e-6 -0.05504775 0.01406711 -0.9983846 0.02742731 -0.01424401 -0.9995223 -0.1640886 0.01423084 -0.986343 -0.08229446 -0.01405543 -0.996509 -0.2715194 0.01400887 -0.962331 -0.1914213 -0.01424682 -0.9814046 -0.3757236 0.01401317 -0.9266259 -0.2983751 -0.01418823 -0.9543433 -0.475043 0.01417642 -0.8798484 -0.4012231 -0.01400381 -0.9158734 -0.5689256 0.01408785 -0.8222683 -0.4992383 -0.01419657 -0.8663485 -0.6559376 0.01418662 -0.7546818 -0.591506 -0.01409751 -0.8061774 -0.7348873 0.01420468 -0.6780406 -0.6762902 -0.01416605 -0.7364991 -0.8050869 0.01413321 -0.5929886 -0.7532558 -0.01425451 -0.6575733 -0.8654891 0.01412713 -0.5007287 -0.8210347 -0.01428568 -0.5706995 -0.9153609 0.01416981 -0.4023851 -0.8789528 -0.01418346 -0.476698 -0.9541406 0.01416933 -0.2990234 -0.9261447 -0.0141806 -0.3769019 -0.9812693 0.01420259 -0.1921168 -0.9620456 -0.01410794 -0.2725241 -0.9964696 0.01415824 -0.08275216 -0.9862056 -0.01421618 -0.1649137 -0.9995181 0.0141592 0.0276243 -0.9983778 -0.01418614 -0.05514305 -0.9903823 0.014162 0.1376312 -0.9983693 -0.01415723 0.05530124 -0.9691815 0.01418519 0.2459392 -0.9862128 -0.01418662 0.164873 -0.936156 0.01416468 0.3512997 -0.9619948 -0.01416903 0.2726998 -0.8917946 0.014207 0.4522174 -0.9261595 -0.01416969 0.3768659 -0.8365458 0.01414573 0.5477144 -0.8789525 -0.01419705 0.4766978 -0.771179 0.01417857 0.6364607 -0.8210639 -0.01412516 0.5706617 -0.6965088 0.01416492 0.7174084 -0.7535052 -0.01423656 0.6572878 -0.6133265 0.01411598 0.7897034 -0.6766499 -0.01431578 0.7361658 -0.5227845 0.01407486 0.8523488 -0.5914286 -0.01428312 0.806231 -0.4259086 0.01411676 0.9046562 -0.4991338 -0.01422107 0.8664082 -0.3241268 0.01414519 0.945908 -0.4005832 -0.01400405 0.9161534 -0.2182657 0.01410311 0.9757875 -0.2977629 -0.01413333 0.9545353 -0.1097423 0.01408958 0.9938603 -0.1914339 -0.01426672 0.9814018 0 0.0139507 0.9999027 -0.08229738 -0.01431453 0.9965051 0.1097449 0.0140739 0.9938603 0.02734333 -0.01427274 0.9995242 0.2182633 0.014144 0.9757874 0.1364958 -0.01437002 0.9905365 0.3241233 0.01420271 0.9459083 0.2448315 -0.01417952 0.969462 0.4259217 0.01415103 0.9046494 0.3502831 -0.01400697 0.9365392 0.5227805 0.01404249 0.8523517 0.451194 -0.01408618 0.8923147 0.6133216 0.01410335 0.7897075 0.5457944 -0.01433002 0.8377967 0.6965209 0.01413422 0.7173973 0.6346746 -0.0143041 0.7726472 0.7711784 0.01423913 0.6364598 0.715798 -0.01417839 0.6981635 0.8365359 0.01415455 0.5477293 0.7884578 -0.01416033 0.6149258 0.8917959 0.01413184 0.4522175 0.8513774 -0.01420533 0.5243614 0.9361554 0.01419806 0.3512998 0.9038577 -0.01418042 0.4275982 0.9691872 0.01413887 0.2459197 0.9455091 -0.01424688 0.3252841 0.9903806 0.01418983 0.1376414 0.975588 -0.01417231 0.2191517 0.9990972 0.009445428 0.04141783 0.9938004 -0.01420652 0.1102684 0.9998037 -0.0141952 -0.01381725 0.9964703 0.01416695 -0.08274161 0.9998993 -0.01419615 0 0.9812697 0.01417475 -0.1921173 0.9938096 -0.0142132 -0.1101849 0.9541406 0.01417493 -0.2990233 0.9755705 -0.01412993 -0.2192317 0.9153565 0.01418519 -0.4023943 0.94551 -0.01417756 -0.3252844 0.865489 0.01413643 -0.5007286 0.903858 -0.01415318 -0.4275984 0.8050871 0.01410323 -0.592989 0.8512985 -0.01420789 -0.5244895 0.7348924 0.01420879 -0.6780349 0.7884375 -0.01415377 -0.6149521 0.6559474 0.0142225 -0.7546727 0.7161876 -0.0141983 -0.6977634 0.5689123 0.01413327 -0.8222768 0.6351044 -0.0143128 -0.7722938 0.4750616 0.0141012 -0.8798396 0.5458549 -0.01414513 -0.8377605 0.3757216 0.01408994 -0.9266254 0.4505234 -0.01409924 -0.8926533 0.2715113 0.01407444 -0.9623324 0.3498712 -0.01421707 -0.93669 0.1640896 0.01414388 -0.9863441 0.2448905 -0.01418304 -0.969447 0.05504941 0.01422429 -0.9983824 0.1373215 -0.01414406 -0.9904255 0.02741551 -0.01424401 -0.9995226 0.1369206 -0.01414412 -0.9904811 0.2449863 -0.01418304 -0.9694229 0.3500881 -0.01421701 -0.936609 0.4507665 -0.014099 -0.8925307 0.5460906 -0.01414489 -0.8376067 0.6347541 -0.01431268 -0.7725817 0.7158775 -0.01419776 -0.6980816 0.7884823 -0.01415336 -0.6148946 0.8513493 -0.01420795 -0.524407 0.9039108 -0.01415354 -0.427487 0.9455267 -0.0141766 -0.3252358 0.9756027 -0.0141291 -0.2190885 0.9938035 -0.0142138 -0.1102392 0.999821 -0.01892602 0 0.9938067 -0.0142073 0.1102117 0.9755961 -0.01417237 0.2191149 0.9455229 -0.01424735 0.325244 0.9039153 -0.01418101 0.4274764 0.8513308 -0.01420605 0.5244371 0.7884651 -0.01415956 0.6149167 0.7160067 -0.01417857 0.6979495 0.6348986 -0.0143035 0.7724631 0.5460892 -0.01432961 0.8376045 0.4505873 -0.01408612 0.8926213 0.3499279 -0.01400655 0.936672 0.2450315 -0.01417952 0.9694115 0.1371678 -0.01437002 0.9904437 0.02741551 -0.01427274 0.9995222 -0.08227604 -0.01431459 0.9965068 -0.1912847 -0.01426672 0.981431 -0.2980125 -0.01413321 0.9544574 -0.4010266 -0.01400429 0.9159594 -0.4991429 -0.01422131 0.866403 -0.5912872 -0.01428365 0.8063346 -0.6763719 -0.01431608 0.7364212 -0.7532921 -0.01423591 0.657532 -0.8211653 -0.01412475 0.5705156 -0.8789551 -0.01419532 0.4766934 -0.9261108 -0.0141707 0.3769854 -0.9620254 -0.01416826 0.2725924 -0.9862068 -0.01418566 0.1649091 -0.9983769 -0.01415568 0.05516672 -0.9983735 -0.01418524 -0.05522078 -0.9862086 -0.01421493 -0.1648957 -0.9620096 -0.01410526 -0.2726513 -0.9261156 -0.01418066 -0.3769732 -0.8789548 -0.01418268 -0.4766942 -0.8211721 -0.01428443 -0.5705021 -0.7533745 -0.01425462 -0.6574373 -0.6764934 -0.01416558 -0.7363125 -0.5912461 -0.01409775 -0.806368 -0.4991268 -0.01419651 -0.8664126 -0.4008147 -0.01400387 -0.9160522 -0.2977837 -0.01418805 -0.9545279 -0.1913162 -0.01424676 -0.9814251 -0.08230531 -0.01405543 -0.9965081 0 -1 -1.1938e-6 0 -1 3.35852e-7 0 -1 9.48356e-7 0 -1 9.3058e-7 0 -1 9.0005e-7 0 -1 -6.83955e-7 0 -1 -1.22448e-6 0 -1 0 0 -1 -1.82583e-6 0 -1 4.7185e-7 0 -1 -1.80243e-6 0 -1 5.94053e-7 0 -1 -1.37274e-6 0 -1 -1.34245e-6 0 -1 4.25818e-7 0 -1 1.93475e-6 0 -1 9.52753e-7 0 -1 1.84758e-6 0 -1 -9.67386e-7 0 -1 1.08526e-6 0 -1 9.22283e-7 0 -1 -1.13053e-6 0 -1 -3.20375e-7 0 -1 -1.93316e-6 0 -1 4.71337e-7 0 -1 2.14241e-6 0 -1 9.19202e-7 0 -1 1.09542e-6 0 -1 1.46273e-7 0 -1 4.55408e-7 0 -1 9.84141e-7 0 -1 1.08859e-6 0 -1 -4.82896e-7 0 -1 2.28594e-6 0 -1 2.41899e-7 0 -1 6.11395e-6 0 -1 -2.09389e-7 0 -1 -1.14459e-6 0 -1 -5.92845e-7 0 -1 2.6603e-7 0 -1 1.13026e-6 0 -1 1.21723e-6 -0.3819893 0 0.9241668 -0.3819888 0 0.924167 -0.7063516 0 0.7078611 -0.7063515 -2.50028e-7 0.7078613 -0.7063526 0 0.7078602 -0.9235923 0 -0.3833761 -0.9235922 0 -0.3833763 -1 0 0 -0.9235922 0 0.3833764 -0.9235923 0 0.383376 -0.7063516 -2.00022e-7 -0.7078613 -0.7063524 0 -0.7078605 -0.7063518 0 -0.7078611 -0.3819888 0 -0.924167 -0.3413775 0.9399263 0 -0.3413776 0.9399263 0 -0.3413773 0.9399265 5.52735e-7 -0.341377 0.9399265 -1.04888e-6 -0.3413771 0.9399265 0 -0.3413771 0.9399265 2.09775e-6 -0.1909543 0.8660947 0.4619702 -0.1909439 0.8660959 0.4619723 -0.1909496 0.8660934 0.4619747 0 0 1 -0.1909458 0.8660947 -0.461974 -0.1909496 0.8660933 -0.4619748 -0.1909524 0.8660941 -0.4619723 0 0 -1 0 0.8660253 -0.5000002 0 0.8660258 -0.4999996 0.4060121 0 -0.9138678 0.4060119 0 -0.9138678 0.2029529 0.866101 -0.4568141 0.2029498 0.8661037 -0.4568104 0.2029573 0.8661033 -0.4568081 0 1 0 0.2029572 0.8661032 0.4568081 0.2029532 0.866101 0.4568143 0.2029498 0.8661037 0.4568104 0 0.8660257 0.4999997 0 0.8660253 0.5000003 0.4060121 0 0.9138678 0.4060124 0 0.9138677 -0.3823137 -0.4227228 -0.8216702 -0.3823016 -0.4227173 -0.8216786 -0.3823077 -0.4227439 0.821662 -0.3823096 -0.4227442 0.8216609 -0.7653757 -0.6435838 0 -0.9761992 0.2168761 0 -0.9761993 0.2168756 0 -0.8032552 0.5956352 0 -0.8032552 0.5956351 0 -0.9761985 0.216879 0 -0.9761984 0.2168794 0 -0.421886 -1.15727e-5 -0.9066489 -0.421889 0 -0.9066476 -0.4218838 0 -0.90665 -0.4218755 1.97512e-6 -0.9066538 -0.4218591 -1.61049e-5 -0.9066614 -0.4218855 -1.12495e-5 0.9066491 -0.4218675 1.27887e-5 0.9066576 -0.4218591 2.76084e-5 0.9066614 -0.4218105 0 0.9066841 -0.4218695 0 0.9066567 0.2070474 0 0.978331 0.2074706 -1.78214e-5 0.9782413 0.2075011 0 0.9782349 0.2074687 1.26099e-5 0.9782418 0.2075622 -5.70395e-5 0.9782218 0.2074757 -3.31768e-5 0.9782402 0.2070476 0 0.9783309 0.207476 -3.32039e-5 -0.9782402 0.207469 1.26099e-5 -0.9782416 0.2077727 0 -0.9781771 0.2075011 0 -0.9782349 0.2077707 0 -0.9781776 0.2074694 1.28606e-5 -0.9782415 0.2075618 -5.70395e-5 -0.978222 0.7063504 0.7078624 0 0.7063642 0.7078486 -6.96816e-6 0.7063539 0.707859 0 0.7063851 0.7078278 0 0.7063844 0.7078284 0 0.7063622 0.7078506 2.52508e-5 0.706353 0.7078598 4.83548e-7 0.7063539 0.7078589 -1.33255e-6 1 2.16633e-6 0 1 1.22152e-6 0 1 -5.4577e-7 0 1 0 0 1 -4.25772e-5 0 1 -1.61589e-6 0 1 5.53331e-7 0 1 -2.3225e-6 0 1 -1.5628e-5 0 1 2.75508e-6 0 1 4.27986e-7 0 1 1.20954e-5 0 0.3819704 0.9241746 0 0.3819889 0.9241669 1.04555e-6 0.3819892 0.9241668 -3.25571e-6 0.3819888 0.924167 0 0.3819895 0.9241667 9.93035e-7 0.3819629 0.9241777 1.60818e-6 0.381989 0.924167 0 0.3819702 0.9241747 0 0.38199 0.9241666 0 0.3819632 0.9241777 -5.64997e-6 0.7063627 0 0.70785 0.7063634 0 0.7078495 0.706363 0 -0.7078498 0.7063622 0 -0.7078507 0 1 5.02279e-7 0 1 1.20897e-6 0 1 -2.07224e-5 0 1 -1.85997e-6 0 1 -6.3955e-6 0 1 1.53957e-6 0 1 3.70258e-6 0 1 -1.9113e-6 0 1 -8.85415e-7 0 1 -2.77693e-6 0 1 -4.91306e-6 0 1 6.88306e-6 0 1 -1.88173e-5 0 1 1.88142e-5 0 1 1.00126e-5 0 1 -2.4179e-6 0 1 -1.35158e-6 0 1 -1.33517e-5 0 1 2.07758e-5 0 1 -1.26619e-5 0 1 2.36776e-5 0 1 8.34935e-6 0 1 6.89906e-7 0 1 -1.73804e-5 0 1 1.24921e-5 0 1 -1.66985e-5 0 1 -6.70205e-6 -0.9877346 0 0.1561419 -0.8904568 0 0.4550679 -0.706348 0 0.7078648 -0.4532889 0 0.8913637 -0.1557628 0 0.9877946 0.1557555 0 0.9877957 0.4530797 0 0.8914701 0.7069903 0 0.7072233 0.8903655 0 0.4552464 0.9876522 0 0.156663 0.9876558 0 -0.15664 0.8903655 0 -0.4552464 0.7069939 0 -0.7072196 0.4530738 0 -0.891473 0.1554657 0 -0.9878414 -0.155462 0 -0.987842 -0.4532918 0 -0.8913622 -0.7063443 0 -0.7078686 -0.8904583 0 -0.4550648 -0.9877383 0 -0.156119 -0.9877382 0 -0.1561197 -0.8904587 0 -0.4550641 -0.7063484 0 -0.7078644 -0.4532896 0 -0.8913634 -0.1554661 0 -0.9878413 0.1554625 0 -0.9878418 0.4530771 0 -0.8914713 0.7069907 0 -0.7072229 0.8903661 0 -0.4552453 0.987656 0 -0.1566386 0.9876523 0 0.1566616 0.8903645 0 0.4552483 0.7069944 0 0.7072192 0.4530742 0 0.8914729 0.1557632 0 0.9877945 -0.1557559 0 0.9877956 -0.4532955 0 0.8913604 -0.7063447 0 0.707868 -0.8904587 0 0.4550641 -0.9877346 0 0.1561426 0 1 -1.28869e-6 0 1 1.97595e-6 0 1 1.2885e-6 0 1 -3.83833e-5 0 1 1.97713e-6 0 1 6.95259e-6 0 1 -6.48675e-6 0 1 5.6794e-6 0 1 -1.92116e-5 0 1 1.78559e-5 -0.9877346 0 0.1561428 -0.8904579 0 0.4550659 -0.7063462 0 0.7078667 -0.4531704 0 0.891424 -0.1557594 0 0.9877951 0.1557592 0 0.9877951 0.4529553 0 0.8915332 0.7069923 0 0.7072212 0.8903652 0 0.4552472 0.9876523 0 0.1566627 0.9876559 0 -0.1566391 0.890365 0 -0.4552475 0.7069926 0 -0.707221 0.453076 0 -0.8914719 0.1556106 0 -0.9878185 -0.1556115 0 -0.9878184 -0.453291 0 -0.8913626 -0.7063462 0 -0.7078667 -0.8904579 0 -0.4550656 -0.9877383 0 -0.1561191 -0.9877384 0 -0.1561188 -0.8904581 0 -0.4550653 -0.706347 0 -0.7078657 -0.155611 0 -0.9878184 0.1556119 0 -0.9878183 0.4530764 0 -0.8914718 0.8903657 0 -0.455246 0.987656 0 -0.1566388 0.9876523 0 0.1566625 0.8903656 0 0.4552462 0.7069926 0 0.707221 0.4529557 0 0.891533 0.1557598 0 0.987795 -0.1557596 0 0.987795 -0.4531711 0 0.8914236 -0.7063468 0 0.707866 -0.8904584 0 0.4550649 -0.9877346 0 0.1561423 0 1 -1.28866e-6 0 1 1.97598e-6 0 1 1.28854e-6 0 1 -3.84025e-5 0 1 1.97719e-6 0 1 6.95398e-6 0 1 -6.48683e-6 0 1 5.67933e-6 0 1 1.78555e-5 -0.190412 0 0.9817044 -0.1903989 -9.28981e-6 0.9817069 -0.1904216 0 0.9817025 -0.1904125 0 0.9817042 -0.190412 0 0.9817042 -0.1904201 0 0.9817028 0 -1 -8.06328e-7 0.3819773 0 0.9241717 0.3820675 0 0.9241345 0.3819959 -1.53008e-5 0.924164 0.3819782 0 0.9241713 0.1946939 0 0.9808641 0.1946941 0 0.980864 -0.3819912 0 0.9241661 -0.3819906 0 0.9241662 -0.7063528 0 0.70786 -0.7063531 0 0.7078597 -0.9235934 0 0.3833736 -0.9235934 0 0.3833734 -0.9235934 0 -0.3833736 -0.7063529 0 -0.7078599 -0.706353 0 -0.7078599 -0.3819912 0 -0.9241661 0.1946916 0 -0.9808646 0 1 3.25024e-7 0 1 -7.21726e-7 0 1 4.78626e-7 0 1 1.29284e-6 0 1 0 0 1 -5.82814e-7 0 1 5.68306e-7 0 1 -2.29658e-7 0 1 -2.90732e-7 0 1 -5.79273e-7 0 1 -2.74697e-7 0 1 8.30166e-7 0 1 -4.58089e-7 0 1 -1.67013e-7 0 1 1.86114e-6 0 1 -4.72026e-7 0 1 -8.63469e-7 0 1 -4.58521e-7 0 1 -2.29046e-7 0 1 -2.34297e-7 0 1 7.78977e-7 0 1 -3.33561e-6 0 1 6.84989e-7 0 1 5.07588e-7 0 1 -6.99756e-7 0 1 9.25976e-7 0 1 4.8877e-7 0 1 -6.01626e-7 0 1 -1.57681e-5 0 1 1.08401e-5 0 1 -2.34144e-7 0 1 -4.0393e-7 0 1 1.67286e-7 0 1 1.33136e-6 0 1 7.7634e-7 0 1 0 -0.03319442 0.02318137 0.9991801 -0.06665188 -0.02324831 0.9975054 -0.1659514 0.02315837 0.985862 -0.1987388 -0.02305328 0.9797813 -0.2955544 0.0230236 0.9550485 -0.3273429 -0.02333396 0.9446175 -0.4200448 0.02300018 0.9072118 -0.450034 -0.02314823 0.8927114 -0.5370653 0.02324813 0.8432202 -0.5649548 -0.0230484 0.8248 -0.6446228 0.02340459 0.7641425 -0.6698778 -0.02300727 0.7421149 -0.7407385 0.02316635 0.6713941 -0.7627333 -0.0230239 0.6463033 -0.8236359 0.02322119 0.5666434 -0.8421826 -0.02320384 0.5386928 -0.8919245 0.02306747 0.4515957 -0.9064841 -0.02305495 0.4216102 -0.9442002 0.02313333 0.3285588 -0.9546637 -0.02314436 0.2967854 -0.9796155 0.02322041 0.1995357 -0.9857543 -0.02313774 0.1665928 -0.9974899 0.02314996 0.06691771 -0.9991712 -0.02315759 0.03347539 -0.9974897 0.02315413 -0.06691998 -0.9946883 -0.0231598 -0.1002935 -0.9796186 0.02308756 -0.1995355 -0.9723927 -0.02319031 -0.2321955 -0.9441805 0.02314972 -0.3286142 -0.9326575 -0.02311903 -0.3600217 -0.8919224 0.02315241 -0.4515954 -0.8763127 -0.02314782 -0.4811864 -0.8236492 0.02322131 -0.5666241 -0.8042151 -0.0231173 -0.5938886 -0.7407373 0.02316606 -0.6713954 -0.7179272 -0.02301555 -0.6957377 -0.644644 0.02309775 -0.7641339 -0.6187344 -0.02319777 -0.7852578 -0.5370615 0.0228877 -0.8432326 -0.5087456 -0.0231316 -0.8606062 -0.4200174 0.02297699 -0.9072251 -0.3895373 -0.02320951 -0.9207183 -0.2955838 0.02306884 -0.9550383 -0.2636805 -0.02298611 -0.9643363 -0.1659211 0.02311146 -0.9858682 -0.1329222 -0.02313947 -0.9908563 -0.03347069 0.02322822 -0.9991698 0 -0.02316802 -0.9997316 0.09986245 0.02332568 -0.9947279 0.1329192 -0.02280223 -0.9908646 0.2311916 0.02342569 -0.9726262 0.2636897 -0.02305066 -0.9643321 0.3585186 0.02313309 -0.933236 0.3895373 -0.02321171 -0.9207183 0.4795435 0.02324289 -0.8772103 0.5087374 -0.02328068 -0.860607 0.5922543 0.02295762 -0.805424 0.6187421 -0.02314507 -0.7852532 0.6941542 0.02329897 -0.7194492 0.7179062 -0.02315235 -0.6957547 0.7839316 0.02321428 -0.6204131 0.8042343 -0.0230447 -0.5938654 0.8596496 0.02324634 -0.5103551 0.8763109 -0.02323734 -0.4811854 0.9201223 0.02299726 -0.3909556 0.9326447 -0.02312374 -0.3600545 0.9640539 0.02326291 -0.2646869 0.9724015 -0.02319306 -0.2321584 0.9907783 0.02306813 -0.1335148 0.9946876 -0.02319514 -0.1002934 0.9997332 0.02309793 0 0.9991701 -0.02320808 0.03347545 0.9907729 0.02306848 0.1335555 0.9857538 -0.02315282 0.1665934 0.9640614 0.02312678 0.2646713 0.9546757 -0.02310675 0.29675 0.9200902 0.02319085 0.3910197 0.9064763 -0.02314561 0.4216218 0.8596466 0.02302831 0.5103698 0.8421862 -0.02302348 0.5386951 0.7839308 0.02319574 0.6204148 0.7627187 -0.02314585 0.6463162 0.6941687 0.02292114 0.7194473 0.669884 -0.02307182 0.7421073 0.5922538 0.02327913 0.8054152 0.5649483 -0.02309793 0.8248031 0.4797971 0.02324187 0.8770716 0.4500434 -0.02332228 0.8927022 0.3587877 0.02319467 0.933131 0.32734 -0.02320253 0.9446217 0.2311938 0.0230326 0.9726352 0.1987364 -0.02302753 0.9797824 0.09986299 0.02295112 0.9947366 0.0666539 -0.02323645 0.9975057 -0.03377366 0.02318131 0.9991607 0.1003742 0.02295112 0.9946851 0.2312765 0.02303284 0.9726154 0.3579405 0.02319478 0.9334563 0.4794491 0.02324247 0.8772619 0.5921031 0.02327936 0.805526 0.6944888 0.02292156 0.7191383 0.7840862 0.02319532 0.6202183 0.8597826 0.02302807 0.5101407 0.9201217 0.02319258 0.3909451 0.9640928 0.0231269 0.2645568 0.9907848 0.02307152 0.1334664 0.9997333 0.02309805 0 0.9907682 0.02306973 -0.1335897 0.9641029 0.02326357 -0.2645081 0.9200725 0.02299922 -0.3910725 0.8597056 0.02324658 -0.5102606 0.7840852 0.02321356 -0.620219 0.6945063 0.0232973 -0.7191094 0.5922504 0.02295809 -0.805427 0.4800468 0.02324157 -0.876935 0.3586617 0.02313303 -0.9331809 0.2312743 0.02342563 -0.9726065 0.100473 0.02332562 -0.9946663 -0.03294408 0.02322816 -0.9991873 -0.1662681 0.02311146 -0.9858098 -0.2954454 0.02306908 -0.9550811 -0.4203912 0.02297699 -0.9070519 -0.5373668 0.0228883 -0.843038 -0.6449404 0.02309793 -0.7638838 -0.7406831 0.02316606 -0.6714551 -0.8235779 0.02322143 -0.5667276 -0.8919008 0.02315282 -0.4516382 -0.9441879 0.02314984 -0.3285932 -0.9796412 0.02308577 -0.1994246 -0.9974904 0.02315229 -0.06690996 -0.9974904 0.0231496 0.06690996 -0.9796382 0.02322149 0.1994239 -0.9441308 0.02313393 0.3287581 -0.8919017 0.02306723 0.4516409 -0.8236193 0.02321994 0.5666677 -0.7406786 0.02316731 0.67146 -0.6449873 0.02340364 0.7638348 -0.5373349 0.02324789 0.8430485 -0.4203117 0.02300035 0.9070882 -0.2953487 0.02302348 0.955112 -0.1663757 0.02315843 0.9857905 0 1 -5.45559e-5 0 1 1.97814e-6 0 1 9.36271e-6 0 1 -2.3269e-6 0 1 2.78308e-6 0 1 -1.68738e-6 0 1 1.26193e-6 0 1 -1.45467e-6 0 1 -9.1589e-7 0 1 -2.7374e-5 0 1 -6.8578e-7 0 1 1.90285e-6 0 1 1.03005e-5 0 1 -7.42476e-6 0 1 1.83534e-6 0 1 -9.34623e-6 0 1 -4.61147e-6 0 1 4.38184e-6 0 1 1.81921e-6 0 1 7.9054e-7 0 1 4.05796e-6 0 1 8.3004e-6 0 1 5.49602e-6 0 1 5.4532e-7 0 1 3.36419e-6 0 1 3.31758e-6 0 1 -2.43407e-6 0 1 3.19504e-7 0 1 -2.73523e-5 0 1 -8.50107e-7 0 1 8.13549e-7 0 1 1.0797e-6 0 1 4.72932e-6 0 1 2.7191e-6 0 1 3.9854e-6 0 1 1.65795e-6 0 1 -1.4942e-6 0 1 -1.20275e-6 0 1 -3.11613e-6 0 1 -4.95114e-6 0 1 -2.90594e-6 0 1 -2.04675e-6 0 1 -1.46874e-6 0 1 9.04642e-7 0 1 -2.63291e-7 0 1 5.2161e-6 0 1 -8.08325e-7 0 1 3.20299e-6 0 1 -7.83516e-7 0 1 1.19031e-6 0 1 5.77835e-6 0 1 -1.99704e-6 0 1 -1.99658e-6 -0.1904118 0 -0.9817044 -0.190412 0 -0.9817042 -0.190412 0 -0.9817044 -0.1904201 0 -0.9817028 -0.1904216 0 -0.9817025 -0.1903989 -9.28981e-6 -0.9817069 0.3820006 -1.42807e-5 -0.9241622 0.3819841 0 -0.9241689 0.3819842 0 -0.9241688 0.3820675 0 -0.9241345 1 -3.22458e-6 0 1 2.11615e-6 0 1 -3.96213e-6 0 1 -5.02604e-6 0 1 6.90233e-6 0 1 -4.54585e-6 0 1 1.31285e-6 0 1 -4.24008e-7 0 1 -1.12105e-6 0 1 -7.10502e-6 0 1 2.61899e-7 0 1 -3.7444e-7 0 0.7065052 0 -0.707708 0.7063237 0 -0.7078891 0.7063534 -3.05952e-5 -0.7078595 0.7065033 0 -0.7077097 0.7063534 4.3295e-7 0.7078594 0.7063478 0 0.707865 0.7063488 0 0.7078639 0.7063543 0 0.7078586 0.9235934 0 0.3833736 0.9235935 0 0.3833736 0.9235935 0 -0.3833736 0.9235934 0 -0.3833736 0 -0.05717062 0.9983645 0 -0.1705237 0.9853536 0.002844452 -0.281763 0.9594798 0 -0.2319139 0.9727364 0 -0.3892352 0.9211385 0 -0.4917421 0.8707408 0 -0.5876945 0.8090829 0 -0.6762506 0.7366717 0 -0.755694 0.6549251 0 -0.8254727 0.564442 0 -0.8844505 0.4666341 0 -0.9318673 0.3627996 0 -0.9671449 0.254226 0 -0.9898203 0.1423237 0 -0.9995923 0.0285542 0 -0.996331 -0.0855832 0 -0.9800869 -0.1985695 0 -0.9510392 -0.3090705 0 -0.909655 -0.4153647 0 -0.8563274 -0.5164334 0 -0.7919055 -0.6106437 0 -0.7171113 -0.6969587 0 -0.6330001 -0.7741517 0 -0.5407413 -0.8411891 0 -0.4411082 -0.897454 0 -0.3361158 -0.9418207 0.006643354 -0.2266062 -0.9739639 0 -0.2603622 -0.9655112 0 -0.1139252 -0.9934894 0 0.1139252 -0.9934893 0 0.2050783 -0.9787456 0.006643652 0.2266062 -0.9739639 0 0.3361157 -0.9418208 0 0.4411079 -0.897454 0 0.5407413 -0.8411891 0 0.6330001 -0.7741517 0 0.7171113 -0.6969587 0 0.7919051 -0.6106443 0 0.8563274 -0.5164334 0 0.909655 -0.4153647 0 0.9510394 -0.3090696 0 0.9800869 -0.1985695 0 0.996331 -0.0855832 0 0.9995923 0.0285542 0 0.9898205 0.1423218 0 0.9671444 0.2542279 0 0.9318665 0.3628013 0 0.8844497 0.4666357 0 0.8254727 0.564442 0 0.7556934 0.6549256 0 0.6762511 0.7366712 0 0.587695 0.8090826 0 0.4917426 0.8707406 0 0.389235 0.9211386 0 0.2880044 0.9576291 0.002844393 0.281763 0.9594798 0 0.1705237 0.9853537 0 0.05717062 0.9983645 0 0.05717074 0.9983645 0 0.1705237 0.9853536 0 0.2319139 0.9727364 0 0.3892356 0.9211383 0 0.4917421 0.8707408 0 0.5876939 0.8090834 0 0.6762506 0.7366717 0 0.7556935 0.6549255 0 0.8254733 0.5644412 0 0.8844505 0.4666341 0 0.931867 0.3628002 0 0.9671449 0.254226 0 0.9898203 0.1423234 0 0.9995923 0.02855414 0 0.9800868 -0.1985699 0 0.951039 -0.309071 0 0.9096553 -0.4153639 0 0.7919052 -0.6106442 0 0.6329995 -0.7741522 0 0.5407419 -0.8411886 0 0.4411082 -0.897454 0 0.3361158 -0.9418207 0 0.2603622 -0.9655112 0 0.1139252 -0.9934894 0 -0.1139252 -0.9934893 0 -0.2050783 -0.9787456 0 -0.3361157 -0.9418208 0 -0.4411079 -0.897454 0 -0.5407419 -0.8411886 0 -0.6329995 -0.7741522 0 -0.7919048 -0.6106448 0 -0.9096553 -0.4153639 0 -0.9510393 -0.3090702 0 -0.9800868 -0.1985699 0 -0.9995923 0.02855414 0 -0.9898205 0.1423215 0 -0.9671444 0.2542279 0 -0.9318664 0.3628019 0 -0.8844497 0.4666357 0 -0.8254733 0.5644412 0 -0.755693 0.6549261 0 -0.6762511 0.7366712 0 -0.5876944 0.8090831 0 -0.4917426 0.8707406 0 -0.3892354 0.9211384 0 -0.2880044 0.9576291 0 -0.1705237 0.9853537 0 -0.05717074 0.9983645 1 1.20224e-6 0 1 1.0803e-6 0 1 -2.15762e-6 0 1 1.08109e-6 0 1 4.31956e-6 0 1 -1.5116e-7 0 1 3.01437e-6 0 1 2.15762e-6 0 1 -2.15178e-6 0 1 -2.42101e-6 0 1 1.20223e-6 0 1 1.7469e-6 0 1 -2.69973e-6 0 1 -2.15109e-6 0 1 2.14788e-6 0 1 -1.20198e-6 0 1 -2.41722e-6 0 1 -2.40632e-6 0 1 -1.08139e-6 0 1 -4.823e-6 0 1 -1.0779e-6 0 1 2.41722e-6 0 1 -2.40822e-6 0 1 -2.16289e-6 0 1 1.08153e-6 0 1 -2.14788e-6 0 1 1.07933e-6 0 1 -2.15865e-6 0 1 2.42101e-6 0 1 2.15109e-6 0 1 2.40633e-6 0 1 2.40822e-6 0 1 2.15178e-6 0 1 -2.40446e-6 0 1 4.32262e-6 0 1 1.80677e-6 0 1 6.01337e-7 0 1 1.08009e-6 0 1 -3.24197e-6 0 1 4.30595e-6 0 1 2.7165e-6 0 1 2.16289e-6 0 1 -9.68106e-6 0 1 -3.49859e-6 0 1 -4.82933e-6 0 1 -5.39465e-7 0 1 9.68106e-6 0 0 -0.0640791 0.9979448 0 -0.191266 0.9815383 0 -0.3150673 0.9490694 0 -0.4339113 0.9009557 0 -0.5454779 0.8381252 0 -0.6482176 0.7614552 0 -0.7402644 0.6723159 0 -0.8201584 0.5721365 0 -0.8866294 0.4624808 0 -0.9384527 0.3454077 0 -0.9749303 0.2225108 0 -0.995379 0.09602421 0 -0.9994864 -0.03204947 0 -0.9871833 -0.1595902 0 -0.9586588 -0.2845585 0 -0.9144105 -0.4047881 0 -0.8551875 -0.5183187 0 -0.7817624 -0.6235766 0 -0.6956744 -0.7183573 0 -0.5981022 -0.8014199 0 -0.4907252 -0.8713145 0 -0.3753989 -0.9268634 0 -0.2536618 -0.9672931 0 -0.1277877 -0.9918016 0 0.03203552 -0.9994868 0 -0.03203552 -0.9994868 0 -0.03203552 -0.9994868 0 0.1277877 -0.9918016 0 0.2536618 -0.967293 0 0.3753989 -0.9268634 0 0.4907252 -0.8713145 0 0.5981017 -0.8014203 0 0.6956744 -0.7183573 0 0.7817624 -0.6235766 0 0.8551872 -0.5183194 0 0.9144109 -0.4047873 0 0.9586593 -0.2845566 0 0.9871838 -0.1595882 0 0.9994864 -0.03204947 0 0.9953789 0.09602522 0 0.9749305 0.2225098 0 0.9384531 0.3454068 0 0.8866294 0.4624808 0 0.8201584 0.5721365 0 0.7402644 0.6723159 0 0.6482166 0.7614561 0 0.5454791 0.8381245 0 0.433911 0.9009557 0 0.3150672 0.9490694 0 0.191266 0.9815382 0 0.0640791 0.9979448 0 0.191266 0.9815383 0 0.3150671 0.9490694 0 0.4339109 0.9009559 0 0.5454787 0.8381247 0 0.6482171 0.7614557 0 0.8201587 0.5721361 0 0.8866292 0.4624812 0 0.9384529 0.3454074 0 0.9749302 0.222511 0 0.995379 0.09602409 0 0.9871834 -0.1595901 0 0.9586588 -0.2845585 0 0.9144107 -0.4047878 0 0.8551875 -0.5183187 0 0.781762 -0.6235771 0 0.5981019 -0.8014202 0 0.4907256 -0.8713143 0 0.3753987 -0.9268635 0 0.2536618 -0.9672931 0 0.1277877 -0.9918016 0 0.03203552 -0.9994868 0 -0.1277877 -0.9918016 0 -0.2536618 -0.967293 0 -0.3753987 -0.9268635 0 -0.4907256 -0.8713143 0 -0.5981014 -0.8014205 0 -0.781762 -0.6235771 0 -0.8551872 -0.5183194 0 -0.9144111 -0.404787 0 -0.9586593 -0.2845566 0 -0.9871837 -0.159588 0 -0.9953789 0.0960251 0 -0.9749305 0.22251 0 -0.9384532 0.3454065 0 -0.8866292 0.4624812 0 -0.8201587 0.5721361 0 -0.6482181 0.7614548 0 -0.545478 0.8381251 0 -0.4339106 0.9009559 0 -0.3150669 0.9490695 0 -0.191266 0.9815382 1 2.64238e-5 0 1 1.21244e-5 0 1 3.61981e-6 0 1 -6.66158e-6 0 1 -5.46384e-6 0 1 -2.66463e-5 0 1 -1.09265e-5 0 1 -3.6199e-6 0 1 2.14889e-6 0 1 -1.97992e-6 0 1 1.21372e-5 0 1 -3.94385e-5 0 1 5.01786e-6 0 1 -1.64167e-6 0 1 -7.25558e-6 0 1 3.44976e-6 0 1 -6.13931e-6 0 1 -7.76143e-7 0 1 -1.70545e-6 0 1 -1.19533e-6 0 1 4.26066e-7 0 1 -5.06622e-6 0 1 6.66515e-6 0 1 7.36905e-6 0 1 8.06003e-6 0 1 0 0 1 -3.04078e-6 0 1 5.25972e-6 0 1 4.23966e-7 0 0 -1 -6.08956e-6 0 -1 6.30042e-7 0 -1 -1.20645e-6 0 -1 3.46514e-6 0 -1 1.63403e-7 0 -1 3.48556e-7 0 -1 -3.47526e-6 0 -1 2.23711e-7 0 -1 -3.46526e-6 0 -1 -1.08219e-6 0 -1 3.83422e-6 0 -1 -2.25696e-6 0 -1 -1.2126e-6 0 -1 -8.04317e-7 0 -1 -2.97877e-6 0 -1 2.16424e-6 0 -1 2.25703e-6 0 -1 -3.74587e-6 0 -1 3.47517e-6 0 -1 1.21313e-6 0 -1 3.74598e-6 0 -1 -1.63403e-7 0.9235925 0 0.3833757 0.9235926 0 0.3833756 0.9235926 0 -0.3833756 0.9235925 0 -0.3833758 0.381999 0 -0.9241628 0.381998 0 -0.9241632 0.1946915 0 -0.9808645 0.1946919 0 -0.9808645 0.7063545 -4.88477e-6 -0.7078583 0.7063132 0 -0.7078995 0.7063531 -2.90544e-6 -0.7078596 0.7063682 0 -0.7078447 0.1017971 -0.8714683 -0.4797713 0.1017913 -0.8714628 -0.4797824 0.1017906 -0.8714638 -0.479781 0.1017928 -0.8714514 -0.4798029 0.3819551 0 0.924181 0.3819553 0 0.9241808 0.1946918 0 0.9808645 0.1946915 0 0.9808645 0.7063818 -4.23693e-6 0.707831 0.7063834 -6.96052e-6 0.7078295 0.7064179 0 0.707795 0.7063096 0 0.7079032 0.2583116 -0.9660617 0 0.2583117 -0.9660617 0 0.2583128 -0.9660614 -2.41991e-6 0.2583127 -0.9660614 2.41997e-6 0.258291 -0.9660671 -6.03372e-5 0.2582904 -0.9660674 6.49037e-5 0.1017889 -0.8714804 0.479751 0.1017828 -0.871456 0.4797965 0.1017914 -0.871463 0.4797823 0.1017906 -0.8714638 0.479781 -4.25337e-7 0 1 0.1197568 -0.9614331 -0.2475979 0.1197499 -0.961432 -0.2476056 0.1197512 -0.9614319 -0.2476058 0.119753 -0.961434 -0.2475961 0.1197524 -0.9614313 0.2476071 0.1197407 -0.9614356 0.2475963 0.1197512 -0.9614313 0.2476076 0.1197701 -0.9614297 0.2476052 0.1302542 -0.9914807 0 0.1302508 -0.9914811 0 0.1302508 -0.9914811 0 0.1302542 -0.9914807 0 0.06582754 -0.9892209 -0.1308009 0.06582653 -0.9892212 -0.1307996 0.06582164 -0.9892209 0.1308037 0.06582504 -0.9892203 0.1308064 -6.12526e-6 -0.9659286 -0.2588087 1.85578e-6 -0.9659252 -0.2588214 0 -0.9659259 -0.2588192 0 -0.9659259 -0.2588188 -0.3819878 0 -0.9241675 -0.3819877 0 -0.9241674 1.87363e-6 -0.9659253 0.2588211 0 -0.9659261 0.2588186 -6.01253e-6 -0.9659288 0.258808 0 -0.9659259 0.2588192 -0.3819878 0 0.9241675 -0.3819877 0 0.9241674 -0.7063554 0 -0.7078574 -0.7063548 0 -0.707858 -0.09883689 -0.965946 -0.2391225 -0.09885668 -0.9659479 -0.239107 -0.7063554 0 0.7078574 -0.7063547 0 0.7078581 -0.09881126 -0.9659432 0.2391445 -0.09883689 -0.965946 0.2391225 -0.92359 0 0.3833817 -0.9235904 0 0.3833809 -0.2386363 -0.9660428 0.09906619 -0.238637 -0.9660435 0.09905749 -0.182636 -0.9659948 0.183025 -0.1826486 -0.9659932 0.1830208 0 -1 -9.12974e-7 0 -1 3.92337e-6 0 -1 4.72165e-7 0 -1 -1.72211e-6 -0.92359 0 -0.3833817 -0.9235904 0 -0.3833809 -0.1826319 -0.9659954 -0.1830257 -0.182636 -0.9659948 -0.183025 -0.238637 -0.9660434 -0.09905785 -0.2386363 -0.9660429 -0.0990653 -0.2583057 -0.9660633 0 -0.2583057 -0.9660633 0</float_array>
          <technique_common>
            <accessor source="#Link_5_001-mesh-normals-array" count="1189" stride="3">
              <param name="X" type="float"/>
              <param name="Y" type="float"/>
              <param name="Z" type="float"/>
            </accessor>
          </technique_common>
        </source>
        <vertices id="Link_5_001-mesh-vertices">
          <input semantic="POSITION" source="#Link_5_001-mesh-positions"/>
        </vertices>
        <triangles material="RAL2003_009-material" count="1574">
          <input semantic="VERTEX" source="#Link_5_001-mesh-vertices" offset="0"/>
          <input semantic="NORMAL" source="#Link_5_001-mesh-normals" offset="1"/>
          <p>0 0 1 0 2 0 1 1 0 1 3 1 0 1 4 1 5 1 0 2 6 2 7 2 3 3 8 3 1 3 7 1 4 1 0 1 0 1 9 1 3 1 10 4 11 4 12 4 10 5 13 5 14 5 2 1 6 1 0 1 10 6 15 6 16 6 14 1 11 1 10 1 10 1 17 1 18 1 19 7 20 7 21 7 19 8 22 8 23 8 16 1 0 1 10 1 18 1 13 1 10 1 10 1 24 1 25 1 10 9 26 9 27 9 10 10 28 10 29 10 10 11 30 11 31 11 23 12 20 12 19 12 19 13 32 13 33 13 12 1 15 1 10 1 27 1 24 1 10 1 31 1 28 1 10 1 10 14 19 14 34 14 35 15 36 15 37 15 35 16 38 16 39 16 40 1 41 1 42 1 43 17 44 17 45 17 43 18 46 18 47 18 19 19 48 19 49 19 19 20 50 20 51 20 33 1 22 1 19 1 19 21 52 21 53 21 19 22 54 22 55 22 19 23 10 23 56 23 25 1 17 1 10 1 34 1 30 1 10 1 39 1 36 1 35 1 35 1 57 1 58 1 41 24 40 24 59 24 41 25 60 25 42 25 47 26 44 26 43 26 43 27 61 27 62 27 43 28 63 28 64 28 43 29 65 29 66 29 51 1 48 1 19 1 53 30 32 30 19 30 56 1 54 1 19 1 29 1 26 1 10 1 67 31 68 31 69 31 67 32 70 32 71 32 58 1 38 1 35 1 35 33 72 33 73 33 35 34 74 34 75 34 35 35 76 35 77 35 35 36 78 36 79 36 35 37 80 37 81 37 42 38 82 38 40 38 80 39 35 39 83 39 62 40 46 40 43 40 66 1 63 1 43 1 43 41 84 41 85 41 43 42 86 42 87 42 21 1 50 1 19 1 5 1 10 1 0 1 88 1 89 1 90 1 88 43 91 43 92 43 67 44 93 44 94 44 67 45 95 45 96 45 67 46 97 46 98 46 71 1 68 1 67 1 73 1 57 1 35 1 77 1 74 1 35 1 81 1 78 1 35 1 83 47 41 47 80 47 64 48 61 48 43 48 87 1 84 1 43 1 43 49 99 49 100 49 43 50 67 50 101 50 91 51 102 51 103 51 91 52 104 52 105 52 91 53 106 53 107 53 91 54 88 54 108 54 55 55 52 55 19 55 92 1 89 1 88 1 67 56 109 56 110 56 96 57 93 57 67 57 69 1 97 1 67 1 67 58 43 58 111 58 75 1 72 1 35 1 59 1 80 1 41 1 85 1 65 1 43 1 101 59 99 59 43 59 91 60 112 60 113 60 105 61 102 61 91 61 108 1 106 1 91 1 90 1 19 1 88 1 94 62 109 62 67 62 111 1 70 1 67 1 79 63 76 63 35 63 100 1 86 1 43 1 103 64 112 64 91 64 49 1 88 1 19 1 98 1 95 1 67 1 45 1 35 1 43 1 107 1 104 1 91 1 37 1 43 1 35 1 110 1 91 1 67 1 113 65 67 65 91 65 114 66 115 66 79 66 115 67 76 67 79 67 116 68 114 68 81 68 114 69 78 69 81 69 117 70 116 70 59 70 116 71 80 71 59 71 118 72 117 72 82 72 117 73 40 73 82 73 119 74 118 74 60 74 118 75 42 75 60 75 120 76 119 76 83 76 119 77 41 77 83 77 121 78 120 78 45 78 120 79 35 79 45 79 122 80 121 80 47 80 121 81 44 81 47 81 123 82 122 82 62 82 122 83 46 83 62 83 124 84 123 84 64 84 123 85 61 85 64 85 125 86 124 86 66 86 124 87 63 87 66 87 126 88 125 88 85 88 125 89 65 89 85 89 127 90 126 90 87 90 126 91 84 91 87 91 128 92 127 92 100 92 127 93 86 93 100 93 129 94 128 94 101 94 128 95 99 95 101 95 130 96 129 96 113 96 129 97 67 97 113 97 131 98 130 98 103 98 130 99 112 99 103 99 132 100 131 100 105 100 131 101 102 101 105 101 133 102 132 102 107 102 132 103 104 103 107 103 134 104 133 104 108 104 133 105 106 105 108 105 135 106 134 106 49 106 134 107 88 107 49 107 136 108 135 108 51 108 135 109 48 109 51 109 137 110 136 110 21 110 136 111 50 111 21 111 138 112 137 112 23 112 137 113 20 113 23 113 139 114 138 114 33 114 138 115 22 115 33 115 140 116 139 116 53 116 139 117 32 117 53 117 141 118 140 118 55 118 140 119 52 119 55 119 142 120 141 120 56 120 141 121 54 121 56 121 143 122 142 122 5 122 142 123 10 123 5 123 144 124 143 124 7 124 143 125 4 125 7 125 145 126 144 126 2 126 144 127 6 127 2 127 146 128 145 128 8 128 145 129 1 129 8 129 147 130 146 130 9 130 146 131 3 131 9 131 148 132 147 132 16 132 147 133 0 133 16 133 149 134 148 134 12 134 148 135 15 135 12 135 150 136 149 136 14 136 149 137 11 137 14 137 151 138 150 138 18 138 150 139 13 139 18 139 152 140 151 140 25 140 151 141 17 141 25 141 153 142 152 142 27 142 152 143 24 143 27 143 154 144 153 144 29 144 153 145 26 145 29 145 155 146 154 146 31 146 154 147 28 147 31 147 156 148 155 148 34 148 155 149 30 149 34 149 157 150 156 150 90 150 156 151 19 151 90 151 89 152 158 152 157 152 159 153 158 153 92 153 158 154 89 154 92 154 160 155 159 155 110 155 159 156 91 156 110 156 161 157 160 157 94 157 160 158 109 158 94 158 162 159 161 159 96 159 161 160 93 160 96 160 163 161 162 161 98 161 162 162 95 162 98 162 164 163 163 163 69 163 163 164 97 164 69 164 165 165 164 165 71 165 164 166 68 166 71 166 166 167 165 167 111 167 165 168 70 168 111 168 167 169 166 169 37 169 166 170 43 170 37 170 168 171 167 171 39 171 167 172 36 172 39 172 169 173 168 173 58 173 168 174 38 174 58 174 170 175 169 175 73 175 169 176 57 176 73 176 171 177 170 177 75 177 170 178 72 178 75 178 115 179 171 179 77 179 171 180 74 180 77 180 77 181 76 181 115 181 75 182 74 182 171 182 73 183 72 183 170 183 58 184 57 184 169 184 39 185 38 185 168 185 37 186 36 186 167 186 111 187 43 187 166 187 71 188 70 188 165 188 69 189 68 189 164 189 98 190 97 190 163 190 96 191 95 191 162 191 94 192 93 192 161 192 110 193 109 193 160 193 92 194 91 194 159 194 90 195 89 195 157 195 34 196 19 196 156 196 31 197 30 197 155 197 29 198 28 198 154 198 27 199 26 199 153 199 25 200 24 200 152 200 18 201 17 201 151 201 14 202 13 202 150 202 12 203 11 203 149 203 16 204 15 204 148 204 9 205 0 205 147 205 8 206 3 206 146 206 2 207 1 207 145 207 7 208 6 208 144 208 5 209 4 209 143 209 56 210 10 210 142 210 55 211 54 211 141 211 53 212 52 212 140 212 33 213 32 213 139 213 23 214 22 214 138 214 21 215 20 215 137 215 51 216 50 216 136 216 49 217 48 217 135 217 108 218 88 218 134 218 107 219 106 219 133 219 105 220 104 220 132 220 103 221 102 221 131 221 113 222 112 222 130 222 101 223 67 223 129 223 100 224 99 224 128 224 87 225 86 225 127 225 85 226 84 226 126 226 66 227 65 227 125 227 64 228 63 228 124 228 62 229 61 229 123 229 47 230 46 230 122 230 45 231 44 231 121 231 83 232 35 232 120 232 60 233 41 233 119 233 82 234 42 234 118 234 59 235 40 235 117 235 81 236 80 236 116 236 79 237 78 237 114 237 172 238 142 238 143 238 173 239 174 239 149 239 143 1 175 1 172 1 176 240 138 240 139 240 176 241 136 241 137 241 176 1 177 1 135 1 177 1 132 1 133 1 178 1 131 1 132 1 178 1 129 1 130 1 174 242 148 242 149 242 174 243 175 243 146 243 172 1 141 1 142 1 139 244 172 244 176 244 135 245 136 245 176 245 133 1 134 1 177 1 130 246 131 246 178 246 178 1 179 1 128 1 180 247 124 247 125 247 174 248 147 248 148 248 175 1 145 1 146 1 143 1 144 1 175 1 137 1 138 1 176 1 132 249 177 249 178 249 179 250 127 250 128 250 179 1 125 1 126 1 180 251 123 251 124 251 180 252 181 252 121 252 182 1 183 1 165 1 146 253 147 253 174 253 172 254 140 254 141 254 134 1 135 1 177 1 126 255 127 255 179 255 180 1 122 1 123 1 181 256 120 256 121 256 184 257 171 257 115 257 184 1 169 1 170 1 165 258 166 258 182 258 183 259 163 259 164 259 183 260 161 260 162 260 173 261 156 261 157 261 144 262 145 262 175 262 128 263 129 263 178 263 121 1 122 1 180 1 181 264 118 264 119 264 185 1 114 1 116 1 170 1 171 1 184 1 184 265 182 265 168 265 166 1 167 1 182 1 162 1 163 1 183 1 173 266 155 266 156 266 139 1 140 1 172 1 119 267 120 267 181 267 185 268 117 268 118 268 185 269 115 269 114 269 168 270 169 270 184 270 164 271 165 271 183 271 183 272 159 272 160 272 183 273 157 273 158 273 173 274 154 274 155 274 173 275 151 275 152 275 125 276 179 276 180 276 116 277 117 277 185 277 167 1 168 1 182 1 158 1 159 1 183 1 173 1 153 1 154 1 173 278 150 278 151 278 118 1 181 1 185 1 160 1 161 1 183 1 152 279 153 279 173 279 115 1 185 1 184 1 149 1 150 1 173 1 157 1 183 1 173 1 182 1 186 1 183 1 173 1 187 1 174 1 176 280 172 280 188 280 188 281 189 281 176 281 177 282 176 282 189 282 189 283 190 283 177 283 190 284 191 284 177 284 180 285 179 285 192 285 192 286 193 286 180 286 194 287 192 287 179 287 179 287 178 287 194 287 177 288 191 288 194 288 194 289 178 289 177 289 180 290 195 290 196 290 180 291 193 291 195 291 196 292 181 292 180 292 185 293 181 293 196 293 196 293 197 293 185 293 198 294 199 294 192 294 192 295 194 295 198 295 199 296 193 296 192 296 199 297 195 297 193 297 194 298 191 298 198 298 191 299 190 299 198 299 189 300 200 300 198 300 198 301 190 301 189 301 189 302 188 302 200 302 172 303 175 303 201 303 201 303 188 303 172 303 196 304 195 304 199 304 202 305 197 305 196 305 199 306 202 306 196 306 184 307 185 307 197 307 197 307 203 307 184 307 197 308 202 308 204 308 204 309 203 309 197 309 182 310 184 310 203 310 203 311 205 311 182 311 205 312 203 312 204 312 206 313 207 313 205 313 204 314 206 314 205 314 202 315 199 315 198 315 204 315 208 315 209 315 198 315 200 315 202 315 209 315 206 315 204 315 204 315 202 315 208 315 200 315 208 315 202 315 210 316 209 316 208 316 208 317 201 317 210 317 210 318 211 318 209 318 188 319 201 319 208 319 208 320 200 320 188 320 175 321 174 321 210 321 210 322 201 322 175 322 186 323 212 323 213 323 213 324 183 324 186 324 187 325 173 325 214 325 214 326 215 326 187 326 173 327 183 327 213 327 213 327 214 327 173 327 214 328 213 328 216 328 216 329 217 329 214 329 217 330 216 330 218 330 218 331 219 331 217 331 219 332 218 332 220 332 220 333 221 333 219 333 222 334 220 334 218 334 212 335 222 335 216 335 222 336 223 336 220 336 218 337 216 337 222 337 216 338 213 338 212 338 224 339 217 339 219 339 219 340 221 340 224 340 215 341 214 341 217 341 217 342 224 342 215 342 221 343 225 343 224 343 223 287 225 287 221 287 221 287 220 287 223 287 226 344 227 344 215 344 187 345 215 345 227 345 210 346 174 346 187 346 227 347 228 347 187 347 187 348 228 348 211 348 187 349 211 349 210 349 215 350 224 350 226 350 205 351 207 351 186 351 186 352 229 352 230 352 231 353 222 353 212 353 186 354 182 354 205 354 212 355 230 355 231 355 230 356 212 356 186 356 207 357 229 357 186 357 230 358 232 358 233 358 228 359 227 359 233 359 234 360 235 360 230 360 229 361 236 361 232 361 233 362 237 362 228 362 232 363 230 363 229 363 233 364 234 364 230 364 227 365 234 365 233 365 235 366 238 366 239 366 234 367 240 367 241 367 235 368 242 368 243 368 239 369 244 369 235 369 234 370 245 370 246 370 241 369 247 369 234 369 234 371 248 371 249 371 235 372 250 372 251 372 235 373 252 373 242 373 235 374 246 374 238 374 234 375 253 375 245 375 249 369 240 369 234 369 235 376 254 376 255 376 251 369 256 369 235 369 244 369 252 369 235 369 247 369 253 369 234 369 256 369 254 369 235 369 246 377 235 377 234 377 243 369 250 369 235 369 234 369 257 369 258 369 234 369 259 369 260 369 258 369 248 369 234 369 260 369 261 369 234 369 261 369 257 369 234 369 255 369 262 369 235 369 263 303 232 303 236 303 236 303 264 303 263 303 265 307 266 307 237 307 237 307 233 307 265 307 264 378 236 378 229 378 206 379 267 379 264 379 264 380 207 380 206 380 206 381 209 381 268 381 209 382 211 382 266 382 266 383 211 383 228 383 268 384 267 384 206 384 228 385 237 385 266 385 266 386 268 386 209 386 229 387 207 387 264 387 269 369 270 369 267 369 267 369 268 369 269 369 270 388 263 388 264 388 264 389 267 389 270 389 269 390 268 390 266 390 266 391 265 391 269 391 271 315 272 315 273 315 274 315 275 315 276 315 276 315 273 315 274 315 271 392 269 392 277 392 269 393 265 393 278 393 233 394 279 394 280 394 270 315 269 315 281 315 274 315 282 315 275 315 271 315 283 315 284 315 269 395 285 395 277 395 269 396 286 396 287 396 265 397 288 397 278 397 280 398 265 398 233 398 269 399 289 399 281 399 269 400 271 400 290 400 273 315 276 315 271 315 277 315 283 315 271 315 232 401 263 401 291 401 270 402 292 402 293 402 278 315 286 315 269 315 233 403 294 403 279 403 233 404 295 404 296 404 290 315 289 315 269 315 284 315 272 315 271 315 232 405 297 405 298 405 263 406 299 406 291 406 293 407 263 407 270 407 270 408 300 408 301 408 280 409 288 409 265 409 296 410 302 410 233 410 303 315 304 315 295 315 274 315 305 315 282 315 232 411 306 411 297 411 291 412 307 412 232 412 301 315 292 315 270 315 233 413 308 413 294 413 295 414 233 414 303 414 281 315 300 315 270 315 298 315 233 315 232 315 293 315 299 315 263 315 302 415 308 415 233 415 304 315 303 315 282 315 232 416 309 416 306 416 307 315 310 315 232 315 305 315 304 315 282 315 310 417 309 417 232 417 298 418 303 418 233 418 287 315 285 315 269 315 311 419 312 419 297 419 309 420 313 420 311 420 314 421 313 421 309 421 307 422 315 422 314 422 316 423 315 423 307 423 317 424 316 424 291 424 293 425 318 425 317 425 319 426 318 426 293 426 301 427 320 427 319 427 321 428 320 428 301 428 281 429 322 429 321 429 323 430 322 430 281 430 290 431 324 431 323 431 325 432 324 432 290 432 276 433 326 433 325 433 275 434 327 434 326 434 328 435 327 435 275 435 303 436 329 436 328 436 330 437 329 437 303 437 297 438 312 438 330 438 330 439 298 439 297 439 303 440 298 440 330 440 328 441 282 441 303 441 275 442 282 442 328 442 326 443 276 443 275 443 325 444 271 444 276 444 290 445 271 445 325 445 323 446 289 446 290 446 281 447 289 447 323 447 321 448 300 448 281 448 301 449 300 449 321 449 319 450 292 450 301 450 293 451 292 451 319 451 317 452 299 452 293 452 291 453 299 453 317 453 307 454 291 454 316 454 314 455 310 455 307 455 309 456 310 456 314 456 311 457 306 457 309 457 297 458 306 458 311 458 326 459 311 459 313 459 316 460 324 460 325 460 316 461 322 461 323 461 316 315 318 315 319 315 313 315 314 315 326 315 330 315 327 315 328 315 323 315 324 315 316 315 316 462 317 462 318 462 314 463 315 463 326 463 330 464 326 464 327 464 316 465 321 465 322 465 319 315 320 315 316 315 326 466 312 466 311 466 328 467 329 467 330 467 320 468 321 468 316 468 330 315 312 315 326 315 315 315 316 315 326 315 325 315 326 315 316 315 331 469 332 469 296 469 304 470 333 470 331 470 334 471 333 471 304 471 274 472 335 472 334 472 336 473 335 473 274 473 337 474 336 474 273 474 284 475 338 475 337 475 339 476 338 476 284 476 277 477 340 477 339 477 341 478 340 478 277 478 287 479 342 479 341 479 343 480 342 480 287 480 278 481 344 481 343 481 345 482 344 482 278 482 280 483 346 483 345 483 279 484 347 484 346 484 348 485 347 485 279 485 308 486 349 486 348 486 350 487 349 487 308 487 296 488 332 488 350 488 350 489 302 489 296 489 308 490 302 490 350 490 348 491 294 491 308 491 279 435 294 435 348 435 346 492 280 492 279 492 345 493 288 493 280 493 278 494 288 494 345 494 343 481 286 481 278 481 287 495 286 495 343 495 341 496 285 496 287 496 277 497 285 497 341 497 339 498 283 498 277 498 284 499 283 499 339 499 337 500 272 500 284 500 273 501 272 501 337 501 274 502 273 502 336 502 334 503 305 503 274 503 304 504 305 504 334 504 331 505 295 505 304 505 296 506 295 506 331 506 346 507 331 507 333 507 336 508 344 508 345 508 336 509 342 509 343 509 336 315 338 315 339 315 333 315 334 315 346 315 350 315 347 315 348 315 343 315 344 315 336 315 336 510 337 510 338 510 334 511 335 511 346 511 350 512 346 512 347 512 336 513 341 513 342 513 339 315 340 315 336 315 346 514 332 514 331 514 348 467 349 467 350 467 340 515 341 515 336 515 350 315 332 315 346 315 335 315 336 315 346 315 345 315 346 315 336 315 227 516 226 516 259 516 226 517 351 517 352 517 353 518 352 518 351 518 352 519 259 519 226 519 259 520 234 520 227 520 351 521 354 521 353 521 355 287 356 287 357 287 358 287 359 287 355 287 358 287 352 287 359 287 357 287 358 287 355 287 358 287 259 287 352 287 353 522 354 522 360 522 360 1 361 1 353 1 362 523 363 523 354 523 364 524 360 524 354 524 354 525 363 525 364 525 354 526 351 526 362 526 365 527 366 527 363 527 363 528 362 528 365 528 367 303 368 303 366 303 366 303 365 303 367 303 368 529 367 529 369 529 369 530 370 530 368 530 371 531 372 531 370 531 370 532 369 532 371 532 373 533 374 533 372 533 372 534 371 534 373 534 375 287 376 287 374 287 374 287 373 287 375 287 375 535 377 535 378 535 378 535 376 535 375 535 379 536 378 536 377 536 377 537 380 537 379 537 381 538 382 538 379 538 379 538 380 538 381 538 382 307 381 307 383 307 383 307 384 307 382 307 384 539 383 539 385 539 385 539 386 539 384 539 373 540 387 540 388 540 225 541 389 541 390 541 377 542 391 542 392 542 375 543 393 543 394 543 373 544 395 544 387 544 371 545 396 545 397 545 225 315 398 315 389 315 223 546 399 546 400 546 381 315 380 315 401 315 377 547 402 547 391 547 375 548 403 548 393 548 388 315 375 315 373 315 397 315 373 315 371 315 367 549 225 549 404 549 225 550 405 550 398 550 223 551 406 551 407 551 223 315 408 315 399 315 223 315 381 315 409 315 380 552 410 552 401 552 392 553 380 553 377 553 394 315 377 315 375 315 397 554 395 554 373 554 369 555 411 555 412 555 390 315 404 315 225 315 225 556 413 556 414 556 400 315 406 315 223 315 381 557 415 557 409 557 392 315 410 315 380 315 388 315 403 315 375 315 369 558 416 558 411 558 369 315 367 315 417 315 367 559 418 559 419 559 367 560 420 560 421 560 414 315 405 315 225 315 223 561 422 561 408 561 381 562 423 562 415 562 381 563 424 563 425 563 381 315 426 315 427 315 394 315 402 315 377 315 371 564 412 564 428 564 417 565 416 565 369 565 367 566 429 566 418 566 404 315 420 315 367 315 225 567 430 567 431 567 225 568 407 568 432 568 225 315 365 315 362 315 409 569 422 569 223 569 427 315 424 315 381 315 428 315 396 315 371 315 419 570 417 570 367 570 421 315 433 315 367 315 432 315 430 315 225 315 225 315 367 315 365 315 362 315 351 315 226 315 223 571 222 571 385 571 425 315 423 315 381 315 412 572 371 572 369 572 431 573 413 573 225 573 226 315 224 315 362 315 385 574 222 574 231 574 385 575 383 575 223 575 401 315 426 315 381 315 362 315 224 315 225 315 383 315 381 315 223 315 433 315 429 315 367 315 407 315 225 315 223 315 231 315 434 315 385 315 429 576 435 576 436 576 436 577 418 577 429 577 418 578 437 578 438 578 438 579 419 579 418 579 419 580 439 580 440 580 440 581 417 581 419 581 417 582 441 582 442 582 442 583 416 583 417 583 416 584 443 584 444 584 444 585 411 585 416 585 411 586 445 586 446 586 446 587 412 587 411 587 412 588 447 588 448 588 448 589 428 589 412 589 428 590 449 590 450 590 450 591 396 591 428 591 396 592 451 592 452 592 452 593 397 593 396 593 397 594 453 594 454 594 454 595 395 595 397 595 395 596 455 596 456 596 456 597 387 597 395 597 387 598 457 598 458 598 458 599 388 599 387 599 388 600 459 600 460 600 460 601 403 601 388 601 403 602 461 602 462 602 462 603 393 603 403 603 393 604 463 604 464 604 464 605 394 605 393 605 394 606 465 606 466 606 466 607 402 607 394 607 402 608 467 608 468 608 468 609 391 609 402 609 391 610 469 610 470 610 470 611 392 611 391 611 392 612 471 612 472 612 472 613 410 613 392 613 410 614 473 614 474 614 474 615 401 615 410 615 401 616 475 616 476 616 476 617 426 617 401 617 426 618 477 618 478 618 478 619 427 619 426 619 427 620 479 620 480 620 480 621 424 621 427 621 424 622 481 622 482 622 482 623 425 623 424 623 425 624 483 624 484 624 484 625 423 625 425 625 423 626 485 626 486 626 486 627 415 627 423 627 415 628 487 628 488 628 488 629 409 629 415 629 409 630 489 630 490 630 490 631 422 631 409 631 422 632 491 632 492 632 492 633 408 633 422 633 408 634 493 634 494 634 494 635 399 635 408 635 399 636 495 636 496 636 496 637 400 637 399 637 400 638 497 638 498 638 498 639 406 639 400 639 406 640 499 640 500 640 500 641 407 641 406 641 407 642 501 642 502 642 502 643 432 643 407 643 432 644 503 644 504 644 504 645 430 645 432 645 430 646 505 646 506 646 506 647 431 647 430 647 431 648 507 648 508 648 508 649 413 649 431 649 413 650 509 650 510 650 510 651 414 651 413 651 414 652 511 652 512 652 512 653 405 653 414 653 405 654 513 654 514 654 514 655 398 655 405 655 398 656 515 656 516 656 516 657 389 657 398 657 389 658 517 658 518 658 518 659 390 659 389 659 390 660 519 660 520 660 520 661 404 661 390 661 404 662 521 662 522 662 522 663 420 663 404 663 420 664 523 664 524 664 524 665 421 665 420 665 421 666 525 666 526 666 526 667 433 667 421 667 433 668 527 668 528 668 528 669 429 669 433 669 528 670 435 670 429 670 526 671 527 671 433 671 524 672 525 672 421 672 522 673 523 673 420 673 520 674 521 674 404 674 518 675 519 675 390 675 516 676 517 676 389 676 514 677 515 677 398 677 512 678 513 678 405 678 510 679 511 679 414 679 508 680 509 680 413 680 506 681 507 681 431 681 504 682 505 682 430 682 502 683 503 683 432 683 500 684 501 684 407 684 498 685 499 685 406 685 496 686 497 686 400 686 494 687 495 687 399 687 492 688 493 688 408 688 490 689 491 689 422 689 488 690 489 690 409 690 486 691 487 691 415 691 484 692 485 692 423 692 482 693 483 693 425 693 480 694 481 694 424 694 478 695 479 695 427 695 476 696 477 696 426 696 474 697 475 697 401 697 472 698 473 698 410 698 470 699 471 699 392 699 468 700 469 700 391 700 466 701 467 701 402 701 464 702 465 702 394 702 462 703 463 703 393 703 460 704 461 704 403 704 458 705 459 705 388 705 456 706 457 706 387 706 454 707 455 707 395 707 452 708 453 708 397 708 450 709 451 709 396 709 448 710 449 710 428 710 446 711 447 711 412 711 444 712 445 712 411 712 442 713 443 713 416 713 440 714 441 714 417 714 438 715 439 715 419 715 436 716 437 716 418 716 435 717 528 717 527 717 525 718 437 718 436 718 525 719 439 719 438 719 525 720 441 720 440 720 525 721 443 721 442 721 525 722 445 722 444 722 493 723 503 723 502 723 493 315 505 315 504 315 436 315 435 315 525 315 440 315 439 315 525 315 444 315 443 315 525 315 511 724 485 724 484 724 511 725 487 725 486 725 499 726 498 726 497 726 504 315 503 315 493 315 493 727 507 727 506 727 527 315 525 315 435 315 442 315 441 315 525 315 486 315 485 315 511 315 511 728 489 728 488 728 497 729 495 729 499 729 495 730 501 730 500 730 506 315 505 315 493 315 493 731 509 731 508 731 438 315 437 315 525 315 525 732 447 732 446 732 523 733 451 733 450 733 523 734 453 734 452 734 511 735 479 735 478 735 511 736 481 736 480 736 511 737 483 737 482 737 488 315 487 315 511 315 501 738 495 738 494 738 500 739 499 739 495 739 508 315 507 315 493 315 493 740 511 740 510 740 447 741 525 741 524 741 446 315 445 315 525 315 523 742 449 742 448 742 452 315 451 315 523 315 511 743 473 743 472 743 511 744 475 744 474 744 480 315 479 315 511 315 484 315 483 315 511 315 497 745 496 745 495 745 510 315 509 315 493 315 527 315 526 315 525 315 450 315 449 315 523 315 515 746 457 746 456 746 515 747 459 747 458 747 515 748 461 748 460 748 515 749 463 749 462 749 515 750 465 750 464 750 515 751 467 751 466 751 511 752 471 752 470 752 474 315 473 315 511 315 482 315 481 315 511 315 511 753 491 753 490 753 511 754 493 754 492 754 502 755 501 755 493 755 453 756 523 756 522 756 448 757 447 757 523 757 458 315 457 315 515 315 462 758 461 758 515 758 466 315 465 315 515 315 515 759 469 759 468 759 472 315 471 315 511 315 511 760 477 760 476 760 490 315 489 315 511 315 494 315 493 315 501 315 453 761 517 761 516 761 453 762 519 762 518 762 453 763 521 763 520 763 524 764 523 764 447 764 460 315 459 315 515 315 468 315 467 315 515 315 476 315 475 315 511 315 492 315 491 315 511 315 469 765 513 765 512 765 469 766 515 766 514 766 518 315 517 315 453 315 522 315 521 315 453 315 515 767 455 767 454 767 464 768 463 768 515 768 478 315 477 315 511 315 514 315 513 315 469 315 520 315 519 315 453 315 456 315 455 315 515 315 512 769 511 769 469 769 454 315 453 315 515 315 516 315 515 315 453 315 470 315 469 315 511 315 231 770 262 770 529 770 230 771 235 771 262 771 262 772 231 772 230 772 530 773 531 773 434 773 434 774 529 774 530 774 529 775 434 775 231 775 532 287 533 287 534 287 534 287 535 287 532 287 529 287 262 287 533 287 532 287 529 287 533 287 536 776 386 776 531 776 385 777 434 777 531 777 531 778 386 778 385 778 531 779 537 779 536 779 530 1 538 1 537 1 537 1 531 1 530 1 539 369 540 369 541 369 542 780 543 780 544 780 539 781 545 781 540 781 539 782 546 782 547 782 539 783 542 783 548 783 542 369 549 369 543 369 539 369 550 369 545 369 548 369 546 369 539 369 542 369 551 369 549 369 542 369 552 369 553 369 542 784 554 784 555 784 547 369 550 369 539 369 553 369 551 369 542 369 555 785 556 785 542 785 544 369 548 369 542 369 556 369 557 369 542 369 530 369 554 369 542 369 539 786 558 786 559 786 557 369 552 369 542 369 530 787 560 787 554 787 541 788 558 788 539 788 353 369 361 369 539 369 530 369 529 369 560 369 559 789 561 789 539 789 539 790 562 790 353 790 561 369 562 369 539 369 562 791 563 791 353 791 563 369 352 369 353 369 542 369 538 369 530 369 564 792 565 792 538 792 536 793 537 793 538 793 538 794 565 794 536 794 538 795 542 795 564 795 364 796 566 796 361 796 567 797 539 797 361 797 361 798 566 798 567 798 361 799 360 799 364 799 564 315 567 315 568 315 564 315 539 315 567 315 568 315 569 315 564 315 564 315 542 315 539 315 568 369 570 369 571 369 571 369 569 369 568 369 570 800 568 800 567 800 567 801 566 801 570 801 569 802 571 802 565 802 565 803 564 803 569 803 355 804 572 804 573 804 359 805 574 805 572 805 575 806 574 806 352 806 574 807 359 807 352 807 562 808 576 808 575 808 561 809 577 809 576 809 559 810 578 810 577 810 558 811 579 811 578 811 541 812 580 812 579 812 540 813 581 813 580 813 545 814 582 814 581 814 550 815 583 815 582 815 547 816 584 816 583 816 546 817 585 817 584 817 548 818 586 818 585 818 544 819 587 819 586 819 543 820 588 820 587 820 549 821 589 821 588 821 551 822 590 822 589 822 553 823 591 823 590 823 552 824 592 824 591 824 557 825 593 825 592 825 556 826 594 826 593 826 555 827 595 827 594 827 554 828 596 828 595 828 560 829 597 829 596 829 598 830 597 830 529 830 597 831 560 831 529 831 535 832 599 832 598 832 534 307 600 307 599 307 533 833 601 833 600 833 601 834 533 834 262 834 262 835 602 835 601 835 254 836 603 836 602 836 256 837 604 837 603 837 251 838 605 838 604 838 250 839 606 839 605 839 243 840 607 840 606 840 242 841 608 841 607 841 252 842 609 842 608 842 244 843 610 843 609 843 239 844 611 844 610 844 238 845 612 845 611 845 246 846 613 846 612 846 245 847 614 847 613 847 253 848 615 848 614 848 247 849 616 849 615 849 241 850 617 850 616 850 240 851 618 851 617 851 249 852 619 852 618 852 248 853 620 853 619 853 258 854 621 854 620 854 257 855 622 855 621 855 261 856 623 856 622 856 260 857 624 857 623 857 624 858 260 858 259 858 259 859 625 859 624 859 357 860 626 860 625 860 356 861 573 861 626 861 626 862 357 862 356 862 625 863 358 863 357 863 259 864 358 864 625 864 623 865 261 865 260 865 622 866 257 866 261 866 621 867 258 867 257 867 620 868 248 868 258 868 619 869 249 869 248 869 618 870 240 870 249 870 617 871 241 871 240 871 616 872 247 872 241 872 615 873 253 873 247 873 614 874 245 874 253 874 613 875 246 875 245 875 612 846 238 846 246 846 611 876 239 876 238 876 610 877 244 877 239 877 609 878 252 878 244 878 608 842 242 842 252 842 607 879 243 879 242 879 606 840 250 840 243 840 605 880 251 880 250 880 604 881 256 881 251 881 603 882 254 882 256 882 602 883 255 883 254 883 262 884 255 884 602 884 600 885 534 885 533 885 599 307 535 307 534 307 598 886 532 886 535 886 529 887 532 887 598 887 596 888 554 888 560 888 595 889 555 889 554 889 594 890 556 890 555 890 593 891 557 891 556 891 592 825 552 825 557 825 591 892 553 892 552 892 590 823 551 823 553 823 589 893 549 893 551 893 588 894 543 894 549 894 587 895 544 895 543 895 586 819 548 819 544 819 585 896 546 896 548 896 584 897 547 897 546 897 583 898 550 898 547 898 582 899 545 899 550 899 581 900 540 900 545 900 580 901 541 901 540 901 579 902 558 902 541 902 578 903 559 903 558 903 577 904 561 904 559 904 576 905 562 905 561 905 575 906 563 906 562 906 352 907 563 907 575 907 572 908 355 908 359 908 573 909 356 909 355 909 586 369 587 369 627 369 610 369 628 369 629 369 611 369 630 369 628 369 575 369 631 369 632 369 576 910 633 910 631 910 634 369 585 369 586 369 587 911 588 911 635 911 628 912 610 912 611 912 612 369 636 369 630 369 613 369 637 369 636 369 614 913 615 913 638 913 615 369 616 369 639 369 616 369 617 369 640 369 617 369 618 369 641 369 623 369 624 369 642 369 624 914 625 914 643 914 626 369 573 369 644 369 572 915 645 915 644 915 574 916 632 916 645 916 631 369 575 369 576 369 635 369 627 369 587 369 588 917 589 917 646 917 589 918 590 918 647 918 591 919 648 919 647 919 630 369 611 369 612 369 636 369 612 369 613 369 639 369 638 369 615 369 641 369 640 369 617 369 622 920 649 920 650 920 643 369 642 369 624 369 625 369 626 369 651 369 644 921 573 921 572 921 632 922 574 922 575 922 579 369 580 369 652 369 580 923 581 923 653 923 582 369 654 369 653 369 583 369 655 369 654 369 584 369 656 369 655 369 585 369 634 369 656 369 646 369 635 369 588 369 647 924 590 924 591 924 595 369 596 369 657 369 604 925 658 925 659 925 613 369 614 369 637 369 640 369 639 369 616 369 619 926 660 926 641 926 620 369 661 369 660 369 621 927 650 927 661 927 650 928 621 928 622 928 651 929 643 929 625 929 645 930 572 930 574 930 577 369 578 369 662 369 653 931 652 931 580 931 654 369 582 369 583 369 656 369 584 369 585 369 647 369 646 369 589 369 592 369 663 369 648 369 593 932 664 932 663 932 594 369 665 369 664 369 665 933 594 933 595 933 659 934 603 934 604 934 605 369 606 369 666 369 607 369 608 369 667 369 608 935 609 935 629 935 638 369 637 369 614 369 660 369 619 369 620 369 622 369 623 369 649 369 644 369 651 369 626 369 633 369 576 369 577 369 578 369 579 369 668 369 653 369 581 369 582 369 627 369 634 369 586 369 663 936 592 936 593 936 657 369 665 369 595 369 666 369 658 369 605 369 606 937 607 937 669 937 629 938 667 938 608 938 641 939 618 939 619 939 642 369 649 369 623 369 668 940 662 940 578 940 655 369 583 369 584 369 664 369 593 369 594 369 669 941 666 941 606 941 629 942 609 942 610 942 662 943 633 943 577 943 648 369 591 369 592 369 667 369 669 369 607 369 652 369 668 369 579 369 596 944 597 944 670 944 597 369 598 369 671 369 602 945 672 945 673 945 603 946 659 946 672 946 661 947 620 947 621 947 671 369 670 369 597 369 672 948 602 948 603 948 670 369 657 369 596 369 598 949 599 949 674 949 599 369 600 369 675 369 601 950 673 950 676 950 604 951 605 951 658 951 675 952 674 952 599 952 676 953 600 953 601 953 674 954 671 954 598 954 673 955 601 955 602 955 676 956 675 956 600 956 645 957 677 957 678 957 632 958 679 958 677 958 631 959 680 959 679 959 633 960 681 960 680 960 662 961 682 961 681 961 668 962 683 962 682 962 652 963 684 963 683 963 653 964 685 964 684 964 654 965 686 965 685 965 655 966 687 966 686 966 656 967 688 967 687 967 634 968 689 968 688 968 627 969 690 969 689 969 635 970 691 970 690 970 646 971 692 971 691 971 647 972 693 972 692 972 648 973 694 973 693 973 663 974 695 974 694 974 664 975 696 975 695 975 665 976 697 976 696 976 657 977 698 977 697 977 670 978 699 978 698 978 671 979 700 979 699 979 674 980 701 980 700 980 676 981 702 981 703 981 701 982 674 982 675 982 675 983 703 983 701 983 673 984 704 984 702 984 672 985 705 985 704 985 659 986 706 986 705 986 658 987 707 987 706 987 666 988 708 988 707 988 669 989 709 989 708 989 667 990 710 990 709 990 629 991 711 991 710 991 628 992 712 992 711 992 630 993 713 993 712 993 636 994 714 994 713 994 637 995 715 995 714 995 638 996 716 996 715 996 639 997 717 997 716 997 640 998 718 998 717 998 641 999 719 999 718 999 660 1000 720 1000 719 1000 661 1001 721 1001 720 1001 650 1002 722 1002 721 1002 649 1003 723 1003 722 1003 642 1004 724 1004 723 1004 643 1005 725 1005 724 1005 651 1006 726 1006 725 1006 644 1007 678 1007 726 1007 726 1007 651 1007 644 1007 725 1008 643 1008 651 1008 724 1009 642 1009 643 1009 723 1010 649 1010 642 1010 722 1011 650 1011 649 1011 721 1012 661 1012 650 1012 720 1001 660 1001 661 1001 719 1013 641 1013 660 1013 718 1014 640 1014 641 1014 717 1015 639 1015 640 1015 716 1016 638 1016 639 1016 715 1017 637 1017 638 1017 714 995 636 995 637 995 713 1018 630 1018 636 1018 712 1019 628 1019 630 1019 711 1020 629 1020 628 1020 710 1021 667 1021 629 1021 709 1022 669 1022 667 1022 708 989 666 989 669 989 707 1023 658 1023 666 1023 706 1024 659 1024 658 1024 705 1025 672 1025 659 1025 704 1026 673 1026 672 1026 702 1027 676 1027 673 1027 703 1028 675 1028 676 1028 700 1029 671 1029 674 1029 699 1030 670 1030 671 1030 698 1031 657 1031 670 1031 697 1032 665 1032 657 1032 696 1033 664 1033 665 1033 695 975 663 975 664 975 694 1034 648 1034 663 1034 693 1035 647 1035 648 1035 692 1036 646 1036 647 1036 691 1037 635 1037 646 1037 690 1038 627 1038 635 1038 689 969 634 969 627 969 688 1039 656 1039 634 1039 687 1040 655 1040 656 1040 686 1041 654 1041 655 1041 685 1042 653 1042 654 1042 684 1043 652 1043 653 1043 683 963 668 963 652 963 682 1044 662 1044 668 1044 681 1045 633 1045 662 1045 680 1046 631 1046 633 1046 679 1047 632 1047 631 1047 677 1048 645 1048 632 1048 678 957 644 957 645 957 716 369 713 369 714 369 693 1049 690 1049 691 1049 693 1050 688 1050 689 1050 710 1051 718 1051 719 1051 710 369 716 369 717 369 716 1052 712 1052 713 1052 716 1053 710 1053 711 1053 689 1054 690 1054 693 1054 693 369 686 369 687 369 717 369 718 369 710 369 711 369 712 369 716 369 687 1055 688 1055 693 1055 693 1056 684 1056 685 1056 714 369 715 369 716 369 720 1057 708 1057 709 1057 684 1058 693 1058 694 1058 685 1059 686 1059 693 1059 709 369 710 369 720 369 691 1060 692 1060 693 1060 695 1061 682 1061 683 1061 705 1062 725 1062 726 1062 707 1063 720 1063 721 1063 720 1064 707 1064 708 1064 682 1065 695 1065 696 1065 683 369 684 369 695 369 699 1066 678 1066 677 1066 705 1067 724 1067 725 1067 705 1068 722 1068 723 1068 719 369 720 369 710 369 722 1069 705 1069 706 1069 682 1070 697 1070 698 1070 694 1071 695 1071 684 1071 699 369 680 369 681 369 677 369 679 369 699 369 723 369 724 369 705 369 706 1072 707 1072 722 1072 696 1073 697 1073 682 1073 679 369 680 369 699 369 721 369 722 369 707 369 678 1074 702 1074 704 1074 678 1075 699 1075 700 1075 681 369 682 369 699 369 704 1076 705 1076 678 1076 698 369 699 369 682 369 678 1077 703 1077 702 1077 700 369 701 369 678 369 701 369 703 369 678 369 726 369 678 369 705 369 727 1078 364 1078 363 1078 728 1 363 1 366 1 366 1 729 1 728 1 366 1079 368 1079 730 1079 731 1080 730 1080 368 1080 370 1081 372 1081 732 1081 733 1082 734 1082 384 1082 735 1083 733 1083 386 1083 571 1084 736 1084 737 1084 570 1 738 1 736 1 730 1085 729 1085 366 1085 732 1086 731 1086 370 1086 374 1 376 1 739 1 740 1087 739 1087 376 1087 386 1088 536 1088 735 1088 735 1 536 1 565 1 736 1 571 1 570 1 570 1089 566 1089 741 1089 727 1090 741 1090 566 1090 368 1091 370 1091 731 1091 732 1092 372 1092 374 1092 376 1093 378 1093 740 1093 565 1 737 1 735 1 741 1094 738 1094 570 1094 363 1 728 1 727 1 739 1 742 1 374 1 740 1095 378 1095 379 1095 382 1 743 1 744 1 737 1096 565 1096 571 1096 374 1 742 1 732 1 744 1 379 1 382 1 384 1 734 1 743 1 566 1097 364 1097 727 1097 743 1 382 1 384 1 379 1098 744 1098 740 1098 384 1099 386 1099 733 1099 742 287 739 287 745 287 745 287 746 287 742 287 736 369 738 369 747 369 747 369 748 369 736 369 741 1100 749 1100 747 1100 747 1101 738 1101 741 1101 737 1102 736 1102 748 1102 748 1103 750 1103 737 1103 735 1104 751 1104 752 1104 752 1105 733 1105 735 1105 734 1106 733 1106 752 1106 752 1107 753 1107 734 1107 737 1108 754 1108 755 1108 737 1109 750 1109 754 1109 755 1110 735 1110 737 1110 755 1111 751 1111 735 1111 756 1112 752 1112 751 1112 756 1113 753 1113 752 1113 756 1114 757 1114 753 1114 751 1115 755 1115 756 1115 734 307 753 307 757 307 757 307 743 307 734 307 757 307 758 307 743 307 727 1116 728 1116 759 1116 759 1117 760 1117 727 1117 729 1118 761 1118 759 1118 759 1119 728 1119 729 1119 741 1120 727 1120 762 1120 762 1121 763 1121 741 1121 727 1122 760 1122 762 1122 763 1123 749 1123 741 1123 764 1124 765 1124 748 1124 748 1125 747 1125 764 1125 765 1126 750 1126 748 1126 747 1127 749 1127 764 1127 765 1128 754 1128 750 1128 749 1129 763 1129 764 1129 766 1130 762 1130 760 1130 760 1131 759 1131 766 1131 759 1132 761 1132 766 1132 761 1133 767 1133 766 1133 729 303 730 303 767 303 730 303 768 303 767 303 767 1134 761 1134 729 1134 756 1135 755 1135 769 1135 755 1136 754 1136 765 1136 765 1137 769 1137 755 1137 769 1138 770 1138 756 1138 762 1139 771 1139 764 1139 766 1140 772 1140 771 1140 771 1141 762 1141 766 1141 764 1142 763 1142 762 1142 764 1143 771 1143 769 1143 769 1144 771 1144 773 1144 773 1145 774 1145 769 1145 769 1146 765 1146 764 1146 774 1147 775 1147 770 1147 770 1148 769 1148 774 1148 773 1149 771 1149 772 1149 772 1150 776 1150 773 1150 757 1151 756 1151 770 1151 770 1152 775 1152 757 1152 777 1153 758 1153 757 1153 775 1154 777 1154 757 1154 744 1155 743 1155 758 1155 758 1156 778 1156 744 1156 767 1157 776 1157 772 1157 767 1158 779 1158 776 1158 772 1159 766 1159 767 1159 767 1160 768 1160 779 1160 730 1161 731 1161 780 1161 780 1162 768 1162 730 1162 744 1163 778 1163 781 1163 781 1164 740 1164 744 1164 778 1165 758 1165 777 1165 777 1166 782 1166 778 1166 783 1167 780 1167 731 1167 731 1168 732 1168 783 1168 780 1169 784 1169 779 1169 779 1170 768 1170 780 1170 732 1171 742 1171 746 1171 746 1172 783 1172 732 1172 746 1173 785 1173 786 1173 786 1174 783 1174 746 1174 780 1175 783 1175 786 1175 786 1176 784 1176 780 1176 775 1 774 1 773 1 784 1177 787 1177 788 1177 784 1178 786 1178 785 1178 776 1 777 1 775 1 785 1 787 1 784 1 782 1179 776 1179 779 1179 776 1180 782 1180 777 1180 779 1 784 1 782 1 788 1 782 1 784 1 773 1 776 1 775 1 745 1181 739 1181 740 1181 740 1182 781 1182 745 1182 778 1183 782 1183 788 1183 788 1184 781 1184 778 1184 745 1185 781 1185 788 1185 788 1186 787 1186 745 1186 746 1187 745 1187 787 1187 787 1188 785 1188 746 1188</p>
        </triangles>
      </mesh>
    </geometry>
  </library_geometries>
  <library_visual_scenes>
    <visual_scene id="Scene" name="Scene">
      <node id="Link_5" name="Link_5" type="NODE">
        <matrix sid="transform">1 0 0 0 0 1 0 0 0 0 1 0 0 0 0 1</matrix>
        <instance_geometry url="#Link_5_001-mesh" name="Link_5">
          <bind_material>
            <technique_common>
              <instance_material symbol="RAL2003_009-material" target="#RAL2003_009-material"/>
            </technique_common>
          </bind_material>
        </instance_geometry>
      </node>
    </visual_scene>
  </library_visual_scenes>
  <scene>
    <instance_visual_scene url="#Scene"/>
  </scene>
</COLLADA>