<?xml version="1.0" encoding="utf-8"?>
<COLLADA xmlns="http://www.collada.org/2005/11/COLLADASchema" version="1.4.1" xmlns:xsi="http://www.w3.org/2001/XMLSchema-instance">
  <asset>
    <contributor>
      <author>Blender User</author>
      <authoring_tool>Blender 2.82.7</authoring_tool>
    </contributor>
    <created>2023-09-19T11:32:45</created>
    <modified>2023-09-19T11:32:45</modified>
    <unit name="meter" meter="1"/>
    <up_axis>Z_UP</up_axis>
  </asset>
  <library_effects>
    <effect id="RAL9005_007-effect">
      <profile_COMMON>
        <technique sid="common">
          <lambert>
            <emission>
              <color sid="emission">0 0 0 1</color>
            </emission>
            <diffuse>
              <color sid="diffuse">0.00200704 0.00200704 0.00200704 1</color>
            </diffuse>
            <index_of_refraction>
              <float sid="ior">1</float>
            </index_of_refraction>
          </lambert>
        </technique>
      </profile_COMMON>
    </effect>
  </library_effects>
  <library_images/>
  <library_materials>
    <material id="RAL9005_007-material" name="RAL9005.007">
      <instance_effect url="#RAL9005_007-effect"/>
    </material>
  </library_materials>
  <library_geometries>
    <geometry id="Link_6_001-mesh" name="Link 6.001">
      <mesh>
        <source id="Link_6_001-mesh-positions">
          <float_array id="Link_6_001-mesh-positions-array" count="1656">0.146 0.03528821 0.01660215 0.146 0.03892302 -0.002451777 0.146 0.03830915 -0.007310748 0.146 0.03709119 -0.0120548 0.146 0.03528821 -0.01660871 0.146 0.03892302 0.002446174 0.146 0.03709119 0.01204919 0.146 -0.03709119 0.01204919 0.146 -0.03528821 0.01660215 0.146 -0.03292876 0.02089416 0.146 -0.03004997 0.0248562 0.146 -0.03892302 -0.002451777 0.146 -0.03892302 0.002446174 0.146 -0.03292876 -0.02089989 0.146 -0.03528821 -0.01660871 0.146 0.03292876 -0.02089989 0.146 0.03830915 0.007305145 0.146 -0.009698867 -0.03777778 0.146 -0.01878833 0.03417325 0.146 -0.01435685 0.03625822 0.146 -0.03830915 0.007305145 0.146 -0.03830915 -0.007310748 0.146 -0.03004997 -0.02486276 0.146 -0.01435685 -0.03626382 0.146 0.02669733 0.02842724 0.146 0.01878833 -0.03417885 0.146 0.01435685 -0.03626382 0.146 -0.02292358 0.03154921 0.146 -0.03709119 -0.0120548 0.146 -0.02292358 -0.03155481 0.146 -0.02669733 -0.02843284 0.146 -0.01878833 -0.03417885 0.146 0.02292358 -0.03155481 0.146 0.03004997 -0.02486276 0.146 0.02669733 -0.02843284 0.146 0.03292876 0.02089416 0.146 0.03004997 0.0248562 0.146 0.009698867 -0.03777778 0.146 0.009698867 0.03777217 0.146 0.01435685 0.03625822 0.146 -0.02669733 0.02842724 0.146 0.01878833 0.03417325 0.146 0 0.03899717 0.146 0.004887938 0.03868925 0.146 -0.009698867 0.03777217 0.146 -0.004887938 0.03868925 0.146 0 -0.03900277 0.146 -0.004887938 -0.03869581 0.146 0.004887938 -0.03869581 0.146 0.02292358 0.03154921 0.1517 -0.004887938 0.03868925 0.1517 0 0.03899717 0.1517 -0.009698867 0.03777217 0.1517 -0.01435685 0.03625822 0.1517 -0.01878833 0.03417325 0.1517 -0.02292358 0.03154921 0.1517 -0.02669733 0.02842724 0.1517 -0.03004997 0.0248562 0.1517 -0.03292876 0.02089416 0.1517 -0.03528821 0.01660215 0.1517 -0.03709119 0.01204919 0.1517 -0.03830915 0.007305145 0.1517 -0.03892302 0.002446174 0.1517 -0.03892302 -0.002451777 0.1517 -0.03830915 -0.007310748 0.1517 -0.03709119 -0.0120548 0.1517 -0.03528821 -0.01660871 0.1517 -0.03292876 -0.02089989 0.1517 -0.03004997 -0.02486276 0.1517 -0.02669733 -0.02843284 0.1517 -0.02292358 -0.03155481 0.1517 -0.01878833 -0.03417885 0.1517 -0.01435685 -0.03626382 0.1517 -0.009698867 -0.03777778 0.1517 -0.004887938 -0.03869581 0.1517 0 -0.03900277 0.1517 0.004887938 -0.03869581 0.1517 0.009698867 -0.03777778 0.1517 0.01435685 -0.03626382 0.1517 0.01878833 -0.03417885 0.1517 0.02292358 -0.03155481 0.1517 0.02669733 -0.02843284 0.1517 0.03004997 -0.02486276 0.1517 0.03292876 -0.02089989 0.1517 0.03528821 -0.01660871 0.1517 0.03709119 -0.0120548 0.1517 0.03830915 -0.007310748 0.1517 0.03892302 -0.002451777 0.1517 0.03892302 0.002446174 0.1517 0.03830915 0.007305145 0.1517 0.03709119 0.01204919 0.1517 0.03528821 0.01660215 0.1517 0.03292876 0.02089416 0.1517 0.03004997 0.0248562 0.1517 0.02669733 0.02842724 0.1517 0.02292358 0.03154921 0.1517 0.01878833 0.03417325 0.1517 0.01435685 0.03625822 0.1517 0.009698867 0.03777217 0.1517 0.004887938 0.03868925 0.1517 0.03132742 -0.003295779 0.1517 0.03148078 0.001096248 0.1517 0.03102141 0.005467176 0.1517 -0.03148078 0.001096248 0.1517 -0.03102141 0.005467176 0.1517 -0.03132742 -0.003295779 0.1517 0.0305643 -0.007623791 0.1517 0.02920627 -0.01180279 0.1517 0.02995824 0.009731173 0.1517 -0.0305643 -0.007623791 0.1517 -0.02920627 -0.01180279 0.1517 0.02482229 -0.01939582 0.1517 0.02188169 -0.0226618 0.1517 0.02727979 -0.01575279 0.1517 0.02831196 0.0138061 0.1517 0.02611464 0.01761126 0.1517 -0.02995824 0.009731173 0.1517 -0.023409 0.02107417 0.1517 -0.02611464 0.01761126 0.1517 -0.02727979 -0.01575279 0.1517 -0.02482229 -0.01939582 0.1517 0.023409 0.02107417 0.1517 0.02024781 0.02412724 0.1517 -0.02831196 0.0138061 0.1517 0.01669245 0.02671003 0.1517 -0.02024781 0.02412724 0.1517 -0.01669245 0.02671003 0.1517 0.01077359 -0.02960371 0.1517 0.01478832 -0.02781581 0.1517 0.01851522 -0.02548682 0.1517 -0.008682548 0.03027725 0.1517 -0.004383921 0.03119003 0.1517 -0.01281219 0.02877414 0.1517 -0.02188169 -0.0226618 0.1517 -0.01851522 -0.02548682 0.1517 0.01281219 0.02877414 0.1517 0.008682548 0.03027725 0.1517 0.004383921 0.03119003 0.1517 0 0.03149724 0.1517 -0.01077359 -0.02960371 0.1517 -0.01478832 -0.02781581 0.1517 -0.006549179 -0.03081476 0.1517 0.002197325 -0.03142583 0.1517 0.006549179 -0.03081476 0.1517 -0.002197325 -0.03142583 0.1517 0 -0.03150284 0.158 -0.004383921 0.03119003 0.158 0 0.03149724 0.158 -0.008682548 0.03027725 0.158 -0.01281219 0.02877414 0.158 -0.008838832 0.03022015 0.158 -0.01669245 0.02671003 0.158 -0.02024781 0.02412724 0.158 -0.02313852 0.02133619 0.158 -0.02133882 0.02307426 0.158 -0.023409 0.02107417 0.158 -0.02611464 0.01761126 0.158 -0.02831196 0.0138061 0.158 -0.02995824 0.009731173 0.158 -0.03102141 0.005467176 0.158 -0.03018146 0.00883615 0.158 -0.03148078 0.001096248 0.158 -0.03132742 -0.003295779 0.158 -0.0305643 -0.007623791 0.158 -0.02920627 -0.01180279 0.158 -0.03016847 -0.008841753 0.158 -0.02727979 -0.01575279 0.158 -0.02482229 -0.01939582 0.158 -0.02307057 -0.0213418 0.158 -0.02188169 -0.0226618 0.158 -0.01851522 -0.02548682 0.158 -0.02133882 -0.02311778 0.158 -0.01478832 -0.02781581 0.158 -0.0108866 -0.02955281 0.158 -0.01077359 -0.02960371 0.158 -0.006549179 -0.03081476 0.158 -0.008838832 -0.0301578 0.158 -0.002197325 -0.03142583 0.158 0.002197325 -0.03142583 0.158 0 -0.03150284 0.158 0.006549179 -0.03081476 0.158 0.008838832 -0.0301578 0.158 0.01077359 -0.02960371 0.158 0.01478832 -0.02781581 0.158 0.0108866 -0.02955281 0.158 0.01851522 -0.02548682 0.158 0.02133882 -0.02311778 0.158 0.02188169 -0.0226618 0.158 0.02482229 -0.01939582 0.158 0.02307057 -0.0213418 0.158 0.02727979 -0.01575279 0.158 0.02920627 -0.01180279 0.158 0.03016847 -0.008841753 0.158 0.02954995 -0.01074481 0.158 0.0305643 -0.007623791 0.158 0.03132742 -0.003295779 0.158 0.03148078 0.001096248 0.158 0.03102141 0.005467176 0.158 0.03018146 0.00883615 0.158 0.02995824 0.009731173 0.158 0.02831196 0.0138061 0.158 0.02954995 0.01074123 0.158 0.02611464 0.01761126 0.158 0.023409 0.02107417 0.158 0.02133882 0.02307426 0.158 0.02313852 0.02133619 0.158 0.02024781 0.02412724 0.158 0.01669245 0.02671003 0.158 0.01281219 0.02877414 0.158 0.008838832 0.03022015 0.158 0.008682548 0.03027725 0.158 0.004383921 0.03119003 0.158 0.02954995 -0.008841753 0.158 0.02954995 0.00883615 0.158 0.02759999 -2.74181e-6 0.158 0.02133882 -0.008841753 0.158 0.02252721 -8.06808e-4 0.158 0.02239996 -2.74181e-6 0.158 0.02747273 -8.06808e-4 0.158 0.02710342 -0.001530766 0.158 0.02747273 8.00133e-4 0.158 0.02133882 0.00883615 0.158 0.02499997 0.002597212 0.158 0.02252721 8.00133e-4 0.158 0.02289652 0.001525163 0.158 0.02652823 0.00210011 0.158 0.02710342 0.001525163 0.158 0.02580344 0.002470135 0.158 0.02347171 0.00210011 0.158 0.02419656 0.002470135 0.158 0.02347171 -0.002106785 0.158 0.02289652 -0.001530766 0.158 0.02499997 -0.002602815 0.158 0.02419656 -0.002475857 0.158 0.02580344 -0.002475857 0.158 0.02652823 -0.002106785 0.158 0.008838832 -0.008841753 0.158 0.008838832 -0.0213418 0.158 0.01510965 -0.01727378 0.158 0.01536101 -0.01649987 0.158 0.02133882 -0.0213418 0.158 0.02024561 -0.01808774 0.158 0.01999425 -0.01886081 0.158 0.02024561 -0.01727378 0.158 0.01510965 -0.01808774 0.158 0.01649725 -0.01999676 0.158 0.01583915 -0.01951873 0.158 0.01951611 -0.01584184 0.158 0.01999425 -0.01649987 0.158 0.01649725 -0.01536381 0.158 0.01727092 -0.01511275 0.158 0.01583915 -0.01584184 0.158 0.01727092 -0.02024877 0.158 0.0180844 -0.02024877 0.158 0.01951611 -0.01951873 0.158 0.01885801 -0.01536381 0.158 0.01536101 -0.01886081 0.158 0.0180844 -0.01511275 0.158 0.01885801 -0.01999676 0.158 0.008838832 0.00883615 0.158 0.02133882 0.02133619 0.158 0.02024561 0.01808118 0.158 0.02024561 0.01726818 0.158 0.01951611 0.01951324 0.158 0.01999425 0.01885521 0.158 0.01999425 0.01649415 0.158 0.0180844 0.02024316 0.158 0.01885801 0.01999127 0.158 0.008838832 0.02133619 0.158 0.01727092 0.02024316 0.158 0.01583915 0.01951324 0.158 0.01649725 0.01999127 0.158 0.01536101 0.01649415 0.158 0.01510965 0.01726818 0.158 0.01583915 0.01583623 0.158 0.01727092 0.01510715 0.158 0.01649725 0.0153582 0.158 0.01951611 0.01583623 0.158 0.01536101 0.01885521 0.158 0.01510965 0.01808118 0.158 0.01885801 0.0153582 0.158 0.0180844 0.01510715 0.158 -0.008838832 -0.02955281 0.158 -0.002472698 -0.02580678 0.158 -0.002599954 -0.02500283 0.158 -0.008838832 -0.0213418 0.158 -0.001528203 -0.02710676 0.158 -0.002103388 -0.02653074 0.158 0.008838832 -0.02955281 0.158 0.002599954 -0.02500283 0.158 -8.03444e-4 -0.02252995 0.158 0 -0.02240288 0.158 -0.002472698 -0.02419984 0.158 -0.002103388 -0.02347481 0.158 0 -0.02760279 0.158 0.002472698 -0.02419984 0.158 0.001528203 -0.02289986 0.158 0.002103388 -0.02347481 0.158 8.03444e-4 -0.02252995 0.158 -0.001528203 -0.02289986 0.158 -8.03444e-4 -0.02747583 0.158 0.002472698 -0.02580678 0.158 0.002103388 -0.02653074 0.158 0.001528203 -0.02710676 0.158 8.03444e-4 -0.02747583 0.158 -0.008838832 -0.008841753 0.158 -0.008838832 0.00883615 0.158 -0.008838832 0.02133619 0.158 -0.02133882 -0.0213418 0.158 -0.02024561 -0.01808774 0.158 -0.02024561 -0.01727378 0.158 -0.01951611 -0.01951873 0.158 -0.01999425 -0.01886081 0.158 -0.01536101 -0.01649987 0.158 -0.01510965 -0.01727378 0.158 -0.02133882 -0.008841753 0.158 -0.01999425 -0.01649987 0.158 -0.01510965 -0.01808774 0.158 -0.01583915 -0.01584184 0.158 -0.01727092 -0.01511275 0.158 -0.0180844 -0.02024877 0.158 -0.01885801 -0.01999676 0.158 -0.01649725 -0.01536381 0.158 -0.01727092 -0.02024877 0.158 -0.01885801 -0.01536381 0.158 -0.0180844 -0.01511275 0.158 -0.01583915 -0.01951873 0.158 -0.01649725 -0.01999676 0.158 -0.01951611 -0.01584184 0.158 -0.01536101 -0.01886081 0.158 -0.02133882 0.00883615 0.158 -0.01510965 0.01726818 0.158 -0.01536101 0.01649415 0.158 -0.01510965 0.01808118 0.158 -0.01649725 0.01999127 0.158 -0.01583915 0.01951324 0.158 -0.02133882 0.02133619 0.158 -0.0180844 0.02024316 0.158 -0.01727092 0.02024316 0.158 -0.02024561 0.01808118 0.158 -0.01999425 0.01885521 0.158 -0.02024561 0.01726818 0.158 -0.01583915 0.01583623 0.158 -0.01885801 0.01999127 0.158 -0.01536101 0.01885521 0.158 -0.01951611 0.01951324 0.158 -0.01951611 0.01583623 0.158 -0.01999425 0.01649415 0.158 -0.01649725 0.0153582 0.158 -0.01727092 0.01510715 0.158 -0.01885801 0.0153582 0.158 -0.0180844 0.01510715 0.158 0.002472698 0.02580022 0.158 0.002599954 0.02499723 0.158 0.002103388 0.02652513 0.158 0.001528203 0.02710008 0.158 0 0.02759718 0.158 8.03444e-4 0.02747011 0.158 -8.03444e-4 0.02747011 0.158 -0.002103388 0.02652513 0.158 -0.001528203 0.02710008 0.158 -0.002472698 0.02580022 0.158 -0.002599954 0.02499723 0.158 0.002472698 0.02419328 0.158 0.002103388 0.0234692 0.158 -0.002472698 0.02419328 0.158 8.03444e-4 0.02252423 0.158 0 0.02239727 0.158 -0.001528203 0.02289319 0.158 -0.002103388 0.0234692 0.158 0.001528203 0.02289319 0.158 -8.03444e-4 0.02252423 0.158 -0.02652823 0.00210011 0.158 -0.02747273 8.00133e-4 0.158 -0.02747273 -8.06808e-4 0.158 -0.02759999 -2.74181e-6 0.158 -0.02252721 8.00133e-4 0.158 -0.02239996 -2.74181e-6 0.158 -0.02710342 0.001525163 0.158 -0.02652823 -0.002106785 0.158 -0.02710342 -0.001530766 0.158 -0.02252721 -8.06808e-4 0.158 -0.02289652 -0.001530766 0.158 -0.02580344 0.002470135 0.158 -0.02499997 0.002597212 0.158 -0.02580344 -0.002475857 0.158 -0.02499997 -0.002602815 0.158 -0.02347171 0.00210011 0.158 -0.02289652 0.001525163 0.158 -0.02419656 0.002470135 0.158 -0.02347171 -0.002106785 0.158 -0.02419656 -0.002475857 0.148 0.02580344 -0.002475857 0.148 0.02499997 -0.002602815 0.148 0.02652823 -0.002106785 0.148 0.02710342 -0.001530766 0.148 0.02747273 -8.06808e-4 0.148 0.02759999 -2.74181e-6 0.148 0.02747273 8.00133e-4 0.148 0.02710342 0.001525163 0.148 0.02652823 0.00210011 0.148 0.02580344 0.002470135 0.148 0.02499997 0.002597212 0.148 0.02419656 0.002470135 0.148 0.02347171 0.00210011 0.148 0.02289652 0.001525163 0.148 0.02252721 8.00133e-4 0.148 0.02239996 -2.74181e-6 0.148 0.02252721 -8.06808e-4 0.148 0.02289652 -0.001530766 0.148 0.02347171 -0.002106785 0.148 0.02419656 -0.002475857 0.148 0.01999425 0.01649415 0.148 0.01951611 0.01583623 0.148 0.02024561 0.01726818 0.148 0.02024561 0.01808118 0.148 0.01999425 0.01885521 0.148 0.01951611 0.01951324 0.148 0.01885801 0.01999127 0.148 0.0180844 0.02024316 0.148 0.01727092 0.02024316 0.148 0.01649725 0.01999127 0.148 0.01583915 0.01951324 0.148 0.01536101 0.01885521 0.148 0.01510965 0.01808118 0.148 0.01510965 0.01726818 0.148 0.01536101 0.01649415 0.148 0.01583915 0.01583623 0.148 0.01649725 0.0153582 0.148 0.01727092 0.01510715 0.148 0.0180844 0.01510715 0.148 0.01885801 0.0153582 0.148 0.002472698 0.02580022 0.148 0.002599954 0.02499723 0.148 0.002103388 0.02652513 0.148 0.001528203 0.02710008 0.148 8.03444e-4 0.02747011 0.148 0 0.02759718 0.148 -8.03444e-4 0.02747011 0.148 -0.001528203 0.02710008 0.148 -0.002103388 0.02652513 0.148 -0.002472698 0.02580022 0.148 -0.002599954 0.02499723 0.148 -0.002472698 0.02419328 0.148 -0.002103388 0.0234692 0.148 -0.001528203 0.02289319 0.148 -8.03444e-4 0.02252423 0.148 0 0.02239727 0.148 8.03444e-4 0.02252423 0.148 0.001528203 0.02289319 0.148 0.002103388 0.0234692 0.148 0.002472698 0.02419328 0.148 -0.01649725 0.01999127 0.148 -0.01583915 0.01951324 0.148 -0.01727092 0.02024316 0.148 -0.0180844 0.02024316 0.148 -0.01885801 0.01999127 0.148 -0.01951611 0.01951324 0.148 -0.01999425 0.01885521 0.148 -0.02024561 0.01808118 0.148 -0.02024561 0.01726818 0.148 -0.01999425 0.01649415 0.148 -0.01951611 0.01583623 0.148 -0.01885801 0.0153582 0.148 -0.0180844 0.01510715 0.148 -0.01727092 0.01510715 0.148 -0.01649725 0.0153582 0.148 -0.01583915 0.01583623 0.148 -0.01536101 0.01649415 0.148 -0.01510965 0.01726818 0.148 -0.01510965 0.01808118 0.148 -0.01536101 0.01885521 0.148 -0.02580344 0.002470135 0.148 -0.02499997 0.002597212 0.148 -0.02652823 0.00210011 0.148 -0.02710342 0.001525163 0.148 -0.02747273 8.00133e-4 0.148 -0.02759999 -2.74181e-6 0.148 -0.02747273 -8.06808e-4 0.148 -0.02710342 -0.001530766 0.148 -0.02652823 -0.002106785 0.148 -0.02580344 -0.002475857 0.148 -0.02499997 -0.002602815 0.148 -0.02419656 -0.002475857 0.148 -0.02347171 -0.002106785 0.148 -0.02289652 -0.001530766 0.148 -0.02252721 -8.06808e-4 0.148 -0.02239996 -2.74181e-6 0.148 -0.02252721 8.00133e-4 0.148 -0.02289652 0.001525163 0.148 -0.02347171 0.00210011 0.148 -0.02419656 0.002470135 0.148 -0.01999425 -0.01649987 0.148 -0.01951611 -0.01584184 0.148 -0.02024561 -0.01727378 0.148 -0.02024561 -0.01808774 0.148 -0.01999425 -0.01886081 0.148 -0.01951611 -0.01951873 0.148 -0.01885801 -0.01999676 0.148 -0.0180844 -0.02024877 0.148 -0.01727092 -0.02024877 0.148 -0.01649725 -0.01999676 0.148 -0.01583915 -0.01951873 0.148 -0.01536101 -0.01886081 0.148 -0.01510965 -0.01808774 0.148 -0.01510965 -0.01727378 0.148 -0.01536101 -0.01649987 0.148 -0.01583915 -0.01584184 0.148 -0.01649725 -0.01536381 0.148 -0.01727092 -0.01511275 0.148 -0.0180844 -0.01511275 0.148 -0.01885801 -0.01536381 0.148 -0.002472698 -0.02580678 0.148 -0.002599954 -0.02500283 0.148 -0.002103388 -0.02653074 0.148 -0.001528203 -0.02710676 0.148 -8.03444e-4 -0.02747583 0.148 0 -0.02760279 0.148 8.03444e-4 -0.02747583 0.148 0.001528203 -0.02710676 0.148 0.002103388 -0.02653074 0.148 0.002472698 -0.02580678 0.148 0.002599954 -0.02500283 0.148 0.002472698 -0.02419984 0.148 0.002103388 -0.02347481 0.148 0.001528203 -0.02289986 0.148 8.03444e-4 -0.02252995 0.148 0 -0.02240288 0.148 -8.03444e-4 -0.02252995 0.148 -0.001528203 -0.02289986 0.148 -0.002103388 -0.02347481 0.148 -0.002472698 -0.02419984 0.148 0.01649725 -0.01999676 0.148 0.01583915 -0.01951873 0.148 0.01727092 -0.02024877 0.148 0.0180844 -0.02024877 0.148 0.01885801 -0.01999676 0.148 0.01951611 -0.01951873 0.148 0.01999425 -0.01886081 0.148 0.02024561 -0.01808774 0.148 0.02024561 -0.01727378 0.148 0.01999425 -0.01649987 0.148 0.01951611 -0.01584184 0.148 0.01885801 -0.01536381 0.148 0.0180844 -0.01511275 0.148 0.01727092 -0.01511275 0.148 0.01649725 -0.01536381 0.148 0.01583915 -0.01584184 0.148 0.01536101 -0.01649987 0.148 0.01510965 -0.01727378 0.148 0.01510965 -0.01808774 0.148 0.01536101 -0.01886081</float_array>
          <technique_common>
            <accessor source="#Link_6_001-mesh-positions-array" count="552" stride="3">
              <param name="X" type="float"/>
              <param name="Y" type="float"/>
              <param name="Z" type="float"/>
            </accessor>
          </technique_common>
        </source>
        <source id="Link_6_001-mesh-normals">
          <float_array id="Link_6_001-mesh-normals-array" count="1911">-1 3.96546e-6 0 -1 5.83268e-6 0 -1 6.53908e-6 0 -1 -3.89199e-5 0 -1 3.875e-5 0 -1 8.0361e-6 0 -1 2.90281e-6 0 -1 0 0 -1 3.79086e-6 0 -1 6.53844e-6 0 -1 -9.7213e-6 0 -1 -8.13357e-7 0 -1 -5.24221e-6 0 -1 -4.90732e-6 0 -1 -2.89784e-6 0 -1 1.83205e-6 0 -1 7.82179e-6 0 -1 3.91086e-6 0 -1 -4.27473e-6 0 -1 1.93514e-6 0 -1 6.98387e-7 0 -1 3.88704e-6 0 -1 4.22758e-6 0 -1 1.1885e-5 0 -1 -5.51397e-6 0 -1 6.53998e-7 0 -1 6.40588e-7 0 -1 -4.11847e-7 0 -1 -3.09695e-6 0 -1 -3.20294e-6 0 -1 5.0031e-6 0 -1 -6.14921e-6 0 -1 -5.29299e-6 0 -1 6.59005e-6 0 -1 4.88535e-6 0 0 -0.06287002 0.9980217 0 -0.1872528 0.9823118 0 -0.3091087 0.9510268 0 -0.4257209 0.9048547 0 -0.5357887 0.8443521 0 -0.6374335 0.7705054 0 -0.7290441 0.6844668 0 -0.809 0.5878086 0 -0.8763144 0.4817398 0 -0.9297558 0.3681768 0 -0.9685861 0.2486786 0 -0.9921147 0.1253342 0 -1 0 0 -0.9921147 -0.1253342 0 -0.9685866 -0.2486767 0 -0.9297811 -0.3681129 0 -0.8762756 -0.4818104 0 -0.8090596 -0.5877267 0 -0.7289528 -0.6845641 0 -0.6374325 -0.7705063 0 -0.535789 -0.8443521 0 -0.4257211 -0.9048545 0 -0.3091088 -0.9510267 0 -0.187441 -0.9822759 0 -0.06267613 -0.998034 0 0.06267613 -0.998034 0 0.1874409 -0.982276 0 0.3091087 -0.9510268 0 0.4257209 -0.9048547 0 0.5357887 -0.8443521 0 0.6374335 -0.7705054 0 0.7289522 -0.6845646 0 0.8090591 -0.5877274 0 0.8762747 -0.481812 0 0.9297818 -0.3681111 0 0.9685861 -0.2486786 0 0.9921147 -0.1253342 0 1 0 0 0.9921147 0.1253342 0 0.9685866 0.2486767 0 0.9297551 0.3681786 0 0.8763152 0.4817382 0 0.8090006 0.587808 0 0.7290446 0.6844663 0 0.6374325 0.7705063 0 0.535789 0.8443521 0 0.4257211 0.9048545 0 0.3091088 0.9510267 0 0.1872529 0.9823119 0 0.06287002 0.9980217 0 0.1872518 0.982312 0 0.3091096 0.9510264 0 0.4257209 0.9048547 0 0.5357887 0.8443521 0 0.6374348 0.7705044 0 0.7290441 0.6844668 0 0.8089986 0.5878106 0 0.8763144 0.4817398 0 0.9297558 0.3681768 0 0.9685861 0.2486786 0 0.9685866 -0.2486767 0 0.9297817 -0.3681116 0 0.8762756 -0.4818104 0 0.8090581 -0.5877286 0 0.7289528 -0.6845641 0 0.6374337 -0.7705052 0 0.535789 -0.8443521 0 0.4257211 -0.9048545 0 0.3091098 -0.9510264 0 0.18744 -0.9822762 0 -0.1874399 -0.9822761 0 -0.3091096 -0.9510264 0 -0.4257209 -0.9048547 0 -0.5357887 -0.8443521 0 -0.6374348 -0.7705044 0 -0.7289522 -0.6845646 0 -0.8090577 -0.5877293 0 -0.8762747 -0.481812 0 -0.9297824 -0.3681097 0 -0.9685861 -0.2486786 0 -0.9685866 0.2486767 0 -0.9297551 0.3681786 0 -0.8763152 0.4817382 0 -0.8089991 0.5878099 0 -0.7290446 0.6844663 0 -0.6374337 0.7705052 0 -0.535789 0.8443521 0 -0.4257211 0.9048545 0 -0.3091098 0.9510264 0 -0.1872519 0.982312 1 0 0 1 -2.39527e-6 0 1 -1.59302e-6 0 1 -3.51182e-6 0 1 2.63387e-6 0 1 1.58767e-6 0 1 3.19369e-6 0 1 3.5035e-6 0 1 -3.52445e-6 0 1 3.51258e-6 0 1 -1.09311e-6 0 1 3.19866e-6 0 1 -3.17534e-6 0 1 3.50334e-6 0 1 1.74881e-6 0 1 -3.50334e-6 0 1 1.59302e-6 0 1 3.18604e-6 0 1 -3.5035e-6 0 1 1.00052e-6 0 1 -3.19866e-6 0 1 -3.51258e-6 0 1 -1.60077e-6 0 1 1.76223e-6 0 1 -8.78061e-7 0 1 2.62763e-6 0 1 -1.74874e-6 0 1 -3.18592e-6 0 1 3.18592e-6 0 1 -3.08387e-6 0 1 -1.59693e-6 0 1 -3.51231e-6 0 1 2.38946e-6 0 1 1.76225e-6 0 1 1.59703e-6 0 1 -6.40321e-6 0 1 -2.62336e-6 0 1 -2.98017e-6 0 1 5.00251e-6 0 1 7.99777e-7 0 1 3.17557e-6 0 0 -0.06990289 0.9975539 0 -0.2077118 0.9781901 0 -0.3419831 0.9397062 3.4164e-5 -0.3420311 0.9396886 0 -0.4696381 0.8828591 0 -0.5877375 0.8090518 -8.95509e-5 -0.6946784 0.7193205 -8.14645e-5 -0.6946938 0.7193056 0 -0.6957609 0.7182736 0 -0.7879999 0.6156754 0 -0.8659847 0.5000706 0 -0.9271926 0.3745849 0 -0.9702963 0.2419194 -5.91317e-6 -0.9702937 0.2419301 0 -0.9945231 0.1045181 0 -0.999391 -0.03489857 0 -0.9848089 -0.1736419 0 -0.9510488 -0.3090409 8.41066e-6 -0.9510439 -0.309056 0 -0.8987982 -0.4383627 0 -0.8290167 -0.559224 -4.40183e-5 -0.7431566 -0.6691176 0 -0.7430517 -0.6692341 0 -0.6427496 -0.7660764 -4.8354e-5 -0.6428141 -0.7660223 0 -0.5299475 -0.8480305 8.22697e-5 -0.4068191 -0.9135088 0 -0.4106603 -0.9117885 0 -0.2758021 -0.9612144 8.83027e-5 -0.275578 -0.9612788 0 -0.1390502 -0.9902853 0 0.03502517 -0.9993865 0 -0.03502517 -0.9993865 0 0.1390502 -0.9902853 8.85655e-5 0.275578 -0.9612788 0 0.2753111 -0.9613552 0 0.4067073 -0.9135587 8.25161e-5 0.4068199 -0.9135085 0 0.5299473 -0.8480306 -4.85511e-5 0.6428141 -0.7660223 0 0.6431394 -0.7657492 0 0.743227 -0.6690394 -4.41497e-5 0.7431566 -0.6691176 0 0.8290167 -0.559224 0 0.8987986 -0.4383619 8.44351e-6 0.951044 -0.3090557 1.81806e-5 0.9510376 -0.3090754 0 0.9510298 -0.3090993 0 0.9848089 -0.1736419 0 0.999391 -0.03489857 0 0.9945229 0.1045191 -5.88032e-6 0.9702937 0.2419301 0 0.9702844 0.2419676 0 0.9272155 0.3745283 3.16657e-5 0.9271925 0.3745854 0 0.8659847 0.5000706 0 0.7879999 0.6156754 -8.1596e-5 0.6946933 0.7193061 -8.95508e-5 0.6946791 0.7193199 0 0.6944476 0.7195433 0 0.587738 0.8090515 0 0.4696376 0.8828594 3.40326e-5 0.3420307 0.9396889 0 0.3432316 0.9392508 0 0.2077119 0.9781901 0 0.06990289 0.9975539 0 0.2077129 0.9781898 0 0.3419831 0.9397062 0 0.4696397 0.8828582 0 0.5877361 0.8090527 0 0.6957609 0.7182736 0 0.8659836 0.5000724 0 0.9271234 0.3747564 0 0.9702963 0.2419194 0 0.9945231 0.1045185 0 0.9993909 -0.0348984 0 0.9848088 -0.1736426 0 0.9510689 -0.3089789 0 0.898799 -0.4383611 0 0.8290154 -0.5592259 0 0.7430517 -0.6692341 0 0.6427496 -0.7660764 0 0.5299475 -0.8480305 0 0.4106603 -0.9117885 0 0.2758021 -0.9612144 0 0.1390497 -0.9902855 0 -0.1390497 -0.9902855 0 -0.2753111 -0.9613552 0 -0.4067073 -0.9135587 0 -0.5299473 -0.8480306 0 -0.6431394 -0.7657492 0 -0.743227 -0.6690394 0 -0.8290154 -0.5592259 0 -0.8987994 -0.4383602 0 -0.9510298 -0.3090993 0 -0.9848088 -0.1736426 0 -0.9993909 -0.0348984 0 -0.9945229 0.1045196 0 -0.9702844 0.2419676 0 -0.9271925 0.3745854 0 -0.8659836 0.5000724 0 -0.6944476 0.7195433 0 -0.5877366 0.8090525 0 -0.4696393 0.8828584 0 -0.3432316 0.9392508 0 -0.2077128 0.9781899 1 6.75422e-6 0 1 -4.4141e-5 0 1 6.50924e-6 0 1 -4.32713e-5 0 1 -1.52002e-5 0 1 2.59301e-6 0 1 1.92434e-5 0 1 -8.55564e-6 0 1 -2.2582e-5 0 1 2.21261e-5 0 1 4.1073e-5 0 1 -3.15462e-5 0 1 2.97031e-6 0 1 3.5e-5 0 1 -1.70387e-5 0 1 1.71058e-5 0 1 -6.40189e-6 0 1 -1.30832e-4 0 1 6.40148e-6 0 1 -2.08825e-6 0 1 -2.44934e-6 0 1 -2.81079e-5 0 1 5.31281e-6 0 1 -1.02735e-5 0 1 1.0627e-5 0 1 1.40527e-5 0 1 -6.5493e-5 0 1 -1.40529e-5 0 1 -1.96269e-5 0 1 -4.36894e-6 0 1 -6.40202e-6 0 1 8.34715e-6 0 1 -9.14906e-6 0 1 5.31276e-6 0 1 -5.20202e-6 0 1 4.54506e-6 0 1 -7.77068e-6 0 1 -2.27253e-6 0 1 -9.20671e-6 0 1 1.06303e-5 0 1 2.85364e-6 0 1 9.20676e-6 0 1 7.59193e-6 0 1 -1.06303e-5 0 1 -4.85696e-6 0 1 -3.25471e-6 0 1 -1.51838e-5 0 1 1.03609e-5 0 1 9.81242e-5 0 1 2.10809e-5 0 1 -7.00001e-5 0 1 -1.71058e-5 0 1 3.65924e-6 0 1 -4.36793e-6 0 1 -2.81054e-5 0 1 -2.56711e-6 0 1 6.40189e-6 0 1 -7.97024e-6 0 1 1.02735e-5 0 1 -2.97031e-6 0 1 -1.14172e-5 0 1 6.40202e-6 0 1 1.70387e-5 0 1 -2.45017e-6 0 1 4.36894e-6 0 1 -1.60045e-5 0 1 2.08825e-6 0 1 -1.06255e-5 0 1 -5.31281e-6 0 1 -1.40532e-5 0 1 1.24319e-5 0 1 1.53241e-6 0 1 6.02771e-6 0 1 -1.58255e-6 0 1 2.38359e-5 0 1 -3.36408e-5 0 1 -1.20422e-5 0 1 6.42079e-5 0 1 -2.89012e-6 0 1 -3.14104e-6 0 1 -3.86544e-6 0 1 1.0258e-5 0 1 2.41572e-5 0 1 -2.62975e-6 0 1 -4.20078e-6 0 1 3.64307e-6 0 1 2.43811e-5 0 1 2.10039e-6 0 1 -2.56889e-6 0 1 -1.67187e-6 0 1 -1.80945e-6 0 1 -1.59281e-5 0 1 3.68464e-6 0 1 1.06188e-5 0 1 -3.71521e-5 0 1 2.84962e-6 0 1 1.90183e-6 0 1 -3.68462e-6 0 1 -2.47347e-6 0 1 3.86544e-6 0 1 3.14104e-6 0 1 -6.04309e-5 0 1 5.78024e-6 0 1 1.5905e-6 0 1 -6.47985e-6 0 1 -4.1212e-7 0 1 -8.51948e-6 0 1 -5.88928e-5 0 1 2.70956e-5 0 1 1.32331e-5 0 1 7.60341e-6 0 1 -1.34715e-5 0 1 2.23487e-6 0 1 5.93096e-6 0 1 2.85282e-6 0 1 1.39466e-5 0 1 1.75069e-5 0 1 -1.56902e-5 0 1 -4.10723e-5 0 1 -3.33718e-5 0 1 -3.21936e-6 0 1 -4.60746e-6 0 1 -6.02771e-6 0 1 7.11109e-6 0 1 1.05054e-5 0 1 4.02953e-6 0 1 -1.05054e-5 0 1 -1.24319e-5 0 1 4.25074e-5 0 1 -7.48358e-5 0 0 -0.1560807 0.9877443 0 -0.4537626 0.8911226 0 -0.7076045 0.7066088 0 -0.8907956 0.4544042 0 -0.987708 0.1563103 0 -0.9876711 -0.1565437 0 -0.8910676 -0.4538706 0 -0.7069448 -0.7072687 0 -0.4546931 -0.8906482 0 -0.1562249 -0.9877216 0 0.1562243 -0.9877216 0 0.4546946 -0.8906475 0 0.7069485 -0.7072651 0 0.8910633 -0.4538792 0 0.9876717 -0.1565402 0 0.9877075 0.1563138 0 0.8907914 0.4544128 0 0.7076098 0.7066034 0 0.4537626 0.8911226 0 0.1560807 0.9877443 0 0.1560816 0.9877442 0 0.4537641 0.8911219 0 0.7076081 0.7066052 0 0.8907909 0.4544135 0 0.9877075 0.1563135 0 0.9876717 -0.1565396 0 0.7069512 -0.7072625 0 0.4546931 -0.8906482 0 0.1562242 -0.9877217 0 -0.1562242 -0.9877217 0 -0.7069457 -0.7072678 0 -0.9876723 -0.1565361 0 -0.987707 0.1563171 0 -0.8907952 0.454405 0 -0.1560822 0.9877442 1 -2.5788e-5 0 1 1.28943e-5 0 1 4.1393e-5 0 1 -4.96709e-5 0 1 6.08891e-6 0 1 -1.21778e-5 0 1 -2.61236e-6 0 1 4.8129e-5 0 1 -4.81026e-5 0 0 -0.8089365 0.5878959 0 -0.9511032 0.3088735 0 -0.9511021 -0.3088767 0 -0.8089873 -0.5878261 0 -0.5877003 -0.8090788 0 -0.3095898 -0.9508702 0 0 -1 0 0.3095898 -0.9508702 0 0.5876986 -0.80908 0 0.8089873 -0.5878261 0 0.9511021 -0.3088767 0 0.9511021 0.3088767 0 0.8089365 0.5878959 0 0.5877003 0.8090788 0 0.3086611 0.9511721 0 0 1 0 -0.3086611 0.9511721 0 -0.5876986 0.80908 0 -0.5877003 0.8090788 0 -0.3086619 0.9511719 0 0.3086619 0.9511719 0 0.5876986 0.80908 0 0.951102 0.3088772 0 0.951102 -0.3088772 0 0.5877003 -0.8090788 0 0.309589 -0.9508706 0 -0.309589 -0.9508706 0 -0.5876986 -0.80908 0 -0.951103 -0.308874 0 -0.951102 0.3088772 1 -4.90202e-5 0 1 -1.28957e-5 0 1 1.43118e-5 0 1 1.01496e-5 0 1 3.00701e-5 0 1 7.1095e-5 0 1 2.45429e-5 0 1 1.65451e-5 0 1 1.46491e-5 0 1 -3.24793e-5 0 0 -0.9876748 -0.1565198 0 -0.8910354 -0.4539338 0 -0.7069487 -0.7072649 0 -0.4546954 -0.8906471 0 -0.1562232 -0.9877219 0 0.1562231 -0.9877219 0 0.4546957 -0.8906469 0 0.7069489 -0.7072647 0 0.8910354 -0.4539338 0 0.9876748 -0.1565203 0 0.9877035 0.1563388 0 0.8908236 0.4543495 0 0.7076083 0.706605 0 0.4536492 0.8911805 0 0.15608 0.9877445 0 -0.1560801 0.9877444 0 -0.4536492 0.8911805 0 -0.7076085 0.7066048 0 -0.8908236 0.4543495 0 -0.9877034 0.1563392 0 -0.9877035 0.1563388 0 -0.8908239 0.4543487 0 -0.7076083 0.706605 0 -0.4536483 0.8911808 0 -0.1560805 0.9877444 0 0.1560804 0.9877443 0 0.4536486 0.8911806 0 0.7076085 0.7066048 0 0.8908239 0.4543487 0 0.9877034 0.1563392 0 0.9876748 -0.1565201 0 0.7069495 -0.707264 0 0.4546955 -0.890647 0 0.1562236 -0.9877218 0 -0.1562236 -0.9877218 0 -0.4546955 -0.890647 0 -0.7069498 -0.7072638 0 -0.9876747 -0.1565206 1 -2.45322e-5 0 1 -2.57884e-5 0 1 -4.96715e-5 0 1 4.13929e-5 0 1 4.90644e-5 0 1 5.15767e-5 0 1 -8.11877e-6 0 1 6.08908e-6 0 1 -2.6124e-6 0 1 -4.81013e-5 0 1 4.81293e-5 0 0 0.9511032 -0.3088735 0 -0.9511021 0.3088767 0 -0.951102 -0.3088772 0 0.951103 0.308874 1 -8.28168e-6 0 1 -1.46506e-5 0 1 8.28168e-6 0 1 -1.28818e-5 0 1 3.48365e-6 0 1 -1.28845e-5 0 1 -7.13121e-5 0 1 1.46503e-5 0 1 4.90677e-5 0 1 -6.96639e-6 0 0 0.1562238 -0.9877217 0 0.7069448 -0.7072687 0 0.8910676 -0.4538706 0 0.9876722 -0.1565367 0 0.987707 0.1563173 0 0.8907956 0.4544042 0 0.7076045 0.7066088 0 0.1560817 0.9877442 0 -0.1560812 0.9877443 0 -0.4537641 0.8911219 0 -0.7076081 0.7066052 0 -0.8907914 0.4544128 0 -0.9877075 0.1563138 0 -0.9876717 -0.1565402 0 -0.8910633 -0.4538792 0 -0.7069503 -0.7072634 0 -0.1562238 -0.9877217 0 -0.1562247 -0.9877216 0 -0.4546946 -0.8906475 0 -0.7069493 -0.7072643 0 -0.9876717 -0.1565396 0 -0.9877075 0.1563135 0 -0.8907909 0.4544135 0 -0.7076098 0.7066034 0 -0.1560811 0.9877443 0 0.1560811 0.9877443 0 0.8907952 0.454405 0 0.987708 0.1563101 0 0.9876712 -0.1565431 0 0.7069457 -0.7072678 0 0.1562253 -0.9877215 1 1.2894e-5 0 1 -2.57885e-5 0 1 -4.96716e-5 0 1 4.13924e-5 0 1 -2.61235e-6 0 1 -4.81027e-5 0 1 4.8129e-5 0 0 0.9510892 -0.3089166 0 0.9509902 0.3092212 0 0.3097215 0.9508273 0 -0.3097215 0.9508273 0 -0.9509902 0.3092212 0 -0.9510881 -0.3089198 0 -0.3086611 -0.9511721 0 0.3086611 -0.9511721 0 0.3086619 -0.9511719 0 -0.3086619 -0.9511719 0 -0.3097224 0.9508271 0 0.3097224 0.9508271 0 0.9509913 0.3092179 0 0.9510881 -0.3089198 1 -1.90846e-5 0 1 -1.01498e-5 0 1 1.20279e-5 0 1 7.12435e-5 0 1 3.81823e-5 0 1 -1.46491e-5 0 1 3.24769e-5 0 0 0.8907936 0.4544081 0 0.453765 0.8911215 0 -0.453765 0.8911215 0 -0.8907936 0.4544081 0 -0.8910657 -0.4538745 0 -0.4545791 -0.8907064 0 0.4545794 -0.8907063 0 0.8910657 -0.4538745 0 0.4545792 -0.8907064 0 -0.4545792 -0.8907064 0 -0.8907933 0.4544089 0 -0.4537649 0.8911215 0 0.4537652 0.8911214 0 0.8907933 0.4544089 1 2.45328e-5 0 1 -7.12328e-5 0 1 -7.10633e-5 0 1 4.05938e-6 0 1 -1.21782e-5 0 1 4.81277e-5 0 1 -4.81028e-5 0 0 -0.9509913 0.3092179 0 -0.9510892 -0.3089166 1 1.46507e-5 0 1 -2.84008e-5 0 1 1.46509e-5 0 1 6.96646e-6 0 1 -1.04511e-5 0 1 4.80969e-5 0</float_array>
          <technique_common>
            <accessor source="#Link_6_001-mesh-normals-array" count="637" stride="3">
              <param name="X" type="float"/>
              <param name="Y" type="float"/>
              <param name="Z" type="float"/>
            </accessor>
          </technique_common>
        </source>
        <vertices id="Link_6_001-mesh-vertices">
          <input semantic="POSITION" source="#Link_6_001-mesh-positions"/>
        </vertices>
        <triangles material="RAL9005_007-material" count="1100">
          <input semantic="VERTEX" source="#Link_6_001-mesh-vertices" offset="0"/>
          <input semantic="NORMAL" source="#Link_6_001-mesh-normals" offset="1"/>
          <p>0 0 1 0 2 0 0 1 3 1 4 1 0 2 5 2 1 2 5 3 0 3 6 3 7 4 8 4 9 4 10 5 11 5 12 5 10 6 13 6 14 6 4 7 15 7 0 7 6 7 16 7 5 7 17 8 18 8 19 8 10 9 20 9 7 9 10 10 21 10 11 10 10 11 22 11 13 11 10 12 17 12 23 12 24 13 25 13 26 13 2 7 3 7 0 7 17 14 27 14 18 14 12 7 20 7 10 7 14 7 28 7 10 7 10 15 29 15 30 15 23 16 31 16 10 16 24 17 32 17 25 17 24 18 33 18 34 18 33 19 35 19 0 19 33 20 24 20 36 20 37 21 38 21 39 21 17 22 40 22 27 22 28 23 21 23 10 23 31 7 29 7 10 7 34 7 32 7 24 7 36 7 35 7 33 7 39 24 41 24 37 24 17 25 42 25 43 25 17 26 44 26 45 26 17 27 10 27 40 27 30 7 22 7 10 7 38 28 46 28 47 28 38 29 37 29 48 29 15 7 33 7 0 7 41 7 49 7 37 7 45 7 42 7 17 7 9 7 10 7 7 7 48 30 46 30 38 30 49 31 24 31 37 31 19 32 44 32 17 32 26 33 37 33 24 33 47 34 17 34 38 34 43 7 38 7 17 7 45 35 50 35 51 35 44 36 52 36 50 36 19 37 53 37 52 37 18 38 54 38 53 38 27 39 55 39 54 39 40 40 56 40 55 40 10 41 57 41 56 41 9 42 58 42 57 42 8 43 59 43 58 43 7 44 60 44 59 44 20 45 61 45 60 45 12 46 62 46 61 46 11 47 63 47 62 47 21 48 64 48 63 48 28 49 65 49 64 49 14 50 66 50 65 50 13 51 67 51 66 51 22 52 68 52 67 52 30 53 69 53 68 53 29 54 70 54 69 54 31 55 71 55 70 55 23 56 72 56 71 56 17 57 73 57 72 57 47 58 74 58 73 58 46 59 75 59 74 59 48 60 76 60 75 60 37 61 77 61 76 61 26 62 78 62 77 62 25 63 79 63 78 63 32 64 80 64 79 64 34 65 81 65 80 65 33 66 82 66 81 66 15 67 83 67 82 67 4 68 84 68 83 68 3 69 85 69 84 69 2 70 86 70 85 70 1 71 87 71 86 71 5 72 88 72 87 72 16 73 89 73 88 73 6 74 90 74 89 74 0 75 91 75 90 75 35 76 92 76 91 76 36 77 93 77 92 77 24 78 94 78 93 78 49 79 95 79 94 79 41 80 96 80 95 80 39 81 97 81 96 81 38 82 98 82 97 82 43 83 99 83 98 83 42 84 51 84 99 84 99 84 43 84 42 84 98 85 38 85 43 85 97 86 39 86 38 86 96 87 41 87 39 87 95 88 49 88 41 88 94 89 24 89 49 89 93 90 36 90 24 90 92 91 35 91 36 91 91 92 0 92 35 92 90 93 6 93 0 93 89 94 16 94 6 94 88 73 5 73 16 73 87 72 1 72 5 72 86 71 2 71 1 71 85 95 3 95 2 95 84 96 4 96 3 96 83 97 15 97 4 97 82 98 33 98 15 98 81 99 34 99 33 99 80 100 32 100 34 100 79 101 25 101 32 101 78 102 26 102 25 102 77 103 37 103 26 103 76 104 48 104 37 104 75 60 46 60 48 60 74 59 47 59 46 59 73 105 17 105 47 105 72 106 23 106 17 106 71 107 31 107 23 107 70 108 29 108 31 108 69 109 30 109 29 109 68 110 22 110 30 110 67 111 13 111 22 111 66 112 14 112 13 112 65 113 28 113 14 113 64 114 21 114 28 114 63 48 11 48 21 48 62 47 12 47 11 47 61 46 20 46 12 46 60 115 7 115 20 115 59 116 8 116 7 116 58 117 9 117 8 117 57 118 10 118 9 118 56 119 40 119 10 119 55 120 27 120 40 120 54 121 18 121 27 121 53 122 19 122 18 122 52 123 44 123 19 123 50 124 45 124 44 124 51 35 42 35 45 35 86 125 87 125 100 125 87 126 88 126 101 126 101 125 100 125 87 125 88 127 89 127 102 127 62 128 103 128 104 128 63 125 105 125 103 125 85 125 106 125 107 125 102 129 101 129 88 129 89 130 90 130 108 130 103 131 62 131 63 131 64 125 109 125 105 125 65 125 66 125 110 125 82 125 111 125 112 125 83 132 113 132 111 132 107 125 84 125 85 125 108 125 102 125 89 125 91 133 114 133 108 133 92 134 115 134 114 134 59 125 60 125 116 125 61 125 104 125 116 125 105 125 63 125 64 125 109 125 64 125 65 125 111 125 82 125 83 125 84 125 107 125 113 125 100 135 106 135 86 135 114 125 91 125 92 125 56 136 57 136 117 136 57 125 58 125 118 125 116 137 60 137 61 137 110 125 109 125 65 125 66 125 67 125 119 125 67 125 68 125 120 125 113 125 83 125 84 125 108 125 90 125 91 125 93 138 121 138 115 138 94 139 122 139 121 139 118 140 117 140 57 140 58 141 59 141 123 141 104 142 61 142 62 142 120 143 119 143 67 143 85 144 86 144 106 144 121 145 93 145 94 145 95 125 96 125 124 125 55 125 125 125 126 125 123 146 118 146 58 146 119 125 110 125 66 125 115 125 92 125 93 125 122 147 94 147 95 147 126 125 54 125 55 125 116 148 123 148 59 148 77 125 78 125 127 125 78 125 79 125 128 125 81 125 112 125 129 125 124 125 122 125 95 125 52 149 130 149 131 149 53 150 132 150 130 150 54 151 126 151 132 151 117 125 125 125 56 125 68 152 69 152 133 152 69 125 70 125 134 125 128 125 127 125 78 125 79 125 80 125 129 125 112 153 81 153 82 153 96 125 97 125 135 125 97 125 98 125 136 125 98 125 99 125 137 125 50 154 131 154 138 154 130 155 52 155 53 155 55 125 56 125 125 125 134 125 133 125 69 125 72 156 139 156 140 156 73 125 141 125 139 125 129 125 128 125 79 125 135 125 124 125 96 125 137 125 136 125 98 125 99 125 51 125 138 125 131 157 50 157 52 157 133 125 120 125 68 125 71 158 140 158 134 158 139 159 72 159 73 159 75 160 76 160 142 160 76 125 77 125 143 125 129 125 80 125 81 125 138 125 137 125 99 125 132 125 53 125 54 125 140 125 71 125 72 125 74 161 144 161 141 161 75 162 145 162 144 162 143 125 142 125 76 125 136 125 135 125 97 125 134 125 70 125 71 125 144 163 74 163 75 163 127 125 143 125 77 125 141 164 73 164 74 164 138 165 51 165 50 165 142 125 145 125 75 125 131 166 146 166 147 166 130 167 148 167 146 167 132 168 149 168 150 168 150 169 130 169 132 169 126 170 151 170 149 170 125 171 152 171 151 171 117 172 153 172 154 172 154 173 125 173 117 173 117 174 155 174 153 174 118 175 156 175 155 175 123 176 157 176 156 176 116 177 158 177 157 177 104 178 159 178 160 178 160 179 116 179 104 179 103 180 161 180 159 180 105 181 162 181 161 181 109 182 163 182 162 182 110 183 164 183 165 183 165 184 109 184 110 184 119 185 166 185 164 185 120 186 167 186 166 186 120 187 133 187 168 187 133 188 169 188 168 188 134 189 170 189 171 189 171 190 133 190 134 190 140 191 172 191 170 191 140 192 139 192 173 192 139 193 174 193 173 193 141 194 175 194 176 194 176 195 139 195 141 195 144 196 177 196 175 196 142 197 178 197 179 197 177 198 144 198 145 198 145 198 179 198 177 198 143 199 180 199 178 199 143 200 127 200 181 200 127 201 182 201 181 201 128 202 183 202 184 202 184 203 127 203 128 203 129 204 185 204 183 204 129 205 112 205 186 205 112 206 187 206 186 206 111 207 188 207 189 207 189 208 112 208 111 208 113 209 190 209 188 209 107 210 191 210 190 210 107 211 106 211 192 211 192 212 193 212 107 212 106 213 194 213 192 213 100 214 195 214 194 214 101 215 196 215 195 215 102 216 197 216 196 216 102 217 108 217 198 217 108 218 199 218 198 218 114 219 200 219 201 219 201 220 108 220 114 220 115 221 202 221 200 221 121 222 203 222 202 222 121 223 122 223 204 223 204 224 205 224 121 224 122 225 206 225 204 225 124 226 207 226 206 226 135 227 208 227 207 227 135 228 136 228 209 228 136 229 210 229 209 229 137 230 211 230 210 230 138 231 147 231 211 231 211 231 137 231 138 231 210 232 136 232 137 232 209 233 208 233 135 233 207 234 124 234 135 234 206 235 122 235 124 235 205 236 203 236 121 236 202 222 115 222 121 222 200 237 114 237 115 237 201 238 199 238 108 238 198 239 197 239 102 239 196 240 101 240 102 240 195 241 100 241 101 241 194 242 106 242 100 242 193 243 191 243 107 243 190 244 113 244 107 244 188 245 111 245 113 245 189 246 187 246 112 246 186 247 185 247 129 247 183 248 128 248 129 248 184 249 182 249 127 249 181 250 180 250 143 250 178 251 142 251 143 251 179 197 145 197 142 197 175 252 141 252 144 252 176 253 174 253 139 253 173 254 172 254 140 254 170 255 134 255 140 255 171 256 169 256 133 256 168 257 167 257 120 257 166 258 119 258 120 258 164 259 110 259 119 259 165 260 163 260 109 260 162 261 105 261 109 261 161 262 103 262 105 262 159 263 104 263 103 263 160 264 158 264 116 264 157 265 123 265 116 265 156 266 118 266 123 266 155 175 117 175 118 175 154 267 152 267 125 267 151 268 126 268 125 268 149 269 132 269 126 269 150 270 148 270 130 270 146 271 131 271 130 271 147 166 138 166 131 166 212 272 213 272 214 272 215 273 216 273 217 273 212 274 218 274 219 274 213 275 220 275 214 275 213 125 221 125 222 125 221 276 223 276 224 276 217 125 221 125 215 125 214 125 218 125 212 125 213 277 225 277 226 277 222 125 227 125 213 125 221 278 228 278 229 278 217 125 223 125 221 125 215 279 230 279 231 279 226 125 220 125 213 125 229 125 222 125 221 125 231 125 216 125 215 125 215 280 232 280 233 280 212 281 234 281 232 281 227 125 225 125 213 125 233 282 230 282 215 282 212 283 235 283 234 283 224 125 228 125 221 125 219 125 235 125 212 125 236 284 237 284 238 284 238 125 239 125 236 125 240 285 241 285 242 285 240 286 215 286 243 286 237 287 244 287 238 287 237 288 245 288 246 288 243 289 241 289 240 289 215 290 247 290 248 290 236 291 249 291 250 291 239 125 251 125 236 125 237 292 252 292 245 292 240 125 253 125 252 125 242 293 254 293 240 293 215 294 255 294 247 294 250 125 215 125 236 125 237 295 256 295 244 295 252 125 237 125 240 125 248 125 243 125 215 125 250 125 257 125 215 125 246 296 256 296 237 296 254 297 258 297 240 297 251 125 249 125 236 125 257 125 255 125 215 125 215 125 221 125 259 125 260 298 261 298 262 298 260 299 263 299 264 299 221 300 262 300 265 300 264 125 261 125 260 125 262 125 221 125 260 125 260 301 266 301 267 301 260 125 268 125 269 125 268 302 270 302 271 302 259 303 272 303 273 303 267 125 263 125 260 125 271 125 269 125 268 125 259 304 274 304 272 304 259 125 221 125 275 125 269 125 266 125 260 125 273 125 268 125 259 125 275 125 276 125 259 125 265 125 277 125 221 125 276 125 274 125 259 125 268 305 278 305 270 305 273 125 279 125 268 125 277 125 280 125 221 125 221 125 281 125 275 125 279 125 278 125 268 125 282 306 283 306 284 306 284 307 285 307 282 307 282 308 286 308 287 308 288 309 237 309 289 309 285 310 290 310 291 310 285 125 292 125 293 125 287 125 283 125 282 125 282 125 288 125 294 125 237 311 295 311 289 311 237 312 296 312 297 312 237 313 291 313 298 313 285 314 299 314 290 314 284 315 292 315 285 315 294 125 300 125 282 125 288 316 301 316 302 316 297 125 295 125 237 125 291 125 237 125 285 125 300 125 286 125 282 125 289 125 301 125 288 125 293 125 299 125 285 125 288 317 303 317 304 317 298 318 296 318 237 318 302 319 303 319 288 319 237 125 236 125 305 125 236 125 259 125 306 125 259 125 268 125 307 125 308 320 309 320 310 320 308 321 311 321 312 321 305 125 313 125 314 125 315 125 310 125 316 125 312 322 309 322 308 322 285 323 314 323 317 323 305 324 318 324 313 324 305 125 315 125 319 125 310 125 315 125 308 125 308 325 320 325 321 325 314 125 285 125 305 125 319 125 322 125 305 125 321 326 311 326 308 326 308 125 285 125 323 125 322 125 318 125 305 125 315 327 324 327 325 327 323 125 320 125 308 125 285 328 326 328 327 328 325 125 319 125 315 125 316 125 328 125 315 125 285 329 329 329 326 329 328 125 324 125 315 125 317 330 329 330 285 330 305 125 306 125 330 125 306 331 307 331 331 331 331 125 332 125 306 125 307 332 333 332 331 332 307 333 334 333 335 333 336 125 337 125 338 125 336 125 339 125 340 125 336 334 330 334 341 334 332 125 342 125 306 125 307 335 338 335 334 335 336 336 343 336 337 336 341 125 339 125 336 125 307 125 344 125 333 125 338 125 307 125 336 125 340 125 345 125 336 125 330 337 346 337 347 337 306 338 348 338 349 338 335 339 344 339 307 339 347 125 341 125 330 125 342 125 348 125 306 125 330 340 350 340 346 340 345 341 343 341 336 341 330 125 349 125 351 125 351 125 350 125 330 125 288 342 181 342 182 342 237 125 185 125 186 125 237 343 183 343 185 343 237 125 288 125 184 125 184 125 183 125 237 125 240 125 186 125 187 125 215 125 191 125 193 125 215 344 188 344 190 344 190 345 191 345 215 345 215 125 240 125 189 125 189 125 188 125 215 125 213 346 196 346 197 346 212 347 194 347 195 347 213 348 195 348 196 348 212 125 192 125 194 125 195 125 213 125 212 125 213 125 198 125 199 125 221 349 203 349 205 349 221 350 202 350 203 350 221 125 200 125 202 125 221 125 213 125 201 125 201 125 200 125 221 125 268 351 207 351 208 351 268 125 206 125 207 125 268 125 260 125 204 125 204 352 206 352 268 352 209 353 352 353 353 353 352 354 209 354 210 354 354 355 210 355 211 355 353 356 268 356 209 356 211 357 355 357 354 357 147 358 356 358 357 358 147 125 146 125 358 125 359 125 360 125 146 125 361 125 359 125 148 125 150 359 307 359 362 359 268 360 363 360 364 360 210 125 354 125 352 125 357 361 211 361 147 361 146 362 360 362 358 362 148 125 150 125 361 125 307 363 365 363 362 363 268 364 366 364 367 364 353 365 363 365 268 365 358 366 356 366 147 366 362 125 361 125 150 125 307 367 368 367 369 367 268 368 370 368 366 368 357 125 355 125 211 125 369 125 365 125 307 125 307 369 367 369 371 369 364 125 370 125 268 125 371 125 368 125 307 125 146 125 148 125 359 125 307 370 150 370 149 370 307 371 152 371 154 371 149 372 151 372 307 372 151 125 152 125 307 125 330 125 336 125 153 125 330 125 156 125 157 125 153 373 155 373 330 373 155 374 156 374 330 374 157 375 158 375 330 375 372 376 160 376 159 376 159 377 161 377 373 377 162 378 374 378 375 378 330 379 376 379 377 379 373 380 378 380 159 380 375 125 161 125 162 125 163 381 379 381 380 381 315 382 381 382 382 382 377 125 315 125 330 125 160 383 383 383 384 383 375 384 373 384 161 384 380 385 162 385 163 385 385 125 379 125 163 125 165 125 315 125 386 125 377 125 381 125 315 125 330 386 387 386 388 386 330 387 384 387 389 387 160 388 372 388 383 388 380 389 374 389 162 389 386 390 385 390 165 390 315 391 390 391 391 391 388 125 376 125 330 125 384 125 330 125 160 125 163 125 165 125 385 125 382 125 390 125 315 125 159 392 378 392 372 392 389 125 387 125 330 125 315 393 167 393 168 393 315 394 166 394 167 394 315 125 165 125 164 125 164 125 166 125 315 125 308 125 168 125 169 125 285 125 308 125 171 125 285 125 172 125 173 125 171 125 170 125 285 125 170 125 172 125 285 125 282 125 173 125 174 125 288 125 282 125 178 125 178 395 180 395 288 395 282 396 176 396 175 396 282 397 179 397 178 397 175 125 177 125 282 125 177 125 179 125 282 125 180 398 181 398 288 398 174 399 176 399 282 399 173 125 282 125 285 125 169 125 171 125 308 125 168 125 308 125 315 125 391 400 386 400 315 400 158 125 160 125 330 125 153 125 336 125 154 125 154 125 336 125 307 125 367 125 307 125 268 125 208 125 209 125 268 125 204 125 260 125 205 125 205 125 260 125 221 125 199 401 201 401 213 401 197 125 198 125 213 125 192 125 212 125 193 125 193 125 212 125 215 125 187 125 189 125 240 125 186 125 240 125 237 125 182 125 184 125 288 125 349 125 330 125 306 125 330 125 315 125 305 125 327 125 323 125 285 125 307 125 306 125 259 125 306 125 305 125 236 125 305 125 285 125 237 125 304 125 294 125 288 125 280 125 281 125 221 125 259 125 236 125 215 125 258 125 253 125 240 125 232 125 215 125 212 125 234 402 392 402 393 402 235 403 394 403 392 403 219 404 395 404 394 404 218 405 396 405 395 405 214 406 397 406 396 406 220 407 398 407 397 407 226 408 399 408 398 408 225 409 400 409 399 409 227 410 401 410 400 410 222 411 402 411 401 411 229 412 403 412 402 412 228 413 404 413 403 413 224 414 405 414 404 414 223 415 406 415 405 415 217 416 407 416 406 416 216 417 408 417 407 417 231 418 409 418 408 418 230 419 410 419 409 419 233 420 411 420 410 420 232 421 393 421 411 421 411 422 233 422 232 422 410 423 230 423 233 423 409 424 231 424 230 424 408 425 216 425 231 425 407 426 217 426 216 426 406 427 223 427 217 427 405 415 224 415 223 415 404 428 228 428 224 428 403 429 229 429 228 429 402 430 222 430 229 430 401 431 227 431 222 431 400 410 225 410 227 410 399 432 226 432 225 432 398 408 220 408 226 408 397 433 214 433 220 433 396 434 218 434 214 434 395 435 219 435 218 435 394 404 235 404 219 404 392 403 234 403 235 403 393 436 232 436 234 436 409 437 405 437 406 437 399 438 395 438 396 438 405 439 409 439 410 439 406 125 407 125 409 125 395 440 399 440 400 440 396 125 397 125 399 125 407 125 408 125 409 125 411 441 403 441 404 441 397 125 398 125 399 125 401 442 392 442 394 442 404 125 405 125 411 125 411 125 401 125 402 125 394 125 395 125 401 125 401 443 411 443 393 443 402 125 403 125 411 125 393 125 392 125 401 125 400 444 401 444 395 444 410 445 411 445 405 445 265 446 412 446 413 446 262 447 414 447 412 447 261 47 415 47 414 47 264 448 416 448 415 448 263 449 417 449 416 449 267 450 418 450 417 450 266 451 419 451 418 451 269 452 420 452 419 452 271 453 421 453 420 453 270 454 422 454 421 454 278 455 423 455 422 455 279 456 424 456 423 456 273 72 425 72 424 72 272 457 426 457 425 457 274 458 427 458 426 458 276 459 428 459 427 459 275 460 429 460 428 460 281 461 430 461 429 461 280 462 431 462 430 462 277 463 413 463 431 463 431 464 280 464 277 464 430 465 281 465 280 465 429 461 275 461 281 461 428 466 276 466 275 466 427 467 274 467 276 467 426 458 272 458 274 458 425 468 273 468 272 468 424 72 279 72 273 72 423 469 278 469 279 469 422 455 270 455 278 455 421 470 271 470 270 470 420 471 269 471 271 471 419 452 266 452 269 452 418 472 267 472 266 472 417 473 263 473 267 473 416 449 264 449 263 449 415 474 261 474 264 474 414 47 262 47 261 47 412 475 265 475 262 475 413 446 277 446 265 446 424 476 421 476 422 476 420 477 416 477 417 477 420 478 412 478 414 478 421 479 428 479 429 479 421 480 426 480 427 480 422 481 423 481 424 481 417 482 418 482 420 482 414 125 415 125 420 125 427 125 428 125 421 125 424 125 425 125 421 125 415 483 416 483 420 483 420 484 431 484 413 484 425 125 426 125 421 125 413 485 412 485 420 485 429 125 430 125 421 125 418 125 419 125 420 125 420 125 421 125 431 125 430 125 431 125 421 125 352 486 432 486 433 486 354 487 434 487 432 487 355 488 435 488 434 488 357 489 436 489 435 489 356 490 437 490 436 490 358 491 438 491 437 491 360 492 439 492 438 492 359 493 440 493 439 493 361 494 441 494 440 494 362 495 442 495 441 495 365 496 443 496 442 496 369 497 444 497 443 497 368 498 445 498 444 498 371 499 446 499 445 499 367 500 447 500 446 500 366 501 448 501 447 501 370 502 449 502 448 502 364 503 450 503 449 503 363 504 451 504 450 504 353 505 433 505 451 505 451 506 363 506 353 506 450 507 364 507 363 507 449 508 370 508 364 508 448 509 366 509 370 509 447 510 367 510 366 510 446 511 371 511 367 511 445 512 368 512 371 512 444 513 369 513 368 513 443 514 365 514 369 514 442 515 362 515 365 515 441 516 361 516 362 516 440 494 359 494 361 494 439 517 360 517 359 517 438 518 358 518 360 518 437 519 356 519 358 519 436 520 357 520 356 520 435 521 355 521 357 521 434 522 354 522 355 522 432 487 352 487 354 487 433 523 353 523 352 523 450 524 433 524 432 524 444 525 440 525 441 525 450 526 434 526 435 526 450 125 451 125 433 125 440 527 444 527 445 527 441 528 442 528 444 528 432 529 434 529 450 529 436 530 448 530 449 530 442 125 443 125 444 125 446 531 438 531 439 531 449 125 450 125 436 125 436 532 446 532 447 532 439 125 440 125 446 125 446 125 436 125 437 125 447 125 448 125 436 125 437 125 438 125 446 125 445 533 446 533 440 533 435 534 436 534 450 534 334 450 452 450 453 450 338 451 454 451 452 451 337 452 455 452 454 452 343 453 456 453 455 453 345 454 457 454 456 454 340 455 458 455 457 455 339 535 459 535 458 535 341 72 460 72 459 72 347 457 461 457 460 457 346 458 462 458 461 458 350 459 463 459 462 459 351 460 464 460 463 460 349 461 465 461 464 461 348 462 466 462 465 462 342 463 467 463 466 463 332 446 468 446 467 446 331 536 469 536 468 536 333 47 470 47 469 47 344 448 471 448 470 448 335 449 453 449 471 449 471 449 344 449 335 449 470 537 333 537 344 537 469 47 331 47 333 47 468 475 332 475 331 475 467 446 342 446 332 446 466 464 348 464 342 464 465 465 349 465 348 465 464 461 351 461 349 461 463 466 350 466 351 466 462 467 346 467 350 467 461 458 347 458 346 458 460 538 341 538 347 538 459 72 339 72 341 72 458 469 340 469 339 469 457 455 345 455 340 455 456 470 343 470 345 470 455 471 337 471 343 471 454 452 338 452 337 452 452 472 334 472 338 472 453 473 335 473 334 473 465 539 469 539 470 539 471 540 462 540 463 540 455 541 459 541 460 541 461 125 452 125 454 125 465 542 468 542 469 542 465 125 466 125 467 125 471 543 461 543 462 543 455 544 458 544 459 544 455 545 456 545 457 545 461 546 453 546 452 546 467 125 468 125 465 125 463 125 464 125 471 125 457 547 458 547 455 547 461 548 471 548 453 548 464 125 465 125 471 125 454 125 455 125 461 125 460 125 461 125 455 125 470 125 471 125 465 125 383 549 472 549 473 549 372 429 474 429 472 429 378 550 475 550 474 550 373 551 476 551 475 551 375 552 477 552 476 552 374 553 478 553 477 553 380 554 479 554 478 554 379 555 480 555 479 555 385 420 481 420 480 420 386 556 482 556 481 556 391 557 483 557 482 557 390 558 484 558 483 558 382 559 485 559 484 559 381 560 486 560 485 560 377 561 487 561 486 561 376 562 488 562 487 562 388 563 489 563 488 563 387 564 490 564 489 564 389 410 491 410 490 410 384 565 473 565 491 565 491 566 389 566 384 566 490 567 387 567 389 567 489 568 388 568 387 568 488 563 376 563 388 563 487 569 377 569 376 569 486 570 381 570 377 570 485 571 382 571 381 571 484 572 390 572 382 572 483 403 391 403 390 403 482 573 386 573 391 573 481 574 385 574 386 574 480 420 379 420 385 420 479 555 380 555 379 555 478 575 374 575 380 575 477 576 375 576 374 576 476 577 373 577 375 577 475 551 378 551 373 551 474 578 372 578 378 578 472 429 383 429 372 429 473 579 384 579 383 579 489 580 485 580 486 580 479 581 475 581 476 581 485 582 489 582 490 582 486 125 487 125 489 125 475 583 479 583 480 583 476 125 477 125 479 125 487 125 488 125 489 125 491 442 483 442 484 442 477 125 478 125 479 125 481 441 472 441 474 441 484 125 485 125 491 125 491 584 481 584 482 584 474 125 475 125 481 125 481 125 491 125 473 125 482 125 483 125 491 125 473 125 472 125 481 125 480 585 481 585 475 585 490 586 491 586 485 586 316 455 492 455 493 455 310 587 494 587 492 587 309 72 495 72 494 72 312 588 496 588 495 588 311 458 497 458 496 458 321 459 498 459 497 459 320 589 499 589 498 589 323 461 500 461 499 461 327 590 501 590 500 590 326 463 502 463 501 463 329 446 503 446 502 446 317 591 504 591 503 591 314 47 505 47 504 47 313 592 506 592 505 592 318 449 507 449 506 449 322 450 508 450 507 450 319 593 509 593 508 593 325 452 510 452 509 452 324 594 511 594 510 594 328 454 493 454 511 454 511 470 324 470 328 470 510 595 325 595 324 595 509 452 319 452 325 452 508 596 322 596 319 596 507 473 318 473 322 473 506 449 313 449 318 449 505 592 314 592 313 592 504 47 317 47 314 47 503 591 329 591 317 591 502 446 326 446 329 446 501 464 327 464 326 464 500 597 323 597 327 597 499 461 320 461 323 461 498 598 321 598 320 598 497 467 311 467 321 467 496 458 312 458 311 458 495 599 309 599 312 599 494 72 310 72 309 72 492 600 316 600 310 600 493 455 328 455 316 455 504 125 501 125 502 125 500 125 496 125 497 125 500 601 492 601 494 601 501 602 508 602 509 602 501 603 506 603 507 603 502 604 503 604 504 604 497 125 498 125 500 125 494 125 495 125 500 125 507 605 508 605 501 605 504 125 505 125 501 125 495 125 496 125 500 125 500 606 511 606 493 606 505 125 506 125 501 125 493 607 492 607 500 607 509 125 510 125 501 125 498 125 499 125 500 125 500 125 501 125 511 125 510 125 511 125 501 125 283 496 512 496 513 496 287 608 514 608 512 608 286 498 515 498 514 498 300 609 516 609 515 609 294 500 517 500 516 500 304 501 518 501 517 501 303 610 519 610 518 610 302 503 520 503 519 503 301 611 521 611 520 611 289 505 522 505 521 505 295 486 523 486 522 486 297 612 524 612 523 612 296 488 525 488 524 488 298 613 526 613 525 613 291 490 527 490 526 490 290 491 528 491 527 491 299 614 529 614 528 614 293 493 530 493 529 493 292 615 531 615 530 615 284 495 513 495 531 495 531 516 292 516 284 516 530 615 293 615 292 615 529 517 299 517 293 517 528 616 290 616 299 616 527 519 291 519 290 519 526 520 298 520 291 520 525 617 296 617 298 617 524 522 297 522 296 522 523 612 295 612 297 612 522 523 289 523 295 523 521 506 301 506 289 506 520 618 302 618 301 618 519 508 303 508 302 508 518 619 304 619 303 619 517 510 294 510 304 510 516 511 300 511 294 511 515 620 286 620 300 620 514 513 287 513 286 513 512 621 283 621 287 621 513 515 284 515 283 515 530 125 513 125 512 125 520 622 522 622 523 622 530 527 514 527 515 527 530 623 531 623 513 623 520 526 524 526 525 526 520 624 521 624 522 624 512 125 514 125 530 125 516 625 528 625 529 625 523 529 524 529 520 529 526 626 518 626 519 626 529 125 530 125 516 125 516 125 526 125 527 125 519 125 520 125 526 125 526 532 516 532 517 532 527 125 528 125 516 125 517 125 518 125 526 125 525 627 526 627 520 627 515 628 516 628 530 628 245 459 532 459 533 459 252 589 534 589 532 589 253 461 535 461 534 461 258 590 536 590 535 590 254 463 537 463 536 463 242 446 538 446 537 446 241 629 539 629 538 629 243 47 540 47 539 47 248 592 541 592 540 592 247 449 542 449 541 449 255 450 543 450 542 450 257 593 544 593 543 593 250 452 545 452 544 452 249 594 546 594 545 594 251 454 547 454 546 454 239 455 548 455 547 455 238 600 549 600 548 600 244 72 550 72 549 72 256 588 551 588 550 588 246 458 533 458 551 458 551 458 256 458 246 458 550 588 244 588 256 588 549 72 238 72 244 72 548 600 239 600 238 600 547 455 251 455 239 455 546 470 249 470 251 470 545 595 250 595 249 595 544 452 257 452 250 452 543 596 255 596 257 596 542 473 247 473 255 473 541 449 248 449 247 449 540 630 243 630 248 630 539 47 241 47 243 47 538 591 242 591 241 591 537 446 254 446 242 446 536 464 258 464 254 464 535 597 253 597 258 597 534 461 252 461 253 461 532 598 245 598 252 598 533 467 246 467 245 467 545 125 549 125 550 125 551 631 542 631 543 631 535 125 539 125 540 125 541 632 532 632 534 632 545 125 548 125 549 125 545 125 546 125 547 125 543 125 544 125 551 125 535 125 538 125 539 125 535 125 536 125 537 125 541 633 533 633 532 633 547 125 548 125 545 125 551 634 541 634 542 634 537 125 538 125 535 125 541 635 551 635 533 635 544 125 545 125 551 125 534 125 535 125 541 125 540 636 541 636 535 636 550 125 551 125 545 125</p>
        </triangles>
      </mesh>
    </geometry>
  </library_geometries>
  <library_visual_scenes>
    <visual_scene id="Scene" name="Scene">
      <node id="Link_6" name="Link_6" type="NODE">
        <matrix sid="transform">1 0 0 0 0 1 0 0 0 0 1 0 0 0 0 1</matrix>
        <instance_geometry url="#Link_6_001-mesh" name="Link_6">
          <bind_material>
            <technique_common>
              <instance_material symbol="RAL9005_007-material" target="#RAL9005_007-material"/>
            </technique_common>
          </bind_material>
        </instance_geometry>
      </node>
    </visual_scene>
  </library_visual_scenes>
  <scene>
    <instance_visual_scene url="#Scene"/>
  </scene>
</COLLADA>