<?xml version="1.0" encoding="utf-8"?>
<COLLADA xmlns="http://www.collada.org/2005/11/COLLADASchema" version="1.4.1" xmlns:xsi="http://www.w3.org/2001/XMLSchema-instance">
  <asset>
    <contributor>
      <author>Blender User</author>
      <authoring_tool>Blender 2.82.7</authoring_tool>
    </contributor>
    <created>2023-09-20T14:54:09</created>
    <modified>2023-09-20T14:54:09</modified>
    <unit name="meter" meter="1"/>
    <up_axis>Z_UP</up_axis>
  </asset>
  <library_cameras>
    <camera id="Camera-camera" name="Camera.001">
      <optics>
        <technique_common>
          <perspective>
            <xfov sid="xfov">49.13434</xfov>
            <aspect_ratio>1.777778</aspect_ratio>
            <znear sid="znear">0.1</znear>
            <zfar sid="zfar">100</zfar>
          </perspective>
        </technique_common>
      </optics>
      <extra>
        <technique profile="blender">
          <shiftx sid="shiftx" type="float">0</shiftx>
          <shifty sid="shifty" type="float">0</shifty>
          <dof_distance sid="dof_distance" type="float">10</dof_distance>
        </technique>
      </extra>
    </camera>
  </library_cameras>
  <library_lights>
    <light id="Lamp-light" name="Lamp">
      <technique_common>
        <point>
          <color sid="color">1 1 1</color>
          <constant_attenuation>1</constant_attenuation>
          <linear_attenuation>0</linear_attenuation>
          <quadratic_attenuation>0.00111109</quadratic_attenuation>
        </point>
      </technique_common>
      <extra>
        <technique profile="blender">
          <type sid="type" type="int">0</type>
          <flag sid="flag" type="int">0</flag>
          <mode sid="mode" type="int">8192</mode>
          <gamma sid="blender_gamma" type="float">1</gamma>
          <red sid="red" type="float">1</red>
          <green sid="green" type="float">1</green>
          <blue sid="blue" type="float">1</blue>
          <shadow_r sid="blender_shadow_r" type="float">0</shadow_r>
          <shadow_g sid="blender_shadow_g" type="float">0</shadow_g>
          <shadow_b sid="blender_shadow_b" type="float">0</shadow_b>
          <energy sid="blender_energy" type="float">1</energy>
          <dist sid="blender_dist" type="float">29.99998</dist>
          <spotsize sid="spotsize" type="float">75</spotsize>
          <spotblend sid="spotblend" type="float">0.15</spotblend>
          <att1 sid="att1" type="float">0</att1>
          <att2 sid="att2" type="float">1</att2>
          <falloff_type sid="falloff_type" type="int">2</falloff_type>
          <clipsta sid="clipsta" type="float">1.000799</clipsta>
          <clipend sid="clipend" type="float">30.002</clipend>
          <bias sid="bias" type="float">1</bias>
          <soft sid="soft" type="float">3</soft>
          <bufsize sid="bufsize" type="int">2880</bufsize>
          <samp sid="samp" type="int">3</samp>
          <buffers sid="buffers" type="int">1</buffers>
          <area_shape sid="area_shape" type="int">1</area_shape>
          <area_size sid="area_size" type="float">0.1</area_size>
          <area_sizey sid="area_sizey" type="float">0.1</area_sizey>
          <area_sizez sid="area_sizez" type="float">1</area_sizez>
        </technique>
      </extra>
    </light>
  </library_lights>
  <library_effects>
    <effect id="Material-effect">
      <profile_COMMON>
        <technique sid="common">
          <lambert>
            <emission>
              <color sid="emission">0 0 0 1</color>
            </emission>
            <diffuse>
              <color sid="diffuse">0.8 0.8 0.8 1</color>
            </diffuse>
            <index_of_refraction>
              <float sid="ior">1.45</float>
            </index_of_refraction>
          </lambert>
        </technique>
      </profile_COMMON>
    </effect>
  </library_effects>
  <library_images/>
  <library_materials>
    <material id="Material-material" name="Material">
      <instance_effect url="#Material-effect"/>
    </material>
  </library_materials>
  <library_geometries>
    <geometry id="Link_6-mesh" name="Link 6">
      <mesh>
        <source id="Link_6-mesh-positions">
          <float_array id="Link_6-mesh-positions-array" count="2232">-0.01349997 -0.01766633 0.009375333 -0.01349997 0.01912134 -0.005862593 -0.01349997 -0.01847749 0.007653594 -0.01349997 0.01847749 -0.007653713 -0.01349997 -0.01912134 0.005862593 -0.01349997 0.01766633 -0.009375452 -0.01349997 -0.01959204 0.004018425 -0.01349997 0.01669514 -0.01101231 -0.01349997 -0.0198853 0.002137899 -0.01349997 0.01557278 -0.0125494 -0.01349997 -0.01999849 2.37942e-4 -0.01349997 0.01430934 -0.01397287 -0.01349997 -0.01993054 -0.001664161 -0.01349997 0.01291638 -0.01526975 -0.01349997 -0.01968216 -0.003551125 -0.01349997 0.01140642 -0.01642835 -0.01349997 -0.01925545 -0.005405902 -0.01349997 0.009793102 -0.01743829 -0.01349997 -0.0186544 -0.007211804 -0.01349997 0.008091151 -0.01829016 -0.01349997 -0.01788443 -0.008952379 -0.01349997 0.006315946 -0.01897644 -0.01349997 -0.01695245 -0.01061189 -0.01349997 0.00448352 -0.01949095 -0.01349997 -0.01586699 -0.0121752 -0.01349997 0.002610504 -0.01982891 -0.01349997 -0.01463782 -0.01362836 -0.01349997 7.13845e-4 -0.01998722 -0.01349997 -0.0132761 -0.01495802 -0.01349997 -0.001189291 -0.01996457 -0.01349997 -0.01179414 -0.01615226 -0.01349997 -0.003081619 -0.01976108 -0.01349997 -0.01020532 -0.01720023 -0.01349997 -0.004946112 -0.01937878 -0.01349997 -0.008524119 -0.01809251 -0.01349997 -0.006765723 -0.01882088 -0.01349997 0.01959204 -0.004018425 -0.01349997 -0.01669514 0.01101219 -0.01349997 0.0198853 -0.002137899 -0.01349997 -0.01557278 0.01254928 -0.01349997 0.01999849 -2.38061e-4 -0.01349997 -0.01430934 0.01397275 -0.01349997 0.01993054 0.001664042 -0.01349997 -0.01291638 0.01526963 -0.01349997 0.01968216 0.003551006 -0.01349997 -0.01140642 0.01642835 -0.01349997 0.01925545 0.005405783 -0.01349997 -0.009793102 0.01743817 -0.01349997 0.0186544 0.007211685 -0.01349997 -0.008091151 0.01829016 -0.01349997 0.01788443 0.00895226 -0.01349997 -0.006315946 0.01897644 -0.01349997 0.01695245 0.01061177 -0.01349997 -0.00448352 0.01949083 -0.01349997 0.01586699 0.0121752 -0.01349997 -0.002610504 0.01982879 -0.01349997 0.01463782 0.01362824 -0.01349997 -7.13845e-4 0.0199871 -0.01349997 0.0132761 0.01495802 -0.01349997 0.001189291 0.01996445 -0.01349997 0.01179414 0.01615226 -0.01349997 0.003081619 0.01976108 -0.01349997 0.01020532 0.01720023 -0.01349997 0.004946112 0.01937866 -0.01349997 0.008524119 0.01809239 -0.01349997 0.006765723 0.01882076 -4.99964e-4 -4.93842e-4 0.01999378 -0.003499984 -4.93842e-4 0.01999378 -0.003499984 -1.64629e-4 0.01999926 -0.003499984 1.64629e-4 0.01999926 -0.003499984 4.93842e-4 0.01999378 -4.99964e-4 4.93842e-4 0.01999378 -4.99964e-4 0.00240612 0.01985466 -4.99964e-4 0.004296302 0.01953303 -4.99964e-4 0.006146967 0.01903176 -4.99964e-4 0.007941186 0.01835572 -4.99964e-4 0.009662389 0.01751101 -4.99964e-4 0.01129478 0.01650524 -4.99964e-4 0.0128234 0.01534783 -4.99964e-4 0.01423412 0.01404941 -4.99964e-4 0.01551407 0.01262176 -4.99964e-4 0.01665145 0.01107811 -4.99964e-4 0.0176357 0.009432792 -4.99964e-4 0.01845794 0.007700681 -4.99964e-4 0.01911056 0.00589776 -4.99964e-4 0.01958745 0.004040718 -4.99964e-4 0.0198844 0.002146482 -4.99964e-4 0.01999855 2.32577e-4 -4.99964e-4 0.01992893 -0.001683592 -4.99964e-4 0.01967614 -0.003584146 -4.99964e-4 0.01924252 -0.005451798 -4.99964e-4 0.01863205 -0.007269382 -4.99964e-4 0.01785033 -0.009020209 -4.99964e-4 0.01690453 -0.01068806 -4.99964e-4 0.01580339 -0.01225769 -4.99964e-4 0.014557 -0.01371467 -4.99964e-4 0.01317685 -0.01504552 -4.99964e-4 0.01167559 -0.01623821 -4.99964e-4 0.01006698 -0.01728165 -4.99964e-4 0.008365929 -0.01816618 -4.99964e-4 0.006587922 -0.01888382 -4.99964e-4 0.004749357 -0.01942789 -4.99964e-4 0.002867162 -0.01979339 -4.99964e-4 9.58675e-4 -0.01997697 -4.99964e-4 -9.58675e-4 -0.01997697 -4.99964e-4 -0.002867162 -0.01979339 -4.99964e-4 -0.004749357 -0.01942789 -4.99964e-4 -0.006587922 -0.01888382 -4.99964e-4 -0.008365929 -0.01816618 -4.99964e-4 -0.01006698 -0.01728165 -4.99964e-4 -0.01167559 -0.01623821 -4.99964e-4 -0.01317685 -0.01504552 -4.99964e-4 -0.014557 -0.01371467 -4.99964e-4 -0.01580339 -0.01225769 -4.99964e-4 -0.01690453 -0.01068806 -4.99964e-4 -0.01785033 -0.009020209 -4.99964e-4 -0.01863205 -0.007269382 -4.99964e-4 -0.01924252 -0.005451798 -4.99964e-4 -0.01967614 -0.003584146 -4.99964e-4 -0.01992893 -0.001683592 -4.99964e-4 -0.01999855 2.32577e-4 -4.99964e-4 -0.0198844 0.002146482 -4.99964e-4 -0.01958745 0.004040718 -4.99964e-4 -0.01911056 0.00589776 -4.99964e-4 -0.01845794 0.007700681 -4.99964e-4 -0.0176357 0.009432792 -4.99964e-4 -0.01665145 0.01107811 -4.99964e-4 -0.01551407 0.01262176 -4.99964e-4 -0.01423412 0.01404941 -4.99964e-4 -0.0128234 0.01534783 -4.99964e-4 -0.01129478 0.01650524 -4.99964e-4 -0.009662389 0.01751101 -4.99964e-4 -0.007941186 0.01835572 -4.99964e-4 -0.006146967 0.01903176 -4.99964e-4 -0.004296302 0.01953303 -4.99964e-4 -0.00240612 0.01985466 0 -0.01855289 0.006003022 0 -0.01801556 0.007462263 0 -0.01741778 0.008767366 0 -0.01672565 0.0100249 0 -0.01594281 0.0112282 0 -0.01507365 0.01237058 0 -0.01412272 0.01344597 0 -0.01309531 0.0144484 0 -0.01199692 0.01537263 0 -0.01083356 0.01621353 0 -0.009611427 0.01696658 0 -0.008337259 0.01762771 0 -0.00701791 0.01819324 0 -0.005660533 0.01866018 0 -0.00427246 0.01902604 0 -0.002861201 0.01928889 0 -0.001434504 0.01944708 0 0 0.01949989 0 0 0.01949989 0 0.001553773 0.0194379 0 0.003097712 0.0192523 0 0.004621922 0.01894426 0 0.006116747 0.0185157 0 0.00757265 0.01796936 0 0.008980453 0.01730883 0 0.01033109 0.01653826 0 0.01161605 0.01566243 0 0.01282715 0.01468706 0 0.01395666 0.01361823 0 0.01499742 0.01246285 0 0.01594281 0.0112282 0 0.01678681 0.009922146 0 0.01752406 0.008552908 0 0.01814985 0.00712943 0 0.01866024 0.005660533 0 0.01905196 0.004155635 0 0.01932251 0.002624273 0 0.01947021 0.001076221 0 0.01949405 -4.78625e-4 0 0.01939392 -0.002030372 0 0.01917046 -0.003569364 0 0.01882511 -0.005085468 0 0.01836001 -0.006569385 0 0.01777821 -0.00801146 0 0.01708328 -0.009402632 0 0.01627975 -0.01073396 0 0.01537269 -0.01199698 0 0.01436787 -0.01318383 0 0.01327162 -0.01428675 0 0.01209104 -0.01529884 0 0.01083356 -0.01621365 0 0.009507179 -0.01702535 0 0.008120298 -0.0177288 0 0.006681859 -0.01831948 0 0.005200862 -0.01879358 0 0.003686785 -0.01914823 0 0.002149283 -0.01938116 0 5.98157e-4 -0.01949083 0 -9.56817e-4 -0.01947653 0 -0.00250566 -0.01933836 0 -0.004038631 -0.01907718 0 -0.005545914 -0.01869475 0 -0.00701791 -0.01819336 0 -0.008445262 -0.01757633 0 -0.009818911 -0.01684749 0 -0.01113015 -0.01601147 0 -0.01237058 -0.01507365 0 -0.0135324 -0.01403999 0 -0.01460808 -0.01291716 0 -0.0155909 -0.01171207 0 -0.01647454 -0.01043248 0 -0.01725345 -0.009086608 0 -0.01792263 -0.007682919 0 -0.01847785 -0.006230354 0 -0.01891553 -0.004738092 0 -0.01923292 -0.003215789 0 -0.01942801 -0.001673102 0 -0.01949954 -1.19686e-4 0 -0.01944708 0.001434445 0 -0.01927095 0.002979516 0 -0.01897221 0.004505634 -0.005999982 -0.009238779 0.003826737 -0.005999982 -0.009666383 0.002561211 -0.005999982 -0.008646249 0.005024075 -0.005999982 -0.00992155 0.001250028 -0.005999982 -0.007899463 0.006131649 -0.005999982 -0.009999632 -8.35657e-5 -0.005999982 -0.009899258 -0.001415729 -0.005999982 -0.009622275 -0.002722501 -0.005999982 -0.009173512 -0.003980755 -0.005999982 -0.008561134 -0.005167961 -0.005999982 -0.007795929 -0.006262898 -0.005999982 -0.006891608 -0.007246136 -0.005999982 -0.005864322 -0.008100032 -0.005999982 -0.00473237 -0.008809447 -0.005999982 -0.003515958 -0.009361505 -0.005999982 -0.002236843 -0.00974667 -0.005999982 -0.007011711 0.007129907 -0.005999982 -9.1779e-4 -0.00995779 -0.005999982 4.17643e-4 -0.009991288 -0.005999982 0.001745581 -0.009846448 -0.005999982 0.003042399 -0.009526014 -0.005999982 0.004284977 -0.009035468 -0.005999982 0.005451023 -0.00838375 -0.005999982 0.006519854 -0.007582306 -0.005999982 0.007472276 -0.006645679 -0.005999982 0.008291363 -0.005590438 -0.005999982 0.008962512 -0.00443542 -0.005999982 0.009473741 -0.003201246 -0.005999982 0.009815871 -0.001909971 -0.005999982 0.009982883 -5.84602e-4 -0.005999982 0.009971737 7.51257e-4 -0.005999982 -0.005998849 0.00800085 -0.005999982 0.009782612 0.002073645 -0.005999982 -0.004878878 0.008728981 -0.005999982 0.009418904 0.003359079 -0.005999982 -0.003671884 0.009301424 -0.005999982 0.008887171 0.004584431 -0.005999982 -0.002399384 0.009707808 -0.005999982 0.00819683 0.005728125 -0.005999982 -0.001084029 0.009940981 -0.005999982 0.00736016 0.006769537 -0.005999982 2.50633e-4 0.009996771 -0.005999982 0.00639224 0.007690191 -0.005999982 0.001580834 0.009874224 -0.005999982 0.005310177 0.008473515 -0.005999982 0.002882838 0.009575366 -0.005999982 0.004133403 0.009105682 -4.99964e-4 -0.009666383 0.002561211 -4.99964e-4 -0.009238779 0.003826737 -4.99964e-4 -0.008646249 0.005024075 -4.99964e-4 -0.007899463 0.006131649 -4.99964e-4 -0.007011711 0.007129907 -4.99964e-4 -0.005998849 0.00800085 -4.99964e-4 -0.004878878 0.008728981 -4.99964e-4 -0.003671884 0.009301424 -4.99964e-4 -0.002399384 0.009707808 -4.99964e-4 -0.001084029 0.009940981 -4.99964e-4 2.50633e-4 0.009996771 -4.99964e-4 0.001580834 0.009874224 -4.99964e-4 0.002882838 0.009575366 -4.99964e-4 0.004133403 0.009105682 -4.99964e-4 0.005310177 0.008473515 -4.99964e-4 0.00639224 0.007690191 -4.99964e-4 0.00736016 0.006769537 -4.99964e-4 0.00819683 0.005728125 -4.99964e-4 0.008887171 0.004584431 -4.99964e-4 0.009418904 0.003359079 -4.99964e-4 0.009782612 0.002073645 -4.99964e-4 0.009971737 7.51257e-4 -4.99964e-4 0.009982883 -5.84602e-4 -4.99964e-4 0.009815871 -0.001909971 -4.99964e-4 0.009473741 -0.003201246 -4.99964e-4 0.008962512 -0.00443542 -4.99964e-4 0.008291363 -0.005590438 -4.99964e-4 0.007472276 -0.006645679 -4.99964e-4 0.006519854 -0.007582306 -4.99964e-4 0.005451023 -0.00838375 -4.99964e-4 0.004284977 -0.009035468 -4.99964e-4 0.003042399 -0.009526014 -4.99964e-4 0.001745581 -0.009846448 -4.99964e-4 4.17643e-4 -0.009991288 -4.99964e-4 -9.1779e-4 -0.00995779 -4.99964e-4 -0.002236843 -0.00974667 -4.99964e-4 -0.003515958 -0.009361505 -4.99964e-4 -0.00473237 -0.008809447 -4.99964e-4 -0.005864322 -0.008100032 -4.99964e-4 -0.006891608 -0.007246136 -4.99964e-4 -0.007795929 -0.006262898 -4.99964e-4 -0.008561134 -0.005167961 -4.99964e-4 -0.009173512 -0.003980755 -4.99964e-4 -0.009622275 -0.002722501 -4.99964e-4 -0.009899258 -0.001415729 -4.99964e-4 -0.009999632 -8.35657e-5 -4.99964e-4 -0.00992155 0.001250028 0 -0.01542365 0.002478599 0 -0.01265883 0.009153485 0 -0.01312029 0.009614944 0 -0.01344662 0.01018023 0 -0.01361554 0.01081061 0 -0.01361554 0.01146316 0 -0.01607626 0.002478599 0 -0.0167067 0.002309679 0 -0.01727187 0.001983284 0 -0.01773333 0.001521825 0 -0.01805967 9.56655e-4 0 -0.01822859 3.26276e-4 0 -0.01822859 -3.26395e-4 0 -0.01805967 -9.56774e-4 0 -0.01773333 -0.001521944 0 -0.01727187 -0.001983404 0 -0.0167067 -0.002309799 0 -0.01607626 -0.002478599 0 -0.01542365 -0.002478599 0 -0.01265883 -0.009153604 0 -0.01312029 -0.009615063 0 -0.01344662 -0.01018023 0 -0.01361554 -0.01081061 0 -0.01361554 -0.01146328 0 -0.01344662 -0.01209366 0 -0.01312029 -0.01265883 0 -0.01265883 -0.01312041 0 -0.0120936 -0.01344668 0 -0.01146322 -0.0136156 0 -0.01081061 -0.0136156 0 -0.01018017 -0.01344668 0 -0.009615004 -0.01312041 0 -0.009153544 -0.01265883 0 -0.002478599 -0.01542377 0 -0.002478599 -0.01607632 0 -0.002309679 -0.0167067 0 -0.001983344 -0.01727199 0 -0.001521885 -0.01773345 0 -9.56709e-4 -0.01805973 0 -3.26315e-4 -0.01822865 0 3.26315e-4 -0.01822865 0 9.56709e-4 -0.01805973 0 0.001521885 -0.01773345 0 0.001983344 -0.01727199 0 0.002309679 -0.0167067 0 0.002478599 -0.01607632 0 0.002478599 -0.01542377 0 0.009153544 -0.01265883 0 0.009615004 -0.01312041 0 0.01018017 -0.01344668 0 0.01081061 -0.0136156 0 0.01146322 -0.0136156 0 0.0120936 -0.01344668 0 0.01265883 -0.01312041 0 0.01312029 -0.01265883 0 0.01344662 -0.01209366 0 0.01361554 -0.01146328 0 0.01361554 -0.01081061 0 0.01344662 -0.01018023 0 0.01312029 -0.009615063 0 0.01265883 -0.009153604 0 0.01542365 -0.002478599 0 0.01479327 -0.002309799 0 0.01607626 -0.002478599 0 0.0167067 -0.002309799 0 0.01727187 -0.001983404 0 0.01773333 -0.001521944 0 0.01805967 -9.56774e-4 0 0.01822859 -3.26395e-4 0 0.01822859 3.26276e-4 0 0.01805967 9.56655e-4 0 0.01773333 0.001521825 0 0.01727187 0.001983284 0 0.0167067 0.002309679 0 0.01607626 0.002478599 0 0.01542365 0.002478599 0 0.01265883 0.009153485 0 0.01312029 0.009614944 0 0.01344662 0.01018023 0 0.01361554 0.01081061 0 0.01361554 0.01146316 0 0.01344662 0.01209354 0 0.01312029 0.01265883 0 0.01265883 0.01312029 0 0.0120936 0.01344656 0 0.01146322 0.01361548 0 0.01081061 0.01361548 0 0.01018017 0.01344656 0 0.009615004 0.01312029 0 0.009153544 0.01265883 0 0.002478599 0.01542365 0 0.002478599 0.01607632 0 0.002309679 0.0167067 0 0.001983344 0.01727187 0 0.001521885 0.01773333 0 9.56709e-4 0.01805961 0 3.26315e-4 0.01822853 0 -3.26315e-4 0.01822853 0 -9.56709e-4 0.01805961 0 -0.001521885 0.01773333 0 -0.001983344 0.01727187 0 -0.002309679 0.0167067 0 -0.002478599 0.01607632 0 -0.002478599 0.01542365 0 -0.009153544 0.01265883 0 -0.008827209 0.01209354 0 -0.009615004 0.01312029 0 -0.01018017 0.01344656 0 -0.01081061 0.01361548 0 -0.01146322 0.01361548 0 -0.0120936 0.01344656 0 -0.01265883 0.01312029 0 -0.01312029 0.01265883 0 -0.01344662 0.01209354 0 0.008827209 0.01209354 0 0.002309679 0.01479327 0 0.004018127 0.009700655 0 0.001983344 0.0142281 0 0.002717554 0.0101422 0 0.001521885 0.01376652 0 0.001370489 0.01041007 0 9.56709e-4 0.01344025 0 3.26315e-4 0.01327133 0 0 0.01049995 0 -3.26315e-4 0.01327133 0 -0.001370489 0.01041007 0 -9.56709e-4 0.01344025 0 -0.001521885 0.01376652 0 -0.002717554 0.0101422 0 -0.001983344 0.0142281 0 -0.004018127 0.009700655 0 -0.002309679 0.01479327 0 0.01327139 3.26276e-4 0 0.01344025 9.56655e-4 0 0.01041013 0.001370429 0 0.01376658 0.001521825 0 0.0101422 0.002717614 0 0.01422804 0.001983284 0 0.009700715 0.004018187 0 0.01479327 0.002309679 0 0.0120936 0.008827209 0 0.01422804 -0.001983404 0 0.009700715 -0.004018187 0 0.0120936 -0.008827328 0 0.0101422 -0.002717614 0 0.01376658 -0.001521944 0 0.01041013 -0.001370549 0 0.01344025 -9.56774e-4 0 0.01327139 -3.26395e-4 0 0.01049995 0 0 0.008658289 -0.01081061 0 0.008827209 -0.01018023 0 0.006391942 -0.008330225 0 0.009153544 -0.009615063 0 0.007424592 -0.007424712 0 0.009615004 -0.009153604 0 0.008330166 -0.006392002 0 0.01018017 -0.008827328 0 0.01081061 -0.008658409 0 0.009093225 -0.005250096 0 0.01146322 -0.008658409 0 0.008827209 -0.01209366 0 0.002309679 -0.01479327 0 0.004018127 -0.009700775 0 0.001983344 -0.0142281 0 0.002717554 -0.0101422 0 0.001521885 -0.01376664 0 0.001370489 -0.01041018 0 9.56709e-4 -0.01344037 0 3.26315e-4 -0.01327145 0 0 -0.01050007 0 -3.26315e-4 -0.01327145 0 -0.001370489 -0.01041018 0 -9.56709e-4 -0.01344037 0 -0.001521885 -0.01376664 0 -0.002717554 -0.0101422 0 -0.001983344 -0.0142281 0 -0.004018127 -0.009700775 0 -0.002309679 -0.01479327 0 -0.008827209 -0.01209366 0 0.008658289 -0.01146328 0 0.005249977 -0.009093284 0 0.01146322 0.008658289 0 0.009093225 0.005249977 0 0.01081061 0.008658289 0 0.008330166 0.006392002 0 0.01018017 0.008827209 0 0.009615004 0.009153485 0 0.007424592 0.007424592 0 0.009153544 0.009614944 0 0.006391942 0.008330225 0 0.008827209 0.01018023 0 0.008658289 0.01081061 0 0.005249977 0.009093165 0 0.008658289 0.01146316 0 -0.01479327 -0.002309799 0 -0.0120936 -0.008827328 0 -0.009700715 -0.004018187 0 -0.01146322 -0.008658409 0 -0.009093225 -0.005250096 0 -0.01081061 -0.008658409 0 -0.008330166 -0.006392002 0 -0.01018017 -0.008827328 0 -0.009615004 -0.009153604 0 -0.007424592 -0.007424712 0 -0.009153544 -0.009615063 0 -0.006391942 -0.008330225 0 -0.008827209 -0.01018023 0 -0.008658289 -0.01081061 0 -0.005249977 -0.009093284 0 -0.008658289 -0.01146328 0 -0.01479327 0.002309679 0 -0.0120936 0.008827209 0 -0.009700715 0.004018187 0 -0.01146322 0.008658289 0 -0.009093225 0.005249977 0 -0.01081061 0.008658289 0 -0.008330166 0.006392002 0 -0.01018017 0.008827209 0 -0.009615004 0.009153485 0 -0.007424592 0.007424592 0 -0.009153544 0.009614944 0 -0.006391942 0.008330225 0 -0.008827209 0.01018023 0 -0.008658289 0.01081061 0 -0.005249977 0.009093165 0 -0.008658289 0.01146316 0 -0.01422804 0.001983284 0 -0.0101422 0.002717614 0 -0.01376658 0.001521825 0 -0.01041013 0.001370429 0 -0.01344025 9.56655e-4 0 -0.01327139 3.26276e-4 0 -0.01049995 0 0 -0.01327139 -3.26395e-4 0 -0.01041013 -0.001370549 0 -0.01344025 -9.56774e-4 0 -0.01376658 -0.001521944 0 -0.0101422 -0.002717614 0 -0.01422804 -0.001983404 -0.004999995 -0.002478599 0.01607632 -0.004999995 0.001983344 0.0142281 -0.004999995 -0.002309679 0.0167067 -0.004999995 0.002309679 0.01479327 -0.004999995 -0.001983344 0.01727187 -0.004999995 0.002478599 0.01542365 -0.004999995 -0.001521885 0.01773333 -0.004999995 0.002478599 0.01607632 -0.004999995 -9.56709e-4 0.01805961 -0.004999995 0.002309679 0.0167067 -0.004999995 -3.26315e-4 0.01822853 -0.004999995 0.001983344 0.01727187 -0.004999995 3.26315e-4 0.01822853 -0.004999995 0.001521885 0.01773333 -0.004999995 9.56709e-4 0.01805961 -0.004999995 0.001521885 0.01376652 -0.004999995 -0.002478599 0.01542365 -0.004999995 9.56709e-4 0.01344025 -0.004999995 -0.002309679 0.01479327 -0.004999995 3.26315e-4 0.01327133 -0.004999995 -0.001983344 0.0142281 -0.004999995 -3.26315e-4 0.01327133 -0.004999995 -0.001521885 0.01376652 -0.004999995 -9.56709e-4 0.01344025 -0.00300002 0 0.01949989 -0.006999969 -0.01361554 0.01146316 -0.006999969 -0.009153544 0.009614944 -0.006999969 -0.01344662 0.01209354 -0.006999969 -0.008827209 0.01018023 -0.006999969 -0.01312029 0.01265883 -0.006999969 -0.008658289 0.01081061 -0.006999969 -0.01265883 0.01312029 -0.006999969 -0.008658289 0.01146316 -0.006999969 -0.0120936 0.01344656 -0.006999969 -0.008827209 0.01209354 -0.006999969 -0.01146322 0.01361548 -0.006999969 -0.009153544 0.01265883 -0.006999969 -0.01081061 0.01361548 -0.006999969 -0.009615004 0.01312029 -0.006999969 -0.01018017 0.01344656 -0.006999969 -0.009615004 0.009153485 -0.006999969 -0.01361554 0.01081061 -0.006999969 -0.01018017 0.008827209 -0.006999969 -0.01344662 0.01018023 -0.006999969 -0.01081061 0.008658289 -0.006999969 -0.01312029 0.009614944 -0.006999969 -0.01146322 0.008658289 -0.006999969 -0.01265883 0.009153485 -0.006999969 -0.0120936 0.008827209 -0.006999969 -0.01822859 3.26276e-4 -0.006999969 -0.01376658 -0.001521944 -0.006999969 -0.01805967 9.56655e-4 -0.006999969 -0.01344025 -9.56774e-4 -0.006999969 -0.01773333 0.001521825 -0.006999969 -0.01327139 -3.26395e-4 -0.006999969 -0.01727187 0.001983284 -0.006999969 -0.01327139 3.26276e-4 -0.006999969 -0.0167067 0.002309679 -0.006999969 -0.01344025 9.56655e-4 -0.006999969 -0.01607626 0.002478599 -0.006999969 -0.01376658 0.001521825 -0.006999969 -0.01542365 0.002478599 -0.006999969 -0.01422804 0.001983284 -0.006999969 -0.01479327 0.002309679 -0.006999969 -0.01422804 -0.001983404 -0.006999969 -0.01822859 -3.26395e-4 -0.006999969 -0.01479327 -0.002309799 -0.006999969 -0.01805967 -9.56774e-4 -0.006999969 -0.01542365 -0.002478599 -0.006999969 -0.01773333 -0.001521944 -0.006999969 -0.01607626 -0.002478599 -0.006999969 -0.01727187 -0.001983404 -0.006999969 -0.0167067 -0.002309799 -0.006999969 -0.01361554 -0.01081061 -0.006999969 -0.009153544 -0.01265883 -0.006999969 -0.01344662 -0.01018023 -0.006999969 -0.008827209 -0.01209366 -0.006999969 -0.01312029 -0.009615063 -0.006999969 -0.008658289 -0.01146328 -0.006999969 -0.01265883 -0.009153604 -0.006999969 -0.008658289 -0.01081061 -0.006999969 -0.0120936 -0.008827328 -0.006999969 -0.008827209 -0.01018023 -0.006999969 -0.01146322 -0.008658409 -0.006999969 -0.009153544 -0.009615063 -0.006999969 -0.01081061 -0.008658409 -0.006999969 -0.009615004 -0.009153604 -0.006999969 -0.01018017 -0.008827328 -0.006999969 -0.009615004 -0.01312041 -0.006999969 -0.01361554 -0.01146328 -0.006999969 -0.01018017 -0.01344668 -0.006999969 -0.01344662 -0.01209366 -0.006999969 -0.01081061 -0.0136156 -0.006999969 -0.01312029 -0.01265883 -0.006999969 -0.01146322 -0.0136156 -0.006999969 -0.01265883 -0.01312041 -0.006999969 -0.0120936 -0.01344668 -0.006999969 -0.002478599 -0.01542377 -0.006999969 0.001983344 -0.01727199 -0.006999969 -0.002309679 -0.01479327 -0.006999969 0.002309679 -0.0167067 -0.006999969 -0.001983344 -0.0142281 -0.006999969 0.002478599 -0.01607632 -0.006999969 -0.001521885 -0.01376664 -0.006999969 0.002478599 -0.01542377 -0.006999969 -9.56709e-4 -0.01344037 -0.006999969 0.002309679 -0.01479327 -0.006999969 -3.26315e-4 -0.01327145 -0.006999969 0.001983344 -0.0142281 -0.006999969 3.26315e-4 -0.01327145 -0.006999969 0.001521885 -0.01376664 -0.006999969 9.56709e-4 -0.01344037 -0.006999969 0.001521885 -0.01773345 -0.006999969 -0.002478599 -0.01607632 -0.006999969 9.56709e-4 -0.01805973 -0.006999969 -0.002309679 -0.0167067 -0.006999969 3.26315e-4 -0.01822865 -0.006999969 -0.001983344 -0.01727199 -0.006999969 -3.26315e-4 -0.01822865 -0.006999969 -0.001521885 -0.01773345 -0.006999969 -9.56709e-4 -0.01805973 -0.006999969 0.008658289 0.01146316 -0.006999969 0.01312029 0.009614944 -0.006999969 0.008827209 0.01209354 -0.006999969 0.01344662 0.01018023 -0.006999969 0.009153544 0.01265883 -0.006999969 0.01361554 0.01081061 -0.006999969 0.009615004 0.01312029 -0.006999969 0.01361554 0.01146316 -0.006999969 0.01018017 0.01344656 -0.006999969 0.01344662 0.01209354 -0.006999969 0.01081061 0.01361548 -0.006999969 0.01312029 0.01265883 -0.006999969 0.01146322 0.01361548 -0.006999969 0.01265883 0.01312029 -0.006999969 0.0120936 0.01344656 -0.006999969 0.01265883 0.009153485 -0.006999969 0.008658289 0.01081061 -0.006999969 0.0120936 0.008827209 -0.006999969 0.008827209 0.01018023 -0.006999969 0.01146322 0.008658289 -0.006999969 0.009153544 0.009614944 -0.006999969 0.01081061 0.008658289 -0.006999969 0.009615004 0.009153485 -0.006999969 0.01018017 0.008827209 -0.006999969 0.008658289 -0.01081061 -0.006999969 0.01312029 -0.01265883 -0.006999969 0.008827209 -0.01018023 -0.006999969 0.01344662 -0.01209366 -0.006999969 0.009153544 -0.009615063 -0.006999969 0.01361554 -0.01146328 -0.006999969 0.009615004 -0.009153604 -0.006999969 0.01361554 -0.01081061 -0.006999969 0.01018017 -0.008827328 -0.006999969 0.01344662 -0.01018023 -0.006999969 0.01081061 -0.008658409 -0.006999969 0.01312029 -0.009615063 -0.006999969 0.01146322 -0.008658409 -0.006999969 0.01265883 -0.009153604 -0.006999969 0.0120936 -0.008827328 -0.006999969 0.01265883 -0.01312041 -0.006999969 0.008658289 -0.01146328 -0.006999969 0.0120936 -0.01344668 -0.006999969 0.008827209 -0.01209366 -0.006999969 0.01146322 -0.0136156 -0.006999969 0.009153544 -0.01265883 -0.006999969 0.01081061 -0.0136156 -0.006999969 0.009615004 -0.01312041 -0.006999969 0.01018017 -0.01344668 -0.006999969 0.01327139 3.26276e-4 -0.006999969 0.01773333 -0.001521944 -0.006999969 0.01344025 9.56655e-4 -0.006999969 0.01805967 -9.56774e-4 -0.006999969 0.01376658 0.001521825 -0.006999969 0.01822859 -3.26395e-4 -0.006999969 0.01422804 0.001983284 -0.006999969 0.01822859 3.26276e-4 -0.006999969 0.01479327 0.002309679 -0.006999969 0.01805967 9.56655e-4 -0.006999969 0.01542365 0.002478599 -0.006999969 0.01773333 0.001521825 -0.006999969 0.01607626 0.002478599 -0.006999969 0.01727187 0.001983284 -0.006999969 0.0167067 0.002309679 -0.006999969 0.01727187 -0.001983404 -0.006999969 0.01327139 -3.26395e-4 -0.006999969 0.0167067 -0.002309799 -0.006999969 0.01344025 -9.56774e-4 -0.006999969 0.01607626 -0.002478599 -0.006999969 0.01376658 -0.001521944 -0.006999969 0.01542365 -0.002478599 -0.006999969 0.01422804 -0.001983404 -0.006999969 0.01479327 -0.002309799</float_array>
          <technique_common>
            <accessor source="#Link_6-mesh-positions-array" count="744" stride="3">
              <param name="X" type="float"/>
              <param name="Y" type="float"/>
              <param name="Z" type="float"/>
            </accessor>
          </technique_common>
        </source>
        <source id="Link_6-mesh-normals">
          <float_array id="Link_6-mesh-normals-array" count="2190">-1 0 0 -1 0 0 -1 -1.44174e-7 0 -1 1.53746e-7 0 -1 1.63405e-7 0 -1 0 0 -1 -4.96643e-7 0 -1 1.96778e-7 0 -1 1.86567e-7 0 -1 3.33157e-7 0 -1 -3.53541e-7 0 -1 1.88288e-7 0 -1 1.38817e-6 0 -1 -1.0372e-6 0 -1 -2.69811e-7 0 -1 4.43404e-7 0 -1 -4.0062e-7 0 -1 2.56244e-7 0 -1 -4.2163e-7 0 -1 -1.63405e-7 0 -1 0 0 -1 4.96644e-7 0 -1 -3.93528e-7 0 -1 0 0 -1 3.93134e-7 0 -1 -7.65439e-7 0 -1 4.72176e-7 0 -1 -4.33146e-7 0 -1 3.53543e-7 0 -1 -1.88288e-7 0 -1 1.84274e-7 0 -1 -6.29428e-7 0 0 -0.03032976 0.99954 -3.00809e-4 -0.01665443 0.9998613 -0.001215338 0 0.9999993 -0.0022614 0.01190036 0.9999267 -0.001773595 0.01665443 0.9998598 0 0.04213017 0.9991121 0.001631736 0.07255703 0.9973629 -0.001604616 0.1068537 0.9942735 0.001620352 0.1677454 0.9858291 -0.001589536 0.2009291 0.9796046 0.001605749 0.2614372 0.9652192 -0.001565456 0.2931267 0.9560725 0.001594364 0.3525911 0.9357762 -0.001552939 0.3826916 0.9238749 0.001572191 0.4405706 0.8977167 -0.001539051 0.4687557 0.8833265 0.001555204 0.524554 0.8513758 -0.001516997 0.5506138 0.8347587 0.001538336 0.6036483 0.7972494 -0.001498878 0.6274662 0.7786424 0.001518189 0.6772086 0.7357896 -0.001484394 0.6986614 0.715451 0.001493632 0.7445784 0.6675334 -0.001459002 0.763469 0.6458428 0.001479566 0.8050741 0.5931725 -0.001436293 0.8214281 0.5703103 0.00145626 0.8581562 0.5133866 -0.001419246 0.8719163 0.4896529 0.001430988 0.9033837 0.4288309 -0.001396536 0.9145115 0.4045577 0.001408398 0.9402989 0.3403472 -0.001372456 0.9488259 0.3157967 0.001384615 0.9685657 0.2487544 -0.001348137 0.9745456 0.2241856 0.001360833 0.987936 0.1548566 -0.001322448 0.9914439 0.1305271 0.00133574 0.9982246 0.05954802 -0.001296997 0.999362 0.03569173 0.001309752 0.9993396 -0.03631395 -0.001270651 0.9982295 -0.05946689 0.001282095 0.9912694 -0.1318456 -0.001243472 0.9880568 -0.1540849 0.001254677 0.9740889 -0.2261626 -0.001214981 0.9689369 -0.2473052 0.001226782 0.9479579 -0.3183932 -0.001185297 0.9410452 -0.3382791 0.001198768 0.9131187 -0.4076922 -0.001157522 0.9046229 -0.4262114 0.001166701 0.8698754 -0.4932704 -0.001126587 0.8600167 -0.5102648 0.001137018 0.818644 -0.5743002 -0.001096606 0.8076102 -0.5897158 0.001103937 0.7598885 -0.6500527 -0.001064598 0.7479067 -0.6638031 0.001073062 0.6941283 -0.7198505 -0.001029968 0.681405 -0.7319059 0.001040458 0.6220418 -0.7829834 -0.001001656 0.6087471 -0.7933638 0.001001477 0.5442043 -0.8389521 -9.65913e-4 0.5306223 -0.8476079 9.71332e-4 0.4613357 -0.8872252 -9.30846e-4 0.4475892 -0.894239 9.33807e-4 0.3742857 -0.927313 -8.97971e-4 0.360584 -0.9327263 8.95571e-4 0.2837618 -0.9588944 -8.57858e-4 0.2703254 -0.9627687 8.63463e-4 0.1906256 -0.9816625 -8.16989e-4 0.1775667 -0.9841085 8.29601e-4 0.09574794 -0.9954053 -7.80712e-4 0.08317798 -0.9965345 7.88733e-4 0 -0.9999997 -7.42408e-4 -0.01190042 -0.999929 7.49618e-4 -0.09574794 -0.9954054 -7.07192e-4 -0.1069158 -0.9942679 7.04958e-4 -0.1906257 -0.9816625 -6.61694e-4 -0.2008691 -0.979618 6.71094e-4 -0.2837617 -0.9588946 -6.19195e-4 -0.2931271 -0.9560733 6.30517e-4 -0.3742859 -0.9273132 -5.77306e-4 -0.3826916 -0.923876 5.87616e-4 -0.4613363 -0.8872252 -5.43553e-4 -0.4688051 -0.8833016 5.36521e-4 -0.5442045 -0.8389525 -4.98571e-4 -0.5506139 -0.83476 4.94922e-4 -0.6220426 -0.7829834 -4.51586e-4 -0.6274674 -0.7786427 4.52906e-4 -0.6941281 -0.7198514 -4.08337e-4 -0.6986306 -0.7154825 4.06772e-4 -0.7598888 -0.650053 -3.6393e-4 -0.7634959 -0.6458126 3.5963e-4 -0.8186445 -0.5743006 -3.13945e-4 -0.8214085 -0.5703402 3.16354e-4 -0.8698748 -0.4932724 -2.67565e-4 -0.8719167 -0.4896543 2.68181e-4 -0.9131193 -0.4076924 -2.17725e-4 -0.9145123 -0.4045581 2.21446e-4 -0.9479587 -0.3183935 -1.69652e-4 -0.9488269 -0.315797 1.71972e-4 -0.9740906 -0.2261583 -1.19968e-4 -0.9745464 -0.2241858 1.2229e-4 -0.99127 -0.131848 -7.05177e-5 -0.9914448 -0.1305273 7.12958e-5 -0.9993405 -0.03631401 -1.95965e-5 -0.9993628 -0.03569173 1.96732e-5 -0.9982305 0.05946326 3.20558e-5 -0.9982255 0.05954807 -3.10886e-5 -0.9880576 0.154085 8.30971e-5 -0.9879366 0.1548591 -8.21174e-5 -0.9689382 0.2473032 1.34463e-4 -0.968566 0.2487568 -1.3068e-4 -0.9410386 0.3382993 1.8211e-4 -0.9402998 0.3403475 -1.82579e-4 -0.9046235 0.4262117 2.30241e-4 -0.9033855 0.4288294 -2.31722e-4 -0.8600167 0.510266 2.82139e-4 -0.8581582 0.5133854 -2.74882e-4 -0.80761 0.5897169 3.26638e-4 -0.805076 0.5931716 -3.25089e-4 -0.7479071 0.6638034 3.71006e-4 -0.7445785 0.6675348 -3.73912e-4 -0.6814048 0.7319068 4.1612e-4 -0.6772087 0.7357909 -4.19476e-4 -0.6087874 0.7933334 4.66177e-4 -0.6036489 0.7972502 -4.59043e-4 -0.530577 0.8476366 5.05139e-4 -0.5245551 0.8513764 -5.08435e-4 -0.4476388 0.8942143 5.55507e-4 -0.440571 0.8977176 -5.43878e-4 -0.3605843 0.9327265 6.01334e-4 -0.3525913 0.9357773 -5.83433e-4 -0.2702675 0.9627851 6.3197e-4 -0.2614376 0.9652202 -6.37241e-4 -0.1775666 0.9841086 6.75766e-4 -0.1677456 0.9858301 -6.75178e-4 -0.08317798 0.9965346 7.15758e-4 -0.07255715 0.9973641 0.7053673 -0.6651789 0.2449369 0.7081765 -0.6419055 0.2940126 0.6942291 -0.6502156 0.3086515 0.7153224 -0.6121876 0.3369573 0.6903135 -0.620886 0.3714405 0.7155506 -0.5855579 0.3809322 0.6936413 -0.5799126 0.4272741 0.7089728 -0.5612485 0.4270339 0.7045291 -0.5316478 0.4700952 0.6968497 -0.5340248 0.4787673 0.7139016 -0.4890165 0.5012059 0.690782 -0.489665 0.532023 0.7162385 -0.4493083 0.5339704 0.6918962 -0.435833 0.5756123 0.7117603 -0.4114784 0.5692829 0.7001793 -0.374543 0.6078376 0.7001221 -0.3745438 0.607903 0.7118279 -0.3234772 0.6234289 0.6918383 -0.3181158 0.6481993 0.7162046 -0.2749478 0.6414474 0.6907384 -0.2549607 0.6766651 0.7138305 -0.2278065 0.6622313 0.696901 -0.1874946 0.6922245 0.7045242 -0.1808727 0.686244 0.7090985 -0.1291139 0.6931876 0.6936143 -0.120835 0.7101396 0.7155823 -0.07697856 0.694274 0.6902951 -0.05249714 0.721621 0.7153018 -0.02567899 0.6983438 0 -0.03678894 0.9993231 0 -0.7071068 0.7071068 0.7162673 0.02781754 0.6972714 0.6906743 0.05247086 0.72126 0.7178471 0.08309829 0.6912238 0.6909137 0.1212696 0.7126935 0.7158796 0.138311 0.6843877 0.6949232 0.1879956 0.6940745 0.7102264 0.1940087 0.676712 0.7026946 0.2499669 0.6661359 0.7010254 0.2514458 0.6673368 0.7115447 0.2984637 0.6361004 0.6940139 0.3171946 0.6463221 0.7165145 0.3456737 0.6059014 0.6905938 0.3793802 0.6157522 0.717827 0.3921218 0.5752956 0.6910491 0.4363223 0.5762585 0.7156521 0.4380999 0.5439767 0.6952811 0.486736 0.5288406 0.709874 0.484102 0.5115898 0.703388 0.5281288 0.4757367 0.700503 0.5313683 0.4763858 0.7118946 0.5575959 0.4269577 0.6936417 0.5799124 0.4272739 0.7166108 0.585802 0.3785567 0.690494 0.6207381 0.371352 0.7178059 0.6130294 0.3300752 0.6911947 0.6528474 0.3099035 0.7154161 0.6396173 0.2811931 0.6956222 0.6755185 0.2445089 0.709379 0.6657832 0.2313317 0.7039383 0.687358 0.1789131 0.7000183 0.6916775 0.1776422 0.7122701 0.6912009 0.1221182 0.6933872 0.7118728 0.1115857 0.7168024 0.6941256 0.06621277 0.6904469 0.7220994 0.04307591 0.7177546 0.6962143 0.01068031 0.6913255 0.7220669 -0.02623802 0.7151742 0.6974959 -0.04500335 0.6960006 0.711773 -0.09467005 0.708927 0.6979634 -0.101339 0.7045185 0.6919593 -0.1576262 0.6995477 0.6960708 -0.1616122 0.7126265 0.669435 -0.2098101 0.6931067 0.6833216 -0.2295098 0.7169419 0.6464946 -0.2608433 0.690393 0.6605813 -0.2949404 0.7177087 0.6229521 -0.3111674 0.6914949 0.6283817 -0.3563303 0.7149213 0.5986208 -0.3613042 0.6963795 0.5875197 -0.4121605 0.7084963 0.5732086 -0.4116612 0.70514 0.5411635 -0.4581701 0.6990988 0.5433397 -0.4648043 0.7129894 0.4973195 -0.4942868 0.6928587 0.5005176 -0.5190656 0.7170774 0.4536345 -0.5291652 0.6903521 0.4500312 -0.5664679 0.7176451 0.4096881 -0.563153 0.6916839 0.3930245 -0.605892 0.7146695 0.3651034 -0.5966129 0.6967759 0.3309114 -0.636397 0.7079515 0.3194887 -0.6298664 0.7056269 0.2691553 -0.6554741 0.6986128 0.2678017 -0.6634927 0.7132973 0.2136797 -0.6674938 0.6926528 0.2046692 -0.6916232 0.7172533 0.1589178 -0.6784489 0.6903654 0.1379103 -0.7101947 0.7175785 0.1043274 -0.6886196 0.6918552 0.06913352 -0.718719 0.7143376 0.04935491 -0.6980587 0.6971231 0 -0.7169516 0.7074416 -0.006501734 -0.706742 0.7061596 -0.06290972 -0.7052525 0.6981583 -0.06855016 -0.7126542 0.7136012 -0.1176657 -0.6905999 0.6923857 -0.1375417 -0.7082968 0.7173232 -0.1713474 -0.6753426 0.6902799 -0.2053138 -0.6938011 0.7174649 -0.2246025 -0.6593921 0.6920563 -0.2701759 -0.6693751 0.7140507 -0.2777941 -0.6426213 0.6975447 -0.3305662 -0.6357338 0.7069817 -0.3314772 -0.6247399 0.7067377 -0.3803445 -0.59654 0.6977908 -0.3898147 -0.6009431 0.7139573 -0.4222685 -0.5585287 0.6921799 -0.4489436 -0.5650988 0.7174438 -0.4630516 -0.5204399 0.6903398 -0.5021918 -0.5208019 0.7173979 -0.5030581 -0.481947 0.6922767 -0.5483603 -0.4690993 0.7137741 -0.5427596 -0.4426497 0.6979934 -0.5862348 -0.4112591 0.7064584 -0.5823795 -0.4021825 0.7072538 -0.6118792 -0.3541128 0.6973471 -0.6234695 -0.3535435 0.7142317 -0.6317892 -0.3011901 0.6919347 -0.659235 -0.2943393 0.7175059 -0.6506455 -0.2486881 0.6902936 -0.6858762 -0.2303665 0.7172632 -0.6686351 -0.196114 0.6925068 -0.7027194 -0.1631559 0.7134622 -0.6859427 -0.1430191 0.6984325 -0.7094283 -0.0943582 0.705914 -0.7027012 -0.08886265 0.7077504 -0.7057146 -0.03250157 0.6969447 -0.7166519 -0.02603989 0.7145216 -0.6992151 0.02360528 0.6917591 -0.720847 0.04300123 0.7176054 -0.6919682 0.07888436 0.6903347 -0.7147625 0.1120387 0.7171457 -0.6839464 0.1338639 0.6927359 -0.6985218 0.1794001 0.7131245 -0.6750655 0.1890506 0.6988683 -0.6725496 0.2434342 1 -7.64918e-6 0 1 2.5648e-6 0 1 0 0 1 -7.85594e-7 0 1 -4.44325e-7 0 1 -3.54089e-7 0 1 -5.64801e-7 0 1 9.92241e-7 0 1 -4.42958e-7 0 1 -2.25749e-7 0 1 7.36845e-7 0 1 0 0 1 -2.21187e-7 0 1 -3.66413e-7 0 1 4.4361e-7 0 1 -5.55157e-7 0 1 0 0 1 1.36322e-7 0 1 -2.08181e-7 0 1 1.77446e-7 0 1 0 0 1 0 0 1 0 0 1 0 0 1 -1.41215e-7 0 1 -2.91148e-7 0 1 4.72133e-7 0 1 -7.73382e-7 0 1 2.6581e-7 0 1 6.47014e-7 0 1 -1.28246e-6 0 1 1.91199e-6 0 0 0.9473747 -0.3201268 0 0.9473745 -0.3201277 0 0.896267 -0.443515 0 0.8962667 -0.4435158 0 0.8291326 -0.5590519 0 0.747253 -0.6645398 0 0.7472539 -0.6645388 0 0.6519798 -0.7582364 0 0.6519793 -0.7582368 0 0.5450798 -0.8383843 0 0.545079 -0.8383847 0 0.4285183 -0.9035332 0 0.428518 -0.9035332 0 0.3042165 -0.952603 0 0.3042166 -0.9526029 0 0.1745505 -0.9846483 0 0.1745505 -0.9846483 0 0.04176354 -0.9991276 0 -0.09173738 -0.9957833 0 -0.2237187 -0.9746538 0 -0.2237188 -0.9746538 0 -0.351599 -0.9361507 0 -0.351599 -0.9361507 0 -0.4732324 -0.8809377 0 -0.4732326 -0.8809376 0 -0.5864012 -0.8100208 0 -0.5864019 -0.8100204 0 -0.689176 -0.7245941 0 -0.6891754 -0.7245946 0 -0.7795909 -0.6262892 0 -0.856124 -0.5167706 0 -0.856124 -0.5167705 0 -0.9173446 -0.3980942 0 -0.9173439 -0.3980957 0 -0.96223 -0.2722381 0 -0.9622305 -0.2722363 0 -0.9899291 -0.1415637 0 -0.9999652 -0.008354842 0 -0.9999651 -0.008355796 0 -0.9921565 0.1250023 0 -0.9921565 0.1250023 0 -0.9666419 0.2561318 0 -0.9666422 0.2561309 0 -0.9238805 0.3826814 0 -0.9238803 0.3826814 0 -0.8646295 0.5024101 0 -0.8646299 0.5024094 0 -0.7899461 0.6131764 0 -0.7899447 0.6131782 0 -0.70116 0.7130039 0 -0.7011595 0.7130044 0 -0.5999267 0.8000551 0 -0.5999265 0.8000552 0 -0.4878724 0.8729151 0 -0.4878721 0.8729152 0 -0.3672126 0.930137 0 -0.3672126 0.930137 0 -0.2398765 0.9708034 0 -0.1084244 0.9941047 0 -0.1084243 0.9941048 0 0.02507597 0.9996856 0 0.1580422 0.9874324 0 0.1580421 0.9874324 0 0.2883254 0.9575325 0 0.2883256 0.9575325 0 0.4132763 0.9106057 0 0.4132762 0.9106057 0 0.5310471 0.8473424 0 0.6392188 0.769025 0 0.6392183 0.7690254 0 0.7360296 0.6769495 0 0.736029 0.67695 0 0.8196742 0.5728301 0 0.8196746 0.5728294 0 0.8887208 0.4584491 0 0.8887203 0.4584499 0 0.9418972 0.3359014 0 0.9782621 0.2073727 0 0.978262 0.2073728 0 0.9971743 0.07512336 0 0.9971745 0.0751214 0 0.9982903 -0.05845141 0 0.9982902 -0.05845338 0 0.9815894 -0.1910036 0 0.9815897 -0.1910016 1 -1.40565e-7 0 1 2.91044e-7 0 1 -3.48329e-7 0 1 -4.5786e-7 0 1 2.06308e-6 0 1 6.24552e-7 0 1 8.11372e-7 0 1 -4.96846e-7 0 1 -4.57879e-7 0 1 1.40643e-6 0 1 -2.06308e-6 0 0 0.8660165 -0.5000157 0 0.8660162 -0.5000161 0 0.9659244 -0.2588246 0 0.9659245 -0.2588241 0 1 0 0 0.7070909 -0.7071226 0 0.7070911 -0.7071225 0 0.4999544 -0.8660518 0 0.4999545 -0.8660518 0 0.258828 -0.9659234 0 0.258828 -0.9659235 0 0 -1 0 -0.258828 -0.9659235 0 -0.258828 -0.9659234 0 -0.4999545 -0.8660518 0 -0.4999544 -0.8660518 0 -0.7070911 -0.7071225 0 -0.7070909 -0.7071226 0 -0.8660165 -0.5000157 0 -0.8660162 -0.5000161 0 -0.9659244 -0.2588246 0 -0.9659245 -0.2588241 0 -1 0 0 -0.9659245 0.2588241 0 -0.9659244 0.2588246 0 -0.8660162 0.5000161 0 -0.8660165 0.5000157 0 -0.7071822 0.7070313 0 -0.7071824 0.7070312 0 -0.4999544 0.8660518 0 -0.4999545 0.8660518 0 -0.258828 0.9659234 0 -0.258828 0.9659235 0 0 1 0 0.258828 0.9659235 0 0.258828 0.9659234 0 0.4999545 0.8660518 0 0.4999544 0.8660518 0 0.7071824 0.7070312 0 0.7071822 0.7070313 0 0.8660165 0.5000157 0 0.8660162 0.5000161 0 0.9659244 0.2588246 0 0.9659245 0.2588241 0 -0.7071372 0.7070765 0 -0.7071371 0.7070765 0 0.7071372 0.7070765 0 0.7071371 0.7070765 0.7085698 0.0117523 0.705543 0.7066842 0 0.7075291 0.7085698 -0.0117523 0.705543 0.7076951 0.6332288 -0.3133512 0.706408 0.6348075 -0.3130611 0.7063989 0.6702502 -0.2275198 0.705107 0.5896004 -0.3939486 0.7090098 0.5847035 -0.3942424 0.7039183 0.5340094 -0.46833 0.7101929 0.5260718 -0.4678403 0.7026998 0.4691283 -0.5349127 0.711381 0.4582155 -0.5328936 0.7016037 0.3958392 -0.5925063 0.7124419 0.3824993 -0.5883204 0.7005035 0.3156481 -0.6400478 0.7134759 0.300254 -0.6330875 0.6994839 0.2297466 -0.6767118 0.7145177 0.2128351 -0.6664577 0.6985774 0.1395505 -0.7017943 0.7153928 0.1219624 -0.6879959 0.6976337 0.04688686 -0.7149188 0.7162896 0.02914273 -0.6971943 0.6968023 -0.04693973 -0.7157257 0.7170246 -0.06394535 -0.6941087 0.6959411 -0.1400506 -0.7043095 0.7178445 -0.1557537 -0.6785574 0.6952642 -0.2310665 -0.6805998 0.7184942 -0.2445487 -0.6511237 0.6945352 -0.3182178 -0.6452584 0.7191057 -0.3288495 -0.6121643 0.6939029 -0.4000061 -0.5987436 0.7197185 -0.4071186 -0.5623697 0.6933268 -0.4751531 -0.5417818 0.7202154 -0.4781161 -0.5026877 0.6928115 -0.5421578 -0.4754758 0.7206924 -0.5404549 -0.4341785 0.6923449 -0.5999663 -0.4008728 0.7210964 -0.5931524 -0.3580368 0.6919489 -0.6474907 -0.3193159 0.7214421 -0.6352377 -0.275671 0.6915731 -0.6839737 -0.2321783 0.7217347 -0.6660268 -0.1884343 0.69128 -0.7087047 -0.1409593 0.7219664 -0.6849598 -0.09795194 0.6910451 -0.7212638 -0.04727792 0.7221627 -0.6916992 -0.005778729 0.6908683 -0.7214328 0.04728394 0.7222941 -0.6861615 0.08645099 0.6907483 -0.709201 0.1410695 0.7223722 -0.6684373 0.1771159 0.6906889 -0.6847746 0.2324492 0.7223969 -0.6388434 0.2646165 0.6906976 -0.6485767 0.3198205 0.7223944 -0.5978755 0.3474065 0.6907537 -0.6012127 0.4017494 0.7222834 -0.546324 0.4240717 0.6908817 -0.5435755 0.4766635 0.7221981 -0.4849823 0.4931757 0.6910775 -0.4765402 0.5434349 0.7219663 -0.4151061 0.5535807 0.6912416 -0.4014689 0.6008393 0.7217024 -0.3377071 0.6042348 0.6915646 -0.3194807 0.6478199 0.721423 -0.254293 0.6441149 0.6918737 -0.2320597 0.6837098 0.7210429 -0.1662081 0.6726604 0.6923469 -0.1407868 0.7076969 0.7206904 -0.07516592 0.6891702 0.6928304 -0.0471909 0.7195549 0.7202577 0.01739531 0.6934885 0.6933509 0.04715812 0.7190555 0.7196993 0.1097264 0.6855604 0.693858 0.1405033 0.7062718 0.7190874 0.200363 0.6654081 0.6945591 0.2312296 0.6812639 0.7185057 0.2874425 0.6333455 0.6951785 0.3179428 0.644701 0.717767 0.3697593 0.5899904 0.6959555 0.3989474 0.5970655 0.7170439 0.4455532 0.5360321 0.6967859 0.4729129 0.5392985 0.7162767 0.5136132 0.4723867 0.697627 0.5386835 0.4723737 0.7153868 0.5727301 0.4002525 0.698547 0.594955 0.3975687 0.7144893 0.6217905 0.3207516 0.6994951 0.6409475 0.3160585 0.7134922 0.6599525 0.2353544 0.700519 0.6757615 0.2293897 0.7124617 0.6864572 0.1455165 0.701587 0.6988917 0.1390189 0.7113656 0.7008363 0.05279773 0.7027168 0.7099466 0.04653114 0.7102081 0.7027882 -0.04115021 0.7038818 0.7087962 -0.04645973 0.7089685 0.6922563 -0.134703 0.7051171 0.6954683 -0.1383257 0.7077131 0.6693201 -0.2261698 1 6.96784e-7 0 1 -8.11372e-7 0 1 9.15463e-7 0 1 -6.96784e-7 0 1 -9.15465e-7 0 0 0.8660632 -0.4999344 0 0.8660606 -0.4999393 0 0.9659252 -0.2588213 0 0.9659236 -0.2588272 0 0.7070903 -0.7071233 0 0.7070919 -0.7071217 0 0.4999532 -0.8660524 0 0.4999546 -0.8660516 0 0.2588285 -0.9659233 0 0.2588277 -0.9659235 0 -0.2588277 -0.9659235 0 -0.4999546 -0.8660516 0 -0.499956 -0.8660508 0 -0.7070903 -0.7071233 0 -0.7070919 -0.7071217 0 -0.8660606 -0.4999393 0 -0.8660619 -0.4999369 0 -0.9659245 -0.2588243 0 -0.9659249 -0.2588228 0 -0.9659249 0.2588228 0 -0.9659245 0.2588243 0 -0.8660619 0.4999369 0 -0.8660606 0.4999393 0 -0.7070919 0.7071217 0 -0.7070903 0.7071233 0 -0.499956 0.8660508 0 -0.4999546 0.8660516 0 -0.2588277 0.9659235 0 0.2588277 0.9659235 0 0.2588285 0.9659233 0 0.4999546 0.8660516 0 0.4999532 0.8660524 0 0.7070919 0.7071217 0 0.7070903 0.7071233 0 0.8660632 0.4999344 0 0.8660606 0.4999393 0 0.9659252 0.2588213 0 0.9659236 0.2588272 1 -2.81131e-7 0 1 3.48329e-7 0 1 9.15754e-7 0 1 -3.48329e-7 0 0 0.8660176 -0.5000136 0 0.8660148 -0.5000184 0 0.5000889 -0.8659742 0 0.5000931 -0.8659718 0 -0.2588285 -0.9659233 0 -0.5000903 -0.8659733 0 -0.5000916 -0.8659725 0 -0.8660148 -0.5000184 0 -0.8660176 -0.5000136 0 -0.9659236 -0.2588272 0 -0.9659252 -0.2588213 0 -0.9659252 0.2588213 0 -0.9659236 0.2588272 0 -0.8660176 0.5000136 0 -0.8660148 0.5000184 0 -0.5000916 0.8659725 0 -0.5000903 0.8659733 0 -0.2586573 0.9659692 0 -0.2586581 0.965969 0 0.2586573 0.9659692 0 0.5000931 0.8659718 0 0.5000889 0.8659742 0 0.8660176 0.5000136 0 0.8660148 0.5000184 1 -2.8113e-7 0 1 -1.295e-6 0 1 8.11369e-7 0 1 -9.15756e-7 0 0 -0.8660162 -0.500016 0 -0.8660162 0.500016 0 -0.7071833 0.7070304 0 -0.7071816 0.7070319 0 0.7071833 0.7070304 0 0.7071816 0.7070319 1 -5.62167e-7 0 1 6.96786e-7 0 1 -8.11369e-7 0 1 4.96737e-7 0 1 -1.29499e-6 0 1 -6.96786e-7 0 1 -9.15462e-7 0 0 0.8660164 -0.5000157 0 0.9659365 -0.2587794 0 0.9659368 -0.2587779 0 0.4999542 -0.8660518 0 0.4999545 -0.8660518 0 0.258828 -0.9659235 0 -0.258828 -0.9659235 0 -0.4999545 -0.8660518 0 -0.4999542 -0.8660518 0 -0.8660164 -0.5000157 0 -0.9659365 -0.2587794 0 -0.9659368 -0.2587779 0 -0.9659246 0.2588235 0 -0.9659243 0.258825 0 -0.8660621 0.4999366 0 -0.7070909 0.7071226 0 -0.4999542 0.8660518 0 -0.4999545 0.8660518 0 -0.258828 0.9659235 0 0.258828 0.9659235 0 0.4999545 0.8660518 0 0.4999542 0.8660518 0 0.7070909 0.7071226 0 0.8660621 0.4999366 0 0.9659243 0.258825 0 0.9659246 0.2588235 0 0.8660619 -0.4999369 0 0.9659245 -0.2588243 0 0.9659249 -0.2588228 0 0.499956 -0.8660508 0 -0.4999532 -0.8660524 0 -0.8660632 -0.4999344 0 -0.8660632 0.4999344 0 -0.4999532 0.8660524 0 -0.2588285 0.9659233 0 0.499956 0.8660508 0 0.8660619 0.4999369 0 0.9659245 0.2588243 0 0.9659249 0.2588228 1 -1.295e-6 0 0 0.8660162 -0.500016 0 0.8660162 0.500016 1 -2.81131e-7 0 1 9.15753e-7 0 0 0.5000916 -0.8659725 0 0.5000903 -0.8659733 0 -0.5000931 -0.8659718 0 -0.5000889 -0.8659742 0 -0.5000889 0.8659742 0 -0.5000931 0.8659718 0 0.2586581 0.965969 0 0.5000903 0.8659733 0 0.5000916 0.8659725</float_array>
          <technique_common>
            <accessor source="#Link_6-mesh-normals-array" count="730" stride="3">
              <param name="X" type="float"/>
              <param name="Y" type="float"/>
              <param name="Z" type="float"/>
            </accessor>
          </technique_common>
        </source>
        <vertices id="Link_6-mesh-vertices">
          <input semantic="POSITION" source="#Link_6-mesh-positions"/>
        </vertices>
        <triangles material="Material-material" count="1484">
          <input semantic="VERTEX" source="#Link_6-mesh-vertices" offset="0"/>
          <input semantic="NORMAL" source="#Link_6-mesh-normals" offset="1"/>
          <p>0 0 1 0 2 0 2 1 1 1 3 1 2 0 3 0 4 0 4 2 3 2 5 2 4 0 5 0 6 0 6 0 5 0 7 0 6 0 7 0 8 0 8 3 7 3 9 3 8 0 9 0 10 0 10 4 9 4 11 4 10 0 11 0 12 0 12 5 11 5 13 5 12 6 13 6 14 6 14 7 13 7 15 7 14 0 15 0 16 0 16 8 15 8 17 8 16 0 17 0 18 0 18 0 17 0 19 0 18 0 19 0 20 0 20 0 19 0 21 0 20 0 21 0 22 0 22 9 21 9 23 9 22 0 23 0 24 0 24 10 23 10 25 10 24 0 25 0 26 0 26 11 25 11 27 11 26 0 27 0 28 0 28 12 27 12 29 12 28 13 29 13 30 13 30 14 29 14 31 14 30 0 31 0 32 0 32 15 31 15 33 15 32 0 33 0 34 0 34 0 33 0 35 0 1 0 0 0 36 0 36 0 0 0 37 0 36 16 37 16 38 16 38 17 37 17 39 17 38 18 39 18 40 18 40 19 39 19 41 19 40 0 41 0 42 0 42 20 41 20 43 20 42 21 43 21 44 21 44 22 43 22 45 22 44 0 45 0 46 0 46 23 45 23 47 23 46 0 47 0 48 0 48 24 47 24 49 24 48 25 49 25 50 25 50 0 49 0 51 0 50 26 51 26 52 26 52 27 51 27 53 27 52 0 53 0 54 0 54 28 53 28 55 28 54 0 55 0 56 0 56 29 55 29 57 29 56 0 57 0 58 0 58 30 57 30 59 30 58 0 59 0 60 0 60 31 59 31 61 31 60 0 61 0 62 0 62 0 61 0 63 0 62 0 63 0 64 0 64 0 63 0 65 0 66 32 67 32 57 32 57 33 67 33 68 33 57 34 68 34 69 34 57 35 69 35 59 35 59 36 69 36 70 36 59 37 70 37 71 37 71 38 72 38 59 38 59 39 72 39 61 39 61 40 72 40 73 40 61 41 73 41 63 41 63 42 73 42 74 42 63 43 74 43 65 43 65 44 74 44 75 44 65 45 75 45 64 45 64 46 75 46 76 46 64 47 76 47 62 47 62 48 76 48 77 48 62 49 77 49 60 49 60 50 77 50 78 50 60 51 78 51 58 51 58 52 78 52 79 52 58 53 79 53 56 53 56 54 79 54 80 54 56 55 80 55 54 55 54 56 80 56 81 56 54 57 81 57 52 57 52 58 81 58 82 58 52 59 82 59 50 59 50 60 82 60 83 60 50 61 83 61 48 61 48 62 83 62 84 62 48 63 84 63 46 63 46 64 84 64 85 64 46 65 85 65 44 65 44 66 85 66 86 66 44 67 86 67 42 67 42 68 86 68 87 68 42 69 87 69 40 69 40 70 87 70 88 70 40 71 88 71 38 71 38 72 88 72 89 72 38 73 89 73 36 73 36 74 89 74 90 74 36 75 90 75 1 75 1 76 90 76 91 76 1 77 91 77 3 77 3 78 91 78 92 78 3 79 92 79 5 79 5 80 92 80 93 80 5 81 93 81 7 81 7 82 93 82 94 82 7 83 94 83 9 83 9 84 94 84 95 84 9 85 95 85 11 85 11 86 95 86 96 86 11 87 96 87 13 87 13 88 96 88 97 88 13 89 97 89 15 89 15 90 97 90 98 90 15 91 98 91 17 91 17 92 98 92 99 92 17 93 99 93 19 93 19 94 99 94 100 94 19 95 100 95 21 95 21 96 100 96 101 96 21 97 101 97 23 97 23 98 101 98 102 98 23 99 102 99 25 99 25 100 102 100 103 100 25 101 103 101 27 101 27 102 103 102 104 102 27 103 104 103 29 103 29 104 104 104 105 104 29 105 105 105 31 105 31 106 105 106 106 106 31 107 106 107 33 107 33 108 106 108 107 108 33 109 107 109 35 109 35 110 107 110 108 110 35 111 108 111 34 111 34 112 108 112 109 112 34 113 109 113 32 113 32 114 109 114 110 114 32 115 110 115 30 115 30 116 110 116 111 116 30 117 111 117 28 117 28 118 111 118 112 118 28 119 112 119 26 119 26 120 112 120 113 120 26 121 113 121 24 121 24 122 113 122 114 122 24 123 114 123 22 123 22 124 114 124 115 124 22 125 115 125 20 125 20 126 115 126 116 126 20 127 116 127 18 127 18 128 116 128 117 128 18 129 117 129 16 129 16 130 117 130 118 130 16 131 118 131 14 131 14 132 118 132 119 132 14 133 119 133 12 133 12 134 119 134 120 134 12 135 120 135 10 135 10 136 120 136 8 136 8 137 120 137 121 137 8 138 121 138 6 138 6 139 121 139 122 139 6 140 122 140 4 140 4 141 122 141 123 141 4 142 123 142 2 142 2 143 123 143 124 143 2 144 124 144 0 144 0 145 124 145 125 145 0 146 125 146 37 146 37 147 125 147 126 147 37 148 126 148 39 148 39 149 126 149 127 149 39 150 127 150 41 150 41 151 127 151 128 151 41 152 128 152 43 152 43 153 128 153 129 153 43 154 129 154 45 154 45 155 129 155 130 155 45 156 130 156 47 156 47 157 130 157 131 157 47 158 131 158 49 158 49 159 131 159 132 159 49 160 132 160 51 160 51 161 132 161 133 161 51 162 133 162 53 162 53 163 133 163 134 163 53 164 134 164 55 164 55 165 134 165 135 165 55 166 135 166 57 166 57 167 135 167 66 167 136 168 137 168 124 168 124 169 137 169 138 169 124 170 138 170 125 170 125 171 138 171 139 171 125 172 139 172 126 172 126 173 139 173 140 173 126 174 140 174 127 174 127 175 140 175 141 175 127 176 141 176 142 176 127 177 142 177 128 177 128 178 142 178 143 178 128 179 143 179 129 179 129 180 143 180 144 180 129 181 144 181 130 181 130 182 144 182 145 182 130 183 145 183 146 183 130 184 146 184 131 184 131 185 146 185 147 185 131 186 147 186 132 186 132 187 147 187 148 187 132 188 148 188 133 188 133 189 148 189 149 189 133 190 149 190 134 190 134 191 149 191 150 191 134 192 150 192 151 192 134 193 151 193 135 193 135 194 151 194 152 194 135 195 152 195 66 195 66 196 152 196 153 196 153 197 152 197 154 197 153 198 154 198 71 198 71 199 154 199 155 199 71 200 155 200 72 200 72 201 155 201 156 201 72 202 156 202 73 202 73 203 156 203 157 203 73 204 157 204 74 204 74 205 157 205 158 205 74 206 158 206 159 206 74 207 159 207 75 207 75 208 159 208 160 208 75 209 160 209 76 209 76 210 160 210 161 210 76 211 161 211 77 211 77 212 161 212 162 212 77 213 162 213 78 213 78 214 162 214 163 214 78 215 163 215 79 215 79 216 163 216 164 216 79 217 164 217 165 217 79 218 165 218 80 218 80 219 165 219 166 219 80 220 166 220 81 220 81 221 166 221 167 221 81 222 167 222 82 222 82 223 167 223 168 223 82 224 168 224 83 224 83 225 168 225 169 225 83 226 169 226 84 226 84 227 169 227 170 227 84 228 170 228 171 228 84 229 171 229 85 229 85 230 171 230 172 230 85 231 172 231 86 231 86 232 172 232 173 232 86 233 173 233 87 233 87 234 173 234 174 234 87 235 174 235 88 235 88 236 174 236 175 236 88 237 175 237 89 237 89 238 175 238 176 238 89 239 176 239 177 239 89 240 177 240 90 240 90 241 177 241 178 241 90 242 178 242 91 242 91 243 178 243 179 243 91 244 179 244 92 244 92 245 179 245 180 245 92 246 180 246 93 246 93 247 180 247 181 247 93 248 181 248 94 248 94 249 181 249 182 249 94 250 182 250 183 250 94 251 183 251 95 251 95 252 183 252 184 252 95 253 184 253 96 253 96 254 184 254 185 254 96 255 185 255 97 255 97 256 185 256 186 256 97 257 186 257 98 257 98 258 186 258 187 258 98 259 187 259 99 259 99 260 187 260 188 260 99 261 188 261 189 261 99 262 189 262 100 262 100 263 189 263 190 263 100 264 190 264 101 264 101 265 190 265 191 265 101 266 191 266 102 266 102 267 191 267 192 267 102 268 192 268 103 268 103 269 192 269 193 269 103 270 193 270 104 270 104 271 193 271 194 271 104 272 194 272 195 272 104 273 195 273 105 273 105 274 195 274 196 274 105 275 196 275 106 275 106 276 196 276 197 276 106 277 197 277 107 277 107 278 197 278 198 278 107 279 198 279 108 279 108 280 198 280 199 280 108 281 199 281 109 281 109 282 199 282 200 282 109 283 200 283 201 283 109 284 201 284 110 284 110 285 201 285 202 285 110 286 202 286 111 286 111 287 202 287 203 287 111 288 203 288 112 288 112 289 203 289 204 289 112 290 204 290 113 290 113 291 204 291 205 291 113 292 205 292 114 292 114 293 205 293 206 293 114 294 206 294 207 294 114 295 207 295 115 295 115 296 207 296 208 296 115 297 208 297 116 297 116 298 208 298 209 298 116 299 209 299 117 299 117 300 209 300 210 300 117 301 210 301 118 301 118 302 210 302 211 302 118 303 211 303 119 303 119 304 211 304 212 304 119 305 212 305 213 305 119 306 213 306 120 306 120 307 213 307 214 307 120 308 214 308 121 308 121 309 214 309 215 309 121 310 215 310 122 310 122 311 215 311 216 311 122 312 216 312 123 312 123 313 216 313 136 313 123 314 136 314 124 314 217 315 218 315 219 315 219 316 218 316 220 316 219 317 220 317 221 317 221 318 220 318 222 318 221 317 222 317 223 317 223 317 224 317 221 317 221 319 224 319 225 319 221 320 225 320 226 320 226 317 227 317 221 317 221 317 227 317 228 317 221 321 228 321 229 321 229 322 230 322 221 322 221 323 230 323 231 323 221 324 231 324 232 324 221 325 232 325 233 325 233 326 232 326 234 326 233 327 234 327 235 327 235 317 236 317 233 317 233 328 236 328 237 328 233 329 237 329 238 329 238 330 239 330 233 330 233 331 239 331 240 331 233 332 240 332 241 332 241 317 242 317 233 317 233 333 242 333 243 333 233 334 243 334 244 334 244 317 245 317 233 317 233 335 245 335 246 335 233 336 246 336 247 336 233 317 247 317 248 317 248 337 247 337 249 337 248 317 249 317 250 317 250 338 249 338 251 338 250 317 251 317 252 317 252 339 251 339 253 339 252 317 253 317 254 317 254 340 253 340 255 340 254 341 255 341 256 341 256 317 255 317 257 317 256 342 257 342 258 342 258 343 257 343 259 343 258 317 259 317 260 317 260 344 259 344 261 344 260 345 261 345 262 345 262 346 261 346 263 346 264 347 218 347 265 347 265 348 218 348 217 348 265 349 217 349 266 349 266 350 217 350 219 350 266 351 219 351 267 351 267 351 219 351 221 351 267 352 221 352 268 352 268 353 221 353 233 353 268 354 233 354 269 354 269 355 233 355 248 355 269 356 248 356 270 356 270 357 248 357 250 357 270 358 250 358 271 358 271 359 250 359 252 359 271 360 252 360 272 360 272 361 252 361 254 361 272 362 254 362 273 362 273 363 254 363 256 363 273 364 256 364 274 364 274 364 256 364 258 364 274 365 258 365 275 365 275 365 258 365 260 365 275 366 260 366 276 366 276 367 260 367 262 367 276 368 262 368 277 368 277 369 262 369 263 369 277 370 263 370 278 370 278 371 263 371 261 371 278 372 261 372 279 372 279 373 261 373 259 373 279 374 259 374 280 374 280 375 259 375 257 375 280 376 257 376 281 376 281 376 257 376 255 376 281 377 255 377 282 377 282 378 255 378 253 378 282 379 253 379 283 379 283 380 253 380 251 380 283 381 251 381 284 381 284 382 251 382 249 382 284 383 249 383 285 383 285 383 249 383 247 383 285 384 247 384 286 384 286 385 247 385 246 385 286 386 246 386 287 386 287 387 246 387 245 387 287 388 245 388 288 388 288 389 245 389 244 389 288 390 244 390 289 390 289 391 244 391 243 391 289 392 243 392 290 392 290 393 243 393 242 393 290 394 242 394 291 394 291 395 242 395 241 395 291 396 241 396 292 396 292 397 241 397 240 397 292 398 240 398 293 398 293 399 240 399 239 399 293 400 239 400 294 400 294 401 239 401 238 401 294 402 238 402 295 402 295 403 238 403 237 403 295 404 237 404 296 404 296 404 237 404 236 404 296 405 236 405 297 405 297 406 236 406 235 406 297 407 235 407 298 407 298 407 235 407 234 407 298 408 234 408 299 408 299 409 234 409 232 409 299 410 232 410 300 410 300 411 232 411 231 411 300 412 231 412 301 412 301 413 231 413 230 413 301 414 230 414 302 414 302 414 230 414 229 414 302 415 229 415 303 415 303 416 229 416 228 416 303 417 228 417 304 417 304 418 228 418 227 418 304 419 227 419 305 419 305 420 227 420 226 420 305 421 226 421 306 421 306 422 226 422 225 422 306 423 225 423 307 423 307 423 225 423 224 423 307 424 224 424 308 424 308 425 224 425 223 425 308 426 223 426 309 426 309 427 223 427 222 427 309 428 222 428 310 428 310 429 222 429 220 429 310 430 220 430 264 430 264 431 220 431 218 431 136 317 311 317 137 317 137 317 311 317 312 317 137 317 312 317 138 317 138 317 312 317 313 317 138 317 313 317 139 317 139 317 313 317 314 317 139 317 314 317 140 317 140 317 314 317 315 317 140 317 315 317 316 317 311 317 136 317 317 317 317 317 136 317 216 317 317 317 216 317 318 317 318 317 216 317 319 317 319 317 216 317 215 317 319 317 215 317 320 317 320 317 215 317 214 317 320 317 214 317 321 317 321 317 214 317 322 317 322 317 214 317 213 317 322 317 213 317 323 317 323 317 213 317 212 317 323 317 212 317 324 317 324 317 212 317 325 317 325 317 212 317 211 317 325 317 211 317 326 317 326 317 211 317 327 317 327 317 211 317 210 317 327 317 210 317 328 317 328 317 210 317 209 317 328 317 209 317 329 317 329 317 209 317 208 317 329 317 208 317 330 317 330 317 208 317 207 317 330 317 207 317 331 317 331 317 207 317 206 317 331 317 206 317 332 317 332 317 206 317 333 317 333 317 206 317 205 317 333 317 205 317 334 317 334 317 205 317 204 317 334 317 204 317 335 317 335 317 204 317 336 317 336 317 204 317 203 317 336 317 203 317 337 317 337 317 203 317 338 317 338 317 203 317 202 317 338 317 202 317 339 317 339 317 202 317 201 317 339 317 201 317 340 317 340 317 201 317 341 317 341 317 201 317 200 317 341 317 200 317 342 317 342 317 200 317 199 317 342 317 199 317 343 317 343 317 199 317 198 317 343 317 198 317 344 317 344 317 198 317 345 317 345 317 198 317 197 317 345 317 197 317 346 317 346 317 197 317 196 317 346 317 196 317 347 317 347 317 196 317 195 317 347 317 195 317 348 317 348 317 195 317 349 317 349 317 195 317 194 317 349 317 194 317 350 317 350 317 194 317 193 317 350 317 193 317 351 317 351 317 193 317 352 317 352 317 193 317 192 317 352 317 192 317 353 317 353 317 192 317 354 317 354 317 192 317 191 317 354 317 191 317 355 317 355 317 191 317 190 317 355 317 190 317 356 317 356 317 190 317 189 317 356 317 189 317 357 317 357 317 189 317 188 317 357 317 188 317 358 317 358 317 188 317 359 317 359 317 188 317 187 317 359 317 187 317 360 317 360 317 187 317 186 317 360 317 186 317 361 317 361 317 186 317 185 317 361 317 185 317 362 317 362 317 185 317 363 317 363 317 185 317 184 317 363 317 184 317 364 317 364 317 184 317 365 317 365 317 184 317 183 317 365 317 183 317 366 317 366 317 183 317 182 317 366 317 182 317 367 317 367 317 182 317 368 317 368 317 182 317 181 317 368 317 181 317 369 317 369 317 181 317 180 317 369 317 180 317 370 317 370 317 180 317 179 317 370 317 179 317 371 317 371 317 179 317 372 317 371 317 372 317 373 317 179 317 178 317 372 317 372 317 178 317 374 317 374 317 178 317 177 317 374 317 177 317 375 317 375 317 177 317 176 317 375 317 176 317 376 317 376 317 176 317 175 317 376 317 175 317 377 317 377 317 175 317 378 317 378 317 175 317 174 317 378 317 174 317 379 317 379 317 174 317 380 317 380 317 174 317 173 317 380 317 173 317 381 317 381 317 173 317 382 317 382 317 173 317 172 317 382 317 172 317 383 317 383 317 172 317 171 317 383 317 171 317 384 317 384 317 171 317 170 317 384 317 170 317 385 317 385 317 170 317 386 317 386 317 170 317 169 317 386 317 169 317 387 317 387 317 169 317 168 317 387 317 168 317 388 317 388 317 168 317 167 317 388 317 167 317 389 317 389 317 167 317 166 317 389 317 166 317 390 317 390 317 166 317 391 317 391 317 166 317 165 317 391 317 165 317 392 317 392 317 165 317 164 317 392 317 164 317 393 317 393 317 164 317 394 317 394 317 164 317 163 317 394 317 163 317 395 317 395 317 163 317 396 317 396 317 163 317 162 317 396 317 162 317 397 317 397 317 162 317 161 317 397 317 161 317 398 317 398 317 161 317 399 317 399 317 161 317 160 317 399 317 160 317 400 317 400 317 160 317 159 317 400 317 159 317 401 317 401 317 159 317 158 317 401 317 158 317 402 317 402 317 158 317 157 317 402 317 157 317 403 317 403 317 157 317 156 317 403 317 156 317 404 317 404 317 156 317 405 317 405 317 156 317 155 317 405 317 155 317 406 317 406 317 155 317 407 317 407 317 155 317 154 317 407 317 154 317 408 317 408 317 154 317 152 317 408 317 152 317 409 317 409 317 152 317 410 317 410 317 152 317 151 317 410 317 151 317 411 317 411 317 151 317 150 317 411 317 150 317 412 317 412 317 150 317 149 317 412 317 149 317 413 317 413 317 149 317 148 317 413 317 148 317 414 317 414 317 148 317 415 317 414 317 415 317 416 317 148 317 147 317 415 317 415 317 147 317 417 317 417 317 147 317 146 317 417 317 146 317 418 317 418 317 146 317 145 317 418 317 145 317 419 317 419 317 145 317 144 317 419 317 144 317 420 317 420 317 144 317 421 317 421 317 144 317 143 317 421 317 143 317 422 317 422 317 143 317 142 317 422 317 142 317 423 317 423 317 142 317 424 317 424 317 142 317 141 317 424 317 141 317 316 317 316 317 141 317 140 317 400 317 401 317 425 317 425 317 401 317 426 317 425 317 426 317 427 317 427 317 426 317 428 317 427 317 428 317 429 317 429 317 428 317 430 317 429 317 430 317 431 317 431 317 430 317 432 317 431 317 432 317 433 317 431 317 433 317 434 317 434 317 433 317 435 317 434 317 435 317 436 317 436 317 435 317 437 317 436 317 437 317 438 317 436 317 438 317 439 317 439 317 438 317 440 317 439 317 440 317 441 317 441 317 440 317 442 317 441 317 442 317 416 317 416 317 442 317 414 317 443 317 444 317 445 317 445 317 444 317 446 317 445 317 446 317 447 317 447 317 446 317 448 317 447 317 448 317 449 317 449 317 448 317 450 317 449 317 450 317 451 317 451 317 450 317 387 317 387 317 450 317 386 317 452 317 453 317 373 317 373 317 453 317 454 317 373 317 454 317 371 317 453 317 452 317 455 317 455 317 452 317 456 317 455 317 456 317 457 317 457 317 456 317 458 317 457 317 458 317 459 317 457 317 459 317 460 317 460 317 459 317 443 317 460 317 443 317 445 317 461 317 462 317 463 317 463 317 462 317 464 317 463 317 464 317 465 317 465 317 464 317 466 317 465 317 466 317 467 317 467 317 466 317 468 317 467 317 468 317 469 317 467 317 469 317 470 317 470 317 469 317 471 317 470 317 471 317 453 317 453 317 471 317 454 317 358 317 472 317 357 317 357 317 472 317 473 317 473 317 472 317 474 317 473 317 474 317 475 317 475 317 474 317 476 317 475 317 476 317 477 317 477 317 476 317 478 317 477 317 478 317 479 317 479 317 478 317 480 317 480 317 478 317 481 317 480 317 481 317 482 317 482 317 481 317 483 317 482 317 483 317 484 317 484 317 483 317 485 317 485 317 483 317 486 317 485 317 486 317 487 317 487 317 486 317 488 317 487 317 488 317 489 317 489 317 488 317 490 317 489 317 490 317 344 317 344 317 490 317 343 317 472 317 491 317 474 317 474 317 491 317 492 317 492 317 491 317 461 317 492 317 461 317 463 317 451 317 493 317 449 317 449 317 493 317 494 317 494 317 493 317 495 317 494 317 495 317 496 317 496 317 495 317 497 317 496 317 497 317 498 317 496 317 498 317 499 317 499 317 498 317 500 317 499 317 500 317 501 317 501 317 500 317 502 317 501 317 502 317 503 317 501 317 503 317 504 317 504 317 503 317 505 317 504 317 505 317 427 317 427 317 505 317 425 317 329 317 330 317 506 317 506 317 330 317 507 317 506 317 507 317 508 317 508 317 507 317 509 317 508 317 509 317 510 317 510 317 509 317 511 317 510 317 511 317 512 317 512 317 511 317 513 317 512 317 513 317 514 317 512 317 514 317 515 317 515 317 514 317 516 317 515 317 516 317 517 317 517 317 516 317 518 317 517 317 518 317 519 317 517 317 519 317 520 317 520 317 519 317 521 317 520 317 521 317 488 317 488 317 521 317 490 317 311 317 522 317 312 317 312 317 522 317 523 317 523 317 522 317 524 317 523 317 524 317 525 317 525 317 524 317 526 317 525 317 526 317 527 317 527 317 526 317 528 317 527 317 528 317 529 317 529 317 528 317 530 317 530 317 528 317 531 317 530 317 531 317 532 317 532 317 531 317 533 317 532 317 533 317 534 317 534 317 533 317 535 317 535 317 533 317 536 317 535 317 536 317 537 317 537 317 536 317 441 317 537 317 441 317 416 317 522 317 538 317 524 317 524 317 538 317 539 317 539 317 538 317 540 317 539 317 540 317 541 317 541 317 540 317 542 317 541 317 542 317 543 317 541 317 543 317 544 317 544 317 543 317 545 317 544 317 545 317 546 317 546 317 545 317 547 317 546 317 547 317 548 317 546 317 548 317 549 317 549 317 548 317 550 317 549 317 550 317 508 317 508 317 550 317 506 317 551 317 552 317 553 317 553 432 552 432 554 432 553 317 554 317 555 317 555 433 554 433 556 433 555 317 556 317 557 317 557 434 556 434 558 434 557 317 558 317 559 317 559 317 558 317 560 317 559 317 560 317 561 317 561 435 560 435 562 435 561 317 562 317 563 317 563 317 562 317 564 317 563 436 564 436 565 436 552 437 551 437 566 437 566 434 551 434 567 434 566 438 567 438 568 438 568 439 567 439 569 439 568 317 569 317 570 317 570 440 569 440 571 440 570 317 571 317 572 317 572 441 571 441 573 441 572 442 573 442 574 442 555 443 411 443 553 443 553 444 411 444 412 444 553 445 412 445 551 445 551 446 412 446 413 446 551 447 413 447 414 447 555 448 557 448 411 448 411 449 557 449 410 449 410 450 557 450 559 450 410 451 559 451 409 451 409 452 559 452 561 452 409 453 561 453 408 453 408 454 561 454 563 454 408 454 563 454 407 454 407 455 563 455 565 455 407 456 565 456 406 456 406 457 565 457 564 457 406 458 564 458 405 458 405 459 564 459 562 459 405 460 562 460 404 460 404 461 562 461 560 461 404 462 560 462 403 462 403 463 560 463 558 463 403 464 558 464 402 464 402 465 558 465 556 465 402 465 556 465 401 465 401 466 556 466 554 466 401 467 554 467 426 467 426 468 554 468 552 468 426 469 552 469 428 469 428 470 552 470 566 470 428 471 566 471 430 471 430 472 566 472 568 472 430 473 568 473 432 473 432 474 568 474 570 474 432 475 570 475 433 475 433 476 570 476 572 476 433 476 572 476 435 476 435 477 572 477 574 477 435 478 574 478 437 478 437 479 574 479 573 479 437 480 573 480 438 480 438 481 573 481 571 481 438 482 571 482 440 482 440 483 571 483 569 483 440 484 569 484 442 484 442 485 569 485 567 485 442 486 567 486 414 486 414 447 567 447 551 447 70 487 575 487 71 487 71 488 575 488 153 488 67 489 66 489 575 489 575 490 66 490 153 490 70 491 69 491 575 491 575 492 69 492 68 492 575 493 68 493 67 493 266 494 526 494 265 494 265 495 526 495 524 495 265 496 524 496 539 496 526 497 266 497 528 497 528 498 266 498 267 498 528 499 267 499 531 499 531 500 267 500 268 500 531 501 268 501 533 501 533 502 268 502 269 502 533 503 269 503 536 503 536 504 269 504 270 504 536 505 270 505 441 505 441 506 270 506 271 506 441 507 271 507 439 507 439 508 271 508 272 508 439 509 272 509 436 509 436 510 272 510 273 510 436 511 273 511 434 511 434 512 273 512 274 512 434 513 274 513 431 513 431 514 274 514 275 514 431 515 275 515 429 515 429 516 275 516 276 516 429 517 276 517 427 517 427 518 276 518 277 518 427 519 277 519 504 519 504 520 277 520 278 520 504 521 278 521 501 521 501 522 278 522 279 522 501 523 279 523 499 523 499 524 279 524 280 524 499 525 280 525 496 525 496 526 280 526 281 526 496 527 281 527 494 527 494 528 281 528 282 528 494 529 282 529 449 529 449 530 282 530 283 530 449 531 283 531 447 531 447 532 283 532 284 532 447 533 284 533 445 533 445 534 284 534 285 534 445 535 285 535 460 535 460 536 285 536 286 536 460 537 286 537 457 537 457 538 286 538 287 538 457 539 287 539 455 539 455 540 287 540 288 540 455 541 288 541 453 541 453 542 288 542 289 542 453 543 289 543 470 543 470 544 289 544 290 544 470 545 290 545 467 545 467 546 290 546 291 546 467 547 291 547 465 547 465 548 291 548 292 548 465 549 292 549 463 549 463 550 292 550 293 550 463 551 293 551 492 551 492 552 293 552 294 552 492 553 294 553 474 553 474 554 294 554 295 554 474 555 295 555 476 555 476 556 295 556 296 556 476 557 296 557 478 557 478 558 296 558 297 558 478 559 297 559 481 559 481 560 297 560 298 560 481 561 298 561 483 561 483 562 298 562 299 562 483 563 299 563 486 563 486 564 299 564 300 564 486 565 300 565 488 565 488 566 300 566 301 566 488 567 301 567 520 567 520 568 301 568 302 568 520 569 302 569 517 569 517 570 302 570 303 570 517 571 303 571 515 571 515 572 303 572 304 572 515 573 304 573 512 573 512 574 304 574 305 574 512 575 305 575 510 575 510 576 305 576 306 576 510 577 306 577 508 577 508 578 306 578 307 578 508 579 307 579 549 579 549 580 307 580 308 580 549 581 308 581 546 581 546 582 308 582 309 582 546 583 309 583 544 583 544 584 309 584 310 584 544 585 310 585 541 585 541 586 310 586 264 586 541 587 264 587 539 587 539 588 264 588 265 588 576 317 577 317 578 317 578 317 577 317 579 317 578 317 579 317 580 317 580 317 579 317 581 317 580 317 581 317 582 317 582 589 581 589 583 589 582 590 583 590 584 590 584 317 583 317 585 317 584 317 585 317 586 317 586 591 585 591 587 591 586 317 587 317 588 317 588 317 587 317 589 317 588 317 589 317 590 317 577 317 576 317 591 317 591 592 576 592 592 592 591 438 592 438 593 438 593 317 592 317 594 317 593 317 594 317 595 317 595 593 594 593 596 593 595 317 596 317 597 317 597 317 596 317 598 317 597 317 598 317 599 317 580 594 423 594 578 594 578 595 423 595 424 595 578 596 424 596 576 596 576 597 424 597 316 597 576 447 316 447 315 447 580 598 582 598 423 598 423 599 582 599 422 599 422 600 582 600 584 600 422 601 584 601 421 601 421 602 584 602 586 602 421 603 586 603 420 603 420 454 586 454 588 454 420 454 588 454 419 454 419 604 588 604 590 604 419 604 590 604 418 604 418 605 590 605 589 605 418 606 589 606 417 606 417 607 589 607 587 607 417 608 587 608 415 608 415 609 587 609 585 609 415 610 585 610 416 610 416 611 585 611 583 611 416 612 583 612 537 612 537 465 583 465 581 465 537 465 581 465 535 465 535 613 581 613 579 613 535 614 579 614 534 614 534 615 579 615 577 615 534 616 577 616 532 616 532 617 577 617 591 617 532 618 591 618 530 618 530 619 591 619 593 619 530 620 593 620 529 620 529 621 593 621 595 621 529 621 595 621 527 621 527 476 595 476 597 476 527 476 597 476 525 476 525 622 597 622 599 622 525 623 599 623 523 623 523 624 599 624 598 624 523 625 598 625 312 625 312 626 598 626 596 626 312 627 596 627 313 627 313 628 596 628 594 628 313 629 594 629 314 629 314 630 594 630 592 630 314 631 592 631 315 631 315 447 592 447 576 447 600 317 601 317 602 317 602 632 601 632 603 632 602 317 603 317 604 317 604 317 603 317 605 317 604 317 605 317 606 317 606 633 605 633 607 633 606 317 607 317 608 317 608 317 607 317 609 317 608 317 609 317 610 317 610 634 609 634 611 634 610 317 611 317 612 317 612 317 611 317 613 317 612 317 613 317 614 317 601 317 600 317 615 317 615 635 600 635 616 635 615 317 616 317 617 317 617 317 616 317 618 317 617 317 618 317 619 317 619 317 618 317 620 317 619 317 620 317 621 317 621 317 620 317 622 317 621 317 622 317 623 317 604 636 320 636 602 636 602 637 320 637 321 637 602 597 321 597 600 597 600 596 321 596 322 596 600 447 322 447 323 447 604 598 606 598 320 598 320 599 606 599 319 599 319 638 606 638 608 638 319 639 608 639 318 639 318 603 608 603 610 603 318 603 610 603 317 603 317 454 610 454 612 454 317 454 612 454 311 454 311 640 612 640 614 640 311 604 614 604 522 604 522 641 614 641 613 641 522 642 613 642 538 642 538 607 613 607 611 607 538 608 611 608 540 608 540 643 611 643 609 643 540 644 609 644 542 644 542 645 609 645 607 645 542 646 607 646 543 646 543 465 607 465 605 465 543 465 605 465 545 465 545 647 605 647 603 647 545 648 603 648 547 648 547 649 603 649 601 649 547 650 601 650 548 650 548 617 601 617 615 617 548 618 615 618 550 618 550 651 615 651 617 651 550 652 617 652 506 652 506 653 617 653 619 653 506 654 619 654 329 654 329 476 619 476 621 476 329 476 621 476 328 476 328 655 621 655 623 655 328 655 623 655 327 655 327 656 623 656 622 656 327 657 622 657 326 657 326 626 622 626 620 626 326 627 620 627 325 627 325 658 620 658 618 658 325 659 618 659 324 659 324 631 618 631 616 631 324 630 616 630 323 630 323 447 616 447 600 447 624 317 625 317 626 317 626 660 625 660 627 660 626 317 627 317 628 317 628 317 627 317 629 317 628 317 629 317 630 317 630 633 629 633 631 633 630 317 631 317 632 317 632 317 631 317 633 317 632 661 633 661 634 661 634 317 633 317 635 317 634 317 635 317 636 317 636 317 635 317 637 317 636 317 637 317 638 317 625 317 624 317 639 317 639 434 624 434 640 434 639 662 640 662 641 662 641 317 640 317 642 317 641 317 642 317 643 317 643 663 642 663 644 663 643 317 644 317 645 317 645 317 644 317 646 317 645 317 646 317 647 317 628 636 331 636 626 636 626 637 331 637 332 637 626 596 332 596 624 596 624 597 332 597 333 597 624 447 333 447 334 447 628 598 630 598 331 598 331 599 630 599 330 599 330 600 630 600 632 600 330 601 632 601 507 601 507 602 632 602 634 602 507 603 634 603 509 603 509 454 634 454 636 454 509 454 636 454 511 454 511 604 636 604 638 604 511 604 638 604 513 604 513 605 638 605 637 605 513 606 637 606 514 606 514 607 637 607 635 607 514 608 635 608 516 608 516 643 635 643 633 643 516 664 633 664 518 664 518 611 633 611 631 611 518 612 631 612 519 612 519 465 631 465 629 465 519 465 629 465 521 465 521 613 629 613 627 613 521 614 627 614 490 614 490 665 627 665 625 665 490 650 625 650 343 650 343 666 625 666 639 666 343 667 639 667 342 667 342 619 639 619 641 619 342 620 641 620 341 620 341 621 641 621 643 621 341 621 643 621 340 621 340 476 643 476 645 476 340 476 645 476 339 476 339 622 645 622 647 622 339 623 647 623 338 623 338 624 647 624 646 624 338 625 646 625 337 625 337 668 646 668 644 668 337 669 644 669 336 669 336 658 644 658 642 658 336 659 642 659 335 659 335 630 642 630 640 630 335 631 640 631 334 631 334 447 640 447 624 447 648 317 649 317 650 317 650 670 649 670 651 670 650 317 651 317 652 317 652 317 651 317 653 317 652 317 653 317 654 317 654 671 653 671 655 671 654 672 655 672 656 672 656 673 655 673 657 673 656 674 657 674 658 674 658 317 657 317 659 317 658 317 659 317 660 317 660 317 659 317 661 317 660 317 661 317 662 317 649 317 648 317 663 317 663 675 648 675 664 675 663 662 664 662 665 662 665 317 664 317 666 317 665 317 666 317 667 317 667 676 666 676 668 676 667 317 668 317 669 317 669 317 668 317 670 317 669 317 670 317 671 317 652 677 487 677 650 677 650 677 487 677 489 677 650 678 489 678 648 678 648 679 489 679 344 679 648 447 344 447 345 447 652 448 654 448 487 448 487 448 654 448 485 448 485 680 654 680 656 680 485 681 656 681 484 681 484 682 656 682 658 682 484 453 658 453 482 453 482 454 658 454 660 454 482 454 660 454 480 454 480 455 660 455 662 455 480 683 662 683 479 683 479 684 662 684 661 684 479 685 661 685 477 685 477 460 661 460 659 460 477 460 659 460 475 460 475 686 659 686 657 686 475 686 657 686 473 686 473 687 657 687 655 687 473 688 655 688 357 688 357 465 655 465 653 465 357 465 653 465 356 465 356 689 653 689 651 689 356 690 651 690 355 690 355 691 651 691 649 691 355 691 649 691 354 691 354 692 649 692 663 692 354 692 663 692 353 692 353 693 663 693 665 693 353 694 665 694 352 694 352 695 665 695 667 695 352 475 667 475 351 475 351 476 667 476 669 476 351 476 669 476 350 476 350 477 669 477 671 477 350 696 671 696 349 696 349 697 671 697 670 697 349 698 670 698 348 698 348 699 670 699 668 699 348 699 668 699 347 699 347 700 668 700 666 700 347 700 666 700 346 700 346 701 666 701 664 701 346 702 664 702 345 702 345 447 664 447 648 447 672 317 673 317 674 317 674 317 673 317 675 317 674 317 675 317 676 317 676 317 675 317 677 317 676 317 677 317 678 317 678 589 677 589 679 589 678 590 679 590 680 590 680 317 679 317 681 317 680 317 681 317 682 317 682 591 681 591 683 591 682 317 683 317 684 317 684 317 683 317 685 317 684 317 685 317 686 317 673 317 672 317 687 317 687 592 672 592 688 592 687 438 688 438 689 438 689 317 688 317 690 317 689 317 690 317 691 317 691 593 690 593 692 593 691 317 692 317 693 317 693 317 692 317 694 317 693 317 694 317 695 317 676 595 400 595 674 595 674 703 400 703 425 703 674 704 425 704 672 704 672 705 425 705 505 705 672 447 505 447 503 447 676 599 678 599 400 599 400 598 678 598 399 598 399 706 678 706 680 706 399 601 680 601 398 601 398 603 680 603 682 603 398 603 682 603 397 603 397 454 682 454 684 454 397 454 684 454 396 454 396 604 684 604 686 604 396 640 686 640 395 640 395 605 686 605 685 605 395 707 685 707 394 707 394 608 685 608 683 608 394 607 683 607 393 607 393 708 683 708 681 708 393 609 681 609 392 609 392 646 681 646 679 646 392 645 679 645 391 645 391 465 679 465 677 465 391 465 677 465 390 465 390 648 677 648 675 648 390 647 675 647 389 647 389 616 675 616 673 616 389 709 673 709 388 709 388 618 673 618 687 618 388 617 687 617 387 617 387 710 687 710 689 710 387 620 689 620 451 620 451 711 689 711 691 711 451 621 691 621 493 621 493 476 691 476 693 476 493 476 693 476 495 476 495 622 693 622 695 622 495 622 695 622 497 622 497 624 695 624 694 624 497 712 694 712 498 712 498 627 694 627 692 627 498 626 692 626 500 626 500 629 692 629 690 629 500 713 690 713 502 713 502 714 690 714 688 714 502 715 688 715 503 715 503 447 688 447 672 447 696 317 697 317 698 317 698 660 697 660 699 660 698 317 699 317 700 317 700 317 699 317 701 317 700 317 701 317 702 317 702 633 701 633 703 633 702 317 703 317 704 317 704 317 703 317 705 317 704 716 705 716 706 716 706 317 705 317 707 317 706 317 707 317 708 317 708 317 707 317 709 317 708 317 709 317 710 317 697 317 696 317 711 317 711 434 696 434 712 434 711 662 712 662 713 662 713 317 712 317 714 317 713 317 714 317 715 317 715 663 714 663 716 663 715 317 716 317 717 317 717 317 716 317 718 317 717 317 718 317 719 317 700 637 464 637 698 637 698 717 464 717 462 717 698 704 462 704 696 704 696 705 462 705 461 705 696 447 461 447 491 447 700 599 702 599 464 599 464 598 702 598 466 598 466 706 702 706 704 706 466 601 704 601 468 601 468 603 704 603 706 603 468 603 706 603 469 603 469 454 706 454 708 454 469 454 708 454 471 454 471 604 708 604 710 604 471 640 710 640 454 640 454 605 710 605 709 605 454 707 709 707 371 707 371 608 709 608 707 608 371 607 707 607 370 607 370 644 707 644 705 644 370 643 705 643 369 643 369 646 705 646 703 646 369 645 703 645 368 645 368 465 703 465 701 465 368 465 701 465 367 465 367 648 701 648 699 648 367 647 699 647 366 647 366 650 699 650 697 650 366 649 697 649 365 649 365 667 697 667 711 667 365 666 711 666 364 666 364 710 711 710 713 710 364 620 713 620 363 620 363 711 713 711 715 711 363 621 715 621 362 621 362 476 715 476 717 476 362 476 717 476 361 476 361 622 717 622 719 622 361 622 719 622 360 622 360 624 719 624 718 624 360 712 718 712 359 712 359 669 718 669 716 669 359 668 716 668 358 668 358 659 716 659 714 659 358 718 714 718 472 718 472 714 714 714 712 714 472 715 712 715 491 715 491 447 712 447 696 447 720 317 721 317 722 317 722 719 721 719 723 719 722 317 723 317 724 317 724 317 723 317 725 317 724 317 725 317 726 317 726 633 725 633 727 633 726 317 727 317 728 317 728 317 727 317 729 317 728 317 729 317 730 317 730 720 729 720 731 720 730 317 731 317 732 317 732 317 731 317 733 317 732 317 733 317 734 317 721 317 720 317 735 317 735 635 720 635 736 635 735 317 736 317 737 317 737 317 736 317 738 317 737 317 738 317 739 317 739 317 738 317 740 317 739 317 740 317 741 317 741 317 740 317 742 317 741 317 742 317 743 317 724 637 446 637 722 637 722 636 446 636 444 636 722 597 444 597 720 597 720 596 444 596 443 596 720 447 443 447 459 447 724 599 726 599 446 599 446 598 726 598 448 598 448 721 726 721 728 721 448 722 728 722 450 722 450 603 728 603 730 603 450 602 730 602 386 602 386 454 730 454 732 454 386 454 732 454 385 454 385 604 732 604 734 604 385 604 734 604 384 604 384 723 734 723 733 723 384 724 733 724 383 724 383 608 733 608 731 608 383 607 731 607 382 607 382 644 731 644 729 644 382 643 729 643 381 643 381 645 729 645 727 645 381 646 727 646 380 646 380 465 727 465 725 465 380 465 725 465 379 465 379 647 725 647 723 647 379 648 723 648 378 648 378 650 723 650 721 650 378 649 721 649 377 649 377 618 721 618 735 618 377 617 735 617 376 617 376 725 735 725 737 725 376 726 737 726 375 726 375 653 737 653 739 653 375 653 739 653 374 653 374 476 739 476 741 476 374 476 741 476 372 476 372 727 741 727 743 727 372 655 743 655 373 655 373 728 743 728 742 728 373 729 742 729 452 729 452 627 742 627 740 627 452 626 740 626 456 626 456 659 740 659 738 659 456 658 738 658 458 658 458 631 738 631 736 631 458 630 736 630 459 630 459 447 736 447 720 447</p>
        </triangles>
      </mesh>
    </geometry>
  </library_geometries>
  <library_visual_scenes>
    <visual_scene id="Scene" name="Scene">
      <node id="Link_6" name="Link 6" type="NODE">
        <matrix sid="transform">1 0 0 0 0 1 0 0 0 0 1 0 0 0 0 1</matrix>
        <instance_geometry url="#Link_6-mesh" name="Link 6">
          <bind_material>
            <technique_common>
              <instance_material symbol="Material-material" target="#Material-material"/>
            </technique_common>
          </bind_material>
        </instance_geometry>
      </node>
      <node id="Camera" name="Camera" type="NODE">
        <matrix sid="transform">0.6859207 -0.3240135 0.6515582 7.481132 0.7276763 0.3054209 -0.6141704 -6.50764 -4.01133e-9 0.8953956 0.4452714 5.343665 0 0 0 1</matrix>
        <instance_camera url="#Camera-camera"/>
      </node>
      <node id="Lamp" name="Lamp" type="NODE">
        <matrix sid="transform">-0.2908646 -0.7711008 0.5663933 4.076245 0.9551712 -0.1998833 0.2183912 1.005454 -0.05518904 0.6045247 0.7946723 5.903862 0 0 0 1</matrix>
        <instance_light url="#Lamp-light"/>
      </node>
    </visual_scene>
  </library_visual_scenes>
  <scene>
    <instance_visual_scene url="#Scene"/>
  </scene>
</COLLADA>