<?xml version="1.0" encoding="utf-8"?>
<COLLADA xmlns="http://www.collada.org/2005/11/COLLADASchema" version="1.4.1" xmlns:xsi="http://www.w3.org/2001/XMLSchema-instance">
  <asset>
    <contributor>
      <author>Blender User</author>
      <authoring_tool>Blender 2.82.7</authoring_tool>
    </contributor>
    <created>2024-02-04T15:17:05</created>
    <modified>2024-02-04T15:17:05</modified>
    <unit name="meter" meter="1"/>
    <up_axis>Z_UP</up_axis>
  </asset>
  <library_effects>
    <effect id="Material_008-effect">
      <profile_COMMON>
        <technique sid="common">
          <lambert>
            <emission>
              <color sid="emission">0 0 0 1</color>
            </emission>
            <diffuse>
              <color sid="diffuse">0.0118336 0.0118336 0.0118336 1</color>
            </diffuse>
            <index_of_refraction>
              <float sid="ior">1.45</float>
            </index_of_refraction>
          </lambert>
        </technique>
      </profile_COMMON>
    </effect>
  </library_effects>
  <library_images/>
  <library_materials>
    <material id="Material_008-material" name="Material.008">
      <instance_effect url="#Material_008-effect"/>
    </material>
  </library_materials>
  <library_geometries>
    <geometry id="Link6_002-mesh" name="Link6.002">
      <mesh>
        <source id="Link6_002-mesh-positions">
          <float_array id="Link6_002-mesh-positions-array" count="960">0.07299995 0.002316653 0.005481839 0.07299995 -6.95043e-4 0.006027877 0.07299995 -7.45145e-4 -0.005961894 0.07299995 0.005039274 0.003449201 0.07299995 0.006042599 1.57416e-4 0.07299995 0.005492031 -0.002524852 0.07299995 0.003814458 -0.004688978 0.07299995 0.001354157 -0.005890846 0.07299995 -0.005227804 -0.003155827 0.07299995 -0.002680599 -0.005417525 0.07299995 -0.006054699 5.33581e-4 0.07299995 -0.005152106 0.003115296 0.07299995 -0.003540396 0.004899203 0.07999998 0.002005994 0.005682528 0.07999998 -3.60213e-4 0.006033897 0.07999998 0.004076302 0.004463374 0.07999998 0.005627155 0.002207458 0.07999998 0.006035983 -3.39985e-4 0.07999998 0.005328238 -0.002803444 0.07999998 0.003309726 -0.005148053 0.07999992 1.29755e-4 -0.00604695 0.07999992 -0.002037107 -0.005657553 0.07999998 -0.003687858 -0.004790365 0.07999998 -0.005184769 -0.002993345 0.07999998 -0.006020963 -5.32448e-4 0.07999998 -0.005517601 0.002524554 0.07999998 -0.003297448 0.005106151 0.07999992 0.02948784 -0.001488268 0.07999998 0.02935534 0.0033046 0.07999998 0.009036958 0.007518589 0.07999998 0.02852737 0.007512986 0.07999998 0.01295655 -0.01230937 0.07999998 0.01172691 -0.01317363 0.07999998 0.02474445 -0.01615279 0.07999992 0.01025468 -0.01308941 0.07999992 0.009253621 -0.01212131 0.07999998 0.009037017 -0.01324325 0.07999992 0.009020864 -0.007596373 0.07999998 0.00901246 -0.01096642 0.07999992 0.009853661 -0.009330868 0.07999998 0.01182967 -0.009109079 0.07999998 0.02762949 -0.01048535 0.07999998 0.01311057 -0.01022028 0.07999998 0.0113604 -0.02729433 0.07999998 0.01938706 -0.02240461 0.07402902 -7.5996e-4 -0.01322299 0.07999998 9.69394e-4 -0.01339781 0.07999998 0.002396941 -0.01479113 0.07999998 -0.00424987 -0.01324325 0.07999998 -7.4678e-4 -0.01338261 0.07999998 -5.91961e-4 -0.02959084 0.07999902 0.005377233 -0.02948659 0.07999998 0.002001523 -0.01745986 0.07999998 1.03148e-4 -0.01827383 0.07999998 0.007518529 -0.01324325 0.07999998 -0.002428889 -0.014777 0.07999998 -0.002035319 -0.01744413 0.07999998 -0.007311165 -0.02871179 0.07999998 -0.007518351 -0.01324325 0.07999998 -0.01323682 -0.01324325 0.07999998 -0.0203216 -0.02144229 0.07999998 -0.01417011 -0.02597504 0.07999777 -0.02513062 -0.01629388 0.07999908 -0.02786493 -0.0110138 0.07999998 -0.01323682 -0.009036719 0.07999998 -0.01323682 -0.007518351 0.07999998 -0.02913784 -0.004865646 0.07999998 -0.02950787 -0.001494407 0.07999998 -0.0270884 0.01204836 0.07999873 -0.02965164 0.004184484 0.07999998 -0.01323682 0.007518529 0.07999998 -0.01323688 0.01323711 0.07999998 -0.02006047 0.02187609 0.07999998 -0.007518351 0.01323711 0.07999998 -0.0124011 0.0268175 0.07999998 -0.006618082 0.02879351 0.07999998 -0.00424993 0.01323711 0.07999998 9.40568e-4 0.02964174 0.07999998 0.004448175 0.01320803 0.07999998 0.009270191 0.02813786 0.07999998 0.009036958 0.01323711 0.07999998 0.02567344 0.01453042 0.07999998 0.02336645 0.0180763 0.07999998 0.01885217 0.02283447 0.07999998 0.01314246 0.01044994 0.07999998 0.01230233 0.009338974 0.07999998 0.01173084 0.01315891 0.07999998 0.01242923 0.0127803 0.07999998 0.02720606 0.01151525 0.07999998 0.01316004 0.01184272 0.07999998 0.01113837 0.009020209 0.07999998 0.009985804 0.009329855 0.07999998 0.009204089 0.01191145 0.07999992 0.01014733 0.01303768 0.07999998 0.01113694 0.01323711 0.07999998 0.009132623 0.01043057 0.07999998 0.009039342 0.01123708 0.07999992 -0.01230984 -0.01295608 0.07999998 -0.0131061 -0.01188975 0.07999998 -0.0111525 -0.008984088 0.07999998 -0.009664475 -0.009579956 0.07999998 -0.007508397 -0.007629036 0.07999998 -0.01226705 -0.009378135 0.07999998 -0.01312869 -0.0103442 0.07999998 -0.00897473 -0.01124298 0.07999998 -0.009969294 -0.01295959 0.07999998 -0.01113682 -0.01323676 0.07999998 -0.01323443 -0.01123666 0.07999998 0.007599472 -0.008240044 0.07999998 -0.006682991 0.007246077 0.07999998 0.005061089 0.007522225 0.07999998 0.02889537 -0.006187975 0.07999998 -0.01162618 0.009069025 0.07999998 -0.01295965 0.009969532 0.07999998 -0.01025021 0.01308327 0.07999998 -0.009196996 0.01203048 0.07999998 -0.009112894 0.01051688 0.07999998 -0.01004332 0.009256839 0.07999998 -0.01190698 0.01306271 0.07999998 -0.01123678 0.01323473 0.07999992 -0.01304531 0.01211124 0.07999998 -0.01323682 0.01113712 0.06949633 0.01221537 -0.009285151 0.06949633 0.01319515 -0.0105409 0.06949806 0.01083904 -0.009037852 0.0694952 0.009433031 -0.009801805 0.06949758 0.009016156 -0.01130634 0.06949633 0.009580731 -0.0126096 0.06949454 0.01123422 -0.01330965 0.06949526 0.01296007 -0.01230376 0.06823819 0.01113694 -0.01113671 0.0694952 -0.009963333 -0.01295566 0.069498 -0.01154178 -0.01321762 0.06949806 -0.009077608 -0.01164031 0.06949633 -0.00918436 -0.01025402 0.06949847 -0.0103237 -0.009155035 0.06949925 -0.01195591 -0.00916785 0.06949526 -0.01318365 -0.01043242 0.06949859 -0.01312804 -0.01182633 0.069498 -0.01260256 -0.01266825 0.06823819 -0.01113682 -0.01113671 0.06949865 -0.01323449 0.01093631 0.06949633 -0.01282614 0.009818971 0.06949806 -0.01164048 0.009077906 0.06949633 -0.01025408 0.009184718 0.06949931 -0.009156227 0.01033252 0.06949925 -0.009167909 0.01195615 0.06949746 -0.0100643 0.01297175 0.06949943 -0.01114517 0.01325774 0.06949996 -0.01218205 0.01294755 0.06949633 -0.01303762 0.0121262 0.06823819 -0.01113682 0.01113712 0.06949865 0.01054286 0.01315885 0.06949746 0.01155048 0.01322168 0.06949633 0.009522914 0.01254642 0.06949943 0.009025156 0.01133024 0.06949633 0.009386897 0.009900808 0.06949961 0.01074796 0.009108304 0.06949633 0.01228863 0.009330213 0.06949454 0.01328903 0.01082134 0.06949651 0.0127685 0.01253879 0.06823819 0.01113694 0.01113712 0.074 0.001848578 -0.0138989 0.074 0.002532422 -0.01598095 0.074 0.001651227 -0.01771271 0.074 -0.001056373 -0.01816189 0.074 -0.002648293 -0.01575994 0.07950133 0.03001523 0.002024829 0.07949328 0.0289942 0.007823705 0.07949239 0.02715414 0.01287144 0.07950377 0.0232796 0.01904565 0.07949239 0.0185343 0.02365386 0.07896906 0.01364052 0.02688264 0.07950341 0.007136106 0.02921628 0.0795027 -9.47033e-4 0.03007203 0.07949572 -0.00846982 0.0288428 0.07950097 -0.01488554 0.02614331 0.07950067 -0.02072852 0.02175062 0.07950687 -0.02479386 0.01700687 0.07950323 -0.02831298 0.01015079 0.07950228 -0.02990931 -0.003557682 0.07949912 -0.02064961 -0.02186298 0.07950097 -0.01475 -0.02621966 0.07949841 -0.007595181 -0.02910327 0.07950133 -0.001013517 -0.03002262 0.07949239 0.01073688 -0.02806639 0.07949042 0.01748466 -0.02451026 0.07949239 0.0231685 -0.01913708 0.07950222 0.02748978 -0.01229119 0.0794999 0.02964031 -0.004940211 0.07800871 -0.005514085 -0.02957487 0.07799619 0.001840412 -0.03000444 0.07801026 -0.01422643 -0.02659773 0.07799994 -0.02189272 -0.0206173 0.07799446 -0.02682161 -0.01370292 0.07800006 -0.02934652 -0.006459653 0.07750517 -0.02983611 -0.001024305 0.07751101 -0.02967935 0.004037737 0.07799953 -0.02843081 0.009690225 0.07801353 -0.02554315 0.01592165 0.07751226 -0.02084237 0.0215221 0.07800006 -0.01574307 0.02559518 0.07750427 -0.01098465 0.02776587 0.07751637 -0.004844903 0.02958339 0.07800549 0.001590847 0.02999377 0.07799923 0.007698059 0.0290715 0.07800072 0.01919925 0.0230174 0.07799977 0.02434539 0.01765096 0.0780009 0.02769714 0.01165574 0.07799941 0.02943545 0.006044864 0.07799834 0.03005385 -0.0012151 0.07799941 0.02903217 -0.007753431 0.07799899 0.0265178 -0.01420736 0.07799923 0.02204322 -0.02045714 0.07799929 0.01610624 -0.02539652 0.07799923 0.00910753 -0.02866089 0.07749998 0.029545 -0.001173853 0.07749992 0.0276544 -0.01081234 0.07749992 0.02052909 -0.0215131 0.07749992 0.01076012 -0.02759617 0.07749998 0.001184761 -0.02957057 0.07749992 -0.007805049 -0.02859419 0.07749992 -0.01677089 -0.02438765 0.07749998 -0.02332204 -0.01819032 0.07749992 -0.02756762 -0.01092642 0.07750004 -0.02522921 0.01564449 0.07749992 0.004153609 0.02940291 0.07749998 0.01555454 0.02527475 0.07749998 0.02388715 0.01749187 0.07749992 0.02861553 0.007928967 0.07749944 -0.01581913 0.01948493 0.07749879 0.008055984 0.02368748 0.07749956 0.004130303 0.02468526 0.07749944 -1.18706e-4 0.02503347 0.07749885 -0.0039047 0.02470844 0.07749944 -0.008250772 0.0236395 0.07749938 0.001604378 -0.02495932 0.07749795 0.005290806 -0.0244655 0.0774995 -0.01150661 0.02221101 0.07749944 0.01077276 -0.02262377 0.0774995 0.01559954 -0.01957893 0.07749909 0.01879382 -0.01654779 0.07749891 -0.02130925 0.01318073 0.07749944 -0.02337867 0.008921742 0.07749921 -0.02504485 -0.001212179 0.07749944 -0.02401775 -0.007084548 0.07749944 0.02191144 -0.01211637 0.07749938 0.01867109 0.01671051 0.07749885 0.01173698 0.02210623 0.07749938 -0.02463436 0.004449367 0.07749968 -0.02220404 -0.01152259 0.07749897 -0.02019077 -0.01478701 0.07749968 -0.001058757 -0.02498567 0.07749944 0.02227514 0.01150488 0.07749938 -0.0169636 -0.01847994 0.0774995 -0.01241987 -0.02173489 0.0774995 0.02338981 -0.008873105 0.07749915 0.02455782 -0.004929423 0.07749909 -0.009055435 -0.02331846 0.07749903 -0.003998219 -0.02468639 0.07749956 0.02452993 0.005136728 0.07749921 0.02502286 1.78099e-4 0.06834894 0.0151546 0.01992517 0.06858009 -0.005786716 -0.02435469 0.06834918 -0.01934176 0.01590317 0.06833016 -8.09233e-4 -0.02501851 0.0683574 -0.009420037 -0.02316999 0.06835049 -0.0125547 -0.02165162 0.06836366 -0.01683264 -0.01855224 0.06837302 -0.02029085 -0.01467132 0.06835287 -0.02306407 -0.009806334 0.06834232 -0.02479547 -0.003686368 0.06837505 -0.02498286 0.00117433 0.06835621 -0.02459096 0.004643082 0.06833451 -0.02375006 0.007843017 0.06836396 -0.02231752 0.01133418 0.06841754 -0.01584535 0.01936131 0.06833845 -0.01298213 0.02137672 0.06839227 -0.008843004 0.02344918 0.06833142 -0.00340861 0.02480679 0.06750077 7.46206e-4 0.02500438 0.06837999 0.004698634 0.02458399 0.06832492 0.01113969 0.02241456 0.06750047 0.01846903 0.0168727 0.06836146 0.02050161 0.0143283 0.06834828 0.02240729 0.01114684 0.06839138 0.02384835 0.007575392 0.06837415 0.02462857 0.004361569 0.06838196 0.02504146 2.31922e-4 0.06750071 0.02471661 -0.003755688 0.06834632 0.02363812 -0.008341431 0.06838166 0.0213387 -0.01309418 0.06750035 0.0191344 -0.01607048 0.06839168 0.01652479 -0.01879906 0.06835335 0.01352387 -0.02103769 0.06835556 0.01050937 -0.02271962 0.06837177 0.007023215 -0.02401149 0.06750035 0.003646194 -0.02473992 0.06749999 -1.06329e-4 -0.02455562 0.06749999 0.02371186 0.006413578 0.06749999 0.01480764 -0.01958966 0.06749999 0.006966829 0.02354502 0.06749999 -0.0127089 -0.02103686 0.06749999 0.02450245 0.001079082 0.06749999 0.02253806 -0.009830713 0.06749999 0.00942552 -0.02266186 0.06749999 -0.006333947 -0.02374625 0.06749999 -0.01741135 -0.01732516 0.06749999 -0.0216152 -0.01162326 0.06749999 -0.02367234 -0.006476104 0.06749999 -0.02454262 -0.001180171 0.06749999 -0.02382129 0.00590676 0.06749999 -0.02188777 0.01110267 0.06749999 -0.0197044 0.01459938 0.06749999 -0.01589977 0.01868516 0.06749999 -0.01203233 0.02139091 0.06749999 -0.005738675 0.02392172 0.06749999 0.01327013 0.0206725 0.06749999 0.02085667 0.01293671 0.06749999 0 1.78814e-7</float_array>
          <technique_common>
            <accessor source="#Link6_002-mesh-positions-array" count="320" stride="3">
              <param name="X" type="float"/>
              <param name="Y" type="float"/>
              <param name="Z" type="float"/>
            </accessor>
          </technique_common>
        </source>
        <source id="Link6_002-mesh-normals">
          <float_array id="Link6_002-mesh-normals-array" count="1686">1 0 0 1 -4.8655e-6 0 1 4.09386e-6 0 1 -2.9742e-6 0 0.007876038 -0.1468769 -0.9891234 0.02028906 -0.1783589 -0.9837563 0.002185583 -0.5074356 -0.861687 0.03377491 -0.5978964 -0.8008616 -0.03127533 -0.8236479 -0.5662384 0.02860397 -0.9561671 -0.2914215 -0.01218503 -0.9872916 -0.1584514 0.01336747 -0.9794898 0.2010505 -0.01149547 -0.9610553 0.2761172 0.008235812 -0.7578135 0.6524192 -0.01681137 -0.7902443 0.6125613 0.02726566 -0.438766 0.8981876 -0.02611231 -0.2719218 0.961965 0.01636916 -0.03381943 0.999294 -0.01014637 0.1768617 0.9841834 0.008118867 0.2707435 0.9626173 -0.01239496 0.4650219 0.8852125 0.02853244 0.6636822 0.7474703 -0.01958018 0.7682064 0.6399028 -0.0132929 0.9467459 0.3217073 0.02859157 0.9753941 0.2186071 -0.02948492 0.9862839 -0.1624035 0.02143514 0.9437521 -0.3299583 -0.01543408 0.7580934 -0.6519635 -0.005934357 0.7420011 -0.6703724 0.01468157 0.368682 -0.9294396 -0.01358526 0.3011622 -0.9534763 1 -1.80349e-6 -6.25391e-6 1 0 0 1 -1.95146e-6 0 1 2.18356e-5 2.23841e-5 1 -5.5281e-6 2.43633e-4 1 5.1583e-5 8.70848e-6 1 1.67675e-4 1.40473e-6 1 -2.51793e-5 -3.00454e-5 1 1.45266e-6 2.35026e-5 1 2.3034e-7 0 1 7.47251e-7 0 1 -4.68872e-6 -5.57762e-7 1 1.02309e-6 4.11397e-6 -0.1784328 0.6872557 0.70416 -0.1346331 -0.2247378 -0.9650736 0.02661436 0.03973466 0.9988558 1 1.61369e-4 -3.42846e-5 1 -4.17389e-6 0 1 -1.46004e-4 -3.96131e-5 1 2.04041e-5 -6.11479e-5 1 1.86067e-4 -2.7397e-5 1 -1.06599e-6 0 1 1.26778e-6 0 1 -2.37724e-4 2.05845e-4 1 -1.07593e-4 -3.03993e-4 1 -6.10136e-5 0 1 -2.46681e-5 -1.50623e-4 1 -5.53047e-7 0 1 -4.7807e-5 -1.43838e-4 1 -1.19898e-4 2.17365e-4 1 0 -3.23075e-6 1 5.24457e-6 -2.4936e-7 1 -9.90115e-7 0 1 -1.76907e-6 0 1 1.78255e-6 0 1 -3.23341e-6 0 1 1.29311e-6 -4.74357e-6 1 -6.95447e-7 0 1 2.12491e-6 0 1 2.52226e-7 0 1 3.03451e-5 3.4625e-6 1 0 -1.49432e-4 1 9.54952e-7 0 1 -1.34996e-5 0 1 -5.61927e-6 0 1 -4.39481e-5 0 1 3.5869e-5 -3.20108e-6 1 -2.95517e-6 0 1 -3.37519e-7 0 1 0 1.04825e-4 1 6.1966e-5 0 1 -1.6207e-6 0 1 1.82479e-5 8.80084e-6 1 2.27629e-7 0 1 1.27343e-5 -1.42341e-5 1 2.61849e-6 0 1 -3.03333e-6 0 1 9.80036e-6 0 1 -8.50458e-6 -9.33956e-6 1 3.98227e-5 0 1 6.16413e-6 0 1 -1.88639e-6 6.58922e-6 1 3.76433e-7 -1.97234e-6 1 2.16849e-5 -1.99499e-6 1 -5.07216e-5 0 1 7.10153e-6 0 1 3.79234e-6 0 1 0 3.92875e-6 1 6.7296e-6 3.73306e-6 1 0 3.62726e-6 1 -1.92917e-6 2.56937e-6 1 -2.28275e-6 0 1 -1.39211e-6 4.51147e-7 1 1.14953e-6 0 1 -6.22412e-5 0 1 -1.11548e-6 0 1 -7.15603e-6 0 1 2.72948e-6 0 1 -4.1364e-6 0 1 2.37337e-6 0 1 -1.35263e-5 0 1 -8.22265e-7 0 1 -1.10147e-5 0 1 2.46119e-6 0 1 -9.94091e-6 -2.70744e-5 1 1.44736e-4 0 0.01242727 -0.7883435 -0.6151098 -0.01140028 -0.6552472 -0.7553287 0.01000458 -0.1768245 -0.9841915 -0.01725894 0.1115241 -0.9936119 0.02027213 0.4772946 -0.8785096 -0.01510322 0.8891751 -0.4573178 0.008982837 0.9636656 -0.2669608 -0.006267786 0.9788681 0.2043967 0.01009863 0.9175693 0.3974475 -0.01176798 0.695113 0.7188042 0.01704579 0.3898276 0.9207302 -0.01560294 0.05710685 0.9982461 0.01242864 -0.5035163 0.8638964 2.42718e-4 -0.5750376 0.818127 -2.63367e-4 -0.9912249 0.1321859 -0.01027512 -0.9972398 0.07353442 0.845139 -0.4214392 -0.32883 0.847832 -0.09276139 -0.5220885 0.8447292 0.2542017 -0.4709714 0.8462399 0.513801 -0.14102 0.8479287 0.4867256 0.2100366 0.8420883 0.2110448 0.4963339 0.8375269 -0.2753863 0.4719229 0.8418126 -0.5351025 0.07083213 0.00810939 -0.1637005 0.9864768 2.33588e-4 -0.2309651 0.9729621 -2.61174e-4 -0.8294791 0.5585379 -0.01049071 -0.8652287 0.5012676 0.0126689 -0.9969678 -0.07677829 -0.017632 -0.9235633 -0.3830403 0.01445603 -0.6941672 -0.7196686 -0.01422572 -0.3717073 -0.9282411 0.01689565 0.007858395 -0.9998264 -0.009002983 0.3333181 -0.9427715 0.007308721 0.7174338 -0.6965885 0.001681566 0.7462955 -0.6656128 -0.004211604 0.9930391 -0.1177099 0.007885277 0.9991722 0.03990918 -8.85441e-4 0.9812251 0.1928641 0.001425027 0.8483215 0.5294796 -0.005932867 0.8012545 0.5982943 0.01151943 0.4598596 0.8879169 -0.007201015 0.2327015 0.9725216 0.8447422 -0.08615404 0.5281934 0.8450824 -0.444311 0.2973608 0.8479954 -0.528517 -0.03967094 0.8451283 -0.3703073 -0.3855265 0.8429411 0.004634082 -0.5379862 0.8412332 0.3865715 -0.3780069 0.8483269 0.5289657 0.02316862 0.8524081 0.4438402 0.2764176 0.8501406 0.2421563 0.4675697 -0.004199028 0.9729532 0.2309642 0.007020354 0.93922 0.343244 -0.005416631 0.5300219 0.8479667 -6.32872e-5 0.5596425 0.8287343 9.48156e-4 -0.07681316 0.9970451 -0.004454255 -0.11783 0.9930239 0.009753525 -0.7226248 0.6911716 -0.007109344 -0.804421 0.5940172 0.004253149 -0.999965 -0.00721544 -0.002371847 -0.9984562 -0.05549448 0.002607643 -0.7497509 -0.6617151 -0.005005121 -0.7069621 -0.7072338 0.005737364 -0.2557715 -0.9667203 -0.003489613 -0.1517409 -0.9884142 4.65635e-5 0.2485935 -0.9686079 0.002999126 0.2865875 -0.9580494 -0.01023215 0.6925362 -0.7213105 -6.21226e-4 0.6413206 -0.7672728 4.93018e-4 0.9865868 -0.1632371 0.003907859 0.9812126 -0.1928902 0.8508023 0.4941173 0.1788394 0.8478382 0.2801749 0.4501914 0.8479951 -0.03966289 0.528518 0.8446404 -0.3879522 0.3688846 0.8428074 -0.5382017 -0.003852725 0.8482247 -0.397836 -0.3496304 0.8516555 -0.1325871 -0.507054 0.8495731 0.3634158 -0.3823015 0.8498178 0.1514571 -0.5048472 0.850527 0.5191388 -0.08425468 0.003917098 0.0622313 -0.9980541 -0.003871321 0.1975497 -0.9802852 0.009495496 0.514765 -0.8572789 -0.01554137 0.7665539 -0.6419919 0.005194962 0.925475 -0.378773 -0.003417491 0.9714264 -0.2373164 -3.22208e-4 0.9933763 0.1149064 0.01109248 0.9693923 0.2452664 -0.01176667 0.7903319 0.612566 0.01828396 0.5030601 0.864058 -0.001544475 0.2594484 0.9657558 0.01360255 -0.1425206 0.9896985 -4.59765e-4 -0.2641385 0.9644847 6.19266e-4 -0.8304306 0.5571219 0.01019513 -0.7975831 0.6031229 -0.01350188 -0.9998291 0.01263052 0.01645058 -0.9568791 -0.2900202 -0.01133871 -0.7886571 -0.6147289 0.004261255 -0.4890259 -0.872259 0.002931296 -0.4765824 -0.8791251 -0.003682553 -0.1305552 -0.9914342 0.8525007 0.03351259 -0.5216506 0.8508006 0.2691136 -0.4513495 0.8493952 0.4891861 -0.1980528 0.8461207 0.5171397 0.1290208 0.8397873 0.2716702 0.4700559 0.8402456 -0.07554429 0.5369176 0.8420847 -0.4474207 0.3011783 0.8426762 -0.5150073 -0.157049 0.848744 -0.2581003 -0.4615388 0.04412513 -0.2501261 -0.9672073 -0.04254293 -0.6978326 -0.7149964 0.04039609 -0.949289 -0.3117992 -0.05133426 -0.9878961 0.146377 0.03290337 -0.8907686 0.4532646 -0.01572275 -0.3940169 0.9189687 0.04996937 -0.1634514 0.9852851 -0.05243772 0.3612121 0.9310082 0.06974434 0.8315169 0.5511038 -0.05998194 0.9875057 0.1457218 0.06842154 0.7999163 -0.5961983 -0.02198463 0.6380289 -0.7696985 0.9999345 0.009466469 -0.006451129 0.9999524 -0.008139014 -0.005394518 0.7813384 0.6238695 0.01724278 0.6498472 0.7483967 0.1326691 0.7149102 0.6860632 0.1349843 0.7297012 0.6492985 0.214354 0.6337548 0.7267158 0.2650268 0.7457814 0.5938724 0.3018707 0.5524265 0.6987003 0.4545798 0.6639027 0.6339794 0.3966149 0.7727953 0.4604189 0.4368089 0.5862776 0.5636549 0.5818692 0.7520707 0.3050512 0.5842376 0.7026817 0.3445454 0.6225167 0.3970929 0.3386607 0.8530101 0.8084558 0.1045707 0.5791926 0.4186701 0.09557217 0.9030954 0.7887851 -0.06854665 0.6108351 0.5684674 -0.1331831 0.8118542 0.7880138 -0.1990659 0.5825867 0.5640036 -0.3198713 0.7613031 0.8424649 -0.2920637 0.4527159 0.5164846 -0.5145727 0.6844404 0.6483244 -0.5776966 0.4959256 0.8999515 -0.3546438 0.2536043 0.4101938 -0.8114483 0.4162845 0.7576271 -0.6205893 0.2021644 0.6731875 -0.7392388 -0.01856362 0.781855 -0.6197383 -0.06802541 0.7016187 -0.6977337 -0.1445648 0.7247544 -0.503672 -0.4701551 0.7289059 -0.4061133 -0.5511518 0.735275 -0.4027724 -0.5451102 0.6631413 -0.2773867 -0.6951981 0.6831676 -0.2727727 -0.6774047 0.6464783 -0.09896659 -0.7564864 0.6980382 -0.09936386 -0.709133 0.6480357 0.01340252 -0.7614921 0.7091549 0.2424634 -0.6620505 0.6113584 0.3690876 -0.7000109 0.846004 0.2773841 -0.4553408 0.4017651 0.629022 -0.6655197 0.8264839 0.427475 -0.3663191 0.4592106 0.7508982 -0.4746341 0.8129056 0.5190159 -0.2642103 0.6030343 0.7652057 -0.2254105 0.5894666 0.7753468 -0.2266417 0.7590352 0.6459378 -0.08142459 0.5602973 0.8270882 -0.04463386 -0.1220982 -0.05808144 -0.9908172 0.1193349 -0.1374038 -0.9833003 -0.1504699 -0.3197 -0.935495 0.1033986 -0.3717752 -0.9225465 -0.00462079 -0.5940418 -0.804421 -0.1437771 -0.6085654 -0.7803694 0.1149667 -0.7688897 -0.6289606 -0.06334227 -0.8126305 -0.5793268 0.1529218 -0.8775367 -0.4544714 -0.04989486 -0.943108 -0.3287217 0.1316288 -0.9582167 -0.2539583 -0.1672729 -0.980458 -0.1035473 0.002638161 -0.9995176 0.0309472 0.009220302 -0.9994238 0.03267002 -0.002021074 -0.9757745 0.2187696 0.01076602 -0.9766021 0.2147848 -0.05759936 -0.905758 0.4198629 0.1138404 -0.8838925 0.4536235 -0.07794022 -0.7670422 0.6368452 -0.03130102 -0.7589648 0.650379 -0.05446529 -0.6199851 0.782721 0.05134975 -0.6001197 0.7982605 -0.0890842 -0.4210529 0.9026509 -0.00869143 -0.3878228 0.921693 -0.158476 -0.2799742 0.9468368 0.07360792 -0.16089 0.9842237 -0.1404514 -0.0523703 0.9887016 0.1254608 0.1044372 0.9865863 -0.03937214 0.1491636 0.9880284 0.03663235 0.3401363 0.9396624 -0.1043646 0.5554582 0.8249692 0.004482984 0.6966516 0.7173957 -0.1292671 0.7157004 0.6863403 0.1069243 0.8422634 0.5283555 -0.07969504 0.8700826 0.4864207 0.06277453 0.9376645 0.3418257 -0.07008755 0.9528543 0.2952227 0.08398306 0.9813516 0.1729047 -0.1554881 0.9842721 0.08385586 0.1401721 0.9886944 -0.05324685 -0.1102916 0.9819805 -0.1534603 0.1360707 0.9508554 -0.2781348 -0.138407 0.9228205 -0.3595079 0.1326907 0.8380628 -0.5291918 -0.0976535 0.8092005 -0.5793603 0.1237985 0.6816589 -0.7211208 -0.133123 0.6338718 -0.7618955 0.09436637 0.4641688 -0.8807056 -0.09993135 0.4205902 -0.9017305 0.09485942 0.2633557 -0.9600237 -0.06669563 0.1814196 -0.9811416 0.1266728 0.07310724 -0.9892469 -0.7146039 0.6911252 -0.1081076 -0.8367556 0.5373378 -0.1053956 -0.3279919 0.88025 -0.3429012 -0.8823215 0.3917458 -0.2608523 -0.7770206 0.5118075 -0.366459 -0.2993177 0.6102437 -0.7334927 -0.8869021 0.2441866 -0.3921451 -0.4706773 0.3729645 -0.7996002 -0.8176209 0.1162704 -0.5638946 -0.7400982 0.122563 -0.6612361 -0.6218085 -0.04672282 -0.7817744 -0.8195096 -0.06187367 -0.5697154 -0.3450464 -0.3035486 -0.8881449 -0.8744949 -0.2060195 -0.4391067 -0.3306579 -0.5802039 -0.7443311 -0.8421627 -0.3705655 -0.3917185 -0.4412034 -0.730584 -0.5211398 -0.8371933 -0.4721706 -0.2759754 -0.3886701 -0.8701249 -0.3030153 -0.8285684 -0.545844 -0.124615 -0.8667544 -0.4659534 0.1778321 -0.6160067 -0.7141993 0.3323478 -0.6307671 -0.6212283 0.464982 -0.8226947 -0.3046613 0.479953 -0.732791 0.01230573 0.6803426 -0.372037 0.138231 0.9178676 -0.8733298 0.1658526 0.4580263 -0.4194048 0.3732583 0.827513 -0.2001103 0.5356069 0.8204153 -0.8584818 0.3500592 0.3747903 -0.6615074 0.5412272 0.5191157 -0.6909236 0.6310645 0.3526787 -0.8557519 0.4637893 0.2293214 -0.4113782 0.8706074 0.269835 -0.7959597 0.6031559 0.05148977 -0.7097038 0.7008564 0.07156133 -0.9999969 -0.001871347 0.001675605 -1 -1.69508e-4 8.29559e-5 -1 2.61233e-5 8.19866e-5 -0.9999967 -0.001790165 0.001860141 -0.9999937 -1.39607e-4 0.003573417 -0.9999938 -9.78338e-4 0.003412365 -0.999997 0.001361846 0.002072393 -1 2.28392e-5 -1.24856e-4 -0.9999994 -2.47266e-4 -0.001058459 -0.9999996 -4.12892e-4 8.9712e-4 -0.9999995 -5.63154e-4 9.11242e-4 -0.9999945 -0.001310586 0.003057479 -1 3.03488e-4 -9.66689e-5 -1 2.75599e-5 -1.64993e-4 -1 -2.77766e-4 8.21764e-6 -0.9999992 -0.001228451 2.45324e-4 -1 -8.68701e-5 -5.08602e-5 -1 6.00099e-5 -9.60486e-5 -1 5.73815e-5 -8.25953e-5 -1 2.3615e-4 -8.95092e-5 -1 1.04894e-4 -6.92066e-5 -1 9.20562e-5 1.03462e-4 -1 9.53605e-5 2.51016e-4 -1 1.33113e-4 2.88207e-4 -0.9999964 -0.002403497 0.001228332 -0.9999993 -0.001233935 1.15743e-4 -1 -5.8278e-5 -7.76877e-5 -1 -5.47253e-5 -3.56469e-5 -1 -3.27292e-4 9.74367e-6 -1 -1.09114e-4 -1.12715e-4 -1 1.13155e-4 5.91099e-5 -1 9.80843e-5 6.2909e-5 -0.9999988 -0.001562833 -3.45856e-4 -0.9999971 -0.002358019 6.82439e-4 -1 -9.68129e-5 -1.98714e-4 -1 -9.38888e-5 -9.38486e-5 -1 -4.44066e-5 -9.23193e-5 -1 -4.56402e-5 -9.52326e-5 -1 9.06328e-5 -1.41057e-5 -1 4.88031e-5 -1.05457e-4 -1 -2.2516e-4 -2.17475e-4 -1 -5.82775e-5 -1.78026e-4 -1 -1.94788e-5 -2.16717e-4 -1 2.36362e-4 5.85232e-5 -1 1.87545e-4 -3.35049e-5 -1 8.46624e-5 1.19617e-5 -1 1.64376e-4 -3.24191e-6 -1 1.70651e-4 1.39757e-5 -1 4.43913e-5 7.07333e-5 -1 -1.49938e-4 2.10255e-4 -1 1.90063e-4 1.38545e-4 0.04122442 0.6135943 0.7885446 0.01645654 -0.2610709 -0.9651794 0.03322815 -0.7537036 0.656374 8.06736e-4 -0.1012888 -0.9948567 -0.01025176 -0.1326909 -0.9911045 -0.003085017 -0.3098303 -0.950787 0.002289772 -0.4258675 -0.9047827 -0.001766383 -0.4359301 -0.8999789 0.001276493 -0.5867004 -0.8098031 -0.001913964 -0.5823526 -0.8129342 -0.005437135 -0.7465928 -0.6652591 -8.59978e-5 -0.7529937 -0.6580278 0.002677679 -0.8511504 -0.5249153 -0.01124149 -0.8686909 -0.495227 0.01605355 -0.9255612 -0.3782578 -0.01930868 -0.9620454 -0.2722054 0.01972037 -0.9848552 -0.1722539 -0.01683443 -0.9991205 -0.03840291 0.01213657 -0.9973083 0.07231277 -0.002332389 -0.9936788 0.1122371 8.00472e-4 -0.9671583 0.2541736 0.007197141 -0.9627496 0.270299 -0.007199585 -0.9251007 0.3796537 0.01093471 -0.8993878 0.437015 -0.01781469 -0.8378376 0.5456289 -0.007645189 -0.7031141 0.711036 -0.009463667 -0.5757458 0.8175741 0.009083807 -0.5343054 0.8452427 -0.009339869 -0.4475954 0.8941875 0.006989598 -0.4017684 0.9157146 -0.004510283 -0.2424165 0.9701619 -0.002506077 -0.2388378 0.9710564 0.006060242 -0.08553379 0.9963169 -0.007137656 -0.04892492 0.998777 0.004165709 0.08167523 0.9966503 -0.004389941 0.1067295 0.9942785 0.00458908 0.2463343 0.9691741 0.005182862 0.3946946 0.9187978 -0.005746185 0.5269733 0.8498625 -0.001748502 0.6771984 0.7357984 -0.005701124 0.7822347 0.6229578 0.01630693 0.8220717 0.5691506 -0.007713317 0.8578336 0.5138696 -0.001242578 0.927363 0.3741608 0.01882231 0.9424886 0.3337081 -0.009538531 0.9717178 0.2359526 0.002304494 0.995035 0.09949988 0.002618312 0.9950919 0.09892189 0.001500725 0.9958801 -0.0906676 0.006132662 0.996568 -0.08255028 -0.01166379 0.9728962 -0.2309481 0.009518265 0.9587865 -0.283968 5.94902e-4 0.9099266 -0.4147691 -0.009831011 0.900108 -0.4355559 0.01033121 0.8178294 -0.5753682 -0.001022338 0.8037506 -0.5949655 -0.008493244 0.7212671 -0.6926051 0.007814705 0.6883175 -0.7253675 -0.007878303 0.5979868 -0.8014674 0.01381409 0.5334845 -0.8456971 -0.004881083 0.4872251 -0.8732629 -1.80617e-4 0.3474832 -0.9376863 0.01329511 0.3184397 -0.9478499 -0.008198261 0.212865 -0.9770472 0.005363821 0.1327699 -0.9911324 -0.009518384 0.06063759 -0.9981145 0.003850519 0.009892284 -0.9999437 -0.5682072 -0.1367462 -0.811444 -0.4173108 0.8825967 0.2165058 -0.4106311 0.5485619 -0.7283282 -0.04302799 0.2691571 0.9621347 -0.05636334 0.3976362 0.9158104 -0.4965434 -0.3775079 -0.7816216 -0.4939718 0.8686298 0.0383951 -0.5328487 0.7965617 -0.2855904 -0.3697759 0.8352959 -0.4068744 -0.5006941 0.75991 -0.4145386 -0.466455 0.558161 -0.6862041 -0.5598782 0.4034032 -0.7237419 -0.5884977 0.4008046 -0.7021582 -0.4478857 0.3088474 -0.8390542 -0.4644946 0.299615 -0.833352 -0.5134702 -0.04203999 -0.8570771 -0.4424109 -0.1155809 -0.8893333 -0.3661285 -0.2681145 -0.8911031 -0.6195706 -0.3070273 -0.7224032 -0.4314924 -0.5301443 -0.729905 -0.5735024 -0.5075487 -0.6430314 -0.4056045 -0.682909 -0.6075528 -0.6480357 -0.6130126 -0.4519574 -0.3847159 -0.8012151 -0.4583101 -0.6183543 -0.7297754 -0.2916607 -0.3545458 -0.8995651 -0.2551077 -0.6143729 -0.7785732 -0.1279454 -0.3765342 -0.9258092 -0.03315514 -0.6202666 -0.7798019 0.08472609 -0.5973562 -0.7978541 0.08120793 -0.4470026 -0.8658969 0.2245244 -0.5891704 -0.7572743 0.281805 -0.4900417 -0.8049894 0.3344417 -0.4313267 -0.7566273 0.4913986 -0.4911548 -0.7388643 0.461353 -0.5915783 -0.590042 0.5494412 -0.4371221 -0.6281315 0.6437197 -0.536359 -0.4838218 0.6915457 -0.4902028 -0.5107138 0.7063093 -0.4372938 -0.3980845 0.8064136 -0.6278444 -0.2903872 0.7221404 -0.3239923 -0.2327132 0.9169916 -0.5073295 -0.1418441 0.8499982 -0.489233 0.1991392 0.8491141 -0.6479268 0.3158633 0.6931244 -0.3924227 0.4863802 0.7806656 -0.5139983 0.5062042 0.6925049 -0.4367546 0.769105 0.4666079 -0.432166 0.7728319 0.4647188 -0.6380017 0.7054201 0.3087658 -0.5279381 0.7897823 0.3122903 -0.5696933 0.812977 0.1204915 -0.456808 0.8852363 0.08765375 -1 1.18333e-4 2.8621e-5 -1 0 0 -1 2.2216e-7 0 -1 1.52165e-6 0 -1 1.01048e-4 -4.47258e-7 -1 -5.8765e-5 -2.42545e-5 -1 5.27336e-5 3.86902e-5 -1 -2.13983e-5 -4.62984e-5 -1 4.48498e-5 1.01812e-4 -1 6.37518e-6 -1.47652e-4 -1 -5.66727e-5 9.35286e-5 -1 6.48814e-5 -4.25795e-5 -1 -1.20406e-4 3.57905e-5</float_array>
          <technique_common>
            <accessor source="#Link6_002-mesh-normals-array" count="562" stride="3">
              <param name="X" type="float"/>
              <param name="Y" type="float"/>
              <param name="Z" type="float"/>
            </accessor>
          </technique_common>
        </source>
        <vertices id="Link6_002-mesh-vertices">
          <input semantic="POSITION" source="#Link6_002-mesh-positions"/>
        </vertices>
        <triangles material="Material_008-material" count="636">
          <input semantic="VERTEX" source="#Link6_002-mesh-vertices" offset="0"/>
          <input semantic="NORMAL" source="#Link6_002-mesh-normals" offset="1"/>
          <p>0 0 1 0 2 0 3 0 0 0 2 0 4 0 3 0 2 0 5 0 4 0 2 0 6 0 5 0 2 0 7 0 6 0 2 0 8 1 9 1 2 1 10 2 8 2 2 2 11 3 10 3 2 3 12 0 11 0 2 0 1 0 12 0 2 0 13 4 14 4 1 4 1 5 0 5 13 5 15 6 13 6 0 6 0 7 3 7 15 7 16 8 15 8 3 8 3 9 4 9 16 9 17 10 16 10 4 10 4 11 5 11 17 11 18 12 17 12 5 12 19 13 18 13 5 13 5 14 6 14 19 14 6 15 7 15 19 15 20 16 19 16 7 16 7 17 2 17 20 17 21 18 20 18 2 18 2 19 9 19 21 19 22 20 21 20 9 20 9 21 8 21 22 21 23 22 22 22 8 22 24 23 23 23 8 23 8 24 10 24 24 24 25 25 24 25 10 25 10 26 11 26 25 26 26 27 25 27 11 27 11 28 12 28 26 28 12 29 1 29 26 29 14 30 26 30 1 30 27 31 28 31 29 31 28 32 30 32 29 32 31 33 32 33 33 33 34 34 35 34 36 34 36 0 33 0 32 0 32 35 34 35 36 35 37 36 38 36 39 36 36 37 35 37 38 37 37 38 39 38 40 38 41 39 37 39 40 39 40 40 42 40 41 40 31 41 33 41 41 41 41 0 42 0 31 0 36 42 43 42 44 42 36 43 44 43 33 43 45 44 46 44 47 44 47 45 48 45 45 45 48 46 49 46 45 46 50 47 51 47 52 47 50 48 52 48 53 48 51 49 43 49 54 49 54 50 47 50 51 50 52 51 51 51 47 51 55 52 49 52 48 52 53 0 56 0 50 0 56 53 57 53 50 53 56 0 55 0 48 0 48 0 57 0 56 0 57 0 48 0 58 0 59 0 60 0 61 0 58 0 59 0 61 0 61 0 57 0 58 0 62 54 60 54 59 54 63 55 62 55 59 55 59 56 64 56 63 56 65 57 66 57 63 57 67 58 66 58 65 58 68 59 69 59 70 59 70 60 69 60 67 60 68 0 70 0 71 0 71 61 72 61 68 61 71 0 73 0 74 0 71 62 74 62 72 62 73 63 75 63 74 63 73 0 76 0 75 0 77 0 75 0 76 0 76 0 78 0 77 0 79 64 77 64 78 64 79 65 78 65 80 65 80 0 81 0 82 0 83 66 79 66 80 66 82 67 83 67 80 67 30 0 84 0 85 0 86 0 87 0 81 0 88 68 81 68 89 68 87 69 89 69 81 69 89 0 84 0 88 0 30 70 88 70 84 70 90 0 91 0 29 0 80 71 92 71 93 71 80 72 93 72 94 72 94 0 81 0 80 0 81 73 94 73 86 73 29 0 30 0 85 0 85 74 90 74 29 74 29 75 91 75 95 75 96 76 92 76 80 76 59 77 97 77 98 77 99 0 100 0 101 0 64 0 102 0 99 0 103 78 102 78 64 78 100 0 104 0 101 0 105 79 106 79 58 79 59 0 58 0 106 0 106 80 97 80 59 80 59 0 98 0 107 0 64 0 59 0 107 0 107 81 103 81 64 81 104 82 105 82 58 82 38 83 37 83 108 83 36 0 38 0 108 0 109 0 26 0 14 0 14 84 110 84 109 84 14 0 13 0 110 0 13 0 15 0 110 0 101 85 21 85 22 85 25 0 26 0 109 0 101 86 22 86 23 86 101 87 23 87 24 87 24 88 25 88 109 88 18 0 19 0 108 0 20 89 108 89 19 89 15 0 16 0 110 0 110 90 16 90 17 90 108 91 17 91 18 91 37 92 111 92 27 92 29 93 37 93 27 93 108 94 37 94 29 94 29 0 110 0 108 0 17 95 108 95 110 95 58 96 101 96 104 96 21 97 101 97 58 97 58 98 48 98 21 98 20 99 21 99 48 99 48 100 47 100 20 100 108 101 20 101 47 101 47 102 54 102 108 102 108 0 54 0 36 0 43 0 36 0 54 0 37 103 41 103 111 103 101 0 65 0 99 0 65 104 64 104 99 104 63 105 64 105 65 105 95 0 96 0 29 0 80 0 29 0 96 0 110 0 29 0 80 0 80 0 78 0 110 0 109 0 110 0 78 0 78 106 76 106 109 106 76 0 73 0 109 0 109 107 101 107 24 107 65 108 101 108 109 108 109 0 70 0 65 0 67 0 65 0 70 0 70 109 112 109 113 109 114 0 115 0 73 0 116 0 117 0 109 0 70 110 109 110 117 110 117 111 112 111 70 111 118 112 119 112 71 112 73 0 71 0 119 0 119 0 114 0 73 0 115 113 116 113 73 113 109 114 73 114 116 114 71 115 120 115 118 115 113 0 121 0 70 0 71 0 70 0 121 0 121 116 120 116 71 116 122 117 123 117 42 117 42 118 40 118 122 118 124 119 122 119 40 119 40 120 39 120 124 120 125 121 124 121 39 121 39 122 38 122 125 122 126 123 125 123 38 123 38 124 35 124 126 124 127 125 126 125 35 125 35 126 34 126 127 126 128 127 127 127 34 127 34 128 32 128 128 128 129 129 128 129 32 129 32 130 31 130 129 130 123 131 129 131 31 131 31 132 42 132 123 132 130 133 123 133 122 133 130 134 122 134 124 134 130 135 124 135 125 135 130 136 125 136 126 136 130 137 126 137 127 137 130 138 127 138 128 138 130 139 128 139 129 139 130 140 129 140 123 140 131 141 132 141 106 141 106 142 105 142 131 142 133 143 131 143 105 143 105 144 104 144 133 144 134 145 133 145 104 145 104 146 100 146 134 146 135 147 134 147 100 147 100 148 99 148 135 148 136 149 135 149 99 149 99 150 102 150 136 150 137 151 136 151 102 151 102 152 103 152 137 152 103 153 107 153 137 153 138 154 137 154 107 154 107 155 98 155 138 155 139 156 138 156 98 156 98 157 97 157 139 157 132 158 139 158 97 158 97 159 106 159 132 159 140 160 132 160 131 160 140 161 131 161 133 161 140 162 133 162 134 162 140 163 134 163 135 163 135 164 136 164 140 164 140 165 136 165 137 165 140 166 137 166 138 166 140 167 138 167 139 167 140 168 139 168 132 168 121 169 113 169 141 169 142 170 141 170 113 170 143 171 142 171 113 171 113 172 112 172 143 172 144 173 143 173 112 173 112 174 117 174 144 174 145 175 144 175 117 175 117 176 116 176 145 176 146 177 145 177 116 177 116 178 115 178 146 178 147 179 146 179 115 179 115 180 114 180 147 180 148 181 147 181 114 181 114 182 119 182 148 182 119 183 118 183 148 183 149 184 148 184 118 184 150 185 149 185 118 185 118 186 120 186 150 186 141 187 150 187 120 187 120 188 121 188 141 188 151 189 141 189 142 189 151 190 142 190 143 190 151 191 143 191 144 191 151 192 144 192 145 192 145 193 146 193 151 193 151 194 146 194 147 194 151 195 147 195 148 195 151 196 149 196 150 196 151 197 148 197 149 197 151 198 150 198 141 198 152 199 153 199 94 199 94 200 93 200 152 200 154 201 152 201 93 201 93 202 92 202 154 202 155 203 154 203 92 203 92 204 96 204 155 204 96 205 95 205 155 205 156 206 155 206 95 206 95 207 91 207 156 207 157 208 156 208 91 208 91 209 90 209 157 209 158 210 157 210 90 210 90 211 85 211 158 211 159 212 158 212 85 212 85 213 84 213 159 213 84 214 89 214 159 214 160 215 159 215 89 215 89 216 87 216 160 216 153 217 160 217 87 217 87 218 86 218 153 218 86 219 94 219 153 219 161 220 153 220 152 220 161 221 152 221 154 221 161 222 154 222 155 222 161 223 155 223 156 223 161 224 156 224 157 224 161 225 157 225 158 225 161 226 158 226 159 226 161 227 159 227 160 227 161 228 160 228 153 228 45 229 162 229 46 229 47 230 46 230 162 230 162 231 163 231 47 231 52 232 47 232 163 232 163 233 164 233 52 233 53 234 52 234 164 234 164 235 165 235 53 235 56 236 53 236 165 236 165 237 166 237 56 237 55 238 56 238 166 238 166 239 45 239 55 239 49 240 55 240 45 240 162 241 45 241 165 241 163 0 162 0 165 0 164 0 163 0 165 0 45 242 166 242 165 242 28 243 27 243 167 243 167 244 168 244 28 244 30 245 28 245 168 245 88 246 30 246 168 246 168 247 169 247 88 247 81 248 88 248 169 248 82 249 81 249 169 249 169 250 170 250 82 250 83 251 82 251 170 251 170 252 171 252 83 252 171 253 172 253 83 253 79 254 83 254 172 254 172 255 173 255 79 255 77 256 79 256 173 256 173 257 174 257 77 257 75 258 77 258 174 258 174 259 175 259 75 259 74 260 75 260 175 260 74 261 175 261 176 261 72 262 74 262 176 262 72 263 176 263 177 263 72 264 177 264 178 264 68 265 72 265 178 265 178 266 179 266 68 266 69 267 68 267 179 267 67 268 69 268 180 268 66 269 67 269 180 269 66 270 180 270 63 270 60 271 62 271 181 271 61 272 60 272 181 272 61 273 181 273 182 273 57 274 61 274 182 274 57 275 182 275 183 275 50 276 57 276 183 276 50 277 183 277 184 277 184 278 51 278 50 278 51 279 185 279 43 279 185 280 186 280 43 280 44 281 43 281 186 281 186 282 187 282 44 282 33 283 44 283 187 283 187 284 188 284 33 284 41 285 33 285 188 285 111 286 41 286 188 286 188 287 189 287 111 287 27 288 111 288 189 288 189 289 167 289 27 289 190 290 191 290 184 290 184 291 183 291 190 291 192 292 190 292 183 292 183 293 182 293 192 293 182 294 181 294 192 294 193 295 192 295 181 295 181 296 62 296 193 296 194 297 193 297 62 297 62 298 63 298 194 298 195 299 194 299 63 299 63 300 180 300 195 300 196 301 195 301 180 301 197 302 196 302 180 302 180 303 69 303 197 303 69 304 179 304 197 304 198 305 197 305 179 305 199 306 198 306 179 306 179 307 178 307 199 307 200 308 199 308 178 308 178 309 177 309 200 309 201 310 200 310 177 310 177 311 176 311 201 311 202 312 201 312 176 312 176 313 175 313 202 313 203 314 202 314 175 314 175 315 174 315 203 315 204 316 203 316 174 316 174 317 173 317 204 317 205 318 204 318 173 318 173 319 172 319 205 319 206 320 172 320 171 320 171 321 170 321 206 321 207 322 206 322 170 322 170 323 169 323 207 323 208 324 207 324 169 324 169 325 168 325 208 325 209 326 208 326 168 326 168 327 167 327 209 327 210 328 209 328 167 328 167 329 189 329 210 329 211 330 210 330 189 330 189 331 188 331 211 331 212 332 211 332 188 332 188 333 187 333 212 333 213 334 212 334 187 334 187 335 186 335 213 335 214 336 213 336 186 336 186 337 185 337 214 337 215 338 214 338 185 338 185 339 51 339 215 339 191 340 215 340 51 340 51 341 184 341 191 341 216 342 210 342 211 342 217 343 216 343 211 343 217 344 211 344 212 344 218 345 217 345 212 345 218 346 212 346 213 346 218 347 213 347 214 347 219 348 218 348 214 348 219 349 214 349 215 349 220 350 219 350 215 350 220 351 215 351 191 351 191 352 190 352 220 352 221 353 220 353 190 353 190 354 192 354 221 354 222 355 221 355 192 355 192 356 193 356 222 356 223 357 222 357 193 357 193 358 194 358 223 358 224 359 223 359 194 359 194 360 195 360 224 360 196 361 224 361 195 361 225 362 197 362 198 362 198 363 199 363 225 363 199 364 200 364 225 364 202 365 200 365 201 365 203 366 204 366 226 366 226 367 204 367 205 367 227 368 226 368 205 368 227 369 205 369 172 369 227 370 172 370 206 370 228 371 227 371 206 371 228 372 206 372 207 372 228 373 207 373 208 373 229 374 228 374 208 374 229 375 208 375 209 375 229 376 209 376 210 376 216 377 229 377 210 377 200 378 202 378 230 378 231 379 232 379 226 379 232 380 233 380 226 380 203 381 226 381 233 381 233 382 234 382 203 382 234 383 235 383 203 383 202 384 203 384 235 384 219 385 220 385 236 385 236 386 237 386 219 386 235 387 238 387 202 387 238 388 230 388 202 388 225 389 200 389 230 389 237 390 239 390 219 390 240 391 241 391 218 391 242 392 243 392 225 392 224 393 196 393 244 393 244 394 245 394 224 394 218 395 219 395 239 395 239 396 240 396 218 396 241 397 246 397 218 397 217 398 218 398 246 398 227 399 228 399 247 399 226 400 227 400 248 400 248 401 231 401 226 401 196 402 197 402 249 402 249 403 244 403 196 403 245 404 250 404 224 404 223 405 224 405 250 405 250 406 251 406 223 406 252 407 236 407 220 407 228 408 229 408 253 408 253 409 247 409 228 409 197 410 225 410 243 410 243 411 249 411 197 411 251 412 254 412 223 412 222 413 223 413 254 413 222 414 254 414 255 414 221 415 222 415 255 415 217 416 246 416 256 416 256 417 257 417 217 417 221 418 255 418 258 418 258 419 259 419 221 419 220 420 221 420 259 420 259 421 252 421 220 421 216 422 217 422 257 422 260 423 253 423 229 423 257 424 261 424 216 424 229 425 216 425 261 425 261 426 260 426 229 426 230 427 242 427 225 427 227 428 247 428 248 428 247 429 262 429 248 429 259 430 258 430 263 430 242 431 230 431 264 431 252 432 259 432 265 432 263 433 265 433 259 433 258 434 266 434 263 434 266 435 258 435 255 435 255 436 267 436 266 436 255 437 268 437 267 437 255 438 254 438 268 438 269 439 268 439 254 439 269 440 254 440 251 440 251 441 250 441 269 441 270 442 269 442 250 442 250 443 245 443 270 443 271 444 270 444 245 444 271 445 245 445 244 445 272 446 271 446 244 446 244 447 249 447 272 447 273 448 272 448 249 448 274 449 273 449 249 449 249 450 243 450 274 450 275 451 274 451 243 451 243 452 242 452 275 452 264 453 275 453 242 453 276 454 264 454 230 454 277 455 276 455 230 455 230 456 238 456 277 456 278 457 277 457 238 457 238 458 235 458 278 458 279 459 278 459 235 459 235 460 234 460 279 460 234 461 233 461 279 461 280 462 279 462 233 462 280 463 233 463 232 463 232 464 281 464 280 464 232 465 231 465 281 465 231 466 248 466 282 466 262 467 282 467 248 467 283 468 262 468 247 468 284 469 283 469 247 469 247 470 253 470 284 470 285 471 284 471 253 471 286 472 285 472 253 472 253 473 260 473 286 473 260 474 287 474 286 474 260 475 288 475 287 475 260 476 261 476 288 476 261 477 257 477 288 477 289 478 288 478 257 478 290 479 289 479 257 479 257 480 256 480 290 480 256 481 246 481 290 481 291 482 290 482 246 482 246 483 241 483 291 483 292 484 291 484 241 484 293 485 292 485 241 485 241 486 240 486 293 486 240 487 294 487 293 487 240 488 239 488 294 488 295 489 294 489 239 489 239 490 296 490 295 490 239 491 237 491 296 491 297 492 296 492 237 492 237 493 236 493 297 493 236 494 265 494 297 494 236 495 252 495 265 495 263 496 298 496 265 496 287 497 299 497 286 497 294 498 300 498 293 498 231 499 282 499 301 499 231 500 301 500 281 500 267 501 302 501 266 501 289 502 303 502 288 502 289 503 290 503 304 503 304 504 290 504 291 504 292 505 304 505 291 505 292 506 293 506 300 506 294 507 295 507 305 507 305 508 300 508 294 508 295 509 296 509 305 509 297 510 305 510 296 510 297 511 265 511 298 511 298 512 263 512 306 512 263 513 266 513 306 513 266 514 302 514 306 514 267 515 268 515 302 515 268 516 307 516 302 516 268 517 269 517 307 517 308 518 307 518 269 518 308 519 269 519 270 519 309 520 308 520 270 520 270 521 271 521 309 521 310 522 309 522 271 522 271 523 272 523 310 523 272 524 273 524 310 524 311 525 310 525 273 525 273 526 274 526 311 526 312 527 311 527 274 527 274 528 275 528 312 528 275 529 264 529 313 529 313 530 312 530 275 530 314 531 313 531 264 531 264 532 276 532 314 532 315 533 314 533 277 533 314 534 276 534 277 534 277 535 278 535 315 535 316 536 315 536 278 536 278 537 279 537 316 537 280 538 316 538 279 538 281 539 301 539 280 539 282 540 317 540 301 540 282 541 262 541 317 541 262 542 283 542 317 542 283 543 284 543 318 543 284 544 285 544 318 544 299 545 318 545 285 545 285 546 286 546 299 546 303 547 299 547 287 547 287 548 288 548 303 548 316 549 280 549 319 549 315 550 316 550 319 550 314 550 315 550 319 550 313 550 314 550 319 550 312 550 313 550 319 550 311 550 312 550 319 550 310 550 311 550 319 550 309 551 310 551 319 551 308 550 309 550 319 550 307 550 308 550 319 550 302 550 307 550 319 550 306 550 302 550 319 550 298 552 306 552 319 552 297 553 298 553 319 553 305 554 297 554 319 554 300 550 305 550 319 550 292 555 300 555 319 555 304 556 292 556 319 556 289 557 304 557 319 557 303 558 289 558 319 558 299 550 303 550 319 550 318 550 299 550 319 550 283 559 318 559 319 559 317 560 283 560 319 560 301 550 317 550 319 550 280 561 301 561 319 561</p>
        </triangles>
      </mesh>
    </geometry>
  </library_geometries>
  <library_visual_scenes>
    <visual_scene id="Scene" name="Scene">
      <node id="Link6" name="Link6" type="NODE">
        <matrix sid="transform">1 0 0 0 0 1 0 0 0 0 1 0 0 0 0 1</matrix>
        <instance_geometry url="#Link6_002-mesh" name="Link6">
          <bind_material>
            <technique_common>
              <instance_material symbol="Material_008-material" target="#Material_008-material"/>
            </technique_common>
          </bind_material>
        </instance_geometry>
      </node>
    </visual_scene>
  </library_visual_scenes>
  <scene>
    <instance_visual_scene url="#Scene"/>
  </scene>
</COLLADA>